<svg id="Layer_1" data-name="Layer 1" xmlns="http://www.w3.org/2000/svg" xmlns:xlink="http://www.w3.org/1999/xlink" viewBox="0 0 125.301 81.178"><defs><clipPath id="clip-path" transform="translate(-87.957 -2.244)"><rect width="300" height="87" fill="none"/></clipPath><linearGradient id="linear-gradient" x1="160.429" y1="64.969" x2="158.562" y2="64.952" gradientTransform="matrix(1, 0, 0, -1, 0, 88)" gradientUnits="userSpaceOnUse"><stop offset="0" stop-opacity="0.961"/><stop offset="1"/></linearGradient></defs><g clip-path="url(#clip-path)"><path d="M143.718,13.455a5.115,5.115,0,0,1,1.638,0,.781.781,0,0,1,.149.215,2.731,2.731,0,0,1-.017,1.433c-.4.9-.211,7.776-.21,9.246a7.016,7.016,0,0,1-.072,2.041,5.48,5.48,0,0,0-.161,1.664l-.038,4.117-1.81.011a18.927,18.927,0,0,1-.042-2.117,2.87,2.87,0,0,1,.123-1.045,5.539,5.539,0,0,0,.111-1.667l.038-6.665,0-2.288a3.372,3.372,0,0,1,.111-1.187,3.992,3.992,0,0,0,.119-1.365Z" transform="translate(-87.957 -2.244)"/><path d="M173.114,64.405a3.14,3.14,0,0,1,1.456.109,1.7,1.7,0,0,1,.16.332c.012.4-.217.9-.222,1.354l-.025,3.673a5.936,5.936,0,0,1-.053,1.408,8.709,8.709,0,0,0-.2,2.354l-.022,2.883a5.55,5.55,0,0,1-.054,1.4,6.179,6.179,0,0,0-.175,1.474c-.062,1.237.059,2.5-.019,3.73l-.182.057-1.651,0a15.2,15.2,0,0,1,.054-3.609,2.812,2.812,0,0,0,.133-1.11l.052-4.047a5.1,5.1,0,0,1,.118-1.766.434.434,0,0,0,.08-.258l.078-2.071,0-3.1a3.124,3.124,0,0,1,.146-1.493,3.476,3.476,0,0,0,.139-1.211Z" transform="translate(-87.957 -2.244)"/><path d="M158.919,13.715a4.912,4.912,0,0,1,1.193-.027c.209.027.364.007.5.2.258.379.12,3.788.077,4.484-.041.659-.212,1.3-.227,1.972l-.022,3.334a7.888,7.888,0,0,1-.064,1.585,22.129,22.129,0,0,0-.2,4.8,5.573,5.573,0,0,1-.2,2.35l-1.661.015,0-5.036a3.2,3.2,0,0,1,.052-.641c.035-.147.128-.236.138-.4l.083-4.271a6.773,6.773,0,0,1,.119-2.389,3.029,3.029,0,0,0,.1-1.009l.051-3.095A11.736,11.736,0,0,1,158.919,13.715Z" transform="translate(-87.957 -2.244)" fill="url(#linear-gradient)"/><path d="M167.249,64.408l2.054-.02a3.166,3.166,0,0,1,1.225.117,3.357,3.357,0,0,1,.161,1.325l-2.953-.019a62.253,62.253,0,0,0-.128,7.008,8.766,8.766,0,0,1-.072,2.366,8.616,8.616,0,0,0-.192,2.7l.014,5.3-1.293,0a.431.431,0,0,1-.321-.212l.008-6.761.007-1.762a3.112,3.112,0,0,1,.08-.926,1.252,1.252,0,0,1,.172-.214,18.167,18.167,0,0,1,0-2.577l.013-4.661-3.026,0-.033-1.419,2.292-.009a3.026,3.026,0,0,0,.949-.064A4.228,4.228,0,0,1,167.249,64.408Z" transform="translate(-87.957 -2.244)"/><path d="M133.617,39.01l4.28.023a24.022,24.022,0,0,1,3.024.065l-.012,1.321-2.7.041a13.928,13.928,0,0,0-.11,2.273,3.91,3.91,0,0,1-.051,1.316,4.2,4.2,0,0,0-.178,1.471l-.021,2.772-.045,6.606a6.5,6.5,0,0,0-.142,2.562l.014.1-1.66-.015c-.077-.887-.031-1.8-.023-2.695a4.007,4.007,0,0,1,.062-1.125c.027-.077.155-.162.174-.237a7.33,7.33,0,0,0-.008-1.136l.042-7.129c0-.54-.17-2.575.156-2.968l.07-.074.025-1.758-3.243.029a5.974,5.974,0,0,1,.015-1.35Z" transform="translate(-87.957 -2.244)"/><path d="M127.465,39.01l1.03.1a32.89,32.89,0,0,1-.022,4.591l-.011,4.874a7.292,7.292,0,0,1-.064,2.071,6.811,6.811,0,0,0-.156,2.147c-.012,1.105-.05,2.19.029,3.3a3.81,3.81,0,0,0,1.148.035l2.914.007a5.333,5.333,0,0,1,1.568.081l.079.218a1.978,1.978,0,0,1-.055,1.078l-.384.032c-.911,0-6.794.154-7.156-.1a1.961,1.961,0,0,1,.063-1.017A7.668,7.668,0,0,0,126.594,54c.019-1.25-.127-10.14.147-10.595a1.937,1.937,0,0,0,.1-.938l.021-2.29a2.976,2.976,0,0,1,.09-1.092Z" transform="translate(-87.957 -2.244)"/><path d="M171.616,39.008l1,.075.158.2a33.94,33.94,0,0,1-.006,5.58,7.324,7.324,0,0,0-.137,2.116l-.066,5.711c0,1.15-.028,2.3.072,3.443l3.634-.012a6.78,6.78,0,0,1,1.954.093,1.2,1.2,0,0,1,.135.343,1.767,1.767,0,0,1-.019.974l-.363.008-7.284.029c0-1.041-.1-6.969.171-7.334l.077-.091c-.126-1.612.037-3.357.049-4.983l-.008-3.953a7.255,7.255,0,0,1,.079-2.095Z" transform="translate(-87.957 -2.244)"/><path d="M107.541,64.653l3.7,0a5.426,5.426,0,0,1,1.976.124l.025.071a1.467,1.467,0,0,1,0,1.125,2.982,2.982,0,0,1-1.389.113l-2.923.013-.216,7.956,4,.026.2,1.369-3.846.027a.471.471,0,0,0-.337.056,20.008,20.008,0,0,0-.085,3.01l.03,4.647-1.838-.009a7.055,7.055,0,0,1,.094-2.9l.079-.1c-.078-1.184.027-2.425.031-3.617l.026-8.161-.017-2.464a2.911,2.911,0,0,1,.087-1.2Z" transform="translate(-87.957 -2.244)"/><path d="M109.191,39.165a3.945,3.945,0,0,1,1.986-.933,2.992,2.992,0,0,1,2.339.67,2.511,2.511,0,0,1,.39.8.553.553,0,0,0,.1.2,4.852,4.852,0,0,1,.248.86,8.46,8.46,0,0,1,.187,2.437,4.426,4.426,0,0,0-1.7.186c-.216-.224-.152-.732-.17-1.046-.035-.594-.192-2.17-1-2.194a1.935,1.935,0,0,0-1.453.5,5.369,5.369,0,0,0-.916,1.747,2.265,2.265,0,0,0-.11.607,9.52,9.52,0,0,0-.21,1.469c-.018.375.024.824-.03,1.188a25.042,25.042,0,0,0-.2,5.766c.03.326.148.623.192.94a4.145,4.145,0,0,0,.1.87,3.063,3.063,0,0,1,.193.635,2.776,2.776,0,0,0,1.054,1.588,1.946,1.946,0,0,0,1.212.414,2.072,2.072,0,0,0,.677-.727l.059-.1a2.714,2.714,0,0,0,.041-1.787l-.091-.3a2.979,2.979,0,0,1,1.6-.1c.349.409.239,1.464.2,2l-.053.532a2.841,2.841,0,0,1-.824,1.641,3.716,3.716,0,0,1-1.96.751l-.851-.166a2.628,2.628,0,0,1-1.783-1.117c-1.752-2.34-1.407-6.147-1.4-8.919a23.593,23.593,0,0,1,.073-3.345l.069-.353a11.316,11.316,0,0,1,1.071-3.438C108.517,39.969,108.875,39.6,109.191,39.165Z" transform="translate(-87.957 -2.244)"/><path d="M125.219,64.689a7.876,7.876,0,0,1,1.595.039.522.522,0,0,1,.267.417A25.815,25.815,0,0,1,127.1,68.7l0,8.183a11.68,11.68,0,0,0,.072,2.84,3.016,3.016,0,0,0,1.12,1.872.889.889,0,0,0,.549.233,1.88,1.88,0,0,0,1.277-.481,2.034,2.034,0,0,0,.577-.977,33.27,33.27,0,0,0,.291-6.77l.011-8.861a5.492,5.492,0,0,1,1.6,0l.066,1.367.024.829-.007,9.032-.058,3.019a8.822,8.822,0,0,1-.082,1.561,4.036,4.036,0,0,1-.987,1.949,3,3,0,0,1-2.154.7c-1.063.01-2,.109-2.82-.706a4.844,4.844,0,0,1-1.27-2.427,9.788,9.788,0,0,1-.085-1.876l0-2.823Z" transform="translate(-87.957 -2.244)"/><path d="M164.451,38.812a4.022,4.022,0,0,0,1.688.267c.051.444.234.836.289,1.255l1.231,9.846.789,5.959c.058.479.229.926.279,1.421a5.809,5.809,0,0,1-1.862-.076.476.476,0,0,1-.208-.226A4.674,4.674,0,0,1,166.569,56c-.037-.493-.162-.973-.2-1.462a9.753,9.753,0,0,0-.214-2.135c-.109-.32-.072-.674-.286-.93l-.535,0-1.972.008-1.062,6.072-1.529.009a10.239,10.239,0,0,1,.221-1.35l.7-3.471,1.475-7.719.7-3.8A12.265,12.265,0,0,1,164.451,38.812Zm.427,4.73a14.066,14.066,0,0,0-.377,2,29.252,29.252,0,0,0-.764,4.555l.992-.045a8.552,8.552,0,0,0,1.05,0,16.592,16.592,0,0,0-.079-2.307c-.05-.4-.163-.793-.208-1.2a15.865,15.865,0,0,0-.277-2.309,1.35,1.35,0,0,0-.195-.567A.9.9,0,0,0,164.878,43.542Z" transform="translate(-87.957 -2.244)"/><path d="M165.427,13.361a5.385,5.385,0,0,1,1.2.083,1.849,1.849,0,0,1,.31.266,10.367,10.367,0,0,1,.147,1.325c.034.319.137.628.179.945.048.36.036.726.081,1.086l.282,2.16c.041.27.143.531.17.8l.387,3.514.457,2.952c.053.453.047.915.11,1.366.2,1.44.5,2.854.57,4.315l-1.828-.005-.483-3.8a15.608,15.608,0,0,1-.213-2.557l-1.39.006-1.309.058a6.243,6.243,0,0,0-.189,1.25l-.538,3a6.176,6.176,0,0,0-.207,1.1l0,.22a.912.912,0,0,1-.293.673,6.1,6.1,0,0,1-1.324-.009l-.106-.151c.162-.544.2-1.146.322-1.706l1.107-5.818,2.137-10.99Zm.317,4.206a12.212,12.212,0,0,0-.671,3.027L164.3,24.7l.912-.118c.495-.1.941-.112,1.436-.167-.278-1.548-.427-3.1-.586-4.667-.059-.58-.02-1.2-.126-1.771A.733.733,0,0,0,165.744,17.567Z" transform="translate(-87.957 -2.244)"/><path d="M137.389,13.411a2.755,2.755,0,0,1,1.744.192,1.127,1.127,0,0,1,.085.384,7.385,7.385,0,0,0,.2.956l.546,4.212c.051.392.046.793.113,1.182.035.207.125.406.156.612.072.488.06,1,.118,1.5.041.356.15.69.183,1.05a11.825,11.825,0,0,0,.178,1.619c.112.475.129.971.2,1.454l.446,3.125a8.2,8.2,0,0,0,.177,1.41,6.558,6.558,0,0,1,.188,1.1l-1.571-.029a.57.57,0,0,1-.51-.334,7.019,7.019,0,0,1-.089-1.331c-.043-.508-.146-1.011-.209-1.516-.1-.785-.129-1.5-.283-2.284-.062-.319.011-.584-.194-.853l-.277-.037-2.119.075a6.355,6.355,0,0,0-.3,1.179c-.1.984-.333,1.958-.512,2.928a7.434,7.434,0,0,1-.229,1.427,1.636,1.636,0,0,0-.089.535l0,.091c-.279.222-1.178.117-1.566.119a16.889,16.889,0,0,1,.478-2.677l1.106-5.761,1.24-6.541A16.426,16.426,0,0,1,137.389,13.411Zm.543,4.507a22.131,22.131,0,0,0-.716,3.617,12.471,12.471,0,0,0-.454,3.078c.224.152.553.038.82,0l.1-.034a3.533,3.533,0,0,1,1.065-.173,10.845,10.845,0,0,0-.244-3.1c-.065-.461-.036-.932-.089-1.395A9.446,9.446,0,0,0,137.932,17.918Z" transform="translate(-87.957 -2.244)"/><path d="M158.641,64.406a8.256,8.256,0,0,1,1.839.061.47.47,0,0,1,.2.321c.085.455.032.944.1,1.406l.4,2.458.408,3.549.693,4.772c.064.53.068,1.069.145,1.6.227,1.548.488,3.032.565,4.6l-1.827,0-.6-4.685a7.922,7.922,0,0,0-.072-1.5.737.737,0,0,0-.13-.144l-.577-.012-1.991.041a11.428,11.428,0,0,0-.183,1.184l-.736,3.869a3.319,3.319,0,0,1-.23,1.156,5.2,5.2,0,0,1-1.467.1Zm.7,4.014a14.728,14.728,0,0,0-.359,1.955c-.163.807-.413,1.66-.511,2.473a11.075,11.075,0,0,1-.358,2.26l-.044.126-.034.088a1.659,1.659,0,0,0,1.033.111l1.257.007c-.092-.6-.233-1.223-.293-1.828l-.123-1.841c-.056-.485-.182-.961-.214-1.451a6.523,6.523,0,0,0-.125-1.711,1.539,1.539,0,0,0-.2-.172Z" transform="translate(-87.957 -2.244)"/><path d="M117.24,39a5.729,5.729,0,0,1,1.272.124c.1,1.351.033,2.731.033,4.087l0,7.4,0,2.112a3.3,3.3,0,0,0,.066,1.01,4.839,4.839,0,0,1,.174.672,2.6,2.6,0,0,0,.617,1.225,1.256,1.256,0,0,0,1.065.54,1.243,1.243,0,0,0,1.051-.386l.076-.076.176-.168a2.84,2.84,0,0,0,.617-1.709,38.155,38.155,0,0,0,.1-5.2l0-9.542.829-.075c.187,0,.733,0,.853.136.289.319.174,1.361.172,1.784l-.006,8.607-.007,2.21a4,4,0,0,1-.056,1.056c-.243.831-.089,1.777-.34,2.589l-.038.117a2.931,2.931,0,0,1-1.424,1.788,3.025,3.025,0,0,1-1.259.252,5.477,5.477,0,0,1-2.256-.125,2.987,2.987,0,0,1-1.571-1.42,6.2,6.2,0,0,1-.661-2.094c-.087-.855-.031-1.761-.031-2.623V46.354l0-4.755a20.316,20.316,0,0,1,.037-2.493Z" transform="translate(-87.957 -2.244)"/><path d="M143.447,39.014l1.055.075a.863.863,0,0,1,.226.583,32.226,32.226,0,0,1,0,3.348l0,7.781v1.932a3.318,3.318,0,0,0,.1,1.108c.1.282.086.585.214.851a3.157,3.157,0,0,0,.565.977,1.373,1.373,0,0,0,1.091.513,1.206,1.206,0,0,0,1.006-.394,2.628,2.628,0,0,0,.82-1.7,28.969,28.969,0,0,0,.137-5.274l-.011-9.716a5.873,5.873,0,0,1,1.659,0c.376.433.219,1.556.217,2.115l0,7.837c0,1.167.076,2.406-.022,3.567-.038.441-.18.9-.226,1.352a5.866,5.866,0,0,1-.193,1.52,3.692,3.692,0,0,1-.694,1.293,2.874,2.874,0,0,1-2.09.791,4.689,4.689,0,0,1-.7.086,6.215,6.215,0,0,1-1.5-.229,2.99,2.99,0,0,1-1.527-1.4l-.356-.794a6.024,6.024,0,0,1-.317-1.493c-.082-1.323-.125-14.3.044-14.651Z" transform="translate(-87.957 -2.244)"/><path d="M135.387,64.646l1.738.038,1.41,3.575a8.607,8.607,0,0,0,.441,1.24,6.731,6.731,0,0,1,.308.82l1,2.651,1.8,4.556c.195.451.213,1.115.658,1.406.171-.206.1-.77.092-1.045-.013-.821-.184-1.626-.219-2.437l-.046-5.123c-.037-.7-.2-1.4-.228-2.092l-.036-3.563a3.874,3.874,0,0,1,1.163.075,6.091,6.091,0,0,1,.139,2.278,19.71,19.71,0,0,0,.205,3.286,12.713,12.713,0,0,1,.056,2.085l.028,3.812c.016.777.176,1.511.228,2.278l.06,3.133c.007.405.132,1.232-.1,1.557l-1.618,0a3.892,3.892,0,0,1-.375-.707l-5.333-14.341-.019,14.929-.195.112a1.476,1.476,0,0,1-.831-.112c-.072-.287-.2-.563-.247-.855a21.2,21.2,0,0,1-.017-3.335l0-4.277Z" transform="translate(-87.957 -2.244)"/><path d="M170.984,13.7a12.029,12.029,0,0,1,1.74-.008,2.159,2.159,0,0,1,.325.626,6.637,6.637,0,0,0,.477,1.261,18.207,18.207,0,0,1,.687,1.886l1.631,4.163c.13.329.2.68.341,1l2.215,5.474a7.588,7.588,0,0,0,.009-1.738c-.015-.777.029-1.553-.018-2.329l-.2-1.908c-.111-1.708,0-3.463-.054-5.178-.035-1.1-.247-2.137-.26-3.239a2.625,2.625,0,0,1,1.188.041,7.284,7.284,0,0,1,.181,2.106c.028.314.138.606.155.923l.082,6.159c.025.666.159,1.314.194,1.967l.055,3.318c.025,1.3.088,2.632.03,3.935l-1.744.012-3.646-9.785-.929-2.455a16.213,16.213,0,0,0-1.063-2.646l.236,14.9-1.312-.041Z" transform="translate(-87.957 -2.244)"/><path d="M187.093,64.68l1.609,0a2.231,2.231,0,0,1,.38.767,8.907,8.907,0,0,1,.523,1.307,13.564,13.564,0,0,0,.684,1.8l1.375,3.589c.63,1.619,1.132,3.327,1.867,4.9l.91,2.177-.582-14.507a2.812,2.812,0,0,1,1.216.05,7.209,7.209,0,0,1,.148,1.773c.037.448.164.857.176,1.318l.046,5.1a10.962,10.962,0,0,0,.147,2.228,6.155,6.155,0,0,1,.079,1.268l.044,2.409.036,4.318a5.4,5.4,0,0,1-1.439-.029.678.678,0,0,1-.446-.389,9.7,9.7,0,0,1-.578-1.539l-1.008-2.759L190.272,73.1a39.347,39.347,0,0,0-1.88-4.791,4.031,4.031,0,0,0-.02.986c-.1,2.429-.157,4.876-.038,7.308.023.474.17.921.183,1.394l.092,5.2-1.324-.045c-.14-1.732-.031-3.547-.059-5.289a11.435,11.435,0,0,0-.158-2.37A14.165,14.165,0,0,1,187,72.479l-.016-5.1-.012-1.714a3.857,3.857,0,0,1,0-.774A.853.853,0,0,1,187.093,64.68Z" transform="translate(-87.957 -2.244)"/><path d="M147.315,13.712a8.989,8.989,0,0,1,1.759-.016,1.283,1.283,0,0,1,.231.152,4.681,4.681,0,0,1,.164.516c.5,1.136.85,2.3,1.3,3.45l1.113,2.774a6.8,6.8,0,0,0,.328.963,12.287,12.287,0,0,1,.763,1.992l1.014,2.558c.217.56.363,1.421.853,1.8.146-.167.119-.222.118-.445,0-.589-.2-1.137-.217-1.707l-.013-4.629c-.017-.614-.026-1.262-.1-1.87-.031-.258-.136-.485-.147-.752l-.029-4.81a2.939,2.939,0,0,1,1.118.06.726.726,0,0,1,.167.516c.085,1.376-.011,2.79.034,4.174.031.955.208,1.885.221,2.833l.043,4.829a9.424,9.424,0,0,0,.143,2.172,5.766,5.766,0,0,1,.106,1.314l.044,2.6-1.121-.021a1.6,1.6,0,0,1-.665-.069c-.349-.24-.673-1.425-.809-1.816l-1.24-3.4-2.233-5.957c-.22-.612-1.033-3.224-1.4-3.492a.605.605,0,0,0-.15.486c0,.351.154.692.155,1.064l.038,13.179-1.295,0c-.138-1.53-.031-3.162-.029-4.7l-.033-8.57c-.007-.85.011-1.711-.053-2.559-.026-.34-.131-.635-.171-.963A8.176,8.176,0,0,1,147.315,13.712Z" transform="translate(-87.957 -2.244)"/><path d="M153.313,39.018a10.227,10.227,0,0,1,5.08.973,2.984,2.984,0,0,1,.854.656,3.243,3.243,0,0,1,.6,2.651c-.2,1.637-1.946,2.746-3.412,3.083-.555.127-1.516.064-1.957.405a26.807,26.807,0,0,0-.031,3.574,5.178,5.178,0,0,1,3.341.778,2.676,2.676,0,0,1,.927,1.39,1.6,1.6,0,0,0,.106.3c.155.292.158.591.287.882a4.8,4.8,0,0,1,.219.892,10.171,10.171,0,0,1,.326,2.947l-1.272.006a.972.972,0,0,1-.493-.071c-.094-.053-.067-.044-.076-.153-.047-.59-.012-1.186-.083-1.773a10.32,10.32,0,0,0-.546-2.122l-.13-.344c-.428-.9-1-1.009-1.841-1.324a1.012,1.012,0,0,0-.712.3c-.631.644-.406,4.4-.361,5.485l-1.6-.027a11.969,11.969,0,0,1-.034-1.652l.027-3.424,0-2.579a5.768,5.768,0,0,1,.057-1.355,1.442,1.442,0,0,1,.165-.256c-.073-.9.042-1.856.049-2.764l.01-4.12a7.828,7.828,0,0,1,.054-2.266Zm1.422,1.417c-.074.787-.1,1.558-.094,2.348a6.1,6.1,0,0,1-.067,1.628,2.933,2.933,0,0,0-.071.57.646.646,0,0,0,.592.159,4.421,4.421,0,0,0,.973-.251,5.673,5.673,0,0,0,1.08-.6,2.71,2.71,0,0,0,.722-.868l.055-.092a3.049,3.049,0,0,0,.087-1.628,2.775,2.775,0,0,0-1.971-1.265Z" transform="translate(-87.957 -2.244)"/><path d="M125.956,17.953l.1.032-.034-3.341c.008-.327-.037-.873.207-1.12a.935.935,0,0,1,.67-.161,11.28,11.28,0,0,1,4.482.988,2.9,2.9,0,0,1,1.468,1.411l.065.13.093.191a3.58,3.58,0,0,1,.013,2.139l-.05.123a3.775,3.775,0,0,1-2.293,2.225,8.448,8.448,0,0,1-2.939.618l-.042,3.794c1.214-.037,2.531-.135,3.487.769a4.19,4.19,0,0,1,.916,1.527c.167.36.15.788.324,1.113a3.293,3.293,0,0,1,.187.9,11.573,11.573,0,0,1,.323,2.864,7.593,7.593,0,0,1-1.845.038c-.136-1.763.023-4.176-1.473-5.435a2.346,2.346,0,0,0-.493-.37,5.593,5.593,0,0,0-1.45.011,10.248,10.248,0,0,0-.219,2.708l.021,3.114-1.753.008L125.7,28.2Zm2.036-3.162c-.139,1.317-.027,2.62-.076,3.938a4.048,4.048,0,0,0-.1.91c.311.139.747-.076,1.095-.132a3.029,3.029,0,0,0,1.329-.608,4.561,4.561,0,0,0,1.074-1.14,2.73,2.73,0,0,0-.5-2.143,4.106,4.106,0,0,0-2.645-.824l-.113,0Z" transform="translate(-87.957 -2.244)"/><path d="M146.288,83.179,146.215,83a71.518,71.518,0,0,1,.1-8.469c.063-.107.07-.082.075-.2l.039-9.542.862-.3a6.36,6.36,0,0,1,3.7.23,4.7,4.7,0,0,1,1.878,2.155,2.685,2.685,0,0,0,.131.283c.165.3.176.58.308.876a3.52,3.52,0,0,1,.2.869c.06.275.182.535.235.813.109.573.062,1.237.126,1.828.035.322.141.63.181.951a16.156,16.156,0,0,1,.041,1.993,3.366,3.366,0,0,1-.054.958c-.338,1.033-.054,2.2-.36,3.225a7.523,7.523,0,0,1-1.305,2.968,3.315,3.315,0,0,1-2.591,1.31A16.836,16.836,0,0,1,146.288,83.179ZM148.4,65.557c-.2,1.71-.048,3.441-.114,5.159-.017.444-.144.873-.169,1.328l-.083,5.721a29.63,29.63,0,0,0,.1,3.841l.13.121.325-.1a5.789,5.789,0,0,1,1-.15,2.328,2.328,0,0,0,1.345-.876,11.23,11.23,0,0,0,1.324-6.049,22.569,22.569,0,0,0-.465-5.158c-.264-1.213-.687-2.881-1.8-3.621A2.583,2.583,0,0,0,148.4,65.557Zm-2.113,17.622a16.836,16.836,0,0,0,3.5-.226,2.869,2.869,0,0,1-.754-.163l-.214-.015-.076-.025a8.182,8.182,0,0,0-2.04.115l-.052.173Z" transform="translate(-87.957 -2.244)"/><path d="M146.289,83.179l.361-.14.051-.174a8.136,8.136,0,0,1,2.04-.114l.077.024.214.015a2.814,2.814,0,0,0,.753.163A16.836,16.836,0,0,1,146.289,83.179Z" transform="translate(-87.957 -2.244)"/><path d="M117.954,64.668a5.53,5.53,0,0,1,2.691.28l.06.034.212.124a2.953,2.953,0,0,1,1.186,1.633.9.9,0,0,0,.075.26,8.6,8.6,0,0,1,.429,2.093A35.519,35.519,0,0,1,122.724,74l-.026,2.984a14.87,14.87,0,0,1-.068,2.069,6.863,6.863,0,0,1-1.044,3.156l-.064.082a3.237,3.237,0,0,1-2.035,1.052,3.769,3.769,0,0,1-2.2-.254,3.07,3.07,0,0,1-1.628-1.61,9.98,9.98,0,0,1-.563-2.267c-.09-.682-.024-1.388-.068-2.075-.036-.579-.175-1.131-.226-1.7a24.64,24.64,0,0,1-.042-2.785,3.4,3.4,0,0,1,.1-1.1,3.372,3.372,0,0,0,.13-1.1c.088-1.631.058-3.309,1.16-4.651l.064-.078A2.746,2.746,0,0,1,117.954,64.668Zm.9,1.8c-.628.127-.991.189-1.352.773a5.12,5.12,0,0,0-.5,1.358,8.662,8.662,0,0,0-.166,1.835c-.026.439-.164.881-.183,1.338-.056,1.383-.071,2.892.01,4.276.024.419.149.824.178,1.24a7.21,7.21,0,0,0,.229,2.122,1.2,1.2,0,0,1,.059.312A2.538,2.538,0,0,0,118,81.157a3.2,3.2,0,0,0,.911.416,2.177,2.177,0,0,0,1.462-1.206l.05-.106a4.645,4.645,0,0,0,.377-1.381,43.28,43.28,0,0,0,.027-4.752c-.006-1.5.106-3.079-.031-4.575a7.56,7.56,0,0,0-.415-1.844l-.11-.213-.036-.072a1.81,1.81,0,0,0-1.092-.921A.422.422,0,0,0,118.853,66.468Z" transform="translate(-87.957 -2.244)"/><path d="M179.767,64.408a5.741,5.741,0,0,1,2.609.31,2.529,2.529,0,0,1,1.391,1.353l.172.389a4.94,4.94,0,0,1,.189.78,3.764,3.764,0,0,1,.211.6,21.944,21.944,0,0,1,.114,2.256c.024.424.179.808.215,1.222a41.836,41.836,0,0,1-.04,5.8c-.323.9-.024,2.039-.349,2.886-.132.345-.142.715-.306,1.049a3.482,3.482,0,0,1-2.405,2.086,4.52,4.52,0,0,1-1.339.025,3.23,3.23,0,0,1-2.215-1.09,4.819,4.819,0,0,1-.79-1.636,29.726,29.726,0,0,1-.456-7.373,26.462,26.462,0,0,1,.141-4.216,8.116,8.116,0,0,1,.707-2.685A3.242,3.242,0,0,1,179.767,64.408Zm.289,1.925a4.236,4.236,0,0,0-1.408,3.116c-.129,1.577-.029,3.229-.023,4.811l0,2.561a5.4,5.4,0,0,0,.169,1.771c.121.342.044.637.223.985.357.693.493,1.382,1.35,1.651a1.167,1.167,0,0,0,.819-.026c.676-.318.781-.552,1.113-1.195a5.232,5.232,0,0,0,.317-1.821,33,33,0,0,0,.222-4.413,28.293,28.293,0,0,0-.254-4.392,11.915,11.915,0,0,0-.321-1.808,2.28,2.28,0,0,0-1.1-1.236Z" transform="translate(-87.957 -2.244)"/><path d="M181.676,49.475l26.3,1.417,0,.065a4.553,4.553,0,0,1-.22.995l-.506,2.009a13.227,13.227,0,0,1-.438,1.82.709.709,0,0,1-.185.243c.126.326-.111.919-.2,1.259a1.7,1.7,0,0,1-.284-.029,16.493,16.493,0,0,0-2.818-.178l-8.738-.1-12.348-.242a18.554,18.554,0,0,0-.172-2.447Z" transform="translate(-87.957 -2.244)" fill="currentColor"/><path d="M187.043,38.09l25.819,1.231c.225.035.274.118.4.3a31.53,31.53,0,0,1-.784,3.35,4.376,4.376,0,0,1-.5,1.612,2.543,2.543,0,0,1-.134,1.143L187.5,45.169a31.623,31.623,0,0,0-.188-3.641Z" transform="translate(-87.957 -2.244)" fill="currentColor"/><path d="M109.19,39.164a23.9,23.9,0,0,1-8.652-1.736,20.141,20.141,0,0,1-8.759-6.36,19.409,19.409,0,0,1-2.2-3.884,19.248,19.248,0,0,1-1.337-5.3c-.1-.82-.25-1.655-.278-2.48a18.3,18.3,0,0,1,1.211-7.049,16.048,16.048,0,0,1,8.311-8.841,15.855,15.855,0,0,1,4.281-1.167,28.961,28.961,0,0,1,3.524-.085,25.413,25.413,0,0,1,9.392,1.651,17.426,17.426,0,0,1,9.988,9.559l-.006.079a19.609,19.609,0,0,1,1.289,4.406L125.7,28.2a8.44,8.44,0,0,1-1.2,2.63l-.041,1.268a1.252,1.252,0,0,1-.685.118,15.684,15.684,0,0,1-1.793,2.4,12.773,12.773,0,0,1-1.344,1.105,14.686,14.686,0,0,1-5.7,2.9l-1.426.28a2.99,2.99,0,0,0-2.339-.67A3.944,3.944,0,0,0,109.19,39.164Zm-1.059-8.192a3.778,3.778,0,0,0,2.006,1.322,4.466,4.466,0,0,0,3.319-.516c1.123-.784,1.3-2.319,1.512-3.563a32.088,32.088,0,0,0,2.143-3.351l0-.029a41.891,41.891,0,0,0,.161-6.161,13.679,13.679,0,0,0-2.242-4.316c-.047-.286.019-.632-.139-.872a3.468,3.468,0,0,1-.848-.1l-.071-.02a12.212,12.212,0,0,0-4.7-2c-.648-.1-1.316-.1-1.956-.219a5.55,5.55,0,0,0-1.652.06,12.045,12.045,0,0,0-5.631,1.867,6.911,6.911,0,0,0-2.7,4.444,15.494,15.494,0,0,0-.129,2.511,12.487,12.487,0,0,0,2.053,7.5c1.321,1.79,3.836,2.777,5.978,3.079A9.822,9.822,0,0,1,108.131,30.972Z" transform="translate(-87.957 -2.244)" fill="#fecd2e"/><path d="M124.675,13.468l-.007.078a19.642,19.642,0,0,1,1.29,4.406L125.705,28.2a8.481,8.481,0,0,1-1.2,2.631l-.042,1.267a1.249,1.249,0,0,1-.685.119l-1.12.005-.205-2.645a4.289,4.289,0,0,0-1.4-2.869,2.323,2.323,0,0,0-1.976-.231l-.167,5.744H116.9a17.372,17.372,0,0,0,.088-2.384l.123-4.968,0-.03a42.012,42.012,0,0,0,.16-6.16l.194-5.206,2.012.005a21.2,21.2,0,0,0-.084,2.352l-.147,3.907a3.923,3.923,0,0,0,1.682-.829c1.511-1.328,1.664-3.565,1.783-5.439Z" transform="translate(-87.957 -2.244)"/><path d="M124.667,13.545a19.642,19.642,0,0,1,1.29,4.406L125.7,28.2a8.491,8.491,0,0,1-1.2,2.631,6.986,6.986,0,0,1-.188-1.147c-.265-1.429-.639-3.12-1.8-4.08A4.39,4.39,0,0,0,119.059,25l.1-2.545a6.229,6.229,0,0,1,.055-1.232l.8-.162c2.6-.71,3.878-3.419,4.359-5.865A5.9,5.9,0,0,1,124.667,13.545Z" transform="translate(-87.957 -2.244)" fill="#fecd2e"/><path d="M113.974,13.367l.071.02a3.463,3.463,0,0,0,.848.1c.158.24.091.586.138.872a13.638,13.638,0,0,1,2.242,4.316,41.891,41.891,0,0,1-.16,6.161l0,.029a32.194,32.194,0,0,1-2.143,3.351c-.211,1.244-.389,2.779-1.512,3.563a4.468,4.468,0,0,1-3.32.516,3.781,3.781,0,0,1-2-1.322,8.669,8.669,0,0,1-.735-2.084,31.416,31.416,0,0,1-.072-4.795l-.013-10.649a5.356,5.356,0,0,1,1.808.03,25.09,25.09,0,0,1,.064,3.928l0,8.006A11.361,11.361,0,0,0,109.3,28.6a1.281,1.281,0,0,1,.093.365,2.523,2.523,0,0,0,.857,1.58c.641.189,1.869-.444,2.481-.712a14.358,14.358,0,0,0,.311-1.439,54.256,54.256,0,0,0,.067-6.065V13.51a3.732,3.732,0,0,0,.761-.107Zm1.057.992-.063,13.857a32.194,32.194,0,0,0,2.143-3.351l0-.029a41.891,41.891,0,0,0,.16-6.161A13.638,13.638,0,0,0,115.031,14.359Z" transform="translate(-87.957 -2.244)"/></g></svg>