<svg id="Layer_1" data-name="Layer 1" xmlns="http://www.w3.org/2000/svg" xmlns:xlink="http://www.w3.org/1999/xlink" viewBox="0 0 139.135 78.564"><defs><clipPath id="clip-path" transform="translate(-80.445 -3.723)"><rect width="300" height="87" fill="none"/></clipPath></defs><g clip-path="url(#clip-path)"><path d="M126.007,10.547l.418-.01.293.35-.081,47.7-.013.125,4.684-.109.042,18.158-.179.118-6.87-.1-5.99.094-.151-66.251Z" transform="translate(-80.445 -3.723)" fill="currentColor"/><path d="M93.627,13l.318.252.1,18.111a17.76,17.76,0,0,1-2.56.065l-.062,47.9a.573.573,0,0,1-.289,0,38.684,38.684,0,0,0-6.218-.089,6.8,6.8,0,0,1-1.928-.011l-.151-.484-.023-47.283-2.277-.016-.087-18.383Z" transform="translate(-80.445 -3.723)" fill="currentColor"/><path d="M159.493,10.68l7.695-.05c1.575,0,3.718-.244,5.2.295a4.307,4.307,0,0,1,1.7,1.085,4.143,4.143,0,0,1,1.124,2.3c.439,2.584.143,5.648.138,8.277l-.009,15.544a49.743,49.743,0,0,0-8.533.042v-9.14L164.186,29l-.026,29.7a12.228,12.228,0,0,1,2.657.028l-.071-9.706h8.383l.2.614.027,13.258-.007,6.268c0,1.912.173,3.851-.643,5.63a2.892,2.892,0,0,1-1.723,1.582c-2.211.8-5.514.42-7.9.421a47.911,47.911,0,0,1-5.361-.065,7,7,0,0,1-2.235-.582,2.576,2.576,0,0,1-1.36-1.531,12.741,12.741,0,0,1-.3-3.559l-.016-5.362V51.179l0-23.583.032-12.652a4.768,4.768,0,0,1,.405-2.209A5.132,5.132,0,0,1,159.493,10.68Z" transform="translate(-80.445 -3.723)" fill="currentColor"/><path d="M182.5,16.127l6.915-.017c1.474,0,3.741-.226,5.074.379a4.117,4.117,0,0,1,2.283,2.349,12.936,12.936,0,0,1,.329,4.44l0,7.276V66.218l0,9.786a51.411,51.411,0,0,0,.087,6.282,86.24,86.24,0,0,0-8.689,0l.024-3a5.824,5.824,0,0,1-.876,1.215c-1.492,1.405-3.929,1.791-5.9,1.694a5.65,5.65,0,0,1-2.693-1.434c-.849-.978-1.05-2.761-1.174-4.022-.16-1.63-.075-3.343-.072-4.983l.005-8.288,0-11.529c0-2-.084-4.054.026-6.053.1-1.878.269-3.559,1.757-4.86,2.278-1.993,6.211-1.622,9.088-1.443l-.03-5.227L186.1,34.4l-.014,3.046-8.2.04c-.245-3.1-.072-6.326-.071-9.441a74.766,74.766,0,0,1,.1-8.08,4.516,4.516,0,0,1,.763-2.336C179.653,16.436,181.075,16.251,182.5,16.127Zm3.531,42.511.017,5.2,2.683.1a20.5,20.5,0,0,1-.141-3,8.676,8.676,0,0,0,.034-2.306A21.165,21.165,0,0,1,186.035,58.638Z" transform="translate(-80.445 -3.723)" fill="currentColor"/><path d="M199.838,10.475c3.8.443,7.939.151,11.779.159a21.013,21.013,0,0,1,4.708.22,4.459,4.459,0,0,1,2.692,1.935,3.476,3.476,0,0,1,.477,1.617c.154,1.908.054,3.889.056,5.8l0,10.2-.007,7.24a17.756,17.756,0,0,1-.148,3.962c-.249,1.048-1.738,1.7-2.6,2.238a6.944,6.944,0,0,1,1.863.947,2.957,2.957,0,0,1,.729,1.762,68.1,68.1,0,0,1,.1,8.235l.025,21.948-.114.118-8.851.033-.027-12.632,0-10.959a8.407,8.407,0,0,0-2.534.075L208.1,76.9a35.96,35.96,0,0,0-8.392.077C199.6,70.3,199.388,11.478,199.838,10.475Zm8.244,18.535,0,3.51a7,7,0,0,0,.053,1.658,9.157,9.157,0,0,1,2.847.11L210.9,31a6.758,6.758,0,0,0-.034-1.965Z" transform="translate(-80.445 -3.723)" fill="currentColor"/><path d="M99.834,16.1c2.016-.155,4.089-.066,6.114-.07,2.148,0,6.126-.5,8.007.623a4.066,4.066,0,0,1,1.674,2.635,14.286,14.286,0,0,1,.223,3.646v5.8l0,18.815,0,19.754c0,3.471.2,7.058-.024,10.513a5.993,5.993,0,0,1-.858,2.759c-.562.966-1.381,1.1-2.422,1.372-2.668.229-5.364.158-8.04.145a20.471,20.471,0,0,1-5.73-.394,2.739,2.739,0,0,1-1.765-1.366,6.471,6.471,0,0,1-.527-2.5l-.027-9.366,0-17.926-.012-20.9V22.888a13.734,13.734,0,0,1,.283-4.283l.038-.105A3.412,3.412,0,0,1,97,17.934,4.11,4.11,0,0,1,99.834,16.1Zm5.048,18.135-.011,29.614a12.707,12.707,0,0,1,2.291.15L107.12,42l0-5.185a12.146,12.146,0,0,0-.059-2.532Z" transform="translate(-80.445 -3.723)" fill="currentColor"/><path d="M137.456,3.859c2.254-.222,4.638-.1,6.9-.1,1.988,0,4.475-.223,6.391.368a3.724,3.724,0,0,1,2.126,1.8,8.755,8.755,0,0,1,.528,3.387l.006,9.631L153.4,37.987l.016,17.322-.081,10.353a5.4,5.4,0,0,1-.316,1.6,4.436,4.436,0,0,1-2.641,2.377,38.434,38.434,0,0,1-6.592.2c-2.307,0-6.117.511-8.091-.676a2.855,2.855,0,0,1-1.545-1.986c-.525-2.458-.222-5.452-.212-7.98l.006-11.837-.021-25.324.106-14.632a4.074,4.074,0,0,1,.492-2.044A4.282,4.282,0,0,1,137.456,3.859Zm4.706,18.247.095,29.65a15.889,15.889,0,0,1,2.572.007l-.012-29.574Z" transform="translate(-80.445 -3.723)" fill="currentColor"/></g></svg>