<svg width="300" height="87" viewBox="0 0 300 87" fill="none" xmlns="http://www.w3.org/2000/svg">
<path d="M39.1758 27.372C38.9866 28.3632 38.3426 28.8436 37.4692 29.1532C35.986 29.6759 34.3922 29.6639 32.8969 30.1383C31.778 30.4922 30.641 30.8279 29.8924 31.7929C28.9364 33.0212 28.6386 34.4184 29.1437 35.9282C29.2745 36.3303 29.4697 36.7324 28.9143 36.9153C28.2683 37.1325 28.2904 36.5394 28.224 36.2077C28.0791 35.488 27.8558 35.488 27.2359 35.8317C25.1631 36.9837 23.1607 38.2442 21.2087 39.5871C20.8062 39.8605 20.6311 39.8545 20.4037 39.4122C20.0596 38.7287 19.4699 38.3105 18.7575 38.0251C18.0451 37.7396 17.55 37.7597 17.4615 38.7026C17.4313 38.9981 17.2965 39.179 17.705 39.2574C17.9404 39.3017 18.2484 39.3539 18.1558 39.762C18.0632 40.1701 17.7835 40.1641 17.4695 40.1641C17.2683 40.1641 17.067 40.1641 16.8658 40.1641C16.4271 40.1882 15.8495 40.2204 15.7308 40.6225C15.6362 40.9461 16.1152 41.3161 16.2923 41.702C16.4694 42.088 16.735 41.6317 16.9544 41.5613C17.1737 41.491 17.4353 41.2276 17.5742 41.6437C17.6627 41.8991 17.864 42.1946 17.4434 42.3956C17.0119 42.5909 16.6673 42.938 16.4754 43.3707C16.1051 44.1748 16.3486 44.5407 17.214 44.408C17.6929 44.3336 18.5261 44.8523 18.4737 43.6742C18.4637 43.4129 19.0392 43.5536 19.2646 43.823C19.3351 43.9074 19.2868 44.0843 19.317 44.213C19.3398 44.4098 19.4006 44.6003 19.4961 44.7739C19.5766 44.8885 19.6772 45.3268 19.8503 45.0433C20.3031 44.2954 21.4864 45.0996 21.7299 44.0944C21.7782 43.8934 21.6554 43.6441 21.5971 43.4209C21.2811 42.2147 21.2791 42.1986 22.6033 42.2147C23.3318 42.2147 24.0744 42.0941 24.7908 42.3635C25.3221 42.5645 25.5495 42.2549 25.624 41.8046C25.7024 41.3221 26.0103 41.1572 26.4289 41.0828C28.0727 40.8219 29.6838 40.3858 31.2347 39.7821C31.6029 39.6293 31.774 39.7299 31.8927 40.0797C32.6293 42.2589 34.3077 43.7285 35.8431 45.3067C37.276 46.7662 38.574 48.3222 39.2321 50.3326C39.3528 50.6985 39.4957 50.9538 39.055 51.3378C36.0041 53.9795 37.4591 58.8044 40.7555 60.0066C41.5927 60.3122 41.6732 60.5856 41.4357 61.3897C41.0332 62.7467 40.832 64.16 40.5321 65.6115C39.701 65.1129 38.9041 64.7229 37.9582 64.7973C37.5095 64.8335 37.0868 64.8335 37.441 65.4648C37.6926 65.9151 37.1009 66.8298 38.2118 66.8298C38.3688 66.8298 38.1876 67.1052 38.1756 67.254C38.1474 67.5877 37.9864 67.7083 37.6543 67.6862C37.3953 67.6643 37.1346 67.6999 36.891 67.7907C36.6475 67.8814 36.427 68.0249 36.2456 68.2109C36.5862 68.5294 36.8784 68.8958 37.113 69.2986C37.3807 69.7609 37.8053 69.8394 38.1192 69.2684C38.2744 68.9406 38.4491 68.6224 38.6425 68.3155C38.7431 68.1788 38.8779 67.8149 39.1657 68.1144C39.3488 68.2994 39.7413 68.4582 39.3951 68.8281C39.0107 69.2403 38.9162 69.765 38.7914 70.344C39.2945 70.4646 39.864 70.2495 40.3027 70.6536C40.5986 70.927 40.7797 70.5591 40.989 70.4525C41.2687 70.3098 41.164 70.0605 41.0574 69.8494C40.9688 69.6705 40.8803 69.4916 40.7797 69.3187C40.7486 69.2792 40.7273 69.2329 40.7175 69.1837C40.7077 69.1344 40.7096 69.0836 40.7231 69.0352C40.7367 68.9869 40.7614 68.9424 40.7953 68.9053C40.8293 68.8683 40.8715 68.8398 40.9185 68.8221C41.1339 68.7095 41.3492 68.6211 41.5102 68.9266C41.6578 69.2244 41.8287 69.5101 42.0214 69.7811C42.3293 70.1952 42.6653 70.4787 43.0799 69.8534C43.1805 69.7047 43.424 69.6524 43.577 69.5338C43.8587 69.3066 44.4906 69.5338 44.4826 69.1317C44.4723 68.5595 44.2525 68.011 43.8647 67.5897C42.9571 66.6046 42.9672 66.5946 43.9271 65.6135C44.1847 65.3502 44.4484 65.0908 44.708 64.8295C44.877 64.6606 45.0843 64.4636 44.871 64.2264C44.0338 63.3197 44.8468 62.6844 45.2252 61.9848C45.5572 61.3817 46.3501 60.9072 46.2877 60.2398C46.2253 59.5723 45.3036 59.4497 44.7905 59.0476C42.9068 57.578 42.5466 54.5705 44.07 53.0024C44.559 52.4998 44.8448 52.2827 45.193 53.2034C46.3823 56.3356 50.3549 57.572 52.9992 55.6662C53.5432 55.2664 53.9941 54.7538 54.321 54.1635C54.6479 53.5732 54.843 52.9193 54.8929 52.2465C55.0519 50.7327 55.6214 49.8843 57.1167 49.1485C60.7814 47.3392 62.0432 43.429 60.4654 39.7299C59.6604 37.8582 58.0303 36.7786 56.3922 35.7533C55.9012 35.4478 55.5228 36.079 54.9614 36.2157C55.8992 36.9957 56.8812 37.5707 57.7104 38.3146C60.2702 40.6285 60.7532 45.753 56.1749 47.9483L55.0942 48.4831C55.394 47.2085 55.4484 46.0867 54.6313 45.0312C54.1383 44.396 53.9511 44.7216 53.7519 45.1498C53.5205 45.6484 53.603 46.1792 53.7177 46.7059C53.8404 47.2648 53.9572 47.9644 53.5366 48.3142C53.2085 48.5876 52.5988 48.2056 52.1621 48.0146C50.0953 47.11 48.6725 45.6022 48.4612 43.3063C48.2599 41.0949 49.0086 39.175 50.8057 37.7476C51.8856 36.9047 53.0667 36.1996 54.3214 35.6488C57.4326 34.2415 59.3726 32.02 59.4652 28.4697C59.4652 28.1601 59.6443 28.0093 59.8576 27.8244C61.6447 26.2764 61.8198 24.9857 60.5258 23.0357C60.264 22.6924 60.0208 22.3354 59.7973 21.9661C59.3807 21.162 59.0124 21.5017 58.6522 21.9862C57.8009 23.1321 57.8291 24.3866 58.7186 25.6954C58.9198 26.001 59.3908 26.2985 58.8534 26.6765C58.3161 27.0544 58.1611 26.4332 57.97 26.1879C57.6218 25.7279 57.3767 25.1985 57.2514 24.6355C57.126 24.0726 57.1234 23.4892 57.2437 22.9252C57.3639 22.3611 57.6043 21.8295 57.9483 21.3664C58.2924 20.9033 58.7322 20.5196 59.2378 20.2412C59.4874 20.1085 59.7168 19.9336 59.8758 20.3317C60.3165 21.4294 61.2221 22.2295 61.7493 23.2769C62.5946 24.9536 62.3531 26.7247 61.0108 28.0294C60.6083 28.4174 60.3104 28.8175 60.2662 29.3704C60.081 31.7406 58.946 33.5821 57.0845 35.0839C57.7808 35.6428 58.4489 36.2298 59.1654 36.7465C63.0977 39.5851 62.7878 46.2857 59.0185 49.0098C58.3403 49.5003 57.6741 50.015 56.8832 50.2944C56.2051 50.5276 56.03 50.9679 55.9736 51.6293C55.6697 55.1776 53.1562 57.5599 49.8296 57.3931C47.8011 57.2906 46.2757 56.219 45.0581 54.6389C44.8991 54.4378 44.8347 53.9654 44.4725 54.0659C44.1827 54.1483 44.1525 54.5524 44.07 54.8339C43.6675 56.207 44.5933 57.9379 46.1911 58.8747C47.6703 59.7412 47.7146 59.9885 46.7164 61.3837C46.3682 61.8702 46.0804 62.4009 45.7424 62.8935C45.5049 63.2393 45.4586 63.577 45.7222 63.8987C46.2374 64.54 45.9114 64.9702 45.4063 65.3924C45.1487 65.6055 44.9454 65.8809 44.6899 66.096C44.3256 66.4076 44.2874 66.6147 44.6214 67.057C45.1613 67.7452 45.4599 68.5916 45.4712 69.466C45.4825 70.3403 45.2058 71.1941 44.6838 71.896C44.394 72.298 44.1787 72.3403 43.8305 72.0226C43.6555 71.8677 43.4662 71.7297 43.265 71.6105C41.8563 70.73 41.5263 70.8325 40.4718 72.1995C40.1598 72.6016 40.1136 73.4399 39.4655 73.3414C38.7592 73.2389 38.568 72.4307 38.2017 71.8859C37.924 71.4738 38.3144 70.7501 37.7228 70.5651C37.0034 70.37 36.2382 70.434 35.5614 70.746C34.9235 71.0154 34.7705 70.8285 34.7061 70.2153C34.5934 69.1598 34.7564 68.1547 35.5856 67.4832C36.2678 66.9283 35.9015 66.8037 35.4145 66.5926C35.1428 66.476 34.8671 66.3714 34.5934 66.2609C35.3984 64.3792 37.0687 63.5288 39.1033 64.0092C39.707 64.15 40.0693 64.1258 40.0391 63.3921C40.0499 63.2923 40.0792 63.1955 40.1256 63.1066C40.6066 61.7435 40.3973 60.863 38.9765 59.9704C36.3201 58.3038 35.6983 54.5182 37.3062 51.7921C37.3887 51.6534 37.4531 51.5027 37.5698 51.2654C35.4185 51.6353 33.3296 51.6675 31.2508 51.8183C31.0898 51.8283 30.9167 51.7881 30.7939 51.951C30.5585 52.2666 30.5927 54.671 30.8784 54.9665C31.2226 55.3103 31.2427 55.6059 30.9328 55.9858C30.7034 56.2653 30.5705 56.6231 30.3452 56.9086C29.8501 57.5378 29.828 58.0987 30.323 58.7762C30.8181 59.4537 30.7255 60.3302 30.6108 61.1143C30.4478 62.2863 30.2767 62.3567 29.0854 62.1295C28.858 62.0873 28.6225 62.0753 28.3931 62.0491C27.9242 61.9948 27.4835 61.5144 27.0005 61.8702C26.7063 62.0687 26.4605 62.3308 26.2815 62.637C26.1024 62.9433 25.9946 63.2858 25.9661 63.6393C25.9278 64.4274 25.6058 64.3249 25.1027 64.0414C24.5357 63.7472 24.0634 63.299 23.7402 62.7484C23.4169 62.1979 23.2558 61.5673 23.2754 60.9293C23.2754 60.2076 22.9897 60.3262 22.5771 60.4428C21.9002 60.6114 21.2509 60.8761 20.6492 61.2289C20.5969 59.321 21.0658 57.8112 22.555 56.7498C22.4624 56.5246 22.2732 56.4562 22.0921 56.3658C21.0175 55.825 21.0155 55.8189 21.9331 54.9826C22.3393 54.604 22.8278 54.3246 23.3604 54.1666C23.8929 54.0086 24.4549 53.9762 25.0021 54.0719C25.7427 54.1885 25.7266 53.8709 25.6682 53.4025C25.4952 51.9852 25.3442 50.5638 25.1108 49.1565C24.823 47.4216 25.1591 46.8587 26.8837 46.4465C29.1538 45.9058 31.3896 45.2544 33.6818 44.5226C33.0116 43.5797 32.2308 42.7273 31.7519 41.7302C31.3494 40.8818 30.967 40.8074 30.1942 41.1472C29.5825 41.4127 28.936 41.59 28.2743 41.6739C27.2802 41.8026 26.3706 41.9453 26.0607 43.1113C25.954 43.4973 25.634 43.5777 25.2557 43.4169C24.6338 43.1556 23.9476 43.2159 23.3056 43.055C22.7381 42.9163 22.565 43.041 22.6677 43.626C22.889 44.8925 22.4664 45.9942 21.7279 46.9994C21.428 47.4015 21.1382 47.701 20.6572 47.1301C20.3433 46.7582 19.8724 46.527 19.5001 46.1912C18.6529 45.4373 18.673 45.4454 18.1759 46.4586C18.0149 46.7843 18.0853 47.11 18.0008 47.4276C16.2842 46.7501 15.1834 45.2705 15.4672 43.622C15.6282 42.655 15.1472 42.7917 14.634 42.854C13.34 43.0148 13.2535 42.9304 13.7324 41.7201C14.0423 40.9341 14.4328 40.1802 15.2377 39.8022C15.8797 39.5007 15.8415 39.1489 15.3424 38.8312C14.5636 38.3367 14.8956 38.0452 15.435 37.6652C16.898 36.6359 19.1962 36.7364 20.5627 37.9205C20.8243 38.1477 20.9974 38.5337 21.4723 38.2261C23.5391 36.8892 25.6984 35.693 27.9403 34.5009C26.6101 33.3107 25.2396 32.2894 24.2334 30.9083C24.0321 30.6289 23.69 30.8038 23.3982 30.846C22.7703 30.9365 22.3195 30.846 22.2732 30.0217C22.235 29.3322 21.915 28.6828 21.5588 27.9973C21.0439 28.5241 20.4016 28.9092 19.6939 29.1152C18.9863 29.3213 18.2375 29.3413 17.5198 29.1733C17.067 29.0849 16.8557 28.9723 17.0751 28.4717C17.1795 28.1898 17.234 27.8918 17.2361 27.5912C17.3166 26.0231 17.1093 25.8663 15.5638 26.2784C15.4597 26.2993 15.3539 26.3108 15.2478 26.3126C14.9801 24.2298 15.7066 22.9432 17.5802 22.2637C17.9304 22.137 17.9445 22.0184 17.8579 21.6927C17.705 21.1278 17.3649 20.6875 17.0369 20.2251C17.6481 19.9449 18.3193 19.8204 18.9904 19.8629C19.6616 19.9053 20.3117 20.1134 20.8826 20.4684C21.7279 20.9871 22.0398 20.587 22.1726 19.9055C22.3457 19.031 22.6737 19.2782 23.1547 19.6341C24.7485 20.8162 25.0625 22.4486 24.7908 24.268C24.7163 24.7525 24.8371 24.9556 25.2537 25.1606C27.5297 26.2804 29.7273 27.5409 31.8947 28.8658C32.1227 29.025 32.3835 29.1312 32.6579 29.1764C32.9324 29.2217 33.2135 29.2048 33.4805 29.1271C34.4606 28.8738 35.4668 28.713 36.459 28.4577C35.5151 28.2988 34.5793 28.1842 33.6556 27.9711C32.8506 27.7842 32.6997 27.368 32.9452 26.6704C33.0217 26.4513 33.062 26.2161 33.1465 26.001C33.4423 25.3014 33.1948 25.2611 32.581 25.4622C32.1628 25.576 31.7304 25.6295 31.297 25.621C30.1902 25.6491 29.4858 25.1244 29.2323 24.1172C28.9505 23.0035 29.3208 22.1933 30.3673 21.6404C30.9489 23.3171 31.4117 23.6347 33.074 23.4639C32.8205 22.8045 32.579 22.1511 32.3194 21.5058C32.1463 21.0735 32.1564 20.7579 32.6735 20.5649C34.2332 19.9859 35.7506 19.3386 37.0788 18.2831C37.4511 17.9856 37.6141 17.8066 37.4994 17.3443C37.1754 16.0576 36.8957 14.7589 36.5837 13.4662C36.465 12.9757 36.5656 12.7284 37.1432 12.7887C38.0267 12.8792 38.8558 13.1104 39.5199 13.7155C39.8157 13.9849 39.9767 14.0613 40.1377 13.6331C40.184 13.5454 40.246 13.467 40.3208 13.4019C41.6853 11.9544 41.8261 11.9725 43.0014 13.3336C43.4884 13.9005 43.7279 14.0332 44.2451 13.4682C44.4343 13.2672 44.7683 13.1828 45.04 13.0521C45.5975 12.7867 46.2918 12.5716 46.7466 12.9114C47.0766 13.1607 46.6983 13.816 46.5916 14.2865C46.3723 15.2615 46.1891 16.2446 45.9456 17.2116C45.7945 17.7215 45.8043 18.2655 45.9738 18.7696C46.1628 19.2398 46.1918 19.759 46.0563 20.2473C45.692 21.365 45.9678 22.3401 46.33 23.3975C47.5073 26.8393 46.7586 29.9775 44.5369 32.778C44.0027 33.4469 43.6716 34.2548 43.583 35.106C43.1322 38.6483 43.8607 41.9634 45.2674 45.2142C45.9718 46.8406 46.4185 48.5554 46.2555 50.4271C46.0764 52.4797 48.8294 54.7414 50.697 54.273C51.9306 53.9654 53.0355 52.2324 52.8362 51.0041C52.7557 50.5156 52.3734 50.5879 52.0997 50.4934C50.1255 49.8059 48.3887 48.7766 47.2336 46.9853C45.1849 43.8109 45.5874 38.5216 49.564 35.9282C50.1496 35.5483 51.0773 35.297 51.2484 34.7863C51.4376 34.2214 50.4797 33.7811 50.1154 33.178C49.3755 31.9849 49.0096 30.5979 49.0649 29.1955C49.079 28.5923 48.9683 28.132 48.5075 27.6816C47.1531 26.3568 47.0263 24.9395 47.956 23.2427C48.5819 22.1028 49.5197 21.164 50.053 19.9678C52.3029 21.0755 53.4118 23.9343 51.3752 26.0613C51.2464 26.196 51.1478 26.7508 50.7232 26.3287C50.4213 26.0311 50.3589 25.8301 50.703 25.4381C51.8421 24.1373 51.8662 22.8246 50.8821 21.7691C50.5944 21.4635 50.3971 21.2685 50.0611 21.7691C49.56 22.515 48.9522 23.1905 48.5658 24.0127C48.0084 25.2028 48.1211 26.206 49.1052 27.0926C49.7652 27.6857 49.8618 28.339 49.8397 29.1372C49.7934 30.9204 50.4716 32.406 51.6509 33.747C52.2546 34.4265 52.7155 34.1149 53.287 33.8756C53.3172 33.4736 52.9368 33.4253 52.7416 33.2504C51.2404 31.9014 50.9908 30.1042 50.8741 28.2466C50.8459 27.8063 51.1538 27.5731 51.4275 27.3459C54.3798 24.8912 53.6412 21.7651 51.2142 19.6763C50.7896 19.3104 49.7471 19.0571 50.3348 18.3495C50.7594 17.8408 51.3289 18.6771 51.7435 19.0249C53.277 20.2854 54.2651 21.8395 54.2429 23.9122C54.2268 25.4984 53.5084 26.7267 52.3673 27.7319C51.9407 28.1058 51.7254 28.4456 51.7817 28.9944C51.9447 30.6027 52.4357 32.0301 53.8123 33.0554C53.9284 33.168 54.081 33.2356 54.2426 33.2459C54.4042 33.2562 54.5641 33.2086 54.6937 33.1117C56.2876 32.1648 57.2234 30.7897 57.4568 28.9341C57.4859 28.7721 57.4737 28.6054 57.4213 28.4494C57.3689 28.2934 57.278 28.1531 57.1569 28.0415C53.9109 24.7002 55.223 20.5227 58.7669 18.3917C58.9158 18.3012 59.1855 17.865 59.4431 18.3354C59.6443 18.6912 59.7087 18.9566 59.2298 19.2059C58.4864 19.6001 57.8444 20.1609 57.3542 20.8443C55.6053 23.2427 56.0662 25.6331 57.9579 27.6073C58.4187 28.0898 58.4369 28.4637 58.3604 29.0025C57.9176 31.8612 56.1588 33.6022 53.5929 34.6939C51.9004 35.4136 50.2804 36.2418 48.9643 37.5788C48.2216 38.3116 47.651 39.1999 47.2934 40.1797C46.9359 41.1594 46.8004 42.2062 46.8966 43.2446C46.9928 44.283 47.3185 45.2871 47.85 46.1846C48.3816 47.0821 49.1058 47.8506 49.9705 48.4348C50.8632 49.0814 51.8725 49.5496 52.9429 49.8139C53.6613 49.9748 53.8163 50.2964 53.7801 50.9679C53.6372 53.6317 51.9689 55.3787 49.6083 55.1897C47.7508 55.0429 46.7486 53.7402 46 52.2284C45.5565 51.4143 45.3377 50.4971 45.366 49.5707C45.4365 48.0649 44.8669 46.6134 44.2672 45.2443C42.9873 42.3192 42.3494 39.2996 42.5607 36.1092C42.5748 35.884 42.5607 35.6568 42.5607 35.2548C41.5545 36.2238 41.2767 37.3194 41.2184 38.4714C41.1926 39.0707 41.2647 39.6703 41.4317 40.2465C41.5424 40.6486 41.478 40.7451 41.1178 40.8657C40.6489 41.0245 40.5945 40.7069 40.5321 40.4234C40.0632 38.2924 40.4013 36.3404 41.8 34.5933C42.9249 33.1961 44.1948 31.9256 45.038 30.2931C46.1891 28.0676 46.2455 25.8341 45.3942 23.5443C45.0139 22.5109 44.6456 21.548 45.1064 20.4021C45.3077 19.9115 45.4506 19.0873 44.9736 18.7093C44.5349 18.3595 43.8728 18.7455 43.3737 18.9888C43.2033 19.0765 43.0149 19.1235 42.8232 19.1263C42.6315 19.1291 42.4418 19.0875 42.2689 19.0048C40.7314 18.4017 39.1818 18.1384 37.6161 18.9204C37.4672 18.9948 37.2659 19.031 37.1774 19.1496C36.3442 20.2774 35.0422 20.583 33.8408 21.0293C33.237 21.2504 33.3135 21.4917 33.4504 21.9923C33.6194 22.5954 33.8891 22.3943 34.2412 22.2576C35.4487 21.8053 36.6562 21.95 37.8234 22.3984C38.3126 22.5963 38.7239 22.9481 38.9952 23.4004C39.2664 23.8527 39.3828 24.381 39.3267 24.9053C39.2381 25.8924 38.5459 26.5136 37.4149 26.791C36.3684 27.0504 35.3622 26.8433 34.3459 26.7046C34.1446 26.6785 33.9333 26.391 33.8146 26.787C33.6959 27.1831 33.9998 27.1207 34.2171 27.1891C35.5307 27.5906 36.9221 27.6679 38.2722 27.4143C38.5638 27.3178 38.8764 27.3032 39.1758 27.372Z" fill="black"/>
<path d="M76.3609 42.7971C76.3609 32.9583 76.3643 23.1181 76.371 13.2767C76.371 12.9449 76.1395 12.3961 76.5722 12.3077C77.176 12.183 77.826 12.2936 78.4539 12.3318C78.4981 12.3318 78.5545 12.5569 78.5625 12.6796C78.5806 12.947 78.5625 13.2143 78.5625 13.4837C78.5625 33.03 78.5585 52.5763 78.5505 72.1225C78.5505 72.5246 78.808 73.1438 78.3492 73.2906C77.7618 73.4364 77.1476 73.4364 76.5601 73.2906C76.1577 73.2082 76.3589 72.7136 76.3589 72.412C76.3468 67.3579 76.3468 62.3038 76.3589 57.2497L76.3609 42.7971Z" fill="#D42B1E"/>
<path d="M284.595 42.9504C284.595 33.174 284.609 23.3975 284.573 13.621C284.573 12.7002 284.806 12.457 285.722 12.461C286.6 12.461 286.831 12.662 286.829 13.5707C286.798 33.1907 286.787 52.8107 286.795 72.4307C286.795 72.7805 287.054 73.3494 286.521 73.456C285.932 73.5687 285.325 73.5502 284.744 73.4017C284.43 73.3193 284.601 72.7986 284.601 72.4809C284.593 62.6368 284.591 52.7933 284.595 42.9504Z" fill="#0039A5"/>
<path d="M105.34 27.1596C104.287 29.5861 103.167 31.9222 102.438 34.397C102.341 34.7267 102.293 35.1187 101.754 35.1046C101.214 35.0906 101.237 34.6784 101.138 34.3487C100.452 32.0911 99.4696 29.944 98.6647 27.7285C98.6448 27.6565 98.5981 27.5947 98.5341 27.5558C98.4702 27.517 98.3938 27.504 98.3205 27.5195C98.1193 27.7587 98.2239 28.0643 98.2219 28.3397C98.2099 30.0123 98.2219 31.687 98.2099 33.3657C98.2099 33.9366 98.1535 34.4754 99.0028 34.3326C99.2463 34.2904 99.367 34.4332 99.3569 34.6845C99.3469 34.9358 99.2865 35.0865 99.0309 35.0865C98.1917 35.0865 97.3546 35.1006 96.5174 35.0865C96.4584 35.0873 96.4 35.0752 96.3463 35.051C96.2926 35.0268 96.2448 34.9911 96.2065 34.9464C96.1681 34.9017 96.14 34.8491 96.1241 34.7924C96.1083 34.7357 96.1052 34.6762 96.1149 34.6181C96.125 34.2482 96.4208 34.3025 96.6281 34.3266C97.1594 34.3909 97.3103 34.1859 97.3022 33.6592C97.2767 31.4183 97.2767 29.176 97.3022 26.9324C97.3022 26.4117 97.1694 26.2007 96.6381 26.269C96.4127 26.2992 96.131 26.3032 96.1229 25.9634C96.1229 25.5473 96.451 25.6357 96.7025 25.6116C96.7347 25.6116 96.7689 25.6116 96.8032 25.6116C99.2322 25.501 99.206 25.5091 100.023 27.823C100.609 29.4816 101.277 31.114 101.993 32.9797C102.879 30.6758 103.716 28.591 104.471 26.4781C104.694 25.8529 104.921 25.5131 105.644 25.6076C106.212 25.6492 106.782 25.6546 107.35 25.6237C107.552 25.6237 107.765 25.6237 107.791 25.9031C107.821 26.2248 107.622 26.3193 107.354 26.2831C106.716 26.1966 106.658 26.5605 106.662 27.0651C106.68 29.2403 106.684 31.4156 106.662 33.5908C106.662 34.1356 106.781 34.4211 107.379 34.3347C107.646 34.2944 107.827 34.3829 107.813 34.7086C107.799 35.0343 107.644 35.1107 107.364 35.1107C106.461 35.1107 105.553 35.1107 104.65 35.1107C104.38 35.1107 104.187 34.988 104.191 34.7086C104.195 34.4291 104.41 34.3065 104.674 34.3407C105.187 34.409 105.368 34.2321 105.36 33.6913C105.324 31.5081 105.34 29.3288 105.34 27.1596Z" fill="#010101"/>
<path d="M236.115 31.6784C236.115 32.2131 236.133 32.7499 236.115 33.2867C236.089 33.8898 236.063 34.4688 236.962 34.3381C237.198 34.3039 237.329 34.4487 237.296 34.706C237.296 34.8075 237.256 34.9048 237.184 34.977C237.113 35.0491 237.016 35.0904 236.914 35.092C236.008 35.1081 235.103 35.1041 234.201 35.092C233.924 35.092 233.922 34.8729 233.908 34.6658C233.891 34.3984 234.03 34.2878 234.268 34.328C234.92 34.4346 234.95 34.0587 234.942 33.5621C234.918 32.2915 234.922 31.019 234.942 29.7424C234.942 29.2659 234.952 28.8538 234.282 28.9623C234.05 29.0005 233.906 28.904 233.91 28.6346C233.914 28.3653 234.099 28.2989 234.312 28.3351C235.012 28.4557 234.942 28.0014 234.948 27.551C234.954 27.1007 234.884 26.6323 235.051 26.1679C235.475 24.9737 237.035 24.3586 238.114 24.9959C238.588 25.2793 238.76 25.7176 238.741 26.2724C238.723 26.7791 238.401 26.7429 238.055 26.767C237.665 26.7951 237.48 26.6564 237.548 26.2624C237.653 25.6593 237.329 25.3497 236.793 25.3919C236.19 25.4401 235.958 25.995 236.006 26.4855C236.075 26.943 236.115 27.4043 236.125 27.8667C236.125 28.2165 236.296 28.3411 236.622 28.3291C236.858 28.3291 237.091 28.3291 237.327 28.3291C239.114 28.3291 239.114 28.3291 239.23 26.6102C239.287 25.794 239.715 25.1788 240.47 24.9637C241.263 24.7365 242.138 24.642 242.869 25.1969C243.008 25.3198 243.116 25.473 243.186 25.6445C243.255 25.8161 243.285 26.0013 243.271 26.186C243.271 26.5077 243.271 26.8092 242.817 26.761C242.513 26.7308 242.142 26.8796 242.167 26.2946C242.195 25.6352 241.74 25.3336 241.126 25.406C240.48 25.4824 240.251 25.9468 240.299 26.5619C240.358 26.8896 240.387 27.2221 240.386 27.5551C240.319 28.1582 240.514 28.4155 241.154 28.3431C241.392 28.317 241.824 28.1421 241.814 28.6688C241.814 29.1091 241.432 28.9824 241.211 28.9543C240.53 28.8699 240.355 29.1553 240.382 29.8007C240.43 31.037 240.42 32.2775 240.382 33.5138C240.365 34.0808 240.452 34.4225 241.132 34.3301C241.358 34.2979 241.7 34.2094 241.724 34.6457C241.748 35.0819 241.448 35.1 241.12 35.098C240.349 35.098 239.579 35.098 238.808 35.098C238.52 35.098 238.176 35.1784 238.17 34.6959C238.17 34.2617 238.472 34.314 238.721 34.3321C239.148 34.3622 239.222 34.131 239.22 33.7812C239.22 32.374 239.22 30.9667 239.22 29.5594C239.22 29.4931 239.247 29.4026 239.22 29.3584C238.488 28.4618 237.504 29.1835 236.659 28.9724C236.196 28.8558 236.111 29.1634 236.121 29.5574C236.129 30.2731 236.115 30.9747 236.115 31.6784Z" fill="#010101"/>
<path d="M183.634 47.3353C184.268 48.4792 184.874 49.5467 185.457 50.6303C185.641 50.9701 185.804 51.2656 186.262 51.1993C186.518 51.1631 186.597 51.336 186.592 51.5772C186.588 51.8185 186.476 51.9069 186.24 51.9592C185.196 52.1984 184.608 51.9371 184.119 50.9419C183.604 49.8925 183.008 48.8914 182.413 47.8862C182.066 47.3052 181.588 47.3514 181.127 47.4419C180.591 47.5444 180.887 48.045 180.859 48.3687C180.811 48.9336 180.849 49.5065 180.845 50.0755C180.841 50.6444 180.674 51.3561 181.688 51.2053C181.928 51.1691 182.01 51.3883 182.008 51.6074C182.008 51.8707 181.851 51.9491 181.622 51.9491H178.804C178.603 51.9491 178.402 51.929 178.378 51.6496C178.354 51.3702 178.492 51.155 178.78 51.1953C179.609 51.3199 179.585 50.8233 179.585 50.2383C179.563 48.1616 179.569 46.0869 179.585 44.0061C179.585 43.5055 179.623 43.0331 178.887 43.1296C178.651 43.1598 178.402 43.1417 178.398 42.7959C178.394 42.4501 178.653 42.4581 178.887 42.4581C180.362 42.4581 181.841 42.3858 183.314 42.4802C184.89 42.5808 185.554 43.206 185.669 44.4183C185.806 45.9964 185.2 46.879 183.634 47.3353Z" fill="#010101"/>
<path d="M207.493 37.6813C206.893 37.7477 206.287 37.6655 205.726 37.4421C204.557 36.9374 204.277 35.7815 205.122 34.8406C205.432 34.4948 205.348 34.0546 205.444 33.7771C205.847 32.6171 205.024 31.8049 204.943 30.8359C204.76 28.6949 206.286 27.6776 208.739 28.2667C209.449 28.4376 210.121 28.7874 210.86 28.3632C210.896 28.3418 210.936 28.3289 210.977 28.3253C211.018 28.3217 211.06 28.3276 211.099 28.3425C211.138 28.3575 211.173 28.381 211.201 28.4114C211.229 28.4418 211.25 28.4782 211.262 28.518C211.333 28.7632 211.262 29.0608 211.045 29.1211C210.143 29.3925 210.24 30.082 210.202 30.7917C210.149 31.7828 209.308 32.4221 208.089 32.4985C207.686 32.5247 207.284 32.5106 206.881 32.4985C206.764 32.4796 206.644 32.5066 206.547 32.5741C206.449 32.6416 206.381 32.7442 206.358 32.8604C206.304 33.1398 206.513 33.2625 206.761 33.357C207.405 33.5922 208.075 33.5198 208.739 33.5278C209.946 33.5419 210.572 33.9741 210.838 34.9733C211.073 35.8579 210.62 36.7565 209.63 37.2551C208.974 37.6003 208.232 37.7483 207.493 37.6813Z" fill="#010101"/>
<path d="M230.984 34.256C230.545 32.0446 230.394 31.8435 229.197 31.8435C226.278 31.8435 226.278 31.8435 225.775 34.2841C225.934 34.2894 226.093 34.3042 226.25 34.3284C226.472 34.3766 226.828 34.1515 226.854 34.6118C226.88 35.0722 226.596 35.1004 226.27 35.1024H224.258C224.012 35.1024 223.783 35.0903 223.757 34.7606C223.735 34.4711 223.833 34.3042 224.141 34.3264C224.683 34.3686 224.701 33.8881 224.805 33.5906C225.671 31.1118 226.818 28.7355 227.504 26.1903C227.657 25.6214 228.005 25.5691 228.472 25.6174C228.897 25.6616 229.295 25.4867 229.527 26.1823C230.378 28.7375 231.358 31.2485 232.29 33.7775C232.394 34.061 232.465 34.3646 232.875 34.3304C233.197 34.3022 233.278 34.4993 233.246 34.7767C233.217 35.1144 232.972 35.1024 232.734 35.1024C232.064 35.1024 231.392 35.1024 230.722 35.1024C230.396 35.1024 229.989 35.1607 230.004 34.65C230.018 34.1394 230.442 34.3967 230.69 34.3243C230.798 34.2942 230.895 34.2761 230.984 34.256Z" fill="#010101"/>
<path d="M169.056 45.7774C169.958 45.2728 170.741 44.913 171.65 45.0979C172.838 45.3392 173.293 45.9021 173.329 47.3094C173.357 48.3809 173.345 49.4524 173.329 50.526C173.329 50.928 173.329 51.2698 173.894 51.1974C174.154 51.1653 174.349 51.2618 174.357 51.5794C174.369 51.9996 174.079 51.9614 173.81 51.9614C173.073 51.9614 172.335 51.9614 171.596 51.9614C171.345 51.9614 171.013 52.0438 170.992 51.6397C170.964 51.2879 171.194 51.1753 171.508 51.1954C171.822 51.2155 172.029 51.1311 172.029 50.7672C172.029 49.5027 172.055 48.2381 172.053 46.9756C172.053 46.1474 171.449 45.8357 170.797 45.89C170.055 45.9503 169.161 46.1212 169.087 47.0963C168.994 48.3025 169.072 49.5087 169.058 50.7149C169.058 51.1271 169.26 51.2336 169.618 51.2035C169.924 51.1793 170.143 51.2537 170.103 51.6417C170.067 51.9835 169.827 51.9674 169.594 51.9694C168.789 51.9694 167.984 51.9694 167.179 51.9694C166.937 51.9694 166.702 51.9694 166.706 51.6196C166.706 51.3201 166.867 51.1653 167.139 51.2075C167.919 51.3301 167.899 50.8516 167.897 50.3048C167.881 47.9929 167.873 45.6809 167.897 43.373C167.897 42.8021 167.781 42.4704 167.161 42.4824C166.917 42.4824 166.686 42.4945 166.7 42.1366C166.714 41.7788 166.984 41.8471 167.203 41.827C169.056 41.6582 169.056 41.6562 169.056 43.5318V45.7774Z" fill="#020202"/>
<path d="M120.237 45.6786C120.752 45.464 121.278 45.2794 121.815 45.1258C123.376 44.7679 124.431 45.6204 124.455 47.2106C124.455 48.2479 124.455 49.2853 124.455 50.3226C124.455 50.789 124.352 51.3158 125.125 51.1931C125.367 51.1549 125.489 51.2756 125.487 51.5369C125.485 51.7983 125.369 51.9611 125.073 51.9591C124.234 51.9591 123.396 51.9591 122.559 51.9591C122.336 51.9591 122.157 51.9068 122.129 51.6555C122.1 51.4042 122.225 51.169 122.521 51.2012C123.288 51.2796 123.294 50.8132 123.282 50.2583C123.258 49.2873 123.282 48.3163 123.282 47.3473C123.282 46.4969 122.926 45.9219 122.036 45.8556C121.03 45.7812 120.225 46.4788 120.203 47.4096C120.181 48.3404 120.203 49.2189 120.203 50.1216C120.203 50.6543 120.001 51.3419 120.971 51.2052C121.183 51.175 121.235 51.352 121.231 51.5389C121.227 51.7259 121.193 51.941 120.919 51.941C120.05 51.941 119.178 51.941 118.303 51.941C118.037 51.941 117.993 51.75 117.985 51.5389C117.975 51.2836 118.094 51.1549 118.341 51.1911C118.975 51.2876 119.027 50.9378 119.023 50.4272C119.003 48.0509 119.007 45.6746 119.023 43.2984C119.023 42.8159 119.011 42.4118 118.365 42.464C118.132 42.4821 117.985 42.3937 117.993 42.1263C118.001 41.8589 118.178 41.8087 118.396 41.8147C118.429 41.8177 118.463 41.8177 118.496 41.8147C120.199 41.6539 120.199 41.6539 120.199 43.3627C120.199 44.0643 120.199 44.77 120.199 45.4696C120.205 45.5402 120.218 45.6102 120.237 45.6786Z" fill="#020202"/>
<path d="M196.709 51.6439C196.732 52.0685 196.732 52.494 196.709 52.9185C196.61 53.7689 196.733 54.374 197.818 54.175C198.045 54.1328 198.282 54.1428 198.299 54.5027C198.315 54.8625 198.117 54.9369 197.807 54.9349C196.87 54.9249 195.932 54.9349 194.99 54.9349C194.759 54.9349 194.509 54.9349 194.501 54.5952C194.501 54.2916 194.64 54.1489 194.922 54.181C195.525 54.2514 195.552 53.9056 195.55 53.4472C195.536 51.2063 195.536 48.9654 195.55 46.7245C195.55 46.2682 195.531 45.9204 194.932 46.0068C194.66 46.047 194.509 45.9284 194.497 45.6148C194.477 45.1906 194.789 45.1484 195.014 45.2409C195.578 45.4721 196.423 44.6377 196.775 45.7274C196.813 45.848 197.117 45.6269 197.29 45.5364C199.504 44.3864 201.329 45.456 201.404 47.9287C201.436 49.0043 201.446 50.1 200.746 50.9865C199.655 52.3496 198.238 52.2792 196.709 51.6439Z" fill="#020202"/>
<path d="M137.226 47.2772C137.226 46.7444 137.141 46.1936 137.24 45.6789C137.767 42.9428 139.878 41.7325 142.625 42.5427C142.841 42.605 143.014 42.8061 143.277 42.7216C144.485 42.3336 144.485 42.3377 144.485 43.5439C144.485 44.0807 144.485 44.6154 144.485 45.1522C144.485 45.5442 144.513 45.8719 143.937 45.8578C143.448 45.8458 143.436 45.6045 143.408 45.2286C143.295 43.7952 142.943 43.3127 141.979 43.1619C140.383 42.9126 139.387 43.4012 138.906 44.724C138.303 46.3785 138.395 48.0813 138.792 49.7499C139.071 50.9381 139.941 51.3824 141.355 51.2879C142.45 51.2155 143.181 50.6546 143.273 49.4986C143.34 48.6643 143.805 48.795 144.261 48.8513C144.865 48.9277 144.595 49.4243 144.535 49.7117C144.384 50.4274 144.161 51.1009 143.422 51.507C140.202 53.2822 137.184 51.5412 137.184 47.8883V47.2852L137.226 47.2772Z" fill="#020202"/>
<path d="M212.977 45.8523C213.397 45.4669 213.92 45.2102 214.482 45.1125C215.909 44.7969 217.15 45.597 217.46 47.0364C217.635 47.8484 217.654 48.6859 217.519 49.5052C217.165 51.6724 215.104 52.7218 213.154 51.7166C212.793 51.5276 212.56 51.3326 212.266 51.795C212.181 51.9032 212.058 51.9744 211.922 51.9939C211.786 52.0134 211.647 51.9796 211.536 51.8996C211.24 51.7267 211.485 51.4975 211.536 51.2964C211.718 50.5881 211.803 49.8584 211.789 49.1272C211.775 47.3179 211.789 45.5086 211.789 43.7153C211.789 43.0941 211.956 42.3663 210.912 42.4709C210.729 42.489 210.618 42.3462 210.622 42.1452C210.619 42.1038 210.624 42.0623 210.639 42.0233C210.653 41.9844 210.676 41.9492 210.706 41.92C210.735 41.8909 210.771 41.8686 210.81 41.8547C210.849 41.8408 210.891 41.8356 210.932 41.8396C210.998 41.8396 211.067 41.8396 211.133 41.8396C212.979 41.6547 212.979 41.6547 212.979 43.5263L212.977 45.8523Z" fill="#010101"/>
<path d="M175.058 25.618C176.052 25.7185 177.284 25.5396 178.518 25.4894C179.083 25.4672 179.405 25.5517 179.339 26.2312C179.329 26.6962 179.355 27.1614 179.417 27.6224C179.437 27.942 179.433 28.2255 178.973 28.2094C178.57 28.2094 178.333 28.137 178.369 27.6626C178.471 26.6292 177.924 26.3558 176.96 26.3679C174.559 26.396 174.555 26.3679 174.599 28.7804C174.599 29.1382 174.42 29.7272 175.091 29.6086C175.594 29.5202 176.471 30.1394 176.537 29.0055C176.56 28.6396 176.719 28.5612 177.039 28.5673C177.399 28.5673 177.487 28.7683 177.483 29.0799C177.483 29.8157 177.469 30.5515 177.483 31.2913C177.483 31.6653 177.361 31.8361 176.964 31.8381C176.568 31.8402 176.507 31.6371 176.548 31.3315C176.709 30.065 175.743 30.642 175.225 30.5435C174.42 30.3947 174.599 30.9978 174.593 31.4361C174.593 32.1035 174.638 32.777 174.579 33.4465C174.517 34.1561 174.769 34.3551 175.471 34.3551C175.861 34.3551 176.662 33.9269 176.652 34.713C176.642 35.4991 175.857 35.0407 175.445 35.0769C174.581 35.1553 173.706 35.103 172.829 35.099C172.533 35.099 172.187 35.1412 172.132 34.719C172.066 34.2024 172.472 34.3049 172.736 34.331C173.277 34.3853 173.318 34.0938 173.316 33.6696C173.301 31.428 173.293 29.1865 173.316 26.9469C173.316 26.4403 173.207 26.203 172.663 26.2734C172.398 26.3096 172.088 26.3076 172.134 25.8914C172.172 25.5416 172.462 25.622 172.678 25.618C173.408 25.612 174.11 25.618 175.058 25.618Z" fill="#020202"/>
<path d="M218.819 31.7639C218.819 32.2967 218.831 32.8334 218.819 33.3722C218.807 33.911 218.718 34.484 219.586 34.3412C219.635 34.3296 219.687 34.3295 219.737 34.3408C219.786 34.3521 219.833 34.3746 219.873 34.4066C219.913 34.4386 219.944 34.4792 219.966 34.5253C219.988 34.5715 219.999 34.6219 219.998 34.6729C220.012 34.9644 219.827 35.1011 219.561 35.1032C218.724 35.1152 217.889 35.1032 217.052 35.1032C216.782 35.1032 216.613 35.0368 216.605 34.7152C216.597 34.3935 216.742 34.2849 217.024 34.3271C217.627 34.4176 217.652 34.0638 217.644 33.6115C217.625 32.5419 217.613 31.4704 217.644 30.3948C217.67 29.5123 217.352 28.9876 216.408 28.9634C215.498 28.9393 214.597 29.5344 214.571 30.3004C214.518 31.4342 214.556 32.5721 214.552 33.718C214.552 34.1925 214.786 34.3714 215.247 34.3211C215.49 34.299 215.736 34.3211 215.702 34.679C215.704 34.7375 215.693 34.7958 215.67 34.8497C215.647 34.9036 215.613 34.9519 215.569 34.9911C215.526 35.0304 215.474 35.0597 215.418 35.0769C215.362 35.0942 215.303 35.099 215.245 35.0911C214.408 35.0911 213.57 35.0911 212.735 35.0911C212.423 35.0911 212.345 34.9202 212.333 34.6488C212.321 34.3774 212.476 34.2829 212.705 34.3191C213.363 34.4216 213.381 34.0316 213.373 33.5431C213.352 32.2725 213.352 30.9993 213.373 29.7234C213.373 29.2268 213.353 28.8468 212.701 28.9474C212.464 28.9856 212.331 28.869 212.337 28.6096C212.337 28.3985 212.463 28.2739 212.643 28.3262C213.279 28.5091 214.082 27.8557 214.581 28.7282C214.719 28.9675 214.891 28.7282 214.983 28.6719C215.609 28.1754 216.333 28.1533 217.076 28.1854C218.153 28.2337 218.797 28.877 218.823 29.9445C218.831 30.5597 218.819 31.1608 218.819 31.7639Z" fill="#020202"/>
<path d="M119.905 31.7925C119.905 32.2931 119.915 32.7977 119.905 33.2963C119.889 33.8793 119.81 34.4784 120.728 34.3397C120.965 34.3035 121.066 34.5025 121.058 34.7418C121.059 34.7926 121.048 34.8429 121.027 34.8893C121.007 34.9357 120.976 34.9771 120.938 35.0107C120.9 35.0443 120.855 35.0692 120.806 35.0839C120.757 35.0985 120.706 35.1025 120.656 35.0956C119.818 35.1117 118.981 35.0956 118.144 35.1137C117.86 35.1137 117.713 35.0092 117.697 34.7116C117.677 34.3739 117.884 34.3095 118.142 34.3357C118.746 34.4141 118.766 34.0462 118.76 33.5999C118.741 32.5652 118.741 31.5285 118.76 30.4898C118.774 29.6615 118.559 29.0464 117.591 28.978C116.623 28.9097 115.687 29.5268 115.63 30.4255C115.562 31.5252 115.604 32.6369 115.616 33.7346C115.616 34.1929 115.89 34.3779 116.343 34.3377C116.584 34.3136 116.82 34.3176 116.798 34.6835C116.801 34.7423 116.792 34.8011 116.77 34.8557C116.748 34.9104 116.714 34.9596 116.671 34.9999C116.628 35.0402 116.577 35.0705 116.521 35.0888C116.465 35.1071 116.405 35.1128 116.347 35.1056C115.51 35.1177 114.673 35.1056 113.835 35.1056C113.562 35.1056 113.401 35.0232 113.395 34.7036C113.389 34.3839 113.576 34.3015 113.835 34.3296C114.459 34.4141 114.439 34.02 114.439 33.5898C114.427 32.2851 114.421 30.9763 114.439 29.6776C114.439 29.2052 114.381 28.8875 113.799 28.9659C113.598 28.9941 113.397 28.9358 113.397 28.6563C113.387 28.2784 113.697 28.2764 113.878 28.3508C114.447 28.58 115.286 27.7778 115.651 28.8091C115.805 28.8029 115.955 28.7595 116.089 28.6825C116.651 28.2261 117.297 28.1799 117.983 28.196C119.289 28.2261 119.881 28.7991 119.901 30.0837C119.911 30.6547 119.905 31.2236 119.905 31.7925Z" fill="#020202"/>
<path d="M248.341 31.7943C248.341 32.2969 248.341 32.7995 248.341 33.3021C248.341 33.8449 248.234 34.436 249.106 34.3314C249.349 34.3033 249.468 34.4681 249.472 34.7013C249.476 34.9346 249.311 35.1215 249.106 35.0773C248.484 34.9386 247.697 35.5397 247.236 34.643C247.093 34.3616 246.886 34.5646 246.745 34.6692C246.172 35.0974 245.516 35.1215 244.839 35.1074C243.652 35.0813 243.121 34.6732 242.96 33.6278C242.799 32.5824 243.29 31.6677 244.286 31.3581C244.984 31.1172 245.724 31.0261 246.459 31.0907C247.021 31.1611 247.206 31.0344 247.182 30.4373C247.148 29.5648 246.846 28.8994 245.948 28.7627C245.119 28.638 244.501 29.0059 244.415 29.9267C244.36 30.5037 243.946 30.2644 243.662 30.2966C243.274 30.3428 243.229 30.0654 243.26 29.7759C243.274 29.6101 243.308 29.4467 243.362 29.2894C243.672 28.3646 244.882 27.9726 246.711 28.1998C247.717 28.3244 248.301 28.9195 248.343 29.8865C248.361 30.5218 248.339 31.1591 248.341 31.7943Z" fill="#020202"/>
<path d="M208.795 48.2131C208.795 48.8484 208.795 49.4836 208.795 50.1189C208.795 50.6718 208.636 51.3252 209.58 51.2106C209.791 51.1844 209.861 51.3674 209.835 51.5483C209.817 51.6669 209.753 51.874 209.692 51.88C209.05 51.9544 208.284 52.2298 207.817 51.7413C207.501 51.4156 207.384 51.486 207.121 51.6348C206.597 51.9388 205.999 52.0899 205.394 52.071C204.078 52.0248 203.365 51.3332 203.343 50.0204C203.325 48.9167 203.331 47.809 203.343 46.7093C203.343 46.2791 203.365 45.9052 202.739 45.9836C202.399 46.0258 202.283 45.7685 202.319 45.4548C202.361 45.0769 202.663 45.2277 202.862 45.2136C204.524 45.101 204.524 45.103 204.524 46.7636C204.524 47.7688 204.504 48.774 204.524 49.7792C204.545 50.7844 205.028 51.301 205.869 51.2829C206.893 51.2608 207.595 50.6698 207.624 49.755C207.65 48.8866 207.64 48.0161 207.624 47.1416C207.614 46.5967 207.881 45.8589 206.841 45.9735C206.569 46.0037 206.587 45.7303 206.575 45.5312C206.563 45.3322 206.67 45.2317 206.865 45.2176C206.898 45.2197 206.932 45.2197 206.966 45.2176C208.545 44.9342 208.777 45.1332 208.777 46.7174L208.795 48.2131Z" fill="#020202"/>
<path d="M155.857 52.0676C153.241 52.1038 152.426 50.6061 152.752 48.2238C153.112 45.5982 154.764 44.5468 157.016 45.2082C158.167 45.5459 159.105 47.4478 158.642 48.4771C158.505 48.7806 158.256 48.6781 158.038 48.6781C156.966 48.6882 155.891 48.7384 154.818 48.666C154.034 48.6118 153.965 48.9455 154.056 49.5767C154.257 50.9157 155.074 51.6575 156.169 51.3861C156.716 51.2554 157.175 50.9498 157.288 50.3648C157.427 49.629 157.982 49.7436 158.362 49.8984C158.966 50.1457 158.485 50.6141 158.348 50.9036C157.998 51.6756 157.054 52.0656 155.857 52.0676Z" fill="#020202"/>
<path d="M196.831 31.8448C196.563 31.816 196.293 31.8201 196.026 31.8568C195.521 31.9835 194.838 31.4668 194.518 32.1685C194.283 32.6831 194.943 34.0823 195.468 34.3356C196.201 34.6895 196.895 34.6452 197.467 34.014C197.651 33.8246 197.789 33.5946 197.869 33.3425C198.032 32.6811 198.565 32.9726 198.839 33.045C199.28 33.1636 199.107 33.5777 198.93 33.8592C198.778 34.1169 198.585 34.3479 198.358 34.5427C197.245 35.4474 195.943 35.2504 194.752 34.9066C193.629 34.5849 193.255 33.5637 193.235 32.464C193.216 31.5392 193.247 30.6426 193.589 29.7218C194.072 28.4231 196.042 27.8964 197.573 28.3146C198.618 28.6061 199.328 29.9972 199.183 31.3161C199.143 31.698 198.992 31.8448 198.622 31.8388C198.038 31.8347 197.434 31.8428 196.831 31.8448Z" fill="#020202"/>
<path d="M158.635 35.1038C156.478 35.1038 155.639 34.1851 155.645 31.8329C155.645 29.4205 156.735 28.2142 158.864 28.1921C161.481 28.1559 162.02 29.4687 162.002 31.5696C161.988 33.5136 161.515 35.2626 158.635 35.1038Z" fill="#020202"/>
<path d="M126.391 48.7701C126.361 45.3525 128.788 44.6669 130.798 45.2278C131.923 45.5414 132.768 47.3327 132.374 48.4283C132.237 48.8083 131.951 48.6857 131.716 48.6897C130.71 48.7038 129.703 48.742 128.697 48.6897C127.868 48.6374 127.572 48.7842 127.816 49.715C128.134 50.9413 128.588 51.4861 129.613 51.4439C130.277 51.4158 130.788 51.1062 131.007 50.497C131.144 50.1171 131.209 49.7974 131.706 49.8658C131.923 49.8959 132.235 49.7793 132.275 50.111C132.302 50.2914 132.289 50.4755 132.236 50.65C132.183 50.8246 132.092 50.9852 131.969 51.1202C130.951 52.236 129.657 52.1958 128.347 51.9405C127.19 51.7133 126.638 50.8911 126.5 49.7592C126.465 49.4315 126.429 49.0998 126.391 48.7701Z" fill="#020202"/>
<path d="M148.483 33.8538C149.057 32.3882 149.556 31.0553 150.103 29.7426C150.321 29.2199 150.355 28.9163 149.653 28.9686C149.425 28.9867 149.168 29.0188 149.17 28.6469C149.172 28.275 149.441 28.3413 149.661 28.3373C150.196 28.3373 150.733 28.3373 151.271 28.3373C151.45 28.3373 151.695 28.2569 151.756 28.5384C151.804 28.7575 151.756 28.9243 151.488 28.9706C151.017 29.053 151.023 29.4953 150.884 29.8149C149.989 32.0022 149.262 34.2599 148.23 36.3909C147.717 37.4484 146.99 38.2304 145.664 38.0595C145.408 38.0253 144.935 38.2163 145.018 37.7178C145.076 37.3579 145.1 36.789 145.805 36.9679C146.567 37.1689 147.191 36.9478 147.554 36.1879C147.671 35.9909 147.739 35.7688 147.753 35.54C147.767 35.3112 147.725 35.0825 147.632 34.8731C146.91 33.1622 146.288 31.4072 145.62 29.6702C145.541 29.5241 145.474 29.3722 145.418 29.2158C145.346 28.8902 144.652 29.0048 144.889 28.5303C145.09 28.1162 145.547 28.3715 145.883 28.3433C146.382 28.2991 146.889 28.3293 147.391 28.3333C147.592 28.3333 147.793 28.3031 147.825 28.6007C147.857 28.9485 147.638 29.0027 147.383 28.9646C146.69 28.8841 146.688 29.1857 146.9 29.7164C147.435 31.0433 147.924 32.3802 148.483 33.8538Z" fill="#010101"/>
<path d="M191.078 48.6965C190.81 48.6782 190.541 48.6782 190.273 48.6965C189.796 48.7649 189.093 48.409 188.89 48.8875C188.636 49.4906 188.89 50.2123 189.282 50.7752C189.945 51.7523 191.546 51.6538 192.021 50.6084C192.205 50.2063 192.257 49.756 192.867 49.8485C193.068 49.8786 193.287 49.8485 193.317 50.1179C193.345 50.3518 193.312 50.5889 193.223 50.8069C193.133 51.0249 192.99 51.2166 192.806 51.3643C191.756 52.2569 190.516 52.1825 189.29 51.9051C188.157 51.6477 187.713 50.7592 187.554 49.7037C187.022 46.1594 189.047 44.5209 191.808 45.2085C192.967 45.498 193.887 47.3898 193.46 48.4613C193.333 48.785 193.09 48.6784 192.883 48.6844C192.283 48.7046 191.681 48.6965 191.078 48.6965Z" fill="#020202"/>
<path d="M182.667 35.1048C180.42 35.1048 179.564 34.1961 179.57 31.8199C179.57 29.4074 180.665 28.2012 182.822 28.2012C185.048 28.2012 185.956 29.1581 185.95 31.4881C185.944 34.0393 184.978 35.1048 182.667 35.1048Z" fill="#020202"/>
<path d="M102.743 48.4652C102.842 52.0678 100.113 52.5824 97.7707 51.732C97.5038 51.6344 97.2644 51.4737 97.0731 51.2637C96.8818 51.0536 96.7441 50.8005 96.6719 50.5258C96.3082 49.4489 96.292 48.2852 96.6256 47.1986C97.1086 45.6366 98.5213 44.8123 100.21 45.0817C102.112 45.3833 102.749 46.2337 102.743 48.4652Z" fill="#020202"/>
<path d="M45.1708 26.6713C45.211 29.3009 43.6132 30.9876 41.7738 32.5014C40.7454 33.3538 39.6929 34.1761 38.7994 35.1732C37.5517 36.5684 37.5175 38.1727 38.0367 39.8634C38.1514 40.2374 38.5177 40.6977 37.8153 40.8807C37.1915 41.0415 37.2398 40.4887 37.119 40.1509C35.8954 36.6951 37.767 34.5218 40.2544 32.5939C41.2212 31.8824 42.1126 31.074 42.9149 30.1814C44.4403 28.4103 44.6194 26.4944 43.7802 24.3996C43.6978 24.1455 43.599 23.897 43.4844 23.6557C43.3153 23.3582 43.3435 23.2034 43.6675 23.0305C44.0499 22.8295 44.1948 22.9802 44.3497 23.2979C44.861 24.351 45.1409 25.5012 45.1708 26.6713Z" fill="#020202"/>
<path d="M147.476 51.2829C148.281 51.2829 148.884 51.293 149.476 51.2829C150.068 51.2728 150.533 51.102 150.438 50.3521C150.386 49.9279 150.593 49.7389 151.022 49.761C151.543 49.7852 151.456 50.0907 151.424 50.4586C151.283 51.9624 151.297 51.9644 149.738 51.9644C148.768 51.9644 147.798 51.9745 146.828 51.9644C146.544 51.9644 146.166 52.1273 145.993 51.8217C145.791 51.4679 146.156 51.2186 146.335 50.9632C147.367 49.4555 148.409 47.9477 149.446 46.452C149.553 46.2951 149.647 46.1263 149.804 45.8488C149.108 45.8488 148.55 45.8247 147.993 45.8488C147.361 45.881 146.89 46.1222 146.961 46.8741C146.993 47.228 146.916 47.431 146.486 47.429C146.055 47.427 146.031 47.2018 146.009 46.8641C145.892 45.2075 145.884 45.2075 147.492 45.2075C148.597 45.2075 149.705 45.2075 150.804 45.2075C151.006 45.2075 151.307 45.0688 151.426 45.3543C151.531 45.6036 151.311 45.7805 151.181 45.9674L147.476 51.2829Z" fill="#030303"/>
<path d="M128.997 35.1025C127.991 35.1286 127.029 35.0864 126.618 33.9385C126.484 33.5605 126.351 33.1042 126.953 33.0097C127.355 32.9453 127.834 32.8669 127.826 33.5706C127.818 34.2742 128.377 34.4712 128.913 34.5014C129.492 34.5356 130.16 34.5014 130.507 33.9345C130.853 33.3675 130.822 32.8187 130.104 32.5272C129.484 32.2839 128.846 32.0889 128.22 31.8597C127.178 31.4798 126.586 30.7279 126.661 29.8956C126.745 28.9648 127.421 28.3335 128.605 28.2189C129.329 28.1506 130.082 28.0702 130.792 28.3416C131.354 28.5567 131.799 28.8844 131.72 29.588C131.692 29.8293 131.821 30.1911 131.372 30.1328C131.066 30.0946 130.68 30.352 130.527 29.7307C130.297 28.804 129.05 28.4562 128.297 29.0211C127.752 29.4232 127.864 30.358 128.544 30.6696C129.118 30.933 129.74 31.0918 130.337 31.3069C131.545 31.7431 132.056 32.487 131.873 33.5444C131.718 34.4391 130.867 35.0462 129.7 35.0864C129.466 35.1105 129.233 35.1045 128.997 35.1025Z" fill="#030303"/>
<path d="M263.588 35.1056C262.985 35.1358 262.248 35.1418 261.66 34.5809C261.282 34.2211 261.258 33.7547 261.318 33.2842C261.371 32.8821 261.721 33.0249 261.956 32.9947C262.318 32.9505 262.487 33.0611 262.506 33.4772C262.505 33.7317 262.601 33.977 262.774 34.1636C262.947 34.3501 263.185 34.4641 263.439 34.4824C264.043 34.5749 264.659 34.5025 265.104 34.0803C265.625 33.5777 265.349 32.6731 264.601 32.4037C263.852 32.1343 263.003 31.9654 262.262 31.5573C261.56 31.1713 261.445 30.5803 261.457 29.8726C261.448 29.5716 261.536 29.2756 261.707 29.0281C261.879 28.7806 262.126 28.5946 262.411 28.4975C263.441 28.0713 264.5 28.1256 265.55 28.3709C265.798 28.4283 266.021 28.5608 266.189 28.7501C266.358 28.9395 266.464 29.1764 266.492 29.4283C266.534 29.6957 266.657 30.1018 266.202 30.138C265.866 30.1641 265.365 30.4033 265.299 29.7359C265.24 29.1227 264.782 28.8895 264.252 28.8533C263.578 28.8091 262.844 28.8533 262.669 29.6776C262.502 30.4436 263.071 30.723 263.691 30.912C264.093 31.0406 264.528 31.1311 264.931 31.2859C266.301 31.8106 266.758 32.5464 266.506 33.7768C266.337 34.6111 265.472 35.1237 264.224 35.1298L263.588 35.1056Z" fill="#020202"/>
<path d="M164.682 35.1027C164.247 35.1027 163.813 35.1027 163.378 35.1027C163.32 35.1086 163.261 35.1022 163.205 35.0838C163.149 35.0655 163.098 35.0356 163.054 34.9962C163.011 34.9567 162.976 34.9086 162.953 34.8549C162.929 34.8012 162.917 34.7431 162.917 34.6845C162.883 34.3226 163.141 34.3086 163.374 34.3327C164.074 34.4111 164.109 33.9949 164.098 33.4642C164.074 32.3283 164.098 31.1925 164.098 30.0566C164.098 29.4676 164.269 28.7679 163.251 28.965C163.21 28.9744 163.168 28.9742 163.127 28.9644C163.086 28.9545 163.048 28.9352 163.016 28.908C162.984 28.8809 162.959 28.8466 162.942 28.808C162.926 28.7694 162.918 28.7274 162.921 28.6855C162.905 28.4121 163.068 28.3116 163.289 28.3458C164.229 28.4905 164.094 27.8512 164.094 27.2863C164.094 25.294 165.01 24.5321 166.99 24.8738C167.634 24.9824 167.976 25.4146 168.091 26.0137C168.149 26.3092 168.276 26.7375 167.741 26.7656C167.373 26.7857 166.888 26.9305 166.936 26.2409C166.954 26.1243 166.943 26.0053 166.906 25.8935C166.868 25.7817 166.805 25.6804 166.721 25.5979C166.636 25.5155 166.534 25.4542 166.421 25.4192C166.308 25.3842 166.189 25.3764 166.073 25.3965C165.537 25.4448 165.044 25.7202 165.125 26.4299C165.185 26.9566 165.235 27.4833 165.282 28.01C165.332 28.6031 165.783 28.2674 166.051 28.3357C166.252 28.39 166.54 28.2834 166.554 28.6493C166.568 29.0152 166.302 29.0112 166.077 28.975C165.376 28.8624 165.248 29.1962 165.272 29.8194C165.314 31.0537 165.306 32.2921 165.272 33.5285C165.26 34.0774 165.314 34.4513 166.006 34.3327C166.252 34.2945 166.572 34.2543 166.552 34.6885C166.533 35.0604 166.274 35.0906 165.99 35.1027C165.553 35.1067 165.119 35.1027 164.682 35.1027Z" fill="#020202"/>
<path d="M105.531 51.9606H104.227C103.95 51.9606 103.674 51.9746 103.684 51.5705C103.684 51.2529 103.885 51.1685 104.149 51.1966C104.773 51.281 104.857 50.9453 104.847 50.4286C104.821 49.1923 104.827 47.9559 104.847 46.7215C104.847 46.2732 104.847 45.9174 104.231 45.9937C103.94 46.0319 103.71 45.9435 103.682 45.5796C103.65 45.1393 103.96 45.1775 104.209 45.2157C104.789 45.2921 104.893 44.9886 104.845 44.5101C104.834 44.3092 104.834 44.1078 104.845 43.907C104.845 42.0976 106.487 41.0804 108.111 41.8966C108.344 41.9947 108.542 42.16 108.68 42.3713C108.818 42.5827 108.89 42.8304 108.886 43.0827C108.886 43.4486 108.806 43.6677 108.393 43.6235C108.097 43.5913 107.687 43.7763 107.709 43.1933C107.739 42.4615 107.274 42.2987 106.652 42.361C105.98 42.4273 105.87 42.8877 105.9 43.4365C105.951 43.7645 105.977 44.0958 105.978 44.4277C105.918 45.0408 106.127 45.2801 106.757 45.2117C106.992 45.1856 107.415 45.0107 107.423 45.5293C107.423 45.9495 107.141 46.036 106.819 45.9797C106.033 45.847 105.964 46.2732 105.988 46.9024C106.031 48.0363 106.024 49.1742 105.988 50.308C105.97 50.8991 106.043 51.3011 106.779 51.1845C107.067 51.1403 107.323 51.2268 107.323 51.5967C107.323 52.0249 106.994 51.9364 106.745 51.9445C106.334 51.9706 105.934 51.9606 105.531 51.9606Z" fill="#020202"/>
<path d="M33.443 37.4514C33.3202 34.6248 35.2743 33.3322 37.3451 32.134C38.5264 31.4505 39.7983 30.9117 40.7864 29.9226C41.9697 28.7465 42.5594 27.3774 42.1951 25.6766C42.1448 25.4454 41.8309 24.9971 42.4708 24.9328C42.9739 24.8805 43.0745 25.1238 43.145 25.554C43.5475 27.6589 42.5413 29.8643 40.5429 31.2172C39.1644 32.1521 37.653 32.8758 36.3168 33.8689C34.6183 35.1254 34.1313 36.7599 34.5398 38.7823C34.6283 39.2186 35.4253 40.0227 34.3385 40.1675C33.5919 40.268 33.7891 39.3894 33.6603 38.923C33.5523 38.4384 33.4797 37.9466 33.443 37.4514Z" fill="#020202"/>
<path d="M41.2972 27.0813C40.9329 29.0575 39.5443 30.2396 37.6587 30.9332C36.7873 31.2528 35.8736 31.4498 34.9882 31.7373C31.9192 32.7123 30.921 34.4835 31.6435 37.5915C31.7179 37.9092 32.046 38.3354 31.3557 38.5183C30.6191 38.7194 30.7781 38.1424 30.6996 37.8328C29.8142 34.397 31.2269 31.9243 34.6138 30.9372C35.4752 30.6859 36.3405 30.4487 37.1918 30.1732C38.8178 29.6465 39.9911 28.6675 40.3533 26.9144C40.4278 26.5525 40.5546 26.3113 41.0134 26.3756C41.4723 26.44 41.2891 26.7154 41.2972 27.0813Z" fill="#020202"/>
<path d="M161.353 48.6515C161.326 49.2211 161.375 49.7918 161.5 50.3483C161.701 51.0278 162.103 51.446 162.862 51.4359C163.558 51.4359 164.16 51.2027 164.325 50.483C164.49 49.7633 164.977 49.6788 165.418 49.902C166.048 50.2156 165.565 50.7222 165.364 51.07C164.836 51.9707 163.379 52.3144 161.894 51.9546C160.846 51.7013 160.151 50.8408 160.067 49.6286C160.025 49.0604 160.025 48.4899 160.067 47.9218C160.252 45.5736 162.683 44.3031 164.772 45.4068C165.275 45.6721 165.484 46.0963 165.617 46.5849C165.678 46.812 165.835 47.198 165.436 47.2221C165.118 47.2423 164.597 47.578 164.468 46.9105C164.287 45.9737 163.679 45.652 162.788 45.7425C161.818 45.841 161.562 46.5647 161.427 47.3508C161.376 47.7825 161.351 48.2168 161.353 48.6515Z" fill="#030303"/>
<path d="M189.207 32.0087C189.207 32.4429 189.238 32.8812 189.207 33.3134C189.145 34.015 189.258 34.4955 190.141 34.3307C190.395 34.2824 190.723 34.2804 190.745 34.6704C190.761 35.1087 190.427 35.1027 190.115 35.1027C189.244 35.1027 188.372 35.1027 187.499 35.1027C187.187 35.1027 186.873 35.1027 186.855 34.6624C186.837 34.2221 187.191 34.3206 187.422 34.3307C188.012 34.3548 188.048 34.003 188.042 33.5527C188.028 32.3143 188.02 31.0739 188.042 29.8355C188.052 29.2967 187.996 28.8946 187.308 28.969C187.064 28.9951 186.829 28.969 186.849 28.6172C186.869 28.2654 187.191 28.2895 187.364 28.3478C187.986 28.5488 188.801 27.813 189.296 28.778C189.393 28.967 189.676 28.5347 189.9 28.4302C190.538 28.1367 191.18 28.01 191.791 28.4161C192.295 28.7499 192.355 29.2906 192.264 29.8515C192.204 30.2235 191.977 30.33 191.62 30.3099C191.314 30.2918 191.017 30.3501 191.017 29.8757C191.017 29.4012 190.781 29.0213 190.212 29.1358C189.642 29.2504 189.228 29.5822 189.193 30.2054C189.159 30.8286 189.193 31.4116 189.193 32.0147L189.207 32.0087Z" fill="#030303"/>
<path d="M228.568 48.9475C228.541 49.4267 228.582 49.9072 228.69 50.3748C228.892 51.0322 229.278 51.3901 229.964 51.4383C230.28 51.4824 230.601 51.4216 230.879 51.2655C231.157 51.1093 231.376 50.8663 231.502 50.5739C231.574 50.4251 231.612 50.2603 231.683 50.1115C231.9 49.6471 232.325 49.8542 232.631 49.8964C233.033 49.9547 232.832 50.2844 232.782 50.5317C232.58 51.3881 231.977 51.8103 231.16 51.957C228.916 52.3591 227.149 51.756 227.26 48.9414C227.276 48.5072 227.213 48.0669 227.272 47.6407C227.569 45.4575 230.246 44.2794 232.112 45.4836C232.546 45.765 232.715 46.1953 232.83 46.6436C232.892 46.8667 233.015 47.2467 232.582 47.2467C232.277 47.2467 231.8 47.5362 231.683 46.9652C231.468 45.9299 230.801 45.6102 229.839 45.7791C228.833 45.956 228.721 46.8084 228.58 47.5885C228.519 47.9423 228.568 48.3202 228.568 48.9475Z" fill="#030303"/>
<path d="M140.522 35.1035C140.053 35.1035 139.584 35.1035 139.113 35.1035C138.839 35.1035 138.664 35.001 138.624 34.7196C138.578 34.3899 138.775 34.2954 139.043 34.3275C139.737 34.416 139.789 34.0119 139.779 33.4731C139.755 32.2347 139.755 30.9963 139.779 29.7579C139.779 29.2393 139.697 28.9015 139.075 28.9679C138.829 28.996 138.584 28.9498 138.626 28.604C138.668 28.2582 138.972 28.2984 139.167 28.3446C139.787 28.4954 140.506 27.9747 141.071 28.6924C141.222 28.8834 141.554 28.4351 141.834 28.3507C142.438 28.1637 143.073 27.9767 143.623 28.4814C144.045 28.8714 144.108 29.3518 143.983 29.9188C143.901 30.2947 143.719 30.3309 143.436 30.3028C143.152 30.2746 142.794 30.4455 142.764 29.9469C142.733 29.4483 142.574 28.994 141.924 29.1428C141.274 29.2915 140.83 29.774 140.888 30.4053C140.959 31.4364 140.974 32.4705 140.934 33.5033C140.924 34.1446 141.077 34.4341 141.759 34.3416C142.023 34.3054 142.397 34.2109 142.377 34.7236C142.357 35.2362 142.005 35.1015 141.725 35.1096C141.325 35.1136 140.922 35.1035 140.522 35.1035Z" fill="#030303"/>
<path d="M220.786 46.5582C220.786 47.8609 220.796 49.1717 220.786 50.4664C220.786 50.9147 220.8 51.2705 221.404 51.1941C221.679 51.1559 221.834 51.2625 221.826 51.5821C221.818 51.9018 221.625 51.9621 221.369 51.9601C220.564 51.9601 219.759 51.9601 218.954 51.9601C218.737 51.9601 218.457 52.0305 218.419 51.6786C218.381 51.3268 218.56 51.166 218.886 51.1961C219.58 51.2625 219.613 50.8504 219.609 50.3196C219.59 48.0157 219.582 45.7118 219.609 43.4079C219.609 42.8048 219.514 42.4309 218.822 42.4711C218.62 42.4831 218.419 42.4711 218.419 42.1776C218.407 41.8318 218.62 41.8157 218.876 41.8197C218.942 41.8197 219.011 41.8197 219.077 41.8197C220.786 41.7514 220.786 41.7514 220.786 43.4582V46.5582Z" fill="#040404"/>
<path d="M257.176 31.9838C257.199 32.4224 257.199 32.8619 257.176 33.3006C257.094 34.0504 257.301 34.4626 258.15 34.3319C258.39 34.2957 258.714 34.2334 258.716 34.6737C258.716 35.0416 258.515 35.1099 258.201 35.1059C257.298 35.0978 256.394 35.0978 255.488 35.1059C255.176 35.1059 254.977 35.0335 254.973 34.6696C254.969 34.3058 255.204 34.3017 255.442 34.3279C255.983 34.3902 256.027 34.0786 256.021 33.6544C256.005 32.3838 256.009 31.1113 256.021 29.8347C256.021 29.3482 256.092 28.8536 255.337 28.9601C255.102 28.9943 254.967 28.8677 254.981 28.6083C254.997 28.3128 255.226 28.2826 255.403 28.3389C256.007 28.5299 256.782 27.8786 257.267 28.741C257.378 28.9421 257.603 28.6465 257.736 28.55C257.982 28.3734 258.263 28.2523 258.561 28.1954C258.858 28.1385 259.165 28.147 259.458 28.2203C260.4 28.4214 260.312 29.1994 260.282 29.909C260.255 30.5524 259.75 30.2267 259.448 30.289C259.147 30.3513 259.002 30.2166 259.008 29.909C259.008 29.4587 258.905 29.119 258.35 29.1049C257.794 29.0908 257.47 29.4266 257.303 29.8869C257.035 30.6147 257.239 31.3666 257.176 31.9838Z" fill="#030303"/>
<path d="M113.398 48.2826C113.398 47.8805 113.398 47.4785 113.398 47.0764C113.398 46.5155 113.611 45.7938 112.573 45.9727C112.362 46.0089 112.259 45.7717 112.231 45.5706C112.199 45.3012 112.352 45.2228 112.585 45.2108C113.408 45.1685 113.621 44.6076 113.66 43.9181C113.68 43.5522 113.704 43.2547 114.183 43.2426C114.787 43.2265 114.612 43.6889 114.571 43.9442C114.394 45.0359 114.873 45.3515 115.891 45.2329C116.173 45.2027 116.711 44.9454 116.777 45.5023C116.853 46.1536 116.288 45.9868 115.922 45.9968C114.587 46.033 114.587 46.027 114.587 47.3759C114.587 48.1459 114.587 48.9139 114.587 49.6818C114.599 50.9182 114.869 51.1575 116.135 51.2077C116.435 51.2198 116.962 50.9202 117.016 51.5113C117.071 52.1023 116.539 51.9134 116.211 51.9757C116.05 52.0154 115.886 52.0463 115.72 52.0682C114.127 52.2009 113.507 51.6842 113.402 50.09C113.364 49.4889 113.398 48.8837 113.398 48.2826Z" fill="#020202"/>
<path d="M136.01 35.1051C134.428 35.1051 134.086 34.7634 134.086 33.1731C134.086 32.1358 134.086 31.0964 134.086 30.0591C134.086 29.456 134.233 28.7764 133.227 28.9674C133.187 28.9789 133.144 28.9805 133.103 28.972C133.062 28.9636 133.024 28.9453 132.991 28.9189C132.959 28.8924 132.933 28.8585 132.917 28.82C132.9 28.7816 132.894 28.7397 132.897 28.698C132.877 28.4467 132.993 28.3502 133.227 28.296C133.927 28.1572 134.195 27.6928 134.233 27.0053C134.249 26.6796 134.318 26.3459 134.811 26.364C135.346 26.3821 135.314 26.748 135.259 27.0636C135.058 28.1572 135.559 28.4709 136.573 28.3462C136.821 28.3161 137.338 28.0849 137.31 28.6799C137.288 29.1725 136.853 28.9473 136.604 28.9574C135.267 29.0096 135.267 28.9976 135.267 30.3807C135.267 31.2512 135.326 32.1257 135.253 32.9942C135.167 33.9994 135.714 34.2507 136.555 34.3392C136.891 34.3733 137.511 34.0095 137.531 34.6246C137.552 35.2398 136.91 35.0388 136.525 35.0971C136.354 35.1124 136.182 35.1151 136.01 35.1051Z" fill="#030303"/>
<path d="M111.189 31.2868C111.189 31.9884 111.207 32.6941 111.189 33.3957C111.169 33.9566 111.199 34.423 111.96 34.3285C112.161 34.3044 112.362 34.3024 112.379 34.6039C112.395 34.9055 112.282 35.0804 112 35.0864C111.097 35.1025 110.189 35.0985 109.287 35.0864C109.018 35.0864 108.992 34.8854 108.98 34.6683C108.969 34.6185 108.971 34.5668 108.986 34.5181C109.001 34.4695 109.029 34.4257 109.066 34.3911C109.104 34.3566 109.15 34.3324 109.2 34.3211C109.249 34.3097 109.301 34.3116 109.35 34.3265C110.121 34.4391 110.022 33.9244 110.02 33.448C110.02 32.2417 110.02 31.0355 110.02 29.8293C110.02 29.3528 110.102 28.8462 109.34 28.9568C109.116 28.9889 108.961 28.8723 108.982 28.603C109.002 28.3336 109.219 28.3416 109.412 28.3255C109.446 28.3255 109.481 28.3255 109.513 28.3255C111.193 28.1848 111.193 28.1848 111.193 29.8735L111.189 31.2868Z" fill="#050505"/>
<path d="M225.207 48.1541C225.207 48.7573 225.185 49.3604 225.207 49.9635C225.233 50.5183 224.889 51.3346 226.012 51.22C226.213 51.1999 226.233 51.411 226.237 51.5859C226.237 51.8311 226.135 51.9598 225.887 51.9598C225.052 51.9598 224.215 51.9598 223.38 51.9598C223.33 51.9672 223.28 51.9637 223.232 51.9495C223.185 51.9352 223.141 51.9106 223.103 51.8773C223.066 51.8441 223.037 51.8031 223.018 51.7572C222.998 51.7113 222.989 51.6617 222.991 51.612C222.969 51.3265 223.064 51.1476 223.376 51.1918C224.048 51.2883 224.036 50.8681 224.03 50.3977C224.012 49.3624 224.054 48.325 224.012 47.2917C223.99 46.7368 224.414 45.8462 223.195 45.9709C222.959 45.995 222.993 45.6773 222.993 45.4843C222.993 45.2913 223.13 45.2109 223.313 45.2109C223.814 45.2109 224.32 45.2109 224.819 45.2109C225.221 45.2109 225.205 45.4763 225.205 45.7537C225.205 46.5519 225.207 47.352 225.207 48.1541Z" fill="#050505"/>
<path d="M252.761 31.301C252.761 31.9041 252.761 32.5072 252.761 33.1104C252.761 33.7135 252.559 34.4653 253.62 34.3528C253.821 34.3327 253.877 34.5257 253.89 34.7026C253.897 34.7441 253.896 34.7866 253.887 34.8278C253.878 34.8689 253.861 34.9079 253.836 34.9423C253.812 34.9767 253.781 35.006 253.745 35.0283C253.709 35.0507 253.67 35.0657 253.628 35.0725C252.692 35.0986 251.756 35.1087 250.823 35.0946C250.565 35.0946 250.551 34.8534 250.547 34.6443C250.547 34.3648 250.726 34.3045 250.949 34.3347C251.628 34.4312 251.605 34.003 251.599 33.5305C251.585 32.262 251.587 30.9934 251.599 29.7229C251.599 29.2946 251.628 28.8966 250.996 28.971C250.738 29.0031 250.525 28.9468 250.555 28.6051C250.581 28.3096 250.794 28.3457 250.988 28.3357C251.022 28.3357 251.056 28.3357 251.088 28.3357C252.765 28.209 252.763 28.209 252.763 29.8998L252.761 31.301Z" fill="#050505"/>
<path d="M202.465 31.3104C202.465 31.9135 202.453 32.5167 202.465 33.1198C202.477 33.7229 202.209 34.4808 203.3 34.3441C203.501 34.32 203.58 34.4989 203.592 34.6778C203.599 34.7273 203.597 34.7779 203.583 34.8262C203.569 34.8744 203.546 34.9192 203.513 34.9573C203.481 34.9955 203.44 35.0263 203.395 35.0474C203.349 35.0686 203.3 35.0796 203.25 35.0799C202.345 35.0973 201.441 35.0973 200.537 35.0799C200.277 35.0799 200.257 34.8507 200.249 34.6416C200.237 34.3662 200.406 34.2838 200.629 34.318C201.295 34.4165 201.297 34.0104 201.291 33.5279C201.273 32.2573 201.277 30.9868 201.291 29.7081C201.291 29.2799 201.322 28.8779 200.688 28.9543C200.428 28.9864 200.219 28.9301 200.249 28.5864C200.275 28.2908 200.49 28.329 200.684 28.319H200.784C202.459 28.1943 202.459 28.1943 202.459 29.8911L202.465 31.3104Z" fill="#050505"/>
<path d="M124.324 31.3493C124.324 31.9524 124.324 32.5555 124.324 33.1586C124.324 33.7617 124.107 34.5216 125.194 34.3648C125.381 34.3367 125.473 34.5076 125.481 34.6965C125.49 34.7465 125.488 34.7977 125.474 34.8466C125.46 34.8954 125.436 34.9407 125.403 34.9791C125.37 35.0175 125.329 35.0481 125.283 35.0688C125.236 35.0895 125.186 35.0997 125.135 35.0986C124.234 35.1167 123.324 35.1187 122.431 35.1127C122.173 35.1127 122.125 34.9117 122.115 34.6945C122.105 34.6447 122.109 34.5932 122.125 34.545C122.141 34.4968 122.169 34.4535 122.206 34.4193C122.244 34.385 122.289 34.3609 122.339 34.3493C122.388 34.3376 122.44 34.3388 122.489 34.3528C123.225 34.4573 123.185 33.9829 123.179 33.4903C123.167 32.2559 123.165 31.0216 123.179 29.7872C123.179 29.3107 123.179 28.8986 122.521 28.983C122.308 29.0112 122.119 28.9428 122.119 28.6694C122.119 28.396 122.304 28.3819 122.521 28.3458C124.113 28.0784 124.332 28.2593 124.332 29.8616L124.324 31.3493Z" fill="#030303"/>
<path d="M40.5811 20.3054C40.5549 20.3637 40.5167 20.4783 40.5026 20.4763C39.587 20.3014 39.6413 21.395 39.0114 21.6122C38.5767 21.7609 38.1903 21.7127 37.9126 21.393C37.6349 21.0734 37.5443 20.5185 36.8842 20.6291C36.7373 20.6532 36.5562 20.3537 36.844 20.1064C37.4578 19.5736 39.7882 19.4771 40.3899 19.9918C40.4885 20.0823 40.6053 20.1406 40.5811 20.3054Z" fill="#070707"/>
<path d="M124.465 26.4272C124.423 26.98 124.147 27.3278 123.66 27.2937C123.44 27.2902 123.23 27.1996 123.077 27.0418C122.924 26.8841 122.84 26.672 122.844 26.4523C122.847 26.2327 122.938 26.0234 123.096 25.8705C123.254 25.7176 123.466 25.6337 123.686 25.6371C124.189 25.623 124.423 25.9849 124.465 26.4272Z" fill="#0B0B0B"/>
<path d="M111.355 26.4403C111.298 26.9349 111.047 27.3068 110.55 27.2907C110.441 27.2977 110.332 27.2813 110.231 27.2425C110.129 27.2038 110.037 27.1437 109.96 27.0663C109.884 26.9889 109.825 26.896 109.788 26.7939C109.751 26.6918 109.736 26.5828 109.745 26.4745C109.745 25.9076 110.063 25.6603 110.523 25.6342C111.028 25.608 111.286 25.9619 111.355 26.4403Z" fill="#0A0A0A"/>
<path d="M252.102 27.3175C251.661 27.1949 251.297 27.026 251.297 26.4611C251.297 25.8962 251.605 25.6409 252.102 25.6328C252.563 25.6328 252.83 25.9283 252.853 26.4008C252.879 26.9275 252.601 27.209 252.102 27.3175Z" fill="#060606"/>
<path d="M224.543 42.5973C224.982 42.5451 225.263 42.8687 225.289 43.3452C225.316 43.8216 225.088 44.1956 224.533 44.1895C224.044 44.1895 223.669 43.9443 223.653 43.4357C223.635 42.9612 223.877 42.6074 224.543 42.5973Z" fill="#0A0A0A"/>
<path d="M201.758 25.6172C202.318 25.6936 202.575 25.9911 202.563 26.5078C202.543 26.9762 202.275 27.2999 201.821 27.2918C201.366 27.2838 201.016 27.0224 201.016 26.4676C201.016 25.9127 201.336 25.7097 201.758 25.6172Z" fill="#060606"/>
<path d="M36.9059 50.4132C34.742 50.8138 32.5402 50.9716 30.3413 50.8836C29.7979 50.8655 29.653 51.0284 29.6832 51.541C29.753 52.5403 29.6537 53.5441 29.3894 54.5104C29.3411 54.6853 29.2827 54.8903 29.4337 54.9647C30.4258 55.4633 29.7979 55.988 29.49 56.5227C29.0251 57.3269 28.5361 58.117 29.4417 58.9855C29.8845 59.4097 29.657 59.7032 29.1117 59.86C28.8583 59.9433 28.6308 60.0908 28.4516 60.2882C27.703 61.0923 27.5661 61.0924 26.8799 60.1957C26.7491 60.0268 26.7611 59.6951 26.4311 59.7695C25.9944 59.868 25.7791 60.1113 26.0749 60.5475C26.6464 61.3879 26.2138 61.418 25.4993 61.3095C25.1109 61.2492 24.6944 61.2089 24.3361 61.5427C24.0745 60.5636 24.4146 59.8258 25.0103 59.1966C25.276 58.9171 25.4128 58.692 25.125 58.3723C24.7467 57.9702 24.5213 58.3522 24.32 58.5733C24.0484 58.8528 23.8189 59.1765 23.5432 59.5102C23.1287 59.1925 23.0904 58.6035 22.6316 58.3462C22.2291 58.119 22.5994 57.9662 22.7302 57.8436C23.2025 57.4158 23.7931 57.1404 24.4247 57.0535C24.7547 57.0012 24.9077 56.9128 24.8855 56.571C24.8674 56.3097 24.801 56.0604 24.4971 56.1126C23.7284 56.2413 24.0604 55.608 24.0423 55.3728C24.0081 54.9205 24.4126 54.8963 24.7588 54.9707C25.3444 55.0853 25.924 55.224 26.57 55.3728C26.7088 53.2318 26.3949 51.151 26.0487 49.0803C25.8475 47.8379 25.922 47.6168 27.1334 47.3192C29.3652 46.7724 31.5809 46.1753 33.7745 45.5099C34.0804 45.4174 34.8612 44.961 34.4648 46.0125C34.4225 46.1271 34.6419 46.3442 34.7485 46.509C35.2235 47.2368 35.6883 47.9525 35.5414 48.9034C35.4549 49.4703 35.8594 49.8181 36.2981 50.1096C36.4591 50.2765 36.932 49.9006 36.9059 50.4132Z" fill="#FEFEFE"/>
<path d="M52.7266 47.2214C50.9154 46.5419 49.708 45.3879 49.4081 43.4982C49.0922 41.4737 49.71 39.7126 51.3018 38.4059C53.7168 36.4196 54.0629 36.4498 56.508 38.424C59.3254 40.7057 59.4261 44.6984 56.6972 46.6404C56.5925 46.7148 56.4798 46.7751 56.2766 46.8997C56.2565 45.6392 55.2704 44.8652 55.0148 43.7635C54.9343 43.4137 54.6304 43.5906 54.4271 43.6308C53.2962 43.852 52.6783 44.6783 52.7105 45.8523C52.7206 46.2866 52.9601 46.7027 52.7266 47.2214Z" fill="#FEFEFE"/>
<path d="M31.2767 29.6387C28.5237 31.448 28.8919 31.6249 27.9944 33.3619C26.8191 32.419 25.7082 31.4239 24.8348 30.1895C24.6759 29.9644 24.5692 29.6206 24.1546 29.8055C23.4422 30.1252 23.1625 29.8176 22.9914 29.112C22.77 28.3422 22.4349 27.6098 21.9973 26.9387C21.6371 26.3356 21.3936 26.5125 21.0736 26.9287C20.983 27.0699 20.8821 27.2043 20.7717 27.3308C20.3431 27.769 19.9184 28.35 19.4254 27.373C19.3046 27.2116 19.1407 27.0875 18.9525 27.0151C18.2119 26.6312 18.1475 26.1989 18.8559 25.7506C19.3167 25.4611 19.4053 25.1636 19.1658 24.7796C18.88 24.3152 18.5621 24.7635 18.3608 24.8962C18.0328 25.0972 17.8537 25.1535 17.6987 24.7514C17.6504 24.6308 17.5136 24.5404 17.4834 24.4197C17.3989 24.082 16.6281 24.2187 16.9219 23.702C17.1835 23.2376 17.7068 23.111 18.23 23.1451C18.7352 23.1595 19.2202 23.3461 19.6045 23.6739C19.9869 24.0297 20.1539 23.8086 20.4095 23.5673C20.8261 23.1653 20.3873 23.0748 20.1861 22.922C19.8983 22.7009 19.5824 22.5199 19.2785 22.3189C19.2785 22.2606 19.2382 22.1822 19.2644 22.15C20.2545 20.9136 20.6731 20.9438 21.6793 22.2686C21.8464 22.4898 21.8524 22.9823 22.3535 22.8114C22.7117 22.6908 22.8586 22.5481 22.7318 22.0857C22.6413 21.756 23.1343 21.9711 23.3356 21.8545C23.6837 21.6534 23.7039 21.9329 23.7683 22.152C24.0017 22.9562 24.046 23.7985 23.7099 24.5645C23.3919 25.2882 23.7099 25.4973 24.2935 25.7808C26.685 26.9481 29.0157 28.2357 31.2767 29.6387Z" fill="#FEFEFE"/>
<path d="M37.4961 13.6332C38.7539 13.8202 39.3979 14.6525 40.0459 15.6034C40.3719 14.7993 40.6858 14.0936 41.3157 13.5588C41.6337 13.2915 41.8148 13.2432 42.1388 13.5588C42.7083 14.1202 43.1175 14.8232 43.3241 15.5954C44.0486 14.7349 44.6262 13.8242 45.8296 13.6634C45.8759 14.3731 45.5922 15.0063 45.4915 15.6637C45.4291 16.0758 45.1333 16.1502 44.753 16.1482C42.7083 16.1335 40.6644 16.1335 38.621 16.1482C38.2186 16.1482 37.9932 16.0336 37.9167 15.6235C37.7879 14.9762 37.647 14.3389 37.4961 13.6332Z" fill="#FCFCFC"/>
<path d="M41.6451 16.7982C42.6151 16.7982 43.5851 16.7982 44.5531 16.7982C44.7865 16.7982 45.1568 16.6615 45.1568 17.0877C45.1624 17.1553 45.1529 17.2233 45.1289 17.2867C45.1049 17.3502 45.067 17.4074 45.018 17.4544C44.9691 17.5014 44.9103 17.5369 44.8458 17.5583C44.7814 17.5797 44.7131 17.5865 44.6457 17.5783C42.6735 17.5783 40.7013 17.5783 38.7291 17.5783C38.6707 17.5848 38.6116 17.5785 38.5559 17.5599C38.5003 17.5412 38.4494 17.5106 38.4068 17.4701C38.3642 17.4297 38.331 17.3805 38.3095 17.3259C38.288 17.2713 38.2787 17.2126 38.2823 17.1541C38.2602 16.7078 38.5842 16.8022 38.8277 16.8002C39.7735 16.7942 40.7093 16.7982 41.6451 16.7982Z" fill="#E9E9E9"/>
<path d="M29.939 23C31.2652 24.7812 33.0583 24.156 34.7387 23.9891C36.0661 23.8476 37.4064 24.0845 38.6046 24.6726C37.9767 25.0546 37.5883 24.7531 37.1959 24.7108C35.3645 24.5098 33.5473 24.4475 31.724 24.8475C30.5025 25.1189 29.8424 24.4274 29.939 23Z" fill="#F3F3F3"/>
<path d="M37.8352 25.5847C36.5473 26.2683 35.052 26.1677 34.4141 25.3133C35.5994 25.1062 36.6881 25.3214 37.8352 25.5847Z" fill="#F2F2F2"/>
<path d="M36.5275 47.4074C36.8004 47.7755 37.0543 48.1573 37.2882 48.5513C37.3949 48.7523 37.7289 48.9534 37.4351 49.2348C37.3479 49.3141 37.2403 49.3673 37.1243 49.3887C37.0084 49.41 36.8888 49.3985 36.7791 49.3554C36.7055 49.3391 36.6358 49.3083 36.5742 49.2649C36.5125 49.2215 36.4601 49.1664 36.4199 49.1027C36.3796 49.0389 36.3524 48.9679 36.3398 48.8936C36.3272 48.8193 36.3295 48.7433 36.3464 48.6699C36.4537 48.3301 36.4373 47.9634 36.3001 47.6346C36.2377 47.4235 36.3343 47.3652 36.5275 47.4074Z" fill="#EAEAEA"/>
<path d="M29.5058 61.3568C29.0752 61.2744 28.7693 61.3568 28.8377 61.0512C28.8841 60.8748 28.9845 60.7172 29.1248 60.6004C29.2651 60.4836 29.4384 60.4135 29.6205 60.3998C29.8218 60.3677 29.8741 60.5727 29.856 60.7476C29.8198 61.1075 29.7071 61.399 29.5058 61.3568Z" fill="#E2E2E2"/>
<path d="M39.5995 72.1946C39.1065 71.8428 38.8388 71.5473 39.0401 71.1593C39.1588 70.9281 39.5532 70.9582 39.7424 71.1351C40.2636 71.5955 39.4405 71.692 39.5995 72.1946Z" fill="#DDDDDD"/>
<path d="M36.8131 66.5209C36.6018 66.1188 36.0082 66.2314 36.0665 65.6966C36.0866 65.5257 36.312 65.2785 36.469 65.3508C36.9138 65.5418 36.96 65.9459 36.8131 66.5209Z" fill="#D3D3D3"/>
<path d="M14.6211 41.9444C14.77 41.6207 14.7096 41.1403 15.1886 41.1845C15.4261 41.2026 15.6233 41.5966 15.5307 41.8017C15.3617 42.1816 14.9793 41.9625 14.6211 41.9444Z" fill="#D3D3D3"/>
<path d="M21.4887 45.5642C21.376 45.7311 21.2573 46.0969 21.0862 46.1191C20.9353 46.1398 20.7823 46.1004 20.6603 46.0094C20.5383 45.9183 20.4571 45.783 20.4342 45.6326C20.416 45.2848 20.8366 45.3591 21.0379 45.2486C21.2391 45.138 21.4404 45.2365 21.4887 45.5642Z" fill="#EFEFEF"/>
<path d="M44.5664 70.1633C44.3209 70.4548 44.5081 70.9956 43.9627 70.9233C43.7775 70.8991 43.4495 70.6398 43.4696 70.5835C43.6206 70.1372 43.9888 70.0749 44.5664 70.1633Z" fill="#EDEDED"/>
<path d="M21.6094 59.8532C21.718 59.4311 21.6979 59.0209 22.0119 58.9244C22.3258 58.8279 22.4767 59.1778 22.6156 59.5436L21.6094 59.8532Z" fill="#DBDBDB"/>
<path d="M36.3056 22.9434L36.9094 23.1062C36.9536 23.2831 36.9214 23.3836 36.7081 23.3072H34.4643L34.418 23.1886L35.1123 22.9655C35.5071 23.0433 35.914 23.0358 36.3056 22.9434Z" fill="#FCFCFC"/>
<path d="M18.375 20.721C18.8097 20.7029 19.1639 20.5199 19.2907 20.8637C19.3231 20.9909 19.3038 21.1257 19.2371 21.2387C19.1704 21.3517 19.0616 21.4337 18.9345 21.4668C18.4817 21.5091 18.6487 20.9924 18.375 20.721Z" fill="#DBDBDB"/>
<path d="M19.2725 28.3378C18.7875 28.2775 18.4091 28.5389 18.1676 28.1368C18.0811 27.9981 18.0731 27.6523 18.2683 27.6121C18.6889 27.5297 18.9203 27.8654 19.2725 28.3378Z" fill="#F1F1F1"/>
<path d="M17.1799 25.2648C16.7774 25.4055 16.4413 25.4216 16.22 25.0859C16.1988 25.041 16.1877 24.9922 16.1875 24.9426C16.1873 24.8931 16.1979 24.8441 16.2186 24.7991C16.2393 24.7541 16.2696 24.7142 16.3074 24.6821C16.3452 24.65 16.3895 24.6266 16.4373 24.6134C16.8599 24.5571 17.0129 24.9069 17.1799 25.2648Z" fill="#D7D7D7"/>
<path d="M17.8158 45.105C17.7433 45.4729 17.5723 45.8107 17.2241 45.871C17.0229 45.9072 16.8216 45.5031 16.882 45.3563C17.0631 44.9945 17.4253 44.9784 17.8158 45.105Z" fill="#D0D0D0"/>
<path d="M16.1094 38.2746C16.2179 38.1691 16.3481 38.0884 16.4909 38.0381C16.6337 37.9877 16.7857 37.969 16.9365 37.9831C16.9672 38.0478 16.9846 38.1179 16.9878 38.1894C16.9911 38.261 16.98 38.3324 16.9553 38.3996C16.9305 38.4668 16.8926 38.5284 16.8438 38.5808C16.795 38.6332 16.7362 38.6753 16.6708 38.7048C16.3931 38.8174 16.2583 38.4937 16.1094 38.2746Z" fill="#C7C7C7"/>
<path d="M25.0671 62.0239C25.222 62.0139 25.4696 62.0239 25.4333 62.2732C25.4092 62.4742 25.2321 62.6391 25.1114 62.82C24.9544 62.6612 24.729 62.5285 24.6586 62.3375C24.5539 62.0521 24.8477 62.0802 25.0671 62.0239Z" fill="#E2E2E2"/>
<path d="M36.9045 50.4138C36.7657 50.1967 36.4074 50.3676 36.3008 50.0801H37.6914C37.5847 50.6209 37.1822 50.3816 36.9045 50.4138Z" fill="#C9C9C9"/>
<path d="M35.7449 68.8926C36.1474 68.9348 36.2842 69.2082 36.4754 69.4515C36.2158 69.5781 35.9341 69.8274 35.7006 69.6143C35.5879 69.5138 35.7228 69.1338 35.7449 68.8926Z" fill="#E5E5E5"/>
<path d="M23.3649 56.055C23.0751 55.9424 22.7611 55.8902 22.7148 55.5484C22.7148 55.4901 22.9986 55.3072 23.1173 55.3373C23.4957 55.4378 23.3789 55.7615 23.3649 56.055Z" fill="#D5D5D5"/>
<path d="M23.3103 20.8849C23.2559 21.1744 23.1432 21.2287 23.0003 21.2247C22.8575 21.2206 22.7106 21.1503 22.7327 20.9995C22.7548 20.8487 22.8072 20.6477 23.0446 20.7301C23.139 20.771 23.2282 20.823 23.3103 20.8849Z" fill="#DCDCDC"/>
<path d="M36.7188 23.2977L36.92 23.0967C37.1615 23.0625 37.3647 23.0967 37.4352 23.3942C37.1856 23.4606 36.926 23.543 36.7188 23.2977Z" fill="#CCCCCC"/>
<path d="M36.3106 22.9439C36.1341 23.0601 35.9281 23.1237 35.7168 23.1273C35.5055 23.1308 35.2975 23.0742 35.1172 22.964C35.5088 22.8709 35.916 22.864 36.3106 22.9439Z" fill="#FEFEFE"/>
<path d="M36.5283 47.4068L36.3009 47.634C36.1198 47.4691 35.9387 47.1837 36.1258 47.053C36.3573 46.8922 36.4217 47.242 36.5283 47.4068Z" fill="#818181"/>
<path d="M181.811 46.7693C181.058 46.9402 180.754 46.6407 180.843 45.8285C180.901 45.2321 180.901 44.6315 180.843 44.0352C180.779 43.3034 181.109 43.0702 181.777 43.1466C182.006 43.1707 182.238 43.1848 182.467 43.2109C183.922 43.3818 184.329 43.7236 184.387 44.8193C184.441 45.8687 183.735 46.5844 182.445 46.7713C182.234 46.7848 182.022 46.7841 181.811 46.7693Z" fill="#FBFBFB"/>
<path d="M207.749 37.0134C206.28 37.0134 205.566 36.2655 205.958 35.1176C206.015 34.9293 206.119 34.7588 206.262 34.6231C206.497 34.422 209.053 34.5949 209.315 34.7839C209.931 35.2282 209.753 36.3661 209.011 36.7943C208.612 37.0235 208.184 37.0255 207.749 37.0134Z" fill="#FDFDFD"/>
<path d="M209.085 30.4893C209.056 31.4402 208.529 31.9167 207.537 31.8966C206.515 31.8684 206.06 31.3236 206.1 30.1757C206.134 29.2228 206.615 28.7343 207.509 28.7403C208.529 28.7403 209.119 29.3977 209.085 30.4893Z" fill="#FBFBFB"/>
<path d="M228.314 26.7539C228.477 27.156 228.556 27.3369 228.624 27.5219C229.027 28.6356 229.429 29.7494 229.856 30.9094H226.859C227.33 29.5644 227.785 28.2677 228.314 26.7539Z" fill="#FBFBFB"/>
<path d="M200.14 48.4987C200.165 49.0627 200.08 49.6261 199.888 50.1573C199.568 51.0378 198.852 51.4198 197.956 51.3112C196.916 51.1846 196.67 50.5413 196.706 49.6326C196.731 48.9692 196.706 48.3017 196.706 47.6363C196.706 46.617 197.298 45.9837 198.329 45.8571C199.105 45.7606 199.779 46.2833 200.005 47.2201C200.079 47.6427 200.124 48.0699 200.14 48.4987Z" fill="#FDFDFD"/>
<path d="M212.974 48.6794C212.974 48.3115 212.988 47.9436 212.974 47.5777C212.922 46.5504 213.226 46.1704 214.383 45.9393C215.218 45.7664 215.808 46.1242 216.091 46.8942C216.506 48.0235 216.463 49.2696 215.973 50.3681C215.594 51.2668 214.876 51.5382 213.837 51.2829C212.94 51.0617 212.867 50.4365 212.976 49.6745C212.998 49.3432 212.998 49.0107 212.974 48.6794Z" fill="#FDFDFD"/>
<path d="M246.231 31.7287C246.918 31.594 247.238 31.8875 247.187 32.7057C247.135 33.7109 246.564 34.2979 245.465 34.3281C244.66 34.3482 244.153 33.8898 244.181 33.15C244.215 32.2936 244.984 31.7427 246.231 31.7287Z" fill="#FBFBFB"/>
<path d="M155.625 48.0446C155.592 48.0487 155.558 48.0487 155.524 48.0446C155.049 47.926 154.317 48.3764 154.13 47.7692C153.943 47.1621 154.242 46.4404 154.828 46.0302C155.414 45.6201 156.082 45.5417 156.692 45.9579C157.301 46.374 157.362 47.0616 157.336 47.7471C157.323 48.0245 157.134 48.0446 156.921 48.0446H155.625Z" fill="#FCFCFC"/>
<path d="M194.469 31.1793C194.765 30.1741 194.71 29.1207 195.964 28.8593C196.536 28.7407 197.045 28.8272 197.413 29.2433C197.826 29.7057 197.9 30.3229 197.882 30.93C197.882 31.2276 197.624 31.1753 197.437 31.1773C196.473 31.1813 195.511 31.1793 194.469 31.1793Z" fill="#FDFDFD"/>
<path d="M156.964 31.6728C156.964 29.7448 157.302 29.1156 158.401 28.8341C158.819 28.7166 159.265 28.7656 159.647 28.9708C160.029 29.176 160.316 29.5212 160.448 29.9338C160.761 30.9876 160.799 32.1042 160.557 33.1765C160.355 34.045 159.808 34.4974 158.947 34.5476C158.085 34.5979 157.494 34.234 157.216 33.3675C157.027 32.8231 156.942 32.2484 156.964 31.6728Z" fill="#FDFDFD"/>
<path d="M127.77 48.0433C128.055 46.1173 128.589 45.5484 129.893 45.7374C130.651 45.8459 131.378 47.1567 131.078 47.8483C130.965 48.1116 130.76 48.0232 130.581 48.0393C130.402 48.0553 130.247 48.0393 130.08 48.0393L127.77 48.0433Z" fill="#FDFDFD"/>
<path d="M190.493 48.0438C190.393 48.0559 190.293 48.0559 190.193 48.0438C189.756 47.9332 189.016 48.3353 188.921 47.8046C188.792 47.0728 189.064 46.2365 189.857 45.8847C190.461 45.6153 191.161 45.567 191.706 46.138C191.785 46.246 191.848 46.3644 191.894 46.4898C192.511 47.7081 192.316 48.0458 190.992 48.0458L190.493 48.0438Z" fill="#FBFBFB"/>
<path d="M184.659 31.827C184.604 32.2853 184.582 32.7518 184.487 33.2021C184.436 33.5679 184.258 33.9042 183.984 34.1522C183.71 34.4003 183.358 34.5443 182.988 34.5591C182.167 34.6395 181.517 34.3058 181.213 33.5539C180.713 32.3103 180.705 30.9236 181.189 29.6739C181.465 28.922 182.151 28.7451 182.811 28.7652C183.168 28.7688 183.513 28.8886 183.795 29.1063C184.078 29.324 184.281 29.6277 184.375 29.9714C184.577 30.5685 184.674 31.1966 184.659 31.827Z" fill="#FDFDFD"/>
<path d="M101.456 48.7402C101.563 49.2328 101.396 49.7173 101.299 50.1998C101.252 50.5327 101.089 50.8383 100.839 51.0634C100.589 51.2886 100.267 51.4191 99.931 51.4321C99.1099 51.5146 98.3794 51.3457 98.0554 50.4692C97.5744 49.256 97.5402 47.9116 97.9588 46.6756C98.2063 45.9579 98.798 45.7206 99.5446 45.7267C100.335 45.7267 100.911 46.0162 101.169 46.7781C101.408 47.4031 101.506 48.073 101.456 48.7402Z" fill="#FDFDFD"/>
<path d="M38.9017 20.6639C38.9042 20.6965 38.8999 20.7292 38.8891 20.76C38.8783 20.7908 38.8611 20.819 38.8388 20.8428C38.8165 20.8667 38.7894 20.8856 38.7593 20.8984C38.7293 20.9112 38.6969 20.9176 38.6642 20.9173C38.4811 20.9374 38.3181 20.877 38.3422 20.67C38.3569 20.6085 38.3858 20.5513 38.4268 20.5031C38.4677 20.4549 38.5194 20.417 38.5777 20.3925C38.7588 20.3463 38.8413 20.5152 38.9017 20.6639Z" fill="#E8E8E8"/>
</svg>
