<svg width="300" height="87" viewBox="0 0 300 87" fill="none" xmlns="http://www.w3.org/2000/svg">
<g clip-path="url(#clip0_1764_4448)">
<rect width="300" height="87" fill="#D9D9D9"/>
<path d="M150.048 -6.03263C203.363 -6.03263 256.678 -6.03933 309.993 -6.05273C310.766 -6.05273 310.999 -5.95825 310.999 -5.09981C310.97 26.9845 310.97 59.0682 310.999 91.1513C310.999 91.9454 310.776 92.0539 310.055 92.0539C203.357 92.0365 96.659 92.0365 -10.0381 92.0539C-10.7545 92.0539 -10.988 91.9534 -10.988 91.1533C-10.9625 59.0381 -10.9625 26.9216 -10.988 -5.19631C-10.998 -5.97232 -10.7766 -6.05273 -10.1085 -6.05273C43.2789 -6.03397 96.6644 -6.02727 150.048 -6.03263Z" fill="#FDFDFD"/>
<path d="M39.1758 27.372C38.9866 28.3632 38.3426 28.8436 37.4692 29.1532C35.986 29.6759 34.3922 29.6639 32.8969 30.1383C31.778 30.4922 30.641 30.8279 29.8924 31.7929C28.9364 33.0212 28.6386 34.4184 29.1437 35.9282C29.2745 36.3303 29.4697 36.7324 28.9143 36.9153C28.2683 37.1325 28.2904 36.5394 28.224 36.2077C28.0791 35.488 27.8558 35.488 27.2359 35.8317C25.1631 36.9837 23.1607 38.2442 21.2087 39.5871C20.8062 39.8605 20.6311 39.8545 20.4037 39.4122C20.0596 38.7287 19.4699 38.3105 18.7575 38.0251C18.0451 37.7396 17.55 37.7597 17.4615 38.7026C17.4313 38.9981 17.2965 39.179 17.705 39.2574C17.9404 39.3017 18.2484 39.3539 18.1558 39.762C18.0632 40.1701 17.7835 40.1641 17.4695 40.1641C17.2683 40.1641 17.067 40.1641 16.8658 40.1641C16.4271 40.1882 15.8495 40.2204 15.7308 40.6225C15.6362 40.9461 16.1152 41.3161 16.2923 41.702C16.4694 42.088 16.735 41.6317 16.9544 41.5613C17.1737 41.491 17.4353 41.2276 17.5742 41.6437C17.6627 41.8991 17.864 42.1946 17.4434 42.3956C17.0119 42.5909 16.6673 42.938 16.4754 43.3707C16.1051 44.1748 16.3486 44.5407 17.214 44.408C17.6929 44.3336 18.5261 44.8523 18.4737 43.6742C18.4637 43.4129 19.0392 43.5536 19.2646 43.823C19.3351 43.9074 19.2868 44.0844 19.317 44.213C19.3398 44.4098 19.4006 44.6003 19.4961 44.7739C19.5766 44.8885 19.6772 45.3268 19.8503 45.0433C20.3031 44.2954 21.4864 45.0996 21.7299 44.0944C21.7782 43.8934 21.6554 43.6441 21.5971 43.4209C21.2811 42.2147 21.2791 42.1986 22.6033 42.2147C23.3318 42.2147 24.0744 42.0941 24.7908 42.3635C25.3221 42.5645 25.5495 42.2549 25.624 41.8046C25.7024 41.3221 26.0103 41.1572 26.4289 41.0829C28.0727 40.8219 29.6838 40.3858 31.2347 39.7821C31.6029 39.6293 31.774 39.7299 31.8927 40.0797C32.6293 42.2589 34.3077 43.7285 35.8431 45.3067C37.276 46.7662 38.574 48.3222 39.2321 50.3326C39.3528 50.6985 39.4957 50.9538 39.055 51.3378C36.0041 53.9795 37.4591 58.8044 40.7555 60.0066C41.5927 60.3122 41.6732 60.5856 41.4357 61.3897C41.0332 62.7467 40.832 64.16 40.5321 65.6115C39.701 65.113 38.9041 64.7229 37.9582 64.7973C37.5095 64.8335 37.0868 64.8335 37.441 65.4648C37.6926 65.9151 37.1009 66.8298 38.2118 66.8298C38.3688 66.8298 38.1876 67.1052 38.1756 67.254C38.1474 67.5877 37.9864 67.7084 37.6543 67.6862C37.3953 67.6643 37.1346 67.6999 36.891 67.7907C36.6475 67.8814 36.427 68.0249 36.2456 68.2109C36.5862 68.5294 36.8784 68.8958 37.113 69.2986C37.3807 69.761 37.8053 69.8394 38.1192 69.2684C38.2744 68.9406 38.4491 68.6224 38.6425 68.3155C38.7431 68.1788 38.8779 67.8149 39.1657 68.1144C39.3488 68.2994 39.7413 68.4582 39.3951 68.8281C39.0107 69.2403 38.9162 69.765 38.7914 70.344C39.2945 70.4646 39.864 70.2495 40.3027 70.6536C40.5986 70.927 40.7797 70.5591 40.989 70.4525C41.2687 70.3098 41.1641 70.0605 41.0574 69.8494C40.9688 69.6705 40.8803 69.4916 40.7797 69.3187C40.7486 69.2792 40.7273 69.2329 40.7175 69.1837C40.7077 69.1345 40.7096 69.0836 40.7231 69.0352C40.7367 68.9869 40.7614 68.9424 40.7953 68.9053C40.8293 68.8683 40.8715 68.8398 40.9185 68.8221C41.1339 68.7095 41.3492 68.6211 41.5102 68.9266C41.6578 69.2244 41.8287 69.5101 42.0214 69.7811C42.3293 70.1952 42.6653 70.4787 43.0799 69.8534C43.1805 69.7047 43.424 69.6524 43.577 69.5338C43.8587 69.3066 44.4906 69.5338 44.4826 69.1317C44.4723 68.5595 44.2525 68.011 43.8647 67.5897C42.9571 66.6047 42.9672 66.5946 43.9271 65.6135C44.1847 65.3502 44.4484 65.0908 44.708 64.8295C44.877 64.6606 45.0843 64.4636 44.871 64.2264C44.0338 63.3197 44.8468 62.6844 45.2252 61.9848C45.5572 61.3817 46.3501 60.9072 46.2877 60.2398C46.2253 59.5723 45.3036 59.4497 44.7905 59.0476C42.9068 57.578 42.5466 54.5705 44.07 53.0024C44.559 52.4998 44.8448 52.2827 45.193 53.2034C46.3823 56.3356 50.3549 57.572 52.9992 55.6662C53.5432 55.2664 53.9941 54.7538 54.321 54.1635C54.6479 53.5732 54.843 52.9193 54.8929 52.2465C55.0519 50.7327 55.6214 49.8843 57.1167 49.1485C60.7814 47.3392 62.0432 43.429 60.4654 39.7299C59.6604 37.8582 58.0303 36.7786 56.3922 35.7533C55.9012 35.4478 55.5228 36.079 54.9614 36.2157C55.8992 36.9957 56.8812 37.5707 57.7104 38.3146C60.2702 40.6285 60.7532 45.753 56.1749 47.9483L55.0942 48.4831C55.394 47.2085 55.4484 46.0867 54.6313 45.0312C54.1383 44.396 53.9511 44.7216 53.7519 45.1499C53.5205 45.6484 53.603 46.1792 53.7177 46.7059C53.8404 47.2648 53.9572 47.9644 53.5366 48.3142C53.2085 48.5876 52.5988 48.2056 52.1621 48.0147C50.0953 47.11 48.6725 45.6022 48.4612 43.3063C48.2599 41.0949 49.0086 39.175 50.8057 37.7476C51.8856 36.9047 53.0667 36.1996 54.3214 35.6488C57.4326 34.2415 59.3726 32.02 59.4652 28.4697C59.4652 28.1601 59.6443 28.0093 59.8576 27.8244C61.6447 26.2764 61.8198 24.9857 60.5258 23.0357C60.264 22.6924 60.0208 22.3354 59.7973 21.9661C59.3807 21.162 59.0124 21.5017 58.6522 21.9862C57.8009 23.1322 57.8291 24.3866 58.7186 25.6954C58.9198 26.001 59.3908 26.2985 58.8534 26.6765C58.3161 27.0544 58.1611 26.4332 57.97 26.1879C57.6218 25.7279 57.3767 25.1985 57.2514 24.6355C57.126 24.0726 57.1234 23.4892 57.2437 22.9252C57.3639 22.3611 57.6043 21.8295 57.9483 21.3664C58.2924 20.9033 58.7322 20.5196 59.2378 20.2412C59.4874 20.1085 59.7168 19.9336 59.8758 20.3317C60.3165 21.4294 61.2221 22.2295 61.7493 23.2769C62.5946 24.9536 62.3531 26.7247 61.0108 28.0294C60.6083 28.4174 60.3104 28.8175 60.2662 29.3704C60.081 31.7406 58.946 33.5821 57.0845 35.0839C57.7808 35.6428 58.4489 36.2298 59.1654 36.7465C63.0977 39.5851 62.7878 46.2857 59.0185 49.0098C58.3403 49.5003 57.6741 50.015 56.8832 50.2944C56.2051 50.5276 56.03 50.9679 55.9736 51.6293C55.6697 55.1776 53.1562 57.5599 49.8296 57.3931C47.8011 57.2906 46.2757 56.219 45.0581 54.6389C44.8991 54.4378 44.8347 53.9654 44.4725 54.0659C44.1827 54.1483 44.1525 54.5524 44.07 54.8339C43.6675 56.207 44.5933 57.9379 46.1911 58.8747C47.6703 59.7412 47.7146 59.9885 46.7164 61.3837C46.3682 61.8702 46.0805 62.4009 45.7424 62.8935C45.5049 63.2393 45.4586 63.577 45.7222 63.8987C46.2374 64.54 45.9114 64.9702 45.4063 65.3924C45.1487 65.6055 44.9454 65.8809 44.6899 66.096C44.3256 66.4076 44.2874 66.6147 44.6214 67.057C45.1614 67.7452 45.4599 68.5916 45.4712 69.466C45.4825 70.3403 45.2058 71.1941 44.6838 71.896C44.394 72.2981 44.1787 72.3403 43.8305 72.0226C43.6555 71.8677 43.4662 71.7297 43.265 71.6105C41.8563 70.73 41.5263 70.8325 40.4718 72.1995C40.1598 72.6016 40.1136 73.4399 39.4655 73.3414C38.7592 73.2389 38.568 72.4307 38.2017 71.8859C37.924 71.4738 38.3144 70.7501 37.7228 70.5651C37.0034 70.37 36.2382 70.434 35.5614 70.746C34.9235 71.0154 34.7705 70.8285 34.7061 70.2153C34.5934 69.1599 34.7564 68.1547 35.5856 67.4832C36.2678 66.9283 35.9015 66.8037 35.4145 66.5926C35.1428 66.476 34.8671 66.3714 34.5934 66.2609C35.3984 64.3792 37.0687 63.5288 39.1033 64.0093C39.707 64.15 40.0693 64.1259 40.0391 63.3921C40.0499 63.2923 40.0792 63.1955 40.1256 63.1066C40.6066 61.7435 40.3973 60.863 38.9765 59.9704C36.3201 58.3038 35.6983 54.5182 37.3062 51.7922C37.3887 51.6534 37.4531 51.5027 37.5698 51.2654C35.4185 51.6353 33.3296 51.6675 31.2508 51.8183C31.0898 51.8283 30.9167 51.7881 30.7939 51.951C30.5585 52.2666 30.5927 54.671 30.8784 54.9665C31.2226 55.3103 31.2427 55.6059 30.9328 55.9858C30.7034 56.2653 30.5705 56.6231 30.3452 56.9086C29.8501 57.5378 29.828 58.0987 30.323 58.7762C30.8181 59.4537 30.7255 60.3302 30.6108 61.1143C30.4478 62.2863 30.2767 62.3567 29.0854 62.1295C28.858 62.0873 28.6225 62.0753 28.3931 62.0491C27.9242 61.9948 27.4835 61.5144 27.0005 61.8702C26.7063 62.0687 26.4605 62.3308 26.2815 62.637C26.1024 62.9433 25.9946 63.2858 25.9661 63.6393C25.9278 64.4274 25.6058 64.3249 25.1027 64.0414C24.5357 63.7472 24.0634 63.299 23.7402 62.7484C23.4169 62.1979 23.2558 61.5673 23.2754 60.9293C23.2754 60.2076 22.9897 60.3262 22.5771 60.4428C21.9002 60.6114 21.2509 60.8761 20.6492 61.2289C20.5969 59.321 21.0658 57.8112 22.555 56.7498C22.4624 56.5246 22.2732 56.4562 22.0921 56.3658C21.0175 55.825 21.0155 55.8189 21.9331 54.9826C22.3393 54.604 22.8278 54.3246 23.3604 54.1666C23.8929 54.0086 24.4549 53.9762 25.0021 54.0719C25.7427 54.1885 25.7266 53.8709 25.6682 53.4025C25.4952 51.9852 25.3442 50.5638 25.1108 49.1565C24.823 47.4216 25.1591 46.8587 26.8837 46.4465C29.1538 45.9058 31.3896 45.2544 33.6818 44.5226C33.0116 43.5797 32.2308 42.7273 31.7519 41.7302C31.3494 40.8818 30.967 40.8074 30.1942 41.1472C29.5825 41.4127 28.936 41.59 28.2743 41.6739C27.2802 41.8026 26.3706 41.9453 26.0607 43.1113C25.954 43.4973 25.634 43.5777 25.2557 43.4169C24.6338 43.1556 23.9476 43.2159 23.3056 43.055C22.7381 42.9163 22.565 43.041 22.6677 43.626C22.889 44.8925 22.4664 45.9942 21.7279 46.9994C21.428 47.4015 21.1382 47.701 20.6572 47.1301C20.3433 46.7582 19.8724 46.527 19.5001 46.1912C18.6529 45.4373 18.673 45.4454 18.1759 46.4586C18.0149 46.7843 18.0853 47.11 18.0008 47.4276C16.2842 46.7501 15.1834 45.2705 15.4672 43.622C15.6282 42.655 15.1472 42.7917 14.634 42.854C13.34 43.0148 13.2535 42.9304 13.7324 41.7201C14.0423 40.9341 14.4328 40.1802 15.2377 39.8022C15.8797 39.5007 15.8415 39.1489 15.3424 38.8312C14.5636 38.3367 14.8956 38.0452 15.435 37.6652C16.898 36.6359 19.1962 36.7364 20.5627 37.9205C20.8243 38.1477 20.9974 38.5337 21.4723 38.2261C23.5391 36.8892 25.6984 35.693 27.9403 34.5009C26.6101 33.3107 25.2396 32.2894 24.2334 30.9083C24.0321 30.6289 23.69 30.8038 23.3982 30.846C22.7703 30.9365 22.3195 30.846 22.2732 30.0217C22.235 29.3322 21.915 28.6828 21.5588 27.9973C21.0439 28.5241 20.4016 28.9092 19.6939 29.1152C18.9863 29.3213 18.2375 29.3413 17.5198 29.1733C17.067 29.0849 16.8557 28.9723 17.0751 28.4717C17.1795 28.1898 17.234 27.8918 17.2361 27.5912C17.3166 26.0231 17.1093 25.8663 15.5638 26.2784C15.4597 26.2993 15.3539 26.3108 15.2478 26.3126C14.9801 24.2298 15.7066 22.9432 17.5802 22.2637C17.9304 22.137 17.9445 22.0184 17.8579 21.6927C17.705 21.1278 17.3649 20.6875 17.0369 20.2251C17.6481 19.9449 18.3193 19.8204 18.9904 19.8629C19.6616 19.9053 20.3117 20.1134 20.8826 20.4684C21.7279 20.9871 22.0398 20.587 22.1726 19.9055C22.3457 19.031 22.6737 19.2782 23.1547 19.6341C24.7485 20.8162 25.0625 22.4486 24.7908 24.268C24.7163 24.7525 24.8371 24.9556 25.2537 25.1606C27.5297 26.2804 29.7273 27.5409 31.8947 28.8658C32.1227 29.025 32.3835 29.1312 32.6579 29.1764C32.9324 29.2217 33.2135 29.2048 33.4805 29.1271C34.4606 28.8738 35.4668 28.713 36.459 28.4577C35.5151 28.2988 34.5793 28.1842 33.6556 27.9711C32.8506 27.7842 32.6997 27.368 32.9452 26.6704C33.0217 26.4513 33.062 26.2161 33.1465 26.001C33.4423 25.3014 33.1948 25.2611 32.581 25.4622C32.1628 25.576 31.7304 25.6295 31.297 25.621C30.1902 25.6491 29.4858 25.1244 29.2323 24.1172C28.9505 23.0035 29.3208 22.1933 30.3673 21.6404C30.9489 23.3171 31.4117 23.6347 33.074 23.4639C32.8205 22.8045 32.579 22.1511 32.3194 21.5058C32.1463 21.0735 32.1564 20.7579 32.6735 20.5649C34.2332 19.9859 35.7506 19.3386 37.0788 18.2831C37.4511 17.9856 37.6141 17.8066 37.4994 17.3443C37.1754 16.0576 36.8957 14.7589 36.5837 13.4662C36.465 12.9757 36.5656 12.7284 37.1432 12.7887C38.0267 12.8792 38.8558 13.1104 39.5199 13.7155C39.8157 13.9849 39.9767 14.0613 40.1377 13.6331C40.184 13.5454 40.2461 13.467 40.3208 13.4019C41.6853 11.9544 41.8261 11.9725 43.0014 13.3336C43.4884 13.9005 43.7279 14.0332 44.2451 13.4682C44.4343 13.2672 44.7683 13.1828 45.04 13.0521C45.5975 12.7867 46.2918 12.5716 46.7466 12.9114C47.0766 13.1607 46.6983 13.816 46.5916 14.2865C46.3723 15.2615 46.1891 16.2446 45.9456 17.2116C45.7945 17.7215 45.8043 18.2655 45.9738 18.7696C46.1628 19.2398 46.1918 19.759 46.0563 20.2473C45.692 21.365 45.9678 22.3401 46.33 23.3975C47.5073 26.8393 46.7586 29.9775 44.5369 32.778C44.0027 33.4469 43.6716 34.2548 43.583 35.106C43.1322 38.6483 43.8607 41.9634 45.2674 45.2142C45.9718 46.8406 46.4185 48.5554 46.2555 50.4271C46.0764 52.4797 48.8294 54.7414 50.697 54.273C51.9306 53.9654 53.0355 52.2324 52.8362 51.0041C52.7557 50.5156 52.3734 50.5879 52.0997 50.4935C50.1255 49.8059 48.3887 48.7766 47.2336 46.9853C45.1849 43.8109 45.5874 38.5216 49.564 35.9282C50.1496 35.5483 51.0773 35.297 51.2484 34.7863C51.4376 34.2214 50.4797 33.7811 50.1154 33.178C49.3755 31.9849 49.0096 30.5979 49.0649 29.1955C49.079 28.5923 48.9683 28.132 48.5075 27.6816C47.1531 26.3568 47.0263 24.9395 47.956 23.2427C48.5819 22.1028 49.5197 21.164 50.053 19.9678C52.3029 21.0755 53.4118 23.9343 51.3752 26.0613C51.2464 26.196 51.1478 26.7508 50.7232 26.3287C50.4213 26.0311 50.3589 25.8301 50.703 25.4381C51.8421 24.1373 51.8662 22.8246 50.8821 21.7691C50.5944 21.4635 50.3971 21.2685 50.0611 21.7691C49.56 22.515 48.9522 23.1905 48.5658 24.0127C48.0084 25.2028 48.1211 26.206 49.1052 27.0926C49.7652 27.6857 49.8618 28.339 49.8397 29.1372C49.7934 30.9204 50.4716 32.406 51.6509 33.747C52.2546 34.4265 52.7155 34.1149 53.287 33.8756C53.3172 33.4736 52.9368 33.4253 52.7416 33.2504C51.2404 31.9014 50.9908 30.1042 50.8741 28.2466C50.8459 27.8063 51.1538 27.5731 51.4275 27.3459C54.3798 24.8912 53.6412 21.7651 51.2142 19.6763C50.7896 19.3104 49.7471 19.0571 50.3348 18.3495C50.7594 17.8408 51.3289 18.6771 51.7435 19.0249C53.277 20.2855 54.2651 21.8395 54.2429 23.9122C54.2268 25.4984 53.5084 26.7267 52.3673 27.7319C51.9407 28.1058 51.7254 28.4456 51.7817 28.9944C51.9447 30.6027 52.4357 32.0301 53.8123 33.0554C53.9284 33.168 54.081 33.2356 54.2426 33.2459C54.4042 33.2562 54.5641 33.2086 54.6937 33.1117C56.2876 32.1648 57.2234 30.7897 57.4568 28.9341C57.4859 28.7721 57.4737 28.6055 57.4213 28.4494C57.3689 28.2934 57.278 28.1531 57.1569 28.0415C53.9109 24.7002 55.223 20.5227 58.7669 18.3917C58.9158 18.3012 59.1855 17.865 59.4431 18.3354C59.6443 18.6912 59.7087 18.9566 59.2298 19.2059C58.4864 19.6001 57.8444 20.1609 57.3542 20.8443C55.6053 23.2427 56.0662 25.6331 57.9579 27.6073C58.4187 28.0898 58.4369 28.4637 58.3604 29.0025C57.9176 31.8612 56.1588 33.6022 53.5929 34.6939C51.9004 35.4136 50.2804 36.2418 48.9643 37.5788C48.2216 38.3116 47.651 39.1999 47.2934 40.1797C46.9359 41.1594 46.8004 42.2062 46.8966 43.2446C46.9928 44.283 47.3185 45.2871 47.85 46.1846C48.3816 47.0821 49.1058 47.8506 49.9705 48.4348C50.8632 49.0814 51.8725 49.5496 52.9429 49.8139C53.6613 49.9748 53.8163 50.2964 53.7801 50.9679C53.6372 53.6317 51.9689 55.3787 49.6083 55.1897C47.7508 55.0429 46.7486 53.7402 46 52.2284C45.5565 51.4143 45.3377 50.4971 45.366 49.5707C45.4365 48.0649 44.8669 46.6134 44.2672 45.2443C42.9873 42.3192 42.3494 39.2996 42.5607 36.1092C42.5748 35.884 42.5607 35.6568 42.5607 35.2548C41.5545 36.2238 41.2767 37.3194 41.2184 38.4714C41.1926 39.0707 41.2647 39.6703 41.4317 40.2465C41.5424 40.6486 41.478 40.7451 41.1178 40.8657C40.6489 41.0245 40.5945 40.7069 40.5321 40.4234C40.0632 38.2924 40.4013 36.3404 41.8 34.5933C42.9249 33.1961 44.1948 31.9256 45.038 30.2931C46.1891 28.0676 46.2455 25.8341 45.3942 23.5443C45.0139 22.5109 44.6456 21.548 45.1064 20.4021C45.3077 19.9115 45.4506 19.0873 44.9736 18.7093C44.5349 18.3595 43.8728 18.7455 43.3737 18.9888C43.2033 19.0765 43.0149 19.1235 42.8232 19.1263C42.6315 19.1291 42.4418 19.0875 42.2689 19.0048C40.7314 18.4017 39.1818 18.1384 37.6161 18.9204C37.4672 18.9948 37.2659 19.031 37.1774 19.1496C36.3442 20.2774 35.0422 20.583 33.8408 21.0293C33.237 21.2504 33.3135 21.4917 33.4504 21.9923C33.6194 22.5954 33.8891 22.3943 34.2412 22.2576C35.4487 21.8053 36.6562 21.95 37.8234 22.3984C38.3126 22.5963 38.7239 22.9481 38.9952 23.4004C39.2664 23.8527 39.3828 24.381 39.3267 24.9053C39.2381 25.8924 38.5459 26.5136 37.4149 26.791C36.3684 27.0504 35.3622 26.8433 34.3459 26.7046C34.1446 26.6785 33.9333 26.391 33.8146 26.787C33.6959 27.1831 33.9998 27.1207 34.2171 27.1891C35.5307 27.5906 36.9221 27.6679 38.2722 27.4143C38.5638 27.3178 38.8764 27.3032 39.1758 27.372Z" fill="black"/>
<path d="M76.3609 42.7991C76.3609 32.9603 76.3643 23.1201 76.371 13.2786C76.371 12.9469 76.1395 12.3981 76.5722 12.3096C77.176 12.185 77.826 12.2955 78.4539 12.3337C78.4981 12.3337 78.5545 12.5589 78.5625 12.6815C78.5806 12.9489 78.5625 13.2163 78.5625 13.4857C78.5625 33.032 78.5585 52.5782 78.5505 72.1245C78.5505 72.5266 78.808 73.1458 78.3492 73.2925C77.7618 73.4384 77.1476 73.4384 76.5601 73.2925C76.1577 73.2101 76.3589 72.7156 76.3589 72.414C76.3468 67.3599 76.3468 62.3058 76.3589 57.2517L76.3609 42.7991Z" fill="#D42B1E"/>
<path d="M284.595 42.9524C284.595 33.1759 284.609 23.3994 284.573 13.6229C284.573 12.7022 284.806 12.4589 285.722 12.4629C286.6 12.4629 286.831 12.664 286.829 13.5727C286.798 33.1927 286.787 52.8126 286.795 72.4326C286.795 72.7824 287.054 73.3514 286.521 73.4579C285.932 73.5707 285.325 73.5522 284.744 73.4036C284.43 73.3212 284.601 72.8005 284.601 72.4829C284.593 62.6387 284.591 52.7952 284.595 42.9524Z" fill="#0039A5"/>
<path d="M105.34 27.1616C104.287 29.5881 103.167 31.9242 102.438 34.3989C102.341 34.7286 102.293 35.1207 101.754 35.1066C101.214 35.0925 101.237 34.6804 101.138 34.3507C100.452 32.093 99.4696 29.9459 98.6647 27.7305C98.6448 27.6584 98.5981 27.5966 98.5341 27.5578C98.4702 27.5189 98.3938 27.5059 98.3205 27.5214C98.1193 27.7607 98.2239 28.0662 98.2219 28.3417C98.2099 30.0143 98.2219 31.6889 98.2099 33.3676C98.2099 33.9386 98.1535 34.4773 99.0028 34.3346C99.2463 34.2924 99.367 34.4351 99.3569 34.6864C99.3469 34.9377 99.2865 35.0885 99.0309 35.0885C98.1917 35.0885 97.3546 35.1026 96.5174 35.0885C96.4584 35.0893 96.4 35.0772 96.3463 35.0529C96.2926 35.0287 96.2448 34.993 96.2065 34.9483C96.1681 34.9037 96.14 34.8511 96.1241 34.7944C96.1083 34.7377 96.1052 34.6781 96.1149 34.6201C96.125 34.2502 96.4208 34.3044 96.6281 34.3286C97.1594 34.3929 97.3103 34.1878 97.3022 33.6611C97.2767 31.4202 97.2767 29.178 97.3022 26.9344C97.3022 26.4137 97.1694 26.2026 96.6381 26.271C96.4127 26.3011 96.131 26.3051 96.1229 25.9654C96.1229 25.5492 96.451 25.6377 96.7025 25.6136C96.7347 25.6136 96.7689 25.6136 96.8032 25.6136C99.2322 25.503 99.206 25.511 100.023 27.825C100.609 29.4835 101.277 31.116 101.993 32.9816C102.879 30.6777 103.716 28.5929 104.471 26.48C104.694 25.8548 104.921 25.5151 105.644 25.6095C106.212 25.6511 106.782 25.6565 107.35 25.6256C107.552 25.6256 107.765 25.6256 107.791 25.9051C107.821 26.2267 107.622 26.3212 107.354 26.285C106.716 26.1986 106.658 26.5625 106.662 27.0671C106.68 29.2423 106.684 31.4175 106.662 33.5928C106.662 34.1376 106.781 34.4231 107.379 34.3366C107.646 34.2964 107.827 34.3849 107.813 34.7105C107.799 35.0362 107.644 35.1126 107.364 35.1126C106.461 35.1126 105.553 35.1126 104.65 35.1126C104.38 35.1126 104.187 34.99 104.191 34.7105C104.195 34.4311 104.41 34.3085 104.674 34.3426C105.187 34.411 105.368 34.2341 105.36 33.6933C105.324 31.51 105.34 29.3308 105.34 27.1616Z" fill="#010101"/>
<path d="M236.115 31.6784C236.115 32.2131 236.133 32.7499 236.115 33.2867C236.089 33.8898 236.063 34.4688 236.962 34.3381C237.198 34.3039 237.329 34.4487 237.296 34.706C237.296 34.8075 237.256 34.9048 237.184 34.977C237.113 35.0491 237.016 35.0904 236.914 35.092C236.008 35.1081 235.103 35.1041 234.201 35.092C233.924 35.092 233.922 34.8729 233.908 34.6658C233.891 34.3984 234.03 34.2878 234.268 34.328C234.92 34.4346 234.95 34.0587 234.942 33.5621C234.918 32.2915 234.922 31.019 234.942 29.7424C234.942 29.2659 234.952 28.8538 234.282 28.9623C234.05 29.0005 233.906 28.904 233.91 28.6346C233.914 28.3653 234.099 28.2989 234.312 28.3351C235.012 28.4557 234.942 28.0014 234.948 27.551C234.954 27.1007 234.884 26.6323 235.051 26.1679C235.475 24.9737 237.035 24.3586 238.114 24.9959C238.588 25.2793 238.76 25.7176 238.741 26.2724C238.723 26.7791 238.401 26.7429 238.055 26.767C237.665 26.7951 237.48 26.6564 237.548 26.2624C237.653 25.6593 237.329 25.3497 236.793 25.3919C236.19 25.4401 235.958 25.995 236.006 26.4855C236.075 26.943 236.115 27.4043 236.125 27.8667C236.125 28.2165 236.296 28.3411 236.622 28.3291C236.858 28.3291 237.091 28.3291 237.327 28.3291C239.114 28.3291 239.114 28.3291 239.23 26.6102C239.287 25.794 239.715 25.1788 240.47 24.9637C241.263 24.7365 242.138 24.642 242.869 25.1969C243.008 25.3198 243.116 25.473 243.186 25.6445C243.255 25.8161 243.285 26.0013 243.271 26.186C243.271 26.5077 243.271 26.8092 242.817 26.761C242.513 26.7308 242.142 26.8796 242.167 26.2946C242.195 25.6352 241.74 25.3336 241.126 25.406C240.48 25.4824 240.251 25.9468 240.299 26.5619C240.358 26.8896 240.387 27.2221 240.386 27.5551C240.319 28.1582 240.514 28.4155 241.154 28.3431C241.392 28.317 241.824 28.1421 241.814 28.6688C241.814 29.1091 241.432 28.9824 241.211 28.9543C240.53 28.8699 240.355 29.1553 240.382 29.8007C240.43 31.037 240.42 32.2775 240.382 33.5138C240.365 34.0808 240.452 34.4225 241.132 34.3301C241.358 34.2979 241.7 34.2094 241.724 34.6457C241.748 35.0819 241.448 35.1 241.12 35.098C240.349 35.098 239.579 35.098 238.808 35.098C238.52 35.098 238.176 35.1784 238.17 34.6959C238.17 34.2617 238.472 34.314 238.721 34.3321C239.148 34.3622 239.222 34.131 239.22 33.7812C239.22 32.374 239.22 30.9667 239.22 29.5594C239.22 29.4931 239.247 29.4026 239.22 29.3584C238.488 28.4618 237.504 29.1835 236.659 28.9724C236.196 28.8558 236.111 29.1634 236.121 29.5574C236.129 30.2731 236.115 30.9747 236.115 31.6784Z" fill="#010101"/>
<path d="M183.634 47.3373C184.268 48.4812 184.874 49.5487 185.457 50.6323C185.641 50.972 185.804 51.2676 186.262 51.2012C186.518 51.165 186.597 51.3379 186.592 51.5792C186.588 51.8204 186.476 51.9089 186.24 51.9612C185.196 52.2004 184.608 51.939 184.119 50.9439C183.604 49.8945 183.008 48.8933 182.413 47.8881C182.066 47.3071 181.588 47.3534 181.127 47.4438C180.591 47.5464 180.887 48.0469 180.859 48.3706C180.811 48.9355 180.849 49.5085 180.845 50.0774C180.841 50.6464 180.674 51.358 181.688 51.2073C181.928 51.1711 182.01 51.3902 182.008 51.6093C182.008 51.8727 181.851 51.9511 181.622 51.9511H178.804C178.603 51.9511 178.402 51.931 178.378 51.6516C178.354 51.3721 178.492 51.157 178.78 51.1972C179.609 51.3218 179.585 50.8253 179.585 50.2403C179.563 48.1635 179.569 46.0888 179.585 44.0081C179.585 43.5075 179.623 43.0351 178.887 43.1316C178.651 43.1617 178.402 43.1436 178.398 42.7978C178.394 42.452 178.653 42.4601 178.887 42.4601C180.362 42.4601 181.841 42.3877 183.314 42.4822C184.89 42.5827 185.554 43.208 185.669 44.4202C185.806 45.9984 185.2 46.8809 183.634 47.3373Z" fill="#010101"/>
<path d="M207.493 37.6832C206.893 37.7496 206.287 37.6675 205.726 37.444C204.557 36.9394 204.277 35.7834 205.122 34.8426C205.432 34.4968 205.348 34.0565 205.444 33.7791C205.847 32.6191 205.024 31.8069 204.943 30.8379C204.76 28.6968 206.286 27.6796 208.739 28.2686C209.449 28.4395 210.121 28.7893 210.86 28.3651C210.896 28.3438 210.936 28.3308 210.977 28.3272C211.018 28.3237 211.06 28.3296 211.099 28.3445C211.138 28.3594 211.173 28.383 211.201 28.4134C211.229 28.4438 211.25 28.4802 211.262 28.5199C211.333 28.7652 211.262 29.0627 211.045 29.123C210.143 29.3944 210.24 30.084 210.202 30.7937C210.149 31.7848 209.308 32.4241 208.089 32.5005C207.686 32.5266 207.284 32.5125 206.881 32.5005C206.764 32.4815 206.644 32.5086 206.547 32.5761C206.449 32.6435 206.381 32.7461 206.358 32.8623C206.304 33.1418 206.513 33.2644 206.761 33.3589C207.405 33.5941 208.075 33.5218 208.739 33.5298C209.946 33.5439 210.572 33.9761 210.838 34.9753C211.073 35.8598 210.62 36.7585 209.63 37.257C208.974 37.6022 208.232 37.7502 207.493 37.6832Z" fill="#010101"/>
<path d="M230.984 34.2579C230.545 32.0465 230.394 31.8455 229.197 31.8455C226.278 31.8455 226.278 31.8455 225.775 34.2861C225.934 34.2914 226.093 34.3062 226.25 34.3303C226.472 34.3786 226.828 34.1534 226.854 34.6138C226.88 35.0742 226.596 35.1023 226.27 35.1043H224.258C224.012 35.1043 223.783 35.0923 223.757 34.7626C223.735 34.4731 223.833 34.3062 224.141 34.3283C224.683 34.3705 224.701 33.89 224.805 33.5925C225.671 31.1137 226.818 28.7374 227.504 26.1923C227.657 25.6234 228.005 25.5711 228.472 25.6193C228.897 25.6636 229.295 25.4887 229.527 26.1843C230.378 28.7394 231.358 31.2504 232.29 33.7795C232.394 34.0629 232.465 34.3665 232.875 34.3323C233.197 34.3042 233.278 34.5012 233.246 34.7786C233.217 35.1164 232.972 35.1043 232.734 35.1043C232.064 35.1043 231.392 35.1043 230.722 35.1043C230.396 35.1043 229.989 35.1626 230.004 34.652C230.018 34.1413 230.442 34.3987 230.69 34.3263C230.798 34.2961 230.895 34.278 230.984 34.2579Z" fill="#010101"/>
<path d="M169.056 45.7794C169.958 45.2748 170.741 44.9149 171.65 45.0999C172.838 45.3411 173.293 45.904 173.329 47.3113C173.357 48.3828 173.345 49.4544 173.329 50.5279C173.329 50.93 173.329 51.2718 173.894 51.1994C174.154 51.1672 174.349 51.2637 174.357 51.5814C174.369 52.0015 174.079 51.9633 173.81 51.9633C173.073 51.9633 172.335 51.9633 171.596 51.9633C171.345 51.9633 171.013 52.0458 170.992 51.6417C170.964 51.2899 171.194 51.1773 171.508 51.1974C171.822 51.2175 172.029 51.133 172.029 50.7692C172.029 49.5046 172.055 48.2401 172.053 46.9776C172.053 46.1493 171.449 45.8377 170.797 45.892C170.055 45.9523 169.161 46.1232 169.087 47.0982C168.994 48.3044 169.072 49.5107 169.058 50.7169C169.058 51.129 169.26 51.2356 169.618 51.2054C169.924 51.1813 170.143 51.2557 170.103 51.6437C170.067 51.9854 169.827 51.9694 169.594 51.9714C168.789 51.9714 167.984 51.9714 167.179 51.9714C166.937 51.9714 166.702 51.9714 166.706 51.6216C166.706 51.322 166.867 51.1672 167.139 51.2094C167.919 51.3321 167.899 50.8536 167.897 50.3068C167.881 47.9948 167.873 45.6829 167.897 43.375C167.897 42.804 167.781 42.4723 167.161 42.4844C166.917 42.4844 166.686 42.4964 166.7 42.1386C166.714 41.7807 166.984 41.8491 167.203 41.829C169.056 41.6601 169.056 41.6581 169.056 43.5338V45.7794Z" fill="#020202"/>
<path d="M120.237 45.6806C120.752 45.4659 121.278 45.2814 121.815 45.1277C123.376 44.7699 124.431 45.6223 124.455 47.2125C124.455 48.2499 124.455 49.2872 124.455 50.3246C124.455 50.791 124.352 51.3177 125.125 51.1951C125.367 51.1569 125.489 51.2775 125.487 51.5389C125.485 51.8002 125.369 51.963 125.073 51.961C124.234 51.961 123.396 51.961 122.559 51.961C122.336 51.961 122.157 51.9088 122.129 51.6575C122.1 51.4062 122.225 51.171 122.521 51.2031C123.288 51.2815 123.294 50.8151 123.282 50.2603C123.258 49.2892 123.282 48.3182 123.282 47.3492C123.282 46.4988 122.926 45.9239 122.036 45.8575C121.03 45.7831 120.225 46.4807 120.203 47.4115C120.181 48.3424 120.203 49.2209 120.203 50.1235C120.203 50.6563 120.001 51.3439 120.971 51.2071C121.183 51.177 121.235 51.3539 121.231 51.5409C121.227 51.7278 121.193 51.9429 120.919 51.9429C120.05 51.9429 119.178 51.9429 118.303 51.9429C118.037 51.9429 117.993 51.752 117.985 51.5409C117.975 51.2856 118.094 51.1569 118.341 51.1931C118.975 51.2896 119.027 50.9398 119.023 50.4291C119.003 48.0529 119.007 45.6766 119.023 43.3003C119.023 42.8178 119.011 42.4137 118.365 42.466C118.132 42.4841 117.985 42.3956 117.993 42.1283C118.001 41.8609 118.178 41.8106 118.396 41.8167C118.429 41.8197 118.463 41.8197 118.496 41.8167C120.199 41.6558 120.199 41.6558 120.199 43.3646C120.199 44.0663 120.199 44.7719 120.199 45.4715C120.205 45.5422 120.218 45.6121 120.237 45.6806Z" fill="#020202"/>
<path d="M196.709 51.6459C196.732 52.0704 196.732 52.4959 196.709 52.9205C196.61 53.7709 196.733 54.376 197.818 54.1769C198.045 54.1347 198.282 54.1448 198.299 54.5046C198.315 54.8645 198.117 54.9389 197.807 54.9369C196.87 54.9268 195.932 54.9369 194.99 54.9369C194.759 54.9369 194.509 54.9369 194.501 54.5971C194.501 54.2936 194.64 54.1508 194.922 54.183C195.525 54.2533 195.552 53.9076 195.55 53.4492C195.536 51.2083 195.536 48.9674 195.55 46.7265C195.55 46.2701 195.531 45.9223 194.932 46.0088C194.66 46.049 194.509 45.9304 194.497 45.6167C194.477 45.1926 194.789 45.1503 195.014 45.2428C195.578 45.474 196.423 44.6397 196.775 45.7293C196.813 45.8499 197.117 45.6288 197.29 45.5383C199.504 44.3884 201.329 45.4579 201.404 47.9307C201.436 49.0062 201.446 50.1019 200.746 50.9885C199.655 52.3515 198.238 52.2812 196.709 51.6459Z" fill="#020202"/>
<path d="M137.226 47.2772C137.226 46.7444 137.141 46.1936 137.24 45.6789C137.767 42.9428 139.878 41.7325 142.625 42.5427C142.841 42.605 143.014 42.8061 143.277 42.7216C144.485 42.3336 144.485 42.3377 144.485 43.5439C144.485 44.0807 144.485 44.6154 144.485 45.1522C144.485 45.5442 144.513 45.8719 143.937 45.8578C143.448 45.8458 143.436 45.6045 143.408 45.2286C143.295 43.7952 142.943 43.3127 141.979 43.1619C140.383 42.9126 139.387 43.4012 138.906 44.724C138.303 46.3785 138.395 48.0813 138.792 49.7499C139.071 50.9381 139.941 51.3824 141.355 51.2879C142.45 51.2155 143.181 50.6546 143.273 49.4986C143.34 48.6643 143.805 48.795 144.261 48.8513C144.865 48.9277 144.595 49.4243 144.535 49.7117C144.384 50.4274 144.161 51.1009 143.422 51.507C140.202 53.2822 137.184 51.5412 137.184 47.8883V47.2852L137.226 47.2772Z" fill="#020202"/>
<path d="M212.977 45.8523C213.397 45.4669 213.92 45.2102 214.482 45.1125C215.909 44.7969 217.15 45.597 217.46 47.0364C217.635 47.8484 217.654 48.6859 217.519 49.5052C217.165 51.6724 215.104 52.7218 213.154 51.7166C212.793 51.5276 212.56 51.3326 212.266 51.795C212.181 51.9032 212.058 51.9744 211.922 51.9939C211.786 52.0134 211.647 51.9796 211.536 51.8996C211.24 51.7267 211.485 51.4975 211.536 51.2964C211.718 50.5881 211.803 49.8584 211.789 49.1272C211.775 47.3179 211.789 45.5086 211.789 43.7153C211.789 43.0941 211.956 42.3663 210.912 42.4709C210.729 42.489 210.618 42.3462 210.622 42.1452C210.619 42.1038 210.624 42.0623 210.639 42.0233C210.653 41.9844 210.676 41.9492 210.706 41.92C210.735 41.8909 210.771 41.8686 210.81 41.8547C210.849 41.8408 210.891 41.8356 210.932 41.8396C210.998 41.8396 211.067 41.8396 211.133 41.8396C212.979 41.6547 212.979 41.6547 212.979 43.5263L212.977 45.8523Z" fill="#010101"/>
<path d="M175.058 25.62C176.052 25.7205 177.284 25.5416 178.518 25.4913C179.083 25.4692 179.405 25.5536 179.339 26.2331C179.329 26.6982 179.355 27.1633 179.417 27.6243C179.437 27.944 179.433 28.2274 178.973 28.2114C178.57 28.2114 178.333 28.139 178.369 27.6645C178.471 26.6312 177.924 26.3578 176.96 26.3699C174.559 26.398 174.555 26.3699 174.599 28.7823C174.599 29.1402 174.42 29.7292 175.091 29.6106C175.594 29.5221 176.471 30.1413 176.537 29.0075C176.56 28.6416 176.719 28.5632 177.039 28.5692C177.399 28.5692 177.487 28.7702 177.483 29.0819C177.483 29.8177 177.469 30.5535 177.483 31.2933C177.483 31.6672 177.361 31.8381 176.964 31.8401C176.568 31.8421 176.507 31.6391 176.548 31.3335C176.709 30.0669 175.743 30.6439 175.225 30.5454C174.42 30.3966 174.599 30.9998 174.593 31.438C174.593 32.1055 174.638 32.7789 174.579 33.4484C174.517 34.1581 174.769 34.3571 175.471 34.3571C175.861 34.3571 176.662 33.9289 176.652 34.7149C176.642 35.501 175.857 35.0426 175.445 35.0788C174.581 35.1572 173.706 35.105 172.829 35.1009C172.533 35.1009 172.187 35.1432 172.132 34.721C172.066 34.2043 172.472 34.3068 172.736 34.333C173.277 34.3873 173.318 34.0957 173.316 33.6716C173.301 31.43 173.293 29.1884 173.316 26.9488C173.316 26.4422 173.207 26.205 172.663 26.2754C172.398 26.3115 172.088 26.3095 172.134 25.8934C172.172 25.5436 172.462 25.624 172.678 25.62C173.408 25.6139 174.11 25.62 175.058 25.62Z" fill="#020202"/>
<path d="M218.819 31.7659C218.819 32.2986 218.831 32.8354 218.819 33.3742C218.807 33.913 218.718 34.4859 219.586 34.3432C219.635 34.3316 219.687 34.3314 219.737 34.3427C219.786 34.3541 219.833 34.3766 219.873 34.4086C219.913 34.4405 219.944 34.4811 219.966 34.5273C219.988 34.5734 219.999 34.6239 219.998 34.6749C220.012 34.9664 219.827 35.1031 219.561 35.1051C218.724 35.1172 217.889 35.1051 217.052 35.1051C216.782 35.1051 216.613 35.0388 216.605 34.7171C216.597 34.3954 216.742 34.2869 217.024 34.3291C217.627 34.4196 217.652 34.0657 217.644 33.6134C217.625 32.5439 217.613 31.4723 217.644 30.3968C217.67 29.5142 217.352 28.9895 216.408 28.9654C215.498 28.9413 214.597 29.5364 214.571 30.3023C214.518 31.4362 214.556 32.574 214.552 33.72C214.552 34.1944 214.786 34.3733 215.247 34.3231C215.49 34.301 215.736 34.3231 215.702 34.6809C215.704 34.7395 215.693 34.7977 215.67 34.8516C215.647 34.9056 215.613 34.9538 215.569 34.9931C215.526 35.0323 215.474 35.0616 215.418 35.0789C215.362 35.0962 215.303 35.101 215.245 35.093C214.408 35.093 213.57 35.093 212.735 35.093C212.423 35.093 212.345 34.9222 212.333 34.6508C212.321 34.3794 212.476 34.2849 212.705 34.3211C213.363 34.4236 213.381 34.0336 213.373 33.5451C213.352 32.2745 213.352 31.0012 213.373 29.7253C213.373 29.2288 213.353 28.8488 212.701 28.9493C212.464 28.9875 212.331 28.8709 212.337 28.6116C212.337 28.4005 212.463 28.2758 212.643 28.3281C213.279 28.5111 214.082 27.8577 214.581 28.7302C214.719 28.9694 214.891 28.7302 214.983 28.6739C215.609 28.1773 216.333 28.1552 217.076 28.1874C218.153 28.2356 218.797 28.879 218.823 29.9465C218.831 30.5616 218.819 31.1627 218.819 31.7659Z" fill="#020202"/>
<path d="M119.905 31.7945C119.905 32.2951 119.915 32.7997 119.905 33.2983C119.889 33.8813 119.81 34.4804 120.728 34.3416C120.965 34.3055 121.066 34.5045 121.058 34.7437C121.059 34.7945 121.048 34.8449 121.027 34.8913C121.007 34.9377 120.976 34.9791 120.938 35.0127C120.9 35.0462 120.855 35.0712 120.806 35.0858C120.757 35.1005 120.706 35.1045 120.656 35.0975C119.818 35.1136 118.981 35.0976 118.144 35.1156C117.86 35.1156 117.713 35.0111 117.697 34.7136C117.677 34.3758 117.884 34.3115 118.142 34.3376C118.746 34.416 118.766 34.0481 118.76 33.6018C118.741 32.5672 118.741 31.5305 118.76 30.4918C118.774 29.6635 118.559 29.0483 117.591 28.98C116.623 28.9116 115.687 29.5288 115.63 30.4274C115.562 31.5271 115.604 32.6389 115.616 33.7365C115.616 34.1949 115.89 34.3798 116.343 34.3396C116.584 34.3155 116.82 34.3195 116.798 34.6854C116.801 34.7442 116.792 34.803 116.77 34.8577C116.748 34.9124 116.714 34.9616 116.671 35.0018C116.628 35.0421 116.577 35.0725 116.521 35.0907C116.465 35.109 116.405 35.1148 116.347 35.1076C115.51 35.1197 114.673 35.1076 113.835 35.1076C113.562 35.1076 113.401 35.0252 113.395 34.7055C113.389 34.3859 113.576 34.3034 113.835 34.3316C114.459 34.416 114.439 34.022 114.439 33.5918C114.427 32.287 114.421 30.9783 114.439 29.6796C114.439 29.2071 114.381 28.8895 113.799 28.9679C113.598 28.996 113.397 28.9377 113.397 28.6583C113.387 28.2803 113.697 28.2783 113.878 28.3527C114.447 28.5819 115.286 27.7798 115.651 28.8111C115.805 28.8049 115.955 28.7614 116.089 28.6844C116.651 28.2281 117.297 28.1818 117.983 28.1979C119.289 28.2281 119.881 28.801 119.901 30.0857C119.911 30.6566 119.905 31.2256 119.905 31.7945Z" fill="#020202"/>
<path d="M248.341 31.7963C248.341 32.2989 248.341 32.8015 248.341 33.3041C248.341 33.8469 248.234 34.4379 249.106 34.3334C249.349 34.3052 249.468 34.4701 249.472 34.7033C249.476 34.9365 249.311 35.1235 249.106 35.0792C248.484 34.9405 247.697 35.5416 247.236 34.645C247.093 34.3635 246.886 34.5666 246.745 34.6711C246.172 35.0993 245.516 35.1235 244.839 35.1094C243.652 35.0833 243.121 34.6752 242.96 33.6298C242.799 32.5844 243.29 31.6696 244.286 31.36C244.984 31.1192 245.724 31.0281 246.459 31.0927C247.021 31.163 247.206 31.0364 247.182 30.4393C247.148 29.5668 246.846 28.9013 245.948 28.7646C245.119 28.64 244.501 29.0079 244.415 29.9286C244.36 30.5056 243.946 30.2664 243.662 30.2986C243.274 30.3448 243.229 30.0674 243.26 29.7779C243.274 29.6121 243.308 29.4487 243.362 29.2914C243.672 28.3666 244.882 27.9746 246.711 28.2017C247.717 28.3264 248.301 28.9214 248.343 29.8884C248.361 30.5237 248.339 31.161 248.341 31.7963Z" fill="#020202"/>
<path d="M208.795 48.215C208.795 48.8503 208.795 49.4856 208.795 50.1209C208.795 50.6737 208.636 51.3271 209.58 51.2125C209.791 51.1864 209.861 51.3693 209.835 51.5503C209.817 51.6689 209.753 51.8759 209.692 51.882C209.05 51.9564 208.284 52.2318 207.817 51.7433C207.501 51.4176 207.384 51.4879 207.121 51.6367C206.597 51.9407 205.999 52.0919 205.394 52.073C204.078 52.0267 203.365 51.3352 203.343 50.0224C203.325 48.9187 203.331 47.811 203.343 46.7113C203.343 46.2811 203.365 45.9071 202.739 45.9855C202.399 46.0277 202.283 45.7704 202.319 45.4568C202.361 45.0788 202.663 45.2296 202.862 45.2155C204.524 45.103 204.524 45.105 204.524 46.7656C204.524 47.7707 204.504 48.7759 204.524 49.7811C204.545 50.7863 205.028 51.303 205.869 51.2849C206.893 51.2628 207.595 50.6717 207.624 49.757C207.65 48.8885 207.64 48.018 207.624 47.1435C207.614 46.5987 207.881 45.8609 206.841 45.9755C206.569 46.0056 206.587 45.7322 206.575 45.5332C206.563 45.3342 206.67 45.2336 206.865 45.2196C206.898 45.2217 206.932 45.2217 206.966 45.2196C208.545 44.9361 208.777 45.1351 208.777 46.7193L208.795 48.215Z" fill="#020202"/>
<path d="M155.857 52.0696C153.241 52.1057 152.426 50.608 152.752 48.2257C153.112 45.6002 154.764 44.5487 157.016 45.2101C158.167 45.5479 159.105 47.4497 158.642 48.479C158.505 48.7826 158.256 48.6801 158.038 48.6801C156.966 48.6901 155.891 48.7404 154.818 48.668C154.034 48.6137 153.965 48.9474 154.056 49.5787C154.257 50.9176 155.074 51.6594 156.169 51.388C156.716 51.2574 157.175 50.9518 157.288 50.3668C157.427 49.631 157.982 49.7456 158.362 49.9004C158.966 50.1476 158.485 50.6161 158.348 50.9056C157.998 51.6775 157.054 52.0676 155.857 52.0696Z" fill="#020202"/>
<path d="M196.831 31.8467C196.563 31.818 196.293 31.822 196.026 31.8588C195.521 31.9855 194.838 31.4688 194.518 32.1704C194.283 32.6851 194.943 34.0843 195.468 34.3376C196.201 34.6914 196.895 34.6472 197.467 34.0159C197.651 33.8266 197.789 33.5966 197.869 33.3445C198.032 32.6831 198.565 32.9746 198.839 33.0469C199.28 33.1655 199.107 33.5797 198.93 33.8611C198.778 34.1189 198.585 34.3498 198.358 34.5447C197.245 35.4493 195.943 35.2523 194.752 34.9086C193.629 34.5869 193.255 33.5656 193.235 32.4659C193.216 31.5412 193.247 30.6445 193.589 29.7238C194.072 28.4251 196.042 27.8983 197.573 28.3165C198.618 28.608 199.328 29.9992 199.183 31.318C199.143 31.7 198.992 31.8467 198.622 31.8407C198.038 31.8367 197.434 31.8447 196.831 31.8467Z" fill="#020202"/>
<path d="M158.635 35.1038C156.478 35.1038 155.639 34.1851 155.645 31.8329C155.645 29.4205 156.735 28.2142 158.864 28.1921C161.481 28.1559 162.02 29.4687 162.002 31.5696C161.988 33.5136 161.515 35.2626 158.635 35.1038Z" fill="#020202"/>
<path d="M126.391 48.7721C126.361 45.3544 128.788 44.6689 130.798 45.2298C131.923 45.5434 132.768 47.3346 132.374 48.4303C132.237 48.8103 131.951 48.6876 131.716 48.6916C130.71 48.7057 129.703 48.7439 128.697 48.6916C127.868 48.6394 127.572 48.7861 127.816 49.7169C128.134 50.9433 128.588 51.4881 129.613 51.4459C130.277 51.4177 130.788 51.1081 131.007 50.499C131.144 50.119 131.209 49.7994 131.706 49.8677C131.923 49.8979 132.235 49.7813 132.275 50.113C132.302 50.2933 132.289 50.4775 132.236 50.652C132.183 50.8265 132.092 50.9871 131.969 51.1222C130.951 52.238 129.657 52.1978 128.347 51.9424C127.19 51.7153 126.638 50.893 126.5 49.7612C126.465 49.4335 126.429 49.1018 126.391 48.7721Z" fill="#020202"/>
<path d="M148.483 33.8558C149.057 32.3902 149.556 31.0573 150.103 29.7445C150.321 29.2218 150.355 28.9183 149.653 28.9705C149.425 28.9886 149.168 29.0208 149.17 28.6489C149.172 28.2769 149.441 28.3433 149.661 28.3393C150.196 28.3393 150.733 28.3393 151.271 28.3393C151.45 28.3393 151.695 28.2589 151.756 28.5403C151.804 28.7594 151.756 28.9263 151.488 28.9725C151.017 29.055 151.023 29.4972 150.884 29.8169C149.989 32.0042 149.262 34.2619 148.23 36.3929C147.717 37.4503 146.99 38.2324 145.664 38.0615C145.408 38.0273 144.935 38.2183 145.018 37.7197C145.076 37.3598 145.1 36.7909 145.805 36.9698C146.567 37.1709 147.191 36.9497 147.554 36.1898C147.671 35.9929 147.739 35.7707 147.753 35.542C147.767 35.3132 147.725 35.0845 147.632 34.875C146.91 33.1642 146.288 31.4091 145.62 29.6721C145.541 29.526 145.474 29.3742 145.418 29.2178C145.346 28.8921 144.652 29.0067 144.889 28.5323C145.09 28.1181 145.547 28.3734 145.883 28.3453C146.382 28.3011 146.889 28.3312 147.391 28.3352C147.592 28.3352 147.793 28.3051 147.825 28.6026C147.857 28.9504 147.638 29.0047 147.383 28.9665C146.69 28.8861 146.688 29.1876 146.9 29.7184C147.435 31.0452 147.924 32.3821 148.483 33.8558Z" fill="#010101"/>
<path d="M191.078 48.6985C190.81 48.6802 190.541 48.6802 190.273 48.6985C189.796 48.7668 189.093 48.411 188.89 48.8895C188.636 49.4926 188.89 50.2143 189.282 50.7772C189.945 51.7542 191.546 51.6557 192.021 50.6103C192.205 50.2083 192.257 49.7579 192.867 49.8504C193.068 49.8806 193.287 49.8504 193.317 50.1198C193.345 50.3538 193.312 50.5909 193.223 50.8088C193.133 51.0268 192.99 51.2186 192.806 51.3662C191.756 52.2588 190.516 52.1845 189.29 51.907C188.157 51.6497 187.713 50.7611 187.554 49.7057C187.022 46.1614 189.047 44.5229 191.808 45.2105C192.967 45.4999 193.887 47.3917 193.46 48.4633C193.333 48.7869 193.09 48.6804 192.883 48.6864C192.283 48.7065 191.681 48.6985 191.078 48.6985Z" fill="#020202"/>
<path d="M182.667 35.1048C180.42 35.1048 179.564 34.1961 179.57 31.8199C179.57 29.4074 180.665 28.2012 182.822 28.2012C185.048 28.2012 185.956 29.1581 185.95 31.4881C185.944 34.0393 184.978 35.1048 182.667 35.1048Z" fill="#020202"/>
<path d="M102.74 48.4652C102.838 52.0678 100.109 52.5824 97.7668 51.732C97.4999 51.6344 97.2605 51.4737 97.0692 51.2637C96.8779 51.0536 96.7402 50.8005 96.668 50.5258C96.3043 49.4489 96.2881 48.2852 96.6217 47.1986C97.1047 45.6366 98.5174 44.8123 100.206 45.0817C102.108 45.3833 102.746 46.2337 102.74 48.4652Z" fill="#020202"/>
<path d="M45.1708 26.6713C45.211 29.3009 43.6132 30.9876 41.7738 32.5014C40.7454 33.3538 39.6929 34.1761 38.7994 35.1732C37.5517 36.5684 37.5175 38.1727 38.0367 39.8634C38.1514 40.2374 38.5177 40.6977 37.8153 40.8807C37.1915 41.0415 37.2398 40.4887 37.119 40.1509C35.8954 36.6951 37.767 34.5218 40.2544 32.5939C41.2212 31.8824 42.1126 31.074 42.9149 30.1814C44.4403 28.4103 44.6194 26.4944 43.7802 24.3996C43.6978 24.1455 43.599 23.897 43.4844 23.6557C43.3153 23.3582 43.3435 23.2034 43.6675 23.0305C44.0499 22.8295 44.1948 22.9802 44.3497 23.2979C44.861 24.351 45.1409 25.5012 45.1708 26.6713Z" fill="#020202"/>
<path d="M147.476 51.2829C148.281 51.2829 148.884 51.293 149.476 51.2829C150.068 51.2728 150.533 51.102 150.438 50.3521C150.386 49.9279 150.593 49.7389 151.022 49.761C151.543 49.7852 151.456 50.0907 151.424 50.4586C151.283 51.9624 151.297 51.9644 149.738 51.9644C148.768 51.9644 147.798 51.9745 146.828 51.9644C146.544 51.9644 146.166 52.1273 145.993 51.8217C145.791 51.4679 146.156 51.2186 146.335 50.9632C147.367 49.4555 148.409 47.9477 149.446 46.452C149.553 46.2951 149.647 46.1263 149.804 45.8488C149.108 45.8488 148.55 45.8247 147.993 45.8488C147.361 45.881 146.89 46.1222 146.961 46.8741C146.993 47.228 146.916 47.431 146.486 47.429C146.055 47.427 146.031 47.2018 146.009 46.8641C145.892 45.2075 145.884 45.2075 147.492 45.2075C148.597 45.2075 149.705 45.2075 150.804 45.2075C151.006 45.2075 151.307 45.0688 151.426 45.3543C151.531 45.6036 151.311 45.7805 151.181 45.9674L147.476 51.2829Z" fill="#030303"/>
<path d="M128.997 35.1025C127.991 35.1286 127.029 35.0864 126.618 33.9385C126.484 33.5605 126.351 33.1042 126.953 33.0097C127.355 32.9453 127.834 32.8669 127.826 33.5706C127.818 34.2742 128.377 34.4712 128.913 34.5014C129.492 34.5356 130.16 34.5014 130.507 33.9345C130.853 33.3675 130.822 32.8187 130.104 32.5272C129.484 32.2839 128.846 32.0889 128.22 31.8597C127.178 31.4798 126.586 30.7279 126.661 29.8956C126.745 28.9648 127.421 28.3335 128.605 28.2189C129.329 28.1506 130.082 28.0702 130.792 28.3416C131.354 28.5567 131.799 28.8844 131.72 29.588C131.692 29.8293 131.821 30.1911 131.372 30.1328C131.066 30.0946 130.68 30.352 130.527 29.7307C130.297 28.804 129.05 28.4562 128.297 29.0211C127.752 29.4232 127.864 30.358 128.544 30.6696C129.118 30.933 129.74 31.0918 130.337 31.3069C131.545 31.7431 132.056 32.487 131.873 33.5444C131.718 34.4391 130.867 35.0462 129.7 35.0864C129.466 35.1105 129.233 35.1045 128.997 35.1025Z" fill="#030303"/>
<path d="M263.588 35.1056C262.985 35.1358 262.248 35.1418 261.66 34.5809C261.282 34.2211 261.258 33.7547 261.318 33.2842C261.371 32.8821 261.721 33.0249 261.956 32.9947C262.318 32.9505 262.487 33.0611 262.506 33.4772C262.505 33.7317 262.601 33.977 262.774 34.1636C262.947 34.3501 263.185 34.4641 263.439 34.4824C264.043 34.5749 264.659 34.5025 265.104 34.0803C265.625 33.5777 265.349 32.6731 264.601 32.4037C263.852 32.1343 263.003 31.9654 262.262 31.5573C261.56 31.1713 261.445 30.5803 261.457 29.8726C261.448 29.5716 261.536 29.2756 261.707 29.0281C261.879 28.7806 262.126 28.5946 262.411 28.4975C263.441 28.0713 264.5 28.1256 265.55 28.3709C265.798 28.4283 266.021 28.5608 266.189 28.7501C266.358 28.9395 266.464 29.1764 266.492 29.4283C266.534 29.6957 266.657 30.1018 266.202 30.138C265.866 30.1641 265.365 30.4033 265.299 29.7359C265.24 29.1227 264.782 28.8895 264.252 28.8533C263.578 28.8091 262.844 28.8533 262.669 29.6776C262.502 30.4436 263.071 30.723 263.691 30.912C264.093 31.0406 264.528 31.1311 264.931 31.2859C266.301 31.8106 266.758 32.5464 266.506 33.7768C266.337 34.6111 265.472 35.1237 264.224 35.1298L263.588 35.1056Z" fill="#020202"/>
<path d="M164.682 35.1046C164.247 35.1046 163.813 35.1046 163.378 35.1046C163.32 35.1105 163.261 35.1041 163.205 35.0858C163.149 35.0674 163.098 35.0376 163.054 34.9981C163.011 34.9587 162.976 34.9106 162.953 34.8569C162.929 34.8032 162.917 34.7451 162.917 34.6864C162.883 34.3246 163.141 34.3105 163.374 34.3346C164.074 34.413 164.109 33.9969 164.098 33.4661C164.074 32.3303 164.098 31.1944 164.098 30.0585C164.098 29.4695 164.269 28.7699 163.251 28.9669C163.21 28.9764 163.168 28.9762 163.127 28.9663C163.086 28.9564 163.048 28.9371 163.016 28.91C162.984 28.8828 162.959 28.8486 162.942 28.8099C162.926 28.7713 162.918 28.7294 162.921 28.6875C162.905 28.4141 163.068 28.3135 163.289 28.3477C164.229 28.4925 164.094 27.8532 164.094 27.2882C164.094 25.296 165.01 24.534 166.99 24.8758C167.634 24.9843 167.976 25.4166 168.091 26.0157C168.149 26.3112 168.276 26.7394 167.741 26.7676C167.373 26.7877 166.888 26.9324 166.936 26.2428C166.954 26.1263 166.943 26.0072 166.906 25.8954C166.868 25.7836 166.805 25.6823 166.721 25.5999C166.636 25.5174 166.534 25.4562 166.421 25.4211C166.308 25.3861 166.189 25.3784 166.073 25.3985C165.537 25.4467 165.044 25.7222 165.125 26.4318C165.185 26.9585 165.235 27.4853 165.282 28.012C165.332 28.605 165.783 28.2693 166.051 28.3377C166.252 28.3919 166.54 28.2854 166.554 28.6513C166.568 29.0172 166.302 29.0132 166.077 28.977C165.376 28.8644 165.248 29.1981 165.272 29.8213C165.314 31.0557 165.306 32.2941 165.272 33.5305C165.26 34.0793 165.314 34.4532 166.006 34.3346C166.252 34.2964 166.572 34.2562 166.552 34.6905C166.533 35.0624 166.274 35.0925 165.99 35.1046C165.553 35.1086 165.119 35.1046 164.682 35.1046Z" fill="#020202"/>
<path d="M105.531 51.9625H104.227C103.95 51.9625 103.674 51.9766 103.684 51.5725C103.684 51.2549 103.885 51.1704 104.149 51.1986C104.773 51.283 104.857 50.9473 104.847 50.4306C104.821 49.1942 104.827 47.9578 104.847 46.7235C104.847 46.2751 104.847 45.9193 104.231 45.9957C103.94 46.0339 103.71 45.9454 103.682 45.5816C103.65 45.1413 103.96 45.1795 104.209 45.2177C104.789 45.2941 104.893 44.9905 104.845 44.512C104.834 44.3111 104.834 44.1098 104.845 43.9089C104.845 42.0996 106.487 41.0823 108.111 41.8985C108.344 41.9966 108.542 42.162 108.68 42.3733C108.818 42.5846 108.89 42.8323 108.886 43.0847C108.886 43.4506 108.806 43.6697 108.393 43.6255C108.097 43.5933 107.687 43.7782 107.709 43.1952C107.739 42.4635 107.274 42.3006 106.652 42.3629C105.98 42.4293 105.87 42.8897 105.9 43.4385C105.951 43.7665 105.977 44.0977 105.978 44.4296C105.918 45.0428 106.127 45.282 106.757 45.2137C106.992 45.1875 107.415 45.0126 107.423 45.5313C107.423 45.9515 107.141 46.0379 106.819 45.9816C106.033 45.8489 105.964 46.2751 105.988 46.9044C106.031 48.0382 106.024 49.1761 105.988 50.31C105.97 50.901 106.043 51.3031 106.779 51.1865C107.067 51.1423 107.323 51.2287 107.323 51.5986C107.323 52.0268 106.994 51.9384 106.745 51.9464C106.334 51.9726 105.934 51.9625 105.531 51.9625Z" fill="#020202"/>
<path d="M33.443 37.4534C33.3202 34.6268 35.2743 33.3341 37.3451 32.1359C38.5264 31.4524 39.7983 30.9136 40.7864 29.9245C41.9697 28.7484 42.5594 27.3794 42.1951 25.6786C42.1448 25.4474 41.8309 24.9991 42.4708 24.9347C42.9739 24.8825 43.0745 25.1257 43.145 25.556C43.5475 27.6608 42.5413 29.8662 40.5429 31.2192C39.1644 32.154 37.653 32.8778 36.3168 33.8709C34.6183 35.1274 34.1313 36.7618 34.5398 38.7843C34.6283 39.2205 35.4253 40.0247 34.3385 40.1694C33.5919 40.2699 33.7891 39.3914 33.6603 38.925C33.5523 38.4404 33.4797 37.9485 33.443 37.4534Z" fill="#020202"/>
<path d="M41.2972 27.0832C40.9329 29.0594 39.5443 30.2415 37.6587 30.9351C36.7873 31.2548 35.8736 31.4518 34.9882 31.7393C31.9192 32.7143 30.921 34.4854 31.6435 37.5935C31.7179 37.9111 32.046 38.3373 31.3557 38.5203C30.6191 38.7213 30.7781 38.1443 30.6996 37.8347C29.8142 34.399 31.2269 31.9262 34.6138 30.9391C35.4752 30.6878 36.3405 30.4506 37.1918 30.1752C38.8178 29.6485 39.9911 28.6694 40.3533 26.9164C40.4278 26.5545 40.5546 26.3132 41.0134 26.3776C41.4723 26.4419 41.2891 26.7173 41.2972 27.0832Z" fill="#020202"/>
<path d="M161.353 48.6535C161.326 49.2231 161.375 49.7937 161.5 50.3502C161.701 51.0298 162.103 51.4479 162.862 51.4379C163.558 51.4379 164.16 51.2047 164.325 50.4849C164.49 49.7652 164.977 49.6808 165.418 49.9039C166.048 50.2176 165.565 50.7242 165.364 51.072C164.836 51.9726 163.379 52.3164 161.894 51.9565C160.846 51.7032 160.151 50.8428 160.067 49.6305C160.025 49.0624 160.025 48.4919 160.067 47.9237C160.252 45.5756 162.683 44.305 164.772 45.4087C165.275 45.6741 165.484 46.0983 165.617 46.5868C165.678 46.814 165.835 47.2 165.436 47.2241C165.118 47.2442 164.597 47.5799 164.468 46.9125C164.287 45.9757 163.679 45.654 162.788 45.7445C161.818 45.843 161.562 46.5667 161.427 47.3528C161.376 47.7844 161.351 48.2188 161.353 48.6535Z" fill="#030303"/>
<path d="M189.207 32.0106C189.207 32.4449 189.238 32.8831 189.207 33.3154C189.145 34.017 189.258 34.4975 190.141 34.3326C190.395 34.2844 190.723 34.2824 190.745 34.6724C190.761 35.1106 190.427 35.1046 190.115 35.1046C189.244 35.1046 188.372 35.1046 187.499 35.1046C187.187 35.1046 186.873 35.1046 186.855 34.6643C186.837 34.2241 187.191 34.3226 187.422 34.3326C188.012 34.3568 188.048 34.0049 188.042 33.5546C188.028 32.3162 188.02 31.0758 188.042 29.8374C188.052 29.2986 187.996 28.8966 187.308 28.9709C187.064 28.9971 186.829 28.9709 186.849 28.6191C186.869 28.2673 187.191 28.2914 187.364 28.3497C187.986 28.5508 188.801 27.815 189.296 28.78C189.393 28.9689 189.676 28.5367 189.9 28.4322C190.538 28.1386 191.18 28.012 191.791 28.4181C192.295 28.7518 192.355 29.2926 192.264 29.8535C192.204 30.2254 191.977 30.332 191.62 30.3119C191.314 30.2938 191.017 30.3521 191.017 29.8776C191.017 29.4032 190.781 29.0232 190.212 29.1378C189.642 29.2524 189.228 29.5841 189.193 30.2073C189.159 30.8305 189.193 31.4136 189.193 32.0167L189.207 32.0106Z" fill="#030303"/>
<path d="M228.568 48.9475C228.541 49.4267 228.582 49.9072 228.69 50.3748C228.892 51.0322 229.278 51.3901 229.964 51.4383C230.28 51.4824 230.601 51.4216 230.879 51.2655C231.157 51.1093 231.376 50.8663 231.502 50.5739C231.574 50.4251 231.612 50.2603 231.683 50.1115C231.9 49.6471 232.325 49.8542 232.631 49.8964C233.033 49.9547 232.832 50.2844 232.782 50.5317C232.58 51.3881 231.977 51.8103 231.16 51.957C228.916 52.3591 227.149 51.756 227.26 48.9414C227.276 48.5072 227.213 48.0669 227.272 47.6407C227.569 45.4575 230.246 44.2794 232.112 45.4836C232.546 45.765 232.715 46.1953 232.83 46.6436C232.892 46.8667 233.015 47.2467 232.582 47.2467C232.277 47.2467 231.8 47.5362 231.683 46.9652C231.468 45.9299 230.801 45.6102 229.839 45.7791C228.833 45.956 228.721 46.8084 228.58 47.5885C228.519 47.9423 228.568 48.3202 228.568 48.9475Z" fill="#030303"/>
<path d="M140.522 35.1055C140.053 35.1055 139.584 35.1055 139.113 35.1055C138.839 35.1055 138.664 35.003 138.624 34.7215C138.578 34.3918 138.775 34.2973 139.043 34.3295C139.737 34.418 139.789 34.0139 139.779 33.4751C139.755 32.2367 139.755 30.9983 139.779 29.7599C139.779 29.2412 139.697 28.9035 139.075 28.9698C138.829 28.998 138.584 28.9517 138.626 28.6059C138.668 28.2602 138.972 28.3004 139.167 28.3466C139.787 28.4974 140.506 27.9767 141.071 28.6944C141.222 28.8854 141.554 28.4371 141.834 28.3526C142.438 28.1657 143.073 27.9787 143.623 28.4833C144.045 28.8733 144.108 29.3538 143.983 29.9207C143.901 30.2967 143.719 30.3329 143.436 30.3047C143.152 30.2766 142.794 30.4474 142.764 29.9489C142.733 29.4503 142.574 28.996 141.924 29.1447C141.274 29.2935 140.83 29.776 140.888 30.4072C140.959 31.4383 140.974 32.4725 140.934 33.5052C140.924 34.1466 141.077 34.436 141.759 34.3436C142.023 34.3074 142.397 34.2129 142.377 34.7255C142.357 35.2382 142.005 35.1035 141.725 35.1115C141.325 35.1156 140.922 35.1055 140.522 35.1055Z" fill="#030303"/>
<path d="M220.786 46.5582C220.786 47.8609 220.796 49.1717 220.786 50.4664C220.786 50.9147 220.8 51.2705 221.404 51.1941C221.679 51.1559 221.834 51.2625 221.826 51.5821C221.818 51.9018 221.625 51.9621 221.369 51.9601C220.564 51.9601 219.759 51.9601 218.954 51.9601C218.737 51.9601 218.457 52.0305 218.419 51.6786C218.381 51.3268 218.56 51.166 218.886 51.1961C219.58 51.2625 219.613 50.8504 219.609 50.3196C219.59 48.0157 219.582 45.7118 219.609 43.4079C219.609 42.8048 219.514 42.4309 218.822 42.4711C218.62 42.4831 218.419 42.4711 218.419 42.1776C218.407 41.8318 218.62 41.8157 218.876 41.8197C218.942 41.8197 219.011 41.8197 219.077 41.8197C220.786 41.7514 220.786 41.7514 220.786 43.4582V46.5582Z" fill="#040404"/>
<path d="M257.176 31.9857C257.199 32.4244 257.199 32.8639 257.176 33.3025C257.094 34.0524 257.301 34.4645 258.15 34.3338C258.39 34.2977 258.714 34.2353 258.716 34.6756C258.716 35.0435 258.515 35.1119 258.201 35.1078C257.298 35.0998 256.394 35.0998 255.488 35.1078C255.176 35.1078 254.977 35.0355 254.973 34.6716C254.969 34.3077 255.204 34.3037 255.442 34.3298C255.983 34.3921 256.027 34.0805 256.021 33.6563C256.005 32.3858 256.009 31.1132 256.021 29.8366C256.021 29.3501 256.092 28.8555 255.337 28.9621C255.102 28.9963 254.967 28.8696 254.981 28.6103C254.997 28.3148 255.226 28.2846 255.403 28.3409C256.007 28.5319 256.782 27.8805 257.267 28.743C257.378 28.944 257.603 28.6485 257.736 28.552C257.982 28.3753 258.263 28.2543 258.561 28.1974C258.858 28.1404 259.165 28.1489 259.458 28.2223C260.4 28.4233 260.312 29.2013 260.282 29.911C260.255 30.5543 259.75 30.2286 259.448 30.291C259.147 30.3533 259.002 30.2186 259.008 29.911C259.008 29.4607 258.905 29.1209 258.35 29.1068C257.794 29.0928 257.47 29.4285 257.303 29.8889C257.035 30.6166 257.239 31.3685 257.176 31.9857Z" fill="#030303"/>
<path d="M113.398 48.2846C113.398 47.8825 113.398 47.4804 113.398 47.0783C113.398 46.5174 113.611 45.7957 112.573 45.9746C112.362 46.0108 112.259 45.7736 112.231 45.5726C112.199 45.3032 112.352 45.2248 112.585 45.2127C113.408 45.1705 113.621 44.6096 113.66 43.92C113.68 43.5541 113.704 43.2566 114.183 43.2445C114.787 43.2285 114.612 43.6909 114.571 43.9462C114.394 45.0378 114.873 45.3534 115.891 45.2348C116.173 45.2047 116.711 44.9473 116.777 45.5042C116.853 46.1556 116.288 45.9887 115.922 45.9988C114.587 46.035 114.587 46.0289 114.587 47.3779C114.587 48.1479 114.587 48.9158 114.587 49.6838C114.599 50.9202 114.869 51.1594 116.135 51.2097C116.435 51.2217 116.962 50.9222 117.016 51.5132C117.071 52.1043 116.539 51.9153 116.211 51.9776C116.05 52.0174 115.886 52.0482 115.72 52.0701C114.127 52.2028 113.507 51.6861 113.402 50.0919C113.364 49.4908 113.398 48.8857 113.398 48.2846Z" fill="#020202"/>
<path d="M136.01 35.1071C134.428 35.1071 134.086 34.7653 134.086 33.1751C134.086 32.1377 134.086 31.0984 134.086 30.061C134.086 29.4579 134.233 28.7784 133.227 28.9694C133.187 28.9809 133.144 28.9824 133.103 28.974C133.062 28.9655 133.024 28.9473 132.991 28.9208C132.959 28.8944 132.933 28.8605 132.917 28.822C132.9 28.7836 132.894 28.7417 132.897 28.7C132.877 28.4487 132.993 28.3522 133.227 28.2979C133.927 28.1592 134.195 27.6948 134.233 27.0073C134.249 26.6816 134.318 26.3478 134.811 26.3659C135.346 26.384 135.314 26.7499 135.259 27.0656C135.058 28.1592 135.559 28.4728 136.573 28.3482C136.821 28.318 137.338 28.0868 137.31 28.6819C137.288 29.1744 136.853 28.9493 136.604 28.9593C135.267 29.0116 135.267 28.9995 135.267 30.3827C135.267 31.2532 135.326 32.1277 135.253 32.9962C135.167 34.0014 135.714 34.2527 136.555 34.3411C136.891 34.3753 137.511 34.0114 137.531 34.6266C137.552 35.2418 136.91 35.0407 136.525 35.099C136.354 35.1144 136.182 35.1171 136.01 35.1071Z" fill="#030303"/>
<path d="M111.189 31.2888C111.189 31.9904 111.207 32.696 111.189 33.3977C111.169 33.9586 111.199 34.425 111.96 34.3305C112.161 34.3063 112.362 34.3043 112.379 34.6059C112.395 34.9075 112.282 35.0824 112 35.0884C111.097 35.1045 110.189 35.1004 109.287 35.0884C109.018 35.0884 108.992 34.8873 108.98 34.6702C108.969 34.6205 108.971 34.5687 108.986 34.5201C109.001 34.4715 109.029 34.4277 109.066 34.3931C109.104 34.3585 109.15 34.3344 109.2 34.323C109.249 34.3117 109.301 34.3136 109.35 34.3285C110.121 34.441 110.022 33.9264 110.02 33.4499C110.02 32.2437 110.02 31.0375 110.02 29.8312C110.02 29.3548 110.102 28.8482 109.34 28.9587C109.116 28.9909 108.961 28.8743 108.982 28.6049C109.002 28.3355 109.219 28.3436 109.412 28.3275C109.446 28.3275 109.481 28.3275 109.513 28.3275C111.193 28.1867 111.193 28.1867 111.193 29.8755L111.189 31.2888Z" fill="#050505"/>
<path d="M225.207 48.1541C225.207 48.7573 225.185 49.3604 225.207 49.9635C225.233 50.5183 224.889 51.3346 226.012 51.22C226.213 51.1999 226.233 51.411 226.237 51.5859C226.237 51.8311 226.135 51.9598 225.887 51.9598C225.052 51.9598 224.215 51.9598 223.38 51.9598C223.33 51.9672 223.28 51.9637 223.232 51.9495C223.185 51.9352 223.141 51.9106 223.103 51.8773C223.066 51.8441 223.037 51.8031 223.018 51.7572C222.998 51.7113 222.989 51.6617 222.991 51.612C222.969 51.3265 223.064 51.1476 223.376 51.1918C224.048 51.2883 224.036 50.8681 224.03 50.3977C224.012 49.3624 224.054 48.325 224.012 47.2917C223.99 46.7368 224.414 45.8462 223.195 45.9709C222.959 45.995 222.993 45.6773 222.993 45.4843C222.993 45.2913 223.13 45.2109 223.313 45.2109C223.814 45.2109 224.32 45.2109 224.819 45.2109C225.221 45.2109 225.205 45.4763 225.205 45.7537C225.205 46.5519 225.207 47.352 225.207 48.1541Z" fill="#050505"/>
<path d="M252.761 31.301C252.761 31.9041 252.761 32.5072 252.761 33.1104C252.761 33.7135 252.559 34.4653 253.62 34.3528C253.821 34.3327 253.877 34.5257 253.89 34.7026C253.897 34.7441 253.896 34.7866 253.887 34.8278C253.878 34.8689 253.861 34.9079 253.836 34.9423C253.812 34.9767 253.781 35.006 253.745 35.0283C253.709 35.0507 253.67 35.0657 253.628 35.0725C252.692 35.0986 251.756 35.1087 250.823 35.0946C250.565 35.0946 250.551 34.8534 250.547 34.6443C250.547 34.3648 250.726 34.3045 250.949 34.3347C251.628 34.4312 251.605 34.003 251.599 33.5305C251.585 32.262 251.587 30.9934 251.599 29.7229C251.599 29.2946 251.628 28.8966 250.996 28.971C250.738 29.0031 250.525 28.9468 250.555 28.6051C250.581 28.3096 250.794 28.3457 250.988 28.3357C251.022 28.3357 251.056 28.3357 251.088 28.3357C252.765 28.209 252.763 28.209 252.763 29.8998L252.761 31.301Z" fill="#050505"/>
<path d="M202.465 31.3124C202.465 31.9155 202.453 32.5186 202.465 33.1217C202.477 33.7248 202.209 34.4827 203.3 34.346C203.501 34.3219 203.58 34.5008 203.592 34.6798C203.599 34.7293 203.597 34.7799 203.583 34.8281C203.569 34.8764 203.546 34.9211 203.513 34.9593C203.481 34.9975 203.44 35.0282 203.395 35.0494C203.349 35.0705 203.3 35.0816 203.25 35.0818C202.345 35.0993 201.441 35.0993 200.537 35.0818C200.277 35.0818 200.257 34.8527 200.249 34.6436C200.237 34.3682 200.406 34.2857 200.629 34.3199C201.295 34.4184 201.297 34.0123 201.291 33.5298C201.273 32.2593 201.277 30.9887 201.291 29.7101C201.291 29.2819 201.322 28.8798 200.688 28.9562C200.428 28.9884 200.219 28.9321 200.249 28.5883C200.275 28.2928 200.49 28.331 200.684 28.3209H200.784C202.459 28.1963 202.459 28.1963 202.459 29.893L202.465 31.3124Z" fill="#050505"/>
<path d="M124.324 31.3512C124.324 31.9543 124.324 32.5574 124.324 33.1606C124.324 33.7637 124.107 34.5236 125.194 34.3668C125.381 34.3386 125.473 34.5095 125.481 34.6985C125.49 34.7484 125.488 34.7997 125.474 34.8485C125.46 34.8974 125.436 34.9426 125.403 34.981C125.37 35.0195 125.329 35.0501 125.283 35.0708C125.236 35.0914 125.186 35.1016 125.135 35.1006C124.234 35.1187 123.324 35.1207 122.431 35.1147C122.173 35.1147 122.125 34.9136 122.115 34.6965C122.105 34.6466 122.109 34.5951 122.125 34.5469C122.141 34.4988 122.169 34.4555 122.206 34.4212C122.244 34.387 122.289 34.3629 122.339 34.3512C122.388 34.3396 122.44 34.3408 122.489 34.3547C123.225 34.4593 123.185 33.9848 123.179 33.4923C123.167 32.2579 123.165 31.0235 123.179 29.7891C123.179 29.3127 123.179 28.9006 122.521 28.985C122.308 29.0131 122.119 28.9448 122.119 28.6714C122.119 28.398 122.304 28.3839 122.521 28.3477C124.113 28.0803 124.332 28.2613 124.332 29.8635L124.324 31.3512Z" fill="#030303"/>
<path d="M40.5772 20.3054C40.551 20.3637 40.5128 20.4783 40.4987 20.4763C39.5831 20.3014 39.6374 21.395 39.0075 21.6122C38.5728 21.7609 38.1864 21.7127 37.9087 21.393C37.631 21.0734 37.5404 20.5185 36.8803 20.6291C36.7334 20.6532 36.5523 20.3537 36.8401 20.1064C37.4539 19.5736 39.7843 19.4771 40.386 19.9918C40.4846 20.0823 40.6014 20.1406 40.5772 20.3054Z" fill="#070707"/>
<path d="M124.465 26.4272C124.423 26.98 124.147 27.3278 123.66 27.2937C123.44 27.2902 123.23 27.1996 123.077 27.0418C122.924 26.8841 122.84 26.672 122.844 26.4523C122.847 26.2327 122.938 26.0234 123.096 25.8705C123.254 25.7176 123.466 25.6337 123.686 25.6371C124.189 25.623 124.423 25.9849 124.465 26.4272Z" fill="#0B0B0B"/>
<path d="M111.355 26.4423C111.298 26.9368 111.047 27.3088 110.55 27.2927C110.441 27.2996 110.332 27.2832 110.231 27.2445C110.129 27.2058 110.037 27.1457 109.96 27.0682C109.884 26.9908 109.825 26.8979 109.788 26.7958C109.751 26.6937 109.736 26.5848 109.745 26.4765C109.745 25.9095 110.063 25.6623 110.523 25.6361C111.028 25.61 111.286 25.9638 111.355 26.4423Z" fill="#0A0A0A"/>
<path d="M252.102 27.3195C251.661 27.1968 251.297 27.028 251.297 26.463C251.297 25.8981 251.605 25.6428 252.102 25.6348C252.563 25.6348 252.83 25.9303 252.853 26.4027C252.879 26.9295 252.601 27.2109 252.102 27.3195Z" fill="#060606"/>
<path d="M224.543 42.5993C224.982 42.547 225.263 42.8707 225.289 43.3471C225.316 43.8236 225.088 44.1975 224.533 44.1915C224.044 44.1915 223.669 43.9462 223.653 43.4376C223.635 42.9632 223.877 42.6093 224.543 42.5993Z" fill="#0A0A0A"/>
<path d="M201.758 25.6172C202.318 25.6936 202.575 25.9911 202.563 26.5078C202.543 26.9762 202.275 27.2999 201.821 27.2918C201.366 27.2838 201.016 27.0224 201.016 26.4676C201.016 25.9127 201.336 25.7097 201.758 25.6172Z" fill="#060606"/>
<path d="M36.9059 50.4152C34.742 50.8158 32.5402 50.9736 30.3413 50.8856C29.7979 50.8675 29.653 51.0303 29.6832 51.543C29.753 52.5422 29.6537 53.5461 29.3894 54.5123C29.3411 54.6872 29.2827 54.8923 29.4337 54.9667C30.4258 55.4652 29.7979 55.9899 29.49 56.5247C29.0251 57.3289 28.5361 58.1189 29.4417 58.9874C29.8845 59.4116 29.657 59.7051 29.1117 59.8619C28.8583 59.9452 28.6308 60.0928 28.4516 60.2901C27.703 61.0943 27.5661 61.0943 26.8799 60.1977C26.7491 60.0288 26.7611 59.6971 26.4311 59.7715C25.9944 59.87 25.7791 60.1132 26.0749 60.5495C26.6464 61.3898 26.2138 61.42 25.4993 61.3114C25.1109 61.2511 24.6944 61.2109 24.3361 61.5446C24.0745 60.5656 24.4146 59.8278 25.0103 59.1985C25.276 58.9191 25.4128 58.6939 25.125 58.3743C24.7467 57.9722 24.5213 58.3542 24.32 58.5753C24.0484 58.8547 23.8189 59.1784 23.5432 59.5121C23.1287 59.1945 23.0904 58.6054 22.6316 58.3481C22.2291 58.1209 22.5994 57.9682 22.7302 57.8455C23.2025 57.4177 23.7931 57.1423 24.4247 57.0554C24.7547 57.0032 24.9077 56.9147 24.8855 56.573C24.8674 56.3116 24.801 56.0623 24.4971 56.1146C23.7284 56.2433 24.0604 55.61 24.0423 55.3748C24.0081 54.9224 24.4126 54.8983 24.7588 54.9727C25.3444 55.0873 25.924 55.226 26.57 55.3748C26.7088 53.2337 26.3949 51.153 26.0487 49.0823C25.8475 47.8399 25.922 47.6187 27.1334 47.3212C29.3652 46.7743 31.5809 46.1773 33.7745 45.5118C34.0804 45.4194 34.8612 44.963 34.4648 46.0144C34.4225 46.129 34.6419 46.3461 34.7485 46.511C35.2235 47.2387 35.6883 47.9544 35.5414 48.9054C35.4549 49.4723 35.8594 49.8201 36.2981 50.1116C36.4591 50.2784 36.932 49.9025 36.9059 50.4152Z" fill="#FEFEFE"/>
<path d="M52.7227 47.2214C50.9115 46.5419 49.7041 45.3879 49.4042 43.4982C49.0883 41.4737 49.7061 39.7126 51.2979 38.4059C53.7128 36.4196 54.059 36.4498 56.5041 38.424C59.3215 40.7057 59.4222 44.6984 56.6933 46.6404C56.5886 46.7148 56.4759 46.7751 56.2727 46.8997C56.2525 45.6392 55.2665 44.8652 55.0109 43.7635C54.9304 43.4137 54.6265 43.5906 54.4232 43.6308C53.2922 43.852 52.6744 44.6783 52.7066 45.8523C52.7167 46.2866 52.9562 46.7027 52.7227 47.2214Z" fill="#FEFEFE"/>
<path d="M31.2767 29.6406C28.5237 31.45 28.8919 31.6269 27.9944 33.3639C26.8191 32.421 25.7082 31.4259 24.8348 30.1915C24.6759 29.9663 24.5692 29.6225 24.1546 29.8075C23.4422 30.1271 23.1625 29.8196 22.9914 29.1139C22.77 28.3442 22.4349 27.6117 21.9973 26.9407C21.6371 26.3376 21.3936 26.5145 21.0736 26.9306C20.983 27.0719 20.8821 27.2063 20.7717 27.3327C20.3431 27.771 19.9184 28.352 19.4254 27.3749C19.3046 27.2135 19.1407 27.0895 18.9525 27.0171C18.2119 26.6331 18.1475 26.2009 18.8559 25.7526C19.3167 25.4631 19.4053 25.1655 19.1658 24.7815C18.88 24.3171 18.5621 24.7655 18.3608 24.8981C18.0328 25.0992 17.8537 25.1555 17.6987 24.7534C17.6504 24.6328 17.5136 24.5423 17.4834 24.4217C17.3989 24.0839 16.6281 24.2206 16.9219 23.704C17.1835 23.2396 17.7068 23.1129 18.23 23.1471C18.7352 23.1615 19.2202 23.348 19.6045 23.6758C19.9869 24.0317 20.1539 23.8105 20.4095 23.5693C20.8261 23.1672 20.3873 23.0767 20.1861 22.924C19.8983 22.7028 19.5824 22.5219 19.2785 22.3208C19.2785 22.2625 19.2382 22.1841 19.2644 22.152C20.2545 20.9156 20.6731 20.9457 21.6793 22.2706C21.8464 22.4917 21.8524 22.9843 22.3535 22.8134C22.7117 22.6928 22.8586 22.55 22.7318 22.0876C22.6413 21.7579 23.1343 21.973 23.3356 21.8564C23.6837 21.6554 23.7039 21.9348 23.7683 22.154C24.0017 22.9581 24.046 23.8005 23.7099 24.5664C23.3919 25.2902 23.7099 25.4992 24.2935 25.7827C26.685 26.95 29.0157 28.2376 31.2767 29.6406Z" fill="#FEFEFE"/>
<path d="M37.4961 13.6352C38.7539 13.8221 39.3979 14.6544 40.0459 15.6054C40.3719 14.8012 40.6858 14.0956 41.3157 13.5608C41.6337 13.2934 41.8148 13.2452 42.1388 13.5608C42.7083 14.1221 43.1175 14.8252 43.3241 15.5973C44.0486 14.7369 44.6262 13.8262 45.8296 13.6653C45.8759 14.375 45.5922 15.0083 45.4915 15.6657C45.4291 16.0778 45.1333 16.1522 44.753 16.1502C42.7083 16.1354 40.6644 16.1354 38.621 16.1502C38.2186 16.1502 37.9932 16.0356 37.9167 15.6255C37.7879 14.9781 37.647 14.3408 37.4961 13.6352Z" fill="#FCFCFC"/>
<path d="M41.6451 16.8002C42.6151 16.8002 43.5851 16.8002 44.5531 16.8002C44.7865 16.8002 45.1568 16.6635 45.1568 17.0897C45.1624 17.1573 45.1529 17.2252 45.1289 17.2887C45.1049 17.3521 45.067 17.4094 45.018 17.4564C44.9691 17.5034 44.9103 17.5389 44.8458 17.5603C44.7814 17.5817 44.7131 17.5885 44.6457 17.5802C42.6735 17.5802 40.7013 17.5802 38.7291 17.5802C38.6707 17.5868 38.6116 17.5805 38.5559 17.5618C38.5003 17.5431 38.4494 17.5125 38.4068 17.4721C38.3642 17.4317 38.331 17.3824 38.3095 17.3278C38.288 17.2732 38.2787 17.2146 38.2823 17.156C38.2602 16.7097 38.5842 16.8042 38.8277 16.8022C39.7735 16.7962 40.7093 16.8002 41.6451 16.8002Z" fill="#E9E9E9"/>
<path d="M29.939 23.002C31.2652 24.7832 33.0583 24.1579 34.7387 23.9911C36.0661 23.8495 37.4064 24.0865 38.6046 24.6746C37.9767 25.0566 37.5883 24.755 37.1959 24.7128C35.3645 24.5117 33.5473 24.4494 31.724 24.8495C30.5025 25.1209 29.8424 24.4293 29.939 23.002Z" fill="#F3F3F3"/>
<path d="M37.8352 25.5867C36.5473 26.2702 35.052 26.1697 34.4141 25.3153C35.5994 25.1082 36.6881 25.3233 37.8352 25.5867Z" fill="#F2F2F2"/>
<path d="M36.5275 47.4074C36.8004 47.7755 37.0543 48.1573 37.2882 48.5513C37.3949 48.7523 37.7289 48.9534 37.4351 49.2348C37.3479 49.3141 37.2403 49.3673 37.1243 49.3887C37.0084 49.41 36.8888 49.3985 36.7791 49.3554C36.7055 49.3391 36.6358 49.3083 36.5742 49.2649C36.5125 49.2215 36.4601 49.1664 36.4199 49.1027C36.3796 49.0389 36.3524 48.9679 36.3398 48.8936C36.3272 48.8193 36.3295 48.7433 36.3464 48.6699C36.4537 48.3301 36.4373 47.9634 36.3001 47.6346C36.2377 47.4235 36.3343 47.3652 36.5275 47.4074Z" fill="#EAEAEA"/>
<path d="M29.5058 61.3587C29.0752 61.2763 28.7693 61.3587 28.8377 61.0532C28.8841 60.8767 28.9845 60.7191 29.1248 60.6024C29.2651 60.4856 29.4384 60.4155 29.6205 60.4018C29.8218 60.3696 29.8741 60.5747 29.856 60.7496C29.8198 61.1095 29.7071 61.401 29.5058 61.3587Z" fill="#E2E2E2"/>
<path d="M39.5995 72.1966C39.1065 71.8447 38.8388 71.5492 39.0401 71.1612C39.1588 70.93 39.5532 70.9602 39.7424 71.1371C40.2636 71.5975 39.4405 71.694 39.5995 72.1966Z" fill="#DDDDDD"/>
<path d="M36.8092 66.5209C36.5979 66.1188 36.0042 66.2314 36.0626 65.6966C36.0827 65.5257 36.3081 65.2785 36.4651 65.3508C36.9098 65.5418 36.9561 65.9459 36.8092 66.5209Z" fill="#D3D3D3"/>
<path d="M14.6211 41.9464C14.77 41.6227 14.7096 41.1422 15.1886 41.1864C15.4261 41.2045 15.6233 41.5986 15.5307 41.8036C15.3617 42.1836 14.9793 41.9645 14.6211 41.9464Z" fill="#D3D3D3"/>
<path d="M21.4848 45.5662C21.3721 45.733 21.2533 46.0989 21.0823 46.121C20.9314 46.1418 20.7784 46.1024 20.6564 46.0113C20.5344 45.9203 20.4532 45.7849 20.4303 45.6345C20.4121 45.2867 20.8327 45.3611 21.034 45.2505C21.2352 45.14 21.4365 45.2385 21.4848 45.5662Z" fill="#EFEFEF"/>
<path d="M44.5664 70.1653C44.3209 70.4568 44.5081 70.9976 43.9627 70.9252C43.7775 70.9011 43.4495 70.6418 43.4696 70.5855C43.6206 70.1392 43.9888 70.0768 44.5664 70.1653Z" fill="#EDEDED"/>
<path d="M21.6094 59.8552C21.718 59.433 21.6979 59.0229 22.0119 58.9264C22.3258 58.8299 22.4767 59.1797 22.6156 59.5456L21.6094 59.8552Z" fill="#DBDBDB"/>
<path d="M36.3056 22.9453L36.9094 23.1082C36.9536 23.2851 36.9214 23.3856 36.7081 23.3092H34.4643L34.418 23.1906L35.1123 22.9674C35.5071 23.0453 35.914 23.0377 36.3056 22.9453Z" fill="#FCFCFC"/>
<path d="M18.3711 20.7229C18.8058 20.7048 19.16 20.5219 19.2868 20.8657C19.3192 20.9928 19.2999 21.1276 19.2332 21.2406C19.1665 21.3536 19.0576 21.4357 18.9306 21.4688C18.4778 21.511 18.6448 20.9943 18.3711 20.7229Z" fill="#DBDBDB"/>
<path d="M19.2725 28.3378C18.7875 28.2775 18.4091 28.5389 18.1676 28.1368C18.0811 27.9981 18.0731 27.6523 18.2683 27.6121C18.6889 27.5297 18.9203 27.8654 19.2725 28.3378Z" fill="#F1F1F1"/>
<path d="M17.1799 25.2648C16.7774 25.4055 16.4413 25.4216 16.22 25.0859C16.1988 25.041 16.1877 24.9922 16.1875 24.9426C16.1873 24.8931 16.1979 24.8441 16.2186 24.7991C16.2393 24.7541 16.2696 24.7142 16.3074 24.6821C16.3452 24.65 16.3895 24.6266 16.4373 24.6134C16.8599 24.5571 17.0129 24.9069 17.1799 25.2648Z" fill="#D7D7D7"/>
<path d="M17.8158 45.107C17.7433 45.4749 17.5723 45.8126 17.2241 45.8729C17.0229 45.9091 16.8216 45.505 16.882 45.3583C17.0631 44.9964 17.4253 44.9803 17.8158 45.107Z" fill="#D0D0D0"/>
<path d="M16.1094 38.2746C16.2179 38.1691 16.3481 38.0884 16.4909 38.0381C16.6337 37.9877 16.7857 37.969 16.9365 37.9831C16.9672 38.0478 16.9846 38.1179 16.9878 38.1894C16.9911 38.261 16.98 38.3324 16.9553 38.3996C16.9305 38.4668 16.8926 38.5284 16.8438 38.5808C16.795 38.6332 16.7362 38.6753 16.6708 38.7048C16.3931 38.8174 16.2583 38.4937 16.1094 38.2746Z" fill="#C7C7C7"/>
<path d="M25.0671 62.0239C25.222 62.0139 25.4696 62.0239 25.4333 62.2732C25.4092 62.4742 25.2321 62.6391 25.1114 62.82C24.9544 62.6612 24.729 62.5285 24.6586 62.3375C24.5539 62.0521 24.8477 62.0802 25.0671 62.0239Z" fill="#E2E2E2"/>
<path d="M36.9045 50.4138C36.7657 50.1967 36.4074 50.3676 36.3008 50.0801H37.6914C37.5847 50.6209 37.1822 50.3816 36.9045 50.4138Z" fill="#C9C9C9"/>
<path d="M35.7449 68.8926C36.1474 68.9348 36.2842 69.2082 36.4754 69.4515C36.2158 69.5781 35.9341 69.8274 35.7006 69.6143C35.5879 69.5138 35.7228 69.1338 35.7449 68.8926Z" fill="#E5E5E5"/>
<path d="M23.3649 56.057C23.0751 55.9444 22.7611 55.8921 22.7148 55.5504C22.7148 55.4921 22.9986 55.3091 23.1173 55.3393C23.4957 55.4398 23.3789 55.7635 23.3649 56.057Z" fill="#D5D5D5"/>
<path d="M23.3103 20.8849C23.2559 21.1744 23.1432 21.2287 23.0003 21.2247C22.8575 21.2206 22.7106 21.1503 22.7327 20.9995C22.7548 20.8487 22.8072 20.6477 23.0446 20.7301C23.139 20.771 23.2282 20.823 23.3103 20.8849Z" fill="#DCDCDC"/>
<path d="M36.7188 23.2997L36.92 23.0986C37.1615 23.0645 37.3647 23.0986 37.4352 23.3962C37.1856 23.4625 36.926 23.5449 36.7188 23.2997Z" fill="#CCCCCC"/>
<path d="M36.3106 22.9458C36.1341 23.062 35.9281 23.1256 35.7168 23.1292C35.5055 23.1328 35.2975 23.0761 35.1172 22.9659C35.5088 22.8728 35.916 22.866 36.3106 22.9458Z" fill="#FEFEFE"/>
<path d="M36.5283 47.4068L36.3009 47.634C36.1198 47.4691 35.9387 47.1837 36.1258 47.053C36.3573 46.8922 36.4217 47.242 36.5283 47.4068Z" fill="#818181"/>
<path d="M181.811 46.7693C181.058 46.9402 180.754 46.6407 180.843 45.8285C180.901 45.2321 180.901 44.6315 180.843 44.0352C180.779 43.3034 181.109 43.0702 181.777 43.1466C182.006 43.1707 182.238 43.1848 182.467 43.2109C183.922 43.3818 184.329 43.7236 184.387 44.8193C184.441 45.8687 183.735 46.5844 182.445 46.7713C182.234 46.7848 182.022 46.7841 181.811 46.7693Z" fill="#FBFBFB"/>
<path d="M207.749 37.0154C206.28 37.0154 205.566 36.2675 205.958 35.1196C206.015 34.9312 206.119 34.7608 206.262 34.625C206.497 34.424 209.053 34.5969 209.315 34.7858C209.931 35.2301 209.753 36.368 209.011 36.7962C208.612 37.0254 208.184 37.0274 207.749 37.0154Z" fill="#FDFDFD"/>
<path d="M209.085 30.4913C209.056 31.4422 208.529 31.9186 207.537 31.8985C206.515 31.8704 206.06 31.3256 206.1 30.1777C206.134 29.2247 206.615 28.7362 207.509 28.7422C208.529 28.7422 209.119 29.3996 209.085 30.4913Z" fill="#FBFBFB"/>
<path d="M228.314 26.7559C228.477 27.1579 228.556 27.3389 228.624 27.5238C229.027 28.6376 229.429 29.7513 229.856 30.9113H226.859C227.33 29.5664 227.785 28.2697 228.314 26.7559Z" fill="#FBFBFB"/>
<path d="M200.14 48.5007C200.165 49.0646 200.08 49.6281 199.888 50.1592C199.568 51.0398 198.852 51.4218 197.956 51.3132C196.916 51.1865 196.67 50.5432 196.706 49.6345C196.731 48.9711 196.706 48.3037 196.706 47.6382C196.706 46.619 197.298 45.9857 198.329 45.859C199.105 45.7625 199.779 46.2852 200.005 47.2221C200.079 47.6447 200.124 48.0719 200.14 48.5007Z" fill="#FDFDFD"/>
<path d="M212.97 48.6794C212.97 48.3115 212.984 47.9436 212.97 47.5777C212.918 46.5504 213.222 46.1704 214.379 45.9393C215.214 45.7664 215.804 46.1242 216.087 46.8942C216.502 48.0235 216.459 49.2696 215.969 50.3681C215.59 51.2668 214.872 51.5382 213.833 51.2829C212.936 51.0617 212.864 50.4365 212.972 49.6745C212.994 49.3432 212.994 49.0107 212.97 48.6794Z" fill="#FDFDFD"/>
<path d="M246.231 31.7287C246.918 31.594 247.238 31.8875 247.187 32.7057C247.135 33.7109 246.564 34.2979 245.465 34.3281C244.66 34.3482 244.153 33.8898 244.181 33.15C244.215 32.2936 244.984 31.7427 246.231 31.7287Z" fill="#FBFBFB"/>
<path d="M155.625 48.0466C155.592 48.0506 155.558 48.0506 155.524 48.0466C155.049 47.928 154.317 48.3783 154.13 47.7712C153.943 47.164 154.242 46.4423 154.828 46.0322C155.414 45.6221 156.082 45.5437 156.692 45.9598C157.301 46.376 157.362 47.0635 157.336 47.7491C157.323 48.0265 157.134 48.0466 156.921 48.0466H155.625Z" fill="#FCFCFC"/>
<path d="M194.465 31.1793C194.761 30.1741 194.706 29.1207 195.96 28.8593C196.532 28.7407 197.041 28.8272 197.409 29.2433C197.822 29.7057 197.896 30.3229 197.878 30.93C197.878 31.2276 197.62 31.1753 197.433 31.1773C196.469 31.1813 195.507 31.1793 194.465 31.1793Z" fill="#FDFDFD"/>
<path d="M156.964 31.6728C156.964 29.7448 157.302 29.1156 158.401 28.8341C158.819 28.7166 159.265 28.7656 159.647 28.9708C160.029 29.176 160.316 29.5212 160.448 29.9338C160.761 30.9876 160.799 32.1042 160.557 33.1765C160.355 34.045 159.808 34.4974 158.947 34.5476C158.085 34.5979 157.494 34.234 157.216 33.3675C157.027 32.8231 156.942 32.2484 156.964 31.6728Z" fill="#FDFDFD"/>
<path d="M127.77 48.0452C128.055 46.1193 128.589 45.5504 129.893 45.7393C130.651 45.8479 131.378 47.1587 131.078 47.8502C130.965 48.1136 130.76 48.0251 130.581 48.0412C130.402 48.0573 130.247 48.0412 130.08 48.0412L127.77 48.0452Z" fill="#FDFDFD"/>
<path d="M190.493 48.0458C190.393 48.0579 190.293 48.0579 190.193 48.0458C189.756 47.9352 189.016 48.3373 188.921 47.8065C188.792 47.0748 189.064 46.2384 189.857 45.8866C190.461 45.6172 191.161 45.569 191.706 46.1399C191.785 46.2479 191.848 46.3663 191.894 46.4917C192.511 47.71 192.316 48.0478 190.992 48.0478L190.493 48.0458Z" fill="#FBFBFB"/>
<path d="M184.659 31.827C184.604 32.2853 184.582 32.7518 184.487 33.2021C184.436 33.5679 184.258 33.9042 183.984 34.1522C183.71 34.4003 183.358 34.5443 182.988 34.5591C182.167 34.6395 181.517 34.3058 181.213 33.5539C180.713 32.3103 180.705 30.9236 181.189 29.6739C181.465 28.922 182.151 28.7451 182.811 28.7652C183.168 28.7688 183.513 28.8886 183.795 29.1063C184.078 29.324 184.281 29.6277 184.375 29.9714C184.577 30.5685 184.674 31.1966 184.659 31.827Z" fill="#FDFDFD"/>
<path d="M101.456 48.7402C101.563 49.2328 101.396 49.7173 101.299 50.1998C101.252 50.5327 101.089 50.8383 100.839 51.0634C100.589 51.2886 100.267 51.4191 99.931 51.4321C99.1099 51.5146 98.3794 51.3457 98.0554 50.4692C97.5744 49.256 97.5402 47.9116 97.9588 46.6756C98.2063 45.9579 98.798 45.7206 99.5446 45.7267C100.335 45.7267 100.911 46.0162 101.169 46.7781C101.408 47.4031 101.506 48.073 101.456 48.7402Z" fill="#FDFDFD"/>
<path d="M38.9017 20.6639C38.9042 20.6965 38.8999 20.7292 38.8891 20.76C38.8783 20.7908 38.8611 20.819 38.8388 20.8428C38.8165 20.8667 38.7894 20.8856 38.7593 20.8984C38.7293 20.9112 38.6969 20.9176 38.6642 20.9173C38.4811 20.9374 38.3181 20.877 38.3422 20.67C38.3569 20.6085 38.3858 20.5513 38.4268 20.5031C38.4677 20.4549 38.5194 20.417 38.5777 20.3925C38.7588 20.3463 38.8413 20.5152 38.9017 20.6639Z" fill="#E8E8E8"/>
</g>
<defs>
<clipPath id="clip0_1764_4448">
<rect width="300" height="87" fill="white"/>
</clipPath>
</defs>
</svg>
