<svg width="300" height="87" viewBox="0 0 300 87" fill="none" xmlns="http://www.w3.org/2000/svg">
<path d="M133.525 52.8105C133.645 52.8214 133.928 52.8095 134.026 52.8555C134.178 52.9272 134.282 53.2017 134.458 53.2327C135.441 53.4065 142.958 53.5443 143.603 53.2458C143.809 53.1501 144.038 52.9448 144.229 52.8123L144.367 52.8763C144.297 53.9922 144.252 55.0874 143.958 56.172C143.705 55.6107 143.599 54.8008 143.22 54.3488C142.098 53.7028 140.71 53.8899 139.46 53.9027L139.439 60.7509C139.444 61.6727 139.671 62.9812 139.326 63.8247C139.456 64.0205 139.639 64.3437 139.846 64.462C140.306 64.7264 141.047 64.6675 141.611 64.9679C140.586 65.2559 139.37 65.0657 138.303 65.0643C137.427 65.063 136.467 65.2811 135.632 64.9545C136.177 64.6189 137.202 64.742 137.579 64.373C138.264 63.7021 137.955 55.386 137.952 53.9039L137.085 53.8976C136.145 53.8982 134.691 53.7464 134.061 54.5939C133.789 54.9603 133.623 55.3386 133.293 55.6695C133.244 55.6422 133.015 55.5369 132.99 55.5011C132.908 55.3797 133.718 53.3697 133.547 52.8683L133.525 52.8105Z" fill="#4370A0"/>
<path d="M147.938 43.2051L148.406 43.2752L148.732 44.424C149.136 44.7277 149.451 44.7279 149.952 44.7608C152.063 44.8998 154.255 44.7935 156.373 44.7849C157.045 44.7821 158.416 44.9038 158.972 44.5438C159.405 44.2626 159.211 43.6727 159.605 43.3271L159.84 43.5277L159.859 51.2103L156.912 51.1954C157.479 50.7651 158.273 50.7128 158.763 50.2029C159.476 49.4615 159.21 47.3873 159.187 46.4087L158.753 46.2375L154.333 46.2434C154.326 47.4186 154.289 48.5988 154.439 49.7668L155.766 50.204L155.862 50.4419L155.706 50.5958C154.388 50.5437 152.895 50.7892 151.623 50.464C152.167 50.1755 152.743 50.017 153.303 49.7631C153.887 48.9383 153.669 47.2364 153.647 46.2364C152.264 46.2277 150.124 45.9594 148.853 46.4478C148.506 46.7804 148.496 47.4861 148.426 47.9451L148.15 48.0055C148.105 47.9371 148.007 47.8266 147.984 47.753C147.883 47.4408 148.048 46.522 148.054 46.1525C148.072 45.1684 148.03 44.1846 147.938 43.2051Z" fill="#4370A0"/>
<path d="M263.82 53.3223C265.298 53.1677 267.043 53.2041 268.522 53.3501C268.089 53.7299 267.676 53.8233 267.127 53.9469C266.999 54.7593 269.089 58.4084 269.617 59.3351L272.423 54.0906C272.149 53.8058 271.236 53.636 270.804 53.4179C272.103 53.0332 273.939 53.2585 275.305 53.3293C275.081 53.4875 274.824 53.6856 274.565 53.7783C274.263 53.8865 273.885 53.9091 273.635 54.1207C272.663 54.9378 272.429 56.475 271.456 57.2522C271.456 57.8417 270.706 58.7808 270.419 59.3397C269.856 60.4373 269.778 62.9001 270.166 64.0638C270.372 64.6865 271.656 64.6506 272.269 64.9584C271.215 65.2488 269.965 65.0631 268.868 65.0626C268.024 65.0623 267.171 65.2502 266.356 64.9607C266.914 64.6349 267.492 64.7313 268.015 64.4691C268.221 64.3662 268.361 64.2093 268.423 63.9815C268.533 63.573 268.479 63.0339 268.484 62.6085C268.493 61.9169 268.573 61.0678 268.419 60.3944C268.239 59.6146 267.714 58.8139 267.347 58.1019C266.816 57.0765 266.331 55.977 265.749 54.9868C265.578 54.6972 265.319 54.2032 265.079 53.9951C264.941 53.8766 264.172 53.7626 263.953 53.7064L263.82 53.3223Z" fill="#4370A0"/>
<path d="M258.916 53.0701C260.332 53.0161 261.705 53.2575 263.081 53.5602L263.352 56.1431L263.093 56.3373C262.684 56.0432 262.54 55.1986 262.164 54.7529C261.629 54.1198 260.76 53.7356 259.942 53.6718C258.41 53.5522 257.036 53.7781 255.848 54.8178C254.887 55.6587 254.348 57.0198 254.264 58.2735C254.154 59.913 254.369 61.7362 255.502 63.0166C256.417 64.0507 257.695 64.6919 259.076 64.773C259.666 64.8078 260.601 64.8083 261.068 64.3964C261.701 64.2442 262.329 63.6838 262.677 63.1428C262.906 62.7875 263.025 62.3974 263.387 62.1505L263.621 62.289C263.665 62.9193 263.287 64.1738 262.876 64.6698C262.574 65.0358 260.902 65.2276 260.342 65.2957C258.498 65.5197 256.139 65.1635 254.654 63.9844C253.449 63.029 252.643 61.7055 252.474 60.1671C252.285 58.4454 252.642 56.7446 253.761 55.3894C255.062 53.8134 256.955 53.2488 258.916 53.0701Z" fill="#4370A0"/>
<path d="M224.17 53.0669C225.609 52.9716 227.102 53.2271 228.486 53.5999L228.652 56.1399L228.451 56.3224C228.024 56.0703 227.79 55.0913 227.389 54.6443C226.805 53.9937 225.878 53.6994 225.027 53.6532C223.687 53.5803 222.224 53.8548 221.203 54.7898C220.089 55.8106 219.606 57.2373 219.554 58.7225C219.494 60.3713 219.897 62.0354 221.065 63.2617C221.965 64.2082 223.332 64.7513 224.626 64.7845C225.139 64.7976 225.968 64.774 226.356 64.4075C227.008 64.2323 227.596 63.7716 227.956 63.1973C228.185 62.8301 228.326 62.3996 228.704 62.1576L228.958 62.305C228.919 63.1471 228.587 63.891 228.241 64.6462C227.727 65.0669 226.487 65.1867 225.815 65.2701C223.868 65.5128 221.516 65.1909 219.944 63.9443C218.793 63.0314 217.942 61.6636 217.781 60.1875C217.583 58.3802 218.012 56.7083 219.174 55.2932C220.4 53.801 222.32 53.2411 224.17 53.0669Z" fill="#4370A0"/>
<path d="M177.02 53.3224L185.077 53.2637C185.162 53.8592 185.478 55.3525 185.159 55.7988C184.696 55.6223 184.585 54.754 184.217 54.3726C183.493 53.6214 181.041 53.8958 180.015 53.9023L180.006 58.5652C180.583 58.8653 182.619 58.643 183.312 58.503C183.474 57.8275 183.687 57.2557 184.002 56.6369C184.363 57.7348 184.107 59.4299 184.169 60.6207L183.944 60.8508C183.503 60.7084 183.547 59.8441 183.163 59.4619C182.824 59.124 180.599 59.2756 180.031 59.2784C180.032 59.8149 180.067 60.2792 179.766 60.7483C180.457 61.6406 179.564 63.2051 180.421 64.1717C181.15 64.5985 182.318 64.5123 183.153 64.4897C183.563 64.4787 184.354 64.4756 184.698 64.2925C185.31 63.9674 185.94 62.6097 186.47 62.0519C186.521 63.1085 186.041 64.1652 185.688 65.1425L179.49 65.0533C178.438 65.0587 177.343 65.2107 176.305 65.0131C176.844 64.6443 177.204 64.7006 177.795 64.5441C178.04 64.4791 178.212 64.3455 178.327 64.1197C178.664 63.4562 178.648 54.9657 178.372 54.2845C178.189 53.8342 177.54 53.826 177.124 53.6735L177.02 53.3224Z" fill="#4370A0"/>
<path d="M24.749 53.3033L32.7841 53.2598C32.9612 54.2162 33.087 55.2743 32.9968 56.2446C32.5851 55.6906 32.3855 54.8328 31.9151 54.3617C31.1739 53.6194 28.745 53.8968 27.7306 53.9043L27.7262 58.6272L31.0328 58.5337L31.441 57.1649L31.6691 57.0902L31.8595 57.2929C31.8092 58.5924 31.9798 59.9876 31.7959 61.2597C31.3976 60.7315 31.2395 60.21 31.0248 59.5975C30.3768 59.0296 28.5666 59.2803 27.7259 59.288L27.709 61.0569C27.706 61.9527 27.5097 63.4792 28.1472 64.1739C28.7415 64.5694 29.9034 64.5054 30.6211 64.4986C31.142 64.4939 31.9222 64.4958 32.3949 64.3036C32.948 64.0789 33.7095 62.5675 34.2057 62.0611C34.1827 63.0807 33.8169 64.219 33.3826 65.137L27.4983 65.0536C26.4189 65.0571 25.0138 65.308 24 64.9503C24.5593 64.657 25.1319 64.731 25.6538 64.4941C25.8981 64.3832 26.0312 64.2052 26.1138 63.9509C26.3669 63.1714 26.313 54.67 26.0372 54.1986C25.8244 53.8349 25.2451 53.7723 24.853 53.6787L24.749 53.3033Z" fill="#4370A0"/>
<path d="M109.342 53.3196L117.442 53.2598C117.498 53.8448 117.814 55.3077 117.541 55.7817C117.074 55.6973 116.884 54.7447 116.535 54.3834C115.79 53.6125 113.406 53.895 112.357 53.9017L112.35 57.3583C112.35 57.7125 112.271 58.3165 112.419 58.633C113.421 58.6386 114.512 58.7339 115.492 58.5088C115.851 58.2556 116.083 57.0906 116.268 56.6422C116.513 57.2054 116.449 57.7688 116.46 58.367C116.478 59.3441 116.557 60.3436 116.339 61.3038C116.02 60.7432 115.854 60.1623 115.62 59.565C114.953 59.0371 113.196 59.2793 112.358 59.2868C112.37 59.8752 112.473 60.6272 112.119 61.127C112.568 61.7152 112.269 62.6532 112.394 63.3545C112.434 63.581 112.546 64.0403 112.747 64.169C113.656 64.7516 115.924 64.5171 116.962 64.3078C117.557 63.8917 117.997 63.0982 118.388 62.5L118.63 62.4718L118.777 62.6692C118.667 63.5149 118.304 64.3453 118.017 65.1449L112.154 65.0526C111.034 65.0568 109.674 65.2905 108.605 64.9574C109.178 64.6402 109.706 64.7273 110.254 64.4997C110.54 64.3806 110.625 64.1844 110.732 63.9002C110.979 63.2456 110.827 62.0342 110.829 61.3267L110.831 56.6921C110.83 55.934 110.955 54.8711 110.655 54.175C110.344 53.8293 109.919 53.7908 109.485 53.7065L109.342 53.3196Z" fill="#4370A0"/>
<path d="M119.276 53.3233L122.261 53.286C123.211 54.8791 124.549 56.2974 125.779 57.6746L130.044 62.3737C130.062 59.7136 130.363 56.5688 129.711 53.9896C128.985 53.8389 128.427 53.7594 127.761 53.421C129.022 53.0262 130.965 53.2967 132.304 53.3068L132.451 53.5158C132.148 53.8891 131.548 53.7929 131.139 54.1225C130.693 55.0458 130.837 56.6291 130.829 57.6489L130.859 65.1802L130.32 65.2776C130.235 64.652 123.112 56.8377 122.007 55.5298L121.972 60.1525C121.977 61.4911 121.921 62.8973 122.24 64.207C122.736 64.6479 123.644 64.6413 124.295 64.9639C123.485 65.1898 122.539 65.0636 121.703 65.0615C120.84 65.0592 120.018 65.1582 119.156 65.0237C119.736 64.6686 120.323 64.5605 120.976 64.4044C121.376 62.1783 121.18 59.8044 121.195 57.5491C121.201 56.8075 121.384 55.1789 121.062 54.5585C120.705 53.8681 120.034 53.865 119.378 53.6658L119.276 53.3233Z" fill="#4370A0"/>
<path d="M34.6618 53.3032L37.6495 53.2838C39.7831 56.5263 42.7286 59.5668 45.4239 62.3592C45.5386 61.209 45.6547 54.8278 45.132 54.0634C44.8886 53.7074 43.957 53.9692 43.5912 53.5174L43.7735 53.2796C45.2312 53.3051 46.8442 53.1099 48.266 53.3971C47.6898 53.7162 47.081 53.8736 46.4541 54.0621C46.1965 55.5279 46.2396 57.035 46.2397 58.519L46.2434 65.2329L45.9311 65.3472L37.4127 55.5672C37.23 57.3326 37.3146 59.2279 37.3627 61.003C37.3916 62.0706 37.3398 63.2538 37.6806 64.2727C38.1008 64.6286 39.1045 64.7132 39.6743 64.8989C38.8345 65.2703 37.757 65.061 36.8577 65.0627C36.0741 65.0641 35.3348 65.1594 34.5508 65.0299C35.0769 64.6509 35.7238 64.7487 36.1504 64.4505C36.3168 64.3343 36.3508 64.2461 36.393 64.0531C36.8191 62.1036 36.5769 59.6575 36.5785 57.6465C36.5793 56.7501 36.7059 55.597 36.5225 54.7337C36.5001 54.6291 36.3719 54.4537 36.3117 54.3635C35.9935 53.887 35.3761 53.8206 34.8553 53.7094L34.6618 53.3032Z" fill="#4370A0"/>
<path d="M93.2826 53.3022L96.2212 53.2706C96.6991 55.066 97.4835 56.5995 98.2982 58.2546L100.515 62.6888C100.797 62.5319 101.374 61.1236 101.551 60.7647C102.749 58.3462 104.211 55.8583 104.975 53.2695L107.837 53.3096L107.987 53.5161C107.932 53.5808 107.861 53.7032 107.778 53.7137C107.175 53.7892 106.774 53.852 106.393 54.3423C106.224 55.1524 106.298 56.029 106.306 56.8526L106.414 61.1436C106.457 62.1557 106.377 63.2144 106.599 64.2073C107.05 64.6318 107.835 64.7082 108.436 64.9091C107.585 65.2742 106.475 65.0635 105.565 65.0644C104.711 65.0653 103.889 65.17 103.037 65.0233C103.615 64.6453 104.202 64.6841 104.749 64.3522C105.044 63.821 104.928 62.9843 104.927 62.377L104.906 57.8374L104.892 55.8101C104.391 56.4205 104.058 57.4041 103.695 58.1156L100.037 65.5215L95.6124 55.7917C95.4597 56.436 95.4838 57.1654 95.448 57.8267L95.2964 61.536C95.2772 62.3055 95.1434 63.362 95.3448 64.0936C95.501 64.6612 96.7362 64.6733 97.2768 64.9679C96.4227 65.2227 95.4945 65.0581 94.6153 65.0618C93.8416 65.0649 93.0895 65.2092 92.332 64.9787C92.7916 64.685 93.2457 64.5982 93.7722 64.4932C93.9122 64.3882 94.0521 64.2693 94.1362 64.1127C94.5963 63.2557 95.0158 55.1463 94.7199 54.2624C94.2605 53.8237 93.9108 53.9132 93.3742 53.6563L93.2826 53.3022Z" fill="#4370A0"/>
<path d="M187.547 53.3228L190.496 53.2642C190.675 53.4422 190.688 54.0178 190.759 54.2831C190.886 54.7543 191.111 55.2347 191.31 55.6811L194.772 62.6922C195.353 62.069 195.783 60.8345 196.168 60.0543C197.24 57.8783 198.628 55.6165 199.238 53.2661C199.904 53.2963 201.847 53.0849 202.249 53.4509C202.073 53.8781 201.083 53.7903 200.656 54.3408C200.45 55.2663 200.578 56.4125 200.583 57.363L200.676 61.5252C200.7 62.4115 200.665 63.339 200.87 64.2061C201.289 64.631 202.111 64.7114 202.695 64.908C201.847 65.2792 200.732 65.0629 199.824 65.0627C198.978 65.0624 198.159 65.1699 197.317 65.0281C197.859 64.6567 198.46 64.7153 198.939 64.3977C199.072 64.3093 199.151 64.1005 199.174 63.9433C199.275 63.2738 199.2 62.4928 199.2 61.8067C199.2 60.7967 199.277 59.6972 199.17 58.7005C199.151 58.5174 199.049 58.3363 198.944 58.1877C199.368 57.6405 199.175 56.4123 199.16 55.7332L194.318 65.53L189.882 55.765C189.509 57.5365 189.599 59.7077 189.567 61.5203C189.552 62.3643 189.411 63.5362 189.696 64.3343C190.07 64.6541 191.048 64.7253 191.557 64.8858C190.776 65.2437 189.837 65.0566 189.002 65.061C188.18 65.0652 187.4 65.1967 186.59 64.9764C187.044 64.7099 188.113 64.589 188.352 64.2252C188.737 63.6373 188.68 62.378 188.737 61.6647L189.049 56.7054C189.074 55.9037 189.163 55.0444 189.002 54.2575C188.701 53.8543 188.091 53.8176 187.637 53.6634L187.547 53.3228Z" fill="#4370A0"/>
<path d="M87.0428 63.0164C87.9419 61.1316 88.7006 59.1267 89.4707 57.1856C89.8478 56.2347 90.4614 55.049 90.5551 54.0291C90.1776 53.7287 89.7698 53.8379 89.3614 53.5893L89.4497 53.3247C90.6865 53.1285 92.1743 53.2651 93.4328 53.3351C92.9512 53.6383 92.449 53.8224 91.9047 53.9712C91.0923 55.0773 90.6025 56.532 90.0631 57.7904L86.734 65.7722L84.3057 60.3504L81.8626 65.769C81.3123 64.7617 80.9077 63.6601 80.4392 62.6116L77.8062 56.8282C77.4311 56.0212 77.0865 54.9936 76.5591 54.2866C76.2124 53.8217 75.8265 53.7771 75.2897 53.7047L75.1328 53.3053L78.2248 53.2845C78.5849 53.2829 78.9888 53.2065 79.3014 53.3887L79.2437 53.6706L78.3474 53.9007L78.2649 54.0931C78.637 55.447 79.3112 56.753 79.9038 58.023L82.227 63.0037L83.896 59.4505L82.2585 55.8093C82.0021 55.2525 81.7342 54.475 81.2929 54.0495C80.9322 53.7016 80.4392 53.8659 80.0872 53.5169L80.2381 53.3031C81.0771 53.2983 83.7381 53.0348 84.2651 53.4529C84.0118 53.8357 83.5278 53.7082 83.1272 53.9651C83.1055 54.3706 83.3704 54.8175 83.5311 55.1814L84.676 57.7373C85.2895 56.6379 85.9123 55.2555 86.1676 54.0291C85.9079 53.6248 85.4253 53.9135 85.0798 53.5169L85.2186 53.31C85.9724 53.305 88.232 53.0675 88.7499 53.4529C88.5002 53.8002 88.2384 53.6932 87.8574 53.8243C86.8873 54.1583 85.5456 57.6025 85.0684 58.6056L87.0428 63.0164Z" fill="#4370A0"/>
<path d="M147.998 66.8945L148.407 66.9813L148.745 68.309C150.221 68.6274 151.897 68.4875 153.405 68.488C154.968 68.4885 156.598 68.5767 158.154 68.4443C159.583 68.3226 158.72 67.8064 159.396 67.0043L159.677 67.0844C160.071 68.1572 159.954 72.1602 159.659 73.2868C159.463 74.0368 158.998 74.8319 158.312 75.2249C157.641 75.6091 156.689 75.6673 155.952 75.4575C154.836 75.1394 154.285 74.2482 153.752 73.291L152.101 74.2248C151.866 74.5755 151.251 74.8544 150.901 75.1031C150.264 75.5561 149.659 76.0559 149.109 76.6126C148.88 76.844 148.621 77.1021 148.474 77.3956C148.301 77.7384 148.31 78.0725 148.022 78.3362C147.868 78.0673 147.828 77.8361 147.828 77.531C147.828 75.0087 149.662 74.0239 151.567 72.8098C152.064 72.4937 152.676 72.176 153.079 71.7458C153.45 71.3494 153.348 70.6033 153.329 70.0974C152.713 69.6571 149.659 69.9626 148.864 70.0791C148.511 70.6351 148.496 71.3041 148.108 71.9011C147.911 71.1884 148.042 70.5325 148.051 69.8103L147.998 66.8945ZM153.808 69.9552L153.841 70.0124C154.026 70.3572 153.969 70.7996 153.968 71.1814C153.967 72.4061 154.14 73.3286 155.418 73.7602C156.241 74.0382 157.195 73.9473 157.961 73.5603C158.179 73.4501 158.228 73.366 158.359 73.1704C158.805 72.8864 159.046 72.4951 159.169 71.9878C159.318 71.3725 159.235 70.6087 159.218 69.9752L153.808 69.9552Z" fill="#4370A0"/>
<path d="M246.501 53.0684C246.59 53.0939 246.693 53.1184 246.773 53.1644C247.1 53.3509 249.251 60.1148 249.513 60.8968C249.783 61.6981 250.344 64.0802 251.068 64.4427C251.551 64.6833 252.149 64.7225 252.673 64.9835C251.766 65.1848 250.764 65.058 249.839 65.064C248.977 65.0696 248.13 65.2338 247.291 64.9711C247.891 64.6686 248.449 64.5522 249.11 64.4492L247.823 60.5511L244.088 60.543L242.843 64.4607C243.481 64.5621 244.012 64.6711 244.586 64.9762C243.831 65.1572 243.08 65.0271 242.316 65.0713C241.668 65.1087 241.001 65.2768 240.356 65.2696C238.062 65.2444 236.971 63.2035 235.892 61.4899C235.604 61.0346 235.315 60.4741 234.927 60.1003C234.481 59.6687 233.822 59.785 233.248 59.8069L233.108 59.9826C233.103 61.1159 232.818 63.3009 233.313 64.2804C233.666 64.5681 234.087 64.6279 234.521 64.72L234.479 65.0075C234.173 65.2072 230.283 65.1032 229.609 65.0788C230.143 64.6483 230.353 64.7262 230.956 64.519C231.225 64.4265 231.337 64.3331 231.463 64.0769C231.729 63.5322 231.577 62.3628 231.578 61.7319L231.584 56.8574C231.582 56.0443 231.692 55.0521 231.433 54.2848C231.041 53.9098 230.235 53.836 229.702 53.5791C230.958 53.2093 232.468 53.2637 233.774 53.2626C234.568 53.2619 235.425 53.2177 236.198 53.409C237.072 53.6251 237.887 54.0474 238.356 54.8379C238.788 55.5685 238.805 56.4592 238.574 57.2595C238.274 58.3019 237.284 58.8719 236.404 59.3552C237.273 60.8779 238.293 62.5726 239.531 63.8284C239.856 64.1587 240.159 64.5011 240.613 64.6457C240.935 64.6137 241.337 64.5992 241.584 64.3653C242.106 63.8678 242.39 62.8454 242.652 62.1839L245.139 55.6564C245.394 54.9874 245.541 53.8738 246.137 53.4606C246.294 53.3516 246.391 53.2212 246.501 53.0684ZM233.023 53.9647L233.04 54.0402C233.173 54.6146 233.114 55.2718 233.115 55.8589V59.1727C234.101 59.195 235.159 59.3218 236.055 58.8303C236.111 58.7443 236.207 58.6306 236.238 58.5351C236.784 58.109 236.936 57.7813 237.018 57.0876C237.123 56.217 236.988 55.4351 236.415 54.7416C235.967 54.2002 235.226 53.9157 234.542 53.8654C234.021 53.8269 233.535 53.8729 233.023 53.9647ZM245.876 55.2067C245.981 56.6932 244.506 58.2854 244.457 59.767L245.639 59.7841L247.583 59.7602L246.52 56.5638C246.361 56.0859 246.272 55.5508 245.876 55.2067Z" fill="#4370A0"/>
<path d="M164.973 53.3235C167.333 53.1529 170.881 52.9969 172.909 54.2915C174.178 55.1013 175.012 56.234 175.326 57.7116C175.67 59.3285 175.426 61.0297 174.52 62.4265C173.827 63.494 172.66 64.4517 171.397 64.7194L171.34 64.7547C169.841 65.6253 166.927 65.1072 165.238 65.0656C164.355 65.0439 163.518 65.2284 162.648 64.9794C163.11 64.7084 163.484 64.6984 163.966 64.536C164.207 64.4545 164.41 64.335 164.526 64.1C164.859 63.4197 164.779 55.2129 164.518 54.4129C164.384 54.0032 163.296 53.7757 162.868 53.5619C163.547 53.3889 164.275 53.3734 164.973 53.3235ZM166.54 53.964C166.27 54.1639 166.242 54.2148 166.188 54.561C166.039 55.515 166.152 56.6607 166.151 57.6322L166.151 61.8339C166.157 62.4954 166.094 63.3335 166.494 63.8998C166.801 64.3349 167.293 64.5379 167.806 64.6099C169.028 64.7818 170.797 64.5671 171.766 63.7316C171.855 63.6548 171.909 63.5622 171.955 63.4552C172.734 63.0003 173.178 62.0239 173.4 61.1832C173.806 59.6537 173.787 57.7125 172.962 56.3118C172.258 55.117 171.18 54.3555 169.837 54.023C168.785 53.7628 167.604 53.8182 166.54 53.964Z" fill="#4370A0"/>
<path d="M51.163 53.3158C53.006 53.0748 55.678 53.1082 57.4396 53.7082C58.7898 54.1679 60.0565 55.0206 60.6947 56.3372C61.401 57.7944 61.5421 59.59 60.9948 61.1255C60.3599 62.9066 59.1862 63.9099 57.5086 64.6969C55.3757 65.4737 53.2461 65.1056 51.0462 65.0643C50.183 65.0481 49.341 65.243 48.4961 64.9788C49.0619 64.6515 49.7652 64.6774 50.2478 64.2727C50.4097 64.0341 50.4701 63.8302 50.4839 63.5453L50.5012 56.5965C50.4993 56.06 50.6309 54.7704 50.354 54.3485C50.0439 53.8765 49.5076 54.061 49.1469 53.6669L49.3496 53.4352L51.163 53.3158ZM52.3594 53.9402C52.2867 54.0175 52.1433 54.136 52.0926 54.2242C51.8906 54.5758 52.001 61.8065 52.027 62.6789C52.0433 63.2204 52.1139 63.7226 52.5343 64.1162C53.1485 64.6913 54.2056 64.6837 54.9874 64.6366C56.0271 64.5738 57.121 64.2098 57.9112 63.5133C59.25 62.0225 59.5634 60.493 59.4594 58.5281C59.3969 57.3515 58.8624 56.0098 57.9668 55.2139C56.6305 54.0264 54.9604 53.7555 53.2194 53.8687L52.3594 53.9402Z" fill="#4370A0"/>
<path d="M209.443 53.0692L209.484 53.066C211.016 52.9742 212.92 53.3512 214.088 54.4025C215.258 55.453 216.036 57.0059 216.105 58.5818C216.183 60.4356 215.779 62.0688 214.487 63.4526C213.296 64.7303 211.747 65.2673 210.037 65.3322C208.54 65.3269 207.096 65.0108 205.884 64.0844C204.643 63.1354 203.856 61.7061 203.67 60.1609C203.464 58.4272 203.851 56.7269 204.947 55.3525C206.103 53.9043 207.643 53.2725 209.443 53.0692ZM208.71 53.7093C207.512 54.1134 206.603 54.7211 206.031 55.8818C205.202 57.5602 205.293 59.7834 205.889 61.5166C206.311 62.7422 207.131 63.8198 208.315 64.3844C208.892 64.6597 209.974 64.9511 210.598 64.7403L210.651 64.7209C211.733 64.5703 212.6 64.1288 213.272 63.2445C214.319 61.8689 214.457 59.9997 214.23 58.337C214.026 56.8279 213.335 55.2748 212.085 54.3523C211.104 53.6289 209.876 53.5684 208.71 53.7093Z" fill="#4370A0"/>
<path d="M69.1492 53.0625C70.6236 53.1157 71.9694 53.3162 73.1691 54.2547C74.6157 55.3864 75.2157 56.8595 75.4173 58.6342C75.5948 60.1958 75.0615 61.9142 74.0798 63.1338C72.9018 64.5975 71.3335 65.1622 69.5258 65.3477C67.8307 65.3255 66.2785 65.0231 64.966 63.8808C63.7618 62.8327 63.0386 61.3828 62.9336 59.7881C62.8205 58.0725 63.3183 56.3759 64.4701 55.0791C65.7228 53.6691 67.327 53.1704 69.1492 53.0625ZM68.2672 53.6647C67.111 53.9609 66.1304 54.5117 65.5039 55.5637C64.6202 57.0473 64.5444 59.1908 64.9788 60.8397C65.3455 62.2317 66.1126 63.5288 67.3845 64.2601C68.2777 64.7735 69.2221 64.8205 70.2256 64.7493C71.4666 64.3393 72.4113 63.7523 73.0221 62.5533C73.7976 61.0313 73.8111 58.7998 73.2825 57.1958C72.8551 55.8985 72.1499 54.6507 70.8675 54.0316C70.029 53.6269 69.1764 53.6191 68.2672 53.6647Z" fill="#4370A0"/>
<path d="M152.633 52.9385C154.405 52.7168 156.155 52.9893 157.61 54.0741C158.986 55.0998 159.778 56.5735 160.016 58.2537C160.24 59.8365 159.939 61.7411 158.945 63.038C157.903 64.3975 156.548 65.069 154.877 65.2965C153.421 65.5462 151.977 65.2194 150.699 64.5108C149.358 63.768 148.415 62.4075 148.002 60.9506C147.538 59.3109 147.766 57.3044 148.604 55.8195C149.521 54.1939 150.881 53.4236 152.633 52.9385ZM153.241 54.731C151.527 55.0876 149.971 55.6179 148.968 57.1558C148.416 58.0009 148.225 59.2988 148.434 60.2739C148.655 61.3101 149.293 62.1837 150.184 62.75C151.251 63.4286 152.832 63.7434 154.071 63.5185C155.651 63.4439 157.338 62.959 158.437 61.7512C159.22 60.8904 159.545 59.7835 159.482 58.6342C159.426 57.6017 158.927 56.5726 158.153 55.8835C156.839 54.712 155.183 54.6119 153.513 54.7065L153.241 54.731Z" fill="#4370A0"/>
<path d="M160.807 8.38192C162.148 8.27831 163.526 8.31398 164.871 8.3069C167.318 8.294 169.62 8.324 172.035 8.76877C174.603 9.24175 176.846 10.427 178.334 12.6051C179.583 14.4347 180.029 17.0104 179.612 19.1854C179.191 21.3819 177.936 23.2052 176.09 24.45C174.491 25.5276 172.597 26.0417 170.717 26.3612C169.942 26.4929 168.898 26.6331 168.124 26.4829L167.994 26.0627C168.014 25.9963 168.089 25.6649 168.124 25.6354C168.337 25.4549 169.049 25.3659 169.329 25.297C171.046 24.8758 172.75 23.9833 173.824 22.5453C175.208 20.6932 175.493 18.0738 175.146 15.8281C174.862 13.9862 173.963 12.311 172.434 11.2142C170.706 9.97402 167.96 9.51323 165.866 9.90065C164.128 10.2222 165.556 13.5134 164.756 14.6559C165.083 15.0749 164.987 15.5786 164.989 16.083L164.995 19.7402L164.979 30.5156C164.978 32.3018 164.863 34.1955 165.022 35.969C165.247 38.4792 166.238 38.7899 168.523 39.0372C168.925 39.0807 169.263 39.0403 169.579 39.3035C169.584 39.726 169.628 39.9412 169.405 40.3144L157.174 40.3206L156.94 40.0077C156.94 39.9082 156.902 39.4325 156.936 39.3675C157.249 38.7824 159.564 39.0403 160.308 38.1293C160.636 37.7278 160.788 37.212 160.854 36.7049C161.048 35.2337 160.998 33.69 161.003 32.2074L161.013 25.5528L161.009 17.6872C161.005 15.8727 161.048 14.037 160.874 12.2288C160.696 10.3698 159.634 10.2128 158.055 10.0355C157.565 9.98044 157.217 10.021 156.829 9.70199C156.791 9.25565 156.771 9.17151 156.982 8.78397C157.9 8.3502 159.775 8.4499 160.807 8.38192Z" fill="#4370A0"/>
<path d="M25.7444 8.29297L39.8298 8.45571C42.2713 8.45531 44.7821 8.56639 47.2105 8.30332L47.9273 14.7206L47.612 14.9585C47.4894 14.9659 47.0686 15.0323 46.9717 14.9969C46.6048 14.8627 46.0091 12.8071 45.7919 12.3808C45.5459 11.898 45.2154 11.461 44.8024 11.1082C43.0421 9.60519 39.7081 9.97306 37.54 9.97224C36.4853 9.97183 35.3376 9.88451 34.2926 9.99348C33.9443 10.0298 33.8365 10.1132 33.6262 10.3707C33.3291 12.2495 33.498 14.3104 33.4967 16.2174C33.4952 18.3319 33.3186 20.583 33.6251 22.6699C34.0565 22.8944 35.0499 22.811 35.5473 22.8135C37.2076 22.8212 38.9118 22.8766 40.5672 22.7544C42.7179 22.5954 42.9353 21.8152 43.2806 19.8612C43.3532 19.4515 43.371 19.0872 43.6517 18.7613C44.029 18.6592 44.2446 18.6529 44.6129 18.7895C44.9704 19.3768 44.6506 21.1425 44.6232 21.8803C44.5415 24.0775 44.8673 26.3155 44.7337 28.4848L44.4104 28.6628C44.2602 28.6609 43.8228 28.706 43.7059 28.6539C43.1404 28.4019 43.1335 25.8417 42.2475 25.1095C41.1173 24.1754 35.2281 24.4809 33.6279 24.6346C33.4341 26.0193 33.5102 27.4717 33.5105 28.869C33.5017 31.1079 33.2831 33.7251 33.7118 35.9111C33.8205 36.4657 33.9329 37.0097 34.323 37.4395L34.3774 37.4986C34.8128 37.984 35.2849 38.1742 35.9067 38.3391C37.6278 38.7953 39.5972 38.7083 41.3694 38.6806C42.8665 38.6572 44.8489 38.7434 46.1993 38.0373C47.5263 37.3433 48.5041 35.6127 49.2057 34.3365C49.4068 33.9708 49.6133 33.4109 49.9813 33.1974C50.1476 33.1924 50.3365 33.1815 50.4937 33.2436C50.8067 33.3672 50.8677 33.444 51.0013 33.7344L48.861 40.3617L24.9437 40.3087C24.796 39.9333 24.7753 39.6999 24.853 39.3042C25.3768 38.8093 27.2199 39.0396 28.0246 38.7125C28.5125 38.5142 28.9292 38.0954 29.1288 37.6047C29.3476 37.0672 29.4324 36.3673 29.4693 35.7939C29.7062 32.107 29.5177 28.2972 29.5182 24.599L29.5155 16.5969C29.514 15.0136 29.809 12.375 29.1469 10.9389C28.4843 9.5019 26.9896 9.89866 25.7761 9.46228C25.5518 9.13224 25.6902 8.66512 25.7444 8.29297Z" fill="#4370A0"/>
<path d="M182.922 8.38356C184.129 8.09294 185.917 8.43911 187.189 8.44705L197.523 8.45574C199.831 8.45572 202.206 8.57018 204.497 8.29508L205.191 14.7217C204.86 14.982 204.649 14.9554 204.243 14.9874C203.801 14.7282 203.607 13.7077 203.421 13.2005C203.189 12.5682 202.857 11.9237 202.395 11.4282C201.321 10.2767 199.744 10.0454 198.242 10.0027L194.072 9.97074C193.257 9.96842 192.371 9.9064 191.564 9.99201C191.264 10.0237 191.119 10.1024 190.905 10.3043C190.512 12.6639 190.769 15.3998 190.772 17.8011C190.774 19.2312 190.548 21.1438 190.912 22.51C190.935 22.5981 191.218 22.7239 191.308 22.7761C192.896 22.8293 198.693 23.1524 199.748 22.2335C200.242 21.8013 200.326 20.9214 200.447 20.3103C200.561 19.7315 200.589 19.0849 201.041 18.6977C201.451 18.693 201.634 18.6614 201.994 18.8829L201.991 28.486L201.681 28.6648C201.37 28.6706 200.987 28.7454 200.758 28.486C200.707 28.4293 200.652 28.0404 200.631 27.9498C200.4 26.9932 200.291 25.6961 199.456 25.0608C198.336 24.2093 192.368 24.4637 190.896 24.6511C190.728 25.6921 191.1 28.0829 190.55 28.8701C190.964 29.4012 190.783 30.7484 190.779 31.4372C190.768 33.1158 190.576 35.5598 191.322 37.0713C191.619 37.6728 192.22 38.0596 192.845 38.2621C194.477 38.7914 196.506 38.6963 198.211 38.6854C199.915 38.6748 202.447 38.797 203.897 37.7884C204.96 37.0484 205.854 35.4605 206.478 34.3493C206.751 33.8653 206.875 33.4288 207.38 33.1786C207.828 33.2806 207.941 33.2958 208.27 33.6075C207.961 35.8582 207.008 38.267 206.14 40.3587L188.957 40.2093L184.475 40.2941C183.806 40.3162 182.856 40.4643 182.219 40.2656C182.063 39.8377 182.033 39.744 182.114 39.2995C182.518 38.9806 183.326 39.0318 183.854 38.9776C184.698 38.8907 185.564 38.8215 186.13 38.0942C186.583 37.5107 186.662 36.5487 186.719 35.837C186.844 34.2738 186.771 32.66 186.773 31.0912L186.776 22.8106L186.774 16.1765C186.772 14.8718 186.845 13.5028 186.683 12.207C186.467 10.4707 185.837 9.91435 184.132 9.6803C183.655 9.61489 183.334 9.6428 182.946 9.34403L182.922 8.38356Z" fill="#4370A0"/>
<path d="M53.0345 8.30418L59.8495 8.45085L64.8955 8.30727C65.0485 8.30757 65.1571 8.34731 65.2896 8.42056L65.4224 9.05512C65.4012 9.1187 65.3243 9.42844 65.2896 9.45702C65.2451 9.49365 64.7729 9.51462 64.6902 9.52404C63.8801 9.61649 62.6409 9.62953 62.0278 10.2162C61.3277 10.8861 61.2838 12.1654 61.2525 13.0795L61.2093 21.25C61.2092 26.1153 60.5599 32.5828 64.201 36.4211C65.688 37.9889 68.0227 38.7393 70.1325 38.803C72.6855 38.8801 75.1875 38.4608 77.1122 36.6271C79.8183 34.0486 80.4275 30.1178 80.5119 26.5516L80.52 20.8143C80.507 18.8153 80.7403 11.7011 79.4203 10.3534C78.7805 9.70017 77.7486 9.63635 76.8873 9.55693C76.5795 9.52857 76.1142 9.56094 75.8932 9.32934C75.8366 8.95475 75.8551 8.73136 76.0065 8.38292C76.2926 8.22848 76.7986 8.32556 77.1235 8.34296L80.0241 8.44768L86.7413 8.34665C86.9527 8.55491 86.9423 8.80794 86.9642 9.08714C86.938 9.1486 86.8435 9.43105 86.8052 9.45859C86.7428 9.50362 86.2957 9.51568 86.1974 9.52701C85.5386 9.60313 84.7629 9.65025 84.1551 9.92434C83.7267 10.1174 83.3691 10.4173 83.1855 10.8596C82.6207 12.2207 82.6674 14.2927 82.6197 15.7584L82.5064 28.1158C82.4014 29.9574 82.0942 31.8884 81.4602 33.6216C80.4476 36.3894 78.7121 38.4879 75.9929 39.7257C72.401 41.3608 67.5742 41.3925 63.8925 40.0195C57.1353 37.4993 57.2088 30.4275 57.2065 24.3585L57.2056 15.5678C57.1984 14.2007 57.3985 12.1201 56.8255 10.8851L56.7928 10.8157C56.7247 10.6686 56.6583 10.5248 56.5606 10.3943C55.9127 9.52932 54.0358 9.55917 53.0742 9.43929C52.8946 9.04409 52.9889 8.72819 53.0345 8.30418Z" fill="#4370A0"/>
<path d="M224.474 7.74047C224.708 7.72353 224.893 7.74243 225.121 7.79041C225.626 8.24674 227.35 14.0651 227.724 15.1703L234.339 34.565C234.923 36.3092 235.68 38.6721 237.789 38.9377C238.377 39.0116 239.06 38.969 239.594 39.2355C239.728 39.5889 239.674 39.8398 239.594 40.2019L239.336 40.3449L232.639 40.2091L229.508 40.3089C229.009 40.3259 228.418 40.4098 227.939 40.267C227.784 39.9181 227.808 39.6747 227.864 39.3024C228.459 38.7618 229.924 39.151 230.726 38.6177C230.914 38.4927 231.046 38.3902 231.078 38.1531C231.171 37.471 228.413 28.7169 227.948 28.2271C227.282 27.5242 223.51 27.8422 222.464 27.8442L220.646 27.8375C220.037 27.8386 218.242 27.6936 217.815 28.1395L217.775 28.1818C217.661 28.3023 217.577 28.417 217.505 28.567C217.049 29.5053 216.797 30.6387 216.467 31.6319L214.959 36.2772C214.802 36.825 214.535 37.5897 214.575 38.1501C214.584 38.2748 214.701 38.4935 214.748 38.6187C215.454 39.1223 216.712 39.0582 217.565 39.1403C217.794 39.4874 217.752 39.6696 217.745 40.0708C217.691 40.1152 217.488 40.3149 217.437 40.324C217.014 40.3988 216.357 40.2843 215.904 40.2701L212.31 40.2089C210.807 40.2056 209.259 40.4189 207.768 40.2988C207.701 40.2133 207.626 40.1126 207.596 40.0066C207.491 39.6487 207.549 39.4673 207.703 39.1524C208.476 38.9412 209.312 39.0739 210.083 38.831C210.793 38.6067 211.394 38.0655 211.775 37.4339C212.265 36.624 212.569 35.6579 212.915 34.7787L214.477 30.894L221.576 12.2777C221.763 11.7768 221.968 11.2552 222.064 10.7293C222.101 10.5356 222.108 9.65842 222.183 9.55374C222.237 9.4765 222.625 9.32418 222.735 9.26443C223.328 8.94189 224.145 8.39673 224.451 7.79134L224.474 7.74047ZM222.902 13.5178L222.898 13.6019C222.837 14.4927 222.165 15.6875 221.852 16.5469C220.733 19.6092 219.48 22.7019 218.562 25.8284L222.592 25.9107C223.578 25.9083 226.283 26.1795 226.979 25.6021C227.152 25.0529 223.846 15.0545 223.22 13.8937C223.138 13.742 223.038 13.6261 222.902 13.5178Z" fill="#4370A0"/>
<path d="M239.745 8.3812C240.513 8.22192 241.401 8.39873 242.185 8.42456C243.963 8.48335 245.865 8.56275 247.628 8.30505C250.503 13.1232 254.477 17.2483 258.188 21.4303L268.7 32.9914L268.761 23.1601C268.759 20.0365 268.829 16.8943 268.508 13.7835C268.41 12.8384 268.347 11.6821 267.938 10.8141C267.327 9.52234 265.243 9.93624 264.145 9.51982C263.862 9.41279 263.867 9.28638 263.753 9.02151C263.802 8.72707 263.869 8.56093 264.054 8.32545C264.951 8.29286 265.846 8.39667 266.743 8.41942L271.979 8.4264C272.582 8.41264 274.302 8.14251 274.799 8.36469C274.97 8.4418 275.028 8.72205 275.098 8.89346C275.077 9.0078 275.067 9.24739 275.016 9.3416C274.768 9.80222 272.316 9.76709 271.685 10.437C270.199 12.0133 270.821 36.9047 270.905 40.4552C270.69 40.7948 270.571 40.8189 270.202 40.9784L269.702 40.7755C269.655 40.1389 265.832 36.011 265.154 35.2421L252.783 21.1772L247.016 14.4661C246.755 15.528 246.81 16.6789 246.804 17.7663L246.796 22.4448L246.808 29.9714C246.825 31.9891 246.829 34.0715 247.156 36.0659C247.269 36.7566 247.32 37.5802 247.714 38.1854C248.301 39.0887 250.656 38.9392 251.63 39.1833C251.784 39.6447 251.791 39.7115 251.665 40.1796C251.594 40.2177 251.448 40.3218 251.375 40.3365C251.101 40.3922 250.641 40.3015 250.342 40.2889L247.813 40.217L240.808 40.3216L240.6 40.039C240.564 39.6227 240.539 39.5199 240.745 39.1569C241.422 38.9554 242.16 39.0004 242.852 38.8325C243.316 38.7201 243.842 38.5209 244.089 38.085C244.473 37.4034 244.549 36.1005 244.601 35.3336C244.951 30.2426 244.774 25.0626 244.774 19.9581V15.1501C244.771 14.1728 244.846 13.1212 244.559 12.1753C244.136 10.7745 242.847 9.95256 241.454 9.7357C240.929 9.65416 240.319 9.6802 239.848 9.42833C239.656 9.10719 239.721 8.73838 239.745 8.3812Z" fill="#4370A0"/>
<path d="M94.9974 8.39178C96.4742 8.26948 97.9957 8.31047 99.4785 8.30409C101.918 8.29358 104.374 8.26747 106.738 8.96407C108.762 9.5603 110.721 10.7464 111.747 12.6507C112.695 14.4101 112.94 16.8095 112.364 18.7214C111.411 21.8863 109.115 23.2385 106.392 24.7155L110.422 31.1718C111.812 33.1995 113.218 35.1359 114.922 36.9175C115.651 37.6793 116.499 38.544 117.427 39.0558C118.256 39.5131 119.071 39.6951 119.989 39.8659L120.062 40.2641L119.91 40.4779C118.993 40.75 118.083 40.7332 117.135 40.72C112.533 40.6556 109.878 37.7176 107.458 34.1775C107.117 33.6788 106.567 32.4747 106.051 32.2271L105.998 32.2052C105.979 31.9865 105.905 31.8172 105.801 31.6259C105.354 30.8009 104.794 30.0101 104.287 29.2199C103.476 27.9555 102.795 26.5299 101.276 26.0586C100.144 25.7075 98.6699 25.8341 97.5174 26.0422C97.3734 27.6713 97.4767 29.3911 97.4763 31.029L97.4898 35.0143C97.4993 35.8596 97.458 36.8596 97.8271 37.6374L97.8589 37.7033L97.9577 37.9098C98.55 39.0216 100.359 38.8887 101.404 39.1896C101.561 39.6423 101.521 39.7512 101.404 40.2053L101.148 40.3402L94.2161 40.2092C93.1549 40.216 90.1028 40.5829 89.3283 40.194C89.2118 39.7678 89.1954 39.6657 89.3003 39.2398C89.8111 38.8563 91.2491 38.96 91.9393 38.7276C92.4481 38.5564 92.8202 38.2377 93.0587 37.7545C93.35 37.1646 93.3719 36.3836 93.4172 35.7372L93.5074 31.2881L93.5162 22.7284L93.5069 16.1825C93.5016 14.7878 93.6504 12.7845 93.1983 11.4684L93.171 11.3911C93.0949 11.1695 93.0175 10.9844 92.8725 10.7975C92.3346 10.105 91.3857 10.115 90.5875 10.008C90.1328 9.94702 89.8835 9.97552 89.5971 9.59858C89.5853 9.15222 89.5752 9.09861 89.8244 8.73371C91.4399 8.38442 93.3348 8.45961 94.9974 8.39178ZM98.5613 9.88346C98.174 10.003 97.8103 10.0236 97.6047 10.4071C97.2669 11.0368 97.4316 22.8087 97.5299 24.2427C99.9286 24.5162 103.636 24.7961 105.627 23.2604C105.688 23.2133 105.715 23.1824 105.744 23.1112C107.09 22.2308 107.718 20.8921 108.042 19.3624C108.487 17.2553 108.252 14.7865 107.047 12.9648C105.962 11.3241 104.4 10.3831 102.49 10.0034C101.213 9.74952 99.8565 9.81598 98.5613 9.88346Z" fill="#4370A0"/>
<path d="M134.307 7.74145L134.356 7.73673C138.719 7.3548 143.663 8.46683 147.044 11.3464C150.234 14.0633 152.242 18.1752 152.577 22.3389C152.949 26.9406 151.844 31.616 148.783 35.1791C145.648 38.8285 141.514 40.5908 136.796 40.9529C132.528 41.0428 128.289 40.1136 124.866 37.4253C121.544 34.8166 119.419 30.9269 118.92 26.7371C118.365 22.0899 119.64 17.446 122.546 13.7746C125.46 10.0933 129.747 8.27312 134.307 7.74145ZM133.776 9.278C130.713 9.82627 128.027 11.1569 126.211 13.7706C123.509 17.6586 123.258 22.9514 124.09 27.4687C124.774 31.1806 126.635 35.248 129.841 37.4307C132.14 38.9966 134.583 39.5149 137.325 39.4185C140.386 39.0844 142.918 37.9042 144.875 35.4604C147.788 31.8235 148.11 26.824 147.595 22.3737C147.139 18.4226 145.516 14.1299 142.319 11.596C139.918 9.69383 136.808 8.92229 133.776 9.278Z" fill="#4370A0"/>
</svg>
