<?xml version="1.0" encoding="utf-8"?>
<!-- Generator: Adobe Illustrator 25.4.1, SVG Export Plug-In . SVG Version: 6.00 Build 0)  -->
<svg version="1.1" id="Layer_1" xmlns="http://www.w3.org/2000/svg" xmlns:xlink="http://www.w3.org/1999/xlink" x="0px" y="0px"
	 viewBox="0 0 300 87" style="enable-background:new 0 0 300 87;" xml:space="preserve">
<style type="text/css">
	.st0{clip-path:url(#SVGID_00000168110414641356383020000012782360488632968081_);}
	.st1{display:none;fill:#D9D9D9;}
	.st2{display:none;fill:#FDFDFD;}
	.st3{fill:currentColor;}
	.st4{fill:currentColor;}
	.st5{fill:currentColor;}
	.st6{fill:currentColor;}
	.st7{fill:currentColor;}
	.st8{fill:currentColor;}
	.st9{fill:currentColor;}
	.st10{fill:currentColor;}
	.st11{fill:currentColor;}
	.st12{fill:currentColor;}
	.st13{fill:currentColor;}
	.st14{fill:#FEFEFE;}
	.st15{fill:#FCFCFC;}
	.st16{fill:#E9E9E9;}
	.st17{fill:#F3F3F3;}
	.st18{fill:#F2F2F2;}
	.st19{fill:#EAEAEA;}
	.st20{fill:#E2E2E2;}
	.st21{fill:#DDDDDD;}
	.st22{fill:#D3D3D3;}
	.st23{fill:#EFEFEF;}
	.st24{fill:#EDEDED;}
	.st25{fill:#DBDBDB;}
	.st26{fill:#F1F1F1;}
	.st27{fill:#D7D7D7;}
	.st28{fill:#D0D0D0;}
	.st29{fill:#C7C7C7;}
	.st30{fill:#C9C9C9;}
	.st31{fill:#E5E5E5;}
	.st32{fill:#D5D5D5;}
	.st33{fill:#DCDCDC;}
	.st34{fill:#CCCCCC;}
	.st35{fill:#818181;}
	.st36{fill:#FBFBFB;}
	.st37{fill:#FDFDFD;}
	.st38{fill:#E8E8E8;}
</style>
<g>
	<defs>
		<rect id="SVGID_1_" width="300" height="87"/>
	</defs>
	<clipPath id="SVGID_00000029765518865971904970000008967925692687930810_">
		<use xlink:href="#SVGID_1_"  style="overflow:visible;"/>
	</clipPath>
	<g style="clip-path:url(#SVGID_00000029765518865971904970000008967925692687930810_);">
		<rect class="st1" width="300" height="87"/>
		<path class="st2" d="M150-6c53.3,0,106.6,0,159.9,0c0.8,0,1,0.1,1,1c0,32.1,0,64.2,0,96.3c0,0.8-0.2,0.9-0.9,0.9
			c-106.7,0-213.4,0-320.1,0c-0.7,0-0.9-0.1-0.9-0.9c0-32.1,0-64.2,0-96.3c0-0.8,0.2-0.9,0.9-0.9C43.3-6,96.7-6,150-6z"/>
		<path d="M39.2,27.4c-0.2,1-0.8,1.5-1.7,1.8c-1.5,0.5-3.1,0.5-4.6,1c-1.1,0.4-2.3,0.7-3,1.7c-1,1.2-1.3,2.6-0.7,4.1
			c0.1,0.4,0.3,0.8-0.2,1c-0.6,0.2-0.6-0.4-0.7-0.7c-0.1-0.7-0.4-0.7-1-0.4c-2.1,1.2-4.1,2.4-6,3.8c-0.4,0.3-0.6,0.3-0.8-0.2
			c-0.3-0.7-0.9-1.1-1.6-1.4c-0.7-0.3-1.2-0.3-1.3,0.7c0,0.3-0.2,0.5,0.2,0.6c0.2,0,0.5,0.1,0.5,0.5s-0.4,0.4-0.7,0.4
			c-0.2,0-0.4,0-0.6,0c-0.4,0-1,0.1-1.1,0.5c-0.1,0.3,0.4,0.7,0.6,1.1c0.2,0.4,0.4-0.1,0.7-0.1c0.2-0.1,0.5-0.3,0.6,0.1
			c0.1,0.3,0.3,0.6-0.1,0.8c-0.4,0.2-0.8,0.5-1,1c-0.4,0.8-0.1,1.2,0.7,1c0.5-0.1,1.3,0.4,1.3-0.7c0-0.3,0.6-0.1,0.8,0.1
			c0.1,0.1,0,0.3,0.1,0.4c0,0.2,0.1,0.4,0.2,0.6c0.1,0.1,0.2,0.6,0.4,0.3c0.5-0.7,1.6,0.1,1.9-0.9c0-0.2-0.1-0.5-0.1-0.7
			c-0.3-1.2-0.3-1.2,1-1.2c0.7,0,1.5-0.1,2.2,0.1c0.5,0.2,0.8-0.1,0.8-0.6c0.1-0.5,0.4-0.6,0.8-0.7c1.6-0.3,3.3-0.7,4.8-1.3
			c0.4-0.2,0.5-0.1,0.7,0.3c0.7,2.2,2.4,3.6,4,5.2c1.4,1.5,2.7,3,3.4,5c0.1,0.4,0.3,0.6-0.2,1C36,54,37.5,58.8,40.8,60
			c0.8,0.3,0.9,0.6,0.7,1.4c-0.4,1.4-0.6,2.8-0.9,4.2c-0.8-0.5-1.6-0.9-2.6-0.8c-0.4,0-0.9,0-0.5,0.7c0.3,0.5-0.3,1.4,0.8,1.4
			c0.2,0,0,0.3,0,0.4c0,0.3-0.2,0.5-0.5,0.4c-0.3,0-0.5,0-0.8,0.1c-0.2,0.1-0.5,0.2-0.6,0.4c0.3,0.3,0.6,0.7,0.9,1.1
			c0.3,0.5,0.7,0.5,1,0c0.2-0.3,0.3-0.6,0.5-1c0.1-0.1,0.2-0.5,0.5-0.2c0.2,0.2,0.6,0.3,0.2,0.7c-0.4,0.4-0.5,0.9-0.6,1.5
			c0.5,0.1,1.1-0.1,1.5,0.3c0.3,0.3,0.5-0.1,0.7-0.2c0.3-0.1,0.2-0.4,0.1-0.6c-0.1-0.2-0.2-0.4-0.3-0.5c0,0-0.1-0.1-0.1-0.1
			s0-0.1,0-0.1c0,0,0-0.1,0.1-0.1c0,0,0.1-0.1,0.1-0.1c0.2-0.1,0.4-0.2,0.6,0.1c0.1,0.3,0.3,0.6,0.5,0.9c0.3,0.4,0.6,0.7,1.1,0.1
			c0.1-0.1,0.3-0.2,0.5-0.3c0.3-0.2,0.9,0,0.9-0.4c0-0.6-0.2-1.1-0.6-1.5c-0.9-1-0.9-1,0.1-2c0.3-0.3,0.5-0.5,0.8-0.8
			c0.2-0.2,0.4-0.4,0.2-0.6c-0.8-0.9,0-1.5,0.4-2.2c0.3-0.6,1.1-1.1,1.1-1.7c-0.1-0.7-1-0.8-1.5-1.2c-1.9-1.5-2.2-4.5-0.7-6
			c0.5-0.5,0.8-0.7,1.1,0.2c1.2,3.1,5.2,4.4,7.8,2.5c0.5-0.4,1-0.9,1.3-1.5c0.3-0.6,0.5-1.2,0.6-1.9c0.2-1.5,0.7-2.4,2.2-3.1
			c3.7-1.8,4.9-5.7,3.3-9.4c-0.8-1.9-2.4-3-4.1-4c-0.5-0.3-0.9,0.3-1.4,0.5c0.9,0.8,1.9,1.4,2.7,2.1c2.6,2.3,3,7.4-1.5,9.6l-1.1,0.5
			c0.3-1.3,0.4-2.4-0.5-3.5c-0.5-0.6-0.7-0.3-0.9,0.1c-0.2,0.5-0.1,1,0,1.6c0.1,0.6,0.2,1.3-0.2,1.6c-0.3,0.3-0.9-0.1-1.4-0.3
			c-2.1-0.9-3.5-2.4-3.7-4.7c-0.2-2.2,0.5-4.1,2.3-5.6c1.1-0.8,2.3-1.5,3.5-2.1c3.1-1.4,5.1-3.6,5.1-7.2c0-0.3,0.2-0.5,0.4-0.6
			c1.8-1.5,2-2.8,0.7-4.8c-0.3-0.3-0.5-0.7-0.7-1.1c-0.4-0.8-0.8-0.5-1.1,0c-0.9,1.1-0.8,2.4,0.1,3.7c0.2,0.3,0.7,0.6,0.1,1
			c-0.5,0.4-0.7-0.2-0.9-0.5c-0.3-0.5-0.6-1-0.7-1.6c-0.1-0.6-0.1-1.1,0-1.7c0.1-0.6,0.4-1.1,0.7-1.6c0.3-0.5,0.8-0.8,1.3-1.1
			c0.2-0.1,0.5-0.3,0.6,0.1c0.4,1.1,1.3,1.9,1.9,2.9c0.8,1.7,0.6,3.4-0.7,4.8c-0.4,0.4-0.7,0.8-0.7,1.3c-0.2,2.4-1.3,4.2-3.2,5.7
			c0.7,0.6,1.4,1.1,2.1,1.7c3.9,2.8,3.6,9.5-0.1,12.3c-0.7,0.5-1.3,1-2.1,1.3C56.2,50.5,56,51,56,51.6c-0.3,3.5-2.8,5.9-6.1,5.8
			c-2-0.1-3.6-1.2-4.8-2.8c-0.2-0.2-0.2-0.7-0.6-0.6c-0.3,0.1-0.3,0.5-0.4,0.8c-0.4,1.4,0.5,3.1,2.1,4c1.5,0.9,1.5,1.1,0.5,2.5
			c-0.3,0.5-0.6,1-1,1.5c-0.2,0.3-0.3,0.7,0,1c0.5,0.6,0.2,1.1-0.3,1.5c-0.3,0.2-0.5,0.5-0.7,0.7c-0.4,0.3-0.4,0.5-0.1,1
			c0.5,0.7,0.8,1.5,0.8,2.4c0,0.9-0.3,1.7-0.8,2.4c-0.3,0.4-0.5,0.4-0.9,0.1c-0.2-0.2-0.4-0.3-0.6-0.4c-1.4-0.9-1.7-0.8-2.8,0.6
			c-0.3,0.4-0.4,1.2-1,1.1c-0.7-0.1-0.9-0.9-1.3-1.5c-0.3-0.4,0.1-1.1-0.5-1.3c-0.7-0.2-1.5-0.1-2.2,0.2c-0.6,0.3-0.8,0.1-0.9-0.5
			c-0.1-1.1,0.1-2.1,0.9-2.7c0.7-0.6,0.3-0.7-0.2-0.9c-0.3-0.1-0.5-0.2-0.8-0.3c0.8-1.9,2.5-2.7,4.5-2.3c0.6,0.1,1,0.1,0.9-0.6
			c0-0.1,0-0.2,0.1-0.3c0.5-1.4,0.3-2.2-1.1-3.1c-2.7-1.7-3.3-5.5-1.7-8.2c0.1-0.1,0.1-0.3,0.3-0.5c-2.2,0.4-4.2,0.4-6.3,0.6
			c-0.2,0-0.3,0-0.5,0.1c-0.2,0.3-0.2,2.7,0.1,3c0.3,0.3,0.4,0.6,0.1,1c-0.2,0.3-0.4,0.6-0.6,0.9c-0.5,0.6-0.5,1.2,0,1.9
			c0.5,0.7,0.4,1.6,0.3,2.3c-0.2,1.2-0.3,1.2-1.5,1c-0.2,0-0.5-0.1-0.7-0.1c-0.5-0.1-0.9-0.5-1.4-0.2c-0.3,0.2-0.5,0.5-0.7,0.8
			c-0.2,0.3-0.3,0.6-0.3,1c0,0.8-0.4,0.7-0.9,0.4c-0.6-0.3-1-0.7-1.4-1.3c-0.3-0.6-0.5-1.2-0.5-1.8c0-0.7-0.3-0.6-0.7-0.5
			c-0.7,0.2-1.3,0.4-1.9,0.8c-0.1-1.9,0.4-3.4,1.9-4.5c-0.1-0.2-0.3-0.3-0.5-0.4C21,55.8,21,55.8,21.9,55c0.4-0.4,0.9-0.7,1.4-0.8
			c0.5-0.2,1.1-0.2,1.6-0.1c0.7,0.1,0.7-0.2,0.7-0.7c-0.2-1.4-0.3-2.8-0.6-4.2c-0.3-1.7,0-2.3,1.8-2.7c2.3-0.5,4.5-1.2,6.8-1.9
			c-0.7-0.9-1.5-1.8-1.9-2.8c-0.4-0.8-0.8-0.9-1.6-0.6c-0.6,0.3-1.3,0.4-1.9,0.5c-1,0.1-1.9,0.3-2.2,1.4c-0.1,0.4-0.4,0.5-0.8,0.3
			c-0.6-0.3-1.3-0.2-2-0.4c-0.6-0.1-0.7,0-0.6,0.6c0.2,1.3-0.2,2.4-0.9,3.4c-0.3,0.4-0.6,0.7-1.1,0.1c-0.3-0.4-0.8-0.6-1.2-0.9
			c-0.8-0.8-0.8-0.7-1.3,0.3c-0.2,0.3-0.1,0.7-0.2,1c-1.7-0.7-2.8-2.2-2.5-3.8c0.2-1-0.3-0.8-0.8-0.8c-1.3,0.2-1.4,0.1-0.9-1.1
			c0.3-0.8,0.7-1.5,1.5-1.9c0.6-0.3,0.6-0.7,0.1-1c-0.8-0.5-0.4-0.8,0.1-1.2c1.5-1,3.8-0.9,5.1,0.3c0.3,0.2,0.4,0.6,0.9,0.3
			c2.1-1.3,4.2-2.5,6.5-3.7c-1.3-1.2-2.7-2.2-3.7-3.6c-0.2-0.3-0.5-0.1-0.8-0.1c-0.6,0.1-1.1,0-1.1-0.8c0-0.7-0.4-1.3-0.7-2
			c-0.5,0.5-1.2,0.9-1.9,1.1c-0.7,0.2-1.5,0.2-2.2,0.1c-0.5-0.1-0.7-0.2-0.4-0.7c0.1-0.3,0.2-0.6,0.2-0.9c0.1-1.6-0.1-1.7-1.7-1.3
			c-0.1,0-0.2,0-0.3,0c-0.3-2.1,0.5-3.4,2.3-4c0.4-0.1,0.4-0.2,0.3-0.6c-0.2-0.6-0.5-1-0.8-1.5c0.6-0.3,1.3-0.4,2-0.4
			c0.7,0,1.3,0.3,1.9,0.6c0.8,0.5,1.2,0.1,1.3-0.6c0.2-0.9,0.5-0.6,1-0.3c1.6,1.2,1.9,2.8,1.6,4.6c-0.1,0.5,0,0.7,0.5,0.9
			c2.3,1.1,4.5,2.4,6.6,3.7c0.2,0.2,0.5,0.3,0.8,0.3c0.3,0,0.6,0,0.8,0c1-0.3,2-0.4,3-0.7c-0.9-0.2-1.9-0.3-2.8-0.5
			c-0.8-0.2-1-0.6-0.7-1.3c0.1-0.2,0.1-0.5,0.2-0.7c0.3-0.7,0-0.7-0.6-0.5c-0.4,0.1-0.9,0.2-1.3,0.2c-1.1,0-1.8-0.5-2.1-1.5
			c-0.3-1.1,0.1-1.9,1.1-2.5c0.6,1.7,1,2,2.7,1.8c-0.3-0.7-0.5-1.3-0.8-2c-0.2-0.4-0.2-0.7,0.4-0.9c1.6-0.6,3.1-1.2,4.4-2.3
			c0.4-0.3,0.5-0.5,0.4-0.9c-0.3-1.3-0.6-2.6-0.9-3.9c-0.1-0.5,0-0.7,0.6-0.7c0.9,0.1,1.7,0.3,2.4,0.9c0.3,0.3,0.5,0.3,0.6-0.1
			c0-0.1,0.1-0.2,0.2-0.2c1.4-1.4,1.5-1.4,2.7-0.1c0.5,0.6,0.7,0.7,1.2,0.1c0.2-0.2,0.5-0.3,0.8-0.4c0.6-0.3,1.3-0.5,1.7-0.1
			c0.3,0.2,0,0.9-0.2,1.4c-0.2,1-0.4,2-0.6,2.9c-0.2,0.5-0.1,1.1,0,1.6c0.2,0.5,0.2,1,0.1,1.5c-0.4,1.1-0.1,2.1,0.3,3.2
			c1.2,3.4,0.4,6.6-1.8,9.4c-0.5,0.7-0.9,1.5-1,2.3c-0.5,3.5,0.3,6.9,1.7,10.1c0.7,1.6,1.2,3.3,1,5.2c-0.2,2.1,2.6,4.3,4.4,3.8
			c1.2-0.3,2.3-2,2.1-3.3c-0.1-0.5-0.5-0.4-0.7-0.5c-2-0.7-3.7-1.7-4.9-3.5c-2-3.2-1.6-8.5,2.3-11.1c0.6-0.4,1.5-0.6,1.7-1.1
			c0.2-0.6-0.8-1-1.1-1.6c-0.7-1.2-1.1-2.6-1.1-4c0-0.6-0.1-1.1-0.6-1.5c-1.4-1.3-1.5-2.7-0.6-4.4c0.6-1.1,1.6-2.1,2.1-3.3
			c2.2,1.1,3.4,4,1.3,6.1c-0.1,0.1-0.2,0.7-0.7,0.3c-0.3-0.3-0.4-0.5,0-0.9c1.1-1.3,1.2-2.6,0.2-3.7c-0.3-0.3-0.5-0.5-0.8,0
			c-0.5,0.7-1.1,1.4-1.5,2.2c-0.6,1.2-0.4,2.2,0.5,3.1c0.7,0.6,0.8,1.2,0.7,2c0,1.8,0.6,3.3,1.8,4.6c0.6,0.7,1.1,0.4,1.6,0.1
			c0-0.4-0.4-0.5-0.5-0.6c-1.5-1.3-1.8-3.1-1.9-5c0-0.4,0.3-0.7,0.6-0.9c3-2.5,2.2-5.6-0.2-7.7c-0.4-0.4-1.5-0.6-0.9-1.3
			c0.4-0.5,1,0.3,1.4,0.7c1.5,1.3,2.5,2.8,2.5,4.9c0,1.6-0.7,2.8-1.9,3.8c-0.4,0.4-0.6,0.7-0.6,1.3c0.2,1.6,0.7,3,2,4.1
			c0.1,0.1,0.3,0.2,0.4,0.2c0.2,0,0.3,0,0.5-0.1c1.6-0.9,2.5-2.3,2.8-4.2c0-0.2,0-0.3,0-0.5c-0.1-0.2-0.1-0.3-0.3-0.4
			c-3.2-3.3-1.9-7.5,1.6-9.6c0.1-0.1,0.4-0.5,0.7-0.1c0.2,0.4,0.3,0.6-0.2,0.9c-0.7,0.4-1.4,1-1.9,1.6c-1.7,2.4-1.3,4.8,0.6,6.8
			c0.5,0.5,0.5,0.9,0.4,1.4c-0.4,2.9-2.2,4.6-4.8,5.7c-1.7,0.7-3.3,1.5-4.6,2.9c-0.7,0.7-1.3,1.6-1.7,2.6c-0.4,1-0.5,2-0.4,3.1
			c0.1,1,0.4,2,1,2.9c0.5,0.9,1.3,1.7,2.1,2.3c0.9,0.6,1.9,1.1,3,1.4c0.7,0.2,0.9,0.5,0.8,1.2c-0.1,2.7-1.8,4.4-4.2,4.2
			c-1.9-0.1-2.9-1.4-3.6-3c-0.4-0.8-0.7-1.7-0.6-2.7c0.1-1.5-0.5-3-1.1-4.3c-1.3-2.9-1.9-5.9-1.7-9.1c0-0.2,0-0.5,0-0.9
			c-1,1-1.3,2.1-1.3,3.2c0,0.6,0,1.2,0.2,1.8c0.1,0.4,0,0.5-0.3,0.6c-0.5,0.2-0.5-0.2-0.6-0.4c-0.5-2.1-0.1-4.1,1.3-5.8
			c1.1-1.4,2.4-2.7,3.2-4.3c1.2-2.2,1.2-4.5,0.4-6.7c-0.4-1-0.7-2-0.3-3.1c0.2-0.5,0.3-1.3-0.1-1.7c-0.4-0.3-1.1,0-1.6,0.3
			c-0.2,0.1-0.4,0.1-0.6,0.1s-0.4,0-0.6-0.1c-1.5-0.6-3.1-0.9-4.7-0.1c-0.1,0.1-0.4,0.1-0.4,0.2c-0.8,1.1-2.1,1.4-3.3,1.9
			c-0.6,0.2-0.5,0.5-0.4,1c0.2,0.6,0.4,0.4,0.8,0.3c1.2-0.5,2.4-0.3,3.6,0.1c0.5,0.2,0.9,0.5,1.2,1c0.3,0.5,0.4,1,0.3,1.5
			c-0.1,1-0.8,1.6-1.9,1.9c-1,0.3-2.1,0.1-3.1-0.1c-0.2,0-0.4-0.3-0.5,0.1c-0.1,0.4,0.2,0.3,0.4,0.4c1.3,0.4,2.7,0.5,4.1,0.2
			C38.6,27.3,38.9,27.3,39.2,27.4z"/>
		<path class="st3" d="M76.4,42.8c0-9.8,0-19.7,0-29.5c0-0.3-0.2-0.9,0.2-1c0.6-0.1,1.3,0,1.9,0c0,0,0.1,0.2,0.1,0.3
			c0,0.3,0,0.5,0,0.8c0,19.5,0,39.1,0,58.6c0,0.4,0.3,1-0.2,1.2c-0.6,0.1-1.2,0.1-1.8,0c-0.4-0.1-0.2-0.6-0.2-0.9
			c0-5.1,0-10.1,0-15.2L76.4,42.8z"/>
		<path class="st4" d="M284.6,43c0-9.8,0-19.6,0-29.3c0-0.9,0.2-1.2,1.1-1.2c0.9,0,1.1,0.2,1.1,1.1c0,19.6,0,39.2,0,58.9
			c0,0.3,0.3,0.9-0.3,1c-0.6,0.1-1.2,0.1-1.8-0.1c-0.3-0.1-0.1-0.6-0.1-0.9C284.6,62.6,284.6,52.8,284.6,43z"/>
		<path class="st5" d="M105.3,27.2c-1.1,2.4-2.2,4.8-2.9,7.2c-0.1,0.3-0.1,0.7-0.7,0.7c-0.5,0-0.5-0.4-0.6-0.8
			c-0.7-2.3-1.7-4.4-2.5-6.6c0-0.1-0.1-0.1-0.1-0.2c-0.1,0-0.1-0.1-0.2,0c-0.2,0.2-0.1,0.5-0.1,0.8c0,1.7,0,3.3,0,5
			c0,0.6-0.1,1.1,0.8,1c0.2,0,0.4,0.1,0.4,0.4c0,0.3-0.1,0.4-0.3,0.4c-0.8,0-1.7,0-2.5,0c-0.1,0-0.1,0-0.2,0c-0.1,0-0.1-0.1-0.1-0.1
			c0,0-0.1-0.1-0.1-0.2c0-0.1,0-0.1,0-0.2c0-0.4,0.3-0.3,0.5-0.3c0.5,0.1,0.7-0.1,0.7-0.7c0-2.2,0-4.5,0-6.7c0-0.5-0.1-0.7-0.7-0.7
			c-0.2,0-0.5,0-0.5-0.3c0-0.4,0.3-0.3,0.6-0.4c0,0,0.1,0,0.1,0c2.4-0.1,2.4-0.1,3.2,2.2c0.6,1.7,1.3,3.3,2,5.2
			c0.9-2.3,1.7-4.4,2.5-6.5c0.2-0.6,0.4-1,1.2-0.9c0.6,0,1.1,0,1.7,0c0.2,0,0.4,0,0.4,0.3c0,0.3-0.2,0.4-0.4,0.4
			c-0.6-0.1-0.7,0.3-0.7,0.8c0,2.2,0,4.4,0,6.5c0,0.5,0.1,0.8,0.7,0.7c0.3,0,0.4,0,0.4,0.4c0,0.3-0.2,0.4-0.4,0.4
			c-0.9,0-1.8,0-2.7,0c-0.3,0-0.5-0.1-0.5-0.4c0-0.3,0.2-0.4,0.5-0.4c0.5,0.1,0.7-0.1,0.7-0.6C105.3,31.5,105.3,29.3,105.3,27.2z"/>
		<path class="st5" d="M236.1,31.7c0,0.5,0,1.1,0,1.6c0,0.6-0.1,1.2,0.8,1.1c0.2,0,0.4,0.1,0.3,0.4c0,0.1,0,0.2-0.1,0.3
			c-0.1,0.1-0.2,0.1-0.3,0.1c-0.9,0-1.8,0-2.7,0c-0.3,0-0.3-0.2-0.3-0.4c0-0.3,0.1-0.4,0.4-0.3c0.7,0.1,0.7-0.3,0.7-0.8
			c0-1.3,0-2.5,0-3.8c0-0.5,0-0.9-0.7-0.8c-0.2,0-0.4-0.1-0.4-0.3c0-0.3,0.2-0.3,0.4-0.3c0.7,0.1,0.6-0.3,0.6-0.8
			c0-0.5-0.1-0.9,0.1-1.4c0.4-1.2,2-1.8,3.1-1.2c0.5,0.3,0.6,0.7,0.6,1.3c0,0.5-0.3,0.5-0.7,0.5c-0.4,0-0.6-0.1-0.5-0.5
			c0.1-0.6-0.2-0.9-0.8-0.9c-0.6,0-0.8,0.6-0.8,1.1c0.1,0.5,0.1,0.9,0.1,1.4c0,0.3,0.2,0.5,0.5,0.5c0.2,0,0.5,0,0.7,0
			c1.8,0,1.8,0,1.9-1.7c0.1-0.8,0.5-1.4,1.2-1.6c0.8-0.2,1.7-0.3,2.4,0.2c0.1,0.1,0.2,0.3,0.3,0.4c0.1,0.2,0.1,0.4,0.1,0.5
			c0,0.3,0,0.6-0.5,0.6c-0.3,0-0.7,0.1-0.6-0.5c0-0.7-0.4-1-1-0.9c-0.6,0.1-0.9,0.5-0.8,1.2c0.1,0.3,0.1,0.7,0.1,1
			c-0.1,0.6,0.1,0.9,0.8,0.8c0.2,0,0.7-0.2,0.7,0.3c0,0.4-0.4,0.3-0.6,0.3c-0.7-0.1-0.9,0.2-0.8,0.8c0,1.2,0,2.5,0,3.7
			c0,0.6,0.1,0.9,0.8,0.8c0.2,0,0.6-0.1,0.6,0.3c0,0.4-0.3,0.5-0.6,0.5c-0.8,0-1.5,0-2.3,0c-0.3,0-0.6,0.1-0.6-0.4
			c0-0.4,0.3-0.4,0.6-0.4c0.4,0,0.5-0.2,0.5-0.6c0-1.4,0-2.8,0-4.2c0-0.1,0-0.2,0-0.2c-0.7-0.9-1.7-0.2-2.6-0.4
			c-0.5-0.1-0.5,0.2-0.5,0.6C236.1,30.3,236.1,31,236.1,31.7z"/>
		<path class="st5" d="M183.6,47.3c0.6,1.1,1.2,2.2,1.8,3.3c0.2,0.3,0.3,0.6,0.8,0.6c0.3,0,0.3,0.1,0.3,0.4c0,0.2-0.1,0.3-0.4,0.4
			c-1,0.2-1.6,0-2.1-1c-0.5-1-1.1-2.1-1.7-3.1c-0.3-0.6-0.8-0.5-1.3-0.4c-0.5,0.1-0.2,0.6-0.3,0.9c0,0.6,0,1.1,0,1.7
			c0,0.6-0.2,1.3,0.8,1.1c0.2,0,0.3,0.2,0.3,0.4c0,0.3-0.2,0.3-0.4,0.3h-2.8c-0.2,0-0.4,0-0.4-0.3c0-0.3,0.1-0.5,0.4-0.5
			c0.8,0.1,0.8-0.4,0.8-1c0-2.1,0-4.2,0-6.2c0-0.5,0-1-0.7-0.9c-0.2,0-0.5,0-0.5-0.3c0-0.3,0.3-0.3,0.5-0.3c1.5,0,3-0.1,4.4,0
			c1.6,0.1,2.2,0.7,2.4,1.9C185.8,46,185.2,46.9,183.6,47.3z"/>
		<path class="st5" d="M207.5,37.7c-0.6,0.1-1.2,0-1.8-0.2c-1.2-0.5-1.4-1.7-0.6-2.6c0.3-0.3,0.2-0.8,0.3-1.1c0.4-1.2-0.4-2-0.5-2.9
			c-0.2-2.1,1.3-3.2,3.8-2.6c0.7,0.2,1.4,0.5,2.1,0.1c0,0,0.1,0,0.1,0c0,0,0.1,0,0.1,0s0.1,0,0.1,0.1c0,0,0,0.1,0.1,0.1
			c0.1,0.2,0,0.5-0.2,0.6c-0.9,0.3-0.8,1-0.8,1.7c-0.1,1-0.9,1.6-2.1,1.7c-0.4,0-0.8,0-1.2,0c-0.1,0-0.2,0-0.3,0.1
			c-0.1,0.1-0.2,0.2-0.2,0.3c-0.1,0.3,0.2,0.4,0.4,0.5c0.6,0.2,1.3,0.2,2,0.2c1.2,0,1.8,0.4,2.1,1.4c0.2,0.9-0.2,1.8-1.2,2.3
			C209,37.6,208.2,37.8,207.5,37.7z"/>
		<path class="st5" d="M231,34.3c-0.4-2.2-0.6-2.4-1.8-2.4c-2.9,0-2.9,0-3.4,2.4c0.2,0,0.3,0,0.5,0c0.2,0,0.6-0.2,0.6,0.3
			s-0.3,0.5-0.6,0.5h-2c-0.2,0-0.5,0-0.5-0.3c0-0.3,0.1-0.5,0.4-0.4c0.5,0,0.6-0.4,0.7-0.7c0.9-2.5,2-4.9,2.7-7.4
			c0.2-0.6,0.5-0.6,1-0.6c0.4,0,0.8-0.1,1.1,0.6c0.9,2.6,1.8,5.1,2.8,7.6c0.1,0.3,0.2,0.6,0.6,0.6c0.3,0,0.4,0.2,0.4,0.4
			c0,0.3-0.3,0.3-0.5,0.3c-0.7,0-1.3,0-2,0c-0.3,0-0.7,0.1-0.7-0.5c0-0.5,0.4-0.3,0.7-0.3C230.8,34.3,230.9,34.3,231,34.3z"/>
		<path class="st6" d="M169.1,45.8c0.9-0.5,1.7-0.9,2.6-0.7c1.2,0.2,1.6,0.8,1.7,2.2c0,1.1,0,2.1,0,3.2c0,0.4,0,0.7,0.6,0.7
			c0.3,0,0.5,0.1,0.5,0.4c0,0.4-0.3,0.4-0.5,0.4c-0.7,0-1.5,0-2.2,0c-0.3,0-0.6,0.1-0.6-0.3c0-0.4,0.2-0.5,0.5-0.4
			c0.3,0,0.5-0.1,0.5-0.4c0-1.3,0-2.5,0-3.8c0-0.8-0.6-1.1-1.3-1.1c-0.7,0.1-1.6,0.2-1.7,1.2c-0.1,1.2,0,2.4,0,3.6
			c0,0.4,0.2,0.5,0.6,0.5c0.3,0,0.5,0.1,0.5,0.4c0,0.3-0.3,0.3-0.5,0.3c-0.8,0-1.6,0-2.4,0c-0.2,0-0.5,0-0.5-0.3
			c0-0.3,0.2-0.5,0.4-0.4c0.8,0.1,0.8-0.4,0.8-0.9c0-2.3,0-4.6,0-6.9c0-0.6-0.1-0.9-0.7-0.9c-0.2,0-0.5,0-0.5-0.3
			c0-0.4,0.3-0.3,0.5-0.3c1.9-0.2,1.9-0.2,1.9,1.7V45.8z"/>
		<path class="st6" d="M120.2,45.7c0.5-0.2,1-0.4,1.6-0.6c1.6-0.4,2.6,0.5,2.6,2.1c0,1,0,2.1,0,3.1c0,0.5-0.1,1,0.7,0.9
			c0.2,0,0.4,0.1,0.4,0.3c0,0.3-0.1,0.4-0.4,0.4c-0.8,0-1.7,0-2.5,0c-0.2,0-0.4-0.1-0.4-0.3c0-0.3,0.1-0.5,0.4-0.5
			c0.8,0.1,0.8-0.4,0.8-0.9c0-1,0-1.9,0-2.9c0-0.9-0.4-1.4-1.2-1.5c-1-0.1-1.8,0.6-1.8,1.6c0,0.9,0,1.8,0,2.7c0,0.5-0.2,1.2,0.8,1.1
			c0.2,0,0.3,0.1,0.3,0.3c0,0.2,0,0.4-0.3,0.4c-0.9,0-1.7,0-2.6,0c-0.3,0-0.3-0.2-0.3-0.4c0-0.3,0.1-0.4,0.4-0.3
			c0.6,0.1,0.7-0.3,0.7-0.8c0-2.4,0-4.8,0-7.1c0-0.5,0-0.9-0.7-0.8c-0.2,0-0.4-0.1-0.4-0.3c0-0.3,0.2-0.3,0.4-0.3c0,0,0.1,0,0.1,0
			c1.7-0.2,1.7-0.2,1.7,1.5c0,0.7,0,1.4,0,2.1C120.2,45.5,120.2,45.6,120.2,45.7z"/>
		<path class="st6" d="M196.7,51.6c0,0.4,0,0.8,0,1.3c-0.1,0.9,0,1.5,1.1,1.3c0.2,0,0.5,0,0.5,0.3c0,0.4-0.2,0.4-0.5,0.4
			c-0.9,0-1.9,0-2.8,0c-0.2,0-0.5,0-0.5-0.3c0-0.3,0.1-0.4,0.4-0.4c0.6,0.1,0.6-0.3,0.6-0.7c0-2.2,0-4.5,0-6.7c0-0.5,0-0.8-0.6-0.7
			c-0.3,0-0.4-0.1-0.4-0.4c0-0.4,0.3-0.5,0.5-0.4c0.6,0.2,1.4-0.6,1.8,0.5c0,0.1,0.3-0.1,0.5-0.2c2.2-1.1,4-0.1,4.1,2.4
			c0,1.1,0,2.2-0.7,3.1C199.7,52.4,198.2,52.3,196.7,51.6z"/>
		<path class="st6" d="M137.2,47.3c0-0.5-0.1-1.1,0-1.6c0.5-2.7,2.6-3.9,5.4-3.1c0.2,0.1,0.4,0.3,0.7,0.2c1.2-0.4,1.2-0.4,1.2,0.8
			c0,0.5,0,1.1,0,1.6c0,0.4,0,0.7-0.5,0.7c-0.5,0-0.5-0.3-0.5-0.6c-0.1-1.4-0.5-1.9-1.4-2.1c-1.6-0.2-2.6,0.2-3.1,1.6
			c-0.6,1.7-0.5,3.4-0.1,5c0.3,1.2,1.1,1.6,2.6,1.5c1.1-0.1,1.8-0.6,1.9-1.8c0.1-0.8,0.5-0.7,1-0.6c0.6,0.1,0.3,0.6,0.3,0.9
			c-0.2,0.7-0.4,1.4-1.1,1.8c-3.2,1.8-6.2,0-6.2-3.6L137.2,47.3L137.2,47.3z"/>
		<path class="st5" d="M213,45.9c0.4-0.4,0.9-0.6,1.5-0.7c1.4-0.3,2.7,0.5,3,1.9c0.2,0.8,0.2,1.6,0.1,2.5c-0.4,2.2-2.4,3.2-4.4,2.2
			c-0.4-0.2-0.6-0.4-0.9,0.1c-0.1,0.1-0.2,0.2-0.3,0.2s-0.3,0-0.4-0.1c-0.3-0.2-0.1-0.4,0-0.6c0.2-0.7,0.3-1.4,0.3-2.2
			c0-1.8,0-3.6,0-5.4c0-0.6,0.2-1.3-0.9-1.2c-0.2,0-0.3-0.1-0.3-0.3c0,0,0-0.1,0-0.1c0,0,0-0.1,0.1-0.1c0,0,0.1-0.1,0.1-0.1
			c0,0,0.1,0,0.1,0c0.1,0,0.1,0,0.2,0c1.8-0.2,1.8-0.2,1.8,1.7L213,45.9z"/>
		<path class="st6" d="M175.1,25.6c1,0.1,2.2-0.1,3.5-0.1c0.6,0,0.9,0.1,0.8,0.7c0,0.5,0,0.9,0.1,1.4c0,0.3,0,0.6-0.4,0.6
			c-0.4,0-0.6-0.1-0.6-0.5c0.1-1-0.4-1.3-1.4-1.3c-2.4,0-2.4,0-2.4,2.4c0,0.4-0.2,0.9,0.5,0.8c0.5-0.1,1.4,0.5,1.4-0.6
			c0-0.4,0.2-0.4,0.5-0.4c0.4,0,0.4,0.2,0.4,0.5c0,0.7,0,1.5,0,2.2c0,0.4-0.1,0.5-0.5,0.5c-0.4,0-0.5-0.2-0.4-0.5
			c0.2-1.3-0.8-0.7-1.3-0.8c-0.8-0.1-0.6,0.5-0.6,0.9c0,0.7,0,1.3,0,2c-0.1,0.7,0.2,0.9,0.9,0.9c0.4,0,1.2-0.4,1.2,0.4
			c0,0.8-0.8,0.3-1.2,0.4c-0.9,0.1-1.7,0-2.6,0c-0.3,0-0.6,0-0.7-0.4c-0.1-0.5,0.3-0.4,0.6-0.4c0.5,0.1,0.6-0.2,0.6-0.7
			c0-2.2,0-4.5,0-6.7c0-0.5-0.1-0.7-0.7-0.7c-0.3,0-0.6,0-0.5-0.4c0-0.3,0.3-0.3,0.5-0.3C173.4,25.6,174.1,25.6,175.1,25.6z"/>
		<path class="st6" d="M218.8,31.8c0,0.5,0,1.1,0,1.6s-0.1,1.1,0.8,1c0,0,0.1,0,0.2,0c0,0,0.1,0,0.1,0.1c0,0,0.1,0.1,0.1,0.1
			c0,0,0,0.1,0,0.1c0,0.3-0.2,0.4-0.4,0.4c-0.8,0-1.7,0-2.5,0c-0.3,0-0.4-0.1-0.4-0.4c0-0.3,0.1-0.4,0.4-0.4
			c0.6,0.1,0.6-0.3,0.6-0.7c0-1.1,0-2.1,0-3.2c0-0.9-0.3-1.4-1.2-1.4c-0.9,0-1.8,0.6-1.8,1.3c-0.1,1.1,0,2.3,0,3.4
			c0,0.5,0.2,0.7,0.7,0.6c0.2,0,0.5,0,0.5,0.4c0,0.1,0,0.1,0,0.2c0,0.1-0.1,0.1-0.1,0.1c0,0-0.1,0.1-0.2,0.1s-0.1,0-0.2,0
			c-0.8,0-1.7,0-2.5,0c-0.3,0-0.4-0.2-0.4-0.4c0-0.3,0.1-0.4,0.4-0.3c0.7,0.1,0.7-0.3,0.7-0.8c0-1.3,0-2.5,0-3.8
			c0-0.5,0-0.9-0.7-0.8c-0.2,0-0.4-0.1-0.4-0.3c0-0.2,0.1-0.3,0.3-0.3c0.6,0.2,1.4-0.5,1.9,0.4c0.1,0.2,0.3,0,0.4-0.1
			c0.6-0.5,1.3-0.5,2.1-0.5c1.1,0,1.7,0.7,1.7,1.8C218.8,30.6,218.8,31.2,218.8,31.8z"/>
		<path class="st6" d="M119.9,31.8c0,0.5,0,1,0,1.5c0,0.6-0.1,1.2,0.8,1c0.2,0,0.3,0.2,0.3,0.4c0,0.1,0,0.1,0,0.1
			c0,0-0.1,0.1-0.1,0.1c0,0-0.1,0.1-0.1,0.1c0,0-0.1,0-0.2,0c-0.8,0-1.7,0-2.5,0c-0.3,0-0.4-0.1-0.4-0.4c0-0.3,0.2-0.4,0.4-0.4
			c0.6,0.1,0.6-0.3,0.6-0.7c0-1,0-2.1,0-3.1c0-0.8-0.2-1.4-1.2-1.5c-1-0.1-1.9,0.5-2,1.4c-0.1,1.1,0,2.2,0,3.3
			c0,0.5,0.3,0.6,0.7,0.6c0.2,0,0.5,0,0.5,0.3c0,0.1,0,0.1,0,0.2c0,0.1-0.1,0.1-0.1,0.1c0,0-0.1,0.1-0.1,0.1c-0.1,0-0.1,0-0.2,0
			c-0.8,0-1.7,0-2.5,0c-0.3,0-0.4-0.1-0.4-0.4c0-0.3,0.2-0.4,0.4-0.4c0.6,0.1,0.6-0.3,0.6-0.7c0-1.3,0-2.6,0-3.9
			c0-0.5-0.1-0.8-0.6-0.7c-0.2,0-0.4,0-0.4-0.3c0-0.4,0.3-0.4,0.5-0.3c0.6,0.2,1.4-0.6,1.8,0.5c0.2,0,0.3,0,0.4-0.1
			c0.6-0.5,1.2-0.5,1.9-0.5c1.3,0,1.9,0.6,1.9,1.9C119.9,30.7,119.9,31.2,119.9,31.8z"/>
		<path class="st6" d="M248.3,31.8c0,0.5,0,1,0,1.5c0,0.5-0.1,1.1,0.8,1c0.2,0,0.4,0.1,0.4,0.4s-0.2,0.4-0.4,0.4
			c-0.6-0.1-1.4,0.5-1.9-0.4c-0.1-0.3-0.3-0.1-0.5,0c-0.6,0.4-1.2,0.5-1.9,0.4c-1.2,0-1.7-0.4-1.9-1.5c-0.2-1,0.3-2,1.3-2.3
			c0.7-0.2,1.4-0.3,2.2-0.3c0.6,0.1,0.7-0.1,0.7-0.7c0-0.9-0.3-1.5-1.2-1.7c-0.8-0.1-1.4,0.2-1.5,1.2c-0.1,0.6-0.5,0.3-0.8,0.4
			c-0.4,0-0.4-0.2-0.4-0.5c0-0.2,0-0.3,0.1-0.5c0.3-0.9,1.5-1.3,3.3-1.1c1,0.1,1.6,0.7,1.6,1.7C248.4,30.5,248.3,31.2,248.3,31.8z"
			/>
		<path class="st6" d="M208.8,48.2c0,0.6,0,1.3,0,1.9c0,0.6-0.2,1.2,0.8,1.1c0.2,0,0.3,0.2,0.3,0.3c0,0.1-0.1,0.3-0.1,0.3
			c-0.6,0.1-1.4,0.3-1.9-0.1c-0.3-0.3-0.4-0.3-0.7-0.1c-0.5,0.3-1.1,0.5-1.7,0.4c-1.3,0-2-0.7-2.1-2.1c0-1.1,0-2.2,0-3.3
			c0-0.4,0-0.8-0.6-0.7c-0.3,0-0.5-0.2-0.4-0.5c0-0.4,0.3-0.2,0.5-0.2c1.7-0.1,1.7-0.1,1.7,1.6c0,1,0,2,0,3c0,1,0.5,1.5,1.3,1.5
			c1,0,1.7-0.6,1.8-1.5c0-0.9,0-1.7,0-2.6c0-0.5,0.3-1.3-0.8-1.2c-0.3,0-0.3-0.2-0.3-0.4c0-0.2,0.1-0.3,0.3-0.3c0,0,0.1,0,0.1,0
			c1.6-0.3,1.8-0.1,1.8,1.5L208.8,48.2z"/>
		<path class="st6" d="M155.9,52.1c-2.6,0-3.4-1.5-3.1-3.8c0.4-2.6,2-3.7,4.3-3c1.2,0.3,2.1,2.2,1.6,3.3c-0.1,0.3-0.4,0.2-0.6,0.2
			c-1.1,0-2.1,0.1-3.2,0c-0.8-0.1-0.9,0.3-0.8,0.9c0.2,1.3,1,2.1,2.1,1.8c0.5-0.1,1-0.4,1.1-1c0.1-0.7,0.7-0.6,1.1-0.5
			c0.6,0.2,0.1,0.7,0,1C158,51.7,157.1,52.1,155.9,52.1z"/>
		<path class="st6" d="M196.8,31.8c-0.3,0-0.5,0-0.8,0c-0.5,0.1-1.2-0.4-1.5,0.3c-0.2,0.5,0.4,1.9,0.9,2.2c0.7,0.4,1.4,0.3,2-0.3
			c0.2-0.2,0.3-0.4,0.4-0.7c0.2-0.7,0.7-0.4,1-0.3c0.4,0.1,0.3,0.5,0.1,0.8c-0.2,0.3-0.3,0.5-0.6,0.7c-1.1,0.9-2.4,0.7-3.6,0.4
			c-1.1-0.3-1.5-1.3-1.5-2.4c0-0.9,0-1.8,0.4-2.7c0.5-1.3,2.5-1.8,4-1.4c1,0.3,1.8,1.7,1.6,3c0,0.4-0.2,0.5-0.6,0.5
			C198,31.8,197.4,31.8,196.8,31.8z"/>
		<path class="st6" d="M158.6,35.1c-2.2,0-3-0.9-3-3.3c0-2.4,1.1-3.6,3.2-3.6c2.6,0,3.2,1.3,3.1,3.4C162,33.5,161.5,35.3,158.6,35.1
			z"/>
		<path class="st6" d="M126.4,48.8c0-3.4,2.4-4.1,4.4-3.5c1.1,0.3,2,2.1,1.6,3.2c-0.1,0.4-0.4,0.3-0.7,0.3c-1,0-2,0.1-3,0
			c-0.8-0.1-1.1,0.1-0.9,1c0.3,1.2,0.8,1.8,1.8,1.7c0.7,0,1.2-0.3,1.4-0.9c0.1-0.4,0.2-0.7,0.7-0.6c0.2,0,0.5-0.1,0.6,0.2
			c0,0.2,0,0.4,0,0.5c-0.1,0.2-0.1,0.3-0.3,0.5c-1,1.1-2.3,1.1-3.6,0.8c-1.2-0.2-1.7-1-1.8-2.2C126.5,49.4,126.4,49.1,126.4,48.8z"
			/>
		<path class="st5" d="M148.5,33.9c0.6-1.5,1.1-2.8,1.6-4.1c0.2-0.5,0.3-0.8-0.4-0.8c-0.2,0-0.5,0.1-0.5-0.3c0-0.4,0.3-0.3,0.5-0.3
			c0.5,0,1.1,0,1.6,0c0.2,0,0.4-0.1,0.5,0.2c0,0.2,0,0.4-0.3,0.4c-0.5,0.1-0.5,0.5-0.6,0.8c-0.9,2.2-1.6,4.4-2.7,6.6
			c-0.5,1.1-1.2,1.8-2.6,1.7c-0.3,0-0.7,0.2-0.6-0.3c0.1-0.4,0.1-0.9,0.8-0.7c0.8,0.2,1.4,0,1.7-0.8c0.1-0.2,0.2-0.4,0.2-0.6
			c0-0.2,0-0.5-0.1-0.7c-0.7-1.7-1.3-3.5-2-5.2c-0.1-0.1-0.1-0.3-0.2-0.5c-0.1-0.3-0.8-0.2-0.5-0.7c0.2-0.4,0.7-0.2,1-0.2
			c0.5,0,1,0,1.5,0c0.2,0,0.4,0,0.4,0.3c0,0.3-0.2,0.4-0.4,0.4c-0.7-0.1-0.7,0.2-0.5,0.8C147.4,31,147.9,32.4,148.5,33.9z"/>
		<path class="st6" d="M191.1,48.7c-0.3,0-0.5,0-0.8,0c-0.5,0.1-1.2-0.3-1.4,0.2c-0.3,0.6,0,1.3,0.4,1.9c0.7,1,2.3,0.9,2.7-0.2
			c0.2-0.4,0.2-0.9,0.8-0.8c0.2,0,0.4,0,0.4,0.3c0,0.2,0,0.5-0.1,0.7c-0.1,0.2-0.2,0.4-0.4,0.6c-1.1,0.9-2.3,0.8-3.5,0.5
			c-1.1-0.3-1.6-1.1-1.7-2.2c-0.5-3.5,1.5-5.2,4.3-4.5c1.2,0.3,2.1,2.2,1.7,3.3c-0.1,0.3-0.4,0.2-0.6,0.2
			C192.3,48.7,191.7,48.7,191.1,48.7z"/>
		<path class="st6" d="M182.7,35.1c-2.2,0-3.1-0.9-3.1-3.3c0-2.4,1.1-3.6,3.3-3.6c2.2,0,3.1,1,3.1,3.3C185.9,34,185,35.1,182.7,35.1
			z"/>
		<path class="st6" d="M102.7,48.5c0.1,3.6-2.6,4.1-5,3.3c-0.3-0.1-0.5-0.3-0.7-0.5c-0.2-0.2-0.3-0.5-0.4-0.7
			c-0.4-1.1-0.4-2.2,0-3.3c0.5-1.6,1.9-2.4,3.6-2.1C102.1,45.4,102.7,46.2,102.7,48.5z"/>
		<path class="st6" d="M45.2,26.7c0,2.6-1.6,4.3-3.4,5.8c-1,0.9-2.1,1.7-3,2.7c-1.2,1.4-1.3,3-0.8,4.7c0.1,0.4,0.5,0.8-0.2,1
			c-0.6,0.2-0.6-0.4-0.7-0.7c-1.2-3.5,0.6-5.6,3.1-7.6c1-0.7,1.9-1.5,2.7-2.4c1.5-1.8,1.7-3.7,0.9-5.8c-0.1-0.3-0.2-0.5-0.3-0.7
			c-0.2-0.3-0.1-0.5,0.2-0.6c0.4-0.2,0.5-0.1,0.7,0.3C44.9,24.4,45.1,25.5,45.2,26.7z"/>
		<path class="st7" d="M147.5,51.3c0.8,0,1.4,0,2,0c0.6,0,1.1-0.2,1-0.9c-0.1-0.4,0.2-0.6,0.6-0.6c0.5,0,0.4,0.3,0.4,0.7
			c-0.1,1.5-0.1,1.5-1.7,1.5c-1,0-1.9,0-2.9,0c-0.3,0-0.7,0.2-0.8-0.1c-0.2-0.4,0.2-0.6,0.3-0.9c1-1.5,2.1-3,3.1-4.5
			c0.1-0.2,0.2-0.3,0.4-0.6c-0.7,0-1.3,0-1.8,0c-0.6,0-1.1,0.3-1,1c0,0.4,0,0.6-0.5,0.6c-0.4,0-0.5-0.2-0.5-0.6
			c-0.1-1.7-0.1-1.7,1.5-1.7c1.1,0,2.2,0,3.3,0c0.2,0,0.5-0.1,0.6,0.1c0.1,0.2-0.1,0.4-0.2,0.6L147.5,51.3z"/>
		<path class="st7" d="M129,35.1c-1,0-2,0-2.4-1.2c-0.1-0.4-0.3-0.8,0.3-0.9c0.4-0.1,0.9-0.1,0.9,0.6c0,0.7,0.6,0.9,1.1,0.9
			c0.6,0,1.2,0,1.6-0.6c0.3-0.6,0.3-1.1-0.4-1.4c-0.6-0.2-1.3-0.4-1.9-0.7c-1-0.4-1.6-1.1-1.6-2c0.1-0.9,0.8-1.6,1.9-1.7
			c0.7-0.1,1.5-0.1,2.2,0.1c0.6,0.2,1,0.5,0.9,1.2c0,0.2,0.1,0.6-0.3,0.5c-0.3,0-0.7,0.2-0.8-0.4c-0.2-0.9-1.5-1.3-2.2-0.7
			c-0.5,0.4-0.4,1.3,0.2,1.6c0.6,0.3,1.2,0.4,1.8,0.6c1.2,0.4,1.7,1.2,1.5,2.2c-0.2,0.9-1,1.5-2.2,1.5
			C129.5,35.1,129.2,35.1,129,35.1z"/>
		<path class="st6" d="M263.6,35.1c-0.6,0-1.3,0-1.9-0.5c-0.4-0.4-0.4-0.8-0.3-1.3c0.1-0.4,0.4-0.3,0.6-0.3c0.4,0,0.5,0.1,0.6,0.5
			c0,0.3,0.1,0.5,0.3,0.7c0.2,0.2,0.4,0.3,0.7,0.3c0.6,0.1,1.2,0,1.7-0.4c0.5-0.5,0.2-1.4-0.5-1.7c-0.7-0.3-1.6-0.4-2.3-0.8
			c-0.7-0.4-0.8-1-0.8-1.7c0-0.3,0.1-0.6,0.2-0.8c0.2-0.2,0.4-0.4,0.7-0.5c1-0.4,2.1-0.4,3.1-0.1c0.2,0.1,0.5,0.2,0.6,0.4
			c0.2,0.2,0.3,0.4,0.3,0.7c0,0.3,0.2,0.7-0.3,0.7c-0.3,0-0.8,0.3-0.9-0.4c-0.1-0.6-0.5-0.8-1-0.9c-0.7,0-1.4,0-1.6,0.8
			c-0.2,0.8,0.4,1,1,1.2c0.4,0.1,0.8,0.2,1.2,0.4c1.4,0.5,1.8,1.3,1.6,2.5c-0.2,0.8-1,1.3-2.3,1.4L263.6,35.1z"/>
		<path class="st6" d="M164.7,35.1c-0.4,0-0.9,0-1.3,0c-0.1,0-0.1,0-0.2,0c-0.1,0-0.1,0-0.2-0.1c0,0-0.1-0.1-0.1-0.1
			c0-0.1,0-0.1,0-0.2c0-0.4,0.2-0.4,0.5-0.4c0.7,0.1,0.7-0.3,0.7-0.9c0-1.1,0-2.3,0-3.4c0-0.6,0.2-1.3-0.8-1.1c0,0-0.1,0-0.1,0
			c0,0-0.1,0-0.1-0.1c0,0-0.1-0.1-0.1-0.1c0,0,0-0.1,0-0.1c0-0.3,0.1-0.4,0.4-0.3c0.9,0.1,0.8-0.5,0.8-1.1c0-2,0.9-2.8,2.9-2.4
			c0.6,0.1,1,0.5,1.1,1.1c0.1,0.3,0.2,0.7-0.4,0.8c-0.4,0-0.9,0.2-0.8-0.5c0-0.1,0-0.2,0-0.3c0-0.1-0.1-0.2-0.2-0.3
			c-0.1-0.1-0.2-0.1-0.3-0.2c-0.1,0-0.2,0-0.3,0c-0.5,0-1,0.3-0.9,1c0.1,0.5,0.1,1.1,0.2,1.6c0.1,0.6,0.5,0.3,0.8,0.3
			c0.2,0.1,0.5-0.1,0.5,0.3c0,0.4-0.3,0.4-0.5,0.3c-0.7-0.1-0.8,0.2-0.8,0.8c0,1.2,0,2.5,0,3.7c0,0.5,0,0.9,0.7,0.8
			c0.2,0,0.6-0.1,0.5,0.4c0,0.4-0.3,0.4-0.6,0.4C165.6,35.1,165.1,35.1,164.7,35.1z"/>
		<path class="st6" d="M105.5,52h-1.3c-0.3,0-0.6,0-0.5-0.4c0-0.3,0.2-0.4,0.5-0.4c0.6,0.1,0.7-0.3,0.7-0.8c0-1.2,0-2.5,0-3.7
			c0-0.4,0-0.8-0.6-0.7c-0.3,0-0.5-0.1-0.5-0.4c0-0.4,0.3-0.4,0.5-0.4c0.6,0.1,0.7-0.2,0.6-0.7c0-0.2,0-0.4,0-0.6
			c0-1.8,1.6-2.8,3.3-2c0.2,0.1,0.4,0.3,0.6,0.5s0.2,0.5,0.2,0.7c0,0.4-0.1,0.6-0.5,0.5c-0.3,0-0.7,0.2-0.7-0.4
			c0-0.7-0.4-0.9-1.1-0.8c-0.7,0.1-0.8,0.5-0.8,1.1c0.1,0.3,0.1,0.7,0.1,1c-0.1,0.6,0.1,0.9,0.8,0.8c0.2,0,0.7-0.2,0.7,0.3
			c0,0.4-0.3,0.5-0.6,0.5c-0.8-0.1-0.9,0.3-0.8,0.9c0,1.1,0,2.3,0,3.4c0,0.6,0.1,1,0.8,0.9c0.3,0,0.5,0,0.5,0.4
			c0,0.4-0.3,0.3-0.6,0.3C106.3,52,105.9,52,105.5,52z"/>
		<path class="st6" d="M33.4,37.5c-0.1-2.8,1.8-4.1,3.9-5.3c1.2-0.7,2.5-1.2,3.4-2.2c1.2-1.2,1.8-2.5,1.4-4.2
			c-0.1-0.2-0.4-0.7,0.3-0.7c0.5-0.1,0.6,0.2,0.7,0.6c0.4,2.1-0.6,4.3-2.6,5.7c-1.4,0.9-2.9,1.7-4.2,2.7c-1.7,1.3-2.2,2.9-1.8,4.9
			c0.1,0.4,0.9,1.2-0.2,1.4c-0.7,0.1-0.5-0.8-0.7-1.2C33.6,38.4,33.5,37.9,33.4,37.5z"/>
		<path class="st6" d="M41.3,27.1c-0.4,2-1.8,3.2-3.6,3.9c-0.9,0.3-1.8,0.5-2.7,0.8c-3.1,1-4.1,2.7-3.3,5.9c0.1,0.3,0.4,0.7-0.3,0.9
			c-0.7,0.2-0.6-0.4-0.7-0.7c-0.9-3.4,0.5-5.9,3.9-6.9c0.9-0.3,1.7-0.5,2.6-0.8c1.6-0.5,2.8-1.5,3.2-3.3c0.1-0.4,0.2-0.6,0.7-0.5
			C41.5,26.4,41.3,26.7,41.3,27.1z"/>
		<path class="st7" d="M161.4,48.7c0,0.6,0,1.1,0.1,1.7c0.2,0.7,0.6,1.1,1.4,1.1c0.7,0,1.3-0.2,1.5-1c0.2-0.7,0.7-0.8,1.1-0.6
			c0.6,0.3,0.1,0.8-0.1,1.2c-0.5,0.9-2,1.2-3.5,0.9c-1-0.3-1.7-1.1-1.8-2.3c0-0.6,0-1.1,0-1.7c0.2-2.3,2.6-3.6,4.7-2.5
			c0.5,0.3,0.7,0.7,0.8,1.2c0.1,0.2,0.2,0.6-0.2,0.6c-0.3,0-0.8,0.4-1-0.3c-0.2-0.9-0.8-1.3-1.7-1.2c-1,0.1-1.2,0.8-1.4,1.6
			C161.4,47.8,161.4,48.2,161.4,48.7z"/>
		<path class="st7" d="M189.2,32c0,0.4,0,0.9,0,1.3c-0.1,0.7,0.1,1.2,0.9,1c0.3,0,0.6-0.1,0.6,0.3c0,0.4-0.3,0.4-0.6,0.4
			c-0.9,0-1.7,0-2.6,0c-0.3,0-0.6,0-0.6-0.4c0-0.4,0.3-0.3,0.6-0.3c0.6,0,0.6-0.3,0.6-0.8c0-1.2,0-2.5,0-3.7c0-0.5,0-0.9-0.7-0.9
			c-0.2,0-0.5,0-0.5-0.4c0-0.4,0.3-0.3,0.5-0.3c0.6,0.2,1.4-0.5,1.9,0.4c0.1,0.2,0.4-0.2,0.6-0.3c0.6-0.3,1.3-0.4,1.9,0
			c0.5,0.3,0.6,0.9,0.5,1.4c-0.1,0.4-0.3,0.5-0.6,0.5c-0.3,0-0.6,0-0.6-0.4c0-0.5-0.2-0.9-0.8-0.7c-0.6,0.1-1,0.4-1,1.1
			C189.2,30.8,189.2,31.4,189.2,32L189.2,32z"/>
		<path class="st7" d="M228.6,48.9c0,0.5,0,1,0.1,1.4c0.2,0.7,0.6,1,1.3,1.1c0.3,0,0.6,0,0.9-0.2c0.3-0.2,0.5-0.4,0.6-0.7
			c0.1-0.1,0.1-0.3,0.2-0.5c0.2-0.5,0.6-0.3,0.9-0.2c0.4,0.1,0.2,0.4,0.2,0.6c-0.2,0.9-0.8,1.3-1.6,1.4c-2.2,0.4-4-0.2-3.9-3
			c0-0.4,0-0.9,0-1.3c0.3-2.2,3-3.4,4.8-2.2c0.4,0.3,0.6,0.7,0.7,1.2c0.1,0.2,0.2,0.6-0.2,0.6c-0.3,0-0.8,0.3-0.9-0.3
			c-0.2-1-0.9-1.4-1.8-1.2c-1,0.2-1.1,1-1.3,1.8C228.5,47.9,228.6,48.3,228.6,48.9z"/>
		<path class="st7" d="M140.5,35.1c-0.5,0-0.9,0-1.4,0c-0.3,0-0.4-0.1-0.5-0.4c0-0.3,0.2-0.4,0.4-0.4c0.7,0.1,0.7-0.3,0.7-0.9
			c0-1.2,0-2.5,0-3.7c0-0.5-0.1-0.9-0.7-0.8c-0.2,0-0.5,0-0.4-0.4c0-0.3,0.3-0.3,0.5-0.3c0.6,0.2,1.3-0.4,1.9,0.3
			c0.2,0.2,0.5-0.3,0.8-0.3c0.6-0.2,1.2-0.4,1.8,0.1c0.4,0.4,0.5,0.9,0.4,1.4c-0.1,0.4-0.3,0.4-0.5,0.4c-0.3,0-0.6,0.1-0.7-0.4
			c0-0.5-0.2-1-0.8-0.8c-0.6,0.1-1.1,0.6-1,1.3c0.1,1,0.1,2.1,0,3.1c0,0.6,0.1,0.9,0.8,0.8c0.3,0,0.6-0.1,0.6,0.4
			c0,0.5-0.4,0.4-0.7,0.4C141.3,35.1,140.9,35.1,140.5,35.1z"/>
		<path class="st8" d="M220.8,46.6c0,1.3,0,2.6,0,3.9c0,0.4,0,0.8,0.6,0.7c0.3,0,0.4,0.1,0.4,0.4c0,0.3-0.2,0.4-0.5,0.4
			c-0.8,0-1.6,0-2.4,0c-0.2,0-0.5,0.1-0.5-0.3c0-0.4,0.1-0.5,0.5-0.5c0.7,0.1,0.7-0.3,0.7-0.9c0-2.3,0-4.6,0-6.9
			c0-0.6-0.1-1-0.8-0.9c-0.2,0-0.4,0-0.4-0.3c0-0.3,0.2-0.4,0.5-0.4c0.1,0,0.1,0,0.2,0c1.7-0.1,1.7-0.1,1.7,1.6V46.6z"/>
		<path class="st7" d="M257.2,32c0,0.4,0,0.9,0,1.3c-0.1,0.7,0.1,1.2,1,1c0.2,0,0.6-0.1,0.6,0.3c0,0.4-0.2,0.4-0.5,0.4
			c-0.9,0-1.8,0-2.7,0c-0.3,0-0.5-0.1-0.5-0.4c0-0.4,0.2-0.4,0.5-0.3c0.5,0.1,0.6-0.2,0.6-0.7c0-1.3,0-2.5,0-3.8
			c0-0.5,0.1-1-0.7-0.9c-0.2,0-0.4-0.1-0.4-0.4c0-0.3,0.2-0.3,0.4-0.3c0.6,0.2,1.4-0.5,1.9,0.4c0.1,0.2,0.3-0.1,0.5-0.2
			c0.2-0.2,0.5-0.3,0.8-0.4c0.3-0.1,0.6,0,0.9,0c0.9,0.2,0.9,1,0.8,1.7c0,0.6-0.5,0.3-0.8,0.4c-0.3,0.1-0.4-0.1-0.4-0.4
			c0-0.5-0.1-0.8-0.7-0.8c-0.6,0-0.9,0.3-1,0.8C257,30.6,257.2,31.4,257.2,32z"/>
		<path class="st6" d="M113.4,48.3c0-0.4,0-0.8,0-1.2c0-0.6,0.2-1.3-0.8-1.1c-0.2,0-0.3-0.2-0.3-0.4c0-0.3,0.1-0.3,0.4-0.4
			c0.8,0,1-0.6,1.1-1.3c0-0.4,0-0.7,0.5-0.7c0.6,0,0.4,0.4,0.4,0.7c-0.2,1.1,0.3,1.4,1.3,1.3c0.3,0,0.8-0.3,0.9,0.3
			c0.1,0.7-0.5,0.5-0.9,0.5c-1.3,0-1.3,0-1.3,1.4c0,0.8,0,1.5,0,2.3c0,1.2,0.3,1.5,1.5,1.5c0.3,0,0.8-0.3,0.9,0.3
			c0.1,0.6-0.5,0.4-0.8,0.5c-0.2,0-0.3,0.1-0.5,0.1c-1.6,0.1-2.2-0.4-2.3-2C113.4,49.5,113.4,48.9,113.4,48.3z"/>
		<path class="st7" d="M136,35.1c-1.6,0-1.9-0.3-1.9-1.9c0-1,0-2.1,0-3.1c0-0.6,0.1-1.3-0.9-1.1c0,0-0.1,0-0.1,0c0,0-0.1,0-0.1-0.1
			c0,0-0.1-0.1-0.1-0.1c0,0,0-0.1,0-0.1c0-0.3,0.1-0.3,0.3-0.4c0.7-0.1,1-0.6,1-1.3c0-0.3,0.1-0.7,0.6-0.6c0.5,0,0.5,0.4,0.4,0.7
			c-0.2,1.1,0.3,1.4,1.3,1.3c0.2,0,0.8-0.3,0.7,0.3c0,0.5-0.5,0.3-0.7,0.3c-1.3,0.1-1.3,0-1.3,1.4c0,0.9,0.1,1.7,0,2.6
			c-0.1,1,0.5,1.3,1.3,1.3c0.3,0,1-0.3,1,0.3c0,0.6-0.6,0.4-1,0.5C136.4,35.1,136.2,35.1,136,35.1z"/>
		<path class="st9" d="M111.2,31.3c0,0.7,0,1.4,0,2.1c0,0.6,0,1,0.8,0.9c0.2,0,0.4,0,0.4,0.3c0,0.3-0.1,0.5-0.4,0.5
			c-0.9,0-1.8,0-2.7,0c-0.3,0-0.3-0.2-0.3-0.4c0,0,0-0.1,0-0.2s0-0.1,0.1-0.1c0,0,0.1-0.1,0.1-0.1c0,0,0.1,0,0.2,0
			c0.8,0.1,0.7-0.4,0.7-0.9c0-1.2,0-2.4,0-3.6c0-0.5,0.1-1-0.7-0.9c-0.2,0-0.4-0.1-0.4-0.4c0-0.3,0.2-0.3,0.4-0.3c0,0,0.1,0,0.1,0
			c1.7-0.1,1.7-0.1,1.7,1.5L111.2,31.3z"/>
		<path class="st9" d="M225.2,48.2c0,0.6,0,1.2,0,1.8c0,0.6-0.3,1.4,0.8,1.3c0.2,0,0.2,0.2,0.2,0.4c0,0.2-0.1,0.4-0.4,0.4
			c-0.8,0-1.7,0-2.5,0c-0.1,0-0.1,0-0.1,0c0,0-0.1,0-0.1-0.1c0,0-0.1-0.1-0.1-0.1c0,0,0-0.1,0-0.1c0-0.3,0.1-0.5,0.4-0.4
			c0.7,0.1,0.7-0.3,0.7-0.8c0-1,0-2.1,0-3.1c0-0.6,0.4-1.4-0.8-1.3c-0.2,0-0.2-0.3-0.2-0.5c0-0.2,0.1-0.3,0.3-0.3c0.5,0,1,0,1.5,0
			c0.4,0,0.4,0.3,0.4,0.5C225.2,46.6,225.2,47.4,225.2,48.2z"/>
		<path class="st9" d="M252.8,31.3c0,0.6,0,1.2,0,1.8c0,0.6-0.2,1.4,0.9,1.2c0.2,0,0.3,0.2,0.3,0.3c0,0,0,0.1,0,0.1
			c0,0,0,0.1-0.1,0.1c0,0-0.1,0.1-0.1,0.1c0,0-0.1,0-0.1,0c-0.9,0-1.9,0-2.8,0c-0.3,0-0.3-0.2-0.3-0.5c0-0.3,0.2-0.3,0.4-0.3
			c0.7,0.1,0.7-0.3,0.6-0.8c0-1.3,0-2.5,0-3.8c0-0.4,0-0.8-0.6-0.8c-0.3,0-0.5,0-0.4-0.4c0-0.3,0.2-0.3,0.4-0.3c0,0,0.1,0,0.1,0
			c1.7-0.1,1.7-0.1,1.7,1.6L252.8,31.3z"/>
		<path class="st9" d="M202.5,31.3c0,0.6,0,1.2,0,1.8c0,0.6-0.3,1.4,0.8,1.2c0.2,0,0.3,0.2,0.3,0.3c0,0,0,0.1,0,0.1
			c0,0,0,0.1-0.1,0.1c0,0-0.1,0.1-0.1,0.1c0,0-0.1,0-0.1,0c-0.9,0-1.8,0-2.7,0c-0.3,0-0.3-0.2-0.3-0.4c0-0.3,0.2-0.4,0.4-0.3
			c0.7,0.1,0.7-0.3,0.7-0.8c0-1.3,0-2.5,0-3.8c0-0.4,0-0.8-0.6-0.8c-0.3,0-0.5,0-0.4-0.4c0-0.3,0.2-0.3,0.4-0.3h0.1
			c1.7-0.1,1.7-0.1,1.7,1.6L202.5,31.3z"/>
		<path class="st7" d="M124.3,31.4c0,0.6,0,1.2,0,1.8c0,0.6-0.2,1.4,0.9,1.2c0.2,0,0.3,0.1,0.3,0.3c0,0,0,0.1,0,0.1
			c0,0,0,0.1-0.1,0.1c0,0-0.1,0.1-0.1,0.1c0,0-0.1,0-0.1,0c-0.9,0-1.8,0-2.7,0c-0.3,0-0.3-0.2-0.3-0.4c0,0,0-0.1,0-0.1
			c0,0,0-0.1,0.1-0.1c0,0,0.1-0.1,0.1-0.1c0,0,0.1,0,0.2,0c0.7,0.1,0.7-0.4,0.7-0.9c0-1.2,0-2.5,0-3.7c0-0.5,0-0.9-0.7-0.8
			c-0.2,0-0.4,0-0.4-0.3s0.2-0.3,0.4-0.3c1.6-0.3,1.8-0.1,1.8,1.5L124.3,31.4z"/>
		<path class="st10" d="M40.6,20.3c0,0.1-0.1,0.2-0.1,0.2c-0.9-0.2-0.9,0.9-1.5,1.1c-0.4,0.1-0.8,0.1-1.1-0.2
			c-0.3-0.3-0.4-0.9-1-0.8c-0.1,0-0.3-0.3,0-0.5c0.6-0.5,2.9-0.6,3.5-0.1C40.5,20.1,40.6,20.1,40.6,20.3z"/>
		<path class="st11" d="M124.5,26.4c0,0.6-0.3,0.9-0.8,0.9c-0.2,0-0.4-0.1-0.6-0.3c-0.2-0.2-0.2-0.4-0.2-0.6c0-0.2,0.1-0.4,0.3-0.6
			c0.2-0.2,0.4-0.2,0.6-0.2C124.2,25.6,124.4,26,124.5,26.4z"/>
		<path class="st12" d="M111.4,26.4c-0.1,0.5-0.3,0.9-0.8,0.9c-0.1,0-0.2,0-0.3,0c-0.1,0-0.2-0.1-0.3-0.2c-0.1-0.1-0.1-0.2-0.2-0.3
			c0-0.1-0.1-0.2,0-0.3c0-0.6,0.3-0.8,0.8-0.8C111,25.6,111.3,26,111.4,26.4z"/>
		<path class="st13" d="M252.1,27.3c-0.4-0.1-0.8-0.3-0.8-0.9c0-0.6,0.3-0.8,0.8-0.8c0.5,0,0.7,0.3,0.8,0.8
			C252.9,26.9,252.6,27.2,252.1,27.3z"/>
		<path class="st12" d="M224.5,42.6c0.4-0.1,0.7,0.3,0.7,0.7c0,0.5-0.2,0.9-0.8,0.8c-0.5,0-0.9-0.2-0.9-0.8
			C223.6,43,223.9,42.6,224.5,42.6z"/>
		<path class="st13" d="M201.8,25.6c0.6,0.1,0.8,0.4,0.8,0.9c0,0.5-0.3,0.8-0.7,0.8c-0.5,0-0.8-0.3-0.8-0.8
			C201,25.9,201.3,25.7,201.8,25.6z"/>
		<path class="st14" d="M36.9,50.4c-2.2,0.4-4.4,0.6-6.6,0.5c-0.5,0-0.7,0.1-0.7,0.7c0.1,1,0,2-0.3,3c0,0.2-0.1,0.4,0,0.5
			c1,0.5,0.4,1,0.1,1.6c-0.5,0.8-1,1.6,0,2.5c0.4,0.4,0.2,0.7-0.3,0.9c-0.3,0.1-0.5,0.2-0.7,0.4c-0.7,0.8-0.9,0.8-1.6-0.1
			c-0.1-0.2-0.1-0.5-0.4-0.4c-0.4,0.1-0.7,0.3-0.4,0.8c0.6,0.8,0.1,0.9-0.6,0.8c-0.4-0.1-0.8-0.1-1.2,0.2c-0.3-1,0.1-1.7,0.7-2.3
			c0.3-0.3,0.4-0.5,0.1-0.8c-0.4-0.4-0.6,0-0.8,0.2c-0.3,0.3-0.5,0.6-0.8,0.9c-0.4-0.3-0.5-0.9-0.9-1.2c-0.4-0.2,0-0.4,0.1-0.5
			c0.5-0.4,1.1-0.7,1.7-0.8c0.3-0.1,0.5-0.1,0.5-0.5c0-0.3-0.1-0.5-0.4-0.5c-0.8,0.1-0.4-0.5-0.5-0.7c0-0.5,0.4-0.5,0.7-0.4
			c0.6,0.1,1.2,0.3,1.8,0.4c0.1-2.1-0.2-4.2-0.5-6.3c-0.2-1.2-0.1-1.5,1.1-1.8c2.2-0.5,4.4-1.1,6.6-1.8c0.3-0.1,1.1-0.5,0.7,0.5
			c0,0.1,0.2,0.3,0.3,0.5c0.5,0.7,0.9,1.4,0.8,2.4c-0.1,0.6,0.3,0.9,0.8,1.2C36.5,50.3,36.9,49.9,36.9,50.4z"/>
		<path class="st14" d="M52.7,47.2c-1.8-0.7-3-1.8-3.3-3.7c-0.3-2,0.3-3.8,1.9-5.1c2.4-2,2.8-2,5.2,0c2.8,2.3,2.9,6.3,0.2,8.2
			c-0.1,0.1-0.2,0.1-0.4,0.3c0-1.3-1-2-1.3-3.1c-0.1-0.3-0.4-0.2-0.6-0.1c-1.1,0.2-1.7,1-1.7,2.2C52.7,46.3,53,46.7,52.7,47.2z"/>
		<path class="st14" d="M31.3,29.6c-2.8,1.8-2.4,2-3.3,3.7c-1.2-0.9-2.3-1.9-3.2-3.2c-0.2-0.2-0.3-0.6-0.7-0.4c-0.7,0.3-1,0-1.2-0.7
			c-0.2-0.8-0.6-1.5-1-2.2c-0.4-0.6-0.6-0.4-0.9,0c-0.1,0.1-0.2,0.3-0.3,0.4c-0.4,0.4-0.9,1-1.3,0c-0.1-0.2-0.3-0.3-0.5-0.4
			c-0.7-0.4-0.8-0.8-0.1-1.3c0.5-0.3,0.5-0.6,0.3-1c-0.3-0.5-0.6,0-0.8,0.1c-0.3,0.2-0.5,0.3-0.7-0.1c0-0.1-0.2-0.2-0.2-0.3
			c-0.1-0.3-0.9-0.2-0.6-0.7c0.3-0.5,0.8-0.6,1.3-0.6c0.5,0,1,0.2,1.4,0.5c0.4,0.4,0.5,0.1,0.8-0.1c0.4-0.4,0-0.5-0.2-0.6
			c-0.3-0.2-0.6-0.4-0.9-0.6c0-0.1,0-0.1,0-0.2c1-1.2,1.4-1.2,2.4,0.1c0.2,0.2,0.2,0.7,0.7,0.5c0.4-0.1,0.5-0.3,0.4-0.7
			c-0.1-0.3,0.4-0.1,0.6-0.2c0.3-0.2,0.4,0.1,0.4,0.3c0.2,0.8,0.3,1.6-0.1,2.4c-0.3,0.7,0,0.9,0.6,1.2C26.7,27,29,28.2,31.3,29.6z"
			/>
		<path class="st15" d="M37.5,13.6c1.3,0.2,1.9,1,2.5,2c0.3-0.8,0.6-1.5,1.3-2c0.3-0.3,0.5-0.3,0.8,0c0.6,0.6,1,1.3,1.2,2
			c0.7-0.9,1.3-1.8,2.5-1.9c0,0.7-0.2,1.3-0.3,2c-0.1,0.4-0.4,0.5-0.7,0.5c-2,0-4.1,0-6.1,0c-0.4,0-0.6-0.1-0.7-0.5
			C37.8,15,37.6,14.3,37.5,13.6z"/>
		<path class="st16" d="M41.6,16.8c1,0,1.9,0,2.9,0c0.2,0,0.6-0.1,0.6,0.3c0,0.1,0,0.1,0,0.2c0,0.1-0.1,0.1-0.1,0.2
			c0,0-0.1,0.1-0.2,0.1c-0.1,0-0.1,0-0.2,0c-2,0-3.9,0-5.9,0c-0.1,0-0.1,0-0.2,0c-0.1,0-0.1,0-0.1-0.1c0,0-0.1-0.1-0.1-0.1
			c0-0.1,0-0.1,0-0.2c0-0.4,0.3-0.4,0.5-0.4C39.8,16.8,40.7,16.8,41.6,16.8z"/>
		<path class="st17" d="M29.9,23c1.3,1.8,3.1,1.2,4.8,1c1.3-0.1,2.7,0.1,3.9,0.7c-0.6,0.4-1,0.1-1.4,0c-1.8-0.2-3.6-0.3-5.5,0.1
			C30.5,25.1,29.8,24.4,29.9,23z"/>
		<path class="st18" d="M37.8,25.6c-1.3,0.7-2.8,0.6-3.4-0.3C35.6,25.1,36.7,25.3,37.8,25.6z"/>
		<path class="st19" d="M36.5,47.4c0.3,0.4,0.5,0.7,0.8,1.1c0.1,0.2,0.4,0.4,0.1,0.7c-0.1,0.1-0.2,0.1-0.3,0.2c-0.1,0-0.2,0-0.3,0
			c-0.1,0-0.1,0-0.2-0.1c-0.1,0-0.1-0.1-0.2-0.2c0-0.1-0.1-0.1-0.1-0.2s0-0.2,0-0.2c0.1-0.3,0.1-0.7,0-1
			C36.2,47.4,36.3,47.4,36.5,47.4z"/>
		<path class="st20" d="M29.5,61.4c-0.4-0.1-0.7,0-0.7-0.3c0-0.2,0.1-0.3,0.3-0.5c0.1-0.1,0.3-0.2,0.5-0.2c0.2,0,0.3,0.2,0.2,0.3
			C29.8,61.1,29.7,61.4,29.5,61.4z"/>
		<path class="st21" d="M39.6,72.2c-0.5-0.4-0.8-0.6-0.6-1c0.1-0.2,0.5-0.2,0.7,0C40.3,71.6,39.4,71.7,39.6,72.2z"/>
		<path class="st22" d="M36.8,66.5c-0.2-0.4-0.8-0.3-0.7-0.8c0-0.2,0.2-0.4,0.4-0.3C36.9,65.5,37,65.9,36.8,66.5z"/>
		<path class="st22" d="M14.6,41.9c0.1-0.3,0.1-0.8,0.6-0.8c0.2,0,0.4,0.4,0.3,0.6C15.4,42.2,15,42,14.6,41.9z"/>
		<path class="st23" d="M21.5,45.6c-0.1,0.2-0.2,0.5-0.4,0.6c-0.2,0-0.3,0-0.4-0.1c-0.1-0.1-0.2-0.2-0.2-0.4c0-0.3,0.4-0.3,0.6-0.4
			C21.2,45.1,21.4,45.2,21.5,45.6z"/>
		<path class="st24" d="M44.6,70.2c-0.2,0.3-0.1,0.8-0.6,0.8c-0.2,0-0.5-0.3-0.5-0.3C43.6,70.1,44,70.1,44.6,70.2z"/>
		<path class="st25" d="M21.6,59.9c0.1-0.4,0.1-0.8,0.4-0.9c0.3-0.1,0.5,0.3,0.6,0.6L21.6,59.9z"/>
		<path class="st15" d="M36.3,22.9l0.6,0.2c0,0.2,0,0.3-0.2,0.2h-2.2l0-0.1l0.7-0.2C35.5,23,35.9,23,36.3,22.9z"/>
		<path class="st25" d="M18.4,20.7c0.4,0,0.8-0.2,0.9,0.1c0,0.1,0,0.3-0.1,0.4c-0.1,0.1-0.2,0.2-0.3,0.2
			C18.5,21.5,18.6,21,18.4,20.7z"/>
		<path class="st26" d="M19.3,28.3c-0.5-0.1-0.9,0.2-1.1-0.2c-0.1-0.1-0.1-0.5,0.1-0.5C18.7,27.5,18.9,27.9,19.3,28.3z"/>
		<path class="st27" d="M17.2,25.3c-0.4,0.1-0.7,0.2-1-0.2c0,0,0-0.1,0-0.1c0,0,0-0.1,0-0.1c0,0,0.1-0.1,0.1-0.1
			c0,0,0.1-0.1,0.1-0.1C16.9,24.6,17,24.9,17.2,25.3z"/>
		<path class="st28" d="M17.8,45.1c-0.1,0.4-0.2,0.7-0.6,0.8c-0.2,0-0.4-0.4-0.3-0.5C17.1,45,17.4,45,17.8,45.1z"/>
		<path class="st29" d="M16.1,38.3c0.1-0.1,0.2-0.2,0.4-0.2c0.1-0.1,0.3-0.1,0.4-0.1c0,0.1,0,0.1,0.1,0.2c0,0.1,0,0.1,0,0.2
			c0,0.1-0.1,0.1-0.1,0.2c0,0.1-0.1,0.1-0.2,0.1C16.4,38.8,16.3,38.5,16.1,38.3z"/>
		<path class="st20" d="M25.1,62c0.2,0,0.4,0,0.4,0.2c0,0.2-0.2,0.4-0.3,0.5c-0.2-0.2-0.4-0.3-0.5-0.5C24.6,62.1,24.8,62.1,25.1,62z
			"/>
		<path class="st30" d="M36.9,50.4c-0.1-0.2-0.5,0-0.6-0.3h1.4C37.6,50.6,37.2,50.4,36.9,50.4z"/>
		<path class="st31" d="M35.7,68.9c0.4,0,0.5,0.3,0.7,0.6c-0.3,0.1-0.5,0.4-0.8,0.2C35.6,69.5,35.7,69.1,35.7,68.9z"/>
		<path class="st32" d="M23.4,56.1c-0.3-0.1-0.6-0.2-0.7-0.5c0-0.1,0.3-0.2,0.4-0.2C23.5,55.4,23.4,55.8,23.4,56.1z"/>
		<path class="st33" d="M23.3,20.9c-0.1,0.3-0.2,0.3-0.3,0.3c-0.1,0-0.3-0.1-0.3-0.2c0-0.2,0.1-0.4,0.3-0.3
			C23.1,20.8,23.2,20.8,23.3,20.9z"/>
		<path class="st34" d="M36.7,23.3l0.2-0.2c0.2,0,0.4,0,0.5,0.3C37.2,23.5,36.9,23.5,36.7,23.3z"/>
		<path class="st14" d="M36.3,22.9c-0.2,0.1-0.4,0.2-0.6,0.2s-0.4-0.1-0.6-0.2C35.5,22.9,35.9,22.9,36.3,22.9z"/>
		<path class="st35" d="M36.5,47.4l-0.2,0.2c-0.2-0.2-0.4-0.5-0.2-0.6C36.4,46.9,36.4,47.2,36.5,47.4z"/>
		<path class="st36" d="M181.8,46.8c-0.8,0.2-1.1-0.1-1-0.9c0.1-0.6,0.1-1.2,0-1.8c-0.1-0.7,0.3-1,0.9-0.9c0.2,0,0.5,0,0.7,0.1
			c1.5,0.2,1.9,0.5,1.9,1.6c0.1,1-0.7,1.8-1.9,2C182.2,46.8,182,46.8,181.8,46.8z"/>
		<path class="st37" d="M207.7,37c-1.5,0-2.2-0.7-1.8-1.9c0.1-0.2,0.2-0.4,0.3-0.5c0.2-0.2,2.8,0,3.1,0.2c0.6,0.4,0.4,1.6-0.3,2
			C208.6,37,208.2,37,207.7,37z"/>
		<path class="st36" d="M209.1,30.5c0,1-0.6,1.4-1.5,1.4c-1,0-1.5-0.6-1.4-1.7c0-1,0.5-1.4,1.4-1.4
			C208.5,28.7,209.1,29.4,209.1,30.5z"/>
		<path class="st36" d="M228.3,26.8c0.2,0.4,0.2,0.6,0.3,0.8c0.4,1.1,0.8,2.2,1.2,3.4h-3C227.3,29.6,227.8,28.3,228.3,26.8z"/>
		<path class="st37" d="M200.1,48.5c0,0.6-0.1,1.1-0.3,1.7c-0.3,0.9-1,1.3-1.9,1.2c-1-0.1-1.3-0.8-1.2-1.7c0-0.7,0-1.3,0-2
			c0-1,0.6-1.7,1.6-1.8c0.8-0.1,1.5,0.4,1.7,1.4C200.1,47.6,200.1,48.1,200.1,48.5z"/>
		<path class="st37" d="M213,48.7c0-0.4,0-0.7,0-1.1c-0.1-1,0.3-1.4,1.4-1.6c0.8-0.2,1.4,0.2,1.7,1c0.4,1.1,0.4,2.4-0.1,3.5
			c-0.4,0.9-1.1,1.2-2.1,0.9c-0.9-0.2-1-0.8-0.9-1.6C213,49.3,213,49,213,48.7z"/>
		<path class="st36" d="M246.2,31.7c0.7-0.1,1,0.2,1,1c-0.1,1-0.6,1.6-1.7,1.6c-0.8,0-1.3-0.4-1.3-1.2
			C244.2,32.3,245,31.7,246.2,31.7z"/>
		<path class="st15" d="M155.6,48c0,0-0.1,0-0.1,0c-0.5-0.1-1.2,0.3-1.4-0.3c-0.2-0.6,0.1-1.3,0.7-1.7s1.3-0.5,1.9-0.1
			c0.6,0.4,0.7,1.1,0.6,1.8c0,0.3-0.2,0.3-0.4,0.3H155.6z"/>
		<path class="st37" d="M194.5,31.2c0.3-1,0.2-2.1,1.5-2.3c0.6-0.1,1.1,0,1.4,0.4c0.4,0.5,0.5,1.1,0.5,1.7c0,0.3-0.3,0.2-0.4,0.2
			C196.5,31.2,195.5,31.2,194.5,31.2z"/>
		<path class="st37" d="M157,31.7c0-1.9,0.3-2.6,1.4-2.8c0.4-0.1,0.9-0.1,1.2,0.1s0.7,0.6,0.8,1c0.3,1.1,0.4,2.2,0.1,3.2
			c-0.2,0.9-0.7,1.3-1.6,1.4c-0.9,0.1-1.5-0.3-1.7-1.2C157,32.8,156.9,32.2,157,31.7z"/>
		<path class="st37" d="M127.8,48c0.3-1.9,0.8-2.5,2.1-2.3c0.8,0.1,1.5,1.4,1.2,2.1c-0.1,0.3-0.3,0.2-0.5,0.2c-0.2,0-0.3,0-0.5,0
			L127.8,48z"/>
		<path class="st36" d="M190.5,48c-0.1,0-0.2,0-0.3,0c-0.4-0.1-1.2,0.3-1.3-0.2c-0.1-0.7,0.1-1.6,0.9-1.9c0.6-0.3,1.3-0.3,1.8,0.3
			c0.1,0.1,0.1,0.2,0.2,0.4c0.6,1.2,0.4,1.6-0.9,1.6L190.5,48z"/>
		<path class="st37" d="M184.7,31.8c-0.1,0.5-0.1,0.9-0.2,1.4c-0.1,0.4-0.2,0.7-0.5,1c-0.3,0.2-0.6,0.4-1,0.4
			c-0.8,0.1-1.5-0.3-1.8-1c-0.5-1.2-0.5-2.6,0-3.9c0.3-0.8,1-0.9,1.6-0.9c0.4,0,0.7,0.1,1,0.3c0.3,0.2,0.5,0.5,0.6,0.9
			C184.6,30.6,184.7,31.2,184.7,31.8z"/>
		<path class="st37" d="M101.5,48.7c0.1,0.5-0.1,1-0.2,1.5c0,0.3-0.2,0.6-0.5,0.9c-0.2,0.2-0.6,0.4-0.9,0.4c-0.8,0.1-1.6-0.1-1.9-1
			c-0.5-1.2-0.5-2.6-0.1-3.8c0.2-0.7,0.8-1,1.6-0.9c0.8,0,1.4,0.3,1.6,1.1C101.4,47.4,101.5,48.1,101.5,48.7z"/>
		<path class="st38" d="M38.9,20.7C38.9,20.7,38.9,20.7,38.9,20.7c0,0.1,0,0.2-0.1,0.2c0,0,0,0-0.1,0.1c0,0-0.1,0-0.1,0
			c-0.2,0-0.3,0-0.3-0.2c0-0.1,0-0.1,0.1-0.2c0,0,0.1-0.1,0.2-0.1C38.8,20.3,38.8,20.5,38.9,20.7z"/>
	</g>
</g>
</svg>
