<?xml version="1.0" encoding="utf-8"?>
<!-- Generator: Adobe Illustrator 25.4.1, SVG Export Plug-In . SVG Version: 6.00 Build 0)  -->
<svg version="1.1" id="Layer_1" xmlns="http://www.w3.org/2000/svg" xmlns:xlink="http://www.w3.org/1999/xlink" x="0px" y="0px"
	 viewBox="0 0 300 87" style="enable-background:new 0 0 300 87;" xml:space="preserve">
<g>
	<defs>
		<rect id="SVGID_1_" width="300" height="87"/>
	</defs>
	<clipPath id="SVGID_00000097468299619190835330000009164574643965823371_">
		<use xlink:href="#SVGID_1_"  style="overflow:visible;"/>
	</clipPath>
	<g style="clip-path:url(#SVGID_00000097468299619190835330000009164574643965823371_);">
		<path style="fill:currentColor;" d="M193.3,39.2c0-0.5,0-1.1,0-1.6c0-0.5,0-1,0-1.6v-3.3c0-0.6,0-1.1,0-1.6c0-0.5,0-1,0-1.6
			c0.3,0,0.6,0,0.9,0s0.8,0,1.1,0c0.4,0,0.9,0,1.3,0c0.8,0,1.4,0.1,1.9,0.3c0.5,0.1,0.9,0.5,1.1,0.9c0.3,0.4,0.4,0.9,0.4,1.5
			c0,0.5-0.1,1-0.3,1.5c-0.3,0.5-0.5,0.8-1,1.1c-0.5,0.3-1.1,0.4-2,0.4l0.4-0.5l1.5,1.9c0.3,0.3,0.5,0.6,0.8,1
			c0.3,0.4,0.5,0.6,0.8,1c0.3,0.4,0.5,0.6,0.6,0.9h-1.5c-0.4-0.4-0.6-0.8-1-1.3c-0.4-0.5-0.6-0.8-0.9-1.1l-1.8-2.3l0.8,0.6H194v-1
			h1.9c0.6,0,1-0.1,1.4-0.3c0.4-0.1,0.6-0.4,0.9-0.6c0.1-0.3,0.3-0.8,0.3-1.1s-0.1-0.8-0.3-1c-0.1-0.3-0.3-0.4-0.5-0.5
			c-0.3-0.1-0.5-0.1-0.8-0.3c-0.3,0-0.5,0-0.8,0h-2.9l0.9-0.9c0,0.6,0,1.1,0,1.6s0,1.1,0,1.6v3c0,0.6,0,1.1,0,1.6c0,0.5,0,1,0,1.6
			H193.3z"/>
		<path style="fill:currentColor;" d="M205.7,39.3c-0.9,0-1.5-0.1-2-0.5c-0.5-0.3-0.9-0.8-1.1-1.3c-0.3-0.5-0.4-1.1-0.4-1.9
			c0-0.6,0.1-1.3,0.4-1.9c0.3-0.6,0.6-1,1.1-1.3c0.5-0.3,1-0.5,1.8-0.5c0.6,0,1.1,0.1,1.5,0.4c0.4,0.3,0.8,0.5,1,1
			c0.3,0.4,0.4,1,0.4,1.6c0,0.1,0,0.4,0,0.5c0,0.1,0,0.3,0,0.4l-1-0.5c0-0.1,0-0.1,0-0.3c0-0.1,0-0.1,0-0.3c0-0.6-0.1-1.1-0.5-1.5
			c-0.4-0.4-0.8-0.5-1.3-0.5c-0.4,0-0.8,0.1-1.1,0.4c-0.3,0.3-0.5,0.5-0.8,0.9s-0.3,0.8-0.3,1.3v0.1c0,0.5,0.1,1,0.3,1.4
			c0.1,0.4,0.5,0.6,0.9,0.9c0.4,0.3,0.9,0.4,1.4,0.4c0.3,0,0.5,0,0.6,0c0.1,0,0.5-0.1,0.8-0.1c0.3-0.1,0.5-0.1,0.6-0.3v1
			c-0.1,0.1-0.4,0.1-0.6,0.3c-0.3,0.1-0.5,0.1-0.8,0.1C206.2,39.3,206,39.3,205.7,39.3z M202.6,36v-0.8h4.8l0.8,0.3v0.6h-5.5V36z"/>
		<path style="fill:currentColor;" d="M210,39.2c0-0.5,0-1,0-1.5c0-0.5,0-1,0-1.5v-0.6c0-0.5,0-1,0-1.5c0-0.5,0-1,0-1.6l1-0.1v1.3h0.1
			c0.1-0.3,0.4-0.4,0.5-0.6c0.3-0.3,0.5-0.4,0.8-0.5c0.3-0.1,0.6-0.3,1-0.3c0.5,0,1,0.1,1.3,0.4c0.3,0.3,0.5,0.6,0.6,1.3h0.1
			c0,0.1,0,0.3,0,0.4c0,0.1,0,0.3,0,0.4c0,0.3,0,0.5,0,0.8s0,0.5,0,0.8c0,0.5,0,1,0,1.5s0,1,0,1.5h-1.1c0-0.5,0-1,0-1.5s0-1,0-1.5
			v-1.3c0-0.5-0.1-1-0.3-1.3c-0.1-0.3-0.5-0.4-1-0.4c-0.3,0-0.5,0.1-0.8,0.3c-0.3,0.1-0.5,0.3-0.6,0.5c-0.3,0.3-0.4,0.4-0.5,0.6v1.6
			c0,0.5,0,1,0,1.5c0,0.5,0,1,0,1.5H210z M218.7,39.2c0-0.5,0-1,0-1.5c0-0.5,0-1,0-1.5v-1.3c0-0.5-0.1-1-0.3-1.3
			c-0.1-0.3-0.5-0.4-1-0.4c-0.3,0-0.5,0-0.8,0.1c-0.3,0.1-0.5,0.3-0.6,0.5c-0.3,0.3-0.4,0.5-0.5,0.8l-0.1-1.1h0.1
			c0.1-0.3,0.4-0.4,0.6-0.6c0.3-0.3,0.5-0.4,0.8-0.5c0.3-0.1,0.6-0.3,1-0.3c0.8,0,1.3,0.3,1.5,0.6c0.3,0.4,0.5,1,0.5,1.8
			c0,0.3,0,0.5,0,0.8s0,0.5,0,0.8c0,0.5,0,1,0,1.5s0,1,0,1.5h-1.3V39.2z"/>
		<path style="fill:currentColor;" d="M225.2,39.3c-0.9,0-1.5-0.1-2-0.5c-0.5-0.4-0.9-0.8-1.1-1.3c-0.3-0.5-0.4-1.1-0.4-1.9
			c0-0.6,0.1-1.3,0.4-1.9c0.3-0.5,0.6-1,1.1-1.3c0.5-0.3,1-0.5,1.8-0.5c0.6,0,1.1,0.1,1.5,0.4c0.4,0.3,0.8,0.5,1,1
			c0.3,0.4,0.4,1,0.4,1.6c0,0.1,0,0.4,0,0.5c0,0.1,0,0.3,0,0.4l-1-0.5c0-0.1,0-0.1,0-0.3c0-0.1,0-0.1,0-0.3c0-0.6-0.1-1.1-0.5-1.5
			c-0.4-0.4-0.8-0.5-1.3-0.5c-0.4,0-0.8,0.1-1.1,0.4c-0.3,0.3-0.5,0.5-0.8,0.9c-0.3,0.4-0.3,0.8-0.3,1.3v0.1c0,0.5,0.1,1,0.3,1.4
			c0.1,0.4,0.5,0.6,0.9,0.9c0.4,0.3,0.9,0.4,1.4,0.4c0.3,0,0.5,0,0.6,0c0.1,0,0.5-0.1,0.8-0.1c0.3-0.1,0.5-0.1,0.6-0.3v1
			c-0.1,0.1-0.4,0.1-0.6,0.3c-0.3,0.1-0.5,0.1-0.8,0.1C225.9,39.3,225.5,39.3,225.2,39.3z M222.1,36v-0.8h4.8l0.8,0.3v0.6h-5.5V36z"
			/>
		<path style="fill:currentColor;" d="M229.5,39.2c0-0.5,0-1,0-1.5c0-0.5,0-1,0-1.5v-0.6c0-0.5,0-1,0-1.5c0-0.5,0-1,0-1.6l1-0.1v1.3h0.1
			c0.1-0.3,0.4-0.4,0.5-0.6c0.3-0.3,0.5-0.4,0.8-0.5c0.3-0.1,0.6-0.3,1-0.3c0.5,0,1,0.1,1.3,0.4c0.3,0.3,0.5,0.6,0.6,1.3h0.1
			c0,0.1,0,0.3,0,0.4c0,0.1,0,0.3,0,0.4c0,0.3,0,0.5,0,0.8s0,0.5,0,0.8c0,0.5,0,1,0,1.5s0,1,0,1.5h-1c0-0.5,0-1,0-1.5s0-1,0-1.5
			v-1.3c0-0.5-0.1-1-0.3-1.3c-0.1-0.3-0.5-0.4-1-0.4c-0.3,0-0.5,0.1-0.8,0.3c-0.3,0.1-0.5,0.3-0.6,0.5c-0.1,0.3-0.4,0.4-0.5,0.6v1.6
			c0,0.5,0,1,0,1.5c0,0.5,0,1,0,1.5H229.5z M238.2,39.2c0-0.5,0-1,0-1.5c0-0.5,0-1,0-1.5v-1.3c0-0.5-0.1-1-0.3-1.3
			c-0.1-0.3-0.5-0.4-1-0.4c-0.3,0-0.5,0-0.8,0.1c-0.3,0.1-0.5,0.3-0.6,0.5c-0.3,0.3-0.4,0.5-0.5,0.8l-0.1-1.1h0.1
			c0.1-0.3,0.4-0.4,0.6-0.6c0.3-0.3,0.5-0.4,0.8-0.5c0.3-0.1,0.6-0.3,1-0.3c0.8,0,1.3,0.3,1.5,0.6c0.3,0.4,0.5,1,0.5,1.8
			c0,0.3,0,0.5,0,0.8s0,0.5,0,0.8c0,0.5,0,1,0,1.5s0,1,0,1.5h-1.3V39.2z"/>
		<path style="fill:currentColor;" d="M245,39.3c-0.4,0-0.6,0-0.9-0.1c-0.3-0.1-0.5-0.3-0.8-0.4c-0.3-0.1-0.4-0.4-0.6-0.6h-0.1l-0.1,0.9
			h-0.9c0-0.5,0-1,0-1.5c0-0.5,0-1,0-1.5v-3.8c0-0.6,0-1.1,0-1.6c0-0.5,0-1.1,0-1.6l1.1-0.1c0,0.5,0,1.1,0,1.6c0,0.5,0,1.1,0,1.8V33
			h0.1c0.1-0.1,0.3-0.4,0.5-0.5c0.3-0.1,0.5-0.3,0.8-0.4c0.3-0.1,0.5-0.1,0.9-0.1c0.6,0,1.1,0.1,1.6,0.5c0.4,0.3,0.8,0.8,1,1.3
			c0.3,0.5,0.4,1.1,0.4,1.9c0,0.6-0.1,1.3-0.4,1.8c-0.3,0.5-0.5,1-1,1.4C246.1,39.2,245.6,39.3,245,39.3z M244.6,38.3
			c0.5,0,0.9-0.1,1.3-0.4c0.3-0.3,0.5-0.5,0.6-1c0.1-0.4,0.3-0.8,0.3-1.3c0-0.5-0.1-0.9-0.3-1.3c-0.1-0.4-0.4-0.8-0.8-0.9
			c-0.3-0.3-0.8-0.4-1.3-0.4c-0.3,0-0.5,0-0.8,0.1s-0.5,0.1-0.6,0.4c-0.3,0.1-0.4,0.4-0.5,0.5v3c0.1,0.3,0.3,0.4,0.5,0.6
			c0.3,0.3,0.4,0.3,0.6,0.4C244,38.3,244.4,38.3,244.6,38.3z"/>
		<path style="fill:currentColor;" d="M249.9,39.2c0-0.5,0-1,0-1.5c0-0.5,0-1,0-1.5v-0.6c0-0.5,0-1,0-1.5c0-0.5,0-1,0-1.6l1-0.1v1.4h0.1
			c0.3-0.4,0.4-0.8,0.6-1c0.3-0.3,0.5-0.4,0.8-0.4c0.3-0.1,0.5-0.1,0.8-0.1c0.1,0,0.3,0,0.4,0c0.1,0,0.3,0,0.4,0.1l-0.1,1.1
			c-0.1,0-0.3,0-0.4-0.1c-0.1,0-0.3,0-0.4,0c-0.1,0-0.3,0-0.5,0c-0.1,0-0.4,0.1-0.5,0.3c-0.1,0.1-0.4,0.3-0.5,0.5
			c-0.1,0.3-0.3,0.5-0.4,1v1c0,0.5,0,1,0,1.5s0,1,0,1.5h-1.3V39.2z"/>
		<path style="fill:currentColor;" d="M257.1,39.3c-0.4,0-0.8-0.1-1.1-0.3c-0.3-0.1-0.5-0.4-0.8-0.6c-0.1-0.3-0.3-0.6-0.3-1
			c0-0.4,0.1-0.6,0.3-1c0.1-0.4,0.3-0.5,0.5-0.6c0.3-0.1,0.5-0.3,0.8-0.4c0.3-0.1,0.5-0.1,0.8-0.3l2.1-0.4c0-0.5,0-0.8-0.1-1
			c-0.1-0.3-0.4-0.4-0.6-0.5c-0.3-0.1-0.5-0.1-0.9-0.1c-0.1,0-0.4,0-0.5,0c-0.1,0-0.4,0-0.6,0.1c-0.3,0-0.4,0.1-0.6,0.1
			c-0.3,0.1-0.5,0.1-0.8,0.3v-1c0.1-0.1,0.4-0.1,0.5-0.3c0.1-0.1,0.4-0.1,0.6-0.1c0.3,0,0.5-0.1,0.8-0.1c0.3,0,0.5,0,0.8,0
			c0.5,0,1,0.1,1.4,0.3c0.4,0.1,0.6,0.4,0.9,0.8c0.3,0.4,0.3,0.8,0.3,1.4c0,0.3,0,0.5,0,0.8s0,0.6,0,0.9v1c0,0.3,0,0.6,0,1
			c0,0.4,0,0.6,0,1h-1v-1h-0.1c-0.1,0.1-0.4,0.4-0.5,0.5c-0.3,0.1-0.5,0.3-0.8,0.4C257.7,39.3,257.5,39.3,257.1,39.3z M257.5,38.4
			c0.3,0,0.5,0,0.8-0.1c0.3-0.1,0.5-0.3,0.6-0.5c0.3-0.3,0.4-0.5,0.5-0.8v-1.5c-0.1,0-0.1,0.1-0.3,0.1s-0.3,0.1-0.5,0.1
			c-0.3,0-0.6,0.1-1,0.3c-0.3,0-0.5,0.1-0.8,0.3c-0.3,0.1-0.4,0.3-0.5,0.4c-0.1,0.1-0.1,0.4-0.1,0.6c0,0.4,0.1,0.6,0.4,0.9
			C256.8,38.3,257.1,38.4,257.5,38.4z"/>
		<path style="fill:currentColor;" d="M262.8,39.2c0-0.5,0-1,0-1.5c0-0.5,0-1,0-1.5v-0.6c0-0.5,0-1,0-1.5c0-0.5,0-1,0-1.6l1-0.1v1.3h0.1
			c0.1-0.3,0.4-0.4,0.6-0.6c0.3-0.3,0.5-0.4,0.8-0.5c0.3-0.1,0.6-0.3,1.1-0.3c0.8,0,1.3,0.3,1.6,0.6c0.4,0.4,0.5,1,0.5,1.9
			c0,0.3,0,0.5,0,0.8c0,0.3,0,0.5,0,0.8c0,0.5,0,1,0,1.5c0,0.5,0,1,0,1.5h-1.1c0-0.5,0-1,0-1.5c0-0.5,0-1,0-1.5v-1.3
			c0-0.5-0.1-1-0.3-1.3c-0.1-0.3-0.5-0.4-1-0.4c-0.3,0-0.6,0-0.9,0.1c-0.3,0.1-0.5,0.3-0.6,0.5c-0.3,0.3-0.4,0.5-0.5,0.8v1.6
			c0,0.5,0,1,0,1.5c0,0.5,0,1,0,1.5h-1.4V39.2z"/>
		<path style="fill:currentColor;" d="M273.8,39.3c-0.8,0-1.4-0.1-1.9-0.5c-0.5-0.3-0.9-0.8-1.1-1.3c-0.3-0.5-0.4-1.1-0.4-1.9
			c0-0.8,0.1-1.3,0.4-1.9c0.3-0.5,0.6-1,1.1-1.3c0.5-0.3,1.1-0.5,1.9-0.5c0.3,0,0.5,0,0.8,0.1c0.3,0,0.5,0.1,0.8,0.1
			c0.3,0.1,0.4,0.1,0.6,0.3l-0.1,1c-0.3-0.1-0.5-0.3-0.8-0.4c-0.3-0.1-0.5-0.1-0.6-0.1c-0.3,0-0.4,0-0.5,0c-0.8,0-1.3,0.3-1.6,0.6
			c-0.4,0.5-0.6,1.1-0.6,1.9c0,0.5,0.1,0.9,0.3,1.4c0.1,0.5,0.5,0.8,0.9,0.9c0.4,0.3,0.9,0.4,1.4,0.4c0.3,0,0.4,0,0.6,0
			c0.3,0,0.4-0.1,0.6-0.1c0.3-0.1,0.4-0.1,0.5-0.3l0.1,1c-0.1,0.1-0.4,0.1-0.5,0.3c-0.1,0.1-0.4,0.1-0.6,0.1
			C274.3,39.3,274.1,39.3,273.8,39.3z"/>
		<path style="fill:currentColor;" d="M280.9,39.3c-0.9,0-1.5-0.1-2-0.5s-0.9-0.8-1.1-1.3c-0.3-0.5-0.4-1.1-0.4-1.9
			c0-0.6,0.1-1.3,0.4-1.9c0.3-0.5,0.6-1,1.1-1.3c0.5-0.3,1-0.5,1.8-0.5c0.6,0,1.1,0.1,1.5,0.4c0.4,0.3,0.8,0.5,1,1
			c0.3,0.4,0.4,1,0.4,1.6c0,0.1,0,0.4,0,0.5c0,0.1,0,0.3,0,0.4l-1-0.5c0-0.1,0-0.1,0-0.3c0-0.1,0-0.1,0-0.3c0-0.6-0.1-1.1-0.5-1.5
			c-0.4-0.4-0.8-0.5-1.3-0.5c-0.4,0-0.8,0.1-1.1,0.4c-0.3,0.3-0.5,0.5-0.8,0.9c-0.3,0.4-0.3,0.8-0.3,1.3v0.1c0,0.5,0.1,1,0.3,1.4
			c0.1,0.4,0.5,0.6,0.9,0.9c0.4,0.3,0.9,0.4,1.4,0.4c0.3,0,0.5,0,0.6,0c0.3,0,0.5-0.1,0.8-0.1c0.3-0.1,0.5-0.1,0.6-0.3v1
			c-0.1,0.1-0.4,0.1-0.6,0.3c-0.3,0.1-0.5,0.1-0.8,0.1C281.5,39.2,281.1,39.3,280.9,39.3z M277.7,36v-0.8h4.8l0.8,0.3v0.6h-5.5V36z"
			/>
		<path style="fill:currentColor;" d="M193.3,54.4c0-0.5,0-1.1,0-1.6c0-0.5,0-1,0-1.6v-3.3c0-0.6,0-1.1,0-1.6c0-0.5,0-1,0-1.6
			c0.3,0,0.6,0,0.9,0s0.8,0,1.1,0c0.4,0,0.9,0,1.3,0c0.8,0,1.4,0.1,1.9,0.3c0.5,0.1,0.9,0.5,1.1,0.9c0.3,0.4,0.4,0.9,0.4,1.5
			c0,0.5-0.1,1-0.3,1.5c-0.3,0.5-0.5,0.8-1,1.1c-0.5,0.3-1.1,0.4-2,0.4l0.4-0.5l1.5,1.9c0.3,0.3,0.5,0.6,0.8,1
			c0.3,0.4,0.5,0.6,0.8,1s0.5,0.6,0.6,0.9h-1.5c-0.4-0.4-0.6-0.8-1-1.3c-0.4-0.5-0.6-0.8-0.9-1.1l-1.8-2.3l0.8,0.6H194v-1h1.9
			c0.6,0,1-0.1,1.4-0.3c0.4-0.1,0.6-0.4,0.9-0.6c0.1-0.3,0.3-0.8,0.3-1.1c0-0.4-0.1-0.8-0.3-1c-0.1-0.3-0.3-0.4-0.5-0.5
			c-0.3-0.1-0.5-0.1-0.8-0.3c-0.3,0-0.5,0-0.8,0h-2.9l0.9-0.9c0,0.6,0,1.1,0,1.6c0,0.5,0,1.1,0,1.6v3c0,0.6,0,1.1,0,1.6
			c0,0.5,0,1,0,1.6H193.3z"/>
		<path style="fill:currentColor;" d="M205.7,54.5c-0.9,0-1.5-0.1-2-0.5c-0.5-0.3-0.9-0.8-1.1-1.3c-0.3-0.5-0.4-1.1-0.4-1.9
			c0-0.6,0.1-1.3,0.4-1.9c0.3-0.6,0.6-1,1.1-1.3s1-0.5,1.8-0.5c0.6,0,1.1,0.1,1.5,0.4c0.4,0.3,0.8,0.5,1,1c0.3,0.4,0.4,1,0.4,1.6
			c0,0.1,0,0.4,0,0.5c0,0.1,0,0.3,0,0.4l-1-0.5c0-0.1,0-0.1,0-0.3c0-0.1,0-0.1,0-0.3c0-0.6-0.1-1.1-0.5-1.5
			c-0.4-0.4-0.8-0.5-1.3-0.5c-0.4,0-0.8,0.1-1.1,0.4c-0.3,0.3-0.5,0.5-0.8,0.9c-0.3,0.4-0.3,0.8-0.3,1.3v0.1c0,0.5,0.1,1,0.3,1.4
			c0.1,0.4,0.5,0.6,0.9,0.9c0.4,0.3,0.9,0.4,1.4,0.4c0.3,0,0.5,0,0.6,0c0.1,0,0.5-0.1,0.8-0.1c0.3-0.1,0.5-0.1,0.6-0.3v1
			c-0.1,0.1-0.4,0.1-0.6,0.3c-0.3,0.1-0.5,0.1-0.8,0.1C206.2,54.5,206,54.5,205.7,54.5z M202.6,51.2v-0.8h4.8l0.8,0.3v0.6h-5.5V51.2
			z"/>
		<path style="fill:currentColor;" d="M211.9,54.5c-0.3,0-0.6,0-0.9-0.1c-0.3-0.1-0.5-0.1-0.8-0.1c-0.3,0-0.5-0.1-0.6-0.3l0.1-1.1
			c0.3,0.1,0.4,0.3,0.6,0.4c0.3,0.1,0.5,0.1,0.8,0.3c0.3,0.1,0.5,0.1,0.8,0.1s0.5,0,0.8-0.1c0.3,0,0.4-0.1,0.5-0.4
			c0.1-0.1,0.3-0.4,0.3-0.6c0-0.3,0-0.4-0.1-0.5c-0.1-0.1-0.3-0.3-0.5-0.4c-0.3-0.1-0.6-0.3-1-0.4c-0.4-0.1-0.6-0.3-1-0.4
			c-0.3-0.1-0.5-0.4-0.6-0.6c-0.1-0.3-0.3-0.6-0.3-1c0-0.6,0.3-1.1,0.6-1.5c0.4-0.4,1-0.5,1.6-0.5c0.3,0,0.5,0,0.9,0.1
			c0.3,0,0.5,0.1,0.8,0.3c0.3,0.1,0.4,0.1,0.6,0.3l-0.1,1.1c-0.3-0.1-0.5-0.3-0.6-0.4c-0.3-0.1-0.5-0.1-0.6-0.3c-0.3,0-0.4,0-0.6,0
			s-0.4,0-0.5,0.1c-0.1,0-0.4,0.1-0.5,0.3c-0.1,0.1-0.1,0.4-0.1,0.6c0,0.3,0,0.4,0.1,0.5c0.1,0.1,0.3,0.3,0.5,0.4
			c0.3,0.1,0.5,0.3,0.9,0.4c0.5,0.1,0.9,0.3,1.1,0.4c0.4,0.1,0.6,0.4,0.8,0.6c0.1,0.3,0.3,0.5,0.3,1c0,0.4-0.1,0.8-0.3,1.1
			c-0.1,0.4-0.5,0.6-0.9,0.8C213,54.4,212.5,54.5,211.9,54.5z"/>
		<path style="fill:currentColor;" d="M216.3,57c0-0.5,0-1,0-1.5c0-0.5,0-1,0-1.6v-3.4c0-0.5,0-1,0-1.5c0-0.5,0-1,0-1.6l1-0.1V48h0.1
			c0.1-0.1,0.3-0.4,0.5-0.5c0.3-0.1,0.5-0.3,0.8-0.4c0.3-0.1,0.6-0.1,0.9-0.1c0.6,0,1.1,0.1,1.6,0.5c0.5,0.4,0.8,0.8,1,1.3
			c0.3,0.5,0.4,1.1,0.4,1.9c0,0.6-0.1,1.3-0.4,1.8c-0.3,0.5-0.5,1-1,1.4c-0.4,0.4-1,0.5-1.6,0.5c-0.3,0-0.6,0-0.9-0.1
			s-0.5-0.3-0.8-0.4c-0.3-0.1-0.4-0.4-0.6-0.5h-0.1v0.5c0,0.5,0,1,0,1.5c0,0.5,0,1,0,1.5L216.3,57z M219.3,53.5
			c0.5,0,0.9-0.1,1.3-0.4c0.3-0.3,0.5-0.5,0.6-1c0.1-0.5,0.3-0.8,0.3-1.3c0-0.5-0.1-0.9-0.3-1.3c-0.1-0.4-0.4-0.8-0.8-0.9
			c-0.3-0.3-0.8-0.4-1.3-0.4c-0.3,0-0.5,0-0.8,0.1c-0.3,0.1-0.5,0.1-0.6,0.4c-0.3,0.1-0.4,0.4-0.5,0.5v3c0.1,0.3,0.3,0.4,0.5,0.6
			c0.1,0.1,0.4,0.3,0.6,0.4C218.8,53.5,219.1,53.5,219.3,53.5z"/>
		<path style="fill:currentColor;" d="M227.5,54.5c-0.6,0-1-0.1-1.5-0.3c-0.5-0.1-0.8-0.5-1.1-0.8c-0.3-0.4-0.5-0.8-0.6-1.1
			c-0.1-0.4-0.3-0.9-0.3-1.4c0-0.6,0.1-1.3,0.4-1.9c0.3-0.6,0.6-1,1.1-1.3c0.5-0.3,1.1-0.5,1.9-0.5c0.5,0,1,0.1,1.5,0.3
			c0.4,0.1,0.8,0.4,1.1,0.8c0.3,0.4,0.5,0.8,0.6,1.1c0.1,0.4,0.3,0.9,0.3,1.4c0,0.6-0.1,1.3-0.4,1.9c-0.3,0.5-0.6,1-1.1,1.3
			C228.9,54.2,228.3,54.5,227.5,54.5z M227.5,53.5c0.5,0,0.9-0.1,1.3-0.4c0.4-0.3,0.6-0.6,0.8-1c0.1-0.4,0.3-0.9,0.3-1.3
			c0-0.5-0.1-1-0.3-1.4c-0.1-0.4-0.5-0.6-0.8-0.9c-0.4-0.3-0.8-0.4-1.3-0.4c-0.5,0-0.9,0.1-1.3,0.4c-0.4,0.3-0.6,0.5-0.8,0.9
			c-0.1,0.4-0.3,0.9-0.3,1.3c0,0.5,0.1,0.9,0.3,1.3c0.1,0.4,0.4,0.8,0.8,1C226.6,53.4,227,53.5,227.5,53.5z"/>
		<path style="fill:currentColor;" d="M232.9,54.4c0-0.5,0-1,0-1.5c0-0.5,0-1,0-1.5v-0.6c0-0.5,0-1,0-1.5c0-0.5,0-1,0-1.6l1-0.1v1.3h0.1
			c0.1-0.3,0.4-0.4,0.6-0.6c0.3-0.3,0.5-0.4,0.8-0.5s0.6-0.3,1.1-0.3c0.8,0,1.3,0.3,1.6,0.6c0.4,0.4,0.5,1,0.5,1.9
			c0,0.3,0,0.5,0,0.8s0,0.5,0,0.8c0,0.5,0,1,0,1.5c0,0.5,0,1,0,1.5h-1.1c0-0.5,0-1,0-1.5c0-0.5,0-1,0-1.5v-1.3c0-0.5-0.1-1-0.3-1.3
			c-0.3-0.3-0.5-0.4-1-0.4c-0.3,0-0.6,0-0.9,0.1s-0.5,0.3-0.6,0.5c-0.3,0.3-0.4,0.5-0.5,0.8v1.6c0,0.5,0,1,0,1.5c0,0.5,0,1,0,1.5
			h-1.4V54.4z"/>
		<path style="fill:currentColor;" d="M242.9,54.5c-0.3,0-0.6,0-0.9-0.1c-0.3,0-0.5-0.1-0.8-0.1c-0.3-0.1-0.5-0.1-0.6-0.3l0.1-1.1
			c0.3,0.1,0.4,0.3,0.6,0.4c0.3,0.1,0.5,0.1,0.8,0.3c0.3,0.1,0.5,0.1,0.8,0.1s0.5,0,0.8-0.1c0.3,0,0.4-0.1,0.5-0.4
			c0.1-0.1,0.3-0.4,0.3-0.6c0-0.3,0-0.4-0.1-0.5c-0.1-0.1-0.3-0.3-0.5-0.4c-0.3-0.1-0.6-0.3-1-0.4c-0.4-0.1-0.6-0.3-1-0.4
			c-0.3-0.1-0.5-0.4-0.6-0.6c-0.1-0.3-0.3-0.6-0.3-1c0-0.6,0.3-1.1,0.6-1.5s1-0.5,1.6-0.5c0.3,0,0.5,0,0.9,0.1
			c0.4,0.1,0.5,0.1,0.8,0.3c0.3,0.1,0.4,0.1,0.6,0.3l-0.1,1.1c-0.3-0.1-0.5-0.3-0.6-0.4c-0.3-0.1-0.5-0.1-0.6-0.3
			c-0.3,0-0.4,0-0.6,0c-0.3,0-0.4,0-0.5,0.1c-0.1,0-0.4,0.1-0.5,0.3c-0.1,0.1-0.1,0.4-0.1,0.6c0,0.3,0,0.4,0.1,0.5
			c0.1,0.1,0.3,0.3,0.5,0.4c0.3,0.1,0.5,0.3,0.9,0.4c0.5,0.1,0.9,0.3,1.1,0.4c0.3,0.1,0.6,0.4,0.8,0.6c0.1,0.3,0.3,0.5,0.3,1
			c0,0.4-0.1,0.8-0.3,1.1c-0.1,0.4-0.5,0.6-0.9,0.8C244,54.4,243.5,54.5,242.9,54.5z"/>
		<path style="fill:currentColor;" d="M247.9,45.9c-0.3,0-0.5-0.1-0.6-0.3c-0.1-0.1-0.3-0.4-0.3-0.6c0-0.3,0.1-0.5,0.3-0.6
			c0.1-0.1,0.4-0.3,0.6-0.3s0.5,0.1,0.6,0.3c0.1,0.1,0.3,0.4,0.3,0.6c0,0.3-0.1,0.5-0.3,0.6C248.3,45.8,248.2,45.9,247.9,45.9z
			 M247.3,54.4c0-0.5,0-1,0-1.5c0-0.5,0-1,0-1.5v-0.6c0-0.4,0-0.8,0-1.1s0-0.6,0-1s0-0.6,0-1h1.1c0,0.4,0,0.6,0,1s0,0.6,0,1
			s0,0.8,0,1.1v0.6c0,0.6,0,1.1,0,1.5c0,0.4,0,1,0,1.5H247.3z"/>
		<path style="fill:currentColor;" d="M254.3,54.5c-0.4,0-0.6,0-0.9-0.1c-0.3-0.1-0.5-0.3-0.8-0.4c-0.3-0.1-0.4-0.4-0.6-0.6h-0.1
			l-0.1,0.9h-0.9c0-0.5,0-1,0-1.5c0-0.5,0-1,0-1.5v-3.8c0-0.6,0-1.1,0-1.6c0-0.5,0-1.1,0-1.6l1.1-0.1c0,0.5,0,1.1,0,1.6
			c0,0.5,0,1.1,0,1.8v0.8h0.1c0.1-0.1,0.3-0.4,0.5-0.5c0.3-0.1,0.5-0.3,0.8-0.4c0.3-0.1,0.5-0.1,0.9-0.1c0.6,0,1.1,0.1,1.6,0.5
			s0.8,0.8,1,1.3c0.3,0.5,0.4,1.1,0.4,1.9c0,0.6-0.1,1.3-0.4,1.8c-0.3,0.5-0.5,1-1,1.4C255.5,54.4,255,54.5,254.3,54.5z M254,53.5
			c0.5,0,0.9-0.1,1.3-0.4c0.3-0.3,0.5-0.5,0.6-1c0.1-0.5,0.3-0.8,0.3-1.3c0-0.5-0.1-0.9-0.3-1.3c-0.1-0.4-0.4-0.8-0.8-0.9
			c-0.3-0.3-0.8-0.4-1.3-0.4c-0.3,0-0.5,0-0.8,0.1c-0.3,0.1-0.5,0.1-0.6,0.4c-0.3,0.1-0.4,0.4-0.5,0.5v3c0.1,0.3,0.3,0.4,0.5,0.6
			c0.1,0.1,0.4,0.3,0.6,0.4C253.4,53.5,253.7,53.5,254,53.5z"/>
		<path style="fill:currentColor;" d="M259.7,45.9c-0.3,0-0.5-0.1-0.6-0.3c-0.1-0.1-0.3-0.4-0.3-0.6c0-0.3,0.1-0.5,0.3-0.6
			c0.1-0.1,0.4-0.3,0.6-0.3c0.3,0,0.5,0.1,0.6,0.3c0.1,0.1,0.3,0.4,0.3,0.6c0,0.3-0.1,0.5-0.3,0.6C260.2,45.8,260,45.9,259.7,45.9z
			 M259.2,54.4c0-0.5,0-1,0-1.5c0-0.5,0-1,0-1.5v-0.6c0-0.4,0-0.8,0-1.1s0-0.6,0-1s0-0.6,0-1h1.1c0,0.4,0,0.6,0,1s0,0.6,0,1
			s0,0.8,0,1.1v0.6c0,0.6,0,1.1,0,1.5c0,0.4,0,1,0,1.5H259.2z"/>
		<path style="fill:currentColor;" d="M262.9,54.4c0-0.5,0-1,0-1.5c0-0.5,0-1,0-1.5v-3.8c0-0.6,0-1.1,0-1.6c0-0.5,0-1.1,0-1.6l1.1-0.1
			c0,0.5,0,1.1,0,1.6c0,0.5,0,1.1,0,1.8v3.8c0,0.6,0,1.1,0,1.5c0,0.4,0,1,0,1.5H262.9z"/>
		<path style="fill:currentColor;" d="M267,45.9c-0.3,0-0.5-0.1-0.6-0.3c-0.1-0.1-0.3-0.4-0.3-0.6c0-0.3,0.1-0.5,0.3-0.6
			c0.1-0.1,0.4-0.3,0.6-0.3c0.3,0,0.5,0.1,0.6,0.3c0.1,0.1,0.3,0.4,0.3,0.6c0,0.3-0.1,0.5-0.3,0.6C267.4,45.8,267.3,45.9,267,45.9z
			 M266.4,54.4c0-0.5,0-1,0-1.5c0-0.5,0-1,0-1.5v-0.6c0-0.4,0-0.8,0-1.1s0-0.6,0-1s0-0.6,0-1h1.1c0,0.4,0,0.6,0,1s0,0.6,0,1
			s0,0.8,0,1.1v0.6c0,0.6,0,1.1,0,1.5c0,0.4,0,1,0,1.5H266.4z"/>
		<path style="fill:currentColor;" d="M269.2,48.4v-0.9h4.9v0.9c-0.5,0-0.9,0-1.4,0s-0.9,0-1.4,0h-0.5H269.2z M272.6,54.5
			c-0.5,0-0.9-0.1-1.1-0.3c-0.3-0.1-0.5-0.4-0.8-0.8c-0.1-0.4-0.3-0.8-0.3-1.3c0-0.4,0-0.8,0-1.1c0-0.4,0-0.8,0-1.1
			c0-0.4,0-0.8,0-1.1c0-0.4,0-0.6,0-1c0-0.5,0-0.9,0-1.3c0-0.4,0-0.9,0-1.3l1.1-0.3c0,0.4,0,0.6,0,1c0,0.3,0,0.6,0,0.9
			c0,0.3,0,0.6,0,1v4.2c0,0.5,0.1,0.9,0.4,1.1c0.3,0.3,0.5,0.4,1,0.4c0.1,0,0.4,0,0.5-0.1c0.3,0,0.4-0.1,0.5-0.3l0.1,1
			c-0.1,0.1-0.3,0.1-0.4,0.1s-0.4,0.1-0.5,0.1C273.1,54.5,272.8,54.5,272.6,54.5z"/>
		<path style="fill:currentColor;" d="M276.5,57c0.1-0.5,0.4-0.9,0.5-1.4c0.1-0.5,0.4-0.9,0.5-1.4v0.3c-0.1-0.5-0.4-1-0.5-1.4
			c-0.1-0.5-0.4-1-0.5-1.4l-0.5-1.3c-0.1-0.5-0.4-1-0.5-1.5c-0.1-0.5-0.4-1-0.5-1.5h1.3c0.3,0.6,0.4,1.1,0.6,1.8
			c0.3,0.6,0.4,1.1,0.6,1.8l0.8,2.3h0.1l0.8-2.3c0.3-0.6,0.4-1.1,0.6-1.8c0.3-0.6,0.4-1.1,0.6-1.8h1.3c-0.1,0.4-0.3,0.8-0.4,1
			c-0.1,0.4-0.3,0.8-0.5,1.1c-0.3,0.4-0.4,0.9-0.6,1.5l-0.8,1.9c-0.4,0.9-0.6,1.6-0.9,2.3c-0.3,0.6-0.5,1.1-0.6,1.6L276.5,57z"/>
		<path style="fill:currentColor;" d="M193.3,69.6c0-0.5,0-1.1,0-1.6c0-0.5,0-1,0-1.6V63c0-0.6,0-1.1,0-1.8c0-0.5,0-1,0-1.6h6v1.1
			c-0.5,0-1,0-1.5,0c-0.5,0-1.1,0-1.9,0h-2l0.5-0.9c0,0.5,0,1.1,0,1.6c0,0.5,0,1.1,0,1.8v3c0,0.6,0,1.1,0,1.6c0,0.5,0,1,0,1.6H193.3
			z M194.3,65.1v-1h1.8c0.6,0,1.1,0,1.6,0c0.5,0,0.9,0,1.4,0v1c-0.5,0-0.9,0-1.4,0c-0.5,0-1,0-1.6,0H194.3z"/>
		<path style="fill:currentColor;" d="M203.2,69.7c-0.8,0-1.3-0.3-1.6-0.6c-0.4-0.4-0.5-1-0.5-1.9c0-0.3,0-0.6,0-0.8c0-0.3,0-0.5,0-0.6
			c0-0.4,0-0.8,0-1.1c0-0.4,0-0.6,0-1c0-0.4,0-0.6,0-1h1.1c0,0.5,0,1,0,1.5c0,0.5,0,1,0,1.5v1.3c0,0.5,0.1,1,0.3,1.3
			c0.3,0.3,0.5,0.4,1,0.4c0.3,0,0.5-0.1,0.8-0.3c0.3-0.1,0.5-0.3,0.6-0.5c0.3-0.3,0.4-0.4,0.5-0.6v-1.6c0-0.5,0-1,0-1.5
			c0-0.5,0-1,0-1.5h1.1c0,0.5,0,1,0,1.5c0,0.5,0,1,0,1.6v0.8c0,0.6,0,1.1,0,1.5c0,0.4,0,1,0,1.5h-1v-1.3h-0.1
			c-0.1,0.3-0.4,0.4-0.5,0.6c-0.3,0.3-0.5,0.4-0.8,0.5C203.8,69.5,203.6,69.7,203.2,69.7z"/>
		<path style="fill:currentColor;" d="M208.2,63.6v-0.9h4.9v0.9c-0.5,0-0.9,0-1.4,0c-0.5,0-0.9,0-1.4,0h-0.5H208.2z M211.6,69.7
			c-0.5,0-0.9-0.1-1.1-0.3c-0.4-0.1-0.5-0.4-0.8-0.8c-0.1-0.4-0.3-0.8-0.3-1.3c0-0.4,0-0.8,0-1.1c0-0.4,0-0.8,0-1.1
			c0-0.4,0-0.8,0-1.1c0-0.4,0-0.6,0-1c0-0.5,0-0.9,0-1.3c0-0.4,0-0.9,0-1.3l1.1-0.3c0,0.4,0,0.6,0,1c0,0.3,0,0.6,0,0.9
			c0,0.3,0,0.6,0,1v4.2c0,0.5,0.1,0.9,0.4,1.1c0.3,0.3,0.5,0.4,1,0.4c0.1,0,0.4,0,0.5-0.1c0.3,0,0.4-0.1,0.5-0.3l0.1,1
			c-0.1,0.1-0.3,0.1-0.4,0.1c-0.1,0-0.4,0.1-0.5,0.1C212,69.7,211.9,69.7,211.6,69.7z"/>
		<path style="fill:currentColor;" d="M216.7,69.7c-0.8,0-1.3-0.3-1.6-0.6c-0.4-0.4-0.5-1-0.5-1.9c0-0.3,0-0.6,0-0.8c0-0.3,0-0.5,0-0.6
			c0-0.4,0-0.8,0-1.1c0-0.4,0-0.6,0-1c0-0.4,0-0.6,0-1h1.1c0,0.5,0,1,0,1.5c0,0.5,0,1,0,1.5v1.3c0,0.5,0.1,1,0.3,1.3
			c0.3,0.3,0.5,0.4,1,0.4c0.3,0,0.5-0.1,0.8-0.3c0.3-0.1,0.5-0.3,0.6-0.5c0.1-0.3,0.4-0.4,0.5-0.6v-1.6c0-0.5,0-1,0-1.5
			c0-0.5,0-1,0-1.5h1.1c0,0.5,0,1,0,1.5c0,0.5,0,1,0,1.6v0.8c0,0.6,0,1.1,0,1.5c0,0.4,0,1,0,1.5h-1v-1.3h-0.1
			c-0.1,0.3-0.4,0.4-0.5,0.6c-0.3,0.3-0.5,0.4-0.8,0.5C217.4,69.7,217.1,69.7,216.7,69.7z"/>
		<path style="fill:currentColor;" d="M222.6,69.6c0-0.5,0-1,0-1.5c0-0.5,0-1,0-1.5v-0.6c0-0.5,0-1,0-1.5c0-0.5,0-1,0-1.6l1-0.1V64h0.1
			c0.3-0.4,0.4-0.8,0.6-1c0.3-0.3,0.5-0.4,0.8-0.4c0.3-0.1,0.5-0.1,0.8-0.1c0.1,0,0.3,0,0.4,0c0.1,0,0.3,0,0.4,0.1l-0.1,1.1
			c-0.1,0-0.3,0-0.4-0.1c-0.1,0-0.3,0-0.4,0c-0.1,0-0.3,0-0.5,0c-0.1,0-0.4,0.1-0.5,0.3c-0.1,0.1-0.4,0.3-0.5,0.5
			c-0.1,0.3-0.3,0.5-0.4,1v1c0,0.5,0,1,0,1.5c0,0.5,0,1,0,1.5h-1.3V69.6z"/>
		<path style="fill:currentColor;" d="M231.3,69.7c-0.9,0-1.5-0.1-2-0.5c-0.5-0.4-0.9-0.8-1.1-1.3c-0.3-0.5-0.4-1.1-0.4-1.9
			c0-0.6,0.1-1.3,0.4-1.9c0.3-0.5,0.6-1,1.1-1.3c0.5-0.3,1-0.5,1.8-0.5c0.6,0,1.1,0.1,1.5,0.4c0.4,0.3,0.8,0.5,1,1
			c0.3,0.4,0.4,1,0.4,1.6c0,0.1,0,0.4,0,0.5c0,0.1,0,0.3,0,0.4l-1-0.5c0-0.1,0-0.1,0-0.3c0-0.1,0-0.1,0-0.3c0-0.6-0.1-1.1-0.5-1.5
			c-0.4-0.4-0.8-0.5-1.3-0.5c-0.4,0-0.8,0.1-1.1,0.4c-0.3,0.3-0.5,0.5-0.8,0.9c-0.3,0.4-0.3,0.8-0.3,1.3v0.1c0,0.5,0.1,1,0.3,1.4
			c0.1,0.4,0.5,0.6,0.9,0.9c0.4,0.3,0.9,0.4,1.4,0.4c0.3,0,0.5,0,0.6,0c0.1,0,0.5-0.1,0.8-0.1c0.3-0.1,0.5-0.1,0.6-0.3v1
			c-0.1,0.1-0.4,0.1-0.6,0.3c-0.3,0.1-0.5,0.1-0.8,0.1C231.9,69.7,231.7,69.7,231.3,69.7z M228.1,66.4v-0.8h4.8l0.8,0.3v0.6h-5.5
			V66.4z"/>
		<path style="fill:currentColor;" d="M72.8,20.4c0-0.5,0-1,0-1.5c0-0.5,0-1,0-1.6v-3.4c0-0.6,0-1.3,0-1.8c0-0.5,0-1,0-1.6h6.4v1.9
			c-0.4,0-0.9,0-1.4,0c-0.5,0-1,0-1.8,0h-2l0.9-1.5c0,0.5,0,1,0,1.6c0,0.5,0,1.1,0,1.8v3c0,0.6,0,1.1,0,1.6c0,0.5,0,1,0,1.5H72.8z
			 M74.4,16.5v-1.9h1.8c0.6,0,1.1,0,1.5,0c0.4,0,0.9,0,1.3,0v1.9c-0.4,0-0.9,0-1.3,0c-0.4,0-1,0-1.5,0H74.4z"/>
		<path style="fill:currentColor;" d="M84,20.7c-0.6,0-1.1-0.1-1.6-0.3c-0.5-0.1-0.9-0.5-1.1-0.8s-0.5-0.8-0.6-1.1
			c-0.1-0.4-0.3-1.1-0.3-1.6c0-0.6,0.1-1.3,0.4-1.9c0.3-0.5,0.6-1,1.3-1.3c0.5-0.4,1.3-0.5,2-0.5c0.6,0,1.1,0.1,1.6,0.3
			c0.5,0.1,0.9,0.4,1.1,0.8c0.3,0.4,0.5,0.8,0.6,1.1c0.1,0.4,0.3,0.9,0.3,1.4c0,0.8-0.1,1.3-0.4,1.9c-0.3,0.5-0.6,1-1.3,1.3
			C85.5,20.4,84.9,20.7,84,20.7z M84,18.9c0.4,0,0.6-0.1,0.9-0.3c0.3-0.1,0.4-0.4,0.5-0.8c0.1-0.4,0.1-0.6,0.1-1
			c0-0.4-0.1-0.8-0.3-1c-0.1-0.3-0.3-0.5-0.5-0.6C84.5,15.1,84.2,15,84,15c-0.4,0-0.6,0.1-0.9,0.3c-0.3,0.1-0.4,0.4-0.5,0.8
			c-0.1,0.3-0.1,0.6-0.1,1c0,0.4,0,0.6,0.1,1c0.1,0.3,0.3,0.5,0.5,0.8C83.3,18.8,83.7,18.9,84,18.9z"/>
		<path style="fill:currentColor;" d="M91,20.7c-0.6,0-1.3-0.3-1.5-0.6c-0.4-0.4-0.5-1-0.5-1.9c0-0.3,0-0.6,0-0.8c0-0.1,0-0.5,0-0.8
			c0-0.5,0-0.9,0-1.3c0-0.4,0-0.6,0-1c0-0.3,0-0.6,0-1h2c0,0.5,0,1,0,1.5c0,0.5,0,1,0,1.5v1.1c0,0.4,0.1,0.8,0.3,0.9
			c0.1,0.3,0.4,0.3,0.8,0.3c0.3,0,0.4,0,0.5-0.1c0.1-0.1,0.3-0.1,0.5-0.4c0.1-0.1,0.3-0.3,0.4-0.5v-1.5c0-0.5,0-1,0-1.5
			c0-0.5,0-0.9,0-1.4h2c0,0.5,0,1,0,1.5c0,0.5,0,1,0,1.6v0.8c0,0.6,0,1.1,0,1.5c0,0.5,0,0.9,0,1.4h-1.8l-0.1-1.1h-0.1
			c-0.1,0.3-0.4,0.4-0.5,0.6c-0.3,0.3-0.5,0.4-0.8,0.5C91.8,20.5,91.4,20.7,91,20.7z"/>
		<path style="fill:currentColor;" d="M97.1,20.4c0-0.5,0-1,0-1.4c0-0.5,0-1,0-1.5v-0.8c0-0.5,0-1,0-1.6c0-0.5,0-1.1,0-1.6l1.8-0.1
			l0.1,1.3h0.1c0.1-0.3,0.4-0.4,0.6-0.6c0.3-0.3,0.5-0.4,0.8-0.5c0.3-0.1,0.6-0.1,1-0.1c0.8,0,1.3,0.3,1.5,0.6
			c0.4,0.4,0.5,1,0.5,1.9c0,0.3,0,0.6,0,0.9c0,0.3,0,0.5,0,0.8c0,0.5,0,1.1,0,1.5c0,0.5,0,1,0,1.4h-2c0-0.5,0-1,0-1.4
			c0-0.4,0-0.9,0-1.4v-1.1c0-0.4-0.1-0.8-0.3-0.9c-0.1-0.3-0.4-0.3-0.8-0.3c-0.3,0-0.4,0-0.5,0.1c-0.1,0.1-0.4,0.3-0.5,0.4
			c-0.1,0.1-0.3,0.3-0.4,0.5v1.4c0,0.5,0,1,0,1.5c0,0.5,0,0.9,0,1.4h-2V20.4z"/>
		<path style="fill:currentColor;" d="M107.6,20.7c-0.6,0-1.1-0.1-1.5-0.5c-0.4-0.4-0.8-0.8-0.9-1.4c-0.1-0.6-0.3-1.1-0.3-1.8
			c0-0.6,0.1-1.3,0.4-1.9c0.3-0.5,0.5-1,0.9-1.3c0.4-0.4,0.9-0.5,1.5-0.5c0.3,0,0.5,0,0.8,0.1c0.3,0.1,0.4,0.1,0.6,0.3
			c0.3,0.1,0.4,0.3,0.5,0.5h0.1v-0.6c0-0.5,0-1.1,0-1.6c0-0.5,0-1.1,0-1.6l2-0.1c0,0.5,0,1.1,0,1.6c0,0.6,0,1.1,0,1.8v3.9
			c0,0.6,0,1.1,0,1.5c0,0.5,0,0.9,0,1.4H110l-0.1-0.9h-0.1c-0.1,0.3-0.4,0.4-0.5,0.6s-0.4,0.3-0.6,0.4
			C108.1,20.5,107.9,20.7,107.6,20.7z M108.4,18.9c0.3,0,0.4,0,0.5-0.1s0.3-0.1,0.4-0.3c0.1-0.1,0.3-0.3,0.3-0.4v-2.4
			c-0.1-0.1-0.3-0.3-0.4-0.4c-0.1-0.1-0.3-0.1-0.4-0.3c-0.1,0-0.3-0.1-0.5-0.1c-0.4,0-0.6,0.1-0.8,0.3c-0.1,0.1-0.4,0.4-0.5,0.6
			c-0.1,0.3-0.1,0.6-0.1,0.9c0,0.4,0,0.6,0.1,0.9c0.1,0.3,0.3,0.5,0.5,0.8C107.8,18.6,108,18.9,108.4,18.9z"/>
		<path style="fill:currentColor;" d="M115.1,20.5c-0.4,0-0.8-0.1-1-0.3s-0.5-0.4-0.6-0.8c-0.1-0.3-0.3-0.6-0.3-1.1c0-0.4,0.1-0.8,0.3-1
			c0.1-0.3,0.4-0.5,0.5-0.6c0.3-0.1,0.5-0.3,0.8-0.4c0.3-0.1,0.5-0.1,0.8-0.3l1.9-0.3c0-0.3,0-0.5-0.1-0.6c-0.1-0.1-0.3-0.3-0.5-0.4
			c-0.3,0-0.5-0.1-0.8-0.1c-0.1,0-0.4,0-0.5,0s-0.4,0.1-0.6,0.1c-0.3,0-0.4,0.1-0.6,0.1s-0.4,0.1-0.6,0.3l-0.1-1.8
			c0.1,0,0.4-0.1,0.6-0.1c0.3-0.1,0.5-0.1,0.8-0.1c0.3,0,0.5-0.1,0.9-0.1c0.3,0,0.6,0,0.9,0c0.6,0,1,0.1,1.5,0.3
			c0.4,0.1,0.8,0.4,0.9,0.8c0.1,0.4,0.4,0.9,0.4,1.4c0,0.3,0,0.5,0,0.9c0,0.4,0,0.6,0,0.9v0.9c0,0.4,0,0.8,0,1.1s0,0.8,0,1.1h-1.8
			l-0.1-0.9h-0.1c-0.1,0.1-0.3,0.4-0.5,0.5c-0.3,0.1-0.4,0.3-0.6,0.4C115.7,20.5,115.3,20.5,115.1,20.5z M115.8,19
			c0.1,0,0.4,0,0.5-0.1c0.1-0.1,0.3-0.1,0.5-0.4c0.1-0.1,0.3-0.3,0.4-0.5v-1c0,0-0.1,0.1-0.3,0.1s-0.3,0.1-0.4,0.1s-0.4,0.1-0.6,0.1
			c-0.1,0-0.3,0.1-0.4,0.1c-0.1,0.1-0.3,0.1-0.3,0.3c-0.1,0.1-0.1,0.3-0.1,0.4c0,0.3,0.1,0.5,0.3,0.5S115.7,19,115.8,19z"/>
		<path style="fill:currentColor;" d="M120.2,15.1v-1.5h5.2v1.5c-0.4,0-0.9,0-1.3,0c-0.4,0-0.9,0-1.3,0h-1H120.2z M123.8,20.7
			c-0.5,0-1-0.1-1.3-0.3c-0.4-0.1-0.6-0.4-0.9-0.8c-0.3-0.4-0.3-0.8-0.3-1.4c0-0.3,0-0.6,0-0.9c0-0.4,0-0.6,0-1s0-0.8,0-1.1
			c0-0.4,0-0.8,0-1.3c0-0.5,0-1,0-1.4s0-0.9,0-1.4l2-0.4c0,0.4,0,0.8,0,1c0,0.3,0,0.6,0,1c0,0.4,0,0.8,0,1.1v3.7
			c0,0.4,0.1,0.8,0.3,1c0.1,0.3,0.4,0.4,0.8,0.4c0.1,0,0.3,0,0.5-0.1c0.1,0,0.4-0.1,0.5-0.3l0.1,1.6c-0.1,0.1-0.3,0.1-0.5,0.1
			c-0.1,0-0.4,0.1-0.6,0.1C124.1,20.5,124,20.7,123.8,20.7z"/>
		<path style="fill:currentColor;" d="M127.8,12.4c-0.4,0-0.6-0.1-0.9-0.3c-0.3-0.1-0.4-0.5-0.4-0.9c0-0.4,0.1-0.6,0.4-0.9
			c0.3-0.3,0.5-0.3,0.9-0.3c0.4,0,0.8,0.1,0.9,0.3c0.3,0.3,0.4,0.5,0.4,0.9c0,0.4-0.1,0.8-0.4,0.9C128.5,12.3,128.2,12.4,127.8,12.4
			z M126.8,20.4c0-0.5,0-1,0-1.4c0-0.5,0-1,0-1.5v-0.8c0-0.5,0-0.9,0-1.3s0-0.8,0-1s0-0.6,0-1h2c0,0.4,0,0.6,0,1s0,0.6,0,1
			s0,0.8,0,1.3v0.8c0,0.6,0,1.1,0,1.5c0,0.5,0,0.9,0,1.4H126.8z"/>
		<path style="fill:currentColor;" d="M134,20.7c-0.6,0-1.1-0.1-1.6-0.3c-0.5-0.1-0.9-0.5-1.1-0.8s-0.5-0.8-0.6-1.1
			c-0.1-0.4-0.3-0.9-0.3-1.4c0-0.6,0.1-1.3,0.4-1.9c0.3-0.5,0.6-1,1.3-1.3c0.5-0.4,1.3-0.5,2-0.5c0.6,0,1.1,0.1,1.6,0.3
			c0.5,0.1,0.9,0.4,1.1,0.8c0.3,0.4,0.5,0.8,0.6,1.1c0.1,0.4,0.3,0.9,0.3,1.4c0,0.8-0.1,1.3-0.4,1.9c-0.3,0.5-0.6,1-1.3,1.3
			C135.5,20.4,134.8,20.7,134,20.7z M134,18.9c0.4,0,0.6-0.1,0.9-0.3c0.3-0.1,0.4-0.4,0.5-0.8c0.1-0.4,0.1-0.6,0.1-1
			c0-0.4-0.1-0.8-0.3-1c-0.1-0.3-0.3-0.5-0.5-0.6c-0.3-0.1-0.5-0.3-0.8-0.3c-0.4,0-0.6,0.1-0.9,0.3c-0.3,0.1-0.4,0.4-0.5,0.8
			c-0.1,0.3-0.1,0.6-0.1,1c0,0.4,0,0.6,0.1,1c0.1,0.3,0.3,0.5,0.5,0.8C133.3,18.8,133.7,18.9,134,18.9z"/>
		<path style="fill:currentColor;" d="M139.1,20.4c0-0.5,0-1,0-1.4c0-0.5,0-1,0-1.5v-0.8c0-0.5,0-1,0-1.6c0-0.5,0-1.1,0-1.6l1.8-0.1
			l0.1,1.3h0.1c0.1-0.3,0.4-0.4,0.6-0.6c0.3-0.3,0.5-0.4,0.8-0.5c0.3-0.1,0.6-0.1,1-0.1c0.8,0,1.3,0.3,1.5,0.6
			c0.4,0.4,0.5,1,0.5,1.9c0,0.3,0,0.6,0,0.9c0,0.3,0,0.5,0,0.8c0,0.5,0,1.1,0,1.5c0,0.5,0,1,0,1.4h-2c0-0.5,0-1,0-1.4
			c0-0.4,0-0.9,0-1.4v-1.1c0-0.4-0.1-0.8-0.3-0.9c-0.1-0.3-0.4-0.3-0.8-0.3c-0.3,0-0.4,0-0.5,0.1c-0.1,0.1-0.4,0.3-0.5,0.4
			c-0.1,0.1-0.3,0.3-0.4,0.5v1.4c0,0.5,0,1,0,1.5c0,0.5,0,0.9,0,1.4h-2V20.4z"/>
		<path style="fill:currentColor;" d="M178.2,60.8h-22.5l24-24.2c1.3-1.3,1.6-3.2,0.9-4.7c-0.6-1.6-2.3-2.7-4-2.7h-24.2
			c-1.1,0-2.3,0.5-3,1.3l-24,24.2V33.1c0-2.4-1.9-4.3-4.3-4.3c-2.4,0-4.3,1.9-4.3,4.3V42l-16.2,16.2c-3.9,3.9-9.7,4.8-14.4,2.5
			l20.5-20.7c1.6-1.6,1.6-4.4,0-6.2c-8.3-8.4-21.9-8.4-30.2,0s-8.3,22,0,30.4c4.2,4.2,9.7,6.3,15.1,6.3c5.4,0,11-2.2,15.1-6.3
			l10.1-10.1v11c0,1.8,1,3.3,2.6,4.1c0.5,0.3,1.1,0.4,1.6,0.4c1.1,0,2.3-0.4,3-1.3l30.2-30.4h11.8l-24,24.2
			c-1.3,1.3-1.6,3.2-0.9,4.7c0.6,1.6,2.3,2.7,4,2.7h33c2.4,0,4.3-1.9,4.3-4.3C182.4,62.9,180.5,60.8,178.2,60.8z M82.6,40.1
			c2.5-2.5,5.8-3.8,8.9-3.8c1.9,0,3.7,0.4,5.4,1.1l-17,17.2C77.8,49.8,78.7,44,82.6,40.1z"/>
		<path style="fill:currentColor;" d="M55.5,30.2c0.9-0.9,0.9-2.4,0-3.3c-0.9-0.9-2.4-0.9-3.3,0c-0.9,0.9-0.9,2.4,0,3.3
			C53.1,31.1,54.6,31.1,55.5,30.2z"/>
		<path style="fill:currentColor;" d="M60.7,35.4c0.8-0.8,0.8-1.9,0-2.7c-0.8-0.8-1.9-0.8-2.6,0c-0.8,0.8-0.8,1.9,0,2.7
			C58.8,36,59.9,36,60.7,35.4z"/>
		<path style="fill:currentColor;" d="M44.7,30.2c1-1,1-2.5,0-3.5c-1-1-2.5-1-3.5,0c-1,1-1,2.5,0,3.5C42.2,31.2,43.7,31.2,44.7,30.2z"/>
		<path style="fill:currentColor;" d="M57,42.6c-1.3,1.3-1.3,3.4,0,4.7c1.3,1.3,3.4,1.3,4.7,0c1.3-1.3,1.3-3.4,0-4.7
			C60.4,41.3,58.3,41.3,57,42.6z"/>
		<path style="fill:currentColor;" d="M64.8,52c0.8,0,1.5-0.7,1.5-1.5c0-0.8-0.7-1.5-1.5-1.5c-0.8,0-1.5,0.7-1.5,1.5
			C63.3,51.3,64,52,64.8,52z"/>
		<path style="fill:currentColor;" d="M65.8,40.6c0.6-0.6,0.6-1.5,0-2.2c-0.6-0.6-1.5-0.6-2.1,0c-0.6,0.6-0.6,1.5,0,2.2
			C64.3,41.2,65.3,41.2,65.8,40.6z"/>
		<path style="fill:currentColor;" d="M52.7,46.9c0.4-1,0.5-2.2,0.3-3.2c1.4,0.4,2.9,0,4-1.1c1.6-1.6,1.6-4.4,0-6.1
			c-1.3-1.3-3.1-1.6-4.7-1c0.5-1.5,0.3-3.2-0.9-4.4c-1.6-1.6-4.3-1.6-5.8,0c-1.1,1.1-1.4,2.7-1.1,4.1c-1.3-0.4-2.6-0.3-3.8,0.4
			c0.6-1.3,0.4-2.8-0.8-3.9c-1.4-1.4-3.5-1.4-4.9,0c-1.4,1.4-1.4,3.5,0,4.9c1,1,2.6,1.3,3.9,0.8c-0.5,1-0.8,2.2-0.5,3.2
			c-1-0.1-1.9-0.1-2.8,0.4c0.5-1.3,0.1-2.8-0.9-3.9c-1.5-1.5-3.8-1.5-5.3,0c-1.5,1.5-1.5,3.8,0,5.3c1,1,2.5,1.4,3.9,0.9
			C33.1,44,33,45,33.1,46c-1.5-0.3-3,0.1-4.2,1.3c-1.5,1.5-1.8,3.8-0.8,5.6c-1.3-0.6-2.9-0.4-4,0.8c-1.4,1.4-1.4,3.7,0,5.1
			c1.3,1.3,3,1.4,4.4,0.5c-1.3,1.6-1,4.1,0.5,5.6c1.6,1.6,4.4,1.6,6.2,0c1.1-1.1,1.5-2.9,1.1-4.3c1.5,0.5,3.3,0.1,4.4-1.1
			c1.1-1.1,1.5-2.8,1.1-4.2c1.5,0.4,3.3,0,4.4-1.1c1.1-1.1,1.5-2.7,1.3-4.2c1,0.3,2,0.1,2.9-0.3c-0.4,1.3-0.1,2.8,0.9,3.9
			c1.5,1.5,3.9,1.5,5.4,0c1.5-1.5,1.5-3.9,0-5.4C55.5,46.8,54,46.4,52.7,46.9z"/>
		<path style="fill:currentColor;" d="M59.4,57.5c0.8,0,1.5-0.7,1.5-1.5c0-0.8-0.7-1.5-1.5-1.5c-0.8,0-1.5,0.7-1.5,1.5
			C57.9,56.9,58.6,57.5,59.4,57.5z"/>
		<path style="fill:currentColor;" d="M46.7,54.2c-1,1-1,2.7,0,3.5c1,1,2.6,1,3.5,0c1-1,1-2.7,0-3.5C49.2,53.2,47.6,53.2,46.7,54.2z"/>
		<path style="fill:currentColor;" d="M26.6,48c1.7,0,3-1.4,3-3c0-1.7-1.4-3-3-3c-1.7,0-3,1.4-3,3C23.5,46.7,24.9,48,26.6,48z"/>
		<path style="fill:currentColor;" d="M41.4,59.9c-0.9,0.9-0.9,2.2,0,3c0.9,0.9,2.1,0.9,3,0c0.9-0.9,0.9-2.2,0-3
			C43.7,59.2,42.3,59.2,41.4,59.9z"/>
		<path style="fill:currentColor;" d="M21.1,52.2c1,0,1.8-0.8,1.8-1.8c0-1-0.8-1.8-1.8-1.8c-1,0-1.8,0.8-1.8,1.8
			C19.4,51.4,20.2,52.2,21.1,52.2z"/>
		<path style="fill:currentColor;" d="M35.6,65.1c-1,1-1,2.7,0,3.7c1,1,2.6,1,3.7,0c1-1,1-2.7,0-3.7C38.3,64.1,36.6,64.1,35.6,65.1z"/>
		<path style="fill:currentColor;" d="M20,60.3c-0.6,0.6-0.6,1.6,0,2.3c0.6,0.6,1.6,0.6,2.3,0c0.6-0.6,0.6-1.6,0-2.3
			C21.6,59.8,20.6,59.8,20,60.3z"/>
		<path style="fill:currentColor;" d="M24.9,65.4c-0.9,0.9-0.9,2.3,0,3.2c0.9,0.9,2.3,0.9,3.1,0c0.9-0.9,0.9-2.3,0-3.2
			C27.3,64.5,25.8,64.5,24.9,65.4z"/>
		<path style="fill:currentColor;" d="M30.7,71.1c-0.8,0.8-0.8,2,0,2.8c0.8,0.8,2,0.8,2.8,0c0.8-0.8,0.8-2,0-2.8
			C32.6,70.3,31.5,70.3,30.7,71.1z"/>
		<path style="fill:currentColor;" d="M25.2,49.2c-0.8,0.8-0.8,2,0,2.7c0.8,0.8,2,0.8,2.6,0c0.8-0.8,0.8-2,0-2.7
			C27.2,48.4,25.9,48.4,25.2,49.2z"/>
		<path style="fill:currentColor;" d="M19.8,43.6c-0.8,0.8-0.8,1.9,0,2.7c0.8,0.8,1.9,0.8,2.6,0c0.8-0.8,0.8-1.9,0-2.7
			C21.6,42.8,20.5,42.8,19.8,43.6z"/>
		<path style="fill:currentColor;" d="M35.7,48.8c-1,1-1,2.5,0,3.5c1,1,2.5,1,3.5,0c1-1,1-2.5,0-3.5C38.3,47.8,36.8,47.8,35.7,48.8z"/>
		<path style="fill:currentColor;" d="M23.4,36.4c1.3-1.3,1.3-3.4,0-4.7c-1.3-1.3-3.4-1.3-4.7,0c-1.3,1.3-1.3,3.4,0,4.7
			S22.1,37.7,23.4,36.4z"/>
		<path style="fill:currentColor;" d="M15.6,30.1c0.8,0,1.5-0.7,1.5-1.5c0-0.8-0.7-1.5-1.5-1.5c-0.8,0-1.5,0.7-1.5,1.5
			C14.1,29.4,14.8,30.1,15.6,30.1z"/>
		<path style="fill:currentColor;" d="M15.6,40.9c0.8,0,1.5-0.7,1.5-1.5c0-0.8-0.7-1.5-1.5-1.5c-0.8,0-1.5,0.7-1.5,1.5
			C14.1,40.3,14.8,40.9,15.6,40.9z"/>
		<path style="fill:currentColor;" d="M21.1,24.5c0.8,0,1.5-0.7,1.5-1.5c0-0.8-0.7-1.5-1.5-1.5c-0.8,0-1.5,0.7-1.5,1.5
			C19.6,23.8,20.3,24.5,21.1,24.5z"/>
		<path style="fill:currentColor;" d="M41.8,41.5c0.4-0.9,0.5-1.9,0.4-2.9c1.5,0.3,3-0.1,4.2-1.3c1.5-1.5,1.8-3.8,0.8-5.6
			c1.3,0.6,2.9,0.4,4-0.8c1.4-1.4,1.4-3.7,0-5.1c-1.3-1.3-3-1.4-4.4-0.5c1.3-1.6,1-4.1-0.5-5.6c-1.6-1.6-4.4-1.6-6.2,0
			c-1.1,1.1-1.5,2.9-1.1,4.3c-1.5-0.5-3.3-0.1-4.4,1.1c-1.1,1.1-1.5,2.7-1.1,4.2c-1-0.3-2.1-0.1-3,0.3c0.4-1.3,0.1-2.8-0.9-3.9
			c-1.5-1.5-3.9-1.5-5.4,0c-1.5,1.5-1.5,3.9,0,5.4c1,1,2.5,1.4,3.9,0.9c-0.4,1-0.5,2.2-0.3,3.2c-1.4-0.4-2.9,0-4,1.1
			c-1.6,1.6-1.6,4.4,0,6.1c1.3,1.3,3.1,1.6,4.7,1c-0.5,1.5-0.3,3.2,0.9,4.4c1.6,1.6,4.3,1.6,5.8,0c1.1-1.1,1.4-2.7,1.1-4.1
			c0.1,0,0.4,0.1,0.5,0.1c0.6,0.1,1.4,0.1,2,0c0.1,0,0.3,0,0.3-0.1c0.1,0,0.4-0.1,0.5-0.1c-0.5,1.3-0.1,2.8,0.9,3.9
			c1.5,1.5,3.8,1.5,5.3,0c1.5-1.5,1.5-3.8,0-5.3C44.6,41.3,43,40.9,41.8,41.5z"/>
		<path style="fill:currentColor;" d="M46.3,37.4c-1.1,1.1-1.1,3.2,0,4.3c1.1,1.1,3.1,1.1,4.3,0c1.1-1.1,1.1-3.2,0-4.3
			C49.3,36.1,47.5,36.1,46.3,37.4z"/>
		<path style="fill:currentColor;" d="M33.5,24.5c0.9-0.9,0.9-2.2,0-3c-0.9-0.9-2.1-0.9-3,0c-0.9,0.9-0.9,2.2,0,3
			C31.3,25.4,32.7,25.4,33.5,24.5z"/>
		<path style="fill:currentColor;" d="M55.4,32.5c-0.9-0.9-2.3-0.9-3.1,0c-0.9,0.9-0.9,2.3,0,3.2c0.9,0.9,2.3,0.9,3.1,0
			C56.3,34.7,56.3,33.2,55.4,32.5z"/>
		<path style="fill:currentColor;" d="M37.5,20.2c1.5,0,2.6-1.2,2.6-2.7c0-1.5-1.2-2.7-2.6-2.7s-2.6,1.2-2.6,2.7
			C34.9,19,36,20.2,37.5,20.2z"/>
		<path style="fill:currentColor;" d="M55,24.1c0.6-0.6,0.6-1.6,0-2.3c-0.6-0.6-1.6-0.6-2.3,0c-0.6,0.6-0.6,1.6,0,2.3
			C53.4,24.7,54.4,24.7,55,24.1z"/>
		<path style="fill:currentColor;" d="M50,19c0.9-0.9,0.9-2.3,0-3.2c-0.9-0.9-2.3-0.9-3.1,0c-0.9,0.9-0.9,2.3,0,3.2S49.1,19.9,50,19z"/>
		<path style="fill:currentColor;" d="M44.3,13.3c0.8-0.8,0.8-2,0-2.8c-0.8-0.8-2-0.8-2.8,0c-0.8,0.8-0.8,2,0,2.8
			C42.3,14.1,43.6,14.1,44.3,13.3z"/>
	</g>
</g>
</svg>
