<svg width="300" height="87" viewBox="0 0 300 87" fill="none" xmlns="http://www.w3.org/2000/svg"><path d="M188.982 4.617h-37.693v37.696h37.693V4.617Z" fill="currentColor"/><path d="M160.848 10.793V25.62c0 7.845 3.881 10.756 9.039 10.756 5.449 0 9.522-3.144 9.522-10.87V10.793h-3.285V25.73c0 5.537-2.428 7.996-6.127 7.996-3.361 0-5.859-2.393-5.859-7.996V10.793h-3.29Z" fill="#fff"/><path d="M229.002 4.617h-37.693v37.696h37.693V4.617Z" fill="currentColor"/><path d="M203.778 36.057s-.039-17.963-.228-21.139l.115-.035c1.238 2.724 12.659 21.174 12.659 21.174h3.287V10.885h-3.056s.071 17.515.368 20.88l-.115.033c-1.159-2.61-12.506-20.913-12.506-20.913h-3.587v25.172h3.063Z" fill="#fff"/><path d="M229.002 44.629h-37.693v37.693h37.693V44.629Z" fill="currentColor"/><path d="M216.525 52.722c-1.5-1.346-3.847-2.095-7.064-2.095-2.61 0-4.665.227-6.234.525v24.836h3.249V65.905c.752.185 1.644.221 2.617.221 3.176 0 5.971-.945 7.688-2.763 1.309-1.314 1.979-3.107 1.979-5.38 0-2.245-.858-4.07-2.235-5.261Z" fill="#fff"/><path d="M209.165 63.663c-1.049 0-1.983-.077-2.692-.26V53.62c.561-.112 1.643-.26 3.06-.26 3.585 0 5.942 1.596 5.942 4.964 0 3.395-2.357 5.339-6.31 5.339ZM188.942 44.664h-37.696v37.694h37.696V44.664Z" fill="currentColor"/><path d="M177.75 53.694c-2.204-2.053-5.523-3.104-10.192-3.104-2.58 0-4.925.226-6.949.528v24.758c1.681.225 3.588.291 5.94.291 4.888 0 8.773-1.257 11.17-3.613 2.307-2.31 3.613-5.68 3.613-9.785 0-4.07-1.306-7.021-3.582-9.075Z" fill="#fff"/><path d="M167.183 73.565c-1.274 0-2.465 0-3.285-.155V53.507c.86-.184 2.131-.331 3.807-.331 6.87 0 10.236 3.697 10.195 9.704 0 6.796-3.774 10.718-10.717 10.685ZM149.109 4.617h-77.75v77.767h77.75V4.617Z" fill="currentColor"/><path d="M138.054 45.11c-1.088 1.54-2.403 2.984-3.411 4.559.113-1.244.261-2.778-.228-3.961-.836-2.537-1.573-5.116-1.806-7.904l.023-1.067c.634 2.849 3.433 4.81 3.254 8.002.064.776-.176 1.427-.318 2.111l.049.05.127-.142c.413-1.564.62-3.214 1.265-4.676.918-2.1 2.059-4.223 1.593-6.762 1.397 2.995.979 6.991-.548 9.79Z" fill="#fff"/><path d="M136.334 28.973c1.838 2.488 2.243 6.445.902 9.294a16.582 16.582 0 0 0-1.043 3.835c-.097-.228-.116-.539-.197-.798-.729-2.787-3.369-4.776-4.458-7.408-.34-.862-.632-1.751-.796-2.686 1.156 2.144 4.016 3.255 4.797 5.617.321.603.304 1.346.495 1.989.043 0 .085-.03.085-.072-.342-2.436-.24-4.985.095-7.387-.021-1.305-.146-2.57-.873-3.576.466.27.678.79.993 1.192Z" fill="#fff"/><path d="M135.041 28.5c.484 2.177-.216 4.3.228 6.497l-.022.018c-1.183-2.327-3.698-3.426-5.429-5.292-1.007-1.109-1.44-2.458-1.685-3.887.992 2.394 3.663 2.923 5.197 4.932.517.465.686 1.11 1.016 1.64l.054-.056c-.885-1.883-1.184-4.009-1.788-6.017-.317-.87-.929-1.73-1.75-2.28 2.016.414 3.764 2.517 4.179 4.445Z" fill="#fff"/><path d="M129.652 23.503c1.52 1.357 2.206 3.12 2.655 4.945l.245.578a21.817 21.817 0 0 1-5.616-5.966l-1.721-1.744c1.514.642 3.144 1.026 4.437 2.187ZM100.827 21.816c2.87-1.416 6.009-2.175 9.426-2.236 7.811.01 15.273 4.597 18.672 11.829 2.154 4.155 2.766 9.877 1.37 14.569-1.421 5.542-6.084 11.15-11.514 13.43-6.111 2.994-14.798 2.245-20.246-1.662-7.574-5.186-10.672-14.132-8.382-22.96 1.39-5.242 5.564-10.534 10.674-12.97ZM94.835 21.61c-1.523 1.335-2.58 3.024-3.708 4.599-1.015 1.252-2.308 2.08-3.463 3.158.624-1.284.647-2.818 1.527-3.998 1.255-2.189 3.576-2.954 5.644-3.76Z" fill="#fff"/><path d="M86.508 26.258c.734-.92 1.678-1.563 2.734-1.83-2.045 1.405-1.917 3.935-2.57 6.04-.209.775-.569 1.494-.745 2.287l.055.043c.342-.904.94-1.75 1.683-2.486 1.463-1.347 3.62-2.186 4.335-4.177-.03 2.767-2.344 4.94-4.548 6.497-.918.798-1.794 1.711-2.293 2.733-.052-.693.106-1.397.054-2.142-.24-2.415-.414-5.172 1.295-6.965Z" fill="#fff"/><path d="M82.359 34.52c-.067-2.448.949-4.445 2.384-6.269.034-.021.069-.062.119-.055-1.574 2.394-.273 5.41-.342 8.136l-.207 2.787c.025.019.025.102.102.071.092-.307.115-.64.174-.963.373-2.25 2.323-3.844 4.032-5.398.367-.4.68-.82.871-1.29-.134 1.115-.488 2.244-.954 3.281-1.325 2.59-3.783 4.712-4.225 7.676-.218-2.837-2.159-4.961-1.954-7.977Z" fill="#fff"/><path d="M81.163 37.998c.176-.765.317-1.555.647-2.258-.636 3.235 1.542 5.564 2.256 8.372.3 1.044.376 2.176.8 3.159.041.021.075-.022.103-.053-1.067-2.982.465-5.75 2.008-8.081.373-.633.593-1.338.777-2.06.164 1.346-.172 2.903-.373 4.3-.371 1.78-.931 3.468-1.417 5.202-.324 1.074-.24 2.297-.072 3.426l-.156-.124c-1.136-2.082-3.369-3.707-4.029-5.986-.552-1.815-.915-3.915-.544-5.897Z" fill="#fff"/><path d="M81.06 44.32c.251 3.431 3.94 5.244 5.65 8.082.405.582.757 1.222 1.294 1.707-.085-.36-.424-.672-.549-1.044-.602-1.191-.817-2.61-.673-4.05.17-1.752.9-3.38.623-5.224 1.5 3.245 1.045 7.288 1.884 10.797.219.767.663 1.45.954 2.187-3.09-2.105-7.296-4.105-8.666-7.958-.578-1.328-.64-2.974-.517-4.497Z" fill="#fff"/><path d="M82.898 52.193c1.723 3.896 6.03 4.218 8.925 6.59.526.468 1.092.87 1.688 1.153l.03-.033c-.667-.601-1.429-1.284-1.897-2.062-1.688-2.35-1.095-5.648-2.361-8.175 1.151 1.376 2.197 2.805 2.893 4.372 1.036 2.55 1.427 5.429 3.825 7.358-2.597-.85-5.628-.61-7.91-2.207-2.495-1.533-4.724-4.135-5.193-6.996Z" fill="#fff"/><path d="M87.328 59.456c2.754 3.142 7.267 2.093 10.941 2.911.516.076.997.28 1.547.198-.438-.28-1.046-.247-1.525-.497-2.88-1.018-3.306-4.136-4.871-6.236 2.003 1.326 3.677 3.116 5.525 4.847 1.328 1.159 2.917 1.696 4.596 2.043-.4.143-.932.102-1.366.216-3.014.748-6.373 1.959-9.575.868-2.08-.652-4.226-2.297-5.272-4.35Z" fill="#fff"/><path d="M124.768 66.771c-3.107 1.163-6.353-.05-8.778-1.892-.981-.626-1.851-1.526-3.127-1.44-.457-.012-.906.01-1.294.125 2.361 1.097 4.551 2.609 6.558 4.546-.342.383-.775.745-1.19 1.077-1.928-2.078-4.074-4.085-6.469-5.252-.462.06-.913.341-1.332.565-1.952 1.235-3.881 2.824-5.326 4.76l-1.248-1.026c1.99-2.008 4.19-3.573 6.589-4.695-2.358-.744-3.9 1.232-5.692 2.24-2.095 1.46-5.1 2.145-7.632 1.14-1.358-.517-2.668-1.276-3.655-2.51 1.993 1.37 4.952 1.516 7.212.625 3.037-1.317 6.181-2.983 9.839-2.19.574.013 1.133.582 1.672.097 2.714-.706 5.789-.218 8.132 1.024l2.412.963c2.241.829 5.141.602 7.059-.769-.984 1.232-2.332 2.116-3.73 2.612Z" fill="#fff"/><path d="M128.107 63.56c-3.498 1.316-7.005-.298-10.35-.84l-.644-.084v-.017c1.596-.363 3.149-.841 4.426-1.994 1.873-1.802 3.539-3.654 5.626-5.076-1.547 1.981-1.708 4.797-4.259 6.071-.636.415-1.429.486-2.084.802.933.02 1.783-.316 2.706-.408 3.421-.535 7.334.013 9.729-2.9-.894 2.028-3.116 3.73-5.15 4.446Z" fill="#fff"/><path d="M130.043 60.008c-1.778.477-3.684.632-5.418 1.221 2.933-2.516 2.77-6.411 4.727-9.376.619-.841 1.137-1.724 1.865-2.517-1.188 2.393-.675 5.49-2.041 7.812-.528.915-1.284 1.81-2.117 2.54.275-.016.514-.248.748-.406 2.228-2.217 5.131-2.84 7.533-4.644.964-.767 1.848-1.77 2.272-2.856-.458 3.675-4.115 7.126-7.569 8.226Z" fill="#fff"/><path d="M134.445 53.738c-1.377.9-2.776 1.737-4.101 2.763v-.118c2.033-3.379 1.036-8.014 2.286-11.72l.469-1.243c-.259 2.308.744 4.268.677 6.588-.076 1.4-.532 2.643-1.268 3.76h.122c.995-1.302 1.776-2.69 2.937-3.937 1.802-1.738 3.635-3.52 3.874-5.934.61 4.028-1.649 7.559-4.996 9.841Z" fill="#fff"/><path d="m118.854 53.47.145-.2c.622-.485 1.294-.945 1.844-1.545h.075c-.129-.04-.285.085-.426.023-.295-.134-.343-.395-.343-.694l-1.273-1.317-.07-.196c-.097.25-.286.404-.468.587.009.169-.052.42.147.53.413.136.952.407 1.044.892-.168.458-1.037.871-.5 1.369.175.246-.245.34-.175.55ZM111.446 36.654c.241.133.373-.113.576-.165.286.03.511.281.688.466.184.081.363-.031.528-.093.117-.86 1.194-.736 1.513-1.542l-.197.073c-.082-.116-.288-.065-.276-.25.174-.17.403-.429.619-.498-.929-.583-1.893-1.08-2.952-1.345-.414-.098-.852-.108-1.246-.251.2.59.026 1.46.149 2.146l.74.246c.224-.361.699-.43.904-.775.133-.114.29 0 .397.124.034.279-.042.559-.127.827-.279.561-.943.629-1.316 1.037ZM122.486 43.613c-.437 1.39-.945 2.746-1.817 3.959-.339.434-.676 1.038-1.114 1.263l.94.83c.049-.051.02-.136.034-.206 0-.124.058-.27.214-.252.454-.009.462.478.723.728-.055.394.291.704.176 1.068 2.612-2.758 3.92-6.134 4.159-9.875l.142-.165c-.933.09-1.916.027-2.878.041l-.23-.07c.065.63-.103 1.242-.142 1.863l.336.37c.1.146.064.365-.069.477a.39.39 0 0 1-.474-.03ZM119.993 34.443c-.348-.662-.907-1.252-1.386-1.843l-.05.128c-.956.99-2.003 2.017-2.912 3.035a.657.657 0 0 0 .281.298c.037-.247.175-.467.198-.726.244-.34.621-.124.94-.05.496-.116.963.115 1.471.107.374.181.406.66.749.845.092.132.018.292-.106.395.106.777.476-.208.871-.02.164.062.372.04.494.215.062.322.457.263.478.57-.032.154-.197.197-.307.283.1.308-.312.505-.171.836.601.114.622-.582.9-.89-.154-.536-.269-1.088-.576-1.565-.34-.07-.546-.477-.891-.548-.664-.262.104-.674.017-1.07ZM110.75 56.08c.768-.26 1.66-.22 2.489-.354-.164-.062-.333-.1-.458-.268-.486-.032-.717-.536-.867-.925-.074-.275.115-.504.227-.744-.204-.423-.849-.117-1.225-.269-.102-.084-.176-.21-.318-.23l.152.23c0 .85.104 1.72 0 2.56ZM111.422 47.996c.269.051.078.344.277.45.423-.139.749.359 1.087.048-.018-.488.533-.447.831-.57.47-.28.995-.653.944-1.275l-.079-.09c-.32 0-.484.247-.717.442-.296.17-.442-.31-.677-.195.01.05.062.074.107.092.056.075.079.228 0 .304-.356.32-.521-.16-.854-.13v.13c.013.069-.019.184-.12.14-.212-.34-.636-.215-.844-.513-.131-.073-.259.019-.351.1-.071.158-.404-.018-.322.253-.256.09-.285.368-.473.536-.326-.055-.466.31-.77.303.031.06 0 .165.091.173.19.083.375.1.606.073.308-.496.828-.082 1.264-.27ZM114.477 43.95c.015.153.038.36.169.492.404-.06.231.498.601.45.209-.063.014-.239.071-.373-.057-.313-.36-.345-.57-.531-.023-.06.023-.113.048-.163-.15-.084-.222.01-.319.124ZM114.009 29.646c-1.052-.37-2.198-.53-3.341-.7l.105.226-.022 2.805.273-.052c1.716.237 3.289.79 4.65 1.895l.074.22c.459-.654 1.166-1.215 1.714-1.834l.522-.302-.25-.102c-1.142-.952-2.379-1.675-3.725-2.156ZM94.736 41.212l.227 1.909c.089.734.414 1.439.39 2.163.114-.154.043-.468.326-.498-.118-.226.216-.422.028-.62.092-.497.15-1.007.59-1.367.533-.023.571-.72 1.1-.75.27-.01.435.353.554.477-.336-.4-.318-1.064-.234-1.522l-.227.106c-.965-.022-1.968.056-2.88-.074l.126.176ZM113.312 46.06c.246-.258.769-.246.792-.618-.362-.058-.546.142-.792.34-.035.078-.147.224 0 .279ZM119.906 40.861l.318.319c.319.217.106.682.444.87.402.205.551.674.73 1.025.06-.092.06-.206.092-.3.143-.57.121-1.21.298-1.77-.623.03-1.339.092-1.882-.144ZM115.726 48.12c.352.092.594.53 1.035.395.375-.208.996.124 1.245-.27-.04-.383.291-.663.459-.993l.121-.032c.209.216.197.54.292.776.286-.31.515-.653.776-.972.683-.996 1.266-2.063 1.512-3.2a2.929 2.929 0 0 0-.815.141c-.302-.017-.666.157-.926-.051-.089-.08-.155.044-.141.127-.107.155-.212.349-.45.279-.185-.084-.185-.28-.248-.425.01.115-.029.217-.052.32-.215.226-.292.447-.444.694-.217.239-.569.155-.799.352-.042.498-.591.392-.902.552-.02.06.051.07.082.123.148.04.344.04.448-.105.434.116.341-.432.594-.621.216-.031.423-.216.646-.07.233.277.283.681.251 1.044-.251.247-.122.653-.299.943.039.344-.375.498-.321.84-.132.154-.365.178-.572.178a9.73 9.73 0 0 0-2.59-.595.181.181 0 0 0-.122.2c.375.196.828.206 1.22.37ZM109.549 57.198l.107-.157-.322.084c-4.04-.277-7.614-1.706-10.566-4.56l-.033.125-2.133 2.145c3.23 2.8 6.878 4.603 11.042 5.173.665.111 1.425.05 2.062.247l-.157-.247v-2.81ZM105.371 46.028a7.91 7.91 0 0 0 3.733 1.721c.072-.279-.041-.63.104-.87.103-.23.379-.22.591-.18.122-.009.199-.162.122-.27-.299-.057-.161-.39-.269-.578.015-.102.189-.082.147-.219-.212-.165.101-.349-.073-.525.049-.036.088-.097.14-.132-.628.264-1.295-.12-1.849-.366-.273-.16-.665-.309-.724-.644-.445.725-1.3 1.389-1.922 2.063ZM104.308 42.797c-.101-.054-.115-.041-.197.048-.05 0-.113.013-.154-.018 0-.59-.663-.238-.91-.546.289.534.445 1.148.742 1.684.189.476.601.851.79 1.318.196-.374.591-.674.872-1.017a.514.514 0 0 0-.101-.402c-.088-.22-.004-.528-.175-.714-.264.093.099.36-.018.52-.113.07-.238-.026-.246-.129-.24-.038-.427-.25-.501-.467.2-.123-.05-.176-.102-.277ZM106.298 43.098c-.065.257-.238.483-.427.671l.032.02c.25-.177.43-.495.748-.515l-.353-.176Z" fill="currentColor"/><path d="M109.306 53.169c-2.52-.126-4.725-1.046-6.684-2.51.062.247.391.409.299.717-.176.282-.538.287-.826.282-.594-.096-1.03.352-1.584.41-.511.158-.687-.465-1.152-.41 2.878 2.513 6.171 4.087 10.03 4.296l.29.197-.128-.352v-2.736l-.245.106ZM98.113 51.821c-.354-.25-.667-.65-.963-.996-.343-.092-.698-.33-.872-.66-.102-.118-.008-.32-.121-.404l-.13.155c-.362.175-.492-.198-.741-.352-.325-.174-.165-.788-.604-.675-.164-.008-.217-.195-.32-.297-.401.039-.507-.406-.726-.623-.042.094 0 .217-.123.278-.417.095-.558-.413-.841-.623-.075.032-.123.12-.23.096a1.244 1.244 0 0 1-.425-.87c-.34-.388-.184-.995-.12-1.464.062-.124.24-.194.204-.349.096-.218.325-.24.543-.25a.512.512 0 0 1 .204.199c.136-.085.439.007.322-.293.174-.154.438-.209.677-.25.165.21.245.448.467.642l-.145-.226c-.25-1.016-.445-2.05-.502-3.15.011-.061-.128-.092-.05-.152l.02.03c.012-.23-.006-.427.03-.581l-.279.105-2.88-.02a21.114 21.114 0 0 0 2.54 9.096c.734 1.366 1.812 2.598 2.752 3.874l2.062-2.135.251-.105ZM101.431 27.63c-.644.445-1.233 1.025-1.896 1.42.769.484 1.399 1.296 2.093 1.934l.073.198c1.763-1.688 3.906-2.671 6.219-3.148.545-.055 1.098-.24 1.631-.123-.037-.988-.124-2.013-.022-2.99-3.002.18-5.689 1.09-8.098 2.709ZM98.964 38.446c-.112.497-.05 1.075-.25 1.543.368-.169.892-.103 1.296-.052-.235-.124-.037-.423-.176-.592-.03-.255-.074-.577.176-.746-.028-.424.424-.642.47-1.026.111-.433.607-.14.848-.37.156-.085.02-.228.02-.342.207-.284.53-.27.775-.427.179-.269.407-.56.696-.72.623.019.634-.853 1.222-.875-.807-.611-1.574-1.429-2.289-2.136-1.427 1.711-2.404 3.595-2.788 5.743ZM99.356 42.648c.03-.186-.247-.235-.221-.422.199-.385.01-1.005.52-1.171-.36.061-.683.134-.99-.092l.146.248c.024.683.298 1.335.15 2.031.117-.197.148-.467.395-.594ZM102.21 50.129l-.038-.07.038.128v-.058ZM98.763 29.917l-1.12 1.425c-1.833 2.514-2.705 5.425-2.963 8.597l2.84-.054.269.106c-.114-.076-.086-.198-.124-.3.23-2.955 1.263-5.586 3.302-7.784a20.926 20.926 0 0 1-2.189-2.184l-.015.194ZM107.519 49.291c.227-.241.496-.402.777-.506-.919.188-1.731-.476-2.516-.839-.446-.332-1.027-.602-1.295-1.098-.614.745-1.337 1.522-2.059 2.112.316.02.496.375.765.531 1.555 1.293 3.491 1.917 5.291 2.361l-.492-.23c-.375-.422-.905-.92-.924-1.51.372-.127.33-.539.453-.82ZM100.431 41.056l-.08.548c-.127.323-.53.081-.714.303-.134.206.005.423.12.588-.289.664.658.874.644 1.472.291.374-.04.91.375 1.243.091.675-.093 1.588.498 2.114l.105.645c.12.444-.532.328-.448.724.13-.063.154.105.167.144v-.02c.798-.92 1.719-1.895 2.66-2.712l-.391-.396c-.737-1.1-1.317-2.271-1.597-3.555l-.299-.154c-.013.33-.169.59-.146.921l-.103.124c-.216-.007-.354-.185-.539-.3-.044-.114-.158-.298.021-.392a.373.373 0 0 1 .251.07c.09-.113.051-.277.106-.423.024-.249-.194-.477-.039-.695.2-.02.346.218.426.351.2.062.356-.1.52-.175 0-.176.245-.416-.023-.517.148-.405.043-.83-.023-1.222-.109-.343-.494-.281-.773-.25-.84.268.136.902-.071 1.419-.119.301-.428.022-.647.145ZM126.983 41.004l-.172-.125.101.28c-.162 3.45-1.314 6.494-3.287 9.204-.378.453-.736 1.01-1.219 1.333.791.62 1.662 1.554 2.31 2.271l.081-.156c3.173-3.617 4.975-7.806 5.172-12.653l.126-.248-.154.076-2.958.018Z" fill="currentColor"/><path d="m98.91 28.321.05-.143c3.026-2.755 6.548-4.27 10.585-4.456l-.09-.247-.032-2.49.085-.288c-4.166.165-7.865 1.585-11.144 3.947-.636.436-1.195 1.098-1.837 1.474h.089c.822.596 1.6 1.459 2.294 2.203ZM109.41 29.026c-2.632.19-4.916 1.284-6.914 2.935.79.544 1.491 1.426 2.207 2.057.052-.07.105-.142.157-.227.985-.7 2.004-1.343 3.162-1.634.513-.054 1.025-.3 1.562-.18a14.046 14.046 0 0 1 0-3.053l-.174.102ZM109.549 33.129c-1.665.219-3.2.789-4.42 2.083h.224c.252.25.652.197.843.53.093.188-.178.166-.168.32.054.044.128.052.168.124.195.069.153-.113.23-.195.254-.258.299.248.546.248.176-.115.425-.125.547.072.169-.146.522-.013.573-.278.325-.344.146-.87.622-1.088.166.09-.01.248.052.394.319.133.682-.273.94.052-.234-.675-.179-1.517-.157-2.262ZM109.658 37.773c-.308.516-.828.631-1.314.777-.137.165-.105.53-.425.495-.103.231-.456.364-.322.697-.169.35-.088.808-.176 1.192-.611.384-.44-.51-.744-.696l-.11.177c-.117.03-.201-.042-.287-.123-.092-.038-.251-.067-.332.02-.135.23-.342.415-.29.724-.061.184-.373.123-.33.322a5.76 5.76 0 0 0 1.045-.145c.242.061.436-.114.675-.123.078.04.181.123.145.247h.084c.163-.124.232-.315.163-.495.022-.22.26-.22.402-.283.134.063.051.196.077.305.464.172-.115.515-.181.762-.122.198 0 .644-.391.582a.15.15 0 0 1-.101-.18h-.054a.536.536 0 0 0 .279.467c.287-.238.298-.642.719-.694.212-.226-.097-.58.227-.765.538-.014 1.111-.239 1.54.195-.032.186-.101.275.054.427-.107.238-.174.496-.374.696a.345.345 0 0 1-.11.39c-.14.634-.864.33-1.289.552.652.495 1.44.68 2.287.62.445-.02.25-.57.478-.817.143-.725.81-.23 1.215-.427.154-.308.309-.61.348-.962a.696.696 0 0 1-.278-.776c-.175-.24-.157-.675-.543-.717-.055-.082-.009-.19.044-.246-.007-.229.217-.302.28-.478-.235-.155-.173-.498-.156-.697-.406.117-.445-.41-.745-.525-.073-.24-.332-.281-.538-.32-.498.237-.579-.376-.952-.52-.041-.114-.13-.28 0-.372.186-.159.432-.022.649-.035l-.172-.092c-.165-.185-.53-.07-.746 0 .209.208.119.582.249.841ZM93.69 39.968l-.07-.406c.197-3.306 1.251-6.248 3.108-8.877.463-.531.806-1.191 1.388-1.587-.674-.631-1.375-1.368-2.086-2.06l-.07-.282c-2.956 3.284-4.775 7.034-5.304 11.315-.118.623-.038 1.263-.164 1.898a20.162 20.162 0 0 1 3.198 0ZM121.721 52.35c-.296.567-.936.928-1.424 1.367-.673.674-1.77.817-2.114 1.793-.361.328-.483.847-.99 1.032-.191.499-.72.468-1.019.829-.868.777-1.43-.495-2.217-.649l-1.584.28c-.551 0-1.1.195-1.619.018a22.945 22.945 0 0 1 0 3.254l.197-.125c4.996-.215 9.304-2.113 13.003-5.47l-2.183-2.084-.05-.245ZM110.699 23.45c0-.091.041-.172.097-.242.146-.087.264.04.323.14.016.148.078.398-.046.482.124.018.191-.075.298-.075 2.373.177 4.571.869 6.541 1.988v-.05c.405-.198.921-.457 1.335-.105.499-.185.59.425.995.496.489.29 1.039.833 1.1 1.4.089.19.382.32.424.52.333-.705.994-1.205 1.568-1.815l.347-.147c-3.127-2.98-6.845-4.63-10.995-5.199-.657-.114-1.389-.052-2.018-.25.128.819.091 1.94.031 2.858ZM110.697 27.908c.394-.136.797.032 1.192.043 2.031.331 3.952.982 5.571 2.236-.192-.208-.432-.443-.476-.746.036-.041.075-.05.127-.041.022-.322-.321-.487-.368-.778.047-.059.123-.121.226-.092.349.333.647.696.909 1.064.23-.09.415.055.583.177.298.176.114.563.345.768.038.613.784.956.744 1.564.005.145.184.031.247.107l.621.763c-.115.148-.019.325.107.422.277.13.434-.225.708-.172.404.229-.059.497-.021.745.157.009.357-.123.481.032.053.23-.186.374-.285.52 0 .226.191.176.357.226.184-.01.302.22.249.375.518.538-.157 1.117.092 1.689.163.37-.039.733-.272 1.014.013.457-.404.734-.564 1.12l-.531.102c-.282.279.241.622-.043.799l1.161.021-.127-.122c-.161-.456-.124-1.072.157-1.474.18-.373.219-.82.55-1.14.072-.02.206-.155.269 0 .023.351-.009.754-.174 1.066.333.476.288 1.099.319 1.688a43.499 43.499 0 0 1 3.038-.071l-.092-.198c-.157-1.915-.548-3.731-1.349-5.366-.217.013-.373.186-.621.124a.19.19 0 0 1-.124-.206c-.415-.393-.677-.911-1.138-1.267-.535.054-.772-.559-1.249-.62-.422-.177-.13-.861-.744-.672-.299-.127-.592-.354-.652-.696 0-.538-.104-1.12-.587-1.472-.376-.134-.527.362-.906.282-.205-.107-.111-.374-.179-.55-.07-.156-.246-.269-.215-.477.486-.641-.591-.63-.353-1.264-.064-.457-.524-.634-.765-.994-1.607-.726-3.212-1.22-5.026-1.44-.445-.063-.857.031-1.241-.175l.1.193c-.022.965.046 1.99-.051 2.893Z" fill="currentColor"/><path d="M122.035 28.974c.221.052.284.31.431.466.752.404.949 1.214 1.614 1.668.374.781 1.233 1.379 1.264 2.27.9 1.991 1.511 4.095 1.573 6.437l-.079.122a.435.435 0 0 0 .245-.091l2.986-.055c-.195-.29-.113-.713-.167-1.066-.394-4.61-2.361-8.56-5.449-12.04-.573.768-1.348 1.481-2.061 2.217l-.357.072Z" fill="currentColor"/><path d="M111.12 22.956c.091-.165.329-.106.453-.053l1.49-.641c.599.05 1.261.122 1.618.621v.073c-.375.308-.851.556-1.347.35-.685.135-1.64.529-2.191-.175-.023-.05-.084-.125-.023-.175ZM120.024 24.84c.205.064.396.156.469.376-.058.232.218.433.049.618-.561.146-.612-.484-1.044-.64a.45.45 0 0 1-.075-.302c.198-.238.383.157.601-.053Z" fill="#fff"/></svg>