<svg width="300" height="87" viewBox="0 0 300 87" fill="none" xmlns="http://www.w3.org/2000/svg"><path d="M68.575 75.688H18.536c-4.117 0-7.485-3.32-7.485-7.379V18.992c0-4.058 3.368-7.378 7.485-7.378h50.04c4.116 0 7.485 3.32 7.485 7.378V68.31c0 4.057-3.369 7.377-7.486 7.377Z" fill="currentColor"/><path d="m118.039 32.016-4.205-11.488c-.548-1.486-1.234-4.144-1.234-4.144h-.092s-.685 2.658-1.234 4.144l-4.25 11.488h11.015Zm-7.176-18.876h3.383l11.792 31.67h-3.337l-3.702-10.091h-12.935l-3.657 10.091H99.07l11.793-31.67ZM142.677 28.277l-9.371-15.137h3.702l5.623 9.371c.959 1.622 2.056 3.56 2.056 3.56h.092s1.005-1.938 2.01-3.56l5.669-9.37h3.701l-9.415 15.136 10.284 16.533h-3.611l-6.718-10.947c-.961-1.666-2.012-3.468-2.012-3.468h-.091s-.961 1.847-1.965 3.513l-6.583 10.902h-3.61l10.239-16.533ZM182.394 32.016l-4.205-11.488c-.549-1.486-1.235-4.144-1.235-4.144h-.091s-.685 2.658-1.234 4.144l-4.25 11.488h11.015Zm-7.176-18.876h3.382l11.793 31.67h-3.337l-3.702-10.091h-12.935l-3.657 10.091h-3.336l11.792-31.67ZM204.063 19.537v-6.398h17.643v31.67h-3.2V15.933h-11.381v3.65c0 15.001-1.919 24.913-10.695 25.588v-2.928c6.033-.81 7.633-9.235 7.633-22.705ZM250.777 32.016l-4.205-11.488c-.548-1.486-1.235-4.144-1.235-4.144h-.09s-.685 2.658-1.235 4.144l-4.25 11.488h11.015Zm-7.176-18.876h3.383l11.792 31.67h-3.337l-3.701-10.091h-12.936l-3.657 10.091h-3.336l11.792-31.67ZM279.619 29.584c4.296 0 7.084-2.568 7.084-6.893 0-4.28-2.788-6.758-7.039-6.758h-7.588v13.65h7.543ZM268.922 13.14h11.107c5.715 0 9.919 3.694 9.919 9.551 0 5.902-4.204 9.686-9.919 9.686h-7.953V44.81h-3.154V13.14Z" fill="currentColor"/><path d="M76.074 37.032v6.245" stroke="#fff" stroke-linecap="round" stroke-linejoin="round"/><path d="M52.64 30.785v6.246H18.876v18.737h40.103V30.785H52.64Z" fill="#fff"/><path d="M52.643 43.278H25.215v6.245h27.428v-6.245Z" fill="currentColor"/><path d="M18.875 30.785h33.766V24.54H18.875v6.245Z" fill="#fff"/><path d="M76.074 37.032v6.245" stroke="#fff" stroke-linecap="round" stroke-linejoin="round"/><path d="M76.078 37.031h-7.725v-6.245h-6.337V68.26h6.337V43.277h7.725" fill="#fff"/><path d="M98.566 56.073h1.246v5.702h2.965v-5.702h1.246v5.702h.811v2.39h-1.111V62.83h-5.157v-6.758ZM106.973 56.074h4.104v1.057h-2.859v1.77h2.308v1.056h-2.308v1.819h3.013v1.056h-4.258v-6.758ZM113.43 56.074h1.245v2.865h3.139v-2.865h1.236v6.758h-1.236v-2.837h-3.139v2.837h-1.245v-6.758ZM123.226 57.13h-2.249v-1.056h5.736v1.057h-2.25v5.701h-1.237v-5.701ZM131.063 59.434c.724 0 1.149-.457 1.149-1.161 0-.695-.425-1.142-1.131-1.142h-1.187v2.303h1.169Zm-2.415-3.36h2.646c1.285 0 2.183.886 2.183 2.199 0 1.313-.898 2.227-2.183 2.227h-1.4v2.332h-1.246v-6.758ZM138.898 56.074h3.941v1.057h-2.695v5.701h-1.246v-6.758ZM145.114 61.556c.173.133.453.333.773.333.346 0 .54-.22.684-.59l-2.684-5.226h1.372l1.458 3.017c.222.448.385.895.385.895h.021s.125-.447.279-.886l1.101-3.026h1.304l-2.115 5.34c-.29.723-.763 1.532-1.758 1.532-.521 0-.956-.18-1.37-.466l.55-.923ZM151.822 56.074h1.323l1.352 3.341c.155.4.339.99.339.99h.018s.183-.59.338-.99l1.352-3.341h1.323l.561 6.758h-1.247l-.279-3.779c-.039-.447-.01-1.047-.01-1.047h-.02s-.221.657-.376 1.047l-1.11 2.618h-1.082l-1.111-2.618c-.154-.39-.376-1.056-.376-1.056h-.02s.029.609-.01 1.056l-.28 3.779h-1.245l.56-6.758ZM163.985 60.1l-.608-1.808c-.117-.38-.272-1.047-.272-1.047h-.018s-.155.666-.271 1.047l-.618 1.808h1.787Zm-1.546-4.026h1.314l2.404 6.758h-1.273l-.59-1.732h-2.405l-.579 1.732h-1.275l2.404-6.758ZM168.027 56.074h1.246v2.865h3.139v-2.865h1.237v6.758h-1.237v-2.837h-3.139v2.837h-1.246v-6.758ZM176.27 56.074h1.245v6.758h-1.245v-6.758ZM183.266 55.959c.899 0 1.864.285 2.53.923l-.598.914c-.483-.41-1.207-.714-1.874-.714-1.506 0-2.298 1.075-2.298 2.322 0 1.266.821 2.418 2.309 2.418.734 0 1.467-.352 1.988-.857l.657.886c-.588.59-1.468 1.094-2.694 1.094-2.154 0-3.544-1.533-3.544-3.522 0-1.96 1.458-3.464 3.524-3.464ZM189.567 57.13h-2.251v-1.056h5.737v1.057h-2.25v5.701h-1.236v-5.701ZM194.992 56.074h1.246v3.902c0 .4-.067 1.048-.067 1.048h.018s.329-.657.58-1.057l2.588-3.893h1.236v6.758h-1.236v-3.893c0-.4.068-1.047.068-1.047h-.02s-.318.647-.57 1.047l-2.607 3.893h-1.236v-6.758ZM202.836 58.292v-2.218h1.264v1.942c0 .77.339 1.19 1.15 1.19.599 0 1.14-.229 1.411-.4v-2.732h1.264v6.758h-1.264v-2.617c0-.134.018-.315.018-.315h-.018a4.115 4.115 0 0 1-1.729.419c-1.43 0-2.096-.761-2.096-2.027ZM210.559 56.074h1.245v2.865h3.14v-2.865h1.236v6.758h-1.236v-2.837h-3.14v2.837h-1.245v-6.758ZM218.801 56.074h1.245v3.902c0 .4-.067 1.048-.067 1.048h.019s.328-.657.579-1.057l2.589-3.893h1.236v6.758h-1.236v-3.893c0-.4.068-1.047.068-1.047h-.021s-.317.647-.569 1.047l-2.607 3.893h-1.236v-6.758ZM228.453 59.405l-2.047-3.331h1.419l.947 1.657c.213.39.425.818.425.818h.019s.193-.42.425-.819l.956-1.656h1.419l-2.057 3.331 2.135 3.427h-1.391l-1.072-1.818c-.222-.39-.424-.8-.424-.8h-.021s-.192.41-.414.8l-1.062 1.818h-1.382l2.125-3.427ZM100.121 70.146h-2.25V69.09h5.737v1.056h-2.25v5.702h-1.237v-5.702ZM105.543 69.09h4.105v1.056h-2.859v1.77h2.308v1.057h-2.308v1.818h3.013v1.057h-4.259V69.09ZM113.422 72.421l-2.048-3.331h1.419l.947 1.656c.212.39.426.818.426.818h.018s.194-.419.424-.818l.957-1.656h1.42l-2.057 3.331 2.135 3.427h-1.392l-1.071-1.819c-.222-.39-.426-.799-.426-.799h-.019s-.193.41-.415.8l-1.062 1.818h-1.381l2.125-3.427ZM118.969 69.09h1.245v2.865h3.139V69.09h1.236v6.758h-1.236V73.01h-3.139v2.837h-1.245V69.09ZM130.349 74.84c1.256 0 2.26-1.047 2.26-2.418 0-1.314-1.004-2.323-2.26-2.323-1.256 0-2.26 1.01-2.26 2.323 0 1.37 1.004 2.417 2.26 2.417Zm0-5.864c2.018 0 3.544 1.514 3.544 3.446 0 1.989-1.526 3.54-3.544 3.54-2.019 0-3.544-1.551-3.544-3.54 0-1.932 1.525-3.446 3.544-3.446ZM136.697 70.936V69.09h4.24v6.759h-1.246v-5.702h-1.806v.81c0 3.273-.763 4.901-2.666 4.968V74.8c1.015-.132 1.478-1.246 1.478-3.864ZM146.697 74.84c1.255 0 2.26-1.047 2.26-2.418 0-1.314-1.005-2.323-2.26-2.323s-2.26 1.01-2.26 2.323c0 1.37 1.005 2.417 2.26 2.417Zm0-5.864c2.018 0 3.544 1.514 3.544 3.446 0 1.989-1.526 3.54-3.544 3.54s-3.545-1.551-3.545-3.54c0-1.932 1.527-3.446 3.545-3.446ZM152.457 69.09h3.941v1.056h-2.695v5.702h-1.246V69.09ZM158.309 69.09h1.245v6.758h-1.245V69.09ZM163.451 67.471v-.123h.937v.123c0 .41.328.6.648.6.317 0 .656-.19.656-.61v-.113h.926v.123c0 .838-.743 1.314-1.582 1.314-.842 0-1.585-.476-1.585-1.314Zm-1.275 1.619h1.246v3.902c0 .4-.068 1.047-.068 1.047h.02s.328-.657.579-1.056l2.588-3.893h1.237v6.758h-1.237v-3.893c0-.4.069-1.047.069-1.047h-.021s-.317.647-.569 1.047l-2.607 3.893h-1.237V69.09Z" fill="currentColor"/></svg>