<svg width="300" height="87" viewBox="0 0 300 87" fill="none" xmlns="http://www.w3.org/2000/svg"><path fill-rule="evenodd" clip-rule="evenodd" d="m59.458 74.075-.177-3.318-.003-.237c-.006-.345-.014-.71.073-1.032.121-.449.107-.982.094-1.48-.004-.156-.008-.308-.008-.453 0-.177.004-.36.009-.544.01-.457.022-.926-.03-1.36-.013-.12-.037-.23-.06-.338a2.456 2.456 0 0 1-.072-.503l.01-4.936c-.02-.46-.067-.981-.132-1.439-.013-.09-.03-.177-.047-.264a2.838 2.838 0 0 1-.065-.493l.007-8.38-.002-2.031.002-.249c.005-.29.01-.599-.058-.868-.136-.549-.192-1.68-.04-2.226.126-.45.133-1.025.066-1.489a2.862 2.862 0 0 0-.05-.245 1.981 1.981 0 0 1-.062-.357c-.02-.425-.01-.853 0-1.28.011-.435.022-.869 0-1.3a9.301 9.301 0 0 0-.055-.586 8.349 8.349 0 0 1-.057-.64 8.254 8.254 0 0 1 .005-.567 6.452 6.452 0 0 0-.005-.727c-.015-.192-.048-.382-.082-.573a6.173 6.173 0 0 1-.083-.594c-.025-.333-.014-.678-.003-1.02.005-.134.01-.268.011-.4l.019-3.625c-.001-.084.001-.18.004-.28.009-.374.02-.827-.125-1.108l-.194-.407-.327.247c-.402.305-.649.77-.894 1.23a6.505 6.505 0 0 1-.433.738c-.412.575-.867 1.113-1.322 1.65v.001l-.25.297c-.11.13-.233.252-.356.374-.188.186-.377.372-.518.59-.206.317-.48.584-.75.85-.063.06-.125.121-.187.183-1.101 1.102-2.378 2.158-3.896 2.588l-.113-.091-.002-.03c-.016-.234-.033-.487.054-.707.233-.586.817-.979 1.368-1.35.243-.162.48-.321.676-.49.1-.086.205-.2.314-.32.209-.227.433-.471.662-.56.295-.114.633-.445.793-.724.026-.044.045-.089.064-.133a.76.76 0 0 1 .118-.21c.15-.176.322-.327.493-.478.145-.128.29-.255.42-.397.24-.26.446-.563.65-.863.11-.163.22-.326.336-.48.151-.204.307-.404.463-.605.464-.598.928-1.195 1.287-1.87.026-.05.058-.104.092-.16.103-.172.222-.37.229-.534-.487-.023-1.126.301-1.64.561-.12.062-.236.12-.34.17l-1.713.793c-2.376 1.24-4.86 2.235-7.345 3.23l-.559.223-2.626.96c-.084.026-.173.061-.264.097-.154.06-.312.123-.455.147-.099.017-.22-.024-.324-.058l-.03-.01a2.17 2.17 0 0 0-.023-.008c-.144-.2-.146-.332-.149-.538l-.003-.137c.112-.275.29-.442.549-.58.288-.155.632-.257.97-.358.196-.058.389-.116.569-.183l5.358-2.034c.197-.08.402-.159.611-.238.81-.306 1.67-.631 2.28-1.19v-.036l-4.065-.032-.176.002c-.895.01-1.76.02-2.65.16-.375.06-.759.037-1.139.015l-.285-.015c-.213-.009-.428-.005-.643 0-.258.005-.515.01-.768-.009-.189-.013-.377-.04-.566-.066-.218-.03-.437-.061-.657-.072l-1.975-.104-.407-.008c-.596-.009-1.204-.018-1.783-.147-.408-.09-.69-.265-1.023-.512l-.048-.67c.231-.296.633-.263 1.005-.232.08.007.158.014.233.017.721.03 1.443.18 2.163.329.48.1.96.2 1.438.263.376.05.771.044 1.159.038.13-.002.26-.004.387-.004H47.242c.098-.001.198 0 .3.003.362.006.738.013 1.08-.067l.143-.034c.269-.065.578-.14.833-.157.255-.017.512-.01.77-.004.226.006.452.011.677 0 .682-.03 1.438-.117 2.105-.263.073-.016.15-.028.226-.04.143-.021.288-.043.419-.095.189-.075.386-.134.583-.192.316-.094.634-.188.927-.352.132-.074.289-.197.327-.346l-.381-.599c-.096-.163-.711-.318-1.08-.41-.087-.023-.16-.04-.209-.055-4.86-1.397-9.402-3.826-13.794-6.285a5.577 5.577 0 0 0-.476-.221c-.445-.192-.963-.415-1.119-.727l-.152-.35c-.064-.194-.084-.388.006-.572.415-.056.706.062 1.033.195.112.046.228.093.354.135.203.068.372.18.544.291.095.063.191.126.294.182.062.034.127.053.192.072.066.02.131.039.193.073l2.458 1.398c.15.086.296.179.44.272.278.18.555.357.87.48.48.187.84.294 1.35.382-.284-.225-.523-.488-.76-.75a8.795 8.795 0 0 0-.527-.55 3.023 3.023 0 0 0-.355-.27c-.107-.073-.214-.147-.311-.231-.144-.124-.262-.272-.382-.421a3.534 3.534 0 0 0-.347-.392c-.08-.075-.17-.13-.26-.185-.079-.047-.157-.095-.228-.155-.117-.1-.222-.213-.327-.328a4.598 4.598 0 0 0-.259-.267l-.028-.026c-.633-.586-1.353-1.254-1.841-1.971-.167-.246-.358-.454-.547-.66-.306-.336-.608-.666-.792-1.14-.113-.288-.132-.951 0-1.241a.543.543 0 0 1 .336-.108c.403.226.8.55 1.044.948.302.489.635.9.978 1.326.126.156.252.313.38.476.084.108.165.221.246.334.147.206.294.413.467.595.172.18.358.349.543.517.18.162.36.324.527.499.132.137.262.282.392.428.233.26.468.524.724.75.067.06.144.098.22.137.07.036.14.071.203.122.09.073.184.146.278.22.172.133.346.268.498.407.072.065.136.137.201.209.076.085.152.17.239.242.056.047.12.082.184.116.059.032.118.064.17.105l1.22 1.032c.07.054.13.114.187.174.086.087.17.174.29.24.128.07.24.164.353.258.083.07.167.139.257.2.133.09.267.175.4.26.343.218.68.433.997.72.388.354.86.588 1.327.82.227.113.453.226.669.351.868.505 1.771.677 2.76.693l-1.8-1.857a9 9 0 0 1-.274-.307c-.278-.322-.596-.688-.913-.84-.331-.158-.6-.493-.843-.797a10.105 10.105 0 0 0-.185-.226l-1.393-1.73a3.629 3.629 0 0 0-.323-.362c-.11-.113-.22-.226-.314-.35-1.044-1.366-2.057-2.787-2.946-4.26l-.18-.296c-.337-.556-.683-1.127-.975-1.697a5.194 5.194 0 0 1-.17-.384c-.073-.176-.145-.351-.243-.514-.418-.7-.682-1.502-.94-2.286-.084-.253-.167-.503-.254-.748a4.22 4.22 0 0 1-.153-.64 9.538 9.538 0 0 0-.053-.272c-.013-.063-.029-.13-.045-.2-.096-.405-.212-.898-.026-1.258l.03-.052.017-.034a.386.386 0 0 1 .064-.104c.148-.158.524-.386.743-.388.225.175.295.287.342.58l.25 1.388c.017.123.026.25.034.377.014.195.027.39.073.574.106.43 1.05 2.844 1.28 3.085.088.092.148.21.207.327.035.069.07.138.111.201l1.157 1.93.854 1.306 2.182 3.068c.126.164.273.327.422.492.232.257.467.517.629.792.09.153.204.268.322.386.063.064.128.13.19.202.103.12.204.241.306.362.397.474.793.947 1.264 1.356.12.103.25.19.38.276.156.105.313.209.45.343.04.038.061.042.102.049l.035.006-.011-.012c-.025-.026-.057-.06-.07-.09l-.688-1.692c-.041-.1-.095-.195-.15-.29-.068-.12-.136-.239-.18-.372-.044-.137-.12-.262-.193-.385a1.591 1.591 0 0 1-.196-.41 2.038 2.038 0 0 0-.188-.433c-.043-.082-.086-.163-.121-.245l-.794-2.034a1.896 1.896 0 0 1-.075-.271c-.02-.088-.039-.175-.07-.26-.082-.218-.171-.438-.26-.659a14.619 14.619 0 0 1-.436-1.166l-.847-3.07a4.873 4.873 0 0 0-.13-.401 4.19 4.19 0 0 1-.146-.462 5.542 5.542 0 0 1-.094-.598c-.02-.17-.04-.339-.073-.505-.034-.167-.078-.333-.122-.5-.065-.248-.131-.497-.161-.749a7.013 7.013 0 0 1-.033-.832V5.25l-.006-.237c-.015-.464-.03-.954.284-1.32.208-.243.348-.247.621-.255l.05-.002c.163.19.3.422.337.675.042.28.034.575.026.87-.008.255-.015.51.01.756.034.334.11.654.185.974.045.189.09.377.125.57.033.173.05.351.069.53.021.223.043.446.095.658.024.102.06.2.096.297.04.11.08.219.104.334.034.16.056.321.079.483.042.3.084.601.199.886.089.221.13.455.17.69.034.19.068.381.127.566l.557 1.522.662 1.975c.602 1.556 1.357 3.05 2.11 4.536.192.38.385.76.574 1.142.207.415.877 1.604 1.31 1.75.044-.188.082-.385.048-.578-.024-.136-.025-.276-.026-.416a2.424 2.424 0 0 0-.028-.42c-.034-.181-.104-.361-.174-.54-.048-.122-.095-.243-.13-.363-.048-.163-.072-.334-.096-.506-.018-.134-.037-.27-.067-.4-.027-.116-.064-.229-.1-.341a3.809 3.809 0 0 1-.108-.372c-.06-.277-.076-.575-.092-.872-.011-.191-.021-.382-.044-.565-.037-.309-.09-.618-.142-.928-.065-.38-.13-.76-.166-1.138-.034-.352-.026-.714-.02-1.074.005-.223.01-.445.004-.665a1.88 1.88 0 0 0-.058-.371c-.023-.1-.045-.2-.054-.304-.015-.185-.015-.372-.014-.559 0-.19.001-.379-.015-.567a6.386 6.386 0 0 0-.105-.663c-.036-.187-.073-.375-.095-.563a8.66 8.66 0 0 1-.043-.784c-.006-.242-.012-.485-.037-.726l-.335-2.464c-.03-.306-.02-.626-.01-.946.013-.447.026-.894-.07-1.308-.089-.39-.152-.897-.017-1.279.071-.202.057-.464.043-.723-.016-.307-.032-.61.094-.809L55.867 1l.046.005c.032.002.034.003.078.027l.015.008c.32.177.622.345.773.694.085.195.07.538.059.815a6.018 6.018 0 0 0-.007.23l-.022 3.187c0 .112-.005.232-.01.356-.014.374-.029.784.056 1.108.07.27.07.531.071.794 0 .153 0 .306.015.46.01.11.034.22.059.329.021.095.043.19.055.287.017.135.026.27.036.407.014.192.027.384.061.574.08.45.093.913.106 1.378.011.413.023.826.08 1.23.026.179.062.355.098.531.042.2.083.402.109.607.02.159.031.323.042.488.017.25.034.501.083.738.034.17.082.337.13.504.077.27.154.539.176.821.024.3.012.632 0 .972-.024.634-.048 1.294.156 1.816.143.366.25.813.296 1.202.02.178.086.355.152.533.053.142.105.285.136.429.045.21.048.415.051.62.003.148.005.297.023.448.031.265.113.482.331.648.12.091.16.085.277.068l.057-.009c.175-.15.305-.28.427-.48.571-.94.955-1.986 1.332-3.018.048-.13.084-.27.12-.41.052-.198.104-.396.188-.569.215-.447.372-.981.52-1.488l.13-.433c.088-.286.189-.57.29-.854.15-.423.301-.846.411-1.28a3.48 3.48 0 0 0 .07-.418 4.5 4.5 0 0 1 .05-.325c.036-.181.088-.358.14-.535.054-.18.108-.36.144-.544l.37-2.195c.065-.293.065-.584.066-.874 0-.226 0-.45.03-.675.023-.165.05-.335.076-.51.12-.79.253-1.655.094-2.409-.085-.398-.117-.805-.149-1.212-.023-.29-.046-.58-.088-.867-.029-.198-.087-.384-.146-.57a4.568 4.568 0 0 1-.124-.446c-.134-.643-.185-1.333-.202-1.988l.047.008c.3.053.737.13.917.374.96 1.305.953 2.97.946 4.533v.423l.023 1.678c-.006.166-.035.326-.063.486a4.015 4.015 0 0 0-.058.41c-.015.209-.01.418-.007.627.004.22.008.44-.01.66-.008.097-.03.192-.052.286a2.06 2.06 0 0 0-.05.266c-.018.173-.06.336-.103.501-.032.123-.064.246-.086.374-.024.141-.035.287-.046.432-.012.17-.025.339-.059.5-.04.19-.1.374-.162.559-.041.125-.083.25-.117.376-.033.12-.051.242-.07.364-.016.111-.032.223-.06.332-.102.4-.232.797-.362 1.194a24.41 24.41 0 0 0-.282.897l-.516 1.868c-.183.561-.427 1.109-.67 1.654-.13.292-.26.584-.38.876-.034.082-.05.168-.066.255-.015.081-.03.162-.06.24l-.076.195c-.153.389-.28.716-.308 1.172a12.622 12.622 0 0 0 2.51-4.066c.11-.292.25-.576.391-.862.14-.282.28-.565.39-.856l.225-.594.001-.003c.628-1.654 1.257-3.311 1.716-5.022.051-.189.083-.381.115-.574.029-.174.057-.347.1-.518.096-.384.196-.766.296-1.148.27-1.032.54-2.062.719-3.119.047-.28.086-.552.084-.838 0-.078-.004-.164-.008-.254-.015-.317-.03-.68.087-.932l.03-.062.09-.197.034-.063c.133-.26.35-.425.574-.596l.107-.083.071.07c.105.1.247.238.284.331.021.056.025.133.03.21.003.064.006.127.019.18l.046.178c.03.153.005.25-.021.357-.014.059-.03.12-.037.196a4.365 4.365 0 0 0-.016.408c-.002.159-.003.318-.024.475-.041.3-.116.597-.192.892-.051.204-.103.407-.144.612-.022.114-.03.229-.038.344a2.634 2.634 0 0 1-.043.363c-.031.145-.08.283-.129.42a3.54 3.54 0 0 0-.117.371l-.596 2.57a2.937 2.937 0 0 1-.12.334c-.049.118-.097.237-.129.364-.028.109-.046.22-.064.33a3.007 3.007 0 0 1-.09.425c-.03.094-.069.187-.107.28a2.75 2.75 0 0 0-.126.345c-.02.077-.031.157-.043.237a1.875 1.875 0 0 1-.047.254 1.39 1.39 0 0 1-.096.23 1.69 1.69 0 0 0-.085.192c-.047.137-.08.278-.113.42-.034.14-.067.28-.113.416a3.123 3.123 0 0 1-.115.275c-.047.103-.094.207-.129.318a2.086 2.086 0 0 0-.058.26 1.89 1.89 0 0 1-.065.283c-.295.856-.643 1.68-1.03 2.496-.032.066-.057.13-.082.193-.042.11-.084.216-.156.326-.366.556-.626 1.193-.882 1.822-.13.318-.259.634-.4.936.864-.37 1.345-.855 1.993-1.509l.01-.01c1.396-1.409 2.485-3.018 3.51-4.715l.084-.138c.728-1.204 1.509-2.494 1.959-3.825.143-.424.244-.84.346-1.263.041-.168.082-.337.126-.508.025-.099.064-.194.102-.288.04-.097.078-.194.103-.296l.401-1.614c.03-.115.046-.232.061-.347.024-.18.048-.358.125-.53l.016-.014c.092-.084.171-.157.299-.184a.983.983 0 0 0 .266-.1l.035-.018a.564.564 0 0 1 .299.194l.02.095c.072.34.148.7.116 1.046a1.745 1.745 0 0 1-.112.414c-.035.097-.07.193-.092.29a5.896 5.896 0 0 0-.074.416c-.028.179-.055.358-.103.532a24.448 24.448 0 0 1-.951 2.837 2.245 2.245 0 0 0-.078.238c-.032.11-.063.22-.117.321-.15.282-.279.583-.407.884-.091.213-.182.425-.28.63-.284.594-.627 1.183-.959 1.75-.825 1.41-1.803 2.66-2.796 3.927-.224.287-.448.573-.672.864.875-.38 1.666-1.416 2.266-2.2l.143-.186c.07-.09.146-.172.223-.254.097-.102.194-.205.275-.323.146-.214.31-.413.474-.613.127-.155.255-.31.374-.472l2.77-3.865c.194-.29.341-.597.488-.902.254-.53.506-1.052.995-1.474.23-.199.658-.502.963-.478.01.013.023.026.035.039.041.045.084.092.096.15.077.4-.236 1.2-.466 1.537-.294.429-.544.895-.793 1.361-.223.418-.447.836-.703 1.229-.278.427-.597.836-.915 1.244-.182.234-.363.466-.536.701-.185.252-.37.511-.554.772-.445.627-.897 1.263-1.389 1.828-.284.327-.626.63-.965.929-.205.18-.408.36-.597.544l-1.378 1.47c-.17.178-.342.35-.513.523-.38.382-.757.762-1.107 1.178l.114-.02c.346-.064.715-.132 1.015-.307l2.003-1.046c.32-.183.627-.437.932-.69.21-.173.418-.346.628-.494.102-.07.212-.13.322-.187.119-.063.238-.126.346-.206.295-.217.567-.482.84-.747.243-.237.486-.475.747-.678.184-.144.346-.302.509-.461.103-.1.206-.201.315-.298.134-.12.275-.224.418-.328.184-.135.37-.27.54-.442.447-.45.834-.935 1.222-1.423.25-.315.502-.63.77-.939.146-.166.322-.315.498-.465.14-.119.28-.238.405-.366.05-.052.109-.116.171-.186.22-.244.497-.553.744-.624.195-.056.234-.047.404.046.116.38.095 1.01-.15 1.343-.111.153-.24.276-.369.397-.173.164-.345.327-.472.562-.076.14-.198.256-.318.37-.071.068-.141.134-.201.205l-.068.08c-.434.512-.843.995-1.343 1.462-.1.094-.208.173-.316.251a3.486 3.486 0 0 0-.287.225c-.151.136-.292.284-.432.432-.15.159-.301.318-.464.461-.057.05-.12.09-.183.13-.06.037-.119.075-.173.121l-.456.393c-.792.683-1.572 1.356-2.438 1.968-.224.158-.467.3-.71.443a13.951 13.951 0 0 0-1.005.638c-.346.233-.69.466-1.06.669-.143.08-.29.14-.436.201a5.049 5.049 0 0 0-.37.166l-.412.215c-.52.274-1.061.559-1.595.747-.35.124-.714.185-1.076.246a6.77 6.77 0 0 0-.984.216c-.305.1-.503.198-.645.49.044.218.101.322.272.475.138.124.33.13.515.135.08.003.16.005.234.017.161.026.323.055.484.084.382.068.764.136 1.15.173.248.024.496.035.745.046.304.013.609.027.912.063.126.015.246.048.366.08.14.038.281.076.43.085.725.047 1.566.071 2.286-.012.179-.02.35-.06.52-.098.145-.033.288-.066.435-.087.18-.025.367-.03.555-.034.182-.005.365-.009.544-.033 2.176-.29 4.218-.761 6.1-1.95.203-.128.41-.312.622-.501.347-.31.709-.632 1.095-.745.174-.051.38-.06.572-.068l.142-.007a3.587 3.587 0 0 1-.168.971c-.29.824-1.468 1.352-2.395 1.769-.235.105-.454.203-.639.297-1.725.88-3.926 1.306-5.83 1.487-.564.053-1.141.063-1.707.048-.267-.007-.533-.017-.799-.027-.745-.029-1.487-.057-2.239-.014a7.171 7.171 0 0 1-.18.008c-.277.008-.572.017-.8.17v.153c.262.292.614.428.982.537.478.143.949.325 1.42.509.829.322 1.66.645 2.542.753.545.067 1.105.057 1.656.047l.357-.006c.166-.002.335 0 .504 0 .382.004.768.007 1.143-.027.18-.016.35-.066.52-.115.133-.038.265-.077.403-.1.256-.042.542-.034.816-.026a12.6 12.6 0 0 0 .572.005c.398-.003.803-.006 1.19.066l.064.137a1.25 1.25 0 0 0-.082.326c-.02.121-.039.24-.093.338-.294.528-1.156.58-1.78.619-.1.006-.194.011-.279.019-1.86.16-4.048.23-5.876-.212-.809-.196-1.582-.497-2.356-.798l-.36-.14c-.92-.355-1.858-.72-2.738-1.168l-1.23-.625-.234-.129c-.528-.289-1.049-.574-1.603-.82l-.062-.027c-.311-.139-.626-.279-.973-.212l.018.055c.358 1.039 1.175 1.972 1.915 2.816.121.138.24.274.355.408.048.056.086.118.124.18.04.067.08.132.13.189.553.617 1.2 1.314 1.832 1.846l1.59 1.218c.063.046.122.1.18.153.103.093.206.185.33.243.123.058.22.131.316.204.073.056.147.112.233.161l.814.452c.537.292 1.088.47 1.65.652.174.056.35.113.527.174.105.036.206.081.308.127.138.062.277.125.425.163l3.097.826.063.013c.263.056.624.132.82.29.13.107.214.218.216.394.002.133-.03.27-.137.355-.243.191-.824.227-1.122.2-.572-.053-1.138-.26-1.694-.464-.255-.094-.507-.186-.757-.263-.293-.09-.593-.164-.893-.238-.44-.109-.88-.218-1.3-.376-.57-.214-1.096-.52-1.622-.825v-.001l-.313-.18a29.976 29.976 0 0 1-3.032-1.961 1.39 1.39 0 0 0-.225-.128c-.087-.042-.174-.084-.253-.149-.17-.138-.328-.325-.484-.507a6.87 6.87 0 0 0-.27-.305c-.215-.224-.445-.434-.675-.643-.255-.232-.51-.464-.743-.715-.13-.139-.238-.297-.346-.455a4.798 4.798 0 0 0-.273-.372c-.143-.171-.28-.385-.422-.605-.297-.462-.613-.954-1.044-1.146l-.121.123c.039.604.02 1.206.003 1.808-.014.448-.027.896-.017 1.345.008.362.045.717.081 1.073.02.197.04.395.056.594.01.121.009.242.008.362-.001.14-.002.281.013.421.013.115.036.228.06.341.028.136.057.272.066.41.026.42.02.851.014 1.28-.003.193-.006.386-.006.576l-.013 4.472c.002.252.037.498.072.745.034.245.069.49.072.743l.029 2.64c0 .07-.007.21-.016.377-.024.432-.058 1.057.016 1.209.185.383.144 1.487.116 2.247-.008.221-.015.413-.015.55l-.002 5.874c-.025.213-.037.51-.02.922.029.698.111 1.078.19 1.284l.015.07c.097.42.15 1.2.009 1.606a.829.829 0 0 0-.062.281c-.005.172-.013.362-.073.524-.376 1.012-.254 2.481-.098 3.534.014.097.043.19.072.281.035.111.07.222.079.342.016.215.012.443.008.672-.007.357-.014.717.058 1.043.097.444.163 1.435.014 1.853-.066.186-.09.379-.114.574l-.011.089.02.036c.094.179.135.376.176.574.019.088.037.176.06.263.032.122.084.233.135.344.055.12.11.24.142.374.165.692.104 1.778-.092 2.454l-.021.05c-.027.082-.031.17-.035.26-.002.054-.004.109-.012.162l-.144 1.137-.004.038c-.013.134-.034.359-.11.45a.887.887 0 0 1-.237.166.561.561 0 0 1-.183.034l-.03.003c-.299-.174-.37-.298-.462-.635-.04-.143-.061-.281-.082-.415-.05-.32-.095-.613-.372-.888a.527.527 0 0 0-.21.123Z" fill="currentColor"/><path d="M95.17 19.78c.936-.033 2.144-.172 3.046.063.696.181 1.525.158 2.249.223.278.025.626.023.863.189l1.149.77.317.184c.8.528 1.343 1.392 1.845 2.196.224.359.412.553.505.993.149.704.442 1.398.538 2.105.098.724-.053 1.544-.137 2.268l-2.739-.003c-.001-.592.111-1.112.151-1.689.048-.7.007-1.426-.001-2.128-.003-.233.05-.68-.012-.893-.184-.627-.937-1.364-1.239-1.992l-.037-.08c-2.521-.857-5.774-1.45-8.277-.203-.63.314-1.105 1.125-1.533 1.675-.088.112-.394.425-.426.546-.095.365.04.94-.008 1.34-.027.224-.143.409-.158.643-.053.873.052 1.808-.079 2.668-.064.418-.278.792-.343 1.213-.08.523-.13 1.18-.282 1.671-.212.687-.124 1.402-.13 2.112-.007.751-.082 1.572.022 2.315.058.416.346.908.3 1.302-.02.18-.026.265.025.44.887.069 1.858-.324 2.725-.478.67-.12 1.447-.053 2.128-.042.394.006.923-.028 1.288.134.818.361 1.853.343 2.727.554l.361 2.155-9.22-.26c.028.665.088 1.37.023 2.031-.03.304-.168.575-.18.885l-.006 4.778c0 1.27-.151 2.728.12 3.961.178.803.2 1.53.479 2.326.255.914.085 1.808.28 2.697.067.303.223.586.308.885.136.482.165.994.291 1.478.13.497.329.907.42 1.424.14.79 1.601 1.26 2.185 1.686l.07.053c.985-.072 2.06.055 3.024-.08.573-.08 1.216-.31 1.767-.494.34-.115.792-.23 1.091-.438.251-.173.461-.429.709-.616.333-.25.895-.646 1.332-.566.405.074.798.083 1.174.285.211.113.397.232.475.475-.221.481-.54.972-.865 1.388-.659.846-1.309.944-2.234 1.302-.617.238-1.257.521-1.917.583-.597.056-1.18.197-1.777.26-1.35.142-2.748.109-4.07-.209-.413-.1-.78-.159-1.166-.36-1.333-.69-2.742-1.796-3.223-3.31l-.038-.124c-.56-1.745-.534-3.412-.62-5.223-.034-.697-.149-1.383-.219-2.076-.115-1.145-.297-2.281-.878-3.287-.057-.099-.119-.173-.147-.288-.197-.82-.134-1.867-.136-2.712l-.005-4.421c0-2.364-.144-4.844.035-7.195.073-.957.363-1.938.483-2.903.11-.883.06-1.76.16-2.629.043-.38.275-.797.346-1.21l.29-1.873c.044-.41.033-.841.124-1.242.047-.207.125-.397.225-.582.537-1.003 1.43-1.887 2.14-2.758.363-.446.892-1.41 1.443-1.638.168-.07.736.024.968.021.594-.008 1.23-.06 1.798-.242l.103-.034ZM139.971 19.77c.223-.043.569-.088.793-.041.42.087.884 1.78 1.146 2.21l.065.104c-.008.2-.011.38-.076.57a2.708 2.708 0 0 0-.13.79c-.013.444-.201.811-.236 1.245-.063.77-.014 1.584-.013 2.358.001.68-.054 1.427.093 2.092.316 1.43.238 2.862.412 4.298.122 1.008.747 2.6.49 3.54-.148.542-.078 1.033-.155 1.577-.077.551-.223 1.087-.292 1.65.512-.018 1.02.041 1.531.037.589-.006 1.189-.064 1.775-.003.51.053 1 .247 1.497.288l2.31.09c.316.015.607.16.902.155.704-.013 2.331-.268 2.817-.766.129-.278.064-.663.057-.966l-.032-2.261-.017-9.25c-.016-.543-.169-1.072-.178-1.611l.011-4.07c.643-.604 2.113.505 2.905.47l.065-.004c.061.052.149.084.184.157.048.103.032.478.038.605l.013 2.247V44.22l-.012 8.938c.016.701.203 1.388.225 2.085l.02 3.081c.003.439-.051.982.052 1.404l.469 2.343c.117.519.347 1.01.475 1.532-.454.397-1.935.217-2.545.209-.436-.737-.732-1.361-.829-2.223l-.007-.068-.021-11.14c.002-1.466.132-3.056-.042-4.51-.029-.246-.179-.47-.244-.714-.166-.613-.168-1.225-.479-1.797a.956.956 0 0 1-.137-.383.811.811 0 0 0-.114-.35c-.501-.068-1.105.078-1.619.094l-3.477.01c-.96-.022-1.866-.357-2.811-.459-.855-.092-1.785.093-2.641.182.086.547.255 1.069.359 1.612.081.424.1.88.197 1.296.058.25.166.438.187.704.032.384-.182.667-.29 1.025-.09.298-.093.592-.096.9l.019 3.682c0 .532.07 1.163-.088 1.668-.218.701-.136 1.486-.344 2.228.3.738.641 1.718.762 2.506.148.96.053 2.064.051 3.039-.002 1.143.128 2.584-.127 3.686l-.275.134c-.833-.264-1.873-.391-2.747-.463-.034-.526.301-1.183.43-1.695.1-.396.094-.81.098-1.215.005-.585.016-1.197-.082-1.774-.071-.419-.246-.82-.292-1.24-.097-.875.012-1.814-.016-2.698-.025-.755-.167-1.494-.203-2.246l-.038-5.378c-.002-.754.067-1.602-.055-2.34-.237-1.429-.264-2.892-.362-4.333-.036-.521-.155-1.024-.177-1.55l-.008-10.95.001-3.302c.001-.6.047-1.243-.02-1.837-.055-.476-.247-.93-.311-1.407-.08-.581.029-1.192-.126-1.76l-.195-.68c.475-.1.942-.13 1.413-.267l.097-.029ZM221.739 19.738c.33-.051.588-.03.916.03.297.311.561.89.639 1.31.077.414.293.775.331 1.202.051.574-.177.97-.191 1.511-.049 1.961-.144 4.096.003 6.047.051.675.256 1.42.359 2.099.092.608.034 1.26.095 1.88.093.95.338 1.906.356 2.856.017.856-.169 1.784-.294 2.635-.04.277-.17.662-.102.934 1.408.027 2.938-.17 4.311.134.769.17 1.553.171 2.338.208.558.026 1.174.179 1.713.169.934-.017 1.947-.302 2.844-.537-.015-.802-.165-1.61-.184-2.421l.003-10.489-.027-2.302c-.022-.395-.137-.763-.111-1.167.046-.746.249-1.552.357-2.299.871.195 1.746.59 2.627.707l.065.008c.095.089.299.232.361.336.196.334.069 5.068.069 5.754l-.003 20.844-.002 3.888c-.001.566-.1 1.315.073 1.85l.051.161c.133.466.076 1.053.078 1.538.005 1.608-.172 3.208.269 4.77.122.434.504 1.982.315 2.333-.656.192-1.597.257-2.276.209-.178-.313-.383-.637-.49-.981-.158-.506-.217-1.124-.52-1.567l-.039-.053c.194-.43.112-.904.1-1.364l-.013-2.006-.021-8.186c-.012-1.355.117-2.803-.022-4.146-.107-1.027-.666-2.01-.828-3.033-1.793.2-3.772.28-5.571.13-.919-.078-1.827-.359-2.752-.442-.806-.072-1.691.1-2.49.208-.005.135-.017.097.019.207.238.73.353 1.366.431 2.127.113 1.111.125 2.017-.231 3.093-.171.514-.066 1.158-.062 1.695.002.185-.074.33-.073.508l.011 2.873c.004.182.097.338.094.547-.012.763-.515 1.768-.116 2.516.72 1.349.511 3.08.499 4.556l-.049 4.316-3.024-.508c.353-.686.56-1.231.582-2.008.018-.63.05-1.293-.039-1.918-.06-.417-.223-.823-.275-1.232-.142-1.095-.021-2.25-.086-3.357-.05-.857-.262-1.7-.305-2.56l-.026-7.313c-.017-.563-.213-1.095-.246-1.653-.062-1.04.037-2.075-.153-3.109-.106-.578-.058-1.199-.056-1.785l.002-2.877-.005-11.09c-.012-.84-.242-1.505-.347-2.311l-.285-3.258c.451-.08.836-.04 1.293-.182l.11-.035ZM254.194 22.139c.949-.146 1.976-.07 2.935-.072l4.851.022c.321.256.575.561.841.877.07.473.121 1.353-.033 1.8-.186.538-.152 1.357-.152 1.932v3.492c-.01.345-.154.645-.176.977-.109 1.637-.003 3.36-.001 5.005l-.014 6.387c.015.482.185.94.204 1.426.046 1.234-.088 2.49.19 3.702.035.151.062.292.076.448.05.572.212 1.103.251 1.688-.149.23-.103.548-.095.817.039 1.269.497 2.055.797 3.22.167.65.083 1.417.078 2.088l-.007 3.62c-.001 1.77.14 3.607-.005 5.366-.626-.25-1.139-.562-1.703-.932-.278-.182-.677-.505-.998-.57l-.103-.019c-.36-.59-.177-2.557-.177-3.327-.001-1.62.116-3.308.002-4.92l-.306-3.134c-.072-.53-.215-1.042-.248-1.578-.085-1.419.138-2.837-.08-4.26l-.214-1.47c-.279-.095-.66.242-.986.201-.778-.097-1.899.227-2.683.356-.252.478-.809 1.073-1.255 1.339-.012.111.005.07-.046.156-.308.521-.717 1.667-.766 2.293-.049.62.046 1.266-.082 1.877-.14.666-.584 1.396-.635 2.052-.035.453-.289.804-.411 1.238-.132.47-.117.966-.203 1.443-.085.466-.301.875-.359 1.365-.116.986-.009 2.062-.024 3.059-.009.563.02 1.024-.26 1.527l-.188.365c-.192.454-.453 1.082-.81 1.41-.498.459-1.439.754-2.029 1.12-.591-.134-1.177-.464-1.745-.693.579-.69 3.059-3 3.184-3.727.027-.16-.012-.417-.017-.585-.018-.691-.144-1.748.067-2.399.227-.701.223-1.661.306-2.402.051-.463.222-.925.213-1.397-.005-.269.049-.49.167-.73.201-.407.403-.873.416-1.34.015-.525-.115-1.093.01-1.603.262-1.077.556-2.165 1.222-3.058.4-.537.919-1.001 1.34-1.537-.747-.6-1.751-.915-2.452-1.535-.255-.226-.527-.735-.695-1.041-.632-1.156-1.066-2.338-1.429-3.608-.11-.382-.257-.766-.303-1.165-.166-1.44-.018-3.098-.017-4.556 0-.847-.135-2.048.081-2.854.223-.836.141-1.809.347-2.645.192-.778-.038-1.626.139-2.374.03-.13.278-.418.357-.535.425-.63.936-1.22 1.267-1.914l.044-.095c.835-.093 1.514-.391 2.322-.593Zm1.249 1.318c-.709.103-1.845.096-2.431.471l-.103.06c-.722.43-.687 1.01-1.039 1.685-.43.826-.025 2.197-.282 3.152-.206.764-.066 1.891-.067 2.693l.004 4.266c.002.714-.057 1.495.025 2.203.07.605.414 1.525.712 2.044.225.39.525.733.751 1.129.386.678.622 1.311 1.299 1.72.244.148.493.182.743.297.235.108.43.326.681.392l.162.026c.103.017.152.074.222.15l.194-.073c.304-.046.58-.084.868-.205.778-.325 1.699.008 2.554-.375-.064-.783-.135-1.62-.058-2.403.037-.376.151-.715.161-1.102l.007-2.492c.001-.495-.032-1.016.159-1.479.194-.467.072-1.467.072-1.99l.005-5.644c.023-.834.238-1.73.325-2.57.069-.668.028-1.34.072-2.01l-5.036.055ZM172.559 21.32c2.126-.17 4.06.065 6.008 1.01.335.162.685.327 1.001.526.178.113.347.288.543.355.092.031.167.051.252.102.587.347.957 1.236 1.285 1.824.64 1.145 1.252 2.38 1.531 3.677.235 1.096.184 2.145.254 3.248.03.488.172.96.193 1.45l-.016 6.848c-.002.507.195.96.201 1.473l-.048 7.081.001 3.288c.001.697-.048 1.454.146 2.127.254.88.095 1.912.218 2.829.078.575.333 1.097.43 1.662.063.372-.002.828.145 1.173.308.723.209 1.763.401 2.528.079.313.228 1.039.077 1.332-.09.176-2.052.263-2.411.38l-.069.024-.21-.217-.823-17.146c-1.373.097-3.091.067-4.382.507l-.119.041c-2.315.07-4.628-.166-6.952-.008-.411.028-1-.018-1.356.185-.415.712-.103 1.59-.091 2.35.016 1.069-.281 2.044-.314 3.089-.02.63.173 1.519-.062 2.1-.189.465-.16 1.007-.162 1.506l.038 2.934c.008.42.069.902-.064 1.303-.18.538-.194 1.118-.36 1.668-.233.777-.702 1.601-1.016 2.361-.628.038-1.264-.175-1.855-.365-.002-.242.027-.451.075-.687.124-.605.283-1.254.295-1.875.019-.909-.129-1.883.002-2.782.056-.386.248-.717.361-1.085.168-.544.213-1.136.222-1.703.012-.818.02-1.659-.039-2.474-.046-.643-.168-1.227-.169-1.887l-.005-13.202c.013-.712.189-1.39.2-2.102.033-2.256-.147-4.622.13-6.843.175-1.406 1.032-2.97 1.572-4.283.253-.616.396-1.181.741-1.764.312-.527.915-1.474 1.375-1.83.154-.118.47-.17.654-.221l2.172-.506Zm1.306 1.96c-.71.368-1.725.734-2.2 1.372-.453.61-1.068 1.082-1.473 1.73-.42.672-.482 1.25-.697 1.983-.314 1.064-.87 2.246-.994 3.346-.087.76.116 1.654-.14 2.368-.153.427-.116.95-.123 1.401l-.008 2.503.025 7.802c.766-.05 1.83-.142 2.568.065.82.229 1.694-.105 2.513-.123l2.672.069 5.553-.8c-.04-.98.033-2.133-.149-3.09-.111-.586-.472-1.044-.525-1.66-.142-1.647.103-3.343-.054-4.98-.053-.555-.274-1.021-.417-1.548-.133-.493-.151-1.016-.27-1.514-.114-.478-.302-.94-.399-1.421-.117-.586-.021-1.203-.161-1.795-.099-.414-.214-.768-.429-1.137-.07-.12-.111-.234-.16-.363-.186-.49-.493-.886-.777-1.317-.156-.236-.258-.51-.438-.73-.353-.433-.737-.706-1.035-1.203l-2.882-.958ZM122.666 21.33l.748-.056c.616-.03 1.385.087 1.989.236.3.075.547.241.859.308.272.059.841.085 1.07.206.111.058.28.26.379.35.017.402.059.807-.065 1.195-.232.725-.022 1.55-.205 2.303-.157.649-.202 1.523-.084 2.184.051.282.178.528.22.817.173 1.188.161 2.31.159 3.512-.001.588-.12 1.575.072 2.111.292.811.134 2.095.135 2.964l-.036 7.594c.007.317.159.591.191.906.09.867.031 1.797.032 2.671.001.456.071 1.042-.004 1.485-.083.497-.024.982-.026 1.486-.002.679-.079 1.35.028 2.012.065.402 0 .929-.001 1.342l.003 2.938c.027.961.235 1.857.295 2.798.041.643.324 1.237.387 1.91.564.118 1.147.014 1.718.045 1.035.056 1.848.418 2.805.733.437.144.821.35 1.227.568.03.584-.144 1.147-.21 1.72-.054.476-.023.99-.024 1.47l.004 2.799c.002.518.059 1.103-.081 1.602-.279.994-.079 2.222-.003 3.244l-2.744.288c.359-3.24.346-6.382-.165-9.61-.565-.23-1.182-.328-1.771-.475-.744-.187-1.515-.449-2.272-.552-1.008-.136-2.106-.056-3.125-.055l-5.823.008-7.597.125.292 2.374c.07.74.098 1.595.305 2.312.227.784.247 2.246-.019 3.024l-.074.232c-.192.689-.371 1.573-.715 2.19-.463.416-1.843.354-2.485.381.226-1.181 1.015-2.77.855-3.94-.085-.621-.133-1.261-.25-1.876-.114-.599-.289-1.22-.336-1.827-.087-1.13.104-2.35-.124-3.465-.08-.39-.092-.782-.113-1.18l2.803-.382c.615-.073 1.611-.046 2.167-.28.518-1.1 1.102-2.114 1.693-3.171.249-.446.573-.83.744-1.32.325-.927.506-2.095.596-3.074.042-.451.02-.931.108-1.375.104-.522.294-1.027.424-1.543.109-.437.117-.883.229-1.314.345-1.316.792-2.658 1.069-3.985.177-.847.166-1.779.3-2.645.129-.839.07-1.732.07-2.581l-.005-4.27c.003-.904.162-1.736.216-2.622l.062-2.9c.041-.787.626-1.73.506-2.482-.004-.027-.012-.053-.02-.08-.138-.458-.151-.953-.242-1.424-.074-.383-.213-.762-.246-1.151-.05-.6-.043-1.205-.147-1.8-.104-.585-.333-2.106.087-2.576.05-.056.242-.199.317-.212.487-.087 1.085.015 1.586-.009.277-.013.538-.117.813-.149.475-.055.971-.049 1.449-.063Zm.798 1.413c-.664.118-1.315.242-1.965.426-.145.04-.447.088-.562.164-.058.038-.155.222-.201.287-.088.794.071 1.355.169 2.125.043.336.007.714.123 1.028.151.409.105.981.104 1.419l-.02 2.83c-.004.582-.067 1.254.117 1.804.16.48.099 1.342.101 1.862l-.003 2.845c-.003.673.027 1.32-.152 1.975-.173.632-.023 1.37-.098 2.024-.061.525-.356 1.019-.465 1.532-.217 1.023-.126 2.162-.48 3.151-.205.57-.273 1.257-.442 1.853-.297 1.047.204 2.098-.199 3.191-.123.335-.164.7-.296 1.03-.142.355-.375.64-.476 1.017-.187.696-.108 1.357-.411 2.036-.331.743-.225 1.718-.567 2.53-.317.754-.155 1.536-.565 2.258l-.061.109c-.321.557-.824 1.17-1.231 1.673 1.097.404 1.933.488 3.099.452l6.802.026c-.071-2.02-.207-4.264.144-6.237.077-.435.012-.888.141-1.317.149-.5.049-1.304.044-1.838-.01-.975.071-2.012-.031-2.976-.075-.721-.303-1.43-.345-2.158-.063-1.109.009-2.259.01-3.373l-.009-9.502a19.338 19.338 0 0 0-.336-2.976c-.076-.396-.199-.782-.241-1.184-.118-1.11-.055-2.4.013-3.52.014-.223.074-.42.161-.625.489-1.152.562-2.222.81-3.436-.889-.201-1.773-.434-2.682-.505Z" fill="currentColor"/><path fill-rule="evenodd" clip-rule="evenodd" d="M193.23 18.93a5.124 5.124 0 0 1-.166 1.217c-.238.855-.15 2.621.063 3.48.104.42.097.9.09 1.355l-.003.389.003 3.173-.012 13.098c.005.267.054.518.103.77.026.137.053.273.073.414.101.715.176 1.53.206 2.249l-.016 7.714c.005.29.058.536.112.785.037.17.074.342.096.53.08.677.063 1.41.045 2.124-.006.288-.013.573-.014.85 0 .227.007.464.013.707.021.78.043 1.613-.146 2.314-.136.503-.125 1.074-.115 1.613l.006.37.276 5.185a.821.821 0 0 1 .329-.19c.433.428.504.887.582 1.386.032.21.066.425.128.65.144.526.256.72.721.99l.048-.003a.879.879 0 0 0 .286-.053c.098-.044.302-.175.37-.259.118-.143.152-.495.172-.705l.006-.058.225-1.778c.012-.083.016-.168.019-.253.006-.14.012-.278.055-.407l.033-.078c.306-1.056.402-2.753.144-3.834-.05-.208-.137-.396-.223-.584a3.308 3.308 0 0 1-.21-.538 8.036 8.036 0 0 1-.094-.412c-.064-.308-.128-.617-.275-.897l-.032-.056.018-.138c.037-.306.074-.606.178-.899.233-.652.13-2.201-.022-2.895-.112-.51-.101-1.072-.091-1.63.007-.358.013-.714-.013-1.05a2.324 2.324 0 0 0-.123-.534 2.81 2.81 0 0 1-.112-.44c-.244-1.645-.435-3.942.152-5.523.094-.253.107-.55.116-.818.005-.174.039-.277.096-.439.221-.635.138-1.853-.015-2.512l-.136-.67.346-.053c.717-.112 1.461-.229 2.177-.17.475.039.942.13 1.409.221.496.098.993.195 1.499.229 1.709.114 3.547.047 5.253-.108l.564 2.228c.038.127.094.267.151.411.1.255.206.52.225.742.088.987.063 2.028.038 3.052-.01.448-.021.893-.022 1.329l.001 8.134-.003 2.262c0 .104-.003.211-.006.321-.009.357-.019.736.05 1.065.079.377.28.786.472 1.178.097.198.192.392.268.574.444.045.94.003 1.429-.038.303-.026.603-.051.887-.056l.162-.168c-.035-.672-.228-1.32-.421-1.972-.169-.567-.338-1.137-.403-1.725-.093-.836-.063-1.731-.033-2.61.014-.414.027-.825.028-1.224l.003-.28c.007-.456.014-.915-.12-1.351-.07-.227-.087-.469-.104-.709-.019-.282-.039-.561-.144-.808-.1-.237-.089-.651-.08-.993.003-.112.006-.216.004-.303v-4.132l-.007-16.694.003-5.476c0-.29.004-.582.008-.875.009-.722.019-1.449-.028-2.163l-.073-.012c-.396-.075-.748-.215-1.096-.353-.484-.192-.962-.381-1.538-.388-.232.208-.251.435-.272.676-.014.169-.029.345-.119.528-.082.167-.082.355-.082.54l-.001.127-.004.13c-.017.614.093 1.187.203 1.761.087.459.175.918.2 1.402l.032 9.893v2.503c0 .075.003.158.007.245.01.277.022.592-.062.813l-.473.12c-.738.189-1.488.381-2.244.433-.198.013-.392-.028-.587-.07-.13-.028-.259-.055-.39-.067-.349-.03-.698-.044-1.045-.058-.673-.027-1.344-.054-2.008-.203-.941-.21-1.958-.174-2.956-.138-.423.015-.842.03-1.251.026l.003-9.813c0-.213.012-.513.024-.859.045-1.186.109-2.913-.182-3.511-.12-.25-.106-.698-.095-1.07.004-.12.007-.232.006-.328l.044-5.206a6.178 6.178 0 0 0-.047-.67h-2.546Z" fill="currentColor"/><path d="M59.503 73.485a.527.527 0 0 1 .21-.122c.393.39.321.816.455 1.303.092.337.163.46.461.634.068-.006.15-.008.214-.036a.886.886 0 0 0 .237-.166c.083-.1.101-.364.114-.489l.144-1.137c.02-.14.003-.289.047-.422l.021-.05-.002.09c-.002.579.337 1.039.516 1.573.168.505.276 1.086.339 1.615.08.668.113 1.332.085 2.005-.05 1.221-.29 2.436-.412 3.653-.112 1.119-.087 2.254-.285 3.364-.045.256-.187.806-.357.996a.932.932 0 0 1-.142.127c-.243-.055-.462-.246-.604-.458-.037-.056-.056-.123-.078-.186-.314-.888-.393-1.83-.559-2.754l-.635-3.743c-.146-.945-.304-1.98-.266-2.938.04-1.004.556-1.855.497-2.86Z" fill="currentColor"/></svg>