<?xml version="1.0" encoding="utf-8"?>
<!-- Generator: Adobe Illustrator 25.4.1, SVG Export Plug-In . SVG Version: 6.00 Build 0)  -->
<svg version="1.1" id="Layer_1" xmlns="http://www.w3.org/2000/svg" xmlns:xlink="http://www.w3.org/1999/xlink" x="0px" y="0px"
	 viewBox="0 0 1366 768" style="enable-background:new 0 0 1366 768;" xml:space="preserve">
<style type="text/css">
	.st0{display:none;fill:#FFFFFF;}
</style>
<g>
	<path class="st0" d="M83,186c400,0,800,0,1200,0c0,132,0,264,0,396c-400,0-800,0-1200,0C83,450,83,318,83,186z M441.8,324.71
		c0.04,0,0.07,0,0.11,0c0-4.56-0.01-9.12,0.01-13.68c0.01-1.2,0.08-2.4,0.21-3.59c0.28-2.54,0.84-3.2,3.34-3.57
		c4.62-0.67,9.24-0.6,13.83,0.29c3.62,0.7,6.47,2.65,8.6,5.65c0.65,0.91,1.31,1.82,1.91,2.76c4.58,7.13,9.17,14.26,13.73,21.4
		c4.82,7.56,9.76,15.03,15.8,21.69c5.61,6.19,11.92,11.39,20.11,13.8c7.63,2.24,15.4,2.59,23.26,1.54c0.63-0.08,1.31-0.2,1.83-0.53
		c0.39-0.25,0.71-0.86,0.74-1.32c0.02-0.33-0.45-0.85-0.82-1c-0.65-0.27-1.39-0.35-2.1-0.46c-5.19-0.84-9.67-3.1-13.64-6.54
		c-6.38-5.53-11.99-11.75-17.12-18.42c-9.82-12.76-18.25-26.45-26.69-40.13c-0.46-0.74-0.81-1.57-1.07-2.4
		c-0.49-1.62-0.15-2.36,1.32-3.12c0.42-0.22,0.88-0.39,1.31-0.59c4.24-1.95,8.17-4.39,11.7-7.44c9.46-8.15,14.04-18.37,13.23-30.96
		c-0.64-9.9-4.59-18.01-12.46-24.12c-3.11-2.42-6.58-4.23-10.25-5.66c-7.63-2.96-15.64-4.05-23.72-4.15
		c-11.99-0.15-23.98,0.09-35.97,0.35c-6.47,0.14-12.93,0.66-19.39,1.02c-1.97,0.11-2.55,0.67-2.65,2.36
		c-0.11,1.9,0.33,2.43,2.4,2.83c0.62,0.12,1.27,0.13,1.9,0.23c2.13,0.33,4.28,0.56,6.38,1.04c2.77,0.64,4.64,2.42,5.55,5.13
		c0.28,0.83,0.5,1.69,0.65,2.55c0.93,5.54,0.92,11.15,0.92,16.74c0.01,27.2,0.01,54.4,0,81.6c0,2.72,0.06,5.45-0.11,8.16
		c-0.22,3.66-0.21,7.36-1.32,10.92c-0.95,3.06-2.95,5.07-5.99,6.03c-0.84,0.26-1.69,0.5-2.56,0.63c-2.53,0.37-5.06,0.66-7.59,1.02
		c-1.46,0.21-2.15,1.19-2.01,2.72c0.13,1.51,0.75,2.15,2.27,2.17c1.84,0.02,3.68,0,5.52-0.09c13.43-0.61,26.85-0.64,40.28,0.01
		c1.76,0.08,3.52,0.12,5.28,0.05c0.56-0.02,1.32-0.29,1.62-0.71c1.25-1.76,0.25-3.88-1.85-4.22c-2.68-0.43-5.36-0.84-8.01-1.44
		c-3.87-0.87-6.36-3.28-7.11-7.22c-0.44-2.27-0.84-4.57-0.9-6.87C442.02,341.03,441.94,332.87,441.8,324.71z M616.66,221.16
		c-4.9-0.09-11.87,0.71-18.71,2.46c-20.33,5.19-36.28,16.5-46.83,34.73c-10.74,18.55-13.37,38.56-8.1,59.26
		c5.62,22.07,19.05,38.13,39.8,47.63c16.23,7.43,33.35,9.26,50.83,5.87c23.38-4.53,40.94-17.36,52.15-38.45
		c6.76-12.71,9.25-26.42,8.51-40.78c-0.42-8.04-1.79-15.87-4.53-23.43c-6.95-19.18-19.54-33.13-38.44-41.13
		C640.95,222.91,630.04,221.19,616.66,221.16z M1126.37,251.3c1.06,1.04,1.72,1.6,2.28,2.24c2.32,2.64,4.62,5.31,6.92,7.97
		c14.2,16.37,28.37,32.76,42.6,49.11c15.44,17.73,30.94,35.41,46.38,53.13c2.15,2.47,4.13,5.09,6.21,7.63
		c1.12,1.37,2.08,1.46,3.48,0.45c0.98-0.7,1.11-1.67,1.02-2.76c-0.14-1.75-0.33-3.51-0.36-5.26c-0.15-9.75-0.35-19.51-0.35-29.26
		c0.02-23.59,0.11-47.19,0.24-70.78c0.03-5.43,0.18-10.88,0.63-16.29c0.32-3.88,1.18-7.72,1.88-11.57c0.36-1.95,1.59-3.31,3.44-4
		c1.86-0.7,3.75-1.38,5.67-1.87c1.85-0.47,3.76-0.7,5.65-1.02c1.68-0.29,2.23-1.04,2.07-2.87c-0.13-1.56-0.63-2.07-2.3-2.04
		c-1.92,0.03-3.83,0.31-5.74,0.3c-11.75-0.05-23.5-0.15-35.24-0.24c-1.76-0.01-3.52-0.04-5.28-0.08c-1.19-0.03-1.74,0.69-1.99,1.7
		c-0.44,1.78,0.53,2.94,2.49,3.25c3.62,0.57,7.24,1.16,10.84,1.88c3.47,0.69,5.67,2.8,6.36,6.34c0.62,3.21,1.48,6.41,1.72,9.65
		c0.62,8.61,1.25,17.23,1.35,25.85c0.21,17.75,0.1,35.51,0.08,53.27c0,2.55-0.18,5.11-0.38,7.66c-0.06,0.8-0.46,1.57-0.81,2.68
		c-1.8-1.07-2.86-2.38-3.96-3.58c-8.73-9.57-17.52-19.09-26.14-28.76c-14.73-16.54-29.47-33.08-43.98-49.81
		c-7.9-9.12-15.69-18.37-21.46-29.09c-0.52-0.97-1.29-1.02-2.22-0.94c-1.99,0.17-3.98,0.37-5.97,0.4
		c-3.76,0.06-7.52,0.07-11.27-0.01c-4.79-0.1-9.58-0.33-14.38-0.45c-1.77-0.04-2.26,0.52-2.3,2.27c-0.04,1.88,0.52,2.31,2.57,2.68
		c3.29,0.59,6.63,1.11,9.8,2.13c5.17,1.67,8.4,5.44,9.77,10.66c0.56,2.14,0.89,4.41,0.89,6.62c-0.11,31.19,0.6,62.38-0.44,93.57
		c-0.17,5.19-0.68,10.35-1.75,15.46c-0.64,3.02-2.45,4.74-5.22,5.67c-0.76,0.25-1.53,0.49-2.31,0.61c-2.37,0.36-4.74,0.68-7.11,0.98
		c-1.87,0.24-2.42,0.81-2.37,2.59c0.05,1.8,0.6,2.36,2.52,2.32c2.16-0.05,4.31-0.33,6.46-0.32c11.43,0.06,22.86,0.18,34.28,0.28
		c1.68,0.01,3.36,0.04,5.04,0.07c0.79,0.01,1.39-0.23,1.73-1.01c0.88-2.02-0.08-3.71-2.27-3.92c-2.07-0.19-4.15-0.25-6.2-0.57
		c-2.04-0.32-4.07-0.81-6.05-1.38c-2.59-0.74-4.23-2.51-4.91-5.11c-0.42-1.62-0.92-3.25-1.07-4.91c-0.68-7.47-1.7-14.96-1.78-22.44
		c-0.25-23.51-0.15-47.03-0.14-70.55c0-1.91,0.28-3.82,0.51-5.72C1125.62,253.33,1125.96,252.61,1126.37,251.3z M149.54,260.83
		c0-7.6-0.02-15.2,0.02-22.8c0.01-1.43,0.11-2.88,0.39-4.28c0.38-1.85,1.27-2.57,3.1-2.79c1.11-0.13,2.23-0.27,3.34-0.27
		c11.19-0.01,22.38-0.29,33.54,0.76c8.63,0.82,14.87,4.99,17.92,13.35c0.85,2.33,1.61,4.69,2.44,7.02c0.58,1.64,1.46,2.08,3.38,1.75
		c1.45-0.25,1.69-0.62,1.64-2.61c-0.01-0.24-0.02-0.48-0.04-0.72c-0.53-5.65-1.01-11.3-1.6-16.94c-0.27-2.54-0.69-5.06-1.18-7.57
		c-0.31-1.59-0.56-1.65-2.11-1.56c-2.55,0.15-5.1,0.37-7.66,0.37c-21.03,0.04-42.06,0.07-63.09,0.02
		c-6.23-0.01-12.46-0.28-18.7-0.43c-1.44-0.03-2.88-0.09-4.32-0.03c-0.51,0.02-1.37,0.22-1.46,0.51c-0.3,1.02-0.53,2.15-0.41,3.2
		c0.11,1.05,1.17,1.1,2.07,1.22c2.21,0.3,4.44,0.57,6.62,1.05c4.24,0.92,7.01,3.49,7.7,7.84c0.5,3.14,0.93,6.34,0.93,9.52
		c0.09,30.24,0.1,60.47,0.07,90.71c-0.01,4.87-0.07,9.77-0.59,14.6c-0.82,7.49-3.48,10.22-10.21,11.18c-2.68,0.38-5.4,0.57-8.1,0.8
		c-1.08,0.09-2.1,0.19-2.56,1.37c-0.73,1.89,0.38,3.6,2.4,3.57c3.59-0.06,7.19-0.33,10.78-0.34c22.71-0.05,45.42-0.1,68.12-0.06
		c8.55,0.02,17.1,0.23,25.65,0.45c1.7,0.04,2.65-0.47,3.21-2.1c1.05-3.1,2.37-6.11,3.34-9.24c1.78-5.72,3.4-11.48,5.03-17.24
		c0.18-0.63,0.26-1.51-0.04-2.02c-1.04-1.77-3.9-1.66-4.97,0.14c-0.53,0.89-0.97,1.84-1.46,2.75c-2.61,4.78-5.51,9.37-9.04,13.54
		c-2.58,3.04-5.7,5.14-9.64,5.83c-2.98,0.53-5.98,1.13-9,1.28c-8.3,0.41-16.62,0.61-24.92,0.03c-3.48-0.24-6.97-0.88-10.38-1.66
		c-4.8-1.1-7.71-4.26-8.84-9.08c-0.97-4.15-1.33-8.37-1.35-12.6c-0.06-11.92-0.04-23.84-0.04-35.76c0-0.96,0.05-1.92,0.19-2.87
		c0.27-1.76,1.21-2.93,3.1-3.11c1.03-0.1,2.06-0.29,3.09-0.29c6.64-0.02,13.28-0.13,19.91,0.06c3.73,0.11,7.48,0.59,11.16,1.21
		c3.07,0.52,5.07,2.62,6.08,5.54c0.57,1.66,0.97,3.37,1.4,5.07c0.48,1.86,0.83,3.75,1.38,5.58c0.4,1.33,1.69,1.84,3.34,1.55
		c1.33-0.23,1.73-0.73,1.72-2.39c-0.02-2.08-0.04-4.16-0.21-6.23c-0.76-9.1-0.7-18.2,0-27.3c0.18-2.31,0.22-4.64,0.17-6.95
		c-0.01-0.6-0.44-1.47-0.93-1.73c-1.9-0.99-3.82,0.02-4.32,2.13c-0.09,0.39-0.13,0.79-0.21,1.18c-0.64,2.97-1.19,5.95-1.94,8.89
		c-0.79,3.09-2.89,4.97-6.05,5.4c-3.24,0.44-6.5,0.87-9.76,0.93c-7.67,0.14-15.35,0.07-23.03,0.07c-0.56,0-1.12,0-1.67-0.09
		c-1.94-0.3-2.84-1.09-3.19-3.04c-0.21-1.17-0.23-2.39-0.23-3.58C149.52,276.03,149.53,268.43,149.54,260.83z M889.09,369.29
		c0-0.08,0-0.17,0-0.25c15.75,0.22,31.49,0.43,47.24,0.65c2.86,0.04,2.96,0.07,3.95-2.68c1.99-5.57,3.92-11.15,5.73-16.78
		c1-3.11,1.73-6.31,2.54-9.49c0.12-0.49,0.14-1.16-0.09-1.57c-1.01-1.77-3.92-1.73-4.99,0.04c-0.57,0.96-1.03,1.99-1.57,2.97
		c-2.63,4.77-5.51,9.37-9.08,13.51c-2.31,2.68-5.04,4.67-8.52,5.47c-1.87,0.43-3.74,0.91-5.64,1.1c-9.8,0.97-19.63,0.9-29.45,0.47
		c-1.43-0.06-2.89-0.16-4.28-0.46c-2.72-0.58-5.48-1.12-8.1-2.02c-2.94-1.01-4.92-3.24-5.96-6.18c-0.48-1.35-0.94-2.75-1.1-4.16
		c-0.41-3.73-0.88-7.47-0.92-11.21c-0.12-11.6-0.07-23.2-0.07-34.8c0-0.96,0-1.93,0.14-2.87c0.34-2.27,1.08-3.02,3.34-3.42
		c0.94-0.17,1.9-0.26,2.86-0.27c6.64-0.02,13.27-0.08,19.91,0.04c3.18,0.06,6.37,0.41,9.54,0.8c4.34,0.54,7.11,3.01,8.23,7.27
		c0.32,1.24,0.63,2.48,0.93,3.72c0.45,1.86,0.82,3.75,1.37,5.58c0.4,1.36,1.63,1.88,3.3,1.61c1.37-0.22,1.79-0.7,1.78-2.33
		c-0.01-2.08-0.02-4.16-0.2-6.23c-0.77-9.1-0.7-18.2-0.02-27.31c0.17-2.31,0.2-4.63,0.19-6.95c0-0.56-0.26-1.34-0.68-1.65
		c-1.53-1.16-4-0.17-4.5,1.71c-0.12,0.46-0.19,0.94-0.29,1.41c-0.62,2.89-1.17,5.79-1.87,8.66c-0.8,3.29-2.94,5.26-6.31,5.72
		c-2.69,0.37-5.39,0.81-8.09,0.86c-8.31,0.13-16.63,0.12-24.95,0.09c-3.31-0.01-4.41-1.16-4.64-4.47c-0.02-0.32-0.03-0.64-0.03-0.96
		c0-16.08,0-32.16,0.03-48.23c0-1.03,0.19-2.07,0.39-3.08c0.32-1.62,1.43-2.45,3.02-2.61c1.35-0.14,2.71-0.3,4.06-0.28
		c9.51,0.08,19.03,0.1,28.53,0.38c3.16,0.09,6.37,0.65,9.44,1.44c5.4,1.39,9.41,4.73,11.69,9.86c1.36,3.06,2.38,6.27,3.55,9.41
		c0.63,1.71,1.62,2.2,3.58,1.78c1.3-0.28,1.51-0.63,1.47-2.53c-0.01-0.24-0.02-0.48-0.04-0.72c-0.52-5.65-1-11.3-1.59-16.94
		c-0.27-2.54-0.69-5.06-1.17-7.57c-0.31-1.63-0.56-1.7-2.07-1.62c-2.87,0.15-5.74,0.37-8.62,0.38c-20.47,0.04-40.94,0.07-61.41,0.03
		c-6.47-0.02-12.94-0.28-19.41-0.43c-1.44-0.03-2.88-0.11-4.32-0.03c-0.57,0.03-1.35,0.25-1.65,0.66c-1.4,1.89-0.36,3.95,1.97,4.28
		c2.37,0.33,4.74,0.69,7.07,1.23c3.89,0.91,6.32,3.47,7.01,7.35c0.58,3.29,0.98,6.66,0.99,9.99c0.09,30.16,0.1,60.31,0.07,90.47
		c-0.01,4.79-0.18,9.59-0.55,14.37c-0.57,7.45-3.29,10.35-10.67,11.56c-2.59,0.43-5.24,0.5-7.87,0.74c-1.9,0.17-2.54,0.8-2.51,2.48
		c0.03,1.76,0.67,2.48,2.47,2.44c4.15-0.08,8.31-0.36,12.46-0.37C859.5,369.26,874.29,369.29,889.09,369.29z M258.79,278.88
		c-0.06,0-0.11,0-0.17,0c0.19,13.27,0.34,26.54,0.59,39.82c0.11,6.01,1.07,11.93,2.49,17.76c4.1,16.76,14.17,27.96,30.82,32.97
		c5.22,1.57,10.57,2.39,16,2.84c9.73,0.81,19.31,0.17,28.68-2.72c15.58-4.81,26.22-14.78,31.62-30.26
		c2.95-8.45,4.53-17.18,4.72-26.07c0.37-17.19,0.34-34.38,0.55-51.58c0.06-4.71,0.21-9.44,0.6-14.13c0.3-3.65,0.99-7.27,1.6-10.89
		c0.52-3.05,2.5-4.93,5.27-6.04c1.18-0.47,2.41-0.88,3.66-1.08c2.36-0.39,4.75-0.58,7.12-0.93c1.27-0.19,1.65-0.88,1.56-2.48
		c-0.09-1.44-0.48-1.94-1.82-1.99c-1.36-0.05-2.72-0.01-4.08,0.06c-12.46,0.67-24.92,0.62-37.39,0.01c-1.6-0.08-3.2-0.13-4.79-0.05
		c-1.18,0.05-1.6,0.71-1.65,2.18c-0.05,1.53,0.26,2.08,1.5,2.26c1.5,0.21,3.03,0.22,4.52,0.49c2.27,0.4,4.56,0.79,6.75,1.47
		c2.88,0.89,4.68,2.96,5.44,5.89c0.18,0.7,0.38,1.39,0.53,2.09c1.68,7.69,2.03,15.52,2.35,23.34c0.23,5.59,0.37,11.19,0.34,16.78
		c-0.05,13.11,0.59,26.23-0.78,39.31c-0.85,8.16-2.69,16.08-6.32,23.48c-5.56,11.32-14.36,18.64-26.82,21.19
		c-9.17,1.88-18.29,1.41-27.22-1.4c-6.24-1.96-11.55-5.42-15.84-10.38c-3.72-4.3-6.27-9.25-8.08-14.59
		c-3.11-9.18-4.24-18.69-4.3-28.32c-0.11-18.24-0.07-36.47-0.02-54.71c0.01-4.15,0.11-8.32,0.52-12.45
		c0.66-6.75,2.52-10.34,10.18-11.4c2.21-0.3,4.45-0.45,6.66-0.78c0.61-0.09,1.47-0.48,1.69-0.97c0.85-1.9-0.28-3.56-2.34-3.52
		c-2.95,0.06-5.91,0.31-8.86,0.33c-10.07,0.06-20.15,0.1-30.22,0.06c-3.83-0.01-7.67-0.29-11.5-0.38c-2.26-0.06-2.75,0.37-2.83,2.22
		c-0.08,1.79,0.25,2.1,2.44,2.35c2.54,0.29,5.09,0.5,7.61,0.92c4.59,0.77,7.59,3.4,8.25,8.1c0.53,3.79,0.91,7.62,0.96,11.44
		C258.88,259.04,258.79,268.96,258.79,278.88z M750.81,292.33c-0.03,0-0.05,0-0.08,0c0-17.68,0-35.35,0-53.03
		c0-1.2-0.02-2.4,0.06-3.6c0.25-3.5,1.48-4.76,5.01-5.26c5.6-0.78,11.18-0.58,16.69,0.56c12.48,2.58,20.97,9.75,24.62,22.16
		c2.04,6.94,2.15,14.01,1,21.12c-1.73,10.65-7.21,18.63-16.83,23.66c-4.21,2.2-8.69,3.6-13.31,4.61c-2.08,0.46-2.6,1-2.46,2.28
		c0.14,1.29,0.78,1.68,2.94,1.64c9.46-0.2,18.58-2.06,27.19-5.98c18.21-8.32,25.24-25.07,21.93-42.92
		c-2.61-14.06-11.04-23.43-24.24-28.63c-8.21-3.23-16.84-4.5-25.55-4.76c-13.82-0.4-27.66-0.33-41.47,0.43
		c-3.19,0.18-6.36,0.59-9.54,0.91c-1.67,0.17-2.52,1.03-2.6,2.55c-0.07,1.34,0.67,2.57,2.2,2.59c0.79,0.01,1.58,0.17,2.37,0.27
		c2.37,0.32,4.77,0.53,7.11,1c3.53,0.71,5.76,2.84,6.6,6.45c0.76,3.3,0.9,6.64,0.91,10c0.01,30.07,0.05,60.14,0.01,90.21
		c-0.01,4.95-0.17,9.91-0.56,14.84c-0.49,6.2-3.15,9.01-9.21,10.24c-2.11,0.43-4.25,0.7-6.38,1.01c-1.95,0.29-2.39,0.84-2.23,2.89
		c0.14,1.72,0.53,2.1,2.49,2.06c3.11-0.07,6.23-0.32,9.34-0.35c7.75-0.08,15.51-0.16,23.26-0.1c6.47,0.05,12.94,0.33,19.41,0.46
		c1.93,0.04,2.4-0.48,2.46-2.37c0.06-1.87-0.38-2.31-2.33-2.57c-3.32-0.44-6.65-0.83-9.94-1.44c-4.63-0.86-7.29-3.8-7.96-8.41
		c-0.42-2.84-0.84-5.71-0.85-8.57C750.77,328.32,750.81,310.32,750.81,292.33z M1013.27,229.4c0.13,4.16-1.09,7.87-2.47,11.54
		c-1.52,4.04-3.03,8.08-4.56,12.11c-12.75,33.53-25.04,67.24-38.78,100.4c-0.61,1.47-1.32,2.92-2.17,4.26
		c-2.57,4.05-6.3,6.23-11.1,6.58c-1.91,0.14-3.82,0.3-5.73,0.51c-1.7,0.19-2.21,0.86-2.1,2.56c0.12,1.84,0.7,2.37,2.83,2.33
		c7.83-0.14,15.66-0.41,23.49-0.44c5.67-0.02,11.34,0.3,17.02,0.43c2.05,0.04,2.74-0.78,2.53-2.78c-0.16-1.47-0.78-1.95-2.66-2.13
		c-2.54-0.24-5.12-0.32-7.62-0.79c-3.69-0.69-4.82-2.49-4.13-6.19c0.4-2.12,0.85-4.24,1.51-6.29c3.66-11.32,7.39-22.62,11.1-33.93
		c0.17-0.53,0.41-1.04,0.64-1.55c0.8-1.71,2.06-2.84,3.98-3.09c1.26-0.17,2.54-0.34,3.81-0.34c11.19-0.03,22.39-0.02,33.58-0.01
		c1.04,0,2.08,0.07,3.11,0.14c2.8,0.19,4.57,1.68,5.41,4.34c0.82,2.59,1.69,5.16,2.52,7.75c3.17,9.89,6.36,19.77,9.46,29.68
		c0.5,1.58,0.67,3.28,0.89,4.93c0.22,1.65-0.61,2.86-2.07,3.42c-1.62,0.62-3.33,1.08-5.05,1.39c-1.8,0.32-3.65,0.35-5.48,0.57
		c-1.75,0.2-2.33,0.85-2.31,2.43c0.02,1.74,0.69,2.49,2.47,2.46c2.95-0.05,5.91-0.33,8.86-0.32c12.07,0.05,24.14,0.17,36.2,0.27
		c1.36,0.01,2.72,0.09,4.08,0.03c0.51-0.02,1.18-0.2,1.47-0.56c1.28-1.55,0.19-4.07-1.82-4.32c-1.58-0.2-3.17-0.37-4.76-0.51
		c-5.21-0.48-9.28-2.76-11.85-7.43c-0.81-1.47-1.65-2.94-2.28-4.48c-1.22-2.95-2.39-5.93-3.43-8.95
		c-5.06-14.73-10.1-29.47-15.09-44.23c-8.46-25.05-16.87-50.12-25.31-75.18c-0.2-0.6-0.4-1.24-0.76-1.75
		c-0.82-1.16-2.11-1.33-3.04-0.31C1020.74,225.15,1017.48,227.91,1013.27,229.4z M1069.16,482.44c-0.69-0.91-1.61-0.89-2.43-1.04
		c-2.96-0.57-3.79-1.39-4.18-4.36c-0.17-1.26-0.29-2.54-0.31-3.82c-0.05-3.92-0.07-7.84-0.02-11.76c0.02-1.94,0.44-2.55,2-2.74
		c4.06-0.5,6.96,0.23,8.93,3.56c1.79,3.02,3.66,6.02,5.71,8.87c2.14,2.97,4.32,5.97,6.88,8.58c3.68,3.76,8.49,4.7,13.52,3.8
		c2.06-0.37,4.08-0.59,6.15-0.59c1.84,0,3.68,0.05,5.52,0.02c0.48-0.01,0.95-0.23,1.43-0.35c0.01-0.18,0.02-0.37,0.03-0.55
		c-0.8-0.18-1.6-0.37-2.41-0.54c-2.55-0.52-3.04-1.09-2.31-3.59c1.34-4.6,2.88-9.14,4.32-13.71c0.55-1.76,1.87-2.27,3.52-2.28
		c4.08-0.01,8.16-0.05,12.23,0.02c2.44,0.05,2.98,0.54,3.76,2.91c1.27,3.87,2.53,7.75,3.77,11.63c0.24,0.76,0.42,1.54,0.57,2.32
		c0.23,1.23-0.36,2.01-1.49,2.38c-0.68,0.22-1.41,0.27-2.11,0.45c-0.52,0.14-1.02,0.38-1.9,0.71c1.65,0.59,15.09,0.94,18.31,0.61
		c0.32-0.03,0.62-0.29,0.93-0.45c0-0.16,0.01-0.33,0.01-0.49c-0.73-0.17-1.44-0.44-2.18-0.5c-2.62-0.23-4.23-1.74-5.2-4.03
		c-0.69-1.62-1.31-3.26-1.88-4.92c-4.77-13.99-9.52-27.98-14.29-41.97c-0.21-0.62-0.55-1.19-0.85-1.81
		c-2.72,1.64-4.72,3.44-5.03,6.51c-0.01,0.08-0.05,0.15-0.08,0.23c-5.3,13.79-10.61,27.59-15.92,41.38
		c-0.26,0.67-0.57,1.33-0.96,1.93c-1.99,3.11-6.1,3.74-8.87,1.31c-1.26-1.1-2.47-2.28-3.58-3.53c-4.82-5.4-8.51-11.59-12.3-17.71
		c-1.04-1.68-0.74-2.05,1-3.18c1.86-1.21,3.79-2.44,5.31-4.02c5.08-5.32,4.87-16.24-4.17-20.01c-2.1-0.88-4.44-1.56-6.7-1.62
		c-6.95-0.19-13.9-0.05-20.86-0.01c-0.63,0-1.28,0.13-1.89,0.3c-0.39,0.11-0.72,0.41-1.07,0.62c0,0.16,0.01,0.32,0.01,0.49
		c0.81,0.2,1.6,0.44,2.42,0.58c2.25,0.39,3.22,1.27,3.6,3.52c0.16,0.94,0.15,1.91,0.15,2.87c0.02,10.88,0.04,21.75,0.04,32.63
		c0,1.76,0.01,3.52-0.07,5.28c-0.15,3.27-1.47,4.85-4.53,5.09c-0.8,0.06-1.59,0.41-2.94,0.79c0.72,0.44,0.91,0.67,1.11,0.67
		c6.15,0.03,12.3,0.05,18.46,0.04C1068.55,482.94,1068.8,482.66,1069.16,482.44z M406.02,429.99c0.46,0.66,0.53,0.88,0.64,0.9
		c0.54,0.11,1.09,0.17,1.64,0.24c2.73,0.32,3.54,1.44,2.66,4.03c-1.05,3.1-2.19,6.17-3.43,9.2c-3.75,9.17-7.55,18.31-11.36,27.46
		c-0.31,0.75-0.39,1.75-1.49,1.98c-0.18-0.2-0.39-0.35-0.49-0.55c-2.72-6.05-5.42-12.1-8.15-18.14c-0.52-1.14-0.31-2.17,0.18-3.22
		c1.19-2.53,2.32-5.09,3.58-7.58c1.62-3.21,3.29-6.39,5.05-9.53c1.23-2.2,2.98-3.74,5.73-3.7c0.37,0.01,0.75-0.3,1.13-0.47
		c-1.71-0.99-3.45-0.56-5.13-0.62c-1.68-0.06-3.36-0.01-5.04-0.01c-3.99-0.02-3.99-0.02-5.11,0.87c1.07,0.13,1.9,0.2,2.72,0.34
		c1.58,0.29,2.21,1.14,1.96,2.71c-0.1,0.63-0.25,1.26-0.5,1.85c-1.84,4.34-3.7,8.67-5.59,12.98c-0.2,0.45-0.63,0.8-0.94,1.19
		c-0.29-0.19-0.49-0.25-0.54-0.37c-2.28-5.1-4.62-10.18-6.79-15.33c-0.74-1.75-0.04-2.65,1.9-3.01c0.81-0.15,1.63-0.24,2.9-0.42
		c-1.67-1.37-3.12-0.73-4.45-0.8c-1.51-0.08-3.04-0.01-4.55-0.01c-1.44,0-2.88-0.08-4.31,0.01c-1.39,0.08-2.91-0.63-4.32,0.57
		c0.34,0.24,0.52,0.47,0.71,0.47c3.36,0.03,5.2,2.06,6.48,4.86c2.89,6.32,5.74,12.66,8.69,18.95c0.85,1.81,0.92,3.43,0.03,5.24
		c-2.05,4.16-3.98,8.37-5.98,12.55c-0.22,0.46-0.61,0.84-1.16,1.59c-0.56-1.02-1-1.74-1.36-2.5c-2.55-5.42-5.16-10.82-7.61-16.29
		c-3.04-6.78-6.01-13.59-8.89-20.43c-1.09-2.6-0.46-3.45,2.32-3.86c0.63-0.09,1.47,0.2,1.85-1.14c-5.55-0.03-10.93-0.07-16.31-0.07
		c-0.41,0-0.81,0.27-1.24,0.42c0.17,0.29,0.21,0.5,0.32,0.55c0.29,0.11,0.6,0.2,0.91,0.22c2.59,0.14,4.27,1.59,5.41,3.79
		c0.41,0.78,0.81,1.56,1.17,2.36c6.71,14.85,13.4,29.71,20.12,44.56c0.4,0.88,0.42,2.25,1.86,2.14c1.25-0.09,1.18-1.35,1.55-2.18
		c2.74-6.13,5.44-12.27,8.19-18.39c0.33-0.74,0.54-1.68,1.7-1.9c0.32,0.58,0.67,1.11,0.92,1.68c2.56,5.86,5.1,11.72,7.64,17.58
		c0.35,0.81,0.6,1.66,1.02,2.43c0.61,1.11,1.52,1.07,2.16-0.05c0.2-0.34,0.3-0.74,0.46-1.11c5.73-13.71,11.45-27.42,17.22-41.11
		c0.93-2.2,2.01-4.35,3.14-6.46c1.04-1.94,2.65-3.16,4.93-3.35c0.41-0.04,0.81-0.27,1.22-0.41c-0.02-0.23-0.04-0.47-0.06-0.7
		C416.35,429.94,411.4,429.93,406.02,429.99z M869.98,482.49c-0.45-1.02-1.38-0.7-2.09-0.81c-3.73-0.58-4.57-1.46-4.82-5.26
		c-0.05-0.72-0.07-1.44-0.05-2.16c0.2-7.03,0.35-14.07,0.63-21.1c0.15-3.91,0.5-7.82,0.78-11.72c0.03-0.4,0.26-0.78,0.59-1.72
		c2.14,4,3.48,7.75,5.16,11.34c1.69,3.62,3.37,7.25,5.06,10.87c1.69,3.62,3.36,7.26,5.11,10.85c1.71,3.52,3.01,7.25,5.06,11.05
		c0.51-0.8,0.79-1.17,0.99-1.58c3.38-6.98,6.72-13.98,10.14-20.93c3.11-6.31,6.3-12.58,9.48-18.85c0.36-0.71,0.5-1.71,1.94-1.82
		c0,1.21-0.01,2.3,0,3.4c0.09,7.76,0.21,15.51,0.27,23.27c0.02,3.44,0.05,6.88-0.18,10.3c-0.19,2.75-0.93,3.26-3.7,3.85
		c-0.84,0.18-1.94-0.06-2.5,1c1.22,0.5,14.7,0.87,18.11,0.51c0.32-0.03,0.62-0.29,1.19-0.57c-1.18-0.87-2.33-0.78-3.37-1.01
		c-1.66-0.37-2.72-1.29-3.03-2.98c-0.16-0.86-0.34-1.73-0.37-2.6c-0.3-8.47-0.61-16.94-0.85-25.41c-0.12-4.16-0.15-8.32-0.12-12.48
		c0.03-4.63,1.22-5.96,5.72-6.72c0.58-0.1,1.15-0.26,2.12-0.48c-0.59-0.43-0.81-0.73-1.04-0.73c-3.97-0.03-7.94-0.02-11.54-0.02
		c-1.71,3.97-3.17,7.59-4.8,11.13c-1.6,3.48-3.37,6.9-5.08,10.33c-3.17,6.37-6.34,12.74-9.54,19.09c-0.4,0.8-0.99,1.49-1.71,2.55
		c-0.75-1.3-1.32-2.16-1.77-3.08c-4.68-9.46-9.37-18.91-13.99-28.4c-1.57-3.23-3.07-6.51-3.56-10.14c-0.14-1.02-0.7-1.54-1.77-1.53
		c-3.36,0.01-6.72-0.03-10.07,0c-0.34,0-0.69,0.37-1.55,0.87c1.65,0.37,2.72,0.56,3.77,0.85c1.95,0.53,3.24,1.68,3.36,3.84
		c0.05,0.88,0.2,1.75,0.15,2.62c-0.37,7.58-0.7,15.17-1.19,22.75c-0.35,5.34-0.85,10.67-1.45,15.99c-0.33,2.98-1.43,3.92-4.38,4.56
		c-0.77,0.17-1.75,0.07-2.18,1.24c0.39,0.14,0.67,0.32,0.95,0.32c5.2,0,10.39-0.01,15.59-0.05
		C869.61,482.91,869.78,482.65,869.98,482.49z M453.99,483.35c0.2,0.04,0.4,0.08,0.6,0.11c0.35-0.67,0.7-1.35,1.04-2.03
		c6.52-13.18,13.04-26.36,19.57-39.54c0.25-0.51,0.68-0.92,1.27-1.71c0.24,0.89,0.45,1.33,0.46,1.77c0.05,2.16,0.04,4.32,0.05,6.48
		c0.04,9.28,0.06,18.56,0.11,27.83c0.02,3.97-1.31,4.97-4.39,5.3c-0.72,0.08-1.42,0.34-2.13,0.52c0.37,0.64,0.7,0.89,1.04,0.89
		c5.84,0.02,11.67,0.02,17.51-0.01c0.29,0,0.57-0.33,1.36-0.83c-1.36-0.29-2.18-0.47-3-0.63c-2.97-0.56-3.86-1.4-4-4.42
		c-0.38-8.14-0.71-16.29-0.93-24.44c-0.15-5.27-0.19-10.55-0.06-15.82c0.1-3.82,1.13-4.77,4.96-5.53c0.72-0.14,1.44-0.29,2.16-0.44
		c-0.01-0.17-0.01-0.34-0.02-0.52c-0.4-0.15-0.81-0.42-1.21-0.42c-3.28-0.02-6.56,0.03-9.83,0c-1.25-0.01-1.57,0.76-1.91,1.73
		c-0.76,2.18-1.5,4.39-2.47,6.48c-2.13,4.56-4.39,9.07-6.62,13.58c-3.12,6.3-6.26,12.6-9.42,18.88c-0.4,0.8-0.67,1.79-1.87,2.2
		c-0.43-0.74-0.86-1.4-1.21-2.09c-1.16-2.28-2.37-4.54-3.43-6.86c-5.1-11.16-11.83-21.59-15.11-33.88c-3.8,0-7.7-0.01-11.59,0.03
		c-0.24,0-0.47,0.44-0.91,0.87c1.31,0.3,2.3,0.55,3.3,0.75c2.16,0.44,3.34,1.8,3.61,3.93c0.14,1.1,0.15,2.24,0.09,3.35
		c-0.28,5.67-0.56,11.34-0.91,17c-0.33,5.34-0.71,10.68-1.13,16.02c-0.14,1.83-0.42,3.65-0.7,5.46c-0.38,2.45-1.81,3.8-4.31,4.08
		c-0.78,0.09-1.76,0.02-2.18,1.04c1.4,0.53,10.46,0.82,15.73,0.5c0.41-0.02,0.8-0.26,1.2-0.4c0.01-0.17,0.01-0.33,0.02-0.5
		c-0.96-0.19-1.91-0.49-2.88-0.55c-2.36-0.16-3.61-1.58-3.7-4.16c-0.07-2.15-0.13-4.31-0.05-6.46c0.33-9.51,0.69-19.01,1.07-28.51
		c0.03-0.73-0.22-1.64,0.96-2.21c2.47,4.65,4.27,9.59,6.53,14.31c2.32,4.83,4.56,9.69,6.8,14.55
		C449.65,473.8,451.81,478.58,453.99,483.35z M221.46,482.02c0.03,0.28,0.06,0.57,0.1,0.85c0.83,0.04,1.66,0.1,2.5,0.11
		c4.15,0.06,8.32-0.06,12.46,0.19c5.43,0.34,10.85,0.6,16.24-0.25c7.54-1.19,13.98-4.39,18.67-10.61
		c4.08-5.41,5.62-11.58,5.24-18.26c-0.46-7.96-3.71-14.46-10.4-19.02c-4.83-3.29-10.32-4.72-16.04-4.96
		c-5.98-0.26-11.98-0.13-17.97-0.09c-2.79,0.02-5.58,0.23-8.37,0.4c-0.49,0.03-0.98,0.29-1.46,0.45c-0.02,0.18-0.04,0.35-0.06,0.53
		c0.69,0.24,1.37,0.52,2.08,0.7c2.28,0.58,3.25,1.6,3.57,3.91c0.09,0.63,0.09,1.28,0.09,1.91c0.02,11.35,0.03,22.7,0.04,34.05
		c0,1.6,0.02,3.2-0.09,4.79c-0.21,2.97-1.28,4.11-4.17,4.67C223.06,481.55,222.26,481.8,221.46,482.02z M744.48,430.62
		c-0.01,0.28-0.03,0.55-0.04,0.83c0.72,0.21,1.43,0.48,2.17,0.62c2,0.38,3.02,1.67,3.37,3.57c0.13,0.7,0.14,1.43,0.14,2.15
		c0.02,11.43,0.03,22.86,0.04,34.29c0,1.52,0.02,3.04-0.08,4.55c-0.2,3.09-1.23,4.17-4.32,4.78c-0.81,0.16-1.75,0.11-2.47,1.4
		c1.08,0.07,1.9,0.16,2.71,0.17c4.15,0.06,8.32-0.07,12.46,0.18c5.43,0.33,10.85,0.61,16.24-0.23c7.54-1.18,13.98-4.36,18.71-10.55
		c4.51-5.91,5.96-12.7,5.19-19.91c-0.81-7.54-4.31-13.63-10.82-17.79c-4.63-2.97-9.81-4.41-15.19-4.59
		c-7.98-0.26-15.97-0.07-23.96-0.01C747.24,430.09,745.86,430.43,744.48,430.62z M673.99,542.87c0.7-3.23,2.64-5.53,4.85-7.66
		c0.81-0.78,1.62-1.55,2.47-2.27c5.2-4.42,10.99-7.97,16.79-11.5c1.84-1.12,2.22-0.95,3.29,1.09c1.36,2.59,3.12,4.81,5.61,6.43
		c5.41,3.52,15.09,3.04,18.57-5.76c0.81-2.05,1.52-4.31,1.55-6.48c0.08-7.42-0.16-14.85-0.31-22.28c-0.01-0.49-0.29-0.98-0.46-1.53
		c-1.35,0.41-1.09,1.41-1.21,2.22c-0.38,2.6-1.41,3.64-4.02,3.95c-0.79,0.09-1.6,0.08-2.39,0.08c-12.14,0-24.29,0.02-36.43,0
		c-5.07-0.01-5.88-0.71-6.85-5.66c-0.09-0.44-0.36-0.85-0.74-1.7c-0.31,0.78-0.51,1.06-0.51,1.33c-0.02,5.99-0.02,11.99,0.01,17.98
		c0,0.29,0.34,0.58,0.72,1.17c0.27-0.76,0.49-1.17,0.56-1.6c0.79-4.76,1.99-4.97,6.41-5.46c0.32-0.04,0.64-0.03,0.96-0.03
		c4.07-0.02,8.15-0.04,12.22-0.04c0.63,0,1.33-0.04,1.88,0.2c0.51,0.23,1.17,0.76,1.25,1.24c0.59,3.83,0.43,7.24-3.28,9.44
		c-3.5,2.08-6.93,4.29-10.26,6.63c-2.47,1.74-4.83,3.68-7.05,5.73c-2.7,2.49-3.97,5.78-4.21,9.4
		C673.29,539.47,673,541.24,673.99,542.87z M956.52,484.09c10.86-0.05,19.31-4.47,24.75-14c3.32-5.82,4.2-12.21,3.08-18.79
		c-1.71-10.06-7.01-17.36-16.85-20.87c-4.81-1.72-9.77-2.14-14.87-1.43c-6.92,0.97-12.82,3.86-17.43,9.13
		c-5.17,5.9-7.13,12.88-6.73,20.64c0.34,6.57,2.7,12.29,7.27,17.02C941.41,481.63,948.49,484.05,956.52,484.09z M313.14,484.09
		c10.86-0.06,19.31-4.5,24.73-14.04c3.31-5.82,4.19-12.22,3.06-18.8c-1.73-10.06-7.03-17.36-16.88-20.84
		c-4.73-1.67-9.61-2.12-14.63-1.44c-7.38,0.99-13.55,4.13-18.27,9.91c-4.73,5.79-6.48,12.52-6.09,19.91c0.35,6.58,2.73,12.28,7.3,17
		C298.03,481.65,305.11,484.06,313.14,484.09z M728.32,457.8c0.1-10.2-3.02-17.87-10.08-23.71c-5.76-4.77-12.51-6.56-19.89-6.1
		c-9.97,0.63-17.44,5.33-22.09,14.17c-2.94,5.59-3.78,11.63-3.01,17.91c1.03,8.34,4.95,14.95,11.94,19.59
		c6.04,4.01,12.74,5.26,19.91,4.3c6.75-0.91,12.54-3.64,17.01-8.86C726.63,469.81,728.41,463.55,728.32,457.8z M593.94,483.98
		c0.24-0.09,0.49-0.18,0.73-0.26c0.04-0.84,0.1-1.68,0.1-2.52c-0.01-11.52-0.08-23.04-0.02-34.56c0.02-3.67,0.31-7.34,0.52-11
		c0.13-2.31,1.37-3.62,3.66-4.07c0.95-0.19,2.06-0.14,2.97-1.17c-0.49-0.21-0.81-0.48-1.14-0.48c-5.36-0.02-10.71-0.02-16.07,0.01
		c-0.3,0-0.59,0.32-0.89,0.5c0,0.16,0.01,0.33,0.01,0.49c1.21,0.23,2.4,0.51,3.62,0.69c2.08,0.31,3.31,1.48,3.65,3.54
		c0.23,1.42,0.57,2.84,0.6,4.27c0.18,9.59,0.3,19.19,0.4,28.78c0.01,0.88-0.32,1.76-0.59,3.16c-0.99-0.92-1.58-1.41-2.1-1.98
		c-2.87-3.12-5.78-6.2-8.55-9.41c-8.3-9.61-17.43-18.54-24.53-29.16c-0.29-0.44-1.03-0.81-1.58-0.82c-3.6-0.08-7.19-0.07-10.79-0.05
		c-0.28,0-0.57,0.33-1.33,0.8c1.65,0.38,2.79,0.61,3.91,0.92c2.33,0.63,4,2.02,4.58,4.43c0.26,1.07,0.37,2.21,0.37,3.31
		c0.02,10.08,0.04,20.16-0.03,30.24c-0.02,2.55-0.25,5.11-0.5,7.65c-0.28,2.79-1.08,3.57-3.8,4.13c-0.89,0.18-1.77,0.4-2.87,0.66
		c0.4,0.49,0.53,0.8,0.67,0.8c5.67,0.03,11.34,0.04,17.01,0.03c0.14,0,0.29-0.32,0.72-0.82c-1.45-0.27-2.65-0.49-3.85-0.7
		c-2.45-0.42-3.38-1.21-3.79-3.63c-0.32-1.88-0.54-3.8-0.57-5.71c-0.16-9.75-0.25-19.51-0.32-29.26c-0.01-0.96,0.37-1.92,0.69-3.47
		c3.84,3.89,6.75,7.77,9.96,11.39c3.29,3.71,6.54,7.45,9.81,11.18c3.22,3.67,6.44,7.33,9.65,11
		C587.48,476.56,590.71,480.28,593.94,483.98z M156.25,430.22c0.09,0.36,0.1,0.49,0.14,0.51c0.74,0.24,1.47,0.51,2.22,0.69
		c3.99,0.99,5.5,2.69,5.92,6.77c0.07,0.63,0.07,1.28,0.07,1.92c0,8.64,0.08,17.28-0.03,25.91c-0.05,3.91-0.35,7.82-0.77,11.71
		c-0.28,2.63-0.99,3.09-3.62,3.7c-0.85,0.19-1.93-0.01-2.51,1.02c1.31,0.54,11.44,0.87,16.43,0.54c0.4-0.03,0.79-0.27,1.18-0.42
		c0.01-0.17,0.01-0.35,0.02-0.52c-1.11-0.22-2.22-0.48-3.35-0.66c-2.51-0.4-3.43-1.06-3.85-3.53c-0.44-2.59-0.74-5.23-0.79-7.85
		c-0.12-7.04-0.08-14.08-0.09-21.11c0-2.24,0.01-4.48,0.06-6.72c0.02-0.83-0.14-1.78,1.18-2.42c3.14,3.68,6.27,7.38,9.45,11.05
		c3.25,3.75,6.54,7.45,9.81,11.17c3.22,3.66,6.42,7.35,9.68,10.98c3.27,3.65,6.31,7.52,10.12,11.53c0.14-1.21,0.26-1.79,0.26-2.38
		c-0.02-13.2-0.1-26.39-0.05-39.59c0.01-2.62,0.51-5.24,0.8-7.85c0.17-1.55,1.14-2.41,2.55-2.83c0.84-0.25,1.71-0.4,2.55-0.66
		c0.37-0.12,0.68-0.41,1.17-0.71c-1.2-0.44-14.88-0.83-16.87-0.54c-0.32,0.05-0.6,0.33-0.9,0.5c0,0.16,0,0.33,0.01,0.49
		c1.2,0.24,2.4,0.49,3.61,0.72c1.95,0.36,3.17,1.46,3.44,3.46c0.32,2.45,0.81,4.91,0.85,7.37c0.13,8.72,0.11,17.43,0.11,26.15
		c0,0.73-0.26,1.46-0.49,2.74c-1.08-1.01-1.8-1.6-2.42-2.28c-6.15-6.83-12.31-13.66-18.43-20.53c-5-5.61-10.1-11.15-14.16-17.51
		c-0.54-0.85-1.25-1.1-2.22-1.09c-3.12,0.02-6.24-0.04-9.35-0.02C157.39,429.92,156.83,430.11,156.25,430.22z M497.69,430.75
		c0.8,0.24,1.44,0.45,2.08,0.61c3.01,0.75,3.96,1.86,4.17,4.97c0.04,0.56,0.04,1.12,0.04,1.68c0.02,10.95,0.03,21.91,0.04,32.86
		c0,1.92,0.03,3.84-0.12,5.75c-0.25,3.18-1.39,4.31-4.57,4.8c-0.63,0.1-1.27,0.17-1.88,0.34c-0.37,0.11-0.68,0.4-1.02,0.61
		c0.03,0.16,0.06,0.32,0.09,0.48c0.75,0.04,1.5,0.12,2.25,0.12c9.19,0,18.38-0.02,27.57-0.03c2.72,0,5.43,0.04,8.15,0.08
		c0.94,0.01,1.79-0.14,2.12-1.16c0.96-2.96,1.92-5.92,2.79-8.91c0.09-0.32-0.36-0.81-0.75-1.62c-0.68,1.09-1.09,1.75-1.51,2.41
		c-0.78,1.21-1.54,2.43-2.35,3.62c-1.44,2.13-3.53,3.25-6.04,3.42c-2.62,0.18-5.26,0.22-7.9,0.2c-1.91-0.02-3.85-0.07-5.72-0.41
		c-3.34-0.62-4.61-1.9-4.78-5.3c-0.28-5.42-0.33-10.86-0.35-16.29c-0.01-1.94,0.48-2.47,2.41-2.53c3.19-0.11,6.38,0,9.57,0.09
		c3.16,0.08,4.22,0.99,4.99,4.07c0.15,0.62,0.26,1.26,0.51,1.84c0.13,0.3,0.55,0.67,0.81,0.65c0.25-0.02,0.66-0.49,0.67-0.77
		c0.05-1.03-0.06-2.07-0.07-3.11c-0.02-2.55-0.03-5.1-0.01-7.66c0.01-1.04,0.14-2.08,0.1-3.11c-0.01-0.38-0.35-0.75-0.6-1.27
		c-1.34,1.02-1.15,2.39-1.44,3.56c-0.54,2.17-1.42,3.1-3.57,3.22c-3.35,0.2-6.7,0.34-10.05,0.34c-2.83,0-3.34-0.57-3.36-3.41
		c-0.04-5.2-0.01-10.39,0-15.59c0-0.4,0.01-0.8,0.06-1.2c0.23-1.74,0.7-2.37,2.42-2.36c4.55,0.04,9.11,0.08,13.64,0.46
		c2.7,0.22,4.7,1.9,5.73,4.52c0.35,0.89,0.62,1.82,1.04,2.68c0.16,0.33,0.63,0.51,1.02,0.8c0.56-1.95,0.03-7.47-0.97-10.24
		c-0.91,0-1.93,0-2.94,0c-9.91-0.02-19.82-0.06-29.73-0.06C499.42,429.9,498.48,429.58,497.69,430.75z M843.68,439.99
		c0.01-3.32-0.23-6.63-1.13-10.03c-0.9,0-1.61,0-2.32,0c-8.95,0-17.9,0.01-26.85,0.01c-1.6,0-3.2-0.09-4.79-0.06
		c-0.42,0.01-0.84,0.34-1.78,0.76c1.04,0.31,1.47,0.46,1.91,0.57c3.82,0.92,4.65,1.96,4.74,5.98c0.01,0.32,0.01,0.64,0.01,0.96
		c0.01,10.79,0.03,21.59,0.04,32.38c0,1.92,0.02,3.84-0.09,5.75c-0.2,3.45-1.32,4.55-4.75,5.18c-0.91,0.16-2.09-0.14-2.98,1.32
		c1.02,0.08,1.76,0.18,2.5,0.18c6.63,0,13.27-0.04,19.9-0.04c5.11,0,10.23,0.05,15.34,0.09c1.14,0.01,2.3,0.11,2.75-1.3
		c0.92-2.89,1.85-5.78,2.7-8.69c0.1-0.35-0.29-0.85-0.63-1.73c-0.68,1.03-1.07,1.6-1.45,2.18c-0.82,1.27-1.61,2.57-2.46,3.83
		c-1.44,2.13-3.49,3.3-6.01,3.47c-2.62,0.18-5.26,0.24-7.89,0.21c-1.99-0.02-4.01-0.09-5.95-0.46c-3.2-0.61-4.44-1.9-4.62-5.18
		c-0.29-5.18-0.34-10.38-0.39-15.57c-0.03-2.88,0.4-3.35,3.32-3.44c2.79-0.08,5.59,0.1,8.38,0.19c3.52,0.1,4.5,0.89,5.34,4.25
		c0.15,0.62,0.28,1.26,0.54,1.83c0.13,0.29,0.54,0.45,1.13,0.91c0.15-0.9,0.33-1.48,0.34-2.07c0.03-4.07,0.01-8.13,0.01-12.2
		c0-0.32,0.08-0.68-0.04-0.95c-0.16-0.37-0.46-0.67-1.06-1.5c-0.43,1.71-0.72,2.91-1.02,4.1c-0.51,2.02-1.42,2.94-3.46,3.06
		c-3.43,0.2-6.86,0.35-10.29,0.34c-2.66,0-3.16-0.6-3.2-3.33c-0.04-3.2-0.02-6.4-0.01-9.59c0-2.24-0.04-4.48,0.04-6.72
		c0.09-2.31,0.64-2.92,2.85-2.95c3.43-0.05,6.87,0.05,10.31,0.1c4.87,0.07,8.27,2.1,9.49,7.08
		C842.27,439.5,842.43,440.2,843.68,439.99z M151.68,471.6c-0.51,0.71-0.93,1.24-1.3,1.81c-0.78,1.21-1.52,2.44-2.31,3.65
		c-1.34,2.05-3.21,3.38-5.66,3.63c-4.62,0.46-9.26,0.63-13.86-0.02c-3.65-0.51-4.87-2-5.33-5.71c-0.05-0.4-0.07-0.8-0.07-1.2
		c-0.01-4.88-0.05-9.76-0.02-14.64c0.01-2.14,0.34-2.64,2.46-2.69c3.59-0.08,7.19,0.02,10.77,0.24c1.72,0.1,2.93,1.19,3.4,2.94
		c0.2,0.77,0.32,1.57,0.58,2.32c0.16,0.47,0.53,0.86,0.96,1.54c1.17-2.01,0.42-3.85,0.52-5.6c0.11-1.75,0.01-3.52,0.04-5.28
		c0.06-4.18,0.07-4.18-0.93-5.38c-0.4,1.47-0.78,2.72-1.08,3.99c-0.4,1.72-1.52,2.66-3.19,2.75c-3.59,0.2-7.18,0.36-10.78,0.35
		c-2.31-0.01-2.74-0.57-2.75-2.93c-0.03-5.52-0.03-11.04,0-16.56c0.01-2.53,0.53-3.1,3.14-3.09c3.75,0.01,7.5,0.2,11.26,0.3
		c4.13,0.11,6.68,2.25,7.91,6.11c0.22,0.7,0.59,1.36,0.89,2.04c0.2-0.03,0.4-0.06,0.61-0.09c0.1-0.56,0.31-1.13,0.27-1.68
		c-0.15-2.15-0.34-4.3-0.57-6.44c-0.19-1.74-0.49-2-2.3-2c-10.63-0.03-21.27-0.05-31.9-0.06c-0.57,0-1.14,0.2-1.7,0.31
		c-0.01,0.19-0.02,0.38-0.04,0.56c0.94,0.26,1.87,0.56,2.82,0.77c1.87,0.4,2.95,1.52,3.24,3.39c0.18,1.18,0.37,2.38,0.38,3.57
		c0.04,11.12,0.06,22.24,0.05,33.36c0,1.59-0.06,3.2-0.28,4.78c-0.5,3.59-1.26,4.24-4.78,4.86c-0.94,0.17-2.09-0.1-3.08,1.17
		c0.83,0.14,1.4,0.32,1.96,0.33c1.76,0.02,3.52-0.05,5.28-0.05c10.15,0.02,20.31,0.05,30.46,0.08c2.47,0.01,2.53,0.03,3.31-2.21
		c0.77-2.18,1.43-4.41,2.12-6.62C152.39,473.45,152.7,472.68,151.68,471.6z M1199.63,442.55c1.07-0.12,1.07-0.69,0.99-1.41
		c-0.29-2.78-0.63-5.56-0.78-8.35c-0.07-1.28-0.59-1.88-1.76-2.15c-7.77-1.79-15.57-2.78-23.49-1.08c-5.57,1.2-10.65,3.49-14.8,7.46
		c-6.02,5.77-8.54,12.95-8.18,21.22c0.38,8.76,4.19,15.61,11.36,20.59c4.17,2.89,8.9,4.41,13.86,4.93
		c6.72,0.69,13.41,0.41,19.89-1.83c0.73-0.25,1.67-0.56,2.02-1.14c1.8-3.03,2.82-6.34,3.37-10.41c-0.92,0.51-1.47,0.65-1.73,1.01
		c-0.51,0.7-0.83,1.54-1.29,2.29c-2.47,4.08-5.96,6.88-10.62,8.01c-9.22,2.25-21.94-1.32-27.06-13.44
		c-3.08-7.27-3.31-14.78-1.1-22.29c2.05-6.97,6.64-11.72,13.55-14.14c4.02-1.41,8.18-1.61,12.31-1.05
		c6.29,0.85,10.82,4.08,12.7,10.44C1199.02,441.73,1199.39,442.15,1199.63,442.55z M1043.15,470.76c-1.6,0.13-1.68,1.29-2.1,2.07
		c-2.46,4.52-6.07,7.63-11.08,8.87c-9.07,2.25-21.82-1.05-27.11-13.34c-3.18-7.4-3.47-15.07-1.03-22.73
		c2.3-7.2,7.18-11.91,14.48-14.1c2.8-0.84,5.64-0.96,8.53-0.94c7.44,0.05,13.45,3.56,15.5,10.73c0.04,0.15,0.04,0.36,0.14,0.45
		c0.3,0.28,0.64,0.52,1.4,1.11c0.07-4.29-0.51-8-1.03-11.97c-3-0.58-5.87-1.22-8.77-1.66c-6.06-0.92-12.09-0.8-18.05,0.78
		c-14.9,3.97-23.51,17.28-20.55,32.35c2.03,10.35,8.6,16.98,18.56,20.01c8.79,2.68,17.66,2.19,26.42-0.52
		c1.06-0.33,1.88-0.85,2.25-1.94c0.88-2.56,1.77-5.12,2.6-7.7C1043.44,471.86,1043.23,471.36,1043.15,470.76z M675.11,383.71
		c-0.17,0.01-0.34,0.01-0.52,0.02c-0.15,0.41-0.42,0.81-0.42,1.22c-0.03,6.08-0.03,12.16,0,18.24c0,0.44,0.31,0.89,0.47,1.33
		c0.17-0.02,0.34-0.03,0.51-0.05c0.2-1.21,0.38-2.43,0.62-3.64c0.53-2.73,1.29-3.66,4.1-3.79c5.82-0.27,11.66-0.31,17.49-0.33
		c1.9-0.01,2.4,0.49,2.48,2.47c0.12,2.87,0.02,5.75-0.06,8.62c-0.15,5.24-0.34,5.46-5.23,7.13c-0.63,0.21-1.52,0.2-1.36,1.41
		c0.22,0.1,0.49,0.32,0.77,0.32c4.79,0.01,9.58-0.01,14.36-0.05c0.18,0,0.35-0.28,0.67-0.56c-0.36-0.33-0.63-0.73-1-0.88
		c-0.66-0.26-1.39-0.36-2.08-0.54c-2.72-0.69-3.45-1.55-3.66-4.27c-0.05-0.72-0.17-1.43-0.18-2.15c-0.06-2.88-0.17-5.76-0.1-8.63
		c0.06-2.31,0.63-2.79,2.88-2.92c0.24-0.01,0.48-0.01,0.72-0.01c5.28,0,10.55-0.02,15.83,0.01c3.54,0.02,3.98,0.41,4.02,4.03
		c0.03,3.03-0.14,6.07-0.24,9.11c-0.16,4.55-1.96,6.87-6.3,8.19c-0.62,0.19-1.21,0.49-2.22,0.9c0.73,0.4,0.98,0.65,1.24,0.65
		c2.56,0.01,5.12,0.05,7.67-0.05c1.41-0.06,1.64-0.41,1.65-2.07c0.03-10.48,0.04-20.96,0.04-31.44c0-0.47-0.24-0.94-0.37-1.41
		c-0.19-0.01-0.38-0.03-0.58-0.04c-0.23,0.87-0.48,1.74-0.68,2.62c-0.39,1.72-1.38,2.86-3.14,3.21c-0.78,0.15-1.58,0.29-2.37,0.29
		c-12.95,0.02-25.91,0.04-38.86,0c-3.8-0.01-4.93-1.07-5.66-4.78C675.43,385.14,675.26,384.43,675.11,383.71z M1238.97,482.57
		c0.01-0.2,0.02-0.4,0.03-0.6c-1.06-0.18-2.11-0.39-3.18-0.54c-2.98-0.44-4.07-1.24-4.31-4.16c-0.33-3.97-0.31-7.98-0.42-11.97
		c-0.09-3.45,0.83-6.61,2.58-9.59c2.99-5.1,5.91-10.25,8.89-15.36c0.97-1.65,2.01-3.27,3.09-4.85c1.5-2.18,3.46-3.74,6.16-4.21
		c0.53-0.09,1.02-0.42,2.01-0.84c-0.84-0.33-1.11-0.54-1.39-0.54c-4.4-0.02-8.79-0.02-13.19,0.02c-0.36,0-0.71,0.34-1.52,0.76
		c1.16,0.32,1.82,0.51,2.48,0.68c2.92,0.75,3.11,1.17,1.8,3.96c-0.03,0.07-0.07,0.15-0.1,0.22c-3.61,6.68-7.21,13.36-10.84,20.03
		c-0.32,0.59-0.8,1.1-1.39,1.9c-0.57-0.83-1.01-1.37-1.34-1.97c-0.73-1.33-1.44-2.67-2.1-4.04c-2.68-5.54-5.4-11.06-7.98-16.64
		c-1-2.17-0.58-2.66,1.76-3.37c0.73-0.22,1.78,0.02,2.23-1.17c-0.37-0.15-0.64-0.35-0.92-0.35c-5.44-0.02-10.87-0.02-16.31,0.01
		c-0.29,0-0.57,0.34-1.37,0.86c1.34,0.34,2.15,0.62,2.97,0.74c1.89,0.26,3.23,1.31,4.26,2.82c0.54,0.79,1.07,1.6,1.51,2.45
		c3.74,7.25,7.46,14.5,11.16,21.77c1.1,2.17,1.65,4.47,1.59,6.94c-0.07,3.2,0.01,6.4-0.03,9.6c-0.06,4.76-0.84,5.64-5.47,6.51
		c-0.68,0.13-1.64-0.14-2.02,1.02c0.35,0.14,0.62,0.34,0.9,0.34c6.63,0,13.27-0.01,19.9-0.05
		C1238.6,482.93,1238.79,482.69,1238.97,482.57z M641.95,482.37c-1.5-0.85-2.78-0.83-4-1c-1.97-0.28-3.24-1.33-3.57-3.32
		c-0.18-1.1-0.26-2.22-0.26-3.34c-0.03-13.04-0.04-26.08-0.05-39.12c0-0.56-0.01-1.12,0.03-1.68c0.12-1.57,0.45-2,2-2.14
		c1.51-0.14,3.04-0.18,4.55-0.07c2.86,0.21,5.73,0.42,8.55,0.89c2.52,0.42,4.01,2.06,4.56,4.64c0.18,0.84,0.02,1.97,1.17,2.57
		c0.22-0.2,0.61-0.39,0.63-0.6c0.32-3.76,0.6-7.52,0.89-11.38c-3.4,2.16-3.4,2.16-7.9,2.17c-10.8,0-21.59,0-32.39,0
		c-2.73,0-5.46,0.06-7.5-3.17c-0.46,1.94-0.78,3.3-1.11,4.65c-0.32,1.32-0.74,2.62-0.98,3.95c-0.23,1.31-1.4,2.54-0.48,4.09
		c1.17-0.23,1.3-1.23,1.67-1.95c1.76-3.38,4.37-5.43,8.31-5.55c2.55-0.08,5.1-0.3,7.66-0.33c4.11-0.05,4.38,0.25,4.39,4.3
		c0.01,11.52,0.01,23.04,0,34.56c0,1.6,0,3.21-0.16,4.79c-0.44,4.35-0.6,5.71-6.02,6.32c-0.71,0.08-1.66-0.22-2.16,0.94
		c0.45,0.14,0.86,0.37,1.28,0.4C626.57,483.34,640.23,483.01,641.95,482.37z"/>
	<path d="M441.8,324.71c0.14,8.16,0.21,16.31,0.44,24.47c0.06,2.3,0.47,4.61,0.9,6.87c0.76,3.94,3.24,6.35,7.11,7.22
		c2.64,0.6,5.33,1.01,8.01,1.44c2.09,0.34,3.1,2.46,1.85,4.22c-0.3,0.42-1.06,0.69-1.62,0.71c-1.76,0.07-3.52,0.03-5.28-0.05
		c-13.43-0.64-26.85-0.61-40.28-0.01c-1.84,0.08-3.68,0.11-5.52,0.09c-1.52-0.02-2.14-0.66-2.27-2.17
		c-0.14-1.53,0.55-2.51,2.01-2.72c2.53-0.36,5.07-0.65,7.59-1.02c0.86-0.13,1.72-0.36,2.56-0.63c3.04-0.96,5.04-2.97,5.99-6.03
		c1.11-3.56,1.1-7.26,1.32-10.92c0.17-2.71,0.11-5.44,0.11-8.16c0.01-27.2,0.01-54.4,0-81.6c0-5.6,0.01-11.2-0.92-16.74
		c-0.14-0.86-0.37-1.72-0.65-2.55c-0.91-2.71-2.77-4.49-5.55-5.13c-2.09-0.48-4.25-0.71-6.38-1.04c-0.63-0.1-1.27-0.11-1.9-0.23
		c-2.07-0.4-2.5-0.92-2.4-2.83c0.09-1.69,0.68-2.25,2.65-2.36c6.46-0.37,12.92-0.88,19.39-1.02c11.99-0.26,23.98-0.5,35.97-0.35
		c8.08,0.1,16.09,1.19,23.72,4.15c3.67,1.43,7.14,3.24,10.25,5.66c7.86,6.11,11.82,14.23,12.46,24.12
		c0.81,12.59-3.77,22.8-13.23,30.96c-3.53,3.05-7.47,5.49-11.7,7.44c-0.44,0.2-0.89,0.37-1.31,0.59c-1.47,0.77-1.81,1.5-1.32,3.12
		c0.25,0.83,0.61,1.66,1.07,2.4c8.45,13.68,16.88,27.37,26.69,40.13c5.13,6.67,10.75,12.89,17.12,18.42
		c3.97,3.44,8.45,5.7,13.64,6.54c0.71,0.11,1.45,0.19,2.1,0.46c0.37,0.15,0.83,0.67,0.82,1c-0.02,0.47-0.35,1.07-0.74,1.32
		c-0.51,0.33-1.2,0.44-1.83,0.53c-7.85,1.05-15.63,0.7-23.26-1.54c-8.18-2.41-14.5-7.6-20.11-13.8
		c-6.04-6.67-10.98-14.14-15.8-21.69c-4.56-7.15-9.14-14.27-13.73-21.4c-0.61-0.94-1.26-1.85-1.91-2.76c-2.13-3-4.98-4.95-8.6-5.65
		c-4.59-0.89-9.21-0.96-13.83-0.29c-2.5,0.36-3.06,1.03-3.34,3.57c-0.13,1.19-0.2,2.39-0.21,3.59c-0.02,4.56-0.01,9.12-0.01,13.68
		C441.87,324.71,441.84,324.71,441.8,324.71z M441.91,264.06c0.08,0,0.15,0,0.23,0c0,9.51,0.02,19.02-0.01,28.53
		c-0.01,4.51,0.95,4.59,4.8,4.77c7.01,0.33,14.05,0.62,21.05-0.34c11.5-1.57,19.57-8.66,22.63-19.92
		c1.85-6.81,2.27-13.72,0.81-20.63c-2.62-12.35-9.8-20.75-21.99-24.57c-6.51-2.04-13.2-2.14-19.93-1.62
		c-1.42,0.11-2.86,0.35-4.23,0.72c-1.9,0.51-2.93,1.86-3.07,3.82c-0.12,1.67-0.27,3.35-0.28,5.02
		C441.89,247.91,441.91,255.99,441.91,264.06z"/>
	<path d="M616.66,221.16c13.39,0.03,24.29,1.75,34.67,6.15c18.89,8,31.49,21.96,38.44,41.13c2.74,7.56,4.12,15.39,4.53,23.43
		c0.75,14.36-1.75,28.07-8.51,40.78c-11.21,21.08-28.77,33.92-52.15,38.45c-17.48,3.39-34.6,1.56-50.83-5.87
		c-20.75-9.5-34.17-25.56-39.8-47.63c-5.27-20.7-2.64-40.71,8.1-59.26c10.55-18.23,26.5-29.54,46.83-34.73
		C604.79,221.87,611.76,221.07,616.66,221.16z M673.27,301.99c-0.08-1.27-0.28-3.58-0.37-5.9c-0.33-8.76-1.87-17.31-4.45-25.66
		c-2.93-9.49-7.21-18.31-13.88-25.78c-12.58-14.1-28.61-19.3-46.92-16.79c-19.65,2.7-32.98,14.06-40.44,32.33
		c-3.74,9.14-5.06,18.79-5.39,28.58c-0.22,6.33,0.33,12.62,1.32,18.87c1.57,9.93,4.41,19.48,9.14,28.39
		c4.44,8.38,10.23,15.65,18.08,21.13c7.72,5.39,16.3,8.23,25.67,9.09c8.71,0.8,17.07-0.33,25.07-3.79
		c12.8-5.53,21.24-15.28,26.49-28C671.73,324.4,673.05,313.82,673.27,301.99z"/>
	<path d="M1126.37,251.3c-0.41,1.31-0.75,2.02-0.84,2.77c-0.24,1.9-0.51,3.82-0.51,5.72c-0.01,23.52-0.11,47.03,0.14,70.55
		c0.08,7.49,1.1,14.97,1.78,22.44c0.15,1.66,0.65,3.29,1.07,4.91c0.67,2.6,2.32,4.37,4.91,5.11c1.99,0.57,4.01,1.06,6.05,1.38
		c2.05,0.32,4.13,0.38,6.2,0.57c2.19,0.2,3.15,1.89,2.27,3.92c-0.34,0.78-0.94,1.02-1.73,1.01c-1.68-0.03-3.36-0.05-5.04-0.07
		c-11.43-0.1-22.86-0.22-34.28-0.28c-2.15-0.01-4.31,0.27-6.46,0.32c-1.92,0.04-2.46-0.52-2.52-2.32c-0.05-1.78,0.49-2.36,2.37-2.59
		c2.37-0.3,4.75-0.62,7.11-0.98c0.78-0.12,1.56-0.36,2.31-0.61c2.78-0.92,4.59-2.64,5.22-5.67c1.07-5.11,1.58-10.27,1.75-15.46
		c1.03-31.18,0.33-62.38,0.44-93.57c0.01-2.21-0.33-4.48-0.89-6.62c-1.36-5.22-4.59-8.99-9.77-10.66c-3.17-1.02-6.51-1.54-9.8-2.13
		c-2.04-0.37-2.61-0.8-2.57-2.68c0.04-1.74,0.53-2.31,2.3-2.27c4.79,0.11,9.58,0.35,14.38,0.45c3.76,0.08,7.52,0.07,11.27,0.01
		c1.99-0.03,3.98-0.23,5.97-0.4c0.93-0.08,1.7-0.03,2.22,0.94c5.77,10.72,13.56,19.97,21.46,29.09
		c14.51,16.74,29.24,33.28,43.98,49.81c8.62,9.67,17.4,19.19,26.14,28.76c1.1,1.21,2.15,2.52,3.96,3.58
		c0.35-1.1,0.75-1.88,0.81-2.68c0.2-2.55,0.37-5.1,0.38-7.66c0.02-17.76,0.13-35.52-0.08-53.27c-0.1-8.62-0.73-17.24-1.35-25.85
		c-0.23-3.24-1.1-6.44-1.72-9.65c-0.68-3.54-2.89-5.65-6.36-6.34c-3.59-0.72-7.22-1.3-10.84-1.88c-1.96-0.31-2.93-1.46-2.49-3.25
		c0.25-1.01,0.8-1.73,1.99-1.7c1.76,0.05,3.52,0.07,5.28,0.08c11.75,0.09,23.5,0.19,35.24,0.24c1.91,0.01,3.83-0.26,5.74-0.3
		c1.67-0.03,2.17,0.49,2.3,2.04c0.15,1.83-0.39,2.58-2.07,2.87c-1.89,0.32-3.8,0.55-5.65,1.02c-1.93,0.49-3.81,1.17-5.67,1.87
		c-1.85,0.69-3.08,2.05-3.44,4c-0.7,3.84-1.56,7.68-1.88,11.57c-0.45,5.41-0.6,10.86-0.63,16.29c-0.14,23.59-0.23,47.19-0.24,70.78
		c-0.01,9.75,0.2,19.51,0.35,29.26c0.03,1.75,0.21,3.51,0.36,5.26c0.09,1.09-0.04,2.06-1.02,2.76c-1.41,1.01-2.36,0.92-3.48-0.45
		c-2.08-2.54-4.06-5.16-6.21-7.63c-15.44-17.73-30.94-35.4-46.38-53.13c-14.23-16.34-28.4-32.74-42.6-49.11
		c-2.31-2.66-4.6-5.33-6.92-7.97C1128.09,252.9,1127.43,252.34,1126.37,251.3z"/>
	<path d="M149.53,260.83c0,7.6-0.01,15.2,0.01,22.8c0,1.2,0.02,2.41,0.23,3.58c0.35,1.95,1.25,2.74,3.19,3.04
		c0.55,0.09,1.12,0.09,1.67,0.09c7.68-0.01,15.35,0.07,23.03-0.07c3.26-0.06,6.53-0.49,9.76-0.93c3.16-0.43,5.26-2.31,6.05-5.4
		c0.75-2.94,1.31-5.92,1.94-8.89c0.08-0.39,0.12-0.79,0.21-1.18c0.51-2.11,2.42-3.12,4.32-2.13c0.49,0.26,0.91,1.13,0.93,1.73
		c0.04,2.32,0,4.64-0.17,6.95c-0.69,9.1-0.75,18.2,0,27.3c0.17,2.07,0.19,4.15,0.21,6.23c0.02,1.66-0.39,2.15-1.72,2.39
		c-1.65,0.29-2.94-0.22-3.34-1.55c-0.55-1.83-0.91-3.72-1.38-5.58c-0.44-1.7-0.83-3.42-1.4-5.07c-1.01-2.93-3.01-5.02-6.08-5.54
		c-3.69-0.63-7.43-1.1-11.16-1.21c-6.63-0.2-13.27-0.08-19.91-0.06c-1.03,0-2.06,0.19-3.09,0.29c-1.89,0.18-2.83,1.34-3.1,3.11
		c-0.14,0.94-0.19,1.91-0.19,2.87c0,11.92-0.02,23.84,0.04,35.76c0.02,4.24,0.38,8.45,1.35,12.6c1.13,4.83,4.03,7.98,8.84,9.08
		c3.41,0.78,6.9,1.42,10.38,1.66c8.3,0.58,16.62,0.38,24.92-0.03c3.01-0.15,6.01-0.76,9-1.28c3.94-0.69,7.06-2.79,9.64-5.83
		c3.53-4.17,6.43-8.76,9.04-13.54c0.5-0.91,0.93-1.86,1.46-2.75c1.06-1.79,3.93-1.91,4.97-0.14c0.3,0.51,0.22,1.39,0.04,2.02
		c-1.63,5.76-3.25,11.53-5.03,17.24c-0.97,3.12-2.29,6.14-3.34,9.24c-0.55,1.63-1.5,2.15-3.21,2.1c-8.55-0.22-17.1-0.44-25.65-0.45
		c-22.71-0.04-45.42,0-68.12,0.06c-3.59,0.01-7.19,0.27-10.78,0.34c-2.02,0.04-3.13-1.68-2.4-3.57c0.46-1.18,1.48-1.28,2.56-1.37
		c2.7-0.23,5.42-0.42,8.1-0.8c6.74-0.96,9.4-3.69,10.21-11.18c0.53-4.83,0.59-9.73,0.59-14.6c0.03-30.24,0.02-60.47-0.07-90.71
		c-0.01-3.17-0.43-6.37-0.93-9.52c-0.7-4.35-3.46-6.92-7.7-7.84c-2.18-0.47-4.4-0.75-6.62-1.05c-0.91-0.12-1.96-0.18-2.07-1.22
		c-0.11-1.05,0.11-2.17,0.41-3.2c0.09-0.3,0.95-0.5,1.46-0.51c1.44-0.05,2.88,0,4.32,0.03c6.23,0.15,12.46,0.42,18.7,0.43
		c21.03,0.05,42.06,0.02,63.09-0.02c2.55,0,5.11-0.22,7.66-0.37c1.56-0.09,1.8-0.03,2.11,1.56c0.48,2.51,0.91,5.03,1.18,7.57
		c0.6,5.64,1.08,11.29,1.6,16.94c0.02,0.24,0.03,0.48,0.04,0.72c0.05,1.99-0.19,2.37-1.64,2.61c-1.92,0.33-2.79-0.11-3.38-1.75
		c-0.83-2.33-1.59-4.69-2.44-7.02c-3.05-8.36-9.29-12.54-17.92-13.35c-11.16-1.05-22.36-0.77-33.54-0.76
		c-1.12,0-2.23,0.14-3.34,0.27c-1.83,0.22-2.73,0.94-3.1,2.79c-0.28,1.4-0.39,2.85-0.39,4.28
		C149.52,245.63,149.54,253.23,149.53,260.83z"/>
	<path d="M889.09,369.29c-14.79,0-29.58-0.03-44.38,0.02c-4.15,0.01-8.31,0.29-12.46,0.37c-1.8,0.04-2.45-0.68-2.47-2.44
		c-0.03-1.68,0.61-2.31,2.51-2.48c2.62-0.23,5.28-0.31,7.87-0.74c7.38-1.21,10.1-4.11,10.67-11.56c0.37-4.78,0.54-9.58,0.55-14.37
		c0.03-30.16,0.02-60.31-0.07-90.47c-0.01-3.33-0.41-6.7-0.99-9.99c-0.68-3.88-3.12-6.44-7.01-7.35c-2.33-0.54-4.7-0.9-7.07-1.23
		c-2.33-0.32-3.37-2.39-1.97-4.28c0.3-0.41,1.08-0.63,1.65-0.66c1.43-0.08,2.88,0,4.32,0.03c6.47,0.15,12.94,0.42,19.41,0.43
		c20.47,0.05,40.94,0.02,61.41-0.03c2.87-0.01,5.74-0.23,8.62-0.38c1.51-0.08,1.76-0.01,2.07,1.62c0.48,2.51,0.91,5.03,1.17,7.57
		c0.59,5.64,1.07,11.29,1.59,16.94c0.02,0.24,0.03,0.48,0.04,0.72c0.04,1.89-0.16,2.24-1.47,2.53c-1.96,0.43-2.94-0.07-3.58-1.78
		c-1.17-3.14-2.19-6.35-3.55-9.41c-2.28-5.13-6.29-8.47-11.69-9.86c-3.07-0.79-6.28-1.35-9.44-1.44c-9.51-0.28-19.02-0.3-28.53-0.38
		c-1.35-0.01-2.71,0.15-4.06,0.28c-1.6,0.16-2.7,0.99-3.02,2.61c-0.2,1.01-0.39,2.05-0.39,3.08c-0.03,16.08-0.03,32.16-0.03,48.23
		c0,0.32,0.01,0.64,0.03,0.96c0.23,3.31,1.33,4.46,4.64,4.47c8.32,0.03,16.63,0.04,24.95-0.09c2.7-0.04,5.4-0.49,8.09-0.86
		c3.37-0.46,5.51-2.43,6.31-5.72c0.7-2.87,1.25-5.77,1.87-8.66c0.1-0.47,0.17-0.94,0.29-1.41c0.5-1.88,2.96-2.87,4.5-1.71
		c0.42,0.31,0.68,1.09,0.68,1.65c0.01,2.32-0.02,4.64-0.19,6.95c-0.68,9.1-0.76,18.2,0.02,27.31c0.18,2.07,0.19,4.15,0.2,6.23
		c0.01,1.64-0.41,2.12-1.78,2.33c-1.67,0.27-2.9-0.25-3.3-1.61c-0.54-1.83-0.91-3.72-1.37-5.58c-0.3-1.24-0.61-2.48-0.93-3.72
		c-1.12-4.26-3.88-6.73-8.23-7.27c-3.17-0.39-6.36-0.74-9.54-0.8c-6.63-0.13-13.27-0.06-19.91-0.04c-0.95,0-1.92,0.1-2.86,0.27
		c-2.26,0.4-3,1.15-3.34,3.42c-0.14,0.94-0.14,1.91-0.14,2.87c0,11.6-0.06,23.2,0.07,34.8c0.04,3.74,0.51,7.49,0.92,11.21
		c0.16,1.41,0.62,2.81,1.1,4.16c1.05,2.94,3.02,5.17,5.96,6.18c2.62,0.9,5.38,1.45,8.1,2.02c1.4,0.3,2.85,0.39,4.28,0.46
		c9.83,0.43,19.65,0.5,29.45-0.47c1.9-0.19,3.77-0.67,5.64-1.1c3.49-0.8,6.22-2.79,8.52-5.47c3.57-4.14,6.45-8.74,9.08-13.51
		c0.54-0.98,1-2.01,1.57-2.97c1.06-1.77,3.97-1.81,4.99-0.04c0.24,0.41,0.22,1.08,0.09,1.57c-0.8,3.17-1.53,6.37-2.54,9.49
		c-1.81,5.62-3.75,11.21-5.73,16.78c-0.98,2.75-1.09,2.72-3.95,2.68c-15.75-0.21-31.49-0.43-47.24-0.65
		C889.09,369.12,889.09,369.2,889.09,369.29z"/>
	<path d="M258.79,278.88c0-9.92,0.09-19.84-0.04-29.75c-0.05-3.82-0.43-7.65-0.96-11.44c-0.66-4.7-3.66-7.32-8.25-8.1
		c-2.52-0.42-5.07-0.63-7.61-0.92c-2.19-0.25-2.52-0.56-2.44-2.35c0.08-1.85,0.56-2.28,2.83-2.22c3.83,0.1,7.67,0.37,11.5,0.38
		c10.07,0.04,20.15,0,30.22-0.06c2.95-0.02,5.91-0.27,8.86-0.33c2.06-0.04,3.19,1.61,2.34,3.52c-0.22,0.49-1.07,0.88-1.69,0.97
		c-2.21,0.34-4.44,0.48-6.66,0.78c-7.66,1.05-9.52,4.64-10.18,11.4c-0.4,4.13-0.5,8.3-0.52,12.45c-0.05,18.24-0.08,36.47,0.02,54.71
		c0.06,9.63,1.18,19.14,4.3,28.32c1.81,5.34,4.36,10.3,8.08,14.59c4.3,4.96,9.61,8.42,15.84,10.38c8.94,2.8,18.05,3.28,27.22,1.4
		c12.46-2.55,21.26-9.88,26.82-21.19c3.63-7.4,5.48-15.32,6.32-23.48c1.36-13.08,0.73-26.2,0.78-39.31
		c0.02-5.59-0.12-11.19-0.34-16.78c-0.32-7.82-0.67-15.65-2.35-23.34c-0.15-0.7-0.35-1.39-0.53-2.09c-0.76-2.94-2.56-5.01-5.44-5.89
		c-2.2-0.68-4.49-1.07-6.75-1.47c-1.49-0.26-3.02-0.27-4.52-0.49c-1.24-0.18-1.55-0.72-1.5-2.26c0.05-1.47,0.47-2.13,1.65-2.18
		c1.59-0.07,3.2-0.02,4.79,0.05c12.46,0.61,24.93,0.66,37.39-0.01c1.36-0.07,2.72-0.11,4.08-0.06c1.34,0.05,1.74,0.55,1.82,1.99
		c0.09,1.59-0.29,2.29-1.56,2.48c-2.37,0.35-4.76,0.54-7.12,0.93c-1.25,0.21-2.48,0.61-3.66,1.08c-2.77,1.1-4.75,2.99-5.27,6.04
		c-0.61,3.62-1.3,7.24-1.6,10.89c-0.39,4.7-0.55,9.42-0.6,14.13c-0.21,17.19-0.18,34.39-0.55,51.58
		c-0.19,8.89-1.77,17.62-4.72,26.07c-5.4,15.48-16.04,25.45-31.62,30.26c-9.37,2.89-18.94,3.53-28.68,2.72
		c-5.43-0.45-10.78-1.27-16-2.84c-16.65-5.02-26.72-16.22-30.82-32.97c-1.43-5.83-2.38-11.75-2.49-17.76
		c-0.25-13.27-0.4-26.54-0.59-39.82C258.67,278.88,258.73,278.88,258.79,278.88z"/>
	<path d="M750.81,292.33c0,17.99-0.04,35.99,0.04,53.98c0.01,2.86,0.43,5.73,0.85,8.57c0.68,4.62,3.34,7.55,7.96,8.41
		c3.29,0.61,6.62,1,9.94,1.44c1.94,0.26,2.39,0.7,2.33,2.57c-0.06,1.89-0.53,2.41-2.46,2.37c-6.47-0.13-12.94-0.41-19.41-0.46
		c-7.75-0.06-15.51,0.01-23.26,0.1c-3.11,0.03-6.23,0.28-9.34,0.35c-1.96,0.05-2.35-0.33-2.49-2.06c-0.17-2.04,0.27-2.6,2.23-2.89
		c2.13-0.32,4.27-0.59,6.38-1.01c6.07-1.23,8.72-4.04,9.21-10.24c0.39-4.93,0.55-9.89,0.56-14.84c0.04-30.07-0.01-60.14-0.01-90.21
		c0-3.36-0.14-6.7-0.91-10c-0.83-3.6-3.06-5.74-6.6-6.45c-2.34-0.47-4.74-0.68-7.11-1c-0.79-0.11-1.58-0.26-2.37-0.27
		c-1.53-0.02-2.27-1.25-2.2-2.59c0.08-1.53,0.93-2.38,2.6-2.55c3.18-0.33,6.35-0.74,9.54-0.91c13.82-0.76,27.65-0.84,41.47-0.43
		c8.71,0.25,17.35,1.52,25.55,4.76c13.2,5.2,21.63,14.56,24.24,28.63c3.31,17.85-3.71,34.6-21.93,42.92
		c-8.6,3.93-17.73,5.79-27.19,5.98c-2.16,0.04-2.8-0.34-2.94-1.64c-0.14-1.27,0.39-1.82,2.46-2.28c4.62-1.02,9.1-2.41,13.31-4.61
		c9.62-5.04,15.09-13.01,16.83-23.66c1.16-7.11,1.04-14.18-1-21.12c-3.65-12.41-12.13-19.58-24.62-22.16
		c-5.51-1.14-11.09-1.34-16.69-0.56c-3.53,0.49-4.76,1.76-5.01,5.26c-0.08,1.19-0.06,2.4-0.06,3.6c0,17.68,0,35.35,0,53.03
		C750.76,292.33,750.78,292.33,750.81,292.33z"/>
	<path d="M1013.27,229.4c4.21-1.49,7.48-4.24,10.41-7.48c0.93-1.02,2.22-0.85,3.04,0.31c0.36,0.51,0.56,1.15,0.76,1.75
		c8.44,25.06,16.85,50.13,25.31,75.18c4.98,14.76,10.03,29.5,15.09,44.23c1.04,3.02,2.21,6,3.43,8.95c0.64,1.55,1.48,3.01,2.28,4.48
		c2.57,4.67,6.64,6.96,11.85,7.43c1.59,0.15,3.18,0.31,4.76,0.51c2.01,0.25,3.1,2.77,1.82,4.32c-0.29,0.36-0.96,0.54-1.47,0.56
		c-1.36,0.06-2.72-0.02-4.08-0.03c-12.07-0.1-24.14-0.22-36.2-0.27c-2.95-0.01-5.91,0.27-8.86,0.32c-1.77,0.03-2.45-0.73-2.47-2.46
		c-0.02-1.58,0.57-2.23,2.31-2.43c1.82-0.21,3.68-0.24,5.48-0.57c1.71-0.31,3.42-0.77,5.05-1.39c1.46-0.56,2.29-1.77,2.07-3.42
		c-0.22-1.66-0.4-3.35-0.89-4.93c-3.11-9.91-6.3-19.79-9.46-29.68c-0.83-2.59-1.7-5.16-2.52-7.75c-0.85-2.66-2.61-4.14-5.41-4.34
		c-1.04-0.07-2.07-0.14-3.11-0.14c-11.19-0.01-22.39-0.02-33.58,0.01c-1.27,0-2.54,0.17-3.81,0.34c-1.91,0.25-3.18,1.38-3.98,3.09
		c-0.24,0.51-0.47,1.02-0.64,1.55c-3.71,11.31-7.44,22.61-11.1,33.93c-0.66,2.05-1.11,4.17-1.51,6.29c-0.69,3.7,0.44,5.5,4.13,6.19
		c2.5,0.47,5.07,0.55,7.62,0.79c1.88,0.18,2.5,0.66,2.66,2.13c0.22,1.99-0.48,2.82-2.53,2.78c-5.67-0.12-11.34-0.44-17.02-0.43
		c-7.83,0.02-15.66,0.3-23.49,0.44c-2.14,0.04-2.72-0.48-2.83-2.33c-0.11-1.7,0.4-2.36,2.1-2.56c1.9-0.21,3.81-0.37,5.73-0.51
		c4.8-0.35,8.53-2.53,11.1-6.58c0.85-1.34,1.57-2.79,2.17-4.26c13.74-33.15,26.03-66.86,38.78-100.4c1.53-4.03,3.04-8.07,4.56-12.11
		C1012.18,237.26,1013.4,233.55,1013.27,229.4z M1017.19,247.14c-0.63,0.58-0.95,0.75-1.07,1.01c-0.68,1.44-1.39,2.88-1.94,4.38
		c-5.75,15.66-11.48,31.32-17.2,46.99c-0.25,0.67-0.46,1.37-0.56,2.08c-0.23,1.66,0.26,2.4,1.93,2.67c1.41,0.22,2.86,0.32,4.29,0.33
		c8.15,0.03,16.29,0.02,24.44,0.01c1.2,0,2.4,0.02,3.59-0.09c4.86-0.45,5.53-1.44,4.05-6.14c-1.44-4.57-2.96-9.11-4.48-13.65
		c-3.79-11.27-7.58-22.54-11.41-33.8C1018.44,249.74,1017.85,248.63,1017.19,247.14z"/>
	<path d="M1069.16,482.44c-0.37,0.22-0.62,0.5-0.87,0.5c-6.15,0.01-12.3-0.01-18.46-0.04c-0.2,0-0.39-0.23-1.11-0.67
		c1.35-0.37,2.14-0.72,2.94-0.79c3.06-0.24,4.38-1.82,4.53-5.09c0.08-1.76,0.07-3.52,0.07-5.28c-0.01-10.88-0.02-21.75-0.04-32.63
		c0-0.96,0.01-1.93-0.15-2.87c-0.38-2.25-1.35-3.14-3.6-3.52c-0.82-0.14-1.61-0.39-2.42-0.58c0-0.16-0.01-0.32-0.01-0.49
		c0.36-0.21,0.69-0.51,1.07-0.62c0.61-0.17,1.26-0.3,1.89-0.3c6.95-0.04,13.91-0.18,20.86,0.01c2.25,0.06,4.59,0.74,6.7,1.62
		c9.04,3.78,9.25,14.69,4.17,20.01c-1.52,1.59-3.45,2.82-5.31,4.02c-1.74,1.13-2.04,1.5-1,3.18c3.78,6.12,7.48,12.31,12.3,17.71
		c1.12,1.25,2.32,2.43,3.58,3.53c2.77,2.43,6.88,1.81,8.87-1.31c0.38-0.6,0.7-1.26,0.96-1.93c5.32-13.79,10.62-27.59,15.92-41.38
		c0.03-0.07,0.07-0.15,0.08-0.23c0.3-3.07,2.31-4.87,5.03-6.51c0.29,0.62,0.64,1.19,0.85,1.81c4.77,13.99,9.52,27.98,14.29,41.97
		c0.57,1.66,1.19,3.31,1.88,4.92c0.97,2.29,2.59,3.8,5.2,4.03c0.74,0.06,1.45,0.33,2.18,0.5c0,0.17-0.01,0.33-0.01,0.49
		c-0.31,0.15-0.61,0.41-0.93,0.45c-3.21,0.33-16.66-0.02-18.31-0.61c0.88-0.33,1.38-0.57,1.9-0.71c0.69-0.18,1.43-0.23,2.11-0.45
		c1.13-0.36,1.72-1.15,1.49-2.38c-0.15-0.78-0.33-1.57-0.57-2.32c-1.24-3.88-2.5-7.75-3.77-11.63c-0.78-2.37-1.32-2.87-3.76-2.91
		c-4.08-0.08-8.15-0.03-12.23-0.02c-1.65,0-2.97,0.52-3.52,2.28c-1.43,4.57-2.98,9.11-4.32,13.71c-0.73,2.51-0.24,3.08,2.31,3.59
		c0.81,0.16,1.61,0.36,2.41,0.54c-0.01,0.18-0.02,0.37-0.03,0.55c-0.48,0.12-0.95,0.35-1.43,0.35c-1.84,0.03-3.68-0.02-5.52-0.02
		c-2.07,0-4.09,0.22-6.15,0.59c-5.02,0.89-9.84-0.04-13.52-3.8c-2.55-2.61-4.74-5.61-6.88-8.58c-2.05-2.85-3.91-5.85-5.71-8.87
		c-1.97-3.33-4.87-4.06-8.93-3.56c-1.55,0.19-1.97,0.8-2,2.74c-0.05,3.92-0.03,7.84,0.02,11.76c0.01,1.27,0.14,2.55,0.31,3.82
		c0.39,2.97,1.22,3.79,4.18,4.36C1067.56,481.55,1068.47,481.53,1069.16,482.44z M1062.22,444.33c0.01,0,0.01,0,0.02,0
		c0,3.27-0.06,6.55,0.02,9.82c0.05,2.09,0.54,2.59,2.54,2.68c2.07,0.09,4.16,0.15,6.22-0.03c5.58-0.49,9.14-3.66,10.02-8.93
		c0.26-1.56,0.22-3.18,0.16-4.77c-0.21-5.29-3.66-9.71-8.79-10.92c-2.14-0.51-4.42-0.53-6.64-0.55c-2.79-0.02-3.49,0.76-3.54,3.61
		C1062.18,438.26,1062.22,441.3,1062.22,444.33z M1114.59,459.26c4.23,0.47,8.37,0.49,12.5,0.11c2-0.18,2.27-0.69,1.61-2.74
		c-1.76-5.46-3.58-10.91-5.41-16.36c-0.24-0.72-0.65-1.38-1.02-2.15C1120.5,439.95,1114.42,456.61,1114.59,459.26z"/>
	<path d="M406.02,429.99c5.38-0.06,10.33-0.04,15.29,0c0.02,0.23,0.04,0.47,0.06,0.7c-0.41,0.14-0.8,0.38-1.22,0.41
		c-2.28,0.19-3.9,1.41-4.93,3.35c-1.13,2.11-2.21,4.26-3.14,6.46c-5.77,13.69-11.49,27.4-17.22,41.11
		c-0.15,0.37-0.26,0.76-0.46,1.11c-0.64,1.12-1.55,1.16-2.16,0.05c-0.42-0.76-0.67-1.62-1.02-2.43c-2.54-5.86-5.08-11.73-7.64-17.58
		c-0.25-0.57-0.6-1.1-0.92-1.68c-1.16,0.21-1.37,1.15-1.7,1.9c-2.75,6.12-5.45,12.26-8.19,18.39c-0.37,0.83-0.3,2.08-1.55,2.18
		c-1.44,0.11-1.46-1.27-1.86-2.14c-6.72-14.85-13.41-29.71-20.12-44.56c-0.36-0.8-0.77-1.58-1.17-2.36
		c-1.14-2.2-2.82-3.65-5.41-3.79c-0.31-0.02-0.62-0.1-0.91-0.22c-0.11-0.04-0.16-0.25-0.32-0.55c0.43-0.15,0.84-0.42,1.24-0.42
		c5.38,0,10.75,0.04,16.31,0.07c-0.38,1.34-1.22,1.05-1.85,1.14c-2.78,0.41-3.41,1.26-2.32,3.86c2.88,6.85,5.85,13.66,8.89,20.43
		c2.45,5.47,5.06,10.87,7.61,16.29c0.36,0.76,0.8,1.48,1.36,2.5c0.55-0.74,0.94-1.13,1.16-1.59c2-4.18,3.93-8.39,5.98-12.55
		c0.89-1.81,0.83-3.42-0.03-5.24c-2.96-6.29-5.81-12.63-8.69-18.95c-1.28-2.8-3.12-4.83-6.48-4.86c-0.18,0-0.36-0.24-0.71-0.47
		c1.41-1.2,2.94-0.49,4.32-0.57c1.43-0.09,2.88-0.01,4.31-0.01c1.52,0,3.04-0.07,4.55,0.01c1.32,0.07,2.77-0.57,4.45,0.8
		c-1.27,0.18-2.09,0.27-2.9,0.42c-1.94,0.36-2.64,1.26-1.9,3.01c2.18,5.15,4.51,10.23,6.79,15.33c0.05,0.12,0.25,0.18,0.54,0.37
		c0.31-0.39,0.74-0.74,0.94-1.19c1.89-4.32,3.75-8.65,5.59-12.98c0.25-0.58,0.4-1.22,0.5-1.85c0.24-1.57-0.38-2.42-1.96-2.71
		c-0.81-0.15-1.65-0.21-2.72-0.34c1.12-0.89,1.12-0.89,5.11-0.87c1.68,0.01,3.36-0.04,5.04,0.01c1.69,0.06,3.43-0.37,5.13,0.62
		c-0.38,0.16-0.75,0.47-1.13,0.47c-2.75-0.04-4.5,1.5-5.73,3.7c-1.75,3.14-3.43,6.32-5.05,9.53c-1.26,2.49-2.4,5.05-3.58,7.58
		c-0.49,1.05-0.7,2.08-0.18,3.22c2.73,6.04,5.43,12.1,8.15,18.14c0.09,0.2,0.3,0.35,0.49,0.55c1.09-0.24,1.18-1.23,1.49-1.98
		c3.81-9.14,7.61-18.29,11.36-27.46c1.24-3.03,2.37-6.11,3.43-9.2c0.88-2.59,0.07-3.71-2.66-4.03c-0.55-0.06-1.1-0.13-1.64-0.24
		C406.55,430.86,406.48,430.65,406.02,429.99z"/>
	<path d="M869.98,482.49c-0.2,0.16-0.38,0.42-0.55,0.42c-5.2,0.04-10.39,0.05-15.59,0.05c-0.28,0-0.56-0.18-0.95-0.32
		c0.43-1.17,1.4-1.07,2.18-1.24c2.95-0.63,4.05-1.57,4.38-4.56c0.59-5.32,1.1-10.65,1.45-15.99c0.49-7.58,0.82-15.16,1.19-22.75
		c0.04-0.87-0.1-1.75-0.15-2.62c-0.12-2.16-1.41-3.31-3.36-3.84c-1.05-0.29-2.12-0.48-3.77-0.85c0.87-0.5,1.21-0.86,1.55-0.87
		c3.36-0.03,6.72,0.01,10.07,0c1.08,0,1.64,0.51,1.77,1.53c0.49,3.63,1.99,6.91,3.56,10.14c4.62,9.49,9.31,18.94,13.99,28.4
		c0.45,0.91,1.01,1.77,1.77,3.08c0.72-1.06,1.31-1.76,1.71-2.55c3.2-6.35,6.37-12.72,9.54-19.09c1.71-3.44,3.47-6.85,5.08-10.33
		c1.63-3.54,3.1-7.16,4.8-11.13c3.6,0,7.57-0.01,11.54,0.02c0.23,0,0.45,0.31,1.04,0.73c-0.97,0.22-1.54,0.38-2.12,0.48
		c-4.5,0.76-5.68,2.09-5.72,6.72c-0.03,4.16,0,8.32,0.12,12.48c0.24,8.47,0.54,16.94,0.85,25.41c0.03,0.87,0.22,1.74,0.37,2.6
		c0.31,1.69,1.38,2.62,3.03,2.98c1.04,0.23,2.19,0.14,3.37,1.01c-0.56,0.28-0.86,0.54-1.19,0.57c-3.41,0.36-16.89-0.01-18.11-0.51
		c0.56-1.06,1.67-0.82,2.5-1c2.77-0.59,3.51-1.1,3.7-3.85c0.23-3.42,0.21-6.87,0.18-10.3c-0.05-7.76-0.18-15.51-0.27-23.27
		c-0.01-1.09,0-2.19,0-3.4c-1.44,0.11-1.59,1.12-1.94,1.82c-3.18,6.27-6.37,12.54-9.48,18.85c-3.42,6.96-6.76,13.96-10.14,20.93
		c-0.2,0.41-0.48,0.78-0.99,1.58c-2.06-3.79-3.35-7.53-5.06-11.05c-1.75-3.59-3.41-7.23-5.11-10.85c-1.69-3.62-3.37-7.25-5.06-10.87
		c-1.68-3.59-3.02-7.34-5.16-11.34c-0.33,0.94-0.56,1.32-0.59,1.72c-0.29,3.91-0.63,7.81-0.78,11.72
		c-0.27,7.03-0.43,14.07-0.63,21.1c-0.02,0.72,0,1.44,0.05,2.16c0.26,3.8,1.09,4.68,4.82,5.26
		C868.6,481.79,869.54,481.46,869.98,482.49z"/>
	<path d="M453.99,483.35c-2.18-4.77-4.35-9.55-6.55-14.32c-2.25-4.86-4.49-9.73-6.8-14.55c-2.27-4.72-4.06-9.66-6.53-14.31
		c-1.18,0.57-0.93,1.48-0.96,2.21c-0.38,9.5-0.75,19.01-1.07,28.51c-0.07,2.15-0.02,4.31,0.05,6.46c0.09,2.58,1.33,4,3.7,4.16
		c0.97,0.07,1.92,0.36,2.88,0.55c-0.01,0.17-0.01,0.33-0.02,0.5c-0.4,0.14-0.8,0.37-1.2,0.4c-5.28,0.32-14.34,0.03-15.73-0.5
		c0.43-1.02,1.41-0.96,2.18-1.04c2.5-0.27,3.93-1.63,4.31-4.08c0.28-1.81,0.56-3.63,0.7-5.46c0.42-5.34,0.8-10.68,1.13-16.02
		c0.35-5.66,0.63-11.33,0.91-17c0.05-1.11,0.05-2.25-0.09-3.35c-0.27-2.13-1.45-3.49-3.61-3.93c-1-0.2-2-0.45-3.3-0.75
		c0.44-0.43,0.67-0.87,0.91-0.87c3.89-0.04,7.79-0.03,11.59-0.03c3.29,12.29,10.01,22.72,15.11,33.88c1.06,2.33,2.27,4.59,3.43,6.86
		c0.35,0.69,0.78,1.35,1.21,2.09c1.2-0.41,1.47-1.4,1.87-2.2c3.16-6.28,6.3-12.58,9.42-18.88c2.24-4.51,4.49-9.02,6.62-13.58
		c0.98-2.09,1.71-4.3,2.47-6.48c0.34-0.98,0.66-1.75,1.91-1.73c3.28,0.03,6.56-0.02,9.83,0c0.41,0,0.81,0.27,1.21,0.42
		c0.01,0.17,0.01,0.34,0.02,0.52c-0.72,0.15-1.44,0.29-2.16,0.44c-3.83,0.76-4.86,1.71-4.96,5.53c-0.14,5.27-0.09,10.55,0.06,15.82
		c0.22,8.15,0.55,16.3,0.93,24.44c0.14,3.02,1.03,3.86,4,4.42c0.82,0.16,1.64,0.34,3,0.63c-0.79,0.49-1.07,0.83-1.36,0.83
		c-5.84,0.03-11.67,0.03-17.51,0.01c-0.34,0-0.67-0.25-1.04-0.89c0.71-0.18,1.41-0.44,2.13-0.52c3.08-0.32,4.41-1.33,4.39-5.3
		c-0.05-9.28-0.08-18.56-0.11-27.83c-0.01-2.16,0-4.32-0.05-6.48c-0.01-0.44-0.22-0.88-0.46-1.77c-0.59,0.79-1.02,1.2-1.27,1.71
		c-6.53,13.17-13.05,26.36-19.57,39.54c-0.34,0.68-0.69,1.35-1.04,2.03C454.39,483.43,454.19,483.39,453.99,483.35z"/>
	<path d="M221.46,482.02c0.8-0.21,1.59-0.47,2.41-0.63c2.88-0.57,3.96-1.7,4.17-4.67c0.11-1.59,0.09-3.2,0.09-4.79
		c-0.01-11.35-0.02-22.7-0.04-34.05c0-0.64,0-1.28-0.09-1.91c-0.32-2.31-1.3-3.33-3.57-3.91c-0.71-0.18-1.39-0.46-2.08-0.7
		c0.02-0.18,0.04-0.35,0.06-0.53c0.49-0.16,0.97-0.42,1.46-0.45c2.79-0.17,5.58-0.38,8.37-0.4c5.99-0.04,11.99-0.17,17.97,0.09
		c5.73,0.25,11.21,1.67,16.04,4.96c6.7,4.56,9.94,11.06,10.4,19.02c0.39,6.68-1.16,12.85-5.24,18.26
		c-4.69,6.22-11.13,9.42-18.67,10.61c-5.39,0.85-10.81,0.59-16.24,0.25c-4.14-0.26-8.3-0.14-12.46-0.19
		c-0.83-0.01-1.66-0.07-2.5-0.11C221.53,482.58,221.5,482.3,221.46,482.02z M234.06,454.07c0,4.71-0.04,9.43,0.02,14.14
		c0.02,1.99,0.15,3.99,0.38,5.97c0.46,4.07,2.81,6.43,6.86,7.18c3.35,0.62,6.68,0.53,10-0.05c7.38-1.3,12.79-5.19,15.64-12.25
		c2.56-6.32,3.12-12.86,1.64-19.5c-1.37-6.18-4.53-11.25-10.17-14.44c-6.79-3.83-14.11-4.2-21.61-2.98
		c-1.39,0.23-2.32,1.01-2.41,2.54c-0.1,1.51-0.31,3.02-0.32,4.53C234.04,444.16,234.06,449.12,234.06,454.07z"/>
	<path d="M744.48,430.62c1.38-0.19,2.76-0.53,4.14-0.54c7.99-0.06,15.98-0.25,23.96,0.01c5.38,0.17,10.56,1.62,15.19,4.59
		c6.51,4.17,10.01,10.26,10.82,17.79c0.77,7.22-0.68,14-5.19,19.91c-4.72,6.19-11.16,9.37-18.71,10.55
		c-5.4,0.84-10.81,0.56-16.24,0.23c-4.14-0.25-8.3-0.12-12.46-0.18c-0.82-0.01-1.63-0.1-2.71-0.17c0.73-1.29,1.66-1.25,2.47-1.4
		c3.09-0.6,4.12-1.68,4.32-4.78c0.1-1.51,0.08-3.04,0.08-4.55c-0.01-11.43-0.02-22.86-0.04-34.29c0-0.72-0.01-1.45-0.14-2.15
		c-0.35-1.9-1.37-3.19-3.37-3.57c-0.74-0.14-1.45-0.41-2.17-0.62C744.45,431.17,744.46,430.89,744.48,430.62z M756.12,453.94
		c-0.01,0-0.02,0-0.03,0c0,2.32-0.04,4.63,0.01,6.95c0.09,4.39,0.08,8.79,0.41,13.16c0.32,4.24,2.76,6.59,6.94,7.33
		c3.1,0.55,6.19,0.49,9.29,0.02c7.71-1.17,13.33-5.09,16.29-12.43c2.52-6.24,3.11-12.73,1.63-19.27
		c-2.07-9.17-7.72-14.97-16.95-17.23c-3.86-0.95-7.77-1.15-11.65-0.78c-5.44,0.52-5.76,0.62-5.9,6.2
		C756.01,443.23,756.12,448.58,756.12,453.94z"/>
	<path d="M673.99,542.87c-0.99-1.63-0.7-3.4-0.59-5.08c0.24-3.62,1.51-6.91,4.21-9.4c2.22-2.05,4.58-3.99,7.05-5.73
		c3.33-2.34,6.76-4.55,10.26-6.63c3.71-2.21,3.87-5.62,3.28-9.44c-0.07-0.48-0.73-1.02-1.25-1.24c-0.55-0.24-1.25-0.2-1.88-0.2
		c-4.07,0-8.15,0.02-12.22,0.04c-0.32,0-0.64,0-0.96,0.03c-4.42,0.49-5.62,0.71-6.41,5.46c-0.07,0.43-0.29,0.84-0.56,1.6
		c-0.38-0.6-0.72-0.88-0.72-1.17c-0.03-5.99-0.03-11.99-0.01-17.98c0-0.28,0.2-0.55,0.51-1.33c0.38,0.85,0.65,1.26,0.74,1.7
		c0.97,4.95,1.78,5.66,6.85,5.66c12.14,0.02,24.29,0.01,36.43,0c0.8,0,1.6,0.01,2.39-0.08c2.6-0.31,3.63-1.34,4.02-3.95
		c0.12-0.81-0.14-1.81,1.21-2.22c0.17,0.55,0.45,1.04,0.46,1.53c0.15,7.43,0.39,14.85,0.31,22.28c-0.02,2.17-0.74,4.43-1.55,6.48
		c-3.48,8.8-13.16,9.29-18.57,5.76c-2.48-1.62-4.24-3.84-5.61-6.43c-1.07-2.03-1.45-2.2-3.29-1.09c-5.8,3.54-11.59,7.09-16.79,11.5
		c-0.85,0.72-1.66,1.5-2.47,2.27C676.63,537.34,674.69,539.64,673.99,542.87z M712.68,505.13c-2.95,0-5.91-0.03-8.86,0.01
		c-3.14,0.04-3.46,0.36-3.5,3.4c-0.02,1.84-0.06,3.68,0.03,5.51c0.25,4.89,3.07,8.48,7.85,9.62c1.98,0.47,4.11,0.51,6.16,0.42
		c4.82-0.23,8.76-3.37,10.35-7.95c0.85-2.46,1.01-4.99,0.85-7.56c-0.17-2.68-0.86-3.37-3.55-3.42
		C718.91,505.09,715.8,505.13,712.68,505.13z"/>
	<path d="M956.52,484.09c-8.03-0.03-15.11-2.46-20.77-8.32c-4.57-4.73-6.93-10.44-7.27-17.02c-0.4-7.75,1.56-14.74,6.73-20.64
		c4.61-5.27,10.51-8.16,17.43-9.13c5.09-0.71,10.06-0.28,14.87,1.43c9.84,3.51,15.13,10.81,16.85,20.87
		c1.12,6.58,0.24,12.97-3.08,18.79C975.84,479.62,967.38,484.04,956.52,484.09z M935.65,454.29c0.26,2.46,0.37,4.95,0.82,7.37
		c0.97,5.27,2.95,10.12,6.56,14.18c6.69,7.54,18.47,8.72,26.26,2.62c3.96-3.1,6.09-7.32,7.23-12.11c1.11-4.65,1.12-9.35,0.38-14.05
		c-0.81-5.19-2.47-10.05-5.68-14.33c-7.98-10.66-26.49-10.22-32.89,3.49C936.44,445.53,935.74,449.83,935.65,454.29z"/>
	<path d="M313.14,484.09c-8.03-0.03-15.11-2.43-20.78-8.29c-4.57-4.72-6.96-10.43-7.3-17c-0.39-7.39,1.36-14.12,6.09-19.91
		c4.72-5.78,10.89-8.92,18.27-9.91c5.02-0.68,9.9-0.23,14.63,1.44c9.85,3.48,15.15,10.79,16.88,20.84
		c1.13,6.58,0.25,12.97-3.06,18.8C332.45,479.59,324,484.02,313.14,484.09z M292.23,454.3c0.26,2.46,0.37,4.95,0.82,7.37
		c0.97,5.27,2.95,10.12,6.56,14.18c6.69,7.54,18.47,8.72,26.26,2.62c3.96-3.1,6.09-7.32,7.23-12.11c1.11-4.65,1.12-9.35,0.38-14.05
		c-0.81-5.19-2.47-10.05-5.68-14.33c-7.98-10.65-26.49-10.21-32.89,3.49C293.02,445.53,292.32,449.83,292.23,454.3z"/>
	<path d="M728.32,457.8c0.09,5.75-1.68,12.01-6.21,17.3c-4.47,5.22-10.26,7.96-17.01,8.86c-7.16,0.96-13.87-0.28-19.91-4.3
		c-6.99-4.65-10.91-11.25-11.94-19.59c-0.78-6.28,0.06-12.32,3.01-17.91c4.66-8.84,12.12-13.54,22.09-14.17
		c7.38-0.47,14.13,1.33,19.89,6.1C725.3,439.93,728.41,447.6,728.32,457.8z M702.67,435.43c-1.2,0-2.4-0.1-3.59,0.02
		c-6.48,0.66-12.5,2.56-17.57,6.86c-6.84,5.81-8.31,15.61-5.11,22.75c2.77,6.18,7.9,9.46,14.28,10.97
		c4.48,1.07,9.02,1.15,13.57,0.47c5.61-0.84,10.86-2.53,15.37-6.17c10.33-8.34,9.64-26.86-5.01-32.95
		C710.8,435.8,706.79,435.26,702.67,435.43z"/>
	<path d="M593.94,483.98c-3.23-3.71-6.46-7.42-9.7-11.12c-3.21-3.67-6.43-7.34-9.65-11c-3.27-3.73-6.52-7.47-9.81-11.18
		c-3.21-3.61-6.12-7.5-9.96-11.39c-0.32,1.55-0.69,2.51-0.69,3.47c0.06,9.75,0.16,19.51,0.32,29.26c0.03,1.91,0.25,3.83,0.57,5.71
		c0.41,2.43,1.33,3.21,3.79,3.63c1.2,0.21,2.4,0.44,3.85,0.7c-0.43,0.51-0.57,0.82-0.72,0.82c-5.67,0.02-11.34,0.01-17.01-0.03
		c-0.14,0-0.28-0.32-0.67-0.8c1.1-0.25,1.98-0.48,2.87-0.66c2.72-0.55,3.52-1.34,3.8-4.13c0.26-2.54,0.48-5.1,0.5-7.65
		c0.06-10.08,0.05-20.16,0.03-30.24c0-1.11-0.11-2.24-0.37-3.31c-0.58-2.4-2.25-3.79-4.58-4.43c-1.12-0.3-2.26-0.53-3.91-0.92
		c0.77-0.47,1.05-0.8,1.33-0.8c3.6-0.02,7.2-0.03,10.79,0.05c0.54,0.01,1.28,0.38,1.58,0.82c7.11,10.63,16.23,19.55,24.53,29.16
		c2.77,3.21,5.69,6.28,8.55,9.41c0.52,0.56,1.11,1.05,2.1,1.98c0.27-1.4,0.6-2.29,0.59-3.16c-0.09-9.59-0.22-19.19-0.4-28.78
		c-0.03-1.43-0.36-2.85-0.6-4.27c-0.34-2.07-1.57-3.23-3.65-3.54c-1.21-0.18-2.41-0.46-3.62-0.69c0-0.16-0.01-0.33-0.01-0.49
		c0.3-0.17,0.59-0.5,0.89-0.5c5.36-0.03,10.71-0.03,16.07-0.01c0.33,0,0.65,0.26,1.14,0.48c-0.91,1.04-2.02,0.99-2.97,1.17
		c-2.28,0.45-3.53,1.77-3.66,4.07c-0.21,3.67-0.51,7.34-0.52,11c-0.05,11.52,0.01,23.04,0.02,34.56c0,0.84-0.07,1.68-0.1,2.52
		C594.43,483.81,594.18,483.9,593.94,483.98z"/>
	<path d="M156.25,430.22c0.58-0.11,1.14-0.31,1.71-0.31c3.12-0.01,6.24,0.04,9.35,0.02c0.96-0.01,1.67,0.25,2.22,1.09
		c4.06,6.37,9.16,11.9,14.16,17.51c6.12,6.87,12.27,13.7,18.43,20.53c0.62,0.68,1.34,1.27,2.42,2.28c0.24-1.27,0.49-2.01,0.49-2.74
		c0-8.72,0.02-17.44-0.11-26.15c-0.04-2.46-0.52-4.92-0.85-7.37c-0.26-2-1.49-3.1-3.44-3.46c-1.21-0.22-2.41-0.48-3.61-0.72
		c0-0.16,0-0.33-0.01-0.49c0.3-0.17,0.58-0.45,0.9-0.5c1.98-0.3,15.66,0.1,16.87,0.54c-0.48,0.3-0.8,0.59-1.17,0.71
		c-0.84,0.26-1.71,0.41-2.55,0.66c-1.42,0.42-2.38,1.28-2.55,2.83c-0.28,2.62-0.78,5.23-0.8,7.85c-0.05,13.2,0.03,26.39,0.05,39.59
		c0,0.58-0.12,1.17-0.26,2.38c-3.8-4.01-6.84-7.88-10.12-11.53c-3.26-3.63-6.45-7.32-9.68-10.98c-3.27-3.72-6.57-7.43-9.81-11.17
		c-3.18-3.66-6.31-7.37-9.45-11.05c-1.31,0.65-1.16,1.6-1.18,2.42c-0.05,2.24-0.06,4.48-0.06,6.72c0.01,7.04-0.03,14.08,0.09,21.11
		c0.05,2.62,0.35,5.26,0.79,7.85c0.42,2.47,1.34,3.13,3.85,3.53c1.12,0.18,2.23,0.44,3.35,0.66c-0.01,0.17-0.01,0.35-0.02,0.52
		c-0.39,0.14-0.78,0.39-1.18,0.42c-4.99,0.33-15.12,0.01-16.43-0.54c0.58-1.03,1.66-0.82,2.51-1.02c2.63-0.6,3.34-1.07,3.62-3.7
		c0.42-3.89,0.72-7.8,0.77-11.71c0.11-8.64,0.04-17.28,0.03-25.91c0-0.64-0.01-1.28-0.07-1.92c-0.42-4.08-1.93-5.78-5.92-6.77
		c-0.75-0.19-1.49-0.45-2.22-0.69C156.34,430.71,156.34,430.58,156.25,430.22z"/>
	<path d="M497.69,430.75c0.79-1.17,1.73-0.85,2.53-0.85c9.91,0.01,19.82,0.04,29.73,0.06c1.02,0,2.04,0,2.94,0
		c1,2.77,1.53,8.29,0.97,10.24c-0.39-0.29-0.86-0.47-1.02-0.8c-0.42-0.86-0.69-1.79-1.04-2.68c-1.03-2.62-3.02-4.29-5.73-4.52
		c-4.53-0.37-9.09-0.42-13.64-0.46c-1.72-0.01-2.19,0.62-2.42,2.36c-0.05,0.39-0.06,0.8-0.06,1.2c-0.01,5.2-0.03,10.39,0,15.59
		c0.02,2.84,0.54,3.42,3.36,3.41c3.35,0,6.71-0.15,10.05-0.34c2.16-0.13,3.04-1.05,3.57-3.22c0.29-1.17,0.09-2.54,1.44-3.56
		c0.26,0.51,0.59,0.88,0.6,1.27c0.04,1.03-0.09,2.07-0.1,3.11c-0.01,2.55-0.01,5.1,0.01,7.66c0.01,1.04,0.12,2.08,0.07,3.11
		c-0.01,0.29-0.42,0.75-0.67,0.77c-0.26,0.02-0.68-0.36-0.81-0.65c-0.25-0.58-0.36-1.22-0.51-1.84c-0.77-3.08-1.83-3.99-4.99-4.07
		c-3.19-0.08-6.38-0.19-9.57-0.09c-1.93,0.06-2.42,0.59-2.41,2.53c0.02,5.43,0.06,10.87,0.35,16.29c0.18,3.4,1.44,4.69,4.78,5.3
		c1.87,0.35,3.81,0.39,5.72,0.41c2.63,0.02,5.27-0.02,7.9-0.2c2.51-0.17,4.6-1.29,6.04-3.42c0.81-1.19,1.57-2.41,2.35-3.62
		c0.42-0.65,0.83-1.32,1.51-2.41c0.39,0.81,0.84,1.29,0.75,1.62c-0.87,2.99-1.83,5.95-2.79,8.91c-0.33,1.02-1.18,1.18-2.12,1.16
		c-2.72-0.04-5.43-0.08-8.15-0.08c-9.19,0-18.38,0.02-27.57,0.03c-0.75,0-1.5-0.08-2.25-0.12c-0.03-0.16-0.06-0.32-0.09-0.48
		c0.34-0.21,0.65-0.5,1.02-0.61c0.61-0.18,1.25-0.24,1.88-0.34c3.18-0.49,4.32-1.62,4.57-4.8c0.15-1.91,0.12-3.84,0.12-5.75
		c0-10.95-0.02-21.91-0.04-32.86c0-0.56,0-1.12-0.04-1.68c-0.21-3.11-1.16-4.23-4.17-4.97C499.13,431.2,498.49,430.99,497.69,430.75
		z"/>
	<path d="M843.68,439.99c-1.25,0.21-1.41-0.49-1.55-1.09c-1.22-4.98-4.63-7.01-9.49-7.08c-3.44-0.05-6.87-0.15-10.31-0.1
		c-2.21,0.03-2.76,0.64-2.85,2.95c-0.09,2.24-0.04,4.48-0.04,6.72c0,3.2-0.03,6.4,0.01,9.59c0.04,2.73,0.54,3.33,3.2,3.33
		c3.43,0,6.87-0.14,10.29-0.34c2.04-0.12,2.95-1.04,3.46-3.06c0.3-1.19,0.59-2.39,1.02-4.1c0.6,0.82,0.91,1.13,1.06,1.5
		c0.12,0.27,0.04,0.63,0.04,0.95c0,4.07,0.01,8.13-0.01,12.2c0,0.58-0.18,1.16-0.34,2.07c-0.59-0.46-0.99-0.62-1.13-0.91
		c-0.26-0.57-0.39-1.21-0.54-1.83c-0.84-3.36-1.81-4.15-5.34-4.25c-2.79-0.08-5.59-0.27-8.38-0.19c-2.93,0.09-3.35,0.56-3.32,3.44
		c0.05,5.19,0.1,10.39,0.39,15.57c0.18,3.28,1.42,4.58,4.62,5.18c1.95,0.37,3.96,0.44,5.95,0.46c2.63,0.03,5.27-0.03,7.89-0.21
		c2.52-0.17,4.58-1.35,6.01-3.47c0.85-1.26,1.64-2.55,2.46-3.83c0.37-0.58,0.76-1.15,1.45-2.18c0.34,0.89,0.74,1.38,0.63,1.73
		c-0.85,2.91-1.78,5.8-2.7,8.69c-0.45,1.41-1.61,1.31-2.75,1.3c-5.11-0.04-10.23-0.08-15.34-0.09c-6.63,0-13.27,0.04-19.9,0.04
		c-0.74,0-1.48-0.1-2.5-0.18c0.88-1.46,2.07-1.15,2.98-1.32c3.44-0.62,4.55-1.72,4.75-5.18c0.11-1.91,0.09-3.84,0.09-5.75
		c-0.01-10.79-0.02-21.59-0.04-32.38c0-0.32,0-0.64-0.01-0.96c-0.09-4.02-0.92-5.06-4.74-5.98c-0.44-0.11-0.87-0.26-1.91-0.57
		c0.94-0.41,1.35-0.75,1.78-0.76c1.6-0.04,3.2,0.06,4.79,0.06c8.95,0,17.9,0,26.85-0.01c0.71,0,1.42,0,2.32,0
		C843.45,433.36,843.68,436.67,843.68,439.99z"/>
	<path d="M151.68,471.6c1.02,1.08,0.72,1.86,0.48,2.6c-0.69,2.21-1.35,4.43-2.12,6.62c-0.78,2.24-0.84,2.22-3.31,2.21
		c-10.15-0.03-20.31-0.06-30.46-0.08c-1.76,0-3.52,0.07-5.28,0.05c-0.57-0.01-1.13-0.18-1.96-0.33c0.99-1.27,2.14-1.01,3.08-1.17
		c3.53-0.62,4.28-1.27,4.78-4.86c0.22-1.58,0.28-3.19,0.28-4.78c0.01-11.12,0-22.24-0.05-33.36c0-1.19-0.2-2.39-0.38-3.57
		c-0.29-1.86-1.37-2.99-3.24-3.39c-0.95-0.2-1.88-0.51-2.82-0.77c0.01-0.19,0.02-0.38,0.04-0.56c0.57-0.11,1.14-0.31,1.7-0.31
		c10.63,0,21.27,0.03,31.9,0.06c1.8,0.01,2.11,0.26,2.3,2c0.23,2.14,0.43,4.29,0.57,6.44c0.04,0.55-0.17,1.12-0.27,1.68
		c-0.2,0.03-0.4,0.06-0.61,0.09c-0.3-0.68-0.66-1.34-0.89-2.04c-1.24-3.87-3.78-6-7.91-6.11c-3.75-0.1-7.5-0.28-11.26-0.3
		c-2.61-0.01-3.12,0.56-3.14,3.09c-0.03,5.52-0.03,11.04,0,16.56c0.01,2.36,0.44,2.93,2.75,2.93c3.59,0.01,7.19-0.15,10.78-0.35
		c1.67-0.09,2.79-1.03,3.19-2.75c0.3-1.27,0.68-2.52,1.08-3.99c1,1.2,0.99,1.2,0.93,5.38c-0.03,1.76,0.07,3.52-0.04,5.28
		c-0.11,1.75,0.65,3.59-0.52,5.6c-0.43-0.67-0.8-1.07-0.96-1.54c-0.26-0.75-0.38-1.55-0.58-2.32c-0.46-1.75-1.68-2.83-3.4-2.94
		c-3.58-0.22-7.18-0.32-10.77-0.24c-2.12,0.05-2.45,0.55-2.46,2.69c-0.03,4.88,0.01,9.76,0.02,14.64c0,0.4,0.03,0.8,0.07,1.2
		c0.46,3.7,1.67,5.19,5.33,5.71c4.6,0.65,9.25,0.48,13.86,0.02c2.45-0.24,4.32-1.58,5.66-3.63c0.79-1.2,1.52-2.44,2.31-3.65
		C150.75,472.84,151.16,472.31,151.68,471.6z"/>
	<path d="M1199.63,442.55c-0.24-0.4-0.61-0.83-0.76-1.32c-1.88-6.36-6.41-9.59-12.7-10.44c-4.13-0.56-8.29-0.36-12.31,1.05
		c-6.91,2.43-11.49,7.17-13.55,14.14c-2.21,7.51-1.98,15.02,1.1,22.29c5.13,12.12,17.84,15.68,27.06,13.44
		c4.66-1.13,8.15-3.93,10.62-8.01c0.45-0.75,0.77-1.59,1.29-2.29c0.26-0.36,0.82-0.5,1.73-1.01c-0.55,4.06-1.57,7.37-3.37,10.41
		c-0.34,0.58-1.29,0.89-2.02,1.14c-6.48,2.24-13.17,2.52-19.89,1.83c-4.97-0.51-9.7-2.04-13.86-4.93
		c-7.18-4.98-10.98-11.83-11.36-20.59c-0.36-8.28,2.16-15.45,8.18-21.22c4.15-3.97,9.23-6.27,14.8-7.46
		c7.92-1.7,15.72-0.71,23.49,1.08c1.17,0.27,1.69,0.87,1.76,2.15c0.15,2.79,0.48,5.57,0.78,8.35
		C1200.7,441.86,1200.7,442.44,1199.63,442.55z"/>
	<path d="M1043.15,470.76c0.08,0.6,0.29,1.09,0.17,1.48c-0.83,2.58-1.72,5.14-2.6,7.7c-0.37,1.09-1.19,1.61-2.25,1.94
		c-8.76,2.71-17.63,3.2-26.42,0.52c-9.96-3.03-16.53-9.66-18.56-20.01c-2.96-15.07,5.64-28.38,20.55-32.35
		c5.96-1.59,11.99-1.71,18.05-0.78c2.9,0.44,5.77,1.09,8.77,1.66c0.53,3.97,1.1,7.68,1.03,11.97c-0.76-0.59-1.1-0.83-1.4-1.11
		c-0.1-0.09-0.09-0.3-0.14-0.45c-2.05-7.18-8.06-10.69-15.5-10.73c-2.89-0.02-5.73,0.1-8.53,0.94c-7.3,2.18-12.18,6.9-14.48,14.1
		c-2.45,7.65-2.16,15.33,1.03,22.73c5.29,12.29,18.04,15.6,27.11,13.34c5-1.24,8.62-4.35,11.08-8.87
		C1041.47,472.06,1041.54,470.89,1043.15,470.76z"/>
	<path d="M675.11,383.71c0.16,0.72,0.33,1.43,0.47,2.15c0.74,3.72,1.87,4.77,5.66,4.78c12.95,0.04,25.91,0.02,38.86,0
		c0.79,0,1.59-0.14,2.37-0.29c1.77-0.35,2.75-1.49,3.14-3.21c0.2-0.88,0.45-1.75,0.68-2.62c0.19,0.01,0.38,0.03,0.58,0.04
		c0.13,0.47,0.37,0.94,0.37,1.41c0.01,10.48-0.01,20.96-0.04,31.44c0,1.65-0.24,2.01-1.65,2.07c-2.55,0.1-5.11,0.07-7.67,0.05
		c-0.25,0-0.51-0.26-1.24-0.65c1.01-0.41,1.6-0.71,2.22-0.9c4.34-1.32,6.15-3.64,6.3-8.19c0.1-3.04,0.28-6.07,0.24-9.11
		c-0.04-3.62-0.48-4.01-4.02-4.03c-5.28-0.03-10.55-0.01-15.83-0.01c-0.24,0-0.48,0-0.72,0.01c-2.24,0.13-2.82,0.61-2.88,2.92
		c-0.07,2.88,0.04,5.76,0.1,8.63c0.01,0.72,0.13,1.43,0.18,2.15c0.21,2.72,0.93,3.58,3.66,4.27c0.7,0.18,1.42,0.28,2.08,0.54
		c0.37,0.15,0.64,0.55,1,0.88c-0.32,0.28-0.5,0.56-0.67,0.56c-4.79,0.04-9.58,0.06-14.36,0.05c-0.27,0-0.55-0.23-0.77-0.32
		c-0.16-1.21,0.74-1.2,1.36-1.41c4.9-1.67,5.09-1.89,5.23-7.13c0.08-2.87,0.18-5.75,0.06-8.62c-0.08-1.98-0.58-2.48-2.48-2.47
		c-5.83,0.02-11.66,0.07-17.49,0.33c-2.81,0.13-3.57,1.07-4.1,3.79c-0.24,1.21-0.41,2.43-0.62,3.64c-0.17,0.02-0.34,0.03-0.51,0.05
		c-0.16-0.44-0.47-0.89-0.47-1.33c-0.03-6.08-0.03-12.16,0-18.24c0-0.41,0.27-0.82,0.42-1.22
		C674.76,383.73,674.93,383.72,675.11,383.71z"/>
	<path d="M1238.97,482.57c-0.19,0.13-0.37,0.36-0.56,0.36c-6.63,0.03-13.27,0.05-19.9,0.05c-0.27,0-0.55-0.2-0.9-0.34
		c0.38-1.16,1.34-0.89,2.02-1.02c4.64-0.87,5.42-1.75,5.47-6.51c0.04-3.2-0.04-6.4,0.03-9.6c0.05-2.46-0.49-4.77-1.59-6.94
		c-3.7-7.27-7.42-14.52-11.16-21.77c-0.44-0.85-0.97-1.66-1.51-2.45c-1.03-1.51-2.36-2.56-4.26-2.82c-0.83-0.11-1.63-0.4-2.97-0.74
		c0.8-0.52,1.08-0.86,1.37-0.86c5.44-0.03,10.87-0.03,16.31-0.01c0.28,0,0.55,0.21,0.92,0.35c-0.45,1.19-1.5,0.94-2.23,1.17
		c-2.34,0.71-2.76,1.2-1.76,3.37c2.57,5.59,5.29,11.11,7.98,16.64c0.66,1.37,1.37,2.71,2.1,4.04c0.33,0.6,0.77,1.14,1.34,1.97
		c0.59-0.8,1.07-1.3,1.39-1.9c3.63-6.67,7.23-13.35,10.84-20.03c0.04-0.07,0.07-0.14,0.1-0.22c1.31-2.78,1.12-3.21-1.8-3.96
		c-0.66-0.17-1.32-0.36-2.48-0.68c0.81-0.42,1.16-0.76,1.52-0.76c4.4-0.04,8.79-0.03,13.19-0.02c0.27,0,0.55,0.2,1.39,0.54
		c-0.99,0.42-1.48,0.75-2.01,0.84c-2.7,0.47-4.66,2.03-6.16,4.21c-1.09,1.58-2.13,3.19-3.09,4.85c-2.98,5.11-5.9,10.26-8.89,15.36
		c-1.74,2.97-2.67,6.14-2.58,9.59c0.11,3.99,0.09,7.99,0.42,11.97c0.25,2.92,1.33,3.73,4.31,4.16c1.06,0.16,2.12,0.36,3.18,0.54
		C1238.99,482.17,1238.98,482.37,1238.97,482.57z"/>
	<path d="M641.95,482.37c-1.72,0.64-15.38,0.97-20.88,0.63c-0.42-0.03-0.83-0.25-1.28-0.4c0.5-1.16,1.45-0.86,2.16-0.94
		c5.42-0.61,5.59-1.97,6.02-6.32c0.16-1.59,0.16-3.19,0.16-4.79c0.01-11.52,0.01-23.04,0-34.56c0-4.05-0.27-4.35-4.39-4.3
		c-2.55,0.03-5.1,0.25-7.66,0.33c-3.94,0.12-6.55,2.17-8.31,5.55c-0.37,0.72-0.5,1.71-1.67,1.95c-0.93-1.55,0.25-2.78,0.48-4.09
		c0.23-1.33,0.65-2.64,0.98-3.95c0.33-1.35,0.65-2.71,1.11-4.65c2.04,3.23,4.77,3.17,7.5,3.17c10.8-0.01,21.59,0,32.39,0
		c4.5,0,4.5-0.01,7.9-2.17c-0.29,3.86-0.57,7.62-0.89,11.38c-0.02,0.22-0.41,0.4-0.63,0.6c-1.15-0.6-0.99-1.73-1.17-2.57
		c-0.54-2.58-2.04-4.22-4.56-4.64c-2.82-0.47-5.69-0.68-8.55-0.89c-1.51-0.11-3.04-0.06-4.55,0.07c-1.56,0.14-1.88,0.57-2,2.14
		c-0.04,0.56-0.03,1.12-0.03,1.68c0.01,13.04,0.02,26.08,0.05,39.12c0,1.11,0.07,2.24,0.26,3.34c0.33,1.98,1.6,3.04,3.57,3.32
		C639.17,481.54,640.45,481.53,641.95,482.37z"/>
	<path class="st0" d="M441.91,264.06c0-8.07-0.02-16.15,0.01-24.22c0.01-1.67,0.16-3.35,0.28-5.02c0.14-1.97,1.18-3.32,3.07-3.82
		c1.38-0.37,2.81-0.61,4.23-0.72c6.72-0.52,13.42-0.42,19.93,1.62c12.19,3.81,19.37,12.22,21.99,24.57
		c1.46,6.91,1.04,13.82-0.81,20.63c-3.06,11.27-11.13,18.35-22.63,19.92c-7,0.96-14.04,0.67-21.05,0.34
		c-3.85-0.18-4.82-0.26-4.8-4.77c0.03-9.51,0.01-19.02,0.01-28.53C442.06,264.06,441.99,264.06,441.91,264.06z"/>
	<path class="st0" d="M673.27,301.99c-0.22,11.83-1.53,22.41-5.69,32.47c-5.25,12.72-13.69,22.46-26.49,28
		c-8,3.46-16.36,4.59-25.07,3.79c-9.37-0.86-17.95-3.69-25.67-9.09c-7.85-5.48-13.63-12.74-18.08-21.13
		c-4.72-8.91-7.57-18.46-9.14-28.39c-0.98-6.25-1.53-12.54-1.32-18.87c0.33-9.8,1.65-19.44,5.39-28.58
		c7.47-18.27,20.79-29.63,40.44-32.33c18.31-2.51,34.34,2.69,46.92,16.79c6.67,7.47,10.95,16.29,13.88,25.78
		c2.58,8.35,4.11,16.91,4.45,25.66C672.99,298.41,673.18,300.72,673.27,301.99z"/>
	<path class="st0" d="M1017.19,247.14c0.65,1.49,1.24,2.6,1.64,3.78c3.82,11.26,7.62,22.52,11.41,33.8
		c1.52,4.54,3.04,9.08,4.48,13.65c1.49,4.7,0.81,5.7-4.05,6.14c-1.19,0.11-2.39,0.09-3.59,0.09c-8.15,0.01-16.29,0.02-24.44-0.01
		c-1.43-0.01-2.88-0.11-4.29-0.33c-1.67-0.27-2.17-1-1.93-2.67c0.1-0.71,0.31-1.41,0.56-2.08c5.72-15.67,11.45-31.33,17.2-46.99
		c0.55-1.49,1.26-2.93,1.94-4.38C1016.24,247.88,1016.56,247.72,1017.19,247.14z"/>
	<path class="st0" d="M1062.22,444.33c0-3.03-0.04-6.07,0.01-9.1c0.05-2.86,0.75-3.63,3.54-3.61c2.22,0.02,4.5,0.04,6.64,0.55
		c5.13,1.21,8.58,5.63,8.79,10.92c0.06,1.59,0.1,3.22-0.16,4.77c-0.88,5.28-4.43,8.44-10.02,8.93c-2.06,0.18-4.15,0.12-6.22,0.03
		c-2-0.09-2.49-0.59-2.54-2.68c-0.08-3.27-0.02-6.54-0.02-9.82C1062.23,444.33,1062.22,444.33,1062.22,444.33z"/>
	<path class="st0" d="M1114.59,459.26c-0.17-2.65,5.91-19.31,7.67-21.13c0.37,0.77,0.78,1.43,1.02,2.15
		c1.83,5.44,3.64,10.89,5.41,16.36c0.66,2.05,0.4,2.56-1.61,2.74C1122.96,459.75,1118.82,459.73,1114.59,459.26z"/>
	<path class="st0" d="M234.06,454.07c0-4.95-0.02-9.91,0.02-14.86c0.01-1.51,0.23-3.02,0.32-4.53c0.1-1.53,1.02-2.32,2.41-2.54
		c7.5-1.21,14.82-0.85,21.61,2.98c5.64,3.19,8.8,8.26,10.17,14.44c1.48,6.64,0.92,13.19-1.64,19.5
		c-2.86,7.06-8.27,10.95-15.64,12.25c-3.32,0.58-6.66,0.67-10,0.05c-4.05-0.75-6.39-3.12-6.86-7.18c-0.22-1.98-0.35-3.98-0.38-5.97
		C234.02,463.5,234.06,458.78,234.06,454.07z"/>
	<path class="st0" d="M756.12,453.94c0-5.35-0.11-10.71,0.03-16.06c0.15-5.58,0.46-5.68,5.9-6.2c3.89-0.37,7.79-0.17,11.65,0.78
		c9.23,2.26,14.87,8.06,16.95,17.23c1.48,6.55,0.89,13.03-1.63,19.27c-2.96,7.34-8.58,11.26-16.29,12.43
		c-3.11,0.47-6.19,0.53-9.29-0.02c-4.18-0.74-6.63-3.09-6.94-7.33c-0.33-4.37-0.31-8.77-0.41-13.16c-0.05-2.32-0.01-4.63-0.01-6.95
		C756.1,453.94,756.11,453.94,756.12,453.94z"/>
	<path class="st0" d="M712.68,505.13c3.11,0,6.23-0.04,9.34,0.01c2.69,0.05,3.38,0.73,3.55,3.42c0.16,2.56,0.01,5.1-0.85,7.56
		c-1.59,4.58-5.53,7.73-10.35,7.95c-2.05,0.1-4.18,0.05-6.16-0.42c-4.78-1.13-7.6-4.72-7.85-9.62c-0.09-1.83-0.05-3.67-0.03-5.51
		c0.03-3.04,0.36-3.36,3.5-3.4C706.78,505.1,709.73,505.13,712.68,505.13z"/>
	<path class="st0" d="M935.65,454.29c0.1-4.47,0.79-8.76,2.69-12.83c6.4-13.7,24.91-14.14,32.89-3.49c3.2,4.28,4.86,9.14,5.68,14.33
		c0.74,4.69,0.73,9.4-0.38,14.05c-1.14,4.79-3.27,9.01-7.23,12.11c-7.8,6.1-19.57,4.92-26.26-2.62c-3.61-4.06-5.59-8.91-6.56-14.18
		C936.02,459.24,935.91,456.75,935.65,454.29z"/>
	<path class="st0" d="M292.23,454.3c0.1-4.47,0.79-8.76,2.69-12.83c6.4-13.7,24.91-14.14,32.89-3.49c3.21,4.28,4.86,9.14,5.68,14.33
		c0.74,4.69,0.73,9.4-0.38,14.05c-1.14,4.79-3.27,9.01-7.23,12.11c-7.8,6.1-19.57,4.92-26.26-2.62c-3.61-4.06-5.59-8.91-6.56-14.18
		C292.6,459.24,292.49,456.75,292.23,454.3z"/>
	<path class="st0" d="M702.67,435.43c4.11-0.18,8.13,0.37,11.95,1.96c14.64,6.09,15.33,24.61,5.01,32.95
		c-4.51,3.64-9.77,5.33-15.37,6.17c-4.55,0.68-9.09,0.59-13.57-0.47c-6.38-1.52-11.51-4.79-14.28-10.97
		c-3.2-7.14-1.73-16.94,5.11-22.75c5.07-4.3,11.09-6.2,17.57-6.86C700.27,435.33,701.48,435.43,702.67,435.43z"/>
</g>
</svg>
