<?xml version="1.0" encoding="utf-8"?>
<!-- Generator: Adobe Illustrator 25.4.1, SVG Export Plug-In . SVG Version: 6.00 Build 0)  -->
<svg version="1.1" xmlns="http://www.w3.org/2000/svg" xmlns:xlink="http://www.w3.org/1999/xlink" x="0px" y="0px"
	 viewBox="0 0 300 87" enable-background="new 0 0 300 87" xml:space="preserve">
<g id="Layer_1" display="none">
	<g display="inline">
		<defs>
			<rect id="SVGID_1_" width="300" height="87"/>
		</defs>
		<clipPath id="SVGID_00000048465633658104453520000007536717066072178832_">
			<use xlink:href="#SVGID_1_"  overflow="visible"/>
		</clipPath>
		<g clip-path="url(#SVGID_00000048465633658104453520000007536717066072178832_)">
			<path fill="#0A5A96" d="M193.3,39.2c0-0.5,0-1.1,0-1.6c0-0.5,0-1,0-1.6v-3.3c0-0.6,0-1.1,0-1.6c0-0.5,0-1,0-1.6
				c0.3,0,0.6,0,0.9,0s0.8,0,1.1,0c0.4,0,0.9,0,1.3,0c0.8,0,1.4,0.1,1.9,0.3c0.5,0.1,0.9,0.5,1.1,0.9c0.3,0.4,0.4,0.9,0.4,1.5
				c0,0.5-0.1,1-0.3,1.5c-0.3,0.5-0.5,0.8-1,1.1c-0.5,0.3-1.1,0.4-2,0.4l0.4-0.5l1.5,1.9c0.3,0.3,0.5,0.6,0.8,1
				c0.3,0.4,0.5,0.6,0.8,1c0.3,0.4,0.5,0.6,0.6,0.9h-1.5c-0.4-0.4-0.6-0.8-1-1.3c-0.4-0.5-0.6-0.8-0.9-1.1l-1.8-2.3l0.8,0.6H194v-1
				h1.9c0.6,0,1-0.1,1.4-0.3c0.4-0.1,0.6-0.4,0.9-0.6c0.1-0.3,0.3-0.8,0.3-1.1s-0.1-0.8-0.3-1c-0.1-0.3-0.3-0.4-0.5-0.5
				c-0.3-0.1-0.5-0.1-0.8-0.3c-0.3,0-0.5,0-0.8,0h-2.9l0.9-0.9c0,0.6,0,1.1,0,1.6s0,1.1,0,1.6v3c0,0.6,0,1.1,0,1.6c0,0.5,0,1,0,1.6
				H193.3z"/>
			<path fill="#0A5A96" d="M205.7,39.3c-0.9,0-1.5-0.1-2-0.5c-0.5-0.3-0.9-0.8-1.1-1.3c-0.3-0.5-0.4-1.1-0.4-1.9
				c0-0.6,0.1-1.3,0.4-1.9c0.3-0.6,0.6-1,1.1-1.3c0.5-0.3,1-0.5,1.8-0.5c0.6,0,1.1,0.1,1.5,0.4c0.4,0.3,0.8,0.5,1,1
				c0.3,0.4,0.4,1,0.4,1.6c0,0.1,0,0.4,0,0.5c0,0.1,0,0.3,0,0.4l-1-0.5c0-0.1,0-0.1,0-0.3c0-0.1,0-0.1,0-0.3c0-0.6-0.1-1.1-0.5-1.5
				c-0.4-0.4-0.8-0.5-1.3-0.5c-0.4,0-0.8,0.1-1.1,0.4c-0.3,0.3-0.5,0.5-0.8,0.9s-0.3,0.8-0.3,1.3v0.1c0,0.5,0.1,1,0.3,1.4
				c0.1,0.4,0.5,0.6,0.9,0.9c0.4,0.3,0.9,0.4,1.4,0.4c0.3,0,0.5,0,0.6,0c0.1,0,0.5-0.1,0.8-0.1c0.3-0.1,0.5-0.1,0.6-0.3v1
				c-0.1,0.1-0.4,0.1-0.6,0.3c-0.3,0.1-0.5,0.1-0.8,0.1C206.2,39.3,206,39.3,205.7,39.3z M202.6,36v-0.8h4.8l0.8,0.3v0.6h-5.5V36z"
				/>
			<path fill="#0A5A96" d="M210,39.2c0-0.5,0-1,0-1.5c0-0.5,0-1,0-1.5v-0.6c0-0.5,0-1,0-1.5c0-0.5,0-1,0-1.6l1-0.1v1.3h0.1
				c0.1-0.3,0.4-0.4,0.5-0.6c0.3-0.3,0.5-0.4,0.8-0.5c0.3-0.1,0.6-0.3,1-0.3c0.5,0,1,0.1,1.3,0.4c0.3,0.3,0.5,0.6,0.6,1.3h0.1
				c0,0.1,0,0.3,0,0.4c0,0.1,0,0.3,0,0.4c0,0.3,0,0.5,0,0.8s0,0.5,0,0.8c0,0.5,0,1,0,1.5s0,1,0,1.5h-1.1c0-0.5,0-1,0-1.5s0-1,0-1.5
				v-1.3c0-0.5-0.1-1-0.3-1.3c-0.1-0.3-0.5-0.4-1-0.4c-0.3,0-0.5,0.1-0.8,0.3c-0.3,0.1-0.5,0.3-0.6,0.5c-0.3,0.3-0.4,0.4-0.5,0.6
				v1.6c0,0.5,0,1,0,1.5c0,0.5,0,1,0,1.5H210z M218.7,39.2c0-0.5,0-1,0-1.5c0-0.5,0-1,0-1.5v-1.3c0-0.5-0.1-1-0.3-1.3
				c-0.1-0.3-0.5-0.4-1-0.4c-0.3,0-0.5,0-0.8,0.1c-0.3,0.1-0.5,0.3-0.6,0.5c-0.3,0.3-0.4,0.5-0.5,0.8l-0.1-1.1h0.1
				c0.1-0.3,0.4-0.4,0.6-0.6c0.3-0.3,0.5-0.4,0.8-0.5c0.3-0.1,0.6-0.3,1-0.3c0.8,0,1.3,0.3,1.5,0.6c0.3,0.4,0.5,1,0.5,1.8
				c0,0.3,0,0.5,0,0.8s0,0.5,0,0.8c0,0.5,0,1,0,1.5s0,1,0,1.5h-1.3V39.2z"/>
			<path fill="#0A5A96" d="M225.2,39.3c-0.9,0-1.5-0.1-2-0.5c-0.5-0.4-0.9-0.8-1.1-1.3c-0.3-0.5-0.4-1.1-0.4-1.9
				c0-0.6,0.1-1.3,0.4-1.9c0.3-0.5,0.6-1,1.1-1.3c0.5-0.3,1-0.5,1.8-0.5c0.6,0,1.1,0.1,1.5,0.4c0.4,0.3,0.8,0.5,1,1
				c0.3,0.4,0.4,1,0.4,1.6c0,0.1,0,0.4,0,0.5c0,0.1,0,0.3,0,0.4l-1-0.5c0-0.1,0-0.1,0-0.3c0-0.1,0-0.1,0-0.3c0-0.6-0.1-1.1-0.5-1.5
				c-0.4-0.4-0.8-0.5-1.3-0.5c-0.4,0-0.8,0.1-1.1,0.4c-0.3,0.3-0.5,0.5-0.8,0.9c-0.3,0.4-0.3,0.8-0.3,1.3v0.1c0,0.5,0.1,1,0.3,1.4
				c0.1,0.4,0.5,0.6,0.9,0.9c0.4,0.3,0.9,0.4,1.4,0.4c0.3,0,0.5,0,0.6,0c0.1,0,0.5-0.1,0.8-0.1c0.3-0.1,0.5-0.1,0.6-0.3v1
				c-0.1,0.1-0.4,0.1-0.6,0.3c-0.3,0.1-0.5,0.1-0.8,0.1C225.9,39.3,225.5,39.3,225.2,39.3z M222.1,36v-0.8h4.8l0.8,0.3v0.6h-5.5V36z
				"/>
			<path fill="#0A5A96" d="M229.5,39.2c0-0.5,0-1,0-1.5c0-0.5,0-1,0-1.5v-0.6c0-0.5,0-1,0-1.5c0-0.5,0-1,0-1.6l1-0.1v1.3h0.1
				c0.1-0.3,0.4-0.4,0.5-0.6c0.3-0.3,0.5-0.4,0.8-0.5c0.3-0.1,0.6-0.3,1-0.3c0.5,0,1,0.1,1.3,0.4c0.3,0.3,0.5,0.6,0.6,1.3h0.1
				c0,0.1,0,0.3,0,0.4c0,0.1,0,0.3,0,0.4c0,0.3,0,0.5,0,0.8s0,0.5,0,0.8c0,0.5,0,1,0,1.5s0,1,0,1.5h-1c0-0.5,0-1,0-1.5s0-1,0-1.5
				v-1.3c0-0.5-0.1-1-0.3-1.3c-0.1-0.3-0.5-0.4-1-0.4c-0.3,0-0.5,0.1-0.8,0.3c-0.3,0.1-0.5,0.3-0.6,0.5c-0.1,0.3-0.4,0.4-0.5,0.6
				v1.6c0,0.5,0,1,0,1.5c0,0.5,0,1,0,1.5H229.5z M238.2,39.2c0-0.5,0-1,0-1.5c0-0.5,0-1,0-1.5v-1.3c0-0.5-0.1-1-0.3-1.3
				c-0.1-0.3-0.5-0.4-1-0.4c-0.3,0-0.5,0-0.8,0.1c-0.3,0.1-0.5,0.3-0.6,0.5c-0.3,0.3-0.4,0.5-0.5,0.8l-0.1-1.1h0.1
				c0.1-0.3,0.4-0.4,0.6-0.6c0.3-0.3,0.5-0.4,0.8-0.5c0.3-0.1,0.6-0.3,1-0.3c0.8,0,1.3,0.3,1.5,0.6c0.3,0.4,0.5,1,0.5,1.8
				c0,0.3,0,0.5,0,0.8s0,0.5,0,0.8c0,0.5,0,1,0,1.5s0,1,0,1.5h-1.3V39.2z"/>
			<path fill="#0A5A96" d="M245,39.3c-0.4,0-0.6,0-0.9-0.1c-0.3-0.1-0.5-0.3-0.8-0.4c-0.3-0.1-0.4-0.4-0.6-0.6h-0.1l-0.1,0.9h-0.9
				c0-0.5,0-1,0-1.5c0-0.5,0-1,0-1.5v-3.8c0-0.6,0-1.1,0-1.6c0-0.5,0-1.1,0-1.6l1.1-0.1c0,0.5,0,1.1,0,1.6c0,0.5,0,1.1,0,1.8V33h0.1
				c0.1-0.1,0.3-0.4,0.5-0.5c0.3-0.1,0.5-0.3,0.8-0.4c0.3-0.1,0.5-0.1,0.9-0.1c0.6,0,1.1,0.1,1.6,0.5c0.4,0.3,0.8,0.8,1,1.3
				c0.3,0.5,0.4,1.1,0.4,1.9c0,0.6-0.1,1.3-0.4,1.8c-0.3,0.5-0.5,1-1,1.4C246.1,39.2,245.6,39.3,245,39.3z M244.6,38.3
				c0.5,0,0.9-0.1,1.3-0.4c0.3-0.3,0.5-0.5,0.6-1c0.1-0.4,0.3-0.8,0.3-1.3c0-0.5-0.1-0.9-0.3-1.3c-0.1-0.4-0.4-0.8-0.8-0.9
				c-0.3-0.3-0.8-0.4-1.3-0.4c-0.3,0-0.5,0-0.8,0.1s-0.5,0.1-0.6,0.4c-0.3,0.1-0.4,0.4-0.5,0.5v3c0.1,0.3,0.3,0.4,0.5,0.6
				c0.3,0.3,0.4,0.3,0.6,0.4C244,38.3,244.4,38.3,244.6,38.3z"/>
			<path fill="#0A5A96" d="M249.9,39.2c0-0.5,0-1,0-1.5c0-0.5,0-1,0-1.5v-0.6c0-0.5,0-1,0-1.5c0-0.5,0-1,0-1.6l1-0.1v1.4h0.1
				c0.3-0.4,0.4-0.8,0.6-1c0.3-0.3,0.5-0.4,0.8-0.4c0.3-0.1,0.5-0.1,0.8-0.1c0.1,0,0.3,0,0.4,0c0.1,0,0.3,0,0.4,0.1l-0.1,1.1
				c-0.1,0-0.3,0-0.4-0.1c-0.1,0-0.3,0-0.4,0c-0.1,0-0.3,0-0.5,0c-0.1,0-0.4,0.1-0.5,0.3c-0.1,0.1-0.4,0.3-0.5,0.5
				c-0.1,0.3-0.3,0.5-0.4,1v1c0,0.5,0,1,0,1.5s0,1,0,1.5h-1.3V39.2z"/>
			<path fill="#0A5A96" d="M257.1,39.3c-0.4,0-0.8-0.1-1.1-0.3c-0.3-0.1-0.5-0.4-0.8-0.6c-0.1-0.3-0.3-0.6-0.3-1
				c0-0.4,0.1-0.6,0.3-1c0.1-0.4,0.3-0.5,0.5-0.6c0.3-0.1,0.5-0.3,0.8-0.4c0.3-0.1,0.5-0.1,0.8-0.3l2.1-0.4c0-0.5,0-0.8-0.1-1
				c-0.1-0.3-0.4-0.4-0.6-0.5c-0.3-0.1-0.5-0.1-0.9-0.1c-0.1,0-0.4,0-0.5,0c-0.1,0-0.4,0-0.6,0.1c-0.3,0-0.4,0.1-0.6,0.1
				c-0.3,0.1-0.5,0.1-0.8,0.3v-1c0.1-0.1,0.4-0.1,0.5-0.3c0.1-0.1,0.4-0.1,0.6-0.1c0.3,0,0.5-0.1,0.8-0.1c0.3,0,0.5,0,0.8,0
				c0.5,0,1,0.1,1.4,0.3c0.4,0.1,0.6,0.4,0.9,0.8c0.3,0.4,0.3,0.8,0.3,1.4c0,0.3,0,0.5,0,0.8s0,0.6,0,0.9v1c0,0.3,0,0.6,0,1
				c0,0.4,0,0.6,0,1h-1v-1h-0.1c-0.1,0.1-0.4,0.4-0.5,0.5c-0.3,0.1-0.5,0.3-0.8,0.4C257.7,39.3,257.5,39.3,257.1,39.3z M257.5,38.4
				c0.3,0,0.5,0,0.8-0.1c0.3-0.1,0.5-0.3,0.6-0.5c0.3-0.3,0.4-0.5,0.5-0.8v-1.5c-0.1,0-0.1,0.1-0.3,0.1s-0.3,0.1-0.5,0.1
				c-0.3,0-0.6,0.1-1,0.3c-0.3,0-0.5,0.1-0.8,0.3c-0.3,0.1-0.4,0.3-0.5,0.4c-0.1,0.1-0.1,0.4-0.1,0.6c0,0.4,0.1,0.6,0.4,0.9
				C256.8,38.3,257.1,38.4,257.5,38.4z"/>
			<path fill="#0A5A96" d="M262.8,39.2c0-0.5,0-1,0-1.5c0-0.5,0-1,0-1.5v-0.6c0-0.5,0-1,0-1.5c0-0.5,0-1,0-1.6l1-0.1v1.3h0.1
				c0.1-0.3,0.4-0.4,0.6-0.6c0.3-0.3,0.5-0.4,0.8-0.5c0.3-0.1,0.6-0.3,1.1-0.3c0.8,0,1.3,0.3,1.6,0.6c0.4,0.4,0.5,1,0.5,1.9
				c0,0.3,0,0.5,0,0.8c0,0.3,0,0.5,0,0.8c0,0.5,0,1,0,1.5c0,0.5,0,1,0,1.5h-1.1c0-0.5,0-1,0-1.5c0-0.5,0-1,0-1.5v-1.3
				c0-0.5-0.1-1-0.3-1.3c-0.1-0.3-0.5-0.4-1-0.4c-0.3,0-0.6,0-0.9,0.1c-0.3,0.1-0.5,0.3-0.6,0.5c-0.3,0.3-0.4,0.5-0.5,0.8v1.6
				c0,0.5,0,1,0,1.5c0,0.5,0,1,0,1.5h-1.4V39.2z"/>
			<path fill="#0A5A96" d="M273.8,39.3c-0.8,0-1.4-0.1-1.9-0.5c-0.5-0.3-0.9-0.8-1.1-1.3c-0.3-0.5-0.4-1.1-0.4-1.9
				c0-0.8,0.1-1.3,0.4-1.9c0.3-0.5,0.6-1,1.1-1.3c0.5-0.3,1.1-0.5,1.9-0.5c0.3,0,0.5,0,0.8,0.1c0.3,0,0.5,0.1,0.8,0.1
				c0.3,0.1,0.4,0.1,0.6,0.3l-0.1,1c-0.3-0.1-0.5-0.3-0.8-0.4c-0.3-0.1-0.5-0.1-0.6-0.1c-0.3,0-0.4,0-0.5,0c-0.8,0-1.3,0.3-1.6,0.6
				c-0.4,0.5-0.6,1.1-0.6,1.9c0,0.5,0.1,0.9,0.3,1.4c0.1,0.5,0.5,0.8,0.9,0.9c0.4,0.3,0.9,0.4,1.4,0.4c0.3,0,0.4,0,0.6,0
				c0.3,0,0.4-0.1,0.6-0.1c0.3-0.1,0.4-0.1,0.5-0.3l0.1,1c-0.1,0.1-0.4,0.1-0.5,0.3c-0.1,0.1-0.4,0.1-0.6,0.1
				C274.3,39.3,274.1,39.3,273.8,39.3z"/>
			<path fill="#0A5A96" d="M280.9,39.3c-0.9,0-1.5-0.1-2-0.5s-0.9-0.8-1.1-1.3c-0.3-0.5-0.4-1.1-0.4-1.9c0-0.6,0.1-1.3,0.4-1.9
				c0.3-0.5,0.6-1,1.1-1.3c0.5-0.3,1-0.5,1.8-0.5c0.6,0,1.1,0.1,1.5,0.4c0.4,0.3,0.8,0.5,1,1c0.3,0.4,0.4,1,0.4,1.6
				c0,0.1,0,0.4,0,0.5c0,0.1,0,0.3,0,0.4l-1-0.5c0-0.1,0-0.1,0-0.3c0-0.1,0-0.1,0-0.3c0-0.6-0.1-1.1-0.5-1.5
				c-0.4-0.4-0.8-0.5-1.3-0.5c-0.4,0-0.8,0.1-1.1,0.4c-0.3,0.3-0.5,0.5-0.8,0.9c-0.3,0.4-0.3,0.8-0.3,1.3v0.1c0,0.5,0.1,1,0.3,1.4
				c0.1,0.4,0.5,0.6,0.9,0.9c0.4,0.3,0.9,0.4,1.4,0.4c0.3,0,0.5,0,0.6,0c0.3,0,0.5-0.1,0.8-0.1c0.3-0.1,0.5-0.1,0.6-0.3v1
				c-0.1,0.1-0.4,0.1-0.6,0.3c-0.3,0.1-0.5,0.1-0.8,0.1C281.5,39.2,281.1,39.3,280.9,39.3z M277.7,36v-0.8h4.8l0.8,0.3v0.6h-5.5V36z
				"/>
			<path fill="#0A5A96" d="M193.3,54.4c0-0.5,0-1.1,0-1.6c0-0.5,0-1,0-1.6v-3.3c0-0.6,0-1.1,0-1.6c0-0.5,0-1,0-1.6
				c0.3,0,0.6,0,0.9,0s0.8,0,1.1,0c0.4,0,0.9,0,1.3,0c0.8,0,1.4,0.1,1.9,0.3c0.5,0.1,0.9,0.5,1.1,0.9c0.3,0.4,0.4,0.9,0.4,1.5
				c0,0.5-0.1,1-0.3,1.5c-0.3,0.5-0.5,0.8-1,1.1c-0.5,0.3-1.1,0.4-2,0.4l0.4-0.5l1.5,1.9c0.3,0.3,0.5,0.6,0.8,1
				c0.3,0.4,0.5,0.6,0.8,1s0.5,0.6,0.6,0.9h-1.5c-0.4-0.4-0.6-0.8-1-1.3c-0.4-0.5-0.6-0.8-0.9-1.1l-1.8-2.3l0.8,0.6H194v-1h1.9
				c0.6,0,1-0.1,1.4-0.3c0.4-0.1,0.6-0.4,0.9-0.6c0.1-0.3,0.3-0.8,0.3-1.1c0-0.4-0.1-0.8-0.3-1c-0.1-0.3-0.3-0.4-0.5-0.5
				c-0.3-0.1-0.5-0.1-0.8-0.3c-0.3,0-0.5,0-0.8,0h-2.9l0.9-0.9c0,0.6,0,1.1,0,1.6c0,0.5,0,1.1,0,1.6v3c0,0.6,0,1.1,0,1.6
				c0,0.5,0,1,0,1.6H193.3z"/>
			<path fill="#0A5A96" d="M205.7,54.5c-0.9,0-1.5-0.1-2-0.5c-0.5-0.3-0.9-0.8-1.1-1.3c-0.3-0.5-0.4-1.1-0.4-1.9
				c0-0.6,0.1-1.3,0.4-1.9c0.3-0.6,0.6-1,1.1-1.3s1-0.5,1.8-0.5c0.6,0,1.1,0.1,1.5,0.4c0.4,0.3,0.8,0.5,1,1c0.3,0.4,0.4,1,0.4,1.6
				c0,0.1,0,0.4,0,0.5c0,0.1,0,0.3,0,0.4l-1-0.5c0-0.1,0-0.1,0-0.3c0-0.1,0-0.1,0-0.3c0-0.6-0.1-1.1-0.5-1.5
				c-0.4-0.4-0.8-0.5-1.3-0.5c-0.4,0-0.8,0.1-1.1,0.4c-0.3,0.3-0.5,0.5-0.8,0.9c-0.3,0.4-0.3,0.8-0.3,1.3v0.1c0,0.5,0.1,1,0.3,1.4
				c0.1,0.4,0.5,0.6,0.9,0.9c0.4,0.3,0.9,0.4,1.4,0.4c0.3,0,0.5,0,0.6,0c0.1,0,0.5-0.1,0.8-0.1c0.3-0.1,0.5-0.1,0.6-0.3v1
				c-0.1,0.1-0.4,0.1-0.6,0.3c-0.3,0.1-0.5,0.1-0.8,0.1C206.2,54.5,206,54.5,205.7,54.5z M202.6,51.2v-0.8h4.8l0.8,0.3v0.6h-5.5
				V51.2z"/>
			<path fill="#0A5A96" d="M211.9,54.5c-0.3,0-0.6,0-0.9-0.1c-0.3-0.1-0.5-0.1-0.8-0.1c-0.3,0-0.5-0.1-0.6-0.3l0.1-1.1
				c0.3,0.1,0.4,0.3,0.6,0.4c0.3,0.1,0.5,0.1,0.8,0.3c0.3,0.1,0.5,0.1,0.8,0.1s0.5,0,0.8-0.1c0.3,0,0.4-0.1,0.5-0.4
				c0.1-0.1,0.3-0.4,0.3-0.6c0-0.3,0-0.4-0.1-0.5c-0.1-0.1-0.3-0.3-0.5-0.4c-0.3-0.1-0.6-0.3-1-0.4c-0.4-0.1-0.6-0.3-1-0.4
				c-0.3-0.1-0.5-0.4-0.6-0.6c-0.1-0.3-0.3-0.6-0.3-1c0-0.6,0.3-1.1,0.6-1.5c0.4-0.4,1-0.5,1.6-0.5c0.3,0,0.5,0,0.9,0.1
				c0.3,0,0.5,0.1,0.8,0.3c0.3,0.1,0.4,0.1,0.6,0.3l-0.1,1.1c-0.3-0.1-0.5-0.3-0.6-0.4c-0.3-0.1-0.5-0.1-0.6-0.3c-0.3,0-0.4,0-0.6,0
				s-0.4,0-0.5,0.1c-0.1,0-0.4,0.1-0.5,0.3c-0.1,0.1-0.1,0.4-0.1,0.6c0,0.3,0,0.4,0.1,0.5c0.1,0.1,0.3,0.3,0.5,0.4
				c0.3,0.1,0.5,0.3,0.9,0.4c0.5,0.1,0.9,0.3,1.1,0.4c0.4,0.1,0.6,0.4,0.8,0.6c0.1,0.3,0.3,0.5,0.3,1c0,0.4-0.1,0.8-0.3,1.1
				c-0.1,0.4-0.5,0.6-0.9,0.8C213,54.4,212.5,54.5,211.9,54.5z"/>
			<path fill="#0A5A96" d="M216.3,57c0-0.5,0-1,0-1.5c0-0.5,0-1,0-1.6v-3.4c0-0.5,0-1,0-1.5c0-0.5,0-1,0-1.6l1-0.1V48h0.1
				c0.1-0.1,0.3-0.4,0.5-0.5c0.3-0.1,0.5-0.3,0.8-0.4c0.3-0.1,0.6-0.1,0.9-0.1c0.6,0,1.1,0.1,1.6,0.5c0.5,0.4,0.8,0.8,1,1.3
				c0.3,0.5,0.4,1.1,0.4,1.9c0,0.6-0.1,1.3-0.4,1.8c-0.3,0.5-0.5,1-1,1.4c-0.4,0.4-1,0.5-1.6,0.5c-0.3,0-0.6,0-0.9-0.1
				s-0.5-0.3-0.8-0.4c-0.3-0.1-0.4-0.4-0.6-0.5h-0.1v0.5c0,0.5,0,1,0,1.5c0,0.5,0,1,0,1.5L216.3,57z M219.3,53.5
				c0.5,0,0.9-0.1,1.3-0.4c0.3-0.3,0.5-0.5,0.6-1c0.1-0.5,0.3-0.8,0.3-1.3c0-0.5-0.1-0.9-0.3-1.3c-0.1-0.4-0.4-0.8-0.8-0.9
				c-0.3-0.3-0.8-0.4-1.3-0.4c-0.3,0-0.5,0-0.8,0.1c-0.3,0.1-0.5,0.1-0.6,0.4c-0.3,0.1-0.4,0.4-0.5,0.5v3c0.1,0.3,0.3,0.4,0.5,0.6
				c0.1,0.1,0.4,0.3,0.6,0.4C218.8,53.5,219.1,53.5,219.3,53.5z"/>
			<path fill="#0A5A96" d="M227.5,54.5c-0.6,0-1-0.1-1.5-0.3c-0.5-0.1-0.8-0.5-1.1-0.8c-0.3-0.4-0.5-0.8-0.6-1.1
				c-0.1-0.4-0.3-0.9-0.3-1.4c0-0.6,0.1-1.3,0.4-1.9c0.3-0.6,0.6-1,1.1-1.3c0.5-0.3,1.1-0.5,1.9-0.5c0.5,0,1,0.1,1.5,0.3
				c0.4,0.1,0.8,0.4,1.1,0.8c0.3,0.4,0.5,0.8,0.6,1.1c0.1,0.4,0.3,0.9,0.3,1.4c0,0.6-0.1,1.3-0.4,1.9c-0.3,0.5-0.6,1-1.1,1.3
				C228.9,54.2,228.3,54.5,227.5,54.5z M227.5,53.5c0.5,0,0.9-0.1,1.3-0.4c0.4-0.3,0.6-0.6,0.8-1c0.1-0.4,0.3-0.9,0.3-1.3
				c0-0.5-0.1-1-0.3-1.4c-0.1-0.4-0.5-0.6-0.8-0.9c-0.4-0.3-0.8-0.4-1.3-0.4c-0.5,0-0.9,0.1-1.3,0.4c-0.4,0.3-0.6,0.5-0.8,0.9
				c-0.1,0.4-0.3,0.9-0.3,1.3c0,0.5,0.1,0.9,0.3,1.3c0.1,0.4,0.4,0.8,0.8,1C226.6,53.4,227,53.5,227.5,53.5z"/>
			<path fill="#0A5A96" d="M232.9,54.4c0-0.5,0-1,0-1.5c0-0.5,0-1,0-1.5v-0.6c0-0.5,0-1,0-1.5c0-0.5,0-1,0-1.6l1-0.1v1.3h0.1
				c0.1-0.3,0.4-0.4,0.6-0.6c0.3-0.3,0.5-0.4,0.8-0.5s0.6-0.3,1.1-0.3c0.8,0,1.3,0.3,1.6,0.6c0.4,0.4,0.5,1,0.5,1.9
				c0,0.3,0,0.5,0,0.8s0,0.5,0,0.8c0,0.5,0,1,0,1.5c0,0.5,0,1,0,1.5h-1.1c0-0.5,0-1,0-1.5c0-0.5,0-1,0-1.5v-1.3c0-0.5-0.1-1-0.3-1.3
				c-0.3-0.3-0.5-0.4-1-0.4c-0.3,0-0.6,0-0.9,0.1s-0.5,0.3-0.6,0.5c-0.3,0.3-0.4,0.5-0.5,0.8v1.6c0,0.5,0,1,0,1.5c0,0.5,0,1,0,1.5
				h-1.4V54.4z"/>
			<path fill="#0A5A96" d="M242.9,54.5c-0.3,0-0.6,0-0.9-0.1c-0.3,0-0.5-0.1-0.8-0.1c-0.3-0.1-0.5-0.1-0.6-0.3l0.1-1.1
				c0.3,0.1,0.4,0.3,0.6,0.4c0.3,0.1,0.5,0.1,0.8,0.3c0.3,0.1,0.5,0.1,0.8,0.1s0.5,0,0.8-0.1c0.3,0,0.4-0.1,0.5-0.4
				c0.1-0.1,0.3-0.4,0.3-0.6c0-0.3,0-0.4-0.1-0.5c-0.1-0.1-0.3-0.3-0.5-0.4c-0.3-0.1-0.6-0.3-1-0.4c-0.4-0.1-0.6-0.3-1-0.4
				c-0.3-0.1-0.5-0.4-0.6-0.6c-0.1-0.3-0.3-0.6-0.3-1c0-0.6,0.3-1.1,0.6-1.5s1-0.5,1.6-0.5c0.3,0,0.5,0,0.9,0.1
				c0.4,0.1,0.5,0.1,0.8,0.3c0.3,0.1,0.4,0.1,0.6,0.3l-0.1,1.1c-0.3-0.1-0.5-0.3-0.6-0.4c-0.3-0.1-0.5-0.1-0.6-0.3
				c-0.3,0-0.4,0-0.6,0c-0.3,0-0.4,0-0.5,0.1c-0.1,0-0.4,0.1-0.5,0.3c-0.1,0.1-0.1,0.4-0.1,0.6c0,0.3,0,0.4,0.1,0.5
				c0.1,0.1,0.3,0.3,0.5,0.4c0.3,0.1,0.5,0.3,0.9,0.4c0.5,0.1,0.9,0.3,1.1,0.4c0.3,0.1,0.6,0.4,0.8,0.6c0.1,0.3,0.3,0.5,0.3,1
				c0,0.4-0.1,0.8-0.3,1.1c-0.1,0.4-0.5,0.6-0.9,0.8C244,54.4,243.5,54.5,242.9,54.5z"/>
			<path fill="#0A5A96" d="M247.9,45.9c-0.3,0-0.5-0.1-0.6-0.3c-0.1-0.1-0.3-0.4-0.3-0.6c0-0.3,0.1-0.5,0.3-0.6
				c0.1-0.1,0.4-0.3,0.6-0.3s0.5,0.1,0.6,0.3c0.1,0.1,0.3,0.4,0.3,0.6c0,0.3-0.1,0.5-0.3,0.6C248.3,45.8,248.2,45.9,247.9,45.9z
				 M247.3,54.4c0-0.5,0-1,0-1.5c0-0.5,0-1,0-1.5v-0.6c0-0.4,0-0.8,0-1.1s0-0.6,0-1s0-0.6,0-1h1.1c0,0.4,0,0.6,0,1s0,0.6,0,1
				s0,0.8,0,1.1v0.6c0,0.6,0,1.1,0,1.5c0,0.4,0,1,0,1.5H247.3z"/>
			<path fill="#0A5A96" d="M254.3,54.5c-0.4,0-0.6,0-0.9-0.1c-0.3-0.1-0.5-0.3-0.8-0.4c-0.3-0.1-0.4-0.4-0.6-0.6h-0.1l-0.1,0.9h-0.9
				c0-0.5,0-1,0-1.5c0-0.5,0-1,0-1.5v-3.8c0-0.6,0-1.1,0-1.6c0-0.5,0-1.1,0-1.6l1.1-0.1c0,0.5,0,1.1,0,1.6c0,0.5,0,1.1,0,1.8v0.8
				h0.1c0.1-0.1,0.3-0.4,0.5-0.5c0.3-0.1,0.5-0.3,0.8-0.4c0.3-0.1,0.5-0.1,0.9-0.1c0.6,0,1.1,0.1,1.6,0.5s0.8,0.8,1,1.3
				c0.3,0.5,0.4,1.1,0.4,1.9c0,0.6-0.1,1.3-0.4,1.8c-0.3,0.5-0.5,1-1,1.4C255.5,54.4,255,54.5,254.3,54.5z M254,53.5
				c0.5,0,0.9-0.1,1.3-0.4c0.3-0.3,0.5-0.5,0.6-1c0.1-0.5,0.3-0.8,0.3-1.3c0-0.5-0.1-0.9-0.3-1.3c-0.1-0.4-0.4-0.8-0.8-0.9
				c-0.3-0.3-0.8-0.4-1.3-0.4c-0.3,0-0.5,0-0.8,0.1c-0.3,0.1-0.5,0.1-0.6,0.4c-0.3,0.1-0.4,0.4-0.5,0.5v3c0.1,0.3,0.3,0.4,0.5,0.6
				c0.1,0.1,0.4,0.3,0.6,0.4C253.4,53.5,253.7,53.5,254,53.5z"/>
			<path fill="#0A5A96" d="M259.7,45.9c-0.3,0-0.5-0.1-0.6-0.3c-0.1-0.1-0.3-0.4-0.3-0.6c0-0.3,0.1-0.5,0.3-0.6
				c0.1-0.1,0.4-0.3,0.6-0.3c0.3,0,0.5,0.1,0.6,0.3c0.1,0.1,0.3,0.4,0.3,0.6c0,0.3-0.1,0.5-0.3,0.6C260.2,45.8,260,45.9,259.7,45.9z
				 M259.2,54.4c0-0.5,0-1,0-1.5c0-0.5,0-1,0-1.5v-0.6c0-0.4,0-0.8,0-1.1s0-0.6,0-1s0-0.6,0-1h1.1c0,0.4,0,0.6,0,1s0,0.6,0,1
				s0,0.8,0,1.1v0.6c0,0.6,0,1.1,0,1.5c0,0.4,0,1,0,1.5H259.2z"/>
			<path fill="#0A5A96" d="M262.9,54.4c0-0.5,0-1,0-1.5c0-0.5,0-1,0-1.5v-3.8c0-0.6,0-1.1,0-1.6c0-0.5,0-1.1,0-1.6l1.1-0.1
				c0,0.5,0,1.1,0,1.6c0,0.5,0,1.1,0,1.8v3.8c0,0.6,0,1.1,0,1.5c0,0.4,0,1,0,1.5H262.9z"/>
			<path fill="#0A5A96" d="M267,45.9c-0.3,0-0.5-0.1-0.6-0.3c-0.1-0.1-0.3-0.4-0.3-0.6c0-0.3,0.1-0.5,0.3-0.6
				c0.1-0.1,0.4-0.3,0.6-0.3c0.3,0,0.5,0.1,0.6,0.3c0.1,0.1,0.3,0.4,0.3,0.6c0,0.3-0.1,0.5-0.3,0.6C267.4,45.8,267.3,45.9,267,45.9z
				 M266.4,54.4c0-0.5,0-1,0-1.5c0-0.5,0-1,0-1.5v-0.6c0-0.4,0-0.8,0-1.1s0-0.6,0-1s0-0.6,0-1h1.1c0,0.4,0,0.6,0,1s0,0.6,0,1
				s0,0.8,0,1.1v0.6c0,0.6,0,1.1,0,1.5c0,0.4,0,1,0,1.5H266.4z"/>
			<path fill="#0A5A96" d="M269.2,48.4v-0.9h4.9v0.9c-0.5,0-0.9,0-1.4,0s-0.9,0-1.4,0h-0.5H269.2z M272.6,54.5
				c-0.5,0-0.9-0.1-1.1-0.3c-0.3-0.1-0.5-0.4-0.8-0.8c-0.1-0.4-0.3-0.8-0.3-1.3c0-0.4,0-0.8,0-1.1c0-0.4,0-0.8,0-1.1
				c0-0.4,0-0.8,0-1.1c0-0.4,0-0.6,0-1c0-0.5,0-0.9,0-1.3c0-0.4,0-0.9,0-1.3l1.1-0.3c0,0.4,0,0.6,0,1c0,0.3,0,0.6,0,0.9
				c0,0.3,0,0.6,0,1v4.2c0,0.5,0.1,0.9,0.4,1.1c0.3,0.3,0.5,0.4,1,0.4c0.1,0,0.4,0,0.5-0.1c0.3,0,0.4-0.1,0.5-0.3l0.1,1
				c-0.1,0.1-0.3,0.1-0.4,0.1s-0.4,0.1-0.5,0.1C273.1,54.5,272.8,54.5,272.6,54.5z"/>
			<path fill="#0A5A96" d="M276.5,57c0.1-0.5,0.4-0.9,0.5-1.4c0.1-0.5,0.4-0.9,0.5-1.4v0.3c-0.1-0.5-0.4-1-0.5-1.4
				c-0.1-0.5-0.4-1-0.5-1.4l-0.5-1.3c-0.1-0.5-0.4-1-0.5-1.5c-0.1-0.5-0.4-1-0.5-1.5h1.3c0.3,0.6,0.4,1.1,0.6,1.8
				c0.3,0.6,0.4,1.1,0.6,1.8l0.8,2.3h0.1l0.8-2.3c0.3-0.6,0.4-1.1,0.6-1.8c0.3-0.6,0.4-1.1,0.6-1.8h1.3c-0.1,0.4-0.3,0.8-0.4,1
				c-0.1,0.4-0.3,0.8-0.5,1.1c-0.3,0.4-0.4,0.9-0.6,1.5l-0.8,1.9c-0.4,0.9-0.6,1.6-0.9,2.3c-0.3,0.6-0.5,1.1-0.6,1.6L276.5,57z"/>
			<path fill="#0A5A96" d="M193.3,69.6c0-0.5,0-1.1,0-1.6c0-0.5,0-1,0-1.6V63c0-0.6,0-1.1,0-1.8c0-0.5,0-1,0-1.6h6v1.1
				c-0.5,0-1,0-1.5,0c-0.5,0-1.1,0-1.9,0h-2l0.5-0.9c0,0.5,0,1.1,0,1.6c0,0.5,0,1.1,0,1.8v3c0,0.6,0,1.1,0,1.6c0,0.5,0,1,0,1.6
				H193.3z M194.3,65.1v-1h1.8c0.6,0,1.1,0,1.6,0c0.5,0,0.9,0,1.4,0v1c-0.5,0-0.9,0-1.4,0c-0.5,0-1,0-1.6,0H194.3z"/>
			<path fill="#0A5A96" d="M203.2,69.7c-0.8,0-1.3-0.3-1.6-0.6c-0.4-0.4-0.5-1-0.5-1.9c0-0.3,0-0.6,0-0.8c0-0.3,0-0.5,0-0.6
				c0-0.4,0-0.8,0-1.1c0-0.4,0-0.6,0-1c0-0.4,0-0.6,0-1h1.1c0,0.5,0,1,0,1.5c0,0.5,0,1,0,1.5v1.3c0,0.5,0.1,1,0.3,1.3
				c0.3,0.3,0.5,0.4,1,0.4c0.3,0,0.5-0.1,0.8-0.3c0.3-0.1,0.5-0.3,0.6-0.5c0.3-0.3,0.4-0.4,0.5-0.6v-1.6c0-0.5,0-1,0-1.5
				c0-0.5,0-1,0-1.5h1.1c0,0.5,0,1,0,1.5c0,0.5,0,1,0,1.6v0.8c0,0.6,0,1.1,0,1.5c0,0.4,0,1,0,1.5h-1v-1.3h-0.1
				c-0.1,0.3-0.4,0.4-0.5,0.6c-0.3,0.3-0.5,0.4-0.8,0.5C203.8,69.5,203.6,69.7,203.2,69.7z"/>
			<path fill="#0A5A96" d="M208.2,63.6v-0.9h4.9v0.9c-0.5,0-0.9,0-1.4,0c-0.5,0-0.9,0-1.4,0h-0.5H208.2z M211.6,69.7
				c-0.5,0-0.9-0.1-1.1-0.3c-0.4-0.1-0.5-0.4-0.8-0.8c-0.1-0.4-0.3-0.8-0.3-1.3c0-0.4,0-0.8,0-1.1c0-0.4,0-0.8,0-1.1
				c0-0.4,0-0.8,0-1.1c0-0.4,0-0.6,0-1c0-0.5,0-0.9,0-1.3c0-0.4,0-0.9,0-1.3l1.1-0.3c0,0.4,0,0.6,0,1c0,0.3,0,0.6,0,0.9
				c0,0.3,0,0.6,0,1v4.2c0,0.5,0.1,0.9,0.4,1.1c0.3,0.3,0.5,0.4,1,0.4c0.1,0,0.4,0,0.5-0.1c0.3,0,0.4-0.1,0.5-0.3l0.1,1
				c-0.1,0.1-0.3,0.1-0.4,0.1c-0.1,0-0.4,0.1-0.5,0.1C212,69.7,211.9,69.7,211.6,69.7z"/>
			<path fill="#0A5A96" d="M216.7,69.7c-0.8,0-1.3-0.3-1.6-0.6c-0.4-0.4-0.5-1-0.5-1.9c0-0.3,0-0.6,0-0.8c0-0.3,0-0.5,0-0.6
				c0-0.4,0-0.8,0-1.1c0-0.4,0-0.6,0-1c0-0.4,0-0.6,0-1h1.1c0,0.5,0,1,0,1.5c0,0.5,0,1,0,1.5v1.3c0,0.5,0.1,1,0.3,1.3
				c0.3,0.3,0.5,0.4,1,0.4c0.3,0,0.5-0.1,0.8-0.3c0.3-0.1,0.5-0.3,0.6-0.5c0.1-0.3,0.4-0.4,0.5-0.6v-1.6c0-0.5,0-1,0-1.5
				c0-0.5,0-1,0-1.5h1.1c0,0.5,0,1,0,1.5c0,0.5,0,1,0,1.6v0.8c0,0.6,0,1.1,0,1.5c0,0.4,0,1,0,1.5h-1v-1.3h-0.1
				c-0.1,0.3-0.4,0.4-0.5,0.6c-0.3,0.3-0.5,0.4-0.8,0.5C217.4,69.7,217.1,69.7,216.7,69.7z"/>
			<path fill="#0A5A96" d="M222.6,69.6c0-0.5,0-1,0-1.5c0-0.5,0-1,0-1.5v-0.6c0-0.5,0-1,0-1.5c0-0.5,0-1,0-1.6l1-0.1V64h0.1
				c0.3-0.4,0.4-0.8,0.6-1c0.3-0.3,0.5-0.4,0.8-0.4c0.3-0.1,0.5-0.1,0.8-0.1c0.1,0,0.3,0,0.4,0c0.1,0,0.3,0,0.4,0.1l-0.1,1.1
				c-0.1,0-0.3,0-0.4-0.1c-0.1,0-0.3,0-0.4,0c-0.1,0-0.3,0-0.5,0c-0.1,0-0.4,0.1-0.5,0.3c-0.1,0.1-0.4,0.3-0.5,0.5
				c-0.1,0.3-0.3,0.5-0.4,1v1c0,0.5,0,1,0,1.5c0,0.5,0,1,0,1.5h-1.3V69.6z"/>
			<path fill="#0A5A96" d="M231.3,69.7c-0.9,0-1.5-0.1-2-0.5c-0.5-0.4-0.9-0.8-1.1-1.3c-0.3-0.5-0.4-1.1-0.4-1.9
				c0-0.6,0.1-1.3,0.4-1.9c0.3-0.5,0.6-1,1.1-1.3c0.5-0.3,1-0.5,1.8-0.5c0.6,0,1.1,0.1,1.5,0.4c0.4,0.3,0.8,0.5,1,1
				c0.3,0.4,0.4,1,0.4,1.6c0,0.1,0,0.4,0,0.5c0,0.1,0,0.3,0,0.4l-1-0.5c0-0.1,0-0.1,0-0.3c0-0.1,0-0.1,0-0.3c0-0.6-0.1-1.1-0.5-1.5
				c-0.4-0.4-0.8-0.5-1.3-0.5c-0.4,0-0.8,0.1-1.1,0.4c-0.3,0.3-0.5,0.5-0.8,0.9c-0.3,0.4-0.3,0.8-0.3,1.3v0.1c0,0.5,0.1,1,0.3,1.4
				c0.1,0.4,0.5,0.6,0.9,0.9c0.4,0.3,0.9,0.4,1.4,0.4c0.3,0,0.5,0,0.6,0c0.1,0,0.5-0.1,0.8-0.1c0.3-0.1,0.5-0.1,0.6-0.3v1
				c-0.1,0.1-0.4,0.1-0.6,0.3c-0.3,0.1-0.5,0.1-0.8,0.1C231.9,69.7,231.7,69.7,231.3,69.7z M228.1,66.4v-0.8h4.8l0.8,0.3v0.6h-5.5
				V66.4z"/>
			<path fill="#0A5A96" d="M72.8,20.4c0-0.5,0-1,0-1.5c0-0.5,0-1,0-1.6v-3.4c0-0.6,0-1.3,0-1.8c0-0.5,0-1,0-1.6h6.4v1.9
				c-0.4,0-0.9,0-1.4,0c-0.5,0-1,0-1.8,0h-2l0.9-1.5c0,0.5,0,1,0,1.6c0,0.5,0,1.1,0,1.8v3c0,0.6,0,1.1,0,1.6c0,0.5,0,1,0,1.5H72.8z
				 M74.4,16.5v-1.9h1.8c0.6,0,1.1,0,1.5,0c0.4,0,0.9,0,1.3,0v1.9c-0.4,0-0.9,0-1.3,0c-0.4,0-1,0-1.5,0H74.4z"/>
			<path fill="#0A5A96" d="M84,20.7c-0.6,0-1.1-0.1-1.6-0.3c-0.5-0.1-0.9-0.5-1.1-0.8s-0.5-0.8-0.6-1.1c-0.1-0.4-0.3-1.1-0.3-1.6
				c0-0.6,0.1-1.3,0.4-1.9c0.3-0.5,0.6-1,1.3-1.3c0.5-0.4,1.3-0.5,2-0.5c0.6,0,1.1,0.1,1.6,0.3c0.5,0.1,0.9,0.4,1.1,0.8
				c0.3,0.4,0.5,0.8,0.6,1.1c0.1,0.4,0.3,0.9,0.3,1.4c0,0.8-0.1,1.3-0.4,1.9c-0.3,0.5-0.6,1-1.3,1.3C85.5,20.4,84.9,20.7,84,20.7z
				 M84,18.9c0.4,0,0.6-0.1,0.9-0.3c0.3-0.1,0.4-0.4,0.5-0.8c0.1-0.4,0.1-0.6,0.1-1c0-0.4-0.1-0.8-0.3-1c-0.1-0.3-0.3-0.5-0.5-0.6
				C84.5,15.1,84.2,15,84,15c-0.4,0-0.6,0.1-0.9,0.3c-0.3,0.1-0.4,0.4-0.5,0.8c-0.1,0.3-0.1,0.6-0.1,1c0,0.4,0,0.6,0.1,1
				c0.1,0.3,0.3,0.5,0.5,0.8C83.3,18.8,83.7,18.9,84,18.9z"/>
			<path fill="#0A5A96" d="M91,20.7c-0.6,0-1.3-0.3-1.5-0.6c-0.4-0.4-0.5-1-0.5-1.9c0-0.3,0-0.6,0-0.8c0-0.1,0-0.5,0-0.8
				c0-0.5,0-0.9,0-1.3c0-0.4,0-0.6,0-1c0-0.3,0-0.6,0-1h2c0,0.5,0,1,0,1.5c0,0.5,0,1,0,1.5v1.1c0,0.4,0.1,0.8,0.3,0.9
				c0.1,0.3,0.4,0.3,0.8,0.3c0.3,0,0.4,0,0.5-0.1c0.1-0.1,0.3-0.1,0.5-0.4c0.1-0.1,0.3-0.3,0.4-0.5v-1.5c0-0.5,0-1,0-1.5
				c0-0.5,0-0.9,0-1.4h2c0,0.5,0,1,0,1.5c0,0.5,0,1,0,1.6v0.8c0,0.6,0,1.1,0,1.5c0,0.5,0,0.9,0,1.4h-1.8l-0.1-1.1h-0.1
				c-0.1,0.3-0.4,0.4-0.5,0.6c-0.3,0.3-0.5,0.4-0.8,0.5C91.8,20.5,91.4,20.7,91,20.7z"/>
			<path fill="#0A5A96" d="M97.1,20.4c0-0.5,0-1,0-1.4c0-0.5,0-1,0-1.5v-0.8c0-0.5,0-1,0-1.6c0-0.5,0-1.1,0-1.6l1.8-0.1l0.1,1.3h0.1
				c0.1-0.3,0.4-0.4,0.6-0.6c0.3-0.3,0.5-0.4,0.8-0.5c0.3-0.1,0.6-0.1,1-0.1c0.8,0,1.3,0.3,1.5,0.6c0.4,0.4,0.5,1,0.5,1.9
				c0,0.3,0,0.6,0,0.9c0,0.3,0,0.5,0,0.8c0,0.5,0,1.1,0,1.5c0,0.5,0,1,0,1.4h-2c0-0.5,0-1,0-1.4c0-0.4,0-0.9,0-1.4v-1.1
				c0-0.4-0.1-0.8-0.3-0.9c-0.1-0.3-0.4-0.3-0.8-0.3c-0.3,0-0.4,0-0.5,0.1c-0.1,0.1-0.4,0.3-0.5,0.4c-0.1,0.1-0.3,0.3-0.4,0.5v1.4
				c0,0.5,0,1,0,1.5c0,0.5,0,0.9,0,1.4h-2V20.4z"/>
			<path fill="#0A5A96" d="M107.6,20.7c-0.6,0-1.1-0.1-1.5-0.5c-0.4-0.4-0.8-0.8-0.9-1.4c-0.1-0.6-0.3-1.1-0.3-1.8
				c0-0.6,0.1-1.3,0.4-1.9c0.3-0.5,0.5-1,0.9-1.3c0.4-0.4,0.9-0.5,1.5-0.5c0.3,0,0.5,0,0.8,0.1c0.3,0.1,0.4,0.1,0.6,0.3
				c0.3,0.1,0.4,0.3,0.5,0.5h0.1v-0.6c0-0.5,0-1.1,0-1.6c0-0.5,0-1.1,0-1.6l2-0.1c0,0.5,0,1.1,0,1.6c0,0.6,0,1.1,0,1.8v3.9
				c0,0.6,0,1.1,0,1.5c0,0.5,0,0.9,0,1.4H110l-0.1-0.9h-0.1c-0.1,0.3-0.4,0.4-0.5,0.6s-0.4,0.3-0.6,0.4
				C108.1,20.5,107.9,20.7,107.6,20.7z M108.4,18.9c0.3,0,0.4,0,0.5-0.1s0.3-0.1,0.4-0.3c0.1-0.1,0.3-0.3,0.3-0.4v-2.4
				c-0.1-0.1-0.3-0.3-0.4-0.4c-0.1-0.1-0.3-0.1-0.4-0.3c-0.1,0-0.3-0.1-0.5-0.1c-0.4,0-0.6,0.1-0.8,0.3c-0.1,0.1-0.4,0.4-0.5,0.6
				c-0.1,0.3-0.1,0.6-0.1,0.9c0,0.4,0,0.6,0.1,0.9c0.1,0.3,0.3,0.5,0.5,0.8C107.8,18.6,108,18.9,108.4,18.9z"/>
			<path fill="#0A5A96" d="M115.1,20.5c-0.4,0-0.8-0.1-1-0.3s-0.5-0.4-0.6-0.8c-0.1-0.3-0.3-0.6-0.3-1.1c0-0.4,0.1-0.8,0.3-1
				c0.1-0.3,0.4-0.5,0.5-0.6c0.3-0.1,0.5-0.3,0.8-0.4c0.3-0.1,0.5-0.1,0.8-0.3l1.9-0.3c0-0.3,0-0.5-0.1-0.6
				c-0.1-0.1-0.3-0.3-0.5-0.4c-0.3,0-0.5-0.1-0.8-0.1c-0.1,0-0.4,0-0.5,0s-0.4,0.1-0.6,0.1c-0.3,0-0.4,0.1-0.6,0.1s-0.4,0.1-0.6,0.3
				l-0.1-1.8c0.1,0,0.4-0.1,0.6-0.1c0.3-0.1,0.5-0.1,0.8-0.1c0.3,0,0.5-0.1,0.9-0.1c0.3,0,0.6,0,0.9,0c0.6,0,1,0.1,1.5,0.3
				c0.4,0.1,0.8,0.4,0.9,0.8c0.1,0.4,0.4,0.9,0.4,1.4c0,0.3,0,0.5,0,0.9c0,0.4,0,0.6,0,0.9v0.9c0,0.4,0,0.8,0,1.1s0,0.8,0,1.1h-1.8
				l-0.1-0.9h-0.1c-0.1,0.1-0.3,0.4-0.5,0.5c-0.3,0.1-0.4,0.3-0.6,0.4C115.7,20.5,115.3,20.5,115.1,20.5z M115.8,19
				c0.1,0,0.4,0,0.5-0.1c0.1-0.1,0.3-0.1,0.5-0.4c0.1-0.1,0.3-0.3,0.4-0.5v-1c0,0-0.1,0.1-0.3,0.1s-0.3,0.1-0.4,0.1
				s-0.4,0.1-0.6,0.1c-0.1,0-0.3,0.1-0.4,0.1c-0.1,0.1-0.3,0.1-0.3,0.3c-0.1,0.1-0.1,0.3-0.1,0.4c0,0.3,0.1,0.5,0.3,0.5
				S115.7,19,115.8,19z"/>
			<path fill="#0A5A96" d="M120.2,15.1v-1.5h5.2v1.5c-0.4,0-0.9,0-1.3,0c-0.4,0-0.9,0-1.3,0h-1H120.2z M123.8,20.7
				c-0.5,0-1-0.1-1.3-0.3c-0.4-0.1-0.6-0.4-0.9-0.8c-0.3-0.4-0.3-0.8-0.3-1.4c0-0.3,0-0.6,0-0.9c0-0.4,0-0.6,0-1s0-0.8,0-1.1
				c0-0.4,0-0.8,0-1.3c0-0.5,0-1,0-1.4s0-0.9,0-1.4l2-0.4c0,0.4,0,0.8,0,1c0,0.3,0,0.6,0,1c0,0.4,0,0.8,0,1.1v3.7
				c0,0.4,0.1,0.8,0.3,1c0.1,0.3,0.4,0.4,0.8,0.4c0.1,0,0.3,0,0.5-0.1c0.1,0,0.4-0.1,0.5-0.3l0.1,1.6c-0.1,0.1-0.3,0.1-0.5,0.1
				c-0.1,0-0.4,0.1-0.6,0.1C124.1,20.5,124,20.7,123.8,20.7z"/>
			<path fill="#0A5A96" d="M127.8,12.4c-0.4,0-0.6-0.1-0.9-0.3c-0.3-0.1-0.4-0.5-0.4-0.9c0-0.4,0.1-0.6,0.4-0.9
				c0.3-0.3,0.5-0.3,0.9-0.3c0.4,0,0.8,0.1,0.9,0.3c0.3,0.3,0.4,0.5,0.4,0.9c0,0.4-0.1,0.8-0.4,0.9
				C128.5,12.3,128.2,12.4,127.8,12.4z M126.8,20.4c0-0.5,0-1,0-1.4c0-0.5,0-1,0-1.5v-0.8c0-0.5,0-0.9,0-1.3s0-0.8,0-1s0-0.6,0-1h2
				c0,0.4,0,0.6,0,1s0,0.6,0,1s0,0.8,0,1.3v0.8c0,0.6,0,1.1,0,1.5c0,0.5,0,0.9,0,1.4H126.8z"/>
			<path fill="#0A5A96" d="M134,20.7c-0.6,0-1.1-0.1-1.6-0.3c-0.5-0.1-0.9-0.5-1.1-0.8s-0.5-0.8-0.6-1.1c-0.1-0.4-0.3-0.9-0.3-1.4
				c0-0.6,0.1-1.3,0.4-1.9c0.3-0.5,0.6-1,1.3-1.3c0.5-0.4,1.3-0.5,2-0.5c0.6,0,1.1,0.1,1.6,0.3c0.5,0.1,0.9,0.4,1.1,0.8
				c0.3,0.4,0.5,0.8,0.6,1.1c0.1,0.4,0.3,0.9,0.3,1.4c0,0.8-0.1,1.3-0.4,1.9c-0.3,0.5-0.6,1-1.3,1.3C135.5,20.4,134.8,20.7,134,20.7
				z M134,18.9c0.4,0,0.6-0.1,0.9-0.3c0.3-0.1,0.4-0.4,0.5-0.8c0.1-0.4,0.1-0.6,0.1-1c0-0.4-0.1-0.8-0.3-1c-0.1-0.3-0.3-0.5-0.5-0.6
				c-0.3-0.1-0.5-0.3-0.8-0.3c-0.4,0-0.6,0.1-0.9,0.3c-0.3,0.1-0.4,0.4-0.5,0.8c-0.1,0.3-0.1,0.6-0.1,1c0,0.4,0,0.6,0.1,1
				c0.1,0.3,0.3,0.5,0.5,0.8C133.3,18.8,133.7,18.9,134,18.9z"/>
			<path fill="#0A5A96" d="M139.1,20.4c0-0.5,0-1,0-1.4c0-0.5,0-1,0-1.5v-0.8c0-0.5,0-1,0-1.6c0-0.5,0-1.1,0-1.6l1.8-0.1l0.1,1.3
				h0.1c0.1-0.3,0.4-0.4,0.6-0.6c0.3-0.3,0.5-0.4,0.8-0.5c0.3-0.1,0.6-0.1,1-0.1c0.8,0,1.3,0.3,1.5,0.6c0.4,0.4,0.5,1,0.5,1.9
				c0,0.3,0,0.6,0,0.9c0,0.3,0,0.5,0,0.8c0,0.5,0,1.1,0,1.5c0,0.5,0,1,0,1.4h-2c0-0.5,0-1,0-1.4c0-0.4,0-0.9,0-1.4v-1.1
				c0-0.4-0.1-0.8-0.3-0.9c-0.1-0.3-0.4-0.3-0.8-0.3c-0.3,0-0.4,0-0.5,0.1c-0.1,0.1-0.4,0.3-0.5,0.4c-0.1,0.1-0.3,0.3-0.4,0.5v1.4
				c0,0.5,0,1,0,1.5c0,0.5,0,0.9,0,1.4h-2V20.4z"/>
			<path fill="#0A5A96" d="M178.2,60.8h-22.5l24-24.2c1.3-1.3,1.6-3.2,0.9-4.7c-0.6-1.6-2.3-2.7-4-2.7h-24.2c-1.1,0-2.3,0.5-3,1.3
				l-24,24.2V33.1c0-2.4-1.9-4.3-4.3-4.3c-2.4,0-4.3,1.9-4.3,4.3V42l-16.2,16.2c-3.9,3.9-9.7,4.8-14.4,2.5l20.5-20.7
				c1.6-1.6,1.6-4.4,0-6.2c-8.3-8.4-21.9-8.4-30.2,0s-8.3,22,0,30.4c4.2,4.2,9.7,6.3,15.1,6.3c5.4,0,11-2.2,15.1-6.3l10.1-10.1v11
				c0,1.8,1,3.3,2.6,4.1c0.5,0.3,1.1,0.4,1.6,0.4c1.1,0,2.3-0.4,3-1.3l30.2-30.4h11.8l-24,24.2c-1.3,1.3-1.6,3.2-0.9,4.7
				c0.6,1.6,2.3,2.7,4,2.7h33c2.4,0,4.3-1.9,4.3-4.3C182.4,62.9,180.5,60.8,178.2,60.8z M82.6,40.1c2.5-2.5,5.8-3.8,8.9-3.8
				c1.9,0,3.7,0.4,5.4,1.1l-17,17.2C77.8,49.8,78.7,44,82.6,40.1z"/>
			<path fill="#0096BE" d="M55.5,30.2c0.9-0.9,0.9-2.4,0-3.3c-0.9-0.9-2.4-0.9-3.3,0c-0.9,0.9-0.9,2.4,0,3.3
				C53.1,31.1,54.6,31.1,55.5,30.2z"/>
			<path fill="#0096BE" d="M60.7,35.4c0.8-0.8,0.8-1.9,0-2.7c-0.8-0.8-1.9-0.8-2.6,0c-0.8,0.8-0.8,1.9,0,2.7
				C58.8,36,59.9,36,60.7,35.4z"/>
			<path fill="#0096BE" d="M44.7,30.2c1-1,1-2.5,0-3.5c-1-1-2.5-1-3.5,0c-1,1-1,2.5,0,3.5C42.2,31.2,43.7,31.2,44.7,30.2z"/>
			<path fill="#0096BE" d="M57,42.6c-1.3,1.3-1.3,3.4,0,4.7c1.3,1.3,3.4,1.3,4.7,0c1.3-1.3,1.3-3.4,0-4.7
				C60.4,41.3,58.3,41.3,57,42.6z"/>
			<path fill="#0096BE" d="M64.8,52c0.8,0,1.5-0.7,1.5-1.5c0-0.8-0.7-1.5-1.5-1.5c-0.8,0-1.5,0.7-1.5,1.5C63.3,51.3,64,52,64.8,52z"
				/>
			<path fill="#0096BE" d="M65.8,40.6c0.6-0.6,0.6-1.5,0-2.2c-0.6-0.6-1.5-0.6-2.1,0c-0.6,0.6-0.6,1.5,0,2.2
				C64.3,41.2,65.3,41.2,65.8,40.6z"/>
			<path fill="#0096BE" d="M52.7,46.9c0.4-1,0.5-2.2,0.3-3.2c1.4,0.4,2.9,0,4-1.1c1.6-1.6,1.6-4.4,0-6.1c-1.3-1.3-3.1-1.6-4.7-1
				c0.5-1.5,0.3-3.2-0.9-4.4c-1.6-1.6-4.3-1.6-5.8,0c-1.1,1.1-1.4,2.7-1.1,4.1c-1.3-0.4-2.6-0.3-3.8,0.4c0.6-1.3,0.4-2.8-0.8-3.9
				c-1.4-1.4-3.5-1.4-4.9,0c-1.4,1.4-1.4,3.5,0,4.9c1,1,2.6,1.3,3.9,0.8c-0.5,1-0.8,2.2-0.5,3.2c-1-0.1-1.9-0.1-2.8,0.4
				c0.5-1.3,0.1-2.8-0.9-3.9c-1.5-1.5-3.8-1.5-5.3,0c-1.5,1.5-1.5,3.8,0,5.3c1,1,2.5,1.4,3.9,0.9C33.1,44,33,45,33.1,46
				c-1.5-0.3-3,0.1-4.2,1.3c-1.5,1.5-1.8,3.8-0.8,5.6c-1.3-0.6-2.9-0.4-4,0.8c-1.4,1.4-1.4,3.7,0,5.1c1.3,1.3,3,1.4,4.4,0.5
				c-1.3,1.6-1,4.1,0.5,5.6c1.6,1.6,4.4,1.6,6.2,0c1.1-1.1,1.5-2.9,1.1-4.3c1.5,0.5,3.3,0.1,4.4-1.1c1.1-1.1,1.5-2.8,1.1-4.2
				c1.5,0.4,3.3,0,4.4-1.1c1.1-1.1,1.5-2.7,1.3-4.2c1,0.3,2,0.1,2.9-0.3c-0.4,1.3-0.1,2.8,0.9,3.9c1.5,1.5,3.9,1.5,5.4,0
				c1.5-1.5,1.5-3.9,0-5.4C55.5,46.8,54,46.4,52.7,46.9z"/>
			<path fill="#0096BE" d="M59.4,57.5c0.8,0,1.5-0.7,1.5-1.5c0-0.8-0.7-1.5-1.5-1.5c-0.8,0-1.5,0.7-1.5,1.5
				C57.9,56.9,58.6,57.5,59.4,57.5z"/>
			<path fill="#0096BE" d="M46.7,54.2c-1,1-1,2.7,0,3.5c1,1,2.6,1,3.5,0c1-1,1-2.7,0-3.5C49.2,53.2,47.6,53.2,46.7,54.2z"/>
			<path fill="#0096BE" d="M26.6,48c1.7,0,3-1.4,3-3c0-1.7-1.4-3-3-3c-1.7,0-3,1.4-3,3C23.5,46.7,24.9,48,26.6,48z"/>
			<path fill="#0096BE" d="M41.4,59.9c-0.9,0.9-0.9,2.2,0,3c0.9,0.9,2.1,0.9,3,0c0.9-0.9,0.9-2.2,0-3C43.7,59.2,42.3,59.2,41.4,59.9
				z"/>
			<path fill="#0096BE" d="M21.1,52.2c1,0,1.8-0.8,1.8-1.8c0-1-0.8-1.8-1.8-1.8c-1,0-1.8,0.8-1.8,1.8C19.4,51.4,20.2,52.2,21.1,52.2
				z"/>
			<path fill="#0096BE" d="M35.6,65.1c-1,1-1,2.7,0,3.7c1,1,2.6,1,3.7,0c1-1,1-2.7,0-3.7C38.3,64.1,36.6,64.1,35.6,65.1z"/>
			<path fill="#0096BE" d="M20,60.3c-0.6,0.6-0.6,1.6,0,2.3c0.6,0.6,1.6,0.6,2.3,0c0.6-0.6,0.6-1.6,0-2.3
				C21.6,59.8,20.6,59.8,20,60.3z"/>
			<path fill="#0096BE" d="M24.9,65.4c-0.9,0.9-0.9,2.3,0,3.2c0.9,0.9,2.3,0.9,3.1,0c0.9-0.9,0.9-2.3,0-3.2
				C27.3,64.5,25.8,64.5,24.9,65.4z"/>
			<path fill="#0096BE" d="M30.7,71.1c-0.8,0.8-0.8,2,0,2.8c0.8,0.8,2,0.8,2.8,0c0.8-0.8,0.8-2,0-2.8C32.6,70.3,31.5,70.3,30.7,71.1
				z"/>
			<path fill="#0A5A96" d="M25.2,49.2c-0.8,0.8-0.8,2,0,2.7c0.8,0.8,2,0.8,2.6,0c0.8-0.8,0.8-2,0-2.7C27.2,48.4,25.9,48.4,25.2,49.2
				z"/>
			<path fill="#0A5A96" d="M19.8,43.6c-0.8,0.8-0.8,1.9,0,2.7c0.8,0.8,1.9,0.8,2.6,0c0.8-0.8,0.8-1.9,0-2.7
				C21.6,42.8,20.5,42.8,19.8,43.6z"/>
			<path fill="#0A5A96" d="M35.7,48.8c-1,1-1,2.5,0,3.5c1,1,2.5,1,3.5,0c1-1,1-2.5,0-3.5C38.3,47.8,36.8,47.8,35.7,48.8z"/>
			<path fill="#0A5A96" d="M23.4,36.4c1.3-1.3,1.3-3.4,0-4.7c-1.3-1.3-3.4-1.3-4.7,0c-1.3,1.3-1.3,3.4,0,4.7S22.1,37.7,23.4,36.4z"
				/>
			<path fill="#0A5A96" d="M15.6,30.1c0.8,0,1.5-0.7,1.5-1.5c0-0.8-0.7-1.5-1.5-1.5c-0.8,0-1.5,0.7-1.5,1.5
				C14.1,29.4,14.8,30.1,15.6,30.1z"/>
			<path fill="#0A5A96" d="M15.6,40.9c0.8,0,1.5-0.7,1.5-1.5c0-0.8-0.7-1.5-1.5-1.5c-0.8,0-1.5,0.7-1.5,1.5
				C14.1,40.3,14.8,40.9,15.6,40.9z"/>
			<path fill="#0A5A96" d="M21.1,24.5c0.8,0,1.5-0.7,1.5-1.5c0-0.8-0.7-1.5-1.5-1.5c-0.8,0-1.5,0.7-1.5,1.5
				C19.6,23.8,20.3,24.5,21.1,24.5z"/>
			<path fill="#0A5A96" d="M41.8,41.5c0.4-0.9,0.5-1.9,0.4-2.9c1.5,0.3,3-0.1,4.2-1.3c1.5-1.5,1.8-3.8,0.8-5.6
				c1.3,0.6,2.9,0.4,4-0.8c1.4-1.4,1.4-3.7,0-5.1c-1.3-1.3-3-1.4-4.4-0.5c1.3-1.6,1-4.1-0.5-5.6c-1.6-1.6-4.4-1.6-6.2,0
				c-1.1,1.1-1.5,2.9-1.1,4.3c-1.5-0.5-3.3-0.1-4.4,1.1c-1.1,1.1-1.5,2.7-1.1,4.2c-1-0.3-2.1-0.1-3,0.3c0.4-1.3,0.1-2.8-0.9-3.9
				c-1.5-1.5-3.9-1.5-5.4,0c-1.5,1.5-1.5,3.9,0,5.4c1,1,2.5,1.4,3.9,0.9c-0.4,1-0.5,2.2-0.3,3.2c-1.4-0.4-2.9,0-4,1.1
				c-1.6,1.6-1.6,4.4,0,6.1c1.3,1.3,3.1,1.6,4.7,1c-0.5,1.5-0.3,3.2,0.9,4.4c1.6,1.6,4.3,1.6,5.8,0c1.1-1.1,1.4-2.7,1.1-4.1
				c0.1,0,0.4,0.1,0.5,0.1c0.6,0.1,1.4,0.1,2,0c0.1,0,0.3,0,0.3-0.1c0.1,0,0.4-0.1,0.5-0.1c-0.5,1.3-0.1,2.8,0.9,3.9
				c1.5,1.5,3.8,1.5,5.3,0c1.5-1.5,1.5-3.8,0-5.3C44.6,41.3,43,40.9,41.8,41.5z"/>
			<path fill="#0A5A96" d="M46.3,37.4c-1.1,1.1-1.1,3.2,0,4.3c1.1,1.1,3.1,1.1,4.3,0c1.1-1.1,1.1-3.2,0-4.3
				C49.3,36.1,47.5,36.1,46.3,37.4z"/>
			<path fill="#0A5A96" d="M33.5,24.5c0.9-0.9,0.9-2.2,0-3c-0.9-0.9-2.1-0.9-3,0c-0.9,0.9-0.9,2.2,0,3
				C31.3,25.4,32.7,25.4,33.5,24.5z"/>
			<path fill="#0A5A96" d="M55.4,32.5c-0.9-0.9-2.3-0.9-3.1,0c-0.9,0.9-0.9,2.3,0,3.2c0.9,0.9,2.3,0.9,3.1,0
				C56.3,34.7,56.3,33.2,55.4,32.5z"/>
			<path fill="#0A5A96" d="M37.5,20.2c1.5,0,2.6-1.2,2.6-2.7c0-1.5-1.2-2.7-2.6-2.7s-2.6,1.2-2.6,2.7C34.9,19,36,20.2,37.5,20.2z"/>
			<path fill="#0A5A96" d="M55,24.1c0.6-0.6,0.6-1.6,0-2.3c-0.6-0.6-1.6-0.6-2.3,0c-0.6,0.6-0.6,1.6,0,2.3
				C53.4,24.7,54.4,24.7,55,24.1z"/>
			<path fill="#0A5A96" d="M50,19c0.9-0.9,0.9-2.3,0-3.2c-0.9-0.9-2.3-0.9-3.1,0c-0.9,0.9-0.9,2.3,0,3.2S49.1,19.9,50,19z"/>
			<path fill="#0A5A96" d="M44.3,13.3c0.8-0.8,0.8-2,0-2.8c-0.8-0.8-2-0.8-2.8,0c-0.8,0.8-0.8,2,0,2.8
				C42.3,14.1,43.6,14.1,44.3,13.3z"/>
		</g>
	</g>
</g>
<g id="Layer_2">
	<g>
		<polygon fill="#F5333F" points="30.3,14.6 30.3,20.2 39.9,20.2 39.9,45.1 46.8,45.1 46.8,14.6 		"/>
		<g>
			<path fill="#F5333F" d="M52.6,33.8v-5.5h3.2c2.4,0,6.2,0,6.2-4.3c0-3.8-3.3-3.7-5.5-3.7h-3.8v-5.8h4.9c2.9,0,5.8,0.1,8.2,1.8
				c3,2.2,3,5.7,3,6.6c0,4.8-2.9,7.1-5.4,7.4c0.9,0.3,2.2,0.6,3.2,2.4c0.6,1.2,0.7,1.7,1.5,6.3c0.5,2.9,1.1,4.4,2.2,6h-7.3
				c-0.5-0.9-1.1-1.8-1.5-4.2c-0.2-1.1-0.3-2.2-0.5-3.3c-0.7-3.4-2.3-3.7-5-3.7H52.6z"/>
			<path fill="#F5333F" d="M87.2,21.3c-0.4,2-6.7,23.8-6.7,23.8h-7.7l10.5-30.5H91l10.8,30.5h-7.7C94.1,45.1,87.6,23.3,87.2,21.3"/>
		</g>
		<path fill="#F5333F" d="M106.6,14.6h6.6l18.2,30.5h-6.5L106.6,14.6z M106.6,45.1V16.6l6.6,11l0.3,17.5H106.6z"/>
		<g>
			<path fill="#F5333F" d="M136.5,31.9c-2.8-0.6-8.4-2.3-8.4-8.9c0-5.4,3.9-7.3,4.9-7.8c1.6-0.7,3.4-1.3,6.8-1.3v5.5
				c-1.3,0-4.8,0.1-4.8,3c0,2,1.6,2.6,3.6,3.1l4.7,1.1c4.2,1,9.7,2.5,9.7,9.4c0,6.7-5.3,9.7-12,9.9v-5.8c0.7,0,5-0.2,5-3.5
				c0-2.3-2-2.9-3.4-3.3L136.5,31.9z M145.8,24c-0.2-2.7-1.3-4.2-4.8-4.6v-5.6c2.6,0,6.4,0.6,8.8,3.1c2.2,2.2,2.6,5.2,2.8,6.6
				L145.8,24z"/>
		</g>
		<rect x="159.3" y="14.6" fill="#F5333F" width="6.9" height="30.5"/>
		<rect x="188" y="14.6" fill="#F5333F" width="8" height="5.7"/>
		<polygon fill="#F5333F" points="170.9,14.6 170.9,20.2 180,20.2 180,45.1 186.9,45.1 186.9,14.6 		"/>
		<rect x="200.7" y="14.6" fill="#F5333F" width="6.9" height="30.5"/>
		<g>
			<path fill="#F5333F" d="M228.3,45.6c-9.9-0.2-14.6-8.1-14.6-16c0-7.7,4.2-15.5,14.6-16v5.8c-5.8,0.7-7.4,6-7.4,10.1
				c0,1.3,0,4.8,2.3,7.7c1.4,1.8,3,2.3,5,2.5V45.6z M229.5,39.8c2-0.3,3.7-0.7,5.1-2.6c1.9-2.3,2.3-5.1,2.3-7.5
				c0-6.1-2.7-9.6-7.4-10.2v-5.8c12.4,0.8,14.6,10.6,14.6,15.9c0,9-5.5,15.6-14.6,16V39.8z"/>
		</g>
		<path fill="#F5333F" d="M244.6,14.6h6.6l18.2,30.5H263L244.6,14.6z M262.6,14.6h6.8v28.3l-6.6-11.1L262.6,14.6z"/>
		<path fill="#8C9091" d="M254.9,61.1v0.4l0.6,0.1c0.4,0.1,0.5,0.2,0.5,0.8v5.4c0,0.9-0.1,0.9-1.3,1v0.5h4.1v-0.5
			c-1.2-0.1-1.3-0.1-1.3-1v-4c0-0.4,0-0.7,0.1-0.9c0.3-0.7,1.1-1.3,2-1.3c1.5,0,1.6,1.1,1.6,2.1v4c0,0.9,0,0.9-1.3,1v0.5h4.1v-0.5
			c-1.2-0.1-1.3-0.1-1.3-1v-4c0-0.4,0-0.7,0.1-0.9c0.3-0.7,1-1.2,1.9-1.2c1.1,0,1.7,0.6,1.7,2.1v4c0,0.9-0.1,0.9-1.3,1v0.5h4.1v-0.5
			c-1.2-0.1-1.3-0.1-1.3-1v-4.4c0-1.7-0.9-2.7-2.5-2.7c-1.4,0-2.4,0.9-3,1.3c-0.4-0.8-1.1-1.3-2.2-1.3c-1.3,0-2.4,0.8-3,1.3
			l-0.2-1.3L254.9,61.1z M252.6,62.9c0-1-0.2-2.3-2.8-2.3c-1.9,0-3.4,1-3.4,1.9c0,0.5,0.6,0.8,1,0.8c0.4,0,0.5-0.2,0.5-0.5
			c0.4-1.3,1.1-1.7,1.7-1.7c0.7,0,1.4,0.3,1.4,1.7v0.7c-0.4,0.4-2.1,0.9-3.4,1.3c-1.2,0.4-1.6,1.2-1.6,2c0,1.3,0.8,2.4,2.4,2.4
			c1.1,0,2-0.7,2.5-1c0.2,0.6,0.5,1,1.1,1c0.6,0,1.4-0.2,2-0.5l-0.1-0.4c-0.2,0.1-0.6,0.1-0.9,0c-0.3-0.1-0.6-0.4-0.6-1.5V62.9z
			 M251.1,66.8c0,1.4-1.1,1.7-1.7,1.7c-1.1,0-1.6-0.7-1.6-1.8c0-0.8,0.4-1.2,1.3-1.6c0.7-0.3,1.6-0.6,2-0.8V66.8z M241.8,60.7
			l-2.6,0.4v0.4l0.6,0.1c0.4,0.1,0.5,0.2,0.5,0.8v5.4c0,0.9-0.1,0.9-1.3,1v0.5h4.5v-0.5c-1.5-0.1-1.6-0.1-1.6-1v-4
			c0-1.3,0.6-1.7,1-1.7c0.3,0,0.6,0.1,1.1,0.4c0.1,0.1,0.3,0.1,0.3,0.1c0.4,0,0.8-0.4,0.8-1c0-0.4-0.2-0.8-0.9-0.8
			c-0.6,0-1.1,0.4-2.2,1.4L241.8,60.7z M236.2,61.2c-0.5-0.3-1.4-0.5-2.2-0.5c-2.6,0-3.5,1.6-3.5,2.9c0,1.6,1.1,2.3,1.8,2.5v0
			c-0.9,0.4-1.6,0.8-1.6,1.5c0,0.6,0.7,1.2,1.5,1.3v0c-0.7,0.2-2,0.6-2,1.9c0,1.7,1.7,2.5,3.7,2.5c1,0,2.1-0.2,2.9-0.7
			c0.8-0.5,1.3-1.3,1.3-2.3c0-1.8-1.5-2.5-3.3-2.5h-1.4c-1.2,0-1.4-0.4-1.4-0.7c0-0.5,0.6-0.8,0.9-0.8c0.3,0,0.7,0.1,0.9,0.1
			c1.6,0,3.4-0.7,3.4-2.8c0-0.7-0.2-1.3-0.5-1.6l1.3-0.2l0.3-1.1l-0.1-0.2L236.2,61.2z M234.4,72.7c-1.4,0-2.4-0.7-2.4-2
			c0-0.6,0.2-1,0.5-1.3c0.4-0.3,0.9-0.4,1.7-0.4c1.5,0,2.6,0.4,2.6,1.6C236.8,72.1,235.6,72.7,234.4,72.7 M234,61.3
			c0.8,0,1.7,0.6,1.7,2.3c0,1.4-0.7,2.2-1.7,2.2c-1,0-1.8-0.7-1.8-2.2C232.3,61.8,233.1,61.3,234,61.3 M222.3,65
			c0-2.3,0.7-3.8,2.3-3.8c1.6,0,2.3,1.4,2.3,3.8c0,2.3-0.7,3.8-2.3,3.8C223,68.8,222.3,67.4,222.3,65 M224.5,60.7
			c-2.7,0-4.1,1.6-4.1,4.4s1.3,4.4,4.1,4.4c2.8,0,4.1-1.6,4.1-4.4S227.3,60.7,224.5,60.7 M216.2,60.7l-2.6,0.4v0.4l0.6,0.1
			c0.4,0.1,0.5,0.2,0.5,0.8v5.4c0,0.9-0.1,0.9-1.3,1v0.5h4.5v-0.5c-1.5-0.1-1.6-0.1-1.6-1v-4c0-1.3,0.6-1.7,1-1.7
			c0.3,0,0.6,0.1,1.1,0.4c0.1,0.1,0.3,0.1,0.3,0.1c0.4,0,0.8-0.4,0.8-1c0-0.4-0.2-0.8-0.9-0.8c-0.6,0-1.1,0.4-2.2,1.4L216.2,60.7z
			 M206.6,58.7c0-0.5,0.2-0.6,1.3-0.6c1.7,0,2.8,1,2.8,2.9c0,2.1-1.4,2.9-2.9,2.9c-1,0-1.3,0-1.3-0.7V58.7z M206.6,64.4h1
			c0.8,0,1.5-0.1,2.2-0.2c1.3-0.3,2.8-1.3,2.8-3.4c0-1.3-0.6-2.2-1.3-2.7c-0.8-0.5-1.9-0.7-3.1-0.7h-4.7v0.5
			c1.5,0.1,1.5,0.1,1.5,1.1v8.6c0,1,0,1-1.5,1.1v0.5h5v-0.5c-1.7-0.1-1.8-0.1-1.8-1.1V64.4z M197.1,63.4c0-1.7-0.9-2.7-2.5-2.7
			c-1.3,0-2,0.6-3.1,1.3l-0.2-1.3l-2.5,0.4v0.4l0.6,0.1c0.4,0.1,0.5,0.2,0.5,0.8v5.4c0,0.9-0.1,0.9-1.3,1v0.5h4.1v-0.5
			c-1.2-0.1-1.3-0.1-1.3-1v-4c0-0.4,0-0.7,0.2-0.9c0.4-0.7,1.1-1.2,2-1.2c1.2,0,1.8,0.6,1.8,2.1v4c0,0.9-0.1,0.9-1.3,1v0.5h4.1v-0.5
			c-1.2-0.1-1.3-0.1-1.3-1V63.4z M180.7,65c0-2.3,0.7-3.8,2.3-3.8c1.6,0,2.3,1.4,2.3,3.8c0,2.3-0.7,3.8-2.3,3.8
			C181.5,68.8,180.7,67.4,180.7,65 M183,60.7c-2.7,0-4.1,1.6-4.1,4.4s1.3,4.4,4.1,4.4c2.8,0,4.1-1.6,4.1-4.4S185.8,60.7,183,60.7
			 M175.6,57c-0.6,0-1,0.4-1,1.1c0,0.6,0.4,1,1,1c0.6,0,1-0.4,1-1C176.7,57.5,176.3,57,175.6,57 M173.7,61.1v0.4l0.6,0.1
			c0.4,0.1,0.5,0.2,0.5,0.8v5.4c0,0.9-0.1,0.9-1.3,1v0.5h4.1v-0.5c-1.2-0.1-1.3-0.1-1.3-1v-7l-0.1-0.1L173.7,61.1z M172.6,61.5v-0.7
			h-2.2v-2.1h-0.5l-1,2.1h-1.3v0.7h1.2v5.9c0,1.7,1.3,1.9,1.9,1.9c0.9,0,1.7-0.4,2.2-0.7l-0.1-0.4c-0.4,0.2-0.8,0.2-1.2,0.2
			c-0.6,0-1.1-0.4-1.1-1.7v-5.3H172.6z M159.6,65c0-2.3,0.7-3.8,2.3-3.8c1.6,0,2.3,1.4,2.3,3.8c0,2.3-0.7,3.8-2.3,3.8
			C160.4,68.8,159.6,67.4,159.6,65 M161.9,60.7c-2.7,0-4.1,1.6-4.1,4.4s1.3,4.4,4.1,4.4c2.8,0,4.1-1.6,4.1-4.4
			S164.7,60.7,161.9,60.7 M141.8,61.1v0.4l0.6,0.1c0.4,0.1,0.5,0.2,0.5,0.8v5.4c0,0.9-0.1,0.9-1.3,1v0.5h4.1v-0.5
			c-1.2-0.1-1.3-0.1-1.3-1v-4c0-0.4,0-0.7,0.1-0.9c0.3-0.7,1.1-1.3,2-1.3c1.5,0,1.6,1.1,1.6,2.1v4c0,0.9-0.1,0.9-1.3,1v0.5h4.1v-0.5
			c-1.2-0.1-1.3-0.1-1.3-1v-4c0-0.4,0-0.7,0.1-0.9c0.3-0.7,1-1.2,1.9-1.2c1.1,0,1.7,0.6,1.7,2.1v4c0,0.9-0.1,0.9-1.3,1v0.5h4.1v-0.5
			c-1.2-0.1-1.3-0.1-1.3-1v-4.4c0-1.7-0.9-2.7-2.5-2.7c-1.4,0-2.4,0.9-3,1.3c-0.4-0.8-1.1-1.3-2.2-1.3c-1.3,0-2.4,0.8-3,1.3
			l-0.2-1.3L141.8,61.1z M133.8,65c0-2.3,0.7-3.8,2.3-3.8c1.6,0,2.3,1.4,2.3,3.8c0,2.3-0.7,3.8-2.3,3.8
			C134.6,68.8,133.8,67.4,133.8,65 M136.1,60.7c-2.7,0-4.1,1.6-4.1,4.4s1.3,4.4,4.1,4.4c2.8,0,4.1-1.6,4.1-4.4
			S138.9,60.7,136.1,60.7 M127.7,60.7l-2.6,0.4v0.4l0.6,0.1c0.4,0.1,0.5,0.2,0.5,0.8v5.4c0,0.9-0.1,0.9-1.3,1v0.5h4.5v-0.5
			c-1.5-0.1-1.6-0.1-1.6-1v-4c0-1.3,0.6-1.7,1-1.7c0.3,0,0.6,0.1,1.1,0.4c0.1,0.1,0.3,0.1,0.3,0.1c0.4,0,0.8-0.4,0.8-1
			c0-0.4-0.2-0.8-0.9-0.8c-0.6,0-1.1,0.4-2.2,1.4L127.7,60.7z M118.2,58.7c0-0.5,0.2-0.6,1.3-0.6c1.8,0,2.8,1,2.8,2.9
			c0,2.1-1.4,2.9-2.9,2.9c-1,0-1.3,0-1.3-0.7V58.7z M118.2,64.4h1c0.8,0,1.5-0.1,2.2-0.2c1.3-0.3,2.8-1.3,2.8-3.4
			c0-1.3-0.6-2.2-1.3-2.7c-0.8-0.5-1.9-0.7-3.1-0.7H115v0.5c1.5,0.1,1.5,0.1,1.5,1.1v8.6c0,1,0,1-1.5,1.1v0.5h5v-0.5
			c-1.8-0.1-1.8-0.1-1.8-1.1V64.4z M108.7,63.4c0-1.7-0.9-2.7-2.5-2.7c-1.3,0-2,0.6-3.1,1.3l-0.2-1.3l-2.5,0.4v0.4l0.6,0.1
			c0.4,0.1,0.5,0.2,0.5,0.8v5.4c0,0.9-0.1,0.9-1.3,1v0.5h4.1v-0.5c-1.2-0.1-1.3-0.1-1.3-1v-4c0-0.4,0-0.7,0.2-0.9
			c0.4-0.7,1.1-1.2,2-1.2c1.2,0,1.8,0.6,1.8,2.1v4c0,0.9-0.1,0.9-1.3,1v0.5h4.1v-0.5c-1.2-0.1-1.3-0.1-1.3-1V63.4z M92.3,65
			c0-2.3,0.7-3.8,2.3-3.8c1.6,0,2.3,1.4,2.3,3.8c0,2.3-0.7,3.8-2.3,3.8C93,68.8,92.3,67.4,92.3,65 M94.6,60.7
			c-2.7,0-4.1,1.6-4.1,4.4s1.3,4.4,4.1,4.4c2.8,0,4.1-1.6,4.1-4.4S97.3,60.7,94.6,60.7 M87.2,57c-0.6,0-1,0.4-1,1.1c0,0.6,0.4,1,1,1
			c0.6,0,1-0.4,1-1C88.2,57.5,87.8,57,87.2,57 M85.2,61.1v0.4l0.6,0.1c0.4,0.1,0.5,0.2,0.5,0.8v5.4c0,0.9-0.1,0.9-1.3,1v0.5h4.1
			v-0.5c-1.2-0.1-1.3-0.1-1.3-1v-7l-0.1-0.1L85.2,61.1z M84.1,61.5v-0.7h-2.2v-2.1h-0.5l-1,2.1h-1.3v0.7h1.2v5.9
			c0,1.7,1.3,1.9,1.9,1.9c0.9,0,1.7-0.4,2.2-0.7l-0.1-0.4c-0.4,0.2-0.8,0.2-1.2,0.2c-0.6,0-1.1-0.4-1.1-1.7v-5.3H84.1z M76.1,57
			c-0.6,0-1,0.4-1,1.1c0,0.6,0.4,1,1,1c0.6,0,1-0.4,1-1C77.1,57.5,76.7,57,76.1,57 M74.1,61.1v0.4l0.6,0.1c0.4,0.1,0.5,0.2,0.5,0.8
			v5.4c0,0.9-0.1,0.9-1.3,1v0.5h4.1v-0.5c-1.2-0.1-1.3-0.1-1.3-1v-7l-0.1-0.1L74.1,61.1z M72.1,63.2v-2c-0.6-0.4-1.4-0.6-2.2-0.6
			c-1.8,0-3.1,0.9-3.1,2.5c0,1.4,1.2,2,2.6,2.5c0.8,0.2,1.8,0.6,1.8,1.8c0,0.9-0.7,1.4-1.6,1.4c-1.4,0-2.1-1-2.5-2.4h-0.5l0.2,2.2
			c0.6,0.5,1.6,0.8,2.7,0.8c2,0,3.2-1.1,3.2-2.5c0-1.5-0.9-2.2-2.7-2.7c-0.7-0.2-1.8-0.6-1.8-1.5c0-0.9,0.7-1.4,1.5-1.4
			c1.2,0,1.8,0.9,1.9,2H72.1z M64.2,63.4c0-1.7-0.9-2.7-2.5-2.7c-1.3,0-2,0.6-3.1,1.3l-0.2-1.3l-2.5,0.4v0.4l0.6,0.1
			c0.4,0.1,0.5,0.2,0.5,0.8v5.4c0,0.9-0.1,0.9-1.3,1v0.5h4.1v-0.5c-1.2-0.1-1.3-0.1-1.3-1v-4c0-0.4,0-0.7,0.2-0.9
			c0.4-0.7,1.1-1.2,2-1.2c1.2,0,1.8,0.6,1.8,2.1v4c0,0.9-0.1,0.9-1.3,1v0.5h4.1v-0.5c-1.2-0.1-1.3-0.1-1.3-1V63.4z M53.5,62.9
			c0-1-0.2-2.3-2.8-2.3c-1.9,0-3.4,1-3.4,1.9c0,0.5,0.6,0.8,1,0.8c0.4,0,0.5-0.2,0.5-0.5c0.4-1.3,1.1-1.7,1.8-1.7
			c0.7,0,1.4,0.3,1.4,1.7v0.7c-0.4,0.4-2.1,0.9-3.4,1.3c-1.2,0.4-1.6,1.2-1.6,2c0,1.3,0.9,2.4,2.4,2.4c1.1,0,2-0.7,2.5-1
			c0.2,0.6,0.5,1,1.1,1c0.6,0,1.4-0.2,2-0.5l-0.1-0.4c-0.2,0.1-0.6,0.1-0.9,0c-0.3-0.1-0.6-0.4-0.6-1.5V62.9z M52,66.8
			c0,1.4-1.1,1.7-1.7,1.7c-1.1,0-1.6-0.7-1.6-1.8c0-0.8,0.4-1.2,1.3-1.6c0.7-0.3,1.6-0.6,2-0.8V66.8z M42.7,60.7l-2.6,0.4v0.4
			l0.6,0.1c0.4,0.1,0.5,0.2,0.5,0.8v5.4c0,0.9-0.1,0.9-1.3,1v0.5h4.5v-0.5c-1.5-0.1-1.6-0.1-1.6-1v-4c0-1.3,0.6-1.7,1-1.7
			c0.3,0,0.6,0.1,1.1,0.4c0.1,0.1,0.3,0.1,0.3,0.1c0.4,0,0.8-0.4,0.8-1c0-0.4-0.2-0.8-0.9-0.8c-0.6,0-1.1,0.4-2.2,1.4L42.7,60.7z
			 M36.3,58h1c2,0,2.3,0.4,2.5,2.2h0.5v-2.8h-9.8v2.8h0.5c0.2-1.9,0.6-2.2,2.5-2.2h1v9.6c0,1-0.1,1-1.9,1.1v0.5h5.4v-0.5
			c-1.8-0.1-1.9-0.1-1.9-1.1V58z"/>
	</g>
</g>
</svg>
