<svg width="300" height="87" viewBox="0 0 300 87" fill="none" xmlns="http://www.w3.org/2000/svg">
<path d="M188.982 4.61719H151.289V42.3128H188.982V4.61719Z" fill="#0063AC"/>
<path d="M160.848 10.793V25.6197C160.848 33.4648 164.729 36.3757 169.887 36.3757C175.336 36.3757 179.409 33.232 179.409 25.5061V10.793H176.124V25.7297C176.124 31.2675 173.696 33.7257 169.997 33.7257C166.636 33.7257 164.138 31.3327 164.138 25.7297V10.793H160.848Z" fill="white"/>
<path d="M229.002 4.61719H191.309V42.3128H229.002V4.61719Z" fill="#0063AC"/>
<path d="M203.778 36.0566C203.778 36.0566 203.739 18.094 203.55 14.9185L203.665 14.8828C204.903 17.6068 216.324 36.057 216.324 36.057H219.611V10.8848H216.555C216.555 10.8848 216.626 28.3999 216.923 31.7646L216.808 31.798C215.649 29.1876 204.302 10.8848 204.302 10.8848H200.715V36.057H203.778V36.0566Z" fill="white"/>
<path d="M229.002 44.6289H191.309V82.3219H229.002V44.6289Z" fill="#0063AC"/>
<path d="M216.525 52.7217C215.025 51.3764 212.678 50.627 209.461 50.627C206.851 50.627 204.796 50.8545 203.227 51.1524V75.9881H206.476V65.9049C207.228 66.0902 208.12 66.1262 209.093 66.1262C212.269 66.1262 215.064 65.1809 216.781 63.3635C218.09 62.0486 218.76 60.2557 218.76 57.9829C218.76 55.7375 217.902 53.9122 216.525 52.7217Z" fill="white"/>
<path d="M209.165 63.6626C208.116 63.6626 207.182 63.586 206.473 63.403V53.6203C207.034 53.5077 208.116 53.3594 209.533 53.3594C213.118 53.3594 215.475 54.9555 215.475 58.3242C215.475 61.7185 213.118 63.6626 209.165 63.6626Z" fill="#0063AC"/>
<path d="M188.942 44.6641H151.246V82.3584H188.942V44.6641Z" fill="#0063AC"/>
<path d="M177.75 53.6937C175.546 51.6408 172.227 50.5898 167.558 50.5898C164.978 50.5898 162.633 50.8161 160.609 51.118V75.8757C162.29 76.1009 164.197 76.1674 166.549 76.1674C171.437 76.1674 175.322 74.9101 177.719 72.5544C180.026 70.2432 181.332 66.8732 181.332 62.7691C181.332 58.6981 180.026 55.7475 177.75 53.6937Z" fill="white"/>
<path d="M167.183 73.5649C165.909 73.5649 164.718 73.5649 163.898 73.41V53.5071C164.758 53.3231 166.029 53.1758 167.705 53.1758C174.575 53.1758 177.941 56.8732 177.9 62.8802C177.9 69.6756 174.126 73.5983 167.183 73.5649Z" fill="#0063AC"/>
<path d="M149.109 4.61719H71.3594V82.3844H149.109V4.61719Z" fill="#0063AC"/>
<path d="M138.054 45.1095C136.966 46.6493 135.651 48.0945 134.643 49.669C134.756 48.4245 134.904 46.8913 134.415 45.708C133.579 43.1706 132.842 40.5923 132.609 37.804L132.632 36.7373C133.266 39.5855 136.065 41.5463 135.886 44.7386C135.95 45.5149 135.71 46.1657 135.568 46.85L135.617 46.8998L135.744 46.7577C136.157 45.1937 136.364 43.5439 137.009 42.082C137.927 39.982 139.068 37.859 138.602 35.3203C139.999 38.3145 139.581 42.3112 138.054 45.1095Z" fill="white"/>
<path d="M136.334 28.9733C138.172 31.461 138.577 35.4181 137.236 38.2675C136.745 39.4786 136.388 40.7653 136.193 42.1018C136.096 41.8743 136.077 41.5632 135.996 41.3036C135.267 38.5167 132.627 36.528 131.538 33.8959C131.198 33.0339 130.906 32.145 130.742 31.2102C131.898 33.3538 134.758 34.465 135.539 36.8272C135.86 37.4297 135.843 38.1726 136.034 38.8159C136.077 38.8159 136.119 38.7851 136.119 38.7442C135.777 36.308 135.879 33.7588 136.214 31.3572C136.193 30.0515 136.068 28.7877 135.341 27.7812C135.807 28.051 136.019 28.5703 136.334 28.9733Z" fill="white"/>
<path d="M135.041 28.5003C135.525 30.6769 134.825 32.8001 135.269 34.9974L135.247 35.0154C134.064 32.6878 131.549 31.589 129.818 29.7231C128.811 28.6142 128.378 27.2649 128.133 25.8364C129.125 28.2295 131.796 28.7589 133.33 30.7679C133.847 31.2335 134.016 31.8781 134.346 32.4089L134.4 32.3525C133.515 30.4686 133.216 28.3431 132.612 26.3351C132.295 25.4642 131.683 24.6047 130.862 24.0547C132.878 24.4692 134.626 26.5718 135.041 28.5003Z" fill="white"/>
<path d="M129.652 23.5032C131.172 24.8603 131.858 26.6237 132.307 28.4477L132.552 29.0259C130.346 27.4439 128.347 25.3069 126.936 23.0595L125.215 21.3164C126.729 21.9581 128.359 22.3419 129.652 23.5032Z" fill="white"/>
<path d="M100.827 21.8156C103.697 20.3999 106.836 19.6413 110.253 19.5801C118.064 19.5902 125.526 24.1766 128.925 31.409C131.079 35.5642 131.691 41.2863 130.295 45.9775C128.874 51.5205 124.211 57.1274 118.781 59.4078C112.67 62.4019 103.983 61.6535 98.535 57.7465C90.9611 52.5603 87.8634 43.6139 90.1527 34.7856C91.5429 29.5445 95.7173 24.2522 100.827 21.8156Z" fill="white"/>
<path d="M94.835 21.6094C93.3119 22.9446 92.2553 24.634 91.1274 26.2085C90.1118 27.4605 88.8188 28.2892 87.6641 29.3673C88.2881 28.0832 88.3114 26.5487 89.1911 25.3693C90.4457 23.18 92.7671 22.4151 94.835 21.6094Z" fill="white"/>
<path d="M86.5084 26.258C87.2424 25.3373 88.1863 24.6952 89.2416 24.4277C87.1966 25.8333 87.3246 28.3632 86.6721 30.4681C86.4635 31.2431 86.103 31.9618 85.9266 32.7547L85.9816 32.7983C86.3244 31.894 86.9229 31.0486 87.6648 30.3119C89.128 28.9653 91.2843 28.1261 92.0003 26.1348C91.9696 28.9024 89.6561 31.0741 87.4523 32.632C86.5339 33.4302 85.6581 34.3433 85.1591 35.3652C85.1067 34.672 85.2652 33.9684 85.2128 33.2229C84.9738 30.8083 84.7986 28.0508 86.5084 26.258Z" fill="white"/>
<path d="M82.3588 34.5192C82.2924 32.0724 83.3077 30.0749 84.7427 28.2512C84.7771 28.2296 84.8118 28.1887 84.8616 28.1962C83.2883 30.5902 84.5891 33.606 84.5201 36.3317L84.3128 39.1186C84.3384 39.1379 84.3384 39.2208 84.415 39.1903C84.507 38.8832 84.5302 38.5496 84.5888 38.2274C84.9624 35.9778 86.9115 34.383 88.6212 32.8291C88.9882 32.4286 89.3002 32.0092 89.4921 31.5387C89.3579 32.6539 89.0036 33.7831 88.538 34.8204C87.213 37.4102 84.7548 39.5321 84.3125 42.4965C84.0954 39.6592 82.1542 37.5349 82.3588 34.5192Z" fill="white"/>
<path d="M81.1626 37.9977C81.3391 37.2329 81.4799 36.4425 81.8099 35.7402C81.1744 38.9747 83.3524 41.3036 84.0661 44.1121C84.3654 45.1559 84.442 46.2877 84.8653 47.2709C84.9075 47.2925 84.9406 47.2493 84.9688 47.2185C83.9021 44.2362 85.4343 41.4686 86.9768 39.1368C87.3503 38.5036 87.57 37.799 87.7544 37.0777C87.9181 38.423 87.5818 39.9795 87.3808 41.3763C87.0098 43.1577 86.4496 44.8448 85.9638 46.5791C85.6403 47.6534 85.7248 48.8762 85.8921 50.0055L85.7359 49.8814C84.6001 47.7994 82.3672 46.1738 81.7071 43.8947C81.1548 42.0802 80.7917 39.9802 81.1626 37.9977Z" fill="white"/>
<path d="M81.0604 44.3201C81.3112 47.7514 84.9995 49.5639 86.7109 52.4019C87.1149 52.9837 87.4668 53.6244 88.0038 54.1093C87.9193 53.7485 87.5805 53.4365 87.4551 53.0646C86.8526 51.8738 86.6378 50.4554 86.7822 49.0142C86.9512 47.2632 87.6826 45.6353 87.405 43.791C88.9051 47.0356 88.4497 51.0785 89.2889 54.588C89.5076 55.3554 89.9525 56.0384 90.2429 56.7751C87.1529 54.6698 82.9466 52.6697 81.5767 48.8174C80.9992 47.4891 80.9376 45.8432 81.0604 44.3201Z" fill="white"/>
<path d="M82.8984 52.1933C84.6213 56.0888 88.9274 56.4113 91.823 58.7837C92.3485 59.2506 92.9152 59.6533 93.5111 59.9362L93.5419 59.9028C92.8743 59.3017 92.1121 58.6187 91.6439 57.8411C89.9557 55.4903 90.549 52.1933 89.2829 49.666C90.4341 51.0421 91.4802 52.4706 92.1759 54.0376C93.2118 56.5878 93.6031 59.4667 96.0014 61.3955C93.4037 60.5462 90.3729 60.7855 88.0911 59.1894C85.5956 57.6555 83.3666 55.0542 82.8984 52.1933Z" fill="white"/>
<path d="M87.3281 59.4565C90.0816 62.5976 94.595 61.5489 98.2695 62.3674C98.7848 62.4428 99.2658 62.6474 99.8158 62.5645C99.3784 62.2856 98.7698 62.3177 98.2914 62.0682C95.4112 61.0503 94.9852 57.932 93.4199 55.832C95.4227 57.1584 97.0967 58.9477 98.9449 60.6793C100.273 61.838 101.862 62.3753 103.541 62.7217C103.141 62.8651 102.609 62.8239 102.175 62.9378C99.161 63.6859 95.8025 64.897 92.6001 63.8061C90.5204 63.1539 88.3742 61.5093 87.3281 59.4565Z" fill="white"/>
<path d="M124.768 66.7712C121.661 67.9339 118.415 66.7202 115.99 64.8785C115.009 64.2531 114.139 63.3528 112.863 63.4395C112.406 63.4268 111.957 63.4484 111.569 63.5636C113.93 64.6611 116.12 66.1727 118.127 68.1103C117.785 68.4928 117.352 68.8545 116.937 69.1872C115.009 67.1088 112.863 65.1021 110.468 63.9346C110.006 63.9948 109.555 64.2761 109.136 64.5C107.184 65.7353 105.255 67.3239 103.81 69.2602L102.562 68.2344C104.552 66.2264 106.752 64.6611 109.151 63.5394C106.793 62.7952 105.251 64.7711 103.459 65.7789C101.364 67.2394 98.3596 67.9237 95.8271 66.9183C94.469 66.4016 93.1593 65.643 92.1719 64.409C94.1645 65.7789 97.1239 65.9246 99.3837 65.0343C102.421 63.7172 105.565 62.0507 109.223 62.8446C109.797 62.8574 110.356 63.4264 110.895 62.9406C113.609 62.2347 116.684 62.7232 119.027 63.965L121.439 64.9279C123.68 65.7566 126.58 65.5304 128.498 64.1592C127.514 65.3912 126.166 66.2749 124.768 66.7712Z" fill="white"/>
<path d="M128.107 63.5602C124.609 64.8764 121.102 63.2623 117.757 62.7201L117.113 62.6356V62.6189C118.709 62.2558 120.262 61.7775 121.539 60.625C123.412 58.8229 125.078 56.9711 127.165 55.5488C125.618 57.53 125.457 60.346 122.906 61.62C122.27 62.0345 121.477 62.1059 120.822 62.4218C121.755 62.4421 122.605 62.1059 123.528 62.0139C126.949 61.4792 130.862 62.0266 133.257 59.1133C132.363 61.142 130.141 62.8442 128.107 63.5602Z" fill="white"/>
<path d="M130.043 60.0078C128.265 60.4849 126.359 60.6397 124.625 61.2291C127.558 58.7133 127.395 54.8178 129.352 51.8531C129.971 51.0116 130.489 50.1289 131.217 49.3359C130.029 51.729 130.542 54.8253 129.176 57.1476C128.648 58.0634 127.892 58.9585 127.059 59.6876C127.334 59.6723 127.573 59.4395 127.807 59.2823C130.035 57.0648 132.938 56.4417 135.34 54.6383C136.304 53.8709 137.188 52.8684 137.612 51.7823C137.154 55.4572 133.497 58.9077 130.043 60.0078Z" fill="white"/>
<path d="M134.445 53.7382C133.068 54.6386 131.669 55.4751 130.344 56.5009V56.3834C132.377 53.0045 131.38 48.3694 132.63 44.6631L133.099 43.4199C132.84 45.7285 133.843 47.6877 133.776 50.0077C133.7 51.4081 133.244 52.6512 132.508 53.7677H132.63C133.625 52.4656 134.406 51.078 135.567 49.8312C137.369 48.093 139.202 46.3116 139.441 43.897C140.051 47.9254 137.792 51.4555 134.445 53.7382Z" fill="white"/>
<path d="M118.854 53.4699L118.999 53.2692C119.621 52.7847 120.293 52.3253 120.843 51.7255H120.918C120.789 51.6859 120.633 51.81 120.492 51.7484C120.197 51.6142 120.149 51.3532 120.149 51.054L118.876 49.7368L118.806 49.541C118.709 49.7905 118.52 49.945 118.338 50.1281C118.347 50.297 118.286 50.5475 118.485 50.6588C118.898 50.7943 119.437 51.0654 119.529 51.5503C119.361 52.008 118.492 52.4212 119.029 52.9189C119.204 53.1654 118.784 53.2587 118.854 53.4699Z" fill="#0063AC"/>
<path d="M111.446 36.6539C111.687 36.7869 111.819 36.5413 112.022 36.4889C112.308 36.5197 112.533 36.7702 112.71 36.9545C112.894 37.0363 113.073 36.9237 113.238 36.8625C113.355 36.0017 114.432 36.1258 114.751 35.3201L114.554 35.3931C114.472 35.2768 114.266 35.3279 114.278 35.1436C114.452 34.9724 114.681 34.714 114.897 34.6449C113.968 34.0618 113.004 33.5655 111.945 33.2996C111.531 33.2024 111.093 33.1922 110.699 33.0488C110.899 33.6398 110.725 34.5081 110.848 35.195L111.588 35.4406C111.812 35.0797 112.287 35.011 112.492 34.6656C112.625 34.5516 112.782 34.6656 112.889 34.7897C112.923 35.0686 112.847 35.3486 112.762 35.617C112.483 36.1782 111.819 36.246 111.446 36.6539Z" fill="#0063AC"/>
<path d="M122.486 43.6131C122.049 45.0033 121.541 46.3591 120.669 47.5715C120.33 48.0063 119.993 48.61 119.555 48.835L120.495 49.6649C120.544 49.6139 120.515 49.5294 120.529 49.459C120.529 49.3349 120.587 49.1892 120.743 49.2069C121.197 49.1981 121.205 49.6852 121.466 49.9347C121.411 50.3286 121.757 50.6393 121.642 51.0027C124.254 48.2453 125.562 44.8691 125.801 41.1281L125.943 40.9631C125.01 41.0538 124.027 40.9899 123.065 41.004L122.835 40.9336C122.9 41.5642 122.732 42.1755 122.693 42.7969L123.029 43.1678C123.129 43.3135 123.093 43.5322 122.96 43.6436C122.812 43.7411 122.628 43.731 122.486 43.6131Z" fill="#0063AC"/>
<path d="M119.993 34.4426C119.645 33.7812 119.086 33.1906 118.607 32.5996L118.557 32.7276C117.601 33.7187 116.554 34.7445 115.645 35.7627C115.703 35.8842 115.806 36.0007 115.926 36.0607C115.963 35.8138 116.101 35.5938 116.124 35.3354C116.368 34.9953 116.745 35.2114 117.064 35.2844C117.56 35.1691 118.027 35.3996 118.535 35.3918C118.909 35.5735 118.941 36.0518 119.284 36.2371C119.376 36.3687 119.302 36.5288 119.178 36.6323C119.284 37.4086 119.654 36.4237 120.049 36.612C120.213 36.6736 120.421 36.6516 120.543 36.8268C120.605 37.149 121 37.0904 121.021 37.3971C120.989 37.5507 120.824 37.5942 120.714 37.6797C120.814 37.9878 120.402 38.1849 120.543 38.5162C121.144 38.6302 121.165 37.9344 121.443 37.626C121.289 37.09 121.174 36.5377 120.867 36.0607C120.527 35.9903 120.321 35.5836 119.976 35.5132C119.312 35.2506 120.08 34.8391 119.993 34.4426Z" fill="#0063AC"/>
<path d="M110.75 56.0806C111.518 55.8209 112.41 55.8605 113.239 55.7263C113.075 55.6638 112.906 55.6264 112.781 55.4578C112.295 55.4257 112.064 54.9218 111.914 54.5332C111.84 54.2582 112.029 54.0293 112.141 53.789C111.937 53.3657 111.292 53.6715 110.916 53.5205C110.814 53.4361 110.74 53.3107 110.598 53.2891L110.75 53.5205C110.75 54.3705 110.854 55.2401 110.75 56.0806Z" fill="#0063AC"/>
<path d="M111.422 47.9963C111.691 48.0473 111.5 48.3404 111.699 48.4451C112.122 48.307 112.448 48.8046 112.786 48.4936C112.768 48.0064 113.319 48.0473 113.617 47.9232C114.087 47.6443 114.612 47.271 114.561 46.6493L114.482 46.5586C114.162 46.5586 113.998 46.8055 113.765 47.0013C113.469 47.1702 113.323 46.6905 113.088 46.8055C113.098 46.8565 113.15 46.8798 113.195 46.8975C113.251 46.9728 113.274 47.1263 113.195 47.202C112.839 47.5218 112.674 47.0422 112.341 47.0726V47.202C112.354 47.271 112.322 47.386 112.221 47.3427C112.009 47.0013 111.585 47.1266 111.377 46.8287C111.246 46.7557 111.118 46.848 111.026 46.9299C110.955 47.087 110.622 46.9106 110.704 47.182C110.448 47.2714 110.419 47.5503 110.231 47.718C109.905 47.6629 109.765 48.0287 109.461 48.0211C109.492 48.0814 109.461 48.1861 109.552 48.1937C109.742 48.2768 109.927 48.2948 110.158 48.2667C110.466 47.7713 110.986 48.1855 111.422 47.9963Z" fill="#0063AC"/>
<path d="M114.477 43.9495C114.492 44.103 114.515 44.3103 114.646 44.4419C115.05 44.3829 114.877 44.9405 115.247 44.8921C115.456 44.8295 115.261 44.6531 115.318 44.5185C115.261 44.2065 114.958 44.1744 114.748 43.9878C114.725 43.9275 114.771 43.8751 114.796 43.8254C114.646 43.7409 114.574 43.8355 114.477 43.9495Z" fill="#0063AC"/>
<path d="M114.009 29.6463C112.957 29.2753 111.811 29.1169 110.668 28.9453L110.773 29.1716L110.751 31.9775L111.024 31.9251C112.74 32.1618 114.313 32.7141 115.674 33.8204L115.748 34.0405C116.207 33.3856 116.914 32.8254 117.462 32.2063L117.984 31.9044L117.734 31.8023C116.592 30.8499 115.355 30.1273 114.009 29.6463Z" fill="#0063AC"/>
<path d="M94.7364 41.2125L94.9627 43.1206C95.052 43.8547 95.3772 44.5596 95.3539 45.2845C95.4665 45.1296 95.3961 44.8163 95.6787 44.7858C95.5612 44.5596 95.8948 44.3638 95.7069 44.1654C95.7989 43.669 95.8578 43.1589 96.2978 42.7994C96.8299 42.7765 96.8682 42.0794 97.3976 42.0487C97.6661 42.0385 97.8324 42.4016 97.9512 42.5257C97.615 42.1253 97.6327 41.4616 97.7171 41.0039L97.4896 41.11C96.5254 41.0884 95.5225 41.1663 94.6094 41.0357L94.7364 41.2125Z" fill="#0063AC"/>
<path d="M113.312 46.0608C113.558 45.8025 114.081 45.814 114.104 45.4417C113.742 45.3841 113.558 45.5838 113.312 45.7819C113.277 45.8601 113.165 46.0058 113.312 46.0608Z" fill="#0063AC"/>
<path d="M119.906 40.8613L120.224 41.1799C120.543 41.3973 120.33 41.8616 120.668 42.0495C121.07 42.2554 121.219 42.7236 121.398 43.0753C121.458 42.9833 121.458 42.8693 121.49 42.7747C121.633 42.2057 121.611 41.5649 121.788 41.0047C121.165 41.0352 120.449 41.0967 119.906 40.8613Z" fill="#0063AC"/>
<path d="M115.726 48.1202C116.078 48.2122 116.32 48.6509 116.761 48.5153C117.136 48.3068 117.757 48.6394 118.006 48.2456C117.966 47.8618 118.297 47.5819 118.465 47.2519L118.586 47.2198C118.795 47.4359 118.783 47.7607 118.878 47.9961C119.164 47.6867 119.393 47.3426 119.654 47.024C120.337 46.0277 120.92 44.961 121.166 43.8242C120.888 43.8331 120.607 43.8805 120.351 43.965C120.049 43.9483 119.685 44.1222 119.425 43.9139C119.336 43.8334 119.27 43.9575 119.284 44.0406C119.177 44.1955 119.072 44.3897 118.834 44.3196C118.649 44.2364 118.649 44.0406 118.586 43.8949C118.596 44.0102 118.557 44.1123 118.534 44.2158C118.319 44.4411 118.242 44.6621 118.09 44.9089C117.873 45.1479 117.521 45.0638 117.291 45.2606C117.249 45.7592 116.7 45.6531 116.389 45.8132C116.369 45.8735 116.44 45.8823 116.471 45.936C116.619 45.9769 116.815 45.9769 116.919 45.8312C117.353 45.9475 117.26 45.3991 117.513 45.2098C117.729 45.179 117.936 44.9937 118.159 45.1407C118.392 45.4171 118.442 45.8211 118.41 46.1845C118.159 46.4314 118.288 46.8367 118.111 47.1271C118.15 47.4712 117.736 47.6248 117.79 47.9673C117.658 48.1208 117.425 48.145 117.218 48.145C116.405 47.8343 115.54 47.6346 114.628 47.5505C114.545 47.5825 114.494 47.6552 114.506 47.7499C114.881 47.9463 115.334 47.9565 115.726 48.1202Z" fill="#0063AC"/>
<path d="M109.549 57.198L109.656 57.0408L109.334 57.1253C105.294 56.8476 101.72 55.4191 98.7684 52.5645L98.735 52.6898L96.6016 54.8347C99.8321 57.6344 103.48 59.4378 107.644 60.0081C108.309 60.1194 109.069 60.0579 109.706 60.255L109.549 60.0081V57.198Z" fill="#0063AC"/>
<path d="M105.371 46.0275C106.484 46.9433 107.725 47.5084 109.104 47.749C109.176 47.4701 109.063 47.1185 109.208 46.8794C109.311 46.6493 109.587 46.6594 109.799 46.699C109.921 46.6902 109.998 46.5366 109.921 46.4293C109.622 46.3716 109.76 46.0393 109.652 45.851C109.667 45.7489 109.841 45.7692 109.799 45.6323C109.587 45.4673 109.9 45.2833 109.726 45.1068C109.775 45.0712 109.814 45.0096 109.866 44.9752C109.238 45.2388 108.571 44.8551 108.017 44.6095C107.744 44.4497 107.352 44.3001 107.293 43.9648C106.848 44.6901 105.993 45.3537 105.371 46.0275Z" fill="#0063AC"/>
<path d="M104.308 42.7969C104.207 42.7432 104.193 42.756 104.111 42.8454C104.061 42.8454 103.998 42.8581 103.957 42.8274C103.957 42.2364 103.294 42.5893 103.047 42.2812C103.336 42.8146 103.492 43.4285 103.789 43.9645C103.978 44.4415 104.39 44.8164 104.579 45.2829C104.775 44.9094 105.17 44.6088 105.451 44.2663C105.472 44.1128 105.439 43.9759 105.35 43.8636C105.262 43.6436 105.346 43.3355 105.175 43.1499C104.911 43.2432 105.274 43.5107 105.157 43.6691C105.044 43.7408 104.919 43.6436 104.911 43.5411C104.671 43.5028 104.484 43.2916 104.41 43.0742C104.61 42.9505 104.36 42.8981 104.308 42.7969Z" fill="#0063AC"/>
<path d="M106.298 43.0977C106.233 43.3547 106.06 43.5812 105.871 43.7692L105.903 43.7895C106.153 43.6117 106.333 43.2944 106.651 43.2741L106.298 43.0977Z" fill="#0063AC"/>
<path d="M109.306 53.1688C106.786 53.0434 104.581 52.1227 102.622 50.6582C102.684 50.9064 103.013 51.0675 102.921 51.3756C102.745 51.6581 102.383 51.6633 102.095 51.6581C101.501 51.5622 101.065 52.0097 100.511 52.0687C100 52.2258 99.8236 51.6031 99.3594 51.6581C102.237 54.1713 105.53 55.7455 109.389 55.954L109.679 56.1511L109.551 55.7995V53.0627L109.306 53.1688Z" fill="#0063AC"/>
<path d="M98.1132 51.8212C97.7589 51.5717 97.4456 51.1703 97.1503 50.8249C96.8075 50.7329 96.4519 50.4948 96.2781 50.1648C96.1759 50.0473 96.2705 49.8449 96.1566 49.7608L96.0263 49.9156C95.6645 50.0908 95.5352 49.7176 95.2857 49.564C94.9609 49.3902 95.1207 48.7763 94.682 48.8889C94.5182 48.8814 94.4646 48.6944 94.3611 48.5923C93.9607 48.6306 93.8546 48.1856 93.6359 47.9695C93.5936 48.0628 93.6359 48.1856 93.5131 48.2472C93.0963 48.3418 92.9555 47.834 92.6717 47.6244C92.5973 47.6565 92.5489 47.7433 92.4415 47.7204C92.1972 47.503 92.0296 47.1896 92.0168 46.8508C91.6767 46.4618 91.8328 45.8545 91.8967 45.3863C91.9592 45.2622 92.137 45.1918 92.1013 45.0373C92.1972 44.8185 92.4261 44.7969 92.6435 44.7865C92.7267 44.83 92.8098 44.9105 92.8481 44.9858C92.9837 44.9014 93.2869 44.9934 93.1703 44.6928C93.3442 44.5393 93.6077 44.4843 93.8467 44.4433C94.0117 44.6532 94.0923 44.8909 94.3136 45.0854L94.1692 44.8591C93.9197 43.8435 93.7243 42.8089 93.6667 41.7091C93.6781 41.6476 93.5386 41.6171 93.6169 41.5569L93.6362 41.5864C93.649 41.3575 93.631 41.1604 93.667 41.0059L93.388 41.1106L90.5078 41.0903C90.6741 44.4027 91.5526 47.4185 93.0479 50.1874C93.7819 51.5534 94.8601 52.7851 95.8001 54.0613L97.8618 51.9256L98.1132 51.8212Z" fill="#0063AC"/>
<path d="M101.431 27.6296C100.787 28.0745 100.198 28.6553 99.5352 29.0492C100.304 29.5338 100.934 30.3461 101.628 30.9842L101.701 31.1823C103.464 29.4941 105.607 28.5106 107.92 28.0336C108.465 27.9786 109.018 27.7946 109.551 27.9108C109.514 26.9233 109.427 25.8979 109.529 24.9219C106.527 25.101 103.84 26.0118 101.431 27.6296Z" fill="#0063AC"/>
<path d="M98.9643 38.4456C98.8517 38.9432 98.9146 39.5211 98.7148 39.9893C99.0819 39.8203 99.6064 39.8858 100.01 39.9369C99.775 39.8128 99.9734 39.5136 99.8339 39.3446C99.8032 39.0902 99.7596 38.7677 100.01 38.5991C99.9822 38.1745 100.434 37.9571 100.48 37.5733C100.591 37.1398 101.087 37.4326 101.328 37.2024C101.484 37.1179 101.348 36.9748 101.348 36.8609C101.555 36.577 101.878 36.5911 102.123 36.4336C102.302 36.1652 102.53 35.8747 102.819 35.7137C103.442 35.733 103.453 34.8608 104.041 34.8388C103.234 34.2275 102.467 33.4103 101.752 32.7031C100.325 34.4145 99.3481 36.2984 98.9643 38.4456Z" fill="#0063AC"/>
<path d="M99.3559 42.6484C99.3853 42.4618 99.109 42.413 99.1345 42.2264C99.3339 41.8413 99.1447 41.2212 99.6551 41.0549C99.2943 41.1164 98.9722 41.1891 98.6641 40.9629L98.8111 41.2111C98.8353 41.894 99.109 42.5462 98.9607 43.242C99.0782 43.0449 99.109 42.7751 99.3559 42.6484Z" fill="#0063AC"/>
<path d="M102.21 50.129L102.172 50.0586L102.21 50.1866V50.129Z" fill="#0063AC"/>
<path d="M98.7635 29.9168L97.6431 31.3417C95.8102 33.8562 94.938 36.7669 94.6797 39.9388L97.5203 39.8851L97.7888 39.9912C97.6748 39.9146 97.703 39.7931 97.6647 39.6906C97.8948 36.7364 98.9281 34.1054 100.967 31.9071C100.182 31.2268 99.4451 30.5003 98.7785 29.7227L98.7635 29.9168Z" fill="#0063AC"/>
<path d="M107.519 49.2914C107.746 49.0498 108.015 48.8887 108.296 48.7849C107.377 48.9729 106.565 48.3092 105.78 47.9461C105.334 47.6135 104.753 47.3437 104.485 46.8477C103.871 47.5932 103.148 48.3695 102.426 48.9604C102.742 48.9807 102.922 49.3353 103.191 49.4912C104.746 50.7841 106.682 51.4081 108.482 51.8521L107.99 51.6219C107.615 51.1999 107.085 50.7013 107.066 50.1129C107.438 49.9846 107.396 49.573 107.519 49.2914Z" fill="#0063AC"/>
<path d="M100.431 41.0562L100.351 41.6036C100.224 41.9271 99.8214 41.6855 99.637 41.9068C99.5028 42.1127 99.6423 42.3301 99.7572 42.4952C99.4681 43.1588 100.415 43.3687 100.401 43.9672C100.692 44.3408 100.361 44.8777 100.776 45.2104C100.867 45.8845 100.683 46.7976 101.274 47.3244L101.379 47.9691C101.499 48.4127 100.847 48.2965 100.931 48.693C101.061 48.6305 101.085 48.7978 101.098 48.8374V48.8171C101.896 47.8964 102.817 46.9217 103.758 46.1045L103.367 45.7093C102.63 44.6096 102.05 43.4378 101.77 42.154L101.471 42.0004C101.458 42.3305 101.302 42.5901 101.325 42.9211L101.222 43.0452C101.006 43.0377 100.868 42.8599 100.683 42.7446C100.639 42.6307 100.525 42.4467 100.704 42.3534C100.807 42.3445 100.878 42.3737 100.955 42.4225C101.045 42.3098 101.006 42.1461 101.061 42.0004C101.085 41.751 100.867 41.5234 101.022 41.3047C101.222 41.2854 101.368 41.5234 101.448 41.6563C101.648 41.7179 101.804 41.5565 101.968 41.4812C101.968 41.3047 102.213 41.0654 101.945 40.9645C102.093 40.5592 101.988 40.1345 101.922 39.742C101.813 39.3992 101.428 39.4607 101.149 39.4925C100.309 39.7596 101.285 40.3942 101.078 40.9108C100.959 41.2124 100.65 40.9334 100.431 41.0562Z" fill="#0063AC"/>
<path d="M126.983 41.0043L126.811 40.8789L126.912 41.1588C126.75 44.6081 125.598 47.6533 123.625 50.3633C123.247 50.8161 122.889 51.3737 122.406 51.6959C123.197 52.3163 124.068 53.2497 124.716 53.9674L124.797 53.8112C127.97 50.1944 129.772 46.0045 129.969 41.1585L130.095 40.9103L129.941 40.9856L126.983 41.0043Z" fill="#0063AC"/>
<path d="M98.9099 28.321L98.9597 28.1776C101.986 25.4228 105.508 23.9085 109.545 23.7219L109.455 23.475L109.423 20.9851L109.508 20.6973C105.342 20.8623 101.643 22.2819 98.3638 24.6442C97.7283 25.0803 97.1694 25.7417 96.5273 26.1175H96.6157C97.4379 26.7144 98.2155 27.5765 98.9099 28.321Z" fill="#0063AC"/>
<path d="M109.41 29.026C106.778 29.2152 104.494 30.3101 102.496 31.9612C103.286 32.5047 103.987 33.3871 104.703 34.0177C104.755 33.9486 104.808 33.8756 104.86 33.7914C105.845 33.0904 106.864 32.4484 108.022 32.157C108.535 32.1033 109.047 31.8577 109.584 31.9779C109.473 31.0032 109.473 29.929 109.584 28.9238L109.41 29.026Z" fill="#0063AC"/>
<path d="M109.549 33.1289C107.884 33.3476 106.349 33.918 105.129 35.2122H105.353C105.605 35.4617 106.005 35.4093 106.196 35.7429C106.289 35.9296 106.018 35.908 106.028 36.0615C106.082 36.1064 106.156 36.1139 106.196 36.1856C106.391 36.2547 106.349 36.073 106.426 35.9911C106.68 35.7328 106.725 36.2393 106.972 36.2393C107.148 36.124 107.397 36.1139 107.519 36.311C107.688 36.1653 108.041 36.2982 108.092 36.0334C108.417 35.6892 108.238 35.1638 108.714 34.945C108.88 35.0344 108.704 35.1932 108.766 35.3389C109.085 35.4718 109.448 35.0665 109.706 35.3913C109.472 34.7162 109.527 33.8744 109.549 33.1289Z" fill="#0063AC"/>
<path d="M109.658 37.7735C109.35 38.2888 108.83 38.4041 108.344 38.5498C108.207 38.7148 108.239 39.0792 107.919 39.0448C107.816 39.2763 107.463 39.4092 107.597 39.7419C107.428 40.0922 107.509 40.5502 107.421 40.934C106.81 41.3177 106.981 40.4248 106.677 40.2382L106.567 40.4147C106.45 40.4455 106.366 40.3725 106.28 40.2919C106.188 40.2536 106.029 40.2254 105.948 40.3122C105.813 40.5411 105.606 40.7267 105.658 41.0361C105.597 41.2201 105.285 41.1589 105.328 41.3583C105.671 41.3481 106.04 41.2866 106.373 41.2126C106.615 41.2741 106.809 41.0986 107.048 41.0898C107.126 41.1307 107.229 41.2126 107.193 41.3367H107.277C107.44 41.2126 107.509 41.022 107.44 40.8416C107.462 40.6216 107.7 40.6216 107.842 40.5591C107.976 40.6216 107.893 40.7549 107.919 40.8636C108.383 41.0361 107.804 41.3789 107.738 41.6258C107.616 41.8239 107.738 42.2704 107.347 42.2076C107.277 42.1873 107.228 42.113 107.246 42.0285H107.192C107.182 42.1974 107.308 42.4224 107.471 42.4954C107.758 42.2573 107.769 41.8533 108.19 41.8009C108.402 41.5747 108.093 41.2204 108.417 41.0361C108.955 41.022 109.528 40.7971 109.957 41.2306C109.925 41.4172 109.856 41.5056 110.011 41.6579C109.904 41.8959 109.837 42.1542 109.637 42.3536C109.687 42.4865 109.649 42.6515 109.527 42.7449C109.387 43.3781 108.663 43.0749 108.238 43.2962C108.89 43.7913 109.678 43.9766 110.525 43.9167C110.97 43.8964 110.775 43.3463 111.003 43.0994C111.146 42.3742 111.813 42.8693 112.218 42.6722C112.372 42.3641 112.527 42.0622 112.566 41.7102C112.31 41.5452 112.208 41.2306 112.288 40.934C112.113 40.6949 112.131 40.2588 111.745 40.2166C111.69 40.1347 111.736 40.0274 111.789 39.971C111.782 39.7422 112.006 39.6692 112.069 39.4927C111.834 39.3378 111.896 38.995 111.913 38.7956C111.507 38.9132 111.468 38.3851 111.168 38.2711C111.095 38.0308 110.836 37.9899 110.63 37.9503C110.132 38.1883 110.051 37.5754 109.678 37.431C109.637 37.3171 109.548 37.1511 109.678 37.0587C109.864 36.9003 110.11 37.0371 110.327 37.0244L110.155 36.9324C109.99 36.747 109.625 36.862 109.409 36.9324C109.618 37.1403 109.528 37.5138 109.658 37.7735Z" fill="#0063AC"/>
<path d="M93.6897 39.9685L93.6193 39.5618C93.8174 36.2556 94.8713 33.3142 96.7284 30.6848C97.1913 30.154 97.5341 29.494 98.1159 29.0975C97.4418 28.4669 96.7411 27.7302 96.03 27.0371L95.9596 26.7559C93.0041 30.0401 91.1853 33.7899 90.6559 38.0708C90.5384 38.6935 90.6176 39.3343 90.4922 39.9688C91.5258 39.884 92.6524 39.884 93.6897 39.9685Z" fill="#0063AC"/>
<path d="M121.721 52.3496C121.425 52.9173 120.785 53.2781 120.297 53.7169C119.624 54.391 118.527 54.5341 118.183 55.5101C117.822 55.8375 117.7 56.3568 117.193 56.5421C117.002 57.0407 116.473 57.0103 116.174 57.3708C115.306 58.1484 114.744 56.8757 113.957 56.7225L112.373 57.0011C111.822 57.0011 111.273 57.1969 110.754 57.0204C110.831 58.0744 110.831 59.2151 110.754 60.2742L110.951 60.1488C115.947 59.934 120.255 58.0361 123.954 54.6788L121.771 52.5955L121.721 52.3496Z" fill="#0063AC"/>
<path d="M110.699 23.4507C110.699 23.3587 110.74 23.2782 110.796 23.2078C110.942 23.1207 111.06 23.2487 111.119 23.3486C111.135 23.4956 111.197 23.7464 111.073 23.8295C111.197 23.8475 111.264 23.7552 111.371 23.7552C113.744 23.9317 115.942 24.6235 117.912 25.7426V25.6928C118.317 25.4947 118.833 25.2361 119.247 25.5881C119.746 25.4027 119.837 26.0127 120.242 26.0844C120.731 26.3748 121.281 26.917 121.342 27.4847C121.431 27.674 121.724 27.8046 121.766 28.004C122.099 27.2994 122.76 26.7991 123.334 26.1892L123.681 26.0422C120.554 23.0611 116.836 21.4123 112.686 20.8432C112.029 20.7293 111.297 20.7909 110.668 20.5938C110.796 21.4119 110.759 22.5323 110.699 23.4507Z" fill="#0063AC"/>
<path d="M110.697 27.9084C111.091 27.7716 111.494 27.9405 111.889 27.9507C113.92 28.282 115.841 28.9329 117.46 30.1875C117.268 29.979 117.028 29.7439 116.984 29.4407C117.02 29.3998 117.059 29.3909 117.111 29.3998C117.133 29.0776 116.79 28.9126 116.743 28.6222C116.79 28.5632 116.866 28.5007 116.969 28.5302C117.318 28.8628 117.616 29.2259 117.878 29.5943C118.108 29.5036 118.293 29.6493 118.461 29.7707C118.759 29.9472 118.575 30.3335 118.806 30.5395C118.844 31.1521 119.59 31.4949 119.55 32.1035C119.555 32.2479 119.734 32.1343 119.797 32.2096L120.418 32.9731C120.303 33.1214 120.399 33.2979 120.525 33.3951C120.802 33.5255 120.959 33.1699 121.233 33.2226C121.637 33.4515 121.174 33.7203 121.212 33.9681C121.369 33.977 121.569 33.8453 121.693 34.0002C121.746 34.2291 121.507 34.3738 121.408 34.5195C121.408 34.7457 121.599 34.6959 121.765 34.7457C121.949 34.7369 122.067 34.9657 122.014 35.1206C122.532 35.6592 121.857 36.2384 122.106 36.81C122.269 37.1797 122.067 37.5428 121.834 37.8243C121.847 38.2811 121.43 38.5584 121.27 38.9434L120.739 39.0456C120.457 39.3245 120.98 39.6683 120.696 39.8448L121.857 39.8664L121.73 39.7436C121.569 39.2882 121.606 38.672 121.887 38.2703C122.067 37.8967 122.106 37.4491 122.437 37.1296C122.509 37.1103 122.643 36.9747 122.706 37.1296C122.729 37.4812 122.697 37.8843 122.532 38.1963C122.865 38.672 122.82 39.2947 122.851 39.8844C123.878 39.8219 124.883 39.8039 125.889 39.8127L125.797 39.6146C125.64 37.6999 125.249 35.8838 124.448 34.2494C124.231 34.2621 124.075 34.4347 123.827 34.3735C123.745 34.344 123.691 34.2621 123.703 34.1675C123.288 33.7736 123.026 33.2557 122.565 32.9001C122.03 32.9538 121.793 32.3412 121.316 32.2797C120.894 32.1032 121.186 31.4189 120.572 31.6081C120.273 31.4814 119.98 31.2539 119.92 30.9124C119.92 30.3738 119.816 29.792 119.333 29.4404C118.957 29.3061 118.806 29.8022 118.427 29.7216C118.222 29.6155 118.316 29.348 118.248 29.1729C118.178 29.0157 118.002 28.9031 118.033 28.6945C118.519 28.0538 117.442 28.0653 117.68 27.4311C117.616 26.9743 117.156 26.7965 116.915 26.4374C115.308 25.7109 113.703 25.2171 111.889 24.9974C111.444 24.9336 111.032 25.0282 110.648 24.8223L110.748 25.0154C110.726 25.9797 110.794 27.0054 110.697 27.9084Z" fill="#0063AC"/>
<path d="M122.035 28.9745C122.256 29.0255 122.319 29.2839 122.466 29.44C123.218 29.8441 123.415 30.6537 124.08 31.1079C124.454 31.8894 125.313 32.4866 125.344 33.3781C126.244 35.3694 126.855 37.4734 126.917 39.815L126.838 39.9365C126.93 39.9365 127.011 39.8955 127.083 39.8458L130.069 39.7908C129.874 39.5017 129.956 39.0783 129.902 38.7254C129.508 34.1148 127.541 30.1653 124.453 26.6855C123.88 27.453 123.105 28.1664 122.392 28.9021L122.035 28.9745Z" fill="#0063AC"/>
<path d="M111.12 22.9562C111.211 22.7911 111.449 22.8501 111.573 22.9025L113.063 22.2617C113.662 22.3115 114.324 22.3845 114.681 22.8831V22.9562C114.306 23.2642 113.83 23.5124 113.334 23.3052C112.649 23.4407 111.694 23.8346 111.143 23.1313C111.12 23.0802 111.059 23.0059 111.12 22.9562Z" fill="white"/>
<path d="M120.024 24.8393C120.229 24.9044 120.42 24.9964 120.493 25.2164C120.435 25.4479 120.711 25.6486 120.542 25.8343C119.981 25.9799 119.93 25.3497 119.498 25.1935C119.436 25.109 119.416 25.0043 119.423 24.8916C119.621 24.6536 119.806 25.0488 120.024 24.8393Z" fill="white"/>
</svg>
