<svg width="300" height="87" viewBox="0 0 300 87" fill="none" xmlns="http://www.w3.org/2000/svg"><path d="M133.525 52.81c.12.011.403 0 .501.045.152.072.256.347.432.378.983.174 8.5.311 9.145.013.206-.096.435-.301.626-.434l.138.064c-.07 1.116-.115 2.211-.409 3.296-.253-.561-.359-1.371-.738-1.823-1.122-.646-2.51-.46-3.76-.446l-.021 6.848c.005.922.232 2.23-.113 3.074.13.195.313.519.52.637.46.264 1.201.206 1.765.506-1.025.288-2.241.098-3.308.096-.876-.001-1.836.217-2.671-.11.545-.335 1.57-.212 1.947-.581.685-.67.376-8.987.373-10.47l-.867-.005c-.94 0-2.394-.152-3.024.696-.272.366-.438.745-.768 1.075-.049-.027-.278-.132-.303-.168-.082-.121.728-2.131.557-2.633l-.022-.058ZM147.938 43.205l.468.07.326 1.149c.404.304.719.304 1.22.337 2.111.139 4.303.032 6.421.024.672-.003 2.043.119 2.599-.241.433-.281.239-.871.633-1.217l.235.2.019 7.683-2.947-.015c.567-.43 1.361-.482 1.851-.992.713-.742.447-2.816.424-3.794l-.434-.172-4.42.006c-.007 1.176-.044 2.356.106 3.524l1.327.437.096.238-.156.154c-1.318-.052-2.811.193-4.083-.132.544-.288 1.12-.447 1.68-.7.584-.826.366-2.528.344-3.528-1.383-.008-3.523-.277-4.794.212-.347.332-.357 1.038-.427 1.497l-.276.06c-.045-.068-.143-.178-.166-.252-.101-.312.064-1.231.07-1.6a26.363 26.363 0 0 0-.116-2.948ZM263.82 53.322c1.478-.154 3.223-.118 4.702.028-.433.38-.846.473-1.395.597-.128.812 1.962 4.461 2.49 5.388l2.806-5.244c-.274-.285-1.187-.455-1.619-.673 1.299-.385 3.135-.16 4.501-.089-.224.158-.481.357-.74.45-.302.107-.68.13-.93.342-.972.817-1.206 2.354-2.179 3.131 0 .59-.75 1.529-1.037 2.088-.563 1.097-.641 3.56-.253 4.724.206.623 1.49.587 2.103.894-1.054.29-2.304.105-3.401.105-.844 0-1.697.187-2.512-.102.558-.326 1.136-.23 1.659-.492a.743.743 0 0 0 .408-.487c.11-.409.056-.948.061-1.373.009-.692.089-1.541-.065-2.215-.18-.78-.705-1.58-1.072-2.292-.531-1.025-1.016-2.125-1.598-3.115-.171-.29-.43-.784-.67-.992-.138-.118-.907-.232-1.126-.289l-.133-.384ZM258.916 53.07c1.416-.054 2.789.188 4.165.49l.271 2.583-.259.194c-.409-.294-.553-1.138-.929-1.584-.535-.633-1.404-1.017-2.222-1.081-1.532-.12-2.906.106-4.094 1.146-.961.84-1.5 2.202-1.584 3.456-.11 1.639.105 3.462 1.238 4.743a5.182 5.182 0 0 0 3.574 1.756c.59.035 1.525.035 1.992-.377.633-.152 1.261-.712 1.609-1.253.229-.355.348-.746.71-.992l.234.138c.044.63-.334 1.885-.745 2.38-.302.367-1.974.559-2.534.627-1.844.224-4.203-.133-5.688-1.312-1.205-.955-2.011-2.279-2.18-3.817-.189-1.722.168-3.422 1.287-4.778 1.301-1.576 3.194-2.14 5.155-2.319ZM224.17 53.067c1.439-.095 2.932.16 4.316.533l.166 2.54-.201.182c-.427-.252-.661-1.23-1.062-1.678-.584-.65-1.511-.945-2.362-.99-1.34-.074-2.803.2-3.824 1.136-1.114 1.02-1.597 2.447-1.649 3.932-.06 1.65.343 3.313 1.511 4.54.9.946 2.267 1.49 3.561 1.522.513.014 1.342-.01 1.73-.377.652-.175 1.24-.635 1.6-1.21.229-.367.37-.797.748-1.04l.254.148c-.039.842-.371 1.586-.717 2.341-.514.42-1.754.54-2.426.624-1.947.243-4.299-.08-5.871-1.326-1.151-.913-2.002-2.28-2.163-3.757-.198-1.807.231-3.479 1.393-4.894 1.226-1.492 3.146-2.052 4.996-2.226ZM177.02 53.322l8.057-.058c.085.595.401 2.088.082 2.535-.463-.177-.574-1.045-.942-1.426-.724-.752-3.176-.477-4.202-.47l-.009 4.662c.577.3 2.613.078 3.306-.062a8.117 8.117 0 0 1 .69-1.866c.361 1.098.105 2.793.167 3.984l-.225.23c-.441-.143-.397-1.007-.781-1.39-.339-.337-2.564-.185-3.132-.183.001.537.036 1.001-.265 1.47.691.893-.202 2.457.655 3.424.729.427 1.897.34 2.732.318.41-.011 1.201-.014 1.545-.197.612-.326 1.242-1.683 1.772-2.241.051 1.056-.429 2.113-.782 3.09l-6.198-.089c-1.052.006-2.147.158-3.185-.04.539-.369.899-.312 1.49-.469a.785.785 0 0 0 .532-.424c.337-.664.321-9.154.045-9.836-.183-.45-.832-.458-1.248-.61l-.104-.352ZM24.749 53.303l8.035-.043c.177.956.303 2.014.213 2.985-.412-.554-.611-1.412-1.082-1.883-.741-.743-3.17-.465-4.184-.458l-.005 4.723 3.307-.093.408-1.37.228-.074.19.203c-.05 1.3.12 2.695-.063 3.967-.398-.529-.556-1.05-.771-1.663-.648-.567-2.458-.317-3.3-.309l-.016 1.769c-.003.896-.2 2.422.438 3.117.595.395 1.756.331 2.474.325.521-.005 1.301-.003 1.774-.195.553-.225 1.314-1.736 1.81-2.243-.022 1.02-.388 2.158-.822 3.076l-5.885-.083c-1.08.003-2.484.254-3.498-.104.56-.293 1.132-.219 1.654-.456.244-.11.377-.289.46-.543.253-.78.199-9.281-.077-9.752-.213-.364-.792-.427-1.184-.52l-.104-.376ZM109.342 53.32l8.1-.06c.056.585.372 2.048.099 2.522-.467-.085-.657-1.037-1.006-1.399-.745-.77-3.129-.488-4.178-.481l-.007 3.456c0 .355-.079.959.069 1.275 1.002.006 2.093.1 3.073-.124.359-.253.591-1.418.776-1.867.245.563.181 1.127.192 1.725.018.977.097 1.977-.121 2.937-.319-.56-.485-1.142-.719-1.739-.667-.528-2.424-.286-3.262-.278.012.588.115 1.34-.239 1.84.449.588.15 1.526.275 2.227.04.227.152.686.353.815.909.583 3.177.348 4.215.139.595-.416 1.035-1.21 1.426-1.808l.242-.028.147.197c-.11.846-.473 1.676-.76 2.476l-5.863-.092c-1.12.004-2.48.237-3.549-.096.573-.317 1.101-.23 1.649-.457.286-.12.371-.316.478-.6.247-.654.095-1.866.097-2.573l.002-4.635c-.001-.758.124-1.82-.176-2.517-.311-.346-.736-.384-1.17-.468l-.143-.387ZM119.276 53.323l2.985-.037c.95 1.593 2.288 3.011 3.518 4.389l4.265 4.699c.018-2.66.319-5.805-.333-8.384-.726-.151-1.284-.23-1.95-.569 1.261-.395 3.204-.124 4.543-.114l.147.209c-.303.373-.903.277-1.312.607-.446.923-.302 2.506-.31 3.526l.03 7.531-.539.098c-.085-.626-7.208-8.44-8.313-9.748l-.035 4.623c.005 1.338-.051 2.744.268 4.054.496.44 1.404.434 2.055.757-.81.226-1.756.1-2.592.097-.863-.002-1.685.097-2.547-.037.58-.355 1.167-.463 1.82-.62.4-2.226.204-4.6.219-6.855.006-.742.189-2.37-.133-2.99-.357-.69-1.028-.694-1.684-.893l-.102-.343ZM34.662 53.303l2.988-.02c2.133 3.243 5.079 6.284 7.774 9.076.115-1.15.23-7.531-.292-8.296-.243-.356-1.175-.094-1.54-.546l.181-.237c1.458.025 3.071-.17 4.493.117-.576.32-1.185.477-1.812.665-.258 1.466-.214 2.973-.214 4.457l.003 6.714-.312.114-8.518-9.78c-.183 1.766-.098 3.66-.05 5.436.029 1.068-.023 2.25.318 3.27.42.356 1.424.44 1.993.626-.84.371-1.917.162-2.816.164-.784.001-1.523.096-2.307-.033.526-.38 1.173-.281 1.6-.58.166-.116.2-.204.242-.397.426-1.95.184-4.395.185-6.406.001-.897.128-2.05-.056-2.913-.022-.105-.15-.28-.21-.37-.319-.477-.936-.543-1.457-.655l-.193-.406ZM93.283 53.302l2.938-.031c.478 1.795 1.263 3.328 2.077 4.984l2.217 4.434c.282-.157.859-1.565 1.036-1.924 1.198-2.419 2.66-4.907 3.424-7.495l2.862.04.15.206c-.055.065-.126.187-.209.198-.603.075-1.004.138-1.385.628-.169.81-.095 1.687-.087 2.51l.108 4.292c.043 1.012-.037 2.07.185 3.063.451.425 1.236.501 1.837.702-.851.365-1.961.154-2.871.155-.854.001-1.676.106-2.528-.04.578-.379 1.165-.34 1.712-.672.295-.531.179-1.368.178-1.975l-.021-4.54-.014-2.027c-.501.61-.834 1.594-1.197 2.306l-3.658 7.406-4.425-9.73c-.152.644-.128 1.373-.164 2.035l-.152 3.709c-.019.77-.153 1.826.049 2.558.156.567 1.391.58 1.932.874-.854.255-1.782.09-2.662.094-.773.003-1.525.147-2.283-.083.46-.294.914-.38 1.44-.486.14-.105.28-.224.364-.38.46-.857.88-8.967.584-9.85-.46-.44-.81-.35-1.346-.607l-.091-.354ZM187.547 53.323l2.949-.059c.179.178.192.754.263 1.02.127.47.352.95.551 1.397l3.462 7.011c.581-.623 1.011-1.858 1.396-2.638 1.072-2.176 2.46-4.438 3.07-6.788.666.03 2.609-.181 3.011.185-.176.427-1.166.34-1.593.89-.206.925-.078 2.072-.073 3.022l.093 4.162c.024.886-.011 1.814.194 2.681.419.425 1.241.505 1.825.702-.848.371-1.963.155-2.871.155-.846 0-1.665.107-2.507-.035.542-.371 1.143-.313 1.622-.63.133-.089.212-.297.235-.455.101-.67.026-1.45.026-2.136 0-1.01.077-2.11-.03-3.107-.019-.183-.121-.364-.226-.512.424-.547.231-1.776.216-2.455l-4.842 9.797-4.436-9.765c-.373 1.771-.283 3.943-.315 5.755-.015.844-.156 2.016.129 2.814.374.32 1.352.391 1.861.552-.781.358-1.72.17-2.555.175-.822.004-1.602.136-2.412-.085.454-.266 1.523-.387 1.762-.75.385-.589.328-1.848.385-2.561l.312-4.96c.025-.801.114-1.66-.047-2.447-.301-.404-.911-.44-1.365-.595l-.09-.34Z" fill="currentColor"/><path d="M87.043 63.016c.899-1.884 1.658-3.89 2.428-5.83.377-.951.99-2.137 1.084-3.157-.377-.3-.785-.191-1.194-.44l.089-.264c1.236-.197 2.724-.06 3.983.01-.482.303-.984.487-1.528.636-.813 1.106-1.302 2.561-1.842 3.82l-3.329 7.981-2.428-5.422-2.443 5.419c-.55-1.007-.955-2.109-1.424-3.157l-2.633-5.784c-.375-.807-.72-1.834-1.247-2.541-.347-.465-.733-.51-1.27-.582l-.156-.4 3.092-.02c.36-.002.764-.078 1.076.104l-.057.282-.897.23-.082.192c.372 1.354 1.046 2.66 1.639 3.93l2.323 4.98 1.669-3.553-1.638-3.64c-.256-.558-.524-1.335-.965-1.76-.36-.348-.854-.184-1.206-.533l.151-.214c.84-.005 3.5-.268 4.027.15-.253.383-.737.255-1.138.512-.021.406.243.852.404 1.216l1.145 2.556c.614-1.1 1.236-2.482 1.492-3.708-.26-.404-.743-.116-1.088-.512l.139-.207c.753-.005 3.013-.242 3.53.143-.249.347-.51.24-.892.371-.97.334-2.311 3.779-2.789 4.782l1.975 4.41ZM147.998 66.894l.409.087.338 1.328c1.476.318 3.152.178 4.66.179 1.563 0 3.193.089 4.749-.044 1.429-.121.566-.638 1.242-1.44l.281.08c.394 1.073.277 5.076-.018 6.203-.196.75-.661 1.545-1.347 1.938-.671.384-1.623.442-2.36.233-1.116-.319-1.667-1.21-2.2-2.167l-1.651.934c-.235.35-.85.63-1.2.878-.637.453-1.242.953-1.792 1.51-.229.231-.488.49-.635.783-.173.342-.164.677-.452.94-.154-.269-.194-.5-.194-.805 0-2.522 1.834-3.507 3.739-4.721.497-.316 1.109-.634 1.512-1.064.371-.397.269-1.143.25-1.649-.616-.44-3.67-.134-4.465-.018-.353.556-.368 1.225-.756 1.822-.197-.713-.066-1.368-.057-2.09l-.053-2.917Zm5.81 3.061.033.057c.185.345.128.788.127 1.17-.001 1.224.172 2.147 1.45 2.578.823.278 1.777.187 2.543-.2.218-.11.267-.194.398-.39.446-.284.687-.675.81-1.182.149-.615.066-1.38.049-2.013l-5.41-.02ZM246.501 53.068c.089.026.192.05.272.096.327.187 2.478 6.95 2.74 7.733.27.801.831 3.183 1.555 3.546.483.24 1.081.28 1.605.54-.907.202-1.909.075-2.834.081-.862.006-1.709.17-2.548-.093.6-.302 1.158-.419 1.819-.522l-1.287-3.898-3.735-.008-1.245 3.918c.638.101 1.169.21 1.743.515-.755.181-1.506.051-2.27.095-.648.038-1.315.206-1.96.199-2.294-.026-3.385-2.066-4.464-3.78-.288-.455-.577-1.016-.965-1.39-.446-.431-1.105-.315-1.679-.293l-.14.176c-.005 1.133-.29 3.318.205 4.297.353.288.774.348 1.208.44l-.042.287c-.306.2-4.196.096-4.87.072.534-.43.744-.353 1.347-.56.269-.093.381-.186.507-.442.266-.545.114-1.714.115-2.345l.006-4.875c-.002-.813.108-1.805-.151-2.572-.392-.375-1.198-.449-1.731-.706 1.256-.37 2.766-.315 4.072-.316.794-.001 1.651-.045 2.424.146.874.216 1.689.638 2.158 1.429.432.73.449 1.621.218 2.422-.3 1.042-1.29 1.612-2.17 2.095.869 1.523 1.889 3.218 3.127 4.473.325.33.628.673 1.082.818.322-.032.724-.047.971-.28.522-.498.806-1.52 1.068-2.182l2.487-6.528c.255-.669.402-1.782.998-2.195.157-.11.254-.24.364-.393Zm-13.478.897.017.075c.133.575.074 1.232.075 1.819v3.314c.986.022 2.044.149 2.94-.343.056-.086.152-.2.183-.295.546-.426.698-.754.78-1.447.105-.871-.03-1.653-.603-2.346-.448-.542-1.189-.826-1.873-.877a5.938 5.938 0 0 0-1.519.1Zm12.853 1.242c.105 1.486-1.37 3.078-1.419 4.56l1.182.017 1.944-.024-1.063-3.196c-.159-.478-.248-1.013-.644-1.357ZM164.973 53.324c2.36-.171 5.908-.327 7.936.968 1.269.81 2.103 1.942 2.417 3.42.344 1.616.1 3.318-.806 4.714-.693 1.068-1.86 2.026-3.123 2.293l-.057.036c-1.499.87-4.413.352-6.102.31-.883-.021-1.72.163-2.59-.086.462-.27.836-.28 1.318-.443.241-.082.444-.201.56-.436.333-.68.253-8.887-.008-9.687-.134-.41-1.222-.637-1.65-.851.679-.173 1.407-.189 2.105-.238Zm1.567.64c-.27.2-.298.25-.352.597-.149.954-.036 2.1-.037 3.071v4.202c.006.661-.057 1.5.343 2.066.307.435.799.638 1.312.71 1.222.172 2.991-.043 3.96-.878a.721.721 0 0 0 .189-.277c.779-.455 1.223-1.431 1.445-2.272.406-1.53.387-3.47-.438-4.871-.704-1.195-1.782-1.956-3.125-2.289-1.052-.26-2.233-.205-3.297-.059ZM51.163 53.316c1.843-.241 4.515-.208 6.277.392 1.35.46 2.617 1.313 3.255 2.63.706 1.456.847 3.252.3 4.788-.635 1.78-1.809 2.784-3.486 3.57-2.133.778-4.263.41-6.463.368-.863-.016-1.705.179-2.55-.085.566-.328 1.27-.302 1.752-.706.162-.239.222-.443.236-.728l.017-6.949c-.002-.536.13-1.826-.147-2.247-.31-.472-.846-.288-1.207-.682l.203-.232 1.813-.12Zm1.196.624c-.072.078-.216.196-.266.284-.202.352-.092 7.583-.066 8.455.016.541.087 1.044.507 1.437.614.575 1.672.568 2.453.52 1.04-.062 2.134-.426 2.924-1.123 1.339-1.49 1.652-3.02 1.548-4.985-.062-1.176-.597-2.518-1.492-3.314-1.337-1.188-3.007-1.459-4.748-1.345l-.86.071ZM209.443 53.07l.041-.004c1.532-.092 3.436.285 4.604 1.337 1.17 1.05 1.948 2.603 2.017 4.179.078 1.854-.326 3.487-1.618 4.87-1.191 1.278-2.74 1.815-4.45 1.88-1.497-.005-2.941-.321-4.153-1.248-1.241-.949-2.028-2.378-2.214-3.923-.206-1.734.181-3.434 1.277-4.809 1.156-1.448 2.696-2.08 4.496-2.283Zm-.733.64c-1.198.403-2.107 1.011-2.679 2.172-.829 1.678-.738 3.901-.142 5.635.422 1.225 1.242 2.303 2.426 2.867.577.276 1.659.567 2.283.356l.053-.02c1.082-.15 1.949-.591 2.621-1.475 1.047-1.376 1.185-3.245.958-4.908-.204-1.51-.895-3.062-2.145-3.985-.981-.723-2.209-.784-3.375-.643ZM69.15 53.063c1.474.053 2.82.253 4.02 1.192 1.446 1.131 2.046 2.604 2.247 4.38.178 1.56-.356 3.28-1.337 4.499-1.178 1.463-2.746 2.028-4.554 2.214-1.695-.022-3.248-.325-4.56-1.467a5.9 5.9 0 0 1-2.032-4.093c-.113-1.715.384-3.412 1.536-4.709 1.253-1.41 2.857-1.909 4.68-2.017Zm-.883.602c-1.156.296-2.137.847-2.763 1.899-.884 1.483-.96 3.627-.525 5.276.367 1.392 1.134 2.689 2.406 3.42.893.513 1.837.56 2.84.49 1.242-.41 2.186-.998 2.797-2.197.776-1.522.79-3.753.26-5.357-.427-1.297-1.132-2.545-2.414-3.164-.839-.405-1.692-.413-2.6-.367ZM152.633 52.938c1.772-.221 3.522.051 4.977 1.136 1.376 1.026 2.168 2.5 2.406 4.18.224 1.583-.077 3.487-1.071 4.784-1.042 1.36-2.397 2.031-4.068 2.258-1.456.25-2.9-.077-4.178-.785-1.341-.743-2.284-2.103-2.697-3.56-.464-1.64-.236-3.647.602-5.132.917-1.625 2.277-2.395 4.029-2.88Zm.608 1.793c-1.714.357-3.27.887-4.273 2.425-.552.845-.743 2.143-.534 3.118.221 1.036.859 1.91 1.75 2.476 1.067.679 2.648.993 3.887.769 1.58-.075 3.267-.56 4.366-1.768.783-.86 1.108-1.968 1.045-3.117a4.058 4.058 0 0 0-1.329-2.75c-1.314-1.172-2.97-1.272-4.64-1.178l-.272.025ZM160.807 8.382c1.341-.104 2.719-.068 4.064-.075 2.447-.013 4.749.017 7.164.462 2.568.473 4.811 1.658 6.299 3.836 1.249 1.83 1.695 4.405 1.278 6.58-.421 2.197-1.676 4.02-3.522 5.265-1.599 1.078-3.493 1.592-5.373 1.911-.775.132-1.819.272-2.593.122l-.13-.42c.02-.067.095-.398.13-.428.213-.18.925-.27 1.205-.338 1.717-.421 3.421-1.314 4.495-2.752 1.384-1.852 1.669-4.471 1.322-6.717-.284-1.842-1.183-3.517-2.712-4.614-1.728-1.24-4.474-1.7-6.568-1.313-1.738.321-.31 3.612-1.11 4.755.327.419.231.923.233 1.427l.006 3.657-.016 10.776c-.001 1.786-.116 3.68.043 5.453.225 2.51 1.216 2.82 3.501 3.068.402.044.74.003 1.056.267.005.422.049.637-.174 1.01l-12.231.007-.234-.313c0-.1-.038-.576-.004-.64.313-.586 2.628-.328 3.372-1.239.328-.401.48-.917.546-1.424.194-1.471.144-3.015.149-4.498l.01-6.654-.004-7.866c-.004-1.814.039-3.65-.135-5.458-.178-1.86-1.24-2.016-2.819-2.193-.49-.056-.838-.015-1.226-.334-.038-.446-.058-.53.153-.918.918-.434 2.793-.334 3.825-.402ZM25.744 8.293l14.086.163c2.441 0 4.952.11 7.38-.153l.717 6.418-.315.238c-.123.007-.543.073-.64.038-.367-.134-.963-2.19-1.18-2.616a4.133 4.133 0 0 0-.99-1.273c-1.76-1.503-5.094-1.135-7.262-1.136-1.055 0-2.202-.087-3.247.021-.349.037-.456.12-.667.378-.297 1.878-.128 3.94-.13 5.846 0 2.115-.177 4.366.13 6.453.43.224 1.424.141 1.921.143 1.66.008 3.365.064 5.02-.059 2.15-.159 2.368-.939 2.714-2.893.072-.41.09-.774.37-1.1.378-.102.594-.108.962.029.357.587.038 2.352.01 3.09-.081 2.198.244 4.436.11 6.605l-.323.178c-.15-.002-.587.043-.704-.01-.566-.251-.573-2.811-1.459-3.543-1.13-.935-7.019-.63-8.62-.475-.193 1.384-.117 2.837-.117 4.234-.008 2.239-.227 4.856.202 7.042.108.555.22 1.099.611 1.529l.054.059c.436.485.908.675 1.53.84 1.72.456 3.69.37 5.462.342 1.498-.024 3.48.062 4.83-.644 1.327-.694 2.305-2.424 3.007-3.7.2-.366.407-.926.775-1.14.167-.005.355-.016.513.047.313.123.374.2.507.49l-2.14 6.628-23.917-.053c-.148-.376-.169-.61-.091-1.005.524-.495 2.367-.264 3.172-.592a2.063 2.063 0 0 0 1.104-1.107c.219-.538.303-1.238.34-1.811.237-3.687.049-7.497.05-11.195l-.003-8.002c-.002-1.583.293-4.222-.37-5.658-.662-1.437-2.156-1.04-3.37-1.477-.224-.33-.086-.797-.032-1.169ZM182.922 8.384c1.207-.291 2.995.055 4.267.063l10.334.009c2.308 0 4.683.114 6.974-.16l.694 6.426c-.331.26-.542.233-.948.265-.442-.259-.636-1.28-.822-1.787-.232-.632-.564-1.276-1.026-1.772-1.074-1.151-2.651-1.383-4.153-1.425l-4.17-.032c-.815-.003-1.701-.065-2.508.021-.3.032-.445.11-.659.312-.393 2.36-.136 5.096-.133 7.497.002 1.43-.224 3.343.14 4.709.023.088.306.214.396.266 1.588.053 7.385.376 8.44-.543.494-.432.578-1.312.699-1.923.114-.578.142-1.225.594-1.612.41-.005.593-.037.953.185l-.003 9.603-.31.179c-.311.006-.694.08-.923-.179-.051-.057-.106-.446-.127-.536-.231-.957-.34-2.254-1.175-2.89-1.12-.85-7.088-.596-8.56-.409-.168 1.041.204 3.432-.346 4.22.414.53.233 1.877.229 2.566-.011 1.679-.203 4.123.543 5.634.297.602.898.989 1.523 1.191 1.632.53 3.661.434 5.366.423 1.704-.01 4.236.112 5.686-.897 1.063-.74 1.957-2.327 2.581-3.439.273-.484.397-.92.902-1.17.448.102.561.117.89.428-.309 2.251-1.262 4.66-2.13 6.752l-17.183-.15-4.482.085c-.669.022-1.619.17-2.256-.028-.156-.428-.186-.522-.105-.966.404-.32 1.212-.268 1.74-.322.844-.087 1.71-.157 2.276-.884.453-.583.532-1.545.589-2.257.125-1.563.052-3.177.054-4.746l.003-8.28-.002-6.634c-.002-1.305.071-2.674-.091-3.97-.216-1.736-.846-2.293-2.551-2.527-.477-.065-.798-.037-1.186-.336l-.024-.96ZM53.035 8.304l6.815.147 5.045-.144c.154 0 .262.04.395.114l.132.634c-.02.064-.098.373-.132.402-.045.037-.517.058-.6.067-.81.092-2.05.106-2.662.692-.7.67-.744 1.95-.776 2.864l-.043 8.17c0 4.865-.65 11.333 2.992 15.171 1.487 1.568 3.822 2.318 5.931 2.382 2.553.077 5.055-.342 6.98-2.176 2.706-2.578 3.316-6.51 3.4-10.075l.008-5.738c-.013-1.999.22-9.113-1.1-10.46-.64-.654-1.671-.718-2.533-.797-.308-.028-.773.004-.994-.228-.056-.374-.038-.598.114-.946.286-.155.792-.057 1.117-.04l2.9.105 6.717-.101c.212.208.201.46.223.74-.026.062-.12.344-.159.372-.062.045-.51.057-.608.068-.658.076-1.434.123-2.042.397-.428.193-.786.493-.97.936-.564 1.36-.518 3.433-.565 4.898l-.114 12.358c-.105 1.841-.412 3.772-1.046 5.506-1.012 2.767-2.748 4.866-5.467 6.104-3.592 1.635-8.419 1.666-12.1.294-6.758-2.52-6.684-9.593-6.687-15.662v-8.79c-.008-1.367.192-3.448-.38-4.683l-.033-.07c-.068-.146-.135-.29-.232-.42-.648-.866-2.525-.836-3.487-.956-.18-.395-.085-.71-.04-1.135ZM224.474 7.74c.234-.016.419.002.647.05.505.457 2.229 6.275 2.603 7.38l6.615 19.395c.584 1.744 1.341 4.107 3.45 4.373.588.074 1.271.031 1.805.297.134.354.08.605 0 .967l-.258.143-6.697-.136-3.131.1c-.499.017-1.09.1-1.569-.042-.155-.349-.131-.592-.075-.965.595-.54 2.06-.151 2.862-.684.188-.125.32-.228.352-.465.093-.682-2.665-9.436-3.13-9.926-.666-.703-4.438-.385-5.484-.383l-1.818-.007c-.609.002-2.404-.143-2.831.303l-.04.042c-.114.12-.198.235-.27.385-.456.938-.708 2.072-1.038 3.065l-1.508 4.645c-.157.548-.424 1.313-.384 1.873.009.125.126.343.173.469.706.503 1.964.44 2.817.521.229.347.187.53.18.93-.054.045-.257.245-.308.254-.423.075-1.08-.04-1.533-.054l-3.594-.061c-1.503-.003-3.051.21-4.542.09a.914.914 0 0 1-.172-.292c-.105-.358-.047-.54.107-.855.773-.21 1.609-.078 2.38-.321.71-.224 1.311-.766 1.692-1.397.49-.81.794-1.776 1.14-2.655l1.562-3.885 7.099-18.616c.187-.501.392-1.023.488-1.549.037-.193.044-1.07.119-1.175.054-.078.442-.23.552-.29.593-.322 1.41-.867 1.716-1.473l.023-.05Zm-1.572 5.778-.004.084c-.061.89-.733 2.085-1.046 2.945-1.119 3.062-2.372 6.155-3.29 9.281l4.03.083c.986-.003 3.691.268 4.387-.309.173-.55-3.133-10.547-3.759-11.708a1.18 1.18 0 0 0-.318-.376ZM239.745 8.381c.768-.16 1.656.018 2.44.044 1.778.058 3.68.138 5.443-.12 2.875 4.818 6.849 8.943 10.56 13.125L268.7 32.991l.061-9.83c-.002-3.125.068-6.267-.253-9.378-.098-.945-.161-2.1-.57-2.969-.611-1.292-2.695-.878-3.793-1.294-.283-.107-.278-.234-.392-.498.049-.295.116-.461.301-.697.897-.032 1.792.072 2.689.094l5.236.007c.603-.013 2.323-.283 2.82-.061.171.077.229.357.299.528-.021.115-.031.354-.082.449-.248.46-2.7.425-3.331 1.095-1.486 1.576-.864 26.468-.78 30.018-.215.34-.334.364-.703.523l-.5-.203c-.047-.636-3.87-4.764-4.548-5.533l-12.371-14.065-5.767-6.71c-.261 1.061-.206 2.212-.212 3.3l-.008 4.678.012 7.526c.017 2.018.021 4.1.348 6.095.113.69.164 1.514.558 2.12.587.903 2.942.753 3.916.997.154.462.161.529.035.997-.071.038-.217.142-.29.157-.274.055-.734-.036-1.033-.048l-2.529-.072-7.005.105-.208-.283c-.036-.416-.061-.52.145-.882.677-.202 1.415-.157 2.107-.324.464-.113.99-.312 1.237-.748.384-.682.46-1.985.512-2.751.35-5.091.173-10.271.173-15.376V15.15c-.003-.977.072-2.029-.215-2.975-.423-1.4-1.712-2.222-3.105-2.44-.525-.08-1.135-.055-1.606-.307-.192-.32-.127-.69-.103-1.047ZM94.997 8.392c1.477-.123 2.999-.082 4.481-.088 2.44-.01 4.896-.037 7.26.66 2.024.596 3.983 1.782 5.009 3.687.948 1.76 1.193 4.159.617 6.07-.953 3.165-3.249 4.517-5.972 5.994l4.03 6.457c1.39 2.027 2.796 3.964 4.5 5.745.729.762 1.577 1.627 2.505 2.139.829.457 1.644.64 2.562.81l.073.398-.152.214c-.917.272-1.827.255-2.775.242-4.602-.064-7.257-3.002-9.677-6.542-.341-.5-.891-1.703-1.407-1.95l-.053-.023c-.019-.218-.093-.388-.197-.58-.447-.824-1.007-1.615-1.514-2.405-.811-1.264-1.492-2.69-3.011-3.161-1.132-.352-2.606-.225-3.759-.017-.144 1.63-.04 3.35-.04 4.987l.013 3.985c.01.846-.032 1.846.337 2.623l.032.066.099.207c.592 1.112 2.401.979 3.446 1.28.157.452.117.561 0 1.015l-.256.135-6.932-.13c-1.061.006-4.113.373-4.888-.016-.116-.426-.133-.528-.028-.954.511-.384 1.95-.28 2.64-.512.508-.172.88-.49 1.119-.974.291-.59.313-1.37.358-2.017l.09-4.449.01-8.56-.01-6.546c-.005-1.394.143-3.397-.309-4.714l-.027-.077a1.922 1.922 0 0 0-.299-.594c-.537-.692-1.486-.682-2.284-.789-.455-.061-.704-.032-.99-.41-.013-.446-.023-.5.226-.864 1.616-.35 3.51-.274 5.173-.342Zm3.564 1.491c-.387.12-.75.14-.956.524-.338.63-.173 12.402-.075 13.836 2.399.273 6.106.553 8.097-.983a.307.307 0 0 0 .117-.149c1.346-.88 1.974-2.219 2.298-3.749.445-2.107.21-4.575-.995-6.397-1.085-1.64-2.647-2.582-4.557-2.962-1.277-.253-2.633-.187-3.929-.12ZM134.307 7.741l.049-.004c4.363-.382 9.307.73 12.688 3.61 3.19 2.716 5.198 6.828 5.533 10.992.372 4.602-.733 9.277-3.794 12.84-3.135 3.65-7.269 5.412-11.987 5.774-4.268.09-8.507-.84-11.93-3.528-3.322-2.608-5.447-6.498-5.946-10.688-.555-4.647.72-9.291 3.626-12.962 2.914-3.682 7.201-5.502 11.761-6.034Zm-.531 1.537c-3.063.548-5.749 1.879-7.565 4.493-2.702 3.888-2.953 9.18-2.121 13.698.684 3.712 2.545 7.779 5.751 9.962 2.299 1.566 4.742 2.084 7.484 1.988 3.061-.335 5.593-1.515 7.55-3.959 2.913-3.637 3.235-8.636 2.72-13.086-.456-3.951-2.079-8.244-5.276-10.778-2.401-1.902-5.511-2.674-8.543-2.318Z" fill="currentColor"/></svg>