<?xml version="1.0" encoding="utf-8"?>
<!-- Generator: Adobe Illustrator 25.4.1, SVG Export Plug-In . SVG Version: 6.00 Build 0)  -->
<svg version="1.1" id="Layer_1" xmlns="http://www.w3.org/2000/svg" xmlns:xlink="http://www.w3.org/1999/xlink" x="0px" y="0px"
	 viewBox="0 0 1366 768" style="enable-background:new 0 0 1366 768;" xml:space="preserve">
<style type="text/css">
	.st0{fill:#53284F;}
	.st1{fill:#3DAE2B;}
</style>
<g>
	<polygon class="st0" points="360.39,385.82 350.02,386.62 343.8,393.8 337.58,401.78 335.51,410.56 334.47,419.32 333.43,428.1 
		332.39,436.88 332.39,444.86 332.39,452.83 332.39,460.8 332.39,470.38 332.39,479.15 332.39,487.13 334.74,494.31 336.28,503.08 
		336.28,511.06 337.32,519.04 339.39,527.01 343.8,533.39 350.8,538.18 358.31,539.77 368.67,539.77 379.04,538.18 388.37,534.19 
		393.55,527.01 387.06,524.82 380.07,529.41 369.71,532.6 359.34,532.6 351.05,527.81 348.98,519.84 346.91,512.25 345.88,503.88 
		343.8,496.1 343.8,487.92 343.8,479.95 343.8,471.97 343.8,463.99 344.06,454.42 354.42,455.23 364.79,455.23 377.48,455.63 
		376.7,448.44 366.33,446.85 354.94,446.85 344.58,447.65 342.76,439.27 342.76,431.3 343.8,423.31 345.88,415.34 345.88,406.56 
		346.91,398.58 353.13,392.2 363.49,389.01 373.85,389.81 384.22,392.2 389.4,399.38 389.4,408.16 388.37,416.13 398.21,416.13 
		397.69,407.36 395.62,399.38 390.43,392.2 382.14,386.62 370.75,385.82 	"/>
	<path class="st0" d="M458.95,391.8l-10.66,2.4l0.47,8.18l0.95,7.18l-0.48,8.17l0.95,8.77v8.79v7.97v7.97l-0.95,7.97l-1.9,7.98
		l-0.94,7.98l-1.9,7.97v7.98l-2.84,7.96l-1.89,7.99l-1.9,7.97l-1.9,7.98l-5.93,7.18l8.78,1.58h9.47h10.43l9.48-0.79l-0.71-6.18
		l-0.23-8.17l0.94-7.97l0.95-7.98v-7.98l-0.95-8.78l-0.94-7.98V465.6v-7.98v-8.79v-7.97v-7.97l-0.95-7.97l-0.95-7.58l-0.24-8.97
		l2.61-7.38l0.72-7.19L458.95,391.8z M459.67,386.82l13.51,3.59l-0.71,10.57l-0.48,7.97l1.43,9.37l-0.47,7.38l0.94,7.97v8.78v7.98
		v8.76v7.98l0.95,7.98v8.77v9.57v9.58v7.98v7.98l1.67,8.37l0.94,4.79l13.51,1.19l7.34,3.19l-1.65,11.16l0.47,11.17l-0.95,6.97
		l1.18,8.78l-9.47,0.8l1.18-11.36l0.46-5.39l-1.42-11.17l-1.18-5.78l-15.64-3.79h-9.48h-9.48h-9.47H432.4h-9.46l-9.72,0.6
		l0.94,11.97l1.42,10.96l-2.83,13.17l-8.77,0.8l3.32-12.36l-1.66-12.97v-7.98l-1.66-9.37l8.53-1.4l9.24-1.19l8.53-14.36l1.9-7.97
		l0.95-7.99l1.89-7.97l1.9-8.78l2.85-10.37l0.94-7.97v-7.97v-9.59v-8.77l0.95-7.97v-8.79l1.9-7.97l-1.19-7.58l-1.18-9.18v-7.97
		L459.67,386.82z"/>
	<polygon class="st0" points="521.91,383.43 524.75,391 523.81,399.38 523.81,407.36 523.81,415.34 524.75,424.11 525.7,432.89 
		526.88,440.86 525.7,454.82 535.18,455.23 555.32,457.02 564.8,454.62 564.8,446.65 564.8,438.68 564.8,430.7 564.8,422.72 
		564.8,414.73 564.8,405.95 563.86,397.18 564.8,389.2 574.28,392.4 574.28,401.17 574.28,409.16 574.28,417.13 574.28,425.11 
		574.28,433.08 574.28,441.06 574.28,449.05 574.28,457.02 574.28,464.99 574.28,474.57 574.28,482.55 574.28,490.53 574.28,498.5 
		575.22,506.47 575.22,514.44 575.22,522.43 578.54,537.18 570.48,537.58 567.64,529.61 567.64,521.63 567.64,513.65 567.64,505.67 
		567.64,497.7 567.64,489.73 567.64,481.75 567.64,473.77 564.09,463.01 556.27,463.21 543.71,463.21 534.23,461.61 526.65,462.61 
		528.53,475.96 526.65,483.14 526.65,493.51 526.65,500.49 525.93,509.06 528.53,515.85 528.53,523.82 528.53,533.39 528.53,541.37 
		518.35,539.57 520.24,534.79 520.49,526.01 519.06,516.64 519.06,508.67 518.12,500.69 518.12,492.71 518.12,483.94 518.12,475.17 
		517.16,463.21 516.22,455.23 516.22,447.24 516.22,439.27 516.22,431.3 516.22,422.52 516.22,412.94 516.22,399.38 514.09,384.02 	
		"/>
	<path class="st0" d="M620.66,474.36l8.53,0.8l8.53-0.8h9.47l10.41-1.59l7.57-1.59l0.48-7.97l-2.37-8.78v-7.99v-7.97l-1.89-7.97
		l-1.9-7.98l-1.42-9.17l-3.54-7.78l-6.39-6.98l-10.67-3.38l-8.29,4.18l-5.7,6.38l-2.83,8.77l-2.84,9.57l-0.96,8.78v7.97v7.97v8v9.57
		v7.96H620.66z M605.49,539.77l1.89-9.57v-8.78l1.9-7.98v-8.77l-0.94-8.78v-8.76v-7.98v-9.57v-9.58v-8.77l0.94-8.78v-8.77v-7.98
		l0.96-9.58l3.78-8.77l3.8-10.37l5.67-6.38l10.44-2.39h9.47l10.19,3l7.81,4.98l4.73,7.19l3.79,7.97l0.95,8.77l0.95,9.58v7.97v7.97
		v7.99l0.95,7.97v8.77v8.78v7.98v7.98v8.77l0.94,8.77l2.86,14.35l0.94,10.37l-8.53,0.81l-0.95-7.98v-7.98v-7.98l-0.95-9.57
		l-0.71-7.58l-0.24-8.37v-11.17l-9.47,0.81l-9.47,0.79h-9.47h-9.48l-10.42,0.8l0.94,11.17l-0.94,7.96l-0.96,7.99v7.97v7.98
		l-0.95,7.98l-3.79,10.36L605.49,539.77z"/>
	<polygon class="st0" points="711.62,383.43 711.32,390.43 713.5,399.38 713.5,407.36 713.5,415.34 714.46,424.11 714.11,431.2 
		714.13,441.17 715.41,454.82 724.89,455.23 745.02,457.02 754.51,454.62 754.51,446.65 754.51,438.68 754.51,430.7 754.51,422.72 
		754.51,414.73 754.51,405.95 753.56,397.18 754.51,389.2 763.99,392.4 763.99,401.17 763.99,409.16 763.99,417.13 763.99,425.11 
		763.99,433.08 763.99,441.06 763.99,449.05 763.99,457.02 763.99,464.99 763.99,474.57 763.99,482.55 763.99,490.53 763.99,498.5 
		764.93,506.47 764.93,514.44 764.93,522.43 768.25,537.18 760.19,537.58 757.35,529.61 757.35,521.63 757.35,513.65 757.35,505.67 
		757.35,497.7 757.35,489.73 757.35,481.75 757.35,473.77 753.79,463.01 745.97,463.21 733.42,463.21 723.95,461.61 716.36,462.61 
		715.72,475.78 714.26,483.11 714.26,493.38 715.72,501.88 715.65,509.06 716.4,516.74 715.43,523.58 718.26,533.39 717.78,549.98 
		709.86,547.04 709.96,534.79 710.2,526.01 708.77,516.64 708.77,508.67 707.82,500.69 707.82,492.71 707.82,483.94 707.82,475.17 
		706.89,463.21 705.93,455.23 705.93,447.24 705.93,439.27 705.93,431.3 705.93,422.52 705.93,412.94 705.93,399.38 705.1,383.92 	
		"/>
	<polygon class="st0" points="809.71,383.43 812.56,391 811.61,399.38 811.61,407.36 811.61,415.34 812.56,424.11 813.5,432.89 
		814.68,440.86 813.5,454.82 822.99,455.23 843.13,457.02 852.61,454.62 852.61,446.65 852.61,438.68 852.61,430.7 852.61,422.72 
		852.61,414.73 852.61,405.95 851.66,397.18 852.61,389.2 862.08,392.4 862.08,401.17 862.08,409.16 862.08,417.13 862.08,425.11 
		862.08,433.08 862.08,441.06 862.08,449.05 862.08,457.02 862.08,464.99 862.08,474.57 862.08,482.55 862.08,490.53 862.08,498.5 
		863.04,506.47 863.04,514.44 863.04,522.43 866.35,537.18 858.29,537.58 855.46,529.61 855.46,521.63 855.46,513.65 855.46,505.67 
		855.46,497.7 855.46,489.73 855.46,481.75 855.46,473.77 851.9,463.01 844.08,463.21 831.52,463.21 822.03,461.61 814.46,462.61 
		816.35,475.96 814.46,483.14 814.46,493.51 814.46,500.49 813.74,509.06 816.35,515.85 816.35,523.82 816.35,533.39 816.35,541.37 
		806.16,539.57 808.05,534.79 808.29,526.01 806.87,516.64 806.87,508.67 805.92,500.69 805.92,492.71 805.92,483.94 805.92,475.17 
		804.98,463.21 804.02,455.23 804.02,447.24 804.02,439.27 804.02,431.3 804.02,422.52 804.02,412.94 804.02,399.38 801.9,384.02 	
		"/>
	<path class="st0" d="M945.5,393.79h-11.37h-9.48l-10.43,1.6l-3.79,7.99v8.77l-0.94,7.98v8.77v7.98v7.96l2.84,7.99l6.64,9.57
		l8.76,4.38l14.23-1.8l-0.25-6.57l0.95-7.98v-7.98l0.94-7.97v-8.77v-7.98v-7.98l0.95-7.97L945.5,393.79z M953.09,393l-0.95,7.98
		v7.97v7.98l-0.96,9.58v7.97v8.78v7.97v7.98l0.96,7.97v9.57l1.9,7.99v7.97l2.6,9.58l0.95,7.97v7.98v7.97v7.98l-0.71,7.98l-9.49-5.59
		v-7.97v-7.97v-7.98l-0.94-7.98l-0.95-10.36l-0.94-9.57v-7.99l-0.95-6.97l-15.17,2.19l-5.67,6.39l-2.15,8.37l-0.71,8.58l-2.84,7.98
		l-1.9,7.97l-1.43,7.98l0.24,9.76l-3.79,7.18l-7.82,4.79l-5.93-2.99l7.36-6.59l4.26-5.98l0.48-8.77l0.95-7.97l0.71-7.18l2.6-8.38
		l0.48-8.37l3.54-7.99l5.94-5.79l-9.72-4.98l-5.46-9.96l-2.84-7.99l-0.95-7.96v-7.99v-7.98l0.95-7.98l0.95-7.97l0.95-7.98l5.68-7.98
		l9.48-2.39h9.48h9.48h9.48L953.09,393z"/>
	<g>
		<path class="st0" d="M707.49,537.95c1.65-27.2-1.34-177.81-3.7-211.53c-0.52-7.43,0.73-15.44-0.25-22.84l-0.99-3.58
			c-5.35,1.17-7.9,9.28-11.32,13.69c-7.26,9.3-28.04,34.45-39.09,34.73c0.06-8.31,5.3-8.66,11.55-13.9
			c3.9-3.28,9.12-8.15,12.41-11.99c3.42-4,20.1-22.85,20.9-29.45c-5.25,0.44-32.93,15.24-41.22,18.51
			c-13.2,5.24-25.21,10.65-38.35,14.79c-5.48,1.73-3.09,1.7-6.24-0.63c0.46-6,6.79-6.3,12.23-8.58c9.9-4.19,20.12-6.89,30.06-11.34
			l10.87-4.36c4.49-2.15,1.75,0.67,2.93-3.4c-4.48-1.48-37.88,0.5-46.58,0.52c-8.81,0-15.17-0.8-23.66-1.27
			c-3.65-0.2-8.17,0.2-11.63-0.45c-3.58-0.68-6.41-1.66-6.35-6.82c4.69-2.84,18.56,2,25.23,2.44c16.65,1.06,74.24,1.41,83.47-7.93
			c-1.55-5.1-5.99-5.09-11.19-6.69c-17.68-5.41-34.18-12.73-50.96-21.1c-4.58-2.27-7.12-4.27-11.9-6.39
			c-4.12-1.84-7.25-3.94-11.6-6.47c-5.59-3.23-9.54-3.07-9.86-10.45c9-0.03,37.48,22.31,42.73,19.37
			c-1.41-3.48-16.82-15.66-21.82-20.75c-3.63-3.7-6.6-7.56-10.11-11.56c-2.8-3.18-8.12-7.54-6.36-14.63
			c4.91-0.39,6.99,5.98,9.42,8.96c9.01,11.05,18.54,20.65,29.78,29.82c11.73,9.54,34.99,28.05,50.18,28.08
			c-1.71-4.35-17.98-17.87-21.61-22.12c-6.7-7.87-12.98-14.91-20.11-25.23c-8.96-12.97-18.31-27.61-23.41-44.7
			c-1.74-5.84-4.92-16.62,3.16-15.24c1.63,4.61,0.89,10.29,3.13,16.48c1.46,4.03,3.79,9.7,5.66,13.53
			c7.55,15.61,38.38,60.06,49.61,63.58c-0.87-4.96-7.02-15.73-9.51-21.55c-5.89-13.83-24.18-62.56-16.76-74.27l2.88-0.39
			c2.72,5.32,0.93,8.21,2.15,15.59c4.06,24.5,11.25,47.7,22.4,68.93c3.1,5.88,9.04,20.2,14.26,21.39c0.66-6.95-0.22-7.67-1.89-13.46
			c-3.45-11.84-4.92-31.12-5.5-43.68c-0.66-14.22-6.99-49.81-2.76-61.62c6.71,0.62,4.44,4.79,4.55,13.02
			c0.24,17.12,1.6,33,3.4,50.36c0.61,5.79,1.32,10.01,2.37,15.16c1.02,5.06,0.59,10.73,1.3,16.62c0.71,5.81,2.11,9.12,3.26,14.15
			c1.46,6.45-0.06,11.49,5.4,12.25c4.92-0.91,13.92-31.79,16.54-38.56c4.22-10.93,8.17-36.23,8.61-48.79
			c0.5-14.82-4.63-27.94-4.34-33.98c15.41,1.06,8.95,53.02,6.89,62.05c-1.99,8.77-5.34,19.45-7.92,28.59
			c-2.38,8.4-9.39,21.12-9.66,27.75c9.36-2.62,26.42-47.39,29.79-62.36c2.39-10.61,5.89-20.91,7.32-31.65
			c0.77-5.82-0.3-13.3,5.57-13.89c2.47,4.12,0.53,10.19-0.07,14.78c-1.15,8.9-7.49,32.95-9.96,40.34
			c-2.71,8.17-5.39,17.16-8.62,24.79c-2.76,6.53-9.19,16.55-10.18,22.43c14.15-3.53,37.78-41.37,43.61-58.45l5.46-21.23
			c1.13-4.62,0.89-4.14,4.33-5.03c2.5,3.9,0.83,8.13-0.22,12.86c-1.05,4.73-1.86,8.09-3.28,12.08
			c-6.97,19.48-16.84,35.39-29.19,49.8c-0.47,0.54-1.4,1.62-1.62,2.07l-0.33,1.43c-0.01,0.06-0.02,0.31,0.03,0.45
			c4.75,2.28,33.2-38.32,36.26-43.43c3.48-5.81,6.31-14.8,13.21-14.97c-0.21,10.88-18.48,32.53-24.54,40.88
			c-10.97,15.11-21.84,22.03-31.04,33.1c9.87,0.24,32.68-17.46,39.38-23.44c5.68-5.08,11.51-10.25,16.42-15.77
			c3.54-3.96,12.26-15.31,16.5-16.21c2.86,5.8-2.45,9.39-5.14,12.52c-3.38,3.93-5.69,6.58-9.92,10.69
			c-18.11,17.54-35.58,31.09-57.87,40.55c-4.7,1.99-11.53,0.95-15.44,4.63c2.18,5.05,5.02,3.78,10.82,4.87
			c13.5,2.52,29.96,3.17,43.36,0.53c9.19-1.8,16.69-2.48,24.44-6.45c5.01-2.55,6.81-2.46,10.55-5.65c3.93-3.35,4.92-5.86,10.52-6.03
			c0.68,8.66-8.17,12.13-13.81,15c-14.37,7.33-28.39,9.94-44.61,9.91c-4.48-0.01-22.55-1.83-24.34,1.58
			c1.36,2.98,27.26,10.19,29.8,10.45c14.25,1.53,27.36-1.64,38.39-1.15c-0.29,6.52-3.77,7.2-9.22,7.51
			c-10.14,0.58-20.92,0.87-31.04-0.11c-7.74-0.74-28.1-9.46-35.06-12.83c-5.13-2.49-18.18-10.03-22.27-10.31
			c1.12,6.2,11.43,17.71,14.99,21.86c26.31,30.75,62.27,31.63,66.29,34.97c2.82,2.31,0.99-0.39,1.7,3.54
			c-3.72,2.69-10.19,1.11-14.26-0.4c-17.75-6.63-13.33-1.19-36.72-15.56c-5.98-3.66-15.01-11.29-19.14-15.83
			c-2.82-3.09-5.59-6.22-8.05-9.7c-2.49-3.54-4.95-8.63-8.93-8.92c-1.11,12.69,1.53,31.82,1.51,45.09
			c-0.02,15.77-0.09,32.5,0.72,47.63c1.61,29.73,0.15,94.21-0.22,124.45c0,0,3.87,9.43,3.74,24.8
			C717.46,580.59,710.14,568.02,707.49,537.95"/>
		<path class="st1" d="M711.13,551.69l0.09,2.97c0.15,0.19,0.67,2.33,0.83,2.53l0.72,1.15c0.95,1.01,3.16,0.8,4.14-0.72
			c0.47-0.73,0.47-0.73,0.75-2.91l0.15-5.05c3.94,5.17,5.2,13.41,5.57,17.76c0.9,10.01-1.22,17.67-2.23,26.92
			c-0.91,8.35,0.1,20.83-4.17,25.16c-5.18-1.69-4.88-8.94-6.04-14.91c-1.07-5.5-2.06-10.88-3.04-16.77
			c-5.51-33.42-0.83-24.12,0.94-40.1C708.82,547.72,711.23,551.8,711.13,551.69"/>
	</g>
</g>
<g>
	<path class="st0" d="M356.18,677.93c-1.01,0.78-2.29,1.32-3.84,1.62c-1.55,0.3-3.2,0.45-4.95,0.45c-2.12,0-4.1-0.36-5.95-1.08
		c-1.85-0.72-3.47-1.83-4.84-3.31c-1.38-1.48-2.47-3.37-3.28-5.68c-0.81-2.3-1.21-5.03-1.21-8.2c0-3.29,0.45-6.1,1.34-8.4
		c0.89-2.31,2.07-4.19,3.53-5.66c1.46-1.47,3.1-2.53,4.92-3.2c1.82-0.67,3.67-1.01,5.55-1.01c2.02,0,3.67,0.11,4.95,0.32
		c1.28,0.22,2.37,0.52,3.28,0.88l-1.01,3.73c-1.62-0.81-3.92-1.21-6.92-1.21c-1.38,0-2.74,0.26-4.09,0.76
		c-1.35,0.5-2.55,1.33-3.61,2.47c-1.06,1.15-1.91,2.64-2.55,4.5c-0.64,1.85-0.96,4.12-0.96,6.81c0,2.42,0.3,4.54,0.91,6.36
		c0.6,1.81,1.44,3.33,2.5,4.54c1.06,1.21,2.3,2.12,3.74,2.73s2.99,0.91,4.67,0.91c1.51,0,2.83-0.16,3.96-0.46
		c1.13-0.3,2.08-0.68,2.85-1.15L356.18,677.93z"/>
	<path class="st0" d="M384.69,647.8h-11v31.59h-4.19V647.8h-11v-3.73h26.19V647.8z"/>
	<path class="st0" d="M410.68,652.15c0,0.84-0.13,1.7-0.4,2.58c-0.27,0.87-0.67,1.69-1.21,2.44c-0.54,0.76-1.23,1.42-2.07,1.99
		c-0.84,0.57-1.83,1.01-2.98,1.32v0.2c1.01,0.17,1.98,0.45,2.9,0.86c0.92,0.4,1.74,0.96,2.45,1.67c0.71,0.71,1.28,1.56,1.72,2.57
		c0.44,1.01,0.65,2.2,0.65,3.58c0,1.82-0.38,3.39-1.13,4.72c-0.76,1.33-1.75,2.41-2.98,3.25c-1.23,0.84-2.63,1.46-4.21,1.86
		c-1.58,0.4-3.2,0.6-4.84,0.6c-0.57,0-1.25,0-2.02,0c-0.78,0-1.58-0.02-2.42-0.07c-0.84-0.05-1.68-0.12-2.53-0.2
		c-0.84-0.08-1.58-0.21-2.22-0.38v-34.77c1.25-0.2,2.69-0.37,4.34-0.5c1.65-0.13,3.45-0.2,5.4-0.2c1.31,0,2.65,0.11,4.01,0.33
		c1.36,0.22,2.6,0.64,3.71,1.27c1.11,0.62,2.03,1.49,2.75,2.6C410.32,648.97,410.68,650.4,410.68,652.15z M396.2,659.62
		c0.57,0,1.26-0.02,2.07-0.06c0.81-0.03,1.48-0.08,2.02-0.15c0.81-0.27,1.56-0.6,2.27-0.99c0.71-0.39,1.34-0.84,1.89-1.37
		c0.55-0.52,0.99-1.13,1.31-1.81c0.32-0.69,0.48-1.44,0.48-2.25c0-1.11-0.21-2.03-0.63-2.75c-0.42-0.73-0.98-1.3-1.69-1.75
		c-0.71-0.44-1.51-0.74-2.42-0.93c-0.91-0.18-1.83-0.28-2.77-0.28c-1.11,0-2.13,0.03-3.05,0.08c-0.92,0.05-1.62,0.12-2.09,0.22
		v12.02H396.2z M398.97,676.17c1.08,0,2.12-0.13,3.13-0.38c1.01-0.25,1.9-0.66,2.67-1.21c0.77-0.56,1.39-1.24,1.84-2.04
		c0.45-0.81,0.68-1.76,0.68-2.88c0-1.38-0.28-2.49-0.83-3.33c-0.56-0.84-1.28-1.49-2.17-1.97c-0.89-0.47-1.89-0.78-3-0.95
		c-1.11-0.17-2.22-0.26-3.33-0.26h-4.39v12.67c0.24,0.07,0.57,0.12,1.01,0.16c0.44,0.03,0.91,0.07,1.41,0.1
		c0.51,0.03,1.03,0.06,1.57,0.07C398.09,676.16,398.57,676.17,398.97,676.17z"/>
	<path class="st0" d="M418.9,661.73c0-5.89,1.25-10.4,3.74-13.55c2.49-3.15,6.04-4.71,10.65-4.71c2.49,0,4.64,0.44,6.46,1.31
		c1.82,0.87,3.32,2.11,4.52,3.71c1.2,1.6,2.08,3.52,2.65,5.76c0.57,2.24,0.86,4.74,0.86,7.49c0,5.89-1.25,10.4-3.76,13.55
		c-2.51,3.15-6.08,4.71-10.72,4.71c-2.46,0-4.59-0.44-6.39-1.31c-1.8-0.87-3.3-2.11-4.49-3.71c-1.2-1.6-2.08-3.52-2.65-5.76
		C419.19,666.99,418.9,664.49,418.9,661.73z M423.35,661.73c0,1.95,0.19,3.8,0.58,5.55c0.39,1.75,0.98,3.29,1.79,4.61
		c0.81,1.33,1.84,2.39,3.1,3.18c1.26,0.79,2.75,1.19,4.47,1.19c3.13,0,5.58-1.19,7.37-3.56c1.78-2.37,2.68-6.03,2.68-10.98
		c0-1.92-0.2-3.76-0.58-5.53c-0.39-1.76-0.99-3.31-1.82-4.64c-0.82-1.33-1.86-2.39-3.13-3.18c-1.26-0.79-2.77-1.19-4.52-1.19
		c-3.1,0-5.53,1.19-7.29,3.56C424.23,653.13,423.35,656.79,423.35,661.73z"/>
	<path class="st0" d="M456.4,644.42c1.28-0.3,2.66-0.5,4.14-0.6c1.48-0.1,2.94-0.15,4.39-0.15c1.55,0,3.12,0.15,4.72,0.45
		c1.6,0.3,3.05,0.86,4.37,1.67c1.31,0.81,2.38,1.92,3.21,3.33c0.82,1.42,1.24,3.21,1.24,5.4c0,2.15-0.39,3.96-1.16,5.44
		c-0.78,1.48-1.8,2.69-3.08,3.61c-1.28,0.92-2.74,1.59-4.39,1.99c-1.65,0.4-3.35,0.6-5.1,0.6c-0.17,0-0.44,0-0.83,0
		s-0.79-0.01-1.21-0.03c-0.42-0.01-0.83-0.04-1.23-0.07c-0.41-0.03-0.69-0.07-0.86-0.1v13.42h-4.19V644.42z M465.03,647.3
		c-0.87,0-1.71,0.02-2.52,0.06c-0.81,0.03-1.45,0.11-1.92,0.25v14.64c0.17,0.07,0.44,0.11,0.81,0.12c0.37,0.02,0.76,0.04,1.16,0.06
		c0.4,0.02,0.79,0.02,1.16,0.02c0.37,0,0.64,0,0.81,0c1.15,0,2.28-0.11,3.41-0.33c1.13-0.22,2.14-0.62,3.05-1.19
		c0.91-0.57,1.64-1.38,2.2-2.42c0.55-1.05,0.83-2.37,0.83-3.99c0-1.38-0.26-2.54-0.78-3.46c-0.52-0.93-1.21-1.67-2.07-2.22
		c-0.86-0.56-1.83-0.95-2.9-1.19C467.18,647.42,466.11,647.3,465.03,647.3z"/>
	<path class="st0" d="M490.31,659.46h6.26c0.27-5.15,1.57-9.09,3.89-11.86c2.32-2.76,5.64-4.13,9.94-4.13
		c2.46,0,4.56,0.44,6.31,1.31c1.75,0.87,3.16,2.11,4.24,3.71c1.08,1.6,1.87,3.52,2.37,5.76c0.5,2.24,0.76,4.74,0.76,7.49
		c0,5.89-1.13,10.4-3.38,13.55c-2.26,3.15-5.69,4.71-10.3,4.71c-2.32,0-4.34-0.39-6.06-1.18s-3.14-1.92-4.26-3.38
		c-1.13-1.46-1.98-3.23-2.55-5.3c-0.57-2.07-0.91-4.38-1.01-6.93h-6.21v16.19h-4.19v-35.32h4.19V659.46z M501.01,661.73
		c0,1.95,0.17,3.8,0.5,5.55c0.34,1.75,0.87,3.29,1.61,4.61c0.74,1.33,1.7,2.39,2.89,3.18c1.19,0.79,2.66,1.19,4.4,1.19
		c3.12,0,5.44-1.18,6.95-3.53c1.51-2.36,2.26-6.02,2.26-11c0-1.92-0.15-3.76-0.45-5.53c-0.3-1.76-0.81-3.31-1.53-4.64
		c-0.72-1.33-1.67-2.39-2.84-3.18c-1.17-0.79-2.63-1.19-4.38-1.19c-3.12,0-5.47,1.19-7.04,3.56
		C501.8,653.13,501.01,656.79,501.01,661.73z"/>
	<path class="st0" d="M536.89,659.46h6.26c0.27-5.15,1.56-9.09,3.89-11.86c2.32-2.76,5.64-4.13,9.94-4.13
		c2.46,0,4.56,0.44,6.31,1.31c1.75,0.87,3.16,2.11,4.24,3.71c1.08,1.6,1.87,3.52,2.37,5.76c0.5,2.24,0.76,4.74,0.76,7.49
		c0,5.89-1.13,10.4-3.38,13.55c-2.26,3.15-5.69,4.71-10.3,4.71c-2.32,0-4.34-0.39-6.06-1.18c-1.72-0.79-3.14-1.92-4.26-3.38
		s-1.98-3.23-2.55-5.3c-0.57-2.07-0.91-4.38-1.01-6.93h-6.21v16.19h-4.19v-35.32h4.19V659.46z M547.59,661.73
		c0,1.95,0.17,3.8,0.5,5.55c0.34,1.75,0.87,3.29,1.61,4.61c0.74,1.33,1.7,2.39,2.89,3.18c1.19,0.79,2.66,1.19,4.4,1.19
		c3.12,0,5.44-1.18,6.95-3.53c1.51-2.36,2.26-6.02,2.26-11c0-1.92-0.15-3.76-0.45-5.53c-0.3-1.76-0.81-3.31-1.53-4.64
		c-0.72-1.33-1.67-2.39-2.84-3.18c-1.17-0.79-2.63-1.19-4.38-1.19c-3.12,0-5.47,1.19-7.04,3.56
		C548.38,653.13,547.59,656.79,547.59,661.73z"/>
	<path class="st0" d="M582.36,644.07v11.7c0,4.61,2.09,6.92,6.26,6.92c1.58,0,3.06-0.21,4.44-0.64c1.38-0.41,2.51-0.98,3.38-1.69
		v-16.29h4.19v35.32h-4.19v-15.24c-0.91,0.51-2.1,1.01-3.58,1.52c-1.48,0.5-3.18,0.76-5.1,0.76c-1.41,0-2.71-0.16-3.89-0.48
		c-1.18-0.31-2.19-0.85-3.03-1.61c-0.84-0.76-1.5-1.77-1.97-3.05c-0.47-1.28-0.71-2.86-0.71-4.74v-12.46H582.36z"/>
	<path class="st0" d="M632.32,655.47l0.3-4.03h-0.2l-2.17,4.13L613.2,679.4h-2.47v-35.32h4.19v24.22l-0.35,3.99h0.2l2.22-4.14
		l17.06-24.07h2.47v35.32h-4.19V655.47z"/>
	<path class="st0" d="M682.74,663.2h-16.96v16.19h-4.19v-35.32h4.19v15.39h16.96v-15.39h4.19v35.32h-4.19V663.2z"/>
	<path class="st0" d="M695.56,661.73c0-5.89,1.25-10.4,3.73-13.55c2.49-3.15,6.04-4.71,10.65-4.71c2.49,0,4.64,0.44,6.46,1.31
		c1.82,0.87,3.32,2.11,4.52,3.71c1.2,1.6,2.08,3.52,2.65,5.76c0.57,2.24,0.86,4.74,0.86,7.49c0,5.89-1.25,10.4-3.76,13.55
		c-2.51,3.15-6.08,4.71-10.72,4.71c-2.46,0-4.59-0.44-6.39-1.31c-1.8-0.87-3.3-2.11-4.49-3.71c-1.2-1.6-2.08-3.52-2.65-5.76
		C695.84,666.99,695.56,664.49,695.56,661.73z M700,661.73c0,1.95,0.19,3.8,0.58,5.55c0.39,1.75,0.98,3.29,1.79,4.61
		c0.81,1.33,1.84,2.39,3.1,3.18c1.26,0.79,2.75,1.19,4.47,1.19c3.13,0,5.58-1.19,7.37-3.56c1.78-2.37,2.68-6.03,2.68-10.98
		c0-1.92-0.2-3.76-0.58-5.53c-0.39-1.76-0.99-3.31-1.82-4.64c-0.82-1.33-1.86-2.39-3.13-3.18c-1.26-0.79-2.77-1.19-4.52-1.19
		c-3.1,0-5.53,1.19-7.29,3.56C700.88,653.13,700,656.79,700,661.73z"/>
	<path class="st0" d="M754.35,652.15c0,0.84-0.13,1.7-0.4,2.58c-0.27,0.87-0.67,1.69-1.21,2.44c-0.54,0.76-1.23,1.42-2.07,1.99
		c-0.84,0.57-1.83,1.01-2.98,1.32v0.2c1.01,0.17,1.98,0.45,2.9,0.86c0.92,0.4,1.74,0.96,2.45,1.67c0.71,0.71,1.28,1.56,1.72,2.57
		c0.44,1.01,0.65,2.2,0.65,3.58c0,1.82-0.38,3.39-1.13,4.72c-0.76,1.33-1.75,2.41-2.98,3.25c-1.23,0.84-2.63,1.46-4.21,1.86
		c-1.58,0.4-3.2,0.6-4.84,0.6c-0.57,0-1.25,0-2.02,0c-0.78,0-1.58-0.02-2.42-0.07c-0.84-0.05-1.68-0.12-2.53-0.2
		c-0.84-0.08-1.58-0.21-2.22-0.38v-34.77c1.25-0.2,2.69-0.37,4.34-0.5c1.65-0.13,3.45-0.2,5.4-0.2c1.31,0,2.65,0.11,4.01,0.33
		c1.36,0.22,2.6,0.64,3.71,1.27c1.11,0.62,2.03,1.49,2.75,2.6C753.99,648.97,754.35,650.4,754.35,652.15z M739.87,659.62
		c0.57,0,1.26-0.02,2.07-0.06c0.81-0.03,1.48-0.08,2.02-0.15c0.81-0.27,1.56-0.6,2.27-0.99c0.71-0.39,1.34-0.84,1.89-1.37
		c0.55-0.52,0.99-1.13,1.31-1.81c0.32-0.69,0.48-1.44,0.48-2.25c0-1.11-0.21-2.03-0.63-2.75c-0.42-0.73-0.98-1.3-1.69-1.75
		c-0.71-0.44-1.51-0.74-2.42-0.93c-0.91-0.18-1.83-0.28-2.77-0.28c-1.11,0-2.13,0.03-3.05,0.08c-0.92,0.05-1.62,0.12-2.09,0.22
		v12.02H739.87z M742.64,676.17c1.08,0,2.12-0.13,3.13-0.38c1.01-0.25,1.9-0.66,2.67-1.21c0.77-0.56,1.39-1.24,1.84-2.04
		c0.45-0.81,0.68-1.76,0.68-2.88c0-1.38-0.28-2.49-0.83-3.33c-0.56-0.84-1.28-1.49-2.17-1.97c-0.89-0.47-1.89-0.78-3-0.95
		c-1.11-0.17-2.22-0.26-3.33-0.26h-4.39v12.67c0.24,0.07,0.57,0.12,1.01,0.16c0.44,0.03,0.91,0.07,1.41,0.1
		c0.51,0.03,1.03,0.06,1.57,0.07C741.77,676.16,742.24,676.17,742.64,676.17z"/>
	<path class="st0" d="M773.98,662.7l1.31,4.49h0.25l1.01-4.65l6.76-18.47h4.29l-8.93,22.96c-0.91,2.39-1.71,4.38-2.4,5.98
		c-0.69,1.6-1.39,2.9-2.09,3.89c-0.71,1-1.46,1.7-2.27,2.12c-0.81,0.42-1.8,0.63-2.98,0.63c-1.11,0-1.99-0.1-2.65-0.28
		c-0.66-0.18-1.27-0.46-1.84-0.83l1.26-3.48c0.67,0.37,1.29,0.6,1.87,0.71c0.57,0.1,1.09,0.15,1.57,0.15c0.94,0,1.73-0.48,2.37-1.43
		c0.64-0.96,1.19-2.38,1.67-4.27l-13.07-26.14h4.85L773.98,662.7z"/>
	<path class="st0" d="M827.07,679.4h-4.19v-15.39l-5.2,1.11l-8.78,14.28h-4.94l7.87-12.57l3.08-2.17c-1.21-0.27-2.33-0.68-3.36-1.24
		c-1.02-0.55-1.91-1.27-2.67-2.12c-0.76-0.86-1.35-1.86-1.77-3.01c-0.42-1.14-0.63-2.46-0.63-3.94c0-2.05,0.34-3.76,1.03-5.12
		c0.69-1.37,1.63-2.46,2.83-3.28c1.19-0.83,2.59-1.41,4.19-1.77c1.6-0.35,3.29-0.53,5.07-0.53c1.14,0,2.36,0.05,3.66,0.15
		c1.3,0.1,2.57,0.3,3.81,0.6V679.4z M819.4,647.3c-1.11,0-2.17,0.11-3.18,0.33c-1.01,0.22-1.91,0.6-2.7,1.14
		c-0.79,0.54-1.42,1.26-1.89,2.17c-0.47,0.91-0.71,2.05-0.71,3.43c0,1.28,0.23,2.37,0.68,3.28c0.46,0.91,1.07,1.66,1.84,2.25
		c0.78,0.59,1.67,1.02,2.7,1.29c1.02,0.27,2.13,0.4,3.3,0.4h3.43V647.6c-0.47-0.1-0.96-0.17-1.46-0.22
		C820.92,647.33,820.24,647.3,819.4,647.3z"/>
	<path class="st0" d="M843.72,663.04h-2.37v16.35h-4.19v-35.32h4.19v16.45l2.27-0.71l11.86-15.75h4.85l-11.81,15.19l-2.12,1.67
		l2.57,2.02l12.92,16.45h-5.3L843.72,663.04z"/>
	<path class="st0" d="M870.42,644.07h4.19v35.32h-4.19V644.07z"/>
	<path class="st0" d="M908.27,677.93c-1.01,0.78-2.29,1.32-3.83,1.62c-1.55,0.3-3.2,0.45-4.95,0.45c-2.12,0-4.1-0.36-5.96-1.08
		c-1.85-0.72-3.47-1.83-4.84-3.31c-1.38-1.48-2.48-3.37-3.28-5.68c-0.81-2.3-1.21-5.03-1.21-8.2c0-3.29,0.45-6.1,1.34-8.4
		c0.89-2.31,2.07-4.19,3.53-5.66c1.46-1.47,3.1-2.53,4.92-3.2s3.67-1.01,5.55-1.01c2.02,0,3.67,0.11,4.95,0.32
		c1.28,0.22,2.37,0.52,3.28,0.88l-1.01,3.73c-1.62-0.81-3.92-1.21-6.92-1.21c-1.38,0-2.74,0.26-4.09,0.76
		c-1.35,0.5-2.55,1.33-3.61,2.47c-1.06,1.15-1.91,2.64-2.55,4.5c-0.64,1.85-0.96,4.12-0.96,6.81c0,2.42,0.3,4.54,0.91,6.36
		c0.6,1.81,1.44,3.33,2.5,4.54c1.06,1.21,2.3,2.12,3.74,2.73s2.99,0.91,4.67,0.91c1.51,0,2.83-0.16,3.96-0.46
		c1.13-0.3,2.07-0.68,2.85-1.15L908.27,677.93z"/>
	<path class="st0" d="M934.77,647.8h-11v31.59h-4.19V647.8h-11v-3.73h26.19V647.8z"/>
	<path class="st0" d="M939.46,644.07h4.19v13.72c0.17-0.03,0.45-0.07,0.86-0.13c0.4-0.04,0.84-0.09,1.31-0.12
		c0.47-0.03,0.96-0.07,1.46-0.1c0.5-0.03,0.96-0.05,1.36-0.05c1.62,0,3.19,0.16,4.72,0.48c1.53,0.32,2.89,0.88,4.09,1.69
		c1.2,0.81,2.16,1.89,2.9,3.26c0.74,1.36,1.11,3.09,1.11,5.17c0,2.02-0.35,3.76-1.06,5.25c-0.71,1.48-1.68,2.7-2.93,3.68
		c-1.25,0.97-2.7,1.7-4.37,2.17c-1.67,0.47-3.47,0.71-5.43,0.71c-0.47,0-1.04-0.01-1.72-0.02c-0.67-0.02-1.39-0.05-2.14-0.1
		c-0.76-0.05-1.51-0.12-2.27-0.22c-0.76-0.1-1.46-0.24-2.09-0.4V644.07z M948.24,676.17c1.21,0,2.35-0.16,3.4-0.48
		c1.06-0.32,1.99-0.81,2.8-1.47c0.81-0.65,1.44-1.48,1.89-2.47c0.45-0.99,0.68-2.14,0.68-3.45c0-1.41-0.25-2.59-0.76-3.53
		c-0.51-0.95-1.17-1.69-1.99-2.25c-0.83-0.56-1.78-0.94-2.85-1.17c-1.08-0.21-2.19-0.32-3.33-0.32c-0.3,0-0.67,0.02-1.11,0.05
		c-0.44,0.03-0.88,0.07-1.31,0.1c-0.44,0.03-0.84,0.08-1.21,0.15c-0.37,0.07-0.64,0.12-0.81,0.15v14.39
		c0.47,0.1,1.15,0.17,2.02,0.22C946.54,676.14,947.4,676.17,948.24,676.17z"/>
</g>
<g>
</g>
<g>
</g>
<g>
</g>
<g>
</g>
<g>
</g>
<g>
</g>
<g>
</g>
<g>
</g>
<g>
</g>
<g>
</g>
<g>
</g>
<g>
</g>
<g>
</g>
<g>
</g>
<g>
</g>
</svg>
