<svg data-name="Layer 1" xmlns="http://www.w3.org/2000/svg" viewBox="0 0 239.53 71.64">
  <defs>
    <clipPath id="a">
      <path style="fill:none" d="M-33.82-21.35h307.14V96.53H-33.82z"/>
    </clipPath>
  </defs>
  <g style="clip-path:url(#a)">
    <path d="M.3 35.82a35.52 35.52 0 1 1 35.52 35.52A35.52 35.52 0 0 1 .3 35.82" style="fill:#fff"/>
    <path d="M35.82 64.14A28.32 28.32 0 1 0 7.49 35.82a28.32 28.32 0 0 0 28.33 28.32" style="fill:#fff"/>
    <path d="M113.87 12.66V32.1c0 11.35-7.73 15.27-17.12 15.27-10 0-17.13-4.62-17.13-15.22V12.66h8.54v19.69c0 4.92 3.56 7.89 8.49 7.89 4.52 0 8.69-2.37 8.69-8.49V12.66ZM143.75 21.55c-5-2.21-7.93-3.06-10.85-3.06s-5 1.1-5 2.81c0 5.17 17.43 3.72 17.43 15.67 0 6.58-5.53 10.4-13.16 10.4-6 0-8.94-1.56-12.36-3.32v-7.38c4.92 3.27 7.94 4.42 11.71 4.42 3.26 0 5-1.15 5-3.17 0-5.62-17.43-3.56-17.43-15.86 0-5.93 5.12-9.85 13.06-9.85a28 28 0 0 1 11.6 2.66ZM84 55.36h-3.2v2.27H84v1h-3.2v3.81h-1.17V54.3H84ZM86.44 57.88h.76c1.26 0 1.62-.65 1.6-1.33s-.46-1.24-1.6-1.24h-.76Zm.89-3.58c1.65 0 2.69.88 2.69 2.3a2.06 2.06 0 0 1-1.37 2 6.67 6.67 0 0 1 1.82 2.27c.35.56.56.84 1.12 1.62h-1.4l-1.08-1.68c-1.09-1.68-1.58-1.87-2.18-1.87h-.49v3.55h-1.17V54.3ZM95.68 61.52a3.12 3.12 0 1 0-3.18-3.13 3.08 3.08 0 0 0 3.18 3.13m0-7.32a4.2 4.2 0 1 1-4.39 4.19 4.16 4.16 0 0 1 4.39-4.19M108.89 62.49h-1.18v-6.37l-2.52 3.17H105l-2.52-3.17v6.37h-1.18V54.3h1.11l2.71 3.36 2.73-3.36h1.09ZM119.77 55.36h-2.84v7.13h-1.17v-7.13h-2.84V54.3h6.85ZM127.69 62.49h-1.18v-3.57h-4.58v3.57h-1.18V54.3h1.18v3.57h4.58V54.3h1.18ZM134.11 55.36h-3.47v2.47H134v1.06h-3.35v2.54h3.58v1.06h-4.75V54.3h4.64ZM140.41 59H143l-1.32-3Zm5.31 3.47h-1.2l-1.09-2.41H140l-1 2.41h-1.2l3.51-8.23h.83ZM154.11 62.49h-1.17v-6.37l-2.52 3.17h-.19l-2.52-3.17v6.37h-1.17V54.3h1.1l2.72 3.36L153 54.3h1.09ZM160.5 55.36H157v2.47h3.35v1.06H157v2.54h3.58v1.06h-4.76V54.3h4.65ZM163.05 57.88h.75c1.26 0 1.62-.65 1.61-1.33s-.47-1.24-1.61-1.24h-.75Zm.88-3.58c1.66 0 2.69.88 2.69 2.3a2.05 2.05 0 0 1-1.36 2 6.79 6.79 0 0 1 1.82 2.27c.35.56.55.84 1.11 1.62h-1.4l-1.08-1.68c-1.08-1.68-1.57-1.87-2.17-1.87h-.49v3.55h-1.18V54.3ZM169.91 62.49h-1.17V54.3h1.17ZM178.46 56.13a5.37 5.37 0 0 0-2.82-.85 3.11 3.11 0 0 0-3.27 3.13 3.07 3.07 0 0 0 3.32 3.11 5.35 5.35 0 0 0 2.85-.93v1.29a6 6 0 0 1-3 .72 4.18 4.18 0 0 1-4.42-4.08 4.26 4.26 0 0 1 4.49-4.32 7.1 7.1 0 0 1 2.81.67ZM181.63 59h2.55l-1.32-3Zm5.37 3.49h-1.2l-1.09-2.41h-3.48l-1 2.41h-1.2l3.52-8.23h.83ZM195.3 62.49h-1l-5.47-6.3v6.3h-1.11V54.3h.94l5.54 6.34V54.3h1.11ZM201.84 57.89h1.34a1.27 1.27 0 0 0 1.44-1.28c0-.6-.33-1.25-1.4-1.25h-1.38Zm1.38-3.59a2.3 2.3 0 0 1 2.61 2.35c0 1.29-.86 2.3-2.76 2.3h-1.23v3.54h-1.17V54.3ZM211.48 55.36H208v2.47h3.34v1.06H208v2.54h3.57v1.06h-4.75V54.3h4.64ZM216.87 61.52a3.12 3.12 0 1 0-3.18-3.13 3.08 3.08 0 0 0 3.18 3.13m0-7.32a4.2 4.2 0 1 1-4.39 4.19 4.17 4.17 0 0 1 4.39-4.19M223.59 57.89h1.33c.88 0 1.44-.47 1.44-1.28 0-.6-.32-1.25-1.39-1.25h-1.38ZM225 54.3a2.29 2.29 0 0 1 2.6 2.35c0 1.29-.86 2.3-2.76 2.3h-1.22v3.54h-1.18V54.3ZM229.75 61.43h3.7v1.06h-4.88V54.3h1.18ZM239 55.36h-3.47v2.47h3.35v1.06h-3.35v2.54h3.58v1.06h-4.75V54.3H239ZM.59 35.82a35.23 35.23 0 1 1 35.23 35.23A35.26 35.26 0 0 1 .59 35.82m-.59 0A35.82 35.82 0 1 0 35.82 0 35.86 35.86 0 0 0 0 35.82"/>
    <path d="M7.79 35.82a28 28 0 1 1 28 28 28.05 28.05 0 0 1-28-28m-.59 0A28.62 28.62 0 1 0 35.82 7.2 28.65 28.65 0 0 0 7.2 35.82"/>
    <path d="M52.25 45.93H19.52v5.13h32.73ZM52.25 25.64H19.51v-9.49h32.74Z"/>
    <path d="M52.25 25.64H19.52v-9.49h32.73ZM67.75 30.05v1.35l-.81-1.09-1.29.42.79-1.08-.79-1.08 1.29.43.82-1.1v1.35l1.25.41ZM3.64 29.25V27.9l.82 1.1 1.29-.42L5 29.65l.79 1.08-1.34-.43-.81 1.1v-1.35l-1.26-.41ZM6.22 19.08l2 1a1.68 1.68 0 0 1 .7 2.52 1.68 1.68 0 0 1-2.42 1l-2-1 .43-.87 2 1a.89.89 0 0 0 1.24-.47.92.92 0 0 0-.43-1.32L5.79 20ZM12.34 17l-.47.67-3.29.33 2.05 1.43-.56.8L6.87 18l.52-.73 3.15-.34-2-1.37.56-.8ZM13.53 15.67l-.64.73L10 13.83l.64-.74ZM14.44 10.31l-1 1 2.18 2.32-.71.67L12.7 12l-1 1-.49-.53L14 9.79ZM19.33 10.66 17 12.35 14.71 9.2 17 7.53l.42.58-1.5 1.1.48.66 1.43-1 .43.58-1.44 1 .55.75 1.54-1.12ZM20.35 9.22l.56-.31a1.14 1.14 0 0 0 .52-1.69 1.15 1.15 0 0 0-1.72-.47l-.54.3Zm-.87-3.16a1.94 1.94 0 0 1 2.83.69c.54 1 .31 2.05-1.06 2.79l-1.42.77L18 6.88ZM26.81 4.11a3.11 3.11 0 0 0-1.28 0c-.33.11-.51.3-.45.49.19.56 2-.22 2.45 1.08.23.71-.23 1.32-1.06 1.59A2.64 2.64 0 0 1 25 7.4l-.27-.8a2.23 2.23 0 0 0 1.43.06c.35-.11.5-.3.43-.52-.2-.61-2 .23-2.45-1.1-.21-.64.2-1.25 1.06-1.53a3.27 3.27 0 0 1 1.35-.12ZM31.24 2.85l-1.39.27.62 3.13-1 .19-.57-3.13-1.39.27-.14-.7 3.73-.73ZM33.15 2.92l-.45 1.55 1.19-.09Zm2.51 2.78-1 .08-.43-.78-1.74.13-.23.8-1 .08L32.5 2h1.12ZM39 2.69h-1.41l-.12 3.18h-1l.13-3.27-1.41-.05v-.72L39 2ZM42.18 6.42 39.34 6 40 2.1l2.8.46-.12.71L40.81 3l-.13.81 1.76.29-.12.71-1.75-.29-.15.92 1.88.31ZM46.1 4.5a3 3 0 0 0-1.1-.67c-.34-.1-.59 0-.64.15-.16.57 1.8.95 1.42 2.26-.2.72-.93 1-1.76.73a2.57 2.57 0 0 1-1.25-.75l.23-.81a2.15 2.15 0 0 0 1.14.85c.36.1.59 0 .65-.19.18-.61-1.8-.93-1.42-2.28.19-.65.87-.92 1.74-.67a3.13 3.13 0 0 1 1.19.65ZM49.75 5.89 48.59 7l1.09.51Zm.81 3.66-1-.45v-.83l-1.58-.74-.6.57-.93-.43 3.17-2.87 1 .48ZM55.26 9.32a3.2 3.2 0 0 0-1-1.1 1.24 1.24 0 0 0-1.87.25 1.19 1.19 0 0 0 .5 1.7 1.41 1.41 0 0 0 .62.23l.25-.38-.48-.31.39-.6 1.29.84-.87 1.34a2.56 2.56 0 0 1-1.66-.45 2.1 2.1 0 0 1-.86-2.95 2.1 2.1 0 0 1 3.07-.4 3.77 3.77 0 0 1 1.09 1.11ZM56.55 14l-2.18-1.88 2.54-3 2.15 1.86-.46.54-1.42-1.22-.53.62L58 12.15l-.47.54-1.35-1.16-.61.72L57 13.49ZM59.63 17.4l-.55-.61.45-3.28-1.87 1.66-.66-.73 2.92-2.59.59.67-.4 3.14 1.78-1.58.65.73ZM62.32 20.85a3 3 0 0 1-1.16-1.07 2 2 0 0 1 .43-3 2.13 2.13 0 0 1 3 .87A2.8 2.8 0 0 1 65 19l-.73.47a2.6 2.6 0 0 0-.4-1.34 1.2 1.2 0 1 0-2 1.28 3.1 3.1 0 0 0 1.13.95ZM64.45 21.82l1.23-2.28.5 1.07-.75 1.29 1.47.25.5 1.06-2.53-.51-1.65.78-.42-.88ZM2 37.65v-1l3.9-.15v1ZM2.6 42.75l-.12-.81 2.16-2.5-2.48.36-.14-1 3.86-.56.13.88L4 41.56l2.36-.34.15 1ZM7 46.43l-.4-1.36-3.11.93-.28-.94 3.06-.91-.41-1.35.69-.21 1.09 3.64ZM5.41 50.83 4.25 48.2l3.57-1.57L9 49.22l-.65.29-.79-1.71-.75.34.71 1.62-.65.29-.72-1.63-.85.38.76 1.74ZM8.37 51.44l.26.44c.14.23.37.4.65.23s.29-.39.1-.7L9.13 51Zm1.77-.15A1.16 1.16 0 0 1 9.82 53a1 1 0 0 1-1.16-.09c0 .44-.32.79-1 1.85l-.55-.92c.5-.79 1.07-1.3.8-1.76l-.14-.24-1.36.81-.5-.84 3.36-2ZM10.57 58.48l-.52-.64.61-3.24-1.95 1.56-.61-.76 3.05-2.4.56.7-.57 3.12L13 55.29l.61.76ZM14.73 58.41l-1.46.72.88.82Zm-.36 3.73-.76-.72.29-.78-1.28-1.19-.74.37-.75-.71 3.81-1.78.82.77ZM19.18 61.68 18 60.84l-1.89 2.57-.78-.58 1.89-2.57-1.14-.83.42-.58 3.1 2.25ZM18.89 65.17l-.84-.5 2-3.35.83.5ZM23.1 63.8a1.15 1.15 0 0 0-1.62.58 1.23 1.23 0 0 0 2.24 1 1.15 1.15 0 0 0-.62-1.6m-1.33 2.91a2.005 2.005 0 1 1 1.66-3.65 2.005 2.005 0 1 1-1.66 3.65M28.7 69l-.79-.22-1.42-3-.66 2.41-.94-.19 1-3.77.86.24 1.37 2.85.68-2.32.94.26ZM32 66.49l-.75 1.44 1.2.15Zm1.91 3.23-1-.13-.23-.8-1.73-.21-.39.73-1-.12 2-3.69 1.12.13ZM37.7 69.68h-3v-3.9h1v3.19h2ZM41.11 68.58l.63-.11a1.256 1.256 0 1 0-.46-2.47l-.61.11Zm.16-3.27a1.93 1.93 0 0 1 2.48 1.54c.2 1.1-.35 2-1.88 2.32l-1.59.29-.7-3.84ZM47.86 67.58l-2.74.88-1.2-3.71 2.71-.88.22.68-1.78.58.25.78 1.7-.55.22.68-1.7.55.29.89 1.81-.59ZM50.58 66.44l-.38.18-3.38-2.78 1-.45L49.65 65v-2.43l.94-.44ZM55.29 63.69l-2.43 1.53-2.09-3.3 2.4-1.51.39.6L52 62l.43.69 1.51-1 .38.61-1.5 1 .5.79 1.61-1ZM58.45 61.21l-2.31 1.86-2.45-3 .75-.61 2 2.49 1.56-1.3ZM58.27 57a1.19 1.19 0 1 0 1.73-.13 1.14 1.14 0 0 0-1.71.08m2.32 2.18a2 2 0 1 1 .07-3 2.07 2.07 0 0 1-.07 3M61.44 54.46l.25-.36c.26-.37.22-.59 0-.76s-.47-.11-.78.32l-.19.28Zm-.89-1.55a1.19 1.19 0 0 1 1.69-.4 1.18 1.18 0 0 1 .22 1.73l-.44.64 1.28.9-.56.79-3.19-2.24ZM63.1 48.44l.39-.75L67 49.46l-.44.86-2.18-1.1.62 1.49-.07.14-1.57.38 2.17 1.11-.44.86-3.48-1.77.39-.75 1.86-.46ZM68.34 45.57l-.94 2.72L63.71 47l.92-2.69.68.23-.61 1.77.78.26.57-1.68.68.23-.58 1.69.89.3.62-1.8ZM69.42 40.63l-.16.8-2.87 1.64 2.45.48-.19 1-3.82-.75.17-.88 2.74-1.58-2.34-.46.19-.95ZM66.56 35.7l-.08 1.41 3.18.17v1l-3.18-.17-.08 1.41h-.72l.21-3.79Z"/>
    <path d="M30.71 39.1a.7.7 0 0 0-.08-.1l-.05-.06h-.08.07a.64.64 0 0 0-.05.17v.06a2 2 0 0 0-.22.19 1.73 1.73 0 0 0 .27-.08h.18M32.4 30l.06.06v.05a.25.25 0 0 1 0 .07l.09.19a.07.07 0 0 0 0 .05V30.21a.11.11 0 0 1 0-.05.27.27 0 0 0-.08-.16s-.06 0-.09-.05h.02M32.75 31v.05l-.12.11s-.11.1-.18.09a.1.1 0 0 1-.08-.05v-.15a.14.14 0 0 0 0-.06v-.06a.43.43 0 0 0-.1.09l-.06.07-.09.09a.48.48 0 0 0-.11.09.6.6 0 0 0-.08.08l-.09.08h-.06a.12.12 0 0 0-.08 0 .81.81 0 0 0 .15 0H32.14a.85.85 0 0 0 .17-.06l.12-.05h.13v-.11a.21.21 0 0 0 0-.06v-.25l.09-.19v-.16l-.14.19M31.62 31.23a.58.58 0 0 0-.12.1 1.36 1.36 0 0 0-.12.12l-.07.05-.12.13-.07.05v.05a.06.06 0 0 0 0 .06.35.35 0 0 0 .15 0l.26-.29a1 1 0 0 0 .21-.34M30.92 31.42l-.12.1-.07.06a.25.25 0 0 0 0 .13h.14a.13.13 0 0 0 0-.06.13.13 0 0 0 0-.05l.05-.06a.13.13 0 0 1 0-.06.43.43 0 0 1 0-.05M30.39 31.51h-.19s-.06 0-.07.05h.12a.18.18 0 0 0 .07-.05v-.05M49.23 32H49l-.08.06v.05h-.05c-.05 0 0 0 0 0h.25l.24-.13M49.83 32a.21.21 0 0 1 0 .06v.06h.14c-.09 0-.15.05-.26.05M35.78 33a1.74 1.74 0 0 0-.15-.13l-.09-.08-.1-.09-.08-.06h-.06l-.15-.09h-.21l-.19-.05h-.86l.32.08a1.82 1.82 0 0 1 .28.13v.26l-.06.07h.06l.05-.05.12-.07.13-.07h.14a.11.11 0 0 1 .07 0s0 .09-.05.13a.29.29 0 0 1 0 .08.37.37 0 0 0-.13.17s.06 0 .11 0h.1L35 33c.06 0 .16-.12.25-.1a.14.14 0 0 1 0 .11.7.7 0 0 1-.06.09v.11l-.05.06.2-.11h.05s.07 0 .09-.06h.06a.08.08 0 0 1 .09 0 .28.28 0 0 1 0 .1.27.27 0 0 1 0 .09 1.45 1.45 0 0 0 .25-.11s.09 0 .11-.1-.1-.1-.16-.13M44.68 32.65l-.07.05h-.05.19v-.14ZM35.72 33.68h-.19l-.14.08h-.05a.07.07 0 0 0 .05 0h.18l.11-.05.1-.06a2.23 2.23 0 0 1 .21-.22l-.33.14M27.8 34.48h-.18l-.2.13h-.14l-.15.14a.24.24 0 0 0-.05.1.09.09 0 0 0 .05 0H27.42l.13-.07.12-.08H27.79a.24.24 0 0 1 0-.07.17.17 0 0 1 0-.07M28.4 34.56h-.1a.32.32 0 0 1-.12.08h-.12l-.1.07-.1.07a1.54 1.54 0 0 0-.29.23s0 0 0 .06.06 0 .11 0a.47.47 0 0 0 .09-.06h.06L28 35c.07-.05.16-.09.23-.13a.5.5 0 0 1 .21-.09s0 0 0-.05a.18.18 0 0 0 .07-.1.12.12 0 0 0-.09-.06M28.51 35H28.36l-.06.05-.22.17-.1.09a3.86 3.86 0 0 1 .56-.32s0 0 .05-.06M44.22 35.16h-1.1a2.32 2.32 0 0 0-.24 0 .13.13 0 0 0-.12 0 .14.14 0 0 0 0 .09h.08v.06h.76a1.24 1.24 0 0 1 .16 0 .34.34 0 0 1 .1 0l.08-.05h.05c.07 0 .11 0 .13-.08s.1-.06.08-.12a.25.25 0 0 0-.12 0M30.61 35.18a.5.5 0 0 1-.08.07 1.7 1.7 0 0 1-.23.17h-.14l-.16.18a.1.1 0 0 0-.05 0s-.08 0-.11.07a.69.69 0 0 0-.13.11h-.05.26c.05 0 .07 0 .11-.06H30.18c.03 0 0 0 0 0v-.05h.05l.1-.08H30.48h-.05M39.07 35.42l-.13.07a.57.57 0 0 0-.13.08H38.66v.06a.05.05 0 0 0 0 .05h.25a.1.1 0 0 1 .05 0l.08-.09.07-.06h.06v-.06h-.07M28.9 35.48H28.67l-.06.06a3.64 3.64 0 0 0-.34.34s0 0-.06 0l-.07.07.09-.05.08-.05.15-.09s0-.06.07-.09.05 0 .05-.08 0 0-.05 0M31.74 35.63a1.38 1.38 0 0 0-.2.08h-.13v.09s.1-.08.15-.11H31.71s.11-.05.1-.11M39.24 35.73h-.13a1.42 1.42 0 0 0-.22.07s0 0 0 .08v.09h.18l.08-.07-.15.1.1-.07a1.65 1.65 0 0 1 .24-.22l-.14.08M39.7 35.82l-.12.08h-.36a.09.09 0 0 0 0 .07v.05a.15.15 0 0 0 .13 0 .39.39 0 0 0 .14 0l.12-.1.17-.18v-.06l.06-.08s-.07 0-.09.07M21.58 38h.06l.11-.07h.1l.06-.06.09-.07.11-.08.18-.14.08-.07s.05-.07.09-.09l.14-.13.15-.11.07-.07s.05-.05.08-.07h.05c.09-.09.2-.17.28-.26h-.07l-.17.14s-.07 0-.08.06 0 0-.06 0h-.06l-.08.07h-.11l-.16.12-.12.05a.71.71 0 0 1-.14.1l-.12.09-.1.1-.22.24h.18M48.15 36.4l-.14.12-.07.06-.11.1-.17.15h-.05l-.06.05-.15.13v.05l-.06.06c-.07.06-.14.13-.21.18l-.08.06h-.19l-.09.06-.22.16c.31 0 .66 0 1 .08a.31.31 0 0 0 .17 0 .68.68 0 0 0 .13-.12h.07a3 3 0 0 1 .25-.25l.08-.05.11-.08.07-.06.32-.3.08-.09v-.05l.09-.11.13-.13.09-.12.08-.09a.09.09 0 0 0 0-.06l-.11.08-.1.07a.59.59 0 0 1 0 .08l-.12.08-.09.07c-.06 0-.12.09-.18.15s0 0-.06 0-.05 0-.06.06h-.08v.06h-.06a.87.87 0 0 1-.11.09l-.11.09h-.84a.08.08 0 0 1-.06 0h-.44a.08.08 0 0 1 0-.1l.24-.19.1-.07.1-.09h.06l.07-.07s.06 0 .07-.06l.07-.06c.06-.06.13-.12.18-.18a.14.14 0 0 0 .05-.08v-.06l-.15.11M46.67 36.4a1.3 1.3 0 0 1-.15.1l-.14.14h-.06l-.1.09h-.08l-.16.13a2.61 2.61 0 0 1-.31.27h-.27c-.07.07-.16.12-.23.18h-.05a.94.94 0 0 1-.1.1.12.12 0 0 0-.05 0 .87.87 0 0 0-.11.09l-.08.07h1.01s.07-.06.1-.09l.2-.18.2-.18.09-.09.13-.11.1-.1a.77.77 0 0 1 .12-.13l.09-.1s.05 0 .07-.06v-.06s.06-.07.06-.11-.06 0-.08.07 0 0-.06 0l-.13.11-.16.14-.16.15v.05l-.06.06h-.06l-.09.07-.08.07h-.05l-.18.13-.15.06h-.13l-.31.07a.11.11 0 0 1-.08 0 .23.23 0 0 1 .09-.08.34.34 0 0 0 .09-.08c.05 0 .06-.06.11-.06a1.14 1.14 0 0 0 .16-.15l.09-.08.24-.24a.74.74 0 0 0 .13-.12c0-.05.11-.1.16-.16s.09-.07.11-.11l.06-.07.1-.08.08-.08.08-.09s-.06 0-.08.06M22.62 36.4l-.09.05h-.06l-.08.06h-.08s-.05 0-.07.06l-.09.06-.18.15-.08.06h-.06l-.12.11-.08.08-.05.05s-.08 0-.1.07l-.09.1v.08c0 .08.08 0 .13 0H21h.08a.18.18 0 0 0 .07 0h.06c.06 0 .07-.06.1-.09a.24.24 0 0 0 .08-.06l.08-.06.09-.1.08-.08a1 1 0 0 1 .15-.14 1 1 0 0 1 .18-.17l.08-.09s.07 0 .09-.09-.06 0-.1 0M36.46 36.58l-.28.16-.12.07s-.05 0-.06.06a.46.46 0 0 1-.07.07.25.25 0 0 0 0 .07s.05 0 .09 0a.39.39 0 0 0 .13 0 .88.88 0 0 0 .15-.12l.15-.14a2.39 2.39 0 0 0 .22-.23h.06-.07M49.59 36.59h-.07l-.11.08a.63.63 0 0 0-.11.12v.13a.43.43 0 0 1 0 .07.11.11 0 0 0 0 .08s0 0 .07-.08l.09-.09v-.06s.07-.11.11-.15l.08-.09.07-.08a.12.12 0 0 0 0 .05M21.56 36.66h-.11a.27.27 0 0 1-.08.07l-.05.05-.07.08h-.05l-.22.18-.06.05-.11.09-.08.07h-.05l-.09.06c0 .05-.07.1-.1.16A.56.56 0 0 0 20 38a.28.28 0 0 1 .13 0 .47.47 0 0 0 .19-.07l.1-.08a.35.35 0 0 1 .05-.08.74.74 0 0 0 .13-.12.8.8 0 0 0 .13-.13l.12-.13.12-.15h.06v-.06a1.6 1.6 0 0 1 .26-.26ZM50.13 36.78l-.08.05a.12.12 0 0 0-.05.05l-.15.11a.35.35 0 0 1-.07.11.17.17 0 0 1-.06.06l-.12.11c0 .06-.14.08-.19.13s-.25.16-.37.24l-.19.15-.09.07s-.06 0-.06.06.06 0 .1 0h.41L49 38l.16-.12V37.71a.12.12 0 0 0 .08-.06l.06-.06a.24.24 0 0 1 .06-.08s0 0 0-.06v-.06M49.6 38.12l.21-.14h.06v-.05h.05l.05-.06.06-.06a.1.1 0 0 1 .05 0l.11-.12v-.05s.08-.08.09-.11.05 0 .06-.09a.21.21 0 0 1 0-.06l-.11.11-.06.06-.07.06-.11.07-.07.06-.15.12a.1.1 0 0 1-.05 0l-.1.08-.1.08-.22.14c-.06.05-.14.09-.18.13l-.08.09v.05a1.27 1.27 0 0 0 .53-.16M36.89 36.85a1.79 1.79 0 0 0-.24.12h-.2a.47.47 0 0 1-.09.06.65.65 0 0 1-.09.08l-.07.06a.1.1 0 0 0 .07.07h.17a.45.45 0 0 1 .12-.06h.07a.34.34 0 0 0 .09-.08.32.32 0 0 1 .09-.08ZM37.2 37.06l-.13.08h-.14l-.08.07a2 2 0 0 1-.18.13.18.18 0 0 0-.09.06.72.72 0 0 0 .22.08l.08-.06c.06 0 .12-.08.17-.13s.1-.1.16-.14a.38.38 0 0 0 .11-.14.47.47 0 0 1-.12.07M48.94 37.13l-.1.07s-.06 0-.08.06l-.11.09a.17.17 0 0 0-.08.06h-.1a.35.35 0 0 1-.11.1.28.28 0 0 1-.09.07s0 0-.05 0a1.09 1.09 0 0 0-.1.11s-.07 0-.08.09h.1L48 38h.26a.13.13 0 0 1 .09 0 .46.46 0 0 0 .07-.07l.1-.11a.19.19 0 0 0 .06-.07s.05-.11.06-.18ZM50 38.33a1.42 1.42 0 0 0 .35-.14l.12-.1h.06a.73.73 0 0 1 .08-.09l.11-.15a.57.57 0 0 0 .1-.13s0-.05 0-.07a.12.12 0 0 0-.1 0c0 .05-.08.07-.12.11l-.12.12h-.07l-.07.06a.15.15 0 0 0-.06.05h-.13l-.12.09h-.05a3.62 3.62 0 0 1-.32.22h-.06a.26.26 0 0 0-.07.1H50M37.6 37.28l-.1.06h-.07l-.11.08-.1.07a1 1 0 0 1-.19.16l-.05.05s.07.07.12.06 0 0 .06 0 .07-.07.12-.1a.28.28 0 0 1 .07-.09l.11-.13s.06-.06.07-.09M37.92 37.63l-.16.08-.16.08h-.06a.81.81 0 0 0-.09.1h-.26s.07.07.12.07h.06a.23.23 0 0 0 .14-.05h.07a.2.2 0 0 0 .09-.06.34.34 0 0 1 .08-.09.27.27 0 0 1 .07-.08M38.66 37.69a.52.52 0 0 0-.11.08l-.11.08-.24.15h-.05s-.06 0-.09.07h-.18c-.02 0-.05 0-.08.07h-.09a.13.13 0 0 0 0 .07.32.32 0 0 0 .28 0h.27v.08l-.09.07a.18.18 0 0 0-.07.05.11.11 0 0 0-.07 0h.14a1.57 1.57 0 0 0 .23 0l.16-.05v.07l-.19.19-.07.05h-.06.36a.7.7 0 0 0 .1-.08 1.09 1.09 0 0 0 .17-.13s0 0 .05 0h.06s.09-.08.1-.11a.05.05 0 0 1 0-.05v-.1l-.06.05h-.43a.87.87 0 0 1 .09-.11.47.47 0 0 1 .1-.1s0 0 0-.07 0-.06.05-.08a.79.79 0 0 1 0-.09.13.13 0 0 0 0-.06l-.17.15-.12.11-.09.07h-.2a.13.13 0 0 1 0-.11v-.06a.1.1 0 0 0 0-.05s.06-.06.07-.11 0 0 .06-.06l.07-.11.06-.13ZM34.46 34.64a.28.28 0 0 1-.05.09.11.11 0 0 0 0 .06s.06 0 .1.07a.38.38 0 0 0 .22 0l.36-.14v.11a.23.23 0 0 1-.07.07s-.06 0-.07.07 0 0 0 .07.1 0 .16-.06H35.39v.06a.45.45 0 0 1-.11.13l-.11.11a.15.15 0 0 0 0 .08v.06a.64.64 0 0 0 0 .07v.06a.19.19 0 0 1 0 .08H34.94c-.03 0 0 0 0 0l-.11.09-.08.06-.08.05c-.08.05 0 0 0 0h-.14a.43.43 0 0 1-.13.09s-.07 0-.09 0h-.13c-.06 0 0 0 0 0a.13.13 0 0 0 .09-.07.62.62 0 0 0 .14-.14l.13-.11.09-.09.07-.06a.15.15 0 0 1 0-.07l.06-.07c0-.06.06-.13 0-.17a1.09 1.09 0 0 0-.23.14h-.07l-.14.09c-.14.1-.27.2-.42.29s0 0-.06 0 0-.07.06-.1v-.05l.17-.17.25-.27a.46.46 0 0 0 .07-.07l.06-.08a.12.12 0 0 0-.06-.14 2.68 2.68 0 0 0-.28.18l-.2.14a.18.18 0 0 1-.07.05v-.05l.06-.1s.06-.08.06-.1a.15.15 0 0 0 0-.07h-.06s-.12 0-.16.06h-.11s-.1.07-.16.06h-.37L33 35h.08l.17-.06h.12c.06 0 .16-.08.24-.12l.33-.18a1 1 0 0 0-.19.3h.2l.19-.09.11-.07M35.46 35.73a.53.53 0 0 1-.06.1l-.08.09-.07.07-.07.08-.07.06c-.07.06 0 0 0 0l-.08.08-.09.06a.46.46 0 0 1-.07.07l-.06.05-.08.07s-.07 0-.1.05l-.12.08c-.07 0-.1 0-.16.07s0 0 0-.05l.2-.18h.05l.15-.16.06-.07h.06l.06-.05.11-.06.22-.14M26.3 35.82l-.16.12h-.06l-.09.1h-.11a.19.19 0 0 1-.09 0 .27.27 0 0 1 .08-.07l.07-.07.06-.05a1.42 1.42 0 0 0 .13-.12h.06l.09-.06h.05L26 36l.32-.16" style="fill-rule:evenodd"/>
    <path d="m24.68 36-.16.16a2.5 2.5 0 0 1-.23.23l-.08.09-.08.07a.47.47 0 0 0-.14.14l-.05.06-.18.13-.12.1v.05l-.1.07a.27.27 0 0 0-.08.07h-.05a.24.24 0 0 1-.08.06l-.08.09s-.09 0-.11.09 0 .08 0 .11a.19.19 0 0 0 .09 0h.05a.05.05 0 0 0 .05 0l.15-.12v-.05l.12-.11h.13l.12-.11.14-.1.08-.09.15-.14a.87.87 0 0 0 .11-.09l.1-.08h.05l.06-.06h.13a1.13 1.13 0 0 1 .18-.12 2.09 2.09 0 0 1-.2.22s0 0-.05 0a.28.28 0 0 0-.11.13.44.44 0 0 0-.15.12l-.12.09a4 4 0 0 0-.29.29l-.12.08-.08.07-.06.05h-.06s0 .05-.07.06l-.12.12a1.14 1.14 0 0 0-.15.16H21.8a.12.12 0 0 1 .08-.06L22 38a.1.1 0 0 0 .05 0v-.05a.6.6 0 0 0 .11-.06.34.34 0 0 0 .06-.06h.06a.54.54 0 0 1 .12-.09c.12-.12.25-.22.38-.34h.05l.15-.11a.13.13 0 0 1 .07-.06.87.87 0 0 1 .1-.08l.1-.07h.07l.11-.08.06-.06h.05l.07-.06a.1.1 0 0 0 .05 0h.07l.07-.05.07-.06c.07-.06 0-.05.08 0M45.22 36.87a.16.16 0 0 1 .08-.06l.12-.09s.06 0 .09-.07h.18l.18-.13s.07-.07.12-.07a1.07 1.07 0 0 1-.14.16l-.09.12-.08.09-.08.05a.44.44 0 0 0-.11.09.18.18 0 0 0-.1 0 .16.16 0 0 0-.09.05h-.17M20.33 37h-.14l-.07.07h-.06l-.09.08a1.68 1.68 0 0 1-.21.18l-.07.06-.07.06-.08.07V38h.14l.09-.08.05-.07s.05-.06.06-.08l.06-.06h.05" style="fill-rule:evenodd"/>
    <path d="M41.08 38.66a.25.25 0 0 0 0 .07.25.25 0 0 0 0 .07h-.05l-.09.06h-.38s.1-.06.14-.08 0 0 .05 0h.09c.05 0 .13-.07.17-.13a.69.69 0 0 1 .13-.11.46.46 0 0 0 .07-.07m-2.8 2v.06a.35.35 0 0 1-.09.07s0 0 0 .05l-.07.06a.43.43 0 0 1-.13.09h-.48l-.14-.07-.3-.2h-.12a.83.83 0 0 0-.16-.09l-.14-.11h-.05s-.09-.09-.15-.11 0-.05-.06-.08.08 0 .1-.06.06 0 .1 0h.15H36v.09a.32.32 0 0 1-.17 0 .09.09 0 0 0 .06 0h.54l.11-.05h.05l.14-.07h.09L37 40h.06l.12-.06v-.06c0-.06 0 0 0 0h.06a.22.22 0 0 1 0 .09v.08c0 .02 0 0 0 0a.21.21 0 0 1 0 .07l-.06.06-.06.06s-.07.05-.08.09-.05 0-.08 0l-.14.08-.1.07h-.05a.11.11 0 0 0-.07 0h.18a.29.29 0 0 0 .1 0l.13-.06a.13.13 0 0 0 .12-.05l.12-.07h.05l.08-.06h.06s.07-.08.12-.08a.5.5 0 0 1 .07-.08.08.08 0 0 1 .09 0l-.05.08a.25.25 0 0 0-.09.11l-.11.1-.09.09-.06.07h.16a.23.23 0 0 1 .1 0h.06s.08 0 .1-.06l.1-.07h.05l.09-.08h.05c.05 0 .1-.12.13 0a.21.21 0 0 0 0 .06l-.08.12-.06.06v.06a1.09 1.09 0 0 1-.11.1s-.06.07-.1.1a.76.76 0 0 0 .16-.06h.26l.07-.06s.05-.06.07-.06.08.09.06.15m-1.65 1.15a.64.64 0 0 1 0 .07.43.43 0 0 1 0 .05l-.07.06a.71.71 0 0 1-.09.07h-.25a.93.93 0 0 1-.24 0H35.2l-.27-.19H34.72a.4.4 0 0 1 .09-.17V41.53l.05-.07v-.14h.06a.39.39 0 0 0 .06-.13h.09a2.21 2.21 0 0 1 .47-.07s.11 0 .15.09 0 0-.06.05-.07 0-.09.1-.05 0-.07 0l-.14.09-.1.06h-.14.1a.32.32 0 0 0 .09 0h.06s.07-.05.12-.07h.13l.16-.1h.06l.07-.06a.15.15 0 0 1 .06 0h.07a.15.15 0 0 1 .07 0 .31.31 0 0 1 0 .15h-.05l-.06.06-.06.06s-.06 0-.07.09-.06 0-.08.05l-.14.08-.1.07h-.15.24l.12-.07h.11l.11-.07a.11.11 0 0 0 .06 0h.07H36s.07-.08.13-.08.06-.1.13-.08 0 .07 0 .09 0 .05-.06.08a.13.13 0 0 1 0 .06.18.18 0 0 0-.07.1 1.27 1.27 0 0 0-.12.1l-.08.08v.05a.13.13 0 0 0-.06.07h-.05.3l.11-.07h.06l.1-.08s.12-.12.14 0l-.1.11-.06.07-.11.09L36 42l.15-.07h.07a.15.15 0 0 0 .07 0l.06-.05a.16.16 0 0 1 .11 0l.07-.06s.08-.09.12 0 0 .11 0 .17m-2.24-.63a.32.32 0 0 1 0 .09v.24h-.52.06a.76.76 0 0 0 .21 0h.12a2 2 0 0 0 .25 0h.2a.11.11 0 0 0 0 .08.36.36 0 0 1-.11 0h-1.08v-.05s.06-.05.11-.05h.43a.54.54 0 0 0 .22-.09l.13-.09h.09-.07c-.07 0 0 0 0 0h-.79a.68.68 0 0 1-.29-.05s0 0 .08-.07a.36.36 0 0 0 .17-.07H33.83s.13 0 .18-.06h.09a1.43 1.43 0 0 0-.37.08h-.71a.09.09 0 0 1 0-.07s0 0 .07-.06h.08a.93.93 0 0 1 .32-.1h.1a.83.83 0 0 0 .29-.1 1.36 1.36 0 0 0 .12-.12l.24-.22a.28.28 0 0 0 0-.08.35.35 0 0 0 .05-.08s0 0 0-.07.06-.1.08-.15v-.09a.21.21 0 0 0-.05-.07c-.07-.09-.17-.17-.24-.25a.19.19 0 0 1-.11-.07h-.06l-.06-.06a.17.17 0 0 1 0-.07.2.2 0 0 1 0-.07s0-.07.07-.1h.19a.59.59 0 0 1 .18.13l.08.07.07.07.06.11a.41.41 0 0 1 .05.09s0 .06 0 .08a.28.28 0 0 1 0 .13v.05a.31.31 0 0 1 0 .09.37.37 0 0 0 0 .11.27.27 0 0 0-.06.1v.18c0 .06 0 0 0 0v.06a.31.31 0 0 1-.07.09 1.12 1.12 0 0 0-.05.13m-1-2.28a.45.45 0 0 1 0 .08h-.06l-.25.09h-.07c-.07 0 0 0 0 0h.1a1.92 1.92 0 0 0 .29 0s0 0 0 .06l-.09.1s0 .07-.07.07a.18.18 0 0 1-.07 0 .19.19 0 0 1-.09 0c-.05 0-.08.06-.16 0h-.16a.53.53 0 0 1-.15-.11.47.47 0 0 1 0-.1v-.16a1.77 1.77 0 0 1 .06-.17.47.47 0 0 1 0-.1.39.39 0 0 1 .06-.11.2.2 0 0 1 .14-.13.76.76 0 0 1 .26 0H33.23l.12.05.09.08m-.62 1.78s0 .06-.08.08-.09.1-.13.16a1.09 1.09 0 0 0-.19.18s0 0-.05.05l-.12.11H31.16a.59.59 0 0 1 0-.08.3.3 0 0 1-.07-.18s0-.07 0-.09a.15.15 0 0 1 0 .1s.06 0 .07.08h.25a.59.59 0 0 0 .13 0h.1a1.45 1.45 0 0 0 .3 0h.08A.25.25 0 0 0 32 41l.15-.12h.05v-.05h-.16l-.21.08h-.2a.46.46 0 0 1-.23 0 .15.15 0 0 1-.05-.06.07.07 0 0 1 0-.06h.19a.39.39 0 0 0 .11-.06.19.19 0 0 0 .1 0s.1 0 .15-.05h.23a.45.45 0 0 1 .12-.06s.06 0 .07-.06l-.33.09a.64.64 0 0 1-.17 0h-.16l-.34.09a2.09 2.09 0 0 1-.34.08h-.27v-.08H31.57l.24-.12a.2.2 0 0 0 .59-.62.14.14 0 0 0-.11 0l-.22.06-.29.06h-.7c-.03 0 0 0 0-.06h.11l.14-.06h.66a.13.13 0 0 1 .09 0h.05a.12.12 0 0 1 .08 0h.13a.37.37 0 0 1 .11 0h.25l.06-.07.07-.09v-.19s0-.05.05-.08-.16-.19-.23-.29h-.05l-.06-.05h-.06a.33.33 0 0 0-.12 0l-.17-.06h-.32l-.07.05v.06l-.06.06v.07a1.93 1.93 0 0 0-.13.21 1.21 1.21 0 0 1-.09.2s0 .09-.06.14 0 .05 0 .08a.33.33 0 0 1-.12 0s0 0-.08 0h-.12c-.04 0 0 0 0-.07a.11.11 0 0 1 0-.05.61.61 0 0 1 .05-.12v-.13c0-.08 0 0 0 0l.11-.11a.73.73 0 0 1 .09-.08s0-.07.08-.08h.54a.78.78 0 0 1 .36.06l.07.05s.06 0 .08.09.05 0 .06.06 0 .06.06.09v.24a.14.14 0 0 1 0 .06.63.63 0 0 1-.08.22v.11a.31.31 0 0 0-.06.13l-.05.07v.06c0 .06 0 .06-.06.09a.71.71 0 0 0-.1.14.07.07 0 0 0 0 .07s-.06 0-.08.07l-.11.12-.06.08a.31.31 0 0 0-.05.1m-2-.48s0 .05-.08.05h-.06a.75.75 0 0 1-.13.06h-.2a1.3 1.3 0 0 1-.22 0h-.11a.2.2 0 0 1-.17 0h-.16l-.07-.05h-.05a.15.15 0 0 1 0-.08s-.05-.06-.08-.08a.53.53 0 0 0 0-.17v-.22a.07.07 0 0 1 0-.07v-.06h.28v.09c0 .09 0 0 0 0h-.05v.05s-.08.06-.1.1a.17.17 0 0 1 .1 0h.17a.39.39 0 0 0 .13-.06h.2a.27.27 0 0 1 0 .13h-.19l-.1.07h.34l.07-.05h.18s.06-.07.13-.06l.21-.09H30.18a.06.06 0 0 1 0 .06h-.05a.24.24 0 0 1-.09.08l-.06.05a.43.43 0 0 0-.1.09l-.16.1h.1a.54.54 0 0 1 .19-.07h.07l.25-.12.06-.05h.13a.27.27 0 0 1-.08.14v.05a.14.14 0 0 1-.08.07s0 0-.08.08m-1.8-1.35-.18.1h-.1a.07.07 0 0 1-.06 0s0 0-.06 0h-.05c-.05 0 0 .11.1.12s0 0-.08 0h-.18.33-.23a.15.15 0 0 1 0-.08h.05L28 38.7l.08-.06.12-.08h-.06a.19.19 0 0 0-.1 0h-.1l-.15.07h-.34a.3.3 0 0 1-.13 0s0 0-.05 0 0 0 0-.07 0 0 .07 0a.24.24 0 0 0 .08-.06h.06a.39.39 0 0 1 .14-.08.52.52 0 0 0-.17 0h-.33c-.03 0 0-.07 0-.11a.45.45 0 0 1 .23-.14.2.2 0 0 0 .08 0H28a.11.11 0 0 1 .06 0h.51l.15.09h.06v.06h.06c.01 0 0 .07 0 .09v.22a.93.93 0 0 0-.05.1l.21.07m-.68.77h-.16a.45.45 0 0 1-.18 0h-.1l-.05-.05a.25.25 0 0 1 0-.09s-.06-.07-.06-.1 0 0 .05 0h.08a.33.33 0 0 1 .1.06h.44a.27.27 0 0 1 0 .09m1.49-.84s0-.06.06-.06.06-.07.09-.12l.15-.07h.51c.02 0 0 0 0 0a.28.28 0 0 1 .1.09.18.18 0 0 0 .07.05l.07.07s0 .07.05.1 0 0 0 .07v.09a.1.1 0 0 1 0 .06v.06h-.06a.33.33 0 0 1-.1.06h-.14c-.03 0 0 0 0 0H30.44c-.03 0 0 0 0 0h-.09l-.11-.08h-.05a1 1 0 0 1-.08-.11.19.19 0 0 1-.05-.12 1.08 1.08 0 0 1 0-.19.19.19 0 0 1 .07-.13m1.74.9s0-.06.06-.07.05 0 .07-.06a.18.18 0 0 1 .1 0s.06 0 .1 0h.06a.08.08 0 0 0 .07 0s0 0 0 .06v.07c0 .07-.05.06-.09.08H32.01a.25.25 0 0 1-.17 0m-1.68-1.3s.1-.07.15-.11.05 0 .08-.05h.26l.21-.05h.3L31 38h.07a.53.53 0 0 0 .06.1s.05.11.09.15 0 .07 0 .12v.22a1.27 1.27 0 0 1-.07.12.13.13 0 0 0 0 .05v.07s-.05.07-.09.06a.37.37 0 0 1 0-.11.22.22 0 0 0 0-.08v-.08a.59.59 0 0 1 0-.09.41.41 0 0 0-.09-.1c-.08-.07-.15-.16-.23-.23l-.06-.06a.76.76 0 0 0-.09-.09s-.06 0-.11 0a.54.54 0 0 0-.29.06h-.22s-.13.08-.18 0m2-.19h.07a.11.11 0 0 1 .08 0s0 .08-.05.12h-.12a.09.09 0 0 1-.05 0m-.07-.38v-.06l.09-.09.2-.17c.07-.07.15-.12.22-.18h.06l.06-.05.1-.07h.07s.1-.05.16 0a.07.07 0 0 1 0 .1.91.91 0 0 1-.16.13l-.08.06-.07.05-.15.11-.15.11h-.14a.62.62 0 0 1-.12.08s-.08.07-.13 0a.06.06 0 0 1 0-.07m1.39-.38.06-.05h.06a.11.11 0 0 1 .09 0s.06 0 0 .06a.14.14 0 0 1-.07.13l-.06.06s-.08 0-.1.07a.11.11 0 0 0-.06 0l-.23.13H32.47a.08.08 0 0 1 0-.07l.28-.24.06-.05m.32 3.43a.21.21 0 0 1 .12 0 .06.06 0 0 1 .06 0s0 0-.06 0h-.26a.24.24 0 0 1 0-.08m.64-1.14a.22.22 0 0 1 .11 0l.09.08v.1a.14.14 0 0 1 0 .06s-.07 0-.11 0a.59.59 0 0 0-.14.06l-.2.08h.76V39.98a.36.36 0 0 1-.14.1h-.06a.09.09 0 0 0-.05 0h-.27a.15.15 0 0 1 0-.12v-.07a.07.07 0 0 0 .06 0h.07l.12-.06h.06v-.05h-.17c-.05 0 0 0 0 0v-.11l.07-.05h.13m-3.6-8.77H30.51l.1-.06h.14l.13-.05h.11c.05 0 0 0 0 0l.08-.05.08-.05.1-.05h.07v.14l-.07.07-.06.05-.1.07H30.87a.38.38 0 0 1-.19 0H30.47s-.06 0-.07-.05a.3.3 0 0 1 .11 0m21.87 8h-1.03c-.03 0 0 0 0 0H51a.65.65 0 0 0-.19 0H45.3a.92.92 0 0 0-.15 0H44.91a.53.53 0 0 0-.16 0h-.08a.25.25 0 0 0-.15 0 .48.48 0 0 0-.18 0 1.53 1.53 0 0 0-.3 0s0-.06 0-.09.06 0 .09-.07.05 0 .07 0h.05a.18.18 0 0 1 .05-.07h.07a.34.34 0 0 1 .06-.06v-.05h.06l.08-.08a.17.17 0 0 1 .06-.06l.12-.11a.12.12 0 0 1 0-.05 1.31 1.31 0 0 0 .12-.11 1.38 1.38 0 0 0-.39.15l-.08.06-.2.17-.09.07H43.94l-.13.09-.2.11c-.06 0-.21.13-.25.07a.07.07 0 0 1 0-.06.17.17 0 0 1 .06-.08l.13-.1v-.06a1.29 1.29 0 0 1 .18-.16.18.18 0 0 1 .07 0s0 0 0-.05l.16-.14.22-.19.2-.18.05-.05.06-.07.07-.09v-.05c0-.05.08-.08.11-.13a.21.21 0 0 0-.11.07l-.17.11s0 .06-.07.08l-.13.11h-.05l-.1.07-.08.07h-.1l-.14.11h-.08l-.06.05-.14.1-.09.06H43.18a.47.47 0 0 1-.09.06h-.16s0-.06.07-.08l.09-.06h.06c.06 0 0 0 .05-.05l.08-.08c.07 0 .13-.12.19-.17h.05a1.21 1.21 0 0 0 .16-.16l.09-.07v-.07s0-.05.06-.07 0 0 .06-.06 0 0 .05 0a.11.11 0 0 0-.06 0h-.05l-.11.07a.27.27 0 0 0-.1.06.69.69 0 0 0-.13.11l-.07.05h-.12l-.07.06h-.12l-.37.23a.75.75 0 0 1-.17.1h-.09v-.12l.09-.08.09-.09h.07a.35.35 0 0 1 .13-.14l.08-.08h.05-.06l-.09.06h-.12a1.57 1.57 0 0 1-.26.19h-.05a1.62 1.62 0 0 1-.18.1.28.28 0 0 1-.12 0s0-.08 0-.11.06-.07.1-.08 0 0 0-.08l.07-.05.06-.06a1.94 1.94 0 0 0 .2-.21l.05-.05h.05a.11.11 0 0 1 .06-.07.1.1 0 0 1 0-.07s-.07 0-.1 0l-.1.07h-.31c-.06 0-.13 0-.14-.06s0 0 0-.05l.09-.1.07-.05.07-.09s.06-.05 0-.08 0 0-.07 0l-.13.07h-.17a.21.21 0 0 1-.11 0c-.07 0-.08-.06-.1-.12a.29.29 0 0 0 .09-.15l.11-.12h-.16a.21.21 0 0 0-.06.1s0 .05 0 .08v.09l.05.09a.31.31 0 0 1 0 .1v.16a.28.28 0 0 0 0 .13.42.42 0 0 1 0 .1.84.84 0 0 1 0 .12v.05a.64.64 0 0 1 0 .07.41.41 0 0 0 0 .12v.16a.14.14 0 0 1 0 .06V38a.45.45 0 0 1 0 .13v.1a.93.93 0 0 1-.05.1l-.06.06a.6.6 0 0 1-.08.08l-.1.06h-.2a.06.06 0 0 0 0-.06h.07s0-.07.08-.08A.3.3 0 0 0 42 38v-.05a.29.29 0 0 1 0-.13h-.26a.16.16 0 0 1 0-.1l.07-.1.19-.12v-.07a.1.1 0 0 0 0-.08s0 0-.06.06a.23.23 0 0 0-.1.07.31.31 0 0 1-.12.05.13.13 0 0 1-.09 0s0 0 0-.06a.29.29 0 0 1 .08-.1.41.41 0 0 1 .12-.11h-.11a.34.34 0 0 1-.1 0s0 0-.07 0 0 0 0-.07a2 2 0 0 1-.09-.22v-.05a.52.52 0 0 0-.07-.15c0-.09-.07-.12-.07-.22a.22.22 0 0 1 0-.08.17.17 0 0 0 0-.07v-.11a.25.25 0 0 1 0-.11.18.18 0 0 0 0-.06v-.1a.48.48 0 0 0 .12-.16h-.05a.32.32 0 0 1-.14 0 1.91 1.91 0 0 0 0-.24l.07-.07.07-.06h.06a.57.57 0 0 1 .11-.11.47.47 0 0 0 .05-.1.11.11 0 0 0 0-.08c-.07.07-.13.14-.21.21a.91.91 0 0 1-.16.11.64.64 0 0 1-.18.1c0-.09-.13-.17-.09-.29s.07-.05.1-.08h.06a.1.1 0 0 0 0-.05l.2-.16a1 1 0 0 0 .16-.12s0-.06.07-.07a.18.18 0 0 1 0 .1.57.57 0 0 1 0 .18v.07c0 .02 0 0 0 0a.61.61 0 0 0-.07.24s0 0 0 .07a.19.19 0 0 1 0 .07v.22s0 .06 0 0v-.25a1.17 1.17 0 0 1 0-.11l.08-.16a.07.07 0 0 0 0-.05.19.19 0 0 0 0-.07.32.32 0 0 0 0-.09.66.66 0 0 0 0-.15v-.27a.24.24 0 0 0 0-.09.13.13 0 0 0 0-.06v-.18c0-.05 0 0 0 0a.93.93 0 0 1 0-.13.69.69 0 0 1-.05-.13l-.09-.16a1 1 0 0 0 .27-.9h-.06l-.07-.07-.16-.17-.16-.16.15.22c.05.08.09.16.15.24v.06a.8.8 0 0 1 .08.16s0 0 0 .07.06.09.06.13a.43.43 0 0 0 0 .05.36.36 0 0 0 0 .11.31.31 0 0 0 0 .08 2.6 2.6 0 0 1 .25-.1.14.14 0 0 1 0 .11.19.19 0 0 1 0 .07.42.42 0 0 0 0 .1.2.2 0 0 1-.06.13l-.11.12-.11.12h-.11a1.67 1.67 0 0 1-.16.12h-.05s-.07.07-.12.07-.08-.09-.11-.15a.5.5 0 0 0 .08-.07l.05-.05.12-.17v-.11h-.06a1.87 1.87 0 0 1-.28.16l-.13-.11h.08c.03 0 .09-.08.13-.12h.07l.06-.05a.38.38 0 0 0 .11-.14h.05a.15.15 0 0 1 .09-.1s0 0 0-.05v-.08c0-.08 0 0 0 0v-.07l-.2.22a.19.19 0 0 0-.11.09l-.21.17-.12.09-.09.07h-.22a.09.09 0 0 1-.07 0h-.06l.07-.05.05-.06.08-.07v-.06l.06-.08s.06 0 0-.07h-.08a1.68 1.68 0 0 1-.29.25.34.34 0 0 1-.14.09 1.3 1.3 0 0 1-.31.21s-.06 0-.09 0-.06 0-.1-.06-.07 0-.08-.05a.49.49 0 0 1 .16-.19l.08-.06.14-.13-.2.1-.21.1a2.69 2.69 0 0 1-.29.16l-.1.06H38.98c-.06-.07 0-.12.08-.17a.26.26 0 0 0 .09-.09h.05a1.43 1.43 0 0 0-.21.11l-.15.07h-.08c-.09.05-.16.11-.25.15h-.2v-.08h.05v-.05l.08-.08.07-.07a1 1 0 0 0-.24.1h-.2l-.13.06H37.73c-.03 0 0 0-.05-.07s0 0 0-.05l.06-.07h-.32l-.26.07-.06-.06c-.06-.06 0-.07 0-.1l.06-.06h.08l.05-.05-.36.13H36.51l.49-1.16h-.08l-.11-.1a.31.31 0 0 1-.09-.07s0 0-.06 0a.08.08 0 0 1 0-.12.59.59 0 0 1 .11-.08l.06-.07s.05-.05.06-.09a.32.32 0 0 0-.09 0h-.08a.29.29 0 0 1-.1 0h-.08s-.1.05-.15 0 0-.07 0-.11 0 0 .07-.06l.06-.05h.05s.05 0 .05-.06a.51.51 0 0 0-.16.09.84.84 0 0 0-.14.06L36 31.7h-.38c-.01 0 0 0 0 0l.12-.12.06-.06s0-.05.06-.08l.07-.08a.41.41 0 0 1-.11.07l-.11.07-.19.11-.1.05h-.19a.08.08 0 0 1 0-.09v-.06c0-.06.13-.19.19-.26l-.22.14-.22.12-.27.13a.25.25 0 0 1-.17 0 .07.07 0 0 1 0-.11.18.18 0 0 0 .07-.09l.07-.11.06-.1s.07-.05.08-.09a.52.52 0 0 0-.15.07l-.1.07h-.07l-.08.07h-.1a.61.61 0 0 1-.13 0s-.08 0-.11 0a.09.09 0 0 1-.06-.07s0 0 0-.05l.09-.11v-.05h-.07l-.1.06-.25.12a.29.29 0 0 1-.14 0 .1.1 0 0 1 0-.12s.08-.08.1-.1l.05-.05h.11s.05-.06.08-.07.05 0 .07-.07l.06-.06a1.77 1.77 0 0 1-.41.12s0-.07-.05-.1a1.09 1.09 0 0 1 0-.17 1.09 1.09 0 0 0-.05-.14 1.33 1.33 0 0 1 0 .24l-.06.16a.71.71 0 0 1-.08.15l-.09.13-.06.06a.27.27 0 0 1-.08.1s0 .05-.09.05-.14.08-.2.14a1 1 0 0 1-.21.11h-.28a2.63 2.63 0 0 1-.49.06s0 0-.05 0h-.36a.2.2 0 0 1-.11 0s-.08 0-.09 0a.09.09 0 0 1-.07 0h-.07a1.42 1.42 0 0 1-.22-.05h-.1l-.17-.07H30.51a.24.24 0 0 0-.1-.05h-.06s-.05-.07-.07-.12a1.34 1.34 0 0 1-.06-.12.24.24 0 0 1 0-.09v-.2c0-.03.06-.05.13-.06a1.06 1.06 0 0 0 .19 0H30.69l.26.15.06.05a.73.73 0 0 0 .22 0h.35L31 31l.07-.05.13-.09.11-.09c.06-.08.05-.23.08-.33a.49.49 0 0 0 0-.11l.09-.07s.05-.05.08-.06H31.68a.25.25 0 0 1 .11 0s0 0 .06 0H32.71l.3.08h.09l.17.05.36.07a1.21 1.21 0 0 0 .19 0 .07.07 0 0 0 .06 0h.2a.59.59 0 0 1 .19 0H36.32a1.85 1.85 0 0 0 .23 0h.56a2 2 0 0 0 .29.09h.08l.15.05h.08s.06 0 .07.06 0 .09 0 .11-.06.06-.06.09l.16-.05.16-.06h.28a.18.18 0 0 1 0 .13.16.16 0 0 1 0 .06.23.23 0 0 0 .15 0l.13-.05.1-.05h.25a.08.08 0 0 1 .07.1.38.38 0 0 1-.09.09h-.05v.05c0 .05 0 0 0 0h.07c.01 0 0 0 0 0l.19-.08h.1c.1 0 .18 0 .19.06s0 .08 0 .11-.06 0-.06.08 0 0 .07 0H39.65a.86.86 0 0 1 .16 0s0 0 0 .06v.12a2.18 2.18 0 0 0 .24 0H41.12a.11.11 0 0 1 .1 0h.13l.07.07h.05v.07a.53.53 0 0 1 .06.1c0 .05.05.11.07.15v.06L42 33s0 .07.07.08a.22.22 0 0 0 0-.08v-.31a1.19 1.19 0 0 0-.08-.2 1 1 0 0 0-.09-.18v-.25a.12.12 0 0 1 .09 0h.07l.06.06c0 .06.07 0 .12 0v-.05l.09-.06a.08.08 0 0 1 .1 0 .27.27 0 0 1 0 .13.43.43 0 0 1 0 .07v.09a.11.11 0 0 0 .09 0h.05l.14-.09.1-.07a.53.53 0 0 0 .1-.06h.15a.07.07 0 0 0 0 .05v.06c0 .06-.05.06-.08.09-.06 0-.1.11-.15.15h.16l.11-.06a.24.24 0 0 0 .08-.06h.15l.11-.09h.11l.11-.06h.05c.05 0 .06 0 .08.05a.35.35 0 0 0 0 .08l-.06.08-.07.07v.05h-.05l-.12.12-.08.07-.19.19v.06h.05l.2-.13.15-.1.19-.14.16-.12h.07l.09-.08.18-.12a1.32 1.32 0 0 0 .2-.12c.07 0 .14-.07.21-.08a.31.31 0 0 1 .19 0 .17.17 0 0 1-.06.08l-.08.08a.48.48 0 0 1-.09.11l-.1.11-.14.12-.09.07-.05.05.35-.18.08-.05.16-.1h.07l.16-.09.16-.1.16-.11.08-.05h.08a.2.2 0 0 1 .09-.05l.18-.08h.09a.36.36 0 0 1 .09-.05.11.11 0 0 1 .11 0v.12l-.06.06-.13.12-.09.08a1.45 1.45 0 0 0 .25-.1h.08l.11-.06h.07l.17-.1.13-.07L46 32l.09-.05h.31a.57.57 0 0 1-.11.16s0 0-.06.07l-.07.08s-.06 0 0 0h.13a.6.6 0 0 1 .15-.09h.08l.1-.05.18-.11h.22l.06.05a.15.15 0 0 1 0 .06v.09a.33.33 0 0 1 0 .06.09.09 0 0 0 .1 0h.06l.14-.1h.13l.14-.05c.1-.11.3-.07.46-.06s.08 0 .11 0a.22.22 0 0 1 0 .08l-.07.06a.29.29 0 0 0-.07.1v.05h.08l.07-.05a1.48 1.48 0 0 0 .13-.08h.14l.17-.09h2.27a1.7 1.7 0 0 0 .22 0h.23a.18.18 0 0 1 0 .11s-.06 0-.07.06a.93.93 0 0 1-.16.18.19.19 0 0 0 .1 0l.12-.07a2.2 2.2 0 0 1 .28-.18.5.5 0 0 1 .21-.09.06.06 0 0 1 0 .05v.16h.11l.13-.09h.06v-.51h-.35a1.81 1.81 0 0 1-.33 0H48.35a.27.27 0 0 1-.09 0h-.58a2.61 2.61 0 0 1-.28 0h-1.71a.67.67 0 0 0-.2 0h-.53a2.91 2.91 0 0 0-.32 0h-.13a.86.86 0 0 0-.16 0h-1.48a.48.48 0 0 0-.17 0H41.5a.66.66 0 0 1-.14 0H39.61L39.2 31h-.64a1.15 1.15 0 0 1-.17-.06h-.16l-.13-.05h-.31l-.11-.06H37.56l-.35-.09H35.72L35 30h-.3a1.86 1.86 0 0 1-.26 0h-.17a1 1 0 0 1-.23 0h-.2a1.45 1.45 0 0 1-.3-.05H32.8a2 2 0 0 0-.24 0H32a.19.19 0 0 0-.08 0h-.19l-.36.2h-.07a.11.11 0 0 1-.07 0h-.07l-.23.11h-.06l-.43.14-.38.07-.39.05-.05.1a.25.25 0 0 0 0 .15V30.92a.13.13 0 0 1 0 .06v.12h-.91a.57.57 0 0 0-.15 0h-.08a3.56 3.56 0 0 1-.47 0h-1.57a1.08 1.08 0 0 0-.18 0h-.54a.21.21 0 0 0-.08 0h-.13l-.55-.06H23.49a1.3 1.3 0 0 1-.29 0 1.76 1.76 0 0 1-.33 0h-3.42v.53l.16-.09.1-.05.11-.05H20.03c.04 0-.06.11-.1.15l-.06.06c-.05.06-.12.11-.16.16s-.08.07-.09.12h.08a.39.39 0 0 0 .11-.06h.05A.08.08 0 0 1 20 32a.3.3 0 0 1 .1-.07s0 0 .05 0h.14l.07-.05.16-.07h.13c.07 0 0 .05 0 .08s-.05.07-.07.09l-.05.06H20.32h.05a.15.15 0 0 1 .07 0l.16-.09.19-.1h.09l.1-.05.16-.07h.05c.05 0 .09-.05.13-.05a.07.07 0 1 1 .07.09.22.22 0 0 0-.1.09s-.05 0-.07.06a.1.1 0 0 0 0 .05.8.8 0 0 0-.22.23s0 0 .06 0H21.28l.13-.07h.07l.27-.12.12-.06.14-.06h.23l-.14.13L22 32c-.07.07-.15.12-.21.19l.15-.06h.12H22 22.15a1.63 1.63 0 0 1 .25-.13 1.51 1.51 0 0 0 .18-.09H22.92a.36.36 0 0 1-.12.15h-.06l-.07.07h-.05a.23.23 0 0 0-.07.07s-.06 0-.06.07l.27-.12.14-.06h.14a.6.6 0 0 1 .11-.06l.15-.05.11-.05h.16c.01 0 0 0 0 0l.03.07a.94.94 0 0 0-.1.1l-.06.05-.1.07s-.05 0-.06.06.16-.05.22-.07h.06l.23-.1h.1L24 32l.09-.05H24.32a1.92 1.92 0 0 1 .24 0h2.08a.22.22 0 0 1 0 .1s0 0 .07 0H26.94l.14-.05h.16a.19.19 0 0 1 .13 0 .24.24 0 0 1 0 .09v.09l.16-.07a.76.76 0 0 1 .16-.06H28c0 .06-.05.1-.07.15A.25.25 0 0 0 28 32h.07l.13-.05h.2a.48.48 0 0 1 .12 0s.05 0 .07 0 0 .06 0 .08v.05a.21.21 0 0 0 0 .06l.23-.14.14-.08h.12s.05 0 .07-.05h.19a.54.54 0 0 1 0 .1.26.26 0 0 1-.09.09h-.05a.27.27 0 0 1-.08.07h.25l.25-.09a.16.16 0 0 1 .1 0 .46.46 0 0 1 0 .09l-.06.06a1 1 0 0 1-.18.18s0 0-.05.08.18-.1.27-.14l.14-.07a.48.48 0 0 1 .29-.09s0 0 0 .05l-.06.06-.07.06-.1.1-.1.09-.07.06a.94.94 0 0 0 .23-.1l.29-.11H30.65c.05 0 .06 0 .06.06s-.06.11-.08.14l-.05.05-.1.07h-.05l-.08.08v.06h.11l.1-.05H30.77l.21-.12h.18a.62.62 0 0 1 .19-.07 1.62 1.62 0 0 1 .18-.1h.05a.05.05 0 0 1 0 .09l-.07.09-.09.1a.21.21 0 0 0 .12 0l.1-.05.12-.07.12-.06H32a.29.29 0 0 1 .13 0h.2a.07.07 0 0 1 .07.06.11.11 0 0 1 0 .08.41.41 0 0 0 .17-.07h.3s.09-.05.13 0h1.92l.27.07a.4.4 0 0 1 .13 0l.21.08H35.68a.16.16 0 0 0 .08 0c0 .05 0 .07.08.09a.27.27 0 0 1 .08.07h.12l.08.05h.17a.57.57 0 0 0 .13.08l.12.06.12.06H36.78l.12.06c.08 0 .17.07.25.12a1.09 1.09 0 0 0 .25.1 1 1 0 0 0 .18.09 1.11 1.11 0 0 0 .19.09h.06l.11.05.12.07h.07l.18.1.11.08h.06a.39.39 0 0 1 .11.06l.09.07.17.15h.05v.05l.1.09v.06a.28.28 0 0 1 .06.09v.07a.64.64 0 0 0 0 .07 1.11 1.11 0 0 1 .07.16v.1a.26.26 0 0 0 0 .12.54.54 0 0 1 0 .1v.06s0 .11.05.15 0 .06 0 .09v.18a.24.24 0 0 0 0 .09v.06c0 .08.05.16.07.24a1.22 1.22 0 0 1 .07.17.15.15 0 0 0 0 .07.47.47 0 0 1 0 .16v.14a1.27 1.27 0 0 0 0 .2.86.86 0 0 1-.1.16l-.05.05h-.06l-.13.07a.42.42 0 0 1-.14.06h-.07a.38.38 0 0 1-.13.06s-.19 0-.18-.06a.37.37 0 0 1 .15 0 1.09 1.09 0 0 0 .25-.1l.06-.05.1-.09.07-.07.07-.08v-.06l.06-.13-.13.06-.11.06a.85.85 0 0 1-.17.08h-.16l-.19.07H38.29a.14.14 0 0 1 0-.11s0 0 .07 0h.13a.91.91 0 0 0 .17-.09L40.5 38l.11-.07v-.08c0-.08 0 0 .06-.06a1.52 1.52 0 0 1-.2.06h-.08a.31.31 0 0 0-.1 0h-.1L40 38h-.18a.2.2 0 0 1-.06-.11s.05-.06.08-.07h.06l.22-.11h.11v-.09l-.15.05-.36.11a.38.38 0 0 1-.13 0h-.14s-.06 0-.06-.06v-.08l.07-.06H39.61l.14-.07.24-.21.07-.09H39.89l-.13.05h-.1.34-.16a.93.93 0 0 1-.33 0l.1-.05H39.84l.08-.09v-.05a1.31 1.31 0 0 0 .09-.28l-.13.08H39.76c-.05 0 0 0 0-.08V36.62a1.74 1.74 0 0 0 .11-.18.36.36 0 0 0 0-.11v-.06c0-.01 0 0 0 0s0 .08-.06.11v.05l-.06.08-.06.08-.05.05-.13.09a1.1 1.1 0 0 1-.14.11l-.13.09a1.29 1.29 0 0 1-.16.09s-.08 0-.09.07.13 0 .23 0h.17a.08.08 0 0 1 .07 0s0 .06-.08.1-.06.07-.1.08H38.95s-.06-.06-.1-.09a1.8 1.8 0 0 0-.2-.19.52.52 0 0 0-.11-.1h-.08l-.12-.07-.17-.08h-.06l-.1-.06-.17-.08-.06-.08h.06l.14-.11.06-.06.09-.07h.12a3.7 3.7 0 0 1-.4.17h-.08l-.17.05h-.16c0 .08-.09 0-.1 0a.19.19 0 0 1 .07-.06H37.53a.73.73 0 0 0 .16-.14 1.72 1.72 0 0 0-.21.07H37.19l-.19.06h-.1c-.02 0 .05-.05.05-.1a.17.17 0 0 0 .08-.06l.07-.07a.75.75 0 0 0 .15-.09s.09 0 .1-.09H36.9a.25.25 0 0 1-.12 0l.06-.06.14-.09.06-.06a3 3 0 0 0-.32.08h-.11.39-.3c-.01 0 0 0 .06-.07l.1-.09s.09-.05.11-.09a.58.58 0 0 0-.16.05h-.39a.17.17 0 0 1-.13 0 .41.41 0 0 0 0-.1c0-.08.14-.11.21-.15l.1-.08s-.06 0-.09.05h-.09.28c-.06 0-.14 0-.22.08h-.32L36 34.25v-.06h.06a.87.87 0 0 0 .14-.12l.14-.09a.69.69 0 0 1 .13-.11l-.16.07-.15.08-.16.07V34h-.25a.12.12 0 0 0 .06.08.94.94 0 0 1 .09.12 1.75 1.75 0 0 1 .11.24v.14c0 .05 0 0 0 0v.07a.31.31 0 0 0 .09.07l.11.11.07.06h.05l.1.08a.73.73 0 0 0 .09.08.64.64 0 0 0 .13.1s0 0 0 .06h.13l.09.09h.51l.06.06.13.11h.05l.06.07v.06l.07.06a.41.41 0 0 0 .05.09.27.27 0 0 0 .07.08 2 2 0 0 1 .15.33.36.36 0 0 0 0 .11v.07a.19.19 0 0 1 0 .09.4.4 0 0 1 0 .11v.26a.71.71 0 0 0-.08.15.69.69 0 0 0-.07.15s0 0-.06.06A1.15 1.15 0 0 0 39 39l-.17.1-.13.12-.06.05c-.06.05 0 0 0 0s.19-.05.28-.09h.06l.09-.06h.05c.05 0 .1-.08.14-.12s0-.07.07-.08h.06a.49.49 0 0 1 0 .13l-.06.11v.11h-.06l-.06.06-.07.05a.18.18 0 0 0-.07 0l-.1.07h.4l.07-.06h.06s.06-.07.09-.09h.06v-.05l.07-.09c.06 0 0 .08 0 .17v.08l-.08.11c-.03.04 0 0 0 .05l-.07.07a.75.75 0 0 1-.17.1H39.25L39 40H39.61a.4.4 0 0 1 .2-.12c.07 0 0 .13 0 .15a.06.06 0 0 1 0 .05l-.11.11a.18.18 0 0 1-.07 0 .76.76 0 0 1-.18.09.84.84 0 0 0-.19.09.07.07 0 0 0 .06 0h.22s.13-.08.15 0 0 0-.06 0v.07h-.26a.35.35 0 0 1-.17 0l-.06-.05s0-.07-.06-.1v-.05l-.61-.24v-.13a.64.64 0 0 0 0-.07v-.05l-.08-.1c0-.06-.07-.09-.1-.13a.09.09 0 0 1 0-.05.63.63 0 0 1-.11-.12.09.09 0 0 1-.06 0s0 0 0-.05 0 0-.05-.05h-.06l-.05-.05v-.06l-.05-.05-.07-.07h-.07l-.14-.12h-.06s-.05 0-.08-.06a.39.39 0 0 0-.1-.08l-.83-.76-.1-.08h-.05a.13.13 0 0 0-.06-.05h-.06l-.09-.07a.1.1 0 0 0-.05 0s0 0-.06-.05a.39.39 0 0 1-.11-.06.22.22 0 0 1-.06-.07s.06 0 .09 0 .05 0 .07-.05a.28.28 0 0 0 .1-.09.5.5 0 0 0 .08-.07c0-.06.11-.1.17-.16a2.39 2.39 0 0 0-.32.16H36l-.09.06a1 1 0 0 1-.19.12s-.09 0-.11 0 .06-.07.07-.09l.33-.27a.46.46 0 0 1 .07-.07v-.06a.41.41 0 0 0 .09-.1h.05H36.05l-.08.05-.13.07h-.05l-.1.06h-.05a.18.18 0 0 0-.07.05.3.3 0 0 0-.08.08h-.05s-.05 0-.07.06h.12l.11.07s.07.05.11.07l.11.07.05.05s0 .09-.06.11h-.22l.06.05h.13c0 .08.2.06.25.15H36.26a1.18 1.18 0 0 1 .19.11.47.47 0 0 1 .12.07h.26s.08 0 .11.09l.06.06h.06a.47.47 0 0 0 0 .1v.08a.19.19 0 0 1 0 .08v.13c0 .04 0 0 0 0s.08-.07.12-.06 0 0 .07 0 0 0 0 .09a.2.2 0 0 0 0 .05.14.14 0 0 1 0 .11.34.34 0 0 1 0 .1.22.22 0 0 1-.06.07.1.1 0 0 0-.05 0l-.1.06a.08.08 0 0 1 0-.11.2.2 0 0 0 0-.07v-.1c0-.04-.07.09-.1.12h-.05a.6.6 0 0 0-.08.08l-.06.07h-.09l-.09.05h-.06a.36.36 0 0 1-.21 0 .11.11 0 0 1 0-.05l.08-.07s.07 0 .1-.06h.07v-.05c0-.05 0 0 0 0h-.06c-.06 0 0 0 0 0h-.19l-.21.11H35.92a1 1 0 0 1-.16.06h-.05l-.22.05h-.14v-.06a.37.37 0 0 0 .11-.05l.1-.06H35.92c.07 0 0 0 .06-.05a.09.09 0 0 0 0-.06s-.07 0-.1 0h-.11l-.1.05h-.21l-.21.05h-.14s-.06 0-.07-.06 0 0 0-.07a.29.29 0 0 0 .12-.07 1.09 1.09 0 0 0 .15-.08c.08 0 .11-.08.18-.11s.05 0 .08-.05h.05a2.09 2.09 0 0 0-.21 0h-.33l-.11.06H34.68v-.07c0-.07 0 0 .05-.05L35 39v-.05h.07l.15-.11a.18.18 0 0 1 .07 0 .07.07 0 0 0 0-.05 2.12 2.12 0 0 1-.33.11 1.6 1.6 0 0 1-.23.1h-.3c-.05 0 0 0 0-.06a.88.88 0 0 1 .15-.12l.07-.06h.12l.08-.05.09-.07s.06 0 0 0a1 1 0 0 1-.16.06h-.18l-.32.11h-.33l.07-.06h.05l.1-.06a.35.35 0 0 0 .13-.11l-.21.07h-.33a.41.41 0 0 1-.22 0 .07.07 0 0 1 0-.12l.19-.17.07-.06a1 1 0 0 0 .16-.13.11.11 0 0 0-.08 0l-.24.09-.14.07h-.06.16a.13.13 0 0 1 0-.08s.07-.08.1-.11h.07v-.06l.08-.08a1.25 1.25 0 0 1 .19-.15s.05 0 0-.05l-.44.22-.21.13H33.1a.21.21 0 0 1 .05-.07 1.27 1.27 0 0 0 .13-.11s.09-.07.14-.08h.16-.53s-.07 0-.1-.06-.11-.05-.14-.1h-.52l-.11.08-.05.05-.11.08h-.06l-.06.06-.16.1-.1.06h-.09a.11.11 0 0 1-.05 0s-.09.06-.12 0a.08.08 0 0 1 0-.07c0-.06.09-.1.14-.13s.06-.06.09-.07l.06-.06.1-.07.03-.76a.87.87 0 0 1 .1-.08s0 0 .06-.06h.12a.09.09 0 0 0-.05 0l-.19.11-.16.09H31.45a.19.19 0 0 1-.07.06l-.1.07h-.08a.18.18 0 0 0-.07.05l-.1.08a.23.23 0 0 1-.07.07l-.1.06-.1.07a.41.41 0 0 1-.17.07.11.11 0 0 1-.05-.12v-.06l.15-.14.07-.06.05-.05.3-.25a1.45 1.45 0 0 0 .19-.17l.09-.09a.45.45 0 0 0 .1-.09s0 0 0-.06.05 0 .06-.07l.14-.12.06-.07s.07-.06.08-.09a1.09 1.09 0 0 0 .11-.13 1.84 1.84 0 0 0-.25.17l-.09.07h-.06l-.09.08h-.05s-.07.07-.1.08-.11.09-.17.11l-.07.05H31l-.11.08a.52.52 0 0 1-.11.1l-.37.3h-.06a.71.71 0 0 0-.09.07l-.07.07a.5.5 0 0 1-.08.07.17.17 0 0 1-.17 0s-.06 0-.06-.06 0-.08.06-.11v-.06l.13-.12.36-.34h.05l.11-.1.1-.1a.68.68 0 0 1 .12-.12.93.93 0 0 1 .1-.1s.05 0 .07-.06l.1-.1a.57.57 0 0 0 .11-.11s0 0 .07 0 .12-.06.1-.13-.08 0-.11 0h-.1l-.3.18a.18.18 0 0 0-.07 0l-.07.05h-.07s-.1.08-.16.11 0 0-.06.06a1.06 1.06 0 0 1-.12.1l-.06.05h-.05l-.12.09-.18.12v.06l-.06.08a.09.09 0 0 1-.06.06h-.09v-.06a.56.56 0 0 1 .14-.16l.09-.09.1-.08a.41.41 0 0 0 .11-.12l.09-.09.16-.16a.94.94 0 0 1 .1-.1h.05a.34.34 0 0 0 .06-.06h.05l.2-.17.11-.09.06-.07.05-.06c.05-.06 0 0 0 0a.88.88 0 0 1 .15-.12v-.07l.08-.08a.19.19 0 0 0-.1 0 .41.41 0 0 1-.11.07.38.38 0 0 1-.12.1s0 0-.05 0l-.09.07c-.12.1-.25.19-.36.29l-.06.06-.18.15-.2.17-.05.05a.31.31 0 0 1-.09.07h-.06s0 .05-.05.05l-.76.88H28.88l-.07.05-.11.11s-.06 0-.1.06h-.06s-.1.06-.14 0a.09.09 0 0 1-.05 0 .34.34 0 0 1 .08-.09l.07-.07h.11v-.05l.08-.06.08-.08v-.06h.07l.07-.08.06-.08.19-.16a.76.76 0 0 1 .09-.09.44.44 0 0 1-.15.08h-.31l-.06.06a.19.19 0 0 1-.07.06h-.12l-.09.05h-.05l-.12.11-.13.12h-.05c-.05 0-.09.11-.15.15s-.07.06-.11 0a.12.12 0 0 1 .06-.1v-.11l.08-.06s.05 0 .06-.06l.19-.19h.05l.21-.21.08-.07.05-.06h-.08s0 .05-.07.06a1.24 1.24 0 0 1-.18.14h-.05l-.07.05-.08.07a.63.63 0 0 0-.12.1l-.17.13-.09.07-.11.09-.25.22h-.05l-.07.06s-.05.06-.08 0 .07 0 .07-.11 0 0 .05-.06a.47.47 0 0 0 .1-.1l.05-.06v-.06l.08-.1.07-.07v-.05l.07-.08h-.07a1.21 1.21 0 0 1-.14.1l-.11.08-.15.11h-.05L27 37l-.22.22h-.06l-.06.06h-.06l-.06.06-.06.05-.05.06a.46.46 0 0 0-.07.07l-.12.11-.06.05s-.06 0-.08.07h-.06s-.05 0-.06.05-.06 0-.09 0H25.77c-.05 0 0 0 0 0a.43.43 0 0 0 .09-.13l.08-.09a.77.77 0 0 0 .12-.13h.06s.05-.05.06-.08l.1-.1.06-.06s.05 0 .06-.06a.31.31 0 0 1 .09-.07l.06-.07H26.67s.05-.06.08-.07l.07-.06h.05c.05 0 0 0 0 0l.1-.09.12-.1.07-.06a.18.18 0 0 0 .07-.08s0 0-.06 0c-.1.06-.19.14-.28.2l-.11.08-.06.05h-.31a.27.27 0 0 1-.08.07.27.27 0 0 0-.07.08h-.05l-.08.06-.15.15c-.11.09-.21.21-.3.3-.05 0-.08.07-.12.1H25.34s-.05 0-.06-.06.05 0 .07-.06a.59.59 0 0 0 0-.09.73.73 0 0 1 .09-.08l.11-.13.06-.06c.06-.06 0 0 0 0h.05l.1-.11h.05s.05 0 .07-.06.16-.18.25-.26l.06-.05h.05v-.05l.1-.1.07-.06a.29.29 0 0 0 .08-.07l.17-.15h.05l.09-.25-.1.06h-.07l-.14.11-.11.08-.07.06-.12.09-.1.07a.41.41 0 0 1-.11.07l-.13.12a.26.26 0 0 0-.12.12h-.05c-.09.1-.21.18-.3.28a.32.32 0 0 0-.1.1s-.05 0-.08.06a.33.33 0 0 0-.09.11l-.13.13-.15.15-.07.07-.18.16H24a.12.12 0 0 1 0-.1.63.63 0 0 1 0 .26s0-.06.06-.07l.11-.11.12-.11.05-.05a.24.24 0 0 1 .08-.06l.05-.06.09-.08L25 37l.05-.05h.05l.06-.06c.06-.06 0 0 0 0a1.43 1.43 0 0 0-.33.15.5.5 0 0 1-.08.07h-.08l-.06.06-.07.06-.07.06s-.05 0-.07.06a.81.81 0 0 0-.14.12 1.49 1.49 0 0 0-.14.12 3 3 0 0 0-.25.25l-.1.1a.22.22 0 0 0-.05.08h-.1a.47.47 0 0 0-.12.07h-2.49a1.2 1.2 0 0 1-.19 0 1.77 1.77 0 0 1-.22 0H19.49v.46h2.16l.86-.05h.56l.95-.06h1.17a3.25 3.25 0 0 0 .54 0H26.89a.06.06 0 0 1 0 .06v.06c0 .06 0 .15.07.19l.1.15v.05h.05a.49.49 0 0 1 0 .11.36.36 0 0 0 0 .11.54.54 0 0 0 .09.15.5.5 0 0 0 .12.13H28.19a.5.5 0 0 1 .12 0 .11.11 0 0 1 .08 0 .14.14 0 0 0 0 .06.73.73 0 0 0 .05.12s0 .05 0 .07l.05.05.06.06.16.1a.72.72 0 0 0 .39.11 1.32 1.32 0 0 0 .35 0h.29v.16a.22.22 0 0 0 .06.07v.06l.05.06a.71.71 0 0 0 .13.12l.09.07h.19a.8.8 0 0 0 .15 0H32a1.91 1.91 0 0 0 .34-.1s0 0 0 .08l.12.18.06.06.06.06s.05 0 .06.06.06.06.1.08h.06l.22.1H34.2a.75.75 0 0 0 .18-.07s0 0 .07 0a2.82 2.82 0 0 0 .29.18l.14.08h.52a.68.68 0 0 1 .15 0 .19.19 0 0 0 .1 0h.24a.15.15 0 0 1 0-.06v-.18a1.28 1.28 0 0 0 0-.19v-.18c0-.02 0 0 .06 0h.06s.05 0 .08.05a.1.1 0 0 1 .07 0h.19a.68.68 0 0 0 .26 0h.13a.47.47 0 0 1 .1-.05H36.96l.12-.09.13-.12a.24.24 0 0 0 .06-.08.09.09 0 0 0 0-.06v-.13l.09.05h.53l.11-.05h.14a.92.92 0 0 0 .23-.2.19.19 0 0 0 .06-.07l.09-.14a1.72 1.72 0 0 0 .07-.21s0-.06 0-.09.1 0 .14 0H38.95a.72.72 0 0 1 .15-.11.51.51 0 0 0 .16-.13l1.74.27a.15.15 0 0 0 .05-.06v-.05l.06-.1h.05l.23-.07.31-.22h.06a.18.18 0 0 0 .07 0l.07-.05a.43.43 0 0 1 .19 0h1.09a5 5 0 0 1 .54 0l1 .06h1.1l1.67.11H49.38l2.54.18Z" style="fill-rule:evenodd"/>
    <path d="M52.18 37.84h-.07L52 38l-.07.05h-.07a.54.54 0 0 0-.12.09h-.06l-.07.06v.08a.21.21 0 0 1 .11 0s0 0 .07 0h.08c.02 0 0 0 0 0a.19.19 0 0 0 .09 0h.07c.07 0 0 0 0 0a1 1 0 0 1 .17-.12ZM52.18 37.14a.53.53 0 0 1-.14.12c-.13.08-.24.17-.36.26l-.39.29-.09.06a1.19 1.19 0 0 1-.15.09l-.09.09-.07.08-.08.07a.16.16 0 0 0-.07.09s.06 0 .1 0h.05c.05 0 0 0 0 0a2 2 0 0 0 .29-.11.66.66 0 0 1 .15-.14s.06-.06.09-.09h.07l.07-.07h.07c.09-.07.16-.17.25-.25l.12-.23h.07l.06-.07Z" style="fill-rule:evenodd"/>
    <path d="m165.79 20.85-5 13.31h10.55Zm20 26.06h-9.19l-2.81-6.77h-15.28L156 46.91h-9l13.81-34.25h9.89ZM198.14 46.91h-8.54V12.66h8.54ZM214 40.64h5.58c8.58 0 11.14-5.83 11.14-10.85 0-5.88-3.16-10.85-11.25-10.85H214Zm6.58-28c12.5 0 18.93 7.79 18.93 17.18 0 9.84-6.23 17.07-19.89 17.07h-14.14V12.66ZM19.52 51.66a5.73 5.73 0 0 0 2.72 3.93v-3.93ZM23.68 51.66h3.74v6.07a17.81 17.81 0 0 1-3.74-1.29ZM28.86 51.66V58s1.32.24 1.54.25a9.84 9.84 0 0 1 2.2.49v-7.1ZM52.24 51.66a5.76 5.76 0 0 1-2.73 3.93v-3.93ZM48.07 51.66h-3.74v6.07a17.81 17.81 0 0 0 3.74-1.29ZM43 51.66V58s-1.33.24-1.54.25a9.79 9.79 0 0 0-2.21.49v-7.1ZM35.91 61.14a5 5 0 0 0-1.82-1.75v-7.73h3.64v7.73a5 5 0 0 0-1.82 1.75"/>
    <path d="M22.82 47.92h1.28l-1 .76.4 1.22-1-.76-1 .76.4-1.22-1-.76h1.27l.39-1.2ZM27.33 47.92h1.28l-1 .76.4 1.22-1-.76-1 .76.4-1.22-1-.76h1.27l.39-1.2ZM31.84 47.92h1.28l-1 .76.4 1.22-1-.76-1 .76.41-1.22-1-.76h1.27l.38-1.2ZM36.35 47.92h1.27l-1 .76.38 1.23-1-.76-1 .76.41-1.22-1-.76h1.27l.38-1.2ZM40.85 47.92h1.28l-1 .76.4 1.22-1-.76-1 .76.41-1.22-1-.76h1.27l.38-1.2ZM45.36 47.92h1.28l-1 .76.4 1.22-1-.76-1 .76.4-1.22-1-.76h1.16l.38-1.2ZM49.87 47.92h1.28l-1 .76.4 1.22-1-.76-1 .76.4-1.22-1-.76h1.27l.38-1.2ZM28.45 18.13v3.06c0 1.78-1.21 2.4-2.69 2.4s-2.69-.73-2.69-2.4v-3.06h1.34v3.09a1.21 1.21 0 0 0 1.33 1.24 1.25 1.25 0 0 0 1.37-1.33v-3ZM33.23 19.53a4.13 4.13 0 0 0-1.71-.48c-.48 0-.79.17-.79.44 0 .81 2.74.58 2.74 2.46 0 1-.87 1.64-2.07 1.64a3.61 3.61 0 0 1-1.94-.53V21.9a3.09 3.09 0 0 0 1.84.7c.51 0 .79-.18.79-.5 0-.88-2.74-.56-2.74-2.49 0-.94.81-1.55 2-1.55a4.47 4.47 0 0 1 1.83.42ZM36.77 19.42 36 21.51h1.66Zm3.15 4.09h-1.45L38 22.45h-2.4l-.41 1.06H33.8l2.2-5.38h1.56ZM41.93 23.51h-1.34v-5.38h1.34ZM44.51 22.53h.87a1.59 1.59 0 0 0 1.75-1.71 1.58 1.58 0 0 0-1.76-1.7h-.86Zm1-4.4a2.68 2.68 0 0 1 3 2.7c0 1.55-1 2.68-3.13 2.68h-2.22v-5.38Z" style="fill:#fff"/>
  </g>
</svg>
