<svg width="300" height="87" viewBox="0 0 300 87" fill="none" xmlns="http://www.w3.org/2000/svg">
<g clip-path="url(#clip0_1766_4496)">
<path d="M143.718 13.4553C144.294 13.3676 144.78 13.3616 145.356 13.4512C145.416 13.5204 145.469 13.5797 145.505 13.6657C145.63 13.9676 145.618 14.8102 145.488 15.0986C145.085 15.9969 145.277 22.8753 145.278 24.3454C145.278 24.9074 145.403 25.8875 145.206 26.3863C145.024 26.8465 145.059 27.5499 145.045 28.0497L145.007 32.1671L143.197 32.1784C143.134 31.4767 143.139 30.7642 143.155 30.0606C143.163 29.7096 143.142 29.3454 143.278 29.0156C143.457 28.58 143.376 27.8339 143.389 27.3491L143.427 20.6844L143.431 18.396C143.434 18.0119 143.399 17.5685 143.542 17.2093C143.707 16.7968 143.652 16.285 143.661 15.8436L143.718 13.4553Z" fill="currentColor"/>
<path d="M173.114 64.4047C173.561 64.373 174.164 64.3192 174.57 64.5139C174.604 64.5836 174.728 64.7808 174.73 64.8461C174.742 65.2489 174.513 65.7447 174.508 66.1996L174.483 69.8728C174.477 70.2913 174.547 70.8882 174.43 71.2814C174.213 72.0107 174.234 72.8767 174.23 73.6347L174.208 76.5179C174.206 76.9295 174.273 77.5276 174.154 77.915C174.012 78.3751 174.003 78.9109 173.979 79.389C173.917 80.6256 174.038 81.8928 173.96 83.1192L173.778 83.1763L172.127 83.1721C172.065 82.5774 171.959 79.9914 172.181 79.5627C172.346 79.2459 172.294 78.8174 172.314 78.4526L172.366 74.4059C172.368 73.946 172.279 73.0435 172.484 72.6402C172.54 72.5307 172.561 72.5139 172.564 72.3818L172.642 70.3106L172.644 67.2079C172.644 66.7709 172.552 66.083 172.79 65.7149C172.958 65.4566 172.897 64.8345 172.929 64.5039L173.114 64.4047Z" fill="currentColor"/>
<path d="M158.919 13.7153C159.314 13.6676 159.716 13.6379 160.112 13.6883C160.321 13.7151 160.476 13.6947 160.607 13.8855C160.865 14.2635 160.727 17.673 160.684 18.3695C160.643 19.0276 160.472 19.6659 160.457 20.3412L160.435 23.6749C160.43 24.18 160.482 24.7723 160.371 25.2597C160.026 26.7881 160.166 28.5033 160.169 30.062C160.171 30.84 160.304 31.689 159.973 32.4116L158.312 32.4268L158.315 27.3911C158.319 27.1868 158.32 26.9491 158.367 26.75C158.402 26.6025 158.495 26.5143 158.505 26.3538L158.588 22.0826C158.586 21.4292 158.429 20.2665 158.707 19.6941C158.837 19.4261 158.79 18.9879 158.809 18.6849L158.86 15.5905C158.858 14.9677 158.821 14.3316 158.919 13.7153Z" fill="url(#paint0_linear_1766_4496)"/>
<path d="M167.249 64.4081L169.303 64.3879C169.706 64.3874 170.153 64.3466 170.528 64.5048C170.716 64.8862 170.676 65.4081 170.689 65.8302L167.736 65.8109C167.466 68.1096 167.615 70.5029 167.608 72.8186C167.606 73.4271 167.75 74.645 167.536 75.1854C167.244 75.9227 167.353 77.0975 167.344 77.8894L167.358 83.1854L166.065 83.1885C165.876 83.1333 165.865 83.1308 165.744 82.9759L165.752 76.2147L165.759 74.4531C165.762 74.1887 165.744 73.7748 165.839 73.5267C165.862 73.4668 165.967 73.367 166.011 73.3127C165.898 72.4825 166.002 71.5773 166.011 70.7356L166.024 66.0748L162.998 66.072L162.965 64.6526L165.257 64.6435C165.542 64.6402 165.943 64.6827 166.206 64.5796C166.523 64.4549 166.91 64.4467 167.249 64.4081Z" fill="currentColor"/>
<path d="M133.617 39.0098L137.897 39.0332C138.905 39.0321 139.918 38.9717 140.921 39.0977L140.909 40.4192L138.211 40.4601C138.092 41.2117 138.096 41.9746 138.101 42.7334C138.104 43.1089 138.194 43.7232 138.05 44.0488C137.867 44.461 137.883 45.0687 137.872 45.5203L137.851 48.2916L137.806 54.8979C137.562 55.639 137.568 56.6911 137.664 57.4604L137.678 57.5649L136.018 57.5497C135.941 56.663 135.987 55.7454 135.995 54.8551C135.998 54.5301 135.949 54.0324 136.057 53.7299C136.084 53.653 136.212 53.5678 136.231 53.4925C136.297 53.2311 136.216 52.6546 136.223 52.3571L136.265 45.2278C136.265 44.6885 136.095 42.6534 136.421 42.2602L136.491 42.1855L136.516 40.4278L133.273 40.4565C133.243 39.9966 133.216 39.564 133.288 39.1071L133.617 39.0098Z" fill="currentColor"/>
<path d="M127.465 39.0098L128.495 39.1071C128.697 40.5668 128.485 42.212 128.473 43.6976L128.462 48.5717C128.462 49.1461 128.593 50.1411 128.398 50.6432C128.166 51.236 128.249 52.1453 128.242 52.7897C128.23 53.8951 128.192 54.9797 128.271 56.0862C128.556 56.1987 129.099 56.1229 129.419 56.1212L132.333 56.1276C132.839 56.129 133.417 56.0537 133.901 56.2095L133.98 56.427C134.044 56.7019 134.06 57.2561 133.925 57.5053L133.541 57.5371C132.63 57.5362 126.747 57.6909 126.385 57.4386C126.331 57.1461 126.323 56.7 126.448 56.4215C126.711 55.8337 126.584 54.6743 126.594 53.9982C126.613 52.7475 126.467 43.8583 126.741 43.4025C126.895 43.1456 126.838 42.7615 126.84 42.4648L126.861 40.1752C126.865 39.8298 126.813 39.4035 126.951 39.0828L127.465 39.0098Z" fill="currentColor"/>
<path d="M171.616 39.0078L172.614 39.0834L172.772 39.2777C172.912 39.8879 172.932 44.4114 172.766 44.8578C172.546 45.4506 172.646 46.3331 172.629 46.9739L172.563 52.6846C172.565 53.8349 172.535 54.9806 172.635 56.1278L176.269 56.116C176.884 56.1162 177.636 56.0206 178.223 56.2094C178.285 56.3195 178.331 56.427 178.358 56.5516C178.408 56.7942 178.471 57.3132 178.339 57.5255L177.976 57.5343L170.692 57.5627C170.69 56.5216 170.588 50.5941 170.863 50.2285L170.94 50.1381C170.814 48.5259 170.977 46.7812 170.989 45.1553L170.981 41.2017C170.977 40.564 170.862 39.715 171.06 39.1068L171.616 39.0078Z" fill="currentColor"/>
<path d="M107.541 64.6527L111.238 64.6552C111.826 64.6516 112.678 64.5424 113.214 64.779L113.239 64.8504C113.364 65.2229 113.413 65.6122 113.239 65.9751C112.904 66.1876 112.255 66.0895 111.85 66.0881L108.927 66.1008L108.711 74.057L112.709 74.0832L112.905 75.4521L109.059 75.4794C108.914 75.4648 108.851 75.4645 108.722 75.5354C108.566 76.5076 108.642 77.5603 108.637 78.5454L108.667 83.1916L106.829 83.1833C106.743 82.6244 106.611 80.7112 106.923 80.2816L107.002 80.1854C106.924 79.0009 107.029 77.7602 107.033 76.5682L107.059 68.4069L107.042 65.9428C107.04 65.5844 106.965 65.0602 107.129 64.7404L107.541 64.6527Z" fill="currentColor"/>
<path d="M109.191 39.1647C109.631 38.7065 110.555 38.3174 111.177 38.232C112.077 38.1082 112.805 38.3629 113.516 38.902C113.682 39.1672 113.836 39.3911 113.906 39.6996C113.925 39.7843 113.96 39.827 114.006 39.8984C114.162 40.1375 114.145 40.4816 114.254 40.7584C114.51 41.4113 114.418 42.486 114.441 43.1952C113.864 43.1867 113.291 43.1693 112.743 43.3808C112.527 43.1571 112.591 42.6493 112.573 42.335C112.538 41.7413 112.381 40.1653 111.577 40.141C111.045 40.1248 110.51 40.2607 110.124 40.6442C109.59 41.1739 109.523 41.754 109.208 42.3912C109.112 42.585 109.139 42.7915 109.098 42.9978C108.997 43.5087 108.913 43.9419 108.888 44.4674C108.87 44.8424 108.912 45.2909 108.858 45.6549C108.584 47.5094 108.487 49.5426 108.657 51.4213C108.687 51.7469 108.805 52.0444 108.849 52.3615C108.888 52.6499 108.85 52.9535 108.95 53.2311C109.032 53.4567 109.107 53.626 109.143 53.8656C109.231 54.4564 109.723 55.0961 110.197 55.4537C110.523 55.6997 111 55.8993 111.409 55.8678C111.72 55.6498 111.888 55.4736 112.086 55.1408L112.145 55.044C112.399 54.5907 112.335 53.7451 112.186 53.2571L112.095 52.9604C112.504 52.7219 113.23 52.8104 113.692 52.8614C114.041 53.2697 113.931 54.3252 113.892 54.8653L113.839 55.3972C113.803 55.9224 113.415 56.6936 113.015 57.0377C112.614 57.3824 111.589 57.8255 111.055 57.7885L110.204 57.6225C109.444 57.52 108.872 57.1075 108.421 56.5064C106.669 54.1658 107.014 50.359 107.019 47.5874C107.021 46.5207 106.932 45.2898 107.092 44.2418L107.161 43.8895C107.402 42.7463 107.627 41.47 108.232 40.4507C108.517 39.969 108.875 39.605 109.191 39.1647Z" fill="currentColor"/>
<path d="M125.219 64.6893C125.766 64.6394 126.269 64.6695 126.814 64.7276C126.984 64.8509 127.049 64.9294 127.081 65.1451C127.243 66.2375 127.099 67.5816 127.098 68.6969L127.095 76.88C127.094 77.7298 126.938 78.9189 127.167 79.7199C127.409 80.5711 127.577 81.0188 128.287 81.5918C128.473 81.7418 128.593 81.7997 128.836 81.825C129.246 81.8678 129.818 81.6229 130.113 81.3436C130.373 81.0977 130.615 80.7227 130.69 80.3667C131.148 78.1795 130.983 75.824 130.981 73.5967L130.992 64.7364C131.546 64.6391 132.039 64.6797 132.596 64.7403L132.662 66.1071L132.686 66.9361L132.679 75.9676L132.621 78.9865C132.608 79.4822 132.644 80.0651 132.539 80.5484C132.396 81.2088 132.05 82.0236 131.552 82.4967C130.953 83.0663 130.184 83.1882 129.398 83.1954C128.335 83.2053 127.394 83.304 126.578 82.4892C125.933 81.8452 125.489 80.9565 125.308 80.0624C125.186 79.4621 125.225 78.7968 125.223 78.1861L125.219 75.3633L125.219 64.6893Z" fill="currentColor"/>
<path d="M164.451 38.8125C164.953 39.0797 165.581 39.0504 166.139 39.0791C166.19 39.5228 166.373 39.9154 166.428 40.3339L167.659 50.1799L168.448 56.1388C168.506 56.6177 168.677 57.0649 168.727 57.5601C168.301 57.5598 167.204 57.6809 166.865 57.4843C166.771 57.4297 166.702 57.3585 166.657 57.2576C166.519 56.9516 166.595 56.3453 166.569 55.9948C166.532 55.5018 166.407 55.0218 166.364 54.5332C166.306 53.8685 166.363 53.0267 166.15 52.3981C166.041 52.0777 166.078 51.7245 165.864 51.4683L165.329 51.4645L163.357 51.473L162.295 57.5447L160.766 57.5538C160.788 57.0823 160.905 56.6651 160.987 56.2041L161.683 52.7333L163.158 45.014L163.857 41.2176C164.017 40.3995 164.129 39.5875 164.451 38.8125ZM164.878 43.5422C164.66 44.2188 164.622 44.8488 164.501 45.5423C164.24 47.0416 163.755 48.5735 163.737 50.0972L164.729 50.052C165.074 50.0572 165.437 50.0856 165.779 50.0475C165.792 49.2965 165.794 48.485 165.7 47.7409C165.65 47.3389 165.537 46.9476 165.492 46.5456C165.401 45.7449 165.42 45.0327 165.215 44.2367C165.17 44.0592 165.147 43.8102 165.02 43.6696C164.964 43.6075 164.942 43.5943 164.878 43.5422Z" fill="currentColor"/>
<path d="M165.427 13.3613C165.727 13.3735 166.369 13.3442 166.631 13.444C166.714 13.4758 166.867 13.6459 166.941 13.7098C167.046 14.1551 167.04 14.5847 167.088 15.0352C167.122 15.354 167.225 15.6625 167.267 15.9804C167.315 16.3397 167.303 16.7061 167.348 17.0662L167.63 19.2256C167.671 19.4964 167.773 19.7569 167.8 20.0296L168.187 23.544L168.644 26.4961C168.697 26.9491 168.691 27.4109 168.754 27.8623C168.954 29.3018 169.249 30.716 169.324 32.1768L167.496 32.1721L167.013 28.3754C166.837 27.5333 166.836 26.6761 166.8 25.8184L165.41 25.8244L164.101 25.8815C163.956 26.2027 163.977 26.7679 163.912 27.1325L163.374 30.1326C163.311 30.5053 163.163 30.8514 163.167 31.2341L163.164 31.4541C163.139 31.7271 163.078 31.9509 162.871 32.1266C162.42 32.1572 161.996 32.1836 161.547 32.1177L161.441 31.9669C161.603 31.4229 161.646 30.8213 161.763 30.261L162.87 24.4428L165.007 13.4534L165.427 13.3613ZM165.744 17.5672C165.326 18.5057 165.236 19.5882 165.073 20.5937L164.299 24.702L165.211 24.584C165.706 24.4811 166.152 24.4715 166.647 24.4174C166.369 22.8695 166.22 21.3142 166.061 19.7498C166.002 19.1702 166.041 18.549 165.935 17.9794C165.908 17.8316 165.857 17.6706 165.744 17.5672Z" fill="currentColor"/>
<path d="M137.389 13.4112C137.928 13.3585 138.689 13.2816 139.133 13.6028C139.181 13.7385 139.215 13.8419 139.218 13.9874C139.226 14.3572 139.366 14.5973 139.413 14.9431L139.959 19.1553C140.01 19.5468 140.005 19.948 140.072 20.3373C140.107 20.5441 140.197 20.7426 140.228 20.9488C140.3 21.4374 140.288 21.9508 140.346 22.4454C140.387 22.8006 140.496 23.135 140.529 23.4946C140.578 24.0267 140.584 24.5939 140.707 25.1139C140.819 25.5892 140.836 26.0849 140.905 26.5683L141.351 29.6927C141.407 30.1573 141.391 30.6539 141.528 31.1025C141.637 31.4587 141.669 31.8334 141.716 32.2024L140.145 32.1726C139.938 32.1431 139.708 32.0626 139.635 31.8387C139.521 31.4926 139.577 30.8825 139.546 30.5083C139.503 29.9999 139.4 29.4975 139.337 28.9916C139.239 28.2069 139.208 27.4884 139.054 26.7078C138.992 26.3893 139.065 26.1235 138.86 25.855L138.583 25.8178L136.464 25.8928C136.347 26.2771 136.204 26.6711 136.163 27.0718C136.062 28.0563 135.83 29.0302 135.651 30.0002C135.564 30.4747 135.602 30.9652 135.422 31.4265C135.352 31.6043 135.344 31.772 135.333 31.9616L135.328 32.0526C135.049 32.2746 134.15 32.1701 133.762 32.1717C133.785 31.2911 134.071 30.3619 134.24 29.4953L135.346 23.7339L136.586 17.1927C136.811 15.9856 136.873 14.5226 137.389 13.4112ZM137.932 17.9181C137.538 19.0723 137.41 20.3351 137.216 21.5345C137.048 22.5706 136.672 23.5456 136.762 24.6129C136.986 24.7651 137.315 24.6509 137.582 24.6178L137.681 24.5837C138.045 24.4618 138.364 24.4243 138.746 24.4108C138.905 23.4063 138.641 22.3051 138.502 21.3142C138.437 20.8532 138.466 20.3819 138.413 19.9193C138.334 19.2421 138.157 18.5608 137.932 17.9181Z" fill="currentColor"/>
<path d="M158.641 64.4062C159.254 64.3684 159.873 64.3684 160.48 64.4671C160.602 64.5859 160.645 64.6154 160.677 64.7883C160.762 65.2435 160.709 65.7324 160.775 66.1939L161.173 68.652L161.581 72.2011L162.274 76.9729C162.338 77.5032 162.342 78.0422 162.419 78.5716C162.646 80.1203 162.907 81.6042 162.984 83.175L161.157 83.1714L160.554 78.4861C160.517 78.1376 160.609 77.2437 160.482 76.9898C160.453 76.9319 160.395 76.8935 160.352 76.8456L159.775 76.8343L157.784 76.8748C157.667 77.2611 157.677 77.6644 157.601 78.0587L156.865 81.9279C156.785 82.3721 156.855 82.6569 156.635 83.0835C156.193 83.2293 155.634 83.1805 155.168 83.1871L158.641 64.4062ZM159.338 68.4196C159.114 69.0794 159.114 69.7052 158.979 70.3747C158.816 71.182 158.566 72.0351 158.468 72.8476C158.384 73.5477 158.347 74.4518 158.11 75.1085L158.066 75.234L158.032 75.3222C158.281 75.5149 158.755 75.457 159.065 75.4325L160.322 75.4402C160.23 74.8364 160.089 74.2168 160.029 73.6119L159.906 71.7712C159.85 71.2857 159.724 70.81 159.692 70.3195C159.671 70.0036 159.732 68.8265 159.567 68.6092C159.535 68.5671 159.417 68.4761 159.365 68.4366L159.338 68.4196Z" fill="currentColor"/>
<path d="M117.24 39.0042C117.676 38.9813 118.084 39.0555 118.512 39.128C118.61 40.4791 118.545 41.8593 118.545 43.2145L118.548 50.6192L118.55 52.7315C118.551 53.0444 118.512 53.4492 118.616 53.7412C118.694 53.9607 118.744 54.184 118.79 54.4126C118.878 54.8526 119.099 55.3078 119.407 55.6376C119.756 56.012 119.957 56.1708 120.472 56.1775C120.931 56.1835 121.185 56.1212 121.523 55.7923L121.599 55.7164L121.775 55.5477C122.229 55.0831 122.304 54.4616 122.392 53.8385C122.629 52.1688 122.489 50.3308 122.49 48.6423L122.487 39.1002L123.316 39.0249C123.503 39.0238 124.049 39.0282 124.169 39.1611C124.458 39.4798 124.343 40.5221 124.341 40.945L124.335 49.5516L124.328 51.7615C124.327 52.0921 124.366 52.5002 124.272 52.8184C124.029 53.6486 124.183 54.5946 123.932 55.4071L123.894 55.5243C123.647 56.3081 123.198 56.9175 122.47 57.3115C122.078 57.5232 121.645 57.5315 121.211 57.5641C120.409 57.6242 119.747 57.6934 118.955 57.4392C118.319 57.2348 117.678 56.6112 117.384 56.0189C117.062 55.3721 116.796 54.6505 116.723 53.9254C116.636 53.0698 116.692 52.1638 116.692 51.3019L116.692 46.3535L116.688 41.5993C116.687 40.7848 116.624 39.9133 116.725 39.1057L117.24 39.0042Z" fill="currentColor"/>
<path d="M143.447 39.0137L144.502 39.0887C144.677 39.2971 144.699 39.408 144.728 39.6718C144.845 40.7328 144.732 41.9454 144.733 43.0196L144.731 50.8013L144.732 52.7327C144.734 53.0939 144.706 53.4986 144.832 53.8414C144.936 54.1231 144.918 54.4262 145.046 54.6919C145.213 55.0366 145.329 55.3961 145.611 55.6694C145.958 56.0058 146.2 56.183 146.702 56.1822C147.139 56.1817 147.393 56.1061 147.708 55.7877C148.281 55.2089 148.376 54.8703 148.528 54.0895C148.849 52.4462 148.664 50.5005 148.665 48.8164L148.654 39.1005C149.239 39.025 149.728 39.0164 150.313 39.0983C150.689 39.5306 150.532 40.6545 150.53 41.2125L150.525 49.0502C150.524 50.2173 150.601 51.4558 150.503 52.6174C150.465 53.0583 150.323 53.5135 150.277 53.9693C150.226 54.481 150.267 55.0013 150.084 55.4888C149.911 55.9503 149.736 56.4141 149.39 56.7822C148.793 57.4166 148.123 57.4971 147.3 57.573C147.069 57.5945 146.828 57.673 146.598 57.6592C146.095 57.6292 145.583 57.5815 145.1 57.4298C144.494 57.2396 143.852 56.5903 143.573 56.0303L143.217 55.2365C143.059 54.7658 142.931 54.2381 142.9 53.7426C142.818 52.4203 142.775 39.4402 142.944 39.0917L143.447 39.0137Z" fill="currentColor"/>
<path d="M135.387 64.6465L137.125 64.6837L138.535 68.2595C138.673 68.6348 138.782 69.1664 138.976 69.4989C139.124 69.7528 139.171 70.0498 139.284 70.3194L140.286 72.9705L142.09 77.5257C142.285 77.977 142.303 78.6412 142.748 78.9318C142.919 78.7261 142.845 78.1617 142.84 77.8874C142.827 77.066 142.656 76.2607 142.621 75.4503L142.575 70.3274C142.538 69.6254 142.374 68.9243 142.347 68.2353L142.311 64.6724C142.704 64.6663 143.093 64.6363 143.474 64.7466C143.762 65.2542 143.607 66.4205 143.613 67.0246C143.624 68.1252 143.624 69.2265 143.818 70.3112C143.934 70.9632 143.872 71.733 143.874 72.3964L143.902 76.208C143.918 76.9852 144.078 77.7195 144.13 78.486L144.19 81.6193C144.197 82.024 144.322 82.8509 144.093 83.1757L142.475 83.1801C142.337 82.9518 142.189 82.7263 142.1 82.4734L136.767 68.1324L136.748 83.061L136.553 83.1727C136.262 83.1768 135.979 83.2165 135.722 83.061C135.65 82.7737 135.525 82.4977 135.475 82.206C135.303 81.1925 135.455 79.912 135.458 78.8709L135.462 74.5939L135.387 64.6465Z" fill="currentColor"/>
<path d="M170.984 13.7008C171.558 13.6332 172.148 13.6765 172.724 13.6925C172.853 13.8927 172.99 14.0857 173.049 14.3195C173.148 14.7129 173.342 15.2203 173.526 15.5804C173.824 16.1654 173.983 16.8517 174.213 17.4663L175.844 21.6291C175.974 21.9578 176.045 22.3088 176.185 22.6338L178.4 28.1083C178.522 27.62 178.42 26.883 178.409 26.3696C178.394 25.5929 178.438 24.8173 178.391 24.0406L178.189 22.1328C178.078 20.4253 178.19 18.6698 178.135 16.9545C178.1 15.8591 177.888 14.818 177.875 13.7162C178.242 13.6826 178.721 13.6092 179.063 13.757C179.306 14.1689 179.199 15.3562 179.244 15.863C179.272 16.1767 179.382 16.469 179.399 16.7864L179.481 22.9451C179.506 23.6107 179.64 24.2589 179.675 24.9118L179.73 28.2304C179.755 29.5354 179.818 30.8624 179.76 32.1649L178.016 32.1771L174.37 22.3915L173.441 19.9365C173.117 19.0238 172.856 18.1379 172.378 17.2909L172.614 32.1897L171.302 32.1487L170.984 13.7008Z" fill="currentColor"/>
<path d="M187.093 64.6799L188.702 64.6783C188.924 64.9432 188.961 65.1354 189.082 65.4453C189.255 65.8876 189.5 66.2794 189.605 66.752C189.734 67.3299 190.068 67.985 190.289 68.5491L191.664 72.1376C192.294 73.7572 192.796 75.4653 193.531 77.041L194.441 79.2184L193.859 64.7114C194.251 64.6805 194.703 64.6154 195.075 64.7613C195.266 65.2981 195.177 65.9684 195.223 66.5341C195.26 66.9819 195.387 67.3911 195.399 67.8515L195.445 72.9568C195.462 73.6668 195.424 74.4953 195.592 75.1846C195.69 75.591 195.66 76.0344 195.671 76.4526L195.715 78.8622L195.751 83.1802C195.339 83.186 194.698 83.2726 194.312 83.1515C194.075 83.0771 193.991 82.9789 193.866 82.7619C193.603 82.3087 193.467 81.7172 193.288 81.2234L192.28 78.4637L190.272 73.0988C189.677 71.4933 189.193 69.824 188.392 68.3079C188.3 68.5568 188.384 69.0107 188.372 69.2936C188.27 71.7229 188.215 74.1697 188.334 76.6021C188.357 77.076 188.504 77.5235 188.517 77.9956L188.609 83.1907L187.285 83.1457C187.145 81.4139 187.254 79.5989 187.226 77.8566C187.214 77.0857 187.244 76.2389 187.068 75.4868C186.858 74.591 186.993 73.4037 186.996 72.479L186.98 67.3784L186.968 65.664C186.967 65.4616 186.912 65.0753 186.963 64.8895C186.984 64.8101 187.05 64.75 187.093 64.6799Z" fill="currentColor"/>
<path d="M147.315 13.7122C147.897 13.6218 148.489 13.6714 149.074 13.6962C149.126 13.7304 149.274 13.8038 149.305 13.8482C149.376 13.9507 149.411 14.2325 149.469 14.364C149.965 15.4997 150.319 16.6638 150.769 17.8136L151.882 20.5879C151.995 20.8785 152.057 21.3014 152.21 21.5512C152.542 22.09 152.747 22.9354 152.973 23.543L153.987 26.1006C154.204 26.6609 154.35 27.5217 154.84 27.9044C154.986 27.737 154.959 27.6824 154.958 27.4588C154.956 26.8696 154.756 26.3215 154.741 25.7516L154.728 21.1228C154.711 20.5093 154.702 19.8613 154.626 19.2534C154.595 18.9953 154.49 18.7678 154.479 18.5015L154.45 13.6905C154.832 13.6714 155.199 13.6279 155.568 13.7506C155.712 13.9185 155.722 14.0497 155.735 14.2673C155.82 15.6431 155.724 17.057 155.769 18.4414C155.8 19.3962 155.977 20.3265 155.99 21.2736L156.033 26.1034C156.048 26.7861 155.994 27.6154 156.176 28.2749C156.292 28.6976 156.266 29.1523 156.282 29.5893L156.326 32.1847L155.205 32.1643C155.054 32.1767 154.655 32.1734 154.54 32.0945C154.191 31.8552 153.867 30.6701 153.731 30.2794L152.491 26.8781L150.258 20.9207C150.038 20.3088 149.225 17.6972 148.861 17.4289C148.724 17.5894 148.709 17.6986 148.711 17.9148C148.713 18.266 148.865 18.6074 148.866 18.979L148.904 32.1582L147.609 32.1541C147.471 30.6244 147.578 28.9924 147.58 27.4525L147.547 18.8825C147.54 18.0322 147.558 17.1706 147.494 16.3233C147.468 15.9825 147.363 15.6878 147.323 15.3597C147.256 14.8226 147.271 14.2507 147.315 13.7122Z" fill="currentColor"/>
<path d="M153.313 39.0176C155.112 39.0168 156.769 39.1232 158.393 39.9914C158.701 40.156 159.018 40.3783 159.247 40.6468C159.9 41.4155 159.963 42.3362 159.844 43.2979C159.641 44.9351 157.898 46.044 156.432 46.3807C155.877 46.5081 154.916 46.4452 154.475 46.786C154.39 48.0025 154.37 49.1412 154.444 50.3596C155.641 50.3141 156.783 50.4288 157.785 51.1377C158.237 51.4578 158.55 52.0001 158.712 52.5279C158.744 52.6313 158.767 52.7275 158.818 52.8232C158.973 53.1146 158.976 53.4135 159.105 53.7049C159.243 54.0165 159.244 54.2762 159.324 54.5969C159.571 55.5881 159.691 56.5225 159.65 57.5443L158.378 57.5496C158.208 57.5493 158.038 57.5655 157.885 57.4792C157.791 57.4263 157.818 57.4346 157.809 57.326C157.762 56.7359 157.797 56.1401 157.726 55.5534C157.635 54.7946 157.42 54.1441 157.18 53.4309L157.05 53.0868C156.622 52.1882 156.049 52.0779 155.209 51.7627C154.93 51.7776 154.697 51.8609 154.497 52.0649C153.866 52.7093 154.091 56.4693 154.136 57.5496L152.534 57.5234C152.458 56.9945 152.5 56.4067 152.5 55.8713L152.527 52.4471L152.522 49.8683C152.522 49.4588 152.473 48.9038 152.579 48.5134C152.598 48.4433 152.702 48.3229 152.744 48.2567C152.671 47.3584 152.786 46.4005 152.793 45.4926L152.803 41.3731C152.797 40.6747 152.644 39.7651 152.857 39.1069L153.313 39.0176ZM154.735 40.4348C154.661 41.2222 154.638 41.9929 154.641 42.7831C154.643 43.2946 154.717 43.9213 154.574 44.4107C154.522 44.5888 154.518 44.7958 154.503 44.9809C154.705 45.1579 154.831 45.1595 155.095 45.1405C155.415 45.1173 155.763 44.9875 156.068 44.8888C156.441 44.768 156.812 44.4961 157.148 44.2929C157.479 44.0175 157.662 43.7997 157.87 43.4252L157.925 43.3329C158.154 42.9179 158.077 42.1638 158.012 41.705C157.441 41.0419 156.963 40.507 156.041 40.4397L154.735 40.4348Z" fill="currentColor"/>
<path d="M125.956 17.9526L126.06 17.9854L126.026 14.6437C126.034 14.3169 125.989 13.771 126.233 13.5243C126.391 13.3643 126.689 13.3555 126.903 13.3632C128.304 13.4134 130.148 13.6927 131.385 14.3506C132.02 14.6886 132.568 15.0774 132.853 15.7623L132.918 15.8919L133.011 16.0832C133.249 16.5889 133.222 17.708 133.024 18.2222L132.974 18.3452C132.511 19.5217 131.827 20.0478 130.681 20.5703C129.775 20.983 128.727 21.1245 127.742 21.1882L127.7 24.9818C128.914 24.9449 130.231 24.8467 131.187 25.7511C131.685 26.2217 131.824 26.6761 132.103 27.2783C132.27 27.6384 132.253 28.0663 132.427 28.3914C132.565 28.6503 132.557 28.999 132.614 29.2866C132.809 30.2616 132.98 31.1428 132.937 32.1505C132.496 32.3085 131.583 32.1811 131.092 32.1894C130.956 30.4256 131.115 28.0128 129.619 26.7544C129.512 26.6645 129.25 26.4191 129.126 26.3841C128.795 26.2901 128.029 26.3626 127.676 26.3946C127.436 27.305 127.457 28.1694 127.457 29.1033L127.478 32.2173L125.725 32.2255L125.703 28.1973L125.956 17.9526ZM127.992 14.7906C127.853 16.1083 127.965 17.4114 127.916 18.729C127.905 19.0541 127.758 19.308 127.816 19.6389C128.127 19.7781 128.563 19.5634 128.911 19.5068C129.432 19.4216 129.816 19.2016 130.24 18.8991C130.627 18.5694 131.064 18.2071 131.314 17.7593C131.322 16.9956 131.404 16.2103 130.818 15.6156C130.217 15.0049 128.993 14.7986 128.173 14.7917L128.06 14.7898L127.992 14.7906Z" fill="currentColor"/>
<path d="M146.288 83.1791L146.215 82.9974C146.063 82.4049 146.137 74.8306 146.316 74.5276C146.379 74.4206 146.386 74.446 146.391 74.3332L146.43 64.7914L147.292 64.4944C148.256 64.2515 150.133 64.2328 150.996 64.7241C151.791 65.1771 152.523 66.0324 152.874 66.8791C152.915 66.9776 152.953 67.0683 153.005 67.1617C153.17 67.459 153.181 67.7424 153.313 68.0382C153.462 68.3688 153.439 68.574 153.511 68.9073C153.571 69.1819 153.693 69.4422 153.746 69.7196C153.855 70.2925 153.808 70.9567 153.872 71.5479C153.907 71.8705 154.013 72.1779 154.053 72.4989C154.133 73.1432 154.096 73.8438 154.094 74.4923C154.093 74.7887 154.132 75.1667 154.04 75.4496C153.702 76.483 153.986 77.6482 153.68 78.675C153.355 79.7666 153.13 80.7443 152.375 81.6428C151.595 82.5712 150.958 82.8257 149.784 82.9531C148.611 83.1918 147.479 83.1827 146.288 83.1791ZM148.401 65.5568C148.2 67.2668 148.353 68.9983 148.287 70.716C148.27 71.1605 148.143 71.589 148.118 72.0442L148.035 77.7654C148.035 79.0268 147.965 80.3563 148.131 81.6062L148.261 81.7269L148.586 81.6288C148.914 81.5097 149.247 81.5397 149.586 81.4791C150.146 81.3784 150.577 81.0236 150.931 80.6031C152.076 78.8184 152.235 76.6267 152.255 74.5538C152.271 72.7743 152.17 71.1415 151.79 69.3959C151.526 68.1825 151.103 66.5152 149.985 65.7751C149.511 65.4608 148.943 65.5386 148.401 65.5568ZM146.288 83.1791C147.479 83.1827 148.611 83.1918 149.784 82.9531C149.473 82.9263 149.313 82.8816 149.03 82.7896L148.816 82.7752L148.74 82.7504C148.208 82.6048 147.268 82.837 146.7 82.8651L146.648 83.0385L146.288 83.1791Z" fill="currentColor"/>
<path d="M146.289 83.1795L146.65 83.0389L146.701 82.8654C147.27 82.8373 148.209 82.6051 148.741 82.7507L148.818 82.7755L149.032 82.7899C149.314 82.882 149.474 82.9266 149.785 82.9534C148.612 83.1922 147.48 83.1831 146.289 83.1795Z" fill="currentColor"/>
<path d="M117.954 64.6675C118.803 64.6485 119.886 64.5269 120.645 64.9479L120.705 64.9821L120.917 65.1059C121.416 65.4486 121.996 66.1294 122.103 66.7387C122.121 66.8413 122.133 66.9017 122.178 66.999C122.438 67.564 122.514 68.4573 122.607 69.0917C122.839 70.6686 122.718 72.4042 122.724 73.9995L122.698 76.9831C122.694 77.6614 122.73 78.3807 122.63 79.0521C122.472 80.1247 122.255 81.3249 121.586 82.2077L121.522 82.2904C120.993 82.9786 120.288 83.141 119.487 83.3423C118.854 83.545 117.894 83.328 117.288 83.0881C116.596 82.8146 115.939 82.1733 115.66 81.4779C115.386 80.7938 115.194 79.9408 115.097 79.2109C115.007 78.5291 115.073 77.8229 115.029 77.1359C114.993 76.5571 114.854 76.0046 114.803 75.4393C114.722 74.5275 114.737 73.5686 114.761 72.654C114.77 72.3306 114.738 71.852 114.865 71.5561C115.003 71.233 114.977 70.8045 114.995 70.4557C115.083 68.8245 115.053 67.1468 116.155 65.8049L116.219 65.7274C116.683 65.166 117.229 64.7789 117.954 64.6675ZM118.853 66.4685C118.225 66.5953 117.862 66.6568 117.501 67.2408C117.246 67.6527 117.133 68.1388 117.006 68.5987C116.841 69.1921 116.875 69.824 116.84 70.4339C116.814 70.8731 116.676 71.3154 116.657 71.7723C116.601 73.1553 116.586 74.6643 116.667 76.0479C116.691 76.4672 116.816 76.872 116.845 77.2878C116.895 77.9964 116.815 78.7392 117.074 79.4105C117.117 79.5228 117.118 79.6052 117.133 79.7224C117.194 80.1828 117.612 80.8884 118.001 81.1567C118.263 81.337 118.605 81.4884 118.912 81.5733C119.613 81.2912 120.036 81.0996 120.374 80.3665L120.424 80.2611C120.617 79.8376 120.751 79.3408 120.801 78.8798C120.969 77.3402 120.834 75.6781 120.828 74.1275C120.822 72.6234 120.934 71.0493 120.797 69.5527C120.748 69.0076 120.585 68.218 120.382 67.7093L120.272 67.4964L120.236 67.4239C120.007 66.9684 119.625 66.6588 119.144 66.5027C119.014 66.4608 118.987 66.4404 118.853 66.4685Z" fill="currentColor"/>
<path d="M179.767 64.4078C180.681 64.3618 181.521 64.3618 182.376 64.7183C182.983 64.972 183.524 65.4509 183.767 66.0713L183.939 66.4598C184.075 66.7322 184.038 66.9734 184.128 67.24C184.198 67.4474 184.302 67.6175 184.339 67.8386C184.458 68.5624 184.411 69.3587 184.453 70.0949C184.477 70.5192 184.632 70.903 184.668 71.3168C184.738 72.1024 184.824 76.5674 184.628 77.1117C184.305 78.0077 184.604 79.1506 184.279 79.9976C184.147 80.3431 184.137 80.7126 183.973 81.0465C183.388 82.2365 182.826 82.7193 181.568 83.1326C181.156 83.2117 180.643 83.2122 180.229 83.1582C179.423 83.0526 178.512 82.7504 178.014 82.0683C177.655 81.5758 177.375 81.0233 177.224 80.4316C176.614 78.0452 176.766 75.5023 176.768 73.0586C176.769 71.6549 176.684 70.228 176.909 68.8428C177.062 67.9004 177.155 67.0181 177.616 66.1584C178.153 65.1564 178.691 64.7779 179.767 64.4078ZM180.056 66.3332C179.094 67.1389 178.748 68.2167 178.648 69.4491C178.519 71.0265 178.619 72.6781 178.625 74.2602L178.628 76.8208C178.631 77.4125 178.599 78.0293 178.797 78.5917C178.918 78.9342 178.841 79.2292 179.02 79.5774C179.377 80.2703 179.513 80.9585 180.37 81.2282C180.661 81.32 180.903 81.3084 181.189 81.202C181.865 80.8838 181.97 80.6503 182.302 80.0073C182.597 79.4382 182.538 78.8046 182.619 78.1859C182.815 76.6961 182.842 75.2759 182.841 73.7735C182.84 72.2802 182.816 70.8611 182.587 69.3807C182.49 68.7609 182.457 68.1822 182.266 67.5728C182.096 67.0333 181.648 66.6062 181.163 66.3368L180.056 66.3332Z" fill="currentColor"/>
<path d="M181.676 49.4746L207.978 50.8924L207.983 50.9574C207.982 51.2715 207.841 51.6434 207.763 51.9525L207.257 53.9609C207.12 54.5178 207.039 55.2565 206.819 55.7809C206.775 55.8876 206.714 55.9433 206.634 56.0238C206.76 56.35 206.523 56.9425 206.437 57.2825C206.341 57.2791 206.248 57.2736 206.153 57.2538C205.208 57.0583 204.292 57.1112 203.335 57.0757L194.597 56.9742L182.249 56.7318C182.291 55.9085 182.143 55.101 182.077 54.2845L181.676 49.4746Z" fill="currentColor"/>
<path d="M187.043 38.0898L212.862 39.3207C213.087 39.3557 213.136 39.4389 213.258 39.619C213.102 40.7489 212.753 41.8634 212.474 42.9693C212.354 43.4471 212.285 44.2111 211.969 44.5811C212.056 44.9682 211.924 45.3457 211.835 45.724L187.501 45.169C187.543 43.9409 187.411 42.7481 187.313 41.5278L187.043 38.0898Z" fill="currentColor"/>
<path d="M109.19 39.1644C106.245 39.1743 103.272 38.4933 100.538 37.4282C97.1815 36.121 93.9682 33.9692 91.7791 31.0684C90.8917 29.8927 90.1705 28.5312 89.581 27.1835C88.8531 25.5195 88.4678 23.6747 88.2439 21.8786C88.1418 21.0592 87.9937 20.224 87.9659 19.3991C87.8879 17.0875 88.3277 14.5004 89.1767 12.3503C90.679 8.54556 93.6788 5.13049 97.4883 3.50851C98.823 2.94028 100.327 2.50905 101.769 2.34155C102.91 2.20904 104.144 2.24684 105.293 2.25669C108.496 2.28415 111.692 2.69643 114.685 3.90795C119.282 5.76903 122.724 8.86272 124.673 13.4675L124.667 13.5456C125.282 14.9834 125.686 16.4144 125.956 17.9518L125.703 28.1965C125.376 29.0749 125.122 30.1125 124.504 30.8274L124.463 32.0946C124.233 32.2317 124.038 32.2044 123.778 32.2129C123.258 33.026 122.656 33.9224 121.985 34.6172C121.593 35.0244 121.087 35.3732 120.641 35.7223C119 37.0055 117.001 38.1789 114.941 38.622L113.515 38.9016C112.805 38.3626 112.076 38.1078 111.176 38.2316C110.554 38.3171 109.63 38.7061 109.19 39.1644ZM108.131 30.9719C108.738 31.5967 109.249 32.1103 110.137 32.294C111.206 32.5151 112.539 32.418 113.456 31.7778C114.579 30.994 114.757 29.4587 114.968 28.2152C115.788 27.1209 116.43 26.0456 117.111 24.8644L117.113 24.8346C117.424 22.8514 117.265 20.687 117.274 18.6739C116.686 17.0513 116.134 15.7105 115.032 14.3581C114.985 14.0716 115.051 13.7261 114.893 13.4863C114.595 13.4791 114.336 13.4634 114.045 13.3859L113.974 13.3663C112.555 12.4303 110.967 11.6378 109.276 11.3685C108.628 11.2653 107.96 11.2662 107.32 11.1487C106.756 11.0453 106.228 11.1484 105.668 11.2094C103.743 11.4186 101.645 11.929 100.037 13.0763C98.6077 14.0962 97.6071 15.796 97.3351 17.5198C97.2033 18.3544 97.2022 19.189 97.2058 20.0313C97.2165 22.6609 97.66 25.3676 99.2587 27.5323C100.58 29.3217 103.095 30.3085 105.237 30.6113C106.157 30.7411 107.295 30.5597 108.131 30.9719Z" fill="#FECD2E"/>
<path d="M124.675 13.4682L124.668 13.5462C125.283 14.9841 125.688 16.415 125.958 17.9525L125.705 28.1971C125.377 29.0756 125.123 30.1131 124.506 30.828L124.464 32.0953C124.235 32.2323 124.04 32.205 123.779 32.2135L122.659 32.2191L122.454 29.5738C122.304 28.5773 121.928 27.314 121.053 26.7049C120.41 26.2569 119.795 26.3302 119.077 26.4736L118.91 32.218L116.902 32.2174C117.037 31.4407 116.964 30.6204 116.99 29.8335L117.113 24.865L117.115 24.8353C117.425 22.852 117.266 20.6876 117.275 18.6746L117.469 13.4693L119.481 13.4745C119.374 14.2465 119.417 15.0472 119.397 15.8261L119.25 19.7328C119.886 19.5643 120.432 19.3435 120.932 18.9043C122.443 17.5756 122.596 15.3386 122.715 13.4648L124.675 13.4682Z" fill="currentColor"/>
<path d="M124.667 13.5449C125.282 14.9828 125.687 16.4138 125.957 17.9512L125.704 28.1959C125.376 29.0743 125.122 30.1118 124.505 30.8268C124.38 30.5111 124.381 30.0228 124.317 29.6795C124.052 28.251 123.678 26.5597 122.513 25.6002C121.518 24.7802 120.259 24.8616 119.059 24.995L119.157 22.4504C119.167 22.0636 119.121 21.5888 119.212 21.2179L120.017 21.0564C122.618 20.3461 123.895 17.6366 124.376 15.1907C124.474 14.6947 124.42 13.972 124.667 13.5449Z" fill="#FECD2E"/>
<path d="M113.974 13.3672L114.045 13.3868C114.336 13.4642 114.594 13.48 114.893 13.4871C115.051 13.727 114.984 14.0725 115.031 14.359C116.134 15.7114 116.686 17.0522 117.273 18.6748C117.264 20.6878 117.424 22.8522 117.113 24.8355L117.111 24.8653C116.43 26.0465 115.788 27.1218 114.968 28.2161C114.757 29.4596 114.579 30.9948 113.456 31.7787C112.539 32.4189 111.206 32.516 110.136 32.2948C109.248 32.1112 108.738 31.5975 108.131 30.9727C107.83 30.273 107.52 29.6537 107.396 28.8894C107.153 27.3895 107.323 25.6199 107.324 24.0944L107.311 13.4447C107.951 13.346 108.478 13.3691 109.119 13.4753C109.324 14.724 109.183 16.131 109.183 17.4035L109.18 25.4087C109.177 26.3158 109.006 27.7556 109.301 28.5985C109.347 28.7311 109.384 28.821 109.394 28.963C109.447 29.6633 109.799 30.0328 110.251 30.5426C110.892 30.7318 112.12 30.099 112.732 29.8313C112.837 29.3595 112.988 28.8698 113.043 28.3915C113.269 26.436 113.11 24.302 113.11 22.3267V13.5097C113.358 13.486 113.633 13.4786 113.871 13.4025L113.974 13.3672ZM115.031 14.359L114.968 28.2161C115.788 27.1218 116.43 26.0465 117.111 24.8653L117.113 24.8355C117.424 22.8522 117.264 20.6878 117.273 18.6748C116.686 17.0522 116.134 15.7114 115.031 14.359Z" fill="currentColor"/>
</g>
<defs>
<linearGradient id="paint0_linear_1766_4496" x1="160.429" y1="23.0615" x2="158.562" y2="23.0786" gradientUnits="userSpaceOnUse">
<stop stop-opacity="0.960784"/>
<stop offset="1"/>
</linearGradient>
<clipPath id="clip0_1766_4496">
<rect width="300" height="87" fill="white"/>
</clipPath>
</defs>
</svg>
