<svg width="1714" height="397" viewBox="0 0 1714 397" fill="none" xmlns="http://www.w3.org/2000/svg">
<path d="M284.456 32.1313L243.613 9.13274C222.709 -2.87347 196.605 -3.08691 175.299 8.75921L74.263 66.8159C28.4617 93.1495 0 142.215 0 194.855V318.786C0 327.964 7.47722 335.408 16.6965 335.408C25.9157 335.408 33.3929 327.964 33.3929 318.786V194.855C33.3929 154.034 55.4494 115.988 90.9595 95.6041L191.808 37.6542C202.689 31.6244 216.143 31.7044 227.05 37.9743L267.894 60.9729C278.855 67.2695 285.689 79.0355 285.689 91.6554V252.459C285.689 265.078 278.882 276.818 267.894 283.141L128.158 363.449V312.196C128.158 299.309 135.126 287.25 146.302 280.74L211.104 243.094C219.064 238.478 221.771 228.286 217.107 220.362C212.471 212.438 202.233 209.77 194.274 214.386L129.444 252.032C128.989 252.298 128.56 252.592 128.131 252.859V200.859C128.131 188.185 134.965 176.339 145.98 169.936L226.97 122.898C234.93 118.283 237.61 108.091 232.973 100.166C228.337 92.2424 218.099 89.5743 210.139 94.1901L129.15 141.254C107.924 153.581 94.7651 176.419 94.7651 200.885V363.769C94.7651 375.722 100.983 386.421 111.381 392.424C116.58 395.412 122.289 396.907 127.997 396.907C133.706 396.907 139.414 395.412 144.613 392.424L284.59 311.956C305.869 299.736 319.082 276.951 319.082 252.485V91.6821C319.082 67.2428 305.869 44.431 284.483 32.158" fill="currentColor"/>
<path d="M658.053 114.173C693.232 114.173 724.875 136.848 733.838 170.053H700.579C693.232 153.131 676.283 142.266 656.467 142.266C626.074 142.266 604.338 166.218 604.338 197.171C604.338 228.124 626.074 252.077 656.467 252.077C676.283 252.077 693.232 241.212 700.579 224.29H733.838C724.875 257.495 693.232 280.169 658.053 280.169C610.07 280.169 573 244.103 573 197.171C573 150.24 610.1 114.143 658.053 114.143" fill="currentColor"/>
<path d="M560.014 209.62H428.642C433.132 234.516 454.269 252.077 479.254 252.077C501.674 252.077 515.45 243.129 523.483 229.403H554.883C544.62 259.077 514.503 280.169 479.254 280.169C431.513 280.169 396.906 245.047 396.906 197.141C396.906 149.235 431.513 114.143 478.918 114.143C531.455 114.143 564.138 151.488 559.984 209.62M428.948 183.11H527.301C524.735 157.24 504.545 140.987 478.277 140.987C452.009 140.987 433.102 158.549 428.948 183.11Z" fill="currentColor"/>
<path d="M741.93 197.156C741.93 150.233 779.406 114.143 827.845 114.143C876.284 114.143 913.144 150.203 913.144 197.156C913.144 244.11 876.007 280.169 827.845 280.169C779.683 280.169 741.93 244.11 741.93 197.156ZM881.488 197.156C881.488 166.178 858.239 142.26 827.845 142.26C797.451 142.26 773.586 166.209 773.586 197.156C773.586 228.104 797.174 252.052 827.845 252.052C858.516 252.052 881.488 228.104 881.488 197.156Z" fill="currentColor"/>
<path d="M1190.69 277.575H1160.07V160.159L1112.29 263.807C1108.42 272.178 1100.04 277.575 1090.8 277.575C1081.56 277.575 1073.2 272.24 1069.33 263.899L1021.58 161.14V277.575H990.97V116.737H1032.85L1091.51 245.714L1149.48 116.737H1190.72V277.575H1190.69Z" fill="currentColor"/>
<path d="M1260.76 116.737H1229.63V277.575H1260.76V116.737Z" fill="currentColor"/>
<path d="M1541.27 145.948H1491.13V277.838H1460.14V145.948H1410V117H1541.27V145.948Z" fill="currentColor"/>
<path d="M1545 197.013C1545 150.09 1581.91 114 1629.64 114C1677.38 114 1713.62 150.06 1713.62 197.013C1713.62 243.967 1677.05 280.026 1629.64 280.026C1582.24 280.026 1545 243.967 1545 197.013ZM1682.44 197.013C1682.44 166.035 1659.55 142.117 1629.64 142.117C1599.74 142.117 1576.21 166.066 1576.21 197.013C1576.21 227.96 1599.44 251.909 1629.64 251.909C1659.85 251.909 1682.44 227.96 1682.44 197.013Z" fill="currentColor"/>
<path d="M1343.88 114C1356.66 114 1367.29 116.479 1375.72 121.504L1376.52 121.977C1384.68 126.907 1391.47 133.376 1396.87 141.375L1397.42 142.195L1374.1 157.759L1373.54 157.037C1369.19 151.457 1364.43 147.585 1359.28 145.361L1359.24 145.348C1354.19 142.953 1348.91 141.758 1343.42 141.758C1335.44 141.758 1329.51 143.351 1325.47 146.395L1325.45 146.409C1321.48 149.267 1319.46 153.476 1319.46 159.196C1319.46 163.955 1321.37 168.072 1325.31 171.589L1325.69 171.916C1329.59 175.19 1336.9 178.242 1347.81 180.994L1348.91 181.269L1348.92 181.27L1351.3 181.883C1363.06 184.991 1372.51 188.655 1379.62 192.892C1387.21 197.258 1392.62 202.677 1395.78 209.171L1396.08 209.766C1399.17 215.953 1400.7 223.286 1400.7 231.731C1400.7 240.378 1398.58 248.171 1394.32 255.084L1393.91 255.749C1389.38 262.819 1382.98 268.458 1374.76 272.674L1374.76 272.673C1366.66 276.904 1357.04 279 1345.93 279C1337.45 279 1329.33 277.757 1321.6 275.268L1321.59 275.262C1313.83 272.609 1306.78 268.473 1300.43 262.864L1300.42 262.855C1294.05 257.071 1288.71 249.511 1284.4 240.205L1284.02 239.402L1307.16 225.534L1307.66 226.412C1312.64 235.222 1318.26 241.608 1324.5 245.643L1325.08 246.015C1331.19 249.793 1338.51 251.703 1347.08 251.703C1355.34 251.703 1361.41 249.885 1365.43 246.415L1365.44 246.409L1365.44 246.404C1369.61 242.931 1371.73 238.157 1371.73 231.962C1371.73 228.303 1370.78 225.209 1368.94 222.634L1368.9 222.583C1367.21 219.883 1364.03 217.298 1359.22 214.88L1359.19 214.861C1354.57 212.313 1347.88 209.958 1339.07 207.817L1339.06 207.815C1326.8 204.731 1317.15 200.937 1310.16 196.404L1310.15 196.4L1310.14 196.396C1303.16 191.715 1298.22 186.29 1295.38 180.101L1295.38 180.092C1292.57 173.816 1291.17 167 1291.17 159.657C1291.17 150.596 1293.27 142.657 1297.5 135.878C1301.73 129.104 1307.82 123.769 1315.75 119.859L1316.5 119.497C1324.28 115.821 1333.42 114 1343.88 114ZM1342.83 277.958C1343.13 277.969 1343.42 277.976 1343.71 277.983C1343.42 277.976 1343.13 277.969 1342.83 277.958ZM1341.39 277.893C1341.71 277.91 1342.03 277.923 1342.35 277.937C1342.03 277.923 1341.71 277.91 1341.39 277.893ZM1339.88 277.797C1340.1 277.813 1340.32 277.826 1340.54 277.84C1340.32 277.826 1340.1 277.813 1339.88 277.797ZM1338.36 277.672C1338.63 277.696 1338.9 277.717 1339.16 277.739C1338.9 277.717 1338.63 277.696 1338.36 277.672ZM1353.89 277.627C1353.6 277.656 1353.31 277.684 1353.02 277.71C1353.63 277.655 1354.24 277.594 1354.84 277.524L1353.89 277.627ZM1336.94 277.527C1337.17 277.552 1337.4 277.575 1337.63 277.599C1337.4 277.575 1337.17 277.552 1336.94 277.527ZM1335.43 277.346C1335.67 277.376 1335.9 277.405 1336.14 277.434C1335.9 277.405 1335.67 277.376 1335.43 277.346ZM1333.96 277.142C1334.22 277.179 1334.47 277.216 1334.73 277.251C1334.47 277.216 1334.22 277.179 1333.96 277.142ZM1332.56 276.92C1332.79 276.957 1333.01 276.994 1333.23 277.029C1333.01 276.994 1332.79 276.957 1332.56 276.92ZM1331.12 276.663C1331.33 276.702 1331.54 276.741 1331.75 276.778C1331.54 276.741 1331.33 276.702 1331.12 276.663ZM1360.38 276.649C1360.16 276.693 1359.95 276.734 1359.74 276.775C1360.25 276.676 1360.76 276.573 1361.27 276.462L1360.38 276.649ZM1329.59 276.36C1329.85 276.414 1330.11 276.467 1330.36 276.519C1330.11 276.467 1329.85 276.414 1329.59 276.36ZM1328.64 276.157C1328.69 276.169 1328.75 276.181 1328.8 276.193C1328.75 276.181 1328.69 276.169 1328.64 276.157ZM1327.22 275.829C1327.3 275.848 1327.38 275.867 1327.46 275.886C1327.38 275.867 1327.3 275.848 1327.22 275.829ZM1364.74 275.587C1364.46 275.668 1364.17 275.747 1363.89 275.824C1364.46 275.67 1365.03 275.509 1365.59 275.339L1364.74 275.587ZM1325.93 275.504C1325.95 275.509 1325.97 275.513 1325.99 275.519C1325.97 275.513 1325.95 275.509 1325.93 275.504ZM1324.53 275.124C1324.57 275.134 1324.6 275.144 1324.64 275.154C1324.6 275.144 1324.57 275.134 1324.53 275.124ZM1367.96 274.559C1367.54 274.706 1367.12 274.848 1366.7 274.986C1367.12 274.848 1367.54 274.706 1367.96 274.559ZM1323.13 274.712C1323.19 274.732 1323.26 274.752 1323.32 274.771C1323.26 274.752 1323.19 274.732 1323.13 274.712ZM1369.69 273.911C1369.44 274.008 1369.2 274.104 1368.95 274.197C1369.47 274.002 1369.98 273.8 1370.48 273.59L1369.69 273.911ZM1318.79 273.169C1318.95 273.234 1319.11 273.298 1319.27 273.361C1319.11 273.298 1318.95 273.234 1318.79 273.169ZM1309.68 268.544C1311.67 269.774 1313.71 270.881 1315.81 271.867C1313.48 270.775 1311.23 269.533 1309.04 268.141L1309.68 268.544ZM1376.52 270.607C1376.11 270.841 1375.69 271.07 1375.27 271.295C1375.69 271.07 1376.11 270.841 1376.52 270.607ZM1376.75 270.477C1376.9 270.387 1377.06 270.298 1377.21 270.207C1377.06 270.298 1376.9 270.387 1376.75 270.477ZM1377.67 269.932C1377.74 269.89 1377.81 269.849 1377.88 269.808C1377.81 269.849 1377.74 269.89 1377.67 269.932ZM1378.33 269.53C1378.42 269.476 1378.5 269.423 1378.59 269.368C1378.5 269.423 1378.42 269.476 1378.33 269.53ZM1378.94 269.146C1379.05 269.074 1379.17 269.001 1379.28 268.928C1379.17 269.001 1379.05 269.074 1378.94 269.146ZM1379.57 268.739C1379.71 268.648 1379.84 268.557 1379.98 268.465C1379.84 268.557 1379.71 268.648 1379.57 268.739ZM1380.17 268.338C1380.32 268.233 1380.48 268.129 1380.63 268.022C1380.48 268.129 1380.32 268.233 1380.17 268.338ZM1380.91 267.822C1381.03 267.741 1381.14 267.66 1381.26 267.578C1381.14 267.66 1381.03 267.741 1380.91 267.822ZM1381.6 267.331C1381.7 267.255 1381.81 267.179 1381.91 267.103C1381.81 267.179 1381.7 267.255 1381.6 267.331ZM1293.95 254.331C1296.16 257.221 1298.54 259.82 1301.08 262.128C1303.23 264.028 1305.46 265.755 1307.77 267.31L1307.15 266.881C1305.06 265.439 1303.03 263.854 1301.08 262.127C1298.34 259.642 1295.8 256.819 1293.44 253.658L1293.95 254.331ZM1382.2 266.881C1382.31 266.802 1382.41 266.722 1382.52 266.643C1382.41 266.722 1382.31 266.802 1382.2 266.881ZM1382.78 266.439C1382.9 266.342 1383.03 266.245 1383.15 266.146C1383.03 266.245 1382.9 266.342 1382.78 266.439ZM1383.46 265.902C1383.54 265.834 1383.63 265.765 1383.71 265.696C1383.63 265.765 1383.54 265.834 1383.46 265.902ZM1384.04 265.428C1384.14 265.344 1384.24 265.26 1384.34 265.176C1384.24 265.26 1384.14 265.344 1384.04 265.428ZM1384.62 264.936C1384.73 264.842 1384.84 264.747 1384.94 264.652C1384.84 264.747 1384.73 264.842 1384.62 264.936ZM1385.23 264.403C1385.33 264.313 1385.43 264.223 1385.53 264.132C1385.43 264.223 1385.33 264.313 1385.23 264.403ZM1385.79 263.893C1385.88 263.81 1385.97 263.727 1386.06 263.644C1385.97 263.727 1385.88 263.81 1385.79 263.893ZM1386.33 263.385C1386.44 263.28 1386.55 263.175 1386.66 263.069C1386.55 263.175 1386.44 263.28 1386.33 263.385ZM1386.85 262.887C1386.97 262.768 1387.09 262.649 1387.21 262.529C1387.09 262.649 1386.97 262.768 1386.85 262.887ZM1387.39 262.34C1387.52 262.213 1387.64 262.086 1387.76 261.958C1387.64 262.086 1387.52 262.213 1387.39 262.34ZM1387.93 261.78C1388.03 261.68 1388.12 261.578 1388.22 261.477C1388.12 261.578 1388.03 261.68 1387.93 261.78ZM1388.48 261.196C1388.55 261.118 1388.62 261.038 1388.69 260.959C1388.62 261.038 1388.55 261.118 1388.48 261.196ZM1388.99 260.635C1389.05 260.564 1389.11 260.492 1389.17 260.421C1389.11 260.492 1389.05 260.564 1388.99 260.635ZM1390.43 258.919C1390.52 258.804 1390.61 258.687 1390.7 258.571C1390.61 258.687 1390.52 258.804 1390.43 258.919ZM1390.9 258.317C1391 258.191 1391.09 258.062 1391.19 257.935C1391.09 258.062 1391 258.191 1390.9 258.317ZM1391.79 257.115C1391.86 257.019 1391.93 256.922 1392 256.825C1391.93 256.922 1391.86 257.019 1391.79 257.115ZM1393.68 254.249C1393.74 254.146 1393.8 254.043 1393.87 253.939C1393.8 254.043 1393.74 254.146 1393.68 254.249ZM1289.72 248.128C1290.75 249.821 1291.82 251.437 1292.94 252.976L1292.44 252.283C1291.5 250.954 1290.59 249.569 1289.72 248.128ZM1394.49 252.846C1394.53 252.766 1394.58 252.686 1394.62 252.605C1394.58 252.686 1394.53 252.766 1394.49 252.846ZM1344.79 252.639C1345.23 252.657 1345.67 252.669 1346.12 252.677C1345.67 252.669 1345.23 252.657 1344.79 252.639ZM1394.81 252.247C1394.87 252.148 1394.92 252.05 1394.97 251.951C1394.92 252.05 1394.87 252.148 1394.81 252.247ZM1395.13 251.628C1395.19 251.52 1395.24 251.413 1395.3 251.305C1395.24 251.413 1395.19 251.52 1395.13 251.628ZM1395.54 250.814C1395.57 250.746 1395.6 250.678 1395.64 250.609C1395.6 250.678 1395.57 250.746 1395.54 250.814ZM1395.78 250.299C1395.84 250.178 1395.89 250.058 1395.95 249.937C1395.89 250.058 1395.84 250.178 1395.78 250.299ZM1396.06 249.675C1396.13 249.533 1396.19 249.39 1396.25 249.247C1396.19 249.39 1396.13 249.533 1396.06 249.675ZM1396.4 248.892C1396.45 248.785 1396.49 248.678 1396.54 248.571C1396.49 248.678 1396.45 248.785 1396.4 248.892ZM1365.26 247.819C1365.06 247.97 1364.86 248.116 1364.66 248.26C1364.86 248.119 1365.06 247.977 1365.25 247.829L1365.26 247.819ZM1396.69 248.191C1396.74 248.071 1396.79 247.95 1396.83 247.829C1396.79 247.95 1396.74 248.071 1396.69 248.191ZM1396.94 247.536C1396.99 247.406 1397.04 247.275 1397.09 247.144C1397.04 247.275 1396.99 247.406 1396.94 247.536ZM1288.68 246.368C1288.87 246.698 1289.06 247.024 1289.25 247.348C1288.91 246.768 1288.57 246.18 1288.23 245.582L1288.68 246.368ZM1397.21 246.811C1397.25 246.699 1397.29 246.587 1397.33 246.476C1397.29 246.587 1397.25 246.699 1397.21 246.811ZM1397.46 246.075C1397.5 245.971 1397.54 245.866 1397.57 245.761C1397.54 245.866 1397.5 245.971 1397.46 246.075ZM1322.77 245.664C1322.9 245.757 1323.04 245.848 1323.17 245.939C1322.84 245.712 1322.51 245.48 1322.18 245.24L1322.77 245.664ZM1397.7 245.355C1397.72 245.282 1397.74 245.209 1397.77 245.136C1397.74 245.209 1397.72 245.282 1397.7 245.355ZM1397.92 244.631C1397.95 244.525 1397.98 244.419 1398.01 244.312C1397.98 244.419 1397.95 244.525 1397.92 244.631ZM1320.43 243.887C1320.62 244.044 1320.82 244.199 1321.01 244.352L1320.43 243.886C1320.24 243.728 1320.05 243.569 1319.86 243.407L1320.43 243.887ZM1285.29 239.791C1285.99 241.297 1286.71 242.755 1287.46 244.166C1286.71 242.755 1285.99 241.297 1285.29 239.791L1306.8 226.896L1285.29 239.791ZM1398.11 243.977C1398.14 243.873 1398.16 243.77 1398.19 243.667C1398.16 243.77 1398.14 243.873 1398.11 243.977ZM1398.31 243.208C1398.34 243.11 1398.36 243.012 1398.39 242.914C1398.36 243.012 1398.34 243.11 1398.31 243.208ZM1318.72 242.407C1318.81 242.492 1318.91 242.574 1319 242.657C1318.72 242.405 1318.44 242.149 1318.16 241.886L1318.72 242.407ZM1398.5 242.432C1398.53 242.346 1398.54 242.26 1398.56 242.175C1398.54 242.26 1398.53 242.346 1398.5 242.432ZM1398.67 241.73C1398.69 241.604 1398.72 241.477 1398.75 241.351C1398.72 241.477 1398.69 241.604 1398.67 241.73ZM1398.8 241.062C1398.83 240.925 1398.86 240.787 1398.89 240.649C1398.86 240.787 1398.83 240.925 1398.8 241.062ZM1398.96 240.241C1398.98 240.129 1399 240.017 1399.02 239.905C1399 240.017 1398.98 240.129 1398.96 240.241ZM1399.08 239.555C1399.11 239.415 1399.13 239.276 1399.15 239.136C1399.13 239.276 1399.11 239.415 1399.08 239.555ZM1399.31 238.036C1399.32 237.935 1399.34 237.833 1399.35 237.731C1399.34 237.833 1399.32 237.935 1399.31 238.036ZM1399.49 236.468C1399.5 236.375 1399.51 236.282 1399.51 236.188C1399.51 236.282 1399.5 236.375 1399.49 236.468ZM1369.21 221.288C1369.4 221.544 1369.57 221.8 1369.73 222.06C1371.72 224.823 1372.71 228.124 1372.71 231.962L1372.7 232.562C1372.68 233.656 1372.59 234.709 1372.43 235.722C1372.62 234.525 1372.71 233.272 1372.71 231.962C1372.71 228.124 1371.72 224.824 1369.74 222.061C1369.57 221.801 1369.4 221.544 1369.21 221.288ZM1309.21 230.896C1309.37 231.15 1309.54 231.403 1309.71 231.653C1309.37 231.153 1309.05 230.642 1308.72 230.123L1309.21 230.896ZM1365.84 217.857C1367.1 218.865 1368.15 219.904 1368.98 220.977C1368.01 219.726 1366.75 218.519 1365.2 217.356L1365.84 217.857ZM1340.93 207.269C1343.08 207.813 1345.1 208.371 1346.99 208.944C1344.63 208.228 1342.06 207.534 1339.3 206.862L1340.93 207.269ZM1333.77 205.373C1335.19 205.784 1336.66 206.183 1338.16 206.572L1337.04 206.278C1335.56 205.884 1334.11 205.479 1332.71 205.062L1333.77 205.373ZM1298.72 184.051C1301.55 188.282 1305.54 192.125 1310.69 195.579C1316.05 199.057 1323.05 202.113 1331.67 204.748L1330.64 204.43C1322.49 201.868 1315.84 198.918 1310.69 195.579C1305.33 191.981 1301.22 187.961 1298.37 183.52L1298.72 184.051ZM1294.27 174.354C1294.83 176.175 1295.5 177.954 1296.27 179.689C1296.67 180.548 1297.11 181.392 1297.58 182.223C1297.11 181.392 1296.67 180.549 1296.27 179.69C1295.5 177.954 1294.83 176.175 1294.27 174.354ZM1294.1 173.777C1294.04 173.563 1293.98 173.349 1293.92 173.134C1293.98 173.349 1294.04 173.563 1294.1 173.777ZM1325.89 173.33C1325.82 173.276 1325.75 173.221 1325.68 173.167C1325.75 173.221 1325.82 173.276 1325.89 173.33ZM1293.62 171.974C1293.65 172.13 1293.69 172.286 1293.73 172.441C1293.69 172.286 1293.65 172.13 1293.62 171.974ZM1293.48 171.397C1293.51 171.537 1293.54 171.677 1293.58 171.816C1293.54 171.677 1293.51 171.537 1293.48 171.397ZM1293.3 170.642C1293.26 170.451 1293.22 170.261 1293.18 170.069C1293.22 170.261 1293.26 170.451 1293.3 170.642ZM1292.86 168.342C1292.88 168.45 1292.9 168.557 1292.92 168.665C1292.9 168.557 1292.88 168.45 1292.86 168.342ZM1292.74 167.587C1292.77 167.761 1292.79 167.935 1292.82 168.108C1292.79 167.935 1292.77 167.761 1292.74 167.587ZM1292.56 166.276C1292.58 166.462 1292.61 166.648 1292.63 166.833C1292.61 166.648 1292.58 166.462 1292.56 166.276ZM1292.49 165.683C1292.31 164.155 1292.21 162.601 1292.17 161.021C1292.21 162.601 1292.31 164.155 1292.49 165.683ZM1318.52 160.574C1318.5 160.275 1318.49 159.973 1318.48 159.669L1318.5 160.138C1318.5 160.284 1318.51 160.429 1318.52 160.574ZM1292.21 157.16C1292.19 157.606 1292.18 158.056 1292.17 158.508C1292.18 158.056 1292.19 157.606 1292.21 157.16ZM1373.64 155.585C1373.72 155.691 1373.81 155.798 1373.9 155.905L1374.31 156.434L1374.31 156.433L1373.9 155.905C1373.81 155.798 1373.72 155.691 1373.64 155.585ZM1292.45 154.011C1292.43 154.149 1292.42 154.288 1292.4 154.428C1292.42 154.288 1292.43 154.149 1292.45 154.011ZM1371.08 152.67C1371.62 153.233 1372.15 153.818 1372.67 154.427C1372.15 153.818 1371.62 153.233 1371.08 152.67ZM1292.53 153.32C1292.51 153.42 1292.5 153.52 1292.49 153.62C1292.5 153.52 1292.51 153.42 1292.53 153.32ZM1292.63 152.523C1292.62 152.617 1292.6 152.711 1292.59 152.806C1292.6 152.711 1292.62 152.617 1292.63 152.523ZM1292.75 151.725C1292.73 151.86 1292.71 151.996 1292.69 152.132C1292.71 151.996 1292.73 151.86 1292.75 151.725ZM1292.88 150.94C1292.84 151.119 1292.82 151.298 1292.79 151.478C1292.82 151.298 1292.84 151.119 1292.88 150.94ZM1293.01 150.202C1292.98 150.364 1292.95 150.527 1292.92 150.689C1292.95 150.527 1292.98 150.364 1293.01 150.202ZM1293.15 149.489C1293.13 149.607 1293.1 149.724 1293.08 149.842C1293.1 149.724 1293.13 149.607 1293.15 149.489ZM1293.31 148.762C1293.28 148.899 1293.25 149.037 1293.22 149.175C1293.25 149.037 1293.28 148.899 1293.31 148.762ZM1293.46 148.094C1293.44 148.2 1293.41 148.306 1293.39 148.412C1293.41 148.306 1293.44 148.2 1293.46 148.094ZM1293.68 147.248C1293.64 147.409 1293.59 147.57 1293.55 147.731C1293.59 147.57 1293.64 147.409 1293.68 147.248ZM1293.85 146.628C1293.81 146.739 1293.79 146.85 1293.75 146.961C1293.79 146.85 1293.81 146.739 1293.85 146.628ZM1323.82 146.438C1323.73 146.518 1323.64 146.6 1323.55 146.681C1323.64 146.6 1323.73 146.518 1323.82 146.438ZM1294.05 145.921C1294.02 146.038 1293.98 146.155 1293.95 146.272C1293.98 146.155 1294.02 146.038 1294.05 145.921ZM1294.3 145.12C1294.25 145.282 1294.2 145.444 1294.15 145.606C1294.2 145.444 1294.25 145.282 1294.3 145.12ZM1360.64 144.899C1360.8 144.975 1360.96 145.052 1361.11 145.13C1360.96 145.052 1360.8 144.975 1360.64 144.899ZM1294.54 144.387C1294.48 144.576 1294.41 144.765 1294.35 144.956C1294.41 144.765 1294.48 144.576 1294.54 144.387ZM1294.78 143.726C1294.72 143.889 1294.66 144.052 1294.6 144.217C1294.66 144.052 1294.72 143.889 1294.78 143.726ZM1295.04 143.024C1294.98 143.18 1294.92 143.337 1294.86 143.494C1294.92 143.337 1294.98 143.18 1295.04 143.024ZM1295.31 142.323C1295.24 142.51 1295.16 142.697 1295.09 142.885C1295.16 142.697 1295.24 142.51 1295.31 142.323ZM1295.54 141.772C1295.49 141.894 1295.44 142.016 1295.39 142.139C1295.44 142.016 1295.49 141.894 1295.54 141.772ZM1295.85 141.076C1295.79 141.202 1295.73 141.328 1295.68 141.454C1295.73 141.328 1295.79 141.202 1295.85 141.076ZM1296.15 140.419C1296.08 140.562 1296.01 140.705 1295.95 140.849C1296.01 140.705 1296.08 140.562 1296.15 140.419ZM1296.83 139.04C1296.63 139.421 1296.44 139.805 1296.25 140.192C1296.44 139.805 1296.63 139.421 1296.83 139.04ZM1297.54 137.738C1297.43 137.92 1297.33 138.102 1297.23 138.286C1297.33 138.102 1297.43 137.92 1297.54 137.738ZM1391.88 136.391C1391.85 136.347 1391.81 136.303 1391.77 136.26C1391.81 136.303 1391.85 136.347 1391.88 136.391ZM1391.37 135.784C1391.3 135.709 1391.24 135.634 1391.18 135.56C1391.24 135.634 1391.3 135.709 1391.37 135.784ZM1390.84 135.173C1390.75 135.078 1390.67 134.982 1390.58 134.888C1390.67 134.982 1390.75 135.078 1390.84 135.173ZM1299.95 134.011C1299.72 134.33 1299.49 134.653 1299.26 134.979C1299.49 134.653 1299.72 134.33 1299.95 134.011ZM1390.27 134.541C1390.17 134.435 1390.08 134.328 1389.98 134.223C1390.08 134.328 1390.17 134.435 1390.27 134.541ZM1389.69 133.907C1389.59 133.798 1389.49 133.69 1389.38 133.582C1389.49 133.69 1389.59 133.798 1389.69 133.907ZM1300.38 133.429C1300.31 133.517 1300.25 133.607 1300.18 133.696C1300.25 133.607 1300.31 133.517 1300.38 133.429ZM1300.84 132.837C1301.01 132.622 1301.18 132.41 1301.35 132.199C1301.18 132.41 1301.01 132.622 1300.84 132.837ZM1389.05 133.23C1388.96 133.133 1388.86 133.035 1388.77 132.938C1388.86 133.035 1388.96 133.133 1389.05 133.23ZM1388.42 132.589C1388.35 132.508 1388.27 132.428 1388.19 132.348C1388.27 132.428 1388.35 132.508 1388.42 132.589ZM1387.81 131.975C1387.72 131.883 1387.63 131.792 1387.53 131.701C1387.63 131.792 1387.72 131.883 1387.81 131.975ZM1302.18 131.228C1302.09 131.333 1302 131.44 1301.91 131.547C1302 131.44 1302.09 131.333 1302.18 131.228ZM1387.22 131.404C1387.11 131.292 1386.99 131.179 1386.87 131.067C1386.99 131.179 1387.11 131.292 1387.22 131.404ZM1302.66 130.689C1302.57 130.789 1302.48 130.89 1302.39 130.99C1302.48 130.89 1302.57 130.789 1302.66 130.689ZM1386.57 130.784C1386.46 130.686 1386.36 130.588 1386.25 130.49C1386.36 130.588 1386.46 130.686 1386.57 130.784ZM1303.16 130.16C1303.06 130.261 1302.96 130.364 1302.87 130.466C1302.96 130.364 1303.06 130.261 1303.16 130.16ZM1385.93 130.196C1385.82 130.095 1385.71 129.995 1385.6 129.895C1385.71 129.995 1385.82 130.095 1385.93 130.196ZM1303.69 129.606C1303.59 129.711 1303.48 129.818 1303.38 129.924C1303.48 129.818 1303.59 129.711 1303.69 129.606ZM1385.26 129.596C1385.16 129.507 1385.06 129.419 1384.96 129.331C1385.06 129.419 1385.16 129.507 1385.26 129.596ZM1304.19 129.104C1304.07 129.228 1303.94 129.353 1303.82 129.479C1303.94 129.353 1304.07 129.228 1304.19 129.104ZM1384.57 128.994C1384.48 128.919 1384.39 128.844 1384.3 128.769C1384.39 128.844 1384.48 128.919 1384.57 128.994ZM1304.76 128.56C1304.63 128.679 1304.51 128.799 1304.38 128.92C1304.51 128.799 1304.63 128.679 1304.76 128.56ZM1383.95 128.47C1383.82 128.361 1383.69 128.253 1383.56 128.146C1383.69 128.253 1383.82 128.361 1383.95 128.47ZM1305.27 128.089C1305.14 128.207 1305.01 128.326 1304.88 128.446C1305.01 128.326 1305.14 128.207 1305.27 128.089ZM1305.85 127.568C1305.7 127.7 1305.55 127.832 1305.4 127.965C1305.55 127.832 1305.7 127.7 1305.85 127.568ZM1383.27 127.91C1383.14 127.808 1383.01 127.706 1382.89 127.604C1383.01 127.706 1383.14 127.808 1383.27 127.91ZM1306.36 127.123C1306.21 127.25 1306.06 127.377 1305.92 127.506C1306.06 127.377 1306.21 127.25 1306.36 127.123ZM1382.57 127.355C1382.44 127.253 1382.31 127.151 1382.18 127.05C1382.31 127.151 1382.44 127.253 1382.57 127.355ZM1306.88 126.69C1306.77 126.78 1306.66 126.87 1306.55 126.961C1306.66 126.87 1306.77 126.78 1306.88 126.69ZM1381.85 126.795C1381.74 126.707 1381.62 126.62 1381.5 126.532C1381.62 126.62 1381.74 126.707 1381.85 126.795ZM1307.54 126.154C1307.4 126.269 1307.25 126.384 1307.11 126.501C1307.25 126.384 1307.4 126.269 1307.54 126.154ZM1381.18 126.291C1381.02 126.169 1380.85 126.048 1380.69 125.928C1380.85 126.048 1381.02 126.169 1381.18 126.291ZM1308.12 125.709C1307.96 125.829 1307.8 125.949 1307.65 126.071C1307.8 125.949 1307.96 125.829 1308.12 125.709ZM1380.46 125.758C1380.3 125.649 1380.15 125.541 1380 125.433C1380.15 125.541 1380.3 125.649 1380.46 125.758ZM1308.71 125.259C1308.56 125.371 1308.41 125.483 1308.26 125.597C1308.41 125.483 1308.56 125.371 1308.71 125.259ZM1379.75 125.256C1379.56 125.122 1379.37 124.991 1379.18 124.859C1379.37 124.991 1379.56 125.122 1379.75 125.256ZM1309.33 124.813C1309.17 124.927 1309.01 125.04 1308.85 125.155C1309.01 125.04 1309.17 124.927 1309.33 124.813ZM1379.01 124.743C1378.87 124.648 1378.73 124.555 1378.59 124.461C1378.73 124.555 1378.87 124.648 1379.01 124.743ZM1309.95 124.379C1309.79 124.488 1309.63 124.599 1309.47 124.71C1309.63 124.599 1309.79 124.488 1309.95 124.379ZM1310.6 123.942C1310.43 124.051 1310.27 124.16 1310.11 124.271C1310.27 124.16 1310.43 124.051 1310.6 123.942ZM1378.25 124.236C1378.11 124.137 1377.95 124.04 1377.8 123.942C1377.95 124.04 1378.11 124.137 1378.25 124.236ZM1311.88 123.119C1311.49 123.359 1311.11 123.602 1310.73 123.851C1311.11 123.602 1311.49 123.359 1311.88 123.119ZM1376.38 123.045C1376.76 123.276 1377.13 123.508 1377.5 123.746C1377.13 123.508 1376.76 123.276 1376.38 123.045ZM1312.48 122.756C1312.33 122.843 1312.19 122.931 1312.04 123.02C1312.19 122.931 1312.33 122.843 1312.48 122.756ZM1313.17 122.348C1314.14 121.788 1315.15 121.251 1316.18 120.74C1318.13 119.781 1320.16 118.941 1322.29 118.222L1321.5 118.497C1319.66 119.153 1317.89 119.901 1316.18 120.74L1315.46 121.104C1314.68 121.504 1313.92 121.919 1313.17 122.348ZM1374.45 121.901C1374.2 121.759 1373.95 121.619 1373.69 121.48C1373.95 121.619 1374.2 121.759 1374.45 121.901ZM1372.04 120.631C1372.51 120.86 1372.98 121.097 1373.43 121.341C1372.98 121.097 1372.51 120.86 1372.04 120.631ZM1370.98 120.129C1370.78 120.038 1370.58 119.948 1370.38 119.859C1370.58 119.948 1370.78 120.038 1370.98 120.129ZM1370.2 119.778C1370 119.691 1369.79 119.604 1369.59 119.519C1369.79 119.604 1370 119.691 1370.2 119.778ZM1369.27 119.386C1369.08 119.307 1368.88 119.227 1368.69 119.15C1368.88 119.227 1369.08 119.307 1369.27 119.386ZM1368.48 119.071C1368.26 118.984 1368.04 118.899 1367.81 118.814C1368.04 118.899 1368.26 118.984 1368.48 119.071ZM1367.56 118.723C1367.37 118.651 1367.18 118.581 1366.98 118.512C1367.18 118.581 1367.37 118.651 1367.56 118.723ZM1366.6 118.379C1366.43 118.319 1366.25 118.26 1366.08 118.202C1366.25 118.26 1366.43 118.319 1366.6 118.379ZM1365.72 118.084C1365.53 118.023 1365.35 117.963 1365.16 117.904C1365.35 117.963 1365.53 118.023 1365.72 118.084ZM1323.9 117.704C1323.63 117.787 1323.36 117.872 1323.09 117.958L1323.9 117.705C1324.17 117.623 1324.45 117.542 1324.72 117.463L1323.9 117.704ZM1364.83 117.803C1364.62 117.74 1364.41 117.676 1364.21 117.615C1364.41 117.676 1364.62 117.74 1364.83 117.803ZM1363.93 117.536C1363.72 117.477 1363.51 117.418 1363.31 117.36C1363.51 117.418 1363.72 117.477 1363.93 117.536ZM1362.92 117.257C1362.74 117.208 1362.55 117.16 1362.37 117.112C1362.55 117.16 1362.74 117.208 1362.92 117.257ZM1327.23 116.805C1326.66 116.94 1326.1 117.083 1325.55 117.232L1326.38 117.014C1326.94 116.871 1327.51 116.736 1328.08 116.608L1327.23 116.805ZM1362.01 117.021C1361.8 116.969 1361.6 116.919 1361.39 116.869C1361.6 116.919 1361.8 116.969 1362.01 117.021ZM1361 116.777C1360.84 116.74 1360.68 116.704 1360.51 116.668C1360.68 116.704 1360.84 116.74 1361 116.777ZM1360 116.555C1359.81 116.516 1359.63 116.478 1359.45 116.44C1359.63 116.478 1359.81 116.516 1360 116.555ZM1359.07 116.365C1358.87 116.324 1358.66 116.284 1358.45 116.245C1358.66 116.284 1358.87 116.324 1359.07 116.365ZM1330.69 116.086C1330.4 116.138 1330.1 116.193 1329.81 116.249L1330.69 116.086C1330.98 116.034 1331.28 115.982 1331.58 115.934L1330.69 116.086ZM1358.05 116.172C1357.83 116.131 1357.6 116.092 1357.38 116.054C1357.6 116.092 1357.83 116.131 1358.05 116.172ZM1357.09 116.005C1356.86 115.966 1356.62 115.929 1356.39 115.893C1356.62 115.929 1356.86 115.966 1357.09 116.005ZM1356 115.832C1355.81 115.804 1355.63 115.778 1355.44 115.752C1355.63 115.778 1355.81 115.804 1356 115.832ZM1354.96 115.685C1354.75 115.657 1354.54 115.631 1354.33 115.604C1354.54 115.631 1354.75 115.657 1354.96 115.685ZM1353.93 115.555C1353.69 115.526 1353.45 115.499 1353.21 115.473C1353.45 115.499 1353.69 115.526 1353.93 115.555ZM1352.88 115.437C1352.57 115.403 1352.25 115.372 1351.93 115.343C1352.25 115.372 1352.57 115.403 1352.88 115.437ZM1351.85 115.335C1351.56 115.308 1351.26 115.284 1350.96 115.26C1351.26 115.284 1351.56 115.308 1351.85 115.335ZM1348.89 115.119C1349.5 115.153 1350.11 115.193 1350.71 115.239C1350.11 115.193 1349.5 115.153 1348.89 115.119ZM1339.94 115.074C1339.62 115.089 1339.29 115.105 1338.97 115.124L1339.94 115.074C1340.26 115.059 1340.58 115.045 1340.91 115.034L1339.94 115.074ZM1348.43 115.095C1348.22 115.084 1348 115.076 1347.78 115.066C1348 115.076 1348.22 115.084 1348.43 115.095ZM1347.36 115.048C1347.04 115.036 1346.72 115.026 1346.39 115.018C1346.72 115.026 1347.04 115.036 1347.36 115.048ZM1391.37 257.7C1391.48 257.549 1391.59 257.397 1391.7 257.244C1391.59 257.397 1391.48 257.549 1391.37 257.7ZM1393.08 255.219L1393.47 254.589C1393.48 254.586 1393.48 254.584 1393.48 254.581C1393.35 254.794 1393.21 255.007 1393.08 255.219ZM1366.47 246.821C1366.56 246.743 1366.65 246.662 1366.73 246.583C1366.65 246.662 1366.56 246.743 1366.47 246.821ZM1372.24 236.827C1372.26 236.698 1372.29 236.569 1372.31 236.438C1372.29 236.569 1372.26 236.698 1372.24 236.827ZM1293.78 172.626C1293.83 172.796 1293.87 172.965 1293.92 173.134C1293.87 172.965 1293.83 172.796 1293.78 172.626ZM1294.1 173.777C1294.15 173.953 1294.21 174.127 1294.26 174.302C1294.21 174.127 1294.15 173.953 1294.1 173.777ZM1292.97 168.971C1293 169.118 1293.02 169.265 1293.05 169.411C1293.02 169.265 1293 169.118 1292.97 168.971ZM1293.07 169.49C1293.1 169.684 1293.14 169.877 1293.18 170.069C1293.14 169.877 1293.1 169.684 1293.07 169.49ZM1293.33 170.766C1293.37 170.92 1293.4 171.074 1293.44 171.228C1293.4 171.074 1293.37 170.92 1293.33 170.766ZM1292.66 167.042C1292.68 167.191 1292.7 167.34 1292.72 167.489C1292.7 167.34 1292.68 167.191 1292.66 167.042ZM1292.49 165.683C1292.51 165.855 1292.53 166.028 1292.55 166.2C1292.53 166.028 1292.51 165.855 1292.49 165.683ZM1318.68 161.923C1318.67 161.862 1318.66 161.802 1318.66 161.741C1318.66 161.802 1318.67 161.862 1318.68 161.923ZM1292.25 156.427C1292.23 156.67 1292.22 156.915 1292.21 157.16C1292.22 156.915 1292.23 156.67 1292.25 156.427ZM1365.23 147.587C1365.11 147.5 1364.98 147.413 1364.86 147.328C1364.98 147.413 1365.11 147.5 1365.23 147.587ZM1361.37 145.262C1361.29 145.218 1361.2 145.173 1361.11 145.13C1361.2 145.173 1361.29 145.218 1361.37 145.262ZM1360.17 144.68L1360.15 144.673C1360.26 144.725 1360.38 144.779 1360.5 144.833C1360.39 144.782 1360.28 144.73 1360.17 144.68ZM1360.5 144.833C1360.54 144.855 1360.59 144.877 1360.64 144.899C1360.59 144.877 1360.54 144.855 1360.5 144.833ZM1301.74 131.744C1301.61 131.895 1301.48 132.047 1301.35 132.199C1301.48 132.047 1301.61 131.895 1301.74 131.744ZM1300.84 132.837C1300.71 132.998 1300.59 133.16 1300.46 133.322C1300.59 133.16 1300.71 132.998 1300.84 132.837ZM1313.17 122.348C1313.01 122.439 1312.86 122.53 1312.7 122.623C1312.86 122.53 1313.01 122.439 1313.17 122.348ZM1374.98 122.208C1374.8 122.105 1374.63 122.002 1374.45 121.901C1374.63 122.002 1374.8 122.105 1374.98 122.208ZM1371.97 120.598C1371.74 120.483 1371.5 120.368 1371.26 120.257C1371.5 120.368 1371.74 120.483 1371.97 120.598Z" fill="currentColor"/>
</svg>
