<svg width="1777" height="397" viewBox="0 0 1777 397" fill="none" xmlns="http://www.w3.org/2000/svg">
<path d="M284.456 32.1313L243.613 9.13274C222.709 -2.87347 196.605 -3.08691 175.299 8.75921L74.263 66.8159C28.4617 93.1495 0 142.215 0 194.855V318.786C0 327.964 7.47722 335.408 16.6965 335.408C25.9157 335.408 33.3929 327.964 33.3929 318.786V194.855C33.3929 154.034 55.4494 115.988 90.9595 95.6041L191.808 37.6542C202.689 31.6244 216.143 31.7044 227.05 37.9743L267.894 60.9729C278.855 67.2695 285.689 79.0355 285.689 91.6554V252.459C285.689 265.078 278.882 276.818 267.894 283.141L128.158 363.449V312.196C128.158 299.309 135.126 287.25 146.302 280.74L211.104 243.094C219.064 238.478 221.771 228.286 217.107 220.362C212.471 212.438 202.233 209.77 194.274 214.386L129.444 252.032C128.989 252.298 128.56 252.592 128.131 252.859V200.859C128.131 188.185 134.965 176.339 145.98 169.936L226.97 122.898C234.93 118.283 237.61 108.091 232.973 100.166C228.337 92.2424 218.099 89.5743 210.139 94.19L129.15 141.254C107.924 153.581 94.7651 176.419 94.7651 200.885V363.769C94.7651 375.722 100.983 386.421 111.381 392.424C116.58 395.412 122.289 396.907 127.997 396.907C133.706 396.907 139.414 395.412 144.613 392.424L284.59 311.956C305.869 299.736 319.082 276.951 319.082 252.485V91.6821C319.082 67.2428 305.869 44.431 284.483 32.158" fill="currentColor"/>
<path d="M1190.69 277.575H1160.07V160.159L1112.29 263.807C1108.42 272.178 1100.04 277.575 1090.8 277.575C1081.56 277.575 1073.2 272.24 1069.33 263.899L1021.58 161.14V277.575H990.969V116.737H1032.85L1091.5 245.714L1149.48 116.737H1190.72V277.575H1190.69Z" fill="currentColor"/>
<path d="M1260.76 116.737H1229.63V277.575H1260.76V116.737Z" fill="currentColor"/>
<path d="M1374.35 114.174C1409.53 114.174 1441.17 136.848 1450.14 170.053H1416.88C1409.53 153.131 1392.58 142.266 1372.77 142.266C1342.37 142.266 1320.64 166.219 1320.64 197.172C1320.64 228.125 1342.37 252.077 1372.77 252.077C1392.58 252.077 1409.53 241.212 1416.88 224.29H1450.14C1441.17 257.495 1409.53 280.169 1374.35 280.169C1326.37 280.169 1289.3 244.103 1289.3 197.172C1289.3 150.24 1326.4 114.143 1374.35 114.143" fill="currentColor"/>
<path d="M1603.19 145.685H1546.05V277.575H1515.06V145.685H1457.92V116.737H1603.19V145.685Z" fill="currentColor"/>
<path d="M1608.38 197.156C1608.38 150.233 1645.29 114.143 1693.02 114.143C1740.76 114.143 1777 150.203 1777 197.156C1777 244.11 1740.43 280.169 1693.02 280.169C1645.62 280.169 1608.38 244.11 1608.38 197.156ZM1745.82 197.156C1745.82 166.179 1722.93 142.261 1693.02 142.261C1663.12 142.261 1639.59 166.209 1639.59 197.156C1639.59 228.104 1662.82 252.052 1693.02 252.052C1723.23 252.052 1745.82 228.104 1745.82 197.156Z" fill="currentColor"/>
<path d="M560.015 209.62H428.642C433.132 234.516 454.269 252.077 479.255 252.077C501.674 252.077 515.45 243.129 523.483 229.403H554.883C544.62 259.078 514.503 280.169 479.255 280.169C431.514 280.169 396.906 245.047 396.906 197.141C396.906 149.235 431.514 114.143 478.919 114.143C531.455 114.143 564.138 151.488 559.984 209.62M428.948 183.11H527.301C524.736 157.24 504.546 140.987 478.277 140.987C452.009 140.987 433.102 158.549 428.948 183.11Z" fill="currentColor"/>
<path d="M736.742 248.934V277.575H728.126C677.68 277.575 648.271 211.615 622.424 211.615H619.227V277.575H588.875V116.737H619.227V187.819L695.551 116.737H733.545L649.885 193.308C679.598 206.494 706.084 248.965 731.962 248.965H736.742V248.934Z" fill="currentColor"/>
<path d="M741.93 197.156C741.93 150.233 779.406 114.143 827.845 114.143C876.284 114.143 913.145 150.203 913.145 197.156C913.145 244.11 876.007 280.169 827.845 280.169C779.683 280.169 741.93 244.11 741.93 197.156ZM881.488 197.156C881.488 166.179 858.239 142.261 827.845 142.261C797.452 142.261 773.586 166.209 773.586 197.156C773.586 228.104 797.174 252.052 827.845 252.052C858.516 252.052 881.488 228.104 881.488 197.156Z" fill="currentColor"/>
</svg>
