<?xml version="1.0" encoding="utf-8"?>
<!-- Generator: Adobe Illustrator 25.4.1, SVG Export Plug-In . SVG Version: 6.00 Build 0)  -->
<svg version="1.1" id="Layer_2_00000168079455577364250800000017127789380171152061_"
	 xmlns="http://www.w3.org/2000/svg" xmlns:xlink="http://www.w3.org/1999/xlink" x="0px" y="0px" viewBox="0 0 587.1 148.8"
	 style="enable-background:new 0 0 587.1 148.8;" xml:space="preserve">
<g id="_контент">
	<g>
		<path d="M106.1,12.1L90.9,3.4c-7.8-4.5-17.5-4.6-25.5-0.1L27.7,25C10.6,34.9,0,53.3,0,73v46.5c0,3.4,2.8,6.2,6.2,6.2
			s6.2-2.8,6.2-6.2V73c0-15.3,8.2-29.5,21.5-37.2l37.6-21.7c4.1-2.3,9.1-2.2,13.2,0.1l15.2,8.6c4.1,2.4,6.6,6.8,6.6,11.5v60.3
			c0,4.7-2.5,9.1-6.6,11.5l-52.1,30.1V117c0-4.8,2.6-9.3,6.8-11.8l24.2-14.1c3-1.7,4-5.6,2.2-8.5c-1.7-3-5.6-4-8.5-2.2L48.3,94.5
			c-0.2,0.1-0.3,0.2-0.5,0.3V75.3c0-4.8,2.5-9.2,6.7-11.6l30.2-17.6c3-1.7,4-5.5,2.2-8.5c-1.7-3-5.6-4-8.5-2.2L48.2,52.9
			c-7.9,4.6-12.8,13.2-12.8,22.3v61c0,4.5,2.3,8.5,6.2,10.7c1.9,1.1,4.1,1.7,6.2,1.7s4.3-0.6,6.2-1.7l52.2-30.2
			c7.9-4.6,12.9-13.1,12.9-22.3V34.3C119.1,25.2,114.1,16.6,106.1,12.1L106.1,12.1z"/>
		<g>
			<g>
				<path d="M395.1,90.9h-10V52.7l-15.6,33.8c-1.3,2.7-4,4.5-7,4.5l0,0c-3,0-5.7-1.7-7-4.5L340,53v38h-10V38.5h13.6l19.1,42.1
					l18.9-42.1h13.4L395.1,90.9L395.1,90.9z"/>
				<path d="M418.3,38.5v52.5h-10V38.5H418.3z"/>
				<path d="M455.2,37.4c11.5,0,21.9,7.5,24.9,18.4h-10.9c-2.4-5.6-8-9.1-14.5-9.1c-10,0-17.1,7.9-17.1,18s7.1,18,17.1,18
					c6.5,0,12.1-3.6,14.5-9.1h10.9C477.2,84.5,466.8,92,455.2,92c-15.7,0-27.9-11.8-27.9-27.3S439.5,37.4,455.2,37.4L455.2,37.4z"/>
				<path d="M529.7,47.9h-18.4v43h-10v-43H483v-9.4h46.7L529.7,47.9L529.7,47.9z"/>
				<path d="M531.5,64.7c0-15.4,12.2-27.3,27.9-27.3s27.7,11.8,27.7,27.3S575,92,559.4,92S531.5,80.1,531.5,64.7z M576.8,64.7
					c0-10.2-7.6-18-17.4-18s-17.6,7.9-17.6,18s7.7,18,17.6,18S576.8,74.9,576.8,64.7z"/>
			</g>
			<g>
				<path d="M205.9,68.8h-43c1.5,8.2,8.4,13.9,16.6,13.9c7.3,0,11.9-2.9,14.5-7.4h10.3C200.9,85.1,191,92,179.5,92
					c-15.6,0-27-11.5-27-27.3s11.3-27.3,26.9-27.3C196.5,37.4,207.2,49.7,205.9,68.8L205.9,68.8z M163,60.1h32.2
					c-0.8-8.5-7.4-13.8-16.1-13.8S164.3,52,163,60.1z"/>
				<path d="M263.7,81.6v9.3h-2.8c-16.6,0-26.2-21.5-34.7-21.5h-1.1v21.5h-10V38.5h10v23.2l25.1-23.2h12.5l-27.5,25
					c9.8,4.3,18.5,18.2,27,18.2L263.7,81.6L263.7,81.6z"/>
				<path d="M265.5,64.7c0-15.4,12.2-27.3,27.9-27.3s27.7,11.8,27.7,27.3S309.1,92,293.4,92S265.5,80.1,265.5,64.7z M310.9,64.7
					c0-10.2-7.5-18-17.4-18s-17.6,7.9-17.6,18s7.7,18,17.6,18S310.9,74.9,310.9,64.7z"/>
			</g>
		</g>
	</g>
</g>
</svg>
