<svg width="1299" height="520" viewBox="0 0 1299 520" fill="none" xmlns="http://www.w3.org/2000/svg">
<path d="M364.945 40.904L313.211 11.6582C286.578 -3.66634 253.298 -3.90636 226.295 11.0766L63.5968 101.87C24.3715 123.795 0 165.319 0 210.222V425.282C0 437.551 9.95171 447.502 22.2206 447.502C34.4894 447.502 44.4411 437.551 44.4411 425.282V210.222C44.4411 181.4 60.0887 154.739 85.2634 140.67L247.897 49.9141C261.32 42.4642 277.872 42.575 291.083 50.2003L342.835 79.4554C356.24 87.2099 364.567 101.667 364.567 117.213V320.844C364.567 336.418 356.212 350.903 342.743 358.657L168.376 459.328V393.285C168.376 377.665 176.777 363.07 190.292 355.177L292.348 295.577C302.946 289.392 306.518 275.785 300.333 265.187C294.148 254.589 280.54 251.016 269.942 257.201L168.385 316.505V255.521C168.385 239.911 176.786 225.306 190.301 217.413L292.357 157.814C302.955 151.628 306.527 138.021 300.342 127.423C294.157 116.825 280.55 113.252 269.952 119.438L167.905 179.028C140.792 194.851 123.953 224.161 123.953 255.512V497.787C123.953 509.576 133.129 519.214 144.734 519.952C144.752 519.952 144.78 519.952 144.798 519.952C145.251 519.98 145.712 519.999 146.174 519.999C146.183 519.999 146.201 519.999 146.211 519.999C146.211 519.999 146.211 519.999 146.22 519.999C146.645 519.999 147.06 519.98 147.485 519.962C147.632 519.962 147.789 519.943 147.937 519.925C148.223 519.906 148.5 519.878 148.777 519.842C148.943 519.823 149.1 519.805 149.266 519.777C149.562 519.731 149.866 519.685 150.162 519.629C150.291 519.602 150.42 519.583 150.54 519.565C150.965 519.482 151.38 519.38 151.796 519.278C151.879 519.26 151.962 519.232 152.045 519.205C152.396 519.112 152.738 519.011 153.079 518.9C153.199 518.863 153.319 518.817 153.43 518.78C153.771 518.66 154.104 518.54 154.445 518.401C154.528 518.364 154.612 518.337 154.685 518.309C155.101 518.134 155.507 517.949 155.904 517.755C155.987 517.718 156.07 517.672 156.153 517.626C156.467 517.469 156.772 517.303 157.076 517.137C157.15 517.1 157.224 517.063 157.298 517.017L364.954 397.116C392.132 381.459 409.017 352.223 409.017 320.807V117.213C409.017 85.7975 392.132 56.5517 364.954 40.904H364.945Z" fill="currentColor"/>
<path d="M731.529 448.343H698.337V321.044L646.536 433.415C642.341 442.491 633.252 448.343 623.231 448.343C613.211 448.343 604.155 442.558 599.96 433.515L548.192 322.108V448.343H515V273.968H560.41L623.997 413.8L686.852 273.968H731.562V448.343H731.529Z" fill="currentColor"/>
<path d="M807.499 273.968H773.749V448.343H807.499V273.968Z" fill="currentColor"/>
<path d="M1111.62 305.637H1057.26V448.627H1023.66V305.637H969.299V274.252H1111.62V305.637Z" fill="currentColor"/>
<path d="M1115.66 361C1115.66 310.128 1155.68 271 1207.43 271C1259.18 271 1298.47 310.095 1298.47 361C1298.47 411.905 1258.82 451 1207.43 451C1156.04 451 1115.66 411.905 1115.66 361ZM1264.67 361C1264.67 327.415 1239.85 301.484 1207.43 301.484C1175.01 301.484 1149.49 327.448 1149.49 361C1149.49 394.552 1174.68 420.516 1207.43 420.516C1240.18 420.516 1264.67 394.552 1264.67 361Z" fill="currentColor"/>
<path d="M897.607 271C911.464 271 922.996 273.687 932.137 279.135L932.998 279.647C941.85 284.993 949.207 292.007 955.062 300.68L955.66 301.568L930.374 318.441L929.765 317.66C925.052 311.61 919.895 307.411 914.305 305.001L914.271 304.986C908.787 302.39 903.071 301.095 897.111 301.095C888.464 301.095 882.029 302.821 877.655 306.121L877.636 306.137C873.325 309.235 871.133 313.798 871.133 320C871.133 325.159 873.214 329.623 877.477 333.436L877.887 333.791C882.12 337.341 890.05 340.649 901.876 343.633L903.071 343.93L903.077 343.931L905.659 344.597C918.403 347.966 928.649 351.938 936.362 356.531C944.591 361.265 950.46 367.14 953.882 374.181L954.211 374.826C957.56 381.534 959.214 389.484 959.214 398.64C959.214 408.014 956.914 416.463 952.303 423.958L951.85 424.68C946.94 432.345 940.009 438.459 931.093 443.029L931.092 443.028C922.309 447.615 911.879 449.888 899.84 449.888C890.637 449.888 881.842 448.539 873.461 445.841L873.451 445.838L873.443 445.835C865.035 442.958 857.387 438.475 850.504 432.394L850.493 432.384C843.587 426.113 837.803 417.917 833.123 407.827L832.719 406.956L857.802 391.921L858.341 392.873C863.742 402.425 869.839 409.349 876.601 413.723L877.236 414.126C883.856 418.222 891.789 420.293 901.08 420.293C910.043 420.293 916.615 418.322 920.978 414.56L920.985 414.554L920.991 414.548C925.514 410.782 927.803 405.606 927.803 398.89C927.803 394.922 926.782 391.568 924.778 388.776L924.759 388.75L924.74 388.722C922.903 385.795 919.46 382.992 914.248 380.37L914.211 380.351C909.204 377.588 901.948 375.035 892.393 372.714L892.384 372.712C879.092 369.368 868.63 365.255 861.051 360.34L861.043 360.335L861.036 360.33C853.471 355.255 848.107 349.374 845.029 342.664L845.025 342.654C841.983 335.851 840.467 328.461 840.467 320.5C840.467 310.677 842.741 302.069 847.327 294.72C851.91 287.376 858.521 281.591 867.113 277.353L867.926 276.96C876.364 272.975 886.268 271 897.607 271ZM896.513 448.76C896.557 448.761 896.602 448.762 896.646 448.764C896.602 448.762 896.557 448.761 896.513 448.76ZM894.879 448.685C894.964 448.689 895.049 448.694 895.135 448.698C895.049 448.694 894.964 448.689 894.879 448.685ZM893.352 448.589C893.394 448.592 893.436 448.595 893.479 448.598C893.436 448.595 893.394 448.592 893.352 448.589ZM891.836 448.466C891.843 448.466 891.85 448.467 891.856 448.468C891.85 448.467 891.843 448.466 891.836 448.466ZM890.214 448.306C890.26 448.311 890.306 448.315 890.352 448.32C890.306 448.315 890.26 448.311 890.214 448.306ZM888.595 448.114C888.677 448.125 888.76 448.135 888.843 448.146C888.76 448.135 888.677 448.125 888.595 448.114ZM884.131 447.422C884.176 447.43 884.222 447.438 884.268 447.446C884.222 447.438 884.176 447.43 884.131 447.422ZM882.623 447.132C882.665 447.14 882.708 447.148 882.75 447.156C882.708 447.148 882.665 447.14 882.623 447.132ZM881.11 446.811C881.15 446.819 881.189 446.828 881.229 446.837C881.189 446.828 881.15 446.819 881.11 446.811ZM879.615 446.464C879.657 446.474 879.699 446.484 879.74 446.494C879.699 446.484 879.657 446.474 879.615 446.464ZM878.084 446.078C878.142 446.093 878.199 446.108 878.257 446.123C878.199 446.108 878.142 446.093 878.084 446.078ZM876.691 445.7C876.702 445.703 876.712 445.706 876.723 445.709C876.712 445.706 876.702 445.703 876.691 445.7ZM923.722 445.072C923.27 445.233 922.814 445.386 922.354 445.536C922.814 445.386 923.27 445.233 923.722 445.072ZM875.14 445.247C875.193 445.263 875.246 445.28 875.3 445.296C875.246 445.28 875.193 445.263 875.14 445.247ZM873.788 444.826C873.807 444.832 873.825 444.837 873.844 444.843C873.826 444.837 873.807 444.832 873.789 444.826C873.674 444.787 873.559 444.746 873.444 444.706C873.559 444.746 873.673 444.787 873.788 444.826ZM925.259 444.5C924.974 444.611 924.687 444.72 924.398 444.826C924.687 444.72 924.974 444.611 925.259 444.5ZM926.941 443.813C926.611 443.955 926.278 444.093 925.943 444.229C926.278 444.093 926.611 443.955 926.941 443.813ZM871.157 443.861C871.361 443.941 871.566 444.019 871.771 444.097C871.566 444.019 871.361 443.941 871.157 443.861ZM869.966 443.384C870.068 443.426 870.171 443.466 870.273 443.508C869.919 443.364 869.566 443.218 869.215 443.067L869.966 443.384ZM928.696 443.026C928.39 443.171 928.082 443.312 927.771 443.451C928.082 443.312 928.39 443.171 928.696 443.026ZM866.986 442.063C867.477 442.296 867.971 442.522 868.468 442.742L867.726 442.407C867.232 442.181 866.741 441.949 866.253 441.71L866.986 442.063ZM834.09 407.378C838.721 417.364 844.427 425.437 851.209 431.595C855.66 435.527 860.432 438.778 865.523 441.348L864.799 440.976C859.979 438.466 855.449 435.339 851.211 431.595C844.429 425.437 838.722 417.364 834.091 407.378L857.413 393.397L834.09 407.378ZM933.386 440.564C933.513 440.491 933.64 440.418 933.767 440.344C933.64 440.418 933.513 440.491 933.386 440.564ZM934.164 440.107C934.268 440.045 934.373 439.983 934.477 439.92C934.373 439.983 934.268 440.045 934.164 440.107ZM935.052 439.565C935.106 439.532 935.161 439.498 935.215 439.464C935.161 439.498 935.106 439.532 935.052 439.565ZM935.729 439.138C935.812 439.084 935.895 439.032 935.978 438.979C935.895 439.032 935.812 439.084 935.729 439.138ZM936.337 438.741C936.47 438.653 936.604 438.566 936.736 438.477C936.604 438.566 936.47 438.653 936.337 438.741ZM937.056 438.259C937.174 438.178 937.293 438.097 937.411 438.016C937.293 438.097 937.174 438.178 937.056 438.259ZM937.854 437.705C937.932 437.649 938.011 437.594 938.089 437.538C938.011 437.594 937.932 437.649 937.854 437.705ZM938.538 437.213C938.625 437.15 938.711 437.086 938.797 437.022C938.711 437.086 938.625 437.15 938.538 437.213ZM939.172 436.741C939.282 436.658 939.392 436.574 939.502 436.49C939.392 436.574 939.282 436.658 939.172 436.741ZM939.935 436.155C940.002 436.102 940.069 436.049 940.136 435.996C940.069 436.049 940.002 436.102 939.935 436.155ZM940.5 435.705C940.602 435.622 940.705 435.54 940.807 435.457C940.705 435.54 940.602 435.622 940.5 435.705ZM941.231 435.104C941.287 435.058 941.342 435.012 941.397 434.966C941.342 435.012 941.287 435.058 941.231 435.104ZM941.826 434.6C941.913 434.524 942 434.449 942.086 434.373C942 434.449 941.913 434.524 941.826 434.6ZM942.44 434.062C942.55 433.964 942.658 433.866 942.767 433.768C942.658 433.866 942.55 433.964 942.44 434.062ZM943.044 433.515C943.143 433.423 943.242 433.331 943.341 433.238C943.242 433.331 943.143 433.423 943.044 433.515ZM943.679 432.918C943.759 432.841 943.838 432.764 943.918 432.688C943.838 432.764 943.759 432.841 943.679 432.918ZM944.219 432.395C944.34 432.275 944.461 432.156 944.581 432.035C944.461 432.156 944.34 432.275 944.219 432.395ZM944.824 431.79C944.919 431.694 945.012 431.596 945.105 431.499C945.012 431.596 944.919 431.694 944.824 431.79ZM945.407 431.186C945.496 431.092 945.584 430.996 945.672 430.901C945.584 430.996 945.496 431.092 945.407 431.186ZM945.981 430.569C946.056 430.488 946.128 430.405 946.202 430.323C946.128 430.405 946.056 430.488 945.981 430.569ZM946.545 429.942C946.602 429.878 946.657 429.812 946.714 429.747C946.657 429.812 946.602 429.878 946.545 429.942ZM947.057 429.353C947.124 429.273 947.191 429.193 947.259 429.113C947.191 429.193 947.124 429.273 947.057 429.353ZM947.591 428.717C947.636 428.663 947.679 428.607 947.724 428.553C947.679 428.607 947.636 428.663 947.591 428.717ZM899.678 421.341C899.991 421.348 900.306 421.352 900.622 421.354L900.17 421.352C900.005 421.349 899.841 421.345 899.678 421.341ZM897.752 421.268C898.254 421.295 898.761 421.317 899.271 421.332C898.761 421.317 898.254 421.295 897.752 421.268ZM953.277 420.022C953.298 419.982 953.319 419.942 953.339 419.901C953.319 419.942 953.298 419.982 953.277 420.022ZM953.659 419.246C953.672 419.218 953.686 419.191 953.699 419.163C953.686 419.191 953.672 419.218 953.659 419.246ZM954.638 417.054C954.646 417.035 954.653 417.015 954.661 416.996C954.653 417.015 954.646 417.035 954.638 417.054ZM954.887 416.438C954.918 416.358 954.95 416.278 954.981 416.198C954.95 416.278 954.918 416.358 954.887 416.438ZM920.793 416.082C920.942 415.968 921.089 415.853 921.234 415.735L921.233 415.736C921.089 415.854 920.942 415.968 920.793 416.082ZM955.184 415.665C955.212 415.588 955.242 415.512 955.271 415.435C955.242 415.512 955.212 415.588 955.184 415.665ZM922.104 414.999L922.117 414.988C922.188 414.926 922.258 414.861 922.328 414.798C922.254 414.865 922.179 414.933 922.104 414.999ZM955.461 414.907C955.485 414.838 955.509 414.769 955.533 414.7C955.509 414.769 955.485 414.838 955.461 414.907ZM955.729 414.126C955.746 414.075 955.764 414.024 955.78 413.974C955.764 414.024 955.746 414.075 955.729 414.126ZM955.955 413.431C955.984 413.34 956.012 413.249 956.04 413.158C956.012 413.249 955.984 413.34 955.955 413.431ZM872.82 412.323C873.096 412.541 873.374 412.753 873.652 412.962C873.374 412.753 873.095 412.54 872.819 412.322L872.82 412.323ZM956.229 412.531C956.241 412.494 956.251 412.456 956.262 412.418C956.251 412.456 956.241 412.494 956.229 412.531ZM956.417 411.873C956.443 411.778 956.468 411.683 956.493 411.588C956.468 411.683 956.443 411.778 956.417 411.873ZM870.337 410.215C870.745 410.586 871.156 410.948 871.569 411.299L870.95 410.764C870.745 410.583 870.54 410.4 870.336 410.214L870.337 410.215ZM956.65 410.993C956.66 410.955 956.67 410.916 956.68 410.878C956.67 410.916 956.66 410.955 956.65 410.993ZM956.824 410.287C956.844 410.204 956.863 410.121 956.883 410.037C956.863 410.121 956.844 410.204 956.824 410.287ZM957.013 409.458C957.023 409.412 957.033 409.366 957.043 409.319C957.033 409.366 957.023 409.412 957.013 409.458ZM919.241 382.012C922.15 383.943 924.285 385.99 925.644 388.154C927.794 391.15 928.869 394.729 928.869 398.89L928.862 399.541C928.818 401.602 928.556 403.529 928.083 405.323C928.606 403.342 928.87 401.198 928.87 398.89C928.87 394.729 927.795 391.151 925.645 388.155C924.286 385.99 922.151 383.943 919.241 382.012ZM861.229 399.546C861.58 400.06 861.933 400.565 862.29 401.061C861.933 400.565 861.58 400.06 861.229 399.546ZM858.497 395.264C858.664 395.544 858.832 395.821 859 396.097C858.832 395.821 858.664 395.544 858.497 395.264ZM917.203 380.753C917.799 381.098 918.369 381.446 918.913 381.799C918.369 381.446 917.799 381.098 917.203 380.753ZM913.08 378.559C913.652 378.843 914.202 379.127 914.727 379.417C914.896 379.502 915.063 379.59 915.229 379.676C915.064 379.59 914.897 379.502 914.728 379.417C914.202 379.127 913.652 378.843 913.08 378.559ZM909.266 376.838C909.584 376.968 909.896 377.101 910.203 377.232C909.502 376.932 908.773 376.634 908.017 376.34L909.266 376.838ZM871.226 364.56C877.235 367.225 884.374 369.598 892.645 371.679C898.041 372.989 902.731 374.378 906.715 375.847L905.361 375.36C901.681 374.07 897.442 372.843 892.646 371.678C883.961 369.493 876.524 366.987 870.333 364.157L871.226 364.56ZM844.05 337.13C844.607 338.862 845.257 340.559 845.999 342.219C848.976 348.71 854.187 354.452 861.63 359.445C863.956 360.954 866.565 362.389 869.457 363.751L868.599 363.34C866.047 362.101 863.724 360.803 861.631 359.445C854.188 354.452 848.977 348.71 846 342.219C845.258 340.559 844.607 338.862 844.05 337.13ZM843.121 333.865C843.164 334.039 843.208 334.213 843.253 334.386C843.208 334.213 843.164 334.039 843.121 333.865ZM842.948 333.154C842.578 331.572 842.281 329.961 842.056 328.321C842.28 329.961 842.578 331.572 842.948 333.154ZM841.551 321.937C841.596 323.859 841.733 325.746 841.962 327.598C841.734 325.754 841.598 323.874 841.552 321.959L841.551 321.937ZM841.592 317.829C841.553 318.708 841.533 319.599 841.533 320.5L841.538 321.23L841.534 320.499C841.534 319.598 841.553 318.708 841.592 317.829ZM926.584 312.389C927.803 313.631 928.994 314.978 930.155 316.432L930.606 317.005L930.607 317.004L930.156 316.433C928.995 314.978 927.803 313.631 926.584 312.389ZM841.764 315.268C841.752 315.396 841.742 315.525 841.731 315.653C841.742 315.525 841.752 315.396 841.764 315.268ZM841.852 314.378C841.829 314.588 841.808 314.799 841.788 315.011C841.808 314.799 841.829 314.588 841.852 314.378ZM841.946 313.552C841.921 313.76 841.897 313.968 841.874 314.178C841.897 313.968 841.921 313.76 841.946 313.552ZM842.054 312.729C842.031 312.894 842.01 313.06 841.988 313.226C842.01 313.06 842.031 312.894 842.054 312.729ZM842.177 311.887C842.158 312.005 842.142 312.124 842.124 312.243C842.142 312.124 842.158 312.005 842.177 311.887ZM842.304 311.116C842.274 311.288 842.247 311.46 842.219 311.632C842.247 311.46 842.274 311.288 842.304 311.116ZM842.456 310.273C842.426 310.432 842.397 310.591 842.368 310.751C842.397 310.591 842.426 310.432 842.456 310.273ZM842.617 309.463C842.579 309.645 842.543 309.828 842.507 310.011C842.543 309.828 842.579 309.645 842.617 309.463ZM842.796 308.636C842.754 308.822 842.714 309.01 842.674 309.197C842.714 309.01 842.754 308.822 842.796 308.636ZM842.967 307.909C842.931 308.056 842.897 308.203 842.862 308.351C842.897 308.203 842.931 308.056 842.967 307.909ZM843.186 307.047C843.139 307.224 843.093 307.401 843.049 307.579C843.093 307.401 843.139 307.224 843.186 307.047ZM875.046 306.915C875.051 306.91 875.057 306.905 875.062 306.899C875.057 306.905 875.051 306.91 875.046 306.915ZM843.399 306.263C843.345 306.455 843.292 306.647 843.24 306.841C843.292 306.647 843.345 306.455 843.399 306.263ZM875.795 306.229C876.05 306.009 876.314 305.796 876.586 305.588L876.649 305.54C876.355 305.763 876.07 305.992 875.795 306.229ZM843.616 305.521C843.562 305.702 843.507 305.883 843.455 306.065C843.507 305.883 843.562 305.702 843.616 305.521ZM916.823 305.018C917.094 305.158 917.363 305.303 917.632 305.452C917.363 305.303 917.094 305.158 916.823 305.018ZM843.838 304.807C843.793 304.948 843.748 305.09 843.704 305.232C843.748 305.09 843.793 304.948 843.838 304.807ZM912.782 303.159C913.434 303.429 914.082 303.717 914.727 304.022C915.386 304.307 916.039 304.615 916.686 304.947C916.039 304.616 915.387 304.307 914.728 304.022C914.082 303.717 913.434 303.43 912.782 303.159ZM844.091 304.042C844.039 304.193 843.988 304.344 843.938 304.496C843.988 304.344 844.039 304.193 844.091 304.042ZM844.356 303.282C844.305 303.426 844.253 303.57 844.203 303.714C844.253 303.57 844.305 303.426 844.356 303.282ZM844.66 302.466C844.595 302.636 844.531 302.806 844.468 302.977C844.531 302.806 844.595 302.636 844.66 302.466ZM845.001 301.604C844.909 301.83 844.818 302.057 844.729 302.285C844.818 302.057 844.909 301.83 845.001 301.604ZM905.642 300.924C906.645 301.139 907.642 301.394 908.631 301.687C907.642 301.394 906.645 301.139 905.642 300.924ZM845.606 300.196C845.509 300.412 845.413 300.629 845.319 300.847C845.413 300.629 845.509 300.412 845.606 300.196ZM898.255 300.044C899.314 300.073 900.366 300.141 901.41 300.251C900.179 300.122 898.937 300.048 897.685 300.031L897.111 300.027L898.255 300.044ZM845.901 299.559C845.808 299.756 845.716 299.954 845.626 300.152C845.716 299.954 845.808 299.756 845.901 299.559ZM846.249 298.841C846.155 299.03 846.062 299.219 845.971 299.41C846.062 299.219 846.155 299.03 846.249 298.841ZM846.651 298.05C846.54 298.263 846.429 298.478 846.321 298.693C846.429 298.478 846.54 298.263 846.651 298.05ZM850.447 292.07C849.661 293.106 848.923 294.177 848.232 295.284L847.82 295.959C847.42 296.629 847.038 297.31 846.676 298.001C847.16 297.076 847.68 296.171 848.233 295.284C848.924 294.177 849.662 293.106 850.447 292.07ZM950.972 296.891C950.883 296.779 950.795 296.666 950.706 296.555C950.795 296.666 950.883 296.779 950.972 296.891ZM950.48 296.276C950.354 296.12 950.229 295.963 950.102 295.809C950.229 295.963 950.354 296.12 950.48 296.276ZM949.869 295.529C949.739 295.372 949.608 295.215 949.477 295.06C949.608 295.215 949.739 295.372 949.869 295.529ZM949.208 294.745C949.099 294.617 948.989 294.489 948.879 294.362C948.989 294.489 949.099 294.617 949.208 294.745ZM948.525 293.96C948.434 293.856 948.342 293.753 948.25 293.649C948.342 293.753 948.434 293.856 948.525 293.96ZM947.876 293.234C947.79 293.139 947.703 293.044 947.616 292.949C947.703 293.044 947.79 293.139 947.876 293.234ZM947.258 292.562C947.152 292.449 947.046 292.335 946.939 292.223C947.046 292.335 947.152 292.449 947.258 292.562ZM850.964 291.404C850.831 291.573 850.699 291.743 850.568 291.913C850.699 291.743 850.831 291.573 850.964 291.404ZM946.6 291.866C946.493 291.755 946.387 291.644 946.279 291.533C946.387 291.644 946.493 291.755 946.6 291.866ZM945.889 291.134C945.809 291.053 945.729 290.973 945.648 290.893C945.729 290.973 945.809 291.053 945.889 291.134ZM851.946 290.208C852.132 289.99 852.32 289.774 852.51 289.56C852.32 289.774 852.132 289.99 851.946 290.208ZM945.241 290.487C945.143 290.391 945.045 290.294 944.946 290.198C945.045 290.294 945.143 290.391 945.241 290.487ZM944.557 289.821C944.459 289.728 944.361 289.635 944.263 289.542C944.361 289.635 944.459 289.728 944.557 289.821ZM943.875 289.177C943.782 289.09 943.688 289.003 943.594 288.916C943.688 289.003 943.782 289.09 943.875 289.177ZM853.485 288.496C853.353 288.635 853.223 288.775 853.093 288.916C853.223 288.775 853.353 288.635 853.485 288.496ZM943.139 288.501C943.051 288.422 942.963 288.343 942.875 288.264C942.963 288.343 943.051 288.422 943.139 288.501ZM854.016 287.945C853.903 288.06 853.793 288.176 853.682 288.291C853.793 288.176 853.903 288.06 854.016 287.945ZM942.461 287.895C942.357 287.803 942.252 287.712 942.147 287.621C942.252 287.712 942.357 287.803 942.461 287.895ZM854.6 287.361C854.464 287.494 854.331 287.628 854.197 287.763C854.331 287.628 854.464 287.494 854.6 287.361ZM941.774 287.297C941.651 287.191 941.526 287.085 941.401 286.979C941.526 287.085 941.651 287.191 941.774 287.297ZM855.133 286.848C855.019 286.956 854.906 287.065 854.793 287.175C854.906 287.065 855.019 286.956 855.133 286.848ZM941.03 286.668C940.894 286.555 940.757 286.442 940.62 286.33C940.757 286.442 940.894 286.555 941.03 286.668ZM855.786 286.24C855.633 286.38 855.48 286.521 855.329 286.663C855.48 286.521 855.633 286.38 855.786 286.24ZM856.32 285.762C856.169 285.895 856.018 286.03 855.869 286.165C856.018 286.03 856.169 285.895 856.32 285.762ZM940.34 286.101C940.196 285.984 940.051 285.868 939.906 285.752C940.051 285.868 940.196 285.984 940.34 286.101ZM856.908 285.252C856.788 285.354 856.669 285.457 856.551 285.561C856.669 285.457 856.788 285.354 856.908 285.252ZM939.546 285.466C939.41 285.359 939.274 285.253 939.138 285.147C939.274 285.253 939.41 285.359 939.546 285.466ZM857.481 284.771C857.368 284.864 857.256 284.958 857.145 285.052C857.256 284.958 857.368 284.864 857.481 284.771ZM938.779 284.871C938.687 284.801 938.595 284.731 938.503 284.661C938.595 284.731 938.687 284.801 938.779 284.871ZM858.156 284.225C858.034 284.322 857.911 284.42 857.79 284.519C857.911 284.42 858.034 284.322 858.156 284.225ZM937.997 284.281C937.91 284.217 937.822 284.154 937.735 284.09C937.822 284.154 937.91 284.217 937.997 284.281ZM858.845 283.688C858.677 283.817 858.51 283.946 858.345 284.076C858.51 283.946 858.677 283.817 858.845 283.688ZM937.275 283.753C937.135 283.652 936.994 283.552 936.853 283.451C936.994 283.552 937.135 283.652 937.275 283.753ZM859.565 283.148C859.372 283.291 859.179 283.434 858.988 283.579C859.179 283.434 859.372 283.291 859.565 283.148ZM860.133 282.737C859.964 282.858 859.796 282.978 859.629 283.101C859.796 282.978 859.964 282.858 860.133 282.737ZM860.8 282.271C860.642 282.379 860.484 282.488 860.327 282.599C860.484 282.488 860.642 282.379 860.8 282.271ZM863.026 280.821C862.328 281.251 861.645 281.692 860.979 282.146C861.645 281.692 862.328 281.251 863.026 280.821ZM934.888 282.103C934.723 281.994 934.557 281.887 934.392 281.779C934.557 281.887 934.723 281.994 934.888 282.103ZM934.09 281.583C933.886 281.453 933.682 281.324 933.477 281.195C933.682 281.324 933.886 281.453 934.09 281.583ZM879.56 274.041C875.267 275.065 871.276 276.487 867.585 278.308L866.8 278.702C865.509 279.363 864.266 280.061 863.07 280.794C864.506 279.913 866.012 279.084 867.586 278.308C871.54 276.357 875.84 274.864 880.484 273.828L879.56 274.041ZM929.929 279.105C930.495 279.412 931.052 279.729 931.6 280.056C931.884 280.222 932.166 280.391 932.447 280.561L931.599 280.055C931.051 279.728 930.494 279.412 929.929 279.105ZM929.586 278.924C929.402 278.826 929.219 278.728 929.033 278.633C929.219 278.728 929.402 278.826 929.586 278.924ZM928.85 278.54C928.618 278.422 928.386 278.305 928.151 278.19C928.386 278.305 928.618 278.422 928.85 278.54ZM928.024 278.129C927.785 278.012 927.544 277.897 927.301 277.784C927.544 277.897 927.785 278.012 928.024 278.129ZM926.792 277.553C926.666 277.496 926.541 277.438 926.414 277.382C926.541 277.438 926.666 277.496 926.792 277.553ZM925.956 277.184C925.807 277.119 925.657 277.054 925.507 276.991C925.657 277.054 925.807 277.119 925.956 277.184ZM925.06 276.807C924.887 276.736 924.715 276.666 924.541 276.597C924.715 276.666 924.887 276.736 925.06 276.807ZM924.159 276.448C923.987 276.381 923.814 276.314 923.641 276.249C923.814 276.314 923.987 276.381 924.159 276.448ZM923.171 276.076C922.993 276.011 922.814 275.946 922.635 275.883C922.814 275.946 922.993 276.011 923.171 276.076ZM922.295 275.765C922.091 275.694 921.886 275.623 921.681 275.555C921.886 275.623 922.091 275.694 922.295 275.765ZM921.292 275.428C921.088 275.361 920.883 275.296 920.678 275.231C920.883 275.296 921.088 275.361 921.292 275.428ZM920.251 275.101C920.092 275.052 919.932 275.004 919.772 274.957C919.932 275.004 920.092 275.052 920.251 275.101ZM919.2 274.791C919.039 274.745 918.877 274.699 918.714 274.654C918.877 274.699 919.039 274.745 919.2 274.791ZM918.252 274.529C918.064 274.479 917.876 274.429 917.688 274.381C917.876 274.429 918.064 274.479 918.252 274.529ZM917.223 274.264C917.01 274.211 916.796 274.159 916.581 274.107C916.796 274.159 917.01 274.211 917.223 274.264ZM916.239 274.027C916.006 273.973 915.772 273.92 915.536 273.868C915.772 273.92 916.006 273.973 916.239 274.027ZM915.152 273.784C914.934 273.737 914.714 273.691 914.494 273.646C914.714 273.691 914.934 273.737 915.152 273.784ZM886.224 272.804C884.583 273.027 882.982 273.302 881.418 273.627L882.361 273.438C883.94 273.134 885.557 272.879 887.213 272.676L886.224 272.804ZM914.063 273.56C913.852 273.518 913.64 273.477 913.427 273.438C913.64 273.477 913.852 273.518 914.063 273.56ZM912.981 273.354C912.733 273.309 912.483 273.266 912.232 273.224C912.483 273.266 912.733 273.309 912.981 273.354ZM911.94 273.174C911.696 273.133 911.45 273.094 911.203 273.056C911.45 273.094 911.696 273.133 911.94 273.174ZM910.725 272.982C910.561 272.958 910.396 272.936 910.231 272.912C910.396 272.936 910.561 272.958 910.725 272.982ZM909.572 272.82C909.427 272.801 909.281 272.782 909.135 272.764C909.281 272.782 909.427 272.801 909.572 272.82ZM908.443 272.678C908.247 272.654 908.049 272.632 907.852 272.61C908.049 272.632 908.247 272.654 908.443 272.678ZM893.339 272.164C891.591 272.245 889.882 272.378 888.211 272.561L889.219 272.457C890.905 272.295 892.63 272.183 894.393 272.122L893.339 272.164ZM907.357 272.557C907.108 272.53 906.857 272.506 906.605 272.481C906.857 272.506 907.108 272.53 907.357 272.557ZM906.185 272.441C905.936 272.419 905.685 272.398 905.435 272.378C905.685 272.398 905.936 272.419 906.185 272.441ZM904.999 272.342C904.75 272.323 904.5 272.305 904.249 272.288C904.5 272.305 904.75 272.323 904.999 272.342ZM903.802 272.258C903.548 272.242 903.294 272.228 903.038 272.214C903.294 272.228 903.548 272.242 903.802 272.258ZM902.593 272.188C902.334 272.176 902.075 272.165 901.814 272.154C902.075 272.165 902.334 272.176 902.593 272.188ZM901.369 272.135C901.096 272.125 900.822 272.117 900.547 272.109C900.822 272.117 901.096 272.125 901.369 272.135ZM897.607 272.066C896.884 272.066 896.166 272.075 895.455 272.091L896.527 272.073C896.886 272.069 897.246 272.066 897.607 272.066ZM920.662 416.18C920.706 416.147 920.75 416.115 920.793 416.082C920.75 416.115 920.706 416.147 920.662 416.18ZM924.414 412.607C924.514 412.484 924.613 412.36 924.71 412.234C924.613 412.36 924.514 412.484 924.414 412.607ZM927.426 407.378C927.473 407.255 927.518 407.131 927.562 407.006C927.518 407.131 927.473 407.255 927.426 407.378ZM843.295 334.546C843.339 334.715 843.384 334.884 843.431 335.052C843.384 334.884 843.339 334.715 843.295 334.546ZM843.457 335.149C843.517 335.367 843.58 335.583 843.643 335.8C843.58 335.583 843.517 335.367 843.457 335.149ZM843.645 335.809C843.708 336.025 843.773 336.241 843.839 336.457C843.773 336.241 843.708 336.025 843.645 335.809ZM843.844 336.474C843.906 336.677 843.97 336.88 844.035 337.083C843.97 336.88 843.906 336.677 843.844 336.474ZM841.987 327.795C842.01 327.971 842.032 328.146 842.056 328.321C842.032 328.146 842.01 327.971 841.987 327.795ZM842.948 333.154C842.995 333.354 843.043 333.553 843.092 333.752C843.043 333.553 842.995 333.354 842.948 333.154ZM841.636 316.975C841.629 317.097 841.623 317.219 841.616 317.342C841.623 317.219 841.629 317.097 841.636 316.975ZM841.694 316.105C841.677 316.342 841.661 316.58 841.646 316.818C841.661 316.58 841.677 316.342 841.694 316.105ZM845.261 300.983C845.173 301.189 845.086 301.396 845.001 301.604C845.086 301.396 845.173 301.189 845.261 300.983ZM851.431 290.824C851.273 291.016 851.118 291.21 850.964 291.404C851.118 291.21 851.273 291.016 851.431 290.824ZM852.974 289.044C852.817 289.215 852.663 289.387 852.51 289.56C852.663 289.387 852.817 289.215 852.974 289.044ZM851.946 290.208C851.807 290.372 851.67 290.537 851.533 290.702C851.67 290.537 851.807 290.372 851.946 290.208Z" fill="currentColor"/>
<path d="M793.167 52.033C831.313 52.033 865.625 76.6195 875.343 112.625H839.279C831.313 94.2756 812.934 82.4939 791.448 82.4939C758.492 82.4939 734.923 108.467 734.923 142.03C734.923 175.593 758.492 201.565 791.448 201.565C812.934 201.565 831.313 189.784 839.279 171.434H875.343C865.625 207.44 831.313 232.026 793.167 232.026C741.138 232.026 700.942 192.919 700.942 142.03C700.942 91.1404 741.171 52 793.167 52" fill="currentColor"/>
<path d="M686.862 155.527H544.412C549.281 182.523 572.2 201.565 599.292 201.565C623.602 201.565 638.54 191.863 647.25 176.979H681.298C670.17 209.156 637.513 232.026 599.292 232.026C547.525 232.026 510 193.942 510 141.997C510 90.0514 547.525 52 598.928 52C655.895 52 691.333 92.4935 686.829 155.527M544.743 126.783H651.39C648.608 98.7309 626.716 81.1078 598.232 81.1078C569.749 81.1078 549.247 100.15 544.743 126.783Z" fill="currentColor"/>
<path d="M884.117 142.013C884.117 91.1333 924.754 52 977.277 52C1029.8 52 1069.77 91.1003 1069.77 142.013C1069.77 192.926 1029.5 232.026 977.277 232.026C925.054 232.026 884.117 192.926 884.117 142.013ZM1035.44 142.013C1035.44 108.423 1010.23 82.4883 977.277 82.4883C944.321 82.4883 918.443 108.456 918.443 142.013C918.443 175.57 944.02 201.538 977.277 201.538C1010.53 201.538 1035.44 175.57 1035.44 142.013Z" fill="currentColor"/>
</svg>
