<?xml version="1.0" encoding="utf-8"?>
<!-- Generator: Adobe Illustrator 25.4.1, SVG Export Plug-In . SVG Version: 6.00 Build 0)  -->
<svg version="1.1" id="Layer_1" xmlns="http://www.w3.org/2000/svg" xmlns:xlink="http://www.w3.org/1999/xlink" x="0px" y="0px"
	 viewBox="0 0 53.8 67.2" style="enable-background:new 0 0 53.8 67.2;" xml:space="preserve">
<g id="_контент">
	<path d="M48,5.4l-6.9-3.9c-3.6-2-7.9-2.1-11.5-0.1l-17,9.8C4.8,15.8,0.1,24.1,0,33v21c0,1.6,1.3,2.8,2.8,2.8c1.5,0,2.8-1.3,2.8-2.8
		V33c0-6.9,3.7-13.3,9.7-16.8l17-9.8c1.9-1,4.1-1,5.9,0.1l6.9,3.9c1.9,1.1,3,3,3,5.2v27.2c0,2.1-1.1,4.1-3,5.2L21.6,61.5v-8.7
		c0-2.2,1.2-4.2,3.1-5.3l10.9-6.4c1.3-0.8,1.8-2.5,1-3.9c-0.8-1.3-2.5-1.8-3.8-1l0,0l-10.9,6.4c-0.1,0-0.2,0.1-0.2,0.1V34
		c0-2.2,1.1-4.1,3-5.2l13.7-8c1.3-0.8,1.8-2.5,1-3.9c-0.8-1.3-2.5-1.8-3.8-1l0,0l-13.7,8C18.2,26,16,29.8,16,34v27.6
		c0,3.1,2.5,5.6,5.6,5.6c1,0,2-0.3,2.8-0.8L48,52.8c3.6-2.1,5.8-5.9,5.8-10.1V15.5C53.8,11.4,51.5,7.5,48,5.4L48,5.4z"/>
</g>
</svg>
