<svg width="1351" height="520" viewBox="0 0 1351 520" fill="none" xmlns="http://www.w3.org/2000/svg">
<path d="M364.945 40.904L313.211 11.6582C286.578 -3.66634 253.298 -3.90636 226.295 11.0766L63.5968 101.87C24.3715 123.795 0 165.319 0 210.222V425.282C0 437.551 9.95171 447.502 22.2206 447.502C34.4894 447.502 44.4411 437.551 44.4411 425.282V210.222C44.4411 181.4 60.0887 154.739 85.2634 140.67L247.897 49.9141C261.32 42.4642 277.872 42.575 291.083 50.2003L342.835 79.4554C356.24 87.2099 364.567 101.667 364.567 117.213V320.844C364.567 336.418 356.212 350.903 342.743 358.657L168.376 459.328V393.285C168.376 377.665 176.777 363.07 190.292 355.177L292.348 295.577C302.946 289.392 306.518 275.785 300.333 265.187C294.148 254.589 280.54 251.016 269.942 257.201L168.385 316.505V255.521C168.385 239.911 176.786 225.306 190.301 217.413L292.357 157.814C302.955 151.628 306.527 138.021 300.342 127.423C294.157 116.825 280.55 113.252 269.952 119.438L167.905 179.028C140.792 194.851 123.953 224.161 123.953 255.512V497.787C123.953 509.576 133.129 519.214 144.734 519.952C144.752 519.952 144.78 519.952 144.798 519.952C145.251 519.98 145.712 519.999 146.174 519.999C146.183 519.999 146.201 519.999 146.211 519.999C146.211 519.999 146.211 519.999 146.22 519.999C146.645 519.999 147.06 519.98 147.485 519.962C147.632 519.962 147.789 519.943 147.937 519.925C148.223 519.906 148.5 519.878 148.777 519.842C148.943 519.823 149.1 519.805 149.266 519.777C149.562 519.731 149.866 519.685 150.162 519.629C150.291 519.602 150.42 519.583 150.54 519.565C150.965 519.482 151.38 519.38 151.796 519.278C151.879 519.26 151.962 519.232 152.045 519.205C152.396 519.112 152.738 519.011 153.079 518.9C153.199 518.863 153.319 518.817 153.43 518.78C153.771 518.66 154.104 518.54 154.445 518.401C154.528 518.365 154.612 518.337 154.685 518.309C155.101 518.134 155.507 517.949 155.904 517.755C155.987 517.718 156.07 517.672 156.153 517.626C156.467 517.469 156.772 517.303 157.076 517.137C157.15 517.1 157.224 517.063 157.298 517.017L364.954 397.116C392.132 381.459 409.017 352.223 409.017 320.807V117.213C409.017 85.7975 392.132 56.5517 364.954 40.904H364.945Z" fill="currentColor"/>
<path d="M588.948 231.579C537.368 231.579 499.979 193.669 499.979 141.579C499.979 89.4886 537.288 51.5786 588.688 51.5786C615.248 51.5786 637.598 60.4286 653.328 77.2786C670.688 95.9286 678.689 122.839 676.369 154.989V156.369H537.029C542.359 181.469 563.509 198.749 589.119 198.749C610.439 198.749 625.829 190.839 634.849 175.279L635.279 174.589H671.559L670.869 176.569C659.519 209.579 626.689 231.759 589.119 231.759L588.948 231.589V231.579ZM638.458 125.069C635.188 99.8786 615.168 83.0286 587.998 83.0286C562.468 83.0286 542.269 99.8786 537.279 125.069H638.458Z" fill="currentColor"/>
<path d="M853.528 228.228C821.548 228.228 797.138 203.898 777.628 184.298C763.708 170.368 751.758 158.418 740.838 158.418H738.858V228.218H703.618V54.9285H738.858V128.338L818.288 54.9285H863.158L772.728 137.108C785.968 143.468 798.518 154.898 810.728 165.988C827.148 180.948 842.618 195.038 857.658 195.038H864.188V228.308H853.528V228.218V228.228Z" fill="currentColor"/>
<path d="M957.209 231.579C905.549 231.579 865.139 192.039 865.139 141.579C865.139 91.1186 905.629 51.5786 957.209 51.5786C1008.79 51.5786 1048.59 91.1186 1048.59 141.579C1048.59 192.039 1008.45 231.579 957.209 231.579ZM957.209 84.4086C925.919 84.4086 901.419 109.509 901.419 141.569C901.419 173.629 925.919 198.729 957.209 198.729C988.499 198.729 1012.32 173.629 1012.32 141.569C1012.32 109.509 988.069 84.4086 957.209 84.4086Z" fill="currentColor"/>
<path d="M694.149 447.259V328.118L646.439 431.879C642.139 441.249 632.689 447.268 622.369 447.268C612.049 447.268 602.689 441.249 598.299 431.879L550.589 329.069V447.268H515.349V273.969H562.029L623.059 408.499L683.489 273.969H729.479V447.268H694.149V447.259Z" fill="currentColor"/>
<path d="M804.969 273.958H769.639V447.259H804.969V273.958Z" fill="currentColor"/>
<path d="M923.249 450.619C871.589 450.619 831.179 411.079 831.179 360.619C831.179 310.159 871.669 270.619 923.249 270.619C962.019 270.619 995.799 295.549 1005.43 331.309L1005.94 333.109H967.599L967.259 332.249C959.519 314.539 942.069 303.449 921.609 303.449C890.749 303.449 867.539 328.039 867.539 360.619C867.539 393.199 890.749 417.779 921.609 417.779C942.069 417.779 959.599 406.779 967.259 388.979L967.599 388.119H1005.94L1005.43 389.929C995.799 425.689 962.019 450.619 923.249 450.619Z" fill="currentColor"/>
<path d="M1069.57 447.259V307.569H1009.91V273.958H1164.47V307.569H1104.82V447.259H1069.57Z" fill="currentColor"/>
<path d="M1259.46 450.619C1207.8 450.619 1167.39 411.079 1167.39 360.619C1167.39 310.159 1207.88 270.619 1259.46 270.619C1311.04 270.619 1350.84 310.159 1350.84 360.619C1350.84 411.079 1310.69 450.619 1259.46 450.619ZM1259.46 303.449C1228.17 303.449 1203.67 328.549 1203.67 360.619C1203.67 392.689 1228.17 417.779 1259.46 417.779C1290.75 417.779 1314.56 392.679 1314.56 360.619C1314.56 328.559 1290.32 303.449 1259.46 303.449Z" fill="currentColor"/>
</svg>
