<svg width="21" height="21" viewBox="0 0 21 21" fill="none" xmlns="http://www.w3.org/2000/svg">
<path d="M14.8047 1.89551H6.20052C3.82455 1.89551 1.89844 3.82162 1.89844 6.19759V14.8018C1.89844 17.1777 3.82455 19.1038 6.20052 19.1038H14.8047C17.1807 19.1038 19.1068 17.1777 19.1068 14.8018V6.19759C19.1068 3.82162 17.1807 1.89551 14.8047 1.89551Z"  stroke-width="1.475" stroke-linecap="round" stroke-linejoin="round"/>
<path d="M13.9399 9.95783C14.046 10.6739 13.9237 11.4052 13.5903 12.0478C13.2569 12.6904 12.7294 13.2114 12.0828 13.5369C11.4361 13.8623 10.7034 13.9756 9.98864 13.8606C9.27393 13.7456 8.61368 13.4082 8.10179 12.8963C7.58991 12.3844 7.25247 11.7242 7.13746 11.0094C7.02246 10.2947 7.13574 9.56195 7.4612 8.91533C7.78667 8.26871 8.30773 7.74117 8.95029 7.40776C9.59285 7.07435 10.3242 6.95204 11.0403 7.05823C11.7707 7.16654 12.4469 7.5069 12.969 8.02904C13.4912 8.55118 13.8315 9.2274 13.9399 9.95783Z"  stroke-width="1.475" stroke-linecap="round" stroke-linejoin="round"/>
<path d="M15.2305 5.76709H15.2388"  stroke-width="2.95" stroke-linecap="round" stroke-linejoin="round"/>
</svg>
