<svg width="22" height="22" viewBox="0 0 22 22" fill="none" xmlns="http://www.w3.org/2000/svg">
<path d="M4.31726 0.286568C4.88395 0.403692 5.33524 0.784431 5.61564 1.28746L6.50885 2.88991C6.83786 3.48011 7.11473 3.9768 7.29554 4.40857C7.48735 4.86658 7.60126 5.31824 7.54919 5.8176C7.49711 6.31696 7.29246 6.7354 7.01029 7.14399C6.74428 7.52917 6.37088 7.95804 5.92718 8.46767L4.61417 9.97585C4.37889 10.2461 4.26124 10.3812 4.25049 10.5501C4.23974 10.719 4.33616 10.8633 4.529 11.1518C6.17259 13.6109 8.38773 15.8268 10.8488 17.4718C11.1374 17.6647 11.2816 17.7611 11.4505 17.7503C11.6194 17.7396 11.7546 17.6219 12.0248 17.3866L13.5331 16.0736C14.0427 15.6299 14.4716 15.2565 14.8568 14.9905C15.2653 14.7083 15.6838 14.5036 16.1831 14.4516C16.6825 14.3995 17.1342 14.5134 17.5922 14.7052C18.0239 14.886 18.5206 15.1629 19.1107 15.4918L20.7133 16.3851C21.2163 16.6655 21.5971 17.1168 21.7142 17.6835C21.8325 18.2561 21.658 18.8316 21.2724 19.3047C19.8735 21.021 17.6322 22.1139 15.281 21.6396C13.8358 21.348 12.4098 20.8623 10.6851 19.8732C7.2197 17.8858 4.11263 14.777 2.12755 11.3157C1.13843 9.59099 0.652719 8.165 0.361176 6.71974C-0.11312 4.36852 0.979715 2.12724 2.69608 0.728334C3.16911 0.342792 3.74466 0.16822 4.31726 0.286568Z" fill="#141B34"/>
</svg>
