<svg width="20" height="20" viewBox="0 0 20 20" fill="none" xmlns="http://www.w3.org/2000/svg">
<path d="M13.332 6.6665C14.6581 6.6665 15.9299 7.19329 16.8676 8.13097C17.8052 9.06865 18.332 10.3404 18.332 11.6665V17.4998H14.9987V11.6665C14.9987 11.2245 14.8231 10.8006 14.5105 10.488C14.198 10.1754 13.7741 9.99984 13.332 9.99984C12.89 9.99984 12.4661 10.1754 12.1535 10.488C11.841 10.8006 11.6654 11.2245 11.6654 11.6665V17.4998H8.33203V11.6665C8.33203 10.3404 8.85882 9.06865 9.7965 8.13097C10.7342 7.19329 12.0059 6.6665 13.332 6.6665Z"  stroke-width="1.48" stroke-linecap="round" stroke-linejoin="round"/>
<path d="M5.0013 7.5H1.66797V17.5H5.0013V7.5Z"  stroke-width="1.48" stroke-linecap="round" stroke-linejoin="round"/>
<path d="M3.33464 4.99984C4.25511 4.99984 5.0013 4.25365 5.0013 3.33317C5.0013 2.4127 4.25511 1.6665 3.33464 1.6665C2.41416 1.6665 1.66797 2.4127 1.66797 3.33317C1.66797 4.25365 2.41416 4.99984 3.33464 4.99984Z"  stroke-width="1.48" stroke-linecap="round" stroke-linejoin="round"/>
</svg>
