<svg width="28" height="28" viewBox="0 0 28 28" fill="none" xmlns="http://www.w3.org/2000/svg">
<path d="M24.3151 5.37851C23.7192 4.78235 23.0117 4.30943 22.233 3.98677C21.4543 3.66412 20.6197 3.49805 19.7768 3.49805C18.9339 3.49805 18.0992 3.66412 17.3205 3.98677C16.5418 4.30943 15.8343 4.78235 15.2384 5.37851L14.0018 6.61518L12.7651 5.37851C11.5615 4.17487 9.92897 3.49867 8.22677 3.49867C6.52456 3.49867 4.89207 4.17487 3.68843 5.37851C2.48479 6.58215 1.80859 8.21464 1.80859 9.91684C1.80859 11.619 2.48479 13.2515 3.68843 14.4552L4.9251 15.6918L14.0018 24.7685L23.0784 15.6918L24.3151 14.4552C24.9113 13.8593 25.3842 13.1518 25.7068 12.3731C26.0295 11.5944 26.1956 10.7597 26.1956 9.91684C26.1956 9.07394 26.0295 8.2393 25.7068 7.4606C25.3842 6.68189 24.9113 5.97439 24.3151 5.37851Z" stroke="currentColor" stroke-width="2" stroke-linecap="round" stroke-linejoin="round"/>
</svg>
