<svg width="21" height="21" viewBox="0 0 21 21" fill="none" xmlns="http://www.w3.org/2000/svg">
<g clip-path="url(#clip0_1299_2938)">
<path d="M19.569 5.69891C19.4668 5.29056 19.2587 4.91642 18.9656 4.61427C18.6725 4.31212 18.3049 4.09267 17.8998 3.97807C16.4199 3.6167 10.5002 3.6167 10.5002 3.6167C10.5002 3.6167 4.58057 3.6167 3.10065 4.01249C2.6956 4.12709 2.32797 4.34654 2.03489 4.64869C1.74181 4.95084 1.53365 5.32498 1.43144 5.73332C1.16059 7.23523 1.02811 8.75882 1.03565 10.2849C1.02599 11.8225 1.15849 13.3577 1.43144 14.8709C1.54412 15.2666 1.75694 15.6265 2.04934 15.9159C2.34174 16.2053 2.70384 16.4144 3.10065 16.5229C4.58057 16.9187 10.5002 16.9187 10.5002 16.9187C10.5002 16.9187 16.4199 16.9187 17.8998 16.5229C18.3049 16.4084 18.6725 16.1889 18.9656 15.8868C19.2587 15.5846 19.4668 15.2105 19.569 14.8021C19.8378 13.3115 19.9703 11.7995 19.9648 10.2849C19.9745 8.74733 19.842 7.21212 19.569 5.69891Z"  stroke-width="1.475" stroke-linecap="round" stroke-linejoin="round"/>
<path d="M8.56641 13.0983L13.5138 10.2848L8.56641 7.47119V13.0983Z"  stroke-width="1.475" stroke-linecap="round" stroke-linejoin="round"/>
</g>
<defs>
<clipPath id="clip0_1299_2938">
<rect width="20.65" height="20.65" fill="white" transform="translate(0.175781 0.174805)"/>
</clipPath>
</defs>
</svg>
