<svg width="28" height="28" viewBox="0 0 28 28" fill="none" xmlns="http://www.w3.org/2000/svg">
<path d="M24.5 11.666C24.5 19.8327 14 26.8327 14 26.8327C14 26.8327 3.5 19.8327 3.5 11.666C3.5 8.88124 4.60625 6.21053 6.57538 4.24139C8.54451 2.27226 11.2152 1.16602 14 1.16602C16.7848 1.16602 19.4555 2.27226 21.4246 4.24139C23.3938 6.21053 24.5 8.88124 24.5 11.666Z"  stroke-width="2" stroke-linecap="round" stroke-linejoin="round"/>
<path d="M14 15.166C15.933 15.166 17.5 13.599 17.5 11.666C17.5 9.73302 15.933 8.16602 14 8.16602C12.067 8.16602 10.5 9.73302 10.5 11.666C10.5 13.599 12.067 15.166 14 15.166Z"  stroke-width="2" stroke-linecap="round" stroke-linejoin="round"/>
</svg>
