<svg width="300" height="88" viewBox="0 0 300 88" fill="none" xmlns="http://www.w3.org/2000/svg">
<path d="M298.48 41.7484H269.334L289.947 21.4541L286.847 18.4026L266.235 38.6968V10H261.852V38.6968L241.239 18.4026L238.14 21.4541L258.752 41.7484H229.605V46.0639H258.752L238.14 66.3582L241.239 69.4098L261.852 49.1154V77.8123H266.235V49.1154L286.847 69.4098L289.947 66.3582L269.334 46.0639H298.48V41.7484ZM264.043 46.0639C262.835 46.0639 261.852 45.0959 261.852 43.9061C261.852 42.7164 262.835 41.7484 264.043 41.7484C265.252 41.7484 266.235 42.7164 266.235 43.9061C266.235 45.0959 265.252 46.0639 264.043 46.0639Z" fill="black"/>
<path d="M37.1928 25.4043L20.9757 68.5576H16.2796L0 25.4043H4.82128L18.659 63.4408L32.4341 25.4043H37.1928Z" fill="black"/>
<path d="M51.1845 33.9199C42.5437 33.9199 37.4719 38.3586 36.9711 45.633H41.354C41.9176 40.4546 45.7371 37.6805 51.1845 37.6805C56.1936 37.6805 59.5748 40.023 59.5748 43.9686C59.5748 46.6811 57.7589 48.2839 52.3741 48.2839H48.492C40.1644 48.2839 35.6562 52.1676 35.6562 58.6407C35.6562 65.6067 40.7279 69.3057 47.4277 69.3057C53.3134 69.3057 58.2598 66.3466 60.0131 60.9216V68.566H64.1455V68.3995V45.0782C64.1455 38.5436 60.0131 33.9199 51.1845 33.9199ZM59.7626 52.7842C59.7626 61.6614 54.0646 65.6067 48.1789 65.6067C42.6064 65.6067 40.227 62.1545 40.227 58.6407C40.227 55.3733 42.3559 51.9827 48.6172 51.9827H51.6228C56.3188 51.9827 58.9486 50.5648 59.7 48.0373H59.7626V52.7842Z" fill="black"/>
<path d="M72.1328 19.2422H76.5157V68.5664H72.1328V19.2422Z" fill="black"/>
<path d="M92.4149 38.3502V58.9405C92.4149 62.701 93.9805 64.8588 97.1737 64.8588H100.555V68.5576H96.5475C90.9123 68.5576 88.032 65.3519 88.032 59.4954V38.3502H81.1445V34.6514H88.032V25.4043H92.4149V34.6514H100.555V38.3502H92.4149Z" fill="black"/>
<path d="M136.743 52.8995H108.942C109.38 60.7904 114.202 65.5373 120.839 65.5373C126.098 65.5373 130.231 62.5782 131.796 58.1396H136.43C134.99 64.6126 128.916 69.2977 120.839 69.2977C110.946 69.2977 104.246 62.2699 104.246 51.6049C104.246 40.9399 111.071 33.9121 120.839 33.9121C129.98 33.9121 136.743 40.6317 136.743 49.5089V52.8995ZM108.942 49.0774H132.297C131.796 42.4193 127.413 37.6725 120.839 37.6725C114.264 37.6725 109.38 42.7277 108.942 49.0774Z" fill="black"/>
<path d="M141.129 51.5433C141.129 41.1249 147.453 33.9121 158.035 33.9121C167.677 33.9121 173 40.0768 173.751 47.5978H169.117C168.679 42.2962 164.797 37.6725 158.035 37.6725C150.396 37.6725 145.762 43.4058 145.762 51.5433C145.762 60.1123 151.085 65.5373 158.035 65.5373C164.985 65.5373 168.491 60.4821 169.117 56.2902H173.751C172.812 63.133 167.364 69.2977 158.035 69.2977C147.954 69.2977 141.129 62.2699 141.129 51.5433Z" fill="black"/>
<path d="M179.895 19.2422H184.277V36.6268C184.277 38.168 184.277 39.3393 184.152 41.6202H184.277C186.031 37.8597 189.662 33.9143 195.862 33.9143C203.249 33.9143 207.757 39.0927 207.757 47.1686V68.5602H203.375V47.7233C203.375 41.0037 199.93 37.7365 194.922 37.7365C189.35 37.7365 184.277 41.8052 184.277 49.4495V68.5602H179.895V19.2422Z" fill="black"/>
</svg>
