<svg width="300" height="87" viewBox="0 0 300 87" fill="none" xmlns="http://www.w3.org/2000/svg">
<g clip-path="url(#clip0_2384_2221)">
<g filter="url(#filter0_i_2384_2221)">
<path d="M152.71 17.9685C152.71 22.7749 148.812 26.6712 144.003 26.6712C139.195 26.6712 135.297 22.7749 135.297 17.9685C135.297 13.162 139.195 9.26562 144.003 9.26562C148.812 9.26562 152.71 13.162 152.71 17.9685Z" fill="#294D62"/>
<path fill-rule="evenodd" clip-rule="evenodd" d="M24.2891 71.2514C24.2891 69.1053 25.4742 67.1345 27.3702 66.128L36.0668 61.5098C37.9628 60.5027 39.148 58.5319 39.148 56.3858V35.5052C39.148 33.3993 38.0063 31.4587 36.1652 30.4349L27.2719 25.4901C25.4307 24.4664 24.2891 22.5258 24.2891 20.4198V13.3769C24.2891 8.92063 29.1064 6.12794 32.9758 8.34105L79.9787 35.2235C81.7123 36.2148 83.8335 36.2459 85.5952 35.3058L89.4651 33.2405C93.3316 31.1771 98.0032 33.9775 98.0032 38.3585V46.1138C98.0032 48.2619 96.8157 50.2341 94.9168 51.2401L32.8114 84.1427C28.9457 86.1903 24.2891 83.3894 24.2891 79.0163V71.2514ZM58.5581 42.9934C57.5908 42.4521 56.3982 43.1509 56.3982 44.259V48.3363C56.3982 49.4275 57.5582 50.128 58.5244 49.6204L62.2821 47.6458C63.3013 47.1103 63.3207 45.6584 62.3161 45.0962L58.5581 42.9934Z" fill="#294D62"/>
<path fill-rule="evenodd" clip-rule="evenodd" d="M79.239 85.5512C75.4593 86.8989 71.4844 84.098 71.4844 80.0865V76.2967C71.4844 73.8458 73.025 71.6592 75.3332 70.8339L89.5065 65.7655C94.3406 64.0368 94.7136 57.3464 90.1018 55.0913L76.8093 48.5914C72.4338 46.4519 72.4819 40.2017 76.8897 38.1295L89.9153 32.0062C94.5412 29.8314 94.299 23.1734 89.5271 21.3402L75.2066 15.8389C72.964 14.9774 71.4844 12.8243 71.4844 10.4231V6.95214C71.4844 2.84886 75.6294 0.0422227 79.4413 1.56402L117.766 16.8631C119.264 17.4609 120.943 17.409 122.401 16.7198L125.129 15.4299C128.98 13.6093 133.415 16.4169 133.415 20.6747V24.5512C133.415 26.8398 132.069 28.9146 129.979 29.8483L110.479 38.5577C105.996 40.5603 105.871 46.8773 110.273 49.0547L118.988 53.3667C120.391 54.0601 122.015 54.1586 123.491 53.6387L125.683 52.8672C129.458 51.5383 133.415 54.338 133.415 58.3394V62.141C133.415 64.5937 131.872 66.7814 129.561 67.6056L79.239 85.5512Z" fill="#294D62"/>
</g>
<path d="M173.965 19.0498L179.537 3.00391H184.124L189.651 19.0498H185.844L184.422 14.5569L184.33 14.0068L181.922 6.71741H181.693L179.285 14.0298L179.217 14.5799L177.795 19.0498H173.965ZM177.519 15.7031L178.666 12.8378H184.972L186.119 15.7031H177.519Z" fill="#294D62"/>
<path d="M193.133 19.0507V7.13086H201.297V9.76697H196.549V19.0507H193.133Z" fill="#294D62"/>
<path d="M210.49 19.3015C209.573 19.3015 208.724 19.1564 207.945 18.866C207.165 18.5757 206.5 18.1707 205.95 17.6511C205.399 17.1163 204.971 16.4821 204.666 15.7485C204.36 15.015 204.207 14.2051 204.207 13.3187V12.9291C204.207 12.058 204.36 11.2557 204.666 10.5222C204.986 9.78863 205.422 9.15447 205.973 8.61956C206.523 8.06946 207.173 7.64921 207.922 7.35886C208.686 7.05322 209.512 6.90039 210.399 6.90039H210.605C211.446 6.90039 212.218 7.03792 212.921 7.31302C213.639 7.57277 214.251 7.94718 214.756 8.43619C215.276 8.92521 215.681 9.5059 215.971 10.1783C216.261 10.8354 216.407 11.5537 216.407 12.3331V14.0294H207.532C207.578 14.4266 207.685 14.7781 207.853 15.0838C208.021 15.3894 208.243 15.6569 208.518 15.8861C208.794 16.1 209.114 16.2681 209.482 16.3904C209.863 16.5127 210.269 16.5737 210.697 16.5737H210.857C211.576 16.5737 212.226 16.4362 212.807 16.1612C213.403 15.8861 213.885 15.5499 214.251 15.1525L215.948 17.2843C215.658 17.5747 215.314 17.8498 214.916 18.1096C214.534 18.3541 214.114 18.568 213.655 18.7514C213.196 18.9195 212.722 19.0494 212.233 19.1411C211.759 19.2481 211.285 19.3015 210.812 19.3015H210.49ZM207.601 11.9434H213.173C213.158 11.5766 213.074 11.2404 212.921 10.9348C212.784 10.6138 212.593 10.3464 212.348 10.1325C212.119 9.90324 211.843 9.72749 211.522 9.60527C211.217 9.46774 210.873 9.39898 210.49 9.39898H210.444C210.093 9.39898 209.757 9.46006 209.436 9.58235C209.13 9.68933 208.855 9.8574 208.61 10.0867C208.366 10.3006 208.151 10.568 207.968 10.8889C207.8 11.1946 207.678 11.546 207.601 11.9434Z" fill="#294D62"/>
<path d="M220.953 19.0507V7.13086H224.347V11.4633H229.117V7.13086H232.534V19.0507H229.117V14.0994H224.347V19.0507H220.953Z" fill="#294D62"/>
<path d="M247.571 21.9848V19.0507H237.664V7.13086H241.081V16.5062H245.667V7.13086H249.084V16.5062H250.804V21.9848H247.571Z" fill="#294D62"/>
<path d="M254.798 19.0491V7.1293H258.215V19.0491H254.798ZM256.473 5.52474C255.892 5.52474 255.418 5.36429 255.051 5.04334C254.699 4.72245 254.523 4.3022 254.523 3.78259C254.523 3.27833 254.699 2.85808 255.051 2.52183C255.418 2.18564 255.892 2.01758 256.473 2.01758C257.069 2.01758 257.55 2.18564 257.917 2.52183C258.3 2.85808 258.491 3.27833 258.491 3.78259C258.491 4.3022 258.3 4.72245 257.917 5.04334C257.55 5.36429 257.069 5.52474 256.473 5.52474Z" fill="#294D62"/>
<path d="M267.554 15.2226L265.536 14.81C264.726 14.489 264.061 14.0459 263.541 13.4805C263.037 12.8998 262.785 12.2044 262.785 11.3945V10.9819C262.785 10.4164 262.891 9.89688 263.105 9.42316C263.319 8.94939 263.618 8.54444 264 8.20825C264.397 7.87206 264.863 7.61225 265.399 7.42889C265.934 7.23022 266.523 7.13086 267.165 7.13086H273.379V19.0507H270.168V15.2226H267.554ZM267.967 12.8845H270.214V9.60653H267.967C267.677 9.60653 267.409 9.64475 267.165 9.72113C266.935 9.78227 266.737 9.88158 266.568 10.0192C266.4 10.1414 266.263 10.2942 266.155 10.4776C266.064 10.6457 266.018 10.8444 266.018 11.0736V11.3257C266.018 11.5397 266.064 11.7459 266.155 11.9446C266.263 12.128 266.4 12.2961 266.568 12.4489C266.737 12.5865 266.935 12.6934 267.165 12.7699C267.409 12.8463 267.677 12.8845 267.967 12.8845ZM265.078 14.3744L268.151 14.9017L265.926 19.0507H262.395L265.078 14.3744Z" fill="#294D62"/>
<path d="M152.711 82.0867V66.041H156.288V82.0867H152.711Z" fill="#294D62"/>
<path d="M162.289 82.0873V70.168H165.683V74.5H170.453V70.168H173.87V82.0873H170.453V77.1362H165.683V82.0873H162.289Z" fill="#294D62"/>
<path d="M179.685 82.0858V70.1664H183.102V82.0858H179.685ZM181.359 68.5614C180.778 68.5614 180.305 68.4013 179.937 68.0801C179.586 67.7594 179.41 67.3391 179.41 66.8198C179.41 66.315 179.586 65.8947 179.937 65.5588C180.305 65.2223 180.778 65.0547 181.359 65.0547C181.955 65.0547 182.437 65.2223 182.804 65.5588C183.186 65.8947 183.377 66.315 183.377 66.8198C183.377 67.3391 183.186 67.7594 182.804 68.0801C182.437 68.4013 181.955 68.5614 181.359 68.5614Z" fill="#294D62"/>
<path d="M198.84 85.0219V82.0873H188.934V70.168H192.351V79.5432H196.937V70.168H200.354V79.5432H202.074V85.0219H198.84Z" fill="#294D62"/>
<path d="M206.756 82.0858V70.1664H210.173V82.0858H206.756ZM208.43 68.5614C207.849 68.5614 207.375 68.4013 207.008 68.0801C206.656 67.7594 206.48 67.3391 206.48 66.8198C206.48 66.315 206.656 65.8947 207.008 65.5588C207.375 65.2223 207.849 65.0547 208.43 65.0547C209.026 65.0547 209.508 65.2223 209.875 65.5588C210.257 65.8947 210.448 66.315 210.448 66.8198C210.448 67.3391 210.257 67.7594 209.875 68.0801C209.508 68.4013 209.026 68.5614 208.43 68.5614Z" fill="#294D62"/>
<path d="M219.373 82.3387C218.762 82.3387 218.204 82.2543 217.699 82.0861C217.195 81.9184 216.759 81.6816 216.392 81.3756C216.025 81.0549 215.735 80.6803 215.521 80.2524C215.322 79.8092 215.223 79.3203 215.223 78.7851V78.5794C215.223 77.2956 215.811 76.3324 216.988 75.6911C218.181 75.034 219.969 74.7051 222.354 74.7051H223.249V74.3616C223.249 73.8264 223.065 73.3985 222.698 73.0778C222.332 72.7566 221.781 72.5965 221.047 72.5965H220.956C220.344 72.5965 219.702 72.6956 219.029 72.8943C218.372 73.0931 217.73 73.3756 217.103 73.7426L215.796 71.3813C216.515 70.9229 217.332 70.5636 218.249 70.3039C219.182 70.0442 220.138 69.9141 221.116 69.9141H221.322C222.087 69.9141 222.783 70.0137 223.409 70.2124C224.036 70.3959 224.571 70.6861 225.015 71.0835C225.473 71.4652 225.825 71.9394 226.07 72.5045C226.329 73.0702 226.459 73.7273 226.459 74.4759V79.3584C226.459 79.8473 226.498 80.3134 226.574 80.7565C226.65 81.1845 226.75 81.6277 226.872 82.0861H223.662C223.585 81.9032 223.524 81.6968 223.478 81.4676C223.432 81.2226 223.394 80.9705 223.363 80.7108C222.905 81.1845 222.339 81.5743 221.667 81.8797C220.994 82.1857 220.229 82.3387 219.373 82.3387ZM220.244 79.7483C220.81 79.7483 221.36 79.641 221.896 79.427C222.431 79.1978 222.889 78.8848 223.272 78.4873V76.6994H222.446C221.116 76.6994 220.122 76.8448 219.465 77.135C218.808 77.4099 218.479 77.8302 218.479 78.3959V78.4645C218.479 78.648 218.517 78.8238 218.594 78.9915C218.685 79.1445 218.808 79.2822 218.961 79.4042C219.113 79.5114 219.297 79.5953 219.511 79.6562C219.74 79.7178 219.985 79.7483 220.244 79.7483Z" fill="#294D62"/>
<path d="M234.37 82.0873V72.8956H230.977V70.168H241.181V72.8956H237.788V82.0873H234.37Z" fill="#294D62"/>
<path d="M245.828 82.0873V70.168H249.176V77.1134H249.291L253.786 70.168H257.501V82.0873H254.176V74.248H254.038L249.015 82.0873H245.828Z" fill="#294D62"/>
<path d="M263.312 82.0873V70.168H269.848C270.399 70.168 270.903 70.2442 271.362 70.3972C271.836 70.5496 272.241 70.7559 272.577 71.0156C272.914 71.2759 273.174 71.5966 273.357 71.9788C273.556 72.3451 273.655 72.7426 273.655 73.1705V73.5832C273.655 74.0569 273.533 74.4848 273.288 74.867C273.043 75.2492 272.7 75.5851 272.256 75.8753C272.883 76.1356 273.365 76.4943 273.701 76.9527C274.053 77.3959 274.229 77.9082 274.229 78.4886V78.9241C274.229 79.3826 274.129 79.8105 273.93 80.2079C273.731 80.5901 273.449 80.926 273.082 81.2162C272.715 81.4917 272.279 81.7057 271.775 81.8581C271.285 82.0111 270.743 82.0873 270.146 82.0873H263.312ZM266.546 79.7952H269.068C269.634 79.7952 270.085 79.6886 270.422 79.4746C270.758 79.2454 270.926 78.9394 270.926 78.5572V78.2822C270.926 77.9 270.758 77.5946 270.422 77.3654C270.101 77.1362 269.657 77.0219 269.092 77.0219H266.546V79.7952ZM266.546 75.0042H268.633C269.183 75.0042 269.612 74.9051 269.917 74.7064C270.238 74.4924 270.399 74.2099 270.399 73.8581V73.6289C270.399 73.2626 270.238 72.9794 269.917 72.7807C269.612 72.5667 269.191 72.46 268.656 72.46H266.546V75.0042Z" fill="#294D62"/>
<path d="M170.406 50.5672V34.5215H175.451L178.822 43.8281H179.052L182.423 34.5215H187.468V50.5672H183.982V38.831H183.776L180.244 48.4356H177.607L174.076 38.831H173.892V50.5672H170.406Z" fill="#294D62"/>
<path d="M192.978 50.5685V38.6488H196.395V50.5685H192.978ZM194.652 37.0443C194.071 37.0443 193.597 36.8838 193.23 36.5629C192.879 36.242 192.703 35.8217 192.703 35.3021C192.703 34.7979 192.879 34.3776 193.23 34.0414C193.597 33.7052 194.071 33.5371 194.652 33.5371C195.249 33.5371 195.73 33.7052 196.097 34.0414C196.479 34.3776 196.67 34.7979 196.67 35.3021C196.67 35.8217 196.479 36.242 196.097 36.5629C195.73 36.8838 195.249 37.0443 194.652 37.0443Z" fill="#294D62"/>
<path d="M206.994 50.798C206.107 50.798 205.282 50.6532 204.518 50.3624C203.769 50.057 203.127 49.6367 202.592 49.1021C202.056 48.567 201.636 47.9405 201.33 47.2222C201.04 46.4887 200.895 45.6864 200.895 44.8153V44.3569C200.895 43.5011 201.04 42.7141 201.33 41.9958C201.636 41.2623 202.064 40.6358 202.615 40.1162C203.165 39.5813 203.807 39.1687 204.54 38.8784C205.29 38.5727 206.092 38.4199 206.948 38.4199H207.132C208.263 38.4199 209.265 38.6491 210.136 39.1076C211.023 39.5661 211.749 40.2079 212.314 41.0331L209.884 42.7752C209.548 42.1792 209.165 41.7437 208.737 41.4686C208.309 41.1783 207.797 41.0331 207.201 41.0331H207.155C206.727 41.0331 206.345 41.1095 206.008 41.2623C205.672 41.4151 205.381 41.6367 205.137 41.9271C204.908 42.2174 204.732 42.5765 204.61 43.0045C204.487 43.4323 204.426 43.929 204.426 44.4944V44.7236C204.426 45.2585 204.495 45.7399 204.633 46.1678C204.77 46.5804 204.961 46.9319 205.206 47.2222C205.451 47.5126 205.741 47.7418 206.077 47.9099C206.429 48.0627 206.819 48.1391 207.247 48.1391H207.361C207.973 48.1391 208.493 47.9863 208.921 47.6807C209.364 47.3598 209.739 46.9243 210.044 46.3741L212.407 48.2308C211.825 49.0408 211.099 49.6748 210.228 50.1332C209.372 50.5764 208.363 50.798 207.201 50.798H206.994Z" fill="#294D62"/>
<path d="M216.453 50.5681V38.6484H219.87V42.2932H222.645C223.257 42.2932 223.822 42.3925 224.342 42.5911C224.862 42.7898 225.305 43.0649 225.672 43.4164C226.054 43.7678 226.345 44.1881 226.544 44.6771C226.758 45.1509 226.864 45.6704 226.864 46.2358V46.6255C226.864 47.191 226.758 47.7182 226.544 48.2072C226.33 48.681 226.032 49.0938 225.649 49.4449C225.267 49.7966 224.808 50.0716 224.273 50.2703C223.753 50.469 223.173 50.5681 222.53 50.5681H216.453ZM219.778 48.0697H221.911C222.339 48.0697 222.706 47.9245 223.012 47.6342C223.318 47.3285 223.471 46.9617 223.471 46.5339V46.2817C223.471 45.8538 223.318 45.4947 223.012 45.2043C222.706 44.8987 222.339 44.7459 221.911 44.7459H219.778V48.0697Z" fill="#294D62"/>
<path d="M231.059 50.5681V38.6484H234.476V43.5539H234.728L239.085 38.6484H242.8L237.64 44.1269L242.869 50.5681H238.902L234.705 45.0439H234.476V50.5681H231.059Z" fill="#294D62"/>
<path d="M246.605 50.5681V38.6484H249.953V45.594H250.068L254.563 38.6484H258.278V50.5681H254.953V42.7287H254.815L249.793 50.5681H246.605Z" fill="#294D62"/>
<path d="M262.074 50.5681L266.202 44.425V44.3333L262.234 38.6484H266.018L268.38 42.4765H268.495L270.857 38.6484H274.549L270.605 44.3333V44.425L274.71 50.5681H270.925L268.403 46.3505H268.265L265.789 50.5681H262.074Z" fill="#294D62"/>
</g>
<defs>
<filter id="filter0_i_2384_2221" x="24.2891" y="-0.687059" width="128.422" height="86.5796" filterUnits="userSpaceOnUse" color-interpolation-filters="sRGB">
<feFlood flood-opacity="0" result="BackgroundImageFix"/>
<feBlend mode="normal" in="SourceGraphic" in2="BackgroundImageFix" result="shape"/>
<feColorMatrix in="SourceAlpha" type="matrix" values="0 0 0 0 0 0 0 0 0 0 0 0 0 0 0 0 0 0 127 0" result="hardAlpha"/>
<feOffset dy="-1.83159"/>
<feGaussianBlur stdDeviation="3.66318"/>
<feComposite in2="hardAlpha" operator="arithmetic" k2="-1" k3="1"/>
<feColorMatrix type="matrix" values="0 0 0 0 0 0 0 0 0 0.215291 0 0 0 0 0.266667 0 0 0 0.1 0"/>
<feBlend mode="normal" in2="shape" result="effect1_innerShadow_2384_2221"/>
</filter>
<clipPath id="clip0_2384_2221">
<rect width="251" height="85" fill="white" transform="translate(24 1)"/>
</clipPath>
</defs>
</svg>
