<svg width="300" height="87" viewBox="0 0 300 87" fill="none" xmlns="http://www.w3.org/2000/svg">
<path d="M51.2824 3.05078H56.3883C56.0375 6.01413 55.5893 9.02621 53.962 11.5801C53.202 12.6622 52.2763 13.4517 51.0778 14.0171L51.0681 6.94992C51.0681 5.84841 50.9414 4.60069 51.0973 3.51868C51.1168 3.34322 51.185 3.197 51.2824 3.05078Z" fill="#415C4B"/>
<path d="M181.688 26.6894C181.766 26.6797 181.844 26.6797 181.913 26.6797C182.371 26.7089 187.174 30.0622 187.584 30.5496C187.584 30.5691 187.584 30.5983 187.574 30.6178C187.486 30.8908 180.967 38.2796 180.237 38.767C180.237 38.7865 180.237 38.806 180.227 38.8255C180.139 39.1179 179.72 39.4494 179.467 39.6248C179.058 39.0497 175.832 37.0514 175.082 36.7102C175.579 36.3788 181.601 27.1281 181.688 26.6894Z" fill="#3B3B3B"/>
<path d="M55.1323 78.2461C56.6913 78.4508 58.7668 78.2168 60.5207 78.4118C67.1856 79.1331 73.9187 81.5409 79.7066 84.9234H75.6726H59.4197C57.0616 84.9234 53.4466 85.1378 51.2055 84.7869C50.8547 84.0948 51.0593 79.6108 51.0593 78.5385C52.4137 78.4411 53.8071 78.4411 55.1323 78.2461Z" fill="#415C4B"/>
<path d="M91.9791 39.9238C92.0668 41.5907 91.9889 43.2868 91.9889 44.9537V54.6333V63.5526C91.9889 65.1513 92.0571 66.7792 91.9694 68.3778L91.8524 68.4363C91.1704 68.3193 90.5175 68.0659 89.8647 67.8417C87.3215 66.9644 85.3337 65.7654 83.229 64.118C81.6797 62.8703 79.9551 60.9792 79.1853 59.1173C78.2888 56.9533 78.6786 54.7016 79.5556 52.6155C81.4361 48.1023 87.4287 41.7759 91.9791 39.9238Z" fill="#415C4B"/>
<path d="M56.1411 66.957C57.7001 66.6841 61.2079 67.6686 62.6988 68.2242C65.8071 69.3745 68.7693 70.9439 71.7412 72.4256C75.8921 74.4531 80.004 76.5781 84.0575 78.7909C86.7176 80.2531 89.329 81.803 91.9891 83.2652C91.9989 83.7233 92.0866 84.3862 91.8235 84.7858C91.0927 85.1465 87.6043 84.9418 86.5812 84.9321H81.0759C80.7641 84.6689 80.3548 84.4837 79.9943 84.2887C72.5012 80.1264 63.8778 77.1045 55.2251 77.4847C53.9 77.5432 52.3409 77.5627 51.0742 77.9233V67.7368C52.7209 67.2105 54.4067 66.9863 56.1411 66.957Z" fill="#415C4B"/>
<path d="M57.1505 3.05043H63.3574C64.3708 3.05043 65.5595 2.93345 66.5437 3.12841C66.8652 4.09345 66.9724 5.2047 67.1381 6.21848C67.8689 10.7025 68.2976 15.4692 66.914 19.885C65.8324 23.326 63.4159 26.5525 60.1809 28.2584C57.3746 29.9155 54.2565 30.3152 51.0508 29.9935L51.0605 14.7478C51.7718 14.4457 52.4247 14.1045 53.0288 13.6171C56.0592 11.1996 56.7705 6.63763 57.1505 3.05043Z" fill="#415C4B"/>
<path d="M151.644 31.4651C151.82 31.4456 151.976 31.4651 152.151 31.4846C152.375 32.8103 152.19 35.7444 152.19 37.2358V55.2499V60.9036C152.19 62.0734 152.141 63.2626 152.248 64.4323C152.317 65.2122 152.443 66.1577 152.95 66.7816C153.846 67.9123 155.269 68.1268 156.614 68.2925C156.633 68.3412 156.643 68.3607 156.653 68.4192C156.779 68.9748 155.766 74.843 155.464 75.2817C153.369 75.3012 151.342 74.9698 149.325 74.4434C149.228 74.3849 149.111 74.3459 149.013 74.2972C147.221 73.4881 145.554 72.5036 144.707 70.6222C144.18 69.4622 143.956 68.1268 143.839 66.8693C143.547 63.6623 143.742 59.9776 143.742 56.7218V38.8442C143.752 37.5575 143.986 33.6974 143.625 32.7421C144.833 32.6251 146.051 32.3814 147.25 32.1864C148.702 31.972 150.192 31.777 151.644 31.4651Z" fill="#3B3B3B"/>
<path d="M67.2804 3.05078H74.4324C74.9781 4.92237 75.5725 6.76471 76.0012 8.66554C77.7356 16.3566 77.0048 22.0396 72.7565 28.7364C69.5215 33.8442 64.2695 38.2113 58.2964 39.5565C55.8702 40.1023 53.5219 39.9659 51.0664 39.7807V30.8126C52.5475 30.9101 53.9799 30.8906 55.4512 30.6469C55.5779 30.6274 55.6948 30.6079 55.8215 30.5787C55.9481 30.5592 56.0651 30.53 56.1917 30.5105C56.3184 30.491 56.4353 30.4617 56.562 30.4325C56.6887 30.4032 56.8056 30.374 56.9225 30.3448C57.0395 30.3155 57.1661 30.2765 57.2831 30.2473C57.4 30.2083 57.5267 30.179 57.6436 30.14C57.7605 30.1011 57.8774 30.0621 58.0041 30.0231C58.121 29.9841 58.238 29.9353 58.3549 29.8963C58.4718 29.8574 58.5887 29.8086 58.7057 29.7599C58.8226 29.7111 58.9395 29.6624 59.0565 29.6137C59.1734 29.5649 59.2903 29.5162 59.3975 29.4577C59.5144 29.409 59.6216 29.3505 59.7385 29.292C59.8555 29.2335 59.9626 29.1848 60.0698 29.1263C60.177 29.0678 60.2939 29.0093 60.4011 28.9508C60.5083 28.8923 60.6155 28.8241 60.7227 28.7656C60.8299 28.7071 60.937 28.6389 61.0442 28.5706C61.1514 28.5024 61.2586 28.4342 61.356 28.3659C61.4632 28.2977 61.5607 28.2295 61.6678 28.1515C61.775 28.0833 61.8725 28.0053 61.9699 27.937C62.0673 27.859 62.1745 27.7908 62.272 27.7128C62.3694 27.6348 62.4668 27.5569 62.5643 27.4789C62.6617 27.4009 62.7592 27.3229 62.8566 27.2352C62.954 27.1572 63.0417 27.0695 63.1392 26.9915C63.2366 26.9038 63.3243 26.8258 63.412 26.738C63.4997 26.6503 63.5971 26.5626 63.6848 26.4749C63.7725 26.3871 63.8602 26.2994 63.9479 26.2117C64.0356 26.1239 64.1233 26.0265 64.2013 25.9387C64.289 25.851 64.3669 25.7535 64.4546 25.656C64.5326 25.5586 64.6203 25.4708 64.6982 25.3733C64.7762 25.2759 64.8541 25.1784 64.9321 25.0809C65.01 24.9834 65.088 24.886 65.1562 24.7787C65.2341 24.6813 65.3023 24.574 65.3803 24.4765C70.0282 17.926 68.5276 10.3714 67.2804 3.05078Z" fill="#415C4B"/>
<path d="M204.163 36.5332L204.514 36.6112C204.651 37.4787 204.67 44.5459 204.407 45.1113H214.317C214.395 45.2283 214.453 45.3648 214.482 45.5012C214.619 46.1836 214.599 51.7691 214.346 52.1785H204.397C204.699 52.6561 204.553 53.7479 204.543 54.3133L204.524 59.7721C204.524 61.2635 204.456 62.8036 204.699 64.2756C204.836 65.0944 205.079 65.9327 205.557 66.6248C206.073 67.3754 206.843 67.7458 207.73 67.9115C209.259 68.1845 213.079 67.9408 214.365 67.044C214.414 67.1122 214.404 67.1025 214.443 67.1902C214.706 67.7166 215.535 71.9666 215.359 72.5028C215.398 72.5807 215.437 72.649 215.476 72.727C215.632 73.0584 215.661 73.3313 215.535 73.6822C215.427 73.77 215.31 73.8187 215.184 73.8772C211.432 75.5051 205.839 75.7975 202.02 74.2476C199.759 73.3216 198.054 71.6255 197.148 69.3542C196.583 67.9505 196.349 66.4201 196.212 64.9092C195.959 62.0336 196.095 59.08 196.095 56.1946V43.0935C196.105 42.0017 196.319 38.6582 195.978 37.9076C195.969 37.8882 195.959 37.8687 195.949 37.8492C198.59 37.5762 201.562 37.0401 204.163 36.5332Z" fill="#3B3B3B"/>
<path d="M75.2607 3.05078H83.1533C85.7841 9.02621 89.0191 13.481 86.9632 20.3532C83.8646 30.7152 70.4959 44.4889 61.434 50.2109C60.8006 50.6105 60.0698 50.8347 59.417 51.1857L59.3195 51.2441C56.5912 52.1994 53.8629 52.3651 51.0664 51.5658V40.5508C53.5024 40.8042 55.8409 40.8139 58.238 40.2778C64.5813 38.8741 70.0671 34.2244 73.497 28.8338C77.7259 22.1956 78.4469 16.5516 76.7515 8.97747C76.313 6.98891 75.6991 5.03934 75.2607 3.05078Z" fill="#415C4B"/>
<path d="M172.984 44.5276C176.131 44.2742 179.707 44.3911 182.621 45.7266C184.804 46.7209 186.402 48.4072 187.24 50.659C187.727 51.975 187.961 53.3884 188.068 54.7921C188.185 56.303 188.302 73.1278 188 73.7809C186.733 74.2488 185.086 74.395 183.751 74.6095C179.357 75.3405 172.068 75.8572 167.966 74.0441C166.738 73.4982 165.842 72.6794 164.77 71.9191C164.721 71.5194 164 70.7591 163.786 70.3594C162.636 68.1369 162.412 64.9493 163.182 62.5709C163.873 60.4458 165.394 58.8569 167.352 57.8627C170.334 56.3517 176.716 55.6986 179.902 56.7514C179.912 56.7319 179.922 56.7222 179.932 56.7027C180.185 56.1958 179.961 55.1722 179.815 54.6556C179.522 53.5834 178.957 52.7353 177.973 52.1992C175.138 50.6492 169.398 51.8385 166.417 52.6963C166.446 52.6281 166.456 52.6086 166.465 52.5403C166.553 52.1212 165.608 46.175 165.364 45.8338C167.946 45.2782 170.382 44.7908 172.984 44.5276ZM175.03 62.0737C173.773 62.2687 172.497 62.5416 171.688 63.6236C171.201 64.2767 171.026 65.1248 171.152 65.9144C171.279 66.6942 171.678 67.3766 172.321 67.8347C173.354 68.5658 174.728 68.6828 175.956 68.673C177.262 68.673 178.587 68.6828 179.883 68.4878C180.107 68.0881 180.136 63.107 179.98 62.4831C179.961 62.4149 179.932 62.3662 179.893 62.3077C178.275 62.0055 176.687 61.9762 175.03 62.0737Z" fill="#3B3B3B"/>
<path d="M233.496 44.3317C237.539 44.0393 241.418 44.7704 244.594 47.4315C247.693 50.0245 249.33 53.8749 249.68 57.8422C250.06 62.2288 249.154 67.015 246.26 70.456C243.854 73.3121 240.482 74.8133 236.809 75.1447C236.789 75.1447 236.76 75.1544 236.74 75.1544C233.515 75.6711 229.306 74.4721 226.685 72.5615C223.498 70.2318 221.628 66.5568 221.043 62.7064C220.371 58.2712 221.131 53.4557 223.839 49.7905C226.227 46.5737 229.608 44.9263 233.496 44.3317ZM234.568 51.5451C232.979 51.8766 231.8 52.4809 230.875 53.8651C229.306 56.2144 229.15 59.8308 229.705 62.531C230.076 64.3051 230.894 66.1182 232.443 67.1514C233.35 67.7558 234.684 68.097 235.776 67.8923C235.795 67.8923 235.815 67.8825 235.834 67.8825C237.179 67.8045 238.309 67.2587 239.196 66.2449C240.969 64.2173 241.301 61.0395 241.106 58.4466C240.95 56.3508 240.355 54.0601 238.679 52.6564C237.52 51.7011 236.049 51.4184 234.568 51.5451Z" fill="#3B3B3B"/>
<path d="M119.157 44.6066C121.847 44.4896 124.478 44.5578 127.06 45.4059C130.431 46.5172 133.199 48.7592 134.806 51.9467C136.989 56.2748 137.057 62.0942 135.527 66.6367C134.475 69.7658 132.487 72.4562 129.486 73.9379C126.777 75.2831 123.25 75.5365 120.317 74.8542C119.44 74.6494 118.573 74.3083 117.715 74.0256C117.589 74.1718 117.618 74.3765 117.618 74.5715V83.5395L109.16 84.9237V46.2345C112.424 45.2987 115.776 44.8503 119.157 44.6066ZM119.196 51.8492L117.618 52.0247V66.8999C119.489 67.9234 121.925 68.3718 124 67.7675C124.254 67.6895 124.497 67.6018 124.741 67.4848C124.975 67.3776 125.208 67.2411 125.433 67.1046C127.138 65.6424 127.703 63.6929 127.869 61.5289C128.073 58.8774 127.742 55.7971 125.93 53.7111C124.828 52.4439 123.279 51.8882 121.632 51.7907C120.843 51.742 119.976 51.7615 119.196 51.8492Z" fill="#3B3B3B"/>
<path d="M85.256 3.04998C86.1427 3.04998 91.3168 2.85502 91.8527 3.23519C92.184 3.82006 91.9891 35.5006 91.9891 39.1755C91.6286 39.3315 91.2778 39.4972 90.927 39.6824C86.1915 42.0999 79.9066 48.7089 78.3086 53.8265C77.646 55.9516 77.9481 58.2813 78.9712 60.2309C81.4754 64.9976 87.0879 67.7757 91.9989 69.2964V81.1107C86.4838 77.8257 80.7738 74.6772 74.9762 71.899C72.6863 70.5538 70.1139 69.4328 67.6877 68.3411C66.6548 67.8732 65.6707 67.3175 64.6281 66.8594C59.9899 64.8611 55.9657 64.4224 51.0742 65.6799V53.6121C54.4749 54.4016 57.7976 54.119 60.9546 52.5788C70.718 47.8024 85.1976 31.6502 88.6859 21.4149C90.4788 16.1608 89.4947 12.3299 87.2925 7.43651C86.6299 5.96459 85.9576 4.50241 85.256 3.04998Z" fill="#415C4B"/>
</svg>
