<?xml version="1.0" encoding="utf-8"?>
<!-- Generator: Adobe Illustrator 25.4.1, SVG Export Plug-In . SVG Version: 6.00 Build 0)  -->
<svg version="1.1" id="Layer_1" xmlns="http://www.w3.org/2000/svg" xmlns:xlink="http://www.w3.org/1999/xlink" x="0px" y="0px"
	 viewBox="0 0 300 87" enable-background="new 0 0 300 87" xml:space="preserve">
<path fill="#3AC0C0" d="M104.5,37.2c0.1,0.7,0.3,1.4,0.4,2c0.2,0.7,0.4,1.3,0.6,2c3.2,8.7,11.1,14.9,19.3,18.7
	c15.2,7,34.7,7.5,50.3,1.7c9.4-3.5,18.5-9.5,22.8-18.9c0.2-0.5,0.4-1,0.6-1.5c0.2-0.5,0.4-1,0.5-1.5c0.2-0.5,0.3-1,0.4-1.5
	c0.1-0.5,0.2-1,0.3-1.6c0-0.3,0-0.6,0.1-0.9c0,0,0,0,0,0c0.1-0.3,0.1-4.2,0-4.4c0-1.6-0.6-3.6-1.1-5.1c-3.4-9.5-12.2-16.1-21.2-19.8
	c-1-0.4-2.1-0.8-3.1-1.2c-1.1-0.4-2.1-0.7-3.2-1c-1.1-0.3-2.2-0.6-3.2-0.9c-1.1-0.3-2.2-0.5-3.3-0.7c-1.9-0.3-3.7-0.6-5.6-0.8
	c-0.4,0-2.7-0.1-2.8-0.2c0,0,0,0-0.1,0H148c0,0,0,0,0,0c-0.2,0.1-2.9,0.2-3.4,0.3c-2,0.2-3.9,0.5-5.9,0.9
	c-12.7,2.5-26.8,9.2-32.4,21.5c-0.2,0.4-0.3,0.8-0.5,1.2c-0.2,0.4-0.3,0.8-0.4,1.2c-0.1,0.4-0.2,0.8-0.4,1.2
	c-0.1,0.4-0.2,0.8-0.3,1.2c-0.1,0.7-0.3,1.4-0.3,2.2c0,0.3,0,0.8-0.1,1v2.5c0,0,0,0,0,0C104.3,35.2,104.4,36.7,104.5,37.2z
	 M166.8,24c0.2,1.5,0.4,3.1,0.6,4.6c0.1,1.5,0.2,3.1,0.2,4.6l-12,0l0-11.7h10.8C166.5,22.3,166.6,23.2,166.8,24z M165.7,16.3
	C165.7,16.3,165.7,16.3,165.7,16.3c3.6,0.2,7.5,1.3,10.4,3.5c0.4,0.3,0.8,0.6,1.2,1c-3.5,0-6.9,0-10.4,0
	C166.6,19.2,166.1,17.8,165.7,16.3z M167.5,34.1c0,0.9,0,1.8-0.1,2.7c0,0.9-0.1,1.8-0.2,2.7c-0.1,0.9-0.2,1.8-0.3,2.7
	c-0.1,0.9-0.3,1.8-0.4,2.6c-0.1,0.3-0.1,0.7-0.3,1c0,0-0.1,0.1-0.1,0.1c-0.3,0.1-9.5,0-10.6,0l0-11.7C159.5,34,163.5,34,167.5,34.1z
	 M166.9,46.5c3.7-0.1,7.4,0,11,0c-0.9,1-2.1,1.8-3.3,2.4c-2.1,1-4.2,1.7-6.5,2c-0.8,0.1-1.6,0-2.4,0.1
	C166,49.5,166.7,48.1,166.9,46.5z M168.9,53.3c2-0.1,4.1-0.4,6-1c1-0.3,2-0.7,3-1.1l0,0c-1.6,2.2-3.2,4.2-5.3,5.9
	c-0.5,0.4-0.9,0.8-1.4,1.2c-1,0-2,0-3,0l-5.7,0l0,0c0-0.2,0.5-1,0.6-1.2c0.3-0.6,0.6-1.2,0.9-1.8s0.6-1.3,0.8-1.9
	C166.2,53.3,167.6,53.4,168.9,53.3z M167.1,45.8c0.2-1,0.4-2,0.5-3c0.2-1.4,0.4-2.9,0.5-4.4c0.1-1.5,0.2-2.9,0.1-4.4
	c2.2,0,4.3,0,6.5,0l7.7,0c-0.1,0.8-0.1,1.6-0.2,2.4c-0.3,2.7-1,5.4-2.5,7.8c-0.4,0.5-0.7,1-1.2,1.5L167.1,45.8z M168.2,33.2
	c0-1.4,0-2.8-0.1-4.1c-0.1-1.4-0.2-2.7-0.4-4.1c-0.2-1.2-0.4-2.3-0.6-3.5c3.6-0.1,7.3,0,10.9,0c0.2,0.1,0.3,0.3,0.4,0.4
	c2.7,2.7,3.9,7.6,3.9,11.3L168.2,33.2z M175,15.1c-0.6-0.2-1.2-0.3-1.9-0.5c-0.6-0.1-1.3-0.3-1.9-0.4c-0.6-0.1-1.3-0.2-1.9-0.2
	c-0.6-0.1-1.3-0.1-1.9-0.1c-0.8,0-1.7,0-2.6,0c-0.7-1.7-1.5-3.3-2.4-4.9c2.9-0.1,5.9,0,8.8,0c0.5,0.3,1,0.8,1.5,1.2
	c0.7,0.6,1.3,1.2,1.9,1.8c0.6,0.6,1.2,1.3,1.7,2c0.6,0.7,1.1,1.5,1.7,2.2C177,15.8,176,15.4,175,15.1z M164,13.8l-0.7,0
	c0,0.8,0,1.6,0,2.3l1.6,0c0.5,1.5,0.9,3,1.3,4.6c-1.8,0-3.5,0-5.3,0l-5.3,0l0-1.6c0-1.1,0.2-2.5,1-3.2c1.1-1.1,3.6-1.2,5-1.2l0-1
	c-3,0-6.1,0-9.1,0c0-1.6,0-3.2,0-4.8c3,0,6,0,9,0C162.5,10.3,163.4,12.2,164,13.8z M152.5,53.5c3,0,6.1,0,9.1,0c0-0.2,0-0.4,0-0.5
	c0-0.1,0-0.3-0.1-0.3c-0.3-0.1-0.8-0.1-1.1-0.1c-1.2,0-3-0.3-3.8-1.1c-1.2-1.2-1-3.3-1-4.9c3.5-0.1,7.1,0,10.6,0
	c-0.2,1.1-0.7,3.3-1.2,4.3c-0.5-0.1-1.1-0.3-1.6-0.4c-0.2,1-0.1,2-0.1,3l0.8,0c-0.7,1.7-1.5,3.5-2.5,5c-1.1,0.1-2.2,0-3.3,0l-5.7,0
	C152.4,56.7,152.5,55.1,152.5,53.5z M152.5,59.1c2.8-0.1,5.7,0,8.5,0c-0.6,1-1.8,2.4-2.7,3.1c-1.4,1.5-3.8,2.6-5.8,2.7L152.5,59.1z
	 M156.3,64.6c0.2-0.2,0.5-0.3,0.8-0.5c0.4-0.3,0.8-0.5,1.1-0.8c1.5-1.2,2.5-2.7,3.7-4.2c2.8,0,5.5,0,8.3,0c-0.9,0.6-1.7,1.1-2.6,1.6
	c-1.5,0.9-3.1,1.6-4.7,2.2C161.9,63.4,157.2,64.7,156.3,64.6z M176,60.6c-1.3,0.5-2.6,0.9-3.9,1.4c-1.3,0.4-2.6,0.8-4,1.1
	c-0.9,0.1-5.9,1.4-6.5,1.2c2-0.7,4-1.4,5.8-2.5c0.6-0.4,1.3-0.7,1.9-1.1c0.5-0.3,1.8-1.4,2.3-1.5c1,0,2,0,3,0c1.6,0,3.3,0,4.9,0
	C178.3,59.5,177.2,60.1,176,60.6z M194.9,46.6c-0.1,0.4-0.8,1.2-1.1,1.5c-3.1,4-7.2,7-11.5,9.5c-0.4,0.2-0.9,0.6-1.4,0.7
	c-0.6,0.1-2,0-2.7,0l-5.8,0c0.5-0.3,0.9-0.7,1.3-1.1c1.6-1.5,3-3.1,4.3-4.8c0.4-0.6,0.8-1.4,1.3-1.9c0.4-0.4,1-0.6,1.4-0.9
	c1.3-0.9,2.5-1.9,3.6-3.1c1.8-0.1,3.6,0,5.4,0C191.4,46.5,193.2,46.5,194.9,46.6C194.9,46.5,194.9,46.6,194.9,46.6z M199.1,35.7
	c-0.3,3-1.3,5.9-2.7,8.6c-0.2,0.5-0.5,1-0.9,1.4c-0.1,0.1-0.2,0.1-0.3,0.1l-10.2,0c1-1.1,1.7-2.5,2.3-3.9c0.9-2,1.4-4.1,1.6-6.3
	c0.1-0.5,0.2-1.1,0-1.6c0.6-0.1,2.4,0,3.2,0c2.3,0,4.7,0,7,0c0,0,0,0.1,0,0.1C199.2,34.6,199.1,35.2,199.1,35.7z M198.2,27.2
	c0.5,1.6,0.8,3.3,1,5c0,0.3,0.1,0.8,0,1c-0.3,0.1-2.4,0-2.9,0l-7.3,0c0-0.1,0.1-0.2,0.1-0.3c0-0.6,0-1.2-0.1-1.8
	c-0.3-3-1.1-6.1-2.8-8.6c-0.2-0.3-0.5-0.7-0.7-1l10.1,0C196.3,22.3,197.8,26,198.2,27.2z M182.9,10c3.4,2,6.6,4.4,9.3,7.3
	c0.4,0.5,2.7,3,2.7,3.4c-0.3,0.1-8.8,0-10.1,0c-1.6-1.6-3.4-3-5.5-4c-1.4-2.4-3.4-4.7-5.4-6.6c-0.5-0.4-0.9-0.9-1.4-1.2
	c1.3-0.1,2.7,0,4,0c1.3,0,2.7-0.1,4.1,0C181.4,9,182.2,9.6,182.9,10z M164.1,3.4c4.7,0.8,9.5,2.2,13.9,4.1c0.4,0.2,1.1,0.4,1.4,0.7
	c-2.6-0.1-5.2,0.1-7.9,0c-0.7-0.4-1.3-0.9-2-1.4c-0.3-0.2-0.6-0.4-1-0.6c-0.3-0.2-0.6-0.4-1-0.6c-0.3-0.2-0.7-0.4-1-0.5
	c-0.3-0.2-0.7-0.3-1-0.5c-0.3-0.2-0.7-0.3-1-0.5c-0.3-0.1-0.7-0.3-1-0.4c-0.4-0.1-0.7-0.3-1.1-0.4c-0.4-0.1-0.7-0.2-1.1-0.4
	C162.3,3,163.3,3.2,164.1,3.4z M158.6,3.1c4.3,0.9,8,2.7,11.6,5.2c-2.8,0-5.5,0-8.3,0c-0.4-0.5-0.8-1.1-1.2-1.7
	c-0.9-1.1-2-2.2-3.1-3.1c-0.4-0.3-0.9-0.5-1.3-0.8C156.9,2.6,158,2.9,158.6,3.1z M152.5,2.4c0.2,0.1,0.5,0.1,0.7,0.1
	c0.3,0,0.7,0.1,1,0.2c2.6,0.7,5.5,3.3,6.9,5.6c-2.8,0-5.7,0-8.5,0C152.4,6.3,152.5,4.3,152.5,2.4z M107.6,44
	c-1.2-2.3-2.1-4.8-2.4-7.4c-0.1-0.9-0.2-1.7-0.2-2.6l15.1,0c0,4,0.9,8,2.4,11.7c-4.6,0.1-9.2,0-13.8,0
	C108.3,45.2,107.9,44.6,107.6,44z M149,34.1l0,11.7c-1.6,0-3.1,0-4.7,0l-2.9,0l0-4.8l-2,0c0,0,0,0.1,0,0.1c-0.1,0.9-0.7,4.2-1.2,4.7
	c-0.1,0-0.1,0-0.3,0c-0.2-0.3-0.3-1.1-0.4-1.6c-0.1-0.8-0.3-1.7-0.4-2.5c-0.1-0.8-0.2-1.7-0.3-2.5s-0.1-1.7-0.2-2.5
	s-0.1-1.7-0.1-2.5C140.7,34,144.9,34,149,34.1z M136.6,33.2c0-0.8,0-1.6,0.1-2.4c0-0.8,0.1-1.6,0.2-2.4c0.1-0.8,0.2-1.6,0.3-2.4
	c0.1-0.8,0.2-1.6,0.4-2.4c0.1-0.6,0.2-1.4,0.4-2l0.5,0c0.2,0.9,0.3,1.8,0.4,2.7l2.8,0l0-2.7c2.5,0,5,0,7.5,0l0,10.3l0,1.4
	C144.9,33.3,140.7,33.2,136.6,33.2z M137.2,46.5c0.1,0.3,0.1,0.6,0.2,0.9c-0.4,0.7-0.9,1.2-1.5,1.7c-0.6,0.4-1.1,0.7-1.8,1
	c-2.3,0.8-5.9,0.6-8.4,0.6c-0.8-1.4-1.6-2.7-2.2-4.1c1.8,0,3.5,0,5.3,0L137.2,46.5z M132.3,53.5c2.3,0,4.7,0,7,0
	c0.4,0.9,0.7,1.7,1.2,2.6c0.2,0.5,1.1,1.9,1.2,2.2c-1.4,0.1-2.8,0-4.2,0c-1.5,0-3.1,0-4.6,0c-1-0.7-4.4-3.8-5-4.8
	C129.4,53.5,130.9,53.5,132.3,53.5z M140.2,53.5l1.2,0l0-7c2.5,0,5.1,0,7.6,0c0,0.7,0,1.4,0,2.1c-0.2,2.3-1.1,3.4-3.4,3.8
	c-0.5,0.1-1,0.2-1.5,0.2c-0.3,0-0.8-0.1-1,0.1c-0.1,0.3,0,0.6,0,0.9c2.9,0,5.8,0,8.7,0l0,4.8c-1.4,0-2.8,0-4.2,0c-1.6,0-3.2,0-4.8,0
	C141.7,57.1,140.7,55,140.2,53.5z M143,13.8c0,0.3,0,0.6,0,1c1.6,0,3.6,0,4.9,1c0,0,0,0,0.1,0.1c1.3,1.3,1.1,3.3,1.1,5l-7.5,0
	c0-1.6,0-3.1,0-4.7c0-0.8-0.1-1.5-0.1-2.3l-1.3,0c0.5-1.5,1.6-3.6,2.5-4.9c1.1,0,2.2,0,3.3,0l5.8,0l0,4.8
	C148.8,13.8,145.9,13.7,143,13.8z M139.3,13.8l-2.6,0l-8.9,0c0.4-0.4,0.8-0.9,1.2-1.3c1-1.1,2.6-2.7,3.9-3.6c1.2,0,2.5,0,3.7,0
	c1.7,0,3.4,0,5.1,0C140.7,10.5,140.1,12.2,139.3,13.8z M129,16.7c1.4,0,2.8,0,4.1,0.2c1.7,0.3,3.4,1.2,4.4,2.6
	c-0.1,0.4-0.2,0.8-0.3,1.2l-1.9,0l-11.8,0c0.6-1.4,1.4-2.7,2.2-4C126.8,16.7,127.9,16.7,129,16.7z M137,21.5
	c-0.7,3.9-1.2,7.8-1.1,11.7l-1.2,0l-3.6,0l0-2.1l-10.2,0c0.1-3.3,1.1-6.6,2.3-9.6L137,21.5z M127.2,34l8.7,0c0,1.4,0,2.9,0.1,4.3
	c0.1,1.4,0.3,2.9,0.5,4.3c0.2,1.1,0.4,2.1,0.5,3.1l-13.8,0c-1.4-3.1-2.1-6.5-2.4-9.8c0-0.6-0.1-1.3-0.1-1.9
	C122.9,34,125.1,34,127.2,34z M123.2,58.3c-0.6-0.1-1.8-0.9-2.4-1.3c-4.5-2.7-8.7-6.1-11.7-10.5c1.6,0,3.2,0,4.8,0l8.8,0
	c0.3,0.5,0.5,1,0.7,1.5c0.5,0.9,1,1.8,1.5,2.6c-1.4,0-2.8,0-4.3,0c0,0.9,0,1.9,0,2.8c2.1,0,4.2,0.1,6.3,0.1c0.7,1,1.6,1.9,2.4,2.8
	c0.7,0.7,1.5,1.4,2.3,2c-1.8,0-3.7,0-5.5,0C125.3,58.3,123.9,58.4,123.2,58.3z M139.9,63.9c-1.1-0.2-2.2-0.4-3.2-0.7
	c-1.1-0.2-2.1-0.5-3.2-0.8c-1.1-0.3-2.1-0.6-3.1-1c-1-0.4-2.1-0.7-3.1-1.2c-0.9-0.4-1.8-0.7-2.6-1.2c1-0.1,1.9,0,2.9,0
	c1.7,0,3.3,0,5,0c0.8,0.5,1.5,1.1,2.3,1.6c2.5,1.6,5,2.7,7.8,3.6C141.8,64.2,140.8,64,139.9,63.9z M145.3,64.2
	c-4.4-1-7.8-2.6-11.5-5.1c0.9,0,1.9,0,2.9,0l5.4,0c0.5,0.6,0.9,1.3,1.4,1.9c0.9,1,1.8,2.1,3,2.8c0.4,0.3,0.9,0.5,1.3,0.8l0,0
	C147.1,64.6,146.1,64.3,145.3,64.2z M150.9,64.8c-0.4-0.1-0.8-0.1-1.1-0.2c-2.3-0.6-4.2-2.4-5.7-4.2c-0.4-0.4-0.7-0.9-1-1.4l8.5,0
	l0,5.9C151.4,64.8,151.2,64.8,150.9,64.8z M151.6,2.4c0.1,0.4,0,1.2,0,1.7l0,4.2c-1,0-2,0-2.9,0l-5.6,0l0,0c0.1-0.5,1-1.4,1.3-1.8
	C146.3,4.2,148.7,2.6,151.6,2.4z M147.6,2.7c0.1,0,0.1,0,0.2,0c0,0.1-1.1,0.7-1.3,0.8c-0.3,0.2-0.6,0.4-0.9,0.7
	c-1.4,1.2-2.4,2.6-3.5,4.1c-2.7,0.1-5.3,0-8,0c-0.1,0-0.1,0-0.2,0c0,0,0,0,0-0.1c0.2-0.2,1-0.6,1.3-0.9
	C138.9,4.9,143.3,3.3,147.6,2.7z M124.9,8.1c0.6-0.4,1.8-0.8,2.5-1.1c0.6-0.2,1.2-0.5,1.8-0.7c0.6-0.2,1.2-0.4,1.8-0.6
	c0.6-0.2,1.2-0.4,1.9-0.6c0.6-0.2,1.3-0.4,1.9-0.5c0.6-0.2,1.3-0.3,1.9-0.5c0.6-0.1,1.3-0.3,1.9-0.4c0.6-0.1,1.3-0.2,1.9-0.3
	c0.6-0.1,1.3-0.2,1.9-0.3l0.1,0l0.1,0c-3.7,1.2-6.8,2.8-10,5.2c-0.9,0.1-1.8,0-2.8,0l-4.9,0c-0.1,0-0.1,0-0.2-0.1L124.9,8.1
	L124.9,8.1z M120.6,10.4c0.8-0.5,1.7-1.1,2.6-1.5c1,0,2,0,3,0l5.5,0c-1,0.7-2.8,2.6-3.7,3.5c-0.4,0.4-0.7,0.9-1.2,1.4l-6.1,0l0,2.9
	c1.4,0,2.7,0,4.1,0c-0.9,1.2-1.4,2.7-2.2,4l-1,0l-12.6,0C112.1,16.5,116.1,13,120.6,10.4z M108.6,21.5l13.8,0
	c-1.2,3.1-2.1,6.3-2.3,9.6l-1.8,0l0,1.8c0,0.1,0,0.2,0,0.2c-0.2,0.1-12.4,0-13.4,0C105.3,28.3,106.1,25.7,108.6,21.5z"/>
<path fill="#3AC0C0" d="M169.8,73.6l0.8,0l0,5l-0.9,0C169.7,76.9,169.7,75.2,169.8,73.6z"/>
<path fill="#3AC0C0" d="M154.7,73.6l0.9,0c0,1.7,0,3.3,0,5l-0.9,0C154.6,76.9,154.7,75.2,154.7,73.6z"/>
<path fill="#3AC0C0" d="M178.3,79.6l0.7,0c-0.4,0.8-1.5,2.3-1.6,3.1c-0.1,0.6,0,1.3,0,1.9l-0.8,0c0-1.2,0.2-1.7-0.4-2.8l-1.1-2.1
	c0.3,0,0.6,0,0.9,0c0.4,0.7,0.7,1.5,1.1,2.3c0.2-0.6,0.6-1.6,1-2.2C178.1,79.6,178.2,79.6,178.3,79.6z"/>
<path fill="#3AC0C0" d="M165.3,73.6l3.9,0l0,0.7c-0.5,0-1,0-1.5,0l0,2.8l0,1.5l-0.9,0c-0.1-1.4,0-2.9,0-4.3l-1.5,0L165.3,73.6z"/>
<path fill="#3AC0C0" d="M171.2,73.6l3.9,0l0,0.7c-0.5,0-1,0-1.5,0l0,2.8l0,1.5l-0.9,0c0-1.4,0-2.9,0-4.3l-1.5,0L171.2,73.6z"/>
<path fill="#3AC0C0" d="M180.2,73.6l3.9,0l0,0.7c-0.5,0-1,0-1.5,0l0,2.8l0,1.5l-0.9,0c0-1.4,0-2.9,0-4.3l-1.5,0L180.2,73.6z"/>
<path fill="#3AC0C0" d="M127.5,79.6c0.1,0,0.1,0,0.2,0c0.1,0.2,0,0.4,0,0.6c-0.6,0-1.3,0-1.9,0l0,1.5l1.8,0l0,0.7l-1.8,0l0,0.9
	l0,1.2l-0.8,0c0-1.7,0-3.3,0-5L127.5,79.6z"/>
<path fill="#3AC0C0" d="M160.3,84.6c-0.7-0.2-1.3-0.5-1.7-1.2c-0.4-0.7-0.4-1.5-0.2-2.3c0.2-0.6,0.6-1.1,1.1-1.4
	c0.8-0.4,1.6-0.4,2.4-0.1l-0.2,0.7c-0.6-0.2-1.2-0.3-1.7,0c-0.4,0.2-0.7,0.6-0.8,1c-0.2,0.5-0.1,1.2,0.1,1.7c0,0,0,0,0,0.1
	c0,0,0,0,0,0.1c0,0,0,0,0,0.1c0,0,0,0,0,0.1c0,0,0,0,0,0.1c0,0,0,0,0.1,0.1c0,0,0,0,0.1,0.1c0,0,0,0,0.1,0.1c0,0,0,0,0.1,0
	c0,0,0,0,0.1,0c0,0,0,0,0.1,0c0,0,0,0,0.1,0c0,0,0,0,0.1,0c0,0,0,0,0.1,0c0,0,0,0,0.1,0c0,0,0,0,0.1,0c0.5,0.2,1.1,0.1,1.5-0.1
	l0.1,0.6c-0.2,0.1-0.5,0.1-0.7,0.2H160.3z"/>
<path fill="#3AC0C0" d="M173,84.6c-0.7-0.2-1.3-0.5-1.7-1.2c-0.3-0.7-0.4-1.6-0.1-2.3c0.2-0.6,0.6-1.1,1.2-1.4
	c0.7-0.3,1.6-0.3,2.3-0.1l-0.2,0.6c-0.6-0.2-1.2-0.3-1.7,0c-0.4,0.2-0.7,0.6-0.8,1c-0.2,0.5-0.1,1.2,0.1,1.7
	c0.2,0.4,0.5,0.6,0.9,0.7c0.5,0.1,1,0.1,1.5-0.1c0,0.2,0.1,0.4,0.1,0.6l-0.7,0.2H173z"/>
<path fill="#3AC0C0" d="M163.2,73.5c0.6,0,1,0,1.6,0.2l-0.2,0.7c-0.4-0.2-0.8-0.2-1.2-0.2c-0.3,0-0.5,0.1-0.7,0.4
	c-0.1,0.1-0.1,0.2-0.1,0.3c0.1,0.6,1.4,0.9,1.8,1.2c0.3,0.2,0.5,0.5,0.6,0.9c0,0.4-0.1,0.7-0.3,1c-0.4,0.4-0.9,0.6-1.5,0.6
	c-0.6,0-1-0.1-1.6-0.3l0.2-0.7c0.4,0.2,0.8,0.3,1.3,0.3c0.3,0,0.6-0.1,0.8-0.3c0.1-0.1,0.2-0.3,0.2-0.5c-0.1-0.6-1.3-0.9-1.8-1.2
	c-0.3-0.2-0.5-0.5-0.6-0.8c0-0.3,0.1-0.7,0.3-1C162.3,73.7,162.7,73.6,163.2,73.5z"/>
<path fill="#3AC0C0" d="M144,79.6l2.7,0l0,0.7c-0.7,0-1.3,0-2,0l0,1.3l1.8,0l0,0.7c-0.6,0-1.2,0-1.8,0c0,0.5,0,1.1,0,1.6
	c0.7,0,1.4,0,2.1,0c0,0.2,0,0.5,0,0.7l0,0.1h-2.8l0,0c-0.1-0.5,0-1.1,0-1.7L144,79.6z M144.1,84.6L144.1,84.6l2.8,0l0-0.1
	C145.9,84.6,145,84.6,144.1,84.6z"/>
<path fill="#3AC0C0" d="M116.2,73.6l2.9,0l0,0.7c-0.7,0-1.4,0-2.1,0l0,1.4l1.9,0l0,0.6c-0.4,0-1.6-0.1-1.9,0l0,0.4l0,1.1
	c0.7,0,1.5,0,2.2,0l0,0.7l-3.1,0C116.2,76.9,116.2,75.2,116.2,73.6z"/>
<path fill="#3AC0C0" d="M184.7,73.6l2.9,0c0,0,0,0,0,0.1c0.1,0.2,0.1,0.4,0,0.6c-0.7,0-1.3,0-2,0v1.4l1.9,0c0,0,0,0,0,0.1
	c0.1,0.2,0.1,0.4,0,0.6c-0.6,0-1.3,0-1.9,0l0,0.5l0,1.1c0.7,0,1.4,0,2.1,0c0,0,0,0,0,0.1c0.1,0.2,0.1,0.4,0,0.6c-1,0-2,0-3,0
	C184.7,76.9,184.7,75.2,184.7,73.6z"/>
<path fill="#3AC0C0" d="M139.1,73.6l2.9,0l0,0.7c-0.7,0-1.4,0-2.1,0l0,1.4l2,0l0,0.6c-0.3,0-1.8-0.1-1.9,0.1l0,0.3l0,1.3
	c0.7,0,1.5,0,2.2,0l0,0.7l-3.1,0C139.1,76.9,139.1,75.2,139.1,73.6z"/>
<path fill="#3AC0C0" d="M175.7,73.6l0.9,0c0,0.9-0.1,2.7,0,3.4c0,0.2,0.1,0.5,0.3,0.6c0.2,0.2,0.4,0.3,0.7,0.3
	c0.3,0,0.6-0.1,0.8-0.3c0.2-0.2,0.3-0.4,0.4-0.7c0.2-0.7,0.1-2.6,0-3.4l0.9,0l0,0.5c0,1,0.2,3.1-0.5,3.9c-0.4,0.4-0.9,0.5-1.4,0.6
	c-0.6,0-1.1-0.1-1.5-0.5c-0.2-0.2-0.4-0.6-0.5-0.9C175.6,76.4,175.7,74.5,175.7,73.6z"/>
<path fill="#3AC0C0" d="M123.2,73.6l0.9,0l0,0.7c0,1,0.2,3-0.5,3.8c-0.4,0.4-0.9,0.5-1.5,0.5c-0.5,0-1.1-0.1-1.5-0.5
	c-0.2-0.2-0.4-0.5-0.5-0.8c-0.2-0.9-0.1-2.8-0.1-3.7l0.9,0c0,0.8-0.1,2.6,0,3.4c0,0.3,0.1,0.5,0.3,0.7c0.2,0.2,0.4,0.3,0.7,0.3
	c0.3,0,0.6-0.1,0.8-0.3c0.2-0.2,0.3-0.4,0.3-0.7C123.3,76.3,123.2,74.4,123.2,73.6z"/>
<path fill="#3AC0C0" d="M168.2,79.6l0.8,0c0.6,1.6,1.1,3.3,1.6,5l-0.9,0c-0.2-0.5-0.3-1-0.5-1.5l-0.5,0l-1,0l-0.5,1.5l-0.8,0
	c0.4-1.2,0.8-2.4,1.1-3.5c0.1-0.4,0.2-1,0.4-1.3C168,79.6,168.1,79.6,168.2,79.6z M168.5,80.4c-0.2,0.7-0.4,1.4-0.6,2.1l0.8,0l0.5,0
	C169,82,168.7,80.7,168.5,80.4z"/>
<path fill="#3AC0C0" d="M144.3,73.6l1,0c0.7,1.6,1.1,3.3,1.7,5l-0.9,0c-0.1-0.4-0.2-1.1-0.5-1.4c-0.1-0.1-0.2-0.1-0.3-0.1
	c-0.5,0-0.9,0-1.4,0c-0.2,0.5-0.3,0.9-0.5,1.4l-0.9,0C143.1,76.9,143.7,75.2,144.3,73.6z M144.8,74.3c-0.3,0.7-0.4,1.4-0.7,2.1
	l0.8,0l0.6,0C145.3,75.8,145.1,75,144.8,74.3z"/>
<path fill="#3AC0C0" d="M136,73.5c0.1,0,0.2,0,0.2,0c0.6,0,1.3,0.1,1.7,0.6c0.2,0.2,0.4,0.7,0.3,1c-0.2,1.9-2.3,1.3-2.6,1.6l0,0.3
	l0,1.6l-0.9,0c0-1.6,0-3.3,0-4.9C135.2,73.6,135.6,73.6,136,73.5z M135.7,74.2l0,1.8c0.5,0,0.9,0,1.4-0.3c0.2-0.2,0.4-0.5,0.3-0.8
	c0-0.2-0.2-0.4-0.3-0.5C136.7,74.1,136.2,74.2,135.7,74.2z"/>
<path fill="#3AC0C0" d="M159.9,73.6l0.8,0l0,5l-0.9,0c-0.8-1.3-1.7-2.6-2.4-3.9c0,1.3,0,2.6,0,3.9l-0.8,0c0-1.6,0-3.3,0-4.9l0.9,0
	c0.3,0.4,0.6,0.9,0.8,1.3c0.5,0.8,1.1,1.7,1.5,2.6C159.8,76.2,159.9,74.9,159.9,73.6z"/>
<path fill="#3AC0C0" d="M151.1,73.6l0.8,0c0,1.1,0,2.2,0,3.3c0,0.5,0,1.1,0,1.7l-0.9,0c-0.9-1.3-1.7-2.6-2.4-4
	c0.2,1.2,0.1,2.8,0.1,4l-0.8,0c0-1.6,0-3.3,0-4.9l0.9,0c0.9,1.2,1.6,2.5,2.4,3.8C151.1,76.1,151.1,74.9,151.1,73.6z"/>
<path fill="#3AC0C0" d="M134.2,79.6c0.5,0,0.9-0.1,1.4,0c0.4,0.1,0.8,0.3,1.1,0.7c0.2,0.3,0.2,0.6,0.1,0.9c-0.1,0.5-0.5,0.8-0.9,1
	c0.8,0.5,0.8,1.6,1.1,2.4l-0.9,0c-0.1-0.2-0.2-0.5-0.2-0.7c-0.1-0.4-0.1-0.9-0.4-1.2c-0.3-0.3-0.7-0.2-1.1-0.2c0,0.7,0,1.4,0,2.1
	l-0.8,0c-0.1-1.6,0-3.3,0-4.9C133.8,79.7,134,79.6,134.2,79.6z M134.4,80.2c-0.1,0.2,0,1.3-0.1,1.7c0.4,0,0.8,0,1.2-0.2
	c0.2-0.2,0.4-0.4,0.4-0.7c0-0.2-0.1-0.4-0.2-0.5c-0.3-0.3-0.7-0.3-1-0.3C134.6,80.2,134.5,80.2,134.4,80.2z"/>
<path fill="#3AC0C0" d="M163.3,79.6c0.5-0.1,1.1-0.1,1.6,0.1c0.4,0.1,0.7,0.4,0.9,0.7c0.1,0.3,0.2,0.6,0.1,0.9
	c-0.1,0.4-0.5,0.7-0.8,0.9c0.7,0.6,0.8,1.6,1.1,2.4l-0.9,0c-0.1-0.2-0.1-0.4-0.2-0.7c-0.1-0.4-0.2-0.9-0.4-1.2
	c-0.3-0.3-0.7-0.2-1.1-0.2l0,2.1l-0.8,0c-0.1-1.6,0-3.3,0-4.9C162.9,79.7,163.1,79.6,163.3,79.6z M163.6,80.2l0,1.6
	c0.5,0,0.9,0,1.3-0.3c0.2-0.2,0.3-0.5,0.3-0.8c0-0.2-0.2-0.3-0.3-0.4C164.4,80.2,164,80.2,163.6,80.2z"/>
<path fill="#3AC0C0" d="M126.4,73.5c0.4,0,0.8,0,1.1,0.1c0.4,0.1,0.8,0.3,1,0.7c0.2,0.3,0.2,0.6,0.1,0.9c-0.1,0.4-0.5,0.7-0.9,0.9
	c0.8,0.6,0.8,1.5,1.1,2.3l0,0.1l-0.9,0c-0.1-0.3-0.2-0.7-0.3-1c-0.1-0.3-0.1-0.6-0.4-0.8c-0.3-0.3-0.8-0.2-1.2-0.2l0,2.1l-0.9,0
	c-0.1-1.6,0-3.3,0-4.9C125.6,73.6,126,73.6,126.4,73.5z M126,74.2l0,1.7c0.5,0,1,0,1.4-0.3c0.2-0.2,0.3-0.4,0.3-0.7
	c0-0.2-0.1-0.3-0.3-0.4C127,74.1,126.5,74.2,126,74.2z"/>
<path fill="#3AC0C0" d="M151.4,79.6l1,0c0,1.7,0.2,3.3,0.3,5l-0.8,0c-0.1-1.2,0-2.5-0.2-3.7l0-0.1l0,0c-0.4,1.3-0.8,2.5-1.3,3.8
	l-0.6,0c-0.5-1.3-0.9-2.7-1.2-4c0,1.4-0.1,2.7-0.2,4.1l-0.8,0c0-0.8,0.1-1.7,0.2-2.5c0.1-0.8,0.1-1.6,0.2-2.4
	c0.1-0.1,0.2-0.1,0.3-0.1l0.7,0c0.5,1.2,0.9,2.5,1.2,3.8C150.5,82.1,150.9,80.9,151.4,79.6z"/>
<path fill="#3AC0C0" d="M139.2,79.7c1-0.2,2.3-0.2,3.1,0.3c0.5,0.3,0.8,0.8,0.9,1.4c0.1,0.7,0,1.6-0.4,2.2c-0.4,0.6-1.1,0.9-1.8,1
	c-0.1,0-0.2,0-0.2,0l0,0h-1.3l0,0c-0.1,0-0.2,0-0.3-0.1c-0.1-0.6,0-1.2,0-1.7L139.2,79.7z M140.3,80.2c-0.1,0-0.2,0-0.3,0.1
	c-0.1,1.2,0,2.4,0,3.7c0.6,0,1.1,0,1.7-0.3c0.4-0.4,0.6-0.9,0.7-1.5c0-0.5-0.1-1.1-0.5-1.5c-0.3-0.4-0.8-0.5-1.3-0.5
	C140.5,80.2,140.4,80.2,140.3,80.2z M139.5,84.6L139.5,84.6l1.3,0l0,0C140.4,84.6,139.9,84.6,139.5,84.6z"/>
<path fill="#3AC0C0" fill-opacity="0.9176" d="M139.5,84.6c0.4,0,0.8,0,1.3,0l0,0L139.5,84.6L139.5,84.6z"/>
<path fill="#3AC0C0" d="M155.1,84.6c-0.7-0.2-1.2-0.5-1.5-1.2c-0.4-0.7-0.4-1.7-0.1-2.4c0.2-0.5,0.6-1,1.1-1.3c0,0,0.1,0,0.1,0
	c0,0,0.1,0,0.1,0c0,0,0.1,0,0.1,0c0,0,0.1,0,0.1,0c0,0,0.1,0,0.1,0c0,0,0.1,0,0.1,0c0,0,0.1,0,0.1,0c0,0,0.1,0,0.1,0
	c0,0,0.1,0,0.1,0s0.1,0,0.1,0c0,0,0.1,0,0.1,0c0,0,0.1,0,0.1,0c0,0,0.1,0,0.1,0c0,0,0.1,0,0.1,0c0,0,0.1,0,0.1,0c0,0,0.1,0,0.1,0
	c0.5,0.2,0.9,0.6,1.2,1.1c0.3,0.7,0.3,1.8,0,2.5c-0.2,0.5-0.6,0.9-1.1,1.2c-0.2,0.1-0.3,0.1-0.5,0.2H155.1z M155.3,80.2
	c-0.4,0.1-0.7,0.4-0.9,0.8c-0.3,0.6-0.3,1.4-0.1,2c0.1,0.4,0.4,0.8,0.8,0.9c0.2,0.1,0.5,0.1,0.7,0.1c0.4-0.2,0.7-0.4,0.9-0.9
	c0.3-0.6,0.3-1.4,0-2c-0.2-0.4-0.4-0.7-0.8-0.8C155.7,80.2,155.5,80.2,155.3,80.2z"/>
<path fill="#3AC0C0" d="M130.1,84.6c-0.7-0.2-1.2-0.5-1.5-1.1c-0.4-0.7-0.4-1.7-0.1-2.5c0.2-0.6,0.6-1,1.1-1.3
	c0.6-0.3,1.2-0.3,1.8-0.1c0.5,0.2,0.9,0.6,1.2,1.1c0.3,0.7,0.3,1.7,0,2.5c-0.2,0.6-0.6,0.9-1.1,1.2c-0.2,0.1-0.3,0.1-0.5,0.2H130.1z
	 M130.3,80.2c-0.4,0.1-0.7,0.4-0.9,0.7c-0.3,0.6-0.3,1.4-0.1,2c0.1,0.4,0.4,0.8,0.8,0.9c0.3,0.1,0.5,0.1,0.8,0.1
	c0.4-0.2,0.7-0.4,0.9-0.9c0.2-0.6,0.2-1.4,0-2c-0.2-0.3-0.4-0.6-0.8-0.8C130.8,80.2,130.5,80.2,130.3,80.2z"/>
<path fill="#3AC0C0" d="M131.3,73.5c0.6,0,1.1,0,1.6,0.3c0.5,0.3,0.9,0.8,1,1.4c0.2,0.7,0.1,1.6-0.3,2.3c-0.4,0.6-0.9,0.8-1.6,1
	c-0.7,0-1.3,0-1.9-0.4c-0.5-0.4-0.8-1-0.9-1.6c-0.1-0.7,0-1.6,0.5-2.2C130.1,73.9,130.7,73.6,131.3,73.5z M131.6,74.1
	c-0.4,0.1-0.8,0.2-1,0.6c-0.4,0.5-0.5,1.2-0.4,1.8c0.1,0.5,0.3,0.9,0.7,1.2c0.2,0.1,0.5,0.2,0.8,0.2c0.5-0.1,0.8-0.2,1-0.6
	c0.4-0.5,0.4-1.3,0.3-1.9c-0.1-0.4-0.3-0.9-0.7-1.1C132.1,74.2,131.8,74.2,131.6,74.1z"/>
</svg>
