<?xml version="1.0" encoding="utf-8"?>
<!-- Generator: Adobe Illustrator 25.4.1, SVG Export Plug-In . SVG Version: 6.00 Build 0)  -->
<svg version="1.1" id="Layer_1" xmlns="http://www.w3.org/2000/svg" xmlns:xlink="http://www.w3.org/1999/xlink" x="0px" y="0px"
	 viewBox="0 0 300 87" enable-background="new 0 0 300 87" xml:space="preserve">
<path d="M125.5,14.4c-0.3-0.7-1.7-3.3-1.8-3.8c0.1,0,0.1-0.1,0.2-0.1c0.3,0.3,0.4,0.8,0.6,1.2c0.5,1.1,1.1,2.2,1.7,3.3
	C125.9,14.9,125.7,14.6,125.5,14.4z"/>
<path d="M173.8,15c0.2-0.5,2.2-4.5,2.3-4.6c0.1,0,0.1,0,0.2,0.1c0,0.2-1.6,3.3-1.8,3.8C174.3,14.6,174,14.9,173.8,15z"/>
<path d="M166.7,39.5c0.6,1.1,1.3,2.2,2,3.2c0.3,0.4,0.6,0.9,0.9,1.3c0.1,0.1,0.1,0.2,0.1,0.3l-0.1,0.1c-0.1,0-0.2,0-0.2-0.1
	c-0.2-0.2-0.3-0.5-0.4-0.7c-0.4-0.5-0.7-1.1-1.1-1.6c-0.2-0.4-0.5-0.8-0.7-1.2c0-0.1,0,0,0-0.1C166.9,40.3,166.8,39.9,166.7,39.5z"
	/>
<path d="M132.7,40.9c-0.3,0.4-0.5,0.7-0.7,1.1c-0.3,0.5-0.6,1-1,1.5c-0.2,0.3-0.4,0.7-0.7,1l-0.2-0.1c0-0.1,0.1-0.2,0.1-0.3
	c0.4-0.6,0.8-1.2,1.2-1.8c0.6-0.9,1.2-1.9,1.7-2.8C133.1,39.9,132.9,40.4,132.7,40.9C132.7,40.9,132.7,40.8,132.7,40.9z"/>
<path d="M162.3,42.2c-0.1-0.8-0.4-1.5-0.4-2.3l0.1,0c0.3,1.4,0.7,2.7,1.2,4c0.2,0.5,0.6,1.4,0.7,1.9c-0.1,0-0.1,0.1-0.2,0.1
	c-0.3-0.6-0.5-1.3-0.7-2C162.7,43.3,162.5,42.7,162.3,42.2z"/>
<path d="M124.1,20.3c-1.2-0.9-2.5-1.6-3.8-2.5c0-0.1,0-0.1,0.1-0.2c0,0,0.1,0,0.1,0c0,0,3.1,2,3.4,2.2c0.6,0.4,1.2,0.7,1.8,1.1
	C125.2,20.9,124.7,20.5,124.1,20.3z"/>
<path d="M174.2,20.9c0.8-0.5,1.6-0.9,2.3-1.4c0.5-0.3,2.6-1.8,2.9-1.9c0.1,0.1,0.1,0.1,0.1,0.2c-1.3,0.8-2.5,1.7-3.8,2.5
	C175.3,20.5,174.7,20.9,174.2,20.9z"/>
<path d="M137.9,39.9l0.1-0.1c0.2,0.5-0.3,1.5-0.3,2c-0.2,0.6-1.1,3.7-1.4,4c0,0-0.1,0-0.1,0c-0.1-0.1,0-0.3,0-0.4
	c0.1-0.5,0.4-1,0.6-1.5C137.2,42.6,137.6,41.3,137.9,39.9z"/>
<path d="M125.2,26.4c-1.4-0.2-2.8-0.3-4.2-0.5c-0.4-0.1-0.9-0.1-1.3-0.2c-0.1-0.1-0.1-0.1-0.1-0.2c0.1-0.1,0.2,0,0.3,0
	c0.6,0.1,1.2,0.2,1.9,0.3c1.4,0.2,2.8,0.3,4.2,0.4l0.1,0.1l0,0.1C125.8,26.4,125.5,26.4,125.2,26.4z"/>
<path d="M174,26.2c1.2-0.1,2.3-0.2,3.5-0.3c0.8-0.1,1.7-0.2,2.5-0.3c0.1,0,0.3,0,0.4,0l0,0.1c-0.1,0.1-0.1,0.1-0.2,0.1
	c-0.5,0.1-1,0.1-1.5,0.2c-1.3,0.2-2.6,0.3-3.9,0.4c-0.2,0-0.5,0-0.8,0c-0.1,0-0.1,0-0.1-0.1L174,26.2z"/>
<path d="M169.6,35.5c1.4,1.1,2.8,2.3,4.3,3.3c0.3,0.2,1.3,0.9,1.5,1.1c0,0.1,0,0.1-0.1,0.2c-0.4-0.1-4.2-3.1-4.9-3.6
	c-0.2-0.3-0.5-0.5-0.7-0.7C169.6,35.7,169.6,35.7,169.6,35.5z"/>
<path d="M128,31.1c0.1,0,0.2,0,0.3,0.1c-0.1,0.2-0.5,0.2-0.6,0.3c-1.8,0.6-3.5,1.1-5.3,1.7c-0.3,0.1-0.7,0.2-1,0.3l0,0l-0.1,0
	c0-0.1,0-0.1,0-0.2c0.3-0.2,0.7-0.2,1-0.3c0.4-0.1,0.8-0.3,1.3-0.4C125.1,32.1,126.6,31.6,128,31.1z"/>
<path d="M172.2,31.5c-0.2-0.1-0.5-0.1-0.6-0.3c0.1-0.1,0.2-0.1,0.3-0.1c1.6,0.6,3.2,1.1,4.8,1.6c0.3,0.1,1.9,0.5,2,0.6l0,0.1
	c-0.1,0.1-0.2,0.1-0.3,0c-0.4-0.1-0.9-0.3-1.4-0.4C175.3,32.5,173.8,32,172.2,31.5z"/>
<path d="M130.4,35.5c-0.2,0.4-0.6,0.7-0.9,1c0,0,0,0,0,0.1c-0.5,0.3-1,0.7-1.5,1.1c-1,0.8-2,1.6-3.1,2.3c-0.1,0.1-0.2,0.1-0.3,0.1
	l0-0.1c0-0.1,0.1-0.2,0.2-0.2c0.7-0.6,1.5-1.1,2.2-1.7C128.2,37.3,129.3,36.4,130.4,35.5z"/>
<path fill="#A20000" d="M165.6,73.3c1.5-1-0.2-2.3,0.6-4c0.1-0.2,0.3-0.4,0.5-0.5c1-0.3,2.3,1.4,3.1,1.8c0.4,0.2,0.7,0.3,1.1,0.1
	l0,0l0.2,0.3c-0.6,0.1-1,0.1-1.5-0.2c-0.6-0.4-2-2-2.8-1.8c-0.2,0-0.3,0.1-0.3,0.3c-0.7,1.5,0.9,3.4-0.7,4.2
	C165.7,73.5,165.7,73.4,165.6,73.3z"/>
<path fill="#9F6900" d="M171.8,68.4C171.8,68.4,171.8,68.5,171.8,68.4c0.1,0.2,0.4,0.2,0.5,0.3c0.7,0.4,1,1.1,1,1.9
	c0,0.6-0.2,1.2-0.3,1.8c-0.1-0.5-0.2-1.6-0.7-1.9c-0.1-0.1-0.3-0.1-0.4,0c-0.3,0.1-0.5,0.4-0.7,0.5l-0.2-0.3
	c-0.2-0.3-0.3-0.7-0.2-1.1c0.1-0.5,0.4-0.9,0.8-1.2C171.6,68.5,171.7,68.5,171.8,68.4z"/>
<path fill="#FECC00" d="M171.7,68.8c0.3,0,0.7,0.2,0.9,0.5c0.4,0.5,0.4,1.1,0.4,1.7l-0.1-0.1c-0.1-0.2-0.2-0.3-0.3-0.5
	c-0.1,0-0.2-0.1-0.3-0.1c-0.4-0.1-0.7,0.2-1,0.4c-0.1-0.2-0.2-0.5-0.2-0.8C171.1,69.4,171.4,69.1,171.7,68.8z"/>
<path fill="#9F6900" d="M128,68.4c0.1,0,0.2,0,0.2,0.1c0.4,0.4,0.7,0.8,0.8,1.3c0,0.3-0.1,0.7-0.2,1l-0.1,0.3
	c-0.3-0.2-0.6-0.6-1-0.6c-0.1,0-0.2,0-0.3,0.1c-0.4,0.4-0.4,1.4-0.5,1.9c-0.2-0.7-0.4-1.5-0.4-2.2c0-0.6,0.3-1.2,0.9-1.5
	C127.6,68.7,127.8,68.6,128,68.4C128,68.5,128,68.5,128,68.4z"/>
<path fill="#FECC00" d="M127.9,68.8c0.1,0,0.1,0,0.2,0c0.2,0,0.4,0.3,0.5,0.4c0.2,0.4,0.2,0.9,0,1.4c-0.1-0.1-0.2-0.2-0.4-0.2
	c-0.3-0.2-0.5-0.2-0.9-0.1c-0.3,0.2-0.4,0.5-0.5,0.8c0-0.4,0-0.8,0.1-1.2C127.1,69.3,127.5,69.1,127.9,68.8z"/>
<path fill="#9F6900" d="M134.2,73.3c0-0.1,0.1-0.1,0.1-0.2c0.2-0.3,0.5-0.6,0.8-0.6c0.4-0.1,0.6,0.1,0.9,0.3
	c0.1,0.1,0.1,0.2,0.2,0.2c0,0.7,0.1,1.4-0.4,2.1c-0.4,0.5-1.3,0.8-2,0.8c-0.1,0-0.1,0-0.2,0c0-0.1,0-0.1,0.1-0.2
	c0.4-0.5,0.6-0.5,0.9-1.1c-0.1-0.4-0.2-0.7-0.7-1c0,0,0,0,0,0L134.2,73.3z"/>
<path fill="#FECC00" d="M135.1,72.8c0.1,0,0.1,0,0.2,0c0.2,0,0.4,0.1,0.5,0.2c0.2,0.2,0.3,0.6,0.2,0.9c0,0.4-0.2,0.9-0.6,1.2
	c-0.1,0.1-0.4,0.3-0.6,0.3c-0.1,0.1-0.2,0.2-0.4,0.2c0.1-0.3,0.4-0.6,0.5-0.9c0.1-0.4-0.3-0.9-0.6-1.2
	C134.7,73.1,134.8,72.9,135.1,72.8z"/>
<path fill="#9F6900" d="M163.7,72.8c0.3-0.2,0.5-0.4,0.9-0.3c0.4,0.1,0.8,0.5,1,0.8c0.1,0.1,0.1,0.1,0.2,0.2
	c-0.1,0.1-0.2,0.1-0.3,0.2c-0.2,0.2-0.4,0.4-0.4,0.7c0,0.3,0.1,0.6,0.3,0.8c0.2,0.2,0.8,0.7,1.1,0.8c-0.2,0-0.3,0-0.5,0
	c-0.8-0.1-1.8-0.4-2.3-1c-0.4-0.6-0.4-1.2-0.2-1.9L163.7,72.8z"/>
<path fill="#FECC00" d="M164.3,72.8c0.1,0,0.2,0,0.2,0c0.4,0,0.6,0.4,0.9,0.7c-0.3,0.3-0.5,0.7-0.5,1.1c0,0.4,0.2,0.6,0.5,0.9
	c0,0-0.1,0-0.1,0c-0.4,0-0.9-0.3-1.1-0.7c-0.2-0.4-0.4-0.8-0.3-1.2C163.8,73.2,164,73,164.3,72.8z"/>
<path fill="#A20000" d="M133.4,12.1c0.2,0.2,0.4,0.3,0.6,0.5c0.3,0.4,0.7,1,1.2,1.2c0.8,0.3,1.2-0.6,1.6-1c0.2-0.1,0.4-0.2,0.6-0.3
	c0.3-0.1,0.7-0.2,1,0c0.1,0,0.1,0.1,0.2,0.1c0.3,0.1,0.6,0.1,0.8,0.4c0.1,0.2,0.2,0.4,0.3,0.6l-0.5-0.1l-0.4,0
	c-0.9,0.1-1,0.3-1.8,0.8c-0.1,0.1-0.2,0.2-0.2,0.3c-0.2,0.3-0.5,0.5-0.9,0.7c-0.3,0.1-0.6,0.1-0.9-0.1C134,14.8,133.7,13,133.4,12.1
	z"/>
<path fill="#FEFEFE" d="M137,14.3c0.2-0.4,0.6-0.8,1-0.9c0.3-0.1,0.5-0.1,0.8,0.1C137.8,13.6,137.7,13.8,137,14.3z"/>
<path fill="#FE0000" d="M138.5,12.6c0.3,0.1,0.6,0.1,0.8,0.4c0.1,0.2,0.2,0.4,0.3,0.6l-0.5-0.1c-0.2-0.2-0.5-0.3-0.7-0.4
	c-1.7,0.2-1.5,1.6-2.6,2c-0.3,0.1-0.6,0.1-0.8,0c-0.6-0.3-0.8-1.3-1-1.9c0.1,0.2,0.2,0.3,0.3,0.4c0.3,0.3,0.7,0.6,1.1,0.6
	c0.7,0,1-0.6,1.4-1C137.3,12.6,137.9,12.6,138.5,12.6z"/>
<path fill="#A20000" d="M161.9,12.3c0.4,0.1,0.8,0.2,1.2,0.4c0.6,0.4,0.9,1.6,1.9,0.9c0.4-0.3,0.7-0.7,1-1c0.2-0.2,0.4-0.4,0.6-0.5
	c-0.3,1-0.6,2.7-1.6,3.2c0,0-0.1,0-0.1,0c0,0-0.1,0-0.1,0c0,0-0.1,0-0.1,0c0,0-0.1,0-0.1,0c0,0-0.1,0-0.1,0c0,0-0.1,0-0.1,0
	c0,0-0.1,0-0.1,0c0,0-0.1,0-0.1,0c-0.4-0.1-0.6-0.4-0.9-0.7c0,0,0,0,0-0.1c0-0.1-0.2-0.3-0.2-0.4c-0.4-0.3-0.7-0.5-1.1-0.6
	c-0.2,0-0.3-0.1-0.5-0.1c0,0,0,0-0.1,0c-0.1,0-0.3,0-0.4,0l-0.5,0.1c0.1-0.2,0.1-0.4,0.3-0.5c0.2-0.3,0.5-0.4,0.9-0.4
	C161.6,12.5,161.7,12.4,161.9,12.3z"/>
<path fill="#FEFEFE" d="M161.2,13.4c0.3-0.1,0.5-0.2,0.8,0c0.4,0.2,0.6,0.5,0.8,0.8c-0.4-0.3-0.7-0.5-1.1-0.6
	C161.6,13.5,161.4,13.5,161.2,13.4C161.2,13.5,161.2,13.4,161.2,13.4z"/>
<path fill="#FE0000" d="M161.4,12.6c0.6,0,1.2,0,1.7,0.5c0.4,0.4,0.7,1,1.4,1.1c0.4,0,0.8-0.3,1.1-0.6c0.1-0.1,0.3-0.3,0.4-0.5
	c-0.2,0.6-0.4,1.6-1.1,1.9c-0.2,0.1-0.6,0.1-0.8,0c-1.1-0.4-0.8-1.8-2.6-2c-0.3,0.1-0.5,0.2-0.7,0.5l-0.5,0.1
	c0.1-0.2,0.1-0.4,0.3-0.5C160.8,12.7,161.1,12.6,161.4,12.6z"/>
<path fill="#9F6900" d="M170.3,61C170.3,60.9,170.3,60.9,170.3,61c0.6-0.2,0.8-0.7,1.6-0.3c0.8,0.4,1.2,1.4,1.5,2.1
	c-0.5-0.4-0.9-0.7-1.5-0.9c-0.2,0.1-0.3,0.1-0.5,0.2c-0.1,0.2-0.3,0.4-0.3,0.6c0,0.1,0,0.1,0.1,0.2c0.1,0.1,0.4,0.1,0.5,0.1
	c1,0,1.6,0.5,1.9,1.4c0.2,0.7,0.2,1.4,0.3,2.1c-0.3-0.5-0.7-1.6-1.3-1.8c-0.1,0-0.2,0-0.3,0c-0.3,0.2-0.4,0.6-0.5,0.8l-0.2-0.2
	c-0.5-0.6-0.7-1.2-0.6-1.9c0-0.1,0.1-0.3,0-0.4l-0.1,0.1c-0.2,0-0.4-0.1-0.6,0l-0.2-0.2c0-0.1-0.1-0.1-0.1-0.2
	c-0.3-0.5-0.1-0.9,0-1.4L170.3,61z"/>
<path fill="#FECC00" d="M171.3,60.8c0.1,0,0.1,0,0.2,0c0.5,0.1,0.8,0.6,1.1,1c-0.3-0.1-0.5-0.2-0.8-0.2c-0.3,0-0.5,0.2-0.7,0.4
	c-0.1,0.1-0.2,0.4-0.3,0.5c-0.1,0.1-0.1,0-0.2,0c-0.2-0.1-0.3-0.2-0.3-0.4c0,0,0-0.1,0-0.1c0,0,0-0.1,0-0.1c0,0,0-0.1,0-0.1
	c0,0,0-0.1,0-0.1c0,0,0-0.1,0-0.1c0,0,0-0.1,0-0.1c0,0,0-0.1,0-0.1c0,0,0-0.1,0-0.1C170.6,61,170.9,60.9,171.3,60.8z"/>
<path fill="#FECC00" d="M171.7,63.1c0.3,0,0.6,0,0.9,0.2c0.6,0.3,0.7,1,0.9,1.6c-0.2-0.2-0.3-0.4-0.6-0.6c-0.2-0.1-0.3-0.1-0.5-0.1
	c-0.3,0.1-0.5,0.4-0.7,0.6c-0.2-0.3-0.4-0.6-0.4-0.9c0-0.2-0.1-0.5,0.1-0.7C171.5,63.1,171.6,63.1,171.7,63.1z"/>
<path fill="#9F6900" d="M126.4,62.9c0.3-0.8,0.6-1.9,1.5-2.2c0.4-0.2,0.8-0.1,1.2,0.1c0.1,0.1,0.3,0.2,0.4,0.3c0,0,0,0,0,0
	c0.1,0.1,0.1,0.1,0.2,0.2c0.2,0.6,0.3,1-0.1,1.5l0,0l-0.2,0.2c-0.2,0-0.4,0-0.7,0c-0.2,0.5,0.5,1-0.6,2.3c0,0.2,0,0.3,0,0.5
	c-0.3-0.3-0.4-0.9-0.8-1.1c-0.1,0-0.2,0-0.3,0c-0.6,0.2-1,1.3-1.2,1.8c0.1-0.9,0-1.9,0.5-2.7c0.4-0.6,0.9-0.8,1.6-0.8
	c0.2,0,0.4,0,0.5,0c0.1,0,0.1-0.1,0.2-0.2c0-0.2-0.1-0.3-0.2-0.4c-0.2-0.2-0.5-0.4-0.7-0.4C127.3,61.9,126.7,62.6,126.4,62.9z"/>
<path fill="#FECC00" d="M128.3,60.8c0.5,0,0.8,0.2,1.2,0.5c0.1,0.2,0.1,0.3,0.1,0.5c0,0.3,0,0.6-0.2,0.8c-0.1,0.1-0.1,0.1-0.3,0
	c-0.1-0.1-0.2-0.2-0.3-0.4c-0.2-0.2-0.3-0.5-0.6-0.6c-0.4-0.1-0.7,0-1.1,0.2C127.5,61.3,127.7,61,128.3,60.8z"/>
<path fill="#FECC00" d="M127.9,63.1c0.1,0,0.3,0,0.4,0c0.1,0.1,0.2,0.2,0.2,0.4c0.1,0.5-0.2,1-0.4,1.4c-0.1-0.2-0.2-0.3-0.4-0.4
	c-0.2-0.2-0.4-0.2-0.7-0.2c-0.3,0.2-0.5,0.4-0.8,0.7c0.1-0.4,0.2-0.9,0.5-1.3C127.1,63.3,127.4,63.2,127.9,63.1z"/>
<path fill="#9F6900" d="M161.9,8.5c0.3,0,0.7-0.1,1,0.2c0.2,0.2,0.3,0.4,0.4,0.7c0.6,0.1,1.1,0.3,1.4,0.9c0.6,0.9,0.4,2.1,0.2,3.1
	c-0.2-0.4-0.4-1-0.8-1.2c-0.1,0-0.2-0.1-0.3-0.1c-0.4,0.1-0.7,0.2-1,0.4c-0.3-0.2-0.5-0.2-0.8-0.2c0,0-0.1,0-0.1,0
	c-0.2,0.1-0.3,0.2-0.5,0.3c-0.4,0.1-0.6,0.1-0.9,0.4c-0.1,0.2-0.2,0.4-0.3,0.5l0.5-0.1c0.2,0,0.3,0,0.4,0c0,0,0,0,0.1,0
	c0.1,0.1,0.3,0.1,0.5,0.1c0.4,0.1,0.8,0.4,1.1,0.6c0.1,0.1,0.2,0.3,0.2,0.4c0,0,0,0,0,0.1c0,0.4,0.1,0.8,0.1,1.2
	c-0.5-0.4-1-0.9-1.7-0.9c-0.8,0.1-0.8,0.7-1.3,0.9c-0.1-0.1-0.1-0.2-0.2-0.3c-0.4-0.5-0.7-1-0.7-1.6c-0.1-1.3,0.9-2,1.6-2.9
	c0.4-0.5,0.6-0.9,0.5-1.5l-0.1-0.3c0.2-0.2,0.3-0.4,0.3-0.7L161.9,8.5z"/>
<path fill="#FECC00" d="M162,8.7c0.4,0,0.6,0,0.9,0.2c0.1,0.1,0.1,0.1,0.2,0.3c-0.1,0.1-0.1,0.2-0.2,0.3c-0.3,0.1-0.3-0.3-0.5-0.4
	c-0.1,0.1-0.1,0.1-0.2,0.2c0,0.1,0.1,0.3,0.2,0.4c0.2,0.2,0.7,0,1,0c0,0,0.1,0,0.1,0c0,0,0.1,0,0.1,0c0,0,0.1,0,0.1,0
	c0,0,0.1,0,0.1,0c0,0,0.1,0,0.1,0.1c0,0,0.1,0,0.1,0.1c0,0,0.1,0.1,0.1,0.1c0,0,0.1,0.1,0.1,0.1c0.5,0.6,0.5,1.4,0.5,2.2
	c-0.2-0.2-0.3-0.3-0.5-0.4c-0.5-0.2-1,0-1.4,0.2c-0.1,0-0.3-0.1-0.4-0.1c-0.5-0.1-1.6,0.4-2,0.7c-0.5,0.4-0.5,1-0.6,1.5l0.4-0.3
	c0.1,0,0.2-0.1,0.3-0.1c0.5-0.2,1.2,0,1.6,0.3c0.5,0.3,0.6,0.6,0.8,1.1c-0.4-0.3-0.8-0.5-1.3-0.5c-0.6,0-1,0.4-1.3,0.7
	c-0.2-0.3-0.4-0.6-0.5-1c-0.6-1.8,1.3-2.6,1.9-3.8c0.2-0.5,0-1,0.2-1.5C161.9,9,162,8.9,162,8.7z"/>
<path fill="#9F6900" d="M135,13.3c-0.1-0.7-0.3-1.4-0.2-2.1c0.1-0.6,0.5-1.3,1.1-1.6c0.2-0.1,0.5-0.1,0.7-0.2
	c0.2-0.2,0.1-0.6,0.4-0.7c0.3-0.2,0.7-0.2,1-0.1l0.3,0.1c0,0.4,0,0.5,0.3,0.7c0,0,0,0,0,0l-0.1,0.3c-0.1,0.4,0,0.7,0.2,1
	c0.2,0.4,0.6,0.7,1,1.1c0.7,0.7,1.2,1.6,0.9,2.6c-0.1,0.5-0.4,0.9-0.6,1.3l-0.2,0.3c-0.5-0.3-0.7-0.9-1.4-0.9
	c-0.6,0-1.1,0.5-1.5,0.9c0-0.2,0.1-1,0-1.2c0.1-0.1,0.1-0.2,0.2-0.3c0.7-0.5,0.8-0.7,1.8-0.8l0.4,0l0.5,0.1
	c-0.1-0.2-0.2-0.4-0.3-0.6c-0.2-0.3-0.5-0.3-0.8-0.4c-0.1-0.1-0.1-0.1-0.2-0.1c-0.3-0.2-0.6-0.1-1,0c-0.1,0-0.1-0.1-0.1-0.1
	c-0.3,0-0.4-0.1-0.7-0.2c-0.3-0.1-0.5-0.1-0.8,0C135.3,12.3,135.1,12.8,135,13.3z"/>
<path fill="#FECC00" d="M137.4,8.7c0.1,0,0.4-0.1,0.5,0c0.5,0.3,0.2,1.5,0.5,2c0.6,0.9,1.7,1.5,1.9,2.7c0.1,0.7-0.2,1.4-0.6,2
	c-0.3-0.3-0.6-0.6-1.1-0.7c-0.6-0.1-1.1,0.2-1.6,0.5c0.1-0.4,0.2-0.7,0.5-1c0.5-0.4,1.2-0.5,1.8-0.5c0.2,0.1,0.5,0.3,0.7,0.4
	c-0.1-0.3-0.1-0.6-0.2-1c-0.1-0.4-0.4-0.6-0.7-0.8c-0.7-0.3-1.3-0.7-2-0.4c-0.3-0.1-0.7-0.3-1-0.3c-0.4,0-0.7,0.2-1,0.5
	c0-0.6-0.1-1.2,0.2-1.8c0.3-0.5,0.8-0.7,1.3-0.9c0.2,0.1,0.3,0.2,0.6,0.2c0.1,0,0.3,0,0.4-0.2c0.1-0.1,0.1-0.2,0.1-0.4
	c0-0.1,0-0.1-0.1-0.2c-0.1,0.1-0.2,0.2-0.2,0.3c-0.1,0.1-0.2,0.1-0.3,0.1c-0.1,0-0.1,0-0.1-0.1c0-0.1,0-0.3,0-0.4
	C137.1,8.9,137.2,8.8,137.4,8.7z"/>
<path fill="#9F6900" d="M141.7,1.1c0.3,0.4,0.5,0.9,0.7,1.4c0.2,0.1,0.3,0,0.5,0c0.3,0,0.6,0.5,0.6,0.7c0,0.2,0,0.5,0.1,0.6
	c0.1,0,0.3,0.1,0.4,0.2c0.1,0.2,0,0.6-0.1,0.8c0,0.1,0.1,0.1,0.1,0.2c0.1,0.1,0.1,0.1,0.3,0.1c0.1-0.1,0.1-0.1,0.2-0.2
	c0.1-0.3,0.1-0.6,0-0.8c-0.1-0.1-0.1-0.2-0.2-0.3c-0.1,0-0.2,0-0.3,0c-0.1-0.1-0.1-0.1,0-0.2c0-0.2,0.2-0.5,0.4-0.6
	c0.1-0.1,0.3-0.1,0.5-0.1c0.2,0.1,0.4,0.2,0.5,0.4c0.4-0.4,0.7-0.5,1.2-0.6c-0.9,1.8-1.3,2.9-1.2,5c0,0.1-0.1,0.2-0.1,0.2
	c-0.3-0.1-0.6-0.2-1-0.3c-1.5-0.4-4.5-0.5-5.9,0.2c-0.1,0-0.2,0-0.3,0c0.2-1.8-0.4-3.5-1.2-5l0.2,0c0.5,0,0.7,0.2,1,0.5
	c0-0.1,0.1-0.1,0.1-0.2c0.1-0.1,0.3-0.2,0.4-0.2c0.2,0,0.3,0.1,0.4,0.2c0.2,0.2,0.5,0.5,0.5,0.8c-0.1,0-0.3-0.1-0.4,0
	c-0.1,0.1-0.2,0.2-0.3,0.4c0,0.3,0,0.6,0.2,0.8c0.1,0.1,0.1,0.1,0.2,0c0.1,0,0.2-0.1,0.2-0.2c-0.1-0.3-0.2-0.6,0-0.8
	c0.1-0.1,0.1-0.2,0.2-0.2c0.1,0,0.3,0,0.4,0.1c0.2,0.2,0.1,0.5,0.2,0.8c0,0.1,0.1,0.1,0.1,0.2c0.1,0,0.2,0,0.3,0
	c0.1,0,0.2-0.1,0.3-0.2c0.1-0.2,0.1-0.5,0-0.7c-0.1-0.2-0.2-0.3-0.3-0.4c-0.3-0.1-0.4,0.1-0.6,0.2c-0.1,0-0.1,0-0.2-0.1
	c0-0.1,0-0.2,0-0.4c0-0.3,0.2-0.6,0.4-0.8c0.2-0.2,0.4-0.1,0.7,0c0.2-0.2,0.3-0.6,0.4-0.9C141.5,1.5,141.6,1.3,141.7,1.1z
	 M142.7,3.6c-0.2,0.2-0.3,0.4-0.4,0.7c0,0.2,0,0.4,0.1,0.5c0,0,0,0,0,0c0,0,0,0,0,0c0,0,0,0,0,0c0,0,0,0,0,0c0,0,0,0,0,0
	c0,0,0,0,0.1,0c0,0,0,0,0.1,0c0,0,0,0,0.1,0c0.1,0,0.1,0,0.2,0c0.1-0.1,0.2-0.1,0.2-0.2c0-0.1,0-0.1,0-0.2c0-0.3,0.2-0.5,0.1-0.8
	C143.1,3.6,142.9,3.6,142.7,3.6z"/>
<path fill="#FECC00" d="M139.8,4.2C139.8,4.2,139.8,4.2,139.8,4.2c0.2,0.1,0.2,0.1,0.2,0.2c0,0.2-0.1,0.2-0.2,0.3
	c-0.1-0.1-0.1-0.1-0.2-0.2C139.6,4.4,139.7,4.3,139.8,4.2z"/>
<path fill="#FECC00" d="M143.5,4.1c0.1,0.1,0.2,0.1,0.2,0.2c0,0.1,0,0.2-0.1,0.3c-0.1-0.1-0.2-0.1-0.2-0.2
	C143.4,4.3,143.4,4.2,143.5,4.1z"/>
<path fill="#FECC00" d="M140.8,5.9c1.2-0.2,3,0.1,4.2,0.4l0,1.2c-0.8-0.3-1.7-0.4-2.5-0.5c-1.4-0.2-2.8,0-4.1,0.4c0-0.4,0-0.8,0-1.2
	C139.2,6.1,140,6,140.8,5.9z"/>
<path fill="#FECC00" d="M141.7,1.7c0.3,0.2,0.5,1.2,0.6,1.5c0.1-0.2,0.2-0.4,0.5-0.5c0.1,0,0.2,0,0.3,0.1c0.1,0.1,0.2,0.2,0.2,0.4
	c-0.2,0.1-0.5,0-0.7,0.1c-0.2,0.1-0.4,0.3-0.4,0.5c-0.1,0.3-0.1,0.6,0.1,0.9c0.1,0.2,0.3,0.3,0.5,0.4c0.4,0.1,0.6-0.1,0.9-0.3
	c0.2,0.2,0.4,0.5,0.7,0.6c0.1,0,0.2,0,0.3-0.1c0.2-0.2,0.3-0.6,0.4-0.8c0-0.4-0.3-0.7-0.5-1c0-0.1,0.1-0.2,0.2-0.2
	c0.1-0.1,0.2-0.1,0.3-0.1c0.3,0.2,0.4,0.6,0.5,0.9c0.2-0.4,0.4-0.7,0.7-1C145.5,4,145.3,5,145,6c-1-0.3-2-0.4-3.1-0.5
	c-0.3,0-0.6,0-0.9,0c-0.3,0-0.6,0-0.9,0.1c-0.3,0-0.6,0.1-0.9,0.1c-0.3,0.1-0.6,0.1-0.9,0.2c-0.2-1-0.6-2-1-2.9
	c0.3,0.3,0.5,0.6,0.8,1c0.1-0.3,0.1-0.7,0.4-0.8c0.1,0,0.2,0,0.3,0.1c0.1,0.1,0.1,0.1,0.1,0.2c-0.1,0.1-0.2,0.1-0.2,0.2
	c-0.2,0.2-0.3,0.6-0.3,0.9c0,0.3,0.1,0.6,0.3,0.7c0.1,0.1,0.2,0.1,0.3,0.1c0.3,0,0.5-0.3,0.6-0.5c0.2,0.1,0.4,0.2,0.6,0.3
	c0.3,0.1,0.5,0,0.7-0.2c0.2-0.3,0.3-0.6,0.2-1c0-0.2-0.2-0.4-0.4-0.6c-0.3-0.2-0.5-0.1-0.9-0.1c0.1-0.2,0.2-0.4,0.3-0.5
	c0.1-0.1,0.2-0.1,0.2-0.1c0.2,0,0.4,0.3,0.6,0.5C141.3,2.7,141.4,2.3,141.7,1.7z"/>
<path fill="#9F6900" d="M158.3,1.1c0.3,0.5,0.5,1,0.7,1.5c0.2-0.1,0.5-0.1,0.7,0c0.2,0.1,0.3,0.3,0.4,0.5c0.1,0.2,0,0.5,0.1,0.8
	c0.2,0.1,0.4,0.2,0.4,0.4c0.1,0.3-0.3,0.6,0.1,0.9c0,0,0.1,0,0.1,0c0.1,0,0.2-0.1,0.2-0.2c0.1-0.2,0.1-0.5,0.1-0.7
	c0-0.1-0.1-0.3-0.2-0.3c-0.1-0.1-0.3,0-0.5,0c0.1-0.3,0.4-0.9,0.7-1.1c0.1,0,0.2,0,0.3,0c0.2,0.1,0.3,0.4,0.5,0.4
	c0.4-0.3,0.6-0.4,1.2-0.5c-1,1.7-1.4,3.2-1.2,5.1l-0.3-0.1c-2-0.9-4.8-0.6-6.8,0.1c-0.1-0.1-0.1-0.1-0.1-0.2
	c0.1-1.8-0.4-3.3-1.2-4.9c0.5,0,0.8,0.1,1.1,0.5c0,0,0,0,0,0c0.1-0.2,0.3-0.4,0.5-0.5c0.1,0,0.2,0,0.3,0.1c0.3,0.2,0.5,0.9,0.9,0.9
	l0,0c0-0.4,0-0.8,0.2-1.1c0.1-0.2,0.3-0.2,0.5-0.2c0.1,0,0.2,0,0.3,0c0.2-0.2,0.3-0.6,0.4-0.9C158,1.5,158.1,1.3,158.3,1.1z
	 M159.2,3.6c-0.2,0.2-0.3,0.4-0.4,0.6c0,0.2,0,0.4,0.1,0.6c0.1,0.1,0.2,0.2,0.4,0.2c0,0,0,0,0,0c0.1-0.1,0.2-0.1,0.3-0.2
	c0,0,0-0.1,0-0.1c0-0.2,0.2-0.8,0-0.9C159.6,3.6,159.4,3.6,159.2,3.6z M157,3.6c-0.1,0.1-0.2,0.2-0.3,0.3c0,0.1,0.2,0.4,0.2,0.5
	c0,0.3-0.3,0.4,0.1,0.6c0.1,0,0.1,0,0.2,0c0.3-0.2,0.4-0.4,0.5-0.7c-0.1-0.2-0.2-0.5-0.4-0.6C157.2,3.6,157.1,3.6,157,3.6z
	 M155.7,3.8c-0.2,0.3-0.3,0.6-0.3,1c0,0.1,0.1,0.3,0.2,0.4c0.1,0,0.2,0,0.3,0C156,5,156,5,156,4.8c0-0.3-0.2-0.4-0.1-0.7
	c0,0,0.1-0.1,0.1-0.1C156,3.9,155.8,3.8,155.7,3.8z"/>
<path fill="#FECC00" d="M156.3,4.1C156.3,4.1,156.4,4.1,156.3,4.1c0.2,0.1,0.2,0.1,0.2,0.2c0,0.2-0.1,0.2-0.2,0.3
	c-0.1-0.1-0.1-0.1-0.2-0.2C156.2,4.3,156.2,4.2,156.3,4.1z"/>
<path fill="#FECC00" d="M160.1,4.2C160.1,4.2,160.1,4.2,160.1,4.2c0.2,0.1,0.2,0.1,0.2,0.2c0,0.2,0,0.2-0.1,0.4
	c-0.1-0.1-0.2-0.1-0.2-0.2C159.9,4.4,160,4.3,160.1,4.2z"/>
<path fill="#FECC00" d="M157.4,5.9c1.3-0.2,2.9,0,4.2,0.4l0,1.2c-0.8-0.3-1.5-0.4-2.4-0.5c-1.4,0-2.9,0.1-4.2,0.5l0-1.2
	C155.7,6.1,156.5,6,157.4,5.9z"/>
<path fill="#FECC00" d="M158.2,1.7c0.4,0.3,0.4,1.1,0.5,1.6c0.1-0.2,0.2-0.4,0.5-0.5c0.1,0,0.1,0,0.2,0c0.1,0.1,0.2,0.2,0.3,0.4
	c-0.1,0.2-0.6,0.1-0.8,0.2c-0.2,0.1-0.3,0.2-0.4,0.4c-0.1,0.3-0.1,0.7,0.1,1c0.1,0.1,0.2,0.3,0.4,0.3c0.4,0.1,0.6-0.1,0.9-0.3
	c0.2,0.2,0.4,0.5,0.7,0.5c0.1,0,0.3-0.1,0.4-0.2c0.2-0.2,0.2-0.6,0.2-0.9c0-0.4-0.1-0.6-0.4-0.8c-0.1-0.1-0.1,0-0.1-0.1
	c0.1-0.1,0.2-0.2,0.3-0.2c0.1,0,0.2,0,0.2,0c0.3,0.1,0.4,0.6,0.5,0.9c0.2-0.4,0.3-0.7,0.7-1C162,4,161.8,5,161.6,6
	c-1.1-0.3-2.2-0.4-3.3-0.5c-1.1,0-2.3,0.2-3.3,0.5c-0.3-1-0.5-2-1-2.9c0.3,0.3,0.5,0.6,0.8,1c0.1-0.3,0.1-0.7,0.4-0.8
	c0.1,0,0.2,0,0.3,0.1c0.1,0.1,0.1,0.1,0.2,0.2c-0.1,0.1-0.2,0.1-0.2,0.2c-0.2,0.2-0.3,0.6-0.2,0.9c0,0.3,0.1,0.6,0.3,0.7
	c0.1,0.1,0.2,0.1,0.3,0.1c0.3,0,0.5-0.3,0.7-0.6c0.1,0.1,0.2,0.2,0.4,0.2c0.2,0.1,0.4,0.1,0.6,0c0.2-0.1,0.3-0.2,0.4-0.4
	c0.1-0.3,0.1-0.7,0-1c-0.2-0.5-0.7-0.4-1.1-0.5c0,0,0-0.1,0-0.1c0.1-0.2,0.2-0.3,0.4-0.4c0.3,0,0.5,0.3,0.7,0.5
	C157.8,2.7,157.9,2.3,158.2,1.7z"/>
<path fill="#FE0000" d="M161.2,64c0.5,0.4,1,0.8,1.6,1.1c0.6,0.3,2.2,1.2,2.8,1c0.4-0.1,0.7-0.5,1-0.8c0.8-0.7,1.6-1.5,1.8-2.5
	c0.1-0.4,0.1-0.9,0.4-1.3c0.2-0.3,0.4-0.6,0.7-0.7c0.3-0.1,0.6,0,0.8,0.2l-0.2,0.2c-0.1,0.5-0.3,0.9,0,1.4c0,0.1,0.1,0.1,0.1,0.2
	l0.2,0.2c0.2,0,0.4,0,0.6,0l0.1-0.1c0,0.1,0,0.3,0,0.4c-0.1,0.8,0,1.4,0.6,1.9l0.2,0.2c-0.2,0.3-0.5,0.7-0.9,0.7
	c-0.3,0-0.6,0-0.9-0.1c-0.8,0.3-1.4,0.8-2,1.5c0.4,0.4,0.9,0.5,1.4,0.5c0.6,0,1.5-0.4,2,0c0.1,0.1,0.2,0.3,0.3,0.4
	c-0.1,0-0.2,0.1-0.2,0.1c-0.4,0.3-0.7,0.7-0.8,1.2c0,0.4,0.1,0.7,0.2,1.1l0,0c-0.4,0.1-0.7,0.1-1.1-0.1c-0.8-0.5-2.1-2.1-3.1-1.8
	c-0.2,0.1-0.4,0.3-0.5,0.5c-0.9,1.7,0.8,3-0.6,4c-0.2-0.3-0.6-0.8-1-0.8c-0.4-0.1-0.6,0.1-0.9,0.3l-0.2,0.3
	c-0.5-1.6,0.7-1.7,0.8-2.9c0-0.2,0-0.5,0-0.7c-1-1-2.2-1.6-3.5-2c-0.6-0.2-2.5-0.5-2.8-0.8c-0.1-0.1-0.3-0.3-0.3-0.5
	c-0.1-0.5,0.1-1.1,0.2-1.6c0-0.4,0-0.8,0-1.2l0-0.5l0.1-0.1l0.3,0.1c0.1-0.2,0.2-0.4,0.2-0.6c0.4,0.8,0.7,1.3,1.4,1.9
	c0.3-0.9,0.5-1.7,0.6-2.6l0.3,0.4l0.2-0.2l0.1,0.1l0.1,0.4C161.3,62.9,161.2,63.4,161.2,64z"/>
<path fill="#A20000" d="M170.1,62.7l0.2,0.2c-0.5,0.4-0.7,0.9-1,1.3c-0.5,0.8-1,1.2-1.8,1.7c-0.2,0.1-0.3,0.2-0.5,0.3
	c-0.1,0,0,0-0.1,0l0,0l0-0.1l-0.1,0l0-0.1c0.2-0.3,0.7-0.4,0.9-0.6c0.2-0.2,0.5-0.4,0.7-0.6C169.2,64.3,169.5,63.3,170.1,62.7z"/>
<path fill="#A20000" d="M171.6,65.2l0.2,0.2c-0.2,0.3-0.5,0.7-0.9,0.7c-0.3,0-0.6,0-0.9-0.1c-0.8,0.3-1.4,0.8-2,1.5
	c0.4,0.4,0.9,0.5,1.4,0.5c0.6,0,1.5-0.4,2,0c0.1,0.1,0.2,0.3,0.3,0.4c-0.1,0-0.2,0.1-0.2,0.1c-0.1-0.1-0.1-0.3-0.2-0.4
	c-0.3-0.3-1.7,0.1-2.2,0.1c-0.6,0-1.1-0.3-1.4-0.8c-0.1-0.1-0.2-0.2-0.2-0.3c0.1-0.1,0.1-0.1,0.2-0.1l0.1,0.1c0.1,0,0.1-0.1,0.2-0.2
	c0.6-0.6,1.2-1,2-1.3c0.3,0.1,0.6,0.2,0.9,0.1C171.3,65.8,171.4,65.5,171.6,65.2z"/>
<path fill="#A20000" d="M157.9,62.7l0.3,0.1c0,0.6,0,1.1,0,1.7c0,0.5-0.2,1.1-0.2,1.6c0,0.1,0.1,0.3,0.2,0.4
	c0.1,0.1,0.2,0.2,0.3,0.2c0.4,0.1,0.8,0.2,1.1,0.3c0.6,0.1,1.1,0.3,1.7,0.5c1.2,0.4,2.3,1,3.2,1.9c0.1,0.4,0.1,0.8,0,1.2
	c-0.2,0.7-1.2,1.5-0.8,2.3l-0.2,0.3c-0.5-1.6,0.7-1.7,0.8-2.9c0-0.2,0-0.5,0-0.7c-1-1-2.2-1.6-3.5-2c-0.6-0.2-2.5-0.5-2.8-0.8
	c-0.1-0.1-0.3-0.3-0.3-0.5c-0.1-0.5,0.1-1.1,0.2-1.6c0-0.4,0-0.8,0-1.2l0-0.5L157.9,62.7z"/>
<path fill="#A20000" d="M161.2,64c0.5,0.4,1,0.8,1.6,1.1c0.6,0.3,2.2,1.2,2.8,1c0.4-0.1,0.7-0.5,1-0.8c0.8-0.7,1.6-1.5,1.8-2.5
	c0.1-0.4,0.1-0.9,0.4-1.3c0.2-0.3,0.4-0.6,0.7-0.7c0.3-0.1,0.6,0,0.8,0.2l-0.2,0.2c-0.2-0.1-0.4-0.2-0.6-0.1
	c-0.3,0.1-0.5,0.4-0.6,0.7c-0.2,0.5-0.2,1.2-0.5,1.7c-0.3,0.6-2,2.5-2.7,2.8c-0.6,0.3-1.5-0.2-2.1-0.4c-1-0.4-1.9-1-2.8-1.7
	c0-0.6,0.2-1.7-0.1-2.2c0,0,0,0,0,0l0.2-0.2l0.1,0.1l0.1,0.4C161.3,62.9,161.2,63.4,161.2,64z"/>
<path fill="#FE0000" d="M129.5,61c0.2-0.2,0.5-0.3,0.8-0.2c0.3,0.1,0.6,0.4,0.7,0.7c0.3,0.6,0.3,1.2,0.5,1.8
	c0.1,0.3,0.4,0.6,0.6,0.9c0.3,0.4,1.7,1.8,2.1,1.9c0.7,0.2,2.4-0.8,3-1.2c0.5-0.3,0.9-0.6,1.3-0.9c-0.1-0.6-0.1-1.1,0-1.7l0.1-0.4
	l0.1-0.1l0.3,0.2l0.3-0.4c0.1,0.9,0.2,1.8,0.6,2.6c0.6-0.6,1.1-1.1,1.4-2c0.1,0.2,0.1,0.4,0.3,0.6c0.1-0.1,0.2-0.1,0.3-0.1
	c0,0.1,0.1,0.1,0.1,0.2l-0.1,0.5c0,0.4,0,0.7,0,1.1c0.1,0.5,0.3,1.1,0.2,1.7c0,0.2-0.1,0.4-0.3,0.5c-0.5,0.4-1.3,0.5-1.9,0.6
	c-1.6,0.4-3.2,1-4.4,2.2c-0.3,1.7,1.2,1.8,0.8,3.6c-0.1-0.1-0.2-0.1-0.2-0.2c-0.3-0.2-0.5-0.4-0.9-0.3c-0.4,0.1-0.6,0.3-0.8,0.6
	c0,0.1-0.1,0.1-0.1,0.2l-0.1,0.2c-1.7-0.8,0.1-2.8-0.7-4.1c-0.1-0.2-0.2-0.3-0.4-0.3c-0.8-0.2-2.2,1.4-2.9,1.8
	c-0.5,0.3-0.8,0.3-1.3,0.1l0.1-0.3c0.1-0.3,0.3-0.7,0.2-1c0-0.6-0.4-1-0.8-1.3c-0.1-0.1-0.1-0.1-0.2-0.1c0-0.2,0.1-0.3,0.2-0.4
	c0.5-0.5,1.5-0.1,2.1,0c0.5,0,1-0.1,1.3-0.5c-0.5-0.7-1.2-1.1-1.9-1.4c-0.2,0.1-0.5,0.1-0.8,0.1c-0.4,0-0.6-0.2-0.8-0.5
	c0-0.2,0-0.3,0-0.5c1.1-1.4,0.3-1.9,0.6-2.3c0.2,0,0.5,0,0.7,0l0.2-0.2l0,0c0.3-0.5,0.2-0.9,0.1-1.5C129.7,61.1,129.6,61,129.5,61z"
	/>
<path fill="#A20000" d="M129.4,62.9l0.2-0.2c0.7,0.6,0.9,1.6,1.6,2.2c0.3,0.3,0.6,0.5,1,0.8c0.1,0.1,0.6,0.3,0.7,0.4c0,0,0,0,0,0.1
	c-0.1,0.1-0.1,0.1-0.2,0.1c-0.3,0-1.3-0.7-1.5-0.9C130.5,64.6,130.2,63.6,129.4,62.9z"/>
<path fill="#A20000" d="M128.2,65.7c0-0.2,0-0.3,0-0.5c0.2,0.3,0.4,0.6,0.8,0.7c0.3,0,0.5-0.1,0.8-0.1c0.6,0.2,1.1,0.5,1.6,0.9
	c0.2,0.2,0.4,0.4,0.6,0.6c0.1-0.1,0.2-0.2,0.3-0.1c0,0,0.1,0.1,0.1,0.2c-0.1,0.3-0.6,0.7-0.9,0.8c-0.4,0.2-0.8,0.2-1.2,0.2
	c-0.6-0.1-1.6-0.5-1.9,0.3c-0.1-0.1-0.1-0.1-0.2-0.1c0-0.2,0.1-0.3,0.2-0.4c0.5-0.5,1.5-0.1,2.1,0c0.5,0,1-0.1,1.3-0.5
	c-0.5-0.7-1.2-1.1-1.9-1.4c-0.2,0.1-0.5,0.1-0.8,0.1C128.6,66.1,128.4,66,128.2,65.7z"/>
<path fill="#A20000" d="M128.8,70.8c0.5,0.1,0.9,0.1,1.3-0.2c0.8-0.6,1.8-1.9,2.9-1.7c0.2,0,0.4,0.1,0.5,0.3
	c0.1,0.2,0.2,0.5,0.2,0.7c0.1,0.4,0.1,0.7,0,1.1c-0.1,0.9-0.6,1.8,0.4,2.3l-0.1,0.2c-1.7-0.8,0.1-2.8-0.7-4.1
	c-0.1-0.2-0.2-0.3-0.4-0.3c-0.8-0.2-2.2,1.4-2.9,1.8c-0.5,0.3-0.8,0.3-1.3,0.1L128.8,70.8z"/>
<path fill="#A20000" d="M141.9,62.7c0,0.1,0.1,0.1,0.1,0.2l-0.1,0.5c0,0.4,0,0.7,0,1.1c0.1,0.5,0.3,1.1,0.2,1.7
	c0,0.2-0.1,0.4-0.3,0.5c-0.5,0.4-1.3,0.5-1.9,0.6c-1.6,0.4-3.2,1-4.4,2.2c-0.3,1.7,1.2,1.8,0.8,3.6c-0.1-0.1-0.2-0.1-0.2-0.2
	c0.1-1.3-0.9-1.6-0.9-2.7c0-0.8,0.5-1.2,1.1-1.6c0.7-0.5,1.4-0.8,2.2-1.1c0.4-0.1,0.8-0.3,1.2-0.4c0.6-0.1,1.7-0.2,2.1-0.7
	c0.1-0.1,0.1-0.3,0.1-0.4c0-0.6-0.2-1.1-0.2-1.7c0-0.5,0.1-1,0-1.4C141.7,62.7,141.8,62.7,141.9,62.7z"/>
<path fill="#A20000" d="M129.5,61c0.2-0.2,0.5-0.3,0.8-0.2c0.3,0.1,0.6,0.4,0.7,0.7c0.3,0.6,0.3,1.2,0.5,1.8
	c0.1,0.3,0.4,0.6,0.6,0.9c0.3,0.4,1.7,1.8,2.1,1.9c0.7,0.2,2.4-0.8,3-1.2c0.5-0.3,0.9-0.6,1.3-0.9c-0.1-0.6-0.1-1.1,0-1.7l0.1-0.4
	l0.1-0.1l0.3,0.2c-0.4,0.5-0.3,1.6-0.2,2.2c-0.7,0.5-1.5,1.1-2.3,1.5c-0.7,0.3-1.8,1-2.6,0.7c-0.4-0.1-0.6-0.5-0.9-0.8
	c-0.7-0.6-1.5-1.3-1.8-2.2c-0.2-0.5-0.2-1.1-0.4-1.6c-0.1-0.3-0.3-0.6-0.6-0.7c-0.2-0.1-0.4,0-0.5,0.1C129.7,61.1,129.6,61,129.5,61
	z"/>
<path fill="#676667" d="M154.7,8c2-0.7,4.8-1,6.8-0.1l0.3,0.1c0,0.2,0.1,0.3,0.1,0.5l-0.2,0.1c0,0.3-0.1,0.5-0.3,0.7l0.1,0.3
	c0,0.6-0.1,1.1-0.5,1.5c-0.7,0.8-1.7,1.6-1.6,2.9c0,0.6,0.4,1.2,0.7,1.6c0.1,0.1,0.1,0.2,0.2,0.3c-0.2,0-0.3,0.2-0.4,0.3
	c-0.5,0.5-0.7,1.2-0.7,2c0,0.7,0.2,1.3,0.3,1.9c-0.3-0.1-0.7-0.1-0.8-0.4c-0.1-0.1-0.1-0.4-0.3-0.5c-0.1,0.2-0.1,0.6,0,0.8
	c0.2,1.1,0.8,1.7,1.7,2.4c-0.5,0.3-0.9,0.4-1.5,0.4c0.1,0.2,0.1,0.4,0.2,0.5c-0.2,0-0.5,0-0.7,0c-0.6,0-1.2,0-1.7,0
	c-0.1,0-0.3,0-0.4,0c-0.1,0-0.3,0-0.4,0c-0.1,0-0.3,0-0.4,0c-0.9,0-1.8,0-2.7,0l-0.3,0l-1.7,0l-0.7,0c-0.6,0-1.1,0-1.7,0l-0.3,0
	c-0.9,0-1.8,0-2.8,0l-0.4,0c-0.2,0-0.3,0-0.5,0l-0.4,0c-0.6,0-1.1,0-1.7,0c-0.2,0-0.4,0-0.7,0l0.2-0.5l0,0c0,0,0,0-0.1,0
	c-0.4,0-1.1-0.1-1.3-0.4c0-0.3,0.7-0.7,0.9-0.9c0.6-0.7,0.8-1.5,0.8-2.4c-0.3,0.6-0.5,0.8-1.1,1c0.2-1,0.5-2.2,0-3.2
	c-0.2-0.4-0.5-0.8-0.9-0.9l0.2-0.3c0.3-0.4,0.5-0.8,0.6-1.3c0.2-1-0.2-1.9-0.9-2.6c-0.3-0.3-0.7-0.7-1-1.1c-0.2-0.3-0.3-0.7-0.2-1
	l0.1-0.3c0,0,0,0,0,0c-0.3-0.3-0.3-0.4-0.3-0.7L138,8.5c0-0.2,0.1-0.4,0.1-0.6c0.1,0,0.2,0,0.3,0c1.4-0.8,4.4-0.6,5.9-0.2
	c0.3,0.1,0.6,0.2,1,0.3c0.1-0.1,0.1-0.1,0.1-0.2c0.7,0.1,1.1,0.1,1.7-0.1c0,0.3,0,0.7-0.2,0.9c-0.2,0.3-0.6,0.4-0.9,0.5
	c0.1,0.4,0.3,0.9,0.5,1.3c0.2,0.4,0.5,0.8,0.9,0.9c0.4,0.1,0.7-0.1,1.1-0.3c0,0.3,0,0.7,0,1c-0.1,0.7-0.4,1.2-1,1.6
	c0.2,0.2,0.4,0.4,0.6,0.5c0.2,0.1,0.3,0.2,0.6,0.1c0,0,0.1,0,0.1,0c0,0,0.1,0,0.1,0c0.1,0.1,0.2,0.2,0.2,0.3
	c0.1,0.7-0.4,1.4-0.8,1.8c0,0.3,0.1,0.5,0.2,0.8c0.3,0.8,0.8,1.2,1.6,1.5c0,0,0.1,0,0.1-0.1c1-0.6,1.3-1.1,1.6-2.2
	c0,0-0.1-0.1-0.1-0.1c-0.4-0.4-0.8-1-0.7-1.6c0-0.2,0.1-0.4,0.3-0.5c0.1,0.1,0.1,0.1,0.2,0.1c0.3,0.1,0.9-0.4,1.1-0.6
	c-0.2-0.2-0.5-0.4-0.6-0.6c-0.4-0.6-0.4-1.3-0.3-2c0.1,0.1,0.3,0.2,0.5,0.3c0.2,0.1,0.5,0.1,0.7,0c0.7-0.3,1.1-1.4,1.3-2.1
	c-0.2,0-0.3-0.1-0.5-0.2c-0.3-0.1-0.5-0.3-0.6-0.6c-0.1-0.2-0.1-0.5,0-0.7c0.2,0,0.4,0.1,0.6,0.2c0.3,0.1,0.7-0.1,1-0.1
	C154.7,7.9,154.7,7.9,154.7,8z M150,18.7c-0.2,0.3-0.4,0.6-0.7,0.8c0.2,0.7,0.4,1.4,0.5,2.1c0.1,0.4,0.1,0.8,0.2,1.2
	c0,0.1,0,0.1,0.1,0.2l0,0l0,0.1c0.2-1.2,0.4-2.3,0.7-3.5C150.3,19.2,150.3,19,150,18.7z"/>
<path d="M142.8,21.5c0.2,0.6,0.5,1.2,0.8,1.7c-0.6,0-1.1,0-1.7,0c-0.1-0.2-0.1-0.4-0.2-0.6C142.3,22.3,142.6,22,142.8,21.5z"/>
<path d="M157.1,21.5c0.2,0.2,0.3,0.5,0.5,0.7c0.1,0.1,0.5,0.4,0.6,0.5c-0.1,0.2-0.1,0.3-0.2,0.5c-0.6,0-1.2,0-1.7,0
	C156.6,22.7,156.9,22.1,157.1,21.5z"/>
<path d="M145.5,21.4c0.6,0.8,1.2,1.4,2.1,1.8c-0.9,0-1.8,0-2.8,0C145.2,22.6,145.4,22.1,145.5,21.4z"/>
<path d="M154.4,21.4c0.1,0.7,0.2,1.2,0.6,1.8c-0.9,0-1.8,0-2.7,0C153.1,22.8,153.9,22.2,154.4,21.4z"/>
<path d="M157.9,19.9c0.1,0.1,0.2,0.4,0.2,0.6c0.3,0.7,0.7,1.3,1.3,1.7c-0.2,0.1-0.5,0.1-0.7,0.2c-0.2,0-0.4,0-0.5-0.1
	c-0.5-0.2-0.8-0.8-1-1.2C157.5,20.7,157.8,20.3,157.9,19.9z"/>
<path d="M141.9,19.9c0.2,0.2,0.5,0.8,0.8,1.2c-0.1,0.2-0.2,0.4-0.3,0.5c-0.2,0.4-0.6,0.7-1.1,0.8c0,0-0.1,0-0.1,0
	c-0.2,0-0.6,0-0.7-0.2C141.3,21.6,141.7,20.9,141.9,19.9z"/>
<path d="M147.9,16.5c0.1,0.1,0.1,0.4,0.2,0.5c0.3,0.8,0.7,1.3,1.5,1.7c-0.2,0.2-0.3,0.4-0.6,0.6c-0.3,0.1-0.6,0.1-0.9,0.1
	c-0.1-1-0.4-1.9-0.7-2.9C147.5,16.5,147.8,16.5,147.9,16.5z"/>
<path d="M152.5,16.5c0,0.1-0.2,0.5-0.2,0.6c-0.3,0.8-0.4,1.5-0.5,2.3c-0.5,0-0.8-0.1-1.2-0.3c-0.1-0.1-0.2-0.3-0.4-0.4
	c0.1,0,0.1-0.1,0.2-0.1c0.9-0.5,1.2-1.3,1.5-2.1C152.1,16.5,152.3,16.5,152.5,16.5z"/>
<path d="M146.5,10.9c0.4,0.4,0.6,0.6,1.1,0.7c0.2-0.1,0.4-0.1,0.6-0.2c0,0.6-0.1,1-0.4,1.4c-0.2,0.2-0.4,0.5-0.7,0.5
	c-0.1,0-0.2,0-0.3,0c-0.1-0.3-0.1-0.7-0.1-1.1C146.6,11.8,146.5,11.4,146.5,10.9z"/>
<path d="M153.5,10.8c0,0.3-0.1,0.8-0.2,1.1c-0.1,0.5-0.1,1-0.1,1.5c-0.5-0.1-0.7-0.2-1-0.6c-0.3-0.5-0.4-0.9-0.4-1.5
	c0.2,0.1,0.4,0.1,0.6,0.2C152.9,11.4,153.1,11.2,153.5,10.8z"/>
<path d="M154.5,13.2c-0.1,0.6-0.1,1-0.1,1.6c-0.4,0.6-0.7,0.9-1.4,1.1l-0.1-0.1c-0.1-0.7,0.2-1.5,0.5-2.1
	C153.9,13.6,154.2,13.5,154.5,13.2z"/>
<path d="M145.4,13.2c0.4,0.3,0.7,0.4,1.1,0.5c0.3,0.8,0.5,1.4,0.5,2.3c-0.1,0-0.2,0-0.2-0.1c-0.6-0.2-1-0.6-1.2-1.1
	C145.5,14.3,145.5,13.8,145.4,13.2z"/>
<path d="M152.8,13.7C152.8,13.7,152.8,13.7,152.8,13.7c0.2,0,0.2,0,0.3,0.1c-0.1,0.4-0.3,0.9-0.4,1.3c0,0.3,0,0.7-0.1,1
	c-0.1,0.1-0.1,0.1-0.2,0.1c-0.3,0-0.4-0.1-0.6-0.2c-0.3-0.3-0.6-0.9-0.6-1.3c0-0.1,0-0.2,0.2-0.2C152,14.4,152.3,14.1,152.8,13.7z"
	/>
<path d="M146.8,13.7c0.6,0,0.7,0.4,1.1,0.6c0.2,0.1,0.5,0.2,0.8,0.2c0,0,0,0,0,0.1c0.1,0.4-0.2,0.8-0.4,1.2
	c-0.1,0.1-0.2,0.3-0.3,0.3c-0.1,0.1-0.3,0.1-0.5,0.1c-0.1,0-0.2-0.1-0.2-0.2c-0.1-0.2,0-0.6,0-0.8C147.2,14.7,147,14.2,146.8,13.7z"
	/>
<path d="M156,14.2c0,0,0.2,1.6,0.2,1.8c-0.4,0.6-0.7,1-1.4,1.2c0,0,0,0-0.1-0.1c-0.3-0.5-0.1-1.6,0-2.1
	C155.2,14.8,155.6,14.6,156,14.2z"/>
<path d="M143.8,14.2c0.4,0.4,0.9,0.6,1.4,0.8c0.2,0.8,0.2,1.4,0,2.2c-0.1,0-0.2,0-0.3-0.1c-0.6-0.2-1-0.7-1.2-1.2
	C143.8,15.3,143.9,14.8,143.8,14.2z"/>
<path d="M141.7,17.3c0.5,0.4,1,0.8,1.7,1.1c0.1,0.8,0,1.4-0.3,2.1l-0.2,0.4C142,19.8,141.7,18.5,141.7,17.3z"/>
<path d="M158.2,17.2c0,0.1,0,0.1,0,0.2c0.1,1.1-0.4,2.6-1.2,3.4l-0.2-0.3c-0.4-0.7-0.5-1.4-0.4-2.2C157.2,18,157.7,17.7,158.2,17.2z
	"/>
<path d="M156,16.8c0,0.5,0.1,1,0.2,1.5c-0.4,0.8-0.8,1.5-1.5,2.2c-0.3-0.8-0.2-2,0-2.9C155.3,17.3,155.7,17.2,156,16.8z"/>
<path d="M143.9,16.8c0.4,0.3,0.8,0.5,1.3,0.7c0.3,1,0.2,1.9,0,2.9c-0.7-0.4-1.3-1.5-1.5-2.2C143.8,17.7,143.9,17.3,143.9,16.8z"/>
<path d="M151,19.6c0.3,0,0.5,0.1,0.8,0.1c-0.2,1.2-0.1,2.3,0.3,3.5l-1.7,0C150.3,22,150.6,20.8,151,19.6z"/>
<path d="M148.2,19.7c0.3,0,0.6-0.1,0.8-0.1c0.3,1.2,0.6,2.4,0.6,3.6c-0.6,0-1.1,0-1.7,0C148.2,22,148.3,20.9,148.2,19.7z"/>
<path d="M145.7,15.6c0.4,0.4,0.8,0.5,1.3,0.7c0.3,0.7,0.9,2.2,0.8,3l-0.1,0c0,0-0.1,0-0.1,0c-1-0.3-1.7-1-2.2-1.9
	C145.6,16.8,145.7,16.2,145.7,15.6z"/>
<path d="M154.2,15.6c0.1,0.1,0,0.5,0,0.6c0,0.4,0.1,0.8,0.2,1.2c-0.6,0.9-1.1,1.5-2.1,1.9l-0.1,0l-0.1,0c-0.2-0.7,0.5-2.2,0.8-2.9
	C153.5,16.2,153.8,16,154.2,15.6z"/>
<path d="M156.2,19c0.1,0.8,0.3,1.3,0.7,2c-0.2,0.7-0.5,1.6-1,2.1c-0.1,0-0.3,0-0.4,0c-0.5-0.7-0.8-1.5-0.6-2.3c0,0,0-0.1,0-0.1
	C155.3,20.2,155.8,19.7,156.2,19z"/>
<path d="M143.1,21.1c0.3-0.7,0.6-1.2,0.7-2c0.4,0.7,0.8,1.2,1.4,1.7c0.1,0.9-0.1,1.7-0.6,2.4c-0.2,0-0.3,0-0.5,0
	C143.6,22.5,143.3,21.9,143.1,21.1z"/>
<path d="M145.6,18.3c0.2,0.1,0.3,0.3,0.4,0.4c0.6,0.5,1,0.8,1.8,0.9c0.2,1.1,0.1,2.1-0.1,3.2c0,0-0.1,0-0.1,0
	c-0.9-0.2-1.8-1.4-2.1-2.2C145.6,19.9,145.7,19.1,145.6,18.3z"/>
<path d="M154.3,18.2c0,0.2,0,0.5,0,0.7c0,0.6,0.1,1.2,0.2,1.7c-0.5,1-1.2,1.8-2.3,2.2c-0.3-1-0.4-2.2-0.1-3.2
	C153.1,19.4,153.6,19,154.3,18.2z"/>
<path d="M154.7,8c2-0.7,4.8-1,6.8-0.1l0.3,0.1c0,0.2,0.1,0.3,0.1,0.5l-0.2,0.1c0,0.3-0.1,0.5-0.3,0.7l0.1,0.3c0,0.6-0.1,1.1-0.5,1.5
	c-0.7,0.8-1.7,1.6-1.6,2.9c0,0.6,0.4,1.2,0.7,1.6c-0.3,0.2-0.5,0.4-0.7,0.7c-0.7,1-0.5,2.1-0.4,3.2l0-0.1l0.1,0l0,0.1l0,0
	c0,0-0.1,0-0.1,0c-0.5-0.4-0.4-2.5-0.4-3c-0.6,0.6-1.2,1.2-2,1.5c-0.1-0.4-0.1-0.8-0.1-1.3c0.1-1,0.6-0.7,1.2-1.3
	c0.1-0.1,0.2-0.2,0.2-0.3l-0.1-0.1c-0.2,0-0.9,0.5-1.2,0.7c-0.3-1.2,0-2,0.4-3.1c-0.7,0.9-1,1.6-2.1,2c0-0.5,0-1,0.2-1.5
	c0.1-0.3,0.6-0.9,0.5-1.2c0-0.1-0.1-0.1-0.1-0.1c-0.4,0.2-0.6,1.3-1.8,1.7c0-1.6,0.3-3,0.9-4.5c0-0.1-0.1-0.1-0.1-0.2
	c-0.2,0-0.3,0-0.5,0c-0.2-0.1-0.5-0.3-0.6-0.5c0-0.1,0-0.1,0-0.2c0.1,0,0.1,0,0.1,0C153.8,8.2,154.3,8.1,154.7,8z"/>
<path fill="#676667" d="M161.6,7.9l0.3,0.1c0,0.2,0.1,0.3,0.1,0.5l-0.2,0.1C161.7,8.3,161.6,8.1,161.6,7.9z"/>
<path fill="#676667" d="M159.6,8.7c-0.1-0.3-0.3-0.5-0.4-0.8c0-0.1,0-0.2,0-0.3c0.1,0,0.1,0,0.2,0c0.1,0.1,0.2,0.3,0.2,0.4
	c0.2,0.4,0.6,1,1,1.2c0.3,0.1,0.5,0.1,0.8,0l0.1,0.3c-0.3,0-0.5,0.1-0.8,0.1c-0.1,0.2-0.1,0.4-0.2,0.6c-0.2,0.4-0.4,0.7-0.8,0.8
	c-0.4,0.1-0.8,0.1-1.2-0.1c-0.5-0.3-0.8-0.7-0.9-1.3c-0.3,0-0.7-0.1-1-0.2c-0.2-0.1-0.3-0.2-0.3-0.3c0-0.1,0-0.1,0.1-0.1
	c0.2,0.1,0.3,0.2,0.5,0.3C157.8,9.6,158.8,9.1,159.6,8.7z"/>
<path d="M159.7,9c0.1,0.1,0.3,0.3,0.4,0.4c-0.1,0.1-0.1,0.3-0.2,0.5c-0.1,0.2-0.3,0.2-0.5,0.2c-0.1,0-0.1-0.1-0.2-0.1
	C159,9.7,159,9.7,159,9.5C159.2,9.2,159.5,9.1,159.7,9z"/>
<path fill="#FECC00" d="M158.6,9.5L158.6,9.5c0.1,0.1,0.1,0.2,0.2,0.3c0.1,0.2,0.2,0.4,0.5,0.5c0.2,0.1,0.4,0,0.6-0.1
	c0.3-0.1,0.3-0.3,0.4-0.6l0-0.1l0.1,0c0,0.3-0.2,0.6-0.3,0.9c-0.2,0.2-0.3,0.3-0.5,0.4c-0.3,0.1-0.6,0.1-0.9-0.1
	c-0.4-0.2-0.6-0.6-0.8-1.1C158.2,9.6,158.4,9.5,158.6,9.5z"/>
<path d="M138.4,7.9c1.4-0.8,4.4-0.6,5.9-0.2c0.3,0.1,0.6,0.2,1,0.3c0.5,0.2,1.1,0.2,1.6,0c-0.1,0.3-0.2,0.5-0.5,0.7
	c-0.3,0.1-0.6,0.1-0.9,0.2c0.7,0.7,1,3.6,1,4.6c-0.9-0.3-1.1-0.8-1.7-1.5c-0.1-0.1-0.1-0.2-0.2-0.2c-0.1,0.3,0.1,0.5,0.2,0.8
	c0.2,0.5,0.6,1.4,0.4,1.9c0,0,0,0.1-0.1,0.1c-0.1,0-0.2,0.1-0.3,0c-0.8-0.4-1.3-1.2-1.7-2c0.3,1.1,0.5,2,0.3,3.2
	c-0.2-0.1-0.3-0.1-0.5-0.2c-0.2-0.1-0.4-0.5-0.6-0.5l-0.1,0c0,0.1,0,0.2,0,0.3c0.2,0.4,0.7,0.6,1.1,0.7c0.2,0.7,0.2,1.2,0,1.9
	c-0.8-0.4-1.4-0.9-2-1.6c0,0.6,0.1,2.6-0.3,3c-0.1,0.1-0.1,0.1-0.2,0.1c0-0.2,0.1-0.5,0.1-0.8c0.1-1.2,0-2.3-1-3
	c-0.1,0-0.1-0.1-0.2-0.1c0.3-0.4,0.5-0.8,0.6-1.3c0.2-1-0.2-1.9-0.9-2.6c-0.3-0.3-0.7-0.7-1-1.1c-0.2-0.3-0.3-0.7-0.2-1l0.1-0.3
	c0,0,0,0,0,0c-0.3-0.3-0.3-0.4-0.3-0.7L138,8.5c0-0.2,0.1-0.4,0.1-0.6C138.2,7.9,138.3,7.9,138.4,7.9z"/>
<path fill="#676667" d="M138.1,7.9c0.1,0,0.2,0,0.3,0c-0.1,0.2-0.1,0.4-0.1,0.6L138,8.5C138,8.3,138,8.1,138.1,7.9z"/>
<path fill="#676667" d="M138.6,9.3c0.3,0.1,0.6,0.1,0.9-0.1c0.5-0.3,0.9-1.6,1.2-1.6c0.1,0.1,0.1,0.1,0.1,0.2
	c-0.2,0.3-0.3,0.6-0.5,0.9c0.7,0.4,1.7,0.9,2.5,0.6c0.2-0.1,0.5-0.2,0.7-0.2l0.1,0.1l0,0.1c-0.1,0.2-0.5,0.3-0.7,0.4
	c-0.2,0.1-0.5,0.1-0.7,0.1c-0.2,0.6-0.4,1-1,1.3c-0.3,0.2-0.8,0.2-1.1,0.1c-0.4-0.1-0.7-0.5-0.8-0.8c-0.1-0.2-0.1-0.4-0.2-0.6
	c-0.2,0-0.5,0-0.7,0L138.6,9.3z"/>
<path d="M140.1,9c0.2,0.1,0.5,0.2,0.6,0.3c0.1,0.1,0.1,0.1,0.1,0.2c0,0.2-0.1,0.3-0.2,0.5c-0.1,0-0.3,0-0.5,0
	c-0.2-0.1-0.3-0.4-0.4-0.6L140.1,9z"/>
<path fill="#FECC00" d="M141.2,9.4c0.3,0.1,0.5,0.2,0.8,0.2c-0.1,0.2-0.1,0.4-0.2,0.6c-0.2,0.3-0.6,0.6-0.9,0.6
	c-0.4,0.1-0.7-0.1-1-0.3c-0.2-0.4-0.3-0.7-0.4-1.1c0,0.1,0.1,0.2,0.1,0.3c0.2,0.3,0.4,0.5,0.7,0.6c0.2,0,0.3,0,0.5-0.1
	C141.1,10,141.1,9.8,141.2,9.4z"/>
<path fill="#9F6900" d="M144,23.2c0.2,0,0.3,0,0.5,0l0.4,0c0.9,0,1.8,0,2.8,0l0.3,0c0.6,0,1.1,0,1.7,0l0.7,0l1.7,0l0.3,0
	c0.9,0,1.8,0,2.7,0c0.1,0,0.3,0,0.4,0c0.1,0,0.3,0,0.4,0c0.1,0,0.3,0,0.4,0c0.6,0,1.2,0,1.7,0c0.2,0,0.5,0,0.7,0
	c0.2,0,0.3,0,0.5,0.1c0.2,0.2,0.2,0.5,0.2,0.7c0,0.5,0,1,0,1.5c0,0.2,0,0.3,0,0.5c0,0.7,0,1.4,0,2.2c0,0.4,0.1,0.8,0,1.3
	c-0.1,0.5-0.1,4.3,0,4.8c0,0.3-0.1,0.7,0,1.1c0,0.2,0,0.5,0,0.7c0,0.2-0.1,0.4,0,0.5c0,0.2,0,0.4,0,0.6c-0.1,1.3,0,2.6-0.1,3.9
	c-0.1,0.8-0.3,1.6-0.4,2.4c-0.1,0.2-0.1,0.3-0.2,0.5c-0.8,1.9-1.6,3.3-3,4.8l-0.4,0.4c-0.8,0.7-1.6,1.2-2.6,1.6l-0.3,0.1l-0.3,0.1
	l-0.3,0.1c-0.6,0.1-1.1,0.2-1.7,0.3l-0.3,0c-0.6,0-1.1-0.1-1.7-0.3l-0.3-0.1c-0.1,0-0.2-0.1-0.3-0.1l-0.3-0.1
	c-0.9-0.4-1.7-0.8-2.5-1.4l-0.6-0.5c-1.5-1.7-2.1-2.3-3-4.4c0-0.1-0.1-0.3-0.1-0.4c-0.1-0.6-0.3-1.3-0.4-1.9
	c-0.2-1.2-0.1-2.4-0.2-3.7c0-0.4,0-0.9,0-1.3c0.1-0.4,0.1-1.5,0-1.9c0-0.2,0-0.4,0-0.7c0-1.5,0-3.1,0-4.6l0-0.3c0-1.1,0-2.2,0-3.2
	l0-0.4c0-0.7,0-1.4,0-2c0-0.2,0-0.6,0.2-0.8c0.2-0.1,0.6-0.1,0.8-0.1c0.2,0,0.4,0,0.7,0c0.6,0,1.1,0,1.7,0L144,23.2z"/>
<path fill="#FECC00" d="M140.6,23.5l18.3,0c0,0.1,0,0.2,0,0.2c0.1,2.5,0,4.9,0,7.4l0,4.8c0,2.4,0.2,4.9-0.4,7.3
	c-0.5,1.8-1.5,3.5-2.7,4.8c-0.3,0.3-0.6,0.6-0.9,0.9c-1.5,1.3-3.6,2.2-5.7,2c-2.5-0.2-4.6-1.7-6.1-3.6c-0.1-0.2-0.3-0.3-0.4-0.5
	c-0.1-0.2-0.3-0.4-0.4-0.5c-0.1-0.2-0.2-0.4-0.3-0.6c-0.1-0.2-0.2-0.4-0.3-0.6c-0.1-0.2-0.2-0.4-0.3-0.6c-0.1-0.2-0.2-0.4-0.2-0.6
	c-0.1-0.2-0.1-0.4-0.2-0.6c-0.1-0.2-0.1-0.4-0.2-0.6c-0.4-1.8-0.3-3.7-0.3-5.5l0-7.2l0-3.9C140.6,25.2,140.6,24.3,140.6,23.5z"/>
<path fill="#0F59D4" d="M141,24l17.6,0c0,3.1,0,6.3,0,9.4l0,4.3c0,1.8,0.1,3.7-0.4,5.4c-0.5,1.7-1.4,3.1-2.5,4.4
	c-0.1,0.1-0.2,0.2-0.2,0.2c-1.4,1.5-3.6,2.7-5.7,2.7c-2,0-4.1-1.1-5.5-2.5c-1.4-1.4-2.5-3.1-3-5c-0.4-1.5-0.4-3.1-0.4-4.6l0-3.7
	L141,24z"/>
<path fill="#FECC00" d="M149.8,24.9c0.2,0.1,1.3,2,1.5,2.4c-0.3,0.6-0.6,1.3-1,1.9l1,0c0,0.7,0,1.4,0,2.1l-1,0l0,5.5l1.1,0
	c0.1-1.5,0.4-3.3,1.3-4.6c0.6-0.8,1.5-1.2,2.5-1.4c-0.3,0.5-0.6,0.9-0.6,1.5c-0.1,1.4,0,2.8,0,4.3c0,0.5-0.1,1.6,0,2
	c0,0.2,0.5,0.3,0.6,0.4c0.1,0.2,0.1,0.4,0.1,0.7c0,0.2-0.1,0.4-0.3,0.5c-0.2,0.1-0.4,0.1-0.5,0.1c-0.3-0.1-0.4-0.2-0.6-0.5l-1.7,0
	c-0.7,0.9-1.3,1.8-1.9,2.8l0,2.3c0.6,0,1.1,0,1.7,0c0.1-0.1,0.3-0.2,0.4-0.3c0.2-0.1,0.3,0,0.5,0c0.3,0.2,0.4,0.4,0.4,0.7
	c-0.1,0.2-0.1,0.4-0.3,0.6c-0.1,0.1-0.3,0.2-0.5,0.2c-0.3,0-0.5-0.2-0.6-0.4l-1.6,0l0,2.2c0.1,0.1,0.1,0.2,0.2,0.3
	c0.1,0.2,0.2,0.5,0.1,0.7c-0.1,0.3-0.3,0.5-0.6,0.6c-0.2,0-0.3,0-0.5-0.1c-0.2-0.1-0.3-0.3-0.3-0.5c-0.1-0.4,0.1-0.6,0.3-0.9
	c0-0.7,0-1.5,0-2.2l-1.6,0c-0.2,0.2-0.3,0.3-0.5,0.3c-0.2,0-0.3,0-0.5,0c-0.2-0.1-0.3-0.3-0.3-0.5c-0.1-0.3,0-0.6,0.1-0.8
	c0.1-0.1,0.2-0.3,0.4-0.3c0.3-0.1,0.5,0.1,0.8,0.3l1.7,0c0-0.8,0-1.5,0-2.3c-0.5-0.8-1.3-2-1.9-2.8l-1.7,0c0,0,0,0,0,0l0,0.1
	c-0.1,0.2-0.3,0.3-0.5,0.4c-0.2,0.1-0.4,0.1-0.5,0c-0.2-0.1-0.3-0.3-0.4-0.6c-0.2-1,0.6-0.8,0.8-1.1c0.1-0.1,0.1-6.4,0-6.6
	c-0.1-0.4-0.4-0.8-0.6-1.1l0.1,0c0.6,0,1.3,0.4,1.7,0.7c1.5,1.2,1.7,3.4,1.9,5.2l1.1,0c0-1.8,0-3.7,0-5.5l-1,0l0-2.1
	c0.3,0,0.6,0,0.9,0c-0.3-0.6-0.6-1.3-0.9-1.9C148.9,26.5,149.3,25.7,149.8,24.9z"/>
<path fill="#0F59D4" d="M149.1,30c0.4,0,1.1-0.1,1.5,0.1c0.1,0.1,0,0.3,0,0.4c-0.2,0-1.4,0-1.5-0.1L149.1,30z"/>
<path fill="#0F59D4" d="M149.8,26.2c0.3,0.3,0.5,0.7,0.6,1.1c-0.2,0.4-0.4,0.8-0.6,1.2c-0.2-0.2-0.5-0.9-0.6-1.1L149.8,26.2z"/>
<path fill="#0F59D4" d="M148.6,39.8l2.5,0l-0.8,1.1c-0.2,0.2-0.4,0.5-0.6,0.7C149.4,41.1,149,40.4,148.6,39.8z"/>
<path fill="#0F59D4" d="M146,32.5c0.4,0.3,0.7,1,0.9,1.4c0.2,0.4,0.7,2.3,0.5,2.7c-0.1,0-0.1,0-0.2,0.1c-0.2,0.1-0.3,0.1-0.4,0.3
	c-0.1,0.2-0.1,0.5-0.1,0.8c0.1,0.2,0.2,0.3,0.3,0.4c0.2,0.1,0.4,0.1,0.6,0c0.3-0.1,0.3-0.3,0.4-0.6l1.2,0l0.1,0
	c0.2,0.2,0.1,0.9,0.1,1.2l-3.4,0L146,32.5z"/>
<path fill="#0F59D4" d="M153.6,32.5c0.1,0.3,0,5.6,0,6.4l-3.4,0c0-0.3-0.1-1,0-1.2l0.1,0l1.2,0c0.1,0.2,0.2,0.4,0.4,0.5
	c0.1,0.1,0.3,0.1,0.5,0.1c0.2,0,0.3-0.2,0.4-0.3c0.1-0.2,0.2-0.5,0.1-0.7c-0.1-0.3-0.5-0.5-0.8-0.7c0-0.1,0-0.2,0-0.3
	C152.2,35.2,152.8,33.4,153.6,32.5z"/>
<path fill="#676667" d="M155.6,48.7c0.2,0.4,0.2,0.7,0.5,1.1c0.5-0.1,1-0.1,1.4-0.1c0.5,0.1,0.9,0.3,1.4,0.4
	c0.8,0.3,1.7,0.3,2.4,0.9c0.8,0.7,0.9,1.7,1.2,2.7c0.1,0.5,0.3,0.9,0.4,1.4c0.1,0.5,0,1-0.1,1.5c-0.2,1.2-1.3,4.4-0.2,5.3
	c0.2,0.2,0.6,0.2,0.8,0.3c-0.8,0.2-1.5,0.4-2.3,0.2l-0.1-0.4l-0.1-0.1l-0.2,0.2l-0.3-0.4c-0.1,0.9-0.2,1.7-0.6,2.6
	c-0.7-0.6-1.1-1.1-1.4-1.9c-0.1,0.2-0.1,0.4-0.2,0.6l-0.3-0.1l-0.1,0.1l0,0.5c-0.2,0.2-0.5,0.4-0.8,0.6c-0.6,0.2-1.1,0-1.6-0.3
	c0.3-0.3,0.7-0.6,0.9-1.1c0.4-0.8,0.4-1.9,0.1-2.8c-0.1-0.4-0.4-0.7-0.7-0.9c-0.5-0.2-1-0.1-1.5,0.1c-0.8,0.9-0.7,2.1-0.8,3.2
	c0,0.4,0,0.1-0.2,0.3c0,0.1,0,0.2,0,0.3c0.2,1.8,1.1,3.1,2.5,4.2l-0.4,0.3c1.8,1.8,2.8,3.3,3.3,5.8c-0.6-0.3-1.2-0.6-1.9-0.9
	c0.1,0.2,0.3,0.5,0.4,0.8c0.1,0.3,0.2,0.5,0.3,0.8c0.1,0.3,0.1,0.6,0.2,0.8c0.2,1.1,0.1,3-0.3,4c-0.4-0.2-1.4-2.5-1.9-2.6
	c0,0.4,0.2,1,0.2,1.4c0.2,1.2,0,3-0.4,4.2c0,0,0,0,0,0.1c0,0-0.1,0-0.1,0c-0.8-0.5-2.2-2.6-2.4-3.5c0,0.4,0,0.8-0.1,1.1
	c-0.2,2.1-0.9,4-2,5.7c-0.2,0.3-0.5,0.8-0.8,1c0,0,0,0-0.1,0c-0.4-0.3-0.7-0.9-0.9-1.3c-1.3-2.2-1.8-4-1.9-6.5
	c0,0.1-0.1,0.2-0.1,0.4c-0.3,0.7-1.6,2.8-2.3,3.2c0,0,0,0,0,0c-0.1-0.2-0.2-0.6-0.3-0.9c-0.4-1.7-0.3-3.3,0.1-5
	c-0.6,0.8-1.1,1.6-1.6,2.4c-0.1,0.1-0.1,0.3-0.3,0.4c0,0,0-0.1,0-0.1c-0.5-1.5-0.5-3.4-0.1-4.8c0.2-0.5,0.4-1,0.7-1.6
	c-0.6,0.3-1.2,0.6-1.8,0.9c0.4-2.5,1.6-4.1,3.3-5.8l-0.4-0.2c0.3-0.3,0.7-0.6,1-0.9c0.8-0.9,1.5-2.4,1.5-3.6c-0.1,0-0.1,0-0.1,0
	c0,0,0,0,0,0c-0.1-0.2,0-0.5-0.1-0.7c0-0.8-0.2-2.1-0.8-2.7c-0.3-0.2-0.6-0.3-1-0.3c-0.4,0-0.7,0.2-0.9,0.5
	c-0.5,0.6-0.5,1.6-0.5,2.3c0.1,0.9,0.5,1.5,1.2,2.1c-0.3,0.2-0.7,0.3-1.1,0.3c-0.6,0-0.9-0.2-1.3-0.6l0.1-0.5c0-0.1,0-0.1-0.1-0.2
	c-0.1,0-0.2,0-0.3,0.1c-0.1-0.2-0.2-0.4-0.3-0.6c-0.3,0.8-0.7,1.4-1.4,2c-0.4-0.8-0.5-1.7-0.6-2.6l-0.3,0.4l-0.3-0.2l-0.1,0.1
	l-0.1,0.4c-0.8,0.2-1.4,0-2.2-0.2c0.1,0,0.3-0.1,0.4-0.1c1.4-0.6,0.6-3.2,0.3-4.3c-0.1-0.7-0.3-1.4-0.3-2.1c0-0.3,0-0.5,0.1-0.8
	c0.1-0.4,0.2-0.7,0.3-1.1c0.2-0.6,0.3-1.3,0.5-1.9c0.6-1.3,1.9-1.4,3.1-1.7c0.5-0.1,1-0.4,1.6-0.4c0.4,0,0.9,0.2,1.3,0
	c0.2-0.2,0.3-0.6,0.4-0.9l0.6,0.5c0.8,0.6,1.6,1,2.5,1.4l0.3,0.1c0.1,0,0.2,0.1,0.3,0.1l0.3,0.1c0.6,0.1,1.1,0.2,1.7,0.3l0.3,0
	c0.6-0.1,1.1-0.2,1.7-0.3l0.3-0.1l0.3-0.1l0.3-0.1c1-0.4,1.8-0.9,2.6-1.6L155.6,48.7z"/>
<path d="M142.4,50c0.3,0,0.6,0,0.9,0c-0.6,0.5-1.3,0.8-2,1.1c-0.2,0.1-0.5,0.2-0.7,0.2c0.1-0.2,0.2-0.5,0.4-0.7
	C141.3,50.1,141.8,50,142.4,50z"/>
<path d="M156.7,50c0.2,0,0.4,0,0.6,0c0.6,0,1.3,0.1,1.7,0.6c0.1,0.1,0.4,0.6,0.4,0.8C158.5,51.1,157.2,50.6,156.7,50L156.7,50z"/>
<path d="M148.1,51c0.6,0.1,1.1,0.2,1.7,0.3c-0.2,0.8-0.6,1.3-1.1,2C148.4,52.5,148.2,51.8,148.1,51z"/>
<path d="M150.1,51.3c0.6-0.1,1.1-0.2,1.7-0.3c-0.2,0.8-0.3,1.5-0.6,2.3C150.6,52.6,150.3,52,150.1,51.3z"/>
<path d="M159.2,50.5c0.6,0.1,1.3,0.2,1.8,0.6c0.7,0.5,0.9,1.2,1.1,2c-0.2-0.1-0.3-0.4-0.5-0.5c-0.6-0.6-1.1-0.9-1.9-1.1
	C159.6,51.1,159.4,50.8,159.2,50.5z"/>
<path d="M140.5,50.5L140.5,50.5c0,0.2-0.4,0.8-0.5,1c-1.1,0.2-1.7,0.8-2.3,1.6l0,0c0-0.4,0.2-1,0.5-1.3
	C138.7,50.9,139.7,50.7,140.5,50.5z"/>
<path d="M137.3,54.5c0.2,0.2,0.2,0.7,0.3,1c0.2,0.5,0.4,0.9,0.6,1.3c0.3,0.7,0,1.5-0.3,2.1c0,0.1-0.1,0.1-0.1,0.2c0,0,0,0-0.1-0.1
	c-0.1-0.2-0.2-0.7-0.2-0.9C137.3,57,137,55.7,137.3,54.5z"/>
<path d="M155.3,57c0.8,0.2,1.3,0.8,1.8,1.4c0,0.2-0.1,1.1-0.2,1.3l0,0l0,0.2c-0.1-0.1-0.1-0.2-0.2-0.3c-0.1-0.3-0.3-0.6-0.5-0.8
	c-0.5-0.3-1-0.3-1.5-0.2C154.9,58,155.1,57.5,155.3,57z"/>
<path d="M144.4,57L144.4,57c0.2,0.1,0.6,1.2,0.7,1.5c-0.4,0-0.7-0.1-1.1,0c-0.4,0.1-0.7,0.4-0.9,0.8l-0.2,0.5
	c-0.1-0.5-0.1-1-0.2-1.5C143.3,57.8,143.7,57.3,144.4,57z"/>
<path d="M162.5,54.5c0.5,1-0.3,3.6-0.5,4.7l-0.1,0l-0.1-0.1c-0.3-0.7-0.6-1.5-0.3-2.3c0.2-0.4,0.4-0.8,0.6-1.2
	C162.3,55.3,162.4,54.9,162.5,54.5z"/>
<path d="M144.7,49.3c0.8,0.6,1.6,1,2.5,1.4c-0.4,0.6-0.7,0.9-1.3,1.3C145.3,51.3,144.9,50.3,144.7,49.3z"/>
<path d="M155.2,49.1c-0.3,1.1-0.7,2-1.3,3c-0.5-0.4-1-0.8-1.3-1.4C153.6,50.2,154.4,49.7,155.2,49.1z"/>
<path d="M137.3,62.1c0.8-1,0.4-1.4,0.7-2.4c0.1-0.5,0.4-0.9,0.5-1.4c0.1,0.5,0.3,1,0.4,1.4c0.1,0.3,0.4,0.8,0.4,1
	c0,0.3-0.3,0.8-0.5,1l-0.1,0.1C138.3,62.2,137.8,62.2,137.3,62.1z"/>
<path d="M161,61.7c-0.3-0.3-0.5-0.6-0.5-1c0-0.5,0.3-1,0.5-1.5c0.1-0.3,0.2-0.6,0.3-1c0.1,0.5,0.3,1,0.6,1.4c0,0.9,0,1.7,0.6,2.4
	c-0.5,0.1-1,0.1-1.4-0.2L161,61.7z"/>
<path d="M159.3,59.1c0,0,0.7,1.7,0.7,1.7c0.1,0.5-0.1,2.2-0.3,2.7l-0.1,0c-0.2-0.2-0.4-0.4-0.5-0.6c-0.6-1-0.3-1.7,0-2.7
	C159.2,59.8,159.3,59.5,159.3,59.1z"/>
<path d="M140.4,59.1c0.1,0.1,0.7,2.2,0.7,2.4c0,0.8-0.4,1.3-0.8,1.9l-0.1,0.1l-0.1,0c-0.2-0.3-0.2-0.8-0.3-1.1
	C139.4,60.4,140.1,60.8,140.4,59.1L140.4,59.1z"/>
<path d="M157.7,56.5c0.1,0.1,0.2,0.3,0.2,0.4c0.3,0.5,0.7,0.8,1.2,1.2c-0.1,0.8-0.2,1.7-0.5,2.5l-0.1,0.1l-0.1,0
	c-0.1-0.1-0.1-0.1-0.2-0.2C157.2,58.9,157.3,58.3,157.7,56.5z"/>
<path d="M142.1,56.5c0.2,0.4,0.4,1.7,0.3,2.1c-0.1,0.5-0.7,1.9-1.1,2.1l-0.1-0.1c-0.3-0.8-0.5-1.7-0.5-2.6
	C141.4,57.6,141.7,57.2,142.1,56.5z"/>
<path d="M144.5,54.4c-0.1,0.8-0.1,1.5,0.1,2.3c-0.8,0.2-1.2,0.7-1.8,1.2l-0.1,0l0-0.1c-0.1-0.7-0.2-1.4-0.4-2
	C143.1,55.4,143.8,55,144.5,54.4z"/>
<path d="M160.4,55.7C160.4,55.8,160.4,55.8,160.4,55.7c0.2,0.6,0.4,0.9,0.8,1.3c-0.1,1.2-0.4,2.3-0.9,3.4c-0.5-0.4-0.7-1.7-0.8-2.3
	C159.8,57.3,160.1,56.6,160.4,55.7z"/>
<path d="M155.3,54.4c0.2,0.1,0.5,0.3,0.7,0.5c0.5,0.3,1,0.6,1.5,0.9l-0.4,2c0,0.1,0,0.1-0.1,0.2c-0.6-0.5-1-1.1-1.8-1.2
	C155.4,56,155.5,55.2,155.3,54.4z"/>
<path d="M139.4,55.7c0.1,0.3,0.2,0.6,0.3,0.9c0.2,0.5,0.4,1,0.7,1.5c-0.1,0.8-0.4,1.6-0.8,2.3c-0.5-0.5-0.9-2.6-0.9-3.4
	C139,56.6,139.2,56.2,139.4,55.7z"/>
<path d="M157.3,59.2c0.3,0.7,0.7,1.3,1.1,1.9c-0.1,0.5-0.3,1.1-0.5,1.6l-0.1,0.1c-0.2,0.3-0.4,0.6-0.7,0.7c-0.4,0.2-0.8,0.1-1.2,0
	C157.2,62.3,157.1,60.8,157.3,59.2z"/>
<path d="M142.5,59.1c0.2,1.7,0.1,3.2,1.3,4.5c-0.4,0.1-0.9,0.2-1.3,0c-0.3-0.2-0.4-0.4-0.6-0.7c0-0.1,0-0.1-0.1-0.2
	c-0.3-0.5-0.4-1-0.5-1.5C141.9,60.5,142.3,59.8,142.5,59.1z"/>
<path d="M139.6,51.9C139.6,51.9,139.6,51.9,139.6,51.9c-0.6,1.1-0.5,1.5-0.4,2.6c0.1,0.8-0.1,1.6-0.6,2.2l-0.3-0.5
	c-0.4-0.6-0.6-1.4-0.7-2.1C137.9,53.1,138.6,52.2,139.6,51.9z"/>
<path d="M160.2,51.8c0.9,0.4,1.7,1.3,2.1,2.2c-0.1,0.7-0.3,1.4-0.7,2l-0.4,0.7C159.9,55.2,161.3,53.6,160.2,51.8z"/>
<path d="M154.4,52.7c1,0.3,1.8,0.3,2.9,0c0.6,0.8,0.6,1.6,0.4,2.6c0,0.1,0,0.2-0.1,0.3c-0.1,0-0.1,0-0.1,0c-0.5-0.1-1.8-1.1-2.2-1.5
	C155,53.6,154.7,53.1,154.4,52.7z"/>
<path d="M145.4,52.6L145.4,52.6L145.4,52.6c-0.5,0.9-1.1,1.6-1.9,2.2c-0.3,0.2-0.9,0.7-1.3,0.7l-0.1-0.1c-0.1-0.3-0.1-0.6-0.1-0.9
	c0-0.7,0.1-1.3,0.6-1.8C143.5,53,144.5,52.9,145.4,52.6z"/>
<path d="M148,66.4c0.1,0.1-0.3,1.6-0.3,1.9c0,0.1,0,0.1,0.1,0.1c0.3-0.5,0.4-1.4,0.5-2c0.2,0.6,0.4,1.2,0.5,1.9
	c-0.1,0.4-0.3,0.8-0.5,1.2c-0.3,0.6-0.7,1.2-1.2,1.6c-0.3-1.3-0.5-2.7-0.3-4C147.3,66.9,147.6,66.7,148,66.4z"/>
<path d="M151.8,66.4c0.4,0.2,0.7,0.5,1.1,0.7c0.2,1.3,0.1,2.7-0.3,4c-0.5-0.5-0.9-1.1-1.2-1.7c-0.6-1.2-0.2-1.8,0.1-3
	c0.1,0.5,0.3,1.5,0.5,2l0.1,0l0.1-0.1C152.3,68.1,151.9,66.8,151.8,66.4z"/>
<path d="M144.3,49.1c0.1,0.2,0.3,1,0.4,1.3c0.3,0.7,0.6,1.3,1,1.9c-0.5,0.2-1.1,0.4-1.6,0.4c-0.5,0-0.9-0.1-1.4-0.2
	C142.7,50.1,143.9,50.6,144.3,49.1z"/>
<path d="M155.5,49.2c0.1,0.1,0.1,0.2,0.2,0.3c0.1,0.2,0.3,0.4,0.5,0.6c0.8,0.7,1,1.2,1.1,2.3c-0.4,0.1-0.8,0.2-1.3,0.3
	c-0.7,0-1.2-0.1-1.8-0.4C154.8,51.2,155.2,50.3,155.5,49.2z"/>
<path d="M148.4,61c0.3,0.9,0.7,1.6,1.4,2.3c-0.3,0.8-0.6,1.4-1.1,2l-0.4,0.4c-0.2-0.5-0.4-1-0.6-1.5c-0.2-0.7-0.3-1.6,0.1-2.2
	C147.9,61.6,148.2,61.3,148.4,61z"/>
<path d="M151.4,61c0.3,0.2,0.7,0.9,0.8,1.2c0.3,1.1-0.1,2.4-0.6,3.4l-0.3-0.2c-0.6-0.6-1-1.4-1.2-2.2
	C150.7,62.6,151.1,61.9,151.4,61z"/>
<path d="M157.1,50.8c0.3,0.1,0.7,0.3,1,0.5c0.6,0.3,1.5,0.4,1.9,0.9c0.4,0.6,0.4,1.4,0.3,2.1c-0.1,0-0.2,0-0.3-0.1
	c-0.7-0.3-2.3-1.1-2.5-1.8C157.4,51.8,157.4,51.4,157.1,50.8z"/>
<path d="M142.6,50.8L142.6,50.8c-0.2,0.6-0.3,1.1-0.3,1.7c-0.7,0.9-1.8,1.4-2.8,1.9c-0.1-0.5-0.1-1.1,0-1.6c0.3-1,1.2-1.2,2.1-1.5
	C141.9,51.1,142.3,51,142.6,50.8z"/>
<path d="M152.5,57.4c0.4,0.6,0.9,1,1.6,1.4c-0.8,0.9-0.8,2.2-0.9,3.4c-0.1,0-0.2,0-0.2,0c-0.4-0.1-0.8-0.6-1-0.9
	c-0.1-0.2-0.3-0.5-0.3-0.8c0-0.5,0.4-1.3,0.6-1.7C152.3,58.3,152.4,57.8,152.5,57.4z"/>
<path d="M147.3,57.4c0.1,0.4,0.1,0.8,0.2,1.1c0.2,0.7,0.5,1.3,0.8,1.9c-0.1,0.4-0.3,0.7-0.5,1c-0.3,0.4-0.6,0.6-1.1,0.7
	c0-0.2,0-0.5-0.1-0.7c-0.1-1-0.2-1.9-0.9-2.6C146.4,58.4,146.9,58,147.3,57.4z"/>
<path d="M149.9,51.8c0.1,0.1,0.1,0.2,0.2,0.3c0.3,0.5,0.6,1,1,1.5c-0.2,1.2-0.5,2.1-1.1,3.1l-0.1,0c-0.6-0.6-1-2.3-1.1-3.1
	C149.2,53,149.6,52.5,149.9,51.8z"/>
<path d="M152.5,62.3c0.1,0,0.3,0.1,0.4,0.2c0.1,0.2,0.1,0.7,0.2,1c0.4,1.6,1,2.4,2.1,3.5c-0.2,0.2-0.5,0.2-0.8,0.2
	c-0.1,0-0.2,0-0.2,0c-0.9-0.1-1.8-0.6-2.4-1.3C152.3,64.7,152.6,63.6,152.5,62.3z"/>
<path d="M147.2,62.3c0.1,0.1,0,1.1,0.1,1.4c0.1,0.8,0.4,1.5,0.8,2.2c-0.7,0.7-1.5,1.2-2.5,1.3c-0.3,0-0.7,0-0.9-0.2
	c0.1-0.2,0.4-0.4,0.6-0.6c0.4-0.4,0.8-1,1.1-1.6c0.2-0.5,0.4-1.1,0.5-1.6c0-0.2,0.1-0.5,0.1-0.7C147,62.4,147.1,62.4,147.2,62.3z"/>
<path d="M158,53.3c0.7,0.5,1.5,0.9,2.3,1.3c-0.2,0.9-0.4,1.8-0.7,2.6c-0.1,0.2-0.2,0.4-0.3,0.6C157,56.3,158.4,55.4,158,53.3z"/>
<path d="M141.8,53.4L141.8,53.4c0,0.4-0.1,0.8,0,1.1c0,0.5,0.2,1.1,0.1,1.6c-0.1,0.8-0.7,1.3-1.3,1.8c-0.1-0.2-0.2-0.3-0.3-0.5
	c-0.4-0.9-0.6-1.8-0.8-2.7C140.3,54.3,141.1,53.9,141.8,53.4z"/>
<path d="M149.9,58c0.1,0.2,0.2,0.6,0.3,0.9c0.2,0.6,0.6,1.1,1,1.5c-0.2,1-0.6,1.8-1.3,2.5l0,0c-0.3-0.2-0.6-0.6-0.8-1
	c-0.3-0.5-0.7-1.2-0.3-1.8c0.2-0.3,0.4-0.5,0.6-0.8C149.6,59,149.8,58.5,149.9,58z"/>
<path d="M151.2,54.4c0.2,0.3,0.3,0.7,0.4,1c0.2,0.5,0.4,0.9,0.7,1.3c-0.1,0.9-0.4,2.5-0.9,3.3l-0.1,0c-0.8-0.8-1.1-1.9-1.2-3
	C150.6,56.2,151,55.4,151.2,54.4z"/>
<path d="M153.3,67.7C153.3,67.8,153.3,67.8,153.3,67.7c0.3,0.4,0.5,0.9,0.7,1.3c0.8,1.8,1,3.6,0.7,5.6c-0.5-0.2-0.9-0.9-1.2-1.3
	c0,0,0-0.1-0.1-0.1c-0.7-1.2-0.6-1.7-0.3-3c0.1,0.4,0.3,1.3,0.5,1.6l0.1-0.1c0.1-0.6-0.4-1.6-0.5-2.2
	C153.2,69,153.3,68.3,153.3,67.7z"/>
<path d="M148.6,54.3c0.1,0.3,0.2,0.6,0.3,0.9c0.2,0.7,0.6,1.3,1,1.9c-0.1,1.1-0.5,2-1.2,2.8c-0.1,0-0.1,0-0.1,0.1
	c-0.1-0.1-0.1-0.1-0.2-0.2c-0.3-0.5-0.4-1.1-0.6-1.7c-0.3-1.2-0.2-1.5,0.3-2.5C148.3,55.2,148.4,54.7,148.6,54.3z"/>
<path d="M146.5,67.8c0.1,0.6,0,1.8-0.1,2.4c-0.1,0.4-0.4,1-0.4,1.4c0.1,0.1,0.1,0.1,0.2,0.1c0.1-0.1,0.4-1.3,0.5-1.5
	c0,0.3,0.1,0.5,0.2,0.8c0.2,1,0,1.5-0.5,2.4c-0.2,0.4-0.7,1.1-1.1,1.3C144.7,72.3,145.3,69.7,146.5,67.8z"/>
<path d="M152.1,50.9l0.3-0.1c0.4,0.7,0.8,1.1,1.5,1.6c-0.3,1.4-0.7,2.7-1.4,4c-0.5-0.9-0.9-1.8-1.1-2.9
	C151.7,52.6,151.9,51.8,152.1,50.9z"/>
<path d="M147.4,50.8c0.1,0,0.2,0.1,0.3,0.1c0.1,0.9,0.4,1.7,0.7,2.6c-0.2,1-0.6,1.9-1.1,2.9c-0.8-1.2-1.1-2.6-1.4-4
	C146.6,51.9,147.1,51.5,147.4,50.8z"/>
<path d="M145.7,52.7c0.1,0.2,0.2,1.1,0.3,1.4c0.3,0.9,0.7,1.8,1.1,2.6c-0.2,0.8-0.6,1.2-1.3,1.6c-0.2,0.1-0.3,0.2-0.5,0.2
	c-0.3-0.7-0.6-1.4-0.7-2.2C144.5,54.8,144.9,54,145.7,52.7z"/>
<path d="M154,52.7c0.3,0.4,0.7,1,0.9,1.4c0.6,1.4,0,3.2-0.6,4.5l-0.5-0.2c-0.7-0.4-1-0.9-1.3-1.6c0.2-0.4,0.4-0.8,0.6-1.2
	C153.5,54.6,153.9,53.7,154,52.7z"/>
<path d="M154.9,67.4c0.1,0,0.1,0,0.2,0c0.3,0.2,0.5,0.5,0.7,0.7c1.2,1.3,2,2.7,2.5,4.5c-1.3-0.7-1.8-0.9-2.9-1.9
	c-0.2-0.2-0.5-0.4-0.6-0.6c-0.3-0.4-0.5-0.9-0.7-1.4c-0.2-0.4-0.4-0.8-0.6-1.2c0.6,0.7,1.3,1.4,1.9,2.1c0.1,0,0.1,0,0.2-0.1
	c0-0.2-1.4-1.6-1.6-1.9C154.2,67.5,154.6,67.5,154.9,67.4z"/>
<path d="M144.8,67.4c0.4,0.1,0.7,0.1,1.1,0.1c-0.3,0.3-1.6,1.6-1.6,2l0.1,0c0.1,0,0.2-0.1,0.3-0.1c0.2-0.2,0.3-0.4,0.5-0.6
	c0.4-0.5,0.8-1,1.3-1.5c-0.3,0.4-0.5,0.9-0.7,1.4c-0.2,0.4-0.4,0.9-0.6,1.3c-0.1,0.2-0.3,0.3-0.5,0.5c-1.3,1.2-1.6,1.4-3.1,2.2
	C142.1,70.5,143.2,68.8,144.8,67.4z"/>
<path d="M149.9,63.8c0.1,0.1,0.2,0.4,0.3,0.6c0.3,0.6,0.7,1.1,1.2,1.5c-0.2,0.7-0.4,1.5-0.7,2.2c-0.2,0.6-0.5,1.1-0.8,1.6l-0.1,0
	c-0.7-1.2-1.1-2.5-1.5-3.9C149.1,65.3,149.5,64.7,149.9,63.8z"/>
<path d="M155,70.6c0.7,0.5,1.4,1.2,1.8,2c0.7,1.3,0.8,2.7,0.7,4.1c0,0.4-0.1,0.8-0.2,1.2c-0.1,0-1.4-2-1.6-2.3
	c-0.2-0.2-0.6-0.5-0.7-0.8c0.3-1,0.2-2.4,0.1-3.4c0.3,0.6,0.9,2.2,1.2,2.6c0.1,0,0.1,0,0.1-0.1C156.4,73.6,155.2,71.1,155,70.6z"/>
<path d="M144.8,70.7c0,0.3-1.4,2.8-1.4,3.2c0.1,0.1,0.1,0.1,0.2,0.1c0.1-0.1,1-2.1,1.2-2.5c0,0.3-0.1,0.6-0.1,0.8c0,0.3,0,0.6,0,0.8
	c0,0.3,0,0.6,0.1,0.8c0,0.3,0.1,0.6,0.1,0.8c-0.1,0.2-0.6,0.7-0.8,0.9c-0.1,0.2-1.4,2.1-1.5,2.2c-0.3-0.6-0.3-1.8-0.3-2.5
	c0.1-1.2,0.4-2.6,1.2-3.5C143.9,71.4,144.4,71.1,144.8,70.7z"/>
<path d="M150.7,68.9c0.2,0.3,0.3,2.5,0.4,3c0,0.2,0.1,0.4,0.2,0.5l0-0.1c0.1-0.6-0.2-2-0.3-2.7c0.3,0.5,0.7,1,1,1.5
	c0.4,0.7,0.4,1.8,0.4,2.6c0,0.7-0.1,1.5-0.2,2.2c0,0-0.1,0-0.1,0c-0.6-0.4-1.9-2.6-2.1-3.3c-0.1-0.4-0.2-0.8-0.2-1.3
	C150,70.3,150.3,69.8,150.7,68.9z"/>
<path d="M149,68.9c0.1,0.1,0.2,0.2,0.2,0.4c0.1,0.3,0.3,0.6,0.4,0.9c0.2,0.6,0.1,1.7-0.1,2.4c-0.2,0.8-1.6,3.1-2.2,3.5
	c-0.2-0.7-0.2-1.6-0.2-2.3c0-0.8,0-1.9,0.5-2.7c0.3-0.5,0.7-0.9,0.9-1.4c-0.1,0.8-0.2,1.5-0.3,2.3c0,0.2-0.1,0.4,0,0.5
	c0,0,0.1,0,0.1,0c0.1,0,0.1-0.1,0.1-0.2c0.1-0.3,0.1-0.7,0.1-1L149,68.9z"/>
<path d="M152.9,73.4c0.1,0.1,0.8,3,0.9,3.4c0.1,0.3,0.1,0.7,0.2,0.9c0.1,0,0.1,0,0.2,0c0.1-0.3-0.8-3.6-0.9-4.1
	c0.4,0.7,1.2,1.2,1.5,1.8c0.2,0.4,0.3,0.8,0.5,1.2c0,0.4,0.1,0.8,0.2,1.1c0.1,1,0,2.5-0.3,3.5c-0.1,0-0.2-0.1-0.2-0.1
	c-1.2-1.2-2.2-3-2.2-4.7C152.7,75.3,152.9,74.4,152.9,73.4z"/>
<path d="M146.9,73.5c0.1,0.4,0,0.9,0.1,1.4c0,0.4,0.1,0.8,0.2,1.2c0.1,1-0.3,2-0.7,2.9c-0.2,0.5-1.2,2-1.7,2.1
	c-0.5-1.1-0.4-3.4-0.2-4.6c0.2-0.3,0.3-0.8,0.5-1.2c0.4-0.6,1.1-1.1,1.5-1.8c-0.1,0.7-1,3.8-0.9,4.1l0.1,0c0,0,0,0,0.1,0
	c0.1,0,0.1-0.1,0.1-0.2c0.1-0.4,0.2-0.8,0.3-1.2C146.4,75.4,146.6,74.4,146.9,73.5z"/>
<path d="M149.7,73c0.1,0.5,0,1.2,0,1.7c0,0.8-0.1,6.4,0.1,6.7c0.1,0,0.1,0,0.2-0.1c0.1-0.3,0-7.3,0-8.2c0.4,0.7,0.7,1.5,1.2,2.1
	c0.3,0.4,0.6,0.7,0.9,1c0.5,0.6,0.3,2.6,0.2,3.4c0,0.3-0.1,0.5-0.1,0.8c-0.3,1.6-0.9,3-1.8,4.4c-0.2,0.2-0.4,0.6-0.6,0.8
	c-0.5-0.2-1.6-2.6-1.8-3.2c-0.1-0.2-0.1-0.4-0.2-0.6c-0.1-0.2-0.1-0.4-0.2-0.6c-0.1-0.2-0.1-0.4-0.1-0.6c0-0.2-0.1-0.4-0.1-0.6
	c0-0.2-0.1-0.4-0.1-0.6c0-0.2,0-0.4,0-0.6c0-0.2,0-0.4,0-0.6c0-0.2,0-0.4,0-0.6c0-0.4,0.1-0.8,0.2-1.1c0.2-0.4,0.7-0.8,1-1.2
	C149,74.4,149.4,73.7,149.7,73z"/>
<path fill="#676667" d="M127.7,0.7c-0.1,3.1,0.1,5.8,0.8,8.9c0.1,0.6,0.3,1.3,0.5,1.9c0.1-0.5,0.2-1,0.6-1.4
	c0.6,1.9,1.3,3.6,2.3,5.2c0.4,0.7,0.9,1.4,1.4,2c0.4,0.5,1,1.1,1.4,1.6c0.9,1.3,1.5,3.1,0.7,4.6c-0.3,0.6-0.9,1.5-0.7,2.2
	c0.2,0.5,1,1.1,1.5,1.4c0.1,0,0.1,0,0.2,0.1c0.1,0,0.1,0,0.2,0.1c0.1,0,0.1,0,0.2,0.1c0.1,0,0.1,0,0.2,0c0.1,0,0.1,0,0.2,0
	c0.1,0,0.1,0,0.2,0c0.1,0,0.1,0,0.2,0c0.1,0,0.1,0,0.2,0c0.1,0,0.1,0,0.2,0c0.1,0,0.1,0,0.2,0c0.1,0,0.1,0,0.2,0c0.1,0,0.1,0,0.2,0
	c0.1,0,0.1,0,0.2,0c0.1,0,0.1,0,0.2,0c0.1,0,0.1,0,0.2,0c0.1,0,0.1,0,0.2-0.1c0.6-0.2,1.1-0.6,1.6-1.1l0,0.4c0,1.1,0,2.2,0,3.2
	l0,0.3c0,1.5,0,3.1,0,4.6c0,0.2,0,0.4,0,0.7c0.1,0.4,0.1,1.5,0,1.9c0.1,0.4,0,0.9,0,1.3c0.1,1.2,0,2.5,0.2,3.7
	c0.1,0.6,0.3,1.3,0.4,1.9c0.1,0.1,0.1,0.3,0.1,0.4c-0.1,0.4-0.2,0.7-0.4,1.1c-0.6,1.6-1.5,3.3-3,4.3c-0.4,0.3-0.9,0.5-1.4,0.7
	c0.2-1,1.7-8.1,1.5-8.5c0,0,0-0.1-0.1-0.1c0-0.5,0.5-1.6,0.3-2l-0.1,0.1l-0.2,0.1l-0.1,0l0,0c0-0.1,0-0.2-0.1-0.2
	c-0.3,0.4-0.8,2.6-1.1,3.2c-1.3,3.8-4.1,11-8.5,11.8c-0.3,0.1-0.7,0.1-1,0.1c0.6-1.3,1.3-2.5,1.9-3.8c1.1-2.3,2-4.6,2.9-7
	c0.3-0.8,0.8-2.1,1-3c0,0,0-0.1-0.1-0.1c0,0,0,0,0-0.1c0.2-0.4,0.4-0.9,0.5-1.4c0.1-0.1,0.1-0.2,0.1-0.4c-0.2,0-0.8,0.9-0.9,1
	c-2.2,2.7-5.4,6.2-8.6,7.4c-1.5,0.6-3,0.6-4.5-0.1c1.5-1.3,3-2.7,4.5-4.1c0.7-0.8,5.8-6.1,5.8-6.7c0,0,0,0,0-0.1
	c0.3-0.3,0.7-0.6,0.9-1c0-0.1,0.1-0.1,0.1-0.2c-0.2,0-0.7,0.4-0.9,0.5c-1.5,0.9-3,1.7-4.5,2.4c-2,0.9-4.2,1.7-6.4,1.7
	c-1.8,0-3.3-0.6-4.6-1.9c1.3-0.6,2.7-1,4-1.5c1.6-0.6,3.1-1.3,4.6-2.1c1.5-0.7,3-1.5,4.4-2.4c0.2-0.1,0.6-0.3,0.6-0.5
	c0.2-0.1,0.5-0.1,0.6-0.3c-0.1-0.1-0.2-0.1-0.3-0.1c-0.1-0.1-0.3-0.2-0.5-0.2c-0.8,0-1.7,0.1-2.5,0.2c-2.7,0.2-5.6,0.2-8.1-0.9
	c-1.6-0.7-2.9-1.8-3.6-3.5c3.4,0.3,6.9,0.2,10.2-0.1c0.4,0,1.2,0,1.6-0.3c0.3-0.1,0.6,0,0.9-0.1l0-0.1l-0.1-0.1
	c0-0.1-0.1-0.3-0.2-0.4c-0.2-0.2-2.1-0.8-2.4-0.9c-2.3-0.9-4.7-2.1-6.5-3.9c-1.4-1.4-2.4-3.1-2.5-5.1c1.9,1,3.8,2,5.8,2.9
	c0.5,0.2,3.6,1.5,3.8,1.5c0,0,0.1,0,0.1,0c0.6,0.2,1,0.6,1.7,0.6l0.1,0l0.1-0.1c-0.1-0.2-2-2-2.2-2.3c-1.4-1.4-2.7-2.9-3.7-4.6
	c-1.3-2.3-2-4.6-1.3-7.2c0.9,1.2,1.8,2.3,2.8,3.4c1,1.1,2,2.2,3,3.2c0.2,0.2,0.7,0.8,1,0.9c0.2,0.2,0.4,0.5,0.7,0.7l0.1,0.1l0-0.1
	c0-0.4-0.3-0.9-0.4-1.3c-0.1-0.4-0.2-0.9-0.4-1.4c-0.8-3.5-1.2-7.9,1.3-10.9C127.2,1.2,127.4,0.9,127.7,0.7z"/>
<path d="M140.3,30c0,1.5,0,3.1,0,4.6c-0.3-0.5-0.6-1.2-0.8-1.7c0.1-0.5,0.3-1,0.4-1.5c0.1-0.4,0-0.8,0.1-1.1
	C140,30.1,140.2,30,140.3,30z"/>
<path d="M131.6,25.5c0.1,0.1,0.6,1.4,0.8,1.6c-0.8,0.3-1.4,0.4-2.2,0.3c-0.3,0-0.6-0.1-0.9-0.2c0.1-0.2,0.2-0.3,0.3-0.5
	C130,26,130.8,25.7,131.6,25.5z"/>
<path d="M132.5,27.5c0.2,0.2,0.7,0.8,0.9,1.1c0.2,0.2,0.4,0.4,0.6,0.6c-0.5,0.5-1,0.9-1.6,1.1c-0.4,0.2-0.8,0.2-1.2,0.3
	c0.1-0.8,0.3-1.6,0.8-2.4C132.1,28,132.3,27.7,132.5,27.5z"/>
<path d="M129.9,19.9c0.7,0,1.3,0,2,0.2c-0.3,0.8-0.5,1.6-0.6,2.5c-0.1,0-0.2-0.1-0.3-0.1c-1-0.4-1.7-1.2-2.3-2.1
	C129.1,20.1,129.5,20,129.9,19.9z"/>
<path d="M130.5,22.8c0.3,0,0.6,0,0.9,0c0,0.8,0,1.6,0.2,2.3c-0.7,0-1.3-0.1-1.9-0.4c-0.5-0.2-1-0.6-1.5-1
	C128.8,23.2,129.6,22.9,130.5,22.8z"/>
<path d="M127.9,24.1c0.2,0.1,0.3,0.3,0.5,0.4c0.4,0.3,0.8,0.5,1.2,0.7c-0.5,0.1-1,0.2-1.5,0.4c-0.1,0.1-0.2,0.1-0.3,0.2l0,0.1
	c0.2,0,1.8-0.4,2.3-0.5c0.2,0,0.4,0,0.6,0.1c-0.3,0.1-0.6,0.3-0.8,0.5c-0.4,0.3-0.7,0.8-0.9,1.3c-0.1,0-0.3,0-0.4,0
	c-1.1-0.1-1.8-0.5-2.5-1.3C126.4,25,127.2,24.5,127.9,24.1z"/>
<path d="M134.3,29.4c0.2,0.1,0.4,0.2,0.5,0.3c0.5,0.3,0.9,0.4,1.4,0.6c-0.3,1.2-0.7,2.1-1.7,2.8c-0.3,0.3-0.7,0.5-1,0.7
	C133.2,32.2,133.3,30.8,134.3,29.4z"/>
<path d="M127.9,20.4c0.2,0,0.4,0,0.5,0c0.5,0.7,1,1.3,1.7,1.9c-0.6-0.1-1.2-0.2-1.8-0.3c-0.3-0.1-0.7-0.3-1-0.2
	c-0.1,0.1-0.1,0.1,0,0.2c0.3,0.3,2.1,0.6,2.6,0.6c-0.1,0.1-0.6,0.2-0.9,0.3c-0.4,0.2-0.8,0.5-1.1,0.9c-0.1,0-0.1,0-0.2,0
	c-1.1-0.4-1.6-1.1-2.1-2.1C126.3,20.9,126.9,20.6,127.9,20.4z"/>
<path d="M128.1,16.8c0.3,0,0.6,0,0.9,0c1.1,0.2,1.4,0.7,2,1.6c0.3,0.5,0.6,0.9,0.9,1.3c-1.1-0.3-2-0.9-2.9-1.6
	c-0.1,0.1-0.1,0.1-0.1,0.2c0.2,0.4,1.3,1,1.8,1.2c-0.9,0-1.4,0.2-2.2,0.6c-0.9-0.8-1.1-2-1.2-3.1C127.6,16.9,127.8,16.8,128.1,16.8z
	"/>
<path d="M129.2,27.5c1.1,0.3,1.9,0.3,2.9,0c-0.5,0.4-0.9,0.7-1.5,1c-0.3,0.2-0.6,0.3-0.9,0.5c-0.1,0.1-0.2,0.1-0.2,0.2l0,0.1
	c0,0,0.1,0,0.1,0c0.2,0,1.6-0.8,1.9-1l-0.2,0.4c-0.2,0.6-0.4,1.2-0.5,1.8c-0.3,0.1-0.6,0.2-0.9,0.3c-1,0.2-1.7,0-2.5-0.6
	C127.8,29.4,128.5,28.3,129.2,27.5z"/>
<path d="M133.5,30c0.2,0.4-1.6,2.2-1.6,2.6c0,0.1,0,0.1,0.1,0.1l0.1,0c0.4-0.5,0.8-1,1.1-1.5c-0.1,0.9-0.1,1.8,0.1,2.7
	c-0.2,0.1-0.5,0.3-0.8,0.4c-0.9,0.3-1.8,0.4-2.7,0.3c0.5-1.3,0.9-2.5,1.3-3.8C132,30.8,132.7,30.5,133.5,30z"/>
<path d="M139,33.8c-0.2,0.8-0.3,1.7-0.5,2.5c0,0,0,0.1,0,0.1c0,0.1,0,0.2,0.1,0.3l0.1,0c0.2-0.2,0.7-2.9,0.8-3.4
	c0.3,0.6,0.6,1.3,0.9,1.9c0.1,0.4,0.1,1.5,0,1.9c-0.8,1.2-1.3,1.6-2.4,2.5c-0.2-1.3-0.5-2.7-0.7-4C137.8,35,138.4,34.5,139,33.8z"/>
<path d="M139.5,30.3l0.1,0c0.1,0.2,0,1,0,1.2c-0.3,1.5-1.2,2.9-2.5,3.8c-0.1-0.1-0.1-0.2-0.2-0.3c-0.4-1.3-0.7-3.2-0.4-4.6
	C137.5,30.5,138.5,30.5,139.5,30.3z"/>
<path d="M135.9,31.9c0.1,0.6-1,2.6-1.1,3.3c0.1,0.1,0.1,0.1,0.2,0.1c0.3-0.2,0.9-2.2,1.1-2.7c0.1,1,0.3,2,0.7,2.9
	c-0.2,0.3-0.4,0.7-0.7,1c-0.9,0.9-2,1.4-3.2,1.7c0.2-1.3,0.4-2.7,0.6-4C134.6,33.5,135.2,33,135.9,31.9z"/>
<path d="M138.4,39.6c0.6-0.5,1.2-0.9,1.7-1.6c-0.1,0.5-0.4,2-0.2,2.4l0.1,0c0.3-0.5,0.3-1.3,0.4-1.9c0.1,1.2,0,2.5,0.2,3.7
	c0.1,0.6,0.3,1.3,0.4,1.9c-0.1,0.4-0.2,0.7-0.4,1.1c-0.8,2-1.8,4-3.9,5c0.1-0.6,0.3-1.2,0.4-1.8c0.2-1,0.4-2.1,0.6-3.1
	c0.2-1.2,0.4-2.3,0.5-3.5C138.2,41,138.3,40.3,138.4,39.6z"/>
<path d="M127.4,1.4c0.1,0.4,0,0.9,0,1.3c0,0.7,0,1.4,0.1,2.1c0.1,1.2,0.3,2.5,0.5,3.7c0.2,1.2,0.6,2.3,0.8,3.5c0.1,0.4,0,0.9,0,1.4
	c0.1,1.2,0.6,2.3,1.1,3.4l-0.8-0.2c-0.6-0.9-1.2-2.1-1.5-3.1c-0.1-0.4-0.2-0.9-0.4-1.2c0-0.1-0.1-0.1-0.2-0.1l-0.1,0.1
	c-0.1,0.2,0,0.4,0.1,0.7c0.4,1.3,1,2.5,1.6,3.6c-0.5,0-1,0.1-1.5,0.3c-1.1-2.9-2-5.8-2-8.9C125.2,5.6,125.7,3.1,127.4,1.4z"/>
<path d="M118.8,7.5c0.2,0.1,2.2,2.7,2.6,3.1c1.1,1.2,2.2,2.4,3.4,3.6c0.5,0.5,1.5,1.3,1.8,1.9c0.4,0.7,0.5,2,0.7,2.9
	c-0.5-0.5-1.1-1-1.6-1.6c-0.3-0.4-1.3-1.5-1.6-1.7l-0.1,0l0,0.1c0.1,0.4,0.7,0.9,1,1.2c1,1,2,2,2.9,3c-0.7,0-1.3,0.2-1.9,0.6
	c-2.2-2-4.4-4.2-5.9-6.7C119.2,12.1,118.2,9.7,118.8,7.5z"/>
<path d="M114.6,16.4c0.4,0.1,0.8,0.4,1.1,0.6c0.7,0.4,1.4,0.8,2.2,1.1c1.2,0.6,2.5,1.2,3.8,1.7c1.3,0.5,2.6,1,3.9,1.4l-0.3,0.3
	c0.4,0.9,0.8,1.5,1.6,2.1c-0.9-0.3-1.9-0.7-2.8-1.1c-0.3-0.1-1.4-0.7-1.6-0.7c-0.1,0-0.1,0-0.2,0.1l0,0c0.2,0.3,1,0.5,1.4,0.7
	c1.2,0.5,2.4,1,3.6,1.4c-0.6,0.4-1,0.9-1.4,1.5c-2.6-0.9-5.2-1.9-7.4-3.5C116.5,20.6,115,18.9,114.6,16.4z"/>
<path d="M126.1,26.7c0.1,0,0.2,0,0.3,0c0.2,0.1,0.4,0.2,0.5,0.3c0.6,0.3,1.2,0.4,1.9,0.5l-0.6,0.8c-1.2,0.1-2.4,0.2-3.7,0.2
	c-0.4,0-1.5,0-1.7,0.1c-0.1,0-0.1,0-0.1,0.1l0.1,0.1c0.5,0.2,4.4-0.1,5.2-0.2c-0.3,0.5-0.8,1.2-0.9,1.8l0.1,0.1
	c-0.3,0.3-4.2,0.3-4.9,0.3c-1.3,0-2.8-0.2-4-0.6c-1.9-0.6-3.4-1.6-4.4-3.3c2.1,0.1,4.1,0.2,6.2,0.1C122,27.1,124.1,26.9,126.1,26.7z
	"/>
<path d="M130.6,31L130.6,31L130.6,31c-0.1,0.6-0.3,1.2-0.5,1.8c-1.3,0.8-2.7,1.5-4.1,2.2c-0.7,0.3-1.4,0.6-2.1,0.9
	c-0.2,0.1-0.4,0.2-0.4,0.4l0.1,0c1-0.1,5.4-2.5,6.4-3.1l-0.6,1.7l1,0.1c-2.1,1.2-4.1,2.4-6.4,3.3c-1.5,0.6-2.9,1.1-4.5,1.2
	c-1.9,0.2-3.4-0.2-4.9-1.4c3.3-1.2,6.5-2.5,9.6-4.1c1-0.5,1.9-1,2.9-1.6c0.5-0.3,1.1-0.7,1.7-1c0.4-0.1,0.8-0.1,1.2-0.2
	C130.2,31.2,130.4,31.1,130.6,31z"/>
<path d="M133.2,34.4C133.2,34.4,133.2,34.4,133.2,34.4c0,0.4-0.1,1-0.3,1.3c-0.3,0.5-0.7,1-1.1,1.4c-0.8,1-1.7,2-2.6,3
	c-0.5,0.6-1.2,1.1-1.7,1.7c-0.1,0.1-0.1,0.1-0.1,0.3l0.1,0.1c0.2,0,0.5-0.5,0.7-0.6c0.9-0.9,1.9-1.9,2.7-2.9
	c0.6-0.8,1.2-1.6,1.9-2.3l0,0l-0.3,2.3l0.8-0.2c-1.5,2-3.2,3.9-5,5.6c-1.3,1.2-2.6,2.3-4.3,3.1c-1.4,0.7-2.9,0.8-4.4,0.3
	c0.9-0.8,1.8-1.6,2.6-2.4c0.9-0.8,1.7-1.6,2.5-2.5s1.6-1.7,2.4-2.6c0.8-0.9,1.5-1.8,2.3-2.7c0.6-0.7,1.2-1.5,1.8-2.2
	C131.9,34.9,132.6,34.7,133.2,34.4z"/>
<path d="M140.3,29.7c-1.3,0.5-2.8,0.6-4.2,0.2c-1.7-0.5-2.9-1.8-3.7-3.3c-0.9-1.7-1-3.8-0.5-5.7c0.1-0.3,0.2-0.6,0.3-0.9
	c0-0.1,0-0.2,0-0.2c0-0.2-0.7-0.9-0.8-1.1c-0.5-0.7-0.9-1.4-1.3-2.1c-1-1.9-1.4-3.7-0.8-5.8c0.8,2.4,1.9,4.6,3.5,6.6
	c0.4,0.5,0.8,1,1.3,1.5c0.4,0.5,0.8,1.2,1,1.8c1,2.7-0.8,2.9-0.9,4.7c0,0.4,0.1,0.8,0.4,1.1c0.7,0.8,1.6,1.2,2.7,1.2
	c1.2,0,2.1-0.4,2.9-1.2C140.3,27.5,140.3,28.6,140.3,29.7z"/>
<path d="M136.9,36c0.1,0.1,0.5,2.5,0.5,2.8c0.1,0.7-0.4,1.8-0.6,2.4c-1.1,3.6-2.6,7.7-5,10.6c-1.1,1.4-2.5,2.5-4.4,2.7
	c1.3-2.8,2.7-5.5,3.8-8.3c1.1-2.6,1.9-5.3,2.7-7.9c0.8-0.3,1.5-0.8,2.2-1.3c-0.6,2.2-1.4,4.4-2.2,6.5c-0.2,0.4-1.1,2.5-1.1,2.7
	c0,0.1,0,0.1,0.1,0.2c0.5-0.4,2.5-6.2,2.8-7.2C136.1,38.1,136.3,36.9,136.9,36z"/>
<path fill="#676667" d="M172.3,0.7c0.5,0.7,1,1.2,1.4,1.9c1.7,3,1.4,6.8,0.6,10.1c-0.1,0.4-0.7,2.4-0.7,2.5l0.1,0l0.1-0.1
	c0.3-0.1,0.5-0.5,0.7-0.7c0.7-0.2,6-6.5,6.8-7.5c0.1,0.6,0.3,1.3,0.3,1.9c0,2-0.8,3.9-1.8,5.6c-0.3,0.4-0.5,0.8-0.8,1.2
	c-0.3,0.4-0.6,0.8-0.9,1.2c-0.3,0.4-0.6,0.8-1,1.1c-0.3,0.4-0.7,0.7-1,1.1c-0.4,0.4-0.9,0.9-1.3,1.3c-0.2,0.2-0.4,0.4-0.6,0.6
	c-0.1,0.1-0.1,0.1-0.1,0.2c0.1,0,0.1,0,0.2,0c0.5,0,1.1-0.4,1.6-0.6c0,0,0.1,0,0.1,0c0.3,0,3.5-1.4,4.1-1.6c1.1-0.5,2.2-1,3.2-1.6
	c0.8-0.4,1.6-0.9,2.4-1.3c-0.3,2.5-1.4,4.3-3.4,5.9c-2.3,1.8-5.3,3.2-8,4l-0.3,0.4l-0.1,0.1c0.1,0.1,0,0.1,0.1,0.1
	c0.2,0.1,0.5,0,0.8,0c0.3,0.2,1.2,0.2,1.5,0.3c1.7,0.1,3.4,0.2,5.1,0.2c1.7,0,3.4,0,5.1-0.2c-1,2-2.4,3.1-4.6,3.8
	c-3.1,1-6.5,0.6-9.7,0.3c-0.1,0.1-0.3,0.1-0.4,0.2c-0.1,0-0.2,0-0.3,0.1c0.1,0.2,0.4,0.2,0.6,0.3c0.2,0.4,1.2,0.8,1.6,1.1
	c1.3,0.8,2.7,1.5,4.1,2.1c1.4,0.7,2.8,1.3,4.2,1.8c1.3,0.5,2.6,0.9,3.8,1.4c-1.6,1.4-3,2-5.1,1.9c-4-0.3-8.3-2.7-11.7-4.7
	c0.2,0.2,0.4,0.3,0.5,0.5c0,0.1,0,0.1,0.1,0.2c0.2,0.3,0.5,0.5,0.7,0.7c0,0.4,1,1.4,1.3,1.7c1.8,2.2,3.8,4.3,5.9,6.3
	c0.7,0.6,1.3,1.2,2,1.9c0.4,0.4,0.9,0.7,1.2,1.1c-1.7,0.7-3.2,0.6-4.9-0.1c-3.4-1.4-6.5-5.1-8.8-7.9c-0.1-0.1-0.3-0.4-0.4-0.4
	c0,0.2,0.1,0.3,0.1,0.4c0.1,0.4,0.2,0.9,0.4,1.2c0,0,0,0,0,0.1c-0.1,0.4,0.4,1.5,0.6,2c0.4,1,0.7,2.1,1.1,3.1c0.4,1,0.8,2,1.3,3
	c0.4,1,0.9,2,1.4,3c0.5,1,1,2,1.5,2.9c-0.9,0-1.7-0.2-2.4-0.6c-3.9-1.9-6.2-8.6-7.5-12.5c-0.2-0.6-0.4-1.3-0.6-2l-0.1,0
	c0,0.1,0,0.2-0.1,0.2l-0.3-0.1l-0.1,0c0,0.8,0.3,1.5,0.4,2.3c0,0-0.1,0.1-0.1,0.1c-0.2,0.6,1.2,7.1,1.5,8.2
	c-2.3-0.9-3.4-2.4-4.3-4.6c-0.2-0.6-0.5-1.6-0.7-2c0.1-0.2,0.1-0.3,0.2-0.5c0.1-0.8,0.3-1.6,0.4-2.4c0.1-1.3,0-2.6,0.1-3.9
	c0-0.2,0-0.4,0-0.6c-0.1-0.2,0-0.4,0-0.5c0-0.2,0-0.5,0-0.7c0-0.3,0-0.7,0-1.1c-0.1-0.4-0.1-4.3,0-4.8c0-0.4,0-0.8,0-1.3
	c0-0.7,0-1.4,0-2.2c0-0.2,0-0.3,0-0.5c0.4,0.7,0.9,1.2,1.7,1.5c0.8,0.4,1.8,0.4,2.6,0.1c0.6-0.2,1.4-0.8,1.6-1.4
	c0.4-0.9-0.6-1.9-0.9-2.7c-0.5-1.3,0.1-3,0.9-4.2c0.5-0.6,1-1.2,1.5-1.8c0.6-0.8,1.2-1.6,1.7-2.4c0.3-0.5,0.5-0.9,0.8-1.4
	c0.2-0.5,0.4-1,0.6-1.5c0.2-0.5,0.4-1.1,0.6-1.6l0-0.1c0.2,0.5,0.4,1,0.5,1.4c0.4-1.8,0.8-3.5,1.1-5.4
	C172.3,4.3,172.3,2.5,172.3,0.7z"/>
<path d="M159.4,29.9c0.2,0.1,0.4,0.1,0.6,0.2c0,1,0.1,1.8,0.5,2.7c-0.4,0.8-0.8,1.6-1.1,2.5c0-0.3,0-0.7,0-1.1
	C159.5,33.4,159.5,30.8,159.4,29.9z"/>
<path d="M168.3,25.5c0.2,0,0.5,0.1,0.7,0.2c0.8,0.3,1.3,0.8,1.6,1.5c-0.2,0.1-0.5,0.1-0.7,0.2c-0.8,0.1-1.5,0-2.3-0.3
	C167.9,26.6,168.1,26.1,168.3,25.5z"/>
<path d="M167.4,27.5c0.8,0.7,1.2,2.1,1.4,3.1c-0.4-0.1-0.8-0.1-1.2-0.3c-0.7-0.3-1.2-0.7-1.7-1.2C166.5,28.7,166.9,28.1,167.4,27.5z
	"/>
<path d="M168.9,19.9c0.9-0.1,1.6,0,2.3,0.4c-0.4,0.6-0.9,1.2-1.5,1.6c-0.3,0.3-0.8,0.4-1.2,0.6c-0.1-0.8-0.3-1.7-0.6-2.5
	C168.3,20,168.6,19.9,168.9,19.9z"/>
<path d="M168.9,22.8c0.2,0,0.4,0,0.5,0c0.9,0,1.7,0.4,2.3,1c-0.3,0.3-0.7,0.5-1,0.7c-0.7,0.4-1.5,0.6-2.3,0.6
	c0.1-0.8,0.2-1.5,0.2-2.3C168.7,22.8,168.8,22.9,168.9,22.8z"/>
<path d="M172,24c0.8,0.5,1.4,1,1.9,1.8c0,0.1-0.1,0.1-0.1,0.2c-0.8,0.9-1.6,1.1-2.8,1.2c-0.2-0.5-0.5-0.9-0.9-1.2
	c-0.3-0.2-0.6-0.4-0.9-0.5c1-0.2,2.5,0.5,2.9,0.3l0-0.1c-0.3-0.3-1.4-0.4-1.8-0.5C170.9,24.9,171.5,24.5,172,24z"/>
<path d="M165.6,29.4c0.1,0.1,0.2,0.1,0.2,0.3c0.8,1.2,0.9,2.8,0.6,4.2c-0.3-0.2-0.6-0.4-0.9-0.6c-0.9-0.7-1.6-1.8-1.7-2.9
	C164.4,30,165,29.8,165.6,29.4z"/>
<path d="M171.5,20.4c1.2,0,1.9,0.4,2.8,1.1c-0.1,0.2-0.2,0.4-0.3,0.5c-0.5,0.8-1.1,1.3-2,1.6c-0.5-0.5-0.9-0.8-1.6-1
	c-0.1,0-0.3-0.1-0.4-0.1c0.4-0.1,2.4-0.4,2.7-0.7c0-0.1,0-0.1-0.1-0.2c-0.2,0-0.6,0.1-0.8,0.2c-0.7,0.2-1.3,0.3-2,0.4
	C170.5,21.8,171,21.1,171.5,20.4z"/>
<path d="M171.1,16.8c0.5-0.1,1,0,1.5,0.2c-0.1,1.2-0.3,2.3-1.2,3.1c-0.7-0.4-1.3-0.5-2.2-0.6c0.5-0.2,1-0.6,1.5-0.9
	c0.1-0.1,0.2-0.2,0.3-0.3l-0.1-0.1c-0.1,0-0.1,0-0.2,0c-0.4,0.2-0.7,0.5-1,0.7c-0.5,0.3-1.2,0.6-1.8,0.8c0.5-0.7,0.9-1.4,1.4-2.1
	C169.9,17,170.4,16.9,171.1,16.8z"/>
<path d="M170.7,27.5C170.7,27.5,170.7,27.5,170.7,27.5c0.4,0.2,1.6,2.4,1.8,2.8c-0.2,0.1-0.5,0.3-0.7,0.4c-0.9,0.4-1.8,0.2-2.7-0.1
	c-0.1-0.6-0.3-1.1-0.4-1.7c-0.1-0.2-0.2-0.4-0.3-0.6c0.5,0.3,1.3,0.8,1.9,1c0.1,0,0.1,0,0.1,0l0-0.1c0-0.1-0.1-0.2-0.2-0.2
	c-0.2-0.1-0.4-0.1-0.5-0.2c-0.7-0.3-1.3-0.7-1.9-1.2C168.9,27.9,169.7,27.8,170.7,27.5z"/>
<path d="M166.4,30c0.7,0.5,1.5,0.8,2.4,0.8l1.3,3.8c-0.9,0.1-1.9,0-2.7-0.3c-0.3-0.1-0.5-0.2-0.7-0.4c0.2-0.9,0.3-1.8,0.1-2.7
	c0.2,0.4,0.9,1.4,1.2,1.5l0.1-0.1c0-0.1,0-0.1,0-0.2c-0.1-0.2-0.3-0.4-0.4-0.6C167.2,31.4,166.7,30.7,166.4,30L166.4,30z"/>
<path d="M160.3,30.2c1.1,0.3,2.1,0.3,3.2,0.1c0.2,1.7,0.1,2.7-0.4,4.4l-0.2,0.6c-0.3-0.2-0.6-0.5-0.8-0.7
	C160.8,33.4,160.3,31.9,160.3,30.2z"/>
<path d="M159.3,36c0.4-0.9,0.9-1.8,1.3-2.7c0.1,0.5,0.6,3.2,0.7,3.4l0.1,0c0.1-0.2,0.1-0.4,0-0.6c-0.2-0.8-0.3-1.6-0.5-2.3
	c0.6,0.7,1.1,1.3,1.8,1.9l-0.7,4c-1.2-1-2.1-1.6-2.8-3.1C159.3,36.4,159.3,36.2,159.3,36z"/>
<path d="M164,31.9c0.2,0.2,0.4,0.5,0.5,0.7c0.5,0.7,1.2,1.1,1.9,1.5c0.2,1.3,0.4,2.7,0.6,4.1c-1.2-0.3-2.2-0.8-3.1-1.6
	c-0.3-0.3-0.6-0.7-0.8-1.1c0.3-1,0.6-2,0.7-3c0.2,0.7,0.4,1.3,0.7,1.9c0.1,0.2,0.3,0.8,0.5,0.9c0.1,0,0.1-0.1,0.2-0.1
	C164.6,34.1,164.2,33,164,31.9z"/>
<path d="M159.3,37.2C159.3,37.2,159.3,37.2,159.3,37.2c0.4,0.7,0.4,3,0.7,3.2l0.1,0c0.2-0.3-0.2-2-0.3-2.4c0.5,0.6,1.1,1.1,1.7,1.6
	c0.4,3.5,0.9,7,1.8,10.5c-2.2-1.1-3.3-3-4-5.2c-0.2-0.5-0.3-1-0.4-1.5c0.1-0.8,0.3-1.6,0.4-2.4C159.3,39.8,159.2,38.5,159.3,37.2z"
	/>
<path d="M172.6,1.5c0.5,0.3,1,1.3,1.2,1.8c2,4.1,0.3,9.4-1.1,13.4c-0.5-0.2-1-0.3-1.5-0.3c0.7-1.2,1.2-2.4,1.6-3.7
	c0-0.1,0.1-0.3,0.1-0.4c0-0.1,0-0.2-0.1-0.3l0.1,0.1l0-0.1l-0.1,0c-0.3,0.2-0.4,1.1-0.5,1.4c-0.2,0.5-0.4,1-0.7,1.6
	c-0.3,0.5-0.5,1-0.8,1.5l-0.8,0.3c0.5-1.1,1-2.1,1.1-3.3c0.1-0.5,0-1,0.1-1.5c0.2-1,0.5-1.9,0.7-2.9C172.4,6.5,172.6,4.1,172.6,1.5z
	"/>
<path d="M181.1,7.4c0.2,0.3,0.2,1.4,0.1,1.7c-0.2,4.4-4.4,8.7-7.5,11.5c-0.6-0.3-1.2-0.5-1.9-0.6c0.9-1,1.9-1.9,2.8-2.9
	c0.4-0.4,0.8-0.8,1.2-1.2c0-0.1,0-0.1,0-0.2l-0.1,0c-0.1,0-0.2,0.1-0.3,0.2c-0.4,0.4-0.7,0.8-1.1,1.2c-0.6,0.6-1.2,1.2-1.8,1.8
	c0.3-0.9,0.2-2,0.7-2.8c0.3-0.5,1.8-1.8,2.2-2.3c0.7-0.8,1.5-1.5,2.2-2.3C178.8,10.2,180,8.8,181.1,7.4z"/>
<path d="M185.2,16.4L185.2,16.4c0,0.7-0.3,1.5-0.6,2.1c-1.8,3.7-6.9,5.8-10.6,7c-0.4-0.6-0.8-1.1-1.4-1.5c1.2-0.4,2.4-0.9,3.6-1.4
	c0.4-0.2,1.2-0.4,1.4-0.8l0-0.1c-0.1,0-0.2,0-0.3,0c-0.6,0.2-1.2,0.5-1.8,0.8c-0.9,0.4-1.7,0.7-2.6,1c0.7-0.5,1.4-1.2,1.7-2.1
	c0-0.1-0.1-0.2-0.2-0.3c0.9-0.3,1.9-0.7,2.8-1c0.9-0.4,1.8-0.7,2.7-1.1c0.9-0.4,1.8-0.8,2.7-1.3C183.5,17.4,184.4,16.9,185.2,16.4z"
	/>
<path d="M173.5,26.7c0.4,0,0.9,0.1,1.3,0.1c0.9,0.1,1.8,0.2,2.7,0.3c2.9,0.2,5.7,0.1,8.5,0c-0.2,0.4-0.5,0.8-0.7,1.1
	c-1.8,2.1-4.6,2.5-7.1,2.8c-0.7,0-5,0-5.5-0.3c0,0,0.1-0.1,0.1-0.2c-0.2-0.6-0.6-1.2-0.9-1.8c1,0.1,2.1,0.2,3.1,0.2
	c0.4,0,1.8,0.2,2.1-0.1l0-0.1c-0.1-0.1-0.3-0.1-0.4-0.1c-0.6-0.1-1.3,0-1.9-0.1c-1-0.1-2.1-0.1-3.1-0.2l-0.6-0.8
	C172.1,27.5,172.8,27.2,173.5,26.7z"/>
<path d="M169.2,31c0.2,0.1,0.5,0.2,0.7,0.2c0.4,0.1,0.9,0,1.4,0.2c0.5,0.2,1,0.6,1.5,0.9c1,0.6,2.1,1.2,3.2,1.7
	c3.1,1.6,6.1,2.8,9.4,4c-0.4,0.4-0.9,0.7-1.4,0.9c-2.6,1.2-5.5,0.3-7.9-0.6c-2.3-0.9-4.4-2.1-6.5-3.3c0.3-0.1,0.7-0.1,1-0.1
	l-0.6-1.7c1.8,1,3.6,1.9,5.5,2.8c0.2,0.1,0.7,0.4,0.9,0.4c0,0,0.1-0.1,0.1-0.1c0-0.1-0.1-0.1-0.1-0.2c-0.7-0.4-1.5-0.6-2.2-1
	c-1.5-0.7-2.9-1.5-4.3-2.3C169.6,32.2,169.4,31.6,169.2,31z"/>
<path d="M166.7,34.4c0.7,0.3,1.3,0.5,2,0.6c3.3,4.6,7.2,8.6,11.5,12.4c-0.5,0.2-1,0.3-1.5,0.3c-2.7,0.1-5.2-1.9-7.1-3.6
	c-1.6-1.5-3.8-3.9-5.1-5.7l0.8,0.2c-0.1-0.8-0.2-1.5-0.3-2.3c1.2,1.5,2.5,3,3.9,4.4c0.5,0.5,0.9,1,1.4,1.4l0.1,0c0,0,0-0.1,0-0.1
	c-0.2-0.4-1.1-1.2-1.4-1.5c-0.8-0.9-3.6-3.8-4-4.8C166.8,35.3,166.8,34.8,166.7,34.4z"/>
<path d="M163,36c0.1,0.2,0.3,0.3,0.3,0.5c0.3,0.8,0.5,1.7,0.7,2.5c0.6,1.9,1.3,3.8,2.1,5.7c0.2,0.5,0.4,1.1,0.7,1.5
	c0.1,0,0.1,0,0.2-0.1c0-0.1,0-0.2,0-0.3c-0.2-0.5-0.5-1.1-0.7-1.6c-0.6-1.3-1.1-2.6-1.5-4c-0.4-1.1-0.7-2.2-1-3.3
	c0.7,0.5,1.4,0.9,2.2,1.2c0.8,2.7,1.6,5.4,2.7,8c0.6,1.4,1.2,2.8,1.8,4.2c0.6,1.4,1.3,2.8,2,4.1c-0.2,0-0.4,0-0.6-0.1
	c-2-0.4-3.5-2.1-4.6-3.7c-1.9-2.8-3.1-6.2-4.2-9.5c-0.2-0.7-0.5-1.5-0.6-2.2C162.5,38.4,162.9,36.8,163,36z"/>
<path d="M159.3,26.1c0.6,0.8,1.4,1.4,2.5,1.6c1.1,0.2,2-0.1,2.9-0.8c0.4-0.3,0.8-0.7,0.9-1.2c0.2-1.6-1.4-2.3-1.1-4.1
	c0.3-1.9,1.4-2.9,2.5-4.3c0.5-0.6,1-1.3,1.4-2c0.9-1.4,1.5-2.9,2-4.5c0.7,2,0.3,3.8-0.6,5.7c-0.6,1.2-1.4,2.3-2.2,3.5
	c0.8,2.2,1,4.4,0,6.5c-0.7,1.5-1.9,2.9-3.6,3.4c-1.4,0.5-3.2,0.4-4.5-0.2c-0.1,0-0.1-0.1-0.2-0.2c0-0.4,0-0.8,0-1.3
	C159.3,27.5,159.3,26.8,159.3,26.1z"/>
</svg>
