<?xml version="1.0" encoding="utf-8"?>
<!-- Generator: Adobe Illustrator 25.4.1, SVG Export Plug-In . SVG Version: 6.00 Build 0)  -->
<svg version="1.1" id="Layer_1" xmlns="http://www.w3.org/2000/svg" xmlns:xlink="http://www.w3.org/1999/xlink" x="0px" y="0px"
	 viewBox="0 0 300 87" style="enable-background:new 0 0 300 87;" xml:space="preserve">
<style type="text/css">
	.st0{clip-path:url(#SVGID_00000029020386055715875640000001354571035370833036_);}
	.st1{fill:#FCB814;}
	.st2{fill-rule:evenodd;clip-rule:evenodd;fill:#FCB814;}
</style>
<g>
	<defs>
		<rect id="SVGID_1_" x="54.5" y="1" width="190.8" height="83.9"/>
	</defs>
	<clipPath id="SVGID_00000124884332422985642250000013500466155040099771_">
		<use xlink:href="#SVGID_1_"  style="overflow:visible;"/>
	</clipPath>
	<g style="clip-path:url(#SVGID_00000124884332422985642250000013500466155040099771_);">
		<path class="st1" d="M177,33v2.2h1.5c0.7,0,1.3,0.1,1.8,0.3c0.6,0.2,1,0.4,1.4,0.7c0.4,0.3,0.7,0.7,0.9,1.2c0.2,0.5,0.3,1,0.3,1.6
			c0,0.5-0.1,1-0.2,1.5c-0.2,0.5-0.4,0.9-0.8,1.2c-0.4,0.4-0.8,0.7-1.4,0.9c-0.6,0.2-1.3,0.3-2.1,0.3h-2.6c-0.4,0-0.7-0.1-1-0.4
			c-0.3-0.2-0.4-0.5-0.4-0.9V32c0-0.3,0.1-0.6,0.4-0.8c0.2-0.2,0.6-0.4,0.9-0.4h5.1c0.3,0,0.6,0.1,0.9,0.3c0.2,0.2,0.4,0.5,0.4,0.8
			c0,0.3-0.1,0.6-0.4,0.8c-0.2,0.2-0.5,0.3-0.9,0.3H177z M177,37.4v3.3h1.5c0.4,0,0.7-0.1,1-0.1c0.3-0.1,0.5-0.2,0.6-0.4
			c0.2-0.2,0.3-0.3,0.3-0.5c0.1-0.2,0.1-0.4,0.1-0.6c0-1.1-0.7-1.7-2-1.7L177,37.4L177,37.4z"/>
		<path class="st1" d="M190.3,31.3c0.1-0.2,0.2-0.4,0.5-0.5c0.2-0.1,0.4-0.2,0.7-0.2c0.3,0,0.6,0.1,0.8,0.3c0.2,0.2,0.4,0.5,0.4,0.8
			c0,0.1,0,0.1,0,0.2c0,0.1,0,0.1-0.1,0.2l-2.8,6.9c-0.2,0.5-0.5,1.1-0.7,1.5c-0.2,0.5-0.5,0.9-0.8,1.3c-0.3,0.4-0.7,0.7-1.1,0.9
			c-0.4,0.2-1,0.3-1.6,0.4c-0.4,0-0.6-0.1-0.9-0.3c-0.2-0.2-0.4-0.5-0.4-0.8c0-0.3,0.1-0.5,0.3-0.7c0.2-0.2,0.5-0.3,0.8-0.4
			c0.4,0,0.7-0.1,0.9-0.3c0.2-0.2,0.4-0.4,0.6-0.8l-3.2-7.7c0-0.1-0.1-0.2-0.1-0.2c0-0.1,0-0.1,0-0.2c0-0.3,0.1-0.6,0.4-0.7
			c0.2-0.2,0.5-0.3,0.9-0.3c0.2,0,0.4,0.1,0.7,0.2c0.2,0.1,0.4,0.3,0.4,0.5l1.5,3.7c0.2,0.4,0.3,0.8,0.4,1.2
			c0.1,0.4,0.2,0.8,0.3,1.2c0.1-0.4,0.2-0.8,0.3-1.2c0.1-0.4,0.2-0.8,0.4-1.2L190.3,31.3z"/>
		<path class="st1" d="M193.6,40.7c0.3-0.3,0.5-0.8,0.7-1.5c0.2-0.6,0.3-1.4,0.3-2.3l0.3-5c0-0.3,0.2-0.6,0.4-0.9
			c0.3-0.2,0.6-0.4,0.9-0.4h4.7c0.4,0,0.7,0.1,1,0.4c0.3,0.2,0.4,0.5,0.4,0.9v8.7c0.4,0,0.7,0.1,0.9,0.4c0.2,0.3,0.3,0.6,0.3,0.9
			v2.2c0,0.3-0.1,0.6-0.4,0.8c-0.2,0.2-0.5,0.3-0.9,0.3c-0.3,0-0.6-0.1-0.9-0.3c-0.2-0.2-0.3-0.5-0.3-0.8v-1.3h-6.2v1.3
			c0,0.3-0.1,0.6-0.4,0.8c-0.2,0.2-0.5,0.3-0.9,0.3c-0.3,0-0.6-0.1-0.9-0.3c-0.2-0.2-0.4-0.5-0.4-0.8V42c0-0.3,0.1-0.6,0.3-0.9
			C192.9,40.9,193.2,40.7,193.6,40.7z M197,37c0,0.7-0.1,1.4-0.2,2.1c-0.1,0.6-0.3,1.2-0.5,1.7h3.6v-7.8h-2.7L197,37z"/>
		<path class="st1" d="M210.6,31.3c0.1-0.2,0.2-0.4,0.5-0.5c0.2-0.1,0.4-0.2,0.7-0.2c0.3,0,0.6,0.1,0.8,0.3c0.2,0.2,0.4,0.5,0.4,0.8
			c0,0.1,0,0.1,0,0.2c0,0.1,0,0.1-0.1,0.2L210,39c-0.2,0.5-0.5,1.1-0.7,1.5c-0.2,0.5-0.5,0.9-0.8,1.3c-0.3,0.4-0.7,0.7-1.1,0.9
			c-0.4,0.2-1,0.3-1.6,0.4c-0.4,0-0.6-0.1-0.9-0.3c-0.2-0.2-0.4-0.5-0.4-0.8c0-0.3,0.1-0.5,0.3-0.7c0.2-0.2,0.5-0.3,0.8-0.4
			c0.4,0,0.7-0.1,0.9-0.3c0.2-0.2,0.4-0.4,0.6-0.8l-3.2-7.7c0-0.1-0.1-0.2-0.1-0.2c0-0.1,0-0.1,0-0.2c0-0.3,0.1-0.6,0.4-0.7
			c0.2-0.2,0.5-0.3,0.9-0.3c0.2,0,0.4,0.1,0.7,0.2c0.2,0.1,0.4,0.3,0.4,0.5l1.5,3.7c0.2,0.4,0.3,0.8,0.4,1.2
			c0.1,0.4,0.2,0.8,0.3,1.2c0.1-0.4,0.2-0.8,0.3-1.2c0.1-0.4,0.2-0.8,0.4-1.2L210.6,31.3z"/>
		<path class="st1" d="M216.2,35.7h2.7c0.3,0,0.6,0.1,0.8,0.3c0.2,0.2,0.4,0.5,0.4,0.8c0,0.3-0.1,0.6-0.3,0.8
			c-0.2,0.2-0.5,0.3-0.8,0.3h-2.7v0.6c0,0.7,0.2,1.3,0.5,1.8c0.3,0.4,0.9,0.7,1.6,0.7c0.5,0,1-0.1,1.4-0.4l0.2-0.1
			c0.1-0.1,0.2-0.1,0.3-0.2c0.1-0.1,0.2-0.1,0.4-0.1c0.3,0,0.6,0.1,0.8,0.3c0.2,0.2,0.3,0.4,0.3,0.7c0,0.3-0.1,0.5-0.3,0.7
			s-0.5,0.4-0.8,0.6c-0.3,0.2-0.7,0.3-1.2,0.4c-0.4,0.1-0.9,0.1-1.3,0.1c-0.8,0-1.4-0.1-2-0.3c-0.6-0.2-1-0.5-1.4-0.9
			c-0.4-0.4-0.6-0.9-0.8-1.4c-0.2-0.6-0.3-1.2-0.3-1.9v-3.4c0-0.7,0.1-1.3,0.3-1.9c0.2-0.6,0.4-1,0.8-1.4c0.4-0.4,0.8-0.7,1.4-0.9
			c0.6-0.2,1.2-0.3,2-0.3c0.5,0,0.9,0.1,1.3,0.1c0.4,0.1,0.8,0.2,1.2,0.4c0.3,0.2,0.6,0.4,0.8,0.6c0.2,0.2,0.3,0.5,0.3,0.7
			c0,0.3-0.1,0.5-0.3,0.7c-0.2,0.2-0.5,0.3-0.8,0.3c-0.2,0-0.3,0-0.4-0.1c-0.1-0.1-0.2-0.1-0.3-0.2l-0.2-0.1
			c-0.4-0.3-0.9-0.4-1.4-0.4c-0.8,0-1.3,0.2-1.6,0.6c-0.3,0.4-0.5,1-0.5,1.8L216.2,35.7L216.2,35.7z"/>
		<path class="st1" d="M234.4,42c0,0.3-0.1,0.6-0.4,0.8c-0.2,0.2-0.5,0.3-0.8,0.3c-0.3,0-0.6-0.1-0.9-0.3c-0.2-0.2-0.4-0.5-0.4-0.8
			V36l-2,3.9c-0.1,0.2-0.3,0.4-0.5,0.5c-0.2,0.1-0.4,0.2-0.7,0.2c-0.2,0-0.4-0.1-0.7-0.2c-0.2-0.1-0.4-0.3-0.5-0.5l-2-3.9V42
			c0,0.3-0.1,0.6-0.4,0.8c-0.2,0.2-0.5,0.3-0.9,0.3c-0.3,0-0.6-0.1-0.8-0.3c-0.2-0.2-0.3-0.5-0.3-0.8V31.7c0-0.3,0.1-0.6,0.4-0.8
			c0.2-0.2,0.5-0.3,0.9-0.3c0.6,0,1,0.2,1.2,0.7l3.1,6.1l3.1-6.1c0.1-0.3,0.3-0.4,0.5-0.5c0.2-0.1,0.4-0.1,0.7-0.1
			c0.4,0,0.7,0.1,0.9,0.3c0.2,0.2,0.4,0.5,0.4,0.8L234.4,42L234.4,42z"/>
		<path class="st1" d="M240.8,43.1c-0.8,0-1.4-0.1-2-0.4c-0.6-0.2-1-0.6-1.4-1c-0.4-0.4-0.7-0.9-0.9-1.4c-0.2-0.6-0.3-1.1-0.3-1.8
			v-3.4c0-0.6,0.1-1.2,0.2-1.7c0.2-0.5,0.4-1,0.8-1.4c0.4-0.4,0.8-0.7,1.4-1c0.6-0.2,1.3-0.4,2.1-0.4c0.8,0,1.5,0.1,2.1,0.4
			c0.6,0.2,1,0.6,1.4,1c0.4,0.4,0.6,0.9,0.8,1.4c0.2,0.5,0.2,1.1,0.2,1.7v3.4c0,0.6-0.1,1.2-0.3,1.8s-0.5,1-0.9,1.4
			c-0.4,0.4-0.9,0.7-1.4,1C242.2,43,241.6,43.1,240.8,43.1z M240.8,32.8c-0.8,0-1.3,0.2-1.6,0.6c-0.3,0.4-0.5,1-0.5,1.7v3.4
			c0,0.7,0.2,1.3,0.5,1.7c0.3,0.4,0.9,0.7,1.6,0.7s1.2-0.2,1.6-0.7c0.3-0.4,0.5-1,0.5-1.7v-3.4c0-0.7-0.2-1.3-0.5-1.7
			C242.1,33,241.6,32.8,240.8,32.8z"/>
		<path class="st1" d="M180.3,52c0.1-0.2,0.2-0.4,0.5-0.5c0.2-0.1,0.4-0.2,0.7-0.2c0.3,0,0.6,0.1,0.8,0.3c0.2,0.2,0.4,0.5,0.4,0.8
			c0,0.1,0,0.1,0,0.2c0,0.1,0,0.1-0.1,0.2l-2.8,6.9c-0.2,0.5-0.4,1.1-0.7,1.5c-0.2,0.5-0.5,0.9-0.8,1.3c-0.3,0.4-0.7,0.7-1.1,0.9
			c-0.4,0.2-1,0.3-1.6,0.4c-0.4,0-0.6-0.1-0.9-0.3c-0.2-0.2-0.4-0.5-0.4-0.8c0-0.3,0.1-0.5,0.3-0.7c0.2-0.2,0.5-0.3,0.8-0.4
			c0.4,0,0.7-0.1,0.9-0.3c0.2-0.2,0.4-0.4,0.6-0.8l-3.2-7.7c0-0.1-0.1-0.2-0.1-0.2c0-0.1,0-0.1,0-0.2c0-0.3,0.1-0.6,0.3-0.8
			c0.2-0.2,0.5-0.3,0.9-0.3c0.2,0,0.4,0.1,0.7,0.2c0.2,0.1,0.4,0.3,0.4,0.5l1.5,3.7c0.2,0.4,0.3,0.8,0.4,1.2
			c0.1,0.4,0.2,0.8,0.3,1.2c0.1-0.4,0.2-0.8,0.3-1.2c0.1-0.4,0.2-0.8,0.4-1.2L180.3,52z"/>
		<path class="st1" d="M186.4,56.4h0.2l3.5-4.6c0.3-0.3,0.6-0.5,1-0.5c0.2,0,0.4,0,0.5,0.1c0.1,0.1,0.3,0.2,0.4,0.3
			c0.1,0.1,0.2,0.2,0.2,0.4c0.1,0.1,0.1,0.3,0.1,0.4c0,0.1,0,0.2,0,0.3s-0.1,0.2-0.2,0.3l-3.4,4.5l3.4,4.5c0.1,0.1,0.1,0.2,0.2,0.3
			c0,0.1,0,0.2,0,0.3c0,0.1,0,0.3-0.1,0.4c-0.1,0.1-0.1,0.3-0.2,0.4c-0.1,0.1-0.2,0.2-0.4,0.3c-0.1,0.1-0.3,0.1-0.5,0.1
			c-0.4,0-0.8-0.2-1-0.5l-3.5-4.6h-0.2v4c0,0.3-0.1,0.6-0.4,0.8c-0.2,0.2-0.5,0.3-0.9,0.3c-0.3,0-0.6-0.1-0.9-0.3
			c-0.2-0.2-0.4-0.5-0.4-0.8V52.4c0-0.3,0.1-0.6,0.4-0.8c0.2-0.2,0.5-0.3,0.9-0.3c0.3,0,0.6,0.1,0.9,0.3c0.2,0.2,0.4,0.5,0.4,0.8
			V56.4z"/>
		<path class="st1" d="M196.1,59.5v3.2c0,0.3-0.1,0.6-0.4,0.8c-0.2,0.2-0.5,0.3-0.9,0.3c-0.3,0-0.6-0.1-0.9-0.3
			c-0.2-0.2-0.4-0.5-0.4-0.8v-9.9c0-0.3,0.1-0.6,0.4-0.9c0.3-0.2,0.6-0.4,1-0.4h2.6c0.8,0,1.5,0.1,2.1,0.3s1,0.5,1.4,0.9
			c0.4,0.4,0.6,0.8,0.8,1.3c0.2,0.5,0.2,1,0.2,1.5c0,0.6-0.1,1.2-0.3,1.7c-0.2,0.5-0.5,0.9-0.9,1.2c-0.4,0.3-0.9,0.6-1.4,0.8
			c-0.5,0.2-1.2,0.3-1.8,0.3H196.1z M196.1,57.3h1.5c0.7,0,1.2-0.1,1.5-0.4c0.3-0.3,0.5-0.7,0.5-1.4c0-0.2,0-0.5-0.1-0.7
			c-0.1-0.2-0.2-0.4-0.3-0.6c-0.2-0.2-0.4-0.3-0.6-0.4c-0.3-0.1-0.6-0.2-1-0.2h-1.5L196.1,57.3L196.1,57.3z"/>
		<path class="st1" d="M204.5,62.9c-0.1,0.3-0.3,0.4-0.5,0.6c-0.2,0.1-0.5,0.2-0.7,0.2c-0.3,0-0.6-0.1-0.9-0.3
			c-0.2-0.2-0.4-0.5-0.4-0.8c0,0,0-0.1,0-0.2c0-0.1,0-0.1,0-0.2l3.4-9.8c0.1-0.3,0.3-0.6,0.5-0.8c0.2-0.2,0.5-0.3,0.9-0.3
			s0.7,0.1,0.9,0.3c0.2,0.2,0.4,0.5,0.5,0.8l3.4,9.8c0,0,0,0.1,0,0.2c0,0.1,0,0.1,0,0.2c0,0.3-0.1,0.6-0.4,0.8
			c-0.2,0.2-0.5,0.3-0.9,0.3c-0.2,0-0.5-0.1-0.7-0.2c-0.2-0.2-0.4-0.3-0.5-0.6l-0.6-1.7h-3.7L204.5,62.9z M207.3,56.3
			c-0.1-0.3-0.1-0.5-0.2-0.8s-0.1-0.6-0.1-0.9c0,0.3-0.1,0.6-0.1,0.9c0,0.3-0.1,0.6-0.2,0.8l-0.9,2.9h2.4L207.3,56.3z"/>
		<path class="st1" d="M214,49.3c0,0.3-0.1,0.6-0.3,0.8c-0.2,0.2-0.5,0.3-0.8,0.3c-0.3,0-0.6-0.1-0.8-0.3c-0.2-0.2-0.3-0.5-0.3-0.8
			c0-0.3,0.1-0.5,0.3-0.7c0.2-0.2,0.5-0.3,0.8-0.3c0.3,0,0.6,0.1,0.8,0.3C213.9,48.7,214,49,214,49.3z M213.2,52.4
			c0-0.3,0.1-0.6,0.4-0.8c0.2-0.2,0.5-0.3,0.9-0.3c0.3,0,0.6,0.1,0.9,0.3c0.2,0.2,0.4,0.5,0.4,0.8v10.3c0,0.3-0.1,0.6-0.4,0.8
			c-0.2,0.2-0.5,0.3-0.9,0.3c-0.3,0-0.6-0.1-0.9-0.3c-0.2-0.2-0.4-0.5-0.4-0.8V52.4z M217.1,49.3c0,0.3-0.1,0.6-0.3,0.8
			c-0.2,0.2-0.5,0.3-0.8,0.3c-0.3,0-0.6-0.1-0.8-0.3c-0.2-0.2-0.3-0.5-0.3-0.8c0-0.3,0.1-0.5,0.3-0.7c0.2-0.2,0.5-0.3,0.8-0.3
			c0.3,0,0.6,0.1,0.8,0.3C217,48.7,217.1,49,217.1,49.3z"/>
		<path class="st1" d="M226.5,62.6c0,0.3-0.1,0.6-0.4,0.8c-0.2,0.2-0.5,0.3-0.9,0.3c-0.3,0-0.6-0.1-0.9-0.3
			c-0.2-0.2-0.4-0.5-0.4-0.8v-4h-3.7v4c0,0.3-0.1,0.6-0.4,0.8c-0.2,0.2-0.5,0.3-0.9,0.3c-0.3,0-0.6-0.1-0.9-0.3
			c-0.2-0.2-0.4-0.5-0.4-0.8V52.4c0-0.3,0.1-0.6,0.4-0.8c0.2-0.2,0.5-0.3,0.9-0.3c0.3,0,0.6,0.1,0.9,0.3c0.2,0.2,0.4,0.5,0.4,0.8v4
			h3.7v-4c0-0.3,0.1-0.6,0.4-0.8c0.2-0.2,0.5-0.3,0.9-0.3c0.3,0,0.6,0.1,0.9,0.3c0.2,0.2,0.4,0.5,0.4,0.8L226.5,62.6L226.5,62.6z"/>
		<path class="st1" d="M234.5,52c0.1-0.2,0.2-0.4,0.5-0.5c0.2-0.1,0.4-0.2,0.7-0.2c0.3,0,0.6,0.1,0.8,0.3c0.2,0.2,0.4,0.5,0.4,0.8
			c0,0.1,0,0.1,0,0.2c0,0.1,0,0.1-0.1,0.2l-2.8,6.9c-0.2,0.5-0.4,1.1-0.7,1.5c-0.2,0.5-0.5,0.9-0.8,1.3c-0.3,0.4-0.7,0.7-1.1,0.9
			c-0.4,0.2-1,0.3-1.6,0.4c-0.3,0-0.6-0.1-0.9-0.3c-0.2-0.2-0.4-0.5-0.4-0.8c0-0.3,0.1-0.5,0.3-0.7c0.2-0.2,0.5-0.3,0.8-0.4
			c0.4,0,0.7-0.1,0.9-0.3c0.2-0.2,0.4-0.4,0.6-0.8l-3.2-7.7c0-0.1-0.1-0.2-0.1-0.2c0-0.1,0-0.1,0-0.2c0-0.3,0.1-0.6,0.4-0.8
			c0.2-0.2,0.5-0.3,0.9-0.3c0.2,0,0.4,0.1,0.7,0.2c0.2,0.1,0.4,0.3,0.4,0.5l1.5,3.7c0.2,0.4,0.3,0.8,0.4,1.2
			c0.1,0.4,0.2,0.8,0.3,1.2c0.1-0.4,0.2-0.8,0.3-1.2c0.1-0.4,0.2-0.8,0.4-1.2L234.5,52z"/>
		<path class="st1" d="M177,80.1v3.2c0,0.3-0.1,0.6-0.4,0.8c-0.2,0.2-0.5,0.3-0.9,0.3c-0.3,0-0.6-0.1-0.9-0.3
			c-0.2-0.2-0.4-0.5-0.4-0.8v-9.9c0-0.3,0.1-0.6,0.4-0.9c0.3-0.2,0.6-0.4,1-0.4h2.6c0.8,0,1.5,0.1,2.1,0.3c0.6,0.2,1,0.5,1.4,0.9
			c0.3,0.4,0.6,0.8,0.8,1.3c0.2,0.5,0.2,1,0.2,1.5c0,0.6-0.1,1.2-0.3,1.7c-0.2,0.5-0.5,0.9-0.9,1.2c-0.4,0.3-0.9,0.6-1.4,0.8
			c-0.5,0.2-1.2,0.3-1.8,0.3H177z M177,78h1.5c0.7,0,1.2-0.1,1.5-0.4c0.3-0.3,0.5-0.7,0.5-1.4c0-0.2,0-0.5-0.1-0.7
			c-0.1-0.2-0.2-0.4-0.3-0.6c-0.2-0.2-0.4-0.3-0.6-0.4c-0.3-0.1-0.6-0.2-1-0.2H177L177,78L177,78z"/>
		<path class="st1" d="M185.3,83.6c-0.1,0.3-0.3,0.4-0.5,0.6c-0.2,0.1-0.5,0.2-0.7,0.2c-0.3,0-0.6-0.1-0.9-0.3
			c-0.2-0.2-0.4-0.5-0.4-0.8c0,0,0-0.1,0-0.2s0-0.1,0-0.2l3.4-9.8c0.1-0.3,0.3-0.6,0.5-0.8c0.2-0.2,0.5-0.3,0.9-0.3
			c0.4,0,0.7,0.1,0.9,0.3c0.2,0.2,0.4,0.5,0.5,0.8l3.4,9.8c0,0,0,0.1,0,0.2c0,0.1,0,0.1,0,0.2c0,0.3-0.1,0.6-0.4,0.8
			c-0.2,0.2-0.5,0.3-0.9,0.3c-0.2,0-0.5-0.1-0.7-0.2c-0.2-0.2-0.4-0.3-0.5-0.6l-0.6-1.7h-3.7L185.3,83.6z M188.1,77
			c-0.1-0.3-0.1-0.5-0.2-0.8c0-0.3-0.1-0.6-0.1-0.9c0,0.3-0.1,0.6-0.1,0.9c0,0.3-0.1,0.6-0.2,0.8l-0.9,3h2.4L188.1,77z"/>
		<path class="st1" d="M202,80.8c0,0.5-0.1,0.9-0.3,1.4c-0.2,0.4-0.5,0.8-0.9,1.2c-0.4,0.3-0.8,0.6-1.4,0.8
			c-0.5,0.2-1.1,0.3-1.8,0.3c-0.4,0-0.8,0-1.3-0.1c-0.5-0.1-0.9-0.2-1.3-0.3c-0.4-0.2-0.7-0.3-1-0.6c-0.3-0.2-0.4-0.5-0.4-0.8
			c0-0.3,0.1-0.5,0.3-0.7c0.2-0.2,0.5-0.3,0.8-0.3c0.2,0,0.4,0,0.5,0.1c0.2,0.1,0.4,0.2,0.6,0.3c0.2,0.1,0.4,0.2,0.7,0.3
			c0.2,0.1,0.5,0.1,0.9,0.1c0.7,0,1.2-0.2,1.5-0.5c0.3-0.3,0.5-0.7,0.5-1.1c0-0.3-0.1-0.5-0.2-0.7c-0.1-0.2-0.3-0.3-0.6-0.5
			c-0.2-0.1-0.5-0.2-0.8-0.3c-0.3-0.1-0.6-0.1-1-0.1c-0.2,0-0.3,0-0.5-0.1c-0.2,0-0.3-0.1-0.4-0.1c-0.1-0.1-0.2-0.2-0.3-0.3
			c-0.1-0.1-0.1-0.3-0.1-0.6c0-0.2,0-0.4,0.1-0.6c0.1-0.1,0.2-0.2,0.3-0.3s0.2-0.1,0.4-0.1c0.1,0,0.3,0,0.4,0c0.3,0,0.6-0.1,0.9-0.1
			c0.3-0.1,0.5-0.2,0.8-0.3c0.2-0.1,0.4-0.3,0.5-0.5c0.1-0.2,0.2-0.4,0.2-0.7c0-0.2,0-0.3-0.1-0.5c-0.1-0.2-0.2-0.3-0.3-0.4
			c-0.1-0.1-0.3-0.2-0.5-0.3c-0.2-0.1-0.5-0.1-0.8-0.1c-0.5,0-0.9,0.1-1.3,0.3c-0.2,0.1-0.4,0.2-0.6,0.3s-0.4,0.2-0.7,0.2
			c-0.3,0-0.5-0.1-0.8-0.3s-0.4-0.4-0.4-0.7c0-0.3,0.1-0.5,0.4-0.8c0.2-0.2,0.6-0.4,0.9-0.6c0.4-0.2,0.8-0.3,1.3-0.4
			c0.5-0.1,0.9-0.1,1.3-0.1c0.7,0,1.2,0.1,1.7,0.3c0.5,0.2,0.9,0.5,1.2,0.8c0.3,0.3,0.6,0.7,0.7,1.1c0.2,0.4,0.2,0.8,0.2,1.2
			c0,0.6-0.2,1.1-0.5,1.5c-0.3,0.4-0.8,0.8-1.5,1.1c0.7,0.3,1.2,0.6,1.7,1.1C201.8,79.5,202,80.1,202,80.8z"/>
		<path class="st1" d="M207.9,84.4c-0.8,0-1.4-0.1-2-0.4c-0.6-0.2-1-0.6-1.4-1c-0.4-0.4-0.7-0.9-0.9-1.4c-0.2-0.6-0.3-1.1-0.3-1.8
			v-3.4c0-0.6,0.1-1.2,0.2-1.7c0.2-0.5,0.4-1,0.8-1.4c0.4-0.4,0.8-0.7,1.4-1c0.6-0.2,1.3-0.4,2.1-0.4c0.8,0,1.5,0.1,2.1,0.4
			c0.6,0.2,1,0.6,1.4,1c0.4,0.4,0.6,0.9,0.8,1.4c0.2,0.5,0.2,1.1,0.2,1.7v3.4c0,0.6-0.1,1.2-0.3,1.8c-0.2,0.6-0.5,1-0.9,1.4
			c-0.4,0.4-0.9,0.7-1.4,1C209.3,84.3,208.6,84.4,207.9,84.4z M207.9,74.2c-0.8,0-1.3,0.2-1.6,0.6c-0.3,0.4-0.5,1-0.5,1.7v3.4
			c0,0.7,0.2,1.3,0.5,1.7c0.3,0.4,0.9,0.7,1.6,0.7s1.2-0.2,1.6-0.7c0.3-0.4,0.5-1,0.5-1.7v-3.4c0-0.7-0.2-1.3-0.5-1.7
			C209.2,74.4,208.7,74.2,207.9,74.2z"/>
		<path class="st1" d="M225.4,83.3c0,0.3-0.1,0.6-0.4,0.8c-0.2,0.2-0.5,0.3-0.8,0.3c-0.3,0-0.6-0.1-0.9-0.3
			c-0.2-0.2-0.4-0.5-0.4-0.8v-5.9l-2,3.9c-0.1,0.2-0.3,0.4-0.5,0.5c-0.2,0.1-0.4,0.2-0.7,0.2c-0.2,0-0.4-0.1-0.7-0.2
			c-0.2-0.1-0.4-0.3-0.5-0.5l-2-3.9v5.9c0,0.3-0.1,0.6-0.4,0.8c-0.2,0.2-0.5,0.3-0.9,0.3c-0.3,0-0.6-0.1-0.8-0.3
			c-0.2-0.2-0.3-0.5-0.3-0.8V73.1c0-0.3,0.1-0.6,0.4-0.8c0.2-0.2,0.5-0.3,0.9-0.3c0.6,0,1,0.2,1.2,0.7l3.1,6.1l3.1-6.1
			c0.1-0.3,0.3-0.4,0.5-0.5c0.2-0.1,0.4-0.1,0.7-0.1c0.4,0,0.7,0.1,0.9,0.3c0.2,0.2,0.4,0.5,0.4,0.8L225.4,83.3L225.4,83.3z"/>
		<path class="st2" d="M89.8,84.8c-1.1-0.5-1.6-1.5-2.1-2.5c-3-5.9-6-11.9-9-17.8c-0.2-0.3-0.3-0.6-0.5-0.9
			c-1.4-1.7-2.8-1.3-3.8,0.5c-2.1,3.9-4,7.8-6,11.8c-1,2-2,3.9-2.9,5.8c-0.3,0.5-0.5,1-0.7,1.6c-0.5,1-1.5,1.5-2.6,1.3
			c-1-0.2-1.8-0.9-1.9-2c-0.1-0.6,0.2-1.3,0.5-1.9c0.9-2,1.8-4.1,2.7-6.1c1.4-3.2,2.9-6.3,4.3-9.5c1-2.4,2.3-4.6,2.9-7.2
			c0.6-2.7,0.4-5.3-0.7-7.8c-2-4.1-4.3-8.2-6.4-12.2c-0.9-1.7-1.9-3.5-2.8-5.2c-0.3-0.6-0.4-1.2,0-1.9c0.3-0.6,0.9-0.8,1.5-0.8
			c0.6,0,1.1,0.2,1.4,0.8c1.3,2.3,2.6,4.6,3.9,6.9c1,1.7,2,3.5,3.5,4.8c1.7,1.5,3.5,2.6,5.9,2.4c1.4-0.1,2.6-0.7,3.7-1.4
			c2.2-1.5,3.6-3.7,4.9-5.9c1.1-1.9,2.2-3.8,3.3-5.7c0.1-0.2,0.1-0.4,0.2-0.5c0.4-0.7,0.9-1.3,1.8-1.4c0.8,0,1.4,0.5,1.8,1.3
			c1.2,2.2,2.4,4.3,3.6,6.5c0.7,1.2,1.4,2.4,2.2,3.4c1.5,1.9,3.4,3.3,5.8,3.8c1.6,0.3,3.2-0.2,4.6-1.1c2.1-1.3,3.6-3.1,4.7-5.2
			c1.5-2.6,2.9-5.2,4.4-7.8c0.6-1.1,2.4-1,3,0.1c1.2,2,2.3,4.1,3.4,6.1c0.9,1.5,1.7,3.1,2.9,4.5c1.4,1.7,3.2,3.1,5.5,3.5
			c1.9,0.3,3.7-0.3,5.3-1.4c2.1-1.4,3.4-3.5,4.7-5.6c1.3-2.3,2.6-4.6,3.9-6.9c0.5-0.8,1.5-1.2,2.3-0.8c0.8,0.4,1.2,1.4,0.7,2.3
			c-1.4,2.7-2.9,5.4-4.3,8.2c-0.4,0.8-0.9,1.6-1.3,2.4c-1,2-2.1,3.9-3.1,5.9c-1.9,3.5-2.1,7.2-0.7,10.9c0.6,1.6,1.4,3.2,2.1,4.9
			c1.3,2.9,2.6,5.8,3.9,8.8c1,2.3,2.1,4.6,3.1,6.9c0.4,0.9,0.8,1.7,0.5,2.7c-0.3,0.7-1,1.4-1.7,1.5c-1,0.1-2-0.1-2.6-1.1
			c-2.8-5.6-5.6-11.2-8.5-16.8c-0.6-1.1-1.1-2.2-1.9-3.2c-1-1.2-2.1-1.2-3,0c-1,1.3-1.7,2.9-2.4,4.4c-1.5,2.8-2.9,5.7-4.3,8.5
			c-1,1.9-1.9,3.8-2.9,5.8c-0.5,1.1-1,2.2-2.3,2.6c-0.7,0-1.4,0-2.1,0c-0.9-0.4-1.5-1-1.8-1.9c-0.1-0.3-0.2-0.6-0.4-0.9
			c-3-5.9-5.9-11.8-8.9-17.6c-0.3-0.6-0.9-1.1-1.5-1.6c-0.2-0.2-0.7-0.2-1.1-0.1c-0.9,0.3-1.5,1-1.9,1.8c-3,6-6,11.9-9,17.9
			c-0.5,1-1,2-2.1,2.5C91.2,84.8,90.5,84.8,89.8,84.8z M119.7,77.9c0.7-1.5,1.3-2.8,1.9-4.2c1.3-2.9,2.6-5.8,3.9-8.7
			c0.7-1.6,1.5-3.2,2.1-4.9c1.4-3.8,1.2-7.5-0.7-11.1c-1.6-3-3.2-5.9-4.8-8.9c-0.8-1.5-1.6-3-2.4-4.5c-1,1.8-1.9,3.6-2.9,5.3
			c-1.6,3-3.2,6-4.8,9.1c-0.8,1.5-1.1,3-1.2,4.7c-0.1,1.5,0.1,3.1,0.6,4.5c1.4,3.3,2.8,6.6,4.3,10c0.7,1.7,1.5,3.3,2.2,5
			C118.5,75.4,119.1,76.6,119.7,77.9z M90.9,35.7c-0.6,1.1-1.1,2-1.6,3c-0.6,1.1-1.2,2.2-1.7,3.3c-1.5,2.8-3,5.5-4.4,8.3
			c-1.4,2.9-1.6,6-0.4,9c1.4,3.6,3,7,4.5,10.5c0.9,2.1,1.8,4.1,2.7,6.2c0.3,0.6,0.6,1.3,0.9,1.9c1.3-3,2.6-6,3.9-8.9
			c1.3-2.9,2.6-5.7,3.8-8.6c1.2-2.8,1.5-5.8,0.5-8.8c-0.7-1.9-1.7-3.7-2.6-5.5c-1.5-2.9-3-5.8-4.6-8.7
			C91.6,36.9,91.3,36.3,90.9,35.7z"/>
		<path class="st2" d="M139.2,35.4c0,2.9-2.1,5.1-5.2,5.1c-3.1,0-5.1-2.2-5.1-5c0-3.2,2.3-5.1,5.1-5.1
			C137,30.3,139.1,32.5,139.2,35.4z"/>
		<path class="st2" d="M105.6,40.4c-2.8,0-5.1-2.3-5.1-5c0-2.9,2.3-5.1,5.1-5.1c3.1,0,5.1,2.1,5.1,5
			C110.7,38.2,108.9,40.3,105.6,40.4z"/>
		<path class="st2" d="M81.7,35.4c0.1,2.9-2.2,5-5.1,5c-2.8,0-5.1-2.1-5-5.2c0.1-2.6,2.1-4.8,5-4.9C79.2,30.3,81.8,32.3,81.7,35.4z"
			/>
		<path class="st2" d="M154.8,14.1c-1.7-0.5-3.4-1-5.2-1.5c-3.2-0.9-6.5-1.7-9.7-2.6c-3-0.8-6.1-1.6-9.1-2.5
			c-2.8-0.7-18.9-5.2-23.2-6.4c-0.7-0.2-1.4-0.2-2.1,0c-3.7,1-16.1,4.5-18.8,5.2c-3,0.8-6.1,1.6-9.1,2.5c-3.2,0.9-6.5,1.7-9.7,2.6
			c-2.9,0.8-5.8,1.6-8.7,2.3c-1.3,0.4-2.7,0.7-3.8,1.6c-0.6,0.5-1,1.2-0.8,2c0.1,0.7,0.6,1.2,1.3,1.2c0.5,0.1,1,0,1.5-0.1
			c3.9-1,7.8-2,11.6-3c4.9-1.3,9.9-2.7,14.8-4c5.1-1.3,10.1-2.7,15.2-4c1.4-0.4,2.7-0.7,4.1-1.1c0.2,0.6,0.3,1.2,0.5,1.8
			c-1.3,0.3-2.5,0.6-3.8,1c-4.3,1.2-8.6,2.3-12.8,3.5c-4.7,1.2-9.4,2.4-14.1,3.7c-4.7,1.2-9.4,2.5-14.2,3.8
			c-0.6,0.2-1.3,0.3-1.8,0.6c-0.6,0.4-0.7,1.2-0.5,1.9c0.2,0.6,0.7,1,1.4,1.2c1.4,0.4,2.8,0,4.2-0.3c3.1-0.9,6.2-1.7,9.3-2.5
			c3.2-0.8,6.3-1.7,9.5-2.6c3.4-0.9,6.8-1.9,10.2-2.8c3.8-1,7.6-2.1,11.4-3.1c0.6-0.2,1.4-0.4,2-0.3c2.1,0.5,4.3,1.1,6.4,1.7
			c5.5,1.5,11,3,16.5,4.5c5.9,1.6,11.9,3.2,17.8,4.8c1.7,0.4,3.4,1.2,5.2,0.9c2-0.3,3.4-1.3,4.3-3.1c0.7-1.4,1.3-2.8,1.9-4.2
			c0.3-0.6,0.5-1.3,0.8-2C156.3,14.4,155.5,14.3,154.8,14.1z"/>
	</g>
</g>
</svg>
