<?xml version="1.0" encoding="utf-8"?>
<!-- Generator: Adobe Illustrator 25.4.1, SVG Export Plug-In . SVG Version: 6.00 Build 0)  -->
<svg version="1.1" id="Layer_1" xmlns="http://www.w3.org/2000/svg" xmlns:xlink="http://www.w3.org/1999/xlink" x="0px" y="0px"
	 viewBox="0 0 300 87" enable-background="new 0 0 300 87" xml:space="preserve">
<path fill="#01008F" d="M153.5,69.8l1.8,0c0.2,0.6,0.1,1.3,0.1,1.9c0,1.9-0.5,6.3,0.6,7.8c0.5,0.8,1.4,1.2,2.3,1.4
	c0.7,0.1,1.4,0.1,2-0.3c0.9-0.6,1.4-1.7,1.6-2.7c0.2-1,0.3-7.5-0.2-8.1c0.5,0,1.1,0,1.6,0c0.3,0,0.4,0.1,0.6,0.3
	c0,0.3-0.1,0.6-0.2,0.9c0,0,0,0,0,0.1c0.4,0.7,0.2,6.7,0,7.7c-0.2,1.3-0.8,2.4-1.9,3.1c-1.3,0.9-3,1.1-4.5,0.8
	c-1.2-0.2-2.4-0.9-3.1-1.9c-0.4-0.6-0.7-1.4-0.8-2.1C153.3,77.5,153.3,70.9,153.5,69.8z"/>
<path fill="#01008F" d="M180,69.8c2.2,0,4.5,0,6.7,0c0,0.1,0.1,0.1,0.1,0.2c0.2,0.5,0.1,1.1-0.1,1.5c-1.3,0-4.7-0.2-5.7,0
	c-1.1,0.3-0.2,2.3-0.8,3.3c0,0,0,0,0,0c1.6,0,3.3,0.1,4.9-0.1c0.1,0.5,0.3,1.4,0,1.9c-1.5-0.1-3.1-0.1-4.6,0.1
	c-0.4,0.8,0.3,2-0.2,2.8c0,0,0,0,0,0.1c0.3,0.5,0.1,0.7,0.3,1.2c1.5,0.3,4.6,0,6.4,0.1c0,0.1,0.1,0.1,0.1,0.2
	c0.2,0.5,0.1,1.1-0.1,1.6c-2.9,0.2-5.9,0-8.8,0c0.1-0.1,0.2-0.3,0.2-0.4c0.2-0.7,0.2-10.6,0.1-11.9c0-0.2-0.1-0.3-0.2-0.5L180,69.8z
	"/>
<path fill="#01008F" d="M198.7,69.5L198.7,69.5c0.3,0.1,0.4,0.2,0.6,0.4c1.1,1.9,1.9,4.2,2.8,6.2c0.9,2,2,4,2.6,6.1
	c0.1,0.2,0.1,0.3,0,0.5c-0.7,0-1.5,0-2.2,0c0-0.1,0-0.1,0-0.2c0-0.6-0.5-1.7-0.9-2.1c-0.9-0.1-1.9,0-2.9,0l-2.9,0c0,0.1,0,0.1,0,0.2
	c-0.1,0.6-0.5,1.7-1,2.1c-0.7-0.1-1.5-0.1-2.2-0.1c0.7-0.6,1.1-2.2,1.5-3C194.8,78.1,198,70,198.7,69.5z M198.6,73.7
	c-0.1,0.8-1.5,4.5-2.1,5c0.7,0,1.4,0,2.2,0c0.7,0,1.4-0.1,2.1-0.1c0-0.4-1.6-4.2-1.9-4.8L198.6,73.7z"/>
<path fill="#01008F" d="M223.7,5.8c1.1,0,2.1,0,3.2,0.1c0.1,0.2,0.2,0.4,0.2,0.7c0.2,3.6,0,7.4,0,11c0,2.8,0.2,5.7,0,8.5
	c0,0.4,0,0.5-0.3,0.8c-1.1,0.1-2.1,0.1-3.2,0.1c0.1-0.2,0.2-0.5,0.2-0.7c0.2-3.1,0-6.6,0-9.8C223.7,12.9,223.9,9.3,223.7,5.8z"/>
<path fill="#01008F" d="M116.9,69.6c1.1-0.2,2.3,0.1,3.4,0.5c1.1,0.4,2.3,1.1,2.8,2.2c-0.5,0.5-1,0.9-1.7,1.2c0-0.1,0-0.1-0.1-0.2
	c-0.3-0.7-1.3-1.3-2-1.6c-1.1-0.4-2.4-0.4-3.5,0.1c-1.1,0.5-2,1.5-2.4,2.6c-0.1,0.2-0.1,0.3-0.2,0.5c0,0.2-0.1,0.3-0.1,0.5
	c0,0.2,0,0.3-0.1,0.5c0,0.2,0,0.3,0,0.5c0,0.2,0,0.3,0,0.5c0,0.2,0.1,0.3,0.1,0.5c0,0.2,0.1,0.3,0.1,0.5c0.1,0.2,0.1,0.3,0.2,0.5
	c0.5,1.2,1.3,1.9,2.5,2.4c0.2,0.1,0.3,0.1,0.5,0.2c0.2,0,0.3,0.1,0.5,0.1c0.2,0,0.3,0,0.5,0.1c0.2,0,0.3,0,0.5,0
	c0.2,0,0.3,0,0.5-0.1c0.2,0,0.3-0.1,0.5-0.1c0.2,0,0.3-0.1,0.5-0.2c0.2-0.1,0.3-0.1,0.5-0.2c0.6-0.3,1.3-0.7,1.6-1.4
	c0.1-0.3,0.1-1.1-0.1-1.4c0,0,0,0,0,0c-1.3,0-2.6,0.1-3.9,0c0.1-0.6,0.1-1.2-0.1-1.8c2.1,0.1,4.1,0,6.2,0.1c0,0.1,0.1,0.1,0.1,0.2
	c0.2,1,0,3.1-0.5,4c-0.7,1.2-2.2,2.2-3.5,2.5c-1.8,0.5-4,0.3-5.6-0.6c-1.5-0.9-2.6-2.2-3-3.9c-0.5-1.7-0.2-3.9,0.7-5.5
	C113,70.8,114.9,70.1,116.9,69.6z"/>
<path fill="#01008F" d="M167.2,69.8c2.4,0,6.1-0.6,7.9,1.2c0.7,0.7,1.1,1.7,1.1,2.7c0,1-0.4,2-1.1,2.7c-1.3,1.2-2.9,1.2-4.6,1.2
	l-1.5,0c0,0.1,0.1,0.1,0.1,0.2c0.2,0.7,0.2,4.3-0.1,4.9c-0.6-0.1-1.4-0.1-2-0.1c0.5-0.9,0.2-8.8,0.1-10.3
	C167.1,71.7,166.9,70.5,167.2,69.8z M169,71.6c0.3,0.8,0.3,3.3-0.1,4.1c0,0,0,0,0,0c0,0,0,0.1,0,0.1c1,0,3.7,0.2,4.4-0.6
	c0-0.1,0.1-0.1,0.1-0.2c0.4-0.2,0.5-0.6,0.6-1c0-0.1,0.1-0.3,0.1-0.4c0.1-0.3-0.2-1-0.4-1.3c-0.4-0.5-1.2-0.8-1.8-0.9
	C171.1,71.5,169.8,71.5,169,71.6z"/>
<path fill="#01008F" d="M126.2,69.8c2.2,0.1,5-0.4,7.1,0.5c0.9,0.4,1.6,1,1.9,2c0.4,1,0.2,2.3-0.2,3.3c-0.5,0.9-1.3,1.5-2.2,1.8
	c0.1,0.1,0.2,0.1,0.3,0.2c0.7,0.6,3.5,4.6,3.6,5.2c-0.9,0-1.9,0.1-2.7-0.4c-0.1,0.2-0.1,0.3-0.3,0.3c-0.9,0.3-2.1,0.2-3,0.2l0.2,0
	c-0.8-0.1-1.9-0.3-2.7,0c-0.6,0-1.2,0-1.8,0C126.5,82.1,126.5,70.5,126.2,69.8z M128.2,71.6c0.3,0.9,0.3,3.4-0.1,4.2
	c1.1,0,3,0.2,4-0.3l0.2-0.2c0.4-0.2,0.8-0.6,0.9-1.1c0.2-0.5,0.1-1.1-0.2-1.5c-0.2-0.5-0.7-0.8-1.2-1
	C130.9,71.5,129.2,71.5,128.2,71.6z M128.2,77.8c0.2,0.7,0.2,4.3-0.1,4.9c0,0,0,0,0,0.1c0,0,0,0,0,0c0.8-0.2,1.8-0.1,2.7,0l-0.2,0
	c1,0.1,2.1,0.1,3-0.2c0.2-0.1,0.2-0.1,0.3-0.3c0-0.1,0-0.1,0-0.2c-0.1-0.5-1.5-2.3-2-2.6l-0.2-0.1c0,0,0,0,0,0
	c-0.5,0.2-1.4,0.1-1.9-0.2c-0.3-0.2-1.2-1.1-1.3-1.4c0,0,0,0,0,0L128.2,77.8z M128.2,77.8l0.3,0.1c0,0,0,0,0,0
	c0.1,0.3,1,1.3,1.3,1.4c0.5,0.3,1.4,0.3,1.9,0.2c0,0,0,0,0,0l0.2,0.1c-0.1-0.5-0.9-1.6-1.3-1.9C129.8,77.6,128.9,77.6,128.2,77.8z"
	/>
<path fill="#01008F" d="M219.2,5.8c0.3,0,0.7-0.1,1,0.1c0.1,0,0.1,0.1,0.1,0.1c0.2,0.7,0.2,2.6-0.1,3.3c-1.5-0.3-5.1-0.2-6.7-0.1
	c-0.6,0.8,0.3,16.3-0.4,17.7c-1.1,0-2.2,0-3.3-0.1c0.1-0.1,0.1-0.2,0.2-0.4c0.2-0.7,0.2-4.5-0.2-5.1c0.1-0.1,0.1-0.2,0.2-0.3
	c0.2-0.7,0.1-10,0-11.4c0-0.2-0.1-0.3-0.2-0.5c-2.4,0.1-4.8-0.1-7.1,0c0.1-0.1,0.1-0.2,0.1-0.3c0.2-0.6,0.2-2.6-0.1-3.1
	C208.2,5.7,213.7,5.9,219.2,5.8z"/>
<path fill="#01008F" d="M217.2,69.9c2.7-0.3,6.6-0.4,8.8,1.4c1.3,1,2,2.4,2.1,4c0.2,1.8-0.2,3.6-1.3,5c-1.2,1.4-3,2.2-4.8,2.4
	c-1.1,0.1-3.9,0.2-4.9,0C217.4,82.1,217.4,70.6,217.2,69.9z M219.3,71.7C219.3,71.7,219.3,71.7,219.3,71.7c0.3,1.2-0.2,8.8,0.2,9.1
	c0.6,0.4,2.6,0,3.3-0.1c0.5-0.1,1.4-0.5,1.7-0.9c0,0,0-0.1,0-0.1c0.7-0.4,1.3-1.4,1.5-2.1c0.3-1.2,0.2-2.5-0.4-3.6
	c-0.1-0.1-0.2-0.3-0.2-0.4c-0.1-0.1-0.2-0.2-0.3-0.3c-0.1-0.1-0.2-0.2-0.3-0.3c-0.1-0.1-0.2-0.2-0.3-0.3c-0.1-0.1-0.2-0.2-0.4-0.3
	c-0.1-0.1-0.3-0.1-0.4-0.2c-0.1-0.1-0.3-0.1-0.4-0.2c-0.1-0.1-0.3-0.1-0.4-0.1C221.9,71.6,220.3,71.4,219.3,71.7z"/>
<path fill="#01008F" d="M111.3,33.8c4.3,0,8.7,0.2,13.1,0c0,0.1,0.1,0.1,0.1,0.2c0.2,0.6,0.2,2.6-0.1,3.1c-0.7-0.1-1.6-0.1-2.4-0.1
	c-2.4,0-4.9,0.2-7.3,0c0,1.9,0,3.8,0,5.7c2.4-0.1,4.9,0,7.4,0c0,0,0,0,0,0.1c0.2,0.5,0.1,1.2-0.1,1.7c0.1,0.1,0.1,0.3,0.1,0.4
	c0,0.3,0.1,0.7-0.1,1c-2.4,0-4.9,0.1-7.4,0c0.1,3,0,6,0,9l-3.4,0c0.3-2.8,0.1-6.3,0.1-9.2C111.3,41.6,111.5,37.7,111.3,33.8z"/>
<path fill="#01008F" d="M143.4,69.6c0.2,0,0.5-0.1,0.7-0.1c0.2,0,0.5,0,0.7,0c0.2,0,0.4,0,0.7,0.1c0.2,0,0.4,0.1,0.7,0.1
	c0.2,0.1,0.4,0.1,0.6,0.2s0.4,0.2,0.6,0.3c0.2,0.1,0.4,0.2,0.6,0.3c0.2,0.1,0.4,0.3,0.6,0.4c0.2,0.1,0.3,0.3,0.5,0.4
	c1.3,1.3,2,2.9,2,4.7c0,1.8-0.6,3.5-1.9,4.8c-1.2,1.2-2.6,1.9-4.3,1.9c-1.3,0.2-2.9-0.1-4.1-0.8c-1.5-0.9-2.6-2.4-3-4.1
	c-0.4-1.8-0.2-3.8,0.8-5.3C139.7,70.7,141.3,70.1,143.4,69.6z M143.6,71.4c-1.5,0.4-2.6,1-3.3,2.4c-0.1,0.1-0.2,0.3-0.2,0.4
	c-0.1,0.1-0.1,0.3-0.2,0.5c0,0.2-0.1,0.3-0.1,0.5c0,0.2-0.1,0.3-0.1,0.5c0,0.2,0,0.3,0,0.5c0,0.2,0,0.3,0,0.5c0,0.2,0,0.3,0.1,0.5
	c0,0.2,0.1,0.3,0.1,0.5c0.3,1.2,1.1,2.2,2.2,2.8c0.7,0.4,1.8,0.7,2.6,0.5c1.3-0.1,2.3-0.6,3.2-1.6c0.1-0.1,0.2-0.3,0.3-0.4
	c0.1-0.1,0.2-0.3,0.3-0.4c0.1-0.1,0.1-0.3,0.2-0.4c0.1-0.2,0.1-0.3,0.2-0.5c0-0.2,0.1-0.3,0.1-0.5c0-0.2,0.1-0.3,0.1-0.5
	c0-0.2,0-0.3,0-0.5c0-0.2,0-0.3,0-0.5c0-0.2,0-0.3-0.1-0.5c0-0.2-0.1-0.3-0.1-0.5c0-0.2-0.1-0.3-0.2-0.5c-0.1-0.1-0.1-0.3-0.2-0.4
	c-0.1-0.1-0.2-0.3-0.2-0.4c-0.1-0.1-0.2-0.3-0.3-0.4c-0.1-0.1-0.2-0.2-0.3-0.4c-0.1-0.1-0.2-0.2-0.4-0.3c-0.9-0.7-2.2-1.2-3.4-1
	C143.7,71.4,143.6,71.4,143.6,71.4z"/>
<path fill="#01008F" d="M237.2,5.5c0.8,0,1.6-0.1,2.5,0c1-0.1,2,0.4,2.8,0.9c0.9,0.5,2.5,1.7,2.8,2.7l-0.1,0.2
	c-0.6,0.7-1.5,1.4-2.3,1.8c-0.1-0.4-0.6-0.9-0.8-1.2c-0.8-0.9-2.2-1.4-3.4-1.4c-1,0-2,0.3-2.7,1c-0.4,0.4-0.7,0.9-0.7,1.5
	c0,2.4,4.4,3.7,6.2,4.6c1,0.5,1.9,1,2.7,1.8c1.1,1.1,1.6,2.4,1.6,3.9c0,1.5-0.5,2.9-1.6,4c-1.5,1.5-3.5,2-5.6,2
	c-2.6,0-4.6-0.8-6.4-2.7c-0.5-0.6-1-1.2-1.5-1.7c0.9-0.4,1.5-1.5,2.4-1.8c0.8,0.4,1.6,1.6,2.4,2.2c1.1,0.8,2.7,1.3,4.1,1
	c1-0.2,1.9-0.8,2.4-1.7c0.3-0.4,0.4-0.9,0.3-1.4c0-0.1,0-0.2,0-0.3c-0.1-2-4.6-3.5-6.2-4.2c-0.9-0.5-1.8-1-2.6-1.7
	c-1-0.9-1.5-2.3-1.6-3.6c0-0.2,0-0.3,0-0.5c0-0.2,0-0.3,0-0.5c0-0.2,0.1-0.3,0.1-0.5c0-0.2,0.1-0.3,0.1-0.5c0.1-0.2,0.1-0.3,0.2-0.5
	c0.1-0.2,0.2-0.3,0.2-0.5c0.1-0.2,0.2-0.3,0.3-0.4c0.1-0.1,0.2-0.3,0.3-0.4C234.3,6.6,235.9,5.6,237.2,5.5z"/>
<path fill="#01008F" d="M127.7,5.8c1.3,0,2.7-0.2,3.9,0c0.1,0.1,0.2,0.2,0.3,0.3c0.7,0.8,4.4,6.5,4.4,7.3c0.4-0.3,4.5-6.8,4.9-7.6
	l2,0c0.4,0,1.3-0.1,1.6,0.2l-0.2,0.3c-0.1,0.4-0.3,0.6-0.6,0.9c-0.2,0.8-5.2,8.6-5.8,9c0.5,0.4,6.9,10.2,7,10.5c0,0.1,0,0.1,0,0.2
	c-1.3,0-2.6,0.1-3.9,0c0-0.5-4.2-7.1-4.9-7.7c0,0-0.1-0.1-0.1-0.1c0,0.5-4.2,7.1-4.8,7.7c-0.1,0.1-0.1,0.1-0.2,0.2
	c-1.4,0-2.7,0-4.1,0c0.2-0.1,0.4-0.3,0.6-0.5c0.7-0.9,6.5-9.6,6.7-10.1c0-0.1,0-0.1,0-0.2c-0.1-0.4-0.2-0.7-0.6-1
	c-0.1,0-0.1-0.1-0.2-0.1c0-0.1,0-0.2,0-0.2c-0.1-0.5-0.7-1.3-1.1-1.6c0-0.1,0-0.1,0-0.1C132.5,12.6,128.4,6.4,127.7,5.8z"/>
<path fill="#01008F" d="M200,33.5c2.1-0.2,3.9-0.1,5.9,0.6c1.3,0.5,4.3,2.2,4.9,3.6c0.1,0.2,0.1,0.4,0,0.6c-0.3,0.7-1.8,1.6-2.5,1.8
	c-0.1-0.4-0.5-0.9-0.8-1.2c-1.4-1.5-3.2-2.3-5.2-2.4c-2-0.1-3.9,0.5-5.4,1.9c-0.2,0.2-0.4,0.4-0.6,0.6c-0.2,0.2-0.3,0.4-0.5,0.6
	c-0.2,0.2-0.3,0.4-0.4,0.7c-0.1,0.2-0.3,0.5-0.4,0.7c-0.1,0.2-0.2,0.5-0.3,0.7c-0.1,0.3-0.2,0.5-0.2,0.8c-0.1,0.3-0.1,0.5-0.1,0.8
	c0,0.3-0.1,0.5-0.1,0.8c0,0.3,0,0.5,0,0.8c0,0.3,0.1,0.5,0.1,0.8c0,0.3,0.1,0.5,0.2,0.8c0.1,0.3,0.2,0.5,0.2,0.8
	c0.1,0.2,0.2,0.5,0.3,0.7c0.1,0.2,0.2,0.5,0.4,0.7c0.1,0.2,0.3,0.4,0.5,0.7c0.2,0.2,0.3,0.4,0.5,0.6c1.4,1.4,3.3,2.2,5.3,2.2
	c1,0,2.8-0.2,3.6-1c0.1,0,0.1,0,0.2-0.1c1-0.4,2.2-1.6,2.7-2.7c0.8,0.2,2,1.3,2.6,1.8c0,0.1,0,0.1,0,0.2c-0.6,1.6-3.1,3.2-4.7,3.9
	c-2.7,1.1-6.1,1.1-8.7,0c-2.5-1.1-4.8-3.2-5.8-5.7c-1.1-2.7-1.1-6,0.1-8.7c0.9-2.2,3.1-4.5,5.3-5.4C198,34,199,33.9,200,33.5
	C199.9,33.5,199.9,33.5,200,33.5z"/>
<path fill="#01008F" d="M215,34.3c0-0.1,0.1-0.4,0.2-0.5c0.2-0.1,12.2-0.2,13,0c0.3,0.6,0.3,2.3,0.1,2.9c0,0.1-0.1,0.2-0.1,0.2
	c-3.2,0-6.5-0.2-9.7,0.1c-0.3,0.6-0.1,4.4-0.2,5.4c0.8,0.3,6.1,0.2,7.3,0.1c0.2,0.5,0.3,2.6,0.1,3.1c0,0.1-0.1,0.1-0.1,0.2
	c-2.5,0-4.9,0-7.4,0c0.3,0.5,0.3,4.6,0.1,5.2c0,0.1-0.1,0.2-0.2,0.3c0,0,0,0,0,0.1c3.3,0,6.6,0,10,0c0.4,0.6,0.3,2.3,0.2,2.9
	c0,0.1-0.1,0.3-0.1,0.4l-8.2,0c-1.5,0-3,0.1-4.5,0l-0.2,0c-0.2-0.1-0.2-0.2-0.2-0.5c-0.2-1.4,0-3.2,0-4.7l0-11.1
	C215.1,37.2,215.3,35.5,215,34.3z"/>
<path fill="#01008F" d="M111.4,5.8c2.9,0.1,5.7,0.1,8.6,0.1c1.4,0,2.9,0.1,4.3-0.1c0,0.1,0.1,0.2,0.1,0.2c0.2,0.7,0.2,2.6-0.1,3.3
	c-3.1-0.4-6.4,0.2-9.5-0.1c-0.4,0.4-0.2,4.7-0.2,5.6c2.4,0,5-0.2,7.4,0c0,0.1,0.1,0.1,0.1,0.2c0.1,0.5,0.2,2.5-0.1,3
	c-2.4,0-4.9-0.2-7.2,0.1c-0.2,0.2-0.1,0.5-0.1,0.8c-0.1,1.6,0,3.2,0,4.8c3.2-0.1,6.5,0,9.7,0c0,0.1,0.1,0.2,0.1,0.2
	c0.2,0.6,0.2,2.5-0.1,3.1c-1.4-0.1-2.8,0-4.2,0c-2.9,0-5.9,0-8.8,0c0.1-1.6,0-3.3,0-4.9l0-9.9C111.3,9.9,111.3,7.8,111.4,5.8z"/>
<path fill="#01008F" d="M180.1,5.8c0.2,0,0.3,0,0.5,0.1c0,0.1,0.1,0.2,0.1,0.2c0.2,0.7,0.2,2.5-0.2,3.2c-2.8-0.2-6.8-0.2-9.7-0.1
	c-0.2,1.3,0.3,4.5-0.2,5.5c0,0,0,0,0,0.1c2.5-0.1,5,0,7.4,0c0.1,0.1,0.1,0.2,0.1,0.3c0.2,0.6,0.2,2.5-0.1,3
	c-0.8-0.1-1.7-0.1-2.6-0.1c-1.6,0-3.2,0-4.8,0c0.1,0.1,0.1,0.2,0.2,0.3c0.2,0.7,0.1,4.9-0.2,5.4c2.7-0.1,5.4,0,8.2,0l1.8,0
	c0,0.1,0.1,0.1,0.1,0.2c0.2,0.6,0.2,2.5-0.1,3.1c-1.5,0.1-3.1,0-4.7,0c-2.9,0-5.7,0-8.6-0.1c0-0.1,0.1-0.2,0.1-0.3
	c0.2-0.8,0-4.7,0-5.9c0-4.8,0.1-9.6,0-14.3c0-0.2-0.1-0.3-0.2-0.5C171.6,5.8,175.9,5.9,180.1,5.8z"/>
<path fill="#01008F" d="M155.6,33.5c0.3-0.1,0.6-0.1,0.9-0.1c0.2,0,0.4,0.1,0.5,0.3c0.7,0.9,2.1,4.7,2.6,5.9l4.2,9.7
	c0.7,1.7,1.5,3.3,2.2,5c0.1,0.2,0.1,0.3,0.1,0.6c-1.2-0.1-2.5,0-3.7,0c0-0.1,0-0.1,0-0.2c0-0.6-1-2.9-1.5-3.3l-4.2,0
	c-1.8,0-3.6,0-5.3,0c0,0.1,0,0.2,0,0.2c0,0.6-1,2.9-1.5,3.3c-1.2,0-2.4,0-3.7,0c0.2-0.1,0.3-0.3,0.4-0.5c2.1-4.4,3.9-9,5.9-13.5
	l2.1-4.8C154.9,35.1,155.4,34.3,155.6,33.5z M156.1,39.9c-0.3,1-0.8,2.1-1.2,3c-0.7,1.7-1.4,3.4-2.1,5.1l0.1,0.2l0,0l-0.2,0l0,0.1
	c1.1,0,2.1,0,3.2,0c0.7,0,3.1,0.2,3.6-0.2c-0.3-1.3-1.1-2.7-1.6-3.9c-0.5-1.4-1-3-1.7-4.3L156.1,39.9z"/>
<path fill="#01008F" d="M169.4,53.6c0.4-1.1,0.1-14.5,0.1-16.8c0-0.9-0.2-2.6,0.1-3.4l0.2,0c0.6,0,0.9,0.1,1.3,0.4
	c0.3,0.2,0.8,0.8,0.9,1.2c0.9,0.8,1.7,1.7,2.4,2.7c0.8,0.5,8.6,9.7,8.7,10.1c0.1-0.2,0.2-0.3,0.2-0.5c0.1-1.3,0.2-12.5,0-13.2
	c0-0.1-0.1-0.2-0.2-0.4c1.1,0,2.2,0.1,3.3,0c0.1,0.2,0.2,0.4,0.2,0.6c0.1,2.1,0.2,19.6-0.1,20.5c0,0.1-0.1,0.2-0.2,0.3
	c-0.5,0-0.9-0.3-1.3-0.6c-2.1-1.8-11.5-13.4-12.2-13.7l-0.1,0.1c0.1,1.5,0.1,13.2-0.2,13.8c-1,0-2.1,0.1-3.1,0
	C169.6,54.3,169.6,53.9,169.4,53.6z"/>
<path fill="#01008F" d="M148.9,5.8c2.4,0,4.8,0,7.2,0c2.2,0,4.3,0.5,5.8,2.1c1.2,1.2,1.7,2.8,1.7,4.4c0,1.7-0.6,3.3-1.8,4.5
	c-1.8,1.7-4,1.9-6.3,1.9c-0.6,0-2.6-0.2-3.1,0c-0.5,0.2,0.2,7-0.4,8.1c-1.1,0-2.2,0-3.3,0.1c0.1-0.2,0.2-0.4,0.2-0.6
	c0.1-2.6,0-5.2,0-7.8C149,14.2,149,10,148.9,5.8z M152.1,8.9C152.1,8.9,152.1,8.9,152.1,8.9c0.5,1.2-0.3,6.3,0.2,6.8
	c1.3,0.3,5.1,0.3,6.2-0.4c0.1-0.1,0.2-0.1,0.3-0.3c0.6-0.3,1-0.8,1.2-1.4c0.3-1,0.4-2.1-0.1-3c-0.5-0.8-1.3-1.3-2.2-1.6
	C156.3,8.6,153.6,8.7,152.1,8.9z"/>
<path fill="#01008F" d="M128.1,33.8c2.6,0,7.4-0.3,9.8,0.2c0.4,0.1,0.7,0.2,1.1,0.3c0.4,0.1,0.7,0.3,1,0.5c1.4,0.8,2.4,2,2.8,3.6
	c0.5,1.7,0.3,3.7-0.6,5.2c-0.7,1.2-2,2.2-3.3,2.6c0.1,0.1,0.2,0.2,0.3,0.3c0.7,0.7,5.5,7.1,5.5,7.7c0.3,0.2,0.4,0.2,0.5,0.5
	c-0.2,0.2-0.7,0.2-1,0.2c-0.7,0-1.4,0-2.1-0.1c0,0-0.1,0-0.1,0c-0.2,0-0.4,0-0.6-0.1c-0.5-0.4-1-1.2-1.3-1.7
	c-0.9-1.3-3.8-5.4-4.7-6.2c-1.3-0.2-2.7,0-4-0.1c0,0,0,0.1,0.1,0.1c0,0.1,0.1,0.2,0.1,0.3c0.2,0.8,0.2,7.2-0.2,7.7
	c-1.1,0-2.3,0-3.4,0c0.1-0.1,0.1-0.2,0.1-0.3c0.3-1,0.1-5.8,0.1-7.1c0-4.3,0.2-8.8,0-13.1C128.2,34.1,128.2,33.9,128.1,33.8z
	 M131.5,36.8c0.3,0.7,0.3,5.9,0,6.5c0,0.1-0.1,0.2-0.1,0.3c1.6,0,5.7,0.5,6.9-0.7c0.1-0.1,0.1-0.1,0.2-0.3c0.6-0.4,0.9-1.2,1.1-1.9
	c0.1-0.9-0.1-1.9-0.6-2.6c-0.6-0.8-1.6-1.3-2.6-1.4C135.2,36.6,132.5,36.5,131.5,36.8z"/>
<path fill="#01008F" d="M185.5,5.8c2.2,0,4.4,0.1,6.6,0.1c0.6,0,1.5-0.2,2.1-0.1c0.3,0,1.9,0.5,2.3,0.6c1.5,0.6,2.8,1.7,3.5,3.2
	c0.7,1.6,0.7,3.6,0.1,5.2c-0.7,1.7-2,2.8-3.7,3.5c0.5,0.4,0.9,0.9,1.1,1.4c0.4,0.4,1,1.1,1.1,1.6c0.4,0.3,2.1,2.5,2.2,2.9
	c0.2,0.2,0.5,0.5,0.6,0.8c0.5,0.5,1.1,1.1,1.2,1.8c-1.2,0.1-2.6,0-3.8,0c-0.1-0.4-5.7-7.9-6-8.1c-1.1,0-2.4-0.2-3.6,0
	c-0.5,0.9,0.3,7.1-0.3,8.1l-3.4,0.1c0.1-0.1,0.1-0.2,0.1-0.3c0.2-0.5,0.1-19,0-20.4C185.7,6,185.6,5.9,185.5,5.8z M189,8.9
	C189,8.9,189,8.9,189,8.9c0.4,1-0.2,6.7,0.2,6.8c0.9,0.4,5,0.1,5.9-0.3c0.3-0.1,0.7-0.3,0.8-0.6c0.7-0.5,1.1-1.3,1.2-2.1
	c0.1-0.8-0.3-1.8-0.7-2.5c-0.6-0.8-1.4-1.3-2.4-1.4C192.4,8.6,190.4,8.7,189,8.9z"/>
<path fill="#01008F" d="M250.1,5.7c3.3,0.3,6.7,0.1,10,0.1c1.1,0,2.3-0.1,3.4,0l0,0.5c0.1,0.2,0.1,0.3,0.1,0.5
	c0.1,1.7,0.2,16.3-0.1,16.9c0,0,0,0.1-0.1,0.1l0,0.3c0,0.7,0.2,2-0.1,2.5c-1.3,0.5-11.2,0.2-13.5,0.2c0,0,0,0,0-0.1
	c0.1-0.2,0.1-0.4,0.1-0.6C250.2,24.2,250.3,6.4,250.1,5.7z M263.6,6.3c0,0.8,0.1,1.8,0,2.7c-1,0.6-8.7-0.2-9.8,0.3
	c-0.2,0.1-0.2,0.1-0.2,0.3c-0.3,1.4,0.4,3.9-0.2,5.1c0,0,0,0.1-0.1,0.1c2.5-0.1,5,0.1,7.5,0c0.3,0.5,0.3,2.5,0.1,3.1
	c0,0.1-0.1,0.1-0.1,0.2c-2.5,0-5,0.1-7.5,0c0.3,0.5,0.4,4.9,0.1,5.6c0,0,0,0,0,0.1c1.1,0,9.6-0.1,10,0c0,0,0.1,0.1,0.2,0.2
	c0,0,0,0,0,0c0,0,0-0.1,0.1-0.1c0.2-0.6,0.2-15.2,0.1-16.9C263.7,6.6,263.7,6.5,263.6,6.3z"/>
<path fill="#C00015" fill-opacity="0.8039" d="M51.6,38.4c8.4-0.1,16.8,0,25.1,0c0,1.5,0.2,11.3-0.2,11.9c-0.2,0-0.3,0-0.5,0
	c-6,0.1-12,0-18,0c-2.8,0-5.8-0.3-8.6,0.2c0.2-2.6,0.1-5.3,0.1-8c0-1.2,0.1-2.5-0.1-3.6c0.1-0.3,0-0.3,0.2-0.5l0.3,0
	C50.5,38.4,51.1,38.4,51.6,38.4z M51.6,38.4c0.2,0.1,0.4,0.1,0.7,0.2c-0.4,0-0.7,0.1-1.1,0.3c0,0-0.1,0-0.1,0
	c2.1-0.3,4.2-0.2,6.4-0.3l8,0c3.3,0,7.7-0.3,10.8,0.2c0.2,0.3-0.1,4.3-0.1,5c0,0.5,0.2,0.9,0.2,1.4c0,1.1-0.1,2.2-0.2,3.3
	c0,0.4-0.2,1.1,0,1.4l0.3,0.1L76,50.4c0.2,0,0.3,0,0.5,0c0.4-0.6,0.1-10.5,0.2-11.9C68.3,38.4,59.9,38.3,51.6,38.4z M49.4,39
	c0.2,1.1,0.1,2.4,0.1,3.6c0.4,0.6,0,5.6,0.1,6.8c0.6-0.8-0.2-8.3,0.3-10c0.4-0.1,0.7-0.3,1-0.4c0,0,0.1,0,0.1,0
	c0.4-0.2,0.7-0.3,1.1-0.3c-0.2,0-0.4-0.1-0.7-0.2c-0.5-0.1-1.1,0-1.6,0l-0.3,0C49.4,38.6,49.4,38.7,49.4,39z"/>
<path fill="#C00015" fill-opacity="0.8706" d="M49.4,39c0.1-0.3,0-0.3,0.2-0.5l0.3,0c0.5,0,1.1-0.1,1.6,0c0.2,0.1,0.4,0.1,0.7,0.2
	c-0.4,0-0.7,0.1-1.1,0.3c0,0-0.1,0-0.1,0c-0.3,0.1-0.7,0.3-1,0.4c-0.5,1.7,0.3,9.3-0.3,10c-0.1-1.2,0.2-6.2-0.1-6.8
	C49.5,41.4,49.6,40.1,49.4,39z M49.4,39c0.1,0.1,0.2,0.2,0.3,0.3c0.2-0.1,0.3-0.2,0.4-0.4c0.3-0.1,0.5-0.2,0.8-0.2c0,0,0,0,0.1,0
	c-0.2-0.2-0.7-0.2-1-0.3l-0.3,0C49.4,38.6,49.4,38.7,49.4,39z"/>
<path fill="#C00015" fill-opacity="0.898" d="M49.4,39c0.1-0.3,0-0.3,0.2-0.5l0.3,0c0.3,0.1,0.8,0.1,1,0.3c0,0,0,0-0.1,0
	c-0.3,0-0.5,0.1-0.8,0.2c-0.1,0.2-0.2,0.3-0.4,0.4C49.6,39.2,49.5,39.1,49.4,39z"/>
<path fill="#C00015" fill-opacity="0.8392" d="M51.6,38.4c8.4-0.1,16.8,0,25.1,0c0,1.5,0.2,11.3-0.2,11.9c-0.2,0-0.3,0-0.5,0
	l0.4-0.3L76.1,50c-0.2-0.4,0-1,0-1.4c0.1-1.1,0.2-2.2,0.2-3.3c0-0.5-0.2-0.9-0.2-1.4c0-0.8,0.2-4.8,0.1-5c-3.1-0.5-7.5-0.2-10.8-0.2
	l-8,0c-2.1,0-4.3,0-6.4,0.3c0,0,0.1,0,0.1,0c0.4-0.2,0.7-0.3,1.1-0.3C52,38.6,51.8,38.5,51.6,38.4z"/>
<path fill="#01008F" d="M58.5,70.7c5.1,0.1,10.3,0,15.5,0c3.9,0,7.9,0.1,11.9,0c0,4.1,0.1,8.2,0,12.2c-1.5-0.2-3.1-0.1-4.6-0.1
	l-7.8,0l-9.5,0c-1.8,0-3.7-0.1-5.5,0.1L58.5,70.7z"/>
<path fill="#01008F" d="M37.3,50.4l12,0c-0.1,3.1,0,6.2,0,9.3c0,7.7,0.1,15.4,0,23.1c-1.4-0.2-2.9-0.1-4.3-0.1c-2.5,0-5.1,0-7.6,0
	c-0.1-3.6,0-7.2,0-10.8L37.3,50.4z"/>
<path fill="#01008F" d="M214.9,69.8c0.3,0.4,0.3,0.9,0.2,1.4c0,0.1-0.1,0.3-0.2,0.4c-1.9,0-3.9-0.2-5.9,0c-0.2,0.2-0.2,0.4-0.3,0.7
	c0.2,0.6,0.3,2.5,0.1,3c0,0.1-0.1,0.1-0.1,0.2c1.6,0,3.6-0.2,5.2,0c0.2,0.6,0.2,1.2,0,1.8c-1.7,0-3.5-0.1-5.2,0
	c0.2,0.5,0.3,0.9,0.1,1.5c0.1,0.6,0.2,3.3,0,3.8c0,0.1-0.1,0.1-0.2,0.2c-0.6-0.1-1.3,0-1.9,0c0-0.1,0.1-0.1,0.1-0.2
	c0.2-0.6,0.2-10.8,0.1-12.1c0-0.2-0.1-0.4-0.2-0.6c1.6,0,3.2,0,4.8,0C212.7,69.8,213.9,69.9,214.9,69.8z"/>
<path fill="#01008F" d="M85.5,5.8c0.1,0,0.2,0,0.3,0.1c0.1,1.4,0,2.9,0,4.3l0,7.9c-2.8-0.3-6.6-0.1-9.5-0.1l-18.7,0
	c-2.3,0-6.1,0.3-8.1,0L49.3,18c-0.2,2.7-0.1,5.6-0.1,8.3c0,4-0.1,7.9,0,11.9l-11.3,0c-0.2,0-0.5,0-0.7,0c-0.1-0.2-0.1-0.3-0.1-0.4
	c-0.1-1.6,0-3.2,0-4.8l0-8.2c0-6.2-0.1-12.5,0-18.8l26.2,0C70.8,5.8,78.2,5.9,85.5,5.8z"/>
</svg>
