<svg id="Layer_1" data-name="Layer 1" xmlns="http://www.w3.org/2000/svg" xmlns:xlink="http://www.w3.org/1999/xlink" viewBox="0 0 300 87"><defs><style>.cls-1{fill:none;}.cls-2{clip-path:url(#clip-path);}.cls-3{fill:currentColor;}</style><clipPath id="clip-path"><rect class="cls-1" x="74" width="153" height="87"/></clipPath></defs><g class="cls-2"><path class="cls-3" d="M80.281,77.082V70.453H81.6v2.61h2.6v-2.61h1.329v6.629H84.2v-2.9H81.6v2.9Z"/><path class="cls-3" d="M92.836,77.082H91.392l-.575-1.507H88.188l-.541,1.507H86.238l2.56-6.629h1.4Zm-2.445-2.621L89.482,72,88.6,74.461Z"/><path class="cls-3" d="M93.562,70.453h1.329v5.522h2.577V70.453H98.8v5.516h.546v2.558h-1.1v-1.45H93.562Z"/><path class="cls-3" d="M100.211,77.082V70.453h1.329v6.629Z"/><path class="cls-3" d="M102.537,73.812a4.3,4.3,0,0,1,.3-1.7,3.129,3.129,0,0,1,.615-.91,2.575,2.575,0,0,1,.852-.6,3.587,3.587,0,0,1,1.415-.261,3.057,3.057,0,0,1,2.323.911,4.087,4.087,0,0,1,.006,5.04,3.036,3.036,0,0,1-2.312.905,3.093,3.093,0,0,1-2.335-.905A3.44,3.44,0,0,1,102.537,73.812Zm1.369-.047a2.488,2.488,0,0,0,.517,1.7,1.764,1.764,0,0,0,2.508.111c.035-.035.075-.07.1-.105a3.185,3.185,0,0,0,.011-3.428,1.831,1.831,0,0,0-2.6-.034.3.3,0,0,0-.04.04A2.526,2.526,0,0,0,103.906,73.765Z"/><path class="cls-3" d="M109.957,77.082V70.453h1.329v2.61h2.6v-2.61h1.328v6.629h-1.328v-2.9h-2.6v2.9Z"/><path class="cls-3" d="M122.51,77.082h-1.444l-.575-1.507h-2.629l-.541,1.507h-1.4l2.56-6.629h1.4Zm-2.445-2.621-.9-2.459-.886,2.459Z"/><path class="cls-3" d="M123.8,70.453h4.607v6.629h-1.329V71.573H125.1V74.4a12.041,12.041,0,0,1-.081,1.7,1.23,1.23,0,0,1-.391.754,1.47,1.47,0,0,1-.978.267c-.155,0-.437-.017-.845-.046V76.044l.293.006a.957.957,0,0,0,.564-.116c.1-.075.144-.261.144-.557l-.006-1.136Z"/><path class="cls-3" d="M129.805,70.453h1.328V73.1h1.778a2.4,2.4,0,0,1,1.817.591,2,2,0,0,1,.564,1.421,1.961,1.961,0,0,1-.339,1.155,1.761,1.761,0,0,1-.777.643,3.721,3.721,0,0,1-1.265.168h-3.106Zm1.328,5.516h1.295a3.97,3.97,0,0,0,.862-.058.86.86,0,0,0,.432-.279.782.782,0,0,0,.19-.533.732.732,0,0,0-.328-.667,2.169,2.169,0,0,0-1.11-.215h-1.352Z"/><path class="cls-3" d="M136.387,77.082V70.453h1.328v2.61h2.6v-2.61h1.329v6.629h-1.329v-2.9h-2.6v2.9Z"/><path class="cls-3" d="M143.033,70.453h1.243v4.42l2.663-4.414h1.323v6.629h-1.243V72.756l-2.663,4.326h-1.329Z"/><path class="cls-3" d="M149.631,70.454h1.242v4.414l2.663-4.414h1.323v6.629h-1.242V72.756l-2.663,4.327h-1.329Zm3.411-1.653h.615a1.465,1.465,0,0,1-.426.968,1.516,1.516,0,0,1-1.944,0,1.424,1.424,0,0,1-.425-.968h.615a.693.693,0,0,0,.224.487,1.036,1.036,0,0,0,1.122,0A.7.7,0,0,0,153.042,68.8Z"/><path class="cls-3" d="M158.1,70.453h1.484l1.536,3.44,1.312-3.44h1.386l-2.22,5.04a4.8,4.8,0,0,1-.742,1.247,1.243,1.243,0,0,1-.972.43,4.51,4.51,0,0,1-.921-.076v-1c.19.012.357.018.512.018a1.031,1.031,0,0,0,.662-.168,1.754,1.754,0,0,0,.385-.731Z"/><path class="cls-3" d="M164.488,77.082V70.453h1.329v2.61h2.6v-2.61h1.328v6.629h-1.328v-2.9h-2.6v2.9Z"/><path class="cls-3" d="M171.082,77.082V70.453h1.329v6.629Z"/><path class="cls-3" d="M173.676,70.454H176.3a7.755,7.755,0,0,1,1.162.064,1.712,1.712,0,0,1,.685.273,1.739,1.739,0,0,1,.506.556,1.48,1.48,0,0,1,.2.778,1.577,1.577,0,0,1-.926,1.438,1.745,1.745,0,0,1,.926.6,1.588,1.588,0,0,1,.322,1,2.012,2.012,0,0,1-.207.881,1.771,1.771,0,0,1-.569.685,1.815,1.815,0,0,1-.892.313c-.218.023-.753.041-1.6.046h-2.237Zm1.328,1.1v1.531h.869c.518,0,.84-.005.966-.023a.866.866,0,0,0,.535-.238.711.711,0,0,0,.2-.516.681.681,0,0,0-.667-.731c-.133-.017-.512-.023-1.134-.023Zm0,2.639V75.97h1.231a5.853,5.853,0,0,0,.909-.041.806.806,0,0,0,.483-.266.8.8,0,0,0,.184-.563.866.866,0,0,0-.143-.5.8.8,0,0,0-.415-.3,4.476,4.476,0,0,0-1.179-.093H175Z"/><path class="cls-3" d="M180.305,77.082V70.453h4.877v1.12h-3.549V73.04h3.3v1.119h-3.3v1.8h3.676v1.119Z"/><path class="cls-3" d="M186.434,77.084v-6.63h2.128a7.545,7.545,0,0,1,1.576.1,1.724,1.724,0,0,1,.949.649,2.077,2.077,0,0,1,.379,1.294,2.181,2.181,0,0,1-.218,1.026,1.84,1.84,0,0,1-.558.656,1.91,1.91,0,0,1-.69.313,7.366,7.366,0,0,1-1.375.093h-.868v2.5Zm1.328-5.51v1.879h.725a3.548,3.548,0,0,0,1.047-.1.887.887,0,0,0,.414-.325.953.953,0,0,0-.063-1.114.921.921,0,0,0-.535-.3,6.647,6.647,0,0,0-.955-.046h-.633Z"/><path class="cls-3" d="M196.537,74.648l1.289.412a2.914,2.914,0,0,1-.984,1.612,3.079,3.079,0,0,1-3.9-.377,3.479,3.479,0,0,1-.845-2.465,3.652,3.652,0,0,1,.845-2.569,2.9,2.9,0,0,1,2.232-.917,2.726,2.726,0,0,1,1.961.719,2.617,2.617,0,0,1,.673,1.224l-1.317.319a1.36,1.36,0,0,0-1.386-1.113,1.478,1.478,0,0,0-1.185.528,2.625,2.625,0,0,0-.454,1.716,2.814,2.814,0,0,0,.448,1.793,1.467,1.467,0,0,0,1.168.533,1.34,1.34,0,0,0,.909-.336A2.064,2.064,0,0,0,196.537,74.648Z"/><path class="cls-3" d="M198.982,70.453h1.243v4.42l2.663-4.414h1.323v6.629h-1.243V72.756l-2.663,4.326h-1.328Z"/><path class="cls-3" d="M207.048,77.082V71.573H205.1v-1.12h5.222v1.12h-1.944v5.509Z"/><path class="cls-3" d="M211.184,77.082V70.453h4.877v1.12h-3.549V73.04h3.3v1.119h-3.3v1.8h3.676v1.119Z"/><path class="cls-3" d="M218.786,77.082V71.573h-1.95v-1.12h5.223v1.12h-1.944v5.509Z"/><path class="cls-3" d="M82.768,82.541,81.6,84.583l1.168,2.088h-.99l-1.415-2.088,1.415-2.042Zm1.76,0-1.162,2.042,1.162,2.088h-1l-1.415-2.088,1.415-2.042Z"/><path class="cls-3" d="M85.6,80.354h1.328v1.583a5.529,5.529,0,0,0,.058,1.021.733.733,0,0,0,.333.435,1.486,1.486,0,0,0,.817.185,2.8,2.8,0,0,0,.76-.093,1.653,1.653,0,0,0,.575-.272V80.354H90.8v6.629H89.461V84.315a4.281,4.281,0,0,1-.794.273,3.405,3.405,0,0,1-.765.092,2.785,2.785,0,0,1-1.645-.469,1.859,1.859,0,0,1-.661-1.624Z"/><path class="cls-3" d="M92.16,86.989V80.354h4.878v1.119H93.489V82.94h3.3v1.12h-3.3v1.8h3.675v1.119Z"/><path class="cls-3" d="M98.285,86.99V80.355h2.128a7.469,7.469,0,0,1,1.576.1,1.723,1.723,0,0,1,.949.65,2.069,2.069,0,0,1,.38,1.293,2.174,2.174,0,0,1-.219,1.027,1.853,1.853,0,0,1-.557.655,1.916,1.916,0,0,1-.691.314,7.265,7.265,0,0,1-1.374.092h-.869v2.5Zm1.329-5.51v1.879h.725a3.508,3.508,0,0,0,1.046-.1.883.883,0,0,0,.415-.325.956.956,0,0,0-.064-1.114.914.914,0,0,0-.535-.3,6.487,6.487,0,0,0-.954-.047h-.633Z"/><path class="cls-3" d="M104.418,86.989V80.354h1.329v2.61h2.6v-2.61h1.328v6.629h-1.328v-2.9h-2.6v2.9h-1.329Z"/><path class="cls-3" d="M111.008,86.989V80.354h1.328v6.629h-1.328Z"/><path class="cls-3" d="M113.666,80.354h4.452v1.113h-3.129v5.516H113.66Z"/><path class="cls-3" d="M118.766,86.989V80.354h1.328v6.629h-1.328Z"/><path class="cls-3" d="M121.367,80.355H124a7.769,7.769,0,0,1,1.162.063,1.656,1.656,0,0,1,1.19.83,1.487,1.487,0,0,1,.2.777,1.578,1.578,0,0,1-.926,1.438,1.75,1.75,0,0,1,.926.6,1.6,1.6,0,0,1,.322,1,2.03,2.03,0,0,1-.207.882,1.777,1.777,0,0,1-.57.684,1.808,1.808,0,0,1-.891.313c-.219.024-.754.041-1.6.047h-2.238Zm1.323,1.1v1.531h.869c.517,0,.839-.006.966-.023a.88.88,0,0,0,.535-.238.691.691,0,0,0,.195-.516.679.679,0,0,0-.667-.731c-.132-.018-.512-.023-1.133-.023Zm0,2.639V85.87h1.231a5.853,5.853,0,0,0,.909-.04.811.811,0,0,0,.483-.267A.8.8,0,0,0,125.5,85a.871.871,0,0,0-.144-.5.8.8,0,0,0-.414-.3,4.476,4.476,0,0,0-1.179-.093h-1.07Z"/><path class="cls-3" d="M131.854,84.548l1.288.412a2.944,2.944,0,0,1-.984,1.612,3.078,3.078,0,0,1-3.9-.377,3.475,3.475,0,0,1-.846-2.465,3.654,3.654,0,0,1,.846-2.569,2.9,2.9,0,0,1,2.231-.916,2.724,2.724,0,0,1,1.962.719,2.621,2.621,0,0,1,.673,1.224l-1.317.319a1.364,1.364,0,0,0-1.387-1.114,1.482,1.482,0,0,0-1.185.528,2.63,2.63,0,0,0-.454,1.717,2.818,2.818,0,0,0,.449,1.792,1.465,1.465,0,0,0,1.167.533,1.338,1.338,0,0,0,.909-.336A2.058,2.058,0,0,0,131.854,84.548Z"/><path class="cls-3" d="M134.309,80.354h1.328V83h1.778a2.4,2.4,0,0,1,1.817.592,2,2,0,0,1,.564,1.421,1.958,1.958,0,0,1-.339,1.154,1.731,1.731,0,0,1-.777.644,3.751,3.751,0,0,1-1.265.168h-3.106Zm1.328,5.521h1.294a3.89,3.89,0,0,0,.869-.064.858.858,0,0,0,.431-.278.775.775,0,0,0,.19-.534.73.73,0,0,0-.328-.667,2.167,2.167,0,0,0-1.11-.214h-1.351Z"/><path class="cls-3" d="M140.9,80.354h1.329v2.825a.9.9,0,0,0,.6-.232,4.857,4.857,0,0,0,.483-1.032,2.829,2.829,0,0,1,.828-1.34,2.59,2.59,0,0,1,1.335-.261c.028,0,.092,0,.189-.006V81.3l-.189-.006a1.333,1.333,0,0,0-.6.1.783.783,0,0,0-.3.308,7.444,7.444,0,0,0-.345.852,2.916,2.916,0,0,1-.265.575,1.365,1.365,0,0,1-.5.435,1.337,1.337,0,0,1,.73.51,7.313,7.313,0,0,1,.633,1.085l.9,1.821h-1.559l-.782-1.717c-.012-.023-.04-.07-.075-.139-.017-.023-.069-.128-.167-.313a1.9,1.9,0,0,0-.419-.609.841.841,0,0,0-.5-.128v2.906H140.9Z"/><path class="cls-3" d="M152.422,86.989h-1.444l-.575-1.508H147.78l-.541,1.508h-1.415l2.56-6.63h1.4Zm-2.445-2.628-.909-2.459-.891,2.459Z"/><path class="cls-3" d="M155.693,80.354h5.229v6.629h-1.329V81.461h-2.577v5.516h-1.328Z"/><path class="cls-3" d="M162.009,83.712a4.291,4.291,0,0,1,.3-1.7,3.114,3.114,0,0,1,.615-.911,2.583,2.583,0,0,1,.851-.6,3.576,3.576,0,0,1,1.415-.261,3.058,3.058,0,0,1,2.324.91,4.079,4.079,0,0,1,.006,5.04,3.034,3.034,0,0,1-2.312.905,3.092,3.092,0,0,1-2.336-.905A3.441,3.441,0,0,1,162.009,83.712Zm1.369-.046a2.518,2.518,0,0,0,.518,1.7,1.764,1.764,0,0,0,2.508.11c.034-.035.075-.07.109-.11a3.169,3.169,0,0,0,.017-3.428,1.83,1.83,0,0,0-2.6-.035l-.041.041A2.5,2.5,0,0,0,163.378,83.666Z"/><path class="cls-3" d="M169.667,80.354h4.607v6.629h-1.328v-5.51h-1.979V84.3a12.055,12.055,0,0,1-.081,1.7,1.23,1.23,0,0,1-.391.754,1.468,1.468,0,0,1-.978.266c-.155,0-.437-.017-.845-.046V85.939l.3.006a.964.964,0,0,0,.564-.116c.1-.076.143-.261.143-.557l0-1.137Z"/><path class="cls-3" d="M175.6,86.989V80.354h1.328v6.629H175.6Z"/><path class="cls-3" d="M179.673,86.989v-5.51h-1.95v-1.12h5.222v1.12H181v5.51Z"/><path class="cls-3" d="M183.805,86.989V80.354h4.877v1.119h-3.549V82.94h3.3v1.12h-3.3v1.8h3.676v1.119Z"/><path class="cls-3" d="M189.262,86.989l2.249-3.463-2.036-3.172h1.553l1.317,2.128,1.294-2.128h1.536l-2.048,3.219,2.249,3.41h-1.605l-1.455-2.291-1.461,2.291Z"/><path class="cls-3" d="M196.066,86.989V80.354H197.4v2.61H200v-2.61h1.329v6.629H200v-2.9h-2.6v2.9h-1.329Z"/><path class="cls-3" d="M202.652,86.989V80.354h1.329v6.629h-1.329Z"/><path class="cls-3" d="M205.271,80.354H206.6v2.825a.9.9,0,0,0,.6-.232,4.581,4.581,0,0,0,.483-1.032,2.836,2.836,0,0,1,.828-1.34,2.592,2.592,0,0,1,1.335-.261c.029,0,.092,0,.19-.006V81.3l-.19-.006a1.328,1.328,0,0,0-.6.1.779.779,0,0,0-.305.308,7.63,7.63,0,0,0-.345.852,2.916,2.916,0,0,1-.265.575,1.357,1.357,0,0,1-.5.435,1.337,1.337,0,0,1,.73.51,7.227,7.227,0,0,1,.633,1.085l.9,1.821h-1.559l-.782-1.711c-.011-.023-.034-.07-.075-.139-.017-.024-.069-.128-.166-.314a1.931,1.931,0,0,0-.42-.609.845.845,0,0,0-.5-.127V86.99h-1.328Z"/><path class="cls-3" d="M216.785,86.989h-1.444l-.575-1.508h-2.629l-.54,1.508h-1.409l2.559-6.63h1.4Zm-2.445-2.628-.908-2.459-.886,2.459Z"/><path class="cls-3" d="M217.3,86.671l1.168-2.042L217.3,82.541h.989l1.415,2.088-1.415,2.042Zm1.754,0,1.168-2.042-1.168-2.088h.99l1.414,2.088-1.414,2.042Z"/><path class="cls-3" d="M86.091,52.521H84.82V32.586h40.217v4.5h10.774V.182h14.253V2.241h22.012V24.982h-1.271V3.522H148.793V1.463H137.076V38.369h-13.31V33.874H86.091Z"/><path class="cls-3" d="M146.711,5.449a4.32,4.32,0,0,0-.719.406,3.891,3.891,0,0,0-1.461,1.995,7.016,7.016,0,0,0-.236,2.61v.806l-.006.568h.011l.116.018.069.017c.011.006.023.006.028.012a.374.374,0,0,1,.064.04c0,.006.011.006.017.012l.006.006a1.049,1.049,0,0,1,.069.087.315.315,0,0,1,.028.191.025.025,0,0,1,0,.018.19.19,0,0,1-.018.052.111.111,0,0,1-.023.035.169.169,0,0,1-.051.063.69.69,0,0,1-.087.064l-.011.006-.046.017a.651.651,0,0,1-.1.024l-.069.011a.068.068,0,0,1-.034-.006.121.121,0,0,1-.052-.04l-.109-.186c-.081-.139-.15-.278-.219-.417-.034-.076-.069-.145-.1-.221l0-.017c-.035-.081-.069-.157-.1-.238s-.069-.18-.1-.273c-.04-.116-.075-.226-.1-.342,0-.023-.011-.046-.017-.069a4.278,4.278,0,0,1-.092-.453c-.011-.151-.017-.365-.023-.765-.006-.3,0-.615.006-.934.006-.134.011-.261.017-.377.017-.273.04-.65.052-.841a7.261,7.261,0,0,0-.581-3.161c-.04-.064-.092-.116-.115-.116s-.075.052-.115.116a7.349,7.349,0,0,0-.581,3.161c.011.191.034.568.052.841.006.116.011.243.017.377.006.319.012.638.006.934-.006.4-.012.614-.023.765s-.058.3-.092.453l-.018.069c-.028.116-.069.226-.1.342-.029.093-.063.18-.1.273s-.063.157-.1.238l0,.017c-.035.07-.064.145-.1.221-.069.139-.138.278-.219.417l-.109.186a.091.091,0,0,1-.052.04c-.011,0-.023.006-.034.006l-.069-.011a.651.651,0,0,1-.1-.024.3.3,0,0,1-.046-.017l-.011-.006a.307.307,0,0,1-.087-.064.58.58,0,0,1-.051-.063.124.124,0,0,0-.023-.035l-.018-.052a.025.025,0,0,0,0-.018.315.315,0,0,1,.028-.191.272.272,0,0,1,.069-.087l.006-.006c.006-.006.012-.012.017-.012a.247.247,0,0,1,.064-.04c.011-.006.017-.006.028-.012l.069-.017.115-.018h.012l-.006-.568V10.46a6.888,6.888,0,0,0-.236-2.61,3.891,3.891,0,0,0-1.461-1.995,4.129,4.129,0,0,0-.719-.406l-.074-.029v9.749h2.4l.1.186a5.972,5.972,0,0,0,.788,1.143,4.8,4.8,0,0,1,.3.458l.017.035a1.141,1.141,0,0,1,.058.116,2.531,2.531,0,0,1,.189.487,1.292,1.292,0,0,0,.1.284.191.191,0,0,0,.253,0,.976.976,0,0,0,.1-.284,2.471,2.471,0,0,1,.19-.487.957.957,0,0,1,.057-.116l.018-.035a5.28,5.28,0,0,1,.3-.458,6.213,6.213,0,0,0,.788-1.143l.1-.186h2.4V5.42Zm-5.827,8.323V14.4h-1.369v-.969l.006-2.581c0-.522,0-.974.005-1.374.006-.841.012-1.52.018-1.891,0-.145,0-.238.011-.284V7.287c.006-.006.012-.017.017-.023a.025.025,0,0,1,.029,0l.006.006a.377.377,0,0,1,.046.04.779.779,0,0,0,.069.105,3.672,3.672,0,0,1,.19.319l.034.069a4.24,4.24,0,0,1,.368,1.4,18.585,18.585,0,0,1-.017,1.96.187.187,0,0,1-.04.058l-.017.018a.758.758,0,0,1-.075.058,1.553,1.553,0,0,0-.443.487.14.14,0,0,1-.023.035l-.04.052c-.012.012-.023.023-.035.023-.046,0-.052.035-.052.4,0,.331.006.4.041.4s.074.052.12.116a1.622,1.622,0,0,0,1.076.638l.075.017Zm.9-.122.086.017a.223.223,0,0,1,.063.023l.023.012a.544.544,0,0,1,.179.162c.011.024.029.041.04.064v.006c.006.012.012.023.017.035a.8.8,0,0,1,.064.2.518.518,0,0,1,.011.087l.012.1a.1.1,0,0,1-.058.058h-.443Zm.546,1.8a.834.834,0,0,1-.023.267l-.063-.035a.739.739,0,0,1-.178-.145l-.035-.041a.122.122,0,0,1-.023-.029c-.017-.023-.034-.04-.052-.064a.766.766,0,0,1-.057-.092.512.512,0,0,1-.04-.087c0-.006-.006-.018,0-.018a.163.163,0,0,1,.115-.029h.368Zm.437-2.32c-.04.029-.057.052-.069.052s-.028-.023-.069-.052a2.192,2.192,0,0,0-.27-.25,1.242,1.242,0,0,1-.207-.191.239.239,0,0,1-.011-.064v-.011a.192.192,0,0,1,.011-.058.648.648,0,0,0,.017-.064c.018-.047.041-.11.069-.186.046-.116.115-.272.213-.493l.207-.464a.179.179,0,0,1,.035-.029c.011.012.023.018.034.029l.207.464c.1.215.167.371.213.493.029.07.052.134.069.186.006.023.012.04.017.064s.006.04.012.058v.011a.112.112,0,0,1-.012.064.8.8,0,0,1-.207.191C142.943,12.954,142.851,13.041,142.77,13.128Zm.777,2.094c-.012.023-.023.052-.04.087a.6.6,0,0,1-.064.092c-.017.024-.034.041-.051.064s-.018.018-.023.029l-.035.041a.877.877,0,0,1-.178.145l-.063.035a1.3,1.3,0,0,1-.023-.267v-.273h.368a.165.165,0,0,1,.115.029C143.553,15.21,143.547,15.216,143.547,15.222Zm.069-.824h-.443a.094.094,0,0,1-.057-.058l.011-.1c.006-.029.006-.058.012-.087a1.971,1.971,0,0,1,.063-.2l.017-.035v-.005a.24.24,0,0,1,.04-.064.536.536,0,0,1,.179-.163l.023-.011a.33.33,0,0,1,.063-.023l.086-.018Zm1.9,0h-1v-.934l.075-.017a1.61,1.61,0,0,0,1.076-.638c.046-.064.1-.116.12-.116s.041-.07.041-.4c0-.366-.006-.4-.052-.4-.012,0-.023-.011-.035-.023l-.04-.052c-.006-.012-.017-.023-.023-.035a1.494,1.494,0,0,0-.443-.487.379.379,0,0,1-.074-.058l-.018-.017a.141.141,0,0,1-.04-.058,18.578,18.578,0,0,1-.017-1.961,4.214,4.214,0,0,1,.368-1.4c.011-.024.023-.047.034-.07a3.05,3.05,0,0,1,.19-.319c.029-.035.046-.075.069-.1a.164.164,0,0,1,.046-.041l.006-.006a.025.025,0,0,1,.029,0,.2.2,0,0,0,.017.023v.012c.006.046.006.139.011.284.006.371.012,1.056.018,1.891,0,.4,0,.853,0,1.375l.012,2.581v.968Z"/><path class="cls-3" d="M168.386,10.175H149.094V5.523h19.292ZM150.365,8.893h16.749V6.8H150.365Z"/><path class="cls-3" d="M168.386,27.222H149.094V22.57h19.292Zm-18.021-1.276h16.749V23.852H150.365Z"/><path class="cls-3" d="M168.386,21.6H149.094V16.949h19.292Zm-18.021-1.276h16.749V18.231H150.365Z"/><path class="cls-3" d="M168.386,15.958H149.094V11.307h19.292Zm-18.021-1.276h16.749V12.588H150.365Z"/><path class="cls-3" d="M160.487,67.008c-.759-.011-1.346-.034-1.358-.052a.713.713,0,0,1-.063-.18,10.72,10.72,0,0,0-.569-1.438,8.063,8.063,0,0,0-7.662-4.866,6.648,6.648,0,0,0-1.886.18,9,9,0,0,0-3.716,1.838,10.746,10.746,0,0,0-1.783,2.048,12.424,12.424,0,0,0-1.064,2.111l-.1.29-1.449-.023-1.45-.023-.656-.447c-.362-.244-.667-.458-.684-.476a14.256,14.256,0,0,1,.414-1.531c.017-.017,1.478-.191,1.628-.191a11.793,11.793,0,0,0,.466-1.12c-.121-.2-.259-.388-.4-.574-.219-.3-.437-.6-.489-.661l-.086-.122.351-.522c.316-.476.356-.522.431-.51.046.005.477.087.961.174s.891.162.908.162a6.557,6.557,0,0,0,.6-.847c0-.017-.115-.365-.253-.783s-.247-.759-.241-.765c.086-.076,1.092-.847,1.11-.847s.368.22.793.5.783.5.794.5.213-.105.443-.238l.42-.238.006-.232c0-.128.011-.557.023-.957l.017-.725.627-.2.627-.2.661.771c.363.424.679.772.691.772.051,0,.782-.14.793-.145s.138-.441.3-.969l.287-.957.2-.023c.11-.012.4-.023.65-.035l.449-.011.178.411c.1.227.288.667.42.98l.242.569.437.093c.385.081.443.087.477.04.018-.029.294-.406.61-.846l.575-.8.558.151c.3.081.564.162.575.168s.064.446.127.974.115,1,.126,1.056c.018.093.058.122.449.33l.431.227.708-.551c.385-.3.713-.551.719-.551s.926.7,1.1.852c.006.006-.074.424-.178.928s-.2.94-.19.975a1.9,1.9,0,0,0,.328.377l.328.325.857-.308c.725-.261.868-.3.9-.261s.673,1.079.673,1.1c0,.006-.2.389-.437.847s-.437.852-.437.876a3.205,3.205,0,0,0,.172.44l.173.4.874.029.874.029.075.249c.04.139.115.424.173.633l.1.382-.69.731c-.38.4-.7.731-.713.731S161.223,67.02,160.487,67.008Z"/><path class="cls-3" d="M167.39,65.35c13.166-5.76,27.293-9.959,38.031-11.3a64.316,64.316,0,0,1,12.545-.411c1.346.127,4.5.6,4.843.736a13.359,13.359,0,0,1,.99,2.21c1.323,3.4,3.295,8.688,3.295,8.833,0,.076-.281.006-.621-.145-2.939-1.293-7.011-2.151-12.838-2.7-3.014-.285-10.871-.4-14.909-.2a252.312,252.312,0,0,0-29.012,3.2c-2.192.36-4.055.656-4.136.656A13.213,13.213,0,0,1,167.39,65.35Z"/><path class="cls-3" d="M133.609,65.682c-13.166-5.76-27.293-9.959-38.032-11.3a64.265,64.265,0,0,0-12.539-.411c-1.346.127-4.5.6-4.843.736a13.354,13.354,0,0,0-.989,2.21c-1.323,3.4-3.3,8.683-3.3,8.828,0,.075.282.005.621-.145,2.94-1.294,7.012-2.152,12.839-2.7,3.013-.284,10.871-.4,14.908-.2a252.307,252.307,0,0,1,29.013,3.2c2.191.359,4.055.655,4.136.649A15.227,15.227,0,0,0,133.609,65.682Z"/><path class="cls-3" d="M164.067,60.17c8.07-7.708,20.661-14.575,32.975-17.986a88.71,88.71,0,0,1,17.722-2.94l1.1-.041,1.565,3.492c1.236,2.749,1.53,3.52,1.392,3.607a7.215,7.215,0,0,1-1.628.116,122.41,122.41,0,0,0-18.763,2.071c-12.458,2.343-24.382,6.519-33.769,11.826-.788.447-1.467.806-1.513.806A7.5,7.5,0,0,1,164.067,60.17Z"/><path class="cls-3" d="M159.867,57.08c0-.168,2.658-3.8,4.216-5.759a92.578,92.578,0,0,1,15.03-14.964,89.523,89.523,0,0,1,7.552-5.1,52.77,52.77,0,0,1,16.146-6.148l1.236-.238,1.208,1.276c.662.7,2.186,2.32,3.382,3.6l2.175,2.32-1.237.093a66.849,66.849,0,0,0-16.468,3.776,92.5,92.5,0,0,0-31.825,19.888A12.607,12.607,0,0,1,159.867,57.08Z"/><path class="cls-3" d="M155.731,54.289a37,37,0,0,1,2.191-6.78c5.223-12.146,15.461-23.873,30.238-34.626.926-.679,1.288-.87,1.455-.783.126.063,1.967,1.392,4.089,2.952l3.866,2.842-2.957,1.491a120.883,120.883,0,0,0-16.1,9.761c-10.411,7.575-17.641,15.405-22.03,23.867A5.756,5.756,0,0,1,155.731,54.289Z"/></g></svg>