<?xml version="1.0" encoding="utf-8"?>
<!-- Generator: Adobe Illustrator 25.4.1, SVG Export Plug-In . SVG Version: 6.00 Build 0)  -->
<svg version="1.1" id="Layer_1" xmlns="http://www.w3.org/2000/svg" xmlns:xlink="http://www.w3.org/1999/xlink" x="0px" y="0px"
	 viewBox="0 0 300 87" style="enable-background:new 0 0 300 87;" xml:space="preserve">
<style type="text/css">
	.st0{clip-path:url(#SVGID_00000008122450442823643770000013483688287356082870_);}
	.st1{fill:#88FC6A;stroke:#88FC6A;stroke-width:0.3287;stroke-miterlimit:10;}
	.st2{fill:#00E200;stroke:#88FC6A;stroke-width:0.3451;stroke-miterlimit:10;}
	.st3{fill:#009A24;stroke:#009A24;stroke-width:0.3334;stroke-miterlimit:10;}
	.st4{fill:#009A24;stroke:#009A24;stroke-width:0.3287;stroke-miterlimit:10;}
	.st5{fill:#FEECB5;stroke:#FEECB5;stroke-width:0.3287;stroke-miterlimit:10;}
	.st6{fill:#FEEF80;stroke:#FEEF80;stroke-width:0.3451;stroke-miterlimit:10;}
	.st7{fill:#FFE900;stroke:#FFE900;stroke-width:0.3334;stroke-miterlimit:10;}
	.st8{fill:#FFC500;stroke:#FFC500;stroke-width:0.3287;stroke-miterlimit:10;}
	.st9{fill:#D6ECF7;stroke:#D6ECF7;stroke-width:0.3287;stroke-miterlimit:10;}
	.st10{fill:#88C8E2;stroke:#88C8E2;stroke-width:0.3451;stroke-miterlimit:10;}
	.st11{fill:#009CD9;stroke:#009CD9;stroke-width:0.3334;stroke-miterlimit:10;}
	.st12{fill:#007CB1;stroke:#007CB1;stroke-width:0.3287;stroke-miterlimit:10;}
	.st13{fill:#007CB1;}
</style>
<g>
	<defs>
		<rect id="SVGID_1_" x="52" y="4" width="196" height="79"/>
	</defs>
	<clipPath id="SVGID_00000103977546452192043980000007487002286610879380_">
		<use xlink:href="#SVGID_1_"  style="overflow:visible;"/>
	</clipPath>
	<g style="clip-path:url(#SVGID_00000103977546452192043980000007487002286610879380_);">
		<path class="st1" d="M217.2,82.6h-13.1L216.5,44h13.1L217.2,82.6z"/>
		<path class="st2" d="M229.7,43.6h-13.2L204,4.7h12.7L229.7,43.6z"/>
		<path class="st3" d="M247.7,43.5l-13,0.1L204,4.7l12.8,0L247.7,43.5z"/>
		<path class="st4" d="M217.3,82.6l-12.9-0.1L234.7,44l13,0L217.3,82.6z"/>
		<path class="st5" d="M199.3,82.6h-13.1L198.6,44h13.1L199.3,82.6z"/>
		<path class="st6" d="M211.8,43.6h-13.2L186,4.7h12.7L211.8,43.6z"/>
		<path class="st7" d="M229.7,43.5l-13,0.1L186,4.7l12.8,0L229.7,43.5z"/>
		<path class="st8" d="M199.3,82.6l-12.9-0.1L216.8,44l13,0L199.3,82.6z"/>
		<path class="st9" d="M181.6,82.6h-13.1L180.9,44H194L181.6,82.6z"/>
		<path class="st10" d="M194.1,43.6h-13.2L168.3,4.7H181L194.1,43.6z"/>
		<path class="st11" d="M212,43.5l-13,0.1L168.3,4.7l12.8,0L212,43.5z"/>
		<path class="st12" d="M181.6,82.6l-12.9-0.1L199,44l13,0L181.6,82.6z"/>
		<path class="st13" d="M109,82.6c-2.5,0-4.2-1.7-4.2-4.4c0-2.6,1.7-4.4,4.2-4.4c2.5,0,4.2,1.7,4.2,4.4
			C113.2,80.9,111.5,82.6,109,82.6z M109,81.1c1.5,0,2.4-1.1,2.4-2.9c0-1.8-1-2.9-2.4-2.9c-1.5,0-2.4,1.1-2.4,2.9
			C106.6,80,107.6,81.1,109,81.1z M118.7,77.3c1.9,0,3.1,1,3.1,2.6c0,1.7-1.2,2.7-3.1,2.7H115V74h6.1v1.5h-4.4v1.8H118.7z
			 M118.5,81.1c1,0,1.5-0.4,1.5-1.2c0-0.8-0.5-1.2-1.5-1.2h-1.8v2.4H118.5z M130.5,74v8.5h-1.7v-7h-3.2v2.6c0,3.2-0.4,4.4-2.1,4.4
			c-0.2,0-0.4,0-0.9,0v-1.6h0.5c0.7,0,0.9-0.1,0.9-2.9v-4H130.5z M138.8,82.5l-0.7-1.8h-3.9l-0.7,1.8h-1.8l3.4-8.5h2.1l3.4,8.5
			H138.8z M134.8,79.2h2.7l-1.4-3.7L134.8,79.2z M145.3,82.6c-2.5,0-4.1-1.7-4.1-4.4c0-2.6,1.7-4.4,4.1-4.4c1.8,0,3.2,0.9,3.7,2.5
			l-1.6,0.6c-0.3-1.1-1.1-1.6-2.1-1.6c-1.4,0-2.3,1.1-2.3,2.9c0,1.8,0.9,2.9,2.3,2.9c1,0,1.7-0.5,2.1-1.6l1.6,0.6
			C148.4,81.7,147.1,82.6,145.3,82.6z M157,74v1.6h-2.9v7h-1.7v-7h-2.9V74H157z M158.4,82.5V74h1.7v8.5H158.4z"/>
		<path class="st13" d="M112.1,13.1l-0.7-1.8h-3.9l-0.7,1.8h-1.8l3.4-8.5h2.1l3.4,8.5H112.1z M108.1,9.8h2.7l-1.4-3.7L108.1,9.8z
			 M121.1,4.6v1.6H117v7h-1.7V4.6H121.1z M124.2,11.6h4.5v1.5h-6.2V4.6h6.1v1.5h-4.4V8h3.3v1.5h-3.3V11.6z M135.9,4.6h1.7v8.5h-1.7
			V9.5h-3.8v3.6h-1.7V4.6h1.7V8h3.8V4.6z M147.1,11.6h1v3.4h-1.7v-1.8H140V4.6h1.7v7h3.7v-7h1.7V11.6z M149.7,13.1V4.6h1.7v8.5
			H149.7z M160.3,4.6v8.5h-1.7V10h-1.8l-1.8,3.1H153l2.1-3.4c-1-0.4-1.6-1.3-1.6-2.4c0-1.7,1.2-2.7,3.2-2.7H160.3z M156.8,8.6h1.8
			V6.1h-1.8c-1,0-1.6,0.4-1.6,1.3C155.3,8.2,155.8,8.6,156.8,8.6z"/>
		<path class="st13" d="M56.8,22c2,0,3.2,1,3.2,2.7c0,1.7-1.2,2.7-3.2,2.7h-1.9v3.1h-1.7V22H56.8z M56.6,26c1.1,0,1.6-0.4,1.6-1.3
			c0-0.9-0.6-1.3-1.6-1.3h-1.7V26H56.6z M63.3,29h4.5v1.5h-6.2V22h6.1v1.5h-4.4v1.9h3.3v1.5h-3.3V29z M75.2,22v1.6h-4.1v7h-1.7V22
			H75.2z M76.7,30.5V22h1.7v8.5H76.7z M84.4,30.6c-2.5,0-4.2-1.7-4.2-4.4c0-2.6,1.7-4.4,4.2-4.4c2.5,0,4.2,1.7,4.2,4.4
			C88.6,28.8,86.9,30.6,84.4,30.6z M84.4,29.1c1.5,0,2.4-1.1,2.4-2.9c0-1.8-1-2.9-2.4-2.9c-1.5,0-2.4,1.1-2.4,2.9
			C81.9,28,82.9,29.1,84.4,29.1z M95.9,22h1.7v8.5h-1.7v-3.6H92v3.6h-1.7V22H92v3.4h3.8V22z M105.9,30.5l-0.7-1.8h-3.9l-0.7,1.8
			h-1.8l3.4-8.5h2.1l3.4,8.5H105.9z M102,27.2h2.7l-1.4-3.7L102,27.2z M116.3,22v8.5h-1.7v-7h-3.2v2.6c0,3.2-0.4,4.4-2.1,4.4
			c-0.2,0-0.4,0-0.9,0v-1.6h0.4c0.7,0,0.9-0.1,0.9-2.9v-4H116.3z M122.3,25.1c2,0,3.2,1,3.2,2.7c0,1.7-1.2,2.7-3.2,2.7h-3.6V22h1.7
			v3.1H122.3z M122.2,29c1,0,1.6-0.4,1.6-1.3c0-0.8-0.5-1.3-1.6-1.3h-1.8V29H122.2z M132.7,22h1.7v8.5h-1.7v-3.6h-3.8v3.6h-1.7V22
			h1.7v3.4h3.8V22z M140.4,30.6c-2.5,0-4.2-1.7-4.2-4.4c0-2.6,1.7-4.4,4.2-4.4c2.5,0,4.2,1.7,4.2,4.4
			C144.6,28.8,142.9,30.6,140.4,30.6z M140.4,29.1c1.5,0,2.4-1.1,2.4-2.9c0-1.8-1-2.9-2.4-2.9c-1.5,0-2.4,1.1-2.4,2.9
			C138,28,138.9,29.1,140.4,29.1z M152.2,22v1.6h-4.1v7h-1.7V22H152.2z M156.5,30.6c-2.5,0-4.2-1.7-4.2-4.4c0-2.6,1.7-4.4,4.2-4.4
			c2.5,0,4.2,1.7,4.2,4.4C160.7,28.8,159,30.6,156.5,30.6z M156.5,29.1c1.5,0,2.4-1.1,2.4-2.9c0-1.8-1-2.9-2.4-2.9
			c-1.5,0-2.4,1.1-2.4,2.9C154.1,28,155.1,29.1,156.5,29.1z"/>
		<path class="st13" d="M96.7,39.3c2,0,3.2,1,3.2,2.7c0,1.7-1.2,2.7-3.2,2.7h-1.9v3.1H93v-8.5H96.7z M96.5,43.3
			c1.1,0,1.6-0.4,1.6-1.3c0-0.9-0.6-1.3-1.6-1.3h-1.7v2.5H96.5z M105,47.9c-2.5,0-4.2-1.7-4.2-4.4c0-2.6,1.7-4.4,4.2-4.4
			c2.5,0,4.2,1.7,4.2,4.4C109.2,46.2,107.5,47.9,105,47.9z M105,46.4c1.5,0,2.4-1.1,2.4-2.9c0-1.8-1-2.9-2.4-2.9
			c-1.5,0-2.4,1.1-2.4,2.9C102.6,45.3,103.5,46.4,105,46.4z M115.5,43.5c0.9,0.3,1.4,1,1.4,2c0,1.5-1.4,2.5-3.5,2.5
			c-1.7,0-3.1-0.8-3.6-2.1l1.4-0.7c0.4,0.9,1.2,1.4,2.2,1.4c1.1,0,1.8-0.4,1.8-1.2c0-0.7-0.6-1.1-1.5-1.1h-1.1v-1.4h1.1
			c0.7,0,1.2-0.3,1.2-1c0-0.7-0.5-1.1-1.5-1.1c-1,0-1.7,0.5-2.1,1.4l-1.5-0.6c0.6-1.4,1.9-2.2,3.6-2.2c1.9,0,3.2,1,3.2,2.4
			C116.7,42.5,116.3,43.1,115.5,43.5z M124.2,43.5c0.8,0.4,1.3,1.1,1.3,2c0,1.4-1.1,2.3-2.8,2.3h-4v-8.5h3.9c1.7,0,2.7,0.9,2.7,2.3
			C125.3,42.4,124.9,43.1,124.2,43.5z M122.3,40.7h-2v2.1h2c0.9,0,1.3-0.3,1.3-1C123.6,41,123.2,40.7,122.3,40.7z M122.3,46.4
			c1,0,1.4-0.4,1.4-1.1s-0.5-1.1-1.4-1.1h-2v2.3H122.3z M132.9,39.3h1.7v8.5h-1.7v-5.9l-4,5.9h-1.7v-8.5h1.7v5.9L132.9,39.3z
			 M143.6,39.3v1.6h-2.9v7H139v-7H136v-1.6H143.6z M150.7,47.8l-2.7-3.9l-1.2,1.2v2.7h-1.7v-8.5h1.7v3.8l3.6-3.8h2.2l-3.4,3.4
			l3.6,5.1H150.7z M159.5,39.3h1.8l-2.7,6.6c-0.5,1.2-1.2,2.1-2.5,2.1c-1.2,0-2-0.9-2.1-2l1.4-0.3c0,0.7,0.3,1,0.8,1
			c0.3,0,0.5-0.1,0.7-0.3l-3.9-6.9h1.9l2.7,5.2L159.5,39.3z"/>
		<path class="st13" d="M69.1,56.6h1.7v8.5h-1.7v-3.3h-2.2c-2,0-3.1-0.9-3.1-2.7v-2.6h1.7V59c0,0.9,0.5,1.3,1.5,1.3h2V56.6z
			 M74.9,63.6h4.5v1.5h-6.2v-8.5h6.1v1.5h-4.4v1.9h3.3v1.5h-3.3V63.6z M84.6,56.6c2,0,3.2,1,3.2,2.7c0,1.7-1.2,2.7-3.2,2.7h-1.9v3.1
			H81v-8.5H84.6z M84.4,60.6c1.1,0,1.6-0.4,1.6-1.3c0-0.9-0.6-1.3-1.6-1.3h-1.7v2.5H84.4z M94.9,56.6h1.7v8.5h-1.7v-3.6h-3.8v3.6
			h-1.7v-8.5h1.7V60h3.8V56.6z M99,65.2v-8.5h1.7v8.5H99z M109,56.6v1.6h-4.1v7h-1.7v-8.5H109z M110.4,65.2v-8.5h1.7v8.5H110.4z
			 M120.1,60.8c0.8,0.4,1.3,1.1,1.3,2c0,1.4-1.1,2.3-2.8,2.3h-4v-8.5h3.9c1.7,0,2.7,0.9,2.7,2.3C121.2,59.8,120.8,60.4,120.1,60.8z
			 M118.2,58.1h-2v2.1h2c0.9,0,1.3-0.3,1.3-1C119.5,58.4,119.1,58.1,118.2,58.1z M118.2,63.8c1,0,1.4-0.4,1.4-1.1
			c0-0.8-0.5-1.1-1.4-1.1h-2v2.3H118.2z M126.7,65.3c-2.5,0-4.1-1.7-4.1-4.4c0-2.6,1.7-4.4,4.1-4.4c1.8,0,3.2,0.9,3.7,2.5l-1.6,0.6
			c-0.3-1.1-1.1-1.6-2.1-1.6c-1.4,0-2.3,1.1-2.3,2.9c0,1.8,0.9,2.9,2.3,2.9c1,0,1.7-0.5,2.1-1.6l1.6,0.6
			C129.8,64.3,128.5,65.3,126.7,65.3z M135.5,59.8c2,0,3.2,1,3.2,2.7c0,1.7-1.2,2.7-3.2,2.7h-3.6v-8.5h1.7v3.1H135.5z M135.4,63.7
			c1,0,1.6-0.4,1.6-1.3c0-0.8-0.5-1.3-1.6-1.3h-1.8v2.5H135.4z M146,65.2l-2.7-3.9l-1.2,1.2v2.7h-1.7v-8.5h1.7v3.8l3.6-3.8h2.2
			l-3.4,3.4l3.6,5.1H146z M152.3,65.3c-2.5,0-4.2-1.7-4.2-4.4c0-2.6,1.7-4.4,4.2-4.4c2.5,0,4.2,1.7,4.2,4.4
			C156.5,63.5,154.8,65.3,152.3,65.3z M152.3,63.8c1.5,0,2.4-1.1,2.4-2.9c0-1.8-1-2.9-2.4-2.9c-1.5,0-2.4,1.1-2.4,2.9
			C149.9,62.7,150.9,63.8,152.3,63.8z M157.1,55.7v-1.4h1.7v1.4H157.1z M159.5,55.7v-1.4h1.7v1.4H159.5z M158.3,65.2v-8.5h1.7v8.5
			H158.3z"/>
	</g>
</g>
</svg>
