<?xml version="1.0" encoding="utf-8"?>
<!-- Generator: Adobe Illustrator 25.4.1, SVG Export Plug-In . SVG Version: 6.00 Build 0)  -->
<svg version="1.1" id="Layer_1" xmlns="http://www.w3.org/2000/svg" xmlns:xlink="http://www.w3.org/1999/xlink" x="0px" y="0px"
	 viewBox="0 0 300 87" style="enable-background:new 0 0 300 87;" xml:space="preserve">
<style type="text/css">
	.st0{clip-path:url(#SVGID_00000122711783880619474960000004479680506944096189_);}
	.st1{fill:none;stroke:#010101;stroke-width:0.34;stroke-linecap:round;stroke-linejoin:round;}
	.st2{fill:#010101;}
</style>
<g>
	<g>
		<defs>
			<rect id="SVGID_1_" x="1.3" y="-4.8" width="287.5" height="96.2"/>
		</defs>
		<clipPath id="SVGID_00000027591235304812032380000003199158078222808761_">
			<use xlink:href="#SVGID_1_"  style="overflow:visible;"/>
		</clipPath>
		<g style="clip-path:url(#SVGID_00000027591235304812032380000003199158078222808761_);">
			<path class="st1" d="M64,45.1c-0.6-0.2-1.6,0.6-2.2,0.8c-0.6,0.2-1.2,0.5-1.8,0.9c-1.5,1-2.9,2.3-4.5,3.2
				c-0.7,0.4-1.5,0.6-2.4,0.7c-0.8,0.2-1.6,0.4-2.4,0.5c-0.8,0-1.6-0.5-2.4-0.5c-0.3,0-0.6,0.3-0.8,0.3c-0.2-0.1-0.5-0.8-0.6-0.8
				c-0.4,0.4-0.9,0.7-1.4,0.9c-1.9,0.5-2.2-1.6-2-2.2c0.1-0.3,0,0.1,0.3-0.9c0.1-0.5,0.2-1,0.3-1.6s0.3-1.2,0.6-1.8
				c0.5-1,0.2-2,0.3-3.1s0.1-2.4,0.6-3.3c0.5-0.9,1.7-1,2.3-1.8s0-2.4-0.1-3.2c-0.1-1-0.2-2.1-0.1-3.2c0-0.8,0-2.4-0.9-2.8
				c-1.1-0.5-1.1,1-1.3,1.6c-0.3,1.1-0.7,2.3-1.1,3.4c-0.6,2-1.2,4.2-3.1,5.4c-0.9,0.6-1.5,1.5-2.4,2s-2.2,0.6-3.1,1.2
				c-0.4,0.3-0.7,0.8-0.9,1.3c-0.3,0.4-0.6,0.8-1,1.1c-0.9,0.8-1.5,1.8-1.8,3c-0.1,0.7,0.1,0.9,0.7,1.3c0.5,0.4,0.8,0.8,1.3,1.1
				c0.9,0.7,2.2,0.3,2.5,1.7c0.2,1-0.3,2.5,0.5,3.3c0.4,0.4,1,0.3,1.6,0.3c0.2,0,0.4,0.1,0.6,0.1c0.2,0.1,0.4,0.2,0.6,0.4
				c0.1,0.2,0.2,0.4,0.2,0.7s0,0.6,0,0.9c0,0.8,0,0.7,0.1,0.9c0.3,1.3,0.6,3.1,1.8,3.4c1.4,0.3,1.7-2.1,2.6-2.7
				c0.7-0.3,1.4-0.5,2.1-0.5c0.6,0,1.1,0.4,1.8,0.3c0.7-0.1,1.4-0.4,2.1-0.5c0.7-0.1,1.4-0.1,1.9-0.7c0.3-0.6,0.6-1.2,0.8-1.8
				c0.6-1.2,1.6-1.6,3.2-2.7c0.6-0.4,1.1-0.7,1.7-1c1.4-0.7,2.2-2.1,3.4-3C61.7,47.7,65,45.4,64,45.1L64,45.1z"/>
			<path class="st1" d="M46.9,27.3c-0.9-0.3-1.1,0.6-1.2,1.2c0,0.3,0,0.5-0.1,0.7c0,0.2-0.1,0.4-0.1,0.7c-0.1,0.5-0.3,1-0.5,1.4
				c-0.2,0.5-0.3,1.1-0.5,1.7c-0.1,0.3-0.2,0.6-0.4,0.9c-0.4,0.9-0.9,1.8-1.5,2.6c-0.2,0.3-0.5,0.6-0.8,0.8s-0.7,0.5-1,0.7
				c-0.2,0.1-0.3,0.2-0.5,0.3c-0.4,0.3-0.7,0.7-1.1,1c-0.4,0.3-0.9,0.6-1.4,0.6c-0.9,0.1-2.6,0.2-3.4,1c-0.1,0.1-0.2,0.3-0.3,0.4
				c0,0.3-0.3,0.1-0.3,0.4c0,0.1-0.1,0.3-0.1,0.4c-0.1,0.4-0.3,0.8-0.5,1.2c-0.6,0.9-1.1,1.9-1.3,3c0,0.1,0,0.2,0,0.3
				c0,0.5,0.2,0.7,0.6,1c0.4,0.3,0.7,0.8,1.2,1.2l0.1,0.1c0.9,0.6,2,0.5,2.3,1.7c0,0.1,0,0.2,0,0.4c0,1-0.3,2.1,0.5,2.8
				c0.4,0.4,1,0.3,1.5,0.5l0.6,0.2c0.2,0.1,0.4,0.2,0.5,0.3s0.3,0.3,0.3,0.5c0,0.1,0.1,0.2,0.1,0.2c0,0.3,0.1,0.5,0.2,0.8
				c0,0.3,0.1,0.5,0.3,0.8c0.1,0.2,0.2,0.5,0.3,0.8c0.3,1.1,0.7,2.2,1.5,2.5c0.2,0.1,0.3,0.1,0.5,0.1s0.3-0.1,0.5-0.2
				c0.6-0.4,0.9-1.3,1.6-1.6c0.2-0.1,0.5-0.1,0.7-0.2c0.4-0.1,0.9-0.1,1.4-0.1c0.6,0,1.1,0.3,1.8,0.2c0.6-0.3,1.3-0.6,1.9-0.9
				c0.7-0.2,1.4-0.5,1.9-0.9c0.2-0.1,0.3-0.3,0.4-0.5c0.2-0.4,0.4-0.7,0.7-1.1c0.3-0.4,0.7-0.7,1-1c0.6-0.5,1.3-1,2-1.5l0.4-0.2
				c0.6-0.4,1.2-0.7,1.8-1.1c0.7-0.5,1.4-1.1,2-1.7c0.6-0.6,1.2-1.1,1.8-1.6c0.3-0.2,1.4-1,2.2-1.7c0.6-0.5,1.2-1,0.7-1.2
				c-0.2-0.1,0.1,0-0.1,0c-0.6-0.2-1.6,0.5-2.2,0.7c-0.6,0.2-1.3,0.5-1.8,0.8c-1.5,0.8-3,2-4.6,2.9c-0.7,0.4-1.5,0.6-2.3,0.8
				c-0.1,0-0.3,0.1-0.4,0.1c-0.6,0.2-1.3,0.4-2,0.4c-0.5-0.1-1.1-0.2-1.6-0.4c-0.3-0.1-0.5-0.2-0.8-0.2s-0.6,0.2-0.8,0.2
				c-0.2-0.1-0.5-0.7-0.6-0.7c-0.2,0.1-0.6,0.4-1,0.6c-0.1,0.1-0.3,0.1-0.4,0.2c-0.3,0.1-0.7,0.1-1,0S45,50.3,44.9,50
				c-0.2-0.5-0.3-1-0.2-1.6c0.1-0.3,0,0,0.3-0.9c0.1-0.5,0.2-1,0.3-1.4c0.1-0.6,0.3-1.2,0.6-1.7c0.3-0.8,0.4-1.6,0.3-2.4
				c0-0.2,0-0.4,0-0.6c0-1.1,0.1-2.2,0.4-3.2c0.1-0.1,0.1-0.3,0.2-0.4c0.5-0.6,1.2-0.8,1.7-1.5c0.2-0.4,0.3-1,0.2-1.5
				c-0.1-0.6-0.1-1.2-0.3-1.7c-0.2-0.8-0.3-1.6-0.3-2.5c0-0.2,0-0.4,0-0.5C48,29.1,47.8,27.7,46.9,27.3z"/>
			<path class="st1" d="M46.5,26.1c-0.9-0.3-1,0.9-1.1,1.6c0,0.3,0,0.5,0,0.8s0,0.5-0.1,0.8c-0.1,0.5-0.3,1.1-0.5,1.6
				c-0.2,0.6-0.4,1.3-0.6,1.9c-0.1,0.3-0.3,0.7-0.5,1c-0.5,1-1.2,1.9-1.8,2.8c-0.3,0.3-0.6,0.6-0.9,0.8c-0.4,0.2-0.8,0.3-1.2,0.5
				c-0.2,0.1-0.4,0.2-0.5,0.4c-0.4,0.4-0.6,0.9-1.1,1.2c-0.2,0.2-0.5,0.2-0.7,0.3c-0.3,0-0.5,0-0.8-0.1c-0.9-0.3-2.9-0.2-3.5,0.7
				c-0.1,0.2-0.2,0.3-0.2,0.5c0,0.4-0.3,0-0.2,0.3c0,0.2,0,0.3,0,0.5c0.1,0.4,0.1,0.8,0.1,1.3c-0.1,0.7-0.6,1.9-0.8,3
				c0,0.1,0,0.2,0,0.3c0,0.2,0,0.4,0.1,0.6c0.1,0.2,0.2,0.4,0.3,0.5c0.3,0.4,0.6,0.9,1,1.3l0.1,0.1c0.8,0.7,1.9,0.7,2.1,1.9
				c0,0.1,0,0.3,0,0.4c0,1.1-0.2,2.1,0.6,2.8c0.4,0.3,0.9,0.5,1.4,0.6l0.5,0.2c0.4,0.2,0.6,0.4,0.8,0.8c0,0.1,0.1,0.1,0.1,0.2
				c0.1,0.2,0.2,0.5,0.3,0.7c0.1,0.3,0.2,0.5,0.4,0.7c0.1,0.3,0.2,0.5,0.3,0.8c0.4,1,0.7,2.2,1.4,2.6c0.1,0.1,0.3,0.1,0.4,0.2
				c0.1,0,0.3,0,0.4,0c0.5-0.2,0.9-0.8,1.6-0.8c0.2,0,0.4,0,0.7-0.1c0.4,0,0.9,0,1.3,0c0.6,0,1.1,0.3,1.7,0.1c0.6-0.2,1-1,1.5-1.3
				c0.7-0.3,1.4-0.7,2-1.2c0.2-0.1,0.3-0.3,0.5-0.4c0.3-0.3,0.6-0.6,0.9-0.9c0.3-0.3,0.8-0.6,1.2-1c0.6-0.5,1.1-1.2,1.9-1.7l0.4-0.3
				c0.6-0.4,1.2-0.8,1.8-1.2c0.8-0.6,1.4-1.3,2.1-2c0.7-0.7,1.3-1.2,1.9-1.8c0.4-0.4,1.5-1.2,2.4-1.9c0.5-0.4,1.4-1.1,0.9-1.3
				c-0.1-0.1,0.1,0-0.1-0.1c-0.6-0.2-1.5,0.3-2.2,0.5c-0.6,0.2-1.3,0.5-1.9,0.8c-1.5,0.9-3,1.9-4.5,2.9c-0.7,0.4-1.5,0.7-2.2,0.9
				L54,49.8c-0.6,0.3-1.2,0.5-1.9,0.5c-0.5-0.1-1.1-0.2-1.5-0.5c-0.2-0.1-0.5-0.2-0.7-0.2c-0.3,0-0.6,0.1-0.8,0S48.6,49,48.5,49
				c-0.2,0.1-0.6,0.3-1,0.4c-0.1,0.1-0.3,0.1-0.4,0.1c-0.3,0.1-0.6,0.1-0.9-0.1c-0.3-0.1-0.5-0.4-0.6-0.7c-0.2-0.5-0.3-1.1-0.1-1.6
				c0.1-0.3,0.1-0.6,0.2-0.9c0.1-0.5,0.2-1,0.3-1.5c0.1-0.6,0.3-1.2,0.6-1.7c0.3-0.8,0.4-1.6,0.4-2.4c0-0.2,0-0.4,0-0.6
				c0-1.1,0.1-2.2,0.2-3.3c0-0.1,0.1-0.3,0.2-0.4c0.3-0.7,0.9-1,1.3-1.7c0.2-0.5,0.3-1,0.2-1.5c-0.1-0.6-0.2-1.2-0.3-1.7
				c-0.2-0.9-0.4-1.6-0.5-2.5c0-0.2,0-0.3-0.1-0.5C47.6,27.8,47.3,26.3,46.5,26.1z"/>
			<path class="st1" d="M46.1,24.8c-1-0.3-1.1,1.2-1.1,1.9c0,0.3,0,0.6,0,0.8c0,0.3,0,0.6,0,0.8c-0.1,0.6-0.3,1.2-0.5,1.8
				c-0.2,0.7-0.4,1.4-0.7,2.1c-0.2,0.4-0.4,0.8-0.6,1.1c-0.7,1-1.5,2-2.3,2.9c-0.3,0.3-0.7,0.6-1.1,0.8c-0.5,0.2-1,0.2-1.4,0.4
				c-0.2,0.1-0.4,0.3-0.6,0.4c-0.4,0.5-0.6,1.1-1.2,1.4c-0.9,0.4-1.2,0-1.6-0.4c-0.9-0.8-3.4-0.6-3.9,0.5c-0.1,0.2-0.1,0.4,0,0.6
				c0.2,0.5-0.4-0.2-0.2,0.2c0,0.2,0.1,0.3,0.1,0.5c0.2,0.6,0.5,0.8,0.6,1.4c0.2,0.7-0.2,1.9-0.3,3.1c0,0.1,0,0.2,0,0.3
				c0,0.4,0.1,0.8,0.4,1.1c0.2,0.5,0.5,1,0.9,1.4l0.1,0.1c0.8,0.7,1.8,0.8,2,2c0,0.1,0,0.3,0,0.4c0,1.2-0.2,2,0.7,2.8
				c0.4,0.3,0.9,0.5,1.4,0.7l0.5,0.3c0.3,0.2,0.6,0.4,0.9,0.8l0.1,0.2c0.1,0.2,0.3,0.4,0.4,0.6c0.1,0.2,0.3,0.4,0.5,0.6
				c0.2,0.2,0.3,0.5,0.4,0.7c0.4,1,0.7,2.1,1.4,2.7c0.2,0.2,0.5,0.3,0.8,0.4c0.5,0.1,1-0.2,1.7-0.1c0.2,0,0.4,0,0.7,0
				c0.4,0,1,0.1,1.3,0.1c0.6,0.1,1.2,0.3,1.7,0c0.7-0.4,0.8-1.2,1.4-1.7c0.7-0.5,1.3-0.9,2-1.2c0.2-0.1,0.4-0.3,0.6-0.4
				c0.4-0.3,0.7-0.5,1.1-0.8c0.4-0.3,0.9-0.6,1.4-0.9c0.7-0.6,1.1-1.4,1.9-2l0.4-0.3c0.7-0.4,1.3-0.8,1.9-1.3
				c0.8-0.8,1.5-1.5,2.4-2.3s1.5-1.4,2.2-2c0.6-0.5,1.7-1.4,2.7-2.1c0.5-0.4,1.6-1.1,1.1-1.4c-0.1-0.1,0,0-0.2-0.1
				c-0.7-0.2-1.6,0.2-2.3,0.4s-1.4,0.5-2,0.8c-1.6,0.8-3.2,1.8-4.7,2.7c-0.7,0.4-1.5,0.8-2.2,1.1l-0.4,0.2c-0.6,0.4-1.2,0.6-1.9,0.6
				c-0.5-0.1-1.1-0.2-1.5-0.5c-0.1,0-0.3,0-0.6-0.1s-0.6,0-0.8-0.1s-0.5-0.5-0.7-0.5c-0.4,0-0.7,0.1-1.1,0.3c-0.1,0-0.3,0.1-0.5,0.1
				c-0.3,0.1-0.7,0.1-0.9-0.1c-0.3-0.1-0.5-0.4-0.6-0.7c-0.2-0.5-0.2-1.1-0.1-1.6c0.1-0.3,0-0.3,0.2-0.9c0.1-0.5,0.3-1,0.4-1.4
				c0.2-0.6,0.4-1.2,0.7-1.8c0.3-0.8,0.4-1.6,0.4-2.5V39c0.1-1.1-0.1-2.3,0.1-3.3c0-0.1,0.1-0.3,0.1-0.4c0.3-0.7,0.6-1.3,0.9-1.9
				c0.2-0.5,0.2-1,0.2-1.5c0-0.6-0.1-1.1-0.3-1.7c-0.2-0.8-0.5-1.6-0.7-2.4c0-0.2-0.1-0.3-0.1-0.5C47.4,26.4,46.9,25.1,46.1,24.8z"
				/>
			<path class="st1" d="M45.8,24.8c-1-0.2-1,1.4-1.1,2.1c0,0.3,0,0.6,0.1,0.9c0,0.3,0,0.6,0,0.9c-0.1,0.7-0.3,1.3-0.5,1.9
				c-0.3,0.8-0.4,1.6-0.7,2.2c-0.2,0.4-0.4,0.8-0.7,1.1c-0.8,1-1.7,2-2.7,3c-0.4,0.3-0.8,0.6-1.3,0.8c-0.5,0.1-1.1,0.1-1.6,0.3
				c-0.2,0.1-0.4,0.3-0.6,0.5c-0.4,0.5-0.6,1.2-1.2,1.5c-1,0.4-1.3-0.4-1.7-0.9c-0.9-1.3-3.7-1-4,0.3c-0.1,0.2,0,0.5,0.1,0.7
				c0.3,0.6-0.4-0.4-0.1,0.2c0.1,0.2,0.2,0.4,0.3,0.5c0.3,0.6,0.8,0.8,1.1,1.4c0.4,0.7,0.3,1.9,0.3,3.1c0,0.1,0,0.2,0,0.3
				c0,0.4,0.1,0.8,0.3,1.2c0.2,0.5,0.4,1,0.7,1.5l0.1,0.1c0.7,0.8,1.7,1,1.8,2.2c0,0.1,0,0.3,0,0.4c-0.1,1.2-0.2,1.9,0.8,2.7
				c0.4,0.3,0.9,0.6,1.3,0.9c0.2,0.1,0.3,0.3,0.5,0.4c0.3,0.2,0.6,0.5,0.9,0.7l0.2,0.2c0.2,0.2,0.4,0.3,0.6,0.5
				c0.2,0.2,0.4,0.4,0.6,0.5c0.2,0.2,0.4,0.4,0.5,0.7c0.3,1,0.8,1.9,1.3,2.7c0.2,0.2,0.4,0.4,0.7,0.6c0.5,0.3,1.1,0.5,1.7,0.6
				c0.2,0.1,0.4,0.1,0.7,0.2c0.4,0.1,0.9,0.2,1.3,0.2c0.3,0.1,0.6,0.1,0.8,0.1c0.3,0,0.6-0.1,0.8-0.2c0.7-0.5,0.6-1.5,1.1-2.1
				c0.6-0.6,1.3-1,2.1-1.4l0.6-0.3c0.4-0.2,0.9-0.4,1.3-0.6c0.5-0.2,1-0.5,1.5-0.8c0.8-0.6,1-1.5,1.8-2.2c0.1-0.1,0.3-0.2,0.4-0.3
				c0.7-0.4,1.3-0.8,1.9-1.4c0.8-0.9,1.6-1.7,2.4-2.5c0.8-0.7,1.5-1.4,2.4-2.1c0.8-0.7,1.8-1.6,2.9-2.3c0.5-0.4,1.8-1.1,1.3-1.4
				c-0.1-0.1-0.1-0.1-0.2-0.1c-0.8-0.1-1.5-0.1-2.2,0.2c-0.7,0.2-1.4,0.4-2,0.7c-1.6,0.8-3.2,1.6-4.7,2.6c-0.7,0.4-1.4,0.8-2.1,1.2
				l-0.3,0.2c-0.5,0.4-1.2,0.6-1.8,0.7c-0.5-0.1-1-0.3-1.5-0.5c-0.2-0.1-0.5-0.2-0.7-0.3C51,49,50.8,49,50.5,48.9
				c-0.2-0.1-0.5-0.4-0.8-0.5c-0.4,0-0.7,0-1.1,0.1c-0.2,0-0.3,0-0.4,0.1c-0.8,0-1.3-0.2-1.5-0.9c-0.1-0.5-0.2-1-0.1-1.6
				c0.1-0.3,0.1-0.6,0.2-0.9c0.1-0.5,0.3-0.9,0.4-1.4c0.2-0.6,0.4-1.1,0.7-1.7c0.3-0.8,0.4-1.5,0.5-2.4v-0.6c0-1.1-0.1-2.2-0.1-3.2
				c0-0.1,0-0.3,0-0.4c0.1-0.7,0.3-1.4,0.6-2c0.1-0.5,0.2-1,0.2-1.5c0-0.6-0.1-1.2-0.3-1.7c-0.3-0.8-0.6-1.6-0.9-2.4
				c-0.1-0.1-0.1-0.3-0.2-0.5C47.1,26.3,46.6,25,45.8,24.8z"/>
			<path class="st1" d="M45.8,23.6c-1.1-0.2-1.1,1.7-1,2.4c0,0.3,0,0.7,0.1,1s0.1,0.7,0.1,1c-0.1,0.7-0.3,1.5-0.6,2.1
				c-0.2,0.8-0.5,1.7-0.8,2.5c-0.2,0.4-0.4,0.8-0.8,1.2c-1,1.1-2,2.1-3.1,3.1c-0.4,0.4-0.9,0.7-1.5,0.8s-1.2-0.1-1.8,0.1
				c-0.3,0.1-0.5,0.3-0.6,0.5c-0.4,0.6-0.6,1.4-1.3,1.7c-1.1,0.4-1.5-0.7-1.8-1.4c-0.8-1.8-4.2-1.5-4.3,0.1c0,0.3,0,0.6,0.2,0.8
				c0.4,0.7-0.5-0.6-0.1,0.1c0.1,0.2,0.2,0.4,0.4,0.6c0.5,0.6,1.1,0.9,1.7,1.5c0.7,0.8,0.8,2,0.8,3.2v0.3c0,0.4,0.1,0.8,0.2,1.2
				c0.1,0.6,0.3,1.1,0.6,1.6l0.1,0.1c0.7,0.9,1.6,1.2,1.7,2.3c0,0.1,0,0.3,0,0.4c-0.1,1.3-0.2,1.9,0.9,2.6c0.4,0.3,0.8,0.6,1.2,1
				c0.1,0.1,0.3,0.3,0.5,0.4c0.3,0.3,0.6,0.5,0.9,0.7l0.2,0.1c0.2,0.1,0.5,0.2,0.7,0.4c0.2,0.1,0.5,0.3,0.7,0.4
				c0.2,0.2,0.4,0.4,0.6,0.7c0.5,0.9,0.8,2,1.2,2.8c0.2,0.3,0.4,0.6,0.6,0.9c0.5,0.5,1.1,0.9,1.7,1.2c0.2,0.1,0.4,0.2,0.7,0.3
				c0.4,0.1,0.9,0.3,1.3,0.4c0.3,0.1,0.6,0.1,0.9,0.1c0.3,0,0.6-0.1,0.8-0.3c0.6-0.6,0.4-1.8,0.9-2.5s1.3-1.2,2.1-1.5
				c0.2-0.1,0.5-0.2,0.7-0.3c0.5-0.2,1-0.3,1.6-0.5s1.2-0.4,1.7-0.7c0.8-0.6,1-1.7,1.8-2.4c0.1-0.1,0.3-0.2,0.5-0.3
				c0.7-0.4,1.4-0.9,2-1.5c0.8-1,1.7-1.9,2.6-2.8c0.9-0.8,1.7-1.6,2.6-2.3c1-0.9,2-1.7,3.1-2.5c0.5-0.3,2.1-1.1,1.6-1.5
				c-0.1-0.1-0.2-0.1-0.3-0.2c-0.8-0.2-1.5-0.2-2.3,0.1c-0.7,0.2-1.4,0.4-2.1,0.7c-1.7,0.7-3.3,1.5-4.8,2.5
				c-0.7,0.4-1.4,0.9-2.1,1.3l-0.3,0.2c-0.5,0.5-1.1,0.7-1.8,0.7c-0.5-0.1-1-0.3-1.5-0.6c-0.2-0.1-0.5-0.3-0.7-0.4
				c-0.2-0.1-0.5-0.2-0.8-0.3c-0.2-0.2-0.5-0.3-0.8-0.4c-0.4-0.1-0.7-0.1-1.1,0H49c-0.7,0-1.2-0.2-1.4-1c-0.1-0.5-0.1-1.1,0-1.6
				c0.1-0.3,0.1-0.5,0.2-0.9c0.1-0.4,0.3-0.9,0.4-1.4c0.2-0.6,0.4-1.2,0.7-1.7c0.3-0.8,0.5-1.6,0.5-2.4c0-0.2,0-0.4,0-0.6
				c0-1.1-0.1-2.2-0.2-3.3c0-0.2,0-0.3,0-0.5c0-0.8,0-1.5,0.2-2.2c0.1-0.5,0.1-1,0.2-1.5c0-0.6,0-1.2-0.2-1.7
				c-0.3-0.8-0.7-1.6-1.1-2.3c-0.1-0.1-0.1-0.3-0.2-0.5C47.3,24.9,46.6,23.7,45.8,23.6z"/>
			<path class="st1" d="M26.3,39.8c0.8,1.2,1.8,1.4,2.8,2.2s1.3,2.1,1.4,3.4c0,1,0,2.1,0.6,3c0.7,1,1.8,1.4,1.6,2.8
				c-0.2,1.4-0.2,1.7,1,2.5c1,0.6,1.5,1.8,2.6,2.3c0.9,0.4,2,0.3,2.6,1.3c0.8,1.2,1,2.7,1.7,3.9c0.6,1,1.5,1.8,2.6,2.3
				c0.8,0.4,2.3,1,3,0.2s0.2-2,0.6-2.9c0.6-1.1,1.9-1.6,3.1-1.9c1.2-0.3,2.7-0.3,3.7-1s1-1.9,1.8-2.6c0.9-0.7,1.9-0.9,2.6-1.9
				c0.8-1.1,1.8-2.1,2.9-2.9c2.1-1.7,4.1-3.7,6.3-5.1c0.5-0.3,2.9-1.3,1.5-1.8s-3.2,0.1-4.6,0.5c-2.7,0.9-5.2,2.2-7.4,3.9
				c-1.3,1-1.9,1-3.3,0.2c-1.1-0.7-2.3-1.2-3.6-1.3c-0.9,0-1.7,0-1.9-1.1c-0.1-1.3,0.1-2.6,0.7-3.8c0.6-1.3,1.1-2.7,1.3-4.1
				c0-1.5-0.1-2.9-0.5-4.3c-0.2-1.3-0.2-2.6,0-3.9c0.2-1.5-0.8-2.7-1.6-3.9c-0.5-0.7-1.5-2.3-2.5-2.4c-1.2-0.1-1.1,1.9-1.1,2.7
				c0,0.7,0.3,1.4,0.3,2.2c-0.1,0.8-0.3,1.5-0.6,2.3c-0.5,1.5-0.6,2.8-1.8,3.8c-1.2,1.1-2.3,2.3-3.6,3.2c-0.5,0.4-1.1,0.7-1.7,0.8
				c-0.7,0.1-1.4-0.2-2.1,0c-1.1,0.4-0.9,2-2.1,2.4c-1.3,0.4-1.6-1-1.9-1.9C29.7,36.5,24.6,37.4,26.3,39.8
				C26.8,40.6,25.8,39.1,26.3,39.8z"/>
			<path class="st1" d="M26.7,40.6c0.8,1.1,1.8,1.5,2.6,2.4c0.9,0.9,1,2.2,1,3.5c0,0.9-0.2,2.2,0.3,3c0.6,0.8,1.5,1.1,1.5,2.3
				s0.1,1.4,1.2,2c1.1,0.7,1.6,1.7,2.7,2.3c1,0.6,1.9,0.6,2.6,1.6c0.8,1.1,1.1,2.6,1.9,3.8c0.6,1,1.5,1.8,2.7,2.3
				c0.8,0.3,2.3,0.9,3,0.1c0.7-0.8,0.4-2.1,0.7-3c0.4-1.4,2.1-1.7,3.3-2.1c1-0.4,2.3-0.6,3.2-1.3s0.9-1.7,1.7-2.4s1.6-1,2.3-1.9
				c0.8-1.1,1.7-2.2,2.8-3c1.9-1.6,3.7-3.3,5.7-4.7c0.6-0.4,2.8-1.4,1.8-1.9s-2.2-0.2-3.3,0c-2.5,0.6-4.9,1.7-7,3.2
				c-1.2,0.9-2,0.9-3.4,0.3c-1.1-0.6-2.4-1-3.6-1c-1,0-1.8,0.2-2.1-0.7c-0.3-1.1-0.3-2.2,0.1-3.3c0.4-1.3,1-2.5,1.1-3.9
				c0.1-1.5-0.1-2.9-0.4-4.3c-0.2-1.3-0.3-2.6-0.1-3.9c0.2-1.4-0.5-2.7-1.2-3.9c-0.5-0.8-1.5-2.2-2.3-2.5c-1.1-0.3-1.1,1.2-1.3,1.7
				c-0.1,0.7-0.2,1.3-0.2,2c-0.1,0.9-0.3,1.8-0.5,2.6c-0.3,1.5-0.4,2.8-1.6,3.9c-1.2,1.1-2.3,2-3.4,2.9c-0.5,0.5-1.1,0.9-1.7,1.1
				c-0.8,0.1-1.7-0.3-2.6,0c-1.1,0.3-1,1.7-2.1,2c-1.1,0.3-1.5-0.8-1.9-1.6c-1-2-5.2-1.1-3.9,1.1C26.6,40.4,26,39.6,26.7,40.6z"/>
			<path class="st1" d="M27.3,42c0.8,1.1,1.8,1.6,2.5,2.6c0.8,1,0.8,2.3,0.6,3.7c-0.1,0.8-0.5,2.2,0.1,3s1.3,0.9,1.4,1.8
				c0.1,0.9,0.3,1,1.4,1.6c1,0.5,1.8,1.7,2.8,2.4s2,0.9,2.7,1.9c0.9,1.2,1.3,2.6,2.2,3.8c0.7,1.1,1.7,1.8,2.8,2.2
				c0.9,0.3,2.3,0.8,3.1,0.1c0.8-0.7,0.5-2.2,0.7-3.2c0.3-1.7,2.3-1.7,3.5-2.4c1-0.4,1.9-1,2.8-1.6c0.7-0.6,0.9-1.6,1.5-2.2
				c0.8-0.6,1.4-1.2,2-2c0.8-1.2,1.7-2.2,2.8-3c1.8-1.5,3.4-3.1,5.3-4.5c0.8-0.5,2.7-1.5,2.2-2.1c-0.6-0.6-1.3-0.4-2.2-0.5
				c-1.6-0.2-5.1,1.5-6.8,2.6c-0.5,0.4-1.1,0.6-1.7,0.7c-0.6,0.1-1.3,0-1.8-0.3c-1.2-0.5-2.5-0.8-3.8-0.7c-1,0.1-1.9,0.5-2.4-0.3
				c-0.5-0.9-0.7-1.9-0.4-2.9c0.2-1.3,0.9-2.6,1-4c0.1-1.5,0-3-0.2-4.5c-0.3-1.3-0.3-2.7-0.2-4.1s-0.2-2.8-0.9-4
				c-0.5-1-1.3-1.9-2.3-2.6c-1-0.5-1.2,0.4-1.6,0.7c-0.4,0.3-0.5,0.9-0.8,1.9c-0.2,1-0.3,2.1-0.3,3.1c-0.1,1.5-0.3,2.9-1.5,4
				c-1.1,1-2.3,1.7-3.3,2.8c-0.6,0.6-0.9,1.2-1.8,1.3c-0.9,0.1-2.1-0.3-3.1-0.1s-1.2,1.4-2.2,1.6c-1,0.2-1.5-0.7-1.9-1.3
				C28.4,36,25,37,26,39.1C26.6,40.9,26.4,40.7,27.3,42z"/>
			<path class="st1" d="M27.8,43c0.8,1.1,1.8,1.7,2.4,2.8c0.8,1.2,0.5,2.4,0.3,3.8c-0.1,0.7-0.7,2.3-0.2,2.9
				c0.5,0.7,1.2,0.7,1.3,1.3c0.3,0.5,0.6,0.6,1.5,1.1c1.1,0.5,2,1.6,3,2.4c1.1,0.6,2,1.3,2.8,2.2c0.9,1.1,1.5,2.5,2.4,3.6
				c0.7,1,1.8,1.8,3,2c0.9,0.2,2.4,0.7,3.2,0.1c0.8-0.7,0.7-2.2,0.7-3.2c0.1-2,2.5-1.7,3.8-2.6c0.8-0.6,1.6-1.2,2.3-2
				c0.6-0.6,0.9-1.4,1.5-2c0.7-0.6,1.3-1.2,1.8-1.9c0.8-1.1,1.7-2.2,2.8-3c1.6-1.3,3.1-2.8,4.8-4c0.9-0.6,2.6-1.6,2.6-2.2
				c-0.2-0.5-0.6-0.8-1-1c-1.2-0.7-5.1,1.1-6.6,1.9c-1.1,0.6-2.4,0.8-3.7,0.5c-1.3-0.4-2.6-0.5-3.9-0.4c-1,0.2-2,0.7-2.6,0.1
				c-0.3-0.3-0.6-0.6-0.8-1.1C49,43.9,49,43.4,49,43c0.1-1.2,0.8-2.6,0.9-3.8c0.2-1.5,0.1-3-0.1-4.5c-0.3-1.3-0.4-2.7-0.3-4.1
				c0.2-1.4,0-2.7-0.6-4c-0.6-1-1.3-1.9-2.2-2.6s-1.3-0.4-1.9-0.3c-0.7,0.1-0.9,0.7-1.2,1.7c-0.2,1.1-0.3,2.3-0.2,3.4
				c0,1.5-0.1,2.9-1.3,4c-1,0.9-2.3,1.5-3.2,2.5c-0.6,0.7-0.8,1.5-1.9,1.6c-1.1,0.1-2.4-0.4-3.6-0.2c-1,0.2-1.3,1-2.3,1.2
				c-1,0.1-1.5-0.5-1.9-0.9c-1.2-1-3.9,0.1-3.1,2C26.2,40.5,26.8,41.9,27.8,43z"/>
			<path class="st1" d="M27.1,44.2c0.8,1.1,1.8,1.9,2.4,3.1c0.7,1.4,0.3,2.6,0,4c-0.2,0.7-1,2.4-0.4,3c0.4,0.5,1.1,0.4,1.2,0.8
				c0.4,0.3,0.9,0.3,1.8,0.6c1.2,0.5,2.3,1.6,3.4,2.4c1.1,0.7,2.2,1.6,3.1,2.6c1,1.2,1.8,2.4,2.8,3.6c0.4,0.5,0.9,1,1.5,1.3
				s1.2,0.6,1.9,0.6c1,0.1,2.6,0.6,3.5,0c1.1-0.7,0.8-2.3,0.8-3.5C49,60.3,52,61,53.4,59.8c0.8-0.7,1.2-1.5,2-2.4
				c0.5-0.6,0.9-1.3,1.4-1.8c0.6-0.6,1.1-1.3,1.6-2c0.8-1.2,1.8-2.2,3-3.1c1.5-1.2,3-2.6,4.6-3.8c1-0.8,2.7-1.7,3.1-2.4
				c0-0.5,0.5-1,0.1-1.6c-0.8-1.3-5.3,0.7-6.7,1.3c-1.3,0.5-2.7,0.7-4,0.6c-1.4-0.1-2.8-0.5-4.3-0.1c-1.1,0.2-2.1,0.9-3,0.6
				c-0.4-0.1-0.8-0.4-1.1-0.8c-0.3-0.3-0.5-0.8-0.5-1.2c-0.1-1.1,0.7-2.7,0.9-3.9c0.2-1.5,0.2-3.1,0-4.6c-0.3-1.4-0.5-2.9-0.5-4.3
				s0.3-2.9-0.3-4.1c-0.6-1-1.4-1.9-2.2-2.7c-0.3-0.4-0.6-0.7-1-0.9c-0.4-0.2-0.8-0.4-1.3-0.4c-0.9-0.1-1.4,0.4-1.8,1.6
				c-0.3,1.3-0.4,2.6-0.1,4c0.1,1.5,0,3.1-1.2,4.2c-1,1-2.3,1.3-3.2,2.3c-0.7,0.8-0.8,1.8-2.1,1.8c-1.4,0.1-2.9-0.4-4.3-0.2
				c-1,0.1-1.5,0.7-2.4,0.8c-0.7,0-1.4-0.2-2.1-0.6c-1.2-0.5-3.4,0.7-2.8,2.4C25,40.7,25.8,42.7,27.1,44.2z"/>
			<path class="st1" d="M27.7,45.5c0.8,1.1,1.8,1.9,2.3,3.1c0.6,1.4,0.1,2.6-0.4,4c-0.2,0.6-1.2,2.4-0.7,2.9c0.3,0.4,1,0.1,1.1,0.3
				c0.7-0.1,1.4,0,2,0.1c1.3,0.4,2.5,1.6,3.5,2.4c1.1,0.9,2.2,1.8,3.2,2.9c1,1.1,2,2.4,3,3.4c0.4,0.5,1,1,1.6,1.3s1.3,0.5,2,0.5
				c1,0.1,2.6,0.5,3.5,0c1.2-0.7,1-2.4,0.8-3.5c-0.4-2.7,3.2-1.6,4.5-3c0.7-0.8,0.9-1.8,1.6-2.6c0.4-0.5,0.9-1.1,1.3-1.6
				c0.5-0.6,1-1.2,1.4-1.9c0.8-1.2,1.8-2.2,3-3c1.4-1.1,2.7-2.2,4.1-3.3c1.1-0.9,2.7-1.7,3.5-2.5c0.5-0.5,1.4-1.3,1.3-2.1
				C70,41,65,43.1,63.8,43.5c-1.4,0.4-2.8,0.6-4.2,0.6c-1.5,0-2.9-0.2-4.4,0.1c-1.2,0.3-2.2,1.1-3.3,1c-0.8-0.1-2-0.4-2.2-1.4
				s0.6-2.6,0.8-3.7c0.2-1.5,0.3-3,0.1-4.5c-0.3-1.4-0.5-2.8-0.6-4.3c0-1.4,0.6-2.8,0.1-4c-0.4-1-1.6-1.8-2.2-2.7
				c-0.8-1.1-1.4-1.9-2.7-2.2c-1.1-0.3-1.8,0.2-2.3,1.4c-0.5,1.5-0.2,2.8,0,4.2c0.2,1.5,0.1,3-1.1,4.2c-1,0.9-2.3,1-3.2,2
				c-0.7,0.9-0.7,2-2.1,2c-1.6,0.1-3.2-0.4-4.8-0.3c-0.9,0.1-1.6,0.4-2.5,0.4S27.8,36,27.1,36c-1.3,0-2.8,1.3-2.5,2.8
				C25,41.3,26,43.7,27.7,45.5z"/>
			<path class="st1" d="M24.7,38.2c0.2,3,1.6,5.7,3.5,8c0.8,1,1.8,2.1,2.2,3.4c0.4,1.6,0,2.7-0.7,4.1c-0.2,0.5-1.5,2.4-0.9,2.9
				c0.3,0.2,0.8-0.1,1-0.2c0.7-0.4,1.5-0.5,2.2-0.3c1.3,0.3,2.7,1.5,3.7,2.4c1.2,1,2.3,2.1,3.3,3.2c1.1,1.1,2.1,2.2,3.3,3.3
				c0.4,0.5,1,1,1.7,1.3c0.6,0.3,1.3,0.4,2,0.4c1.1,0,2.6,0.5,3.6,0c1.3-0.7,1.1-2.4,0.8-3.6c-0.6-2.9,3.5-1.6,4.8-3.3
				c0.7-0.8,0.5-2.1,1.1-3c0.3-0.5,0.8-0.9,1.2-1.4c0.4-0.6,0.8-1.2,1.1-1.9c0.8-1.2,1.8-2.2,3-3c1.2-0.9,2.5-1.9,3.7-2.9
				c1.2-1,2.5-1.8,3.8-2.7c0.8-0.5,2.4-1.6,2.5-2.6c0.2-2.5-5.3-0.3-6.3-0.1c-1.5,0.2-2.9,0.5-4.3,0.7c-1.5,0.2-3,0-4.6,0.4
				c-1.2,0.4-2.3,1.2-3.5,1.4c-0.9,0.1-2.4,0-2.7-1c-0.4-1,0.5-2.6,0.6-3.6c0.3-1.5,0.4-3,0.3-4.6c-0.3-1.4-0.5-2.8-0.6-4.3
				c0-1.3,0.9-2.8,0.4-4.1c-0.4-1-1.6-1.7-2.1-2.7c-0.7-1.3-1.5-2.6-3-3.2C45.5,21.1,45.3,21,45,21s-0.6,0-0.9,0.2
				c-0.3,0.1-0.5,0.3-0.7,0.5s-0.3,0.5-0.4,0.8c-0.6,1.6-0.2,3,0.1,4.6s0.3,3.1-0.9,4.2c-0.9,0.8-2.3,0.7-3,1.8
				c-0.7,1-0.6,2.2-2.2,2.3c-1.8,0.1-3.6-0.3-5.4-0.3c-0.9,0-1.7,0-2.6-0.1c-0.7-0.1-1.4-0.1-2.1,0c-0.6,0.3-1.2,0.7-1.6,1.3
				C24.8,36.9,24.7,37.5,24.7,38.2z"/>
			<path class="st1" d="M27.1,34.5c-0.7,0.3-1.2,0.7-1.6,1.3s-0.7,1.3-0.7,2c-0.1,1.7,0.2,3.5,0.9,5.1c0.5,1.2,1.2,2.4,2.1,3.4
				c0.4,0.5,0.8,1.1,1.2,1.6c0.4,0.6,0.8,1.2,1,1.9c0,0.1,0.1,0.2,0.1,0.3c0.3,1.3-0.2,2.3-0.7,3.4c-0.1,0.2-0.2,0.4-0.2,0.6
				c-0.2,0.6-1.2,2.5-0.7,3.1c0.2,0.3,0.7,0,1,0c0.7-0.2,1.5-0.3,2.3-0.2c1.2,0.3,2.3,0.9,3.2,1.7l0.7,0.6c0.9,0.8,1.7,1.6,2.4,2.4
				l0.9,1l0.4,0.5c0.4,0.5,0.8,1,1.1,1.6c0.4,0.6,1,1.1,1.6,1.5l0.1,0.1c1.1,0.9,2.4,1.4,3.9,1.5c1.1,0,2.6,0.4,3.6-0.1
				c0.2-0.1,0.3-0.2,0.5-0.3c0.8-0.8,0.7-2.2,0.5-3.3c0-0.3,0-0.5,0-0.8c0.1-1.2,1.3-1.4,2.5-1.7c0.4-0.1,0.8-0.2,1.1-0.4
				s0.6-0.5,0.9-0.8c0.2-0.4,0.4-0.8,0.4-1.3c0.1-0.6,0.3-1.2,0.7-1.8c0.4-0.5,0.8-0.9,1.2-1.5s0.7-1.3,1-1.9c0.4-0.7,1-1.4,1.6-1.9
				c0.5-0.4,1-0.8,1.4-1.1c0.7-0.5,1.5-1.1,2.2-1.6l1.6-1.2c0.9-0.7,1.9-1.3,2.8-2l1-0.7c0.8-0.6,2.3-1.7,2.5-2.8
				c0.2-1.4-1.3-1.6-2.8-1.4c-0.9,0.1-1.7,0.2-2.6,0.4l-0.5,0.1c-0.8,0.2-1.4,0.4-2.2,0.6c-0.5,0.1-1.1,0.2-1.6,0.3
				c-0.3,0-0.6,0.1-1,0.1c-1.2,0-2.4,0.2-3.6,0.5c-0.4,0.1-0.8,0.3-1.1,0.4c-0.6,0.3-1.2,0.4-1.9,0.6c-0.2,0-0.4,0.1-0.5,0.1
				c-0.5,0-1-0.1-1.6-0.2c-0.4,0-0.9-0.2-1.2-0.6c-0.2-0.4-0.2-0.8-0.1-1.2c0.1-0.5,0.1-1.1,0.1-1.6s0-1,0-1.5
				c0.1-1.1,0.2-2.1,0.1-3.2c0-0.4-0.1-0.8-0.2-1.2c-0.2-1.1-0.6-2.1-0.7-3.1c0-0.4,0-0.8,0.1-1.2c0.2-1,0.5-2,0.3-2.9
				c-0.1-0.3-0.2-0.6-0.4-0.9c-0.4-0.7-0.9-1.3-1.5-1.9L48.5,24c-0.6-1-1.5-1.9-2.5-2.6c-0.2-0.2-0.5-0.3-0.7-0.3
				c-0.3-0.1-0.5-0.1-0.8,0s-0.5,0.2-0.7,0.3c-0.2,0.2-0.4,0.4-0.5,0.6c-0.2,0.2-0.3,0.5-0.4,0.7c-0.3,0.8-0.4,1.7-0.3,2.6
				c0,0.1,0,0.3,0,0.5c0.1,0.5,0.1,1.1,0.1,1.6c0,0.7-0.2,1.3-0.6,1.9c-0.2,0.3-0.4,0.6-0.7,0.9c-0.2,0.2-0.4,0.4-0.5,0.5
				c-0.5,0.5-1.1,0.6-1.5,1.3c-0.1,0.1-0.1,0.2-0.2,0.3c-0.6,1.1-0.6,2.3-2.1,2.5h-0.2c-1.6,0.1-3.2,0-4.8-0.2h-0.4l-2.2-0.1h-0.4
				C28.4,34.3,27.7,34.3,27.1,34.5z"/>
			<path class="st1" d="M27.4,33.7c-0.7,0.3-1.3,0.7-1.7,1.3c-0.5,0.6-0.8,1.2-0.9,2c-0.2,1.7-0.1,3.5,0.4,5.2
				c0.5,1.3,1.2,2.5,2.1,3.5c0.4,0.6,0.8,1.1,1.2,1.7c0.4,0.6,0.8,1.3,1.1,2c0,0.1,0.1,0.2,0.1,0.3c0.4,1.4-0.3,2.3-0.8,3.5
				c-0.1,0.2-0.1,0.4-0.2,0.6c-0.2,0.7-0.9,2.5-0.4,3.2c0.2,0.3,0.7,0.2,1,0.2c0.8-0.1,1.6-0.1,2.4,0c1.3,0.2,2.4,0.8,3.4,1.6
				c0.2,0.2,0.5,0.4,0.7,0.6c0.8,0.8,1.6,1.7,2.4,2.5c0.3,0.4,0.6,0.7,0.9,1.1c0.1,0.2,0.3,0.3,0.4,0.5c0.4,0.5,0.7,1.1,0.9,1.7
				c0.4,0.7,1,1.2,1.7,1.5h0.1c1.2,0.8,2.6,1.2,4.1,1.3c1.1,0,2.6,0.3,3.7-0.2c0.2-0.1,0.3-0.2,0.5-0.3c0.9-0.8,0.8-2.2,0.7-3.3
				c0-0.3,0-0.5,0-0.8c0.2-1.2,1.2-1.5,2.4-1.8c0.4-0.1,0.8-0.2,1.1-0.5c0.3-0.2,0.6-0.6,0.7-0.9c0.2-0.4,0.3-0.9,0.4-1.3
				c0.1-0.6,0.4-1.2,0.7-1.7c0.4-0.5,0.8-1,1.2-1.5c0.3-0.6,0.5-1.3,0.9-2s0.9-1.4,1.6-1.9c0.5-0.4,1-0.8,1.5-1.1
				c0.8-0.5,1.5-1,2.2-1.6l1.6-1.2c0.9-0.7,1.9-1.3,2.8-2c0.3-0.2,0.7-0.5,1-0.7c0.8-0.6,2.2-1.8,2.4-2.8c0.4-1.4-0.7-1.8-2-2
				c-0.8-0.1-1.7,0-2.5,0.1l-0.4,0.1c-0.7,0.2-1.4,0.5-2.1,0.7c-0.5,0.1-1.1,0.2-1.6,0.3c-0.3,0-0.6,0.1-0.9,0.1
				c-1.2,0.1-2.4,0.3-3.5,0.6c-0.4,0.1-0.8,0.2-1.1,0.4C57,42.9,56.4,43,55.7,43c-0.2,0-0.4,0-0.6,0c-0.5-0.1-1-0.2-1.5-0.2
				c-0.4,0-0.8-0.1-1.2-0.2c-0.2-0.1-0.2-0.3-0.3-0.6s-0.2-0.9-0.3-1.3c-0.1-0.5-0.2-0.9-0.2-1.4c0-1.1,0.2-2.1,0.2-3.1
				c0-0.4,0-0.8-0.1-1.2c-0.1-1-0.6-2-0.8-3c-0.1-0.4-0.1-0.8,0-1.2c0.2-0.9,0.4-1.9,0.4-2.9c0-0.3-0.1-0.6-0.2-0.9
				c-0.3-0.7-0.8-1.3-1.4-1.8l-0.6-0.6c-0.8-0.9-1.4-2-2.4-2.6c-0.4-0.3-0.9-0.5-1.4-0.5s-1,0.2-1.4,0.5c-0.2,0.1-0.3,0.3-0.5,0.4
				c-0.5,0.5-0.9,1.2-0.9,1.9c0,0.2,0,0.3,0,0.5c0,0.5,0.1,1.1,0,1.6c0,0.7-0.3,1.3-0.6,1.9c-0.2,0.3-0.5,0.6-0.7,0.9
				c-0.1,0.2-0.3,0.4-0.4,0.6c-0.3,0.5-0.6,0.9-0.9,1.4l-0.1,0.4c-0.4,1.1-0.6,2.3-2,2.6h-0.2c-1.6,0.3-3.3,0.3-4.9,0h-0.4
				c-0.8-0.1-1.4-0.2-2.2-0.2h-0.4C28.8,33.4,28.1,33.5,27.4,33.7z"/>
			<path class="st1" d="M27.9,33.3c-0.7,0.3-1.3,0.7-1.8,1.3s-0.9,1.2-1.1,2c-0.4,1.8-0.5,3.6-0.1,5.4c0.3,1.5,1.3,2.5,2.2,3.7
				c0.4,0.6,0.8,1.2,1.2,1.8c0.5,0.7,0.9,1.3,1.2,2.1c0,0.1,0.1,0.2,0.1,0.3c0.5,1.5-0.5,2.4-1,3.6c-0.1,0.2-0.1,0.4-0.2,0.6
				c-0.2,0.9-0.7,2.6-0.1,3.4c0.1,0.1,0.3,0.2,0.4,0.3c0.2,0.1,0.4,0.1,0.5,0.1c0.7,0.1,1.6,0.1,2.5,0.2c1.3,0.2,2.6,0.7,3.6,1.4
				c0.3,0.2,0.5,0.4,0.7,0.7c0.9,0.9,1.7,1.9,2.5,2.8c0.3,0.4,0.7,0.7,1,1.1c0.1,0.2,0.3,0.3,0.4,0.5c0.3,0.6,0.6,1.2,0.7,1.9
				c0.3,0.9,1,1.2,1.8,1.5h0.1c1.4,0.6,2.9,1,4.4,1.1c1.1,0.1,2.7,0.2,3.8-0.3c0.2-0.1,0.3-0.2,0.5-0.3c0.9-0.8,0.9-2.2,0.9-3.3
				c0-0.3,0-0.5,0-0.8c0.2-1.3,1.1-1.6,2.3-2c0.4-0.1,0.7-0.3,1-0.6s0.5-0.7,0.6-1c0.1-0.4,0.2-0.9,0.3-1.3c0.1-0.6,0.4-1.2,0.8-1.7
				c0.4-0.5,0.8-1,1.1-1.6c0.3-0.7,0.4-1.3,0.8-2c0.4-0.8,1-1.4,1.6-1.9c0.5-0.4,1-0.8,1.5-1.1c0.8-0.5,1.6-1,2.3-1.6
				c0.6-0.4,1.1-0.8,1.7-1.2c1-0.7,2-1.3,2.9-2c0.3-0.2,0.7-0.5,1-0.8c1-0.8,1.9-1.8,2.5-2.9c0.5-1.3-0.1-2.1-1.3-2.6
				c-0.8-0.3-1.7-0.3-2.5-0.1c-0.2,0-0.3,0.1-0.5,0.1c-0.7,0.2-1.4,0.6-2.1,0.9c-0.5,0.1-1.1,0.2-1.7,0.3c-0.3,0-0.6,0-1,0.1
				c-1.2,0.2-2.4,0.4-3.6,0.8c-0.4,0.1-0.8,0.2-1.2,0.3c-0.6,0.2-1.3,0.2-1.9,0.1c-0.2,0-0.4-0.1-0.5-0.1C56,42.1,55.5,42,55,42
				c-0.4,0-0.8,0-1.1,0.1c-0.1,0-0.2,0-0.3,0S53.4,42,53.4,42c-0.3-0.3-0.6-0.7-0.7-1.1c-0.2-0.4-0.3-0.9-0.3-1.4
				c0.1-1.1,0.2-2.1,0.3-3.1c0-0.4,0-0.8,0-1.2c-0.2-1.1-0.8-2-1.1-3c-0.1-0.4-0.1-0.8-0.1-1.2c0.1-1.1,0.4-2,0.5-2.9
				c0-0.3,0-0.6-0.1-1c-0.1-1-0.7-1.3-1.3-1.8L50,24.8c-1-0.8-1.4-2-2.3-2.7c-0.4-0.3-0.8-0.6-1.3-0.7s-1-0.1-1.5,0
				c-0.2,0-0.4,0.1-0.6,0.2c-0.5,0.2-1.3,0.2-1.5,1.3c0,0.1,0,0.3-0.1,0.4c0,0.5,0,1.1,0,1.7c-0.1,0.7-0.3,1.3-0.7,1.9
				c-0.3,0.3-0.5,0.6-0.7,0.9c-0.1,0.2-0.2,0.4-0.3,0.7c-0.1,0.6-0.1,0.9-0.3,1.7c0,0.1,0,0.2-0.1,0.4c-0.3,1.2-0.5,2.4-1.9,2.8
				l-0.2,0.1c-1.6,0.4-3.4,0.5-5,0.1l-0.4-0.1c-0.8-0.2-1.5-0.3-2.3-0.3c-0.1,0-0.3,0-0.4,0C29.4,32.9,28.7,33,27.9,33.3z"/>
			<path class="st1" d="M27.3,33.2c-0.7,0.3-1.4,0.7-1.9,1.3c-0.6,0.6-1,1.2-1.3,2c-0.6,1.8-0.8,3.7-0.5,5.6
				c0.2,1.6,1.3,2.6,2.2,3.8c0.4,0.6,0.8,1.3,1.2,1.9c0.5,0.7,0.9,1.4,1.3,2.1c0,0.1,0.1,0.2,0.1,0.3c0.6,1.6-0.6,2.4-1.1,3.7
				c-0.1,0.2-0.1,0.4-0.2,0.6c-0.2,1-0.4,2.7,0.1,3.5c0.2,0.3,0.6,0.5,1,0.6c0.9,0.2,1.7,0.3,2.6,0.4c1.4,0.1,2.8,0.5,3.9,1.3
				c0.3,0.2,0.5,0.5,0.8,0.7c0.9,0.9,1.7,2,2.6,3c0.3,0.4,0.7,0.8,1,1.2c0.1,0.2,0.3,0.4,0.4,0.6c0.3,0.7,0.5,1.4,0.5,2.1
				c0.2,1,1,1.3,1.8,1.5H42c1.5,0.5,3.1,0.8,4.7,1c1.2,0.1,2.7,0.2,3.8-0.4c0.2-0.1,0.3-0.2,0.5-0.3c1-0.8,1.1-2.1,1.1-3.3
				c0-0.3,0-0.5,0.1-0.8c0.2-1.3,1.1-1.7,2.3-2.2c0.4-0.1,0.7-0.4,1-0.7c0.2-0.3,0.4-0.7,0.4-1.1c0.1-0.4,0.1-0.9,0.2-1.4
				c0.2-0.6,0.5-1.2,0.9-1.7s0.8-1,1-1.6c0.3-0.7,0.3-1.4,0.6-2.1c0.4-0.8,1-1.4,1.7-2c0.5-0.4,1-0.8,1.6-1.1c0.8-0.5,1.6-1,2.4-1.5
				c0.6-0.4,1.2-0.8,1.8-1.1c1-0.6,2.1-1.3,3-2c0.3-0.3,0.7-0.5,1-0.8c1-0.8,1.8-1.9,2.5-3C73,42,73,40.8,72,40
				c-0.4-0.2-0.8-0.4-1.2-0.5c-0.4-0.1-0.9-0.1-1.3,0.1c-0.2,0-0.3,0.1-0.5,0.1c-0.7,0.3-1.3,0.8-2.1,1c-0.5,0.2-1.1,0.2-1.7,0.3
				c-0.3,0-0.7,0-1,0.1c-1.2,0.2-2.4,0.5-3.6,0.9c-0.4,0.1-0.8,0.2-1.2,0.3c-0.6,0.1-1.3,0.1-2-0.1c-0.2-0.1-0.4-0.1-0.5-0.2
				c-0.4-0.3-1-0.4-1.5-0.4c-0.4,0-0.8,0.2-1.1,0.4s-0.4,0.4-0.8,0.4c-0.2,0-0.5-0.1-0.7-0.3c-0.2-0.1-0.4-0.3-0.5-0.5
				c-0.3-0.4-0.5-0.9-0.5-1.4c0-1.1,0.2-2.1,0.4-3.2c0.1-0.4,0.1-0.8,0-1.2c-0.2-1.1-0.9-2-1.2-3c-0.1-0.4-0.2-0.8-0.2-1.2
				c0.1-1,0.3-2,0.6-3c0.1-0.3,0.1-0.7,0.1-1c0.1-1.1-0.6-1.4-1.3-1.8c-0.2-0.1-0.5-0.3-0.7-0.4c-1.1-0.8-1.4-1.9-2.3-2.8
				c-0.8-0.8-1.8-1.2-2.9-1.3c-0.3,0-0.5-0.1-0.7-0.1c-0.6,0-1.7-0.4-2.1,0.7c-0.1,0.1-0.1,0.3-0.1,0.5c-0.1,0.6,0,1.2-0.1,1.7
				c-0.1,0.7-0.3,1.4-0.8,1.9c-0.3,0.3-0.5,0.6-0.7,0.9c-0.1,0.2-0.2,0.5-0.1,0.7c0.1,0.6,0.2,1.2,0.3,1.9c0,0.1,0,0.3,0,0.4
				c-0.1,1.2-0.5,2.5-1.8,3L38,33c-1.7,0.6-3.4,0.7-5.2,0.3l-0.5-0.1c-0.8-0.2-1.6-0.4-2.4-0.4h-0.4C28.8,32.7,28,32.9,27.3,33.2z"
				/>
			<path class="st1" d="M28,32.3c-1.5,0.6-2.8,1.7-3.5,3.2c-0.8,1.8-1.2,3.8-1,5.8c0,1.7,1.3,2.7,2.2,3.9c0.5,0.6,0.8,1.3,1.2,2
				c0.4,0.7,1,1.4,1.4,2.2c0.1,0.1,0.1,0.2,0.2,0.3c0.7,1.6-0.8,2.4-1.3,3.8c-0.1,0.2-0.1,0.4-0.2,0.7c-0.2,1.2-0.1,2.5,0.4,3.6
				c0.2,0.4,0.6,0.7,1,0.8c0.9,0.3,1.8,0.5,2.7,0.6c1.5,0.2,3.1,0.3,4.1,1.2c0.3,0.2,0.5,0.5,0.8,0.7c1,1,1.8,2.1,2.6,3.1
				c0.3,0.4,0.7,0.8,1.1,1.2c0.1,0.2,0.3,0.4,0.4,0.6c0.3,0.7,0.4,1.5,0.3,2.2c0.1,1.1,0.9,1.3,1.9,1.4h0.1c1.7,0.2,3.3,0.7,5,0.8
				c1.3,0.2,2.7,0,3.9-0.5c0.2-0.1,0.3-0.2,0.5-0.3c1-0.7,1.2-2.1,1.3-3.3c0-0.3,0-0.6,0.1-0.8c0.2-1.4,1-1.7,2.2-2.3
				c0.4-0.2,0.7-0.5,0.9-0.8c0.2-0.4,0.3-0.8,0.3-1.2c0-0.5,0-1,0.1-1.4c0.2-0.6,0.5-1.2,0.9-1.7s0.8-1.1,1-1.7
				c0.1-0.7,0.3-1.4,0.5-2.1c0.4-0.8,1-1.4,1.7-1.9c0.5-0.4,1-0.8,1.6-1.1c0.8-0.5,1.6-1,2.4-1.5c0.6-0.4,1.2-0.7,1.8-1.1
				c1.1-0.6,2.1-1.2,3.1-1.9c0.3-0.3,0.7-0.5,1-0.8c1-0.9,1.8-1.9,2.5-3.1c0.6-1.1,1.1-2.7,0.3-3.7c-0.3-0.3-0.7-0.6-1.1-0.7
				c-0.4-0.1-0.9-0.1-1.3,0c-0.2,0-0.3,0.1-0.5,0.2c-0.7,0.3-1.3,0.9-2.1,1.2c-0.4,0-1,0.1-1.5,0.1c-0.3,0-0.7,0-1,0.1
				c-1.2,0.3-2.5,0.6-3.7,1.1c-0.4,0.1-0.8,0.2-1.2,0.2c-0.7,0.1-1.4,0-2-0.3c-0.2-0.1-0.4-0.2-0.5-0.3c-0.4-0.4-0.9-0.5-1.5-0.5
				c-0.2,0-0.5,0.1-0.6,0.3c-0.2,0.1-0.4,0.3-0.5,0.5c-0.3,0.4-0.5,0.8-1,0.9c-0.3,0.1-0.6,0-0.9-0.1c-0.3-0.1-0.5-0.2-0.7-0.5
				c-0.4-0.4-0.6-0.8-0.7-1.3C52.6,39,53,38,53.3,37c0.1-0.4,0.1-0.8,0.1-1.2c-0.1-1.1-1-1.9-1.4-2.9c-0.2-0.4-0.3-0.8-0.3-1.2
				c0-1,0.3-2,0.6-2.9c0.1-0.3,0.2-0.7,0.3-1c0.3-1.1-0.4-1.4-1.2-1.7c-0.3-0.1-0.5-0.2-0.8-0.4c-1.2-0.7-1.5-1.9-2.3-2.9
				c-0.8-0.9-1.8-1.6-3-1.9l-0.9-0.4c-0.7-0.3-2.1-1-2.7,0.1c-0.1,0.1-0.1,0.3-0.2,0.5c-0.1,0.6-0.1,1.2-0.2,1.7
				c-0.1,0.7-0.4,1.4-0.9,1.9c-0.3,0.3-0.5,0.6-0.7,0.9c-0.1,0.2-0.1,0.5,0,0.8c0.3,0.8,0.8,1.2,0.9,2.1c0,0.1,0,0.3,0,0.4
				c0.1,0.6-0.1,1.3-0.4,1.8c-0.3,0.6-0.8,1-1.3,1.3h-0.1c-1.7,0.7-3.5,0.9-5.3,0.4l-0.4-0.1c-0.8-0.3-1.6-0.5-2.4-0.5
				c-0.1,0-0.3,0-0.5,0C29.5,31.8,28.8,32,28,32.3z"/>
			<path class="st1" d="M23.5,41.1c-0.1,1.8,1.3,2.8,2.2,4.1c0.4,0.7,0.8,1.4,1.2,2.1c0.5,0.9,1.2,1.7,1.5,2.6
				c0.8,1.7-0.9,2.4-1.4,3.9c-0.3,1.5-0.2,3.1,0.5,4.5c1.4,2.8,5.8,1,7.9,2.9c1.3,1.2,2.4,2.6,3.4,4.1c0.6,0.6,1,1.2,1.4,2
				c0.2,0.8,0.3,1.6,0.1,2.4c0,1.3,1,1.4,2.1,1.4c1.8,0,3.4,0.5,5.2,0.6c1.4,0.1,3.2,0,4.3-0.8c1.3-0.9,1.3-2.7,1.5-4.1
				s0.9-1.9,2.1-2.5c1.5-0.9,0.7-2.3,1-3.8c0.3-1.4,1.6-2.1,1.9-3.5c0-0.8,0.2-1.5,0.4-2.2c0.4-0.8,0.9-1.5,1.7-2
				c1.3-0.9,2.6-1.8,4-2.5c1.5-1,3.4-1.8,4.9-3c1.3-1.2,2.4-2.5,3.3-4c0.7-1.1,1.6-3.1,1.1-4.4c-0.1-0.2-0.3-0.5-0.5-0.6
				c-0.2-0.2-0.5-0.3-0.7-0.4c-0.3-0.1-0.5-0.1-0.8-0.1s-0.5,0.1-0.8,0.3c-0.6,0.5-1.3,0.9-2,1.3c-0.9,0.3-1.7,0.2-2.6,0.3
				c-1.6,0.3-3.1,1.3-4.8,1.4c-0.7,0-1.4-0.2-2-0.5c-0.6-0.4-1.1-1.2-1.9-1c-1.1,0.3-1.1,2-2.2,2.5c-0.3,0.1-0.6,0.2-0.9,0.1
				s-0.6-0.1-0.9-0.3c-0.3-0.1-0.5-0.4-0.7-0.6c-0.2-0.2-0.3-0.5-0.3-0.8c-0.3-1.6,0.9-2.9,0.8-4.4c-0.2-1.5-1.8-2.3-2-4.1
				c-0.1-1.6,0.6-2.6,1.1-4c0.6-1.7-0.9-1.5-2-2c-1.3-0.6-1.4-1.9-2.2-3c-0.9-1.4-2.6-2.3-3.9-3.2c-0.8-0.5-2.5-1.7-3.3-0.5
				c-0.4,0.6-0.3,1.6-0.4,2.2c-0.1,0.7-0.5,1.4-1,1.9c-0.6,0.6-1,0.9-0.6,1.8s1.2,1.3,1.5,2.3c0.2,0.8,0.2,1.6-0.1,2.3
				c-0.3,0.7-0.8,1.3-1.5,1.7c-0.8,0.4-1.7,0.7-2.6,0.8c-0.9,0.1-1.8,0-2.7-0.3c-0.9-0.4-1.8-0.7-2.8-0.8c-0.9,0.1-1.9,0.3-2.7,0.7
				C24.8,33.5,23.6,37,23.5,41.1z"/>
			<path class="st1" d="M28.8,29.5c-0.6,0.4-1.1,0.9-1.4,1.6c-0.2,0.4-0.3,0.8-0.8,1c-0.8,0.4-1.6,1-2.1,1.8
				c-0.6,0.7-1.1,1.4-1.5,2.3c-0.3,0.8-0.6,1.7-0.7,2.5c-0.1,0.3-0.1,0.6-0.1,1c-0.1,0.7,0,1.4,0.2,2c0.1,0.3,0.1,0.1,0.2,0.4
				c0.5,0.9,1.1,1.7,1.7,2.5c0.5,0.7,0.9,1.4,1.2,2.2l0.1,0.2c0.4,0.7,0.7,1.4,1,2.1l0.2,0.4c0.6,1.7-0.7,2.6-1.1,4.1
				c0,0.1,0,0.2-0.1,0.3c-0.1,0.9-0.1,1.8,0,2.7c0.1,0.6,0.2,1.2,0.5,1.7c0.2,0.4,0.6,0.7,1,0.9c0.8,0.3,1.6,0.5,2.4,0.6
				c1.6,0.2,3.2,0.4,4.4,1.2c0.1,0.1,0.3,0.2,0.4,0.3c1.1,1,2.1,2.2,2.9,3.4l0.6,0.8c0.5,0.6,1,1.3,1.5,2c0.1,0.1,0.1,0.3,0.2,0.4
				c0.2,0.6,0.3,1.2,0.4,1.8c0.2,1.2,1.2,1.3,2.3,1.4h0.1c1.8,0.2,3.5,0.6,5.3,0.7c1.5,0.1,2.9-0.2,4.2-0.9c0.7-0.5,1.1-1.3,1.3-2.1
				c0.1-0.6,0.2-1.2,0.3-1.8c0.3-1.3,0.9-1.8,2-2.5c0.3-0.2,0.5-0.4,0.7-0.6c0.6-0.8,0.3-1.8,0.6-2.9c0-0.1,0-0.1,0.1-0.2
				c0.4-1.1,1.6-1.9,1.9-3.2c0-0.2,0-0.5,0-0.7c-0.1-0.5,0-1,0.1-1.5c0.2-0.8,0.7-1.6,1.2-2.3c1.1-1.3,2.4-2.3,3.8-3.1
				c1.2-0.7,2.5-1.1,3.7-1.8c0.6-0.3,1.1-0.7,1.7-1.1c0.5-0.4,1-0.9,1.4-1.3c0.9-0.9,1.7-1.8,2.3-2.9c0.8-1.2,1.5-3.2,1-4.6
				c-0.2-0.5-0.5-0.9-0.9-1.2c-0.5-0.2-1-0.3-1.5-0.2c-0.3,0.1-0.7,0.2-1,0.4c-0.3,0.1-0.6,0.2-0.9,0.3c-0.8,0-1.7,0-2.5-0.2
				c-0.2,0-0.5,0-0.7,0c-1.3,0.1-2.6,0.6-4,0.4c-0.1,0-0.3,0-0.4-0.1c-0.5-0.1-1-0.4-1.5-0.7c-0.1-0.1-0.3-0.2-0.4-0.3
				c-0.4-0.4-0.9-0.9-1.5-0.9c-0.1,0-0.2,0-0.4,0.1c-0.8,0.4-1,1.9-1.8,2.5c-0.2,0.1-0.3,0.2-0.5,0.2c-0.4,0.1-0.9,0.1-1.3-0.1
				c-0.4-0.2-0.7-0.5-0.9-0.9c-0.1-0.3-0.2-0.6-0.1-0.9c0-0.8,0.3-1.6,0-2.5c-0.1-0.3-0.3-0.7-0.5-0.9c-0.6-0.8-1.6-1.7-1.6-3
				c0-1.1,0.6-2.2,0.8-3.2c0.1-0.3,0.1-0.6,0.1-0.8c0-0.2,0-0.4,0-0.7c-0.2-0.6-1-0.7-1.7-1c-0.2-0.1-0.4-0.1-0.6-0.2
				c-1.3-0.7-1.5-2-2.2-3.2c-0.9-1.3-2.4-2.2-3.7-3c-0.7-0.4-1.9-1.2-2.7-0.9c-0.2,0.1-0.3,0.2-0.4,0.3c-0.4,0.5-0.4,1.2-0.5,1.8
				c-0.1,0.3-0.2,0.6-0.4,0.9c-0.2,0.2-0.3,0.4-0.6,0.6c-0.5,0.4-1,0.7-0.7,1.4c0.2,0.3,0.4,0.6,0.6,0.9c0.2,0.3,0.4,0.7,0.4,1
				c0.1,0.7,0,1.4-0.2,2.1c-0.3,0.7-0.7,1.2-1.3,1.6c-0.7,0.5-1.4,0.8-2.2,0.9c-0.8,0.2-1.6,0.2-2.4,0c-0.4-0.1-0.8-0.2-1.2-0.3
				c-0.4-0.1-0.9-0.2-1.3-0.1C30.5,28.7,29.6,29,28.8,29.5z"/>
			<path class="st1" d="M30.3,28.3c-0.9,0.6-0.8,1.5-0.9,2.2c0,0.5,0.1,1.1-0.7,1.2c-1.1,0.2-2.1,0.7-2.9,1.5
				c-0.9,0.6-1.6,1.4-2.2,2.3c-0.5,0.9-0.9,1.9-1.1,2.9l-0.3,1.1c-0.2,0.8-0.2,1.6,0,2.4c0.1,0.5,0.1-0.2,0.2,0.3
				c0.3,1.1,1.2,2,1.9,3c0.5,0.7,0.9,1.5,1.2,2.2l0.1,0.2c0.3,0.7,0.6,1.4,0.7,2.2l0.1,0.5c0.5,1.7-0.5,2.8-0.7,4.3v0.3
				c-0.1,0.9-0.1,1.8,0,2.7c0,0.6,0.2,1.2,0.4,1.8c0.3,0.4,0.7,0.7,1.1,0.8c0.8,0.2,1.6,0.4,2.5,0.5c1.6,0.1,3.1,0.6,4.5,1.4
				c0.1,0.1,0.3,0.2,0.4,0.3c1.1,1,2.1,2.3,2.9,3.6c0.2,0.3,0.4,0.6,0.5,0.9c0.5,0.7,1,1.4,1.5,2.1c0.1,0.1,0.2,0.3,0.3,0.4
				c0.3,0.5,0.5,1,0.7,1.6c0.4,1,1.4,1.2,2.5,1.3h0.1c1.8,0.4,3.6,0.6,5.4,0.7c1.4,0.1,2.8-0.3,4-1c0.7-0.5,1.1-1.2,1.3-2
				c0.2-0.6,0.3-1.1,0.4-1.7c0.1-0.5,0.3-1,0.7-1.4c0.3-0.4,0.7-0.8,1.2-1c0.3-0.2,0.5-0.4,0.7-0.6c0.6-0.7,0.5-1.7,0.8-2.6
				c0,0,0-0.1,0.1-0.1c0.5-1,1.6-1.7,1.9-2.9c0.1-0.3,0.1-0.5,0-0.8c-0.2-0.5-0.2-1.1-0.2-1.6c0.1-0.9,0.4-1.8,0.8-2.6
				c0.8-1.6,2-2.9,3.6-3.6c1.3-0.7,2.8-1,4.1-1.6c0.6-0.3,1.2-0.7,1.8-1.2c0.5-0.4,1.1-0.9,1.6-1.4c1-0.9,1.9-1.9,2.6-3
				c0.9-1.4,1.2-3.1,0.9-4.8c-0.1-0.5-0.3-0.9-0.7-1.3c-0.4-0.3-0.8-0.5-1.3-0.6c-0.3,0-0.6,0-0.9,0.1c-0.3,0-0.6,0-0.9,0
				c-0.8-0.2-1.6-0.4-2.4-0.7c-0.2-0.1-0.4-0.1-0.7-0.1c-1.3-0.2-2.6,0-4-0.4c-0.1,0-0.3-0.1-0.4-0.2c-0.5-0.2-1-0.5-1.4-0.9
				c-0.1-0.1-0.3-0.2-0.4-0.4c-0.4-0.4-0.9-1-1.5-1c-0.1,0-0.2,0-0.4,0c-0.8,0.3-1,2-1.8,2.7c-0.1,0.1-0.3,0.2-0.5,0.3
				c-0.3,0.2-0.7,0.3-1.1,0.2c-0.4,0-0.7-0.2-1-0.4c-0.1-0.2-0.3-0.3-0.3-0.5c-0.1-0.6-0.4-1.2-0.7-1.8c-0.2-0.3-0.4-0.6-0.7-0.8
				c-0.9-0.8-1.8-1.8-1.7-3.1c0.1-1.1,0.9-2.3,0.9-3.2c0-0.3,0-0.5-0.1-0.8c0-0.2-0.1-0.4-0.2-0.6c-0.3-0.5-1.1-0.6-1.8-1
				c-0.2-0.1-0.4-0.2-0.6-0.3c-1.2-0.8-1.5-2.2-2.3-3.3c-0.9-1.2-2.1-2.1-3.4-2.8c-0.6-0.4-1.7-1.1-2.5-0.9c-0.1,0-0.3,0.1-0.4,0.2
				c-0.4,0.4-0.5,0.9-0.7,1.3c-0.1,0.2-0.3,0.5-0.5,0.7s-0.3,0.3-0.5,0.4c-0.5,0.3-0.9,0.4-0.8,1c0.1,0.2,0.2,0.5,0.3,0.7
				c0.2,0.3,0.3,0.6,0.3,0.9c0,0.7-0.1,1.3-0.4,1.9c-0.3,0.6-0.7,1.1-1.2,1.5c-1.1,0.9-2.5,1.4-4,1.4c-0.4,0-0.7-0.1-1.1-0.1
				c-0.4-0.1-0.8-0.1-1.2,0C31.7,27.5,31,27.8,30.3,28.3z"/>
			<path class="st1" d="M31.7,26.8c-0.9,0.8-0.6,1.9-0.4,2.8c0.1,0.6,0.5,1.4-0.6,1.3c-1.3-0.1-2.3,0.5-3.5,1.1
				c-1.1,0.5-2.1,1.2-2.9,2.2c-0.7,1-1.2,2.1-1.4,3.2c-0.1,0.4-0.2,0.8-0.4,1.3c-0.3,0.9-0.4,1.8-0.2,2.8c0.1,0.6,0.1-0.4,0.1,0.2
				c0.3,1.3,1.3,2.4,2.1,3.5c0.5,0.7,0.9,1.5,1.3,2.3l0.1,0.2c0.2,0.7,0.4,1.5,0.5,2.3c0,0.2,0,0.3,0.1,0.5c0.3,1.7-0.2,2.9-0.4,4.4
				c0,0.1,0,0.2,0,0.3C26,56.1,26,57,26.1,58c0,0.6,0.1,1.2,0.4,1.8c0.3,0.4,0.8,0.6,1.2,0.6c0.8,0.2,1.6,0.2,2.5,0.3
				c1.6,0.2,3.1,0.8,4.4,1.7l0.4,0.3c1.2,1.1,2.1,2.3,2.9,3.7c0.2,0.3,0.3,0.6,0.5,0.9c0.4,0.8,0.9,1.5,1.5,2.1
				c0.1,0.1,0.2,0.2,0.3,0.3c0.4,0.4,0.7,0.8,1,1.3c0.6,0.8,1.6,1,2.6,1.3H44c1.8,0.5,3.6,0.7,5.5,0.7c1.3,0,2.6-0.4,3.7-1
				c0.6-0.5,1.1-1.1,1.3-1.8c0.2-0.5,0.3-1.1,0.5-1.6c0.3-1,0.9-1.8,1.8-2.3c0.2-0.2,0.4-0.3,0.6-0.5c0.6-0.7,0.7-1.4,1.1-2.3
				l0.1-0.1c0.5-0.9,1.6-1.6,1.9-2.7c0.1-0.1,0.1-0.3,0.1-0.4c0-0.1-0.1-0.3-0.2-0.4c-0.2-0.5-0.4-1.1-0.4-1.6c0-1,0.1-1.9,0.4-2.8
				c0.2-0.9,0.6-1.7,1.2-2.4c0.6-0.7,1.3-1.3,2.1-1.7c1.4-0.7,3-0.8,4.4-1.5c0.7-0.3,1.3-0.7,1.9-1.2s1.1-1,1.7-1.4
				c1.1-0.8,2.1-1.9,2.8-3c0.8-1.5,1.1-3.2,0.8-4.9c0-0.5-0.2-1-0.5-1.4s-0.6-0.7-1.1-1c-0.3-0.1-0.6-0.2-0.9-0.3s-0.5-0.2-0.8-0.3
				c-0.7-0.3-1.4-0.8-2.1-1.2c-0.2-0.1-0.4-0.2-0.6-0.3c-1.2-0.5-2.5-0.6-3.8-1.2c-0.1-0.1-0.3-0.1-0.4-0.2c-0.5-0.3-0.9-0.7-1.3-1
				c-0.1-0.1-0.2-0.3-0.4-0.4c-0.4-0.4-0.8-1-1.4-1.1c-0.1,0-0.3,0-0.4,0c-0.8,0.2-1.1,1.9-1.6,2.7c-0.1,0.2-0.2,0.3-0.4,0.4
				c-0.3,0.2-0.6,0.4-1,0.5s-0.7,0.1-1.1,0.1c-0.2,0-0.4-0.1-0.5-0.2c-0.5-0.3-1-0.6-1.5-1c-0.2-0.2-0.5-0.4-0.9-0.6
				c-0.5-0.3-1-0.8-1.3-1.3s-0.4-1.2-0.4-1.8c0.1-1,1.1-2.3,1-3.2c-0.1-0.2-0.2-0.5-0.4-0.6c-0.1-0.2-0.2-0.3-0.4-0.4
				c-0.6-0.4-1.2-0.7-1.9-0.9c-0.2-0.1-0.4-0.2-0.5-0.3c-1.2-0.8-1.5-2.2-2.3-3.3c-0.8-1.1-1.8-1.9-3-2.6c-0.7-0.5-1.5-0.8-2.3-0.8
				c-0.1,0-0.2,0.1-0.4,0.1c-0.4,0.2-0.5,0.6-0.8,0.8c-0.1,0.2-0.3,0.3-0.5,0.4s-0.3,0.2-0.5,0.2c-0.4,0.2-0.8,0.2-0.8,0.5
				c0,0.2,0,0.3,0,0.5s0,0.5,0,0.7c-0.1,1.2-0.6,2.3-1.4,3.2c-0.4,0.5-0.9,0.9-1.5,1.2c-0.5,0.3-1.1,0.5-1.7,0.6
				c-0.3,0-0.6,0.1-0.9,0.1c-0.3,0-0.7,0.1-1,0.2C33,26,32.3,26.3,31.7,26.8z"/>
			<path class="st1" d="M33.1,25.5c-1,1-0.3,2.3,0.1,3.3c0.3,0.7,0.9,1.6-0.4,1.4c-1.6-0.3-2.7,0.1-4.2,0.8c-1.4,0.4-2.6,1.1-3.6,2
				c-0.9,1-1.5,2.2-1.8,3.5c-0.1,0.5-0.3,0.9-0.5,1.4c-0.4,1-0.6,2-0.5,3c0.1,0.8,0-0.6,0.1,0.1c0.2,1.6,1.3,2.7,2.2,4
				c0.5,0.7,0.9,1.5,1.3,2.3c0,0.1,0.1,0.1,0.1,0.2c0.2,0.8,0.3,1.6,0.2,2.3c0,0.2,0,0.3,0,0.5c0.1,1.5,0.1,3,0,4.5
				c0,0.1,0,0.2,0,0.4c0,0.9-0.1,1.8,0,2.8c0,0.6-0.1,1.3,0.3,1.8c0.3,0.3,0.8,0.5,1.3,0.5c0.8,0.1,1.7,0.1,2.6,0.2
				c1.6,0.3,3.1,1,4.4,2c0.1,0.1,0.3,0.2,0.4,0.3c1.2,1.1,2.2,2.3,2.9,3.7c0.2,0.3,0.3,0.6,0.5,1c0.3,0.8,0.9,1.5,1.5,2.1
				c0.1,0.1,0.2,0.2,0.4,0.3c0.5,0.3,1,0.7,1.4,1.1c0.8,0.6,1.8,1,2.8,1.2h0.1c1.8,0.6,3.6,0.9,5.5,0.8c1.2-0.1,2.4-0.4,3.5-1.1
				c0.6-0.4,1-1,1.3-1.7c0.2-0.5,0.4-1,0.5-1.4c0.3-0.9,0.9-1.7,1.6-2.2c0.2-0.2,0.4-0.3,0.6-0.5c0.5-0.6,1-1.2,1.3-1.9l0.1-0.1
				c0.5-0.7,1.6-1.4,1.9-2.3c0.1-0.4,0-0.5-0.2-0.8c-0.3-0.5-0.5-1.1-0.6-1.7c-0.1-1-0.1-2,0-3c0.2-1.9,0.9-3.6,3-4.6
				c1.5-0.7,3.1-0.7,4.6-1.3c0.7-0.3,1.4-0.7,2-1.2s1.2-1,1.8-1.5c1.2-0.8,2.2-1.9,3-3.1c0.7-1.6,1-3.3,0.7-5c0-1-0.4-2-1.1-2.8
				c-0.2-0.2-0.5-0.5-0.8-0.6c-0.3-0.2-0.5-0.3-0.8-0.5c-0.6-0.5-1.2-1.2-1.9-1.7c-0.2-0.1-0.4-0.3-0.6-0.4c-1.1-0.8-2.4-1.2-3.6-2
				c-0.1-0.1-0.2-0.2-0.4-0.3c-0.5-0.4-0.9-0.8-1.3-1.2l-0.4-0.4c-0.3-0.4-0.8-1.1-1.3-1.3c-0.1-0.1-0.3-0.1-0.4-0.1
				c-0.8,0.1-1.1,1.9-1.5,2.8c-0.1,0.2-0.2,0.3-0.3,0.5c-0.5,0.6-1.2,1.1-2,1.4c-0.2,0.1-0.5,0.1-0.7,0.1c-0.7,0.1-1.5,0-2.2-0.3
				c-0.3-0.1-0.7-0.3-1-0.4c-0.6-0.2-1.1-0.7-1.4-1.3c-0.3-0.6-0.4-1.2-0.3-1.9c0.2-0.9,1.4-2.3,1-3.2c-0.1-0.2-0.4-0.4-0.6-0.5
				L53.3,25c-0.5-0.3-1.3-0.5-2-0.8c-0.2-0.1-0.4-0.2-0.5-0.3c-1.1-0.9-1.5-2.3-2.3-3.4c-0.7-1-1.7-1.8-2.7-2.3
				c-0.6-0.4-1.3-0.7-2-0.8c-0.1,0-0.2,0-0.3,0c-0.4,0.1-0.6,0.3-0.9,0.4c-0.2,0.1-0.3,0.1-0.5,0.1s-0.3,0-0.5,0
				c-0.4,0-0.8-0.1-0.8,0.1c-0.1,0.1-0.2,0.1-0.2,0.2c-0.1,0.2-0.2,0.4-0.2,0.6c-0.3,1-0.8,2-1.3,2.8c-0.3,0.5-0.7,0.9-1.1,1.3
				c-0.4,0.3-0.8,0.6-1.3,0.9c-0.2,0.1-0.5,0.2-0.8,0.3c-0.3,0.1-0.6,0.2-0.9,0.3C34.1,24.6,33.6,25,33.1,25.5z"/>
			<path class="st1" d="M33.5,23.8c-1,1.2,0,2.8,0.6,3.9c0.5,0.9,1.3,2-0.3,1.6c-1.8-0.4-3.2-0.1-5,0.4c-1.6,0.3-3.1,1.1-4.3,2.1
				c-1.2,1.1-1.6,2.4-2.1,4c-0.2,0.5-0.4,1-0.6,1.6c-0.5,1.1-0.7,2.3-0.7,3.5c0.1,0.9,0-0.9,0,0.1c0.2,1.8,1.4,3.1,2.4,4.6
				c0.5,0.7,1,1.5,1.3,2.4c0,0.1,0,0.1,0.1,0.2c0.1,0.8,0.1,1.7-0.1,2.5c0,0.2,0,0.3,0,0.5c0,1.6,0.2,3.1,0.2,4.7c0,0.1,0,0.2,0,0.4
				c0,0.9,0,1.9-0.1,2.9c0,0.6-0.2,1.4,0.3,1.9c0.2,0.2,0.4,0.3,0.7,0.3c0.2,0.1,0.5,0.1,0.8,0c0.9-0.1,1.8,0,2.7,0.1
				c1.6,0.4,3.2,1.1,4.4,2.3c0.1,0.1,0.3,0.2,0.4,0.3c1.2,1.1,2.2,2.4,3,3.9c0.2,0.3,0.3,0.7,0.5,1c0.3,0.9,0.8,1.6,1.6,2.2
				c0.1,0.1,0.3,0.2,0.4,0.2c0.6,0.3,1.2,0.6,1.8,0.9c1,0.5,2,0.9,3,1.1h0.1c1.9,0.6,3.7,1.1,5.7,0.8c1.2-0.1,2.3-0.6,3.3-1.2
				c0.6-0.4,1-0.9,1.3-1.5c0.2-0.5,0.4-0.9,0.6-1.3c0.3-0.9,0.8-1.6,1.5-2.2c0.2-0.2,0.4-0.3,0.6-0.5c0.6-0.5,1.1-1.1,1.6-1.7
				l0.1-0.1c0.5-0.6,1.7-1.3,1.9-2.2c0.2-0.5,0-0.5-0.2-0.8c-0.4-0.5-0.6-1.1-0.8-1.7c-0.3-1.1-0.4-2.2-0.5-3.4
				c0-2.1,0.5-4.2,2.8-5.2c1.6-0.7,3.4-0.5,5-1.1c0.8-0.3,1.5-0.8,2.1-1.3s1.3-1.1,1.9-1.6c1.3-0.8,2.4-1.9,3.3-3.2
				c0.9-1.7,0.7-3.5,0.6-5.3c0-1.2-0.2-2.3-0.7-3.4c-0.2-0.4-0.5-0.7-0.8-1c-0.2-0.3-0.5-0.5-0.7-0.8c-0.6-0.7-1.1-1.5-1.8-2.2
				c-0.2-0.2-0.3-0.4-0.5-0.6c-1.1-1.1-2.4-1.8-3.4-2.9c-0.1-0.1-0.2-0.2-0.3-0.4c-0.4-0.4-0.8-0.9-1.2-1.4l-0.4-0.5
				c-0.4-0.6-0.8-1-1.3-1.4c-0.1-0.1-0.3-0.1-0.4-0.1c-0.8,0-1.1,1.9-1.4,3c-0.1,0.2-0.1,0.4-0.2,0.6c-0.5,0.9-1.2,1.6-2,2.2
				c-0.3,0.2-0.6,0.4-0.9,0.5c-0.9,0.4-1.9,0.6-2.9,0.5c-0.4,0-0.8-0.1-1.2-0.3c-0.6-0.2-1.2-0.6-1.5-1.2s-0.4-1.3-0.3-2
				c0.2-0.8,1.7-2.5,1.1-3.3c-0.2-0.2-0.5-0.4-0.8-0.4c-0.3-0.1-0.5-0.2-0.7-0.2c-0.7-0.2-1.4-0.5-2.1-0.8c-0.2-0.1-0.4-0.2-0.6-0.3
				c-1.1-0.9-1.6-2.5-2.4-3.6c-0.7-0.9-1.5-1.6-2.5-2.1c-0.6-0.4-1.2-0.6-1.9-0.7h-0.3c-0.3,0-0.7-0.1-1-0.1c-0.2,0-0.4-0.1-0.6-0.1
				l-0.4-0.2c-0.3-0.1-0.6-0.2-0.9-0.3c-0.2,0-0.3,0-0.5,0c-0.2,0.1-0.4,0.2-0.5,0.4c-0.4,0.6-0.8,1.7-1.3,2.6
				c-0.2,0.5-0.5,0.9-0.8,1.4c-0.3,0.4-0.6,0.8-0.9,1.1c-0.2,0.2-0.4,0.3-0.6,0.5c-0.2,0.2-0.5,0.3-0.7,0.5
				C34.4,23,33.9,23.3,33.5,23.8z"/>
			<path class="st1" d="M21,40.6c0.1,2,1.6,3.4,2.6,5c0.6,0.8,1.1,1.6,1.4,2.6c0.2,0.9-0.2,1.7-0.3,2.5c-0.4,1.9,0.5,3.8,0.5,5.7
				c0,1,0,1.9-0.1,2.9c0,0.6-0.3,1.4,0.2,1.8c0.5,0.5,1.1,0.3,1.6,0.2c0.9-0.1,1.9-0.1,2.8,0c1.7,0.4,3.2,1.3,4.5,2.5
				c1.4,1.2,2.6,2.6,3.4,4.3c0.7,1.4,0.8,2.9,2.5,3.4c1.9,0.5,3.6,1.1,5.4,1.7c2,0.7,3.7,1.3,5.8,0.8c1.7-0.3,3.5-1.1,4.4-2.6
				c1-1.5,1.2-2.7,2.6-3.7c0.7-0.5,1.3-0.9,2-1.4c0.6-0.5,1.7-1.2,2-1.9c0.2-0.5,0-0.5-0.3-0.8c-0.5-0.5-0.8-1.1-1-1.8
				c-1-2.9-2.2-7.7,1.6-9.1c1.7-0.7,3.6-0.4,5.4-1c1.7-0.6,2.9-2,4.3-2.9c1.5-0.9,2.7-1.7,3.5-3.2c0.9-1.7,0.5-3.5,0.6-5.4
				c0-1.9,0.3-3.4-0.9-5.1c-1-1.4-1.7-3.1-2.8-4.5c-1.1-1.4-2.6-2.6-3.7-4.1c-0.5-0.7-1-1.3-1.5-2c-0.4-0.5-1-1.7-1.7-1.7
				c-1.1-0.1-1.2,3-1.5,3.7c-0.6,1.5-1.7,2.9-3.1,3.7c-1.4,0.8-3.4,1.5-5,1.1c-0.3-0.1-0.7-0.2-0.9-0.4c-0.3-0.2-0.5-0.5-0.7-0.7
				c-0.2-0.3-0.3-0.6-0.3-1c0-0.3,0-0.7,0.1-1c0.3-0.8,2-2.5,1.2-3.2c-0.6-0.3-1.3-0.4-2-0.4c-0.8-0.1-1.5-0.3-2.2-0.7
				c-1.4-0.9-2-2.8-3-4s-2.3-2.1-3.9-2.6c-0.7-0.3-1.4-0.6-2.1-1.1c-0.6-0.4-1.3-1.3-2.2-1.3c-1.5,0-2,3-2.4,4
				c-0.2,0.8-0.6,1.5-1.1,2.1s-1.3,1.1-1.8,1.7c-1,1.4,0.2,3.1,1,4.4c0.6,1,1.7,2.2-0.2,1.7s-3.9-0.5-5.8,0.1
				c-1.8,0.4-3.6,0.8-5.1,2c-1.5,1.2-1.9,2.6-2.5,4.2C21.9,36.9,20.9,38.6,21,40.6C21.1,41.7,21,39.5,21,40.6z"/>
			<path class="st1" d="M32.4,23.5c-0.9,1.3,0.1,2.9,0.8,4.1c0.5,0.9,1.4,2-0.2,1.6c-1-0.2-2.1-0.2-3.2,0c-0.6,0.1-1.1,0.3-1.7,0.5
				c-1.6,0.4-3.1,1.1-4.4,2.1c-1.3,1.1-1.7,2.4-2.4,3.9l-0.2,0.4c-0.6,1.5-1.4,3-1.4,4.6c0,0.9-0.1-0.8,0,0.1
				c0.1,1.8,1.3,3.2,2.3,4.6c0.7,0.8,1.2,1.7,1.6,2.7c0.1,0.5,0.2,1,0.1,1.5c-0.1,0.4-0.2,0.8-0.3,1.3c0,0.2-0.1,0.4-0.1,0.7
				c0,0.7,0.1,1.4,0.3,2.1c0.3,1.1,0.5,2.1,0.6,3.2c0,0.4,0,0.7,0,1.1c0,0.6-0.2,1.3-0.3,2c-0.1,0.7-0.4,1.5,0.1,2
				c0.2,0.2,0.5,0.3,0.7,0.4c0.3,0.1,0.6,0.1,0.8,0c1-0.1,1.9-0.1,2.9,0c1.6,0.3,3.1,1.1,4.4,2.2l0.4,0.3c1.1,0.9,2.1,2.1,2.8,3.4
				c0.2,0.4,0.4,0.8,0.6,1.3c0.1,0.3,0.2,0.5,0.3,0.8c0.1,0.6,0.4,1.2,0.7,1.7c0.3,0.4,0.7,0.6,1.1,0.7c0.2,0.1,0.4,0.1,0.5,0.1
				c0.7,0.1,1.4,0.2,2,0.4c0.8,0.2,1.5,0.4,2.3,0.6c0.5,0.2,0.9,0.3,1.3,0.5c0.4,0.2,0.7,0.3,1,0.4c1.6,0.6,3.3,0.8,5,0.5
				c1.2-0.1,2.4-0.6,3.4-1.3c0.6-0.5,1.1-1.1,1.4-1.8c0.1-0.2,0.3-0.5,0.4-0.7c0.5-1,1.2-1.8,2.1-2.4c0.2-0.1,0.5-0.2,0.7-0.3
				c0.3-0.1,0.6-0.2,0.8-0.3c0.4-0.1,0.8-0.3,1.2-0.5l0.2-0.2c0.3-0.2,0.6-0.5,0.9-0.8c0.5-0.4,0.9-0.9,1.2-1.4
				c0.2-0.5,0.1-0.5-0.1-0.8c-0.3-0.5-0.5-1.1-0.6-1.7c-0.1-0.9-0.2-1.8-0.3-2.8c-0.1-2.2,0.2-4.4,2.1-5.8c0.3-0.2,0.5-0.3,0.8-0.5
				c1.4-0.7,2.8-0.8,4.1-1.4l0.6-0.3c0.6-0.3,1.1-0.8,1.6-1.3c0.6-0.6,1-1.2,1.5-1.7c0.1-0.1,0.2-0.2,0.3-0.3c1.1-1,2.3-2,3-3.5
				c0.3-0.9,0.5-1.9,0.3-2.9c0-0.8-0.1-1.7-0.2-2.6v-0.7c0-1.6-0.1-3-1.1-4.5s-1.8-3.1-2.9-4.5c-0.5-0.6-1-1.1-1.5-1.6
				c-0.8-0.8-1.6-1.6-2.3-2.5c-0.5-0.7-1-1.4-1.5-2c-0.3-0.5-1-1.6-1.6-1.8c-0.6-0.2-1.1,0.8-1.4,1.8c-0.1,0.4-0.3,0.9-0.4,1.3
				c-0.7,1.5-1.7,2.8-3,3.8c-0.6,0.5-1.3,0.8-2,1c-0.6,0.1-1.2,0.1-1.8,0c-0.2,0-0.4-0.1-0.7-0.2c-0.5-0.2-0.9-0.5-1.3-1
				c-0.3-0.4-0.6-0.9-0.6-1.5c0-0.2,0-0.3,0-0.5c0.1-0.4,0.7-1.2,0.8-1.8c0-0.1,0-0.3,0-0.4s-0.1-0.3-0.3-0.4
				c-0.6-0.2-1.3-0.4-1.9-0.4L52.3,24c-0.6-0.1-1.2-0.3-1.7-0.7c-1.3-0.9-2-2.7-2.9-4c-0.7-0.9-1.6-1.7-2.7-2.2
				c-0.5-0.3-1.1-0.6-1.7-0.9c-0.4-0.2-0.9-0.4-1.3-0.6c-0.4-0.2-0.8-0.3-1.1-0.4c-0.3-0.1-0.8-0.3-1.2-0.5c-0.3-0.1-0.7-0.1-1,0
				c-0.7,0.4-1.2,1-1.5,1.7c-0.5,0.9-0.9,1.8-1.3,2.7c0,0.1,0,0.2-0.1,0.2c-0.1,0.3-0.2,0.7-0.3,1c-0.2,0.5-0.5,0.9-0.9,1.3l0.1,0.4
				c-0.4,0.4-0.9,0.7-1.4,0.9C32.9,23,32.6,23.2,32.4,23.5z"/>
			<path class="st1" d="M30.9,24.4c-0.8,1.2,0,2.6,0.6,3.7c0.4,0.8,1.1,1.8-0.2,1.6c-0.9-0.1-1.8,0-2.6,0.4
				c-0.5,0.2-0.9,0.4-1.5,0.6c-1.4,0.5-2.7,1.2-3.8,2.1c-1,1-1.7,2.2-2.1,3.5l-0.2,0.4c-0.6,1.3-1.3,2.6-1.3,4.1
				c0,0.8-0.1-0.6,0,0.2c0,1.6,1,2.9,1.9,4.2c0.7,0.9,1.3,1.8,1.8,2.8c0.2,0.5,0.2,1,0.2,1.5s-0.1,0.9-0.2,1.4
				c0,0.2-0.1,0.5-0.1,0.7c0,0.8,0.1,1.5,0.4,2.2c0.6,1.4,0.9,3,0.7,4.5c-0.1,0.7-0.3,1.4-0.4,2c-0.2,0.7-0.4,1.6,0,2.1
				c0.2,0.2,0.5,0.3,0.7,0.4c0.3,0.1,0.6,0.1,0.8,0.1c1-0.1,2-0.1,3,0c1.7,0.3,3.3,1,4.6,2.1l0.4,0.3c1.2,0.9,2.2,2.1,2.9,3.4
				c0.2,0.4,0.4,0.9,0.6,1.3c0.1,0.3,0.2,0.5,0.2,0.8c0.1,0.6,0.3,1.2,0.7,1.8c0.3,0.3,0.7,0.5,1.2,0.6c0.2,0,0.4,0,0.5,0
				c0.7,0,1.4,0.1,2.1,0.1c0.8,0.1,1.6,0.3,2.4,0.5c0.5,0.2,0.9,0.4,1.4,0.6c0.3,0.2,0.7,0.3,1,0.5c1.7,0.6,3.5,0.8,5.2,0.5
				c1.4-0.1,2.7-0.6,3.8-1.4c0.6-0.6,1.1-1.2,1.4-2c0.1-0.3,0.3-0.5,0.5-0.8c0.6-1,1.5-1.8,2.7-2.2c0.3-0.1,0.6-0.1,0.8-0.1
				c0.3,0,0.6,0,0.9,0c0.5,0.1,0.9,0,1.4-0.2c0.1,0,0.2-0.1,0.2-0.2c0.4-0.3,0.7-0.7,1-1c0.5-0.5,0.9-1,1.3-1.6
				c0.3-0.4,0.2-0.5,0-0.8c-0.2-0.5-0.2-1.1-0.2-1.6c0-0.8,0.1-1.7,0.2-2.6c0.2-2,0.8-4.1,2.6-5.5c0.2-0.2,0.5-0.3,0.7-0.5
				c1.3-0.8,2.4-1.2,3.4-2l0.5-0.4c0.5-0.4,0.9-0.9,1.2-1.4c0.4-0.6,0.7-1.2,0.9-1.8c0-0.1,0.1-0.2,0.2-0.3c0.7-1.1,1.9-2.2,2.4-3.8
				c0.2-0.9,0.3-1.9,0.1-2.9c-0.1-0.8-0.2-1.7-0.2-2.5v-0.7c0-1.6-0.4-3.1-1.2-4.5c-1-1.5-1.8-3.1-3-4.4c-0.5-0.6-1-1.1-1.5-1.6
				c-0.8-0.8-1.6-1.6-2.3-2.5c-0.5-0.7-1-1.3-1.4-2.1c-0.3-0.5-0.9-1.6-1.5-1.8c-0.6-0.2-1.1,0.5-1.5,1.3c-0.2,0.4-0.4,0.9-0.6,1.1
				c-0.7,1.4-1.7,2.6-2.9,3.7c-0.5,0.5-1.2,0.9-1.9,1.2c-0.5,0-1.1-0.1-1.6-0.3c-0.2-0.1-0.4-0.2-0.5-0.3c-0.8-0.6-1.5-1.4-1.9-2.3
				c0-0.1-0.1-0.2-0.1-0.4c-0.1-0.3,0.3-0.8,0.2-1.3c0-0.1,0-0.2-0.1-0.3c-0.1-0.1-0.2-0.2-0.3-0.2c-0.6-0.2-1.2-0.3-1.9-0.4
				L53,23.8c-0.6-0.1-1.1-0.4-1.6-0.7c-1.3-0.9-2-2.6-2.9-3.8c-0.9-1-1.9-1.9-3.1-2.4c-0.6-0.3-1.2-0.7-1.9-1.1
				c-0.5-0.2-1-0.5-1.5-0.6c-0.4-0.1-0.9-0.2-1.3-0.2c-0.4-0.1-0.9-0.1-1.4,0c-0.3,0.1-0.7,0.2-0.9,0.4c-0.6,0.6-1.1,1.3-1.5,2
				c-0.7,0.9-1.3,1.8-1.7,2.9c0,0.1-0.1,0.2-0.1,0.3c-0.1,0.4-0.2,0.7-0.3,1.1c-0.3,0.5-0.6,1-1.1,1.3l-0.2,0
				c-0.5,0.3-1.1,0.6-1.7,0.7C31.4,23.8,31.1,24,30.9,24.4z"/>
			<path class="st1" d="M29.1,24.5c-0.7,1-0.1,2.4,0.3,3.3c0.3,0.7,0.8,1.5-0.2,1.6c-0.7,0.1-1.4,0.3-2,0.7L26,30.8
				c-1,0.6-2.1,1.3-3,2.2c-0.8,0.9-1.4,2-1.8,3.2L21,36.4c-0.6,1.1-1,2.3-1.2,3.6c0,0.6-0.1-0.4-0.1,0.3c0,1.4,0.7,2.6,1.5,3.8
				c0.8,0.9,1.5,1.9,2,2.9c0.2,0.5,0.3,1,0.3,1.6c0,0.5-0.1,0.9-0.2,1.4c-0.1,0.3-0.1,0.5-0.1,0.8c0,0.8,0.1,1.6,0.5,2.4
				c0.6,1.1,0.9,2.3,0.9,3.5c0,0.4-0.1,0.8-0.1,1.2c-0.2,0.7-0.4,1.4-0.6,2.1c-0.2,0.7-0.5,1.6-0.1,2.2c0.2,0.2,0.4,0.4,0.7,0.5
				c0.3,0.1,0.5,0.2,0.8,0.2c1,0.1,2.1,0,3,0.1c1.7,0.2,3.3,0.9,4.7,2c0.1,0.1,0.3,0.2,0.4,0.3c1.6,1.2,2.8,3,3.4,5
				c0.1,0.3,0.1,0.5,0.2,0.8c0,0.7,0.3,1.3,0.6,1.9c0.2,0.2,0.4,0.3,0.6,0.3c0.2,0.1,0.4,0.1,0.7,0.1h0.6c0.7-0.1,1.4-0.1,2.2-0.1
				s1.6,0.1,2.4,0.4c0.5,0.2,0.9,0.4,1.4,0.6c0.3,0.2,0.7,0.4,1,0.5c1.7,0.6,3.5,0.8,5.3,0.6c1.5,0,2.9-0.5,4.1-1.5
				c0.6-0.7,1.1-1.4,1.3-2.3c0.1-0.3,0.3-0.6,0.5-0.9c0.3-0.6,0.8-1,1.3-1.4s1.2-0.6,1.8-0.7c0.3,0,0.6,0,0.9,0.1
				c0.3,0.1,0.7,0.2,1,0.2c0.4,0.1,0.9,0.4,1.5,0.1c0.1,0,0.2-0.1,0.3-0.2c0.4-0.4,0.7-0.8,1-1.2c0.5-0.6,1-1.2,1.4-1.8
				c0.1-0.1,0.2-0.2,0.2-0.4c0-0.1,0-0.3,0-0.4c0-0.5,0.1-1.1,0.2-1.6c0.2-0.8,0.4-1.6,0.7-2.5c0.5-2,1.5-3.8,3-5.2l0.7-0.6
				c1-0.8,1.9-1.7,2.7-2.7c0.1-0.1,0.2-0.3,0.3-0.4c0.4-0.5,0.7-1,0.9-1.6c0.2-0.6,0.3-1.3,0.4-1.9c0-0.1,0-0.2,0.1-0.3
				c0.3-1.2,1.5-2.4,1.8-4c0.1-1,0.1-1.9-0.2-2.9c-0.1-0.8-0.3-1.7-0.3-2.5l-0.1-0.7c0-1.6-0.5-3.1-1.3-4.5c-0.9-1.5-1.9-3-3-4.4
				c-0.5-0.6-1-1.1-1.5-1.6c-0.8-0.8-1.6-1.6-2.3-2.5c-0.5-0.7-1-1.4-1.4-2.1c-0.3-0.7-0.7-1.3-1.3-1.8c-0.6-0.3-1.1,0.1-1.6,0.8
				c-0.3,0.3-0.5,0.7-0.7,1c-0.9,1.2-1.7,2.8-2.7,3.7c-0.4,0.3-1,1.1-1.7,1.2c-0.6,0.1-1-0.4-1.3-0.6c-0.2-0.1-0.3-0.2-0.4-0.4
				c-0.7-0.7-1.3-1.7-1.8-2.2c-0.1-0.1-0.1-0.1-0.2-0.2c-0.2-0.1-0.1-0.4-0.4-0.8c-0.1-0.2-0.3-0.3-0.5-0.4
				c-0.5-0.2-1.3-0.3-1.8-0.4L53,22.8c-0.6-0.2-1.1-0.4-1.5-0.8c-1.2-0.9-1.9-2.5-2.8-3.7c-0.9-1.1-2.1-2-3.4-2.6
				c-0.7-0.4-1.3-0.9-2-1.3c-0.5-0.3-1-0.5-1.5-0.7c-0.5-0.1-1-0.1-1.4-0.1c-0.5,0.1-1,0.2-1.4,0.5c-0.3,0.2-0.6,0.5-0.9,0.8
				c-0.6,0.8-1.1,1.5-1.5,2.4c-0.7,1.1-1.8,1.9-2.1,3c0,0.1-0.1,0.2-0.1,0.3c-0.1,0.4-0.2,0.8-0.3,1.2c-0.3,0.6-0.8,1.1-1.3,1.4
				l-0.1,0.1c-0.6,0.3-1.3,0.5-2,0.5c-0.2,0-0.4,0.1-0.6,0.2C29.4,24.2,29.2,24.4,29.1,24.5z"/>
			<path class="st1" d="M26.5,25.7c-0.6,0.9-0.2,2.1,0.1,2.9c0.2,0.6,0.5,1.3-0.2,1.5c-0.6,0.2-1.1,0.6-1.5,1
				c-0.3,0.2-0.6,0.5-0.9,0.8c-0.9,0.6-1.7,1.3-2.5,2.1c-0.7,0.8-1.3,1.7-1.7,2.7V37c-0.6,1-1,2-1.2,3.2c0,0.5-0.1-0.1-0.1,0.4
				c0,1.2,0.4,2.4,1.2,3.3c0.8,0.9,1.5,1.9,2.1,3c0.3,0.5,0.4,1.1,0.5,1.6c0,0.5,0,1-0.2,1.5C22,50.3,22,50.5,22,50.8
				c0,0.8,0.2,1.7,0.6,2.4c0.7,1.1,1,2.3,1,3.6c0,0.4-0.1,0.8-0.2,1.2c-0.2,0.7-0.5,1.4-0.8,2.1c-0.3,0.8-0.6,1.6-0.2,2.3
				c0.2,0.2,0.4,0.4,0.7,0.5c0.3,0.1,0.6,0.2,0.9,0.2c1,0.2,2.2,0,3.2,0.1c1.8,0.2,3.5,0.8,5,1.9l0.4,0.3c1.3,1,2.3,2.2,2.9,3.7
				c0.2,0.5,0.4,1,0.5,1.4c0.1,0.3,0.1,0.6,0.2,0.8c0.1,0.6,0.1,1.5,0.6,1.9c0.2,0.1,0.4,0.2,0.7,0.3c0.2,0,0.5,0,0.7,0l0.6-0.1
				c0.7-0.2,1.5-0.3,2.3-0.3c1.4-0.1,2.8,0.2,4,1c0.3,0.2,0.7,0.4,1.1,0.6c1.7,0.8,3.7,0.7,5.6,0.6c1.7,0.1,3.3-0.5,4.5-1.6
				c0.6-0.8,1.1-1.6,1.4-2.6c0.1-0.3,0.3-0.7,0.5-0.9c0.4-0.6,1-1.1,1.6-1.4c0.7-0.3,1.4-0.5,2.1-0.4c0.4,0.1,0.7,0.2,1,0.3
				c0.4,0.1,0.7,0.3,1.1,0.5c0.5,0.2,1,0.7,1.7,0.4c0.1,0,0.2-0.1,0.3-0.2c0.4-0.4,0.8-0.8,1-1.3c0.5-0.7,1.1-1.3,1.6-1.9
				c0.2-0.2,0.3-0.4,0.4-0.7c0.2-0.5,0.4-1,0.7-1.5c0.4-0.7,0.8-1.5,1.2-2.3c0.8-1.9,2-3.6,3.5-5c0.2-0.2,0.4-0.4,0.6-0.6
				c0.9-0.9,1.7-2,2.1-3.3c0.1-0.2,0.2-0.3,0.2-0.5c0.3-0.6,0.5-1.1,0.6-1.8s0-1.3-0.2-2c0-0.1,0-0.2,0-0.3c0-1.3,1.1-2.6,1.2-4.2
				c0-1-0.2-1.9-0.5-2.8c-0.2-0.8-0.3-1.7-0.4-2.5l0-0.6c-0.1-1.6-0.6-3.1-1.5-4.4c-0.9-1.5-2-3-3.2-4.3c-0.5-0.6-1-1.1-1.6-1.6
				c-0.8-0.8-1.6-1.6-2.4-2.4c-0.5-0.6-1-1.3-1.4-2.1c-0.3-0.7-0.7-1.3-1.3-1.8c-0.6-0.4-1.1-0.2-1.8,0.2c-0.3,0.2-0.6,0.5-0.9,0.8
				c-1,1-1.8,2.6-2.7,3.6c-0.3,0.3-1,1.3-1.6,1.3s-0.9-0.6-1.1-0.9c-0.1-0.1-0.2-0.3-0.3-0.5c-0.5-0.8-1-1.8-1.8-2.1
				c-0.1,0-0.2,0-0.3,0c-0.3,0-0.7-0.1-0.9-0.2s-0.4-0.2-0.6-0.3c-0.5-0.1-1.3-0.2-1.8-0.4l-0.2,0c-0.5-0.2-1-0.4-1.5-0.8
				c-1.2-0.9-1.9-2.3-2.8-3.5c-1.1-1.2-2.4-2.1-3.9-2.8c-0.8-0.4-1.4-1-2.2-1.5c-0.5-0.4-1.1-0.6-1.8-0.7c-0.5-0.1-1.1,0-1.6,0.1
				c-0.6,0.2-1.2,0.5-1.6,1c-0.3,0.4-0.6,0.7-0.8,1.2c-0.5,0.8-0.9,1.8-1.6,2.7c-0.8,1.2-2.2,1.8-2.6,3.1c0,0.1-0.1,0.2-0.1,0.3
				c-0.1,0.5-0.2,0.9-0.3,1.3c-0.3,0.7-0.9,1.2-1.6,1.5L30,25c-0.7,0.3-1.5,0.4-2.3,0.3c-0.2,0-0.5,0-0.7,0.1
				C26.8,25.4,26.6,25.5,26.5,25.7z"/>
			<path class="st1" d="M24.8,26.3c-0.5,0.8-0.2,1.8-0.1,2.6c0.1,0.6,0.2,1.1-0.2,1.5c-0.3,0.4-0.6,0.9-0.9,1.4
				c-0.2,0.3-0.4,0.6-0.6,0.8c-0.6,0.7-1.2,1.4-1.8,2.2c-0.5,0.7-1,1.5-1.4,2.4l-0.1,0.2c-0.5,0.9-0.9,1.8-1.1,2.7
				c0,0.3-0.1,0.1-0.1,0.5c-0.1,1.1,0.2,2.1,0.8,2.9c0.7,1,1.6,2,2.2,3.2c0.3,0.5,0.5,1.1,0.6,1.7c0,0.5,0,1.1-0.1,1.6
				c0,0.4,0,0.6,0,0.9c0,0.9,0.2,1.8,0.7,2.5c0.8,1.1,1.2,2.5,1.1,3.9c0,0.4-0.1,0.9-0.2,1.3c-0.3,0.8-0.6,1.5-1,2.2
				c-0.4,0.8-0.7,1.7-0.3,2.4c0.2,0.3,0.4,0.5,0.7,0.6c0.3,0.2,0.6,0.3,0.9,0.3c1,0.1,2.1,0.2,3.1,0.1c1.8,0.1,3.6,0.8,5.1,1.9
				l0.4,0.3c1.3,1,2.3,2.3,2.9,3.9c0.2,0.5,0.3,1,0.4,1.6c0.1,0.3,0.1,0.6,0.1,0.9c0.1,0.6,0,1.6,0.6,2c0.6,0.5,0.9,0.2,1.4,0.1
				l0.6-0.2c0.8-0.3,1.5-0.4,2.3-0.5c0.9-0.1,1.8-0.1,2.6,0.2c0.5,0.2,1,0.5,1.4,0.8c0.3,0.2,0.7,0.4,1,0.6c1.7,0.9,3.7,0.7,5.6,0.6
				c1.8,0,3.5-0.3,4.8-1.7c0.8-0.8,0.9-1.9,1.3-2.9c0.3-1,1-1.7,1.9-2.3c0.9-0.5,1.9-0.7,2.8-0.5c0.4,0.1,0.8,0.3,1.1,0.5
				c0.4,0.2,0.8,0.5,1.1,0.7c0.5,0.3,1,1,1.8,0.7c0.1,0,0.2-0.1,0.3-0.2c0.4-0.4,0.8-0.9,1-1.5c0.5-0.8,1-1.5,1.7-2.1
				c0.2-0.2,0.4-0.4,0.6-0.7c0.3-0.5,0.7-0.9,1.1-1.4c0.5-0.7,1.1-1.4,1.6-2.2c1.1-1.8,2.4-3.4,3.9-4.9c0.2-0.2,0.4-0.4,0.6-0.7
				c1-1.2,1.2-2.4,1.4-4c0-0.2,0.1-0.4,0.1-0.6c0.1-0.7,0.2-1.4,0.2-2c-0.1-0.8-0.3-1.5-0.8-2.1c-0.1-0.1-0.1-0.2-0.1-0.4
				c-0.4-1.4,0.7-2.9,0.6-4.5c-0.1-1-0.4-2-0.8-2.9c-0.2-0.8-0.4-1.7-0.5-2.5c0-0.2-0.1-0.5-0.1-0.7c-0.2-1.6-0.7-3.1-1.5-4.5
				c-0.9-1.6-2-3-3.2-4.4c-0.5-0.6-1-1.1-1.5-1.6c-0.8-0.8-1.6-1.6-2.3-2.5c-0.5-0.7-1-1.4-1.3-2.2c-0.3-0.7-0.6-1.3-1.1-1.8
				c-0.3-0.2-0.6-0.4-0.9-0.5c-0.3,0-0.7,0-1,0.2c-0.4,0.2-0.7,0.4-1,0.7c-1,1-1.8,2.6-2.5,3.6c-0.2,0.3-0.8,1.4-1.3,1.4
				s-0.7-0.9-0.9-1.2c-0.1-0.2-0.1-0.3-0.2-0.5c-0.3-0.9-0.7-2-1.7-2c-0.1,0-0.3,0-0.4,0c-0.5,0.2-1,0.3-1.5,0.3
				c-0.2,0-0.4-0.1-0.7-0.1c-0.6-0.1-1.1-0.2-1.7-0.4L52,21.9c-0.5-0.2-0.9-0.5-1.4-0.9c-1-1-1.9-2.2-2.8-3.3
				c-0.8-0.9-2.2-2-3.8-2.7c-0.8-0.5-1.5-1.2-2.3-1.7c-0.6-0.4-1.2-0.7-1.9-0.8c-0.6-0.1-1.2,0-1.8,0.3c-0.7,0.3-1.3,0.8-1.6,1.5
				c-0.3,0.5-0.5,1-0.8,1.6C35.2,17,34.7,18,34.1,19c-0.9,1.2-2.5,1.8-3,3.3c0,0.1-0.1,0.2-0.1,0.4c0,0.5-0.1,1-0.3,1.5
				c-0.4,0.7-1,1.3-1.8,1.6l-0.2,0.1c-0.8,0.3-1.7,0.3-2.5,0.1C25.6,25.8,25.2,25.7,24.8,26.3z"/>
			<path class="st1" d="M17.8,42.8c1,1.6,2.9,3.2,3.2,5.1c0,0.8,0,1.7-0.2,2.5c-0.1,0.9,0.2,1.9,0.8,2.6c0.6,0.7,1,1.6,1.2,2.6
				c0.2,0.9,0.2,1.9-0.1,2.8c-0.4,1.4-2.4,3.4-1.5,4.9c0.9,1.6,3.3,1.2,4.8,1.3c1.9,0.1,3.8,0.7,5.4,1.8c1.6,1,2.9,2.6,3.5,4.4
				c0.3,0.8,0.4,1.7,0.5,2.5c0.1,0.6,0,1.7,0.5,2.1s1.1,0.1,1.6-0.1c1-0.5,2-0.8,3-1c0.9-0.2,1.8-0.2,2.7,0.1
				c0.9,0.4,1.8,0.9,2.6,1.5c1.8,1,3.9,0.6,5.9,0.7s3.8-0.3,5.2-1.8c1.2-1.3,0.9-3,1.9-4.3c0.5-0.7,1.3-1.2,2.1-1.5s1.7-0.3,2.6,0
				c0.9,0.4,1.7,1,2.4,1.6c0.5,0.5,1.1,1.3,1.9,1s1.1-1.2,1.5-1.9c0.5-0.9,1.1-1.6,1.8-2.3c1.5-1.4,3-2.6,4.4-4.1s3-3.1,4.4-4.7
				c1.4-1.6,1.4-3.2,1.3-5.3c0.1-1,0-1.9-0.1-2.9c-0.2-0.8-0.7-1.6-1.3-2.2c-1.2-1.6,0.1-3.4-0.1-5.1c-0.2-1-0.6-2-1-2.9
				c-0.3-1.1-0.6-2.1-0.7-3.2c-0.7-4.1-3.7-7.6-6.6-10.4c-1.5-1.5-2.9-2.7-3.7-4.7c-0.6-1.4-1.4-2.9-3.1-2.7
				C63,19.6,62,22,61.1,23.4c-0.2,0.3-0.7,1.5-1.2,1.5s-0.6-1.1-0.7-1.5c-0.2-1.1-0.3-2.9-1.8-2.5c-0.9,0.2-1.6,0.9-2.6,1
				c-1,0.2-1.9,0-2.8-0.4c-1.7-0.8-2.9-2.7-4.1-4.2c-1.4-1.6-2.8-2.3-4.6-3.3c-1.6-0.9-2.7-2.7-4.6-2.8c-0.8,0-1.6,0.2-2.2,0.6
				c-0.7,0.4-1.2,1.1-1.5,1.8c-0.8,1.8-1.2,3.9-2.4,5.4c-1,1.3-2.9,1.8-3.5,3.5c-0.1,0.7-0.2,1.4-0.4,2c-0.2,0.4-0.5,0.7-0.8,1
				s-0.7,0.5-1.2,0.6c-1,0.3-2.1,0.3-3.1,0c-0.7-0.1-1.2-0.2-1.6,0.4s-0.3,1.6-0.4,2.3c-0.1,1.1-0.2,2.1-0.5,3.2
				c-0.5,2.1-1.8,3.6-2.8,5.4C17.6,39.1,16.7,41.1,17.8,42.8z"/>
			<path class="st1" d="M23.2,25.9c-0.4,0.7-0.7,1.5-0.8,2.3c-0.3,1.1-0.5,2.3-0.8,3.4c-0.1,0.5-0.3,1-0.5,1.5c-0.4,1.1-1,2.1-1.7,3
				c-0.3,0.5-0.6,1-0.9,1.5c-0.3,0.6-0.6,1.2-0.8,1.9c-0.2,0.5-0.3,1.1-0.3,1.6c0,0.6,0.1,1.1,0.3,1.6c0.2,0.4,0,0.3,0.3,0.6
				c1.1,1.4,2.5,3,3.1,4.7c0,0.1,0.1,0.2,0.1,0.4c0.1,0.8,0.1,1.7,0,2.5c0,0.9,0.3,1.9,0.9,2.6c0.5,0.8,0.9,1.7,1,2.6
				c0.1,0.9,0,1.9-0.3,2.8c0,0.1-0.1,0.2-0.1,0.4c-0.6,1.4-2,3.1-1.1,4.5c1,1.5,3.3,1.2,4.9,1.2l0.8,0.1c1.7,0.2,3.3,0.8,4.6,1.7
				c0.4,0.2,0.7,0.5,1,0.8c1.1,1,1.9,2.2,2.4,3.6c0.1,0.4,0.2,0.8,0.3,1.2c0.1,0.4,0.2,0.9,0.3,1.3c0.1,0.6,0.1,1.6,0.7,2
				c0.2,0.1,0.5,0.2,0.8,0.2s0.5-0.1,0.8-0.2c1-0.4,2-0.7,3-1c0.9-0.2,1.8-0.2,2.7,0l0.4,0.1c0.7,0.4,1.5,0.8,2.2,1.2
				c0.9,0.5,1.9,0.8,3,0.8c1,0,2-0.1,2.9,0c1,0.1,1.9,0,2.9-0.1c1-0.2,1.9-0.6,2.6-1.2c0.5-0.5,0.9-1.1,1.1-1.8
				c0.2-0.7,0.5-1.4,0.8-2c0.1-0.1,0.2-0.3,0.3-0.4c0.4-0.5,0.9-0.9,1.4-1.2c0.5-0.3,1.1-0.5,1.7-0.5c0.6,0,1.2,0.1,1.7,0.4
				c0.2,0.1,0.5,0.2,0.7,0.4c0.6,0.4,1.2,0.7,1.8,1c0.6,0.3,1.1,0.8,1.9,0.5c0.7-0.3,1.1-1.3,1.5-1.9c0.5-0.8,1.1-1.6,1.9-2.3
				c1.5-1.3,3-2.5,4.3-3.9c1.4-1.4,2.9-3,4.4-4.6c0.5-0.5,0.9-1.1,1.1-1.8c0.3-1,0.5-2.1,0.5-3.2c0.1-0.9,0.2-1.8,0.2-2.7
				c0-0.2-0.1-0.4-0.1-0.7c-0.2-0.5-0.5-1-0.8-1.5s-0.4-1-0.4-1.5c0-1.1,0.4-2.3,0.2-3.5c-0.3-1-0.7-2-1.2-3c-0.2-0.5-0.4-1-0.5-1.5
				c-0.2-0.6-0.3-1.2-0.5-1.9c-0.2-1-0.5-1.9-0.9-2.8c-0.6-1.4-1.4-2.7-2.4-3.9c-0.9-1.1-1.7-2.3-2.6-3.3c-0.4-0.4-0.7-0.7-1.1-1.1
				c-0.5-0.4-1-0.9-1.4-1.4c-0.4-0.4-0.7-0.9-1-1.4c-0.5-0.7-0.9-1.5-1.2-2.3c-0.5-1.3-1.3-2.5-2.7-2.4c-0.2,0-0.4,0-0.5,0.1
				c-0.7,0.2-1.4,0.6-1.9,1.2c-0.6,0.7-1.1,1.6-1.7,2.3c-0.1,0.1-0.2,0.3-0.3,0.4c-0.2,0.3-0.8,1.2-1.3,1.2c-0.6,0-0.7-1-0.8-1.2
				C60,23.2,60,23,59.9,22.8c-0.3-0.7-0.6-1.4-1.5-1.4c-0.1,0-0.2,0-0.3,0.1c-0.8,0.3-1.7,0.5-2.5,0.6c-0.9,0-1.9-0.2-2.7-0.7
				s-1.6-1.2-2.2-1.9c-0.6-0.7-1.2-1.5-1.8-2.2c-0.9-1-1.9-1.8-3-2.5c-0.4-0.3-0.8-0.5-1.3-0.8c-1.4-0.9-2.7-2.4-4.4-2.5
				c-0.8,0-1.5,0.2-2.1,0.6c-0.6,0.4-1.1,1-1.4,1.7c-0.4,0.9-0.7,1.8-1.1,2.7c-0.3,0.8-0.7,1.6-1.2,2.3c-1,1.3-2.7,1.8-3.3,3.3
				c-1.1,0-1.1,0.2-1.1,0.3c-0.1,0.5-0.2,0.9-0.4,1.3c-0.4,0.7-1.1,1.3-1.9,1.5c-0.9,0.3-1.9,0.4-2.9,0.2c-0.3-0.1-0.5-0.1-0.8,0
				C23.7,25.5,23.4,25.7,23.2,25.9z"/>
			<path class="st1" d="M23.1,24.2c-0.6,0.7-1,1.5-1.3,2.4c-0.4,1.2-0.8,2.4-1.2,3.7c-0.2,0.6-0.3,1.1-0.5,1.7
				c-0.4,1.2-1.1,2.4-1.9,3.4c-0.4,0.5-0.8,1.1-1.1,1.6c-0.4,0.7-0.6,1.4-0.9,2.1c-0.2,0.6-0.3,1.2-0.3,1.8s0.2,1.2,0.5,1.8
				c0.3,0.5-0.1,0,0.3,0.5c1.3,1.4,2.3,3.1,3,4.8c0,0.1,0.1,0.2,0.1,0.4c0.1,0.8,0.2,1.6,0.2,2.5c0.1,0.9,0.5,1.9,1,2.7
				s0.8,1.7,0.8,2.7c0.1,0.9-0.1,1.9-0.4,2.8c0,0.1-0.1,0.2-0.1,0.4c-0.6,1.4-2,3.2-0.9,4.5c1,1.3,3.3,1.2,4.9,1.2
				c0.3,0,0.5,0,0.8,0.1c1.6,0.2,3.2,0.8,4.6,1.7c0.4,0.2,0.7,0.5,1,0.8c1.1,1,1.9,2.3,2.3,3.7c0.1,0.4,0.2,0.8,0.3,1.2
				c0.1,0.4,0.2,0.8,0.3,1.3c0.2,0.6,0.3,1.5,0.8,1.9c0.2,0.1,0.5,0.2,0.7,0.2c0.3,0,0.5,0,0.8-0.2c1-0.3,2-0.7,3-0.9
				c0.9-0.2,1.8-0.3,2.7-0.2c0.1,0,0.2,0,0.4,0.1c0.8,0.3,1.6,0.7,2.3,1.2c0.9,0.5,1.9,0.8,2.9,0.8s2-0.1,2.9-0.1
				c1,0.1,1.9,0.1,2.9,0s1.9-0.4,2.7-1c0.6-0.5,1-1.1,1.3-1.7c0.2-0.7,0.5-1.4,0.8-2.1c0.1-0.1,0.2-0.3,0.3-0.4
				c0.4-0.5,0.9-0.9,1.5-1.2c0.5-0.3,1.1-0.4,1.7-0.4c0.6,0,1.2,0.2,1.7,0.5c0.2,0.1,0.4,0.3,0.7,0.4c0.6,0.4,1.2,0.6,1.9,0.7
				c0.6,0.1,1.1,0.3,1.8-0.1c0.6-0.6,1.1-1.2,1.5-2c0.5-0.9,1.2-1.6,1.9-2.3c1.5-1.3,2.9-2.5,4.3-3.9s2.9-3,4.3-4.5
				c0.5-0.5,0.9-1.1,1.2-1.7c0.4-1,0.7-2.1,0.8-3.1c0.2-0.9,0.3-1.7,0.4-2.6c0-0.2,0-0.4,0-0.6c-0.1-0.5-0.2-1-0.4-1.5
				c-0.2-0.5-0.2-1-0.2-1.5c0.1-1.1,0.1-2.3,0-3.4c-0.4-1.1-0.9-2.1-1.4-3.1c-0.2-0.5-0.4-1-0.6-1.6c-0.2-0.7-0.4-1.3-0.6-2
				c-0.3-1-0.7-2-1.2-3c-0.7-1.5-1.5-2.8-2.5-4.1c-1.2-1.6-1.9-2.9-2.9-4c-0.4-0.4-0.8-0.8-1.2-1.1c-0.6-0.4-1.1-0.9-1.6-1.4
				c-0.4-0.5-0.7-1-0.9-1.6c-0.4-0.8-0.8-1.7-1.1-2.6c-0.5-1.4-1.4-2.4-2.8-2.1c-0.2,0-0.3,0.1-0.5,0.1c-0.7,0.2-1.4,0.7-1.9,1.2
				c-0.7,0.7-1.2,1.6-1.8,2.2c-0.1,0.1-0.2,0.2-0.4,0.3c-0.3,0.2-0.9,0.9-1.5,0.9c-0.5-0.1-0.8-0.8-1-1c-0.1-0.1-0.2-0.2-0.3-0.3
				c-0.2-0.3-0.4-0.5-0.7-0.7c-0.3-0.1-0.6-0.2-1-0.1c-0.1,0-0.2,0-0.3,0c-0.8,0.2-1.7,0.3-2.5,0.3c-0.9-0.1-1.8-0.5-2.6-1
				c-0.8-0.6-1.6-1.3-2.2-2.1c-0.7-0.7-1.3-1.4-1.9-2.2C46,14.5,45,13.6,44,12.9c-0.4-0.3-0.8-0.5-1.2-0.8c-1.3-0.8-2.6-2.2-4.3-2.2
				c-0.7,0-1.4,0.3-2,0.7s-1.1,1-1.4,1.6c-0.4,0.8-0.8,1.7-1.1,2.6c-0.3,0.8-0.7,1.5-1.2,2.1c-0.9,1.2-2.4,1.8-3.1,3.2
				c-0.1,0.1-0.1,0.3-0.2,0.4c-0.1,0.4-0.3,0.8-0.4,1.2c-0.5,0.6-1.1,1.1-1.9,1.4c-0.9,0.3-1.8,0.5-2.7,0.4c-0.3,0-0.5,0-0.8,0.1
				C23.5,23.9,23.3,24,23.1,24.2z"/>
			<path class="st1" d="M24.2,23.7c-0.7,0.7-1.3,1.5-1.7,2.4c-0.6,1.3-1.1,2.6-1.5,4c-0.2,0.6-0.4,1.2-0.5,1.8
				c-0.4,1.4-1.1,2.7-2.1,3.7c-0.5,0.6-0.9,1.2-1.2,1.8c-0.4,0.7-0.7,1.5-0.9,2.4c-0.3,1.4-0.4,2.9,0.5,4c0.5,0.6-0.3-0.2,0.2,0.4
				c1.3,1.5,2.2,3.1,2.9,5l0.1,0.4c0.2,0.8,0.3,1.6,0.5,2.5s0.6,1.9,1,2.7c1,1.8,0.7,3.6,0,5.5c0,0.1-0.1,0.2-0.1,0.4
				c-0.6,1.4-1.9,3.3-0.7,4.6c1.2,1.3,3.3,1.1,4.9,1.1l0.8,0.1c1.6,0.2,3.2,0.7,4.6,1.6c0.4,0.2,0.7,0.5,1,0.8
				c1.1,1,1.8,2.3,2.2,3.7c0.1,0.4,0.2,0.8,0.3,1.2c0.1,0.4,0.2,0.9,0.4,1.3c0.1,0.7,0.5,1.4,1,1.9c0.2,0.1,0.5,0.2,0.7,0.2
				c0.3,0,0.5,0,0.8-0.1c1-0.2,2-0.6,3-0.9c0.9-0.3,1.8-0.4,2.7-0.3l0.4,0.1c0.8,0.2,1.6,0.6,2.3,1c0.9,0.5,1.9,0.8,2.9,0.9
				s2-0.1,2.9-0.1c1,0,2,0.2,3,0.2s2-0.3,2.8-0.8c0.6-0.4,1.1-1,1.5-1.6c0.4-0.7,0.5-1.4,0.9-2.1c0.1-0.1,0.2-0.3,0.3-0.4
				c0.4-0.5,0.9-1,1.5-1.3c0.5-0.3,1.1-0.4,1.7-0.4c0.6,0.1,1.2,0.3,1.6,0.7c0.2,0.1,0.4,0.3,0.6,0.5c0.3,0.2,0.6,0.4,0.9,0.5
				s0.7,0.1,1,0c0.6-0.1,1.2-0.3,1.7-0.6c0.6-0.6,1.1-1.3,1.5-2.1c0.6-0.9,1.2-1.7,2-2.4c1.4-1.3,2.9-2.5,4.2-3.8
				c1.4-1.4,2.9-2.9,4.3-4.4c0.5-0.5,0.9-1,1.2-1.6c0.5-0.9,0.8-1.9,1-3c0.2-0.8,0.5-1.7,0.6-2.5c0-0.2,0-0.4,0-0.6
				c0-0.5,0-1-0.1-1.5s-0.1-1-0.1-1.5c0.1-1.1,0-2.3-0.2-3.3c-0.5-1.1-1-2.2-1.7-3.3c-0.3-0.5-0.5-1.1-0.7-1.7
				c-0.2-0.7-0.5-1.4-0.7-2.1c-0.4-1.1-0.8-2.1-1.3-3.2c-0.7-1.6-1.6-3.1-2.6-4.5c-1-1.3-1.7-2.7-2.7-3.9c-0.4-0.4-0.8-0.8-1.3-1.2
				c-0.6-0.4-1.2-0.9-1.6-1.5s-0.7-1.2-0.9-1.8c-0.3-0.9-0.7-1.8-1-2.8c-0.5-1.5-1.5-2.2-2.9-1.9c-0.2,0-0.3,0.1-0.5,0.1
				c-0.7,0.3-1.4,0.7-1.9,1.2c-0.6,0.7-1.2,1.4-1.9,2.1c-0.1,0.1-0.3,0.2-0.4,0.3c-0.4,0.2-1,0.6-1.6,0.5c-0.5-0.1-0.9-0.7-1.2-0.8
				c-0.1-0.1-0.2-0.1-0.4-0.2c-0.6-0.3-1.2-0.4-1.8-0.3h-0.3c-0.8,0.1-1.7,0.1-2.5-0.1c-0.9-0.3-1.7-0.7-2.5-1.3
				c-0.8-0.6-1.5-1.3-2.2-2.1c-0.7-0.7-1.3-1.4-2-2.1c-0.8-0.9-1.6-1.7-2.5-2.5c-0.3-0.3-0.7-0.5-1.1-0.8c-1.3-0.9-2.5-2-4.1-1.9
				c-0.7,0.1-1.3,0.3-1.9,0.7c-0.6,0.4-1,0.9-1.3,1.5c-0.4,0.8-0.8,1.6-1.2,2.4c-0.3,0.7-0.7,1.4-1.2,2.1c-0.8,1.1-2.2,1.9-2.9,3.1
				c-0.1,0.1-0.1,0.3-0.2,0.4c-0.2,0.4-0.4,0.7-0.6,1.1c-0.5,0.6-1.1,1.1-1.8,1.3c-0.8,0.4-1.7,0.6-2.5,0.6
				C25,23.2,24.6,23.4,24.2,23.7z"/>
			<path class="st1" d="M24.2,22c-0.9,0.7-1.6,1.5-2.2,2.5c-0.8,1.4-1.4,2.8-1.9,4.4c-0.2,0.7-0.4,1.3-0.5,2
				c-0.4,1.5-1.2,2.9-2.3,4.1c-0.5,0.6-1,1.2-1.3,2c-0.4,0.8-0.7,1.7-0.9,2.6c-0.3,1.5-0.3,3.2,0.8,4.4c0.6,0.7-0.5-0.4,0.1,0.3
				c1.3,1.5,2.2,3.2,2.9,5l0.1,0.4c0.3,0.8,0.5,1.6,0.7,2.5c0.3,0.9,0.7,1.9,1.1,2.7c0.9,1.9,0.4,3.7-0.3,5.5l-0.2,0.4
				c-0.6,1.4-1.8,3.3-0.5,4.6c1.4,1.3,3.3,1,5,1.1c0.3,0,0.5,0,0.8,0.1c1.7,0.1,3.3,0.7,4.7,1.6c0.4,0.2,0.7,0.5,1,0.8
				c1.1,1,1.8,2.3,2.1,3.8c0.1,0.4,0.2,0.8,0.3,1.2c0.1,0.4,0.3,0.8,0.4,1.2c0.2,0.7,0.6,1.3,1.2,1.8c0.5,0.2,1,0.3,1.5,0.2
				c1-0.2,2.1-0.5,3.1-0.9c0.9-0.3,1.8-0.4,2.7-0.3H43c0.8,0.2,1.7,0.5,2.4,1c0.9,0.5,1.9,0.9,2.9,1s2-0.1,3-0.1s2,0.3,3,0.4
				s2.1-0.1,3-0.6c0.7-0.4,1.3-0.9,1.6-1.6c0.4-0.7,0.6-1.5,1-2.2c0.1-0.1,0.2-0.3,0.3-0.4c0.4-0.5,0.9-1,1.5-1.3
				c1.5-0.8,2.4-0.2,3.4,0.6l0.6,0.5c0.3,0.2,0.6,0.4,1,0.4s0.7-0.1,1-0.3c0.6-0.3,1.1-0.7,1.6-1.2c0.6-0.7,1.1-1.4,1.5-2.1
				c0.6-0.9,1.3-1.7,2.1-2.4c1.4-1.2,2.9-2.5,4.2-3.8c1.4-1.3,2.9-2.9,4.3-4.4c0.5-0.5,0.9-1,1.3-1.6c0.6-0.9,1-1.8,1.4-2.8
				c0.3-0.8,0.6-1.6,0.8-2.4c0.1-0.2,0.1-0.4,0.1-0.6c0.1-0.5,0.2-1,0.2-1.5s0.1-1,0.1-1.5c0.1-1.1-0.1-2.2-0.5-3.3
				c-0.5-1.2-1.2-2.3-1.9-3.4c-0.3-0.6-0.6-1.1-0.8-1.7c-0.3-0.7-0.6-1.4-0.9-2.2c-0.5-1.1-1-2.2-1.5-3.3c-0.8-1.7-1.7-3.3-2.8-4.7
				c-1.1-1.3-1.7-2.9-2.8-4.2c-0.4-0.5-0.9-0.9-1.4-1.2c-0.7-0.4-1.3-1-1.7-1.6c-0.4-0.6-0.6-1.3-0.8-2c-0.3-1-0.6-2-1-3
				c-0.6-1.5-1.6-2.1-3.1-1.7c-0.2,0-0.3,0.1-0.5,0.2c-0.7,0.3-1.4,0.7-1.9,1.3c-0.6,0.7-1.3,1.4-2.1,2C61.3,19.9,61.1,20,61,20
				c-0.6,0.2-1.2,0.3-1.7,0.2c-0.6-0.1-1-0.5-1.4-0.6c-0.1,0-0.3-0.1-0.5-0.1c-0.7,0-1.3,0.1-2,0.3c-0.1,0-0.2,0-0.3,0
				c-0.9,0.1-1.7-0.1-2.5-0.5c-0.9-0.4-1.7-1-2.4-1.6c-0.8-0.7-1.5-1.4-2.2-2.1c-0.7-0.7-1.4-1.4-2.1-2.1c-0.8-0.9-1.5-1.7-2.3-2.5
				c-0.3-0.3-0.6-0.6-1-0.8c-1.2-0.8-2.5-1.7-4-1.6c-0.6,0.1-1.3,0.3-1.8,0.7s-1,0.9-1.3,1.4c-0.5,0.7-0.8,1.5-1.2,2.2
				c-0.3,0.7-0.7,1.3-1.2,2c-0.8,1.1-1.9,1.9-2.8,3c-0.1,0.1-0.2,0.2-0.2,0.3c-0.2,0.3-0.4,0.7-0.6,1c-0.5,0.5-1.1,1-1.7,1.3
				c-0.8,0.4-1.6,0.6-2.4,0.8C25,21.6,24.6,21.7,24.2,22z"/>
			<path class="st1" d="M25.2,21.3c-1,0.6-1.9,1.5-2.7,2.5c-1,1.4-1.7,2.9-2.2,4.6c-0.2,0.7-0.4,1.4-0.6,2.2
				c-0.4,1.7-1.2,3.2-2.5,4.3c-1.3,1.3-2.1,3-2.4,4.8c-0.3,1.6-0.2,3.4,1,4.7c0.7,0.8-0.7-0.7,0.1,0.1c1.2,1.5,2.2,3.2,2.8,5
				l0.1,0.4c0.3,0.8,0.6,1.6,0.9,2.4c0.4,0.9,0.8,1.8,1.2,2.7c0.8,1.9,0.1,3.7-0.7,5.5c-0.1,0.1-0.1,0.2-0.1,0.4
				c-0.6,1.4-1.7,3.3-0.2,4.5c1.4,1.1,3.3,0.9,5,1l0.8,0.1c1.6,0.1,3.2,0.7,4.6,1.6c0.4,0.2,0.7,0.5,1,0.8c1,1,1.7,2.3,2,3.7
				c0.1,0.4,0.2,0.8,0.3,1.2c0.1,0.4,0.3,0.8,0.5,1.2c0.3,0.7,0.7,1.2,1.3,1.7c0.4,0.2,0.9,0.3,1.4,0.3c1-0.2,2.1-0.4,3.1-0.8
				c0.9-0.3,1.8-0.5,2.7-0.6H43c0.9,0.1,1.7,0.4,2.4,0.8c0.9,0.5,1.9,0.9,2.9,1s1.9-0.1,2.9-0.1c1,0.1,2.1,0.3,3.1,0.5
				c1.1,0.2,2.1,0.1,3.1-0.3c0.7-0.3,1.4-0.8,1.8-1.4c0.5-0.7,0.6-1.5,1-2.1c0.1-0.1,0.2-0.3,0.3-0.4c0.4-0.6,1-1,1.6-1.3
				c1.6-0.8,2.4-0.1,3.4,0.8c0.2,0.2,0.4,0.4,0.6,0.5c0.1,0.1,0.3,0.2,0.5,0.3C66.8,74,67,74,67.2,74s0.4-0.1,0.6-0.1
				c0.2-0.1,0.3-0.2,0.5-0.4c0.5-0.5,1-1.1,1.5-1.7c0.5-0.7,1-1.5,1.5-2.2c0.6-0.9,1.3-1.7,2.1-2.3c1.4-1.2,2.8-2.3,4.1-3.6
				c1.3-1.3,2.8-2.8,4.2-4.2c0.5-0.5,0.9-1,1.3-1.5c0.6-0.8,1.1-1.7,1.6-2.6c0.4-0.8,0.8-1.6,1.1-2.3c0.1-0.2,0.2-0.4,0.2-0.6
				c0.2-0.5,0.4-1,0.5-1.5s0.2-1,0.2-1.4c0-1.1-0.2-2.1-0.7-3.1c-0.6-1.2-1.3-2.4-2.1-3.5c-0.4-0.6-0.7-1.2-1-1.8
				c-0.3-0.7-0.7-1.5-1-2.2c-0.5-1.1-1.1-2.3-1.7-3.4c-0.8-1.8-1.8-3.4-2.9-5c-1.1-1.4-1.7-3.1-2.8-4.5c-0.4-0.5-0.9-0.9-1.5-1.3
				c-0.7-0.4-1.3-1-1.8-1.7c-0.4-0.7-0.6-1.4-0.7-2.1c-0.2-1.1-0.5-2.2-0.9-3.2c-0.6-1.6-1.7-1.9-3.1-1.4l-0.5,0.2
				c-0.7,0.3-1.3,0.7-1.9,1.2c-0.7,0.6-1.3,1.5-2.2,1.8c-0.2,0.1-0.3,0.1-0.5,0.1c-0.6,0.1-1.2,0.1-1.9-0.1c-0.5-0.2-1-0.3-1.6-0.4
				c-0.2,0-0.4,0-0.5,0.1c-0.7,0.2-1.2,0.7-2.1,0.8h-0.3c-0.9,0-1.7-0.3-2.4-0.9c-0.8-0.5-1.6-1.1-2.2-1.8c-0.7-0.7-1.4-1.4-2.2-2.1
				c-0.7-0.7-1.5-1.3-2.1-2c-0.7-0.7-1.3-1.5-2-2.3c-0.3-0.3-0.6-0.5-0.9-0.8c-1-0.9-2.4-1.3-3.7-1.2c-0.6,0.1-1.2,0.4-1.7,0.7
				c-0.5,0.4-0.9,0.8-1.2,1.3c-0.5,0.7-0.8,1.4-1.2,2c-0.3,0.6-0.7,1.2-1.1,1.8c-0.8,1-1.6,1.9-2.5,2.8L31,17.8
				c-0.2,0.3-0.5,0.5-0.8,0.8c-0.5,0.4-1.1,0.8-1.6,1.2c-0.7,0.4-1.4,0.7-2.2,1C26,20.8,25.6,21,25.2,21.3z"/>
			<path class="st1" d="M14.9,44.8c1.4,1.5,2,3.4,2.8,5.2s1.9,3.7,2.6,5.6c0.8,2.1-0.4,4.1-1.2,6c-0.6,1.5-1.7,3.4,0,4.6
				s3.9,0.8,5.8,1c2.1,0.1,4.1,1,5.7,2.4c1.6,1.5,1.6,3.2,2.3,5c0.5,1.6,1.6,3.2,3.4,3.2c2.1-0.1,4-1.5,6.2-1.5
				c2.1,0,3.4,1.7,5.4,1.9c1,0.1,2-0.1,3-0.1c1.1,0.1,2.1,0.4,3.2,0.7c1.8,0.4,4.1,0.1,5.3-1.5c0.4-0.7,0.7-1.5,1-2.3
				c0.4-0.8,1.1-1.4,1.9-1.8c2-1.1,2.7,0.5,4,1.7c1.7,1.4,2.9-1.6,3.6-2.7c1-1.8,2.2-3.4,3.7-4.7c3.4-2.9,6.6-6,9.6-9.3
				c1.3-1.6,2.5-3.4,3.5-5.3c0.6-0.9,1.1-1.9,1.2-3c0-1.1-0.3-2.2-0.9-3.2c-1-2-2.4-3.6-3.3-5.6s-2-4-3-6c-0.8-1.9-1.9-3.7-3.2-5.3
				c-1.2-1.4-1.6-3.3-2.8-4.8c-1-1.3-2.8-1.7-3.6-3.1c-0.3-0.7-0.5-1.6-0.6-2.4c-0.2-1.2-0.4-2.3-0.8-3.5c-0.6-1.7-1.8-1.8-3.3-1.2
				c-0.9,0.4-1.7,0.9-2.5,1.5c-0.8,0.6-1.4,1.5-2.4,1.7c-1.7,0.4-3.2-1.2-4.9-0.3c-0.8,0.4-1.4,1.2-2.3,1.4c-1.1,0.2-2-0.5-2.8-1.2
				c-1.6-1.3-2.8-3-4.3-4.4c-0.7-0.7-1.5-1.3-2.2-2s-1.2-1.6-1.8-2.4c-0.5-0.7-1.2-1.2-1.9-1.5c-0.8-0.3-1.6-0.4-2.4-0.3
				c-1.9,0.4-3,2.4-4,4c-1,1.8-2.3,3.3-3.8,4.7c-1.7,1.4-3.6,2.6-5.5,3.6c-3.9,2-5.5,5.7-6.3,9.9C19,31.3,18,33,16.6,34.2
				c-1.4,1.4-2.3,3.3-2.6,5.3C13.4,41.5,13.6,43.4,14.9,44.8L14.9,44.8z"/>
			<path class="st1" d="M25.1,19.4c-1.5,0.8-2.8,2.1-3.7,3.5c-0.5,0.8-0.9,1.7-1.2,2.6c-0.4,1-0.8,2.1-1.1,3.1
				c-0.1,0.3-0.2,0.6-0.3,0.9c-0.4,1.6-1.2,3.1-2.3,4.3l-0.4,0.5c-1.3,1.5-2.1,3.3-2.4,5.3v0.2c-0.3,1.8-0.2,3.8,1,5.2l0.1,0.2
				c0.5,0.6-0.9-1-0.1-0.1c1.2,1.5,2.2,3.3,2.8,5.1c0.7,1.8,1.5,3.5,2.2,5.2c0.1,0.1,0.1,0.3,0.2,0.4c0.3,0.8,0.4,1.7,0.2,2.5
				c-0.2,1.1-0.6,2.1-1,3.1l-0.2,0.4c-0.6,1.5-1.5,3.5,0,4.7s3.8,1,5.7,1.2c0.1,0,0.3,0,0.4,0c1.9,0.2,3.8,1,5.2,2.3
				c1.5,1.4,1.6,3.1,2.3,5c0.1,0.2,0.2,0.5,0.3,0.7c0.6,1.4,1.6,2.5,3.1,2.3h0.4c1.9-0.3,3.8-1.4,5.7-1.4c2-0.1,3.4,1.4,5.3,1.6
				c1,0.1,1.9-0.1,2.9,0c1.1,0.2,2.2,0.4,3.3,0.7c0.8,0.2,1.6,0.2,2.3,0.2c0.8,0,1.6-0.2,2.3-0.7c0.3-0.2,0.6-0.4,0.8-0.6
				c0.3-0.4,0.6-0.8,0.8-1.3c0.1-0.3,0.3-0.6,0.5-0.8c0.5-0.7,1.2-1.3,2-1.7c0.5-0.3,1-0.4,1.6-0.4c1,0.1,1.7,0.8,2.6,1.3
				c0.3,0.2,0.6,0.2,0.9,0.1c1.1-0.3,2-2.3,2.6-3.3l0.4-0.7c1-1.5,2.2-2.9,3.5-4c3.4-2.8,6.6-5.9,9.4-9.3c1.3-1.7,2.4-3.5,3.3-5.4
				l0.2-0.4c0.5-0.8,0.7-1.7,0.8-2.6c0-1.1-0.4-2.2-1-3.1c-0.5-0.9-1.1-1.8-1.6-2.6c-0.6-0.9-1.1-1.9-1.6-2.9
				c-0.8-1.8-1.9-3.3-2.8-5L80.2,35c-0.8-1.7-1.7-3.3-2.7-4.9c-0.1-0.1-0.2-0.3-0.3-0.4c-1.1-1.5-1.6-3.3-2.7-4.8
				c-0.7-0.8-1.5-1.5-2.4-2.1c-0.4-0.3-0.7-0.7-0.9-1.1c-0.4-0.7-0.6-1.5-0.7-2.3c-0.1-0.7-0.2-1.3-0.3-1.9c-0.1-0.5-0.2-1-0.5-1.4
				c-0.6-1.4-1.8-1.6-3.3-1.1c-0.8,0.3-1.5,0.7-2.2,1.1c-0.1,0.1-0.2,0.1-0.3,0.2c-0.8,0.6-1.4,1.4-2.4,1.7
				c-0.8,0.2-1.7,0.1-2.5-0.1s-1.6-0.2-2.3,0c-0.1,0.1-0.3,0.1-0.4,0.2c-0.6,0.5-1.3,0.8-2,1c-0.4,0.1-0.7,0.1-1.1,0
				c-0.7-0.2-1.3-0.6-1.8-1c-0.8-0.7-1.6-1.5-2.3-2.3c-0.7-0.7-1.3-1.4-2-2.1c-0.7-0.6-1.4-1.3-2.1-2.1c-0.6-0.8-1.1-1.7-1.7-2.5
				c-0.3-0.4-0.7-0.6-1.1-0.9c-1-0.6-2.2-0.8-3.4-0.6C37,8,35.6,9.9,34.6,11.3l-1.1,1.6c-0.7,1.2-1.6,2.3-2.7,3.1
				c-0.1,0.1-0.3,0.2-0.5,0.3C28.7,17.5,26.9,18.4,25.1,19.4z"/>
			<path class="st1" d="M25,18.2c-1.5,0.9-2.7,2.2-3.6,3.8c-0.4,0.9-0.8,1.8-1.1,2.7c-0.4,1.1-0.8,2.2-1.2,3.3l-0.3,0.9
				c-0.6,1.6-1.4,3.2-2.4,4.5L16.1,34c-1.2,1.7-1.9,3.6-2.3,5.6c0,0.1,0,0.1,0,0.2c-0.3,1.9-0.4,3.9,0.7,5.5c0,0.1,0.1,0.1,0.1,0.2
				c0.5,0.7-0.8-1.1-0.1-0.1c1.2,1.6,2.1,3.3,2.9,5.2c0.7,1.8,1.2,3.6,1.9,5.5l0.2,0.4c0.3,0.8,0.4,1.7,0.3,2.6
				c-0.2,1.1-0.5,2.2-1,3.2l-0.2,0.5c-0.5,1.6-1.4,3.6,0.1,4.9c1.4,1.3,3.7,1.2,5.5,1.4h0.4c1.9,0.2,3.8,1,5.2,2.3
				c1.4,1.4,1.6,3.2,2.2,5.1c0.1,0.2,0.2,0.5,0.3,0.7c0.6,1.5,1.5,2.5,3,2.3c0.1,0,0.2,0,0.4-0.1c1.9-0.4,3.7-1.3,5.6-1.4
				c1.9-0.1,3.4,1.1,5.3,1.3c0.9,0.1,1.9,0,2.9,0.1c1.1,0.2,2.3,0.4,3.4,0.7c0.8,0.2,1.6,0.3,2.4,0.3c0.8,0.1,1.7-0.1,2.5-0.4
				c0.3-0.2,0.6-0.4,0.8-0.6c0.4-0.4,0.7-0.8,0.9-1.2c0.2-0.3,0.4-0.5,0.6-0.8c0.6-0.7,1.4-1.3,2.2-1.7c0.5-0.3,1.1-0.4,1.6-0.4
				c0.9,0.1,1.8,0.3,2.7,0.6c0.3,0.1,0.5,0,0.8-0.1c1-0.6,1.9-2.6,2.6-3.7c0.2-0.2,0.3-0.5,0.5-0.7c1.1-1.5,2.4-2.9,3.8-4.2
				c3.4-2.9,6.5-6.1,9.3-9.7c1.2-1.7,2.3-3.6,3.1-5.6l0.2-0.4c0.4-0.8,0.6-1.8,0.6-2.7c-0.1-1.1-0.5-2.2-1.1-3.1
				c-0.5-0.9-1.1-1.8-1.6-2.7s-1-2-1.4-3c-0.9-1.7-1.9-3.4-3-5c-0.1-0.2-0.3-0.5-0.4-0.7c-0.8-1.7-1.6-3.4-2.6-5l-0.3-0.4
				c-1-1.6-1.5-3.4-2.6-4.9c-0.7-0.8-1.4-1.6-2.2-2.3c-0.3-0.3-0.6-0.7-0.9-1.1c-0.4-0.7-0.6-1.5-0.8-2.3c-0.1-0.6-0.2-1.3-0.2-2
				c0-0.5-0.2-1-0.5-1.4c-0.8-1.2-2.1-1.5-3.5-1c-0.8,0.2-1.5,0.6-2.2,1L64,15c-0.8,0.6-1.6,1.2-2.5,1.7c-0.8,0.3-1.6,0.3-2.4,0.2
				c-0.8-0.1-1.6-0.1-2.4,0.1c-0.1,0-0.3,0.1-0.4,0.2c-0.6,0.4-1.3,0.7-2,0.9C54,18,53.6,18,53.2,18c-0.7-0.2-1.3-0.5-1.8-1
				c-0.8-0.7-1.5-1.5-2.2-2.4c-0.6-0.8-1.3-1.5-2-2.2s-1.4-1.4-1.9-2.2c-0.5-0.9-1-1.8-1.7-2.6C43.4,7.3,43,7,42.5,6.8
				c-1.1-0.5-2.3-0.6-3.4-0.4c-1.9,0.4-3.3,2.1-4.4,3.6c-0.4,0.5-0.8,1.1-1.1,1.6c-0.7,1.3-1.6,2.4-2.7,3.3
				c-0.2,0.1-0.3,0.2-0.5,0.3C28.6,16.3,26.8,17.1,25,18.2z"/>
			<path class="st1" d="M24,17.8c-1.6,1-2.8,2.3-3.5,4c-0.4,0.9-0.7,1.9-1.1,2.8c-0.4,1.1-0.9,2.2-1.3,3.3c-0.1,0.3-0.2,0.6-0.4,0.9
				c-0.7,1.6-1.6,3.1-2.5,4.6l-0.3,0.5c-1.1,1.8-1.8,3.7-2.2,5.7c0,0.1,0,0.1,0,0.2c-0.3,1.9-0.5,3.9,0.5,5.6c0,0.1,0.1,0.1,0.1,0.2
				c0.5,0.8-0.7-1.1-0.1-0.1c1.2,1.6,2.2,3.3,3,5.1c0.8,1.8,1.1,3.7,1.8,5.5l0.2,0.4c0.3,0.8,0.5,1.7,0.5,2.6
				c-0.2,1.1-0.5,2.1-0.9,3.2c-0.1,0.1-0.1,0.3-0.1,0.5c-0.5,1.6-1.2,3.6,0.1,4.9c1.4,1.3,3.7,1.4,5.6,1.6h0.4c2,0.2,3.9,1,5.3,2.3
				c1.4,1.4,1.7,3.2,2.3,5c0.1,0.2,0.2,0.5,0.3,0.7c0.6,1.5,1.5,2.5,3.1,2.2l0.4-0.1c1.9-0.5,3.8-1.3,5.7-1.4c2-0.1,3.5,0.8,5.5,1
				c1,0.1,1.9,0.1,2.9,0.2c1.2,0.2,2.4,0.4,3.6,0.7c0.9,0.2,1.7,0.3,2.6,0.4c0.9,0.2,1.8,0.1,2.6-0.2c0.3-0.1,0.7-0.3,0.9-0.5
				c0.4-0.4,0.8-0.8,1.1-1.2c0.2-0.3,0.5-0.5,0.7-0.8c0.7-0.7,1.5-1.2,2.4-1.6c0.5-0.3,1.1-0.4,1.7-0.5c1.2-0.2,2.1,0,2.9-0.1
				c0.3,0,0.6-0.2,0.8-0.4c0.9-0.9,1.8-2.7,2.6-3.9c0.2-0.2,0.3-0.5,0.5-0.7c1.2-1.5,2.6-2.9,4.1-4.1c3.4-3,6.8-6,9.4-9.7
				c1.2-1.7,2.3-3.6,3-5.6l0.1-0.4c0.3-0.9,0.5-1.8,0.4-2.7c-0.2-1.1-0.6-2.1-1.2-3c-0.5-0.9-1-1.7-1.5-2.6s-0.9-1.9-1.3-2.9
				c-0.8-1.8-2.2-3.1-3.3-4.7c-0.1-0.2-0.3-0.4-0.4-0.7c-1-1.6-1.8-3.3-2.6-4.9l-0.2-0.4c-0.9-1.6-1.6-3.3-2.6-4.9
				c-0.6-0.9-1.3-1.7-2.1-2.4c-0.3-0.4-0.6-0.7-0.9-1.1c-0.4-0.7-0.7-1.4-0.9-2.2c-0.2-0.6-0.2-1.3-0.2-1.9c0-0.3,0-0.5-0.1-0.7
				S71.2,15,71,14.9c-0.5-0.5-1.1-0.8-1.7-1c-0.7-0.2-1.4-0.1-2,0.1c-0.8,0.2-1.6,0.4-2.4,0.8L64.6,15c-0.9,0.5-1.6,1.2-2.5,1.6
				c-0.8,0.3-1.6,0.5-2.5,0.4c-0.8-0.1-1.6,0-2.4,0.1c-0.1,0-0.3,0.1-0.4,0.1c-0.7,0.3-1.4,0.6-2.1,0.8c-0.5,0.1-1.1,0.1-1.6-0.1
				c-0.5-0.1-1-0.4-1.4-0.7c-0.8-0.7-1.6-1.5-2.2-2.4c-0.7-0.8-1.3-1.5-2-2.2s-1.3-1.5-1.9-2.3c-0.4-1-1-1.9-1.6-2.7
				c-0.4-0.3-0.8-0.6-1.2-0.7c-1.2-0.4-2.4-0.5-3.6-0.3c-2,0.4-3.6,1.9-4.8,3.4c-0.4,0.5-0.8,1-1.2,1.6c-0.8,1.3-1.4,2.5-2.7,3.3
				c-0.2,0.1-0.3,0.2-0.5,0.3C27.9,16,25.9,16.7,24,17.8z"/>
			<path class="st1" d="M23.9,17.4c-1.6,1-2.8,2.5-3.4,4.2c-0.4,0.9-0.6,1.9-1,2.9c-0.4,1.1-0.9,2.2-1.4,3.3l-0.4,0.9
				c-0.8,1.7-1.7,3-2.6,4.6c-0.1,0.2-0.2,0.4-0.3,0.6c-1,1.8-1.7,3.8-2.1,5.9c0,0.1,0,0.1,0,0.2c-0.4,1.9-0.7,4,0.2,5.7l0.1,0.2
				c0.5,0.9-0.6-1.1-0.1-0.1c1,1.8,2.3,3.2,3.1,5s0.8,3.7,1.6,5.6l0.2,0.4c0.4,0.8,0.6,1.7,0.6,2.5c-0.1,1.1-0.4,2.2-0.8,3.2
				c0,0.1-0.1,0.3-0.1,0.5c-0.5,1.6-1.1,3.6,0.2,4.9c1.2,1.3,3.6,1.6,5.4,1.8h0.4c2,0.1,3.8,0.9,5.3,2.3c1.3,1.3,1.7,3.1,2.3,4.9
				c0.1,0.2,0.2,0.5,0.2,0.7c0.6,1.6,1.4,2.5,3,2.1l0.4-0.1c1.8-0.6,3.7-1.1,5.6-1.3c1.9-0.1,3.5,0.5,5.4,0.6c1,0.1,1.9,0.1,2.9,0.3
				c1.2,0.2,2.5,0.5,3.7,0.7c0.9,0.2,1.8,0.3,2.6,0.5c0.9,0.2,1.8,0.3,2.7,0.1c0.4-0.1,0.7-0.3,1-0.5c0.4-0.3,0.9-0.7,1.3-1.1
				c0.3-0.3,0.5-0.5,0.8-0.7c0.8-0.6,1.7-1.1,2.6-1.5c0.6-0.2,1.2-0.4,1.8-0.6c1-0.1,2.1-0.4,3-0.7c0.3-0.1,0.5-0.3,0.7-0.6
				c0.9-1.1,1.7-2.8,2.6-4.1c0.2-0.2,0.4-0.5,0.6-0.7c1.4-1.5,2.8-2.9,4.3-4.2c3.3-3,6.8-5.9,9.3-9.7c1.2-1.8,2.1-3.7,2.9-5.7
				l0.1-0.4c0.3-0.9,0.3-1.8,0.2-2.7c-0.2-1.1-0.7-2.1-1.3-3c-0.6-0.8-1.1-1.7-1.6-2.6c-0.5-0.9-0.7-1.9-1.2-2.9
				c-0.8-1.8-2.3-2.9-3.4-4.5c-0.2-0.2-0.3-0.4-0.4-0.7c-1-1.6-1.9-3.2-2.6-4.9L78,28.1c-0.8-1.6-1.5-3.3-2.4-4.8
				c-0.6-0.9-1.2-1.7-1.9-2.5c-0.3-0.4-0.6-0.7-0.9-1.1c-0.4-0.7-0.8-1.4-1-2.1c-0.2-0.6-0.2-1.3-0.1-1.9c0.1-0.2,0.1-0.5,0-0.7
				s-0.3-0.4-0.5-0.6c-0.5-0.4-1.2-0.7-1.8-0.8c-0.7-0.1-1.3-0.1-2,0c-0.8,0.1-1.6,0.3-2.4,0.6l-0.3,0.1c-0.9,0.4-1.7,1.1-2.5,1.6
				c-0.7,0.4-1.6,0.6-2.4,0.7c-0.8,0.1-1.6,0-2.4,0.1c-0.1,0-0.3,0.1-0.4,0.1c-0.7,0.2-1.4,0.5-2.1,0.6c-0.4,0.1-0.7,0.1-1.1,0.1
				c-0.7,0-1.4-0.3-1.9-0.7c-0.8-0.7-1.6-1.5-2.2-2.3c-0.7-0.8-1.3-1.5-2-2.2S46.4,10.8,46,10c-0.3-1-0.9-1.9-1.6-2.7
				C44,7,43.6,6.8,43.1,6.6c-1.2-0.3-2.4-0.3-3.7-0.1c-2,0.5-3.7,1.6-5,3.2c-0.4,0.5-0.9,1-1.2,1.6c-0.9,1.3-1.4,2.5-2.7,3.3
				c-0.2,0.1-0.3,0.2-0.5,0.3C27.8,15.7,25.8,16.2,23.9,17.4z"/>
			<path class="st1" d="M11.7,45.8c0-0.1-0.1-0.1-0.1-0.2c-0.8-1.9-0.4-4,0-6c0-0.1,0-0.1,0-0.2c0.4-2.1,1.1-4.2,2-6.2l0.3-0.6
				c0.8-1.7,1.8-3.1,2.7-4.8l0.5-0.9c0.6-1.1,1.1-2.2,1.5-3.4c0.4-1,0.5-2.1,0.9-3.1c0.6-1.8,1.8-3.4,3.4-4.5
				c1.9-1.3,4.1-1.6,6.2-2.4c0.2-0.1,0.4-0.2,0.6-0.3c1.4-0.8,1.9-2.1,2.8-3.5c0.4-0.6,0.8-1.1,1.3-1.6c1.4-1.5,3.3-2.6,5.4-3.1
				c1.2,0,2.5,0,3.8,0.2c0.5,0.1,1,0.3,1.4,0.6c0.8,0.7,1.1,1.7,1.5,2.8c0.4,0.9,1,1.8,1.7,2.5c0.6,0.7,1.4,1.4,2,2.2
				c0.6,0.9,1.4,1.7,2.2,2.4c0.6,0.4,1.3,0.6,2,0.6c0.4,0,0.7-0.1,1.1-0.1c0.8-0.1,1.5-0.4,2.3-0.5l0.5-0.1c0.8-0.1,1.7,0,2.5-0.2
				c0.9-0.2,1.7-0.5,2.4-1c0.8-0.6,1.7-1.1,2.6-1.5l0.4-0.1c0.8-0.2,1.7-0.4,2.5-0.5c1.4-0.2,2.8,0.1,4,0.8c0.1,0,0.2,0.1,0.3,0.2
				s0.2,0.2,0.2,0.3c0.1,0.1,0.1,0.2,0.1,0.4c0,0.1,0,0.2-0.1,0.4c-0.2,0.6-0.2,1.3,0,1.9c0.3,0.7,0.7,1.4,1.2,2.1
				c0.3,0.4,0.6,0.8,0.8,1.2c0.6,0.9,1.2,1.8,1.8,2.7c0.9,1.6,1.7,3.2,2.4,4.9c0.1,0.1,0.1,0.3,0.2,0.4c0.7,1.8,1.5,3.4,2.6,5
				c0.2,0.2,0.3,0.4,0.5,0.6c1.2,1.5,2.9,2.6,3.7,4.4c0.5,1,0.6,2,1.1,3c0.4,0.9,1,1.8,1.6,2.6c0.7,0.9,1.3,1.9,1.6,3
				c0.2,0.9,0.2,1.9,0,2.8L90,49.4c-0.7,2.1-1.6,4-2.8,5.9c-2.3,4-6,6.8-9.4,10c-1.6,1.5-3.3,2.7-4.7,4.3c-0.2,0.2-0.4,0.5-0.6,0.7
				c-1,1.4-1.9,2.9-2.6,4.4c-0.2,0.3-0.4,0.6-0.7,0.9c-0.9,0.8-1.9,1-3.3,1.4c-0.6,0.2-1.2,0.4-1.8,0.6c-1,0.4-1.9,0.9-2.8,1.4
				c-0.3,0.2-0.6,0.4-0.9,0.7c-0.5,0.4-0.9,0.7-1.4,1.1c-0.3,0.2-0.7,0.4-1.1,0.5c-1,0.1-2,0-2.9-0.3c-0.9-0.2-1.8-0.4-2.8-0.6
				c-1.3-0.3-2.6-0.5-3.9-0.7c-1-0.2-1.9-0.3-2.9-0.3c-1.8-0.3-3.7-0.4-5.5-0.3c-2,0.2-3.9,0.7-5.7,1.3c-0.1,0-0.2,0.1-0.4,0.1
				c-1.7,0.4-2.5-0.5-3.1-2.1c-0.1-0.2-0.2-0.5-0.2-0.7c-0.6-1.8-1.1-3.6-2.4-5c-1.5-1.4-3.4-2.2-5.4-2.3h-0.4
				c-1.9-0.2-4.2-0.5-5.4-2c-1.2-1.4-0.7-3.5-0.2-5.1l0.1-0.5c0.4-1.1,0.6-2.2,0.7-3.3c0-0.9-0.3-1.8-0.7-2.6
				c-0.1-0.1-0.1-0.3-0.2-0.4c-0.8-1.9-0.6-3.9-1.4-5.8C14.1,49,12.5,47.7,11.7,45.8z M11.7,45.8C11.2,44.7,12.1,46.9,11.7,45.8z"/>
			<path class="st1" d="M11.5,46c0.7,1.9,2.5,3.1,3.3,4.9c0.8,1.8,0.4,3.9,1.2,5.8c0.5,0.9,0.8,1.9,0.9,3c-0.1,1.1-0.3,2.2-0.6,3.3
				c-0.4,1.7-1,4.1,0.2,5.6s3.8,2,5.7,2.2c2,0.1,3.9,0.9,5.4,2.3c1.4,1.4,1.9,3.7,2.6,5.6c0.6,1.9,1.5,2.6,3.4,1.9
				c4.5-1.6,9.4-1.9,14-0.8c2.3,0.3,4.6,0.8,6.8,1.4c0.9,0.4,2,0.6,3,0.5c1-0.3,1.9-0.7,2.7-1.4c1.9-1.1,3.8-2,5.9-2.7
				c1.8-0.7,3.2-1.3,4-3.1c0.7-2,1.9-3.8,3.2-5.3c1.5-1.6,3.4-2.8,4.9-4.3c3.3-3.1,7.1-5.9,9.2-10c1-1.9,2.3-4.1,2.7-6.3
				c0.1-1,0-2.1-0.3-3.1s-0.8-1.9-1.5-2.7s-1.2-1.6-1.6-2.5s-0.5-2-0.9-2.9c-0.8-1.8-2.6-2.7-3.9-4.2c-1.3-1.7-2.3-3.5-3-5.5
				c-0.7-1.8-1.5-3.6-2.4-5.3c-0.5-1-1-1.9-1.6-2.8c-0.8-1-1.4-2.1-2.1-3.2c-0.1-0.3-0.2-0.6-0.2-1c0-0.3,0.1-0.7,0.2-1
				c0.2-0.7,0.2-0.9-0.5-1.2c-1.8-0.8-4.8-0.8-6.7-0.4c-2.1,0.5-3.4,2.2-5.4,2.8c-1,0.2-2,0.2-2.9,0.2c-1.1,0.1-2.3,0.4-3.4,0.5
				c-2.2,0.2-3-1.5-4.2-2.9c-1.3-1.6-2.8-2.8-3.5-4.8c-0.6-1.7-0.8-3.2-2.9-3.4c-3.9-0.4-8.6,1.3-10.7,4.7c-1,1.6-1.3,3.1-3.3,3.8
				c-2.1,0.7-4.3,0.9-6.2,2.2c-1.6,1.1-2.8,2.7-3.3,4.6c-0.3,1-0.5,2.1-0.8,3.1c-0.4,1.2-1,2.3-1.7,3.3c-1.1,1.9-2.5,3.6-3.3,5.7
				c-0.9,2.2-1.6,4.6-2.1,6.9C11.3,41.6,10.7,43.9,11.5,46C12,47.1,11.1,44.8,11.5,46z"/>
			<path class="st2" d="M119,55.5c-1.2-0.4-2.2-1-3.1-2s-1.5-2.2-1.8-3.6c-0.4-1.8-0.6-3.6-0.6-5.5c0-1.8,0.2-3.7,0.6-5.5
				c0.3-1.3,0.9-2.5,1.8-3.6c0.8-0.9,1.9-1.6,3.1-2c2.9-0.8,5.9-0.8,8.8,0c1.2,0.4,2.2,1,3.1,2c0.9,1,1.5,2.2,1.8,3.6
				c0.4,1.8,0.6,3.6,0.6,5.5c0,1.8-0.2,3.7-0.6,5.5c-0.3,1.3-0.9,2.5-1.8,3.6c-0.8,0.9-1.9,1.6-3.1,2
				C124.9,56.3,121.9,56.3,119,55.5z M126.3,52.8c0.8-0.3,1.5-0.8,2-1.4c0.6-0.8,1-1.7,1.2-2.7c0.5-2.7,0.5-5.5,0-8.2
				c-0.2-1-0.6-1.9-1.2-2.7c-0.5-0.7-1.2-1.2-2-1.4c-1.9-0.6-4-0.6-5.9,0c-0.8,0.3-1.5,0.8-2,1.4c-0.6,0.8-1,1.7-1.2,2.7
				c-0.5,2.7-0.5,5.5,0,8.2c0.2,1,0.6,1.9,1.2,2.7c0.5,0.7,1.2,1.2,1.9,1.4C122.3,53.4,124.4,53.4,126.3,52.8L126.3,52.8z"/>
			<path class="st2" d="M166.8,53c-0.5,0.8-1.1,1.4-1.9,1.9c-0.8,0.5-1.8,0.8-2.7,1c-1.1,0.2-2.2,0.3-3.3,0.3
				c-1.4,0-2.8-0.2-4.1-0.5c-1.1-0.3-2.1-1-2.9-1.9c-0.8-1-1.4-2.2-1.7-3.5c-0.4-1.8-0.6-3.7-0.6-5.6c0-1.9,0.1-3.7,0.6-5.6
				c0.3-1.3,0.9-2.5,1.7-3.5c0.8-0.9,1.8-1.5,2.9-1.8c1.4-0.4,2.8-0.6,4.2-0.5c1.1,0,2.2,0.1,3.3,0.3c1,0.1,1.9,0.5,2.7,1
				s1.4,1.1,1.8,1.9c0.5,1,0.7,2,0.7,3.1h-3.3c0-0.6-0.1-1.2-0.4-1.8c-0.3-0.4-0.7-0.8-1.1-1c-0.5-0.2-1.1-0.4-1.6-0.5
				c-0.6-0.1-1.3-0.1-1.9-0.1c-0.9,0-1.9,0.1-2.8,0.3c-0.7,0.2-1.4,0.6-1.9,1.2c-0.5,0.8-0.9,1.7-1.1,2.6c-0.2,1.4-0.4,2.9-0.3,4.4
				c0,1.5,0.1,2.9,0.3,4.4c0.2,1,0.5,1.9,1.1,2.7c0.5,0.6,1.1,1.1,1.9,1.3c0.9,0.3,1.8,0.4,2.7,0.4c0.6,0,1.2,0,1.9-0.1
				c0.6-0.1,1.1-0.2,1.7-0.5c0.5-0.2,0.9-0.6,1.2-1c0.3-0.5,0.5-1.2,0.5-1.8h3.3C167.5,51,167.3,52,166.8,53z"/>
			<path class="st2" d="M189.8,36.3h-7.1v-2.9h17.5v2.9h-7.1v19.5h-3.3L189.8,36.3L189.8,36.3z"/>
			<path class="st2" d="M216.7,55.8V33.4h8.6c1.2,0,2.3,0.1,3.4,0.4c0.9,0.2,1.7,0.6,2.4,1.2c0.7,0.6,1.1,1.4,1.4,2.3
				c0.3,1.1,0.5,2.3,0.5,3.4c0,1.2-0.1,2.4-0.5,3.6c-0.3,0.9-0.7,1.7-1.4,2.4c-0.7,0.6-1.5,1.1-2.4,1.3c-1.1,0.3-2.3,0.4-3.4,0.4
				H220v7.4C220,55.8,216.7,55.8,216.7,55.8z M227.3,45.3c0.5-0.1,1-0.4,1.4-0.8c0.4-0.4,0.7-0.9,0.8-1.5c0.2-0.7,0.3-1.5,0.3-2.3
				c0.1-0.6,0-1.2-0.2-1.8s-0.5-1.1-0.9-1.6c-1-0.7-2.3-1.1-3.5-1h-5.1v9.2h5C225.8,45.6,226.5,45.5,227.3,45.3z"/>
			<path class="st2" d="M250.2,33.4h3.3v22.4h-3.3V33.4z"/>
			<path class="st2" d="M272.4,33.4h8.6c1.1,0,2.1,0.1,3.1,0.3c0.8,0.2,1.5,0.5,2.2,1c0.6,0.5,1,1.1,1.3,1.8
				c0.3,0.9,0.5,1.9,0.4,2.8c0.1,1.3-0.3,2.6-1,3.6c-0.8,0.9-1.9,1.5-3.1,1.6c1.4,0.1,2.6,0.7,3.7,1.6c0.9,1,1.3,2.3,1.2,3.7
				c0,1-0.1,1.9-0.4,2.8c-0.3,0.7-0.8,1.4-1.4,1.8c-0.7,0.5-1.6,0.8-2.4,1c-1.1,0.2-2.3,0.3-3.4,0.3h-8.6L272.4,33.4z M283.8,42.4
				c0.3-0.4,0.6-0.8,0.8-1.3c0.2-0.5,0.2-1,0.1-1.5c0-0.4,0-0.9-0.2-1.3c-0.1-0.4-0.4-0.8-0.7-1.1c-0.9-0.6-2-0.9-3.1-0.8h-5.1v6.8
				h5.1C281.9,43.3,283,43,283.8,42.4z M283,52.7c0.5-0.1,1-0.3,1.4-0.6s0.6-0.6,0.7-1c0.2-0.5,0.2-1,0.2-1.5s0-1-0.2-1.5
				s-0.5-0.9-0.8-1.3c-1.1-0.7-2.3-1-3.6-0.9h-5.1v6.9h5.1C281.6,52.9,282.3,52.9,283,52.7L283,52.7z"/>
		</g>
	</g>
</g>
</svg>
