<?xml version="1.0" encoding="utf-8"?>
<!-- Generator: Adobe Illustrator 25.4.1, SVG Export Plug-In . SVG Version: 6.00 Build 0)  -->
<svg version="1.1" id="Layer_1" xmlns="http://www.w3.org/2000/svg" xmlns:xlink="http://www.w3.org/1999/xlink" x="0px" y="0px"
	 viewBox="0 0 1432 348" enable-background="new 0 0 1432 348" xml:space="preserve">
<path fill="currentColor" d="M1207.3,140.1c5.9-1,17.2-1.8,22.6,0.3c2,0.8,3.7,2.1,4.5,4.1c1.2,2.9,0.7,103.1,0.3,112.5
	c-0.1,2.8-0.2,5.6-1.3,8.2c-1.4,1.5-2,1.6-3.9,2.1c-0.3,0.1-0.6,0.2-0.9,0.3c-5.7,0.8-19,1.2-23.2-2.4c-1.1-2.2-1.1-4.7-1.2-7.1
	c-0.9-22,0-44.4,0-66.4c0-14.3-1.1-29.1-0.1-43.3C1204.1,144.6,1204.4,142.6,1207.3,140.1z"/>
<path fill="currentColor" d="M1021.4,140.1c6.5-0.7,17.4-2.4,23.3,0.6c0.2,0.1,0.5,0.2,0.7,0.4c0.2,0.1,0.4,0.3,0.6,0.5
	c0.2,0.2,0.4,0.3,0.6,0.5c0.2,0.2,0.4,0.4,0.5,0.6c0.2,0.2,0.3,0.4,0.5,0.6c0.2,0.2,0.3,0.4,0.4,0.7c0.1,0.2,0.2,0.5,0.3,0.7
	c0.1,0.2,0.2,0.5,0.3,0.7c1,3.3,0.5,101.4,0.3,112.3c-0.1,2.1,0.1,4.9-0.9,6.8c-1,1.8-2.7,2.3-4.5,2.8c-0.4,0.1-0.6,0.2-1,0.3
	c-6.4,0.3-18.5,1.8-23.4-2.7c-0.7-2.3-0.8-4.9-0.9-7.3c-1-25.5-0.1-51.3-0.1-76.8c0-9.6-1.2-27.7,0.2-36.1
	C1018.5,142.9,1020.3,141.3,1021.4,140.1z"/>
<path fill="currentColor" d="M930.6,218.2c4.3-3.6,24-50.4,27.9-59c2.4-5.4,4.8-13.1,8.9-17.3c3-3,12-2.3,16.1-2.3
	c3.1,0,8.5-0.2,10.8,2.2c0.8,0.9,1.1,1.6,1.1,2.8c-0.1,3.6-14.5,33.2-17.1,35.5c0,0.5,0.1,1.1,0,1.6c-1.1,6.2-14.1,30.3-17.6,37.7
	c-7.1,15.1-13.6,30.6-21.2,45.4c-0.9,1.7-1.9,3.9-3.5,5c-2.2,1.5-5.8,0.9-8.3,0.5c-1.8-1.5-2.9-3.8-4-5.8
	c-6.5-12.5-55.4-115.7-55.6-120.1c-0.1-2,1.2-2.9,2.5-4.2c5.8-0.9,12.8-0.8,18.7-0.5c1.8,0.1,6.1,0.2,7.3,1.6
	C900.4,145.7,930.9,214,930.6,218.2z"/>
<path fill="currentColor" d="M1121.8,136.6c11.9-0.1,32.8,2.2,41.9,10.5c1.4,1.3,2.6,3.1,2.6,5c0,4-5,13-7.8,15.8
	c-1.3,1.3-2.4,1.8-4.3,1.7c-8.2-0.2-18.8-7.1-31.3-7c-3.3,0-6.8,0.5-9.2,3c-1.7,1.7-2.8,4.6-2.7,7.1c0.2,11.1,25.7,18.6,34.4,23
	c6.1,3.1,12.1,6.8,17.1,11.6c6.9,6.7,11.3,15.6,11.4,25.3c0.1,9.1-3.9,17.7-10.3,24.1c-10.6,10.7-24.7,13.9-39.3,14
	c-13.3-0.5-28.3-3.6-39.1-11.9c-1.3-1-3.4-2.9-3.6-4.7c-0.5-4.1,5.1-13.2,7.8-16.4c1.4-1.7,2.6-2.5,4.9-2.2c3.1,0.4,6.4,2.8,9.2,4.2
	c6.9,3.5,16.7,5.6,24.4,5c4.5-0.3,9.1-1.9,12.1-5.4c1.5-1.8,2.4-4.2,2.1-6.5c-1.2-10.9-22.6-17.7-31.1-22
	c-5.3-2.7-10.6-5.8-15.2-9.6c-8-6.5-13.6-15.4-14.6-25.8c-0.9-9.1,2-17.6,7.7-24.6C1097.4,140.7,1109.4,137.8,1121.8,136.6z"/>
<path fill="currentColor" d="M652,136.6c1.8-0.1,3.6,0,5.4,0.1s3.6,0.3,5.4,0.5c1.8,0.3,3.5,0.6,5.3,1c1.8,0.4,3.5,0.9,5.2,1.5
	c8.7,2.9,23.3,10.9,27.4,19.4c1,2.1,1.3,4.5,0.5,6.7c-1.1,3.2-10.7,11.8-13.8,13.2c-1.4,0.7-2.8,0.7-4.3,0
	c-6.6-2.9-10.7-9.6-18.8-12.6c-7.8-2.9-16-2.4-23.5,1.1c-0.6,0.3-1.2,0.5-1.7,0.8c-0.6,0.3-1.1,0.6-1.7,0.9c-0.6,0.3-1.1,0.7-1.6,1
	c-0.5,0.3-1.1,0.7-1.6,1.1c-0.5,0.4-1,0.8-1.5,1.2c-0.5,0.4-1,0.8-1.5,1.2c-0.5,0.4-1,0.9-1.4,1.3c-0.5,0.4-0.9,0.9-1.3,1.4
	c-0.4,0.5-0.9,1-1.3,1.4c-0.4,0.5-0.8,1-1.2,1.5c-0.4,0.5-0.8,1-1.1,1.6c-0.4,0.5-0.7,1.1-1,1.6c-0.3,0.5-0.7,1.1-1,1.7
	s-0.6,1.1-0.9,1.7c-0.3,0.6-0.5,1.2-0.8,1.8c-0.3,0.6-0.5,1.2-0.7,1.8c-0.2,0.7-0.4,1.3-0.6,2c-0.2,0.7-0.4,1.3-0.6,2
	c-0.2,0.7-0.3,1.3-0.5,2c-0.1,0.7-0.3,1.4-0.4,2c-0.1,0.7-0.2,1.4-0.3,2.1c-0.1,0.7-0.1,1.4-0.2,2.1c0,0.7-0.1,1.4-0.1,2.1
	c0,0.7,0,1.4,0,2.1c0,0.7,0.1,1.4,0.1,2.1c0.1,0.7,0.1,1.4,0.2,2.1c0.1,0.7,0.2,1.4,0.3,2c0.1,0.7,0.3,1.4,0.4,2
	c0.2,0.7,0.3,1.3,0.5,2c0.2,0.7,0.4,1.3,0.6,2c0.2,0.7,0.5,1.3,0.7,1.9c0.3,0.6,0.5,1.3,0.8,1.9c4.2,8.9,11.5,15.8,20.8,19.1
	c13.1,4.7,24.6,1.1,35-7.3c2.9-2.3,6-5.3,9.3-6.9c0.2-0.1,0.4-0.2,0.5-0.2c0.2-0.1,0.4-0.1,0.6-0.2c0.2,0,0.4-0.1,0.6-0.1
	c0.2,0,0.4,0,0.6,0c0.2,0,0.4,0,0.6,0c0.2,0,0.4,0,0.6,0.1c0.2,0,0.4,0.1,0.6,0.1c0.2,0.1,0.4,0.1,0.5,0.2c1.5,0.6,2.7,2,3.4,3.5
	c3.9,1.7,8.1,5.1,9.7,9.1c0.3,4-2.6,7.6-5,10.4c-10.4,12.3-23.8,19.4-40,20.7c-1.1,0.1-2.2,0.2-3.3,0.2c-1.1,0-2.2,0.1-3.3,0
	c-1.1,0-2.2-0.1-3.3-0.1c-1.1-0.1-2.2-0.2-3.3-0.3c-1.1-0.1-2.2-0.3-3.3-0.5c-1.1-0.2-2.2-0.4-3.3-0.6c-1.1-0.2-2.2-0.5-3.2-0.8
	c-1.1-0.3-2.1-0.6-3.2-0.9c-1.1-0.3-2.1-0.7-3.1-1.1c-1-0.4-2.1-0.8-3.1-1.2c-1-0.4-2-0.9-3-1.4c-1-0.5-2-1-2.9-1.5
	c-1-0.5-1.9-1.1-2.9-1.7c-0.9-0.6-1.9-1.2-2.8-1.8s-1.8-1.3-2.7-2c-0.9-0.7-1.7-1.4-2.6-2.1c-0.8-0.7-1.6-1.4-2.4-2.2
	c-0.8-0.7-1.5-1.5-2.3-2.3c-0.7-0.8-1.5-1.6-2.2-2.4c-0.7-0.8-1.4-1.6-2.1-2.5s-1.3-1.7-1.9-2.6c-0.6-0.9-1.2-1.8-1.8-2.7
	c-0.6-0.9-1.1-1.8-1.7-2.8s-1-1.9-1.5-2.8c-0.5-1-1-1.9-1.4-2.9c-0.4-1-0.9-2-1.2-3c-0.4-1-0.8-2-1.1-3c-0.3-1-0.7-2.1-1-3.1
	c-0.3-1-0.6-2.1-0.8-3.1s-0.5-2.1-0.6-3.2s-0.4-2.1-0.5-3.2c-0.1-1.1-0.2-2.1-0.3-3.2c-0.1-1.1-0.2-2.2-0.2-3.4c0-1.1-0.1-2.2,0-3.4
	c0-1.1,0.1-2.2,0.1-3.4c0.1-1.1,0.2-2.2,0.3-3.4c0.1-1.1,0.3-2.2,0.5-3.3c0.2-1.1,0.4-2.2,0.6-3.3c0.2-1.1,0.5-2.2,0.8-3.3
	s0.6-2.2,1-3.2c0.3-1.1,0.7-2.1,1.1-3.2c0.4-1.1,0.8-2.1,1.3-3.1c0.5-1,0.9-2,1.4-3.1c0.5-1,1-2,1.6-3c0.6-1,1.1-1.9,1.7-2.9
	c0.6-1,1.2-1.9,1.9-2.8c0.6-0.9,1.3-1.8,2-2.7c0.7-0.9,1.4-1.8,2.1-2.6C616.1,145.3,633.1,138,652,136.6z"/>
<path fill="currentColor" d="M504.7,136.6c0.3,0,0.7,0,1,0c16.2-0.2,31.6,4.8,43.3,16.3c12,11.7,17.5,27.5,17.7,44.1
	c0,3.6-0.2,8.3-2.9,11c-1.4,1.4-3.2,1.7-5.1,1.9c-9.4,1.1-19.5,0.3-29,0.3c-19.2-0.1-38.4-0.1-57.7,0.1c2.3,2.4,5.1,13.4,7.8,17.6
	c4.7,7.5,13.1,12.9,21.7,14.8c15,3.3,29.3-3.3,41.6-11.1c0.8,0.4,1.5,0.8,2.2,1.3c1.5,1,2.5,2.1,2.8,4c0.1,0.1,0.3,0.2,0.4,0.3
	c2.8,2.2,8.1,8.3,8.5,11.9c0.2,2.2-0.5,4-1.9,5.7c-7.5,8.9-28,14.8-39.3,15.7c-17.9,1.5-35.6-2.4-49.5-14.2
	c-13.7-11.6-21.2-28.6-22.7-46.3c-1.5-18.4,3.8-37.5,15.8-51.7C471.5,144.3,486.8,138.1,504.7,136.6z M502.9,161.8
	c-9.4,2.1-17,5.8-22.3,14.1c-2.7,4.2-4,9.7-6.9,13.5l33.1,0l29.2,0c1-2.6-0.9-8-2-10.4c-3.4-7.3-10.9-13.2-18.3-15.9
	C511.4,161.5,507.4,161.3,502.9,161.8z"/>
<path fill="currentColor" d="M1327.9,136.6c1,0,2-0.1,3.1,0c1,0,2,0,3.1,0.1c1,0.1,2,0.1,3.1,0.3c1,0.1,2,0.2,3,0.4c1,0.2,2,0.3,3,0.5
	c1,0.2,2,0.4,3,0.7c1,0.3,2,0.5,2.9,0.8c1,0.3,1.9,0.6,2.9,1c1,0.3,1.9,0.7,2.8,1.1s1.9,0.8,2.8,1.2c0.9,0.4,1.8,0.9,2.7,1.4
	s1.8,1,2.7,1.5c0.9,0.5,1.7,1.1,2.6,1.6c0.8,0.6,1.7,1.2,2.5,1.8c0.8,0.6,1.6,1.2,2.4,1.9c0.8,0.6,1.6,1.3,2.3,2
	c0.8,0.7,1.6,1.5,2.4,2.3c0.8,0.8,1.6,1.6,2.3,2.4s1.5,1.7,2.2,2.5c0.7,0.9,1.4,1.7,2,2.6c0.7,0.9,1.3,1.8,1.9,2.7
	c0.6,0.9,1.2,1.9,1.8,2.8c0.6,0.9,1.1,1.9,1.6,2.9c0.5,1,1,2,1.5,3c0.5,1,0.9,2,1.3,3c0.4,1,0.8,2.1,1.2,3.1c0.4,1,0.7,2.1,1.1,3.2
	c0.3,1.1,0.6,2.1,0.9,3.2c0.3,1.1,0.5,2.2,0.7,3.2c0.2,1.1,0.4,2.2,0.6,3.3c0.2,1.1,0.3,2.2,0.4,3.3c0.1,1.1,0.2,2.2,0.2,3.3
	c0.1,1.1,0.1,2.3,0.1,3.4c0,1.1,0,2.3,0,3.4c0,1.1-0.1,2.3-0.2,3.4c-0.1,1.1-0.2,2.3-0.4,3.4c-0.2,1.1-0.3,2.3-0.5,3.4
	c-0.2,1.1-0.5,2.2-0.7,3.3c-0.3,1.1-0.6,2.2-0.9,3.3c-0.3,1.1-0.7,2.2-1,3.3c-0.4,1.1-0.8,2.1-1.2,3.2c-0.4,1.1-0.9,2.1-1.4,3.1
	c-0.5,1-1,2.1-1.5,3.1c-0.5,1-1.1,2-1.7,3c-0.6,1-1.2,1.9-1.8,2.9c-0.6,1-1.3,1.9-2,2.8c-0.7,0.9-1.4,1.8-2.1,2.7
	c-0.7,0.9-1.5,1.7-2.2,2.6c-12.2,13.4-27.8,20-45.8,20.9c-14.8,0.5-29.9-5.1-41.2-14.6c-0.9-0.7-1.7-1.5-2.5-2.2
	c-0.8-0.8-1.6-1.5-2.4-2.3c-0.8-0.8-1.5-1.6-2.3-2.4c-0.7-0.8-1.5-1.7-2.2-2.6c-0.7-0.9-1.4-1.8-2-2.7c-0.7-0.9-1.3-1.8-1.9-2.8
	c-0.6-0.9-1.2-1.9-1.8-2.8c-0.6-1-1.1-1.9-1.6-2.9s-1-2-1.5-3c-0.5-1-0.9-2-1.3-3.1c-0.4-1-0.8-2.1-1.2-3.1c-0.4-1.1-0.7-2.1-1-3.2
	c-0.3-1.1-0.6-2.2-0.9-3.2c-0.3-1.1-0.5-2.2-0.7-3.3c-0.2-1.1-0.4-2.2-0.5-3.3c-0.2-1.1-0.3-2.2-0.4-3.3c-0.1-1.1-0.2-2.3-0.2-3.4
	c-0.1-1.1-0.1-2.3-0.1-3.4c0-1.1,0-2.3,0.1-3.4c0.1-1.1,0.1-2.3,0.3-3.4c0.1-1.1,0.3-2.2,0.4-3.4c0.2-1.1,0.4-2.2,0.6-3.3
	c0.2-1.1,0.5-2.2,0.8-3.3c0.3-1.1,0.6-2.2,0.9-3.3c0.3-1.1,0.7-2.1,1.1-3.2c0.4-1.1,0.8-2.1,1.2-3.2c0.4-1,0.9-2.1,1.4-3.1
	c0.5-1,1-2,1.5-3c0.5-1,1.1-2,1.7-2.9c0.6-1,1.2-1.9,1.8-2.8c0.6-0.9,1.3-1.9,2-2.8c0.7-0.9,1.4-1.8,2.1-2.7
	C1293.9,145.3,1309.6,138.2,1327.9,136.6z M1323.8,165.3c-10.8,3.5-19.3,9.3-24.5,19.7c-0.3,0.6-0.6,1.2-0.9,1.9
	c-0.3,0.6-0.5,1.3-0.8,1.9c-0.2,0.6-0.5,1.3-0.7,1.9c-0.2,0.7-0.4,1.3-0.6,2c-0.2,0.7-0.3,1.3-0.5,2c-0.1,0.7-0.3,1.3-0.4,2
	c-0.1,0.7-0.2,1.4-0.3,2c-0.1,0.7-0.1,1.4-0.2,2c0,0.7-0.1,1.4-0.1,2.1c0,0.7,0,1.4,0,2.1s0.1,1.4,0.1,2.1c0.1,0.7,0.1,1.4,0.2,2
	c0.1,0.7,0.2,1.4,0.3,2c0.1,0.7,0.3,1.3,0.4,2c0.2,0.7,0.3,1.3,0.5,2c0.2,0.7,0.4,1.3,0.6,2c3.1,9.5,9.6,18,18.6,22.5
	c5.1,2.6,13.4,4.7,19.2,3.1c9.2-1.2,17.3-6.1,23-13.4c6.7-8.7,9.5-20.2,8.1-31.1c-0.1-0.6-0.2-1.3-0.3-1.9c-0.1-0.6-0.2-1.3-0.4-1.9
	c-0.1-0.6-0.3-1.3-0.5-1.9c-0.2-0.6-0.4-1.2-0.6-1.9c-0.2-0.6-0.4-1.2-0.7-1.8c-0.2-0.6-0.5-1.2-0.7-1.8c-0.3-0.6-0.5-1.2-0.8-1.8
	s-0.6-1.1-0.9-1.7c-0.3-0.6-0.7-1.1-1-1.7s-0.7-1.1-1.1-1.6c-0.4-0.5-0.8-1-1.2-1.6c-0.4-0.5-0.8-1-1.2-1.5c-0.4-0.5-0.9-1-1.3-1.4
	c-0.4-0.5-0.9-0.9-1.4-1.4c-0.5-0.4-1-0.9-1.4-1.3c-0.5-0.4-1-0.8-1.5-1.2C1342.8,165.5,1333.7,164.1,1323.8,165.3z"/>
<path fill="currentColor" d="M786.9,136.6c16.8-0.5,32.8,5.1,45.3,16.3c0.8,0.7,1.6,1.5,2.4,2.3c0.8,0.8,1.6,1.6,2.3,2.4
	c0.8,0.8,1.5,1.7,2.2,2.5c0.7,0.9,1.4,1.7,2.1,2.6c0.7,0.9,1.3,1.8,1.9,2.7c0.6,0.9,1.2,1.9,1.8,2.8c0.6,1,1.1,1.9,1.7,2.9
	c0.5,1,1,2,1.5,3s0.9,2,1.4,3.1c0.4,1,0.8,2.1,1.2,3.1c0.4,1.1,0.7,2.1,1,3.2c0.3,1.1,0.6,2.1,0.9,3.2c0.3,1.1,0.5,2.2,0.7,3.3
	c0.2,1.1,0.4,2.2,0.6,3.3c0.2,1.1,0.3,2.2,0.4,3.3c0.1,1.1,0.2,2.2,0.2,3.3c0.1,1.1,0.1,2.3,0.1,3.4c0,1.1,0,2.3-0.1,3.4
	c-0.1,1.1-0.1,2.3-0.2,3.4c-0.1,1.1-0.2,2.2-0.4,3.4c-0.2,1.1-0.4,2.2-0.6,3.3c-0.2,1.1-0.5,2.2-0.7,3.3s-0.6,2.2-0.9,3.3
	s-0.7,2.2-1.1,3.2c-0.4,1.1-0.8,2.1-1.2,3.2c-0.4,1-0.9,2.1-1.4,3.1c-0.5,1-1,2-1.5,3c-0.5,1-1.1,2-1.7,3c-0.6,1-1.2,1.9-1.8,2.9
	c-0.6,0.9-1.3,1.9-1.9,2.8c-0.7,0.9-1.4,1.8-2.1,2.7c-0.7,0.9-1.4,1.7-2.2,2.6c-12.3,13.6-28.1,20-46.1,20.9
	c-15.4-0.4-29.1-4.7-41-14.6c-13.9-11.5-22.5-28.7-24.1-46.6c-0.1-1.1-0.2-2.2-0.2-3.4c0-1.1-0.1-2.2-0.1-3.4c0-1.1,0-2.2,0.1-3.4
	c0.1-1.1,0.2-2.2,0.3-3.4c0.1-1.1,0.3-2.2,0.4-3.3c0.2-1.1,0.4-2.2,0.6-3.3c0.2-1.1,0.5-2.2,0.8-3.3c0.3-1.1,0.6-2.2,0.9-3.2
	c0.3-1.1,0.7-2.1,1.1-3.2c0.4-1.1,0.8-2.1,1.2-3.1c0.4-1,0.9-2.1,1.4-3.1c0.5-1,1-2,1.5-3c0.5-1,1.1-2,1.7-2.9
	c0.6-1,1.2-1.9,1.8-2.8c0.6-0.9,1.3-1.8,2-2.7c0.7-0.9,1.4-1.8,2.1-2.6C753,145.4,768.9,138.2,786.9,136.6z M783,165.3
	c-10.9,3.8-19.4,9.6-24.6,20.2c-4.9,9.9-5.4,21.8-1.7,32.2c3.3,9.4,9.8,17.6,18.8,22c5.8,2.8,13.4,4.3,19.7,2.8
	c9.5-1.7,17.6-6.9,23.1-14.9c6.4-9.1,8.6-20.8,6.7-31.7c-1.8-10-7.5-19.4-15.9-25.1C800.7,165.1,792.6,164.5,783,165.3z"/>
<path fill="currentColor" d="M229,308.9c-23.8,11.6-60.5,9.9-85.2,2.6c-1.2-0.4-2.3-0.7-3.5-1.1s-2.3-0.8-3.5-1.2
	c-1.2-0.4-2.3-0.8-3.4-1.3c-1.1-0.4-2.3-0.9-3.4-1.4c-1.1-0.5-2.3-0.9-3.4-1.4c-1.1-0.5-2.2-1-3.3-1.5c-1.1-0.5-2.2-1.1-3.3-1.6
	c-1.1-0.5-2.2-1.1-3.3-1.7c-1.1-0.6-2.2-1.2-3.2-1.8c-1.1-0.6-2.1-1.2-3.2-1.8c-1.1-0.6-2.1-1.3-3.1-1.9c-1-0.6-2.1-1.3-3.1-2
	c-1-0.7-2-1.4-3-2.1c-1-0.7-2-1.4-3-2.1c-1-0.7-2-1.5-2.9-2.2c-1-0.7-1.9-1.5-2.9-2.3c-0.9-0.8-1.9-1.6-2.8-2.3
	c-0.9-0.8-1.9-1.6-2.8-2.4c-0.9-0.8-1.8-1.6-2.7-2.5c-0.9-0.8-1.8-1.7-2.6-2.5c-0.9-0.9-1.7-1.7-2.6-2.6c-0.8-0.9-1.7-1.8-2.5-2.7
	c-0.8-0.9-1.6-1.8-2.4-2.7c-0.8-0.9-1.6-1.8-2.4-2.8c-0.8-0.9-1.6-1.9-2.3-2.8c-0.8-1-1.5-1.9-2.2-2.9c-0.7-1-1.5-2-2.2-3
	c-0.7-1-1.4-2-2.1-3c-0.7-1-1.4-2-2-3.1c-0.7-1-1.3-2.1-2-3.1c-0.6-1-1.3-2.1-1.9-3.2c-0.6-1.1-1.2-2.1-1.8-3.2
	c-16.8-31.1-22-69.9-11.9-103.9c10.8-36.3,41.3-65,73.8-82.5c33.1-17.8,74.5-27.6,111.3-16.6c-11.6,3.7-22.7,7.7-33.4,13.4
	c-32.5,17.3-64.5,48.1-81.4,81c-12.6,24.6-16.2,54-7.7,80.4c11.6,36,42.6,62.6,75.3,79.3C196.4,298.4,212.5,304.1,229,308.9z"/>
<path opacity="0.8" fill="currentColor" d="M228.2,36.3c35.9-6.3,63.5-3.6,94.1,17.9c33.3,23.4,54.5,61.9,61.4,101.5
	c6.6,37.8,0.4,76.8-22,108.5c-17.5,24.7-43,42.7-73,47.9c-20.1,3.5-39.9,1-59.6-3.3c-16.6-4.8-32.6-10.5-48-18.3
	c-32.8-16.7-63.7-43.3-75.3-79.3c-8.5-26.4-4.9-55.9,7.7-80.4c16.9-33,48.8-63.8,81.4-81C205.5,44,216.6,40.1,228.2,36.3z
	 M263.4,52.6c28,16.1,51.9,44.4,60.4,75.8c9.8,36.3,5.5,83.5-13.3,116.1c-12.1,21-29.9,37.2-50.5,49.6c5.4,0.6,11.5,0.3,16.9-0.1
	c25.2-2.2,47.1-14.3,63.3-33.6c20.9-24.9,28.5-55.9,25.6-88c-3.2-36.7-19.6-73.7-48.3-97.6C304.8,64.2,280.4,51,263.4,52.6z"/>
<path fill="currentColor" d="M260,294.1c-3.5,0.4-7.7-0.4-11.2-0.8c-24.7-3.2-50.7-13.9-71.9-26.8c-24.9-15.1-47.9-37.6-55-66.8
	c-5.5-22.7-0.2-46.6,11.9-66.3c21.7-35.5,59.4-69.3,100.4-79.1c5.7-1.4,24.3-4.8,29.2-1.8c28,16.1,51.9,44.4,60.4,75.8
	c9.8,36.3,5.5,83.5-13.3,116.1C298.4,265.5,280.6,281.7,260,294.1z"/>
</svg>
