<svg width="300" height="87" viewBox="0 0 300 87" fill="none" xmlns="http://www.w3.org/2000/svg">
<path d="M198.893 68.3681C199.663 68.331 200.226 68.2624 200.835 68.8136C201.22 69.1603 201.309 69.5522 201.318 70.0644L201.337 79.4841C201.334 80.8378 201.566 82.786 201.151 84.0429C201.027 84.4177 200.798 84.6573 200.53 84.9332C199.828 85.0067 198.995 85.0142 198.4 84.5948C197.687 83.423 198.049 72.2425 198.082 70.0644C198.096 69.1802 198.296 68.9502 198.893 68.3681Z" fill="#70706C"/>
<path d="M187.133 68.3963C187.761 68.3572 188.881 68.2254 189.329 68.7313C190.198 69.7136 189.799 79.7999 189.759 81.8078C191.333 81.8387 194.815 81.5133 196.123 82.3035C196.208 82.5355 196.272 82.714 196.288 82.9631C196.328 83.5775 196.268 84.242 195.842 84.6711C194.678 84.9306 193.371 84.8056 192.176 84.8146C190.71 84.8249 188.409 85.177 187.092 84.5475C186.812 84.2146 186.589 83.9187 186.53 83.4787C186.376 82.3247 186.471 81.0486 186.469 79.8795L186.477 73.2558C186.481 72.1273 186.237 69.9903 186.684 68.9963C186.77 68.8048 187.003 68.5707 187.133 68.3963Z" fill="#70706C"/>
<path d="M239.325 68.4011C240.198 68.3626 241.023 68.2329 241.777 68.7718C242.228 70.2291 242.042 71.9686 242.044 73.494V81.7851C243.83 81.803 246.471 81.5655 248.127 82.1428C248.385 82.4421 248.49 82.7057 248.531 83.0949C248.602 83.7471 248.401 84.2228 247.988 84.7067C246.778 84.9154 245.459 84.8234 244.229 84.8227C242.621 84.8221 240.967 84.9024 239.375 84.6676C238.957 84.3539 238.875 84.0841 238.806 83.5651C238.646 82.3865 238.55 69.6607 238.86 68.9997C238.95 68.8081 239.19 68.5747 239.325 68.4011Z" fill="#70706C"/>
<path d="M162.828 68.1895L163.69 68.4592C164.249 69.0661 164.596 69.8782 164.977 70.6058L166.936 74.6196C167.852 73.1512 168.525 71.4783 169.318 69.9351C169.581 69.4237 169.885 68.718 170.39 68.405C170.68 68.2251 171.773 68.3322 172.062 68.5052C172.409 68.7146 172.701 69.3324 172.805 69.7058C172.957 70.2482 172.309 71.319 172.057 71.8147L169.443 76.8698C169.216 77.2755 168.879 77.7636 168.765 78.2132C168.365 79.7818 168.819 81.9195 168.647 83.5746C168.581 84.213 168.552 84.3551 168.068 84.7642C167.464 84.8912 166.622 85.0223 166.03 84.7889C164.865 84.3297 165.496 79.7523 165.271 78.4714C165.159 77.835 164.799 77.3318 164.489 76.784L162.177 72.4188C161.826 71.7556 161.266 70.9339 161.121 70.2125C161.071 69.966 161.125 69.6118 161.214 69.3722C161.498 68.6109 162.133 68.4764 162.828 68.1895Z" fill="#70706C"/>
<path d="M178.192 68.4084C179.865 68.2326 182.151 68.2615 183.587 69.2836C184.269 69.7683 184.363 70.2563 184.476 71.0362C184.156 71.8009 183.751 71.9903 183.112 72.4613C182.218 71.9814 180.719 71.0218 179.697 71.2352L178.75 71.4151C178.1 71.5716 177.745 71.8888 177.421 72.4661C176.838 73.5033 177.067 79.4186 177.417 80.668C177.548 81.1348 177.837 81.4465 178.267 81.6709C178.537 81.8117 179.168 82.1707 179.451 82.1995C180.421 82.3004 182.313 81.3304 183.308 81.0353C183.703 81.2378 183.993 81.3812 184.227 81.7794C184.399 82.0704 184.603 82.7789 184.454 83.0905C184.117 83.7935 182.706 84.4937 181.978 84.7209C180.559 85.165 177.775 85.1259 176.473 84.3523C175.323 83.6686 174.339 82.4761 174.049 81.1526C173.721 79.6561 173.798 78.0718 173.822 76.5485C173.852 74.5646 173.643 72.3157 174.8 70.5838C175.679 69.2678 176.694 68.7434 178.192 68.4084Z" fill="#70706C"/>
<path d="M153.035 68.415C154.412 68.2819 156.195 68.1837 157.508 68.6278L157.767 68.7233L158.505 69.0171C159.12 69.3479 159.558 70.0296 159.735 70.6934C159.814 70.9831 159.856 71.2316 159.694 71.4959C159.518 71.7801 158.745 72.3094 158.428 72.3629C158.097 72.4192 156.466 71.4472 155.965 71.325C155.409 71.1891 154.765 71.2742 154.209 71.3916C153.454 71.5508 152.974 71.8721 152.59 72.5634C152.255 73.1654 152.351 74.1573 152.347 74.8273C152.335 76.5813 152.027 78.9667 152.612 80.6218C152.799 81.1504 153.308 81.6343 153.808 81.8643C155.317 82.5583 156.663 81.6611 158.071 81.1257C158.255 81.116 158.343 81.1044 158.54 81.1305C159.112 81.2074 159.301 81.4504 159.654 81.8485C159.83 82.4004 159.777 82.6723 159.613 83.2215C159.008 83.75 158.411 84.2628 157.651 84.5539C156.293 85.0735 153.316 85.147 152.018 84.4976C150.863 83.9196 149.777 82.8253 149.39 81.5719C148.754 79.5166 148.98 76.8098 149.074 74.6708C149.129 73.4256 149.125 72.17 149.71 71.0366C150.442 69.6218 151.56 68.8921 153.035 68.415Z" fill="#70706C"/>
<path d="M138.528 68.5733C140.453 68.4106 142.437 68.4491 144.368 68.4944C145.399 68.5184 146.376 68.3777 147.215 69.0731C147.455 69.5255 147.513 69.7726 147.498 70.2874C147.49 70.5771 147.15 71.0631 146.906 71.2334C145.829 71.9864 142.527 71.499 141.19 71.453L141.064 75.0961C142.469 75.1524 145.378 74.6836 146.501 75.4984C146.989 75.8526 147.052 76.132 147.132 76.6997C146.984 77.1047 146.748 77.7768 146.357 78.0157C145.747 78.3884 143.399 78.1386 142.639 78.1358C142.093 78.1338 141.628 78.0198 141.172 78.3301L141.134 79.5493L141.178 81.7672C142.816 81.7597 144.596 81.6176 146.215 81.862C146.768 81.9457 147.241 81.9999 147.558 82.5169C147.841 82.9754 147.87 83.399 147.76 83.9076C147.413 84.3305 147.013 84.7602 146.443 84.8467C144.648 85.1186 142.392 84.857 140.559 84.8138C139.975 84.8 138.874 84.8694 138.403 84.4918C138.081 84.2337 137.936 83.7779 137.902 83.377C137.711 81.0773 137.863 78.6198 137.86 76.3036C137.857 74.2621 137.663 72.016 137.929 70.0067C138.006 69.4287 138.151 69.0147 138.528 68.5733Z" fill="#70706C"/>
<path d="M222.583 68.401C223.783 68.2836 225.397 68.1909 226.538 68.62L226.763 68.7113C227.366 68.9481 227.88 69.2357 228.386 69.649C228.924 70.0876 229.004 70.5462 229.056 71.208C228.786 71.7111 228.529 71.8615 228.05 72.1237C227.352 72.1697 226.935 72.1306 226.299 71.8313C225.373 71.3954 224.453 71.0816 223.416 71.2993C222.731 71.4434 222.128 71.9795 221.796 72.5836C221.241 73.5921 221.576 79.8259 221.951 80.9901C222.331 81.4075 222.75 81.7425 223.275 81.9677C224.149 82.3418 225.156 82.1207 225.99 81.7583C226.461 81.0903 226.233 79.0618 226.228 78.1941L224.212 77.9491C223.829 77.5015 223.677 77.1782 223.516 76.6139C223.632 76.075 223.746 75.7469 224.074 75.3007L225.224 75.1387C226.303 75.1119 228.276 74.86 229.16 75.5986C229.487 75.8711 229.487 77.0086 229.496 77.4363C229.536 79.2479 229.996 82.372 228.577 83.7339C227.153 85.1007 224.969 84.9401 223.159 84.8618C222.595 84.8371 222.095 84.8337 221.568 84.6064C220.187 84.0113 219.057 82.906 218.553 81.4741C218.171 80.3881 218.341 78.9136 218.338 77.7603C218.334 76.1457 218.181 74.3403 218.376 72.7443C218.458 72.0702 218.821 71.2773 219.141 70.6869C219.865 69.3483 221.195 68.7991 222.583 68.401Z" fill="#70706C"/>
<path fill-rule="evenodd" clip-rule="evenodd" d="M257.549 68.6843C256.974 68.2744 256.072 68.2984 255.391 68.3211C254.458 69.6501 249.768 82.6031 249.955 83.8524C250.01 84.2224 250.202 84.4799 250.529 84.6611C251 84.9234 251.635 84.8855 252.163 84.854C252.191 84.8524 252.218 84.8507 252.245 84.8492C253.023 84.4339 253.303 83.7756 253.553 82.9545C253.688 82.5131 253.77 82.0937 253.817 81.6358L257.551 81.6077C257.622 81.615 257.712 81.6192 257.813 81.6238C258.172 81.6404 258.659 81.6628 258.815 81.8576C259.138 82.2608 259.247 82.7183 259.355 83.166C259.507 83.8005 259.654 84.4155 260.397 84.8293C260.485 84.8326 260.572 84.8367 260.658 84.8406C261.325 84.8713 261.919 84.8987 262.559 84.5959C262.901 84.1202 262.905 83.6101 262.798 83.0294C262.52 81.518 261.895 79.9347 261.288 78.3979C260.995 77.6548 260.706 76.9227 260.462 76.2148C260.202 75.4561 259.959 74.6767 259.714 73.8937C259.248 72.3998 258.779 70.893 258.174 69.4936C258.031 69.1634 257.844 68.895 257.549 68.6843ZM257.521 77.7528L256.407 73.2537L254.968 78.6747L255.165 78.8909L256.667 78.8511L257.482 78.8635C257.708 78.5206 257.654 78.2995 257.57 77.9586C257.554 77.8947 257.537 77.8267 257.521 77.7528Z" fill="#70706C"/>
<path d="M26.5763 23.8595L19.9191 24.9764L19.7188 8.06803L28.4333 6.88867L27.4849 14.932C27.0557 15.5595 27.1198 16.7168 27.0554 17.4699L26.5763 23.8595Z" fill="#A5C74D"/>
<path d="M204.893 68.3888L206.593 68.395C206.801 68.5227 207.313 68.7506 207.451 68.9222C207.813 69.3712 208.077 70.2615 208.385 70.7908C209.839 73.2881 211.238 75.9022 212.849 78.2939C212.801 75.4986 212.499 72.301 212.888 69.5448C212.985 68.8604 213.114 68.7767 213.629 68.3785C214.412 68.3167 215.141 68.4547 215.91 68.5776L216.066 70.5038C216.14 72.1534 216.316 83.7458 215.941 84.3362C215.843 84.4913 215.693 84.6066 215.57 84.7419C214.896 84.8702 214.14 85.0508 213.458 84.8785C212.768 84.7041 208.325 76.5077 207.544 75.202L207.495 80.7521C207.503 81.8958 207.634 83.2728 207.314 84.3815C207.248 84.6114 207.116 84.689 206.897 84.7714C206.468 84.9341 205.246 84.9636 204.829 84.7727C204.565 84.6512 204.33 84.0478 204.257 83.7684C203.789 81.9678 204.113 79.3908 204.113 77.5175C204.114 75.0832 203.896 72.3717 204.194 69.9567C204.268 69.3657 204.579 68.8803 204.893 68.3888Z" fill="#70706C"/>
<path fill-rule="evenodd" clip-rule="evenodd" d="M128.081 68.4458C127.815 68.4502 127.552 68.4546 127.294 68.4565C127.142 68.461 126.987 68.4631 126.831 68.4653C125.998 68.4768 125.135 68.4887 124.391 68.8704C124.204 69.1374 124.045 69.386 123.997 69.7161C123.802 71.0559 123.856 72.5907 123.908 74.0647C123.931 74.7343 123.954 75.3912 123.953 76.0117C123.952 76.7662 123.926 77.5518 123.9 78.3481C123.84 80.126 123.779 81.9579 123.995 83.6192C124.078 84.2603 124.176 84.4258 124.649 84.8466C124.773 84.8534 124.902 84.8637 125.033 84.8742C125.586 84.9187 126.18 84.9663 126.677 84.7642C127.38 83.9111 127.31 82.1094 127.257 80.7486C127.244 80.4112 127.232 80.1008 127.233 79.8388C127.234 79.7083 127.23 79.5857 127.225 79.4687C127.21 79.0154 127.197 78.6458 127.48 78.2208C127.579 78.2199 127.673 78.2159 127.763 78.2121C128.216 78.193 128.563 78.1784 128.929 78.586L131.221 82.179C131.291 82.2895 131.378 82.4367 131.478 82.6058C131.964 83.4266 132.757 84.7651 133.359 84.953C133.973 85.1445 134.499 84.9832 135 84.6255C135.338 84.3846 135.658 83.8992 135.676 83.4757C135.702 82.8516 135.299 82.3006 134.928 81.7919C134.845 81.6789 134.764 81.568 134.69 81.4589C134.66 81.4154 134.63 81.3719 134.601 81.3285C133.836 80.2096 133.087 79.1122 132.436 77.9187C133.757 77.1911 134.966 76.3859 135.397 74.8413C135.737 73.627 135.462 71.8366 134.786 70.785C134.109 69.7312 132.887 68.8086 131.644 68.5972C130.518 68.4055 129.268 68.4262 128.081 68.4458ZM127.708 71.4537C127.555 71.4568 127.403 71.4598 127.252 71.4613L127.225 75.2897C127.447 75.2892 127.67 75.2914 127.894 75.2937C129.092 75.3057 130.303 75.3179 131.434 74.9026L131.661 74.8229C132.053 74.1687 132.189 73.6408 131.99 72.8534C131.869 72.3813 131.692 72.2214 131.392 71.9509C131.349 71.9123 131.304 71.8715 131.256 71.8272L129.923 71.5739C129.205 71.4243 128.448 71.4392 127.708 71.4537Z" fill="#70706C"/>
<path fill-rule="evenodd" clip-rule="evenodd" d="M265.629 68.5648L269.783 68.5161C269.952 68.5154 270.124 68.5114 270.298 68.5072C271.201 68.4859 272.143 68.4636 272.938 68.9149L273.18 69.0632C273.872 69.4833 274.435 69.8966 274.896 70.5728C275.513 71.4768 275.802 72.825 275.56 73.8966C275.312 74.9902 274.671 75.5277 273.753 76.0961L273.607 76.1846L273.695 76.4791L274.124 76.6809C274.863 77.0805 275.742 78.1191 275.955 78.9305C276.355 80.4476 275.946 81.4897 275.19 82.7871C274.19 83.8827 273.369 84.3749 271.882 84.6556C270.483 84.9199 266.287 85.1931 265.134 84.401C264.523 83.2803 264.6 81.4123 264.663 79.8645C264.681 79.4288 264.698 79.0184 264.698 78.6573L264.708 70.6352C264.725 69.5561 264.881 69.2877 265.629 68.5648ZM267.971 71.5088C268.176 71.5098 268.425 71.5014 268.699 71.4923C269.719 71.4583 271.077 71.4129 271.723 71.7978C272.09 72.0167 272.136 72.1245 272.249 72.5144C272.482 73.3121 272.294 73.8022 271.899 74.5011L271.552 74.6816C270.844 74.9953 268.709 75.0496 267.984 74.7956L267.971 71.5088ZM268.675 77.9489C268.423 77.9629 268.199 77.9753 268.019 77.9791L267.967 81.7739C268.163 81.7746 268.36 81.7774 268.557 81.7801C269.667 81.7957 270.789 81.8114 271.848 81.4663L272.128 81.3778L272.293 81.3167C272.665 80.8087 272.759 80.1744 272.68 79.5518C272.613 79.0184 272.347 78.5653 271.912 78.2455C271.31 77.8029 269.748 77.8894 268.675 77.9489Z" fill="#70706C"/>
<path fill-rule="evenodd" clip-rule="evenodd" d="M200.514 21.2891L200.245 22.9826L197.396 36.2307C197.378 36.3324 197.357 36.4701 197.334 36.6268C197.252 37.1767 197.136 37.9607 196.944 38.2455C196.845 38.3919 196.43 38.6379 196.108 38.8293C195.973 38.909 195.855 38.9791 195.782 39.0288L188.236 43.6597L184.73 46.063C185.798 47.382 186.676 48.8514 187.551 50.317C187.998 51.0641 188.444 51.8102 188.914 52.535L197.261 47.3158L197.429 47.1991C198.494 48.526 199.794 50.118 201.265 51.0104C203.235 52.2071 206.51 52.7745 208.955 53.1982C209.177 53.2365 209.391 53.2737 209.597 53.31L209.852 53.3567C210.52 53.4734 211.139 53.424 211.786 53.2071C213.156 52.7479 214.492 51.9881 215.788 51.2511C216.189 51.0229 216.587 50.7969 216.98 50.5827C217.485 50.3079 217.996 50.0395 218.508 49.7706C220.013 48.9801 221.527 48.1852 222.907 47.2115L220.125 40.8253L208.565 47.4153L202.448 43.8196C204.847 42.6035 207.118 41.1622 209.389 39.7218C209.899 39.3979 210.409 39.074 210.921 38.7528L216.955 35.1111C217.49 34.7781 218.029 34.3976 218.575 34.0131C219.591 33.2964 220.627 32.5655 221.695 32.1009L221.859 32.0337C221.911 31.2613 221.599 30.2368 221.334 29.3662C221.26 29.1241 221.19 28.8939 221.132 28.6844C220.688 27.0698 220.285 25.4916 219.998 23.8386C218.799 23.473 217.471 23.4016 216.171 23.3317C215.63 23.3026 215.094 23.2738 214.574 23.2242L203.359 21.9467L200.514 21.2891ZM208.963 30.4637C207.956 30.3431 206.951 30.2229 205.934 30.2415L205.511 33.1851L207.888 31.6261L209.393 30.5147C209.249 30.498 209.106 30.4808 208.963 30.4637Z" fill="#A5C74D"/>
<path d="M183.145 18.4668C184.947 20.3814 187.354 22.0687 189.336 23.8446C189.342 24.4761 189.132 25.2271 188.897 25.8134L181.904 46.5763C182.639 47.7618 185.036 48.8128 186.304 49.4347C184.812 50.7864 182.967 51.8477 181.301 52.9797L173.377 58.4563C172.797 57.9545 172.342 57.0834 171.919 56.4436C171.33 55.556 170.829 54.6416 170.338 53.6977C170.302 53.6297 170.044 53.1986 170.045 53.1334C170.051 52.9481 170.378 52.4298 170.469 52.2362L171.82 49.272L173.724 44.2395C174.551 42.0435 175.394 39.9711 175.861 37.6604C174.824 38.4059 173.847 39.8008 172.939 40.7379L164.897 48.9309L159.991 53.9407C157.901 52.4888 156.087 49.8027 154.598 47.7591L161.471 28.9038L158.893 30.112C158.427 27.5646 157.53 24.9512 156.634 22.519C157.059 22.2437 158.15 22.2568 158.678 22.1977C160.693 21.9726 162.642 21.6561 164.68 21.722C165.467 22.217 170.243 25.2347 170.503 25.9074C170.789 26.6454 166.937 33.3693 167.295 34.8555L183.145 18.4668Z" fill="#A5C74D"/>
<path d="M232.505 17.373C234.646 17.4698 237.771 19.6432 239.477 20.8164C239.502 22.7275 238.934 24.8027 238.619 26.698L236.245 39.8748C238.8 37.2291 240.907 34.1915 243.124 31.2678L249.039 23.6124C251.169 24.594 253.947 25.586 255.701 27.1147C256.742 28.0222 257.188 38.8808 257.345 40.7905C258.686 39.167 259.603 37.2223 260.716 35.4429C261.923 33.5119 263.239 31.6262 264.287 29.6045C264.446 29.2984 264.826 28.7561 264.887 28.4348C264.99 27.8829 264.406 27.1813 264.649 26.5951L275.926 26.7172L279.48 34.184L268.795 34.1929C268.316 36.3072 266.985 38.4565 265.928 40.3306L258.128 54.7437L251.901 50.7031L250.428 33.8737L241.322 45.5313C239.281 48.0952 237.359 51.0052 234.911 53.1964C234.546 53.5218 232.729 53.3186 232.139 53.3103L226.099 53.1833L231.214 26.1063L224.406 22.1715C224.679 21.9044 224.546 21.9916 224.862 21.8358L232.505 17.373Z" fill="#A5C74D"/>
<path fill-rule="evenodd" clip-rule="evenodd" d="M27.4822 14.9322L54.0262 10.2347L61.2376 17.3458C61.5772 17.6826 61.9238 18.0178 62.2717 18.3543L62.272 18.3546L62.272 18.3547C63.4018 19.4474 64.5458 20.5537 65.5088 21.7728L44.3462 44.8725L37.8544 51.8889C37.5688 52.1986 37.275 52.508 36.9795 52.8191L36.9795 52.8192C36.0119 53.8381 35.0259 54.8764 34.2462 56.0138L35.898 57.6456L67.2085 41.344L68.9137 43.748L72.5018 41.7422C72.5701 41.701 72.6584 41.6507 72.7575 41.5942C73.1379 41.3774 73.6776 41.0699 73.8535 40.8422C74.0528 40.5834 74.2404 39.9383 74.3633 39.5156C74.3835 39.4461 74.402 39.3826 74.4185 39.3279L78.98 22.9206L97.9568 27.3476L99.8837 35.8681L81.2124 45.7807C81.7298 46.0402 82.2981 46.4059 82.8822 46.7816C83.8752 47.4205 84.9136 48.0885 85.8234 48.3137L103.013 38.8618L105.723 44.5903L120.491 3C121.163 3.55392 121.834 4.13192 122.508 4.71343L122.508 4.71347C124.146 6.1246 125.807 7.55639 127.571 8.71484L115.357 45.4965L121.383 42.5852L126.444 40.2217C126.535 40.175 126.656 40.1197 126.789 40.0587C127.147 39.8945 127.594 39.6895 127.778 39.5043C127.957 39.3251 128.178 38.7269 128.315 38.3587C128.342 38.2854 128.366 38.2211 128.385 38.1712L134.037 21.2827L152.028 27.5L154.359 35.3752L134.206 44.937C134.627 45.1017 135.064 45.317 135.511 45.5375C136.914 46.2288 138.419 46.9707 139.831 46.3607C140.72 45.9763 141.597 45.4802 142.466 44.9888L142.466 44.9888C142.938 44.7221 143.407 44.4568 143.875 44.2114L151.049 40.5875C151.331 40.4451 151.614 40.2989 151.898 40.152L151.9 40.1511L151.9 40.151C153.019 39.5727 154.154 38.9856 155.338 38.5899L153.552 45.2912C153.532 45.3606 153.503 45.476 153.469 45.6142L153.469 45.6149L153.469 45.6151C153.358 46.0576 153.19 46.7322 153.053 46.8749C152.803 47.1324 152.238 47.415 151.827 47.6206C151.777 47.6456 151.729 47.6693 151.685 47.6918C151.65 47.7093 151.618 47.7261 151.587 47.7419L145.666 50.5846C145.297 50.7654 144.865 51.0072 144.4 51.2675C143.075 52.0089 141.483 52.8997 140.34 52.9556C139.571 52.9935 138.765 52.7767 137.993 52.5693C137.744 52.5024 137.498 52.4365 137.259 52.3804C136.867 52.2883 136.471 52.2002 136.073 52.1117L136.072 52.1116C134.885 51.8473 133.685 51.5806 132.543 51.199C131.46 50.837 130.489 49.9106 129.639 49.0984L129.639 49.0984L129.639 49.098C129.525 48.9891 129.413 48.8823 129.303 48.7792C129.268 48.746 129.196 48.6715 129.106 48.5784L129.106 48.578C128.843 48.3044 128.425 47.87 128.325 47.849C128.044 47.7904 126.336 48.6597 125.414 49.1288C125.192 49.242 125.015 49.3319 124.916 49.3798L111.127 56.0132L103.324 51.3822L105.304 45.7546L95.7257 50.6951C95.0348 51.0585 94.3344 51.4553 93.6257 51.8567L93.6255 51.8569C91.7373 52.9264 89.7898 54.0296 87.8039 54.6265L87.4964 54.4912C86.1661 53.9315 84.5082 53.6142 82.952 53.3163L82.9519 53.3163C82.3841 53.2076 81.8298 53.1015 81.3099 52.9872C81.1498 52.9519 80.9876 52.9188 80.8246 52.8856C79.9983 52.7169 79.1519 52.5442 78.4535 52.0625C77.3971 51.3342 76.4225 50.0823 75.6162 49.0465L75.501 48.8986C75.3704 48.9746 75.2398 49.0508 75.1091 49.1271C73.5521 50.0355 71.9918 50.9459 70.3065 51.595L67.3561 49.3002L33.8469 67.2033L24.5677 58.6526C24.4168 58.5144 24.1784 58.3218 23.9069 58.1023L23.9068 58.1022C23.1789 57.5139 22.212 56.7325 22.0469 56.2871L54.2068 21.4694L52.1186 19.3029L26.5736 23.8597L27.0527 17.47C27.0669 17.3042 27.0748 17.1188 27.0832 16.9237C27.1127 16.2329 27.1475 15.4214 27.4822 14.9322ZM138.638 31.19L142.744 32.4627L140.153 33.7038L137.048 35.1214L138.638 31.19ZM87.9633 33.3206L83.8568 32.0479L82.2669 35.9793L85.3718 34.5617L87.9633 33.3206Z" fill="#70706C"/>
</svg>
