<?xml version="1.0" encoding="utf-8"?>
<!-- Generator: Adobe Illustrator 25.4.1, SVG Export Plug-In . SVG Version: 6.00 Build 0)  -->
<svg version="1.1" id="Layer_1" xmlns="http://www.w3.org/2000/svg" xmlns:xlink="http://www.w3.org/1999/xlink" x="0px" y="0px"
	 viewBox="0 0 300 87" style="enable-background:new 0 0 300 87;" xml:space="preserve">
<style type="text/css">
	.st0{clip-path:url(#SVGID_00000103259098393449913200000018073479829279774870_);}
	.st1{fill:currentColor;}
	.st2{fill:currentColor;}
</style>
<g>
	<defs>
		<rect id="SVGID_1_" x="7" y="3" width="286" height="80"/>
	</defs>
	<clipPath id="SVGID_00000117653548353355891120000006113699890407785116_">
		<use xlink:href="#SVGID_1_"  style="overflow:visible;"/>
	</clipPath>
	<g style="clip-path:url(#SVGID_00000117653548353355891120000006113699890407785116_);">
		<path class="st1" d="M79.3,11c-3.5-3.5-7.9-6-12.8-7.2c-4.8-1.2-9.9-1-14.7,0.5c-4.7,1.5-9,4.3-12.3,8c-3.3,3.7-5.5,8.3-6.3,13.2
			c-0.1,0.6-0.2,1.1-0.2,1.7c-0.1,0.5-0.1,1.1-0.1,1.7c0,0.5,0,0.9,0,1.3v27.1h23.5c0-0.4,0-0.9,0-1.4v-3.6H37.9V30.1
			c0-0.5,0-0.9,0-1.4c0-0.4,0.1-1.1,0.2-1.7s0.2-1.1,0.3-1.7c0.8-3.9,2.7-7.5,5.4-10.4c2.7-2.9,6.2-5,10-6.1
			c3.8-1.1,7.9-1.2,11.7-0.2c3.9,1,7.4,3,10.2,5.8c2.8,2.8,4.8,6.3,5.8,10.2c1,3.8,0.9,7.9-0.2,11.7c-1.1,3.8-3.2,7.2-6.2,9.9
			c-2.9,2.7-6.5,4.6-10.4,5.4v4.1c0,0.3,0,0.6,0,1c4.9-0.9,9.5-3,13.2-6.3c3.7-3.3,6.5-7.5,8-12.2c1.5-4.7,1.7-9.8,0.5-14.6
			C85.3,18.9,82.8,14.5,79.3,11z"/>
		<path class="st2" d="M37.9,33.8h18.5v22.1c0,0.5,0,0.9,0,1.4c0,0.4-0.1,1.1-0.2,1.7c-0.1,0.5-0.2,1.1-0.3,1.7
			c-0.8,3.9-2.7,7.4-5.4,10.3c-2.7,2.9-6.2,5-10,6.1c-3.8,1.1-7.9,1.2-11.7,0.2c-3.9-1-7.4-3-10.2-5.8c-2.8-2.8-4.8-6.3-5.8-10.1
			c-1-3.8-0.9-7.9,0.2-11.7c1.1-3.8,3.2-7.2,6.1-10c2.9-2.7,6.5-4.6,10.4-5.4v-4.1c0-0.3,0-0.7,0-1c-5,0.9-9.7,3.2-13.5,6.6
			c-3.8,3.4-6.6,7.8-7.9,12.8c-1.4,4.9-1.4,10.1,0.1,15s4.3,9.3,8.1,12.7c3.8,3.4,8.6,5.6,13.6,6.4c5.1,0.8,10.2,0.2,15-1.8
			c4.7-2,8.8-5.3,11.7-9.4c2.9-4.2,4.6-9.1,4.9-14.2c0-0.2,0-0.4,0-0.6v-0.4c0-0.1,0-0.2,0-0.3V28.8H37.9c0,0.4,0,0.9,0,1.4V33.8z"
			/>
		<path class="st2" d="M121.8,25.7h-15.7l-1.4-1.4V11.5h2.8v11.4H119V11.5h2.8L121.8,25.7z"/>
		<path class="st2" d="M141.8,19.4l-1.4,1.4l1.4,1.4v3.4h-2.9v-3.4h-11.4v3.4h-2.9V11.5h2.9v8h11.4v-8h2.9V19.4z"/>
		<path class="st2" d="M144.7,11.5h17.2V20h-2.9v1.4h2.8v4.3h-2.8v-1.4c-0.8,0-1.5-0.3-2-0.8c-0.5-0.5-0.8-1.3-0.8-2V20h-8.6v5.7
			h-2.8V11.5z M158.9,17.2v-2.9h-11.4v2.8L158.9,17.2z"/>
		<path class="st2" d="M164.6,11.5h17.2v14.2h-2.9v-3.4h-11.4v3.4h-2.9V11.5z M178.9,19.5v-5.1h-11.4v5.1L178.9,19.5z"/>
		<path class="st2" d="M184.6,8.6h2.8v2.3h-2.8V8.6z M187.4,11.5v14.2h-2.8V11.5H187.4z"/>
		<path class="st2" d="M207.4,25.7h-2.8v-4.4l-11.4-6.6v10.9h-2.8V11.5h2.8l11.4,6.6v-6.6h2.8V25.7z"/>
		<path class="st2" d="M210.3,8.6h2.9v2.3h-2.9V8.6z M213.1,11.5v14.2h-2.9V11.5H213.1z"/>
		<path class="st2" d="M216,11.5h17.2v14.2h-2.8v-3.4h-11.4v3.4H216L216,11.5z M230.2,19.5v-5.1h-11.4v5.1L230.2,19.5z"/>
		<path class="st2" d="M253.1,25.7h-2.9v-4.4l-11.4-6.6v10.9h-2.8V11.5h2.8l11.4,6.6v-6.6h2.9V25.7z"/>
		<path class="st2" d="M121.8,49.6H119v-8.9l-5.7,8.9l-1.7-2.6l-4-6.3v8.9h-2.8V35.4h2.8l5.7,8.9l5.7-8.9h2.8L121.8,49.6z"/>
		<path class="st2" d="M124.7,35.4h17.2v14.2H139v-3.4h-11.4v3.4h-2.9V35.4z M138.9,43.4v-5.1h-11.4v5.1L138.9,43.4z"/>
		<path class="st2" d="M161.8,43.4l-1.5,1.4l1.4,1.4v3.4h-2.8v-3.4h-11.4v3.4h-2.8V35.4h2.8v8h11.4v-8h2.8V43.4z"/>
		<path class="st2" d="M181.7,38.2h-14.3v2.9h9.7v2.8h-9.7v2.8h14.3v2.9h-17.2V35.4h17.2V38.2z"/>
		<path class="st2" d="M184.6,35.4h17.2v8.5h-2.8v1.4h2.8v4.3h-2.8v-1.4c-0.8,0-1.5-0.3-2-0.8c-0.5-0.5-0.8-1.3-0.8-2v-1.4h-8.6v5.7
			h-2.8L184.6,35.4z M198.9,41.1v-2.9h-11.4v2.9H198.9z"/>
		<path class="st2" d="M104.7,59.3h17.2v14.2H119v-3.4h-11.4v3.4h-2.8V59.3z M119,67.3v-5.1h-11.4v5.1L119,67.3z"/>
		<path class="st2" d="M141.8,62.2h-14.3V65h14.3v7.1l-1.4,1.4h-15.7v-2.8h14.3v-2.9h-14.3v-7.1l1.4-1.4h15.7V62.2z"/>
		<path class="st2" d="M161.8,62.2h-14.3V65h14.3v7.1l-1.5,1.4h-15.6v-2.8h14.3v-2.9h-14.3v-7.1l1.4-1.4h15.7V62.2z"/>
		<path class="st2" d="M164.6,59.3h17.2v14.2h-17.2V59.3z M178.9,70.7v-8.6h-11.4v8.5L178.9,70.7z"/>
		<path class="st2" d="M201.7,62.2h-14.3v8.5h14.3v2.8H186l-1.4-1.4V60.7l1.4-1.4h15.7V62.2z"/>
		<path class="st2" d="M204.6,56.5h2.8v2.3h-2.8V56.5z M207.4,59.3v14.2h-2.8V59.3H207.4z"/>
		<path class="st2" d="M210.3,59.3h17.2v14.2h-2.9v-3.4h-11.4v3.4h-2.9V59.3z M224.5,67.3v-5.1h-11.4v5.1L224.5,67.3z"/>
		<path class="st2" d="M247.4,62.2h-7.1v11.4h-2.9V62.2h-7.1v-2.9h17.2L247.4,62.2z"/>
		<path class="st2" d="M250.2,56.5h2.9v2.3h-2.9V56.5z M253.1,59.3v14.2h-2.9V59.3H253.1z"/>
		<path class="st2" d="M255.9,59.3h17.2v14.2h-17.2V59.3z M270.2,70.7v-8.6h-11.4v8.5L270.2,70.7z"/>
		<path class="st2" d="M293,73.5h-2.8v-4.4l-11.4-6.6v10.9h-2.9V59.3h2.8l11.4,6.6v-6.6h2.9V73.5z"/>
	</g>
</g>
</svg>
