<?xml version="1.0" encoding="utf-8"?>
<!-- Generator: Adobe Illustrator 25.4.1, SVG Export Plug-In . SVG Version: 6.00 Build 0)  -->
<svg version="1.1" id="Layer_1" xmlns="http://www.w3.org/2000/svg" xmlns:xlink="http://www.w3.org/1999/xlink" x="0px" y="0px"
	 viewBox="0 0 300 87" enable-background="new 0 0 300 87" xml:space="preserve">
<path fill="#00A082" d="M34.7,54.9v-0.1c0-14.4,11-26.7,26.5-26.7c7.8,0,12.8,1.9,17.5,5.2c1.1,0.9,1.9,2.2,1.9,3.7
	c0,2.5-2,4.4-4.4,4.4l0,0c-1.2,0-2.1-0.5-2.8-1c-3.3-2.3-6.9-4.1-12.5-4.1c-9.5,0-16.8,8.4-16.8,18.1v0.1c0,10.6,7,18.4,17.5,18.4
	c4.8,0,9.3-1.6,12.5-4v-9.6H64c-2.2,0-4.1-1.7-4.1-4s1.9-4,4.1-4h14.3c2.6,0,4.6,2,4.6,4.6v13.7c0,2.6-1,4.4-3.2,5.8
	c-4.4,3-10.6,5.6-18.4,5.6C45.2,81.4,34.7,69.9,34.7,54.9 M91,30.8c0-2.5,2-4.4,4.3-4.4c0,0,0,0,0.1,0c2.5,0,4.4,2,4.4,4.4v45.7
	c0,2.5-2,4.4-4.4,4.4c-2.5,0-4.4-2-4.4-4.3c0,0,0,0,0-0.1V30.8z M106.8,61.3v-0.1c0-11.1,8.8-20.4,20.7-20.4s20.7,9,20.7,20.1v0.1
	c0,11-8.8,20.2-20.9,20.2C115.6,81.4,106.8,72.4,106.8,61.3 M139.3,61.3v-0.1c0-6.8-4.9-12.6-12-12.6c-7.2,0-11.7,5.6-11.7,12.3v0.1
	c0,6.8,4.9,12.5,11.9,12.5C134.7,73.6,139.3,68,139.3,61.3 M170.5,81.3h-0.4c-2.5,0-4.1-1.6-5.1-4l-13-29.6
	c-0.2-0.6-0.5-1.4-0.5-2.2c0-2.2,2-4.3,4.4-4.3s3.7,1.4,4.4,3.2l10,25.8l10.1-25.9c0.6-1.6,1.9-3.1,4.2-3.1c2.5,0,4.3,1.9,4.3,4.3
	c0,0.7-0.2,1.7-0.5,2.1l-13.1,29.7C174.6,79.7,173,81.3,170.5,81.3 M192.3,61.3v-0.1c0-11.1,8.8-20.4,20.7-20.4s20.7,9,20.7,20.1
	v0.1c0,11-8.8,20.2-20.9,20.2C201,81.4,192.3,72.4,192.3,61.3 M224.8,61.3v-0.1c0-6.8-4.9-12.6-12-12.6c-7.2,0-11.7,5.6-11.7,12.3
	v0.1c0,6.8,4.9,12.5,11.9,12.5C220.2,73.6,224.8,68,224.8,61.3"/>
<path fill="#FFCC1B" d="M248.6,5.6c-9.6,0-17.5,7.8-17.5,17.5c0,3.7,1.1,7.2,3.3,10.1l0.5,0.6l9.1,12.8c0,0,1.1,1.9,3.6,1.9h2.2
	c2.3,0,3.6-1.9,3.6-1.9l9.1-12.8l0.5-0.6c2.2-3,3.3-6.5,3.3-10.1C266,13.4,258.3,5.6,248.6,5.6 M255.8,28.2l-0.5,0.6l-6.7,9.5
	l-6.8-9.5l-0.5-0.7c-1.1-1.6-1.7-3.3-1.7-5.2c0-4.9,4-8.9,8.9-8.9l0,0c4.9,0,8.9,4,8.9,8.9l0,0C257.5,24.9,256.9,26.7,255.8,28.2
	 M243.7,56.5c0-2.6,2.1-4.8,4.8-4.8c2.8,0,4.8,2.1,4.8,4.8l0,0c0,2.6-2.1,4.8-4.9,4.8C245.8,61.2,243.7,59.1,243.7,56.5"/>
</svg>
