<svg width="300" height="87" viewBox="0 0 300 87" fill="none" xmlns="http://www.w3.org/2000/svg">
<g clip-path="url(#clip0_1768_4572)">
<path d="M211.339 49.9991V52.0211C211.339 54.7653 210.368 56.8838 208.232 58.0392C206.288 59.0984 203.617 59.628 200.266 59.628C197.595 59.628 194.876 59.4354 192.204 59.0502L191.379 58.954V58.1355V54.8135V53.7062L192.496 53.8988C196.283 54.5246 198.906 54.8135 200.364 54.8135C202.257 54.8135 203.52 54.621 204.298 54.3321C204.637 54.1877 204.783 54.1395 204.879 53.8507C205.026 53.6099 205.122 53.3692 205.074 52.9359V50.4805C205.074 49.7102 204.832 49.3732 204.54 49.1807C204.103 48.8918 203.277 48.6992 201.821 48.6992H199.198C196.672 48.6992 194.585 48.1695 193.079 46.966C191.574 45.7623 190.845 44.0773 190.845 42.0552V39.8886C190.845 37.6741 191.913 35.989 193.953 34.9297C195.896 33.9188 198.664 33.4373 202.16 33.4373C202.938 33.4373 205.317 33.5818 209.251 33.8224L210.173 33.8707V34.7853V37.9148V39.0702L209.056 38.8776C206.726 38.4443 204.394 38.2517 202.015 38.2036C199.732 38.2036 198.421 38.4443 197.838 38.7332C197.4 38.974 197.109 39.3591 197.109 40.1775V42.1515C197.109 42.5847 197.255 42.8736 197.692 43.0662C198.178 43.3551 199.053 43.5476 200.411 43.5476H202.111H203.083C205.609 43.5476 207.696 44.0291 209.154 45.1364C210.611 46.2437 211.339 47.9289 211.339 49.9991ZM180.646 25.4453H179.674V26.8896V58.1836V59.1465H180.646H184.968H185.94V58.1836V26.8896V25.4453H184.968H180.646ZM237.612 42.3441V47.4955V48.5548H236.642H222.071V51.0101C222.071 52.4063 222.558 53.2248 223.335 53.6581C224.257 54.2357 225.763 54.5727 227.948 54.5727C230.085 54.5727 232.561 54.1876 235.476 53.4654L236.689 53.1767V54.4283V57.7022V58.4725L235.912 58.6651C233.097 59.291 230.182 59.628 227.316 59.6761C223.675 59.6761 220.809 59.0984 218.818 57.7503C216.73 56.3541 215.758 54.2357 215.758 51.5879V42.3441C215.758 39.311 216.633 36.9519 218.575 35.4594C220.469 34.0632 223.335 33.4373 226.976 33.4373C230.376 33.4373 233.097 34.0151 234.893 35.4112C236.787 36.8074 237.612 39.2627 237.612 42.3441ZM231.348 40.996C231.348 39.7924 230.959 39.1665 230.522 38.9257C229.891 38.5406 228.725 38.2998 226.735 38.2998C224.888 38.2998 223.675 38.5406 222.946 38.9257C222.46 39.2146 222.071 39.7924 222.071 41.0442V43.7884H231.348V40.996ZM169.088 33.9188H168.116V34.8816V52.4544C168.116 53.3692 167.826 53.8024 167.292 54.0432C166.562 54.3802 165.154 54.621 162.726 54.621C161.9 54.621 161.124 54.5727 160.298 54.3321C159.86 54.2358 159.618 54.0913 159.326 53.7543C159.132 53.5137 158.986 53.2729 158.888 52.9359C158.792 52.5025 158.743 52.1655 158.792 51.7322V34.8816V33.9188H157.82H153.498H152.526V34.8816V51.973C152.526 54.3802 153.158 56.3541 154.568 57.7022C156.024 59.0984 158.452 59.628 161.56 59.628C163.939 59.628 165.882 59.3391 167.339 58.7132C167.631 58.5687 167.922 58.4243 168.214 58.2318V59.1465H169.184H173.507H174.478V58.1836V34.8816V33.9188H173.507H169.088ZM281.369 42.0552C279.427 42.0552 277.727 43.1144 276.901 44.7032H271.22L268.694 23.5195H263.449L256.115 51.636L254.222 43.7403H243.051V48.5548H249.851L253.396 63.4795H258.447L265.003 38.7813L266.411 48.6992L266.558 49.5177H276.901C277.776 51.1064 279.427 52.1655 281.369 52.1655C284.186 52.1655 286.468 49.9028 286.468 47.1104C286.468 44.318 284.186 42.0552 281.369 42.0552ZM146.796 29.8747C147.283 30.8375 147.574 33.1003 147.574 33.1003V39.5999C147.574 42.5366 146.408 44.7994 143.979 46.0993C141.697 47.303 138.638 47.8806 134.801 47.8806H131.061V58.1836V59.1465H130.091H125.427H124.457V58.1836V26.9377V25.9749H125.427H135.578C136.889 25.9749 138.006 26.0231 138.929 26.0712C139.949 26.1675 141.017 26.3118 141.989 26.5526C142.96 26.7452 143.979 27.1785 144.806 27.7081C145.63 28.2859 146.311 29.0562 146.796 29.8747ZM141.066 33.6299C141.115 33.0522 140.968 32.5708 140.629 32.1374C140.24 31.656 139.851 31.4152 139.268 31.319C138.638 31.1264 138.006 31.0301 137.376 30.9337C136.84 30.8856 136.21 30.8856 135.384 30.8856H131.159V43.0662H135.481C137.229 43.0662 138.54 42.7773 139.755 42.1515C140.678 41.6701 141.163 40.8515 141.163 39.4072L141.066 33.6299ZM27.9588 39.311H24.2193C22.2767 39.311 21.2084 39.0702 20.6741 38.7332C20.237 38.4443 19.9457 38.0111 19.9457 37.1444V33.5818C19.9457 32.4263 20.3342 31.7523 20.9656 31.4152C21.3054 31.2226 21.8882 31.0301 22.811 30.8856C23.7337 30.7412 24.8993 30.6931 26.3562 30.6931C28.2988 30.6931 31.0185 30.982 34.5151 31.5115L35.6321 31.7041V30.5967V26.986V26.1193L34.7579 26.0231C32.0869 25.6861 29.3672 25.4934 26.6477 25.4934C21.9854 25.4934 18.5373 26.0712 16.4977 27.4674C14.5064 28.8635 13.5352 30.982 13.5352 33.7262V36.2298C13.5352 38.8295 14.1665 40.996 15.6234 42.4885C17.129 44.0291 19.6543 44.7032 22.8595 44.7032H26.5019C28.4444 44.7032 29.4644 44.992 29.95 45.329C30.3872 45.6179 30.6785 46.2437 30.6785 47.3992V51.4434C30.6785 52.0693 30.5813 52.4544 30.3872 52.8395C30.1928 53.2248 29.9985 53.3692 29.5129 53.5618C28.5416 53.9951 26.9875 54.2357 24.8508 54.2357C22.1797 54.2357 19.0229 53.8507 15.2834 53.0322L14.118 52.7914V53.9951V57.8948V58.7132L14.9921 58.8576C18.1488 59.3391 21.4026 59.5799 24.6079 59.628C28.6388 59.628 31.8441 59.0021 33.9323 57.5578C36.2149 56.0171 37.1862 53.3692 37.1862 49.8547V47.5919C37.1862 44.9439 36.6034 42.7773 35.1949 41.3812C33.738 39.8886 31.2126 39.311 27.9588 39.311ZM117.658 25.4453H118.629V26.8896V58.1836V59.1465H117.658H113.433H112.461V58.1836C112.219 58.3281 112.024 58.4243 111.782 58.5687C110.227 59.291 108.139 59.628 105.711 59.628C102.311 59.628 99.6888 59.0984 98.0377 57.8467C96.2893 56.4985 95.6095 54.1876 95.6095 51.2507V40.996C95.6095 38.4443 96.3864 36.4223 98.1833 35.1705C99.8831 33.9669 102.554 33.4373 105.954 33.4373C107.751 33.4373 109.596 33.6781 111.296 34.2076C111.684 34.3521 112.073 34.4965 112.461 34.6891C112.461 33.3892 112.413 32.2819 112.413 31.5115V26.8896V25.4453H113.384H116.735H117.658ZM112.413 40.5628C112.413 39.9369 112.121 39.4554 111.344 39.0702C110.47 38.637 109.062 38.3962 107.022 38.3962C105.759 38.3962 104.788 38.4443 103.963 38.5406C103.137 38.637 102.7 38.7813 102.457 38.8776C102.166 39.0221 101.826 39.4072 101.826 40.5628V52.0693C101.826 53.1767 102.166 53.7062 102.7 54.0432C103.331 54.4283 104.594 54.7172 106.634 54.7172C108.965 54.7172 110.47 54.4283 111.344 53.9951C112.073 53.6581 112.413 53.0803 112.413 52.0693V40.5628ZM63.751 42.3441V47.4955V48.5548H62.7797H48.2103V51.0101C48.2103 52.4063 48.6959 53.2248 49.4731 53.6581C50.3957 54.2357 51.9013 54.5727 54.0867 54.5727C56.2234 54.5727 58.7003 54.1876 61.6141 53.4654L62.8282 53.1767V54.4283V57.7022V58.4725L62.0513 58.6651C59.2344 59.291 56.3206 59.628 53.4554 59.6761C49.8615 59.6761 46.9477 59.0984 44.9565 57.7503C42.8682 56.3541 41.8969 54.2357 41.8969 51.5879V42.3441C41.8969 39.311 42.7711 36.9519 44.7136 35.4594C46.6077 34.0632 49.4731 33.4373 53.1154 33.4373C56.5149 33.4373 59.2344 34.0151 61.0313 35.4112C62.9739 36.8074 63.751 39.2627 63.751 42.3441ZM57.5347 43.7403L57.4862 40.996C57.4862 39.7924 57.0977 39.1665 56.6605 38.9257C56.0292 38.5406 54.8636 38.2998 52.8726 38.2998C51.027 38.2998 49.8129 38.5406 49.0844 38.9257C48.5988 39.2146 48.2103 39.7924 48.2103 41.0442L48.259 43.7884H57.5347V43.7403ZM81.7685 33.4373C79.3888 33.4373 77.4462 33.7262 75.9893 34.3521C75.6979 34.4965 75.4065 34.641 75.1151 34.8335V33.9188H74.1439H69.8701H68.8988V34.8816V58.1836V59.1465H69.8701H74.1924H75.1637V58.1836V41.333C75.1637 40.0331 75.5523 39.4072 75.9893 39.1184C76.5721 38.7332 77.9805 38.4443 80.5544 38.4443C81.38 38.4443 82.157 38.4925 82.9826 38.7332C83.4197 38.8295 83.6626 38.974 83.9539 39.311C84.1482 39.5516 84.2939 39.7924 84.3424 40.1294C84.4395 40.5628 84.4882 40.8998 84.4395 41.333V58.1836V59.1465H85.4108H89.7331H90.7044V58.1836V41.0923C90.7044 38.6851 90.0731 36.7112 88.7133 35.3631C87.3049 33.9669 84.8767 33.4373 81.7685 33.4373Z" fill="currentColor"/>
</g>
<defs>
<clipPath id="clip0_1768_4572">
<rect width="300" height="87" fill="white"/>
</clipPath>
</defs>
</svg>
