<svg id="Layer_1" data-name="Layer 1" xmlns="http://www.w3.org/2000/svg" xmlns:xlink="http://www.w3.org/1999/xlink" viewBox="0 0 300 87"><defs><style>.cls-1{fill:none;}.cls-2{clip-path:url(#clip-path);}.cls-3{fill:#004280;}</style><clipPath id="clip-path"><rect class="cls-1" x="78.601" y="1.479" width="145.992" height="83.015"/></clipPath></defs><g class="cls-2"><path class="cls-3" d="M84.594,75.031V68.705h1.263v2.49h2.48v-2.49h1.268v6.326H88.337V72.264h-2.48v2.767Z"/><path class="cls-3" d="M96.574,75.031H95.2l-.549-1.439H92.139l-.516,1.439H90.278l2.443-6.326H94.06Zm-2.333-2.5-.867-2.346-.845,2.346Z"/><path class="cls-3" d="M97.267,68.705h1.268v5.269h2.459V68.705h1.268v5.263h.521v2.441h-1.054V75.025H97.267Z"/><path class="cls-3" d="M103.611,75.031V68.705h1.268v6.326Z"/><path class="cls-3" d="M105.831,71.91a4.088,4.088,0,0,1,.285-1.622,3,3,0,0,1,.587-.869,2.473,2.473,0,0,1,.813-.57,3.424,3.424,0,0,1,1.35-.249,2.918,2.918,0,0,1,2.217.869,3.9,3.9,0,0,1,0,4.809,2.892,2.892,0,0,1-2.206.864,2.948,2.948,0,0,1-2.228-.864A3.279,3.279,0,0,1,105.831,71.91Zm1.306-.045a2.377,2.377,0,0,0,.493,1.628,1.684,1.684,0,0,0,2.393.105c.034-.034.072-.067.1-.1a3.042,3.042,0,0,0,.01-3.271,1.747,1.747,0,0,0-2.481-.033.276.276,0,0,0-.038.039A2.41,2.41,0,0,0,107.137,71.865Z"/><path class="cls-3" d="M112.911,75.031V68.705h1.268v2.49h2.481v-2.49h1.267v6.326H116.66V72.264h-2.481v2.767Z"/><path class="cls-3" d="M124.889,75.031h-1.378l-.549-1.439h-2.508l-.517,1.439H118.6l2.442-6.326h1.339Zm-2.333-2.5-.862-2.346-.845,2.346Z"/><path class="cls-3" d="M126.12,68.705h4.4v6.326h-1.268V69.773H127.36v2.7a11.386,11.386,0,0,1-.077,1.621,1.178,1.178,0,0,1-.373.72,1.4,1.4,0,0,1-.933.255c-.148,0-.417-.017-.807-.045V74.04l.28.006a.918.918,0,0,0,.538-.111c.094-.072.137-.249.137-.531l0-1.085Z"/><path class="cls-3" d="M131.85,68.705h1.267v2.529h1.7a2.286,2.286,0,0,1,1.734.565,1.9,1.9,0,0,1,.538,1.356,1.866,1.866,0,0,1-.323,1.1,1.679,1.679,0,0,1-.742.614,3.581,3.581,0,0,1-1.207.161H131.85Zm1.267,5.263h1.236a3.732,3.732,0,0,0,.822-.055.828.828,0,0,0,.412-.266.749.749,0,0,0,.182-.509.7.7,0,0,0-.313-.636,2.063,2.063,0,0,0-1.06-.2h-1.29Z"/><path class="cls-3" d="M138.13,75.031V68.705H139.4v2.49h2.481v-2.49h1.268v6.326h-1.268V72.264H139.4v2.767Z"/><path class="cls-3" d="M144.472,68.705h1.186v4.217l2.541-4.211h1.262v6.325h-1.186V70.9l-2.541,4.129h-1.268Z"/><path class="cls-3" d="M150.768,68.706h1.185v4.211l2.541-4.211h1.262v6.325h-1.185V70.9l-2.541,4.128h-1.268Zm3.254-1.578h.587a1.4,1.4,0,0,1-.406.925,1.448,1.448,0,0,1-1.855,0,1.365,1.365,0,0,1-.406-.925h.587a.658.658,0,0,0,.214.465.983.983,0,0,0,1.07,0A.663.663,0,0,0,154.022,67.128Z"/><path class="cls-3" d="M158.853,68.705h1.417l1.465,3.282,1.252-3.282h1.323l-2.119,4.809a4.549,4.549,0,0,1-.708,1.19,1.182,1.182,0,0,1-.927.41,4.312,4.312,0,0,1-.879-.072V74.09c.181.011.341.017.489.017a.977.977,0,0,0,.631-.161,1.67,1.67,0,0,0,.368-.7Z"/><path class="cls-3" d="M164.944,75.031V68.705h1.268v2.49h2.481v-2.49h1.267v6.326h-1.267V72.264h-2.481v2.767Z"/><path class="cls-3" d="M171.236,75.031V68.705H172.5v6.326Z"/><path class="cls-3" d="M173.711,68.706h2.508a7.453,7.453,0,0,1,1.109.061,1.579,1.579,0,0,1,1.136.791,1.407,1.407,0,0,1,.192.742,1.5,1.5,0,0,1-.884,1.372,1.668,1.668,0,0,1,.884.576,1.514,1.514,0,0,1,.307.952,1.92,1.92,0,0,1-.2.841,1.7,1.7,0,0,1-.543.653,1.731,1.731,0,0,1-.851.3c-.208.022-.719.039-1.526.044h-2.135Zm1.267,1.052v1.461h.83c.494,0,.8-.006.921-.022a.839.839,0,0,0,.511-.227.679.679,0,0,0,.187-.493.649.649,0,0,0-.636-.7c-.127-.017-.489-.022-1.083-.022Zm0,2.518v1.693h1.175a5.685,5.685,0,0,0,.867-.038.773.773,0,0,0,.461-.255.762.762,0,0,0,.176-.537.819.819,0,0,0-.137-.481.761.761,0,0,0-.4-.288A4.237,4.237,0,0,0,176,72.281h-1.021Z"/><path class="cls-3" d="M180.037,75.031V68.705h4.653v1.068H181.3v1.4h3.151v1.068H181.3v1.722h3.508v1.068Z"/><path class="cls-3" d="M185.885,75.032V68.706h2.031a7.191,7.191,0,0,1,1.5.094,1.65,1.65,0,0,1,.906.62,1.987,1.987,0,0,1,.362,1.234,2.092,2.092,0,0,1-.209.98,1.752,1.752,0,0,1-.532.625,1.818,1.818,0,0,1-.658.3,6.954,6.954,0,0,1-1.312.089h-.829v2.385Zm1.267-5.258v1.793h.692a3.358,3.358,0,0,0,1-.1.84.84,0,0,0,.4-.31.911.911,0,0,0-.06-1.063.876.876,0,0,0-.511-.282,6.177,6.177,0,0,0-.911-.044h-.6Z"/><path class="cls-3" d="M195.525,72.708l1.23.393a2.772,2.772,0,0,1-.939,1.538,2.937,2.937,0,0,1-3.721-.36,3.318,3.318,0,0,1-.806-2.352,3.478,3.478,0,0,1,.806-2.451,2.765,2.765,0,0,1,2.13-.875,2.6,2.6,0,0,1,1.871.686,2.493,2.493,0,0,1,.642,1.168l-1.257.305a1.3,1.3,0,0,0-1.322-1.063,1.413,1.413,0,0,0-1.131.5,2.507,2.507,0,0,0-.433,1.638,2.686,2.686,0,0,0,.427,1.71,1.4,1.4,0,0,0,1.115.509,1.275,1.275,0,0,0,.867-.321A1.969,1.969,0,0,0,195.525,72.708Z"/><path class="cls-3" d="M197.858,68.705h1.186v4.217l2.541-4.211h1.263v6.325h-1.186V70.9l-2.541,4.129h-1.268Z"/><path class="cls-3" d="M205.555,75.031V69.773h-1.861V68.705h4.983v1.068h-1.855v5.258Z"/><path class="cls-3" d="M209.5,75.031V68.705h4.654v1.068h-3.386v1.4h3.15v1.068h-3.15v1.722h3.507v1.068Z"/><path class="cls-3" d="M216.755,75.031V69.773H214.9V68.705h4.983v1.068h-1.855v5.258Z"/><path class="cls-3" d="M86.967,80.239l-1.115,1.948,1.115,1.993h-.944l-1.35-1.993,1.35-1.948Zm1.679,0-1.109,1.948,1.109,1.993H87.7l-1.351-1.993L87.7,80.239Z"/><path class="cls-3" d="M89.665,78.152h1.268v1.511a5.282,5.282,0,0,0,.055.974.7.7,0,0,0,.318.415,1.417,1.417,0,0,0,.78.177,2.694,2.694,0,0,0,.724-.088,1.57,1.57,0,0,0,.549-.261V78.152h1.268v6.326H93.354V81.932a4.088,4.088,0,0,1-.758.26,3.269,3.269,0,0,1-.73.089,2.655,2.655,0,0,1-1.57-.449,1.775,1.775,0,0,1-.631-1.549Z"/><path class="cls-3" d="M95.929,84.483V78.152h4.654V79.22H97.2v1.4h3.15v1.068H97.2V83.41H100.7v1.068Z"/><path class="cls-3" d="M101.774,84.484V78.153h2.03a7.192,7.192,0,0,1,1.5.094,1.644,1.644,0,0,1,.9.62,1.974,1.974,0,0,1,.363,1.234,2.079,2.079,0,0,1-.209.98,1.762,1.762,0,0,1-.532.625,1.815,1.815,0,0,1-.659.3,6.932,6.932,0,0,1-1.311.089h-.829v2.385Zm1.267-5.257V81.02h.692a3.352,3.352,0,0,0,1-.1.838.838,0,0,0,.4-.31.907.907,0,0,0-.061-1.062.868.868,0,0,0-.51-.282,6.312,6.312,0,0,0-.91-.045h-.605Z"/><path class="cls-3" d="M107.625,84.483V78.152h1.269v2.49h2.481v-2.49h1.267v6.326h-1.267V81.711h-2.481v2.767h-1.269Z"/><path class="cls-3" d="M113.914,84.483V78.152h1.267v6.326h-1.267Z"/><path class="cls-3" d="M116.45,78.152H120.7v1.063h-2.986v5.263h-1.268Z"/><path class="cls-3" d="M121.316,84.483V78.152h1.267v6.326h-1.267Z"/><path class="cls-3" d="M123.8,78.153h2.509a7.336,7.336,0,0,1,1.109.061,1.58,1.58,0,0,1,1.135.791,1.417,1.417,0,0,1,.193.742,1.507,1.507,0,0,1-.884,1.372,1.672,1.672,0,0,1,.884.576,1.526,1.526,0,0,1,.307.952,1.949,1.949,0,0,1-.2.841,1.7,1.7,0,0,1-.544.653,1.724,1.724,0,0,1-.851.3c-.209.022-.719.039-1.525.044H123.8Zm1.263,1.052v1.461h.829c.493,0,.8-.006.922-.023a.835.835,0,0,0,.51-.226.658.658,0,0,0,.186-.493.647.647,0,0,0-.636-.7c-.126-.017-.489-.022-1.081-.022Zm0,2.518v1.693h1.174a5.578,5.578,0,0,0,.868-.039.745.745,0,0,0,.636-.791.828.828,0,0,0-.137-.481.763.763,0,0,0-.4-.288,4.244,4.244,0,0,0-1.125-.089h-1.021Z"/><path class="cls-3" d="M133.805,82.155l1.229.392a2.817,2.817,0,0,1-.939,1.539,2.937,2.937,0,0,1-3.72-.36,3.315,3.315,0,0,1-.808-2.352,3.489,3.489,0,0,1,.808-2.452,2.765,2.765,0,0,1,2.128-.874,2.6,2.6,0,0,1,1.872.686,2.5,2.5,0,0,1,.643,1.168l-1.257.3a1.3,1.3,0,0,0-1.324-1.062,1.41,1.41,0,0,0-1.13.5,2.51,2.51,0,0,0-.433,1.639A2.686,2.686,0,0,0,131.3,83a1.4,1.4,0,0,0,1.114.509,1.281,1.281,0,0,0,.867-.321A1.963,1.963,0,0,0,133.805,82.155Z"/><path class="cls-3" d="M136.147,78.152h1.268v2.529h1.7a2.286,2.286,0,0,1,1.734.565,1.9,1.9,0,0,1,.538,1.356,1.866,1.866,0,0,1-.323,1.1,1.646,1.646,0,0,1-.742.614,3.564,3.564,0,0,1-1.207.161h-2.964Zm1.268,5.269h1.234a3.779,3.779,0,0,0,.83-.061.821.821,0,0,0,.411-.266.739.739,0,0,0,.181-.509.7.7,0,0,0-.313-.636,2.056,2.056,0,0,0-1.059-.2H137.41Z"/><path class="cls-3" d="M142.44,78.153h1.268v2.695a.856.856,0,0,0,.577-.221,4.657,4.657,0,0,0,.461-.985,2.7,2.7,0,0,1,.79-1.279,2.473,2.473,0,0,1,1.274-.249c.026,0,.087,0,.18-.005v.946l-.18-.006a1.283,1.283,0,0,0-.572.1.749.749,0,0,0-.29.293,7.033,7.033,0,0,0-.329.814,2.786,2.786,0,0,1-.253.548,1.292,1.292,0,0,1-.477.415,1.27,1.27,0,0,1,.7.487,6.869,6.869,0,0,1,.6,1.035l.856,1.738h-1.487l-.746-1.639c-.012-.022-.039-.066-.072-.132-.016-.023-.066-.122-.159-.3a1.824,1.824,0,0,0-.4-.581.8.8,0,0,0-.478-.122v2.773h-1.268Z"/><path class="cls-3" d="M153.431,84.483h-1.378l-.549-1.439H149l-.516,1.439h-1.35l2.443-6.325h1.338ZM151.1,81.976l-.868-2.346-.85,2.346Z"/><path class="cls-3" d="M156.552,78.152h4.989v6.326h-1.268V79.209h-2.459v5.263h-1.267Z"/><path class="cls-3" d="M162.579,81.357a4.089,4.089,0,0,1,.286-1.622,2.981,2.981,0,0,1,.587-.869,2.479,2.479,0,0,1,.812-.57,3.431,3.431,0,0,1,1.35-.249,2.92,2.92,0,0,1,2.218.869,3.893,3.893,0,0,1,0,4.809,2.9,2.9,0,0,1-2.206.864,2.954,2.954,0,0,1-2.229-.864A3.283,3.283,0,0,1,162.579,81.357Zm1.306-.045a2.4,2.4,0,0,0,.494,1.627,1.683,1.683,0,0,0,2.393.106c.033-.034.072-.067.1-.106a3.022,3.022,0,0,0,.017-3.27,1.746,1.746,0,0,0-2.48-.034l-.039.039A2.388,2.388,0,0,0,163.885,81.312Z"/><path class="cls-3" d="M169.886,78.152h4.4v6.326h-1.267V79.22h-1.889v2.7a11.386,11.386,0,0,1-.077,1.621,1.173,1.173,0,0,1-.373.72,1.4,1.4,0,0,1-.933.254c-.148,0-.417-.016-.806-.044v-.99l.285,0a.91.91,0,0,0,.538-.111c.093-.072.136-.249.136-.531l0-1.085Z"/><path class="cls-3" d="M175.549,84.483V78.152h1.267v6.326h-1.267Z"/><path class="cls-3" d="M179.434,84.483V79.226h-1.861V78.158h4.983v1.068H180.7v5.257Z"/><path class="cls-3" d="M183.376,84.483V78.152h4.654V79.22h-3.386v1.4h3.15v1.068h-3.15V83.41h3.507v1.068Z"/><path class="cls-3" d="M188.583,84.483l2.146-3.3-1.942-3.027h1.482l1.256,2.031,1.235-2.031h1.466l-1.955,3.072,2.146,3.254h-1.531L191.5,82.292,190.1,84.478Z"/><path class="cls-3" d="M195.076,84.483V78.152h1.268v2.49h2.481v-2.49h1.268v6.326h-1.268V81.711h-2.481v2.767h-1.268Z"/><path class="cls-3" d="M201.36,84.483V78.152h1.268v6.326H201.36Z"/><path class="cls-3" d="M203.859,78.153h1.268v2.695a.856.856,0,0,0,.577-.221,4.423,4.423,0,0,0,.461-.985,2.707,2.707,0,0,1,.79-1.279,2.473,2.473,0,0,1,1.273-.249c.028,0,.088,0,.182-.005v.946l-.182-.006a1.277,1.277,0,0,0-.57.1.745.745,0,0,0-.291.293,7.215,7.215,0,0,0-.329.814,2.786,2.786,0,0,1-.253.548,1.292,1.292,0,0,1-.477.415,1.274,1.274,0,0,1,.7.487,6.869,6.869,0,0,1,.6,1.035l.856,1.738h-1.487l-.747-1.633c-.01-.022-.032-.066-.071-.133-.016-.022-.066-.122-.159-.3a1.824,1.824,0,0,0-.4-.581.81.81,0,0,0-.478-.122v2.773h-1.268Z"/><path class="cls-3" d="M214.846,84.483h-1.378l-.549-1.439h-2.508l-.516,1.439h-1.344l2.442-6.325h1.339Zm-2.333-2.507-.867-2.346-.845,2.346Z"/><path class="cls-3" d="M215.334,84.18l1.115-1.948-1.115-1.993h.944l1.35,1.993-1.35,1.948Zm1.674,0,1.115-1.948-1.115-1.993h.945l1.349,1.993-1.349,1.948Z"/><path class="cls-3" d="M90.138,51.594H88.925V32.573H127.3v4.289h10.281V1.652h13.6V3.617h21v21.7h-1.213V4.84h-21V2.875h-11.18V38.09h-12.7V33.8H90.138Z"/><path class="cls-3" d="M147.981,6.678a4.218,4.218,0,0,0-.686.387,3.716,3.716,0,0,0-1.394,1.9,6.711,6.711,0,0,0-.225,2.491v.769l-.006.542h.011l.11.017.066.016c.011.006.022.006.027.011a.519.519,0,0,1,.061.039c0,.006.011.006.016.011l.006.006a.827.827,0,0,1,.066.083.3.3,0,0,1,.027.182.022.022,0,0,1,0,.017.2.2,0,0,1-.017.05.106.106,0,0,1-.022.033.176.176,0,0,1-.049.061.878.878,0,0,1-.083.061l-.01,0a.291.291,0,0,0-.044.017.6.6,0,0,1-.1.022l-.065.011a.076.076,0,0,1-.033-.005.116.116,0,0,1-.049-.039l-.1-.177c-.078-.133-.144-.266-.209-.4-.033-.072-.066-.138-.094-.21l0-.017c-.033-.077-.066-.149-.093-.227s-.066-.171-.094-.26c-.038-.11-.071-.215-.1-.326,0-.022-.011-.044-.016-.067a4.066,4.066,0,0,1-.088-.431c-.011-.144-.016-.349-.022-.731-.006-.282,0-.586.006-.891.005-.127.01-.249.016-.36.016-.26.038-.619.05-.8a6.936,6.936,0,0,0-.555-3.016c-.038-.061-.088-.111-.11-.111s-.071.05-.109.111a7.01,7.01,0,0,0-.555,3.016c.011.183.033.542.05.8.006.111.01.233.016.36.006.305.012.609.006.891-.006.382-.012.587-.022.731s-.055.288-.088.431l-.017.067c-.027.111-.066.216-.1.326-.028.089-.06.172-.094.26s-.06.15-.093.227l0,.017c-.033.066-.061.138-.094.21-.065.133-.131.266-.209.4l-.1.177a.092.092,0,0,1-.049.039c-.011,0-.022.005-.033.005L142.6,13.4a.6.6,0,0,1-.1-.022c-.016-.006-.032-.011-.044-.017l-.01,0a.337.337,0,0,1-.083-.061.651.651,0,0,1-.049-.061.106.106,0,0,0-.022-.033l-.017-.05a.024.024,0,0,0,0-.017.3.3,0,0,1,.027-.182.258.258,0,0,1,.066-.083l.006-.006c0-.005.011-.011.016-.011a.289.289,0,0,1,.061-.039c.01,0,.016,0,.027-.011l.065-.016.11-.017h.012l-.006-.542V11.46a6.58,6.58,0,0,0-.225-2.491,3.716,3.716,0,0,0-1.394-1.9,4.018,4.018,0,0,0-.686-.387l-.071-.028v9.3h2.294l.093.178a5.728,5.728,0,0,0,.752,1.09,4.688,4.688,0,0,1,.286.437l.016.033a1.142,1.142,0,0,1,.055.111,2.371,2.371,0,0,1,.181.465,1.175,1.175,0,0,0,.093.271.182.182,0,0,0,.241,0,.918.918,0,0,0,.094-.271,2.371,2.371,0,0,1,.181-.465.952.952,0,0,1,.055-.111l.017-.033c.088-.149.18-.293.285-.437a5.939,5.939,0,0,0,.752-1.09l.094-.178h2.293V6.65Zm-5.56,7.942v.6h-1.306v-.924l.006-2.463c0-.5,0-.929,0-1.311.006-.8.012-1.45.018-1.8,0-.138,0-.226.01-.271V8.432a.112.112,0,0,0,.016-.022.028.028,0,0,1,.028,0l.006.006a.431.431,0,0,1,.044.038.728.728,0,0,0,.065.1c.066.1.126.2.182.3.01.023.022.045.032.067a4.026,4.026,0,0,1,.351,1.339,17.708,17.708,0,0,1-.016,1.871.193.193,0,0,1-.038.055l-.016.017a.689.689,0,0,1-.072.055,1.483,1.483,0,0,0-.423.465.121.121,0,0,1-.021.033l-.039.05c-.011.011-.022.022-.033.022-.044,0-.05.033-.05.382,0,.315.006.382.039.382s.071.05.115.11a1.542,1.542,0,0,0,1.027.609l.071.017Zm.862-.117.082.017a.2.2,0,0,1,.06.022l.022.011a.517.517,0,0,1,.171.155c.01.022.027.039.038.061v.006c.006.011.011.022.016.033a.738.738,0,0,1,.061.188.472.472,0,0,1,.011.083l.011.094a.088.088,0,0,1-.055.055h-.423Zm.521,1.716a.788.788,0,0,1-.022.255l-.06-.034a.691.691,0,0,1-.17-.138l-.033-.039a.089.089,0,0,1-.022-.027c-.017-.022-.033-.039-.05-.061a.7.7,0,0,1-.054-.089.448.448,0,0,1-.039-.083c0-.005-.005-.016,0-.016a.151.151,0,0,1,.11-.028h.351Zm.417-2.214c-.038.028-.055.05-.066.05s-.027-.022-.066-.05a2.132,2.132,0,0,0-.257-.238,1.172,1.172,0,0,1-.2-.182.216.216,0,0,1-.01-.061v-.011a.184.184,0,0,1,.01-.056.51.51,0,0,0,.016-.06l.066-.178c.044-.11.11-.26.2-.47l.2-.443a.131.131,0,0,1,.033-.027c.011.011.022.016.033.027l.2.443c.094.205.16.354.2.47.028.067.05.128.066.178.006.022.012.038.017.06s0,.039.011.056v.011a.111.111,0,0,1-.011.061.764.764,0,0,1-.2.182C144.386,13.839,144.3,13.922,144.221,14.005Zm.741,2c-.011.022-.022.05-.038.083a.56.56,0,0,1-.061.089c-.016.022-.032.039-.049.061s-.017.016-.022.027l-.033.039a.823.823,0,0,1-.17.138l-.06.034a1.254,1.254,0,0,1-.022-.255v-.26h.351a.152.152,0,0,1,.11.028C144.968,15.992,144.962,16,144.962,16Zm.066-.786H144.6a.089.089,0,0,1-.054-.055l.011-.094c0-.028,0-.055.011-.083a1.723,1.723,0,0,1,.06-.188l.016-.033v-.006a.286.286,0,0,1,.038-.061.517.517,0,0,1,.171-.155l.022-.011a.379.379,0,0,1,.06-.022l.082-.017Zm1.811,0h-.955v-.891l.072-.016a1.538,1.538,0,0,0,1.026-.609c.044-.061.093-.111.115-.111s.039-.066.039-.382c0-.348-.006-.381-.05-.381-.011,0-.022-.012-.033-.023l-.038-.049c-.006-.012-.016-.023-.022-.034a1.424,1.424,0,0,0-.423-.465.315.315,0,0,1-.07-.055l-.018-.016a.14.14,0,0,1-.038-.056,17.664,17.664,0,0,1-.016-1.87,4.024,4.024,0,0,1,.351-1.34l.033-.066a2.882,2.882,0,0,1,.181-.3c.027-.033.044-.072.066-.1a.138.138,0,0,1,.044-.039l0-.005a.024.024,0,0,1,.028,0c0,.005.01.016.016.022v.011c.006.044.006.133.011.271,0,.354.011,1.007.017,1.8,0,.382,0,.814,0,1.312l.011,2.463v.924Z"/><path class="cls-3" d="M168.664,11.188H150.255V6.749h18.409Zm-17.2-1.223H167.45v-2H151.468Z"/><path class="cls-3" d="M168.664,27.454H150.255V23.015h18.409Zm-17.2-1.218H167.45v-2H151.468Z"/><path class="cls-3" d="M168.664,22.09H150.255V17.652h18.409Zm-17.2-1.217H167.45v-2H151.468Z"/><path class="cls-3" d="M168.664,16.706H150.255V12.268h18.409Zm-17.2-1.217H167.45v-2H151.468Z"/><path class="cls-3" d="M161.126,65.418c-.724-.011-1.284-.033-1.3-.05a.684.684,0,0,1-.061-.171,10.147,10.147,0,0,0-.542-1.373,7.7,7.7,0,0,0-7.312-4.643,6.331,6.331,0,0,0-1.8.172,8.581,8.581,0,0,0-3.546,1.754,10.256,10.256,0,0,0-1.7,1.954,11.841,11.841,0,0,0-1.016,2.014l-.1.277-1.382-.022-1.384-.022-.626-.427c-.345-.232-.636-.437-.653-.453a13.671,13.671,0,0,1,.395-1.462c.017-.016,1.411-.182,1.554-.182a11.286,11.286,0,0,0,.445-1.068c-.116-.188-.248-.371-.379-.548-.209-.282-.417-.57-.467-.631l-.082-.116.335-.5c.3-.454.34-.5.411-.487.044.005.455.083.917.166s.85.155.867.155a6.383,6.383,0,0,0,.576-.808c0-.017-.11-.349-.241-.748s-.236-.725-.23-.73c.082-.072,1.042-.808,1.059-.808s.351.21.756.476.748.476.758.476.2-.1.423-.227l.4-.227,0-.221c0-.122.011-.532.022-.914l.016-.691.6-.194.6-.194.631.736c.346.4.648.736.659.736.049,0,.746-.132.757-.138s.131-.421.286-.924l.274-.913.192-.023c.1-.011.384-.022.62-.033l.428-.011.17.393c.094.216.275.637.4.935l.231.543.417.088c.367.078.423.083.455.039.017-.028.28-.387.582-.808l.549-.758.532.144c.291.077.538.155.549.16s.061.426.121.93.11.957.12,1.007c.017.089.056.116.429.316l.411.216.675-.526c.368-.288.681-.526.687-.526s.883.67,1.053.814c.006,0-.071.4-.17.885s-.187.9-.181.93a1.82,1.82,0,0,0,.313.36l.313.31.818-.294c.691-.249.828-.288.861-.249s.642,1.03.642,1.052c0,.005-.187.37-.417.808s-.417.813-.417.835a3.133,3.133,0,0,0,.164.421l.166.376.834.028.834.028.071.238c.038.132.11.4.165.6l.1.365-.658.7c-.363.382-.67.7-.68.7S161.829,65.429,161.126,65.418Z"/><path class="cls-3" d="M167.713,63.835c12.563-5.495,26.043-9.5,36.289-10.786a61.42,61.42,0,0,1,11.971-.393c1.284.122,4.3.575,4.621.7a12.739,12.739,0,0,1,.945,2.108c1.262,3.243,3.144,8.291,3.144,8.429,0,.072-.268.006-.593-.138-2.8-1.234-6.69-2.053-12.25-2.579-2.876-.271-10.373-.377-14.226-.194a240.9,240.9,0,0,0-27.683,3.05c-2.092.343-3.869.625-3.947.625A12.76,12.76,0,0,1,167.713,63.835Z"/><path class="cls-3" d="M135.479,64.152c-12.563-5.5-26.042-9.5-36.289-10.786a61.29,61.29,0,0,0-11.965-.393c-1.284.121-4.3.575-4.621.7a12.653,12.653,0,0,0-.944,2.108c-1.262,3.243-3.145,8.285-3.145,8.423,0,.072.269.006.593-.138,2.8-1.234,6.69-2.053,12.25-2.579,2.876-.271,10.373-.376,14.225-.194a240.933,240.933,0,0,1,27.685,3.05c2.09.343,3.869.625,3.946.62A14.539,14.539,0,0,0,135.479,64.152Z"/><path class="cls-3" d="M164.542,58.893c7.7-7.355,19.715-13.908,31.465-17.162a84.661,84.661,0,0,1,16.91-2.806l1.054-.039,1.493,3.332c1.18,2.623,1.46,3.359,1.328,3.442a6.958,6.958,0,0,1-1.553.111,116.886,116.886,0,0,0-17.9,1.976,107.324,107.324,0,0,0-32.222,11.284c-.752.427-1.4.77-1.444.77A7.161,7.161,0,0,1,164.542,58.893Z"/><path class="cls-3" d="M160.535,55.945c0-.161,2.536-3.625,4.023-5.5A88.32,88.32,0,0,1,178.9,36.171a85.816,85.816,0,0,1,7.206-4.871,50.374,50.374,0,0,1,15.407-5.866l1.179-.227,1.153,1.218c.632.669,2.086,2.213,3.227,3.431l2.075,2.214-1.18.088a63.824,63.824,0,0,0-15.714,3.6,88.281,88.281,0,0,0-30.367,18.977A12.019,12.019,0,0,1,160.535,55.945Z"/><path class="cls-3" d="M156.588,53.281a35.342,35.342,0,0,1,2.091-6.469c4.984-11.589,14.753-22.78,28.853-33.041.884-.647,1.229-.83,1.388-.747.121.061,1.877,1.329,3.9,2.817l3.689,2.712-2.822,1.422a115.4,115.4,0,0,0-15.361,9.315c-9.934,7.228-16.833,14.7-21.021,22.774A5.529,5.529,0,0,1,156.588,53.281Z"/></g></svg>