<?xml version="1.0" encoding="utf-8"?>
<!-- Generator: Adobe Illustrator 25.4.1, SVG Export Plug-In . SVG Version: 6.00 Build 0)  -->
<svg version="1.1" id="Layer_1" xmlns="http://www.w3.org/2000/svg" xmlns:xlink="http://www.w3.org/1999/xlink" x="0px" y="0px"
	 viewBox="0 0 300 87" enable-background="new 0 0 300 87" xml:space="preserve">
<g>
	<defs>
		<rect id="SVGID_1_" x="1.3" y="-4.8" width="287.5" height="96.2"/>
	</defs>
	<clipPath id="SVGID_00000084512932455713774380000013853054631810047130_">
		<use xlink:href="#SVGID_1_"  overflow="visible"/>
	</clipPath>
	<g clip-path="url(#SVGID_00000084512932455713774380000013853054631810047130_)">
		<path fill="none" stroke="#010101" stroke-width="0.34" stroke-linecap="round" stroke-linejoin="round" d="M64,45.1
			c-0.6-0.2-1.6,0.6-2.2,0.8c-0.6,0.2-1.2,0.5-1.8,0.9c-1.5,1-2.9,2.3-4.5,3.2c-0.7,0.4-1.5,0.6-2.4,0.7c-0.8,0.2-1.6,0.4-2.4,0.5
			c-0.8,0-1.6-0.5-2.4-0.5c-0.3,0-0.6,0.3-0.8,0.3c-0.2-0.1-0.5-0.8-0.6-0.8c-0.4,0.4-0.9,0.7-1.4,0.9c-1.9,0.5-2.2-1.6-2-2.2
			c0.1-0.3,0,0.1,0.3-0.9c0.1-0.5,0.2-1,0.3-1.6c0.1-0.6,0.3-1.2,0.6-1.8c0.5-1,0.2-2,0.3-3.1c0.1-1.1,0.1-2.4,0.6-3.3
			c0.5-0.9,1.7-1,2.3-1.8c0.6-0.8,0-2.4-0.1-3.2c-0.1-1-0.2-2.1-0.1-3.2c0-0.8,0-2.4-0.9-2.8c-1.1-0.5-1.1,1-1.3,1.6
			c-0.3,1.1-0.7,2.3-1.1,3.4c-0.6,2-1.2,4.2-3.1,5.4c-0.9,0.6-1.5,1.5-2.4,2c-0.9,0.5-2.2,0.6-3.1,1.2c-0.4,0.3-0.7,0.8-0.9,1.3
			c-0.3,0.4-0.6,0.8-1,1.1c-0.9,0.8-1.5,1.8-1.8,3c-0.1,0.7,0.1,0.9,0.7,1.3c0.5,0.4,0.8,0.8,1.3,1.1c0.9,0.7,2.2,0.3,2.5,1.7
			c0.2,1-0.3,2.5,0.5,3.3c0.4,0.4,1,0.3,1.6,0.3c0.2,0,0.4,0.1,0.6,0.1c0.2,0.1,0.4,0.2,0.6,0.4c0.1,0.2,0.2,0.4,0.2,0.7
			c0,0.3,0,0.6,0,0.9c0,0.8,0,0.7,0.1,0.9c0.3,1.3,0.6,3.1,1.8,3.4c1.4,0.3,1.7-2.1,2.6-2.7c0.7-0.3,1.4-0.5,2.1-0.5
			c0.6,0,1.1,0.4,1.8,0.3c0.7-0.1,1.4-0.4,2.1-0.5c0.7-0.1,1.4-0.1,1.9-0.7c0.3-0.6,0.6-1.2,0.8-1.8c0.6-1.2,1.6-1.6,3.2-2.7
			c0.6-0.4,1.1-0.7,1.7-1c1.4-0.7,2.2-2.1,3.4-3C61.7,47.7,65,45.4,64,45.1L64,45.1z"/>
		<path fill="none" stroke="#010101" stroke-width="0.34" stroke-linecap="round" stroke-linejoin="round" d="M46.9,27.3
			c-0.9-0.3-1.1,0.6-1.2,1.2c0,0.3,0,0.5-0.1,0.7c0,0.2-0.1,0.4-0.1,0.7c-0.1,0.5-0.3,1-0.5,1.4c-0.2,0.5-0.3,1.1-0.5,1.7
			c-0.1,0.3-0.2,0.6-0.4,0.9c-0.4,0.9-0.9,1.8-1.5,2.6c-0.2,0.3-0.5,0.6-0.8,0.8c-0.3,0.2-0.7,0.5-1,0.7c-0.2,0.1-0.3,0.2-0.5,0.3
			c-0.4,0.3-0.7,0.7-1.1,1c-0.4,0.3-0.9,0.6-1.4,0.6c-0.9,0.1-2.6,0.2-3.4,1c-0.1,0.1-0.2,0.3-0.3,0.4c0,0.3-0.3,0.1-0.3,0.4
			c0,0.1-0.1,0.3-0.1,0.4c-0.1,0.4-0.3,0.8-0.5,1.2c-0.6,0.9-1.1,1.9-1.3,3c0,0.1,0,0.2,0,0.3c0,0.5,0.2,0.7,0.6,1
			c0.4,0.3,0.7,0.8,1.2,1.2c0,0,0.1,0.1,0.1,0.1c0.9,0.6,2,0.5,2.3,1.7c0,0.1,0,0.2,0,0.4c0,1-0.3,2.1,0.5,2.8
			c0.4,0.4,1,0.3,1.5,0.5l0.6,0.2c0.2,0.1,0.4,0.2,0.5,0.3c0.1,0.1,0.3,0.3,0.3,0.5c0,0.1,0.1,0.2,0.1,0.2c0,0.3,0.1,0.5,0.2,0.8
			c0,0.3,0.1,0.5,0.3,0.8c0.1,0.2,0.2,0.5,0.3,0.8c0.3,1.1,0.7,2.2,1.5,2.5c0.2,0.1,0.3,0.1,0.5,0.1c0.2,0,0.3-0.1,0.5-0.2
			c0.6-0.4,0.9-1.3,1.6-1.6c0.2-0.1,0.5-0.1,0.7-0.2c0.4-0.1,0.9-0.1,1.4-0.1c0.6,0,1.1,0.3,1.8,0.2c0.6-0.3,1.3-0.6,1.9-0.9
			c0.7-0.2,1.4-0.5,1.9-0.9c0.2-0.1,0.3-0.3,0.4-0.5c0.2-0.4,0.4-0.7,0.7-1.1c0.3-0.4,0.7-0.7,1-1c0.6-0.5,1.3-1,2-1.5l0.4-0.2
			c0.6-0.4,1.2-0.7,1.8-1.1c0.7-0.5,1.4-1.1,2-1.7c0.6-0.6,1.2-1.1,1.8-1.6c0.3-0.2,1.4-1,2.2-1.7c0.6-0.5,1.2-1,0.7-1.2
			c-0.2-0.1,0.1,0-0.1,0c-0.6-0.2-1.6,0.5-2.2,0.7c-0.6,0.2-1.3,0.5-1.8,0.8c-1.5,0.8-3,2-4.6,2.9c-0.7,0.4-1.5,0.6-2.3,0.8
			c-0.1,0-0.3,0.1-0.4,0.1c-0.6,0.2-1.3,0.4-2,0.4c-0.5-0.1-1.1-0.2-1.6-0.4c-0.3-0.1-0.5-0.2-0.8-0.2c-0.3,0-0.6,0.2-0.8,0.2
			c-0.2-0.1-0.5-0.7-0.6-0.7c-0.2,0.1-0.6,0.4-1,0.6c-0.1,0.1-0.3,0.1-0.4,0.2c-0.3,0.1-0.7,0.1-1,0c-0.3-0.1-0.6-0.3-0.7-0.6
			c-0.2-0.5-0.3-1-0.2-1.6c0.1-0.3,0,0,0.3-0.9c0.1-0.5,0.2-1,0.3-1.4c0.1-0.6,0.3-1.2,0.6-1.7c0.3-0.8,0.4-1.6,0.3-2.4
			c0-0.2,0-0.4,0-0.6c0-1.1,0.1-2.2,0.4-3.2c0.1-0.1,0.1-0.3,0.2-0.4c0.5-0.6,1.2-0.8,1.7-1.5c0.2-0.4,0.3-1,0.2-1.5
			c-0.1-0.6-0.1-1.2-0.3-1.7c-0.2-0.8-0.3-1.6-0.3-2.5c0-0.2,0-0.4,0-0.5C48,29.1,47.8,27.7,46.9,27.3z"/>
		<path fill="none" stroke="#010101" stroke-width="0.34" stroke-linecap="round" stroke-linejoin="round" d="M46.5,26.1
			c-0.9-0.3-1,0.9-1.1,1.6c0,0.3,0,0.5,0,0.8c0,0.3,0,0.5-0.1,0.8c-0.1,0.5-0.3,1.1-0.5,1.6c-0.2,0.6-0.4,1.3-0.6,1.9
			c-0.1,0.3-0.3,0.7-0.5,1c-0.5,1-1.2,1.9-1.8,2.8c-0.3,0.3-0.6,0.6-0.9,0.8c-0.4,0.2-0.8,0.3-1.2,0.5c-0.2,0.1-0.4,0.2-0.5,0.4
			c-0.4,0.4-0.6,0.9-1.1,1.2c-0.2,0.2-0.5,0.2-0.7,0.3c-0.3,0-0.5,0-0.8-0.1c-0.9-0.3-2.9-0.2-3.5,0.7c-0.1,0.2-0.2,0.3-0.2,0.5
			c0,0.4-0.3,0-0.2,0.3c0,0.2,0,0.3,0,0.5c0.1,0.4,0.1,0.8,0.1,1.3c-0.1,0.7-0.6,1.9-0.8,3c0,0.1,0,0.2,0,0.3c0,0.2,0,0.4,0.1,0.6
			c0.1,0.2,0.2,0.4,0.3,0.5c0.3,0.4,0.6,0.9,1,1.3l0.1,0.1c0.8,0.7,1.9,0.7,2.1,1.9c0,0.1,0,0.3,0,0.4c0,1.1-0.2,2.1,0.6,2.8
			c0.4,0.3,0.9,0.5,1.4,0.6l0.5,0.2c0.4,0.2,0.6,0.4,0.8,0.8c0,0.1,0.1,0.1,0.1,0.2c0.1,0.2,0.2,0.5,0.3,0.7
			c0.1,0.3,0.2,0.5,0.4,0.7c0.1,0.3,0.2,0.5,0.3,0.8c0.4,1,0.7,2.2,1.4,2.6c0.1,0.1,0.3,0.1,0.4,0.2c0.1,0,0.3,0,0.4,0
			c0.5-0.2,0.9-0.8,1.6-0.8c0.2,0,0.4,0,0.7-0.1c0.4,0,0.9,0,1.3,0c0.6,0,1.1,0.3,1.7,0.1c0.6-0.2,1-1,1.5-1.3
			c0.7-0.3,1.4-0.7,2-1.2c0.2-0.1,0.3-0.3,0.5-0.4c0.3-0.3,0.6-0.6,0.9-0.9c0.3-0.3,0.8-0.6,1.2-1c0.6-0.5,1.1-1.2,1.9-1.7l0.4-0.3
			c0.6-0.4,1.2-0.8,1.8-1.2c0.8-0.6,1.4-1.3,2.1-2c0.7-0.7,1.3-1.2,1.9-1.8c0.4-0.4,1.5-1.2,2.4-1.9c0.5-0.4,1.4-1.1,0.9-1.3
			c-0.1-0.1,0.1,0-0.1-0.1c-0.6-0.2-1.5,0.3-2.2,0.5c-0.6,0.2-1.3,0.5-1.9,0.8c-1.5,0.9-3,1.9-4.5,2.9c-0.7,0.4-1.5,0.7-2.2,0.9
			L54,49.8c-0.6,0.3-1.2,0.5-1.9,0.5c-0.5-0.1-1.1-0.2-1.5-0.5c-0.2-0.1-0.5-0.2-0.7-0.2c-0.3,0-0.6,0.1-0.8,0
			c-0.2-0.1-0.5-0.6-0.6-0.6c-0.2,0.1-0.6,0.3-1,0.4c-0.1,0.1-0.3,0.1-0.4,0.1c-0.3,0.1-0.6,0.1-0.9-0.1c-0.3-0.1-0.5-0.4-0.6-0.7
			c-0.2-0.5-0.3-1.1-0.1-1.6c0.1-0.3,0.1-0.6,0.2-0.9c0.1-0.5,0.2-1,0.3-1.5c0.1-0.6,0.3-1.2,0.6-1.7c0.3-0.8,0.4-1.6,0.4-2.4
			c0-0.2,0-0.4,0-0.6c0-1.1,0.1-2.2,0.2-3.3c0-0.1,0.1-0.3,0.2-0.4c0.3-0.7,0.9-1,1.3-1.7c0.2-0.5,0.3-1,0.2-1.5
			c-0.1-0.6-0.2-1.2-0.3-1.7c-0.2-0.9-0.4-1.6-0.5-2.5c0-0.2,0-0.3-0.1-0.5C47.6,27.8,47.3,26.3,46.5,26.1z"/>
		<path fill="none" stroke="#010101" stroke-width="0.34" stroke-linecap="round" stroke-linejoin="round" d="M46.1,24.8
			c-1-0.3-1.1,1.2-1.1,1.9c0,0.3,0,0.6,0,0.8c0,0.3,0,0.6,0,0.8c-0.1,0.6-0.3,1.2-0.5,1.8c-0.2,0.7-0.4,1.4-0.7,2.1
			c-0.2,0.4-0.4,0.8-0.6,1.1c-0.7,1-1.5,2-2.3,2.9c-0.3,0.3-0.7,0.6-1.1,0.8c-0.5,0.2-1,0.2-1.4,0.4c-0.2,0.1-0.4,0.3-0.6,0.4
			c-0.4,0.5-0.6,1.1-1.2,1.4c-0.9,0.4-1.2,0-1.6-0.4c-0.9-0.8-3.4-0.6-3.9,0.5c-0.1,0.2-0.1,0.4,0,0.6c0.2,0.5-0.4-0.2-0.2,0.2
			c0,0.2,0.1,0.3,0.1,0.5c0.2,0.6,0.5,0.8,0.6,1.4c0.2,0.7-0.2,1.9-0.3,3.1c0,0.1,0,0.2,0,0.3c0,0.4,0.1,0.8,0.4,1.1
			c0.2,0.5,0.5,1,0.9,1.4l0.1,0.1c0.8,0.7,1.8,0.8,2,2c0,0.1,0,0.3,0,0.4c0,1.2-0.2,2,0.7,2.8c0.4,0.3,0.9,0.5,1.4,0.7l0.5,0.3
			c0.3,0.2,0.6,0.4,0.9,0.8l0.1,0.2c0.1,0.2,0.3,0.4,0.4,0.6c0.1,0.2,0.3,0.4,0.5,0.6c0.2,0.2,0.3,0.5,0.4,0.7
			c0.4,1,0.7,2.1,1.4,2.7c0.2,0.2,0.5,0.3,0.8,0.4c0.5,0.1,1-0.2,1.7-0.1c0.2,0,0.4,0,0.7,0c0.4,0,1,0.1,1.3,0.1
			c0.6,0.1,1.2,0.3,1.7,0c0.7-0.4,0.8-1.2,1.4-1.7c0.7-0.5,1.3-0.9,2-1.2c0.2-0.1,0.4-0.3,0.6-0.4c0.4-0.3,0.7-0.5,1.1-0.8
			c0.4-0.3,0.9-0.6,1.4-0.9c0.7-0.6,1.1-1.4,1.9-2l0.4-0.3c0.7-0.4,1.3-0.8,1.9-1.3c0.8-0.8,1.5-1.5,2.4-2.3c0.9-0.8,1.5-1.4,2.2-2
			c0.6-0.5,1.7-1.4,2.7-2.1c0.5-0.4,1.6-1.1,1.1-1.4c-0.1-0.1,0,0-0.2-0.1c-0.7-0.2-1.6,0.2-2.3,0.4c-0.7,0.2-1.4,0.5-2,0.8
			c-1.6,0.8-3.2,1.8-4.7,2.7c-0.7,0.4-1.5,0.8-2.2,1.1l-0.4,0.2c-0.6,0.4-1.2,0.6-1.9,0.6c-0.5-0.1-1.1-0.2-1.5-0.5
			C51,49,50.8,49,50.5,48.9c-0.3-0.1-0.6,0-0.8-0.1c-0.2-0.1-0.5-0.5-0.7-0.5c-0.4,0-0.7,0.1-1.1,0.3c-0.1,0-0.3,0.1-0.5,0.1
			c-0.3,0.1-0.7,0.1-0.9-0.1c-0.3-0.1-0.5-0.4-0.6-0.7c-0.2-0.5-0.2-1.1-0.1-1.6c0.1-0.3,0-0.3,0.2-0.9c0.1-0.5,0.3-1,0.4-1.4
			c0.2-0.6,0.4-1.2,0.7-1.8c0.3-0.8,0.4-1.6,0.4-2.5V39c0.1-1.1-0.1-2.3,0.1-3.3c0-0.1,0.1-0.3,0.1-0.4c0.3-0.7,0.6-1.3,0.9-1.9
			c0.2-0.5,0.2-1,0.2-1.5c0-0.6-0.1-1.1-0.3-1.7c-0.2-0.8-0.5-1.6-0.7-2.4c0-0.2-0.1-0.3-0.1-0.5C47.4,26.4,46.9,25.1,46.1,24.8z"/>
		<path fill="none" stroke="#010101" stroke-width="0.34" stroke-linecap="round" stroke-linejoin="round" d="M45.8,24.8
			c-1-0.2-1,1.4-1.1,2.1c0,0.3,0,0.6,0.1,0.9c0,0.3,0,0.6,0,0.9c-0.1,0.7-0.3,1.3-0.5,1.9c-0.3,0.8-0.4,1.6-0.7,2.2
			c-0.2,0.4-0.4,0.8-0.7,1.1c-0.8,1-1.7,2-2.7,3c-0.4,0.3-0.8,0.6-1.3,0.8c-0.5,0.1-1.1,0.1-1.6,0.3c-0.2,0.1-0.4,0.3-0.6,0.5
			c-0.4,0.5-0.6,1.2-1.2,1.5c-1,0.4-1.3-0.4-1.7-0.9c-0.9-1.3-3.7-1-4,0.3c-0.1,0.2,0,0.5,0.1,0.7c0.3,0.6-0.4-0.4-0.1,0.2
			c0.1,0.2,0.2,0.4,0.3,0.5c0.3,0.6,0.8,0.8,1.1,1.4c0.4,0.7,0.3,1.9,0.3,3.1c0,0.1,0,0.2,0,0.3c0,0.4,0.1,0.8,0.3,1.2
			c0.2,0.5,0.4,1,0.7,1.5l0.1,0.1c0.7,0.8,1.7,1,1.8,2.2c0,0.1,0,0.3,0,0.4c-0.1,1.2-0.2,1.9,0.8,2.7c0.4,0.3,0.9,0.6,1.3,0.9
			c0.2,0.1,0.3,0.3,0.5,0.4c0.3,0.2,0.6,0.5,0.9,0.7l0.2,0.2c0.2,0.2,0.4,0.3,0.6,0.5c0.2,0.2,0.4,0.4,0.6,0.5
			c0.2,0.2,0.4,0.4,0.5,0.7c0.3,1,0.8,1.9,1.3,2.7c0.2,0.2,0.4,0.4,0.7,0.6c0.5,0.3,1.1,0.5,1.7,0.6c0.2,0.1,0.4,0.1,0.7,0.2
			c0.4,0.1,0.9,0.2,1.3,0.2c0.3,0.1,0.6,0.1,0.8,0.1c0.3,0,0.6-0.1,0.8-0.2c0.7-0.5,0.6-1.5,1.1-2.1c0.6-0.6,1.3-1,2.1-1.4l0.6-0.3
			c0.4-0.2,0.9-0.4,1.3-0.6c0.5-0.2,1-0.5,1.5-0.8c0.8-0.6,1-1.5,1.8-2.2c0.1-0.1,0.3-0.2,0.4-0.3c0.7-0.4,1.3-0.8,1.9-1.4
			c0.8-0.9,1.6-1.7,2.4-2.5c0.8-0.7,1.5-1.4,2.4-2.1c0.8-0.7,1.8-1.6,2.9-2.3c0.5-0.4,1.8-1.1,1.3-1.4c-0.1-0.1-0.1-0.1-0.2-0.1
			c-0.8-0.1-1.5-0.1-2.2,0.2c-0.7,0.2-1.4,0.4-2,0.7c-1.6,0.8-3.2,1.6-4.7,2.6c-0.7,0.4-1.4,0.8-2.1,1.2l-0.3,0.2
			c-0.5,0.4-1.2,0.6-1.8,0.7c-0.5-0.1-1-0.3-1.5-0.5c-0.2-0.1-0.5-0.2-0.7-0.3c-0.3-0.1-0.5-0.1-0.8-0.2c-0.2-0.1-0.5-0.4-0.8-0.5
			c-0.4,0-0.7,0-1.1,0.1c-0.2,0-0.3,0-0.4,0.1c-0.8,0-1.3-0.2-1.5-0.9c-0.1-0.5-0.2-1-0.1-1.6c0.1-0.3,0.1-0.6,0.2-0.9
			c0.1-0.5,0.3-0.9,0.4-1.4c0.2-0.6,0.4-1.1,0.7-1.7c0.3-0.8,0.4-1.5,0.5-2.4v-0.6c0-1.1-0.1-2.2-0.1-3.2c0-0.1,0-0.3,0-0.4
			c0.1-0.7,0.3-1.4,0.6-2c0.1-0.5,0.2-1,0.2-1.5c0-0.6-0.1-1.2-0.3-1.7c-0.3-0.8-0.6-1.6-0.9-2.4c-0.1-0.1-0.1-0.3-0.2-0.5
			C47.1,26.3,46.6,25,45.8,24.8z"/>
		<path fill="none" stroke="#010101" stroke-width="0.34" stroke-linecap="round" stroke-linejoin="round" d="M45.8,23.6
			c-1.1-0.2-1.1,1.7-1,2.4c0,0.3,0,0.7,0.1,1c0.1,0.3,0.1,0.7,0.1,1c-0.1,0.7-0.3,1.5-0.6,2.1c-0.2,0.8-0.5,1.7-0.8,2.5
			c-0.2,0.4-0.4,0.8-0.8,1.2c-1,1.1-2,2.1-3.1,3.1c-0.4,0.4-0.9,0.7-1.5,0.8c-0.6,0.1-1.2-0.1-1.8,0.1c-0.3,0.1-0.5,0.3-0.6,0.5
			c-0.4,0.6-0.6,1.4-1.3,1.7c-1.1,0.4-1.5-0.7-1.8-1.4c-0.8-1.8-4.2-1.5-4.3,0.1c0,0.3,0,0.6,0.2,0.8c0.4,0.7-0.5-0.6-0.1,0.1
			c0.1,0.2,0.2,0.4,0.4,0.6c0.5,0.6,1.1,0.9,1.7,1.5c0.7,0.8,0.8,2,0.8,3.2v0.3c0,0.4,0.1,0.8,0.2,1.2c0.1,0.6,0.3,1.1,0.6,1.6
			l0.1,0.1c0.7,0.9,1.6,1.2,1.7,2.3c0,0.1,0,0.3,0,0.4c-0.1,1.3-0.2,1.9,0.9,2.6c0.4,0.3,0.8,0.6,1.2,1c0.1,0.1,0.3,0.3,0.5,0.4
			c0.3,0.3,0.6,0.5,0.9,0.7l0.2,0.1c0.2,0.1,0.5,0.2,0.7,0.4c0.2,0.1,0.5,0.3,0.7,0.4c0.2,0.2,0.4,0.4,0.6,0.7
			c0.5,0.9,0.8,2,1.2,2.8c0.2,0.3,0.4,0.6,0.6,0.9c0.5,0.5,1.1,0.9,1.7,1.2c0.2,0.1,0.4,0.2,0.7,0.3c0.4,0.1,0.9,0.3,1.3,0.4
			c0.3,0.1,0.6,0.1,0.9,0.1c0.3,0,0.6-0.1,0.8-0.3c0.6-0.6,0.4-1.8,0.9-2.5c0.5-0.7,1.3-1.2,2.1-1.5c0.2-0.1,0.5-0.2,0.7-0.3
			c0.5-0.2,1-0.3,1.6-0.5c0.6-0.2,1.2-0.4,1.7-0.7c0.8-0.6,1-1.7,1.8-2.4c0.1-0.1,0.3-0.2,0.5-0.3c0.7-0.4,1.4-0.9,2-1.5
			c0.8-1,1.7-1.9,2.6-2.8c0.9-0.8,1.7-1.6,2.6-2.3c1-0.9,2-1.7,3.1-2.5c0.5-0.3,2.1-1.1,1.6-1.5c-0.1-0.1-0.2-0.1-0.3-0.2
			c-0.8-0.2-1.5-0.2-2.3,0.1c-0.7,0.2-1.4,0.4-2.1,0.7c-1.7,0.7-3.3,1.5-4.8,2.5c-0.7,0.4-1.4,0.9-2.1,1.3l-0.3,0.2
			c-0.5,0.5-1.1,0.7-1.8,0.7c-0.5-0.1-1-0.3-1.5-0.6c-0.2-0.1-0.5-0.3-0.7-0.4c-0.2-0.1-0.5-0.2-0.8-0.3c-0.2-0.2-0.5-0.3-0.8-0.4
			c-0.4-0.1-0.7-0.1-1.1,0h-0.5c-0.7,0-1.2-0.2-1.4-1c-0.1-0.5-0.1-1.1,0-1.6c0.1-0.3,0.1-0.5,0.2-0.9c0.1-0.4,0.3-0.9,0.4-1.4
			c0.2-0.6,0.4-1.2,0.7-1.7c0.3-0.8,0.5-1.6,0.5-2.4c0-0.2,0-0.4,0-0.6c0-1.1-0.1-2.2-0.2-3.3c0-0.2,0-0.3,0-0.5
			c0-0.8,0-1.5,0.2-2.2c0.1-0.5,0.1-1,0.2-1.5c0-0.6,0-1.2-0.2-1.7c-0.3-0.8-0.7-1.6-1.1-2.3c-0.1-0.1-0.1-0.3-0.2-0.5
			C47.3,24.9,46.6,23.7,45.8,23.6z"/>
		<path fill="none" stroke="#010101" stroke-width="0.34" stroke-linecap="round" stroke-linejoin="round" d="M26.3,39.8
			c0.8,1.2,1.8,1.4,2.8,2.2c1,0.8,1.3,2.1,1.4,3.4c0,1,0,2.1,0.6,3c0.7,1,1.8,1.4,1.6,2.8c-0.2,1.4-0.2,1.7,1,2.5
			c1,0.6,1.5,1.8,2.6,2.3c0.9,0.4,2,0.3,2.6,1.3c0.8,1.2,1,2.7,1.7,3.9c0.6,1,1.5,1.8,2.6,2.3c0.8,0.4,2.3,1,3,0.2
			c0.7-0.8,0.2-2,0.6-2.9c0.6-1.1,1.9-1.6,3.1-1.9c1.2-0.3,2.7-0.3,3.7-1c1-0.7,1-1.9,1.8-2.6c0.9-0.7,1.9-0.9,2.6-1.9
			c0.8-1.1,1.8-2.1,2.9-2.9c2.1-1.7,4.1-3.7,6.3-5.1c0.5-0.3,2.9-1.3,1.5-1.8c-1.4-0.5-3.2,0.1-4.6,0.5c-2.7,0.9-5.2,2.2-7.4,3.9
			c-1.3,1-1.9,1-3.3,0.2c-1.1-0.7-2.3-1.2-3.6-1.3c-0.9,0-1.7,0-1.9-1.1c-0.1-1.3,0.1-2.6,0.7-3.8c0.6-1.3,1.1-2.7,1.3-4.1
			c0-1.5-0.1-2.9-0.5-4.3c-0.2-1.3-0.2-2.6,0-3.9c0.2-1.5-0.8-2.7-1.6-3.9c-0.5-0.7-1.5-2.3-2.5-2.4c-1.2-0.1-1.1,1.9-1.1,2.7
			c0,0.7,0.3,1.4,0.3,2.2c-0.1,0.8-0.3,1.5-0.6,2.3c-0.5,1.5-0.6,2.8-1.8,3.8c-1.2,1.1-2.3,2.3-3.6,3.2c-0.5,0.4-1.1,0.7-1.7,0.8
			c-0.7,0.1-1.4-0.2-2.1,0c-1.1,0.4-0.9,2-2.1,2.4c-1.3,0.4-1.6-1-1.9-1.9C29.7,36.5,24.6,37.4,26.3,39.8
			C26.8,40.6,25.8,39.1,26.3,39.8z"/>
		<path fill="none" stroke="#010101" stroke-width="0.34" stroke-linecap="round" stroke-linejoin="round" d="M26.7,40.6
			c0.8,1.1,1.8,1.5,2.6,2.4c0.9,0.9,1,2.2,1,3.5c0,0.9-0.2,2.2,0.3,3c0.6,0.8,1.5,1.1,1.5,2.3c0,1.2,0.1,1.4,1.2,2
			c1.1,0.7,1.6,1.7,2.7,2.3c1,0.6,1.9,0.6,2.6,1.6c0.8,1.1,1.1,2.6,1.9,3.8c0.6,1,1.5,1.8,2.7,2.3c0.8,0.3,2.3,0.9,3,0.1
			c0.7-0.8,0.4-2.1,0.7-3c0.4-1.4,2.1-1.7,3.3-2.1c1-0.4,2.3-0.6,3.2-1.3c0.9-0.7,0.9-1.7,1.7-2.4c0.8-0.7,1.6-1,2.3-1.9
			c0.8-1.1,1.7-2.2,2.8-3c1.9-1.6,3.7-3.3,5.7-4.7c0.6-0.4,2.8-1.4,1.8-1.9c-1-0.5-2.2-0.2-3.3,0c-2.5,0.6-4.9,1.7-7,3.2
			c-1.2,0.9-2,0.9-3.4,0.3c-1.1-0.6-2.4-1-3.6-1c-1,0-1.8,0.2-2.1-0.7c-0.3-1.1-0.3-2.2,0.1-3.3c0.4-1.3,1-2.5,1.1-3.9
			c0.1-1.5-0.1-2.9-0.4-4.3c-0.2-1.3-0.3-2.6-0.1-3.9c0.2-1.4-0.5-2.7-1.2-3.9c-0.5-0.8-1.5-2.2-2.3-2.5c-1.1-0.3-1.1,1.2-1.3,1.7
			c-0.1,0.7-0.2,1.3-0.2,2c-0.1,0.9-0.3,1.8-0.5,2.6c-0.3,1.5-0.4,2.8-1.6,3.9c-1.2,1.1-2.3,2-3.4,2.9c-0.5,0.5-1.1,0.9-1.7,1.1
			c-0.8,0.1-1.7-0.3-2.6,0c-1.1,0.3-1,1.7-2.1,2c-1.1,0.3-1.5-0.8-1.9-1.6c-1-2-5.2-1.1-3.9,1.1C26.6,40.4,26,39.6,26.7,40.6z"/>
		<path fill="none" stroke="#010101" stroke-width="0.34" stroke-linecap="round" stroke-linejoin="round" d="M27.3,42
			c0.8,1.1,1.8,1.6,2.5,2.6c0.8,1,0.8,2.3,0.6,3.7c-0.1,0.8-0.5,2.2,0.1,3c0.6,0.8,1.3,0.9,1.4,1.8c0.1,0.9,0.3,1,1.4,1.6
			c1,0.5,1.8,1.7,2.8,2.4s2,0.9,2.7,1.9c0.9,1.2,1.3,2.6,2.2,3.8c0.7,1.1,1.7,1.8,2.8,2.2c0.9,0.3,2.3,0.8,3.1,0.1
			c0.8-0.7,0.5-2.2,0.7-3.2c0.3-1.7,2.3-1.7,3.5-2.4c1-0.4,1.9-1,2.8-1.6c0.7-0.6,0.9-1.6,1.5-2.2c0.8-0.6,1.4-1.2,2-2
			c0.8-1.2,1.7-2.2,2.8-3c1.8-1.5,3.4-3.1,5.3-4.5c0.8-0.5,2.7-1.5,2.2-2.1c-0.6-0.6-1.3-0.4-2.2-0.5c-1.6-0.2-5.1,1.5-6.8,2.6
			c-0.5,0.4-1.1,0.6-1.7,0.7c-0.6,0.1-1.3,0-1.8-0.3c-1.2-0.5-2.5-0.8-3.8-0.7c-1,0.1-1.9,0.5-2.4-0.3c-0.5-0.9-0.7-1.9-0.4-2.9
			c0.2-1.3,0.9-2.6,1-4c0.1-1.5,0-3-0.2-4.5c-0.3-1.3-0.3-2.7-0.2-4.1c0.1-1.4-0.2-2.8-0.9-4c-0.5-1-1.3-1.9-2.3-2.6
			c-1-0.5-1.2,0.4-1.6,0.7c-0.4,0.3-0.5,0.9-0.8,1.9c-0.2,1-0.3,2.1-0.3,3.1c-0.1,1.5-0.3,2.9-1.5,4c-1.1,1-2.3,1.7-3.3,2.8
			c-0.6,0.6-0.9,1.2-1.8,1.3c-0.9,0.1-2.1-0.3-3.1-0.1c-1,0.2-1.2,1.4-2.2,1.6c-1,0.2-1.5-0.7-1.9-1.3c-1.1-1.5-4.5-0.5-3.5,1.6
			C26.6,40.9,26.4,40.7,27.3,42z"/>
		<path fill="none" stroke="#010101" stroke-width="0.34" stroke-linecap="round" stroke-linejoin="round" d="M27.8,43
			c0.8,1.1,1.8,1.7,2.4,2.8c0.8,1.2,0.5,2.4,0.3,3.8c-0.1,0.7-0.7,2.3-0.2,2.9c0.5,0.7,1.2,0.7,1.3,1.3c0.3,0.5,0.6,0.6,1.5,1.1
			c1.1,0.5,2,1.6,3,2.4c1.1,0.6,2,1.3,2.8,2.2c0.9,1.1,1.5,2.5,2.4,3.6c0.7,1,1.8,1.8,3,2c0.9,0.2,2.4,0.7,3.2,0.1
			c0.8-0.7,0.7-2.2,0.7-3.2c0.1-2,2.5-1.7,3.8-2.6c0.8-0.6,1.6-1.2,2.3-2c0.6-0.6,0.9-1.4,1.5-2c0.7-0.6,1.3-1.2,1.8-1.9
			c0.8-1.1,1.7-2.2,2.8-3c1.6-1.3,3.1-2.8,4.8-4c0.9-0.6,2.6-1.6,2.6-2.2c-0.2-0.5-0.6-0.8-1-1c-1.2-0.7-5.1,1.1-6.6,1.9
			c-1.1,0.6-2.4,0.8-3.7,0.5c-1.3-0.4-2.6-0.5-3.9-0.4c-1,0.2-2,0.7-2.6,0.1c-0.3-0.3-0.6-0.6-0.8-1.1c-0.2-0.4-0.2-0.9-0.2-1.3
			c0.1-1.2,0.8-2.6,0.9-3.8c0.2-1.5,0.1-3-0.1-4.5c-0.3-1.3-0.4-2.7-0.3-4.1c0.2-1.4,0-2.7-0.6-4c-0.6-1-1.3-1.9-2.2-2.6
			c-0.9-0.7-1.3-0.4-1.9-0.3c-0.7,0.1-0.9,0.7-1.2,1.7c-0.2,1.1-0.3,2.3-0.2,3.4c0,1.5-0.1,2.9-1.3,4c-1,0.9-2.3,1.5-3.2,2.5
			c-0.6,0.7-0.8,1.5-1.9,1.6c-1.1,0.1-2.4-0.4-3.6-0.2c-1,0.2-1.3,1-2.3,1.2c-1,0.1-1.5-0.5-1.9-0.9c-1.2-1-3.9,0.1-3.1,2
			C26.2,40.5,26.8,41.9,27.8,43z"/>
		<path fill="none" stroke="#010101" stroke-width="0.34" stroke-linecap="round" stroke-linejoin="round" d="M27.1,44.2
			c0.8,1.1,1.8,1.9,2.4,3.1c0.7,1.4,0.3,2.6,0,4c-0.2,0.7-1,2.4-0.4,3c0.4,0.5,1.1,0.4,1.2,0.8c0.4,0.3,0.9,0.3,1.8,0.6
			c1.2,0.5,2.3,1.6,3.4,2.4c1.1,0.7,2.2,1.6,3.1,2.6c1,1.2,1.8,2.4,2.8,3.6c0.4,0.5,0.9,1,1.5,1.3c0.6,0.3,1.2,0.6,1.9,0.6
			c1,0.1,2.6,0.6,3.5,0c1.1-0.7,0.8-2.3,0.8-3.5c-0.1-2.4,2.9-1.7,4.3-2.9c0.8-0.7,1.2-1.5,2-2.4c0.5-0.6,0.9-1.3,1.4-1.8
			c0.6-0.6,1.1-1.3,1.6-2c0.8-1.2,1.8-2.2,3-3.1c1.5-1.2,3-2.6,4.6-3.8c1-0.8,2.7-1.7,3.1-2.4c0-0.5,0.5-1,0.1-1.6
			c-0.8-1.3-5.3,0.7-6.7,1.3c-1.3,0.5-2.7,0.7-4,0.6c-1.4-0.1-2.8-0.5-4.3-0.1c-1.1,0.2-2.1,0.9-3,0.6c-0.4-0.1-0.8-0.4-1.1-0.8
			c-0.3-0.3-0.5-0.8-0.5-1.2c-0.1-1.1,0.7-2.7,0.9-3.9c0.2-1.5,0.2-3.1,0-4.6c-0.3-1.4-0.5-2.9-0.5-4.3c0-1.4,0.3-2.9-0.3-4.1
			c-0.6-1-1.4-1.9-2.2-2.7c-0.3-0.4-0.6-0.7-1-0.9c-0.4-0.2-0.8-0.4-1.3-0.4c-0.9-0.1-1.4,0.4-1.8,1.6c-0.3,1.3-0.4,2.6-0.1,4
			c0.1,1.5,0,3.1-1.2,4.2c-1,1-2.3,1.3-3.2,2.3c-0.7,0.8-0.8,1.8-2.1,1.8c-1.4,0.1-2.9-0.4-4.3-0.2c-1,0.1-1.5,0.7-2.4,0.8
			c-0.7,0-1.4-0.2-2.1-0.6c-1.2-0.5-3.4,0.7-2.8,2.4C25,40.7,25.8,42.7,27.1,44.2z"/>
		<path fill="none" stroke="#010101" stroke-width="0.34" stroke-linecap="round" stroke-linejoin="round" d="M27.7,45.5
			c0.8,1.1,1.8,1.9,2.3,3.1c0.6,1.4,0.1,2.6-0.4,4c-0.2,0.6-1.2,2.4-0.7,2.9c0.3,0.4,1,0.1,1.1,0.3c0.7-0.1,1.4,0,2,0.1
			c1.3,0.4,2.5,1.6,3.5,2.4c1.1,0.9,2.2,1.8,3.2,2.9c1,1.1,2,2.4,3,3.4c0.4,0.5,1,1,1.6,1.3c0.6,0.3,1.3,0.5,2,0.5
			c1,0.1,2.6,0.5,3.5,0c1.2-0.7,1-2.4,0.8-3.5c-0.4-2.7,3.2-1.6,4.5-3c0.7-0.8,0.9-1.8,1.6-2.6c0.4-0.5,0.9-1.1,1.3-1.6
			c0.5-0.6,1-1.2,1.4-1.9c0.8-1.2,1.8-2.2,3-3c1.4-1.1,2.7-2.2,4.1-3.3c1.1-0.9,2.7-1.7,3.5-2.5c0.5-0.5,1.4-1.3,1.3-2.1
			c-0.3-1.9-5.3,0.2-6.5,0.6c-1.4,0.4-2.8,0.6-4.2,0.6c-1.5,0-2.9-0.2-4.4,0.1c-1.2,0.3-2.2,1.1-3.3,1c-0.8-0.1-2-0.4-2.2-1.4
			c-0.2-1,0.6-2.6,0.8-3.7c0.2-1.5,0.3-3,0.1-4.5c-0.3-1.4-0.5-2.8-0.6-4.3c0-1.4,0.6-2.8,0.1-4c-0.4-1-1.6-1.8-2.2-2.7
			c-0.8-1.1-1.4-1.9-2.7-2.2c-1.1-0.3-1.8,0.2-2.3,1.4c-0.5,1.5-0.2,2.8,0,4.2c0.2,1.5,0.1,3-1.1,4.2c-1,0.9-2.3,1-3.2,2
			c-0.7,0.9-0.7,2-2.1,2c-1.6,0.1-3.2-0.4-4.8-0.3c-0.9,0.1-1.6,0.4-2.5,0.4c-0.9,0-1.4-0.3-2.1-0.3c-1.3,0-2.8,1.3-2.5,2.8
			C25,41.3,26,43.7,27.7,45.5z"/>
		<path fill="none" stroke="#010101" stroke-width="0.34" stroke-linecap="round" stroke-linejoin="round" d="M24.7,38.2
			c0.2,3,1.6,5.7,3.5,8c0.8,1,1.8,2.1,2.2,3.4c0.4,1.6,0,2.7-0.7,4.1c-0.2,0.5-1.5,2.4-0.9,2.9c0.3,0.2,0.8-0.1,1-0.2
			c0.7-0.4,1.5-0.5,2.2-0.3c1.3,0.3,2.7,1.5,3.7,2.4c1.2,1,2.3,2.1,3.3,3.2c1.1,1.1,2.1,2.2,3.3,3.3c0.4,0.5,1,1,1.7,1.3
			c0.6,0.3,1.3,0.4,2,0.4c1.1,0,2.6,0.5,3.6,0c1.3-0.7,1.1-2.4,0.8-3.6c-0.6-2.9,3.5-1.6,4.8-3.3c0.7-0.8,0.5-2.1,1.1-3
			c0.3-0.5,0.8-0.9,1.2-1.4c0.4-0.6,0.8-1.2,1.1-1.9c0.8-1.2,1.8-2.2,3-3c1.2-0.9,2.5-1.9,3.7-2.9c1.2-1,2.5-1.8,3.8-2.7
			c0.8-0.5,2.4-1.6,2.5-2.6c0.2-2.5-5.3-0.3-6.3-0.1c-1.5,0.2-2.9,0.5-4.3,0.7c-1.5,0.2-3,0-4.6,0.4c-1.2,0.4-2.3,1.2-3.5,1.4
			c-0.9,0.1-2.4,0-2.7-1c-0.4-1,0.5-2.6,0.6-3.6c0.3-1.5,0.4-3,0.3-4.6c-0.3-1.4-0.5-2.8-0.6-4.3c0-1.3,0.9-2.8,0.4-4.1
			c-0.4-1-1.6-1.7-2.1-2.7c-0.7-1.3-1.5-2.6-3-3.2c-0.3-0.1-0.5-0.2-0.8-0.2c-0.3,0-0.6,0-0.9,0.2c-0.3,0.1-0.5,0.3-0.7,0.5
			c-0.2,0.2-0.3,0.5-0.4,0.8c-0.6,1.6-0.2,3,0.1,4.6c0.3,1.6,0.3,3.1-0.9,4.2c-0.9,0.8-2.3,0.7-3,1.8c-0.7,1-0.6,2.2-2.2,2.3
			c-1.8,0.1-3.6-0.3-5.4-0.3c-0.9,0-1.7,0-2.6-0.1c-0.7-0.1-1.4-0.1-2.1,0c-0.6,0.3-1.2,0.7-1.6,1.3C24.8,36.9,24.7,37.5,24.7,38.2z
			"/>
		<path fill="none" stroke="#010101" stroke-width="0.34" stroke-linecap="round" stroke-linejoin="round" d="M27.1,34.5
			c-0.7,0.3-1.2,0.7-1.6,1.3c-0.4,0.6-0.7,1.3-0.7,2c-0.1,1.7,0.2,3.5,0.9,5.1c0.5,1.2,1.2,2.4,2.1,3.4c0.4,0.5,0.8,1.1,1.2,1.6
			c0.4,0.6,0.8,1.2,1,1.9c0,0.1,0.1,0.2,0.1,0.3c0.3,1.3-0.2,2.3-0.7,3.4c-0.1,0.2-0.2,0.4-0.2,0.6c-0.2,0.6-1.2,2.5-0.7,3.1
			c0.2,0.3,0.7,0,1,0c0.7-0.2,1.5-0.3,2.3-0.2c1.2,0.3,2.3,0.9,3.2,1.7l0.7,0.6c0.9,0.8,1.7,1.6,2.4,2.4l0.9,1l0.4,0.5
			c0.4,0.5,0.8,1,1.1,1.6c0.4,0.6,1,1.1,1.6,1.5l0.1,0.1c1.1,0.9,2.4,1.4,3.9,1.5c1.1,0,2.6,0.4,3.6-0.1c0.2-0.1,0.3-0.2,0.5-0.3
			c0.8-0.8,0.7-2.2,0.5-3.3c0-0.3,0-0.5,0-0.8c0.1-1.2,1.3-1.4,2.5-1.7c0.4-0.1,0.8-0.2,1.1-0.4c0.3-0.2,0.6-0.5,0.9-0.8
			c0.2-0.4,0.4-0.8,0.4-1.3c0.1-0.6,0.3-1.2,0.7-1.8c0.4-0.5,0.8-0.9,1.2-1.5c0.4-0.6,0.7-1.3,1-1.9c0.4-0.7,1-1.4,1.6-1.9
			c0.5-0.4,1-0.8,1.4-1.1c0.7-0.5,1.5-1.1,2.2-1.6l1.6-1.2c0.9-0.7,1.9-1.3,2.8-2l1-0.7c0.8-0.6,2.3-1.7,2.5-2.8
			c0.2-1.4-1.3-1.6-2.8-1.4c-0.9,0.1-1.7,0.2-2.6,0.4l-0.5,0.1c-0.8,0.2-1.4,0.4-2.2,0.6c-0.5,0.1-1.1,0.2-1.6,0.3
			c-0.3,0-0.6,0.1-1,0.1c-1.2,0-2.4,0.2-3.6,0.5c-0.4,0.1-0.8,0.3-1.1,0.4c-0.6,0.3-1.2,0.4-1.9,0.6c-0.2,0-0.4,0.1-0.5,0.1
			c-0.5,0-1-0.1-1.6-0.2c-0.4,0-0.9-0.2-1.2-0.6c-0.2-0.4-0.2-0.8-0.1-1.2c0.1-0.5,0.1-1.1,0.1-1.6c0-0.5,0-1,0-1.5
			c0.1-1.1,0.2-2.1,0.1-3.2c0-0.4-0.1-0.8-0.2-1.2c-0.2-1.1-0.6-2.1-0.7-3.1c0-0.4,0-0.8,0.1-1.2c0.2-1,0.5-2,0.3-2.9
			c-0.1-0.3-0.2-0.6-0.4-0.9c-0.4-0.7-0.9-1.3-1.5-1.9L48.5,24c-0.6-1-1.5-1.9-2.5-2.6c-0.2-0.2-0.5-0.3-0.7-0.3
			c-0.3-0.1-0.5-0.1-0.8,0c-0.3,0.1-0.5,0.2-0.7,0.3c-0.2,0.2-0.4,0.4-0.5,0.6c-0.2,0.2-0.3,0.5-0.4,0.7c-0.3,0.8-0.4,1.7-0.3,2.6
			c0,0.1,0,0.3,0,0.5c0.1,0.5,0.1,1.1,0.1,1.6c0,0.7-0.2,1.3-0.6,1.9c-0.2,0.3-0.4,0.6-0.7,0.9c-0.2,0.2-0.4,0.4-0.5,0.5
			c-0.5,0.5-1.1,0.6-1.5,1.3c-0.1,0.1-0.1,0.2-0.2,0.3c-0.6,1.1-0.6,2.3-2.1,2.5h-0.2c-1.6,0.1-3.2,0-4.8-0.2h-0.4l-2.2-0.1h-0.4
			C28.4,34.3,27.7,34.3,27.1,34.5z"/>
		<path fill="none" stroke="#010101" stroke-width="0.34" stroke-linecap="round" stroke-linejoin="round" d="M27.4,33.7
			c-0.7,0.3-1.3,0.7-1.7,1.3c-0.5,0.6-0.8,1.2-0.9,2c-0.2,1.7-0.1,3.5,0.4,5.2c0.5,1.3,1.2,2.5,2.1,3.5c0.4,0.6,0.8,1.1,1.2,1.7
			c0.4,0.6,0.8,1.3,1.1,2c0,0.1,0.1,0.2,0.1,0.3c0.4,1.4-0.3,2.3-0.8,3.5c-0.1,0.2-0.1,0.4-0.2,0.6c-0.2,0.7-0.9,2.5-0.4,3.2
			c0.2,0.3,0.7,0.2,1,0.2c0.8-0.1,1.6-0.1,2.4,0c1.3,0.2,2.4,0.8,3.4,1.6c0.2,0.2,0.5,0.4,0.7,0.6c0.8,0.8,1.6,1.7,2.4,2.5
			c0.3,0.4,0.6,0.7,0.9,1.1c0.1,0.2,0.3,0.3,0.4,0.5c0.4,0.5,0.7,1.1,0.9,1.7c0.4,0.7,1,1.2,1.7,1.5l0.1,0c1.2,0.8,2.6,1.2,4.1,1.3
			c1.1,0,2.6,0.3,3.7-0.2c0.2-0.1,0.3-0.2,0.5-0.3c0.9-0.8,0.8-2.2,0.7-3.3c0-0.3,0-0.5,0-0.8c0.2-1.2,1.2-1.5,2.4-1.8
			c0.4-0.1,0.8-0.2,1.1-0.5c0.3-0.2,0.6-0.6,0.7-0.9c0.2-0.4,0.3-0.9,0.4-1.3c0.1-0.6,0.4-1.2,0.7-1.7c0.4-0.5,0.8-1,1.2-1.5
			c0.3-0.6,0.5-1.3,0.9-2c0.4-0.7,0.9-1.4,1.6-1.9c0.5-0.4,1-0.8,1.5-1.1c0.8-0.5,1.5-1,2.2-1.6l1.6-1.2c0.9-0.7,1.9-1.3,2.8-2
			c0.3-0.2,0.7-0.5,1-0.7c0.8-0.6,2.2-1.8,2.4-2.8c0.4-1.4-0.7-1.8-2-2c-0.8-0.1-1.7,0-2.5,0.1l-0.4,0.1c-0.7,0.2-1.4,0.5-2.1,0.7
			c-0.5,0.1-1.1,0.2-1.6,0.3c-0.3,0-0.6,0.1-0.9,0.1c-1.2,0.1-2.4,0.3-3.5,0.6c-0.4,0.1-0.8,0.2-1.1,0.4c-0.6,0.2-1.2,0.3-1.9,0.3
			c-0.2,0-0.4,0-0.6,0c-0.5-0.1-1-0.2-1.5-0.2c-0.4,0-0.8-0.1-1.2-0.2c-0.2-0.1-0.2-0.3-0.3-0.6c-0.1-0.3-0.2-0.9-0.3-1.3
			c-0.1-0.5-0.2-0.9-0.2-1.4c0-1.1,0.2-2.1,0.2-3.1c0-0.4,0-0.8-0.1-1.2c-0.1-1-0.6-2-0.8-3c-0.1-0.4-0.1-0.8,0-1.2
			c0.2-0.9,0.4-1.9,0.4-2.9c0-0.3-0.1-0.6-0.2-0.9c-0.3-0.7-0.8-1.3-1.4-1.8l-0.6-0.6c-0.8-0.9-1.4-2-2.4-2.6
			c-0.4-0.3-0.9-0.5-1.4-0.5c-0.5,0-1,0.2-1.4,0.5c-0.2,0.1-0.3,0.3-0.5,0.4c-0.5,0.5-0.9,1.2-0.9,1.9c0,0.2,0,0.3,0,0.5
			c0,0.5,0.1,1.1,0,1.6c0,0.7-0.3,1.3-0.6,1.9c-0.2,0.3-0.5,0.6-0.7,0.9c-0.1,0.2-0.3,0.4-0.4,0.6c-0.3,0.5-0.6,0.9-0.9,1.4
			l-0.1,0.4c-0.4,1.1-0.6,2.3-2,2.6l-0.2,0c-1.6,0.3-3.3,0.3-4.9,0l-0.4,0c-0.8-0.1-1.4-0.2-2.2-0.2h-0.4
			C28.8,33.4,28.1,33.5,27.4,33.7z"/>
		<path fill="none" stroke="#010101" stroke-width="0.34" stroke-linecap="round" stroke-linejoin="round" d="M27.9,33.3
			c-0.7,0.3-1.3,0.7-1.8,1.3c-0.5,0.6-0.9,1.2-1.1,2c-0.4,1.8-0.5,3.6-0.1,5.4c0.3,1.5,1.3,2.5,2.2,3.7c0.4,0.6,0.8,1.2,1.2,1.8
			c0.5,0.7,0.9,1.3,1.2,2.1c0,0.1,0.1,0.2,0.1,0.3c0.5,1.5-0.5,2.4-1,3.6c-0.1,0.2-0.1,0.4-0.2,0.6c-0.2,0.9-0.7,2.6-0.1,3.4
			c0.1,0.1,0.3,0.2,0.4,0.3c0.2,0.1,0.4,0.1,0.5,0.1c0.7,0.1,1.6,0.1,2.5,0.2c1.3,0.2,2.6,0.7,3.6,1.4c0.3,0.2,0.5,0.4,0.7,0.7
			c0.9,0.9,1.7,1.9,2.5,2.8c0.3,0.4,0.7,0.7,1,1.1c0.1,0.2,0.3,0.3,0.4,0.5c0.3,0.6,0.6,1.2,0.7,1.9c0.3,0.9,1,1.2,1.8,1.5l0.1,0
			c1.4,0.6,2.9,1,4.4,1.1c1.1,0.1,2.7,0.2,3.8-0.3c0.2-0.1,0.3-0.2,0.5-0.3c0.9-0.8,0.9-2.2,0.9-3.3c0-0.3,0-0.5,0-0.8
			c0.2-1.3,1.1-1.6,2.3-2c0.4-0.1,0.7-0.3,1-0.6c0.3-0.3,0.5-0.7,0.6-1c0.1-0.4,0.2-0.9,0.3-1.3c0.1-0.6,0.4-1.2,0.8-1.7
			c0.4-0.5,0.8-1,1.1-1.6c0.3-0.7,0.4-1.3,0.8-2c0.4-0.8,1-1.4,1.6-1.9c0.5-0.4,1-0.8,1.5-1.1c0.8-0.5,1.6-1,2.3-1.6
			c0.6-0.4,1.1-0.8,1.7-1.2c1-0.7,2-1.3,2.9-2c0.3-0.2,0.7-0.5,1-0.8c1-0.8,1.9-1.8,2.5-2.9c0.5-1.3-0.1-2.1-1.3-2.6
			c-0.8-0.3-1.7-0.3-2.5-0.1c-0.2,0-0.3,0.1-0.5,0.1c-0.7,0.2-1.4,0.6-2.1,0.9c-0.5,0.1-1.1,0.2-1.7,0.3c-0.3,0-0.6,0-1,0.1
			c-1.2,0.2-2.4,0.4-3.6,0.8c-0.4,0.1-0.8,0.2-1.2,0.3c-0.6,0.2-1.3,0.2-1.9,0.1c-0.2,0-0.4-0.1-0.5-0.1C56,42.1,55.5,42,55,42
			c-0.4,0-0.8,0-1.1,0.1c-0.1,0-0.2,0-0.3,0c-0.1,0-0.2-0.1-0.2-0.1c-0.3-0.3-0.6-0.7-0.7-1.1c-0.2-0.4-0.3-0.9-0.3-1.4
			c0.1-1.1,0.2-2.1,0.3-3.1c0-0.4,0-0.8,0-1.2c-0.2-1.1-0.8-2-1.1-3c-0.1-0.4-0.1-0.8-0.1-1.2c0.1-1.1,0.4-2,0.5-2.9
			c0-0.3,0-0.6-0.1-1c-0.1-1-0.7-1.3-1.3-1.8l-0.6-0.5c-1-0.8-1.4-2-2.3-2.7c-0.4-0.3-0.8-0.6-1.3-0.7c-0.5-0.1-1-0.1-1.5,0
			c-0.2,0-0.4,0.1-0.6,0.2c-0.5,0.2-1.3,0.2-1.5,1.3c0,0.1,0,0.3-0.1,0.4c0,0.5,0,1.1,0,1.7c-0.1,0.7-0.3,1.3-0.7,1.9
			c-0.3,0.3-0.5,0.6-0.7,0.9c-0.1,0.2-0.2,0.4-0.3,0.7c-0.1,0.6-0.1,0.9-0.3,1.7c0,0.1,0,0.2-0.1,0.4c-0.3,1.2-0.5,2.4-1.9,2.8
			l-0.2,0.1c-1.6,0.4-3.4,0.5-5,0.1l-0.4-0.1c-0.8-0.2-1.5-0.3-2.3-0.3c-0.1,0-0.3,0-0.4,0C29.4,32.9,28.7,33,27.9,33.3z"/>
		<path fill="none" stroke="#010101" stroke-width="0.34" stroke-linecap="round" stroke-linejoin="round" d="M27.3,33.2
			c-0.7,0.3-1.4,0.7-1.9,1.3c-0.6,0.6-1,1.2-1.3,2c-0.6,1.8-0.8,3.7-0.5,5.6c0.2,1.6,1.3,2.6,2.2,3.8c0.4,0.6,0.8,1.3,1.2,1.9
			c0.5,0.7,0.9,1.4,1.3,2.1c0,0.1,0.1,0.2,0.1,0.3c0.6,1.6-0.6,2.4-1.1,3.7c-0.1,0.2-0.1,0.4-0.2,0.6c-0.2,1-0.4,2.7,0.1,3.5
			c0.2,0.3,0.6,0.5,1,0.6c0.9,0.2,1.7,0.3,2.6,0.4c1.4,0.1,2.8,0.5,3.9,1.3c0.3,0.2,0.5,0.5,0.8,0.7c0.9,0.9,1.7,2,2.6,3
			c0.3,0.4,0.7,0.8,1,1.2c0.1,0.2,0.3,0.4,0.4,0.6c0.3,0.7,0.5,1.4,0.5,2.1c0.2,1,1,1.3,1.8,1.5H42c1.5,0.5,3.1,0.8,4.7,1
			c1.2,0.1,2.7,0.2,3.8-0.4c0.2-0.1,0.3-0.2,0.5-0.3c1-0.8,1.1-2.1,1.1-3.3c0-0.3,0-0.5,0.1-0.8c0.2-1.3,1.1-1.7,2.3-2.2
			c0.4-0.1,0.7-0.4,1-0.7c0.2-0.3,0.4-0.7,0.4-1.1c0.1-0.4,0.1-0.9,0.2-1.4c0.2-0.6,0.5-1.2,0.9-1.7c0.4-0.5,0.8-1,1-1.6
			c0.3-0.7,0.3-1.4,0.6-2.1c0.4-0.8,1-1.4,1.7-2c0.5-0.4,1-0.8,1.6-1.1c0.8-0.5,1.6-1,2.4-1.5c0.6-0.4,1.2-0.8,1.8-1.1
			c1-0.6,2.1-1.3,3-2c0.3-0.3,0.7-0.5,1-0.8c1-0.8,1.8-1.9,2.5-3C73,42,73,40.8,72,40c-0.4-0.2-0.8-0.4-1.2-0.5
			c-0.4-0.1-0.9-0.1-1.3,0.1c-0.2,0-0.3,0.1-0.5,0.1c-0.7,0.3-1.3,0.8-2.1,1c-0.5,0.2-1.1,0.2-1.7,0.3c-0.3,0-0.7,0-1,0.1
			c-1.2,0.2-2.4,0.5-3.6,0.9c-0.4,0.1-0.8,0.2-1.2,0.3c-0.6,0.1-1.3,0.1-2-0.1c-0.2-0.1-0.4-0.1-0.5-0.2c-0.4-0.3-1-0.4-1.5-0.4
			c-0.4,0-0.8,0.2-1.1,0.4c-0.3,0.2-0.4,0.4-0.8,0.4c-0.2,0-0.5-0.1-0.7-0.3c-0.2-0.1-0.4-0.3-0.5-0.5c-0.3-0.4-0.5-0.9-0.5-1.4
			c0-1.1,0.2-2.1,0.4-3.2c0.1-0.4,0.1-0.8,0-1.2c-0.2-1.1-0.9-2-1.2-3c-0.1-0.4-0.2-0.8-0.2-1.2c0.1-1,0.3-2,0.6-3
			c0.1-0.3,0.1-0.7,0.1-1c0.1-1.1-0.6-1.4-1.3-1.8c-0.2-0.1-0.5-0.3-0.7-0.4c-1.1-0.8-1.4-1.9-2.3-2.8c-0.8-0.8-1.8-1.2-2.9-1.3
			c-0.3,0-0.5-0.1-0.7-0.1c-0.6,0-1.7-0.4-2.1,0.7c-0.1,0.1-0.1,0.3-0.1,0.5c-0.1,0.6,0,1.2-0.1,1.7c-0.1,0.7-0.3,1.4-0.8,1.9
			c-0.3,0.3-0.5,0.6-0.7,0.9c-0.1,0.2-0.2,0.5-0.1,0.7c0.1,0.6,0.2,1.2,0.3,1.9c0,0.1,0,0.3,0,0.4c-0.1,1.2-0.5,2.5-1.8,3L38,33
			c-1.7,0.6-3.4,0.7-5.2,0.3l-0.5-0.1c-0.8-0.2-1.6-0.4-2.4-0.4h-0.4C28.8,32.7,28,32.9,27.3,33.2z"/>
		<path fill="none" stroke="#010101" stroke-width="0.34" stroke-linecap="round" stroke-linejoin="round" d="M28,32.3
			c-1.5,0.6-2.8,1.7-3.5,3.2c-0.8,1.8-1.2,3.8-1,5.8c0,1.7,1.3,2.7,2.2,3.9c0.5,0.6,0.8,1.3,1.2,2c0.4,0.7,1,1.4,1.4,2.2
			c0.1,0.1,0.1,0.2,0.2,0.3c0.7,1.6-0.8,2.4-1.3,3.8c-0.1,0.2-0.1,0.4-0.2,0.7c-0.2,1.2-0.1,2.5,0.4,3.6c0.2,0.4,0.6,0.7,1,0.8
			c0.9,0.3,1.8,0.5,2.7,0.6c1.5,0.2,3.1,0.3,4.1,1.2c0.3,0.2,0.5,0.5,0.8,0.7c1,1,1.8,2.1,2.6,3.1c0.3,0.4,0.7,0.8,1.1,1.2
			c0.1,0.2,0.3,0.4,0.4,0.6c0.3,0.7,0.4,1.5,0.3,2.2c0.1,1.1,0.9,1.3,1.9,1.4h0.1c1.7,0.2,3.3,0.7,5,0.8c1.3,0.2,2.7,0,3.9-0.5
			c0.2-0.1,0.3-0.2,0.5-0.3c1-0.7,1.2-2.1,1.3-3.3c0-0.3,0-0.6,0.1-0.8c0.2-1.4,1-1.7,2.2-2.3c0.4-0.2,0.7-0.5,0.9-0.8
			c0.2-0.4,0.3-0.8,0.3-1.2c0-0.5,0-1,0.1-1.4c0.2-0.6,0.5-1.2,0.9-1.7c0.4-0.5,0.8-1.1,1-1.7c0.1-0.7,0.3-1.4,0.5-2.1
			c0.4-0.8,1-1.4,1.7-1.9c0.5-0.4,1-0.8,1.6-1.1c0.8-0.5,1.6-1,2.4-1.5c0.6-0.4,1.2-0.7,1.8-1.1c1.1-0.6,2.1-1.2,3.1-1.9
			c0.3-0.3,0.7-0.5,1-0.8c1-0.9,1.8-1.9,2.5-3.1c0.6-1.1,1.1-2.7,0.3-3.7c-0.3-0.3-0.7-0.6-1.1-0.7c-0.4-0.1-0.9-0.1-1.3,0
			c-0.2,0-0.3,0.1-0.5,0.2c-0.7,0.3-1.3,0.9-2.1,1.2C68.1,39.9,67.5,40,67,40c-0.3,0-0.7,0-1,0.1c-1.2,0.3-2.5,0.6-3.7,1.1
			c-0.4,0.1-0.8,0.2-1.2,0.2c-0.7,0.1-1.4,0-2-0.3c-0.2-0.1-0.4-0.2-0.5-0.3c-0.4-0.4-0.9-0.5-1.5-0.5c-0.2,0-0.5,0.1-0.6,0.3
			c-0.2,0.1-0.4,0.3-0.5,0.5c-0.3,0.4-0.5,0.8-1,0.9c-0.3,0.1-0.6,0-0.9-0.1c-0.3-0.1-0.5-0.2-0.7-0.5c-0.4-0.4-0.6-0.8-0.7-1.3
			c-0.1-1.1,0.3-2.1,0.6-3.1c0.1-0.4,0.1-0.8,0.1-1.2c-0.1-1.1-1-1.9-1.4-2.9c-0.2-0.4-0.3-0.8-0.3-1.2c0-1,0.3-2,0.6-2.9
			c0.1-0.3,0.2-0.7,0.3-1c0.3-1.1-0.4-1.4-1.2-1.7c-0.3-0.1-0.5-0.2-0.8-0.4c-1.2-0.7-1.5-1.9-2.3-2.9c-0.8-0.9-1.8-1.6-3-1.9
			l-0.9-0.4c-0.7-0.3-2.1-1-2.7,0.1c-0.1,0.1-0.1,0.3-0.2,0.5c-0.1,0.6-0.1,1.2-0.2,1.7c-0.1,0.7-0.4,1.4-0.9,1.9
			c-0.3,0.3-0.5,0.6-0.7,0.9c-0.1,0.2-0.1,0.5,0,0.8c0.3,0.8,0.8,1.2,0.9,2.1c0,0.1,0,0.3,0,0.4c0.1,0.6-0.1,1.3-0.4,1.8
			c-0.3,0.6-0.8,1-1.3,1.3L38.8,32c-1.7,0.7-3.5,0.9-5.3,0.4l-0.4-0.1c-0.8-0.3-1.6-0.5-2.4-0.5c-0.1,0-0.3,0-0.5,0
			C29.5,31.8,28.8,32,28,32.3z"/>
		<path fill="none" stroke="#010101" stroke-width="0.34" stroke-linecap="round" stroke-linejoin="round" d="M23.5,41.1
			c-0.1,1.8,1.3,2.8,2.2,4.1c0.4,0.7,0.8,1.4,1.2,2.1c0.5,0.9,1.2,1.7,1.5,2.6c0.8,1.7-0.9,2.4-1.4,3.9c-0.3,1.5-0.2,3.1,0.5,4.5
			c1.4,2.8,5.8,1,7.9,2.9c1.3,1.2,2.4,2.6,3.4,4.1c0.6,0.6,1,1.2,1.4,2c0.2,0.8,0.3,1.6,0.1,2.4c0,1.3,1,1.4,2.1,1.4
			c1.8,0,3.4,0.5,5.2,0.6c1.4,0.1,3.2,0,4.3-0.8c1.3-0.9,1.3-2.7,1.5-4.1c0.2-1.4,0.9-1.9,2.1-2.5c1.5-0.9,0.7-2.3,1-3.8
			c0.3-1.4,1.6-2.1,1.9-3.5c0-0.8,0.2-1.5,0.4-2.2c0.4-0.8,0.9-1.5,1.7-2c1.3-0.9,2.6-1.8,4-2.5c1.5-1,3.4-1.8,4.9-3
			c1.3-1.2,2.4-2.5,3.3-4c0.7-1.1,1.6-3.1,1.1-4.4c-0.1-0.2-0.3-0.5-0.5-0.6c-0.2-0.2-0.5-0.3-0.7-0.4c-0.3-0.1-0.5-0.1-0.8-0.1
			c-0.3,0-0.5,0.1-0.8,0.3c-0.6,0.5-1.3,0.9-2,1.3c-0.9,0.3-1.7,0.2-2.6,0.3c-1.6,0.3-3.1,1.3-4.8,1.4c-0.7,0-1.4-0.2-2-0.5
			c-0.6-0.4-1.1-1.2-1.9-1c-1.1,0.3-1.1,2-2.2,2.5c-0.3,0.1-0.6,0.2-0.9,0.1s-0.6-0.1-0.9-0.3c-0.3-0.1-0.5-0.4-0.7-0.6
			c-0.2-0.2-0.3-0.5-0.3-0.8c-0.3-1.6,0.9-2.9,0.8-4.4c-0.2-1.5-1.8-2.3-2-4.1c-0.1-1.6,0.6-2.6,1.1-4c0.6-1.7-0.9-1.5-2-2
			c-1.3-0.6-1.4-1.9-2.2-3c-0.9-1.4-2.6-2.3-3.9-3.2c-0.8-0.5-2.5-1.7-3.3-0.5c-0.4,0.6-0.3,1.6-0.4,2.2c-0.1,0.7-0.5,1.4-1,1.9
			c-0.6,0.6-1,0.9-0.6,1.8c0.4,0.9,1.2,1.3,1.5,2.3c0.2,0.8,0.2,1.6-0.1,2.3c-0.3,0.7-0.8,1.3-1.5,1.7c-0.8,0.4-1.7,0.7-2.6,0.8
			c-0.9,0.1-1.8,0-2.7-0.3c-0.9-0.4-1.8-0.7-2.8-0.8c-0.9,0.1-1.9,0.3-2.7,0.7C24.8,33.5,23.6,37,23.5,41.1z"/>
		<path fill="none" stroke="#010101" stroke-width="0.34" stroke-linecap="round" stroke-linejoin="round" d="M28.8,29.5
			c-0.6,0.4-1.1,0.9-1.4,1.6c-0.2,0.4-0.3,0.8-0.8,1c-0.8,0.4-1.6,1-2.1,1.8c-0.6,0.7-1.1,1.4-1.5,2.3c-0.3,0.8-0.6,1.7-0.7,2.5
			c-0.1,0.3-0.1,0.6-0.1,1c-0.1,0.7,0,1.4,0.2,2c0.1,0.3,0.1,0.1,0.2,0.4c0.5,0.9,1.1,1.7,1.7,2.5c0.5,0.7,0.9,1.4,1.2,2.2l0.1,0.2
			c0.4,0.7,0.7,1.4,1,2.1l0.2,0.4c0.6,1.7-0.7,2.6-1.1,4.1c0,0.1,0,0.2-0.1,0.3c-0.1,0.9-0.1,1.8,0,2.7c0.1,0.6,0.2,1.2,0.5,1.7
			c0.2,0.4,0.6,0.7,1,0.9c0.8,0.3,1.6,0.5,2.4,0.6c1.6,0.2,3.2,0.4,4.4,1.2c0.1,0.1,0.3,0.2,0.4,0.3c1.1,1,2.1,2.2,2.9,3.4l0.6,0.8
			c0.5,0.6,1,1.3,1.5,2c0.1,0.1,0.1,0.3,0.2,0.4c0.2,0.6,0.3,1.2,0.4,1.8c0.2,1.2,1.2,1.3,2.3,1.4h0.1c1.8,0.2,3.5,0.6,5.3,0.7
			c1.5,0.1,2.9-0.2,4.2-0.9c0.7-0.5,1.1-1.3,1.3-2.1c0.1-0.6,0.2-1.2,0.3-1.8c0.3-1.3,0.9-1.8,2-2.5c0.3-0.2,0.5-0.4,0.7-0.6
			c0.6-0.8,0.3-1.8,0.6-2.9c0-0.1,0-0.1,0.1-0.2c0.4-1.1,1.6-1.9,1.9-3.2c0-0.2,0-0.5,0-0.7c-0.1-0.5,0-1,0.1-1.5
			c0.2-0.8,0.7-1.6,1.2-2.3c1.1-1.3,2.4-2.3,3.8-3.1c1.2-0.7,2.5-1.1,3.7-1.8c0.6-0.3,1.1-0.7,1.7-1.1c0.5-0.4,1-0.9,1.4-1.3
			c0.9-0.9,1.7-1.8,2.3-2.9c0.8-1.2,1.5-3.2,1-4.6c-0.2-0.5-0.5-0.9-0.9-1.2c-0.5-0.2-1-0.3-1.5-0.2c-0.3,0.1-0.7,0.2-1,0.4
			c-0.3,0.1-0.6,0.2-0.9,0.3c-0.8,0-1.7,0-2.5-0.2c-0.2,0-0.5,0-0.7,0c-1.3,0.1-2.6,0.6-4,0.4c-0.1,0-0.3,0-0.4-0.1
			c-0.5-0.1-1-0.4-1.5-0.7c-0.1-0.1-0.3-0.2-0.4-0.3c-0.4-0.4-0.9-0.9-1.5-0.9c-0.1,0-0.2,0-0.4,0.1c-0.8,0.4-1,1.9-1.8,2.5
			c-0.2,0.1-0.3,0.2-0.5,0.2c-0.4,0.1-0.9,0.1-1.3-0.1c-0.4-0.2-0.7-0.5-0.9-0.9c-0.1-0.3-0.2-0.6-0.1-0.9c0-0.8,0.3-1.6,0-2.5
			c-0.1-0.3-0.3-0.7-0.5-0.9c-0.6-0.8-1.6-1.7-1.6-3c0-1.1,0.6-2.2,0.8-3.2c0.1-0.3,0.1-0.6,0.1-0.8c0-0.2,0-0.4,0-0.7
			c-0.2-0.6-1-0.7-1.7-1c-0.2-0.1-0.4-0.1-0.6-0.2c-1.3-0.7-1.5-2-2.2-3.2c-0.9-1.3-2.4-2.2-3.7-3c-0.7-0.4-1.9-1.2-2.7-0.9
			c-0.2,0.1-0.3,0.2-0.4,0.3c-0.4,0.5-0.4,1.2-0.5,1.8c-0.1,0.3-0.2,0.6-0.4,0.9c-0.2,0.2-0.3,0.4-0.6,0.6c-0.5,0.4-1,0.7-0.7,1.4
			c0.2,0.3,0.4,0.6,0.6,0.9c0.2,0.3,0.4,0.7,0.4,1c0.1,0.7,0,1.4-0.2,2.1c-0.3,0.7-0.7,1.2-1.3,1.6c-0.7,0.5-1.4,0.8-2.2,0.9
			c-0.8,0.2-1.6,0.2-2.4,0c-0.4-0.1-0.8-0.2-1.2-0.3c-0.4-0.1-0.9-0.2-1.3-0.1C30.5,28.7,29.6,29,28.8,29.5z"/>
		<path fill="none" stroke="#010101" stroke-width="0.34" stroke-linecap="round" stroke-linejoin="round" d="M30.3,28.3
			c-0.9,0.6-0.8,1.5-0.9,2.2c0,0.5,0.1,1.1-0.7,1.2c-1.1,0.2-2.1,0.7-2.9,1.5c-0.9,0.6-1.6,1.4-2.2,2.3c-0.5,0.9-0.9,1.9-1.1,2.9
			l-0.3,1.1c-0.2,0.8-0.2,1.6,0,2.4c0.1,0.5,0.1-0.2,0.2,0.3c0.3,1.1,1.2,2,1.9,3c0.5,0.7,0.9,1.5,1.2,2.2l0.1,0.2
			c0.3,0.7,0.6,1.4,0.7,2.2l0.1,0.5c0.5,1.7-0.5,2.8-0.7,4.3l0,0.3c-0.1,0.9-0.1,1.8,0,2.7c0,0.6,0.2,1.2,0.4,1.8
			c0.3,0.4,0.7,0.7,1.1,0.8c0.8,0.2,1.6,0.4,2.5,0.5c1.6,0.1,3.1,0.6,4.5,1.4c0.1,0.1,0.3,0.2,0.4,0.3c1.1,1,2.1,2.3,2.9,3.6
			c0.2,0.3,0.4,0.6,0.5,0.9c0.5,0.7,1,1.4,1.5,2.1c0.1,0.1,0.2,0.3,0.3,0.4c0.3,0.5,0.5,1,0.7,1.6c0.4,1,1.4,1.2,2.5,1.3h0.1
			c1.8,0.4,3.6,0.6,5.4,0.7c1.4,0.1,2.8-0.3,4-1c0.7-0.5,1.1-1.2,1.3-2c0.2-0.6,0.3-1.1,0.4-1.7c0.1-0.5,0.3-1,0.7-1.4
			c0.3-0.4,0.7-0.8,1.2-1c0.3-0.2,0.5-0.4,0.7-0.6c0.6-0.7,0.5-1.7,0.8-2.6c0,0,0-0.1,0.1-0.1c0.5-1,1.6-1.7,1.9-2.9
			c0.1-0.3,0.1-0.5,0-0.8c-0.2-0.5-0.2-1.1-0.2-1.6c0.1-0.9,0.4-1.8,0.8-2.6c0.8-1.6,2-2.9,3.6-3.6c1.3-0.7,2.8-1,4.1-1.6
			c0.6-0.3,1.2-0.7,1.8-1.2c0.5-0.4,1.1-0.9,1.6-1.4c1-0.9,1.9-1.9,2.6-3c0.9-1.4,1.2-3.1,0.9-4.8c-0.1-0.5-0.3-0.9-0.7-1.3
			c-0.4-0.3-0.8-0.5-1.3-0.6c-0.3,0-0.6,0-0.9,0.1c-0.3,0-0.6,0-0.9,0c-0.8-0.2-1.6-0.4-2.4-0.7c-0.2-0.1-0.4-0.1-0.7-0.1
			c-1.3-0.2-2.6,0-4-0.4c-0.1,0-0.3-0.1-0.4-0.2c-0.5-0.2-1-0.5-1.4-0.9c-0.1-0.1-0.3-0.2-0.4-0.4c-0.4-0.4-0.9-1-1.5-1
			c-0.1,0-0.2,0-0.4,0c-0.8,0.3-1,2-1.8,2.7c-0.1,0.1-0.3,0.2-0.5,0.3c-0.3,0.2-0.7,0.3-1.1,0.2c-0.4,0-0.7-0.2-1-0.4
			c-0.1-0.2-0.3-0.3-0.3-0.5c-0.1-0.6-0.4-1.2-0.7-1.8c-0.2-0.3-0.4-0.6-0.7-0.8c-0.9-0.8-1.8-1.8-1.7-3.1c0.1-1.1,0.9-2.3,0.9-3.2
			c0-0.3,0-0.5-0.1-0.8c0-0.2-0.1-0.4-0.2-0.6c-0.3-0.5-1.1-0.6-1.8-1c-0.2-0.1-0.4-0.2-0.6-0.3c-1.2-0.8-1.5-2.2-2.3-3.3
			c-0.9-1.2-2.1-2.1-3.4-2.8c-0.6-0.4-1.7-1.1-2.5-0.9c-0.1,0-0.3,0.1-0.4,0.2c-0.4,0.4-0.5,0.9-0.7,1.3c-0.1,0.2-0.3,0.5-0.5,0.7
			c-0.2,0.2-0.3,0.3-0.5,0.4c-0.5,0.3-0.9,0.4-0.8,1c0.1,0.2,0.2,0.5,0.3,0.7c0.2,0.3,0.3,0.6,0.3,0.9c0,0.7-0.1,1.3-0.4,1.9
			c-0.3,0.6-0.7,1.1-1.2,1.5c-1.1,0.9-2.5,1.4-4,1.4c-0.4,0-0.7-0.1-1.1-0.1c-0.4-0.1-0.8-0.1-1.2,0C31.7,27.5,31,27.8,30.3,28.3z"
			/>
		<path fill="none" stroke="#010101" stroke-width="0.34" stroke-linecap="round" stroke-linejoin="round" d="M31.7,26.8
			c-0.9,0.8-0.6,1.9-0.4,2.8c0.1,0.6,0.5,1.4-0.6,1.3c-1.3-0.1-2.3,0.5-3.5,1.1c-1.1,0.5-2.1,1.2-2.9,2.2c-0.7,1-1.2,2.1-1.4,3.2
			c-0.1,0.4-0.2,0.8-0.4,1.3c-0.3,0.9-0.4,1.8-0.2,2.8c0.1,0.6,0.1-0.4,0.1,0.2c0.3,1.3,1.3,2.4,2.1,3.5c0.5,0.7,0.9,1.5,1.3,2.3
			l0.1,0.2c0.2,0.7,0.4,1.5,0.5,2.3c0,0.2,0,0.3,0.1,0.5c0.3,1.7-0.2,2.9-0.4,4.4c0,0.1,0,0.2,0,0.3c-0.1,0.9-0.1,1.8,0,2.8
			c0,0.6,0.1,1.2,0.4,1.8c0.3,0.4,0.8,0.6,1.2,0.6c0.8,0.2,1.6,0.2,2.5,0.3c1.6,0.2,3.1,0.8,4.4,1.7l0.4,0.3
			c1.2,1.1,2.1,2.3,2.9,3.7c0.2,0.3,0.3,0.6,0.5,0.9c0.4,0.8,0.9,1.5,1.5,2.1c0.1,0.1,0.2,0.2,0.3,0.3c0.4,0.4,0.7,0.8,1,1.3
			c0.6,0.8,1.6,1,2.6,1.3H44c1.8,0.5,3.6,0.7,5.5,0.7c1.3,0,2.6-0.4,3.7-1c0.6-0.5,1.1-1.1,1.3-1.8c0.2-0.5,0.3-1.1,0.5-1.6
			c0.3-1,0.9-1.8,1.8-2.3c0.2-0.2,0.4-0.3,0.6-0.5c0.6-0.7,0.7-1.4,1.1-2.3l0.1-0.1c0.5-0.9,1.6-1.6,1.9-2.7
			c0.1-0.1,0.1-0.3,0.1-0.4c0-0.1-0.1-0.3-0.2-0.4c-0.2-0.5-0.4-1.1-0.4-1.6c0-1,0.1-1.9,0.4-2.8c0.2-0.9,0.6-1.7,1.2-2.4
			c0.6-0.7,1.3-1.3,2.1-1.7c1.4-0.7,3-0.8,4.4-1.5c0.7-0.3,1.3-0.7,1.9-1.2c0.6-0.5,1.1-1,1.7-1.4c1.1-0.8,2.1-1.9,2.8-3
			c0.8-1.5,1.1-3.2,0.8-4.9c0-0.5-0.2-1-0.5-1.4c-0.3-0.4-0.6-0.7-1.1-1c-0.3-0.1-0.6-0.2-0.9-0.3c-0.3-0.1-0.5-0.2-0.8-0.3
			c-0.7-0.3-1.4-0.8-2.1-1.2c-0.2-0.1-0.4-0.2-0.6-0.3c-1.2-0.5-2.5-0.6-3.8-1.2c-0.1-0.1-0.3-0.1-0.4-0.2c-0.5-0.3-0.9-0.7-1.3-1
			c-0.1-0.1-0.2-0.3-0.4-0.4c-0.4-0.4-0.8-1-1.4-1.1c-0.1,0-0.3,0-0.4,0c-0.8,0.2-1.1,1.9-1.6,2.7c-0.1,0.2-0.2,0.3-0.4,0.4
			c-0.3,0.2-0.6,0.4-1,0.5c-0.4,0.1-0.7,0.1-1.1,0.1c-0.2,0-0.4-0.1-0.5-0.2c-0.5-0.3-1-0.6-1.5-1c-0.2-0.2-0.5-0.4-0.9-0.6
			c-0.5-0.3-1-0.8-1.3-1.3c-0.3-0.5-0.4-1.2-0.4-1.8c0.1-1,1.1-2.3,1-3.2c-0.1-0.2-0.2-0.5-0.4-0.6c-0.1-0.2-0.2-0.3-0.4-0.4
			c-0.6-0.4-1.2-0.7-1.9-0.9c-0.2-0.1-0.4-0.2-0.5-0.3c-1.2-0.8-1.5-2.2-2.3-3.3c-0.8-1.1-1.8-1.9-3-2.6c-0.7-0.5-1.5-0.8-2.3-0.8
			c-0.1,0-0.2,0.1-0.4,0.1c-0.4,0.2-0.5,0.6-0.8,0.8c-0.1,0.2-0.3,0.3-0.5,0.4c-0.2,0.1-0.3,0.2-0.5,0.2c-0.4,0.2-0.8,0.2-0.8,0.5
			c0,0.2,0,0.3,0,0.5c0,0.2,0,0.5,0,0.7c-0.1,1.2-0.6,2.3-1.4,3.2c-0.4,0.5-0.9,0.9-1.5,1.2c-0.5,0.3-1.1,0.5-1.7,0.6
			c-0.3,0-0.6,0.1-0.9,0.1c-0.3,0-0.7,0.1-1,0.2C33,26,32.3,26.3,31.7,26.8z"/>
		<path fill="none" stroke="#010101" stroke-width="0.34" stroke-linecap="round" stroke-linejoin="round" d="M33.1,25.5
			c-1,1-0.3,2.3,0.1,3.3c0.3,0.7,0.9,1.6-0.4,1.4c-1.6-0.3-2.7,0.1-4.2,0.8C27.2,31.4,26,32.1,25,33c-0.9,1-1.5,2.2-1.8,3.5
			c-0.1,0.5-0.3,0.9-0.5,1.4c-0.4,1-0.6,2-0.5,3c0.1,0.8,0-0.6,0.1,0.1c0.2,1.6,1.3,2.7,2.2,4c0.5,0.7,0.9,1.5,1.3,2.3
			c0,0.1,0.1,0.1,0.1,0.2c0.2,0.8,0.3,1.6,0.2,2.3c0,0.2,0,0.3,0,0.5c0.1,1.5,0.1,3,0,4.5c0,0.1,0,0.2,0,0.4c0,0.9-0.1,1.8,0,2.8
			c0,0.6-0.1,1.3,0.3,1.8c0.3,0.3,0.8,0.5,1.3,0.5c0.8,0.1,1.7,0.1,2.6,0.2c1.6,0.3,3.1,1,4.4,2c0.1,0.1,0.3,0.2,0.4,0.3
			c1.2,1.1,2.2,2.3,2.9,3.7c0.2,0.3,0.3,0.6,0.5,1c0.3,0.8,0.9,1.5,1.5,2.1c0.1,0.1,0.2,0.2,0.4,0.3c0.5,0.3,1,0.7,1.4,1.1
			c0.8,0.6,1.8,1,2.8,1.2h0.1c1.8,0.6,3.6,0.9,5.5,0.8c1.2-0.1,2.4-0.4,3.5-1.1c0.6-0.4,1-1,1.3-1.7c0.2-0.5,0.4-1,0.5-1.4
			c0.3-0.9,0.9-1.7,1.6-2.2c0.2-0.2,0.4-0.3,0.6-0.5c0.5-0.6,1-1.2,1.3-1.9l0.1-0.1c0.5-0.7,1.6-1.4,1.9-2.3c0.1-0.4,0-0.5-0.2-0.8
			c-0.3-0.5-0.5-1.1-0.6-1.7c-0.1-1-0.1-2,0-3c0.2-1.9,0.9-3.6,3-4.6c1.5-0.7,3.1-0.7,4.6-1.3c0.7-0.3,1.4-0.7,2-1.2
			c0.6-0.5,1.2-1,1.8-1.5c1.2-0.8,2.2-1.9,3-3.1c0.7-1.6,1-3.3,0.7-5c0-1-0.4-2-1.1-2.8c-0.2-0.2-0.5-0.5-0.8-0.6
			c-0.3-0.2-0.5-0.3-0.8-0.5c-0.6-0.5-1.2-1.2-1.9-1.7c-0.2-0.1-0.4-0.3-0.6-0.4c-1.1-0.8-2.4-1.2-3.6-2c-0.1-0.1-0.2-0.2-0.4-0.3
			c-0.5-0.4-0.9-0.8-1.3-1.2l-0.4-0.4c-0.3-0.4-0.8-1.1-1.3-1.3c-0.1-0.1-0.3-0.1-0.4-0.1c-0.8,0.1-1.1,1.9-1.5,2.8
			c-0.1,0.2-0.2,0.3-0.3,0.5c-0.5,0.6-1.2,1.1-2,1.4c-0.2,0.1-0.5,0.1-0.7,0.1c-0.7,0.1-1.5,0-2.2-0.3c-0.3-0.1-0.7-0.3-1-0.4
			c-0.6-0.2-1.1-0.7-1.4-1.3c-0.3-0.6-0.4-1.2-0.3-1.9c0.2-0.9,1.4-2.3,1-3.2c-0.1-0.2-0.4-0.4-0.6-0.5L53.3,25
			c-0.5-0.3-1.3-0.5-2-0.8c-0.2-0.1-0.4-0.2-0.5-0.3c-1.1-0.9-1.5-2.3-2.3-3.4c-0.7-1-1.7-1.8-2.7-2.3c-0.6-0.4-1.3-0.7-2-0.8
			c-0.1,0-0.2,0-0.3,0c-0.4,0.1-0.6,0.3-0.9,0.4c-0.2,0.1-0.3,0.1-0.5,0.1c-0.2,0-0.3,0-0.5,0c-0.4,0-0.8-0.1-0.8,0.1
			c-0.1,0.1-0.2,0.1-0.2,0.2c-0.1,0.2-0.2,0.4-0.2,0.6c-0.3,1-0.8,2-1.3,2.8c-0.3,0.5-0.7,0.9-1.1,1.3c-0.4,0.3-0.8,0.6-1.3,0.9
			c-0.2,0.1-0.5,0.2-0.8,0.3c-0.3,0.1-0.6,0.2-0.9,0.3C34.1,24.6,33.6,25,33.1,25.5z"/>
		<path fill="none" stroke="#010101" stroke-width="0.34" stroke-linecap="round" stroke-linejoin="round" d="M33.5,23.8
			c-1,1.2,0,2.8,0.6,3.9c0.5,0.9,1.3,2-0.3,1.6c-1.8-0.4-3.2-0.1-5,0.4c-1.6,0.3-3.1,1.1-4.3,2.1c-1.2,1.1-1.6,2.4-2.1,4
			c-0.2,0.5-0.4,1-0.6,1.6c-0.5,1.1-0.7,2.3-0.7,3.5c0.1,0.9,0-0.9,0,0.1c0.2,1.8,1.4,3.1,2.4,4.6c0.5,0.7,1,1.5,1.3,2.4
			c0,0.1,0,0.1,0.1,0.2c0.1,0.8,0.1,1.7-0.1,2.5c0,0.2,0,0.3,0,0.5c0,1.6,0.2,3.1,0.2,4.7c0,0.1,0,0.2,0,0.4c0,0.9,0,1.9-0.1,2.9
			c0,0.6-0.2,1.4,0.3,1.9c0.2,0.2,0.4,0.3,0.7,0.3c0.2,0.1,0.5,0.1,0.8,0c0.9-0.1,1.8,0,2.7,0.1c1.6,0.4,3.2,1.1,4.4,2.3
			c0.1,0.1,0.3,0.2,0.4,0.3c1.2,1.1,2.2,2.4,3,3.9c0.2,0.3,0.3,0.7,0.5,1c0.3,0.9,0.8,1.6,1.6,2.2c0.1,0.1,0.3,0.2,0.4,0.2
			c0.6,0.3,1.2,0.6,1.8,0.9c1,0.5,2,0.9,3,1.1h0.1c1.9,0.6,3.7,1.1,5.7,0.8c1.2-0.1,2.3-0.6,3.3-1.2c0.6-0.4,1-0.9,1.3-1.5
			c0.2-0.5,0.4-0.9,0.6-1.3c0.3-0.9,0.8-1.6,1.5-2.2c0.2-0.2,0.4-0.3,0.6-0.5c0.6-0.5,1.1-1.1,1.6-1.7c0,0,0.1-0.1,0.1-0.1
			c0.5-0.6,1.7-1.3,1.9-2.2c0.2-0.5,0-0.5-0.2-0.8c-0.4-0.5-0.6-1.1-0.8-1.7c-0.3-1.1-0.4-2.2-0.5-3.4c0-2.1,0.5-4.2,2.8-5.2
			c1.6-0.7,3.4-0.5,5-1.1c0.8-0.3,1.5-0.8,2.1-1.3c0.6-0.5,1.3-1.1,1.9-1.6c1.3-0.8,2.4-1.9,3.3-3.2c0.9-1.7,0.7-3.5,0.6-5.3
			c0-1.2-0.2-2.3-0.7-3.4c-0.2-0.4-0.5-0.7-0.8-1c-0.2-0.3-0.5-0.5-0.7-0.8c-0.6-0.7-1.1-1.5-1.8-2.2c-0.2-0.2-0.3-0.4-0.5-0.6
			c-1.1-1.1-2.4-1.8-3.4-2.9c-0.1-0.1-0.2-0.2-0.3-0.4c-0.4-0.4-0.8-0.9-1.2-1.4l-0.4-0.5c-0.4-0.6-0.8-1-1.3-1.4
			c-0.1-0.1-0.3-0.1-0.4-0.1c-0.8,0-1.1,1.9-1.4,3c-0.1,0.2-0.1,0.4-0.2,0.6c-0.5,0.9-1.2,1.6-2,2.2c-0.3,0.2-0.6,0.4-0.9,0.5
			c-0.9,0.4-1.9,0.6-2.9,0.5c-0.4,0-0.8-0.1-1.2-0.3c-0.6-0.2-1.2-0.6-1.5-1.2c-0.3-0.6-0.4-1.3-0.3-2c0.2-0.8,1.7-2.5,1.1-3.3
			c-0.2-0.2-0.5-0.4-0.8-0.4c-0.3-0.1-0.5-0.2-0.7-0.2c-0.7-0.2-1.4-0.5-2.1-0.8c-0.2-0.1-0.4-0.2-0.6-0.3c-1.1-0.9-1.6-2.5-2.4-3.6
			c-0.7-0.9-1.5-1.6-2.5-2.1c-0.6-0.4-1.2-0.6-1.9-0.7h-0.3c-0.3,0-0.7-0.1-1-0.1c-0.2,0-0.4-0.1-0.6-0.1l-0.4-0.2
			c-0.3-0.1-0.6-0.2-0.9-0.3c-0.2,0-0.3,0-0.5,0c-0.2,0.1-0.4,0.2-0.5,0.4c-0.4,0.6-0.8,1.7-1.3,2.6c-0.2,0.5-0.5,0.9-0.8,1.4
			c-0.3,0.4-0.6,0.8-0.9,1.1c-0.2,0.2-0.4,0.3-0.6,0.5c-0.2,0.2-0.5,0.3-0.7,0.5C34.4,23,33.9,23.3,33.5,23.8z"/>
		<path fill="none" stroke="#010101" stroke-width="0.34" stroke-linecap="round" stroke-linejoin="round" d="M21,40.6
			c0.1,2,1.6,3.4,2.6,5c0.6,0.8,1.1,1.6,1.4,2.6c0.2,0.9-0.2,1.7-0.3,2.5c-0.4,1.9,0.5,3.8,0.5,5.7c0,1,0,1.9-0.1,2.9
			c0,0.6-0.3,1.4,0.2,1.8c0.5,0.5,1.1,0.3,1.6,0.2c0.9-0.1,1.9-0.1,2.8,0c1.7,0.4,3.2,1.3,4.5,2.5c1.4,1.2,2.6,2.6,3.4,4.3
			c0.7,1.4,0.8,2.9,2.5,3.4c1.9,0.5,3.6,1.1,5.4,1.7c2,0.7,3.7,1.3,5.8,0.8c1.7-0.3,3.5-1.1,4.4-2.6c1-1.5,1.2-2.7,2.6-3.7
			c0.7-0.5,1.3-0.9,2-1.4c0.6-0.5,1.7-1.2,2-1.9c0.2-0.5,0-0.5-0.3-0.8c-0.5-0.5-0.8-1.1-1-1.8c-1-2.9-2.2-7.7,1.6-9.1
			c1.7-0.7,3.6-0.4,5.4-1c1.7-0.6,2.9-2,4.3-2.9c1.5-0.9,2.7-1.7,3.5-3.2c0.9-1.7,0.5-3.5,0.6-5.4c0-1.9,0.3-3.4-0.9-5.1
			c-1-1.4-1.7-3.1-2.8-4.5c-1.1-1.4-2.6-2.6-3.7-4.1c-0.5-0.7-1-1.3-1.5-2c-0.4-0.5-1-1.7-1.7-1.7c-1.1-0.1-1.2,3-1.5,3.7
			c-0.6,1.5-1.7,2.9-3.1,3.7c-1.4,0.8-3.4,1.5-5,1.1c-0.3-0.1-0.7-0.2-0.9-0.4c-0.3-0.2-0.5-0.5-0.7-0.7c-0.2-0.3-0.3-0.6-0.3-1
			c0-0.3,0-0.7,0.1-1c0.3-0.8,2-2.5,1.2-3.2c-0.6-0.3-1.3-0.4-2-0.4c-0.8-0.1-1.5-0.3-2.2-0.7c-1.4-0.9-2-2.8-3-4
			c-1-1.2-2.3-2.1-3.9-2.6c-0.7-0.3-1.4-0.6-2.1-1.1c-0.6-0.4-1.3-1.3-2.2-1.3c-1.5,0-2,3-2.4,4c-0.2,0.8-0.6,1.5-1.1,2.1
			c-0.5,0.6-1.3,1.1-1.8,1.7c-1,1.4,0.2,3.1,1,4.4c0.6,1,1.7,2.2-0.2,1.7c-1.9-0.5-3.9-0.5-5.8,0.1c-1.8,0.4-3.6,0.8-5.1,2
			c-1.5,1.2-1.9,2.6-2.5,4.2C21.9,36.9,20.9,38.6,21,40.6C21.1,41.7,21,39.5,21,40.6z"/>
		<path fill="none" stroke="#010101" stroke-width="0.34" stroke-linecap="round" stroke-linejoin="round" d="M32.4,23.5
			c-0.9,1.3,0.1,2.9,0.8,4.1c0.5,0.9,1.4,2-0.2,1.6c-1-0.2-2.1-0.2-3.2,0c-0.6,0.1-1.1,0.3-1.7,0.5c-1.6,0.4-3.1,1.1-4.4,2.1
			c-1.3,1.1-1.7,2.4-2.4,3.9l-0.2,0.4c-0.6,1.5-1.4,3-1.4,4.6c0,0.9-0.1-0.8,0,0.1c0.1,1.8,1.3,3.2,2.3,4.6c0.7,0.8,1.2,1.7,1.6,2.7
			c0.1,0.5,0.2,1,0.1,1.5c-0.1,0.4-0.2,0.8-0.3,1.3c0,0.2-0.1,0.4-0.1,0.7c0,0.7,0.1,1.4,0.3,2.1c0.3,1.1,0.5,2.1,0.6,3.2
			c0,0.4,0,0.7,0,1.1c0,0.6-0.2,1.3-0.3,2c-0.1,0.7-0.4,1.5,0.1,2c0.2,0.2,0.5,0.3,0.7,0.4c0.3,0.1,0.6,0.1,0.8,0
			c1-0.1,1.9-0.1,2.9,0c1.6,0.3,3.1,1.1,4.4,2.2l0.4,0.3c1.1,0.9,2.1,2.1,2.8,3.4c0.2,0.4,0.4,0.8,0.6,1.3c0.1,0.3,0.2,0.5,0.3,0.8
			c0.1,0.6,0.4,1.2,0.7,1.7c0.3,0.4,0.7,0.6,1.1,0.7c0.2,0.1,0.4,0.1,0.5,0.1c0.7,0.1,1.4,0.2,2,0.4c0.8,0.2,1.5,0.4,2.3,0.6
			c0.5,0.2,0.9,0.3,1.3,0.5c0.4,0.2,0.7,0.3,1,0.4c1.6,0.6,3.3,0.8,5,0.5c1.2-0.1,2.4-0.6,3.4-1.3c0.6-0.5,1.1-1.1,1.4-1.8
			c0.1-0.2,0.3-0.5,0.4-0.7c0.5-1,1.2-1.8,2.1-2.4c0.2-0.1,0.5-0.2,0.7-0.3c0.3-0.1,0.6-0.2,0.8-0.3c0.4-0.1,0.8-0.3,1.2-0.5
			l0.2-0.2c0.3-0.2,0.6-0.5,0.9-0.8c0.5-0.4,0.9-0.9,1.2-1.4c0.2-0.5,0.1-0.5-0.1-0.8c-0.3-0.5-0.5-1.1-0.6-1.7
			c-0.1-0.9-0.2-1.8-0.3-2.8c-0.1-2.2,0.2-4.4,2.1-5.8c0.3-0.2,0.5-0.3,0.8-0.5c1.4-0.7,2.8-0.8,4.1-1.4l0.6-0.3
			c0.6-0.3,1.1-0.8,1.6-1.3c0.6-0.6,1-1.2,1.5-1.7c0.1-0.1,0.2-0.2,0.3-0.3c1.1-1,2.3-2,3-3.5c0.3-0.9,0.5-1.9,0.3-2.9
			c0-0.8-0.1-1.7-0.2-2.6v-0.7c0-1.6-0.1-3-1.1-4.5c-1-1.5-1.8-3.1-2.9-4.5c-0.5-0.6-1-1.1-1.5-1.6c-0.8-0.8-1.6-1.6-2.3-2.5
			c-0.5-0.7-1-1.4-1.5-2c-0.3-0.5-1-1.6-1.6-1.8c-0.6-0.2-1.1,0.8-1.4,1.8c-0.1,0.4-0.3,0.9-0.4,1.3c-0.7,1.5-1.7,2.8-3,3.8
			c-0.6,0.5-1.3,0.8-2,1c-0.6,0.1-1.2,0.1-1.8,0c-0.2,0-0.4-0.1-0.7-0.2c-0.5-0.2-0.9-0.5-1.3-1c-0.3-0.4-0.6-0.9-0.6-1.5
			c0-0.2,0-0.3,0-0.5c0.1-0.4,0.7-1.2,0.8-1.8c0-0.1,0-0.3,0-0.4c0-0.1-0.1-0.3-0.3-0.4c-0.6-0.2-1.3-0.4-1.9-0.4l-0.4-0.1
			c-0.6-0.1-1.2-0.3-1.7-0.7c-1.3-0.9-2-2.7-2.9-4c-0.7-0.9-1.6-1.7-2.7-2.2c-0.5-0.3-1.1-0.6-1.7-0.9c-0.4-0.2-0.9-0.4-1.3-0.6
			c-0.4-0.2-0.8-0.3-1.1-0.4c-0.3-0.1-0.8-0.3-1.2-0.5c-0.3-0.1-0.7-0.1-1,0c-0.7,0.4-1.2,1-1.5,1.7c-0.5,0.9-0.9,1.8-1.3,2.7
			c0,0.1,0,0.2-0.1,0.2c-0.1,0.3-0.2,0.7-0.3,1c-0.2,0.5-0.5,0.9-0.9,1.3L34.7,22c-0.4,0.4-0.9,0.7-1.4,0.9
			C32.9,23,32.6,23.2,32.4,23.5z"/>
		<path fill="none" stroke="#010101" stroke-width="0.34" stroke-linecap="round" stroke-linejoin="round" d="M30.9,24.4
			c-0.8,1.2,0,2.6,0.6,3.7c0.4,0.8,1.1,1.8-0.2,1.6c-0.9-0.1-1.8,0-2.6,0.4c-0.5,0.2-0.9,0.4-1.5,0.6c-1.4,0.5-2.7,1.2-3.8,2.1
			c-1,1-1.7,2.2-2.1,3.5l-0.2,0.4c-0.6,1.3-1.3,2.6-1.3,4.1c0,0.8-0.1-0.6,0,0.2c0,1.6,1,2.9,1.9,4.2c0.7,0.9,1.3,1.8,1.8,2.8
			c0.2,0.5,0.2,1,0.2,1.5c0,0.5-0.1,0.9-0.2,1.4c0,0.2-0.1,0.5-0.1,0.7c0,0.8,0.1,1.5,0.4,2.2c0.6,1.4,0.9,3,0.7,4.5
			c-0.1,0.7-0.3,1.4-0.4,2c-0.2,0.7-0.4,1.6,0,2.1c0.2,0.2,0.5,0.3,0.7,0.4c0.3,0.1,0.6,0.1,0.8,0.1c1-0.1,2-0.1,3,0
			c1.7,0.3,3.3,1,4.6,2.1l0.4,0.3c1.2,0.9,2.2,2.1,2.9,3.4c0.2,0.4,0.4,0.9,0.6,1.3c0.1,0.3,0.2,0.5,0.2,0.8
			c0.1,0.6,0.3,1.2,0.7,1.8c0.3,0.3,0.7,0.5,1.2,0.6c0.2,0,0.4,0,0.5,0c0.7,0,1.4,0.1,2.1,0.1c0.8,0.1,1.6,0.3,2.4,0.5
			c0.5,0.2,0.9,0.4,1.4,0.6c0.3,0.2,0.7,0.3,1,0.5c1.7,0.6,3.5,0.8,5.2,0.5c1.4-0.1,2.7-0.6,3.8-1.4c0.6-0.6,1.1-1.2,1.4-2
			c0.1-0.3,0.3-0.5,0.5-0.8c0.6-1,1.5-1.8,2.7-2.2c0.3-0.1,0.6-0.1,0.8-0.1c0.3,0,0.6,0,0.9,0c0.5,0.1,0.9,0,1.4-0.2
			c0.1,0,0.2-0.1,0.2-0.2c0.4-0.3,0.7-0.7,1-1c0.5-0.5,0.9-1,1.3-1.6c0.3-0.4,0.2-0.5,0-0.8c-0.2-0.5-0.2-1.1-0.2-1.6
			c0-0.8,0.1-1.7,0.2-2.6c0.2-2,0.8-4.1,2.6-5.5c0.2-0.2,0.5-0.3,0.7-0.5c1.3-0.8,2.4-1.2,3.4-2l0.5-0.4c0.5-0.4,0.9-0.9,1.2-1.4
			c0.4-0.6,0.7-1.2,0.9-1.8c0-0.1,0.1-0.2,0.2-0.3c0.7-1.1,1.9-2.2,2.4-3.8c0.2-0.9,0.3-1.9,0.1-2.9c-0.1-0.8-0.2-1.7-0.2-2.5v-0.7
			c0-1.6-0.4-3.1-1.2-4.5c-1-1.5-1.8-3.1-3-4.4c-0.5-0.6-1-1.1-1.5-1.6c-0.8-0.8-1.6-1.6-2.3-2.5c-0.5-0.7-1-1.3-1.4-2.1
			c-0.3-0.5-0.9-1.6-1.5-1.8c-0.6-0.2-1.1,0.5-1.5,1.3c-0.2,0.4-0.4,0.9-0.6,1.1c-0.7,1.4-1.7,2.6-2.9,3.7c-0.5,0.5-1.2,0.9-1.9,1.2
			c-0.5,0-1.1-0.1-1.6-0.3c-0.2-0.1-0.4-0.2-0.5-0.3c-0.8-0.6-1.5-1.4-1.9-2.3c0-0.1-0.1-0.2-0.1-0.4c-0.1-0.3,0.3-0.8,0.2-1.3
			c0-0.1,0-0.2-0.1-0.3c-0.1-0.1-0.2-0.2-0.3-0.2c-0.6-0.2-1.2-0.3-1.9-0.4L53,23.8c-0.6-0.1-1.1-0.4-1.6-0.7
			c-1.3-0.9-2-2.6-2.9-3.8c-0.9-1-1.9-1.9-3.1-2.4c-0.6-0.3-1.2-0.7-1.9-1.1c-0.5-0.2-1-0.5-1.5-0.6c-0.4-0.1-0.9-0.2-1.3-0.2
			c-0.4-0.1-0.9-0.1-1.4,0c-0.3,0.1-0.7,0.2-0.9,0.4c-0.6,0.6-1.1,1.3-1.5,2c-0.7,0.9-1.3,1.8-1.7,2.9c0,0.1-0.1,0.2-0.1,0.3
			c-0.1,0.4-0.2,0.7-0.3,1.1c-0.3,0.5-0.6,1-1.1,1.3L33.5,23c-0.5,0.3-1.1,0.6-1.7,0.7C31.4,23.8,31.1,24,30.9,24.4z"/>
		<path fill="none" stroke="#010101" stroke-width="0.34" stroke-linecap="round" stroke-linejoin="round" d="M29.1,24.5
			c-0.7,1-0.1,2.4,0.3,3.3c0.3,0.7,0.8,1.5-0.2,1.6c-0.7,0.1-1.4,0.3-2,0.7l-1.2,0.7C25,31.4,23.9,32.1,23,33
			c-0.8,0.9-1.4,2-1.8,3.2L21,36.4c-0.6,1.1-1,2.3-1.2,3.6c0,0.6-0.1-0.4-0.1,0.3c0,1.4,0.7,2.6,1.5,3.8C22,45,22.7,46,23.2,47
			c0.2,0.5,0.3,1,0.3,1.6c0,0.5-0.1,0.9-0.2,1.4c-0.1,0.3-0.1,0.5-0.1,0.8c0,0.8,0.1,1.6,0.5,2.4c0.6,1.1,0.9,2.3,0.9,3.5
			c0,0.4-0.1,0.8-0.1,1.2c-0.2,0.7-0.4,1.4-0.6,2.1c-0.2,0.7-0.5,1.6-0.1,2.2c0.2,0.2,0.4,0.4,0.7,0.5c0.3,0.1,0.5,0.2,0.8,0.2
			c1,0.1,2.1,0,3,0.1c1.7,0.2,3.3,0.9,4.7,2c0.1,0.1,0.3,0.2,0.4,0.3c1.6,1.2,2.8,3,3.4,5c0.1,0.3,0.1,0.5,0.2,0.8
			c0,0.7,0.3,1.3,0.6,1.9c0.2,0.2,0.4,0.3,0.6,0.3c0.2,0.1,0.4,0.1,0.7,0.1h0.6c0.7-0.1,1.4-0.1,2.2-0.1c0.8,0,1.6,0.1,2.4,0.4
			c0.5,0.2,0.9,0.4,1.4,0.6c0.3,0.2,0.7,0.4,1,0.5c1.7,0.6,3.5,0.8,5.3,0.6c1.5,0,2.9-0.5,4.1-1.5c0.6-0.7,1.1-1.4,1.3-2.3
			c0.1-0.3,0.3-0.6,0.5-0.9c0.3-0.6,0.8-1,1.3-1.4c0.5-0.4,1.2-0.6,1.8-0.7c0.3,0,0.6,0,0.9,0.1c0.3,0.1,0.7,0.2,1,0.2
			c0.4,0.1,0.9,0.4,1.5,0.1c0.1,0,0.2-0.1,0.3-0.2c0.4-0.4,0.7-0.8,1-1.2c0.5-0.6,1-1.2,1.4-1.8c0.1-0.1,0.2-0.2,0.2-0.4
			c0-0.1,0-0.3,0-0.4c0-0.5,0.1-1.1,0.2-1.6c0.2-0.8,0.4-1.6,0.7-2.5c0.5-2,1.5-3.8,3-5.2l0.7-0.6c1-0.8,1.9-1.7,2.7-2.7
			c0.1-0.1,0.2-0.3,0.3-0.4c0.4-0.5,0.7-1,0.9-1.6c0.2-0.6,0.3-1.3,0.4-1.9c0-0.1,0-0.2,0.1-0.3c0.3-1.2,1.5-2.4,1.8-4
			c0.1-1,0.1-1.9-0.2-2.9c-0.1-0.8-0.3-1.7-0.3-2.5l-0.1-0.7c0-1.6-0.5-3.1-1.3-4.5c-0.9-1.5-1.9-3-3-4.4c-0.5-0.6-1-1.1-1.5-1.6
			c-0.8-0.8-1.6-1.6-2.3-2.5c-0.5-0.7-1-1.4-1.4-2.1c-0.3-0.7-0.7-1.3-1.3-1.8c-0.6-0.3-1.1,0.1-1.6,0.8c-0.3,0.3-0.5,0.7-0.7,1
			c-0.9,1.2-1.7,2.8-2.7,3.7c-0.4,0.3-1,1.1-1.7,1.2c-0.6,0.1-1-0.4-1.3-0.6c-0.2-0.1-0.3-0.2-0.4-0.4c-0.7-0.7-1.3-1.7-1.8-2.2
			c-0.1-0.1-0.1-0.1-0.2-0.2c-0.2-0.1-0.1-0.4-0.4-0.8c-0.1-0.2-0.3-0.3-0.5-0.4c-0.5-0.2-1.3-0.3-1.8-0.4l-0.4-0.1
			c-0.6-0.2-1.1-0.4-1.5-0.8c-1.2-0.9-1.9-2.5-2.8-3.7c-0.9-1.1-2.1-2-3.4-2.6c-0.7-0.4-1.3-0.9-2-1.3c-0.5-0.3-1-0.5-1.5-0.7
			c-0.5-0.1-1-0.1-1.4-0.1c-0.5,0.1-1,0.2-1.4,0.5c-0.3,0.2-0.6,0.5-0.9,0.8c-0.6,0.8-1.1,1.5-1.5,2.4c-0.7,1.1-1.8,1.9-2.1,3
			c0,0.1-0.1,0.2-0.1,0.3c-0.1,0.4-0.2,0.8-0.3,1.2c-0.3,0.6-0.8,1.1-1.3,1.4c0,0-0.1,0.1-0.1,0.1c-0.6,0.3-1.3,0.5-2,0.5
			c-0.2,0-0.4,0.1-0.6,0.2C29.4,24.2,29.2,24.4,29.1,24.5z"/>
		<path fill="none" stroke="#010101" stroke-width="0.34" stroke-linecap="round" stroke-linejoin="round" d="M26.5,25.7
			c-0.6,0.9-0.2,2.1,0.1,2.9c0.2,0.6,0.5,1.3-0.2,1.5c-0.6,0.2-1.1,0.6-1.5,1c-0.3,0.2-0.6,0.5-0.9,0.8c-0.9,0.6-1.7,1.3-2.5,2.1
			c-0.7,0.8-1.3,1.7-1.7,2.7L19.8,37c-0.6,1-1,2-1.2,3.2c0,0.5-0.1-0.1-0.1,0.4c0,1.2,0.4,2.4,1.2,3.3c0.8,0.9,1.5,1.9,2.1,3
			c0.3,0.5,0.4,1.1,0.5,1.6c0,0.5,0,1-0.2,1.5c-0.1,0.3-0.1,0.5-0.1,0.8c0,0.8,0.2,1.7,0.6,2.4c0.7,1.1,1,2.3,1,3.6
			c0,0.4-0.1,0.8-0.2,1.2c-0.2,0.7-0.5,1.4-0.8,2.1c-0.3,0.8-0.6,1.6-0.2,2.3c0.2,0.2,0.4,0.4,0.7,0.5c0.3,0.1,0.6,0.2,0.9,0.2
			c1,0.2,2.2,0,3.2,0.1c1.8,0.2,3.5,0.8,5,1.9l0.4,0.3c1.3,1,2.3,2.2,2.9,3.7c0.2,0.5,0.4,1,0.5,1.4c0.1,0.3,0.1,0.6,0.2,0.8
			c0.1,0.6,0.1,1.5,0.6,1.9c0.2,0.1,0.4,0.2,0.7,0.3c0.2,0,0.5,0,0.7,0l0.6-0.1c0.7-0.2,1.5-0.3,2.3-0.3c1.4-0.1,2.8,0.2,4,1
			c0.3,0.2,0.7,0.4,1.1,0.6c1.7,0.8,3.7,0.7,5.6,0.6c1.7,0.1,3.3-0.5,4.5-1.6c0.6-0.8,1.1-1.6,1.4-2.6c0.1-0.3,0.3-0.7,0.5-0.9
			c0.4-0.6,1-1.1,1.6-1.4c0.7-0.3,1.4-0.5,2.1-0.4c0.4,0.1,0.7,0.2,1,0.3c0.4,0.1,0.7,0.3,1.1,0.5c0.5,0.2,1,0.7,1.7,0.4
			c0.1,0,0.2-0.1,0.3-0.2c0.4-0.4,0.8-0.8,1-1.3c0.5-0.7,1.1-1.3,1.6-1.9c0.2-0.2,0.3-0.4,0.4-0.7c0.2-0.5,0.4-1,0.7-1.5
			c0.4-0.7,0.8-1.5,1.2-2.3c0.8-1.9,2-3.6,3.5-5c0.2-0.2,0.4-0.4,0.6-0.6c0.9-0.9,1.7-2,2.1-3.3c0.1-0.2,0.2-0.3,0.2-0.5
			c0.3-0.6,0.5-1.1,0.6-1.8c0.1-0.7,0-1.3-0.2-2c0-0.1,0-0.2,0-0.3c0-1.3,1.1-2.6,1.2-4.2c0-1-0.2-1.9-0.5-2.8
			c-0.2-0.8-0.3-1.7-0.4-2.5L78,38.1c-0.1-1.6-0.6-3.1-1.5-4.4c-0.9-1.5-2-3-3.2-4.3c-0.5-0.6-1-1.1-1.6-1.6
			c-0.8-0.8-1.6-1.6-2.4-2.4c-0.5-0.6-1-1.3-1.4-2.1c-0.3-0.7-0.7-1.3-1.3-1.8c-0.6-0.4-1.1-0.2-1.8,0.2c-0.3,0.2-0.6,0.5-0.9,0.8
			c-1,1-1.8,2.6-2.7,3.6c-0.3,0.3-1,1.3-1.6,1.3s-0.9-0.6-1.1-0.9c-0.1-0.1-0.2-0.3-0.3-0.5c-0.5-0.8-1-1.8-1.8-2.1
			c-0.1,0-0.2,0-0.3,0c-0.3,0-0.7-0.1-0.9-0.2c-0.2-0.1-0.4-0.2-0.6-0.3c-0.5-0.1-1.3-0.2-1.8-0.4L52.6,23c-0.5-0.2-1-0.4-1.5-0.8
			c-1.2-0.9-1.9-2.3-2.8-3.5c-1.1-1.2-2.4-2.1-3.9-2.8c-0.8-0.4-1.4-1-2.2-1.5c-0.5-0.4-1.1-0.6-1.8-0.7c-0.5-0.1-1.1,0-1.6,0.1
			c-0.6,0.2-1.2,0.5-1.6,1c-0.3,0.4-0.6,0.7-0.8,1.2c-0.5,0.8-0.9,1.8-1.6,2.7c-0.8,1.2-2.2,1.8-2.6,3.1c0,0.1-0.1,0.2-0.1,0.3
			c-0.1,0.5-0.2,0.9-0.3,1.3c-0.3,0.7-0.9,1.2-1.6,1.5l-0.2,0.1c-0.7,0.3-1.5,0.4-2.3,0.3c-0.2,0-0.5,0-0.7,0.1
			C26.8,25.4,26.6,25.5,26.5,25.7z"/>
		<path fill="none" stroke="#010101" stroke-width="0.34" stroke-linecap="round" stroke-linejoin="round" d="M24.8,26.3
			c-0.5,0.8-0.2,1.8-0.1,2.6c0.1,0.6,0.2,1.1-0.2,1.5c-0.3,0.4-0.6,0.9-0.9,1.4c-0.2,0.3-0.4,0.6-0.6,0.8c-0.6,0.7-1.2,1.4-1.8,2.2
			c-0.5,0.7-1,1.5-1.4,2.4l-0.1,0.2c-0.5,0.9-0.9,1.8-1.1,2.7c0,0.3-0.1,0.1-0.1,0.5c-0.1,1.1,0.2,2.1,0.8,2.9c0.7,1,1.6,2,2.2,3.2
			c0.3,0.5,0.5,1.1,0.6,1.7c0,0.5,0,1.1-0.1,1.6C22,50.4,22,50.6,22,50.9c0,0.9,0.2,1.8,0.7,2.5c0.8,1.1,1.2,2.5,1.1,3.9
			c0,0.4-0.1,0.9-0.2,1.3c-0.3,0.8-0.6,1.5-1,2.2c-0.4,0.8-0.7,1.7-0.3,2.4c0.2,0.3,0.4,0.5,0.7,0.6c0.3,0.2,0.6,0.3,0.9,0.3
			c1,0.1,2.1,0.2,3.1,0.1c1.8,0.1,3.6,0.8,5.1,1.9l0.4,0.3c1.3,1,2.3,2.3,2.9,3.9c0.2,0.5,0.3,1,0.4,1.6c0.1,0.3,0.1,0.6,0.1,0.9
			c0.1,0.6,0,1.6,0.6,2c0.6,0.5,0.9,0.2,1.4,0.1l0.6-0.2c0.8-0.3,1.5-0.4,2.3-0.5c0.9-0.1,1.8-0.1,2.6,0.2c0.5,0.2,1,0.5,1.4,0.8
			c0.3,0.2,0.7,0.4,1,0.6c1.7,0.9,3.7,0.7,5.6,0.6c1.8,0,3.5-0.3,4.8-1.7c0.8-0.8,0.9-1.9,1.3-2.9c0.3-1,1-1.7,1.9-2.3
			c0.9-0.5,1.9-0.7,2.8-0.5c0.4,0.1,0.8,0.3,1.1,0.5c0.4,0.2,0.8,0.5,1.1,0.7c0.5,0.3,1,1,1.8,0.7c0.1,0,0.2-0.1,0.3-0.2
			c0.4-0.4,0.8-0.9,1-1.5c0.5-0.8,1-1.5,1.7-2.1c0.2-0.2,0.4-0.4,0.6-0.7c0.3-0.5,0.7-0.9,1.1-1.4c0.5-0.7,1.1-1.4,1.6-2.2
			c1.1-1.8,2.4-3.4,3.9-4.9c0.2-0.2,0.4-0.4,0.6-0.7c1-1.2,1.2-2.4,1.4-4c0-0.2,0.1-0.4,0.1-0.6c0.1-0.7,0.2-1.4,0.2-2
			c-0.1-0.8-0.3-1.5-0.8-2.1c-0.1-0.1-0.1-0.2-0.1-0.4c-0.4-1.4,0.7-2.9,0.6-4.5c-0.1-1-0.4-2-0.8-2.9c-0.2-0.8-0.4-1.7-0.5-2.5
			c0-0.2-0.1-0.5-0.1-0.7c-0.2-1.6-0.7-3.1-1.5-4.5c-0.9-1.6-2-3-3.2-4.4c-0.5-0.6-1-1.1-1.5-1.6c-0.8-0.8-1.6-1.6-2.3-2.5
			c-0.5-0.7-1-1.4-1.3-2.2c-0.3-0.7-0.6-1.3-1.1-1.8c-0.3-0.2-0.6-0.4-0.9-0.5c-0.3,0-0.7,0-1,0.2c-0.4,0.2-0.7,0.4-1,0.7
			c-1,1-1.8,2.6-2.5,3.6c-0.2,0.3-0.8,1.4-1.3,1.4c-0.5,0-0.7-0.9-0.9-1.2c-0.1-0.2-0.1-0.3-0.2-0.5c-0.3-0.9-0.7-2-1.7-2
			c-0.1,0-0.3,0-0.4,0c-0.5,0.2-1,0.3-1.5,0.3c-0.2,0-0.4-0.1-0.7-0.1c-0.6-0.1-1.1-0.2-1.7-0.4l-0.3-0.1c-0.5-0.2-0.9-0.5-1.4-0.9
			c-1-1-1.9-2.2-2.8-3.3C47,16.8,45.6,15.7,44,15c-0.8-0.5-1.5-1.2-2.3-1.7c-0.6-0.4-1.2-0.7-1.9-0.8c-0.6-0.1-1.2,0-1.8,0.3
			c-0.7,0.3-1.3,0.8-1.6,1.5c-0.3,0.5-0.5,1-0.8,1.6c-0.4,1.1-0.9,2.1-1.5,3.1c-0.9,1.2-2.5,1.8-3,3.3c0,0.1-0.1,0.2-0.1,0.4
			c0,0.5-0.1,1-0.3,1.5c-0.4,0.7-1,1.3-1.8,1.6l-0.2,0.1c-0.8,0.3-1.7,0.3-2.5,0.1C25.6,25.8,25.2,25.7,24.8,26.3z"/>
		<path fill="none" stroke="#010101" stroke-width="0.34" stroke-linecap="round" stroke-linejoin="round" d="M17.8,42.8
			c1,1.6,2.9,3.2,3.2,5.1c0,0.8,0,1.7-0.2,2.5c-0.1,0.9,0.2,1.9,0.8,2.6c0.6,0.7,1,1.6,1.2,2.6c0.2,0.9,0.2,1.9-0.1,2.8
			c-0.4,1.4-2.4,3.4-1.5,4.9c0.9,1.6,3.3,1.2,4.8,1.3c1.9,0.1,3.8,0.7,5.4,1.8c1.6,1,2.9,2.6,3.5,4.4c0.3,0.8,0.4,1.7,0.5,2.5
			c0.1,0.6,0,1.7,0.5,2.1c0.5,0.4,1.1,0.1,1.6-0.1c1-0.5,2-0.8,3-1c0.9-0.2,1.8-0.2,2.7,0.1c0.9,0.4,1.8,0.9,2.6,1.5
			c1.8,1,3.9,0.6,5.9,0.7s3.8-0.3,5.2-1.8c1.2-1.3,0.9-3,1.9-4.3c0.5-0.7,1.3-1.2,2.1-1.5c0.8-0.3,1.7-0.3,2.6,0
			c0.9,0.4,1.7,1,2.4,1.6c0.5,0.5,1.1,1.3,1.9,1c0.8-0.3,1.1-1.2,1.5-1.9c0.5-0.9,1.1-1.6,1.8-2.3c1.5-1.4,3-2.6,4.4-4.1
			c1.4-1.5,3-3.1,4.4-4.7c1.4-1.6,1.4-3.2,1.3-5.3c0.1-1,0-1.9-0.1-2.9c-0.2-0.8-0.7-1.6-1.3-2.2c-1.2-1.6,0.1-3.4-0.1-5.1
			c-0.2-1-0.6-2-1-2.9c-0.3-1.1-0.6-2.1-0.7-3.2c-0.7-4.1-3.7-7.6-6.6-10.4c-1.5-1.5-2.9-2.7-3.7-4.7c-0.6-1.4-1.4-2.9-3.1-2.7
			C63,19.6,62,22,61.1,23.4c-0.2,0.3-0.7,1.5-1.2,1.5c-0.5,0-0.6-1.1-0.7-1.5c-0.2-1.1-0.3-2.9-1.8-2.5c-0.9,0.2-1.6,0.9-2.6,1
			c-1,0.2-1.9,0-2.8-0.4c-1.7-0.8-2.9-2.7-4.1-4.2c-1.4-1.6-2.8-2.3-4.6-3.3c-1.6-0.9-2.7-2.7-4.6-2.8c-0.8,0-1.6,0.2-2.2,0.6
			c-0.7,0.4-1.2,1.1-1.5,1.8c-0.8,1.8-1.2,3.9-2.4,5.4c-1,1.3-2.9,1.8-3.5,3.5c-0.1,0.7-0.2,1.4-0.4,2c-0.2,0.4-0.5,0.7-0.8,1
			c-0.3,0.3-0.7,0.5-1.2,0.6c-1,0.3-2.1,0.3-3.1,0c-0.7-0.1-1.2-0.2-1.6,0.4c-0.4,0.6-0.3,1.6-0.4,2.3c-0.1,1.1-0.2,2.1-0.5,3.2
			c-0.5,2.1-1.8,3.6-2.8,5.4C17.6,39.1,16.7,41.1,17.8,42.8z"/>
		<path fill="none" stroke="#010101" stroke-width="0.34" stroke-linecap="round" stroke-linejoin="round" d="M23.2,25.9
			c-0.4,0.7-0.7,1.5-0.8,2.3c-0.3,1.1-0.5,2.3-0.8,3.4c-0.1,0.5-0.3,1-0.5,1.5c-0.4,1.1-1,2.1-1.7,3c-0.3,0.5-0.6,1-0.9,1.5
			c-0.3,0.6-0.6,1.2-0.8,1.9c-0.2,0.5-0.3,1.1-0.3,1.6c0,0.6,0.1,1.1,0.3,1.6c0.2,0.4,0,0.3,0.3,0.6c1.1,1.4,2.5,3,3.1,4.7
			c0,0.1,0.1,0.2,0.1,0.4c0.1,0.8,0.1,1.7,0,2.5c0,0.9,0.3,1.9,0.9,2.6c0.5,0.8,0.9,1.7,1,2.6c0.1,0.9,0,1.9-0.3,2.8
			c0,0.1-0.1,0.2-0.1,0.4c-0.6,1.4-2,3.1-1.1,4.5c1,1.5,3.3,1.2,4.9,1.2l0.8,0.1c1.7,0.2,3.3,0.8,4.6,1.7c0.4,0.2,0.7,0.5,1,0.8
			c1.1,1,1.9,2.2,2.4,3.6c0.1,0.4,0.2,0.8,0.3,1.2c0.1,0.4,0.2,0.9,0.3,1.3c0.1,0.6,0.1,1.6,0.7,2c0.2,0.1,0.5,0.2,0.8,0.2
			c0.3,0,0.5-0.1,0.8-0.2c1-0.4,2-0.7,3-1c0.9-0.2,1.8-0.2,2.7,0l0.4,0.1c0.7,0.4,1.5,0.8,2.2,1.2c0.9,0.5,1.9,0.8,3,0.8
			c1,0,2-0.1,2.9,0c1,0.1,1.9,0,2.9-0.1c1-0.2,1.9-0.6,2.6-1.2c0.5-0.5,0.9-1.1,1.1-1.8c0.2-0.7,0.5-1.4,0.8-2
			c0.1-0.1,0.2-0.3,0.3-0.4c0.4-0.5,0.9-0.9,1.4-1.2c0.5-0.3,1.1-0.5,1.7-0.5c0.6,0,1.2,0.1,1.7,0.4c0.2,0.1,0.5,0.2,0.7,0.4
			c0.6,0.4,1.2,0.7,1.8,1c0.6,0.3,1.1,0.8,1.9,0.5c0.7-0.3,1.1-1.3,1.5-1.9c0.5-0.8,1.1-1.6,1.9-2.3c1.5-1.3,3-2.5,4.3-3.9
			c1.4-1.4,2.9-3,4.4-4.6c0.5-0.5,0.9-1.1,1.1-1.8c0.3-1,0.5-2.1,0.5-3.2c0.1-0.9,0.2-1.8,0.2-2.7c0-0.2-0.1-0.4-0.1-0.7
			c-0.2-0.5-0.5-1-0.8-1.5c-0.3-0.5-0.4-1-0.4-1.5c0-1.1,0.4-2.3,0.2-3.5c-0.3-1-0.7-2-1.2-3c-0.2-0.5-0.4-1-0.5-1.5
			c-0.2-0.6-0.3-1.2-0.5-1.9c-0.2-1-0.5-1.9-0.9-2.8c-0.6-1.4-1.4-2.7-2.4-3.9c-0.9-1.1-1.7-2.3-2.6-3.3c-0.4-0.4-0.7-0.7-1.1-1.1
			c-0.5-0.4-1-0.9-1.4-1.4c-0.4-0.4-0.7-0.9-1-1.4c-0.5-0.7-0.9-1.5-1.2-2.3c-0.5-1.3-1.3-2.5-2.7-2.4c-0.2,0-0.4,0-0.5,0.1
			c-0.7,0.2-1.4,0.6-1.9,1.2c-0.6,0.7-1.1,1.6-1.7,2.3c-0.1,0.1-0.2,0.3-0.3,0.4c-0.2,0.3-0.8,1.2-1.3,1.2c-0.6,0-0.7-1-0.8-1.2
			c-0.1-0.1-0.1-0.3-0.2-0.5c-0.3-0.7-0.6-1.4-1.5-1.4c-0.1,0-0.2,0-0.3,0.1c-0.8,0.3-1.7,0.5-2.5,0.6c-0.9,0-1.9-0.2-2.7-0.7
			c-0.8-0.5-1.6-1.2-2.2-1.9c-0.6-0.7-1.2-1.5-1.8-2.2c-0.9-1-1.9-1.8-3-2.5c-0.4-0.3-0.8-0.5-1.3-0.8c-1.4-0.9-2.7-2.4-4.4-2.5
			c-0.8,0-1.5,0.2-2.1,0.6c-0.6,0.4-1.1,1-1.4,1.7c-0.4,0.9-0.7,1.8-1.1,2.7c-0.3,0.8-0.7,1.6-1.2,2.3c-1,1.3-2.7,1.8-3.3,3.3
			C30,22.1,30,22.3,30,22.4c-0.1,0.5-0.2,0.9-0.4,1.3c-0.4,0.7-1.1,1.3-1.9,1.5c-0.9,0.3-1.9,0.4-2.9,0.2c-0.3-0.1-0.5-0.1-0.8,0
			C23.7,25.5,23.4,25.7,23.2,25.9z"/>
		<path fill="none" stroke="#010101" stroke-width="0.34" stroke-linecap="round" stroke-linejoin="round" d="M23.1,24.2
			c-0.6,0.7-1,1.5-1.3,2.4c-0.4,1.2-0.8,2.4-1.2,3.7c-0.2,0.6-0.3,1.1-0.5,1.7c-0.4,1.2-1.1,2.4-1.9,3.4c-0.4,0.5-0.8,1.1-1.1,1.6
			c-0.4,0.7-0.6,1.4-0.9,2.1c-0.2,0.6-0.3,1.2-0.3,1.8c0,0.6,0.2,1.2,0.5,1.8c0.3,0.5-0.1,0,0.3,0.5c1.3,1.4,2.3,3.1,3,4.8
			c0,0.1,0.1,0.2,0.1,0.4c0.1,0.8,0.2,1.6,0.2,2.5c0.1,0.9,0.5,1.9,1,2.7c0.5,0.8,0.8,1.7,0.8,2.7c0.1,0.9-0.1,1.9-0.4,2.8
			c0,0.1-0.1,0.2-0.1,0.4c-0.6,1.4-2,3.2-0.9,4.5c1,1.3,3.3,1.2,4.9,1.2c0.3,0,0.5,0,0.8,0.1c1.6,0.2,3.2,0.8,4.6,1.7
			c0.4,0.2,0.7,0.5,1,0.8c1.1,1,1.9,2.3,2.3,3.7c0.1,0.4,0.2,0.8,0.3,1.2c0.1,0.4,0.2,0.8,0.3,1.3c0.2,0.6,0.3,1.5,0.8,1.9
			c0.2,0.1,0.5,0.2,0.7,0.2c0.3,0,0.5,0,0.8-0.2c1-0.3,2-0.7,3-0.9c0.9-0.2,1.8-0.3,2.7-0.2c0.1,0,0.2,0,0.4,0.1
			c0.8,0.3,1.6,0.7,2.3,1.2c0.9,0.5,1.9,0.8,2.9,0.8c1,0,2-0.1,2.9-0.1c1,0.1,1.9,0.1,2.9,0c1-0.1,1.9-0.4,2.7-1
			c0.6-0.5,1-1.1,1.3-1.7c0.2-0.7,0.5-1.4,0.8-2.1c0.1-0.1,0.2-0.3,0.3-0.4c0.4-0.5,0.9-0.9,1.5-1.2c0.5-0.3,1.1-0.4,1.7-0.4
			c0.6,0,1.2,0.2,1.7,0.5c0.2,0.1,0.4,0.3,0.7,0.4c0.6,0.4,1.2,0.6,1.9,0.7c0.6,0.1,1.1,0.3,1.8-0.1c0.6-0.6,1.1-1.2,1.5-2
			c0.5-0.9,1.2-1.6,1.9-2.3c1.5-1.3,2.9-2.5,4.3-3.9c1.4-1.4,2.9-3,4.3-4.5c0.5-0.5,0.9-1.1,1.2-1.7c0.4-1,0.7-2.1,0.8-3.1
			c0.2-0.9,0.3-1.7,0.4-2.6c0-0.2,0-0.4,0-0.6c-0.1-0.5-0.2-1-0.4-1.5c-0.2-0.5-0.2-1-0.2-1.5c0.1-1.1,0.1-2.3,0-3.4
			c-0.4-1.1-0.9-2.1-1.4-3.1c-0.2-0.5-0.4-1-0.6-1.6c-0.2-0.7-0.4-1.3-0.6-2c-0.3-1-0.7-2-1.2-3c-0.7-1.5-1.5-2.8-2.5-4.1
			C74.7,29,74,27.7,73,26.6c-0.4-0.4-0.8-0.8-1.2-1.1c-0.6-0.4-1.1-0.9-1.6-1.4c-0.4-0.5-0.7-1-0.9-1.6c-0.4-0.8-0.8-1.7-1.1-2.6
			c-0.5-1.4-1.4-2.4-2.8-2.1c-0.2,0-0.3,0.1-0.5,0.1c-0.7,0.2-1.4,0.7-1.9,1.2c-0.7,0.7-1.2,1.6-1.8,2.2c-0.1,0.1-0.2,0.2-0.4,0.3
			c-0.3,0.2-0.9,0.9-1.5,0.9c-0.5-0.1-0.8-0.8-1-1c-0.1-0.1-0.2-0.2-0.3-0.3c-0.2-0.3-0.4-0.5-0.7-0.7c-0.3-0.1-0.6-0.2-1-0.1
			c-0.1,0-0.2,0-0.3,0c-0.8,0.2-1.7,0.3-2.5,0.3c-0.9-0.1-1.8-0.5-2.6-1c-0.8-0.6-1.6-1.3-2.2-2.1c-0.7-0.7-1.3-1.4-1.9-2.2
			c-0.8-0.9-1.8-1.8-2.8-2.5c-0.4-0.3-0.8-0.5-1.2-0.8c-1.3-0.8-2.6-2.2-4.3-2.2c-0.7,0-1.4,0.3-2,0.7c-0.6,0.4-1.1,1-1.4,1.6
			c-0.4,0.8-0.8,1.7-1.1,2.6c-0.3,0.8-0.7,1.5-1.2,2.1c-0.9,1.2-2.4,1.8-3.1,3.2c-0.1,0.1-0.1,0.3-0.2,0.4c-0.1,0.4-0.3,0.8-0.4,1.2
			c-0.5,0.6-1.1,1.1-1.9,1.4c-0.9,0.3-1.8,0.5-2.7,0.4c-0.3,0-0.5,0-0.8,0.1C23.5,23.9,23.3,24,23.1,24.2z"/>
		<path fill="none" stroke="#010101" stroke-width="0.34" stroke-linecap="round" stroke-linejoin="round" d="M24.2,23.7
			c-0.7,0.7-1.3,1.5-1.7,2.4c-0.6,1.3-1.1,2.6-1.5,4c-0.2,0.6-0.4,1.2-0.5,1.8c-0.4,1.4-1.1,2.7-2.1,3.7c-0.5,0.6-0.9,1.2-1.2,1.8
			c-0.4,0.7-0.7,1.5-0.9,2.4c-0.3,1.4-0.4,2.9,0.5,4c0.5,0.6-0.3-0.2,0.2,0.4c1.3,1.5,2.2,3.1,2.9,5l0.1,0.4
			c0.2,0.8,0.3,1.6,0.5,2.5c0.2,0.9,0.6,1.9,1,2.7c1,1.8,0.7,3.6,0,5.5c0,0.1-0.1,0.2-0.1,0.4c-0.6,1.4-1.9,3.3-0.7,4.6
			c1.2,1.3,3.3,1.1,4.9,1.1l0.8,0.1c1.6,0.2,3.2,0.7,4.6,1.6c0.4,0.2,0.7,0.5,1,0.8c1.1,1,1.8,2.3,2.2,3.7c0.1,0.4,0.2,0.8,0.3,1.2
			c0.1,0.4,0.2,0.9,0.4,1.3c0.1,0.7,0.5,1.4,1,1.9c0.2,0.1,0.5,0.2,0.7,0.2c0.3,0,0.5,0,0.8-0.1c1-0.2,2-0.6,3-0.9
			c0.9-0.3,1.8-0.4,2.7-0.3l0.4,0.1c0.8,0.2,1.6,0.6,2.3,1c0.9,0.5,1.9,0.8,2.9,0.9c1,0.1,2-0.1,2.9-0.1c1,0,2,0.2,3,0.2
			c1,0,2-0.3,2.8-0.8c0.6-0.4,1.1-1,1.5-1.6c0.4-0.7,0.5-1.4,0.9-2.1c0.1-0.1,0.2-0.3,0.3-0.4c0.4-0.5,0.9-1,1.5-1.3
			c0.5-0.3,1.1-0.4,1.7-0.4c0.6,0.1,1.2,0.3,1.6,0.7c0.2,0.1,0.4,0.3,0.6,0.5c0.3,0.2,0.6,0.4,0.9,0.5c0.3,0.1,0.7,0.1,1,0
			c0.6-0.1,1.2-0.3,1.7-0.6c0.6-0.6,1.1-1.3,1.5-2.1c0.6-0.9,1.2-1.7,2-2.4c1.4-1.3,2.9-2.5,4.2-3.8c1.4-1.4,2.9-2.9,4.3-4.4
			c0.5-0.5,0.9-1,1.2-1.6c0.5-0.9,0.8-1.9,1-3c0.2-0.8,0.5-1.7,0.6-2.5c0-0.2,0-0.4,0-0.6c0-0.5,0-1-0.1-1.5c-0.1-0.5-0.1-1-0.1-1.5
			c0.1-1.1,0-2.3-0.2-3.3c-0.5-1.1-1-2.2-1.7-3.3c-0.3-0.5-0.5-1.1-0.7-1.7c-0.2-0.7-0.5-1.4-0.7-2.1c-0.4-1.1-0.8-2.1-1.3-3.2
			c-0.7-1.6-1.6-3.1-2.6-4.5c-1-1.3-1.7-2.7-2.7-3.9c-0.4-0.4-0.8-0.8-1.3-1.2c-0.6-0.4-1.2-0.9-1.6-1.5c-0.4-0.6-0.7-1.2-0.9-1.8
			c-0.3-0.9-0.7-1.8-1-2.8c-0.5-1.5-1.5-2.2-2.9-1.9c-0.2,0-0.3,0.1-0.5,0.1c-0.7,0.3-1.4,0.7-1.9,1.2c-0.6,0.7-1.2,1.4-1.9,2.1
			c-0.1,0.1-0.3,0.2-0.4,0.3c-0.4,0.2-1,0.6-1.6,0.5c-0.5-0.1-0.9-0.7-1.2-0.8c-0.1-0.1-0.2-0.1-0.4-0.2c-0.6-0.3-1.2-0.4-1.8-0.3
			l-0.3,0c-0.8,0.1-1.7,0.1-2.5-0.1c-0.9-0.3-1.7-0.7-2.5-1.3c-0.8-0.6-1.5-1.3-2.2-2.1c-0.7-0.7-1.3-1.4-2-2.1
			c-0.8-0.9-1.6-1.7-2.5-2.5c-0.3-0.3-0.7-0.5-1.1-0.8c-1.3-0.9-2.5-2-4.1-1.9c-0.7,0.1-1.3,0.3-1.9,0.7c-0.6,0.4-1,0.9-1.3,1.5
			c-0.4,0.8-0.8,1.6-1.2,2.4c-0.3,0.7-0.7,1.4-1.2,2.1c-0.8,1.1-2.2,1.9-2.9,3.1c-0.1,0.1-0.1,0.3-0.2,0.4c-0.2,0.4-0.4,0.7-0.6,1.1
			c-0.5,0.6-1.1,1.1-1.8,1.3c-0.8,0.4-1.7,0.6-2.5,0.6C25,23.2,24.6,23.4,24.2,23.7z"/>
		<path fill="none" stroke="#010101" stroke-width="0.34" stroke-linecap="round" stroke-linejoin="round" d="M24.2,22
			c-0.9,0.7-1.6,1.5-2.2,2.5c-0.8,1.4-1.4,2.8-1.9,4.4c-0.2,0.7-0.4,1.3-0.5,2c-0.4,1.5-1.2,2.9-2.3,4.1c-0.5,0.6-1,1.2-1.3,2
			c-0.4,0.8-0.7,1.7-0.9,2.6c-0.3,1.5-0.3,3.2,0.8,4.4c0.6,0.7-0.5-0.4,0.1,0.3c1.3,1.5,2.2,3.2,2.9,5l0.1,0.4
			c0.3,0.8,0.5,1.6,0.7,2.5c0.3,0.9,0.7,1.9,1.1,2.7c0.9,1.9,0.4,3.7-0.3,5.5l-0.2,0.4c-0.6,1.4-1.8,3.3-0.5,4.6
			c1.4,1.3,3.3,1,5,1.1c0.3,0,0.5,0,0.8,0.1c1.7,0.1,3.3,0.7,4.7,1.6c0.4,0.2,0.7,0.5,1,0.8c1.1,1,1.8,2.3,2.1,3.8
			c0.1,0.4,0.2,0.8,0.3,1.2c0.1,0.4,0.3,0.8,0.4,1.2c0.2,0.7,0.6,1.3,1.2,1.8c0.5,0.2,1,0.3,1.5,0.2c1-0.2,2.1-0.5,3.1-0.9
			c0.9-0.3,1.8-0.4,2.7-0.3h0.4c0.8,0.2,1.7,0.5,2.4,1c0.9,0.5,1.9,0.9,2.9,1c1,0.1,2-0.1,3-0.1c1,0,2,0.3,3,0.4
			c1,0.1,2.1-0.1,3-0.6c0.7-0.4,1.3-0.9,1.6-1.6c0.4-0.7,0.6-1.5,1-2.2c0.1-0.1,0.2-0.3,0.3-0.4c0.4-0.5,0.9-1,1.5-1.3
			c1.5-0.8,2.4-0.2,3.4,0.6l0.6,0.5c0.3,0.2,0.6,0.4,1,0.4c0.4,0,0.7-0.1,1-0.3c0.6-0.3,1.1-0.7,1.6-1.2c0.6-0.7,1.1-1.4,1.5-2.1
			c0.6-0.9,1.3-1.7,2.1-2.4c1.4-1.2,2.9-2.5,4.2-3.8c1.4-1.3,2.9-2.9,4.3-4.4c0.5-0.5,0.9-1,1.3-1.6c0.6-0.9,1-1.8,1.4-2.8
			c0.3-0.8,0.6-1.6,0.8-2.4c0.1-0.2,0.1-0.4,0.1-0.6c0.1-0.5,0.2-1,0.2-1.5c0-0.5,0.1-1,0.1-1.5c0.1-1.1-0.1-2.2-0.5-3.3
			c-0.5-1.2-1.2-2.3-1.9-3.4c-0.3-0.6-0.6-1.1-0.8-1.7c-0.3-0.7-0.6-1.4-0.9-2.2c-0.5-1.1-1-2.2-1.5-3.3c-0.8-1.7-1.7-3.3-2.8-4.7
			c-1.1-1.3-1.7-2.9-2.8-4.2c-0.4-0.5-0.9-0.9-1.4-1.2c-0.7-0.4-1.3-1-1.7-1.6c-0.4-0.6-0.6-1.3-0.8-2c-0.3-1-0.6-2-1-3
			c-0.6-1.5-1.6-2.1-3.1-1.7c-0.2,0-0.3,0.1-0.5,0.2c-0.7,0.3-1.4,0.7-1.9,1.3c-0.6,0.7-1.3,1.4-2.1,2C61.3,19.9,61.1,20,61,20
			c-0.6,0.2-1.2,0.3-1.7,0.2c-0.6-0.1-1-0.5-1.4-0.6c-0.1,0-0.3-0.1-0.5-0.1c-0.7,0-1.3,0.1-2,0.3c-0.1,0-0.2,0-0.3,0
			c-0.9,0.1-1.7-0.1-2.5-0.5c-0.9-0.4-1.7-1-2.4-1.6c-0.8-0.7-1.5-1.4-2.2-2.1c-0.7-0.7-1.4-1.4-2.1-2.1c-0.8-0.9-1.5-1.7-2.3-2.5
			c-0.3-0.3-0.6-0.6-1-0.8c-1.2-0.8-2.5-1.7-4-1.6c-0.6,0.1-1.3,0.3-1.8,0.7c-0.5,0.4-1,0.9-1.3,1.4c-0.5,0.7-0.8,1.5-1.2,2.2
			c-0.3,0.7-0.7,1.3-1.2,2c-0.8,1.1-1.9,1.9-2.8,3c-0.1,0.1-0.2,0.2-0.2,0.3c-0.2,0.3-0.4,0.7-0.6,1c-0.5,0.5-1.1,1-1.7,1.3
			c-0.8,0.4-1.6,0.6-2.4,0.8C25,21.6,24.6,21.7,24.2,22z"/>
		<path fill="none" stroke="#010101" stroke-width="0.34" stroke-linecap="round" stroke-linejoin="round" d="M25.2,21.3
			c-1,0.6-1.9,1.5-2.7,2.5c-1,1.4-1.7,2.9-2.2,4.6c-0.2,0.7-0.4,1.4-0.6,2.2c-0.4,1.7-1.2,3.2-2.5,4.3c-1.3,1.3-2.1,3-2.4,4.8
			c-0.3,1.6-0.2,3.4,1,4.7c0.7,0.8-0.7-0.7,0.1,0.1c1.2,1.5,2.2,3.2,2.8,5l0.1,0.4c0.3,0.8,0.6,1.6,0.9,2.4c0.4,0.9,0.8,1.8,1.2,2.7
			c0.8,1.9,0.1,3.7-0.7,5.5c-0.1,0.1-0.1,0.2-0.1,0.4c-0.6,1.4-1.7,3.3-0.2,4.5c1.4,1.1,3.3,0.9,5,1l0.8,0.1
			c1.6,0.1,3.2,0.7,4.6,1.6c0.4,0.2,0.7,0.5,1,0.8c1,1,1.7,2.3,2,3.7c0.1,0.4,0.2,0.8,0.3,1.2c0.1,0.4,0.3,0.8,0.5,1.2
			c0.3,0.7,0.7,1.2,1.3,1.7c0.4,0.2,0.9,0.3,1.4,0.3c1-0.2,2.1-0.4,3.1-0.8c0.9-0.3,1.8-0.5,2.7-0.6H43c0.9,0.1,1.7,0.4,2.4,0.8
			c0.9,0.5,1.9,0.9,2.9,1c1,0.1,1.9-0.1,2.9-0.1c1,0.1,2.1,0.3,3.1,0.5c1.1,0.2,2.1,0.1,3.1-0.3c0.7-0.3,1.4-0.8,1.8-1.4
			c0.5-0.7,0.6-1.5,1-2.1c0.1-0.1,0.2-0.3,0.3-0.4c0.4-0.6,1-1,1.6-1.3c1.6-0.8,2.4-0.1,3.4,0.8c0.2,0.2,0.4,0.4,0.6,0.5
			c0.1,0.1,0.3,0.2,0.5,0.3c0.2,0.1,0.4,0.1,0.6,0.1c0.2,0,0.4-0.1,0.6-0.1c0.2-0.1,0.3-0.2,0.5-0.4c0.5-0.5,1-1.1,1.5-1.7
			c0.5-0.7,1-1.5,1.5-2.2c0.6-0.9,1.3-1.7,2.1-2.3c1.4-1.2,2.8-2.3,4.1-3.6c1.3-1.3,2.8-2.8,4.2-4.2c0.5-0.5,0.9-1,1.3-1.5
			c0.6-0.8,1.1-1.7,1.6-2.6c0.4-0.8,0.8-1.6,1.1-2.3c0.1-0.2,0.2-0.4,0.2-0.6c0.2-0.5,0.4-1,0.5-1.5c0.1-0.5,0.2-1,0.2-1.4
			c0-1.1-0.2-2.1-0.7-3.1c-0.6-1.2-1.3-2.4-2.1-3.5c-0.4-0.6-0.7-1.2-1-1.8c-0.3-0.7-0.7-1.5-1-2.2c-0.5-1.1-1.1-2.3-1.7-3.4
			c-0.8-1.8-1.8-3.4-2.9-5c-1.1-1.4-1.7-3.1-2.8-4.5c-0.4-0.5-0.9-0.9-1.5-1.3c-0.7-0.4-1.3-1-1.8-1.7c-0.4-0.7-0.6-1.4-0.7-2.1
			c-0.2-1.1-0.5-2.2-0.9-3.2c-0.6-1.6-1.7-1.9-3.1-1.4l-0.5,0.2c-0.7,0.3-1.3,0.7-1.9,1.2c-0.7,0.6-1.3,1.5-2.2,1.8
			c-0.2,0.1-0.3,0.1-0.5,0.1c-0.6,0.1-1.2,0.1-1.9-0.1c-0.5-0.2-1-0.3-1.6-0.4c-0.2,0-0.4,0-0.5,0.1c-0.7,0.2-1.2,0.7-2.1,0.8h-0.3
			c-0.9,0-1.7-0.3-2.4-0.9c-0.8-0.5-1.6-1.1-2.2-1.8c-0.7-0.7-1.4-1.4-2.2-2.1c-0.7-0.7-1.5-1.3-2.1-2c-0.7-0.7-1.3-1.5-2-2.3
			c-0.3-0.3-0.6-0.5-0.9-0.8c-1-0.9-2.4-1.3-3.7-1.2c-0.6,0.1-1.2,0.4-1.7,0.7c-0.5,0.4-0.9,0.8-1.2,1.3c-0.5,0.7-0.8,1.4-1.2,2
			c-0.3,0.6-0.7,1.2-1.1,1.8c-0.8,1-1.6,1.9-2.5,2.8L31,17.8c-0.2,0.3-0.5,0.5-0.8,0.8c-0.5,0.4-1.1,0.8-1.6,1.2
			c-0.7,0.4-1.4,0.7-2.2,1C26,20.8,25.6,21,25.2,21.3z"/>
		<path fill="none" stroke="#010101" stroke-width="0.34" stroke-linecap="round" stroke-linejoin="round" d="M14.9,44.8
			c1.4,1.5,2,3.4,2.8,5.2s1.9,3.7,2.6,5.6c0.8,2.1-0.4,4.1-1.2,6c-0.6,1.5-1.7,3.4,0,4.6c1.7,1.2,3.9,0.8,5.8,1
			c2.1,0.1,4.1,1,5.7,2.4c1.6,1.5,1.6,3.2,2.3,5c0.5,1.6,1.6,3.2,3.4,3.2c2.1-0.1,4-1.5,6.2-1.5c2.1,0,3.4,1.7,5.4,1.9
			c1,0.1,2-0.1,3-0.1c1.1,0.1,2.1,0.4,3.2,0.7c1.8,0.4,4.1,0.1,5.3-1.5c0.4-0.7,0.7-1.5,1-2.3c0.4-0.8,1.1-1.4,1.9-1.8
			c2-1.1,2.7,0.5,4,1.7c1.7,1.4,2.9-1.6,3.6-2.7c1-1.8,2.2-3.4,3.7-4.7c3.4-2.9,6.6-6,9.6-9.3c1.3-1.6,2.5-3.4,3.5-5.3
			c0.6-0.9,1.1-1.9,1.2-3c0-1.1-0.3-2.2-0.9-3.2c-1-2-2.4-3.6-3.3-5.6c-0.9-2-2-4-3-6c-0.8-1.9-1.9-3.7-3.2-5.3
			c-1.2-1.4-1.6-3.3-2.8-4.8c-1-1.3-2.8-1.7-3.6-3.1c-0.3-0.7-0.5-1.6-0.6-2.4c-0.2-1.2-0.4-2.3-0.8-3.5c-0.6-1.7-1.8-1.8-3.3-1.2
			c-0.9,0.4-1.7,0.9-2.5,1.5c-0.8,0.6-1.4,1.5-2.4,1.7c-1.7,0.4-3.2-1.2-4.9-0.3c-0.8,0.4-1.4,1.2-2.3,1.4c-1.1,0.2-2-0.5-2.8-1.2
			c-1.6-1.3-2.8-3-4.3-4.4c-0.7-0.7-1.5-1.3-2.2-2c-0.7-0.7-1.2-1.6-1.8-2.4c-0.5-0.7-1.2-1.2-1.9-1.5c-0.8-0.3-1.6-0.4-2.4-0.3
			c-1.9,0.4-3,2.4-4,4c-1,1.8-2.3,3.3-3.8,4.7c-1.7,1.4-3.6,2.6-5.5,3.6c-3.9,2-5.5,5.7-6.3,9.9c-0.3,1.8-1.3,3.5-2.7,4.7
			c-1.4,1.4-2.3,3.3-2.6,5.3C13.4,41.5,13.6,43.4,14.9,44.8L14.9,44.8z"/>
		<path fill="none" stroke="#010101" stroke-width="0.34" stroke-linecap="round" stroke-linejoin="round" d="M25.1,19.4
			c-1.5,0.8-2.8,2.1-3.7,3.5c-0.5,0.8-0.9,1.7-1.2,2.6c-0.4,1-0.8,2.1-1.1,3.1c-0.1,0.3-0.2,0.6-0.3,0.9c-0.4,1.6-1.2,3.1-2.3,4.3
			l-0.4,0.5c-1.3,1.5-2.1,3.3-2.4,5.3v0.2c-0.3,1.8-0.2,3.8,1,5.2l0.1,0.2c0.5,0.6-0.9-1-0.1-0.1c1.2,1.5,2.2,3.3,2.8,5.1
			c0.7,1.8,1.5,3.5,2.2,5.2c0.1,0.1,0.1,0.3,0.2,0.4c0.3,0.8,0.4,1.7,0.2,2.5c-0.2,1.1-0.6,2.1-1,3.1l-0.2,0.4
			c-0.6,1.5-1.5,3.5,0,4.7c1.5,1.2,3.8,1,5.7,1.2c0.1,0,0.3,0,0.4,0c1.9,0.2,3.8,1,5.2,2.3c1.5,1.4,1.6,3.1,2.3,5
			c0.1,0.2,0.2,0.5,0.3,0.7c0.6,1.4,1.6,2.5,3.1,2.3l0.4,0c1.9-0.3,3.8-1.4,5.7-1.4c2-0.1,3.4,1.4,5.3,1.6c1,0.1,1.9-0.1,2.9,0
			c1.1,0.2,2.2,0.4,3.3,0.7c0.8,0.2,1.6,0.2,2.3,0.2c0.8,0,1.6-0.2,2.3-0.7c0.3-0.2,0.6-0.4,0.8-0.6c0.3-0.4,0.6-0.8,0.8-1.3
			c0.1-0.3,0.3-0.6,0.5-0.8c0.5-0.7,1.2-1.3,2-1.7c0.5-0.3,1-0.4,1.6-0.4c1,0.1,1.7,0.8,2.6,1.3c0.3,0.2,0.6,0.2,0.9,0.1
			c1.1-0.3,2-2.3,2.6-3.3l0.4-0.7c1-1.5,2.2-2.9,3.5-4c3.4-2.8,6.6-5.9,9.4-9.3c1.3-1.7,2.4-3.5,3.3-5.4l0.2-0.4
			c0.5-0.8,0.7-1.7,0.8-2.6c0-1.1-0.4-2.2-1-3.1c-0.5-0.9-1.1-1.8-1.6-2.6c-0.6-0.9-1.1-1.9-1.6-2.9c-0.8-1.8-1.9-3.3-2.8-5L80.2,35
			c-0.8-1.7-1.7-3.3-2.7-4.9c-0.1-0.1-0.2-0.3-0.3-0.4c-1.1-1.5-1.6-3.3-2.7-4.8c-0.7-0.8-1.5-1.5-2.4-2.1c-0.4-0.3-0.7-0.7-0.9-1.1
			c-0.4-0.7-0.6-1.5-0.7-2.3c-0.1-0.7-0.2-1.3-0.3-1.9c-0.1-0.5-0.2-1-0.5-1.4c-0.6-1.4-1.8-1.6-3.3-1.1c-0.8,0.3-1.5,0.7-2.2,1.1
			c-0.1,0.1-0.2,0.1-0.3,0.2c-0.8,0.6-1.4,1.4-2.4,1.7c-0.8,0.2-1.7,0.1-2.5-0.1c-0.8-0.2-1.6-0.2-2.3,0c-0.1,0.1-0.3,0.1-0.4,0.2
			c-0.6,0.5-1.3,0.8-2,1c-0.4,0.1-0.7,0.1-1.1,0c-0.7-0.2-1.3-0.6-1.8-1c-0.8-0.7-1.6-1.5-2.3-2.3c-0.7-0.7-1.3-1.4-2-2.1
			c-0.7-0.6-1.4-1.3-2.1-2.1c-0.6-0.8-1.1-1.7-1.7-2.5c-0.3-0.4-0.7-0.6-1.1-0.9c-1-0.6-2.2-0.8-3.4-0.6C37,8,35.6,9.9,34.6,11.3
			l-1.1,1.6c-0.7,1.2-1.6,2.3-2.7,3.1c-0.1,0.1-0.3,0.2-0.5,0.3C28.7,17.5,26.9,18.4,25.1,19.4z"/>
		<path fill="none" stroke="#010101" stroke-width="0.34" stroke-linecap="round" stroke-linejoin="round" d="M25,18.2
			c-1.5,0.9-2.7,2.2-3.6,3.8c-0.4,0.9-0.8,1.8-1.1,2.7c-0.4,1.1-0.8,2.2-1.2,3.3l-0.3,0.9c-0.6,1.6-1.4,3.2-2.4,4.5L16.1,34
			c-1.2,1.7-1.9,3.6-2.3,5.6c0,0.1,0,0.1,0,0.2c-0.3,1.9-0.4,3.9,0.7,5.5c0,0.1,0.1,0.1,0.1,0.2c0.5,0.7-0.8-1.1-0.1-0.1
			c1.2,1.6,2.1,3.3,2.9,5.2c0.7,1.8,1.2,3.6,1.9,5.5l0.2,0.4c0.3,0.8,0.4,1.7,0.3,2.6c-0.2,1.1-0.5,2.2-1,3.2l-0.2,0.5
			c-0.5,1.6-1.4,3.6,0.1,4.9c1.4,1.3,3.7,1.2,5.5,1.4l0.4,0c1.9,0.2,3.8,1,5.2,2.3c1.4,1.4,1.6,3.2,2.2,5.1c0.1,0.2,0.2,0.5,0.3,0.7
			c0.6,1.5,1.5,2.5,3,2.3c0.1,0,0.2,0,0.4-0.1c1.9-0.4,3.7-1.3,5.6-1.4c1.9-0.1,3.4,1.1,5.3,1.3c0.9,0.1,1.9,0,2.9,0.1
			c1.1,0.2,2.3,0.4,3.4,0.7c0.8,0.2,1.6,0.3,2.4,0.3c0.8,0.1,1.7-0.1,2.5-0.4c0.3-0.2,0.6-0.4,0.8-0.6c0.4-0.4,0.7-0.8,0.9-1.2
			c0.2-0.3,0.4-0.5,0.6-0.8c0.6-0.7,1.4-1.3,2.2-1.7c0.5-0.3,1.1-0.4,1.6-0.4c0.9,0.1,1.8,0.3,2.7,0.6c0.3,0.1,0.5,0,0.8-0.1
			c1-0.6,1.9-2.6,2.6-3.7c0.2-0.2,0.3-0.5,0.5-0.7c1.1-1.5,2.4-2.9,3.8-4.2c3.4-2.9,6.5-6.1,9.3-9.7c1.2-1.7,2.3-3.6,3.1-5.6
			l0.2-0.4c0.4-0.8,0.6-1.8,0.6-2.7c-0.1-1.1-0.5-2.2-1.1-3.1c-0.5-0.9-1.1-1.8-1.6-2.7c-0.5-0.9-1-2-1.4-3c-0.9-1.7-1.9-3.4-3-5
			c-0.1-0.2-0.3-0.5-0.4-0.7c-0.8-1.7-1.6-3.4-2.6-5l-0.3-0.4c-1-1.6-1.5-3.4-2.6-4.9c-0.7-0.8-1.4-1.6-2.2-2.3
			c-0.3-0.3-0.6-0.7-0.9-1.1c-0.4-0.7-0.6-1.5-0.8-2.3c-0.1-0.6-0.2-1.3-0.2-2c0-0.5-0.2-1-0.5-1.4c-0.8-1.2-2.1-1.5-3.5-1
			c-0.8,0.2-1.5,0.6-2.2,1L64,15c-0.8,0.6-1.6,1.2-2.5,1.7c-0.8,0.3-1.6,0.3-2.4,0.2c-0.8-0.1-1.6-0.1-2.4,0.1
			c-0.1,0-0.3,0.1-0.4,0.2c-0.6,0.4-1.3,0.7-2,0.9C54,18,53.6,18,53.2,18c-0.7-0.2-1.3-0.5-1.8-1c-0.8-0.7-1.5-1.5-2.2-2.4
			c-0.6-0.8-1.3-1.5-2-2.2c-0.7-0.7-1.4-1.4-1.9-2.2c-0.5-0.9-1-1.8-1.7-2.6C43.4,7.3,43,7,42.5,6.8c-1.1-0.5-2.3-0.6-3.4-0.4
			c-1.9,0.4-3.3,2.1-4.4,3.6c-0.4,0.5-0.8,1.1-1.1,1.6c-0.7,1.3-1.6,2.4-2.7,3.3c-0.2,0.1-0.3,0.2-0.5,0.3
			C28.6,16.3,26.8,17.1,25,18.2z"/>
		<path fill="none" stroke="#010101" stroke-width="0.34" stroke-linecap="round" stroke-linejoin="round" d="M24,17.8
			c-1.6,1-2.8,2.3-3.5,4c-0.4,0.9-0.7,1.9-1.1,2.8c-0.4,1.1-0.9,2.2-1.3,3.3c-0.1,0.3-0.2,0.6-0.4,0.9c-0.7,1.6-1.6,3.1-2.5,4.6
			l-0.3,0.5c-1.1,1.8-1.8,3.7-2.2,5.7c0,0.1,0,0.1,0,0.2c-0.3,1.9-0.5,3.9,0.5,5.6c0,0.1,0.1,0.1,0.1,0.2c0.5,0.8-0.7-1.1-0.1-0.1
			c1.2,1.6,2.2,3.3,3,5.1c0.8,1.8,1.1,3.7,1.8,5.5l0.2,0.4c0.3,0.8,0.5,1.7,0.5,2.6c-0.2,1.1-0.5,2.1-0.9,3.2
			c-0.1,0.1-0.1,0.3-0.1,0.5c-0.5,1.6-1.2,3.6,0.1,4.9c1.4,1.3,3.7,1.4,5.6,1.6l0.4,0c2,0.2,3.9,1,5.3,2.3c1.4,1.4,1.7,3.2,2.3,5
			c0.1,0.2,0.2,0.5,0.3,0.7c0.6,1.5,1.5,2.5,3.1,2.2l0.4-0.1c1.9-0.5,3.8-1.3,5.7-1.4c2-0.1,3.5,0.8,5.5,1c1,0.1,1.9,0.1,2.9,0.2
			c1.2,0.2,2.4,0.4,3.6,0.7c0.9,0.2,1.7,0.3,2.6,0.4c0.9,0.2,1.8,0.1,2.6-0.2c0.3-0.1,0.7-0.3,0.9-0.5c0.4-0.4,0.8-0.8,1.1-1.2
			c0.2-0.3,0.5-0.5,0.7-0.8c0.7-0.7,1.5-1.2,2.4-1.6c0.5-0.3,1.1-0.4,1.7-0.5c1.2-0.2,2.1,0,2.9-0.1c0.3,0,0.6-0.2,0.8-0.4
			c0.9-0.9,1.8-2.7,2.6-3.9c0.2-0.2,0.3-0.5,0.5-0.7c1.2-1.5,2.6-2.9,4.1-4.1c3.4-3,6.8-6,9.4-9.7c1.2-1.7,2.3-3.6,3-5.6l0.1-0.4
			c0.3-0.9,0.5-1.8,0.4-2.7c-0.2-1.1-0.6-2.1-1.2-3C87,44,86.5,43.2,86,42.3c-0.5-0.9-0.9-1.9-1.3-2.9c-0.8-1.8-2.2-3.1-3.3-4.7
			c-0.1-0.2-0.3-0.4-0.4-0.7c-1-1.6-1.8-3.3-2.6-4.9l-0.2-0.4c-0.9-1.6-1.6-3.3-2.6-4.9c-0.6-0.9-1.3-1.7-2.1-2.4
			c-0.3-0.4-0.6-0.7-0.9-1.1c-0.4-0.7-0.7-1.4-0.9-2.2c-0.2-0.6-0.2-1.3-0.2-1.9c0-0.3,0-0.5-0.1-0.7c-0.1-0.2-0.2-0.5-0.4-0.6
			c-0.5-0.5-1.1-0.8-1.7-1c-0.7-0.2-1.4-0.1-2,0.1c-0.8,0.2-1.6,0.4-2.4,0.8l-0.3,0.2c-0.9,0.5-1.6,1.2-2.5,1.6
			c-0.8,0.3-1.6,0.5-2.5,0.4c-0.8-0.1-1.6,0-2.4,0.1c-0.1,0-0.3,0.1-0.4,0.1c-0.7,0.3-1.4,0.6-2.1,0.8c-0.5,0.1-1.1,0.1-1.6-0.1
			c-0.5-0.1-1-0.4-1.4-0.7c-0.8-0.7-1.6-1.5-2.2-2.4c-0.7-0.8-1.3-1.5-2-2.2c-0.7-0.7-1.3-1.5-1.9-2.3c-0.4-1-1-1.9-1.6-2.7
			c-0.4-0.3-0.8-0.6-1.2-0.7c-1.2-0.4-2.4-0.5-3.6-0.3c-2,0.4-3.6,1.9-4.8,3.4c-0.4,0.5-0.8,1-1.2,1.6c-0.8,1.3-1.4,2.5-2.7,3.3
			c-0.2,0.1-0.3,0.2-0.5,0.3C27.9,16,25.9,16.7,24,17.8z"/>
		<path fill="none" stroke="#010101" stroke-width="0.34" stroke-linecap="round" stroke-linejoin="round" d="M23.9,17.4
			c-1.6,1-2.8,2.5-3.4,4.2c-0.4,0.9-0.6,1.9-1,2.9c-0.4,1.1-0.9,2.2-1.4,3.3l-0.4,0.9c-0.8,1.7-1.7,3-2.6,4.6
			c-0.1,0.2-0.2,0.4-0.3,0.6c-1,1.8-1.7,3.8-2.1,5.9c0,0.1,0,0.1,0,0.2c-0.4,1.9-0.7,4,0.2,5.7l0.1,0.2c0.5,0.9-0.6-1.1-0.1-0.1
			c1,1.8,2.3,3.2,3.1,5c0.8,1.8,0.8,3.7,1.6,5.6l0.2,0.4c0.4,0.8,0.6,1.7,0.6,2.5c-0.1,1.1-0.4,2.2-0.8,3.2c0,0.1-0.1,0.3-0.1,0.5
			c-0.5,1.6-1.1,3.6,0.2,4.9c1.2,1.3,3.6,1.6,5.4,1.8h0.4c2,0.1,3.8,0.9,5.3,2.3c1.3,1.3,1.7,3.1,2.3,4.9c0.1,0.2,0.2,0.5,0.2,0.7
			c0.6,1.6,1.4,2.5,3,2.1l0.4-0.1c1.8-0.6,3.7-1.1,5.6-1.3c1.9-0.1,3.5,0.5,5.4,0.6c1,0.1,1.9,0.1,2.9,0.3c1.2,0.2,2.5,0.5,3.7,0.7
			c0.9,0.2,1.8,0.3,2.6,0.5c0.9,0.2,1.8,0.3,2.7,0.1c0.4-0.1,0.7-0.3,1-0.5c0.4-0.3,0.9-0.7,1.3-1.1c0.3-0.3,0.5-0.5,0.8-0.7
			c0.8-0.6,1.7-1.1,2.6-1.5c0.6-0.2,1.2-0.4,1.8-0.6c1-0.1,2.1-0.4,3-0.7c0.3-0.1,0.5-0.3,0.7-0.6c0.9-1.1,1.7-2.8,2.6-4.1
			c0.2-0.2,0.4-0.5,0.6-0.7c1.4-1.5,2.8-2.9,4.3-4.2c3.3-3,6.8-5.9,9.3-9.7c1.2-1.8,2.1-3.7,2.9-5.7l0.1-0.4
			c0.3-0.9,0.3-1.8,0.2-2.7c-0.2-1.1-0.7-2.1-1.3-3c-0.6-0.8-1.1-1.7-1.6-2.6c-0.5-0.9-0.7-1.9-1.2-2.9c-0.8-1.8-2.3-2.9-3.4-4.5
			c-0.2-0.2-0.3-0.4-0.4-0.7c-1-1.6-1.9-3.2-2.6-4.9L78,28.1c-0.8-1.6-1.5-3.3-2.4-4.8c-0.6-0.9-1.2-1.7-1.9-2.5
			c-0.3-0.4-0.6-0.7-0.9-1.1c-0.4-0.7-0.8-1.4-1-2.1c-0.2-0.6-0.2-1.3-0.1-1.9c0.1-0.2,0.1-0.5,0-0.7c-0.1-0.2-0.3-0.4-0.5-0.6
			c-0.5-0.4-1.2-0.7-1.8-0.8c-0.7-0.1-1.3-0.1-2,0c-0.8,0.1-1.6,0.3-2.4,0.6l-0.3,0.1c-0.9,0.4-1.7,1.1-2.5,1.6
			c-0.7,0.4-1.6,0.6-2.4,0.7c-0.8,0.1-1.6,0-2.4,0.1c-0.1,0-0.3,0.1-0.4,0.1c-0.7,0.2-1.4,0.5-2.1,0.6c-0.4,0.1-0.7,0.1-1.1,0.1
			c-0.7,0-1.4-0.3-1.9-0.7c-0.8-0.7-1.6-1.5-2.2-2.3c-0.7-0.8-1.3-1.5-2-2.2c-0.7-0.7-1.3-1.5-1.7-2.3c-0.3-1-0.9-1.9-1.6-2.7
			c-0.4-0.3-0.8-0.5-1.3-0.7c-1.2-0.3-2.4-0.3-3.7-0.1c-2,0.5-3.7,1.6-5,3.2c-0.4,0.5-0.9,1-1.2,1.6c-0.9,1.3-1.4,2.5-2.7,3.3
			c-0.2,0.1-0.3,0.2-0.5,0.3C27.8,15.7,25.8,16.2,23.9,17.4z"/>
		<path fill="none" stroke="#010101" stroke-width="0.34" stroke-linecap="round" stroke-linejoin="round" d="M11.7,45.8
			c0-0.1-0.1-0.1-0.1-0.2c-0.8-1.9-0.4-4,0-6c0-0.1,0-0.1,0-0.2c0.4-2.1,1.1-4.2,2-6.2l0.3-0.6c0.8-1.7,1.8-3.1,2.7-4.8l0.5-0.9
			c0.6-1.1,1.1-2.2,1.5-3.4c0.4-1,0.5-2.1,0.9-3.1c0.6-1.8,1.8-3.4,3.4-4.5c1.9-1.3,4.1-1.6,6.2-2.4c0.2-0.1,0.4-0.2,0.6-0.3
			c1.4-0.8,1.9-2.1,2.8-3.5c0.4-0.6,0.8-1.1,1.3-1.6c1.4-1.5,3.3-2.6,5.4-3.1C40.4,5,41.7,5,43,5.2c0.5,0.1,1,0.3,1.4,0.6
			c0.8,0.7,1.1,1.7,1.5,2.8c0.4,0.9,1,1.8,1.7,2.5c0.6,0.7,1.4,1.4,2,2.2c0.6,0.9,1.4,1.7,2.2,2.4c0.6,0.4,1.3,0.6,2,0.6
			c0.4,0,0.7-0.1,1.1-0.1c0.8-0.1,1.5-0.4,2.3-0.5l0.5-0.1c0.8-0.1,1.7,0,2.5-0.2c0.9-0.2,1.7-0.5,2.4-1c0.8-0.6,1.7-1.1,2.6-1.5
			l0.4-0.1c0.8-0.2,1.7-0.4,2.5-0.5c1.4-0.2,2.8,0.1,4,0.8c0.1,0,0.2,0.1,0.3,0.2s0.2,0.2,0.2,0.3c0.1,0.1,0.1,0.2,0.1,0.4
			c0,0.1,0,0.2-0.1,0.4c-0.2,0.6-0.2,1.3,0,1.9c0.3,0.7,0.7,1.4,1.2,2.1c0.3,0.4,0.6,0.8,0.8,1.2c0.6,0.9,1.2,1.8,1.8,2.7
			c0.9,1.6,1.7,3.2,2.4,4.9c0.1,0.1,0.1,0.3,0.2,0.4c0.7,1.8,1.5,3.4,2.6,5c0.2,0.2,0.3,0.4,0.5,0.6c1.2,1.5,2.9,2.6,3.7,4.4
			c0.5,1,0.6,2,1.1,3c0.4,0.9,1,1.8,1.6,2.6c0.7,0.9,1.3,1.9,1.6,3c0.2,0.9,0.2,1.9,0,2.8l-0.1,0.4c-0.7,2.1-1.6,4-2.8,5.9
			c-2.3,4-6,6.8-9.4,10c-1.6,1.5-3.3,2.7-4.7,4.3c-0.2,0.2-0.4,0.5-0.6,0.7c-1,1.4-1.9,2.9-2.6,4.4c-0.2,0.3-0.4,0.6-0.7,0.9
			c-0.9,0.8-1.9,1-3.3,1.4c-0.6,0.2-1.2,0.4-1.8,0.6c-1,0.4-1.9,0.9-2.8,1.4c-0.3,0.2-0.6,0.4-0.9,0.7c-0.5,0.4-0.9,0.7-1.4,1.1
			c-0.3,0.2-0.7,0.4-1.1,0.5c-1,0.1-2,0-2.9-0.3c-0.9-0.2-1.8-0.4-2.8-0.6c-1.3-0.3-2.6-0.5-3.9-0.7c-1-0.2-1.9-0.3-2.9-0.3
			c-1.8-0.3-3.7-0.4-5.5-0.3c-2,0.2-3.9,0.7-5.7,1.3c-0.1,0-0.2,0.1-0.4,0.1c-1.7,0.4-2.5-0.5-3.1-2.1c-0.1-0.2-0.2-0.5-0.2-0.7
			c-0.6-1.8-1.1-3.6-2.4-5c-1.5-1.4-3.4-2.2-5.4-2.3l-0.4,0c-1.9-0.2-4.2-0.5-5.4-2c-1.2-1.4-0.7-3.5-0.2-5.1l0.1-0.5
			c0.4-1.1,0.6-2.2,0.7-3.3c0-0.9-0.3-1.8-0.7-2.6c-0.1-0.1-0.1-0.3-0.2-0.4c-0.8-1.9-0.6-3.9-1.4-5.8C14.1,49,12.5,47.7,11.7,45.8z
			 M11.7,45.8C11.2,44.7,12.1,46.9,11.7,45.8z"/>
		<path fill="none" stroke="#010101" stroke-width="0.34" stroke-linecap="round" stroke-linejoin="round" d="M11.5,46
			c0.7,1.9,2.5,3.1,3.3,4.9c0.8,1.8,0.4,3.9,1.2,5.8c0.5,0.9,0.8,1.9,0.9,3c-0.1,1.1-0.3,2.2-0.6,3.3c-0.4,1.7-1,4.1,0.2,5.6
			c1.2,1.5,3.8,2,5.7,2.2c2,0.1,3.9,0.9,5.4,2.3c1.4,1.4,1.9,3.7,2.6,5.6c0.6,1.9,1.5,2.6,3.4,1.9c4.5-1.6,9.4-1.9,14-0.8
			c2.3,0.3,4.6,0.8,6.8,1.4c0.9,0.4,2,0.6,3,0.5c1-0.3,1.9-0.7,2.7-1.4c1.9-1.1,3.8-2,5.9-2.7c1.8-0.7,3.2-1.3,4-3.1
			c0.7-2,1.9-3.8,3.2-5.3c1.5-1.6,3.4-2.8,4.9-4.3c3.3-3.1,7.1-5.9,9.2-10c1-1.9,2.3-4.1,2.7-6.3c0.1-1,0-2.1-0.3-3.1
			c-0.3-1-0.8-1.9-1.5-2.7c-0.7-0.8-1.2-1.6-1.6-2.5c-0.4-0.9-0.5-2-0.9-2.9c-0.8-1.8-2.6-2.7-3.9-4.2c-1.3-1.7-2.3-3.5-3-5.5
			c-0.7-1.8-1.5-3.6-2.4-5.3c-0.5-1-1-1.9-1.6-2.8c-0.8-1-1.4-2.1-2.1-3.2c-0.1-0.3-0.2-0.6-0.2-1c0-0.3,0.1-0.7,0.2-1
			c0.2-0.7,0.2-0.9-0.5-1.2c-1.8-0.8-4.8-0.8-6.7-0.4c-2.1,0.5-3.4,2.2-5.4,2.8c-1,0.2-2,0.2-2.9,0.2c-1.1,0.1-2.3,0.4-3.4,0.5
			c-2.2,0.2-3-1.5-4.2-2.9c-1.3-1.6-2.8-2.8-3.5-4.8c-0.6-1.7-0.8-3.2-2.9-3.4c-3.9-0.4-8.6,1.3-10.7,4.7c-1,1.6-1.3,3.1-3.3,3.8
			c-2.1,0.7-4.3,0.9-6.2,2.2c-1.6,1.1-2.8,2.7-3.3,4.6c-0.3,1-0.5,2.1-0.8,3.1c-0.4,1.2-1,2.3-1.7,3.3c-1.1,1.9-2.5,3.6-3.3,5.7
			c-0.9,2.2-1.6,4.6-2.1,6.9C11.3,41.6,10.7,43.9,11.5,46C12,47.1,11.1,44.8,11.5,46z"/>
		<path fill="#010101" d="M119,55.5c-1.2-0.4-2.2-1-3.1-2c-0.9-1-1.5-2.2-1.8-3.6c-0.4-1.8-0.6-3.6-0.6-5.5c0-1.8,0.2-3.7,0.6-5.5
			c0.3-1.3,0.9-2.5,1.8-3.6c0.8-0.9,1.9-1.6,3.1-2c2.9-0.8,5.9-0.8,8.8,0c1.2,0.4,2.2,1,3.1,2c0.9,1,1.5,2.2,1.8,3.6
			c0.4,1.8,0.6,3.6,0.6,5.5c0,1.8-0.2,3.7-0.6,5.5c-0.3,1.3-0.9,2.5-1.8,3.6c-0.8,0.9-1.9,1.6-3.1,2C124.9,56.3,121.9,56.3,119,55.5
			z M126.3,52.8c0.8-0.3,1.5-0.8,2-1.4c0.6-0.8,1-1.7,1.2-2.7c0.5-2.7,0.5-5.5,0-8.2c-0.2-1-0.6-1.9-1.2-2.7c-0.5-0.7-1.2-1.2-2-1.4
			c-1.9-0.6-4-0.6-5.9,0c-0.8,0.3-1.5,0.8-2,1.4c-0.6,0.8-1,1.7-1.2,2.7c-0.5,2.7-0.5,5.5,0,8.2c0.2,1,0.6,1.9,1.2,2.7
			c0.5,0.7,1.2,1.2,1.9,1.4C122.3,53.4,124.4,53.4,126.3,52.8L126.3,52.8z"/>
		<path fill="#010101" d="M166.8,53c-0.5,0.8-1.1,1.4-1.9,1.9c-0.8,0.5-1.8,0.8-2.7,1c-1.1,0.2-2.2,0.3-3.3,0.3
			c-1.4,0-2.8-0.2-4.1-0.5c-1.1-0.3-2.1-1-2.9-1.9c-0.8-1-1.4-2.2-1.7-3.5c-0.4-1.8-0.6-3.7-0.6-5.6c0-1.9,0.1-3.7,0.6-5.6
			c0.3-1.3,0.9-2.5,1.7-3.5c0.8-0.9,1.8-1.5,2.9-1.8c1.4-0.4,2.8-0.6,4.2-0.5c1.1,0,2.2,0.1,3.3,0.3c1,0.1,1.9,0.5,2.7,1
			c0.8,0.5,1.4,1.1,1.8,1.9c0.5,1,0.7,2,0.7,3.1h-3.3c0-0.6-0.1-1.2-0.4-1.8c-0.3-0.4-0.7-0.8-1.1-1c-0.5-0.2-1.1-0.4-1.6-0.5
			c-0.6-0.1-1.3-0.1-1.9-0.1c-0.9,0-1.9,0.1-2.8,0.3c-0.7,0.2-1.4,0.6-1.9,1.2c-0.5,0.8-0.9,1.7-1.1,2.6c-0.2,1.4-0.4,2.9-0.3,4.4
			c0,1.5,0.1,2.9,0.3,4.4c0.2,1,0.5,1.9,1.1,2.7c0.5,0.6,1.1,1.1,1.9,1.3c0.9,0.3,1.8,0.4,2.7,0.4c0.6,0,1.2,0,1.9-0.1
			c0.6-0.1,1.1-0.2,1.7-0.5c0.5-0.2,0.9-0.6,1.2-1c0.3-0.5,0.5-1.2,0.5-1.8h3.3C167.5,51,167.3,52,166.8,53z"/>
		<path fill="#010101" d="M189.8,36.3h-7.1v-2.9h17.5v2.9h-7.1v19.5h-3.3V36.3z"/>
		<path fill="#010101" d="M216.7,55.8V33.4h8.6c1.2,0,2.3,0.1,3.4,0.4c0.9,0.2,1.7,0.6,2.4,1.2c0.7,0.6,1.1,1.4,1.4,2.3
			c0.3,1.1,0.5,2.3,0.5,3.4c0,1.2-0.1,2.4-0.5,3.6c-0.3,0.9-0.7,1.7-1.4,2.4c-0.7,0.6-1.5,1.1-2.4,1.3c-1.1,0.3-2.3,0.4-3.4,0.4
			h-5.3v7.4H216.7z M227.3,45.3c0.5-0.1,1-0.4,1.4-0.8c0.4-0.4,0.7-0.9,0.8-1.5c0.2-0.7,0.3-1.5,0.3-2.3c0.1-0.6,0-1.2-0.2-1.8
			c-0.2-0.6-0.5-1.1-0.9-1.6c-1-0.7-2.3-1.1-3.5-1h-5.1v9.2h5C225.8,45.6,226.5,45.5,227.3,45.3z"/>
		<path fill="#010101" d="M250.2,33.4h3.3v22.4h-3.3V33.4z"/>
		<path fill="#010101" d="M272.4,33.4h8.6c1.1,0,2.1,0.1,3.1,0.3c0.8,0.2,1.5,0.5,2.2,1c0.6,0.5,1,1.1,1.3,1.8
			c0.3,0.9,0.5,1.9,0.4,2.8c0.1,1.3-0.3,2.6-1,3.6c-0.8,0.9-1.9,1.5-3.1,1.6c1.4,0.1,2.6,0.7,3.7,1.6c0.9,1,1.3,2.3,1.2,3.7
			c0,1-0.1,1.9-0.4,2.8c-0.3,0.7-0.8,1.4-1.4,1.8c-0.7,0.5-1.6,0.8-2.4,1c-1.1,0.2-2.3,0.3-3.4,0.3h-8.6L272.4,33.4z M283.8,42.4
			c0.3-0.4,0.6-0.8,0.8-1.3c0.2-0.5,0.2-1,0.1-1.5c0-0.4,0-0.9-0.2-1.3c-0.1-0.4-0.4-0.8-0.7-1.1c-0.9-0.6-2-0.9-3.1-0.8h-5.1v6.8
			h5.1C281.9,43.3,283,43,283.8,42.4z M283,52.7c0.5-0.1,1-0.3,1.4-0.6c0.4-0.3,0.6-0.6,0.7-1c0.2-0.5,0.2-1,0.2-1.5
			c0-0.5,0-1-0.2-1.5c-0.2-0.5-0.5-0.9-0.8-1.3c-1.1-0.7-2.3-1-3.6-0.9h-5.1v6.9h5.1C281.6,52.9,282.3,52.9,283,52.7L283,52.7z"/>
	</g>
</g>
</svg>
