<?xml version="1.0" encoding="utf-8"?>
<!-- Generator: Adobe Illustrator 25.4.1, SVG Export Plug-In . SVG Version: 6.00 Build 0)  -->
<svg version="1.1" id="Layer_1" xmlns="http://www.w3.org/2000/svg" xmlns:xlink="http://www.w3.org/1999/xlink" x="0px" y="0px"
	 viewBox="0 0 300 87" enable-background="new 0 0 300 87" xml:space="preserve">
<g>
	<defs>
		<rect id="SVGID_1_" width="300" height="87"/>
	</defs>
	<clipPath id="SVGID_00000010991398970622418630000001852791078445051801_">
		<use xlink:href="#SVGID_1_"  overflow="visible"/>
	</clipPath>
	<g clip-path="url(#SVGID_00000010991398970622418630000001852791078445051801_)">
		<path fill="currentColor" d="M149.2,25.5l6.4,0l0,16.8l0,3.2c0,0.4,0.1,1,0,1.4c0,0.2-0.2,0.5-0.3,0.6l-5.8,0l0-16.3l0-3.6
			c0-0.6,0.1-1.3-0.1-1.8L149.2,25.5z"/>
		<path fill="currentColor" d="M186.9,25.6c1.9-0.3,4.2-0.1,6.1-0.1l0,21.6l-0.5,0.4c-1.6,0.4-4,0.1-5.7,0.1l0-14.9
			C186.8,30.4,186.6,27.9,186.9,25.6z"/>
		<path fill="currentColor" d="M194.9,25.6c1.9-0.3,4.3-0.1,6.2-0.1l6.6,15.7l6.4-15.5c1.8-0.5,4.6-0.2,6.5,0c-0.4,1.3-1.2,3.9-2.2,4.8
			c0.2,0.7-1.1,3.1-1.5,3.9l-5.8,13.2l-6.9,0c-1.3-2.4-2.3-5.1-3.4-7.6l-4.5-10.1C196,28.7,194.9,26.9,194.9,25.6z"/>
		<path fill="currentColor" d="M44.3,25.5l6.1-0.1l0,8.4L61,33.8c-0.2-2-0.1-4.2-0.1-6.2c0-0.5-0.1-1.6,0.1-2l6-0.1l0.1,22.1l-6.2,0
			l0.1-8.3l-10.7-0.1l0,8.4l-6.1-0.1L44.3,25.5z"/>
		<path fill="currentColor" d="M159.9,25.6c1.9-0.3,4.1-0.1,6.1-0.1l-0.1,8.3l10.7,0l0-8.3l6,0l0,21.6l-0.5,0.4c-0.5,0.2-1.2,0.1-1.8,0.1
			l-3.8,0.1l0-6.4c0-0.5,0.1-1.7-0.1-2l-10.5,0l0.1,8.3c-0.4,0.2-1.2,0.2-1.7,0.2l-4.4,0l0-14.7C159.9,30.6,159.6,27.9,159.9,25.6z"
			/>
		<path fill="currentColor" d="M25,25.2c4.5-0.3,9,0.1,12.7,3c2.3,1.8,3,4.1,3.4,6.9C39.2,35,37.3,35,35.5,35c-0.1,0-0.7,0-0.7,0
			c-0.1-0.1-0.2-0.6-0.2-0.8c-0.2-0.8-0.5-1.4-1.2-2c-1.7-1.5-4.8-1.6-7-1.4c-1.9,0.1-3.7,0.5-4.9,2c-1,1.2-1.2,3-1.1,4.5
			c0.1,1.2,0.5,2.6,1.5,3.4c1.5,1.3,4.5,1.6,6.4,1.5c2.3-0.2,4.3-0.4,5.9-2.3l0.9-1.8c2,0,4,0.1,5.9-0.2l0,0
			c0.3,1.3-0.6,3.6-1.3,4.7c-1.8,2.7-4.8,4.2-7.9,4.8c-4.3,0.9-9.3,0.4-13-2c-2.2-1.5-3.9-3.9-4.4-6.5c-0.6-2.9-0.1-6.2,1.6-8.7
			C18.1,27,21.3,25.9,25,25.2z"/>
		<path fill="currentColor" d="M71.6,25.5l20.1,0l0,5.3l-14.1-0.1l0,3.2l13.4-0.2L91,37.1c0,0.5,0.2,1.5,0,1.9l-9.1,0l-4.3,0l0,3.2
			l14-0.1l0.1,5.3l-20.1,0L71.6,25.5z"/>
		<path fill="currentColor" d="M122.3,25.5l4,0c0.4,0,1.3-0.1,1.7,0.1c1,0.4,2.7,2.8,3.4,3.6l8.3,9.6l-0.2-13.3l5.8-0.2
			c-0.3,2.9,0.5,20.9-0.3,21.8l-0.2,0.2c-1,0.3-2.6,0.1-3.7,0c-0.4,0-1.3,0-1.6-0.2c-1-0.5-2.4-2.8-3.2-3.7l-8.2-9.5l0.1,13.5
			c-1.8-0.3-3.9-0.1-5.8-0.1l0-16.4c0-1.3,0.4-4.1-0.1-5.2L122.3,25.5L122.3,25.5z"/>
		<path fill="currentColor" d="M95.7,25.5l9,0c3.2,0,7.3-0.5,10.2,1c1.6,0.8,2.8,2.1,3.3,3.8c0.5,1.8,0.5,4.3-0.4,6
			c-1.1,2-3.2,2.7-5.3,3.3l2.8,3.3c1.3,1.4,2.6,2.7,3.5,4.4l-0.1,0.1l-2.7,0l-3.1,0c-0.3,0-0.9,0-1.2-0.1c-0.5-0.2-1.3-1.3-1.6-1.7
			l-4.9-5.8l-3.4-0.1l0,7.8l-6.1,0L95.7,25.5z M101.5,30.8L101.5,30.8c0.6,1,0.3,3.2,0.2,4.4c2.9,0,6.5,0.4,9.4-0.2l0.2-0.2
			c0.6-0.4,0.9-0.6,1-1.4c0.1-0.6,0-1.3-0.4-1.9C110.6,30.3,103.6,30.9,101.5,30.8z"/>
		<path fill="currentColor" d="M152.3,51.5c2.4-0.3,5.1-0.1,7.5-0.1l14.9,0l20.9,0l12.6,0c1,0.1,2.1,0.3,3.1,0.6c2.9,0.8,6.2,3.7,7.7,6.3
			c1.3,2.4,1.9,6.3,1.3,9c-0.2,1-0.7,1.8-1,2.8c-0.1,0.2-0.1,0.4-0.2,0.6c-1.5,3.2-4.6,5.6-7.9,6.8c-1.1,0.4-2.3,0.4-3.5,0.6
			c-2.1,0.3-4.5,0.1-6.6,0.1l-14.1,0l-23.1,0c-3.8,0-7.9,0.3-11.8-0.1c-1.8-0.2-4.2-1-5.7-2c-3-2-5.2-5.2-5.9-8.6
			c-0.3-1.6-0.8-4.8,0.2-6.3c0.5-0.7,0.6-1.7,1-2.5c1.2-2.4,4.6-5.6,7.2-6.5L152.3,51.5z"/>
		<path fill="#004737" d="M201.3,62.4l0.1,0c0.4-0.1,0.9-0.2,1.3-0.1c0.3,0.1,0.6,0.3,0.9,0.3c0.9,0,2.4-0.5,3.2,0l0.1,1
			c-0.4,0.6-1.9,0.3-2.7,0.6c-0.6,0.2-0.8,1.1-1,1.7c0.6,0.7,0.4,2.3,0.4,3.2c-0.6,0.1-1.3,0-2,0C201.4,67,201.9,64.4,201.3,62.4
			L201.3,62.4z"/>
		<path fill="#004737" d="M162.6,59.6l0.7,0c0.1,0,0.4,0.1,0.4,0.1c0.1,0.2,0,1,0.1,1.3l0,4.6c0,0.5-0.1,1.2,0.2,1.6
			c0.5,0.1,0.7,0.2,1.1,0.5c0,0.6,0.1,0.7-0.3,1.2l-1,0.1c-0.5-0.1-0.9-0.3-1.3-0.5c-0.2-0.2-0.4-0.5-0.5-0.8
			c-0.3-0.9-0.4-7.4,0-8.1L162.6,59.6z"/>
		<path fill="#004737" d="M190.8,68.7l-0.1,0.4c-1.3,0-2.6,0.2-3.7-0.6c-0.7-1.1-0.5-3.1-0.5-4.3c-0.6,0-1.7,0.1-2.3-0.3l-0.1-1.3
			c0.5-0.4,1.3-0.3,1.9-0.3c0.7-0.5,0.2-1.1,0.7-1.8l1.2,0c0.7,0.5,0.2,1.1,0.7,1.8c0.8,0,1.6,0,2.4,0.1c0.2,0.5,0.2,0.6,0,1.2
			l-0.1,0.3l-2.7,0.1c0,1.1-0.1,2.3,0.1,3.4l2.2,0.1l0.2,0.5L190.8,68.7z"/>
		<path fill="#004737" d="M166.2,62.4c0.7,0,1.4-0.2,2,0.1l0,3.2c0.1,0.7,0.2,1.1,0.7,1.5c0.4,0.3,1.1,0.4,1.6,0.3
			c2.1-0.3,1.6-2.4,1.6-4c0-0.4-0.1-0.8,0.2-1.2c0.6,0,1.2-0.2,1.7,0.1c0.1,0.6,0,1-0.3,1.5c0.1,0.2,0.3,0.4,0.3,0.6
			c0.2,0.8,0.2,4-0.2,4.6c-0.8,0.1-1.3-0.3-2.1-0.3c-0.5,0-1,0.3-1.5,0.4c-1.1,0.1-2.1,0-3-0.7C165.7,67.1,166.3,64.2,166.2,62.4z"
			/>
		<path fill="#004737" d="M160.2,66.8c0,0.3,0.1,0.4,0,0.6c-0.4,0.8-1.1,1.4-2,1.6c-1.3,0.4-3.1,0.4-4.3-0.3c-0.6-0.3-1.3-1-1.5-1.7
			c-0.3-0.9-0.3-2.2,0.2-3c0.5-0.9,1.4-1.5,2.4-1.7c1.3-0.3,2.9-0.2,4,0.5c0.4,0.3,0.9,0.7,1,1.2c0.3,0.5,0.4,0.5,0.3,1.1
			c-0.5,0.1-1,0.2-1.6,0.1c-0.7-0.7-1.2-1.3-2.3-1.3c-0.6,0-1.3,0.1-1.8,0.5c-0.3,0.3-0.5,0.9-0.5,1.4c0,0.4,0.1,0.8,0.4,1.1
			c0.5,0.4,1,0.6,1.7,0.6c1.3,0,1.4-0.8,2.3-1.2c0.5-0.2,1-0.1,1.5-0.1L160.2,66.8z"/>
		<path fill="#004737" d="M175.9,65.2c0.1-0.7,0.1-1.6,0.7-2.1c1-0.9,2.4-1,3.6-0.9c1,0,2.2,0.1,3,0.9c0.4,0.4,0.5,0.6,0.5,1.2
			l0.1,0.6l-0.4,0.4l0.5,0.3l-0.3,0.5c0.4,0.5,0.4,0.7,0.3,1.3c-0.1,0.5-0.4,0.9-0.8,1.1c-1.1,0.8-3.4,0.8-4.7,0.6
			c-1.5-0.3-1.8-0.7-2.8-1.7c0.1-0.1,0.4-0.4,0.5-0.4c0.5-0.2,2.8,0.8,3.7,0.9c0.8,0,1.6,0,2.2-0.5l0-0.4c-1.2-0.6-2.9-0.4-4.3-0.8
			C177,66,176.4,65.6,175.9,65.2z"/>
		<path fill="currentColor" d="M183.5,66.1c-1-1.8-4.3-0.5-5.6-1.7l0-0.3c0.1-0.1,0.1-0.1,0.2-0.2c0.5-0.3,2.4-0.3,3-0.1
			c0.4,0.1,0.8,0.5,1.2,0.6c0.5,0.1,0.9,0.1,1.3-0.1l0.1,0.6l-0.4,0.4l0.5,0.3L183.5,66.1z"/>
		<path fill="#004737" d="M191.9,63.9c1.7-1.3,2.7-2,5-1.7c1.1,0.2,1.9,0.6,2.6,1.5c0.5,0.6,0.5,1.2,0.5,2l-0.4,0.6l0.2,0.7
			c0,0.5,0.1,0.5-0.2,0.9c-0.8,1-1.7,1.2-2.9,1.3c-1.5,0.1-2.6-0.2-4-0.7c0-0.2-0.1-0.5-0.2-0.7C191.5,66.5,191.9,65.3,191.9,63.9z"
			/>
		<path fill="currentColor" d="M194.9,63.8l0.1,0c0.4,0,1-0.1,1.4,0c0.6,0.1,1,0.3,1.3,0.8l-0.3,0.3l-1.1,0.1c-0.6,0-1.8,0.1-2.3-0.3
			C194.2,64.1,194.5,64.1,194.9,63.8z"/>
		<path fill="currentColor" d="M199.7,67c-0.9-0.5-3.3,0.9-4.6,0.6c-0.6-0.2-1-0.5-1.3-1l0.3-0.3l5.4,0L199.7,67z"/>
		<path fill="currentColor" d="M257.3,9.3l0.4,0c7.2-0.2,14.3,2.6,19.6,7.3c1.1,0.9,1.8,2.1,2.8,3.1c0.8,0.7,1.2,1.7,1.7,2.6
			c1,1.7,1.9,3.4,2.6,5.3c0.2,0.5,0.2,1,0.4,1.4c0.2,0.5,0.5,0.9,0.6,1.5c0.1,0.5,0.1,1,0.2,1.5c0.2,1.4,0.4,2.6,0.4,4
			c0.2,7.2-2.6,14.2-7.6,19.4c-5,5.2-11.9,8.3-19.2,8.4c-4.6,0-8.6-0.9-12.7-2.9c-1.3-0.6-2.6-1.2-3.8-2.1c-4.5-3.3-8-7.7-10-12.9
			c-0.7-1.9-1.1-3.9-1.5-5.8c-0.1-0.6-0.4-1.3-0.5-1.9c-0.4-3,0.4-6.1,1.3-8.9c0.3-0.8,0.3-1.7,0.6-2.5c0.3-0.8,0.8-1.6,1.2-2.3
			c0.5-0.9,0.8-1.8,1.3-2.7c0.4-0.7,1.1-1.4,1.6-2.1c1.2-1.6,2.6-2.8,4.1-4.1c0.6-0.6,1.2-1.2,1.9-1.8
			C247.2,10.8,252.1,9.9,257.3,9.3z"/>
		<path fill="#004737" d="M246.5,27.2l4.6,0l0,12.2c0,1.9,0.2,3.9,0,5.7c0,0.3-0.2,0.5-0.3,0.7l-4.1,0
			C246.7,43.7,247.1,28.1,246.5,27.2z"/>
		<path fill="#004737" d="M253.4,27.2l19.5,0l0,3.8l-7.4,0l0,5.4c0,0.6,0.1,1.5-0.2,2l-0.2,0.3c0.5,0.6,0.3,1.3,0.3,2l0,5.1l-4.4,0
			l0-14.8l-7.5,0C253.7,30.1,253.9,28,253.4,27.2L253.4,27.2z"/>
	</g>
</g>
</svg>
