<svg width="300" height="87" viewBox="0 0 300 87" fill="none" xmlns="http://www.w3.org/2000/svg">
<g clip-path="url(#clip0_1769_5383)">
<path d="M80.2812 77.0825V70.4531H81.6042V73.0631H84.204V70.4531H85.5327V77.0825H84.204V74.1825H81.6042V77.0825H80.2812Z" fill="#004280"/>
<path d="M92.8357 77.0825H91.392L90.8168 75.5745H88.1882L87.6475 77.0825H86.2383L88.7979 70.4531H90.2013L92.8357 77.0825ZM90.3911 74.4609L89.4823 72.0017L88.5966 74.4609H90.3911Z" fill="#004280"/>
<path d="M93.5625 70.4531H94.8912V75.9747H97.468V70.4531H98.7967V75.9689H99.3431V78.5267H98.2388V77.0767H93.5625V70.4531Z" fill="#004280"/>
<path d="M100.211 77.0825V70.4531H101.54V77.0825H100.211Z" fill="#004280"/>
<path d="M102.537 73.8116C102.52 73.2316 102.623 72.6516 102.836 72.1122C102.985 71.7758 103.193 71.4684 103.451 71.2016C103.693 70.9464 103.981 70.7434 104.303 70.6042C104.751 70.4244 105.234 70.3316 105.718 70.3432C106.586 70.3026 107.432 70.6332 108.041 71.2538C109.203 72.727 109.203 74.815 108.047 76.294C107.437 76.9146 106.598 77.2394 105.735 77.1988C104.866 77.2394 104.021 76.9146 103.4 76.294C102.796 75.6154 102.485 74.7222 102.537 73.8116ZM103.906 73.7652C103.86 74.38 104.05 74.989 104.423 75.4704C105.085 76.2012 106.207 76.2476 106.931 75.5806C106.966 75.5458 107.006 75.511 107.035 75.4762C107.409 74.9832 107.593 74.3684 107.541 73.7478C107.587 73.1388 107.409 72.5356 107.046 72.0484C106.339 71.3176 105.177 71.3002 104.446 72.0136C104.429 72.0252 104.418 72.0426 104.406 72.0542C104.038 72.5414 103.86 73.1504 103.906 73.7652Z" fill="#004280"/>
<path d="M109.957 77.0825V70.4531H111.286V73.0631H113.886V70.4531H115.214V77.0825H113.886V74.1825H111.286V77.0825H109.957Z" fill="#004280"/>
<path d="M122.51 77.0825H121.066L120.491 75.5745H117.862L117.321 77.0825H115.918L118.478 70.4531H119.881L122.51 77.0825ZM120.065 74.4609L119.162 72.0017L118.276 74.4609H120.065Z" fill="#004280"/>
<path d="M123.8 70.4531H128.407V77.0825H127.078V71.5725H125.1V74.4029C125.111 74.9713 125.088 75.5397 125.019 76.1023C124.985 76.3923 124.841 76.6591 124.628 76.8563C124.346 77.0593 123.995 77.1521 123.65 77.1231C123.495 77.1231 123.213 77.1057 122.805 77.0767V76.0443L123.098 76.0501C123.294 76.0675 123.489 76.0327 123.662 75.9341C123.76 75.8587 123.806 75.6731 123.806 75.3773L123.8 74.2405V70.4531Z" fill="#004280"/>
<path d="M129.805 70.4531H131.133V73.1037H132.911C133.572 73.0399 134.228 73.2545 134.728 73.6953C135.096 74.0723 135.298 74.5827 135.292 75.1163C135.303 75.5281 135.183 75.9341 134.953 76.2705C134.763 76.5547 134.492 76.7809 134.176 76.9143C133.768 77.0419 133.336 77.0999 132.911 77.0825H129.805V70.4531ZM131.133 75.9689H132.428C132.715 75.9805 133.003 75.9631 133.29 75.9109C133.457 75.8645 133.612 75.7659 133.722 75.6325C133.848 75.4875 133.917 75.2961 133.912 75.0989C133.929 74.8321 133.808 74.5769 133.584 74.4319C133.239 74.2637 132.853 74.1883 132.474 74.2173H131.122L131.133 75.9689Z" fill="#004280"/>
<path d="M136.387 77.0825V70.4531H137.715V73.0631H140.315V70.4531H141.644V77.0825H140.315V74.1825H137.715V77.0825H136.387Z" fill="#004280"/>
<path d="M143.033 70.4531H144.276V74.8727L146.939 70.4589H148.262V77.0883H147.019V72.7557L144.356 77.0825H143.027L143.033 70.4531Z" fill="#004280"/>
<path d="M149.631 70.4538H150.873V74.8676L153.536 70.4538H154.859V77.0832H153.617V72.7564L150.954 77.0832H149.625L149.631 70.4538ZM153.042 68.8008H153.657C153.64 69.1662 153.49 69.5084 153.231 69.7694C152.668 70.2392 151.851 70.2392 151.287 69.7694C151.028 69.5142 150.873 69.1662 150.862 68.8008H151.477C151.483 68.9864 151.563 69.1604 151.701 69.288C152.041 69.5084 152.484 69.5084 152.823 69.288C152.955 69.1662 153.036 68.9864 153.042 68.8008Z" fill="#004280"/>
<path d="M158.105 70.4531H159.589L161.125 73.8925L162.437 70.4531H163.823L161.603 75.4933C161.419 75.9457 161.171 76.3633 160.861 76.7403C160.613 77.0245 160.257 77.1811 159.889 77.1695C159.578 77.1753 159.273 77.1521 158.968 77.0941V76.0965C159.158 76.1081 159.325 76.1139 159.48 76.1139C159.716 76.1371 159.946 76.0733 160.142 75.9457C160.326 75.7369 160.458 75.4875 160.527 75.2149L158.105 70.4531Z" fill="#004280"/>
<path d="M164.488 77.0825V70.4531H165.817V73.0631H168.417V70.4531H169.745V77.0825H168.417V74.1825H165.817V77.0825H164.488Z" fill="#004280"/>
<path d="M171.082 77.0825V70.4531H172.411V77.0825H171.082Z" fill="#004280"/>
<path d="M173.676 70.4542H176.304C176.696 70.4484 177.081 70.4658 177.466 70.518C177.714 70.5586 177.944 70.6514 178.151 70.7906C178.358 70.9356 178.53 71.127 178.657 71.3474C178.795 71.5852 178.864 71.852 178.858 72.1246C178.858 72.7452 178.496 73.3078 177.932 73.563C178.295 73.6558 178.622 73.8704 178.858 74.1662C179.077 74.4504 179.186 74.8042 179.18 75.1638C179.18 75.4712 179.106 75.7728 178.973 76.0454C178.847 76.318 178.645 76.5558 178.404 76.7298C178.139 76.9096 177.834 77.0198 177.512 77.043C177.294 77.0662 176.759 77.0836 175.913 77.0894H173.676V70.4542ZM175.004 71.5562V73.0874H175.873C176.391 73.0874 176.713 73.0816 176.839 73.0642C177.041 73.0468 177.23 72.9656 177.374 72.8264C177.507 72.6872 177.576 72.5016 177.57 72.3102C177.576 72.1304 177.518 71.9506 177.403 71.8114C177.271 71.6722 177.092 71.591 176.903 71.5794C176.77 71.562 176.391 71.5562 175.769 71.5562H175.004ZM175.004 74.1952V75.97H176.235C176.54 75.9816 176.845 75.9642 177.144 75.9294C177.328 75.9004 177.501 75.8076 177.627 75.6626C177.76 75.506 177.823 75.303 177.811 75.1C177.817 74.9202 177.765 74.7404 177.668 74.5954C177.564 74.4504 177.42 74.346 177.253 74.2938C176.868 74.2126 176.471 74.1778 176.074 74.201H175.004V74.1952Z" fill="#004280"/>
<path d="M180.305 77.0825V70.4531H185.182V71.5725H181.633V73.0399H184.935V74.1593H181.633V75.9631H185.309V77.0825H180.305Z" fill="#004280"/>
<path d="M186.434 77.0837V70.4543H188.562C189.091 70.4311 189.62 70.4659 190.138 70.5529C190.517 70.6515 190.851 70.8835 191.087 71.2025C191.351 71.5795 191.489 72.0319 191.466 72.4959C191.478 72.8497 191.403 73.2035 191.248 73.5225C191.116 73.7835 190.926 74.0039 190.69 74.1779C190.483 74.3287 190.247 74.4331 190 74.4911C189.545 74.5665 189.085 74.5955 188.625 74.5839H187.757V77.0837H186.434ZM187.762 71.5737V73.4529H188.487C188.838 73.4703 189.194 73.4355 189.534 73.3485C189.701 73.2847 189.844 73.1745 189.948 73.0237C190.052 72.8729 190.103 72.6931 190.098 72.5075C190.103 72.2871 190.029 72.0725 189.885 71.9101C189.747 71.7535 189.557 71.6491 189.35 71.6143C189.033 71.5737 188.711 71.5621 188.395 71.5679H187.762V71.5737Z" fill="#004280"/>
<path d="M196.537 74.6479L197.826 75.0597C197.688 75.6919 197.337 76.2603 196.842 76.6721C195.617 77.4957 193.989 77.3391 192.942 76.2951C192.35 75.6165 192.051 74.7291 192.097 73.8301C192.039 72.8963 192.344 71.9741 192.942 71.2607C193.517 70.6459 194.334 70.3095 195.174 70.3443C195.899 70.3153 196.6 70.5705 197.135 71.0635C197.463 71.3999 197.699 71.8233 197.808 72.2873L196.491 72.6063C196.365 71.9393 195.778 71.4695 195.105 71.4927C194.651 71.4753 194.213 71.6725 193.92 72.0205C193.575 72.5193 193.414 73.1283 193.466 73.7373C193.408 74.3695 193.569 75.0017 193.914 75.5295C194.202 75.8775 194.633 76.0747 195.082 76.0631C195.416 76.0689 195.743 75.9471 195.991 75.7267C196.278 75.4251 196.468 75.0539 196.537 74.6479Z" fill="#004280"/>
<path d="M198.982 70.4531H200.225V74.8727L202.888 70.4589H204.211V77.0883H202.968V72.7557L200.305 77.0825H198.977L198.982 70.4531Z" fill="#004280"/>
<path d="M207.048 77.0825V71.5725H205.098V70.4531H210.32V71.5725H208.376V77.0825H207.048Z" fill="#004280"/>
<path d="M211.184 77.0825V70.4531H216.061V71.5725H212.512V73.0399H215.814V74.1593H212.512V75.9631H216.188V77.0825H211.184Z" fill="#004280"/>
<path d="M218.786 77.0825V71.5725H216.836V70.4531H222.059V71.5725H220.115V77.0825H218.786Z" fill="#004280"/>
<path d="M82.7676 82.541L81.5999 84.5826L82.7676 86.6706H81.7782L80.3633 84.5826L81.7782 82.541H82.7676ZM84.5276 82.541L83.3658 84.5826L84.5276 86.6706H83.5326L82.1176 84.5826L83.5326 82.541H84.5276Z" fill="#004280"/>
<path d="M85.5957 80.3535H86.9244V81.9369C86.9129 82.2791 86.9301 82.6213 86.9819 82.9577C87.0337 83.1433 87.1545 83.2999 87.3155 83.3927C87.5628 83.5319 87.8504 83.5957 88.1323 83.5783C88.3854 83.5841 88.6442 83.5493 88.8915 83.4855C89.0986 83.4333 89.2941 83.3405 89.4667 83.2129V80.3535H90.7954V86.9829H89.461V84.3149C89.2079 84.4309 88.9375 84.5237 88.6672 84.5875C88.4141 84.6455 88.161 84.6803 87.9022 84.6803C87.3213 84.7035 86.7461 84.5353 86.2572 84.2105C85.7798 83.8161 85.5324 83.2071 85.5957 82.5865V80.3535Z" fill="#004280"/>
<path d="M92.1602 86.9887V80.3535H97.0378V81.4729H93.4888V82.9403H96.7904V84.0597H93.4888V85.8635H97.1643V86.9829L92.1602 86.9887Z" fill="#004280"/>
<path d="M98.2852 86.9899V80.3547H100.413C100.943 80.3315 101.472 80.3663 101.989 80.4533C102.369 80.5519 102.703 80.7839 102.938 81.1029C103.203 81.4799 103.341 81.9323 103.318 82.3963C103.33 82.7501 103.255 83.1039 103.099 83.4229C102.967 83.6839 102.777 83.9043 102.542 84.0783C102.334 84.2291 102.099 84.3335 101.851 84.3915C101.397 84.4669 100.937 84.4959 100.477 84.4843H99.6081V86.9841L98.2852 86.9899ZM99.6138 81.4799V83.3591H100.339C100.689 83.3765 101.046 83.3417 101.385 83.2547C101.552 83.1909 101.696 83.0807 101.8 82.9299C101.903 82.7791 101.955 82.5993 101.949 82.4137C101.955 82.1933 101.88 81.9787 101.736 81.8163C101.598 81.6597 101.408 81.5553 101.201 81.5205C100.885 81.4799 100.563 81.4683 100.247 81.4741H99.6138V81.4799Z" fill="#004280"/>
<path d="M104.418 86.9887V80.3535H105.747V82.9635H108.347V80.3535H109.675V86.9829H108.347V84.0829H105.747V86.9829H104.418V86.9887Z" fill="#004280"/>
<path d="M111.008 86.9887V80.3535H112.336V86.9829H111.008V86.9887Z" fill="#004280"/>
<path d="M113.666 80.3535H118.118V81.4671H114.989V86.9829H113.66L113.666 80.3535Z" fill="#004280"/>
<path d="M118.766 86.9887V80.3535H120.094V86.9829H118.766V86.9887Z" fill="#004280"/>
<path d="M121.367 80.3546H123.996C124.387 80.3488 124.772 80.3662 125.158 80.4184C125.405 80.459 125.635 80.5518 125.842 80.691C126.049 80.836 126.222 81.0274 126.348 81.2478C126.486 81.4856 126.555 81.7524 126.55 82.025C126.55 82.6456 126.187 83.2082 125.624 83.4634C125.986 83.5562 126.314 83.7708 126.55 84.0666C126.768 84.3508 126.877 84.7046 126.872 85.0642C126.872 85.3716 126.797 85.6732 126.665 85.9458C126.538 86.2184 126.337 86.4562 126.095 86.6302C125.831 86.81 125.526 86.9202 125.204 86.9434C124.985 86.9666 124.45 86.984 123.605 86.9898H121.367V80.3546ZM122.69 81.4566V82.9878H123.559C124.076 82.9878 124.398 82.982 124.525 82.9646C124.726 82.9472 124.916 82.866 125.06 82.7268C125.192 82.5876 125.267 82.402 125.255 82.2106C125.261 82.0308 125.204 81.851 125.089 81.7118C124.956 81.5726 124.778 81.4914 124.588 81.4798C124.456 81.4624 124.076 81.4566 123.455 81.4566H122.69ZM122.69 84.0956V85.8704H123.921C124.226 85.882 124.531 85.8646 124.83 85.8298C125.014 85.8008 125.186 85.708 125.313 85.563C125.445 85.4064 125.509 85.2034 125.497 85.0004C125.503 84.8206 125.451 84.6466 125.353 84.4958C125.25 84.3508 125.106 84.2464 124.939 84.1942C124.554 84.113 124.157 84.0782 123.76 84.1014H122.69V84.0956Z" fill="#004280"/>
<path d="M131.854 84.5482L133.142 84.96C132.998 85.5922 132.653 86.1606 132.158 86.5724C130.933 87.396 129.306 87.2394 128.259 86.1954C127.666 85.5168 127.367 84.6294 127.413 83.7304C127.356 82.7966 127.66 81.8744 128.259 81.161C128.834 80.5462 129.651 80.2098 130.49 80.2446C131.215 80.2156 131.917 80.4708 132.452 80.9638C132.78 81.3002 133.015 81.7236 133.125 82.1876L131.808 82.5066C131.681 81.8396 131.094 81.3698 130.421 81.393C129.967 81.3756 129.53 81.5728 129.236 81.9208C128.891 82.4196 128.73 83.0286 128.782 83.6376C128.725 84.2698 128.886 84.902 129.231 85.4298C129.518 85.7778 129.95 85.975 130.398 85.9634C130.732 85.9692 131.06 85.8474 131.307 85.627C131.595 85.3254 131.785 84.9542 131.854 84.5482Z" fill="#004280"/>
<path d="M134.309 80.3535H135.637V83.0041H137.415C138.076 82.9403 138.732 83.1549 139.232 83.5957C139.6 83.9727 139.802 84.4831 139.796 85.0167C139.807 85.4285 139.687 85.8345 139.457 86.1709C139.267 86.4609 138.996 86.6813 138.68 86.8147C138.272 86.9423 137.846 87.0003 137.415 86.9829H134.309V80.3535ZM135.637 85.8751H136.931C137.225 85.8867 137.512 85.8635 137.8 85.8113C137.967 85.7649 138.122 85.6663 138.231 85.5329C138.358 85.3879 138.427 85.1965 138.421 84.9993C138.438 84.7325 138.318 84.4773 138.093 84.3323C137.748 84.1641 137.363 84.0887 136.983 84.1177H135.632L135.637 85.8751Z" fill="#004280"/>
<path d="M140.904 80.3544H142.233V83.179C142.457 83.179 142.67 83.0978 142.837 82.947C143.038 82.6222 143.199 82.28 143.32 81.9146C143.464 81.3984 143.751 80.9344 144.148 80.5748C144.562 80.3718 145.023 80.279 145.483 80.3138C145.511 80.3138 145.575 80.3138 145.672 80.308V81.2998L145.483 81.294C145.281 81.2824 145.074 81.3172 144.884 81.3984C144.758 81.468 144.649 81.5782 144.58 81.7058C144.447 81.9842 144.332 82.2684 144.235 82.5584C144.166 82.7614 144.079 82.9528 143.97 83.1326C143.843 83.3182 143.671 83.4632 143.47 83.5676C143.763 83.6488 144.022 83.8286 144.2 84.078C144.442 84.4202 144.654 84.7856 144.833 85.1626L145.73 86.9838H144.171L143.389 85.267C143.377 85.2438 143.349 85.1974 143.314 85.1278C143.297 85.1046 143.245 85.0002 143.147 84.8146C143.05 84.5884 142.906 84.3796 142.728 84.2056C142.578 84.1128 142.405 84.0664 142.227 84.078V86.9838H140.898L140.904 80.3544Z" fill="#004280"/>
<path d="M152.422 86.9888H150.978L150.403 85.4808H147.78L147.239 86.9888H145.824L148.384 80.3594H149.787L152.422 86.9888ZM149.977 84.3614L149.068 81.9022L148.177 84.3614H149.977Z" fill="#004280"/>
<path d="M155.693 80.3535H160.922V86.9829H159.593V81.4613H157.016V86.9771H155.688L155.693 80.3535Z" fill="#004280"/>
<path d="M162.009 83.712C161.992 83.132 162.096 82.552 162.309 82.0126C162.458 81.6762 162.665 81.3688 162.924 81.102C163.166 80.8468 163.453 80.6438 163.775 80.5046C164.224 80.3248 164.707 80.232 165.19 80.2436C166.059 80.203 166.904 80.5336 167.514 81.1542C168.676 82.6274 168.682 84.7154 167.52 86.1944C166.91 86.815 166.07 87.1398 165.208 87.0992C164.339 87.1398 163.493 86.815 162.872 86.1944C162.268 85.5158 161.958 84.6226 162.009 83.712ZM163.378 83.6656C163.338 84.2804 163.522 84.8894 163.896 85.3708C164.558 86.1016 165.679 86.148 166.404 85.481C166.438 85.4462 166.479 85.4114 166.513 85.3708C166.887 84.8778 167.071 84.263 167.025 83.6424C167.071 83.0334 166.893 82.4302 166.53 81.943C165.823 81.2122 164.661 81.1948 163.931 81.9082C163.919 81.9198 163.902 81.9372 163.89 81.9488C163.511 82.4418 163.332 83.0508 163.378 83.6656Z" fill="#004280"/>
<path d="M169.667 80.3535H174.274V86.9829H172.946V81.4729H170.967V84.3033C170.978 84.8717 170.955 85.4401 170.886 86.0027C170.852 86.2927 170.708 86.5595 170.495 86.7567C170.213 86.9597 169.863 87.0525 169.517 87.0235C169.362 87.0235 169.08 87.0061 168.672 86.9771V85.9389L168.971 85.9447C169.167 85.9621 169.362 85.9273 169.535 85.8287C169.632 85.7533 169.678 85.5677 169.678 85.2719L169.673 84.1351L169.667 80.3535Z" fill="#004280"/>
<path d="M175.602 86.9887V80.3535H176.93V86.9829H175.602V86.9887Z" fill="#004280"/>
<path d="M179.673 86.9888V81.4788H177.723V80.3594H182.945V81.4788H181.001V86.9888H179.673Z" fill="#004280"/>
<path d="M183.805 86.9887V80.3535H188.682V81.4729H185.133V82.9403H188.435V84.0597H185.133V85.8635H188.809V86.9829L183.805 86.9887Z" fill="#004280"/>
<path d="M189.262 86.9887L191.511 83.5261L189.475 80.3535H191.028L192.345 82.4821L193.639 80.3535H195.175L193.127 83.5725L195.376 86.9829H193.771L192.316 84.6919L190.855 86.9829L189.262 86.9887Z" fill="#004280"/>
<path d="M196.066 86.9887V80.3535H197.395V82.9635H199.995V80.3535H201.324V86.9829H199.995V84.0829H197.395V86.9829H196.066V86.9887Z" fill="#004280"/>
<path d="M202.652 86.9887V80.3535H203.981V86.9829H202.652V86.9887Z" fill="#004280"/>
<path d="M205.271 80.3544H206.6V83.179C206.824 83.179 207.037 83.0978 207.204 82.947C207.405 82.6222 207.572 82.28 207.687 81.9146C207.831 81.3984 208.119 80.9344 208.515 80.5748C208.93 80.3718 209.39 80.279 209.85 80.3138C209.879 80.3138 209.942 80.3138 210.04 80.308V81.2998L209.85 81.294C209.649 81.2824 209.441 81.3172 209.252 81.3984C209.125 81.468 209.016 81.5782 208.947 81.7058C208.815 81.9842 208.699 82.2684 208.602 82.5584C208.533 82.7614 208.446 82.9528 208.337 83.1326C208.211 83.3182 208.038 83.4632 207.837 83.5676C208.13 83.6488 208.389 83.8286 208.567 84.078C208.809 84.4202 209.022 84.7856 209.2 85.1626L210.097 86.9838H208.538L207.756 85.2728C207.745 85.2496 207.722 85.2032 207.681 85.1336C207.664 85.1104 207.612 85.006 207.515 84.8204C207.417 84.5942 207.273 84.3854 207.095 84.2114C206.945 84.1186 206.773 84.0722 206.594 84.0838V86.9896H205.266L205.271 80.3544Z" fill="#004280"/>
<path d="M216.785 86.9888H215.341L214.766 85.4808H212.137L211.597 86.9888H210.188L212.747 80.3594H214.151L216.785 86.9888ZM214.34 84.3614L213.432 81.9022L212.546 84.3614H214.34Z" fill="#004280"/>
<path d="M217.297 86.6706L218.465 84.629L217.297 82.541H218.286L219.701 84.629L218.286 86.6706H217.297ZM219.051 86.6706L220.219 84.629L219.051 82.541H220.041L221.455 84.629L220.041 86.6706H219.051Z" fill="#004280"/>
<path d="M86.0915 52.5208H84.8203V32.5862H125.037V37.0812H135.811V0.181641H150.064V2.24064H172.076V24.9824H170.805V3.52244H148.793V1.46344H137.076V38.3688H123.766V33.8738H86.0915V52.5208Z" fill="#004280"/>
<path d="M146.711 5.44858C146.457 5.55878 146.222 5.69798 145.992 5.85458C145.301 6.34178 144.789 7.04358 144.531 7.84978C144.323 8.49938 144.295 8.76618 144.295 10.4598V11.266L144.289 11.8344H144.3L144.416 11.8518C144.439 11.8576 144.462 11.8634 144.485 11.8692C144.496 11.875 144.508 11.875 144.513 11.8808C144.536 11.8924 144.554 11.904 144.577 11.9214C144.582 11.9272 144.588 11.9272 144.594 11.933L144.6 11.9388C144.628 11.9678 144.646 11.9968 144.669 12.0258C144.697 12.0838 144.709 12.1534 144.697 12.2172C144.697 12.223 144.697 12.2288 144.692 12.2346C144.686 12.252 144.686 12.2694 144.674 12.2868C144.669 12.2984 144.663 12.31 144.651 12.3216C144.64 12.3448 144.623 12.368 144.6 12.3854C144.571 12.4086 144.542 12.4318 144.513 12.4492L144.502 12.455C144.485 12.4608 144.467 12.4666 144.456 12.4724C144.421 12.484 144.387 12.4898 144.352 12.4956L144.283 12.5072C144.272 12.5072 144.26 12.5072 144.249 12.5014C144.226 12.4898 144.208 12.4782 144.197 12.4608L144.088 12.2752C144.007 12.136 143.938 11.9968 143.869 11.8576C143.835 11.7822 143.8 11.7126 143.771 11.6372L143.766 11.6198C143.731 11.5386 143.697 11.4632 143.668 11.382C143.633 11.2892 143.599 11.2022 143.57 11.1094C143.53 10.9934 143.495 10.8832 143.466 10.7672C143.461 10.744 143.455 10.7208 143.449 10.6976C143.409 10.5468 143.38 10.396 143.357 10.2452C143.346 10.0944 143.34 9.87978 143.334 9.47958C143.328 9.18378 143.334 8.86478 143.34 8.54578C143.346 8.41238 143.351 8.28478 143.357 8.16878C143.374 7.89618 143.397 7.51918 143.409 7.32778C143.455 6.24318 143.254 5.16438 142.828 4.16678C142.788 4.10298 142.736 4.05078 142.713 4.05078C142.69 4.05078 142.638 4.10298 142.598 4.16678C142.172 5.16438 141.977 6.24318 142.017 7.32778C142.028 7.51918 142.051 7.89618 142.069 8.16878C142.075 8.28478 142.08 8.41238 142.086 8.54578C142.092 8.86478 142.098 9.18378 142.092 9.47958C142.086 9.87978 142.08 10.0944 142.069 10.2452C142.046 10.396 142.011 10.5468 141.977 10.6976C141.971 10.7208 141.965 10.744 141.959 10.7672C141.931 10.8832 141.89 10.9934 141.856 11.1094C141.827 11.2022 141.793 11.2892 141.758 11.382C141.729 11.4632 141.695 11.5386 141.66 11.6198L141.655 11.6372C141.62 11.7068 141.591 11.7822 141.557 11.8576C141.488 11.9968 141.419 12.136 141.338 12.2752L141.229 12.4608C141.217 12.4782 141.2 12.4956 141.177 12.5014C141.166 12.5014 141.154 12.5072 141.143 12.5072L141.074 12.4956C141.039 12.4898 141.005 12.484 140.97 12.4724C140.953 12.4666 140.936 12.4608 140.924 12.455L140.913 12.4492C140.878 12.4318 140.849 12.4086 140.826 12.3854C140.809 12.368 140.792 12.3448 140.775 12.3216C140.769 12.31 140.763 12.2984 140.752 12.2868C140.746 12.2694 140.74 12.252 140.734 12.2346C140.734 12.2288 140.734 12.223 140.729 12.2172C140.717 12.1534 140.729 12.0838 140.757 12.0258C140.775 11.991 140.798 11.962 140.826 11.9388L140.832 11.933C140.838 11.9272 140.844 11.9214 140.849 11.9214C140.867 11.904 140.89 11.8924 140.913 11.8808C140.924 11.875 140.93 11.875 140.941 11.8692C140.964 11.8634 140.987 11.8576 141.01 11.8518L141.125 11.8344H141.137L141.131 11.266V10.4598C141.131 8.76618 141.108 8.49358 140.895 7.84978C140.637 7.04358 140.125 6.34178 139.434 5.85458C139.21 5.69798 138.968 5.55878 138.715 5.44858L138.641 5.41958V15.1694H141.045L141.143 15.355C141.361 15.7668 141.626 16.1496 141.931 16.4976C142.04 16.6426 142.138 16.7992 142.23 16.9558C142.236 16.9674 142.241 16.979 142.247 16.9906C142.27 17.0312 142.287 17.066 142.305 17.1066C142.385 17.2632 142.448 17.4256 142.494 17.5938C142.517 17.6924 142.546 17.7852 142.592 17.878C142.667 17.9418 142.776 17.9418 142.845 17.878C142.891 17.791 142.926 17.6924 142.943 17.5938C142.989 17.4256 143.052 17.2632 143.133 17.1066C143.15 17.066 143.167 17.0312 143.19 16.9906C143.196 16.979 143.202 16.9674 143.208 16.9558C143.3 16.7992 143.397 16.6484 143.507 16.4976C143.812 16.1496 144.076 15.761 144.295 15.355L144.393 15.1694H146.797V5.41958L146.711 5.44858ZM140.884 13.7716V14.398H139.515V13.4294L139.521 10.8484C139.521 10.3264 139.521 9.87398 139.526 9.47378C139.532 8.63278 139.538 7.95418 139.544 7.58298C139.549 7.43798 139.549 7.34518 139.555 7.29878C139.555 7.29298 139.555 7.29298 139.555 7.28718C139.561 7.28138 139.567 7.26978 139.572 7.26398C139.578 7.25818 139.59 7.25818 139.601 7.26398L139.607 7.26978C139.624 7.28138 139.641 7.29878 139.653 7.31038C139.67 7.33938 139.693 7.37998 139.722 7.41478C139.791 7.51918 139.854 7.62358 139.912 7.73378C139.923 7.75698 139.935 7.78018 139.946 7.80338C140.148 8.24998 140.274 8.71978 140.314 9.20698C140.343 9.85658 140.337 10.512 140.297 11.1674C140.286 11.1906 140.274 11.208 140.257 11.2254L140.24 11.2428C140.217 11.266 140.188 11.2834 140.165 11.3008C139.987 11.4284 139.831 11.5966 139.722 11.788C139.716 11.7996 139.71 11.8112 139.699 11.8228L139.659 11.875C139.647 11.8866 139.636 11.8982 139.624 11.8982C139.578 11.8982 139.572 11.933 139.572 12.2984C139.572 12.629 139.578 12.6986 139.613 12.6986C139.636 12.6986 139.687 12.7508 139.733 12.8146C139.992 13.1626 140.383 13.3946 140.809 13.4526L140.884 13.47V13.7716ZM141.787 13.6498L141.873 13.6672C141.896 13.673 141.919 13.6788 141.936 13.6904L141.959 13.702C142.028 13.7426 142.092 13.7948 142.138 13.8644C142.149 13.8876 142.167 13.905 142.178 13.9282V13.934C142.184 13.9456 142.19 13.9572 142.195 13.9688C142.224 14.0326 142.247 14.0964 142.259 14.166C142.264 14.195 142.27 14.224 142.27 14.253L142.282 14.3516C142.27 14.3806 142.253 14.398 142.224 14.4096H142.195H141.781L141.787 13.6498ZM142.333 15.4478C142.339 15.5348 142.333 15.6276 142.31 15.7146L142.247 15.6798C142.178 15.6392 142.121 15.5928 142.069 15.5348L142.034 15.4942C142.028 15.4884 142.017 15.4768 142.011 15.4652C141.994 15.442 141.977 15.4246 141.959 15.4014C141.936 15.3724 141.919 15.3376 141.902 15.3086C141.885 15.2738 141.867 15.2448 141.862 15.2216C141.862 15.2158 141.856 15.2042 141.862 15.2042C141.896 15.181 141.936 15.1694 141.977 15.1752H142.345L142.333 15.4478ZM142.77 13.1278C142.73 13.1568 142.713 13.18 142.701 13.18C142.69 13.18 142.673 13.1568 142.632 13.1278C142.546 13.035 142.46 12.9538 142.362 12.8784C142.287 12.8262 142.218 12.7566 142.155 12.687C142.149 12.6638 142.144 12.6464 142.144 12.6232V12.6116C142.144 12.5942 142.149 12.571 142.155 12.5536C142.161 12.5362 142.167 12.513 142.172 12.4898C142.19 12.4434 142.213 12.3796 142.241 12.3042C142.287 12.1882 142.356 12.0316 142.454 11.8112L142.661 11.3472C142.673 11.3356 142.684 11.324 142.696 11.3182C142.707 11.3298 142.719 11.3356 142.73 11.3472L142.937 11.8112C143.035 12.0258 143.104 12.1824 143.15 12.3042C143.179 12.3738 143.202 12.4376 143.219 12.4898C143.225 12.513 143.231 12.5304 143.236 12.5536C143.242 12.571 143.242 12.5942 143.248 12.6116V12.6232C143.248 12.6464 143.248 12.6696 143.236 12.687C143.179 12.7624 143.11 12.8262 143.029 12.8784C142.943 12.9538 142.851 13.0408 142.77 13.1278ZM143.547 15.2216C143.535 15.2448 143.524 15.2738 143.507 15.3086C143.489 15.3434 143.466 15.3724 143.443 15.4014C143.426 15.4246 143.409 15.442 143.392 15.4652C143.386 15.4768 143.374 15.4826 143.369 15.4942L143.334 15.5348C143.282 15.5928 143.219 15.6392 143.156 15.6798L143.093 15.7146C143.075 15.6276 143.07 15.5406 143.07 15.4478V15.1752H143.438C143.478 15.1694 143.518 15.181 143.553 15.2042C143.553 15.21 143.547 15.2158 143.547 15.2216ZM143.616 14.398H143.202H143.173C143.144 14.3864 143.127 14.369 143.116 14.34L143.127 14.2414C143.133 14.2124 143.133 14.1834 143.139 14.1544C143.156 14.0848 143.179 14.021 143.202 13.9572C143.208 13.9456 143.213 13.934 143.219 13.9224V13.9166C143.231 13.8934 143.242 13.8702 143.259 13.8528C143.305 13.7832 143.369 13.731 143.438 13.6904L143.461 13.6788C143.484 13.6672 143.507 13.6614 143.524 13.6556L143.61 13.6382L143.616 14.398ZM145.514 14.398H144.513V13.4642L144.588 13.4468C145.019 13.3888 145.405 13.1568 145.664 12.8088C145.71 12.745 145.761 12.6928 145.784 12.6928C145.819 12.6928 145.825 12.6232 145.825 12.2926C145.825 11.9272 145.819 11.8924 145.773 11.8924C145.761 11.8924 145.75 11.8808 145.738 11.8692L145.698 11.817C145.692 11.8054 145.681 11.7938 145.675 11.7822C145.566 11.5908 145.416 11.4226 145.232 11.295C145.204 11.2776 145.181 11.2602 145.158 11.237L145.14 11.2196C145.123 11.2022 145.106 11.1848 145.1 11.1616C145.06 10.512 145.054 9.85658 145.083 9.20118C145.123 8.71398 145.25 8.23838 145.451 7.79758C145.462 7.77438 145.474 7.75118 145.485 7.72798C145.543 7.61778 145.606 7.50758 145.675 7.40898C145.704 7.37418 145.721 7.33358 145.744 7.30458C145.756 7.28718 145.773 7.27558 145.79 7.26398L145.796 7.25818C145.802 7.25238 145.813 7.25238 145.825 7.25818C145.83 7.26398 145.836 7.27558 145.842 7.28138C145.842 7.28718 145.842 7.28718 145.842 7.29298C145.848 7.33938 145.848 7.43218 145.853 7.57718C145.859 7.94838 145.865 8.63278 145.871 9.46798C145.871 9.86818 145.871 10.3206 145.876 10.8426L145.888 13.4236V14.3922L145.514 14.398Z" fill="#004280"/>
<path d="M168.386 10.175H149.094V5.52344H168.386V10.175ZM150.365 8.89324H167.114V6.79944H150.365V8.89324Z" fill="#004280"/>
<path d="M168.386 27.2219H149.094V22.5703H168.386V27.2219ZM150.365 25.9459H167.114V23.8521H150.365V25.9459Z" fill="#004280"/>
<path d="M168.386 21.6008H149.094V16.9492H168.386V21.6008ZM150.365 20.3248H167.114V18.231H150.365V20.3248Z" fill="#004280"/>
<path d="M168.386 15.9582H149.094V11.3066H168.386V15.9582ZM150.365 14.6822H167.114V12.5884H150.365V14.6822Z" fill="#004280"/>
<path d="M160.487 67.0085C159.728 66.9969 159.141 66.9737 159.129 66.9563C159.101 66.8983 159.078 66.8403 159.066 66.7765C158.911 66.2835 158.721 65.8021 158.497 65.3381C157.174 62.2873 154.137 60.3617 150.835 60.4719C150.202 60.4429 149.564 60.5009 148.949 60.6517C147.585 60.9649 146.314 61.5971 145.233 62.4903C144.554 63.0935 143.956 63.7837 143.45 64.5377C143.03 65.2047 142.673 65.9123 142.386 66.6489L142.282 66.9389L140.833 66.9157L139.383 66.8925L138.727 66.4459C138.365 66.2023 138.06 65.9877 138.043 65.9703C138.152 65.4541 138.29 64.9437 138.457 64.4391C138.474 64.4217 139.935 64.2477 140.085 64.2477C140.108 64.2477 140.551 63.1805 140.551 63.1283C140.43 62.9311 140.292 62.7397 140.154 62.5541C139.935 62.2583 139.717 61.9567 139.665 61.8929L139.579 61.7711L139.93 61.2491C140.246 60.7735 140.286 60.7271 140.361 60.7387C140.407 60.7445 140.838 60.8257 141.322 60.9127C141.805 60.9997 142.213 61.0751 142.23 61.0751C142.455 60.8083 142.656 60.5241 142.834 60.2283C142.834 60.2109 142.719 59.8629 142.581 59.4453C142.443 59.0277 142.334 58.6855 142.34 58.6797C142.426 58.6043 143.432 57.8329 143.45 57.8329C143.467 57.8329 143.818 58.0533 144.243 58.3317C144.669 58.6101 145.026 58.8305 145.037 58.8305C145.049 58.8305 145.25 58.7261 145.48 58.5927L145.9 58.3549L145.906 58.1229C145.906 57.9953 145.917 57.5661 145.929 57.1659L145.946 56.4409L146.573 56.2379L147.2 56.0349L147.861 56.8063C148.224 57.2297 148.54 57.5777 148.552 57.5777C148.603 57.5777 149.334 57.4385 149.345 57.4327C149.357 57.4269 149.483 56.9919 149.645 56.4641L149.932 55.5071L150.133 55.4839C150.243 55.4723 150.536 55.4607 150.783 55.4491L151.232 55.4375L151.41 55.8493C151.508 56.0755 151.698 56.5163 151.83 56.8295L152.072 57.3979L152.509 57.4907C152.894 57.5719 152.952 57.5777 152.986 57.5313C153.004 57.5023 153.28 57.1253 153.596 56.6845L154.171 55.8899L154.729 56.0407C155.034 56.1219 155.293 56.2031 155.304 56.2089C155.316 56.2147 155.368 56.6555 155.431 57.1833C155.494 57.7111 155.546 58.1867 155.557 58.2389C155.575 58.3317 155.615 58.3607 156.006 58.5695L156.437 58.7957L157.145 58.2447C157.53 57.9431 157.858 57.6937 157.864 57.6937C157.87 57.6937 158.79 58.3955 158.968 58.5463C158.974 58.5521 158.894 58.9697 158.79 59.4743C158.686 59.9789 158.594 60.4139 158.6 60.4487C158.692 60.5879 158.802 60.7155 158.928 60.8257L159.256 61.1505L160.113 60.8431C160.838 60.5821 160.981 60.5415 161.016 60.5821C161.062 60.6343 161.689 61.6609 161.689 61.6841C161.689 61.6899 161.493 62.0727 161.252 62.5309C161.01 62.9891 160.815 63.3835 160.815 63.4067C160.861 63.5575 160.918 63.7025 160.987 63.8475L161.16 64.2419L162.034 64.2709L162.908 64.2999L162.983 64.5493C163.023 64.6885 163.098 64.9727 163.156 65.1815L163.259 65.5643L162.569 66.2951C162.189 66.6953 161.867 67.0259 161.856 67.0259C161.844 67.0259 161.223 67.0201 160.487 67.0085Z" fill="#004280"/>
<path d="M167.39 65.3496C180.556 59.5902 194.683 55.391 205.421 54.0454C209.58 53.5002 213.779 53.361 217.966 53.6336C219.312 53.7612 222.47 54.2368 222.809 54.3702C223.206 55.072 223.534 55.8144 223.799 56.58C225.122 59.9788 227.094 65.2684 227.094 65.4134C227.094 65.4888 226.813 65.4192 226.473 65.2684C223.534 63.975 219.462 63.1166 213.635 62.5656C210.621 62.2814 202.764 62.1712 198.726 62.3626C189.006 62.8672 179.314 63.9344 169.714 65.5584C167.522 65.918 165.659 66.2138 165.578 66.2138C166.153 65.8832 166.763 65.5932 167.39 65.3496Z" fill="#004280"/>
<path d="M133.609 65.6816C120.443 59.9222 106.316 55.723 95.5775 54.3774C91.4189 53.8322 87.22 53.693 83.0384 53.9656C81.6924 54.0932 78.5347 54.5688 78.1953 54.7022C77.7984 55.404 77.4706 56.1464 77.206 56.912C75.8831 60.3108 73.9102 65.5946 73.9102 65.7396C73.9102 65.815 74.192 65.7454 74.5314 65.5946C77.4706 64.3012 81.5429 63.4428 87.3696 62.8918C90.3835 62.6076 98.2406 62.4974 102.278 62.6888C111.999 63.1934 121.691 64.2606 131.291 65.8846C133.482 66.2442 135.346 66.54 135.427 66.5342C134.846 66.2152 134.236 65.9252 133.609 65.6816Z" fill="#004280"/>
<path d="M164.067 60.1701C172.137 52.4619 184.728 45.5947 197.042 42.1843C202.835 40.6067 208.776 39.6207 214.764 39.2437L215.868 39.2031L217.433 42.6947C218.669 45.4439 218.963 46.2153 218.825 46.3023C218.29 46.4009 217.743 46.4415 217.197 46.4183C212.757 46.4241 204.629 47.3173 198.434 48.4889C185.976 50.8321 174.052 55.0081 164.665 60.3151C163.877 60.7617 163.198 61.1213 163.152 61.1213C163.434 60.7733 163.739 60.4543 164.067 60.1701Z" fill="#004280"/>
<path d="M159.867 57.0804C159.867 56.9122 162.525 53.2814 164.083 51.321C168.507 45.7704 173.551 40.7476 179.113 36.357C180.827 35.0114 184.888 32.268 186.665 31.253C191.675 28.3298 197.128 26.2534 202.811 25.105L204.047 24.8672L205.255 26.1432C205.917 26.845 207.441 28.4632 208.637 29.7392L210.812 32.0592L209.575 32.152C204.847 32.5058 198.825 33.8862 193.107 35.9278C181.27 40.301 170.439 47.0696 161.282 55.816C160.839 56.2742 160.368 56.6976 159.867 57.0804Z" fill="#004280"/>
<path d="M155.731 54.2889C155.719 53.5987 156.979 49.7127 157.922 47.5087C163.145 35.3635 173.383 23.6359 188.16 12.8827C189.086 12.2041 189.448 12.0127 189.615 12.0997C189.741 12.1635 191.582 13.4917 193.704 15.0519L197.57 17.8939L194.613 19.3845C189.005 22.2149 183.621 25.4745 178.514 29.1459C168.103 36.7207 160.873 44.5507 156.484 53.0129C156.294 53.4653 156.035 53.8945 155.731 54.2889Z" fill="#004280"/>
</g>
<defs>
<clipPath id="clip0_1769_5383">
<rect width="153" height="87" fill="white" transform="translate(74)"/>
</clipPath>
</defs>
</svg>
