<?xml version="1.0" encoding="utf-8"?>
<!-- Generator: Adobe Illustrator 25.4.1, SVG Export Plug-In . SVG Version: 6.00 Build 0)  -->
<svg version="1.1" id="Layer_1" xmlns="http://www.w3.org/2000/svg" xmlns:xlink="http://www.w3.org/1999/xlink" x="0px" y="0px"
	 viewBox="0 0 300 87" style="enable-background:new 0 0 300 87;" xml:space="preserve">
<style type="text/css">
	.st0{clip-path:url(#SVGID_00000064351213808047785730000012913322221313765789_);}
	.st1{fill:currentColor;}
</style>
<g>
	<defs>
		<rect id="SVGID_1_" width="300" height="87"/>
	</defs>
	<clipPath id="SVGID_00000105409959016024913520000000482098899109837478_">
		<use xlink:href="#SVGID_1_"  style="overflow:visible;"/>
	</clipPath>
	<g style="clip-path:url(#SVGID_00000105409959016024913520000000482098899109837478_);">
		<path class="st1" d="M211.3,50v2c0,2.7-1,4.9-3.1,6c-1.9,1.1-4.6,1.6-8,1.6c-2.7,0-5.4-0.2-8.1-0.6l-0.8-0.1v-0.8v-3.3v-1.1
			l1.1,0.2c3.8,0.6,6.4,0.9,7.9,0.9c1.9,0,3.2-0.2,3.9-0.5c0.3-0.1,0.5-0.2,0.6-0.5c0.1-0.2,0.2-0.5,0.2-0.9v-2.5
			c0-0.8-0.2-1.1-0.5-1.3c-0.4-0.3-1.3-0.5-2.7-0.5h-2.6c-2.5,0-4.6-0.5-6.1-1.7c-1.5-1.2-2.2-2.9-2.2-4.9v-2.2c0-2.2,1.1-3.9,3.1-5
			c1.9-1,4.7-1.5,8.2-1.5c0.8,0,3.2,0.1,7.1,0.4l0.9,0v0.9v3.1v1.2l-1.1-0.2c-2.3-0.4-4.7-0.6-7-0.7c-2.3,0-3.6,0.2-4.2,0.5
			c-0.4,0.2-0.7,0.6-0.7,1.4v2c0,0.4,0.1,0.7,0.6,0.9c0.5,0.3,1.4,0.5,2.7,0.5h1.7h1c2.5,0,4.6,0.5,6.1,1.6
			C210.6,46.2,211.3,47.9,211.3,50z M180.6,25.4h-1v1.4v31.3v1h1h4.3h1v-1V26.9v-1.4h-1H180.6z M237.6,42.3v5.2v1.1h-1h-14.6V51
			c0,1.4,0.5,2.2,1.3,2.6c0.9,0.6,2.4,0.9,4.6,0.9c2.1,0,4.6-0.4,7.5-1.1l1.2-0.3v1.3v3.3v0.8l-0.8,0.2c-2.8,0.6-5.7,1-8.6,1
			c-3.6,0-6.5-0.6-8.5-1.9c-2.1-1.4-3.1-3.5-3.1-6.2v-9.2c0-3,0.9-5.4,2.8-6.9c1.9-1.4,4.8-2,8.4-2c3.4,0,6.1,0.6,7.9,2
			C236.8,36.8,237.6,39.3,237.6,42.3z M231.3,41c0-1.2-0.4-1.8-0.8-2.1c-0.6-0.4-1.8-0.6-3.8-0.6c-1.8,0-3.1,0.2-3.8,0.6
			c-0.5,0.3-0.9,0.9-0.9,2.1v2.7h9.3V41z M169.1,33.9h-1v1v17.6c0,0.9-0.3,1.3-0.8,1.6c-0.7,0.3-2.1,0.6-4.6,0.6
			c-0.8,0-1.6,0-2.4-0.3c-0.4-0.1-0.7-0.2-1-0.6c-0.2-0.2-0.3-0.5-0.4-0.8c-0.1-0.4-0.1-0.8-0.1-1.2V34.9v-1h-1h-4.3h-1v1V52
			c0,2.4,0.6,4.4,2,5.7c1.5,1.4,3.9,1.9,7,1.9c2.4,0,4.3-0.3,5.8-0.9c0.3-0.1,0.6-0.3,0.9-0.5v0.9h1h4.3h1v-1V34.9v-1h-1H169.1z
			 M281.4,42.1c-1.9,0-3.6,1.1-4.5,2.6h-5.7l-2.5-21.2h-5.2l-7.3,28.1l-1.9-7.9h-11.2v4.8h6.8l3.5,14.9h5.1l6.6-24.7l1.4,9.9
			l0.1,0.8h10.3c0.9,1.6,2.5,2.6,4.5,2.6c2.8,0,5.1-2.3,5.1-5.1S284.2,42.1,281.4,42.1z M146.8,29.9c0.5,1,0.8,3.2,0.8,3.2v6.5
			c0,2.9-1.2,5.2-3.6,6.5c-2.3,1.2-5.3,1.8-9.2,1.8h-3.7v10.3v1h-1h-4.7h-1v-1V26.9v-1h1h10.2c1.3,0,2.4,0,3.4,0.1
			c1,0.1,2.1,0.2,3.1,0.5c1,0.2,2,0.6,2.8,1.2C145.6,28.3,146.3,29.1,146.8,29.9z M141.1,33.6c0-0.6-0.1-1.1-0.4-1.5
			c-0.4-0.5-0.8-0.7-1.4-0.8c-0.6-0.2-1.3-0.3-1.9-0.4c-0.5,0-1.2,0-2,0h-4.2v12.2h4.3c1.7,0,3.1-0.3,4.3-0.9
			c0.9-0.5,1.4-1.3,1.4-2.7L141.1,33.6z M28,39.3h-3.7c-1.9,0-3-0.2-3.5-0.6c-0.4-0.3-0.7-0.7-0.7-1.6v-3.6c0-1.2,0.4-1.8,1-2.2
			c0.3-0.2,0.9-0.4,1.8-0.5c0.9-0.1,2.1-0.2,3.5-0.2c1.9,0,4.7,0.3,8.2,0.8l1.1,0.2v-1.1V27v-0.9L34.8,26c-2.7-0.3-5.4-0.5-8.1-0.5
			c-4.7,0-8.1,0.6-10.1,2c-2,1.4-3,3.5-3,6.3v2.5c0,2.6,0.6,4.8,2.1,6.3c1.5,1.5,4,2.2,7.2,2.2h3.6c1.9,0,3,0.3,3.4,0.6
			c0.4,0.3,0.7,0.9,0.7,2.1v4c0,0.6-0.1,1-0.3,1.4c-0.2,0.4-0.4,0.5-0.9,0.7c-1,0.4-2.5,0.7-4.7,0.7c-2.7,0-5.8-0.4-9.6-1.2
			l-1.2-0.2V54v3.9v0.8l0.9,0.1c3.2,0.5,6.4,0.7,9.6,0.8c4,0,7.2-0.6,9.3-2.1c2.3-1.5,3.3-4.2,3.3-7.7v-2.3c0-2.6-0.6-4.8-2-6.2
			C33.7,39.9,31.2,39.3,28,39.3z M117.7,25.4h1v1.4v31.3v1h-1h-4.2h-1v-1c-0.2,0.1-0.4,0.2-0.7,0.4c-1.6,0.7-3.6,1.1-6.1,1.1
			c-3.4,0-6-0.5-7.7-1.8c-1.7-1.3-2.4-3.7-2.4-6.6V41c0-2.6,0.8-4.6,2.6-5.8c1.7-1.2,4.4-1.7,7.8-1.7c1.8,0,3.6,0.2,5.3,0.8
			c0.4,0.1,0.8,0.3,1.2,0.5c0-1.3,0-2.4,0-3.2v-4.6v-1.4h1h3.4H117.7z M112.4,40.6c0-0.6-0.3-1.1-1.1-1.5c-0.9-0.4-2.3-0.7-4.3-0.7
			c-1.3,0-2.2,0-3.1,0.1c-0.8,0.1-1.3,0.2-1.5,0.3c-0.3,0.1-0.6,0.5-0.6,1.7v11.5c0,1.1,0.3,1.6,0.9,2c0.6,0.4,1.9,0.7,3.9,0.7
			c2.3,0,3.8-0.3,4.7-0.7c0.7-0.3,1.1-0.9,1.1-1.9V40.6z M63.8,42.3v5.2v1.1h-1H48.2V51c0,1.4,0.5,2.2,1.3,2.6
			c0.9,0.6,2.4,0.9,4.6,0.9c2.1,0,4.6-0.4,7.5-1.1l1.2-0.3v1.3v3.3v0.8l-0.8,0.2c-2.8,0.6-5.7,1-8.6,1c-3.6,0-6.5-0.6-8.5-1.9
			c-2.1-1.4-3.1-3.5-3.1-6.2v-9.2c0-3,0.9-5.4,2.8-6.9c1.9-1.4,4.8-2,8.4-2c3.4,0,6.1,0.6,7.9,2C63,36.8,63.8,39.3,63.8,42.3z
			 M57.5,43.7l0-2.7c0-1.2-0.4-1.8-0.8-2.1c-0.6-0.4-1.8-0.6-3.8-0.6c-1.8,0-3.1,0.2-3.8,0.6c-0.5,0.3-0.9,0.9-0.9,2.1l0,2.7
			L57.5,43.7L57.5,43.7z M81.8,33.4c-2.4,0-4.3,0.3-5.8,0.9c-0.3,0.1-0.6,0.3-0.9,0.5v-0.9h-1h-4.3h-1v1v23.3v1h1h4.3h1v-1V41.3
			c0-1.3,0.4-1.9,0.8-2.2c0.6-0.4,2-0.7,4.6-0.7c0.8,0,1.6,0,2.4,0.3c0.4,0.1,0.7,0.2,1,0.6c0.2,0.2,0.3,0.5,0.4,0.8
			c0.1,0.4,0.1,0.8,0.1,1.2v16.9v1h1h4.3h1v-1V41.1c0-2.4-0.6-4.4-2-5.7C87.3,34,84.9,33.4,81.8,33.4z"/>
	</g>
</g>
</svg>
