<?xml version="1.0" encoding="utf-8"?>
<!-- Generator: Adobe Illustrator 25.4.1, SVG Export Plug-In . SVG Version: 6.00 Build 0)  -->
<svg version="1.1" id="Layer_1" xmlns="http://www.w3.org/2000/svg" xmlns:xlink="http://www.w3.org/1999/xlink" x="0px" y="0px"
	 viewBox="0 0 300 87" style="enable-background:new 0 0 300 87;" xml:space="preserve">
<style type="text/css">
	.st0{clip-path:url(#SVGID_00000150100762197898266090000005078343856710589327_);}
	.st1{fill:none;stroke:currentColor;stroke-width:0.34;stroke-linecap:round;stroke-linejoin:round;}
</style>
<g>
	<defs>
		<rect id="SVGID_1_" x="34" y="4" width="233" height="78"/>
	</defs>
	<clipPath id="SVGID_00000173154749294163697670000004204138300291484579_">
		<use xlink:href="#SVGID_1_"  style="overflow:visible;"/>
	</clipPath>
	<g style="clip-path:url(#SVGID_00000173154749294163697670000004204138300291484579_);">
		<path class="st1" d="M84.8,44.5c-0.5-0.1-1.3,0.5-1.8,0.7c-0.5,0.2-1,0.4-1.4,0.7c-1.2,0.8-2.4,1.8-3.6,2.6
			c-0.6,0.3-1.2,0.5-1.9,0.6c-0.6,0.2-1.3,0.3-2,0.4c-0.6,0-1.3-0.4-1.9-0.4c-0.2,0-0.5,0.3-0.6,0.2c-0.1,0-0.4-0.7-0.4-0.6
			c-0.3,0.3-0.7,0.6-1.1,0.8c-1.5,0.4-1.8-1.3-1.6-1.8c0.1-0.2,0,0.1,0.2-0.8c0.1-0.4,0.2-0.8,0.2-1.3c0.1-0.5,0.2-1,0.5-1.4
			c0.4-0.8,0.1-1.6,0.2-2.5c0.1-0.9,0.1-2,0.5-2.7c0.4-0.7,1.4-0.8,1.9-1.4c0.5-0.6,0-1.9-0.1-2.6c-0.1-0.9-0.2-1.7-0.1-2.6
			c0-0.7,0-2-0.7-2.2c-0.9-0.4-0.9,0.8-1,1.3c-0.3,0.9-0.6,1.8-0.9,2.7c-0.5,1.6-1,3.4-2.5,4.4c-0.7,0.5-1.2,1.2-1.9,1.7
			c-0.7,0.4-1.8,0.5-2.5,1c-0.3,0.3-0.6,0.6-0.8,1c-0.2,0.4-0.5,0.7-0.9,0.9c-0.7,0.6-1.2,1.5-1.5,2.4c-0.1,0.6,0.1,0.7,0.5,1
			c0.4,0.3,0.7,0.7,1,0.9c0.7,0.6,1.8,0.3,2,1.4c0.2,0.8-0.2,2,0.4,2.7c0.3,0.3,0.8,0.2,1.3,0.3c0.2,0,0.3,0.1,0.5,0.1
			c0.2,0,0.3,0.2,0.5,0.3s0.2,0.3,0.2,0.5c0,0.2,0,0.5,0,0.7c0,0.7,0,0.5,0.1,0.7c0.3,1.1,0.5,2.5,1.5,2.7c1.2,0.2,1.4-1.7,2.1-2.2
			c0.5-0.2,1.1-0.4,1.7-0.4c0.5,0,0.9,0.3,1.4,0.2c0.6-0.1,1.1-0.3,1.7-0.4c0.6-0.1,1.1-0.1,1.5-0.6c0.3-0.5,0.5-0.9,0.6-1.5
			c0.5-1,1.3-1.3,2.6-2.2c0.4-0.3,0.9-0.6,1.4-0.8c1.1-0.6,1.8-1.7,2.8-2.4C83,46.5,85.7,44.7,84.8,44.5L84.8,44.5z"/>
		<path class="st1" d="M71,30.1c-0.7-0.3-0.9,0.5-0.9,1c0,0.2,0,0.4-0.1,0.5c0,0.2-0.1,0.4-0.1,0.5c-0.1,0.4-0.2,0.8-0.4,1.2
			c-0.1,0.4-0.3,0.9-0.4,1.3c-0.1,0.2-0.2,0.5-0.3,0.7c-0.3,0.7-0.7,1.5-1.2,2.1c-0.2,0.3-0.4,0.5-0.6,0.7c-0.3,0.2-0.5,0.4-0.8,0.5
			c-0.1,0.1-0.3,0.2-0.4,0.3c-0.3,0.2-0.6,0.6-0.9,0.8c-0.3,0.3-0.7,0.5-1.2,0.5c-0.7,0.1-2.1,0.1-2.7,0.8c-0.1,0.1-0.2,0.2-0.2,0.4
			c0,0.2-0.2,0.1-0.2,0.3c0,0.1-0.1,0.2-0.1,0.3c-0.1,0.3-0.2,0.7-0.4,1c-0.5,0.7-0.9,1.5-1.1,2.4c0,0.1,0,0.1,0,0.2
			c0,0.4,0.2,0.6,0.5,0.8c0.3,0.3,0.6,0.6,0.9,1c0,0,0.1,0.1,0.1,0.1c0.7,0.5,1.6,0.4,1.8,1.4c0,0.1,0,0.2,0,0.3
			c0,0.8-0.2,1.7,0.4,2.3c0.3,0.3,0.8,0.3,1.2,0.4l0.5,0.1c0.2,0,0.3,0.1,0.4,0.2c0.1,0.1,0.2,0.2,0.3,0.4c0,0.1,0,0.1,0.1,0.2
			c0,0.2,0.1,0.4,0.1,0.6c0,0.2,0.1,0.4,0.2,0.6c0.1,0.2,0.2,0.4,0.2,0.6c0.3,0.9,0.5,1.8,1.2,2c0.1,0.1,0.3,0.1,0.4,0.1
			s0.3-0.1,0.4-0.2c0.5-0.3,0.8-1.1,1.3-1.3c0.2-0.1,0.4-0.1,0.6-0.1c0.4-0.1,0.7-0.1,1.1-0.1c0.5,0,0.9,0.3,1.4,0.1
			c0.5-0.2,1-0.5,1.5-0.7c0.6-0.1,1.1-0.4,1.6-0.7c0.1-0.1,0.2-0.2,0.3-0.4c0.2-0.3,0.4-0.6,0.6-0.9c0.2-0.3,0.5-0.6,0.8-0.8
			c0.5-0.4,1-0.8,1.6-1.2l0.3-0.2c0.5-0.3,1-0.6,1.4-0.9c0.6-0.4,1.1-0.9,1.6-1.4c0.5-0.5,0.9-0.9,1.4-1.3c0.2-0.2,1.1-0.8,1.8-1.4
			c0.5-0.4,0.9-0.8,0.6-1c-0.1-0.1,0.1,0,0,0c-0.5-0.2-1.3,0.4-1.8,0.5c-0.5,0.2-1,0.4-1.5,0.7c-1.2,0.7-2.4,1.6-3.7,2.3
			c-0.6,0.3-1.2,0.5-1.9,0.6c-0.1,0-0.2,0.1-0.3,0.1c-0.5,0.2-1.1,0.3-1.6,0.4c-0.4,0-0.9-0.2-1.3-0.3c-0.2-0.1-0.4-0.1-0.6-0.1
			c-0.2,0-0.5,0.2-0.6,0.1c-0.1-0.1-0.4-0.6-0.5-0.5c-0.2,0.1-0.5,0.3-0.8,0.5c-0.1,0.1-0.2,0.1-0.4,0.1c-0.3,0.1-0.5,0.1-0.8,0
			c-0.3-0.1-0.5-0.3-0.6-0.5c-0.2-0.4-0.3-0.8-0.2-1.3c0.1-0.2,0,0,0.2-0.7c0.1-0.4,0.2-0.8,0.3-1.2c0.1-0.5,0.3-1,0.5-1.4
			c0.2-0.6,0.3-1.3,0.3-1.9c0-0.2,0-0.3,0-0.5c0-0.9,0.1-1.8,0.3-2.6c0.1-0.1,0.1-0.2,0.2-0.3c0.4-0.5,1-0.7,1.3-1.2
			c0.2-0.4,0.2-0.8,0.2-1.2c0-0.5-0.1-0.9-0.2-1.4c-0.1-0.7-0.2-1.3-0.3-2c0-0.1,0-0.3,0-0.4C71.9,31.5,71.7,30.3,71,30.1z"/>
		<path class="st1" d="M70.7,29c-0.7-0.2-0.8,0.7-0.9,1.3c0,0.2,0,0.4,0,0.6c0,0.2,0,0.4-0.1,0.6c-0.1,0.4-0.2,0.9-0.4,1.3
			c-0.2,0.5-0.3,1-0.5,1.5c-0.1,0.3-0.2,0.5-0.4,0.8c-0.4,0.8-0.9,1.5-1.5,2.2c-0.2,0.3-0.5,0.5-0.7,0.7c-0.3,0.2-0.6,0.2-1,0.4
			c-0.1,0.1-0.3,0.2-0.4,0.3c-0.3,0.3-0.5,0.7-0.9,1c-0.2,0.1-0.4,0.2-0.6,0.2c-0.2,0-0.4,0-0.6-0.1c-0.7-0.2-2.4-0.2-2.9,0.6
			c-0.1,0.1-0.1,0.3-0.1,0.4c0,0.3-0.2,0-0.2,0.3c0,0.1,0,0.3,0,0.4c0.1,0.3,0.1,0.7,0,1c-0.1,0.6-0.5,1.6-0.6,2.5
			c0,0.1,0,0.2,0,0.2c0,0.2,0,0.3,0.1,0.5c0.1,0.2,0.2,0.3,0.3,0.4c0.2,0.4,0.5,0.7,0.8,1l0.1,0.1c0.6,0.5,1.5,0.5,1.7,1.5
			c0,0.1,0,0.2,0,0.3c0,0.9-0.2,1.7,0.5,2.3c0.3,0.2,0.7,0.4,1.1,0.5l0.4,0.2c0.3,0.1,0.5,0.4,0.7,0.6c0,0.1,0.1,0.1,0.1,0.2
			c0.1,0.2,0.2,0.4,0.2,0.6c0.1,0.2,0.2,0.4,0.3,0.6c0.1,0.2,0.2,0.4,0.3,0.6c0.3,0.8,0.5,1.8,1.2,2.1c0.1,0.1,0.2,0.1,0.3,0.1
			c0.1,0,0.2,0,0.4,0c0.4-0.1,0.8-0.6,1.3-0.7c0.1,0,0.3,0,0.5,0c0.4,0,0.7,0,1.1,0c0.5,0,0.9,0.3,1.4,0.1c0.4-0.2,0.8-0.8,1.2-1.1
			c0.6-0.3,1.1-0.6,1.6-0.9c0.1-0.1,0.3-0.2,0.4-0.3c0.2-0.3,0.5-0.5,0.7-0.8c0.3-0.2,0.6-0.5,0.9-0.8c0.5-0.4,0.9-0.9,1.5-1.4
			l0.3-0.2c0.5-0.3,1-0.6,1.4-1c0.6-0.5,1.1-1.1,1.7-1.6c0.6-0.6,1-1,1.6-1.5c0.3-0.3,1.2-1,1.9-1.6c0.4-0.4,1.1-0.9,0.7-1.1
			c-0.1-0.1,0,0-0.1-0.1c-0.5-0.2-1.2,0.3-1.8,0.4c-0.5,0.2-1,0.4-1.5,0.6c-1.2,0.7-2.4,1.6-3.7,2.3c-0.6,0.3-1.2,0.6-1.8,0.8
			l-0.3,0.1c-0.5,0.3-1,0.4-1.5,0.4c-0.4-0.1-0.9-0.2-1.2-0.4c-0.2-0.1-0.4-0.1-0.6-0.2c-0.2,0-0.5,0.1-0.6,0
			c-0.2-0.1-0.4-0.5-0.5-0.5c-0.2,0.1-0.5,0.2-0.8,0.3c-0.1,0-0.2,0.1-0.3,0.1c-0.3,0.1-0.5,0.1-0.8-0.1c-0.2-0.1-0.4-0.3-0.5-0.6
			c-0.2-0.4-0.2-0.9-0.1-1.3c0.1-0.3,0.1-0.5,0.2-0.8c0.1-0.4,0.2-0.8,0.3-1.2c0.1-0.5,0.3-1,0.5-1.4c0.2-0.6,0.3-1.3,0.3-2
			c0-0.2,0-0.3,0-0.5c0-0.9,0.1-1.8,0.2-2.7c0-0.1,0.1-0.2,0.1-0.3c0.3-0.6,0.7-0.8,1-1.4c0.2-0.4,0.2-0.8,0.2-1.2
			c0-0.5-0.1-0.9-0.2-1.4c-0.2-0.7-0.3-1.3-0.4-2c0-0.1,0-0.3-0.1-0.4C71.6,30.4,71.3,29.3,70.7,29z"/>
		<path class="st1" d="M70.3,28c-0.8-0.2-0.9,0.9-0.9,1.5c0,0.2,0,0.5,0,0.7c0,0.2,0,0.5,0,0.7c-0.1,0.5-0.2,1-0.4,1.4
			c-0.2,0.6-0.3,1.1-0.5,1.7c-0.1,0.3-0.3,0.6-0.5,0.9c-0.6,0.8-1.2,1.6-1.9,2.4c-0.3,0.3-0.6,0.5-0.9,0.6c-0.4,0.2-0.8,0.1-1.2,0.3
			c-0.2,0.1-0.3,0.2-0.5,0.4c-0.3,0.4-0.5,0.9-1,1.1c-0.7,0.3-1,0-1.3-0.3c-0.7-0.6-2.8-0.5-3.1,0.4c-0.1,0.2-0.1,0.3,0,0.5
			c0.1,0.4-0.3-0.2-0.1,0.2c0,0.1,0.1,0.3,0.1,0.4c0.2,0.5,0.4,0.6,0.5,1.1c0.1,0.6-0.1,1.6-0.2,2.5c0,0.1,0,0.2,0,0.2
			c0,0.3,0.1,0.7,0.3,0.9c0.2,0.4,0.4,0.8,0.7,1.1l0.1,0.1c0.6,0.6,1.5,0.6,1.6,1.6c0,0.1,0,0.2,0,0.3c0,0.9-0.2,1.6,0.6,2.2
			c0.4,0.2,0.7,0.4,1.1,0.6l0.4,0.2c0.3,0.2,0.5,0.4,0.7,0.6l0.1,0.2c0.1,0.2,0.3,0.3,0.4,0.5c0.1,0.2,0.2,0.4,0.4,0.5
			c0.1,0.2,0.2,0.4,0.3,0.6c0.4,0.8,0.6,1.7,1.1,2.2c0.2,0.2,0.4,0.3,0.6,0.3c0.4,0.1,0.8-0.2,1.4-0.1c0.1,0,0.3,0,0.6,0
			c0.3,0,0.8,0.1,1.1,0.1c0.5,0.1,1,0.2,1.4,0c0.6-0.3,0.6-1,1.1-1.4c0.5-0.4,1.1-0.7,1.7-1c0.2-0.1,0.3-0.2,0.5-0.3
			c0.3-0.2,0.6-0.4,0.9-0.6c0.3-0.2,0.8-0.5,1.1-0.7c0.6-0.4,0.9-1.1,1.5-1.6l0.3-0.2c0.6-0.3,1.1-0.7,1.6-1.1
			c0.6-0.6,1.2-1.2,1.9-1.8c0.7-0.6,1.2-1.1,1.8-1.6c0.5-0.4,1.4-1.1,2.2-1.7c0.4-0.3,1.3-0.9,0.9-1.1c-0.1-0.1,0,0-0.1-0.1
			c-0.6-0.2-1.3,0.1-1.8,0.3c-0.6,0.2-1.1,0.4-1.6,0.6c-1.3,0.6-2.6,1.5-3.8,2.2c-0.6,0.3-1.2,0.6-1.8,0.9l-0.3,0.1
			c-0.5,0.3-1,0.5-1.6,0.5c-0.4-0.1-0.9-0.2-1.2-0.4c-0.2-0.1-0.4-0.2-0.6-0.2c-0.2-0.1-0.5,0-0.6-0.1S72.8,47,72.7,47
			c-0.3,0-0.6,0.1-0.9,0.2c-0.1,0-0.2,0.1-0.4,0.1c-0.3,0.1-0.5,0-0.8-0.1c-0.2-0.1-0.4-0.3-0.5-0.6c-0.2-0.4-0.2-0.9-0.1-1.3
			c0.1-0.2,0-0.2,0.2-0.8c0.1-0.4,0.2-0.8,0.3-1.2c0.1-0.5,0.3-1,0.5-1.4c0.2-0.6,0.3-1.3,0.3-2v-0.5c0.1-0.9,0-1.9,0.1-2.7
			c0-0.1,0-0.2,0.1-0.3c0.2-0.5,0.5-1.1,0.8-1.6c0.1-0.4,0.2-0.8,0.2-1.2c0-0.5-0.1-0.9-0.2-1.4c-0.2-0.7-0.4-1.3-0.6-1.9
			c0-0.1-0.1-0.3-0.1-0.4C71.4,29.3,71,28.2,70.3,28z"/>
		<path class="st1" d="M70.1,28c-0.8-0.2-0.8,1.1-0.9,1.7c0,0.2,0,0.5,0,0.7c0,0.2,0,0.5,0,0.7c-0.1,0.5-0.2,1.1-0.4,1.6
			c-0.2,0.6-0.3,1.3-0.6,1.8c-0.1,0.3-0.3,0.6-0.6,0.9c-0.7,0.8-1.4,1.6-2.2,2.4c-0.3,0.3-0.7,0.5-1,0.6c-0.4,0-0.9,0.1-1.3,0.2
			c-0.2,0.1-0.4,0.2-0.5,0.4c-0.3,0.4-0.5,1-1,1.2c-0.8,0.3-1.1-0.3-1.4-0.7c-0.7-1-3-0.8-3.3,0.2c0,0.2,0,0.4,0.1,0.6
			c0.2,0.5-0.3-0.3-0.1,0.1c0.1,0.2,0.1,0.3,0.2,0.4c0.3,0.5,0.7,0.7,0.9,1.2c0.3,0.6,0.2,1.6,0.2,2.5c0,0.1,0,0.2,0,0.2
			c0,0.3,0.1,0.6,0.2,0.9c0.1,0.4,0.3,0.8,0.6,1.2l0.1,0.1c0.6,0.6,1.4,0.8,1.5,1.7c0,0.1,0,0.2,0,0.3c0,1-0.2,1.5,0.6,2.2
			c0.3,0.3,0.7,0.5,1,0.7c0.1,0.1,0.3,0.2,0.4,0.3c0.2,0.2,0.5,0.4,0.7,0.6l0.1,0.1c0.2,0.1,0.3,0.2,0.5,0.4
			c0.1,0.2,0.3,0.3,0.5,0.4c0.2,0.2,0.3,0.3,0.4,0.5c0.3,0.8,0.6,1.5,1,2.2c0.2,0.2,0.3,0.4,0.5,0.5c0.4,0.2,0.9,0.4,1.4,0.5
			c0.2,0.1,0.4,0.1,0.5,0.1c0.3,0.1,0.7,0.1,1,0.2C69.8,58,70,58,70.2,58s0.5-0.1,0.7-0.2c0.5-0.4,0.5-1.2,0.9-1.7
			c0.5-0.5,1-0.8,1.7-1.1l0.5-0.3c0.3-0.2,0.7-0.3,1.1-0.5c0.4-0.2,0.8-0.4,1.2-0.6c0.6-0.5,0.8-1.2,1.5-1.8
			c0.1-0.1,0.2-0.2,0.3-0.3c0.6-0.3,1.1-0.7,1.6-1.1c0.6-0.7,1.3-1.4,2-2c0.6-0.6,1.2-1.2,1.9-1.7c0.7-0.6,1.5-1.3,2.3-1.9
			c0.4-0.3,1.5-0.9,1.1-1.2c0-0.1-0.1-0.1-0.2-0.1c-0.6-0.1-1.2-0.1-1.8,0.2c-0.6,0.1-1.1,0.3-1.6,0.6c-1.3,0.6-2.6,1.3-3.8,2.1
			c-0.6,0.3-1.1,0.6-1.7,0.9l-0.3,0.2c-0.4,0.3-1,0.5-1.5,0.5c-0.4-0.1-0.8-0.2-1.2-0.4c-0.2-0.1-0.4-0.2-0.6-0.3
			c-0.2-0.1-0.4-0.1-0.6-0.1c-0.2-0.1-0.4-0.3-0.6-0.4c-0.3,0-0.6,0-0.9,0.1c-0.1,0-0.3,0-0.4,0c-0.6,0-1-0.1-1.2-0.7
			c-0.1-0.4-0.1-0.9-0.1-1.3c0-0.3,0.1-0.5,0.2-0.8c0.1-0.4,0.2-0.8,0.3-1.1c0.2-0.5,0.4-0.9,0.6-1.4c0.2-0.6,0.4-1.3,0.4-1.9v-0.5
			c0-0.9-0.1-1.8-0.1-2.6c0-0.1,0-0.2,0-0.4c0.1-0.6,0.2-1.1,0.4-1.6c0.1-0.4,0.2-0.8,0.2-1.2c0-0.5-0.1-0.9-0.2-1.4
			c-0.2-0.6-0.5-1.3-0.7-1.9c0-0.1-0.1-0.2-0.2-0.4C71.2,29.2,70.7,28.2,70.1,28z"/>
		<path class="st1" d="M70.1,27c-0.9-0.1-0.9,1.4-0.8,2c0,0.3,0,0.5,0.1,0.8c0,0.3,0.1,0.5,0.1,0.8c-0.1,0.6-0.2,1.2-0.4,1.7
			c-0.2,0.7-0.4,1.3-0.6,2c-0.2,0.4-0.4,0.7-0.6,1c-0.8,0.9-1.6,1.7-2.5,2.5c-0.3,0.3-0.8,0.5-1.2,0.6c-0.5,0.1-1-0.1-1.5,0.1
			c-0.2,0.1-0.4,0.2-0.5,0.4c-0.3,0.5-0.5,1.1-1.1,1.4c-0.9,0.3-1.2-0.5-1.4-1.1c-0.6-1.4-3.4-1.2-3.5,0.1c0,0.2,0,0.5,0.2,0.6
			c0.3,0.6-0.4-0.5,0,0.1c0.1,0.2,0.2,0.3,0.3,0.5c0.4,0.5,0.9,0.7,1.4,1.2c0.6,0.6,0.6,1.6,0.6,2.6v0.2c0,0.3,0.1,0.7,0.1,1
			c0.1,0.5,0.2,0.9,0.5,1.3l0.1,0.1c0.5,0.7,1.3,1,1.4,1.9c0,0.1,0,0.2,0,0.3c-0.1,1.1-0.2,1.5,0.7,2.1c0.3,0.2,0.7,0.5,1,0.8
			c0.1,0.1,0.2,0.2,0.4,0.3c0.2,0.2,0.5,0.4,0.7,0.6l0.2,0.1c0.2,0.1,0.4,0.2,0.6,0.3c0.2,0.1,0.4,0.2,0.6,0.3
			c0.2,0.1,0.3,0.3,0.4,0.5c0.4,0.7,0.6,1.6,1,2.3c0.1,0.2,0.3,0.5,0.5,0.7c0.4,0.4,0.9,0.8,1.4,1c0.2,0.1,0.4,0.2,0.5,0.2
			c0.3,0.1,0.7,0.2,1.1,0.3C69.7,59,70,59,70.2,59c0.2,0,0.5-0.1,0.7-0.3c0.5-0.5,0.3-1.4,0.7-2.1c0.4-0.6,1-1,1.7-1.2
			c0.2-0.1,0.4-0.2,0.6-0.2c0.4-0.1,0.8-0.2,1.3-0.4c0.5-0.1,0.9-0.3,1.4-0.6c0.7-0.5,0.8-1.4,1.5-2c0.1-0.1,0.2-0.2,0.4-0.3
			c0.6-0.3,1.2-0.7,1.6-1.2c0.6-0.8,1.3-1.6,2.1-2.2c0.7-0.6,1.4-1.3,2.1-1.9c0.8-0.7,1.6-1.4,2.5-2c0.4-0.3,1.7-0.9,1.3-1.2
			c-0.1-0.1-0.1-0.1-0.2-0.1c-0.6-0.2-1.3-0.1-1.9,0c-0.6,0.1-1.1,0.3-1.7,0.6c-1.3,0.5-2.6,1.2-3.9,2c-0.6,0.4-1.1,0.7-1.7,1.1
			L78.3,47c-0.4,0.4-0.9,0.6-1.5,0.6c-0.4-0.1-0.8-0.2-1.2-0.5c-0.2-0.1-0.4-0.2-0.6-0.3c-0.2-0.1-0.4-0.1-0.6-0.2
			c-0.2-0.1-0.4-0.2-0.6-0.3c-0.3,0-0.6,0-0.9,0h-0.4c-0.6,0-1-0.1-1.2-0.8c-0.1-0.4-0.1-0.9,0-1.3c0.1-0.3,0.1-0.4,0.2-0.8
			s0.2-0.8,0.3-1.1c0.2-0.5,0.4-0.9,0.5-1.4c0.2-0.6,0.4-1.3,0.4-1.9c0-0.2,0-0.3,0-0.5c0-0.9-0.1-1.8-0.2-2.7c0-0.1,0-0.2,0-0.4
			c0-0.6,0-1.2,0.2-1.8c0.1-0.4,0.1-0.8,0.2-1.2c0-0.5,0-1-0.2-1.4c-0.3-0.6-0.6-1.3-0.9-1.9c-0.1-0.1-0.1-0.2-0.2-0.4
			C71.3,28.1,70.8,27.1,70.1,27z"/>
		<path class="st1" d="M54.3,40.2c0.6,0.9,1.5,1.1,2.3,1.8c0.8,0.7,1.1,1.7,1.1,2.8c0,0.8,0,1.7,0.5,2.4c0.6,0.8,1.4,1.1,1.3,2.3
			c-0.1,1.2-0.1,1.4,0.8,2c0.8,0.5,1.2,1.5,2.1,1.9c0.8,0.4,1.6,0.3,2.1,1c0.6,0.9,0.8,2.2,1.4,3.2c0.5,0.8,1.2,1.5,2.1,1.9
			c0.6,0.3,1.9,0.8,2.5,0.2c0.6-0.7,0.2-1.6,0.5-2.3c0.5-0.9,1.6-1.3,2.5-1.5c0.9-0.2,2.2-0.2,3-0.8c0.8-0.6,0.8-1.5,1.5-2.1
			s1.5-0.8,2.1-1.6c0.7-0.9,1.4-1.7,2.3-2.4c1.7-1.4,3.3-3,5.1-4.2c0.4-0.3,2.3-1,1.2-1.4c-1.2-0.4-2.6,0.1-3.7,0.4
			c-2.2,0.7-4.2,1.8-6,3.2c-1,0.8-1.5,0.8-2.7,0.2c-0.9-0.6-1.9-1-2.9-1c-0.8,0-1.4,0-1.5-0.9c-0.1-1.1,0.1-2.1,0.6-3.1
			c0.5-1.1,0.9-2.2,1-3.3c0-1.2-0.1-2.4-0.4-3.5c-0.2-1-0.2-2.1,0-3.2c0.2-1.2-0.6-2.2-1.3-3.2c-0.4-0.6-1.2-1.9-2-2
			c-0.9-0.1-0.9,1.6-0.9,2.2c0,0.6,0.2,1.2,0.2,1.7c-0.1,0.6-0.2,1.3-0.5,1.8c-0.4,1.2-0.5,2.3-1.5,3.1c-1,0.9-1.9,1.8-3,2.6
			c-0.4,0.3-0.9,0.5-1.4,0.6c-0.6,0.1-1.2-0.2-1.7,0c-0.9,0.3-0.8,1.7-1.7,1.9c-1.1,0.3-1.3-0.8-1.6-1.5
			C57.1,37.5,53,38.2,54.3,40.2C54.7,40.8,53.9,39.6,54.3,40.2z"/>
		<path class="st1" d="M54.6,40.8c0.6,0.9,1.4,1.2,2.1,1.9c0.7,0.7,0.8,1.8,0.8,2.8c0,0.7-0.2,1.8,0.3,2.4c0.5,0.7,1.2,0.9,1.2,1.9
			c0,1,0,1.1,0.9,1.7c0.9,0.5,1.3,1.4,2.2,1.9c0.8,0.5,1.6,0.5,2.1,1.3c0.7,0.9,0.9,2.1,1.6,3.1c0.5,0.8,1.3,1.5,2.2,1.8
			c0.7,0.3,1.9,0.7,2.5,0.1c0.6-0.6,0.3-1.7,0.5-2.4c0.3-1.1,1.7-1.3,2.6-1.7c0.8-0.3,1.8-0.5,2.6-1c0.7-0.6,0.7-1.4,1.4-1.9
			c0.6-0.6,1.3-0.8,1.9-1.6c0.6-0.9,1.4-1.7,2.3-2.4c1.5-1.3,3-2.7,4.6-3.8c0.5-0.4,2.2-1.1,1.5-1.5c-0.8-0.4-1.8-0.1-2.7,0
			c-2,0.5-4,1.4-5.6,2.6c-1,0.8-1.6,0.7-2.8,0.2c-0.9-0.5-1.9-0.8-2.9-0.8c-0.8,0-1.4,0.2-1.7-0.5c-0.2-0.9-0.2-1.8,0.1-2.7
			c0.3-1,0.8-2.1,0.9-3.2c0.1-1.2,0-2.4-0.3-3.5c-0.2-1.1-0.2-2.1-0.1-3.2c0.1-1.2-0.4-2.2-1-3.1c-0.4-0.6-1.2-1.8-1.9-2
			c-0.9-0.3-0.9,1-1.1,1.4c-0.1,0.5-0.2,1.1-0.2,1.6c-0.1,0.8-0.2,1.4-0.4,2.1c-0.2,1.2-0.3,2.3-1.3,3.1c-1,0.9-1.9,1.6-2.8,2.4
			c-0.4,0.4-0.9,0.7-1.4,0.9c-0.7,0.1-1.4-0.2-2.1,0c-0.9,0.3-0.8,1.4-1.7,1.6c-0.9,0.2-1.3-0.7-1.5-1.3c-0.8-1.6-4.2-0.9-3.1,0.9
			C54.5,40.7,54.1,40,54.6,40.8z"/>
		<path class="st1" d="M55.1,42c0.6,0.9,1.4,1.3,2.1,2.1c0.6,0.8,0.6,1.9,0.5,3c-0.1,0.7-0.4,1.8,0.1,2.4c0.5,0.6,1,0.7,1.1,1.5
			c0.1,0.7,0.2,0.8,1.1,1.3c0.8,0.4,1.5,1.4,2.3,1.9c0.8,0.5,1.6,0.8,2.2,1.6c0.7,0.9,1.1,2.1,1.7,3.1c0.5,0.9,1.4,1.5,2.3,1.8
			c0.7,0.2,1.9,0.6,2.5,0.1c0.7-0.6,0.4-1.8,0.5-2.6c0.2-1.4,1.9-1.4,2.9-1.9c0.8-0.4,1.5-0.8,2.2-1.3c0.6-0.5,0.7-1.3,1.2-1.8
			c0.6-0.5,1.2-1,1.7-1.6c0.6-0.9,1.4-1.8,2.3-2.4c1.4-1.2,2.8-2.5,4.3-3.6c0.6-0.4,2.2-1.2,1.8-1.7c-0.4-0.5-1.1-0.3-1.7-0.4
			c-1.3-0.1-4.1,1.2-5.5,2.1c-0.4,0.3-0.9,0.5-1.4,0.6s-1,0-1.5-0.2c-1-0.4-2-0.6-3.1-0.6c-0.8,0.1-1.5,0.4-1.9-0.2
			c-0.4-0.7-0.5-1.6-0.3-2.4c0.2-1,0.7-2.1,0.8-3.2c0.1-1.2,0-2.4-0.2-3.6c-0.2-1.1-0.3-2.2-0.2-3.3c0.1-1.1-0.2-2.2-0.7-3.2
			c-0.4-0.8-1.1-1.5-1.8-2.1c-0.8-0.4-1,0.3-1.3,0.6c-0.4,0.3-0.4,0.8-0.6,1.5c-0.1,0.8-0.2,1.7-0.3,2.5C68,32.9,67.9,34.1,67,35
			c-0.9,0.8-1.9,1.4-2.7,2.2c-0.5,0.5-0.7,1-1.5,1c-0.8,0.1-1.7-0.3-2.5-0.1c-0.8,0.2-0.9,1.1-1.8,1.3c-0.8,0.2-1.2-0.6-1.6-1
			c-0.9-1.2-3.7-0.4-2.8,1.3C54.5,41,54.4,40.9,55.1,42z"/>
		<path class="st1" d="M55.5,42.7c0.6,0.9,1.4,1.4,2,2.3c0.6,1,0.4,2,0.2,3c-0.1,0.6-0.6,1.8-0.1,2.4c0.4,0.6,1,0.5,1,1.1
			c0.2,0.4,0.5,0.5,1.2,0.9c0.9,0.4,1.6,1.3,2.4,1.9c0.9,0.5,1.6,1.1,2.3,1.8c0.7,0.9,1.2,2,1.9,2.9c0.6,0.8,1.4,1.4,2.4,1.7
			c0.7,0.2,1.9,0.6,2.6,0.1c0.7-0.5,0.5-1.8,0.6-2.6c0.1-1.6,2.1-1.4,3.1-2.1c0.7-0.5,1.3-1,1.9-1.6c0.5-0.5,0.7-1.1,1.2-1.6
			c0.6-0.5,1.1-1,1.5-1.6c0.6-0.9,1.4-1.7,2.3-2.4c1.3-1.1,2.5-2.2,3.9-3.3c0.7-0.5,2.1-1.3,2.1-1.8c-0.2-0.4-0.5-0.7-0.8-0.8
			c-1-0.6-4.1,0.9-5.3,1.6c-0.9,0.5-2,0.7-3,0.4c-1-0.3-2.1-0.4-3.2-0.3c-0.8,0.1-1.6,0.6-2.1,0.1c-0.3-0.2-0.5-0.5-0.6-0.9
			c-0.1-0.3-0.2-0.7-0.2-1c0-1,0.6-2.1,0.7-3.1c0.1-1.2,0.1-2.4-0.1-3.7c-0.2-1.1-0.3-2.2-0.3-3.3c0.1-1.1,0-2.2-0.5-3.2
			c-0.5-0.8-1.1-1.5-1.8-2.1c-0.7-0.6-1-0.3-1.6-0.2s-0.8,0.6-1,1.4c-0.2,0.9-0.3,1.9-0.2,2.8c0,1.2-0.1,2.4-1.1,3.3
			c-0.8,0.8-1.9,1.2-2.6,2c-0.5,0.6-0.7,1.2-1.5,1.3c-0.9,0.1-2-0.3-2.9-0.1c-0.8,0.1-1,0.8-1.9,0.9c-0.8,0.1-1.2-0.4-1.6-0.7
			c-0.9-0.8-3.2,0.1-2.5,1.6C54.2,40.7,54.7,41.8,55.5,42.7z"/>
		<path class="st1" d="M55,43.7c0.6,0.9,1.5,1.5,1.9,2.5c0.5,1.1,0.3,2.1,0,3.2c-0.1,0.5-0.8,1.9-0.4,2.4c0.3,0.4,0.9,0.3,1,0.7
			c0.4,0.2,0.7,0.2,1.5,0.5c1,0.4,1.9,1.3,2.7,2c0.9,0.6,1.8,1.3,2.5,2.1c0.8,0.9,1.4,2,2.2,2.9c0.3,0.4,0.7,0.8,1.2,1.1
			c0.5,0.3,1,0.5,1.5,0.5c0.8,0.1,2.1,0.5,2.8,0c0.9-0.6,0.6-1.9,0.6-2.8c-0.1-2,2.4-1.4,3.4-2.3c0.6-0.6,1-1.2,1.6-1.9
			c0.4-0.5,0.7-1,1.2-1.5c0.5-0.5,0.9-1,1.3-1.6c0.7-1,1.5-1.8,2.4-2.5c1.3-1,2.5-2.1,3.7-3.1c0.8-0.7,2.2-1.4,2.5-2
			c0-0.4,0.4-0.8,0.1-1.3c-0.6-1.1-4.3,0.6-5.4,1c-1,0.4-2.2,0.6-3.3,0.5c-1.2-0.1-2.3-0.4-3.5-0.1c-0.9,0.2-1.7,0.8-2.5,0.5
			c-0.3-0.1-0.6-0.3-0.9-0.6c-0.2-0.3-0.4-0.6-0.4-1c-0.1-0.9,0.6-2.2,0.7-3.1c0.2-1.2,0.2-2.5,0-3.8c-0.2-1.1-0.4-2.3-0.4-3.5
			c0-1.2,0.3-2.3-0.2-3.4c-0.5-0.8-1.1-1.6-1.8-2.2c-0.2-0.3-0.5-0.5-0.8-0.7c-0.3-0.2-0.7-0.3-1.1-0.3c-0.7-0.1-1.2,0.4-1.4,1.3
			c-0.2,1.1-0.3,2.1-0.1,3.2c0.1,1.2,0,2.5-1,3.4c-0.8,0.8-1.9,1-2.6,1.9c-0.6,0.7-0.6,1.4-1.7,1.5c-1.2,0.1-2.3-0.3-3.5-0.2
			c-0.8,0.1-1.2,0.6-2,0.7c-0.6,0-1.2-0.2-1.7-0.5c-1-0.4-2.8,0.6-2.3,2C53.2,40.9,53.9,42.5,55,43.7z"/>
		<path class="st1" d="M55.4,44.8c0.6,0.9,1.5,1.6,1.9,2.5c0.5,1.2,0.1,2.1-0.3,3.2c-0.2,0.4-1,1.9-0.6,2.4c0.3,0.3,0.8,0.1,0.9,0.2
			c0.5-0.1,1.1,0,1.6,0.1c1,0.3,2,1.3,2.9,1.9c0.9,0.7,1.8,1.5,2.6,2.3c0.8,0.9,1.6,1.9,2.4,2.8c0.3,0.4,0.8,0.8,1.3,1
			c0.5,0.3,1,0.4,1.6,0.4c0.8,0.1,2.1,0.4,2.9,0c1-0.6,0.8-1.9,0.6-2.8c-0.3-2.2,2.6-1.3,3.7-2.5c0.6-0.6,0.7-1.4,1.3-2.1
			c0.4-0.4,0.7-0.9,1.1-1.3c0.4-0.5,0.8-1,1.1-1.5c0.6-1,1.5-1.8,2.4-2.4c1.1-0.9,2.2-1.8,3.3-2.7c0.9-0.7,2.2-1.4,2.8-2
			c0.4-0.4,1.2-1.1,1.1-1.7c-0.2-1.5-4.3,0.2-5.3,0.4c-1.1,0.3-2.2,0.5-3.4,0.5c-1.2,0-2.4-0.2-3.6,0.1c-1,0.2-1.8,0.9-2.7,0.8
			c-0.6-0.1-1.6-0.4-1.8-1.2c-0.2-0.8,0.5-2.1,0.6-3c0.2-1.2,0.2-2.4,0.1-3.7c-0.2-1.1-0.4-2.3-0.5-3.4c0-1.1,0.5-2.3,0-3.3
			c-0.4-0.8-1.3-1.5-1.7-2.2c-0.6-0.9-1.2-1.5-2.2-1.8c-0.9-0.3-1.5,0.2-1.8,1.1c-0.4,1.2-0.2,2.2,0,3.4C68,31.8,68,33.1,67,34
			c-0.8,0.7-1.9,0.8-2.6,1.6c-0.6,0.7-0.6,1.6-1.7,1.7c-1.3,0-2.6-0.3-3.9-0.2c-0.7,0.1-1.3,0.3-2,0.3s-1.2-0.3-1.7-0.2
			c-1,0-2.3,1-2,2.3C53.2,41.4,54.1,43.3,55.4,44.8z"/>
		<path class="st1" d="M53,38.9c0.1,2.5,1.3,4.6,2.8,6.5c0.6,0.8,1.5,1.7,1.8,2.7c0.4,1.3,0,2.2-0.6,3.3c-0.2,0.4-1.2,1.9-0.8,2.3
			c0.2,0.2,0.6-0.1,0.8-0.2c0.5-0.3,1.2-0.4,1.8-0.3c1.1,0.3,2.2,1.2,3,1.9c0.9,0.8,1.8,1.7,2.7,2.6c0.9,0.9,1.7,1.8,2.7,2.7
			c0.4,0.4,0.8,0.8,1.3,1c0.5,0.2,1.1,0.4,1.7,0.3c0.9,0,2.1,0.4,2.9,0c1.1-0.6,0.9-1.9,0.6-2.9c-0.5-2.4,2.8-1.3,3.9-2.6
			c0.5-0.7,0.4-1.7,0.9-2.4c0.3-0.4,0.6-0.7,1-1.1c0.4-0.5,0.7-1,0.9-1.5c0.6-1,1.5-1.8,2.4-2.4c1-0.8,2-1.6,3-2.3
			c1-0.8,2-1.5,3.1-2.2c0.6-0.4,1.9-1.3,2-2.1c0.2-2-4.3-0.2-5.1-0.1c-1.2,0.2-2.3,0.4-3.5,0.6c-1.2,0.2-2.5,0-3.7,0.3
			c-1,0.3-1.9,1-2.9,1.1c-0.7,0.1-1.9,0-2.2-0.8c-0.3-0.8,0.4-2.1,0.5-2.9c0.2-1.2,0.3-2.5,0.2-3.7c-0.2-1.1-0.4-2.3-0.5-3.5
			c0-1.1,0.7-2.3,0.3-3.3c-0.3-0.8-1.3-1.4-1.7-2.2c-0.6-1.1-1.2-2.1-2.4-2.6c-0.2-0.1-0.4-0.2-0.7-0.2c-0.2,0-0.5,0-0.7,0.1
			c-0.2,0.1-0.4,0.2-0.6,0.4c-0.2,0.2-0.3,0.4-0.3,0.6c-0.5,1.3-0.2,2.4,0.1,3.7c0.3,1.3,0.2,2.5-0.8,3.4c-0.7,0.7-1.9,0.6-2.5,1.4
			c-0.6,0.8-0.5,1.8-1.8,1.8c-1.4,0-2.9-0.3-4.3-0.3c-0.7,0-1.4,0-2.1-0.1c-0.6-0.1-1.1-0.1-1.7,0c-0.5,0.2-1,0.6-1.3,1
			C53.1,37.8,53,38.3,53,38.9z"/>
		<path class="st1" d="M54.9,35.9c-0.5,0.2-1,0.6-1.3,1c-0.3,0.5-0.5,1-0.6,1.6c-0.1,1.4,0.2,2.8,0.7,4.1c0.4,1,1,1.9,1.7,2.8
			c0.3,0.4,0.7,0.9,1,1.3c0.4,0.5,0.6,1,0.8,1.6c0,0.1,0.1,0.2,0.1,0.3c0.3,1.1-0.2,1.8-0.6,2.8c-0.1,0.1-0.1,0.3-0.2,0.4
			c-0.2,0.5-1,2-0.5,2.5c0.2,0.2,0.6,0,0.8,0c0.6-0.2,1.2-0.2,1.8-0.1c1,0.3,1.9,0.7,2.6,1.4l0.6,0.5c0.7,0.6,1.3,1.3,2,2l0.7,0.8
			l0.3,0.4c0.3,0.4,0.6,0.8,0.9,1.3c0.4,0.5,0.8,0.9,1.3,1.3l0.1,0.1c0.9,0.7,2,1.2,3.1,1.2c0.9,0,2.1,0.3,3-0.1
			c0.1-0.1,0.3-0.2,0.4-0.3c0.7-0.6,0.6-1.8,0.4-2.7c0-0.2,0-0.4,0-0.6c0.1-1,1-1.1,2-1.4c0.3,0,0.6-0.2,0.9-0.3
			c0.3-0.2,0.5-0.4,0.7-0.7c0.2-0.3,0.3-0.7,0.4-1c0.1-0.5,0.3-1,0.5-1.4c0.3-0.4,0.6-0.8,0.9-1.2c0.3-0.5,0.6-1,0.8-1.6
			c0.3-0.6,0.8-1.1,1.3-1.6c0.4-0.3,0.8-0.6,1.2-0.9c0.6-0.4,1.2-0.9,1.8-1.3l1.3-1c0.7-0.6,1.5-1.1,2.3-1.6l0.8-0.6
			c0.6-0.5,1.8-1.4,2-2.2c0.2-1.2-1-1.3-2.3-1.2c-0.7,0.1-1.4,0.2-2.1,0.3l-0.4,0.1c-0.6,0.1-1.2,0.3-1.8,0.5
			c-0.4,0.1-0.9,0.2-1.3,0.2c-0.3,0-0.5,0.1-0.8,0.1c-1,0-2,0.2-2.9,0.4c-0.3,0.1-0.6,0.2-0.9,0.3c-0.5,0.2-1,0.4-1.5,0.5
			c-0.1,0-0.3,0-0.4,0.1c-0.4,0-0.8-0.1-1.3-0.2c-0.4,0-0.7-0.2-0.9-0.4c-0.1-0.3-0.2-0.6-0.1-1c0.1-0.4,0.1-0.9,0.1-1.3
			c0-0.4,0-0.8,0-1.2c0.1-0.9,0.1-1.7,0.1-2.6c0-0.3-0.1-0.6-0.1-1c-0.2-0.9-0.5-1.7-0.6-2.5c0-0.3,0-0.7,0.1-1
			c0.1-0.8,0.4-1.6,0.2-2.4c-0.1-0.3-0.2-0.5-0.3-0.7c-0.4-0.5-0.7-1-1.2-1.5l-0.4-0.5c-0.5-0.8-1.2-1.5-2-2.1
			c-0.2-0.1-0.4-0.2-0.6-0.3c-0.2,0-0.4,0-0.6,0c-0.2,0-0.4,0.1-0.6,0.3c-0.2,0.1-0.3,0.3-0.4,0.5c-0.1,0.2-0.2,0.4-0.3,0.6
			c-0.2,0.7-0.3,1.4-0.3,2.1c0,0.1,0,0.2,0,0.4c0.1,0.4,0.1,0.9,0.1,1.3c0,0.5-0.2,1.1-0.4,1.5c-0.2,0.2-0.3,0.5-0.5,0.7
			c-0.1,0.2-0.3,0.3-0.4,0.4c-0.4,0.4-0.9,0.5-1.2,1c-0.1,0.1-0.1,0.2-0.2,0.3c-0.5,0.9-0.5,1.9-1.7,2h-0.2c-1.3,0.1-2.6,0-3.9-0.1
			h-0.3l-1.8-0.1h-0.3C56,35.7,55.5,35.7,54.9,35.9z"/>
		<path class="st1" d="M55.2,35.2c-0.5,0.2-1,0.6-1.4,1c-0.4,0.5-0.6,1-0.7,1.6c-0.2,1.4-0.1,2.8,0.3,4.2c0.4,1.1,1,2,1.7,2.8
			c0.3,0.4,0.6,0.9,1,1.4c0.4,0.5,0.7,1,0.9,1.6c0,0.1,0.1,0.2,0.1,0.3c0.3,1.1-0.3,1.8-0.7,2.8c-0.1,0.2-0.1,0.3-0.2,0.5
			c-0.2,0.6-0.7,2.1-0.3,2.6c0.2,0.3,0.6,0.2,0.8,0.2c0.6-0.1,1.3-0.1,1.9,0c1,0.2,2,0.7,2.8,1.3c0.2,0.2,0.4,0.3,0.6,0.5
			c0.7,0.7,1.3,1.3,1.9,2.1c0.3,0.3,0.5,0.6,0.8,0.9c0.1,0.1,0.2,0.3,0.3,0.4c0.3,0.4,0.5,0.9,0.7,1.4c0.3,0.5,0.8,1,1.4,1.2l0.1,0
			c1,0.6,2.1,1,3.3,1c0.9,0,2.1,0.2,3-0.2c0.1-0.1,0.3-0.1,0.4-0.2c0.7-0.6,0.7-1.8,0.6-2.6c0-0.2,0-0.4,0-0.6c0.1-1,1-1.2,1.9-1.5
			c0.3-0.1,0.6-0.2,0.9-0.4c0.3-0.2,0.5-0.5,0.6-0.8c0.1-0.3,0.2-0.7,0.3-1.1c0.1-0.5,0.3-1,0.6-1.4c0.3-0.4,0.6-0.8,0.9-1.2
			c0.3-0.5,0.4-1.1,0.7-1.6c0.3-0.6,0.8-1.1,1.3-1.5c0.4-0.3,0.8-0.6,1.2-0.9c0.6-0.4,1.2-0.8,1.8-1.3l1.3-0.9
			c0.8-0.6,1.6-1.1,2.3-1.6c0.3-0.2,0.5-0.4,0.8-0.6c0.7-0.5,1.8-1.4,2-2.3c0.3-1.1-0.5-1.5-1.6-1.6c-0.7-0.1-1.4,0-2,0.1l-0.4,0.1
			c-0.6,0.2-1.1,0.4-1.7,0.6c-0.4,0.1-0.9,0.2-1.3,0.2c-0.3,0-0.5,0-0.8,0.1c-1,0.1-1.9,0.2-2.9,0.5c-0.3,0.1-0.6,0.2-0.9,0.3
			c-0.5,0.2-1,0.3-1.5,0.3c-0.2,0-0.3,0-0.5,0c-0.4-0.1-0.8-0.2-1.2-0.2c-0.3,0-0.6-0.1-0.9-0.2C75,42.2,75,42,75,41.7
			c-0.1-0.3-0.1-0.7-0.2-1.1c-0.1-0.4-0.1-0.8-0.1-1.2c0-0.9,0.2-1.7,0.2-2.5c0-0.3,0-0.6-0.1-1c-0.1-0.8-0.5-1.6-0.7-2.4
			c-0.1-0.3-0.1-0.6,0-1c0.2-0.8,0.3-1.6,0.3-2.3c0-0.3-0.1-0.5-0.2-0.8c-0.2-0.6-0.6-1.1-1.1-1.5l-0.5-0.5
			c-0.7-0.7-1.1-1.6-1.9-2.1c-0.3-0.3-0.7-0.4-1.1-0.4c-0.4,0-0.8,0.1-1.1,0.4c-0.1,0.1-0.3,0.2-0.4,0.4c-0.4,0.4-0.7,1-0.7,1.6
			c0,0.1,0,0.2,0,0.4c0,0.4,0,0.9,0,1.3c0,0.5-0.2,1.1-0.5,1.5c-0.2,0.2-0.4,0.5-0.5,0.7c-0.1,0.2-0.2,0.3-0.3,0.5
			c-0.3,0.4-0.5,0.8-0.7,1.2l-0.1,0.3c-0.3,0.9-0.5,1.9-1.6,2.1l-0.2,0c-1.3,0.2-2.6,0.2-3.9,0l-0.3,0c-0.6-0.1-1.2-0.2-1.8-0.2
			h-0.3C56.4,35,55.8,35,55.2,35.2z"/>
		<path class="st1" d="M55.6,34.9c-0.6,0.2-1.1,0.6-1.5,1c-0.4,0.5-0.7,1-0.9,1.6c-0.3,1.4-0.4,3-0.1,4.4c0.2,1.2,1,2,1.7,3
			c0.3,0.5,0.7,1,1,1.5c0.4,0.5,0.7,1.1,1,1.7c0,0.1,0.1,0.2,0.1,0.3c0.4,1.2-0.4,1.9-0.8,2.9c-0.1,0.2-0.1,0.3-0.2,0.5
			c-0.2,0.7-0.5,2.1-0.1,2.7c0.1,0.1,0.2,0.2,0.4,0.3c0.1,0.1,0.3,0.1,0.4,0.1c0.6,0.1,1.3,0.1,2,0.2c1.1,0.1,2.1,0.5,3,1.2
			c0.2,0.2,0.4,0.4,0.6,0.5c0.7,0.7,1.4,1.5,2,2.3c0.3,0.3,0.5,0.6,0.8,0.9c0.1,0.1,0.2,0.3,0.3,0.4c0.3,0.5,0.5,1,0.6,1.6
			c0.2,0.7,0.8,1,1.4,1.2l0.1,0c1.1,0.5,2.3,0.8,3.6,0.9c0.9,0.1,2.2,0.2,3-0.2c0.1-0.1,0.3-0.1,0.4-0.2c0.7-0.6,0.8-1.8,0.7-2.7
			c0-0.2,0-0.4,0-0.6c0.1-1,0.9-1.3,1.9-1.6c0.3-0.1,0.6-0.3,0.8-0.5c0.2-0.2,0.4-0.5,0.5-0.8c0.1-0.3,0.1-0.7,0.2-1.1
			c0.1-0.5,0.3-1,0.6-1.4c0.3-0.4,0.6-0.8,0.9-1.3c0.2-0.5,0.3-1.1,0.6-1.6c0.3-0.6,0.8-1.1,1.3-1.6c0.4-0.3,0.8-0.6,1.2-0.9
			c0.6-0.4,1.3-0.8,1.9-1.3c0.5-0.3,0.9-0.6,1.4-0.9c0.8-0.5,1.6-1,2.4-1.6c0.3-0.2,0.5-0.4,0.8-0.6c0.8-0.6,1.5-1.4,2-2.4
			c0.4-1-0.1-1.7-1-2.1c-0.7-0.2-1.4-0.3-2-0.1c-0.1,0-0.2,0.1-0.4,0.1c-0.6,0.2-1.1,0.5-1.7,0.7c-0.4,0.1-0.9,0.2-1.3,0.2
			c-0.3,0-0.5,0-0.8,0.1c-1,0.1-2,0.3-2.9,0.6c-0.3,0.1-0.6,0.2-1,0.3c-0.5,0.1-1,0.2-1.5,0.1c-0.2,0-0.3-0.1-0.4-0.1
			c-0.4-0.2-0.8-0.3-1.2-0.3c-0.3,0-0.6,0-0.9,0.1c-0.1,0-0.2,0-0.2,0c-0.1,0-0.1-0.1-0.2-0.1c-0.3-0.2-0.4-0.5-0.6-0.9
			c-0.2-0.4-0.2-0.7-0.2-1.1c0-0.9,0.1-1.7,0.3-2.6c0-0.3,0-0.7,0-1c-0.1-0.9-0.6-1.6-0.9-2.4c-0.1-0.3-0.1-0.6-0.1-1
			c0.1-0.9,0.4-1.6,0.4-2.4c0-0.3,0-0.5-0.1-0.8c0-0.8-0.6-1.1-1.1-1.5l-0.5-0.4c-0.8-0.7-1.1-1.6-1.9-2.2c-0.3-0.3-0.7-0.5-1.1-0.6
			s-0.8-0.1-1.2,0c-0.2,0-0.3,0.1-0.5,0.1c-0.4,0.2-1,0.2-1.2,1.1c0,0.1,0,0.2-0.1,0.4c0,0.4,0,0.9,0,1.4c0,0.6-0.3,1.1-0.6,1.5
			c-0.2,0.3-0.4,0.5-0.6,0.7c-0.1,0.2-0.2,0.3-0.2,0.5c-0.1,0.5-0.1,0.7-0.2,1.4c0,0.1,0,0.2-0.1,0.3c-0.2,1-0.4,2-1.5,2.3L64,34.8
			c-1.3,0.3-2.7,0.4-4.1,0.1l-0.3-0.1c-0.6-0.1-1.2-0.2-1.9-0.3c-0.1,0-0.2,0-0.3,0C56.8,34.6,56.2,34.7,55.6,34.9z"/>
		<path class="st1" d="M55.1,34.8c-0.6,0.2-1.1,0.6-1.6,1c-0.4,0.5-0.8,1-1,1.6c-0.5,1.5-0.6,3-0.4,4.6c0.1,1.3,1,2.1,1.8,3.1
			c0.4,0.5,0.7,1,1,1.6c0.4,0.6,0.7,1.1,1,1.7c0,0.1,0.1,0.2,0.1,0.3c0.5,1.3-0.5,1.9-0.9,3C55,51.8,55,52,55,52.1
			c-0.2,0.8-0.3,2.2,0.1,2.9c0.2,0.3,0.5,0.4,0.8,0.5c0.7,0.2,1.4,0.3,2.1,0.3c1.1,0.1,2.2,0.4,3.2,1.1c0.2,0.2,0.4,0.4,0.6,0.6
			c0.8,0.7,1.4,1.6,2.1,2.4c0.3,0.3,0.6,0.6,0.8,1c0.1,0.1,0.2,0.3,0.3,0.5c0.2,0.5,0.4,1.1,0.4,1.7c0.1,0.8,0.8,1,1.5,1.2h0.1
			c1.2,0.4,2.5,0.6,3.8,0.8c0.9,0.1,2.2,0.1,3.1-0.3c0.1-0.1,0.3-0.1,0.4-0.2c0.8-0.6,0.9-1.7,0.9-2.7c0-0.2,0-0.4,0-0.6
			c0.2-1.1,0.9-1.4,1.8-1.8c0.3-0.1,0.6-0.3,0.8-0.6c0.2-0.3,0.3-0.6,0.3-0.9c0.1-0.4,0.1-0.7,0.2-1.1c0.1-0.5,0.4-1,0.7-1.4
			c0.3-0.4,0.6-0.8,0.8-1.3c0.2-0.6,0.3-1.1,0.5-1.7c0.3-0.6,0.8-1.2,1.3-1.6c0.4-0.3,0.8-0.6,1.3-0.9c0.6-0.4,1.3-0.8,1.9-1.2
			c0.5-0.3,0.9-0.6,1.4-0.9c0.8-0.5,1.7-1,2.4-1.6c0.3-0.2,0.5-0.4,0.8-0.6c0.8-0.7,1.5-1.5,2-2.4c0.4-1,0.4-2-0.4-2.6
			c-0.3-0.2-0.6-0.3-1-0.4c-0.3-0.1-0.7,0-1,0c-0.1,0-0.2,0.1-0.4,0.1c-0.6,0.2-1.1,0.6-1.7,0.8c-0.4,0.1-0.9,0.2-1.4,0.2
			c-0.3,0-0.5,0-0.8,0.1c-1,0.2-2,0.4-2.9,0.7c-0.3,0.1-0.6,0.2-1,0.2c-0.5,0.1-1.1,0.1-1.6-0.1c-0.1,0-0.3-0.1-0.4-0.2
			c-0.4-0.2-0.8-0.3-1.2-0.4c-0.3,0-0.7,0.2-0.9,0.4c-0.2,0.2-0.3,0.3-0.6,0.3c-0.2,0-0.4-0.1-0.5-0.2c-0.2-0.1-0.3-0.3-0.4-0.4
			c-0.2-0.3-0.4-0.7-0.4-1.1c0-0.9,0.2-1.7,0.4-2.6c0-0.3,0-0.7,0-1c-0.1-0.9-0.7-1.6-1-2.4c-0.1-0.3-0.2-0.6-0.2-1
			c0.1-0.8,0.2-1.6,0.4-2.4c0-0.3,0.1-0.5,0.1-0.8c0.1-0.9-0.5-1.1-1.1-1.4c-0.2-0.1-0.4-0.2-0.6-0.4c-0.9-0.6-1.1-1.6-1.9-2.3
			c-0.6-0.6-1.5-1-2.4-1.1c-0.2,0-0.4-0.1-0.6-0.1c-0.5,0-1.4-0.3-1.7,0.6c0,0.1-0.1,0.2-0.1,0.4c-0.1,0.4,0,1-0.1,1.4
			c-0.1,0.6-0.3,1.1-0.6,1.5c-0.2,0.2-0.4,0.5-0.6,0.7c-0.1,0.2-0.1,0.4-0.1,0.6c0.1,0.5,0.2,1,0.2,1.5c0,0.1,0,0.2,0,0.3
			c-0.1,1-0.4,2-1.4,2.4l-0.2,0.1c-1.3,0.5-2.8,0.6-4.2,0.2l-0.4-0.1c-0.6-0.2-1.3-0.3-1.9-0.4h-0.3C56.3,34.4,55.7,34.5,55.1,34.8z
			"/>
		<path class="st1" d="M55.7,34.1c-1.2,0.5-2.3,1.4-2.8,2.6c-0.7,1.5-0.9,3.1-0.8,4.7c0,1.3,1,2.2,1.8,3.1c0.4,0.5,0.7,1.1,1,1.6
			c0.3,0.5,0.8,1.1,1.1,1.7C56,48,56,48,56,48.1c0.6,1.3-0.6,1.9-1,3c-0.1,0.2-0.1,0.4-0.1,0.5c-0.2,1-0.1,2,0.3,3
			c0.2,0.3,0.5,0.5,0.8,0.7c0.7,0.3,1.5,0.4,2.2,0.5c1.2,0.1,2.5,0.3,3.4,1c0.2,0.2,0.4,0.4,0.6,0.6c0.8,0.8,1.4,1.7,2.1,2.5
			c0.3,0.3,0.6,0.6,0.9,1c0.1,0.2,0.2,0.3,0.3,0.5c0.2,0.6,0.3,1.2,0.3,1.8c0.1,0.9,0.8,1.1,1.6,1.1h0.1c1.4,0.2,2.6,0.5,4.1,0.6
			c1.1,0.1,2.2,0,3.2-0.4c0.1-0.1,0.3-0.1,0.4-0.2c0.8-0.6,0.9-1.7,1-2.6c0-0.2,0-0.4,0.1-0.6c0.2-1.1,0.8-1.4,1.8-1.9
			c0.3-0.1,0.6-0.4,0.8-0.7c0.2-0.3,0.2-0.6,0.2-1c0-0.4,0-0.8,0.1-1.2c0.1-0.5,0.4-1,0.7-1.4c0.4-0.4,0.6-0.9,0.8-1.4
			c0.1-0.6,0.2-1.1,0.4-1.7c0.3-0.6,0.8-1.2,1.4-1.6c0.4-0.3,0.8-0.6,1.3-0.9c0.6-0.4,1.3-0.8,2-1.2c0.5-0.3,1-0.6,1.5-0.9
			c0.9-0.5,1.7-1,2.5-1.6c0.3-0.2,0.5-0.4,0.8-0.7c0.8-0.7,1.5-1.6,2-2.5c0.5-0.9,0.9-2.2,0.2-3c-0.2-0.3-0.6-0.5-0.9-0.6
			s-0.7-0.1-1.1,0c-0.1,0-0.3,0.1-0.4,0.1c-0.6,0.3-1,0.7-1.7,0.9c-0.4,0.1-0.9,0.2-1.4,0.2c-0.3,0-0.5,0-0.8,0.1
			c-1,0.2-2,0.5-3,0.9c-0.3,0.1-0.7,0.2-1,0.2c-0.6,0.1-1.1,0-1.6-0.3c-0.1-0.1-0.3-0.1-0.4-0.2c-0.3-0.3-0.7-0.4-1.2-0.4
			c-0.2,0-0.4,0.1-0.5,0.2c-0.2,0.1-0.3,0.2-0.4,0.4c-0.2,0.3-0.4,0.6-0.8,0.7c-0.2,0-0.5,0-0.7,0c-0.2-0.1-0.4-0.2-0.6-0.4
			c-0.3-0.3-0.5-0.7-0.5-1.1c-0.1-0.9,0.3-1.7,0.4-2.5c0.1-0.3,0.1-0.7,0.1-1c-0.1-0.9-0.8-1.5-1.2-2.3c-0.1-0.3-0.2-0.7-0.2-1
			c0-0.8,0.2-1.6,0.5-2.4c0.1-0.3,0.2-0.5,0.2-0.8c0.2-0.9-0.4-1.1-1-1.4c-0.2-0.1-0.4-0.2-0.6-0.3c-1-0.6-1.2-1.5-1.9-2.3
			c-0.7-0.7-1.5-1.3-2.4-1.6L69,24.4c-0.6-0.2-1.7-0.8-2.2,0.1c-0.1,0.1-0.1,0.2-0.1,0.4c-0.1,0.4-0.1,1-0.1,1.4
			c-0.1,0.6-0.3,1.1-0.7,1.5c-0.2,0.2-0.4,0.5-0.6,0.7c-0.1,0.2-0.1,0.4,0,0.6c0.2,0.6,0.6,1,0.7,1.7c0,0.1,0,0.2,0,0.4
			c0,0.5-0.1,1-0.3,1.5c-0.2,0.5-0.6,0.8-1.1,1.1l-0.2,0.1c-1.3,0.6-2.9,0.7-4.3,0.3L59.8,34c-0.6-0.2-1.3-0.4-1.9-0.4
			c-0.1,0-0.2,0-0.4,0C56.9,33.7,56.3,33.8,55.7,34.1z"/>
		<path class="st1" d="M52,41.2c0,1.4,1,2.2,1.8,3.3c0.4,0.6,0.7,1.1,1,1.7c0.4,0.7,0.9,1.4,1.2,2.1c0.6,1.4-0.7,2-1.1,3.2
			c-0.3,1.2-0.1,2.5,0.4,3.7c1.1,2.3,4.7,0.8,6.4,2.3c1,1,2,2.1,2.8,3.3c0.5,0.5,0.8,1,1.2,1.6c0.2,0.6,0.2,1.3,0.1,2
			c0,1.1,0.8,1.1,1.7,1.1c1.4,0,2.8,0.4,4.2,0.5c1.1,0.1,2.6,0,3.5-0.7c1-0.7,1.1-2.2,1.2-3.3c0.2-1.1,0.7-1.5,1.7-2.1
			c1.2-0.7,0.6-1.9,0.8-3.1c0.3-1.2,1.3-1.7,1.5-2.8c0-0.6,0.1-1.2,0.3-1.8c0.3-0.6,0.8-1.2,1.3-1.6c1-0.8,2.1-1.4,3.3-2.1
			c1.2-0.8,2.8-1.5,3.9-2.4c1.1-0.9,2-2,2.7-3.3c0.6-0.9,1.3-2.5,0.9-3.5c-0.1-0.2-0.2-0.4-0.4-0.5c-0.2-0.1-0.4-0.2-0.6-0.3
			c-0.2-0.1-0.4-0.1-0.7,0c-0.2,0-0.4,0.1-0.6,0.2c-0.5,0.4-1,0.7-1.6,1.1c-0.7,0.3-1.4,0.1-2.1,0.3c-1.3,0.2-2.5,1.1-3.9,1.1
			c-0.6,0-1.1-0.1-1.6-0.4c-0.5-0.3-0.9-1-1.5-0.8c-0.9,0.2-0.9,1.6-1.8,2C77.8,42,77.6,42,77.3,42s-0.5-0.1-0.7-0.2
			c-0.2-0.1-0.4-0.3-0.5-0.5c-0.1-0.2-0.2-0.4-0.3-0.7c-0.2-1.3,0.8-2.4,0.6-3.6c-0.1-1.2-1.5-1.9-1.6-3.3c-0.1-1.3,0.5-2.1,0.9-3.3
			c0.5-1.3-0.7-1.2-1.6-1.6c-1.1-0.5-1.2-1.5-1.7-2.4c-0.7-1.1-2.1-1.9-3.1-2.6c-0.6-0.4-2-1.4-2.6-0.4c-0.3,0.5-0.2,1.3-0.3,1.8
			c-0.1,0.6-0.4,1.1-0.8,1.6c-0.5,0.5-0.8,0.7-0.5,1.4c0.3,0.7,1,1.1,1.2,1.9c0.2,0.6,0.1,1.3-0.1,1.8c-0.2,0.6-0.7,1.1-1.2,1.4
			c-0.6,0.4-1.3,0.6-2.1,0.7s-1.5,0-2.2-0.2c-0.7-0.3-1.5-0.6-2.2-0.6c-0.8,0.1-1.5,0.3-2.2,0.6C53.1,35,52.1,37.9,52,41.2z"/>
		<path class="st1" d="M56.4,31.8c-0.5,0.3-0.9,0.7-1.1,1.3c-0.2,0.3-0.2,0.6-0.7,0.8c-0.7,0.3-1.3,0.8-1.7,1.4
			c-0.5,0.5-0.9,1.2-1.2,1.8c-0.3,0.7-0.4,1.3-0.5,2c0,0.3-0.1,0.5-0.1,0.8c-0.1,0.6,0,1.1,0.1,1.7c0.1,0.3,0.1,0.1,0.2,0.3
			c0.4,0.7,0.9,1.4,1.4,2c0.4,0.6,0.7,1.1,1,1.8l0.1,0.2c0.3,0.6,0.6,1.1,0.8,1.7l0.1,0.4c0.5,1.4-0.6,2.1-0.9,3.3
			c0,0.1,0,0.2-0.1,0.3c-0.1,0.7-0.1,1.4,0,2.2c0.1,0.5,0.2,0.9,0.4,1.4c0.2,0.3,0.5,0.6,0.8,0.7c0.6,0.3,1.3,0.4,1.9,0.5
			c1.3,0.2,2.6,0.3,3.6,0.9c0.1,0.1,0.2,0.2,0.3,0.2c0.9,0.8,1.7,1.8,2.3,2.8l0.5,0.7c0.4,0.5,0.8,1.1,1.2,1.6
			c0.1,0.1,0.1,0.2,0.2,0.3c0.2,0.5,0.2,0.9,0.3,1.4c0.2,1,0.9,1,1.8,1.1h0.1c1.4,0.1,2.8,0.5,4.3,0.5c1.2,0.1,2.4-0.2,3.4-0.7
			c0.5-0.4,0.9-1,1-1.7c0.1-0.5,0.2-1,0.3-1.4c0.2-1.1,0.7-1.5,1.6-2c0.2-0.1,0.4-0.3,0.6-0.5c0.5-0.6,0.2-1.5,0.5-2.3
			c0,0,0-0.1,0-0.1c0.3-0.9,1.3-1.5,1.5-2.6c0-0.2,0-0.4,0-0.6c-0.1-0.4,0-0.8,0.1-1.2c0.2-0.7,0.5-1.3,1-1.8c0.9-1,1.9-1.9,3.1-2.5
			c1-0.5,2-0.9,3-1.5c0.5-0.3,0.9-0.6,1.3-0.9c0.4-0.3,0.8-0.7,1.2-1.1c0.7-0.7,1.4-1.5,1.9-2.3c0.6-1,1.2-2.6,0.8-3.7
			c-0.1-0.4-0.4-0.7-0.8-0.9c-0.4-0.2-0.8-0.2-1.2-0.1c-0.3,0.1-0.5,0.2-0.8,0.3c-0.2,0.1-0.5,0.2-0.7,0.2c-0.7,0-1.4,0-2-0.1
			c-0.2,0-0.4,0-0.6,0c-1.1,0.1-2.1,0.5-3.2,0.3c-0.1,0-0.2,0-0.4-0.1c-0.4-0.1-0.8-0.3-1.2-0.6c-0.1-0.1-0.2-0.2-0.3-0.3
			c-0.3-0.3-0.7-0.7-1.2-0.7c-0.1,0-0.2,0-0.3,0.1c-0.6,0.3-0.8,1.6-1.5,2c-0.1,0.1-0.3,0.2-0.4,0.2c-0.3,0.1-0.7,0.1-1-0.1
			c-0.3-0.1-0.6-0.4-0.7-0.7c-0.1-0.2-0.1-0.5-0.1-0.7c0-0.6,0.3-1.3,0-2c-0.1-0.3-0.2-0.5-0.4-0.8c-0.5-0.6-1.3-1.4-1.3-2.4
			c0-0.9,0.5-1.8,0.7-2.6c0.1-0.2,0.1-0.5,0.1-0.7c0-0.2,0-0.4,0-0.5c-0.1-0.5-0.8-0.6-1.4-0.8c-0.2-0.1-0.3-0.1-0.4-0.2
			c-1-0.6-1.2-1.6-1.8-2.6c-0.7-1-2-1.8-3-2.4c-0.5-0.4-1.5-1-2.2-0.7c-0.1,0-0.2,0.1-0.3,0.2c-0.3,0.4-0.3,1-0.4,1.4
			c-0.1,0.3-0.2,0.5-0.4,0.7c-0.1,0.2-0.3,0.3-0.5,0.5c-0.4,0.4-0.8,0.6-0.6,1.1c0.1,0.3,0.3,0.5,0.5,0.7c0.2,0.2,0.3,0.5,0.4,0.8
			c0.1,0.6,0,1.2-0.2,1.7c-0.2,0.5-0.6,1-1.1,1.3c-0.5,0.4-1.2,0.6-1.8,0.8c-0.6,0.1-1.3,0.1-1.9,0c-0.3-0.1-0.6-0.2-1-0.2
			c-0.3-0.1-0.7-0.1-1.1-0.1C57.7,31.2,57,31.4,56.4,31.8z"/>
		<path class="st1" d="M57.6,30.8c-0.7,0.5-0.6,1.2-0.7,1.8c0,0.4,0.1,0.9-0.6,0.9c-0.9,0.2-1.7,0.6-2.3,1.2
			c-0.7,0.5-1.3,1.1-1.8,1.8c-0.4,0.7-0.7,1.5-0.9,2.3l-0.2,0.9c-0.1,0.6-0.1,1.3,0,1.9c0.1,0.4,0.1-0.1,0.1,0.3
			c0.3,0.9,1,1.7,1.6,2.5c0.4,0.6,0.7,1.2,1,1.8l0.1,0.2c0.2,0.6,0.4,1.2,0.6,1.8l0.1,0.4c0.4,1.4-0.4,2.2-0.6,3.5l0,0.3
			c-0.1,0.7-0.1,1.5,0,2.2c0,0.5,0.1,1,0.4,1.4c0.2,0.3,0.6,0.5,0.9,0.6c0.7,0.2,1.3,0.3,2,0.4c1.3,0.1,2.5,0.5,3.6,1.2
			c0.1,0.1,0.2,0.2,0.3,0.3c0.9,0.8,1.7,1.8,2.4,2.9c0.2,0.2,0.3,0.5,0.4,0.7c0.4,0.6,0.8,1.1,1.2,1.7c0.1,0.1,0.1,0.2,0.2,0.3
			c0.2,0.4,0.4,0.8,0.6,1.3c0.3,0.8,1.1,1,2,1.1h0.1c1.5,0.3,2.9,0.5,4.4,0.6c1.1,0,2.3-0.2,3.2-0.8c0.5-0.4,0.9-1,1.1-1.6
			c0.1-0.5,0.2-0.9,0.3-1.4c0.1-0.4,0.3-0.8,0.5-1.1c0.3-0.3,0.6-0.6,1-0.8c0.2-0.1,0.4-0.3,0.5-0.5c0.5-0.6,0.4-1.3,0.7-2.1
			c0,0,0-0.1,0.1-0.1c0.4-0.8,1.3-1.4,1.6-2.4c0.1-0.2,0.1-0.4,0-0.6c-0.1-0.4-0.2-0.9-0.1-1.3c0.1-0.7,0.3-1.4,0.7-2.1
			c0.6-1.3,1.7-2.3,2.9-2.9c1.1-0.6,2.2-0.8,3.3-1.3c0.5-0.3,1-0.6,1.4-0.9c0.4-0.3,0.9-0.8,1.3-1.1c0.8-0.7,1.5-1.5,2.1-2.4
			c0.7-1.2,1-2.5,0.7-3.9c-0.1-0.4-0.3-0.8-0.6-1c-0.3-0.3-0.7-0.4-1.1-0.5c-0.3,0-0.5,0-0.8,0c-0.2,0-0.5,0-0.7,0
			c-0.7-0.1-1.3-0.3-1.9-0.6c-0.2,0-0.4-0.1-0.5-0.1c-1-0.1-2.1,0-3.2-0.3c-0.1,0-0.2-0.1-0.3-0.1c-0.4-0.2-0.8-0.4-1.1-0.7
			c-0.1-0.1-0.2-0.2-0.3-0.3c-0.3-0.3-0.7-0.8-1.2-0.8c-0.1,0-0.2,0-0.3,0c-0.7,0.2-0.8,1.6-1.4,2.2c-0.1,0.1-0.2,0.2-0.4,0.3
			c-0.3,0.2-0.6,0.2-0.9,0.2c-0.3,0-0.6-0.1-0.8-0.3c-0.1-0.1-0.2-0.3-0.3-0.4c-0.1-0.5-0.3-1-0.6-1.5c-0.2-0.2-0.4-0.5-0.6-0.6
			c-0.7-0.6-1.4-1.4-1.4-2.5c0-0.9,0.7-1.8,0.7-2.6c0-0.2,0-0.4-0.1-0.6c0-0.2-0.1-0.3-0.2-0.5c-0.2-0.4-0.9-0.5-1.5-0.8
			c-0.2-0.1-0.3-0.1-0.4-0.2c-1-0.6-1.2-1.7-1.9-2.7c-0.8-0.9-1.7-1.7-2.8-2.3c-0.5-0.3-1.4-0.9-2-0.7c-0.1,0-0.2,0.1-0.3,0.2
			c-0.3,0.3-0.4,0.7-0.5,1.1c-0.1,0.2-0.2,0.4-0.4,0.5c-0.1,0.1-0.3,0.2-0.4,0.3c-0.4,0.2-0.7,0.4-0.6,0.8c0.1,0.2,0.2,0.4,0.2,0.6
			c0.1,0.2,0.2,0.5,0.3,0.7c0,0.5-0.1,1.1-0.3,1.6c-0.2,0.5-0.6,0.9-1,1.3c-0.9,0.8-2,1.2-3.2,1.1c-0.3,0-0.6-0.1-0.9-0.1
			c-0.3,0-0.6,0-1,0C58.7,30.2,58.1,30.5,57.6,30.8z"/>
		<path class="st1" d="M58.7,29.6c-0.8,0.6-0.5,1.6-0.3,2.2c0.1,0.5,0.4,1.1-0.5,1c-1.1-0.1-1.9,0.4-2.9,0.9c-0.9,0.4-1.7,1-2.3,1.8
			c-0.6,0.8-1,1.7-1.1,2.6c-0.1,0.3-0.2,0.7-0.3,1c-0.2,0.7-0.3,1.5-0.2,2.2c0.1,0.5,0-0.3,0.1,0.2c0.2,1.1,1,1.9,1.7,2.9
			c0.4,0.6,0.8,1.2,1,1.8l0.1,0.2c0.2,0.6,0.3,1.2,0.4,1.9c0,0.1,0,0.3,0.1,0.4c0.2,1.4-0.2,2.3-0.3,3.6c0,0.1,0,0.2,0,0.3
			C54,53.3,54,54,54,54.8c0,0.5,0.1,1,0.3,1.4c0.3,0.3,0.6,0.5,1,0.5c0.6,0.1,1.3,0.2,2,0.3c1.3,0.2,2.5,0.6,3.6,1.4l0.3,0.3
			c0.9,0.9,1.7,1.9,2.4,3c0.1,0.3,0.3,0.5,0.4,0.7c0.3,0.6,0.7,1.2,1.2,1.7c0.1,0.1,0.2,0.2,0.3,0.3c0.3,0.3,0.6,0.7,0.8,1.1
			c0.4,0.6,1.3,0.8,2.1,1h0.1c1.4,0.4,2.9,0.6,4.4,0.6c1.1,0,2.1-0.3,3-0.8c0.5-0.4,0.9-0.9,1.1-1.5c0.2-0.4,0.3-0.9,0.4-1.3
			c0.2-0.8,0.7-1.4,1.4-1.8c0.2-0.1,0.4-0.3,0.5-0.4c0.5-0.5,0.5-1.2,0.9-1.8l0.1-0.1c0.4-0.7,1.3-1.3,1.6-2.2c0-0.1,0.1-0.2,0-0.3
			c0-0.1-0.1-0.2-0.1-0.3c-0.2-0.4-0.3-0.9-0.3-1.3c0-0.8,0.1-1.5,0.3-2.3c0.2-0.7,0.5-1.4,1-2c0.5-0.6,1-1,1.7-1.4
			c1.1-0.5,2.4-0.7,3.5-1.2c0.6-0.3,1.1-0.6,1.5-1c0.5-0.4,0.9-0.8,1.4-1.2c0.9-0.7,1.7-1.5,2.3-2.5c0.6-1.2,0.9-2.6,0.6-4
			c0-0.4-0.2-0.8-0.4-1.1c-0.2-0.3-0.5-0.6-0.9-0.8c-0.2-0.1-0.5-0.2-0.7-0.2c-0.2-0.1-0.4-0.1-0.6-0.2c-0.6-0.2-1.1-0.7-1.7-1
			c-0.2-0.1-0.3-0.2-0.5-0.2c-1-0.4-2-0.5-3-1c-0.1-0.1-0.2-0.1-0.3-0.2c-0.4-0.2-0.7-0.5-1.1-0.8c-0.1-0.1-0.2-0.2-0.3-0.3
			c-0.3-0.3-0.7-0.8-1.1-0.9c-0.1,0-0.2,0-0.3,0C82.2,33,82,34.4,81.6,35c-0.1,0.1-0.2,0.2-0.3,0.3c-0.2,0.2-0.5,0.3-0.8,0.4
			c-0.3,0.1-0.6,0.1-0.9,0.1c-0.1,0-0.3-0.1-0.4-0.2c-0.4-0.2-0.8-0.5-1.2-0.8c-0.2-0.2-0.4-0.3-0.7-0.5c-0.4-0.2-0.8-0.6-1-1.1
			c-0.2-0.4-0.4-0.9-0.3-1.5c0.1-0.8,0.9-1.9,0.8-2.6c-0.1-0.2-0.2-0.4-0.3-0.5c-0.1-0.1-0.2-0.2-0.3-0.4c-0.5-0.3-1-0.6-1.5-0.7
			c-0.2-0.1-0.3-0.2-0.4-0.3c-0.9-0.6-1.2-1.8-1.9-2.7c-0.7-0.9-1.5-1.6-2.4-2.1C69.3,22.2,68.6,22,68,22c-0.1,0-0.2,0.1-0.3,0.1
			c-0.3,0.2-0.4,0.5-0.6,0.7c-0.1,0.1-0.3,0.2-0.4,0.3c-0.1,0.1-0.3,0.1-0.4,0.2c-0.4,0.1-0.6,0.1-0.6,0.4c0,0.1,0,0.2,0,0.4
			c0,0.2,0,0.4,0,0.6c-0.1,1-0.5,1.9-1.2,2.6c-0.3,0.4-0.8,0.7-1.2,0.9c-0.4,0.2-0.9,0.4-1.4,0.5c-0.2,0-0.5,0.1-0.7,0.1
			c-0.3,0-0.6,0.1-0.8,0.1C59.7,29,59.2,29.3,58.7,29.6z"/>
		<path class="st1" d="M59.8,28.6c-0.8,0.8-0.2,1.9,0.1,2.7c0.2,0.6,0.7,1.3-0.4,1.1c-1.3-0.2-2.2,0.1-3.4,0.6
			c-1.1,0.3-2.1,0.9-2.9,1.7c-0.7,0.8-1.2,1.8-1.4,2.9c-0.1,0.4-0.3,0.8-0.4,1.1c-0.3,0.8-0.4,1.6-0.4,2.5c0.1,0.6,0-0.5,0.1,0.1
			c0.2,1.3,1.1,2.2,1.8,3.2c0.4,0.6,0.8,1.2,1,1.8c0,0.1,0,0.1,0.1,0.2c0.2,0.6,0.2,1.3,0.2,1.9c0,0.1,0,0.3,0,0.4
			c0.1,1.2,0.1,2.4,0,3.6c0,0.1,0,0.2,0,0.3c0,0.7-0.1,1.5,0,2.2c0,0.5-0.1,1.1,0.3,1.4c0.3,0.3,0.6,0.4,1,0.4
			c0.7,0.1,1.3,0,2.1,0.2c1.3,0.2,2.5,0.8,3.5,1.6c0.1,0.1,0.2,0.2,0.3,0.3c1,0.9,1.8,1.9,2.4,3c0.1,0.3,0.3,0.5,0.4,0.8
			c0.3,0.7,0.7,1.2,1.2,1.7c0.1,0.1,0.2,0.2,0.3,0.2c0.4,0.3,0.8,0.6,1.1,0.9c0.7,0.5,1.4,0.8,2.2,1h0.1c1.4,0.5,3,0.7,4.5,0.6
			c1-0.1,1.9-0.4,2.8-0.9c0.5-0.3,0.8-0.8,1.1-1.4c0.2-0.4,0.3-0.8,0.4-1.1c0.2-0.7,0.7-1.4,1.3-1.8c0.2-0.1,0.3-0.3,0.5-0.4
			c0.4-0.5,0.8-1,1.1-1.6l0.1-0.1c0.4-0.6,1.3-1.2,1.5-1.9c0.1-0.4,0-0.4-0.1-0.6c-0.2-0.4-0.4-0.9-0.5-1.3c-0.1-0.8-0.1-1.6,0-2.5
			c0.2-1.5,0.7-3,2.4-3.7c1.2-0.5,2.5-0.6,3.7-1c0.6-0.3,1.1-0.6,1.6-1c0.5-0.4,0.9-0.8,1.4-1.2c1-0.7,1.8-1.5,2.4-2.5
			c0.6-1.3,0.8-2.7,0.6-4.1c0-0.8-0.3-1.6-0.9-2.3c-0.2-0.2-0.4-0.4-0.6-0.5c-0.2-0.1-0.4-0.3-0.6-0.4c-0.5-0.4-1-0.9-1.6-1.4
			c-0.1-0.1-0.3-0.2-0.5-0.3c-0.9-0.6-2-1-2.9-1.6c-0.1-0.1-0.2-0.2-0.3-0.2c-0.4-0.3-0.7-0.6-1.1-1l-0.3-0.3
			c-0.3-0.3-0.7-0.9-1.1-1c-0.1,0-0.2-0.1-0.3-0.1c-0.7,0.1-0.9,1.5-1.2,2.3c-0.1,0.1-0.1,0.3-0.2,0.4c-0.4,0.5-1,0.9-1.6,1.1
			c-0.2,0.1-0.4,0.1-0.6,0.1c-0.6,0.1-1.2,0-1.7-0.2c-0.3-0.1-0.5-0.2-0.8-0.4c-0.5-0.2-0.9-0.6-1.1-1c-0.3-0.5-0.3-1-0.3-1.5
			c0.1-0.7,1.1-1.9,0.8-2.6c-0.1-0.2-0.3-0.3-0.5-0.4l-0.4-0.3c-0.4-0.3-1-0.4-1.6-0.6c-0.1-0.1-0.3-0.2-0.4-0.3
			c-0.9-0.7-1.2-1.9-1.9-2.8c-0.6-0.8-1.4-1.4-2.2-1.9c-0.5-0.3-1.1-0.6-1.7-0.6c-0.1,0-0.2,0-0.3,0c-0.3,0.1-0.5,0.2-0.7,0.3
			c-0.1,0-0.3,0.1-0.4,0.1c-0.1,0-0.3,0-0.4,0c-0.3,0-0.6-0.1-0.7,0.1c-0.1,0-0.1,0.1-0.2,0.2c-0.1,0.1-0.1,0.3-0.2,0.4
			c-0.2,0.8-0.6,1.6-1.1,2.3c-0.3,0.4-0.6,0.7-0.9,1c-0.3,0.3-0.7,0.5-1,0.7c-0.2,0.1-0.4,0.2-0.6,0.2c-0.2,0.1-0.4,0.1-0.7,0.3
			C60.7,27.9,60.2,28.2,59.8,28.6z"/>
		<path class="st1" d="M60.1,27.2c-0.8,1,0,2.3,0.4,3.2c0.4,0.7,1.1,1.6-0.3,1.3c-1.5-0.4-2.6-0.1-4,0.3c-1.3,0.3-2.5,0.9-3.5,1.7
			c-1,0.9-1.3,2-1.7,3.2c-0.1,0.4-0.3,0.8-0.5,1.3C50.2,39,50,40,50,41c0.1,0.8,0-0.7,0,0.1c0.1,1.5,1.2,2.5,2,3.7
			c0.4,0.6,0.8,1.2,1.1,1.9c0,0.1,0,0.1,0.1,0.2c0.1,0.7,0.1,1.4-0.1,2c0,0.1,0,0.3,0,0.4c0,1.3,0.2,2.5,0.2,3.8c0,0.1,0,0.2,0,0.3
			c0,0.8,0,1.6-0.1,2.3c0,0.5-0.1,1.1,0.2,1.5c0.2,0.1,0.4,0.2,0.6,0.3c0.2,0.1,0.4,0.1,0.6,0c0.7-0.1,1.4,0,2.2,0.1
			c1.3,0.3,2.6,0.9,3.6,1.8c0.1,0.1,0.2,0.2,0.3,0.3c1,0.9,1.8,2,2.4,3.2c0.1,0.3,0.3,0.6,0.4,0.8c0.2,0.7,0.7,1.3,1.3,1.8
			c0.1,0.1,0.2,0.1,0.4,0.2c0.5,0.2,1,0.5,1.5,0.7c0.8,0.4,1.6,0.7,2.4,0.9H69c1.5,0.5,3,0.9,4.6,0.6c0.9-0.1,1.8-0.4,2.7-1
			c0.5-0.3,0.8-0.7,1.1-1.2c0.2-0.4,0.3-0.7,0.5-1.1c0.2-0.7,0.7-1.3,1.2-1.8c0.2-0.1,0.3-0.3,0.5-0.4c0.5-0.4,0.9-0.9,1.3-1.3
			c0,0,0-0.1,0.1-0.1c0.4-0.5,1.3-1.1,1.6-1.8c0.1-0.4,0-0.4-0.2-0.6c-0.3-0.4-0.5-0.9-0.6-1.4c-0.2-0.9-0.3-1.8-0.4-2.7
			c0-1.7,0.4-3.4,2.2-4.2c1.3-0.5,2.7-0.4,4.1-0.9c0.6-0.3,1.2-0.6,1.7-1.1c0.5-0.4,1-0.9,1.6-1.3c1.1-0.6,2-1.5,2.6-2.6
			c0.7-1.3,0.6-2.8,0.5-4.3c0-0.9-0.2-1.9-0.5-2.7c-0.2-0.3-0.4-0.6-0.6-0.8c-0.2-0.2-0.4-0.4-0.6-0.6c-0.5-0.6-0.9-1.2-1.4-1.8
			c-0.1-0.2-0.3-0.3-0.4-0.5c-0.9-0.9-1.9-1.5-2.8-2.3c-0.1-0.1-0.2-0.2-0.3-0.3c-0.4-0.3-0.7-0.7-1-1.1L86,29.5
			c-0.3-0.4-0.7-0.8-1.1-1.2c-0.1-0.1-0.2-0.1-0.3-0.1c-0.7,0-0.9,1.6-1.2,2.4c0,0.2-0.1,0.3-0.2,0.5c-0.4,0.7-1,1.3-1.6,1.8
			c-0.2,0.2-0.5,0.3-0.7,0.4c-0.7,0.3-1.6,0.5-2.4,0.4c-0.3,0-0.6-0.1-0.9-0.2c-0.5-0.2-1-0.5-1.2-1c-0.3-0.5-0.3-1-0.2-1.6
			c0.2-0.7,1.4-2,0.9-2.6c-0.2-0.2-0.4-0.3-0.7-0.4c-0.2-0.1-0.4-0.1-0.6-0.2c-0.6-0.2-1.2-0.4-1.7-0.6c-0.2-0.1-0.3-0.2-0.5-0.3
			c-0.9-0.8-1.3-2-1.9-2.9c-0.5-0.7-1.2-1.3-2-1.7c-0.5-0.3-1-0.5-1.5-0.6h-0.3c-0.3,0-0.6,0-0.8-0.1c-0.1,0-0.3-0.1-0.4-0.1
			l-0.4-0.1c-0.2-0.1-0.5-0.2-0.7-0.3c-0.1,0-0.3,0-0.4,0c-0.2,0.1-0.3,0.2-0.4,0.3c-0.3,0.5-0.7,1.4-1,2.1
			c-0.2,0.4-0.4,0.8-0.6,1.1c-0.2,0.3-0.5,0.6-0.8,0.9c-0.2,0.1-0.3,0.3-0.5,0.4c-0.2,0.1-0.4,0.2-0.6,0.4
			C60.8,26.5,60.5,26.8,60.1,27.2z"/>
		<path class="st1" d="M50,40.8c0.1,1.6,1.3,2.8,2.1,4c0.5,0.6,0.9,1.3,1.1,2.1c0.2,0.8-0.1,1.3-0.3,2.1c-0.3,1.5,0.4,3.1,0.4,4.6
			c0,0.8,0,1.5-0.1,2.3c0,0.5-0.2,1.1,0.2,1.5c0.4,0.4,0.9,0.2,1.3,0.2c0.7-0.1,1.5-0.1,2.2,0c1.4,0.4,2.6,1.1,3.6,2
			c1.2,1,2.1,2.1,2.8,3.5c0.5,1.2,0.6,2.3,2.1,2.7c1.5,0.4,2.9,0.9,4.4,1.4c1.6,0.6,3,1,4.7,0.7c1.4-0.3,2.8-0.9,3.6-2.1
			c0.8-1.2,0.9-2.2,2.1-3c0.5-0.4,1.1-0.7,1.6-1.1c0.5-0.4,1.4-0.9,1.6-1.5c0.2-0.4,0-0.4-0.2-0.7c-0.4-0.4-0.6-0.9-0.8-1.4
			c-0.8-2.4-1.8-6.2,1.3-7.4c1.4-0.5,3-0.3,4.4-0.8c1.4-0.5,2.3-1.6,3.5-2.4c1.2-0.8,2.2-1.4,2.9-2.6c0.8-1.4,0.4-2.8,0.5-4.3
			c0-1.5,0.2-2.8-0.8-4.2c-0.8-1.2-1.4-2.5-2.2-3.6c-0.9-1.1-2.1-2.1-3-3.3c-0.4-0.5-0.8-1.1-1.2-1.6c-0.3-0.4-0.8-1.4-1.4-1.4
			c-0.9-0.1-1,2.4-1.2,3c-0.5,1.3-1.3,2.3-2.5,3c-1.1,0.7-2.8,1.2-4.1,0.9c-0.3-0.1-0.5-0.2-0.8-0.3c-0.2-0.2-0.4-0.4-0.6-0.6
			c-0.1-0.2-0.2-0.5-0.3-0.8c0-0.3,0-0.6,0.1-0.8c0.2-0.6,1.7-2,1-2.6c-0.5-0.2-1-0.3-1.6-0.4c-0.6-0.1-1.2-0.3-1.8-0.6
			C73.5,26.5,73,25,72.2,24c-0.8-1-1.9-1.7-3.1-2.1c-0.6-0.2-1.2-0.5-1.7-0.9c-0.5-0.4-1.1-1.1-1.8-1.1c-1.2,0-1.6,2.4-1.9,3.3
			c-0.2,0.6-0.5,1.2-0.9,1.7c-0.4,0.5-1,0.9-1.4,1.4c-0.8,1.2,0.2,2.5,0.8,3.5c0.5,0.8,1.4,1.8-0.2,1.4c-1.5-0.4-3.1-0.4-4.7,0.1
			C56,31.7,54.6,32,53.4,33c-1.2,1-1.6,2.1-2.1,3.4C50.8,37.8,49.9,39.2,50,40.8C50.1,41.7,50,39.9,50,40.8z"/>
		<path class="st1" d="M59.3,27c-0.8,1.1,0.1,2.4,0.6,3.3c0.4,0.7,1.2,1.6-0.2,1.3c-0.8-0.2-1.7-0.2-2.6,0c-0.4,0.1-0.9,0.2-1.4,0.4
			c-1.3,0.3-2.5,0.9-3.6,1.7c-1,0.9-1.4,1.9-1.9,3.2l-0.1,0.3c-0.5,1.2-1.2,2.4-1.1,3.8c0,0.8-0.1-0.7,0,0.1c0.1,1.5,1,2.6,1.8,3.8
			c0.5,0.7,1,1.4,1.3,2.2c0.1,0.4,0.1,0.8,0.1,1.2c0,0.3-0.1,0.6-0.2,1c0,0.2-0.1,0.4-0.1,0.5c0,0.6,0,1.2,0.2,1.7
			c0.3,0.9,0.4,1.7,0.5,2.6c0,0.3,0,0.6,0,0.9c0,0.5-0.1,1.1-0.2,1.6c-0.1,0.5-0.3,1.2,0.1,1.6c0.2,0.1,0.4,0.2,0.6,0.3
			c0.2,0.1,0.4,0.1,0.7,0c0.8-0.1,1.5-0.1,2.3,0c1.3,0.3,2.5,0.9,3.5,1.7l0.3,0.2c0.9,0.8,1.7,1.7,2.3,2.7c0.2,0.3,0.3,0.7,0.5,1
			c0.1,0.2,0.1,0.4,0.2,0.6c0.1,0.5,0.3,1,0.6,1.4c0.2,0.3,0.5,0.5,0.9,0.6c0.1,0,0.3,0.1,0.4,0.1c0.6,0.1,1.1,0.2,1.7,0.3
			c0.6,0.1,1.2,0.3,1.8,0.5c0.4,0.1,0.7,0.3,1.1,0.4c0.4,0.2,0.6,0.2,0.8,0.3c1.3,0.5,2.7,0.6,4.1,0.4c1-0.1,1.9-0.5,2.8-1.1
			c0.5-0.4,0.9-0.9,1.1-1.4c0.1-0.2,0.2-0.4,0.3-0.6c0.4-0.8,1-1.4,1.7-1.9c0.2-0.1,0.4-0.2,0.6-0.3c0.2-0.1,0.4-0.1,0.6-0.2
			c0.3-0.1,0.7-0.2,1-0.4l0.2-0.1c0.2-0.2,0.5-0.4,0.7-0.7c0.4-0.3,0.7-0.7,1-1.2c0.2-0.4,0.1-0.4-0.1-0.6C84,60,83.8,59.5,83.7,59
			c-0.1-0.7-0.2-1.5-0.2-2.3c-0.1-1.8,0.2-3.6,1.7-4.7c0.2-0.1,0.4-0.3,0.6-0.4c1.1-0.6,2.2-0.7,3.3-1.1l0.5-0.2
			c0.5-0.3,0.9-0.6,1.3-1c0.5-0.5,0.8-1,1.2-1.4c0.1-0.1,0.1-0.2,0.2-0.2c0.9-0.8,1.9-1.6,2.4-2.9c0.3-0.7,0.4-1.5,0.3-2.3
			c0-0.6-0.1-1.4-0.1-2.1v-0.6c0-1.3,0-2.4-0.9-3.7c-0.8-1.2-1.4-2.5-2.3-3.7c-0.4-0.5-0.8-0.9-1.2-1.3c-0.7-0.6-1.3-1.3-1.9-2
			c-0.4-0.6-0.8-1.1-1.2-1.7c-0.3-0.4-0.8-1.3-1.3-1.5c-0.5-0.1-0.9,0.7-1.1,1.4c-0.1,0.4-0.2,0.7-0.4,1.1c-0.5,1.2-1.4,2.3-2.4,3
			c-0.5,0.4-1.1,0.7-1.6,0.8c-0.5,0.1-1,0.1-1.5,0c-0.2,0-0.4-0.1-0.5-0.2c-0.4-0.2-0.8-0.4-1-0.8c-0.3-0.3-0.4-0.8-0.5-1.2
			c0-0.1,0-0.3,0-0.4c0.1-0.3,0.5-0.9,0.6-1.5c0-0.1,0-0.2,0-0.4c0-0.1-0.1-0.2-0.2-0.3c-0.5-0.2-1-0.3-1.6-0.3l-0.3-0.1
			c-0.5-0.1-1-0.3-1.4-0.6c-1.1-0.7-1.6-2.2-2.4-3.2c-0.6-0.7-1.3-1.3-2.2-1.7c-0.4-0.2-0.9-0.5-1.4-0.7c-0.4-0.2-0.7-0.3-1-0.5
			c-0.4-0.1-0.6-0.2-0.9-0.3c-0.3-0.1-0.7-0.3-1-0.4c-0.3-0.1-0.5-0.1-0.8,0c-0.5,0.3-1,0.8-1.2,1.4c-0.4,0.7-0.8,1.4-1,2.2
			c0,0.1,0,0.1-0.1,0.2c-0.1,0.3-0.1,0.5-0.2,0.8c-0.2,0.4-0.4,0.8-0.7,1l-0.1,0.1c-0.4,0.3-0.7,0.5-1.2,0.7
			C59.7,26.6,59.4,26.7,59.3,27z"/>
		<path class="st1" d="M58,27.6c-0.7,1,0,2.1,0.5,3c0.3,0.6,0.9,1.4-0.1,1.3c-0.7-0.1-1.5,0-2.1,0.3c-0.4,0.1-0.8,0.3-1.2,0.5
			c-1.1,0.4-2.2,0.9-3.1,1.7c-0.8,0.8-1.4,1.8-1.7,2.8l-0.1,0.3c-0.5,1.1-1.1,2.1-1.1,3.4c0,0.6-0.1-0.5,0,0.2
			c0,1.3,0.8,2.3,1.6,3.4c0.6,0.7,1,1.5,1.4,2.3c0.1,0.4,0.2,0.8,0.2,1.2c0,0.4-0.1,0.7-0.2,1.1c0,0.2-0.1,0.4-0.1,0.6
			c0,0.6,0.1,1.2,0.3,1.8c0.5,1.1,0.7,2.4,0.5,3.7c-0.1,0.6-0.2,1.1-0.4,1.6c-0.1,0.6-0.4,1.3,0,1.7c0.2,0.2,0.4,0.3,0.6,0.3
			c0.2,0.1,0.5,0.1,0.7,0.1c0.8,0,1.6,0,2.4,0c1.4,0.2,2.6,0.8,3.7,1.7l0.3,0.2c1,0.8,1.8,1.7,2.3,2.8c0.2,0.3,0.3,0.7,0.5,1.1
			c0.1,0.2,0.1,0.4,0.2,0.6c0.1,0.5,0.3,1,0.5,1.4c0.2,0.3,0.6,0.4,1,0.5c0.1,0,0.3,0,0.4,0c0.6,0,1.1,0,1.7,0.1
			c0.7,0.1,1.3,0.2,1.9,0.4c0.4,0.1,0.8,0.3,1.1,0.5c0.3,0.1,0.6,0.3,0.8,0.4c1.3,0.5,2.8,0.7,4.2,0.4c1.1-0.1,2.2-0.5,3.1-1.1
			c0.5-0.5,0.9-1,1.1-1.6c0.1-0.2,0.2-0.4,0.4-0.6c0.5-0.8,1.2-1.5,2.2-1.8c0.2,0,0.5-0.1,0.7-0.1c0.2,0,0.5,0,0.7,0
			c0.4,0.1,0.8,0,1.1-0.1c0.1,0,0.1-0.1,0.2-0.1c0.3-0.3,0.6-0.5,0.8-0.8c0.4-0.4,0.8-0.8,1.1-1.3c0.2-0.3,0.1-0.4,0-0.6
			c-0.1-0.4-0.2-0.9-0.1-1.3c0-0.6,0.1-1.4,0.2-2.1c0.2-1.6,0.6-3.4,2.1-4.5c0.2-0.1,0.4-0.3,0.6-0.4c1.1-0.6,1.9-1,2.8-1.7l0.4-0.3
			c0.4-0.3,0.7-0.7,1-1.2c0.3-0.5,0.5-1,0.8-1.5c0-0.1,0.1-0.2,0.1-0.2c0.6-0.9,1.5-1.8,1.9-3c0.2-0.8,0.2-1.5,0.1-2.3
			c-0.1-0.6-0.2-1.4-0.2-2.1v-0.6c0-1.3-0.3-2.5-1-3.6c-0.8-1.2-1.5-2.5-2.4-3.6c-0.4-0.5-0.8-0.9-1.2-1.3c-0.7-0.6-1.3-1.3-1.9-2
			c-0.4-0.5-0.8-1.1-1.2-1.7c-0.3-0.4-0.7-1.3-1.2-1.4c-0.5-0.2-0.9,0.4-1.2,1c-0.2,0.4-0.3,0.7-0.5,0.9c-0.6,1.1-1.4,2.1-2.3,3
			c-0.4,0.4-0.9,0.7-1.5,0.9c-0.4,0-0.9-0.1-1.3-0.3c-0.2-0.1-0.3-0.1-0.4-0.2c-0.7-0.5-1.2-1.1-1.5-1.9c0-0.1-0.1-0.2-0.1-0.3
			c-0.1-0.2,0.2-0.6,0.2-1c0-0.1,0-0.2-0.1-0.3c-0.1-0.1-0.1-0.2-0.2-0.2c-0.5-0.2-1-0.3-1.5-0.3l-0.3-0.1c-0.5-0.1-0.9-0.3-1.3-0.6
			c-1-0.7-1.6-2.1-2.4-3.1c-0.7-0.8-1.6-1.5-2.5-2c-0.5-0.3-1-0.6-1.5-0.9c-0.4-0.2-0.8-0.4-1.2-0.5c-0.3-0.1-0.7-0.2-1-0.2
			c-0.4,0-0.7,0-1.1,0c-0.3,0-0.5,0.2-0.8,0.3c-0.5,0.5-0.9,1-1.2,1.6c-0.6,0.7-1,1.5-1.4,2.3c0,0.1,0,0.1-0.1,0.2
			c-0.1,0.3-0.1,0.6-0.2,0.9c-0.2,0.4-0.5,0.8-0.9,1.1l-0.1,0.1c-0.4,0.3-0.9,0.5-1.4,0.6C58.4,27.2,58.2,27.4,58,27.6z"/>
		<path class="st1" d="M56.6,27.8c-0.6,0.9,0,1.9,0.3,2.7c0.2,0.6,0.6,1.2-0.1,1.3c-0.6,0.1-1.1,0.2-1.6,0.6l-0.9,0.5
			c-0.9,0.5-1.8,1-2.5,1.7c-0.7,0.7-1.2,1.6-1.5,2.6L50,37.4c-0.5,0.9-0.8,1.9-1,2.9c0,0.5-0.1-0.3-0.1,0.2c0,1.2,0.6,2.1,1.3,3.1
			c0.6,0.7,1.1,1.5,1.5,2.4c0.2,0.4,0.3,0.8,0.3,1.3c0,0.4-0.1,0.8-0.2,1.1c0,0.2-0.1,0.4-0.1,0.6c0,0.7,0.1,1.3,0.4,1.9
			c0.5,0.9,0.7,1.9,0.7,2.9c0,0.3,0,0.6-0.1,1c-0.1,0.6-0.3,1.1-0.5,1.7c-0.2,0.6-0.4,1.3-0.1,1.8c0.2,0.2,0.3,0.3,0.6,0.4
			c0.2,0.1,0.4,0.1,0.7,0.1c0.8,0.1,1.7,0,2.4,0.1c1.4,0.2,2.7,0.8,3.8,1.6c0.1,0.1,0.2,0.2,0.3,0.2c1.3,1,2.3,2.4,2.7,4
			c0.1,0.2,0.1,0.4,0.2,0.6c0,0.5,0.2,1.1,0.5,1.5c0.1,0.1,0.3,0.2,0.5,0.3c0.2,0.1,0.4,0.1,0.5,0h0.5c0.6-0.1,1.2-0.1,1.7-0.1
			c0.7,0,1.3,0.1,2,0.3c0.4,0.1,0.8,0.3,1.1,0.5c0.3,0.1,0.5,0.3,0.8,0.4c1.4,0.5,2.9,0.7,4.3,0.5c1.2,0,2.4-0.4,3.3-1.2
			c0.5-0.5,0.9-1.2,1.1-1.9c0.1-0.3,0.2-0.5,0.4-0.7c0.3-0.5,0.6-0.8,1.1-1.1c0.4-0.3,0.9-0.5,1.5-0.5c0.3,0,0.5,0,0.7,0.1
			c0.3,0.1,0.5,0.1,0.8,0.2c0.4,0.1,0.7,0.3,1.2,0.1c0.1,0,0.1-0.1,0.2-0.1c0.3-0.3,0.6-0.6,0.8-1c0.4-0.5,0.8-1,1.2-1.4
			c0.1-0.1,0.1-0.2,0.2-0.3c0-0.1,0-0.2,0-0.3c0-0.4,0.1-0.9,0.2-1.3c0.2-0.6,0.4-1.3,0.5-2c0.4-1.6,1.2-3.1,2.4-4.2l0.5-0.5
			c0.8-0.6,1.6-1.3,2.2-2.2c0.1-0.1,0.2-0.2,0.3-0.4c0.3-0.4,0.5-0.8,0.7-1.3c0.2-0.5,0.3-1,0.3-1.5c0-0.1,0-0.2,0.1-0.3
			c0.3-1,1.2-2,1.4-3.2c0.1-0.8,0-1.6-0.2-2.3c-0.1-0.7-0.2-1.4-0.3-2.1l-0.1-0.6c0-1.3-0.4-2.5-1.1-3.6c-0.7-1.2-1.6-2.4-2.4-3.6
			c-0.4-0.5-0.8-0.9-1.2-1.3c-0.7-0.6-1.3-1.3-1.9-2c-0.4-0.5-0.8-1.1-1.1-1.7c-0.2-0.6-0.6-1.1-1.1-1.5c-0.5-0.3-0.9,0.1-1.3,0.6
			c-0.2,0.3-0.4,0.6-0.6,0.8c-0.7,1-1.4,2.2-2.2,3c-0.3,0.3-0.8,0.9-1.4,1s-0.8-0.3-1.1-0.5c-0.1-0.1-0.2-0.2-0.3-0.3
			c-0.5-0.5-1-1.4-1.5-1.8c-0.1-0.1-0.1-0.1-0.1-0.2c-0.2-0.1-0.1-0.3-0.3-0.6c-0.1-0.2-0.2-0.3-0.4-0.3c-0.4-0.2-1-0.2-1.5-0.3
			l-0.3-0.1c-0.5-0.1-0.9-0.4-1.3-0.6c-1-0.7-1.5-2-2.3-3c-0.8-0.9-1.7-1.6-2.8-2.1c-0.5-0.3-1.1-0.7-1.6-1
			c-0.4-0.2-0.8-0.4-1.3-0.5C66.2,19,65.8,19,65.4,19c-0.4,0-0.8,0.2-1.2,0.4c-0.3,0.2-0.5,0.4-0.7,0.6c-0.5,0.6-0.9,1.3-1.3,1.9
			c-0.6,0.9-1.4,1.5-1.7,2.4c0,0.1,0,0.2-0.1,0.2c0,0.3-0.1,0.7-0.2,1c-0.2,0.5-0.6,0.9-1.1,1.1c0,0-0.1,0.1-0.1,0.1
			c-0.5,0.2-1,0.4-1.6,0.4c-0.2,0-0.3,0-0.5,0.1C56.8,27.5,56.7,27.6,56.6,27.8z"/>
		<path class="st1" d="M54.5,28.8c-0.5,0.7-0.1,1.7,0.1,2.4c0.1,0.5,0.4,1-0.1,1.2c-0.5,0.2-0.9,0.5-1.2,0.8
			c-0.2,0.2-0.5,0.4-0.7,0.6c-0.7,0.5-1.4,1.1-2,1.7c-0.6,0.7-1,1.4-1.3,2.2L49,37.9c-0.5,0.8-0.8,1.7-0.9,2.6
			c0,0.4-0.1-0.1-0.1,0.3c0,1,0.3,1.9,1,2.7c0.6,0.8,1.2,1.6,1.7,2.4c0.2,0.4,0.3,0.9,0.4,1.3c0,0.4,0,0.8-0.1,1.2
			c0,0.2-0.1,0.4-0.1,0.6c0,0.7,0.1,1.4,0.5,1.9c0.6,0.9,0.8,1.9,0.8,2.9c0,0.3-0.1,0.7-0.1,1c-0.2,0.6-0.4,1.2-0.6,1.7
			c-0.2,0.6-0.5,1.3-0.1,1.8c0.2,0.2,0.3,0.3,0.6,0.4c0.2,0.1,0.5,0.2,0.7,0.2c0.8,0.1,1.8,0,2.6,0.1c1.5,0.1,2.9,0.7,4.1,1.5
			l0.4,0.3c1,0.8,1.9,1.8,2.4,3c0.2,0.4,0.3,0.8,0.4,1.2c0.1,0.2,0.1,0.4,0.1,0.7c0.1,0.5,0.1,1.2,0.5,1.6c0.2,0.1,0.3,0.2,0.5,0.2
			c0.2,0,0.4,0,0.6,0l0.5-0.1c0.6-0.1,1.2-0.2,1.8-0.3c1.1-0.1,2.3,0.2,3.2,0.8c0.3,0.2,0.6,0.3,0.9,0.5c1.4,0.7,3,0.5,4.5,0.5
			c1.3,0.1,2.7-0.4,3.7-1.3c0.5-0.6,0.9-1.3,1.1-2.1c0.1-0.3,0.3-0.5,0.4-0.8c0.3-0.5,0.8-0.9,1.3-1.1c0.5-0.3,1.1-0.4,1.7-0.4
			c0.3,0,0.6,0.1,0.8,0.2c0.3,0.1,0.6,0.3,0.9,0.4c0.4,0.2,0.8,0.6,1.4,0.3c0.1,0,0.2-0.1,0.2-0.1c0.3-0.3,0.6-0.7,0.8-1.1
			c0.4-0.5,0.9-1,1.3-1.5c0.2-0.2,0.3-0.4,0.3-0.6c0.1-0.4,0.3-0.8,0.6-1.2c0.3-0.6,0.6-1.2,1-1.9c0.7-1.5,1.6-2.9,2.9-4.1
			c0.2-0.2,0.4-0.3,0.5-0.5c0.8-0.7,1.3-1.6,1.7-2.6c0.1-0.1,0.1-0.3,0.2-0.4c0.2-0.5,0.4-0.9,0.5-1.4c0.1-0.5,0-1.1-0.2-1.6
			c0-0.1,0-0.2,0-0.3c0-1,0.9-2.1,1-3.4c0-0.8-0.1-1.5-0.4-2.3c-0.2-0.7-0.3-1.3-0.3-2l-0.1-0.6c-0.1-1.3-0.5-2.5-1.2-3.6
			c-0.8-1.2-1.6-2.4-2.6-3.5c-0.4-0.5-0.8-0.9-1.3-1.3c-0.7-0.6-1.3-1.3-1.9-2c-0.4-0.5-0.8-1.1-1.1-1.7c-0.2-0.5-0.6-1-1-1.5
			c-0.5-0.3-0.9-0.2-1.5,0.2c-0.3,0.2-0.5,0.4-0.7,0.6c-0.8,0.8-1.4,2.1-2.2,2.9c-0.3,0.3-0.8,1-1.3,1.1s-0.7-0.5-0.9-0.7
			c-0.1-0.1-0.2-0.2-0.3-0.4c-0.4-0.6-0.8-1.5-1.4-1.7c-0.1,0-0.2,0-0.2,0c-0.3,0-0.5-0.1-0.8-0.2c-0.2-0.1-0.3-0.2-0.5-0.2
			c-0.4-0.1-1-0.2-1.4-0.3l-0.3-0.1c-0.4-0.1-0.8-0.4-1.2-0.6c-0.9-0.7-1.6-1.9-2.3-2.8c-0.9-1-1.9-1.7-3.1-2.3
			c-0.6-0.3-1.2-0.8-1.8-1.2c-0.4-0.3-0.9-0.5-1.4-0.6c-0.4-0.1-0.9,0-1.3,0.1c-0.5,0.1-0.9,0.4-1.3,0.8c-0.2,0.3-0.5,0.6-0.7,0.9
			c-0.4,0.6-0.8,1.5-1.3,2.2c-0.6,0.9-1.8,1.5-2.1,2.5c0,0.1-0.1,0.2-0.1,0.3c0,0.4-0.1,0.7-0.2,1.1c-0.3,0.5-0.7,0.9-1.3,1.2
			l-0.1,0.1c-0.6,0.2-1.2,0.3-1.9,0.3c-0.2,0-0.4,0-0.6,0C54.7,28.5,54.6,28.6,54.5,28.8z"/>
		<path class="st1" d="M53.1,29.2c-0.4,0.6-0.2,1.5-0.1,2.1c0,0.5,0.1,0.9-0.1,1.2c-0.3,0.3-0.5,0.7-0.7,1.1
			c-0.1,0.2-0.3,0.5-0.5,0.7c-0.5,0.6-1,1.1-1.4,1.8c-0.4,0.6-0.8,1.2-1.1,1.9L49,38.2c-0.4,0.7-0.7,1.4-0.9,2.2
			c0,0.3-0.1,0.1-0.1,0.4c-0.1,0.9,0.2,1.7,0.7,2.4c0.5,0.8,1.3,1.6,1.8,2.6c0.2,0.4,0.4,0.9,0.5,1.4c0,0.4,0,0.9-0.1,1.3
			c0,0.2-0.1,0.5-0.1,0.7c0,0.7,0.2,1.4,0.6,2c0.6,0.9,1,2,0.9,3.1c0,0.4-0.1,0.7-0.2,1.1c-0.2,0.6-0.5,1.2-0.8,1.8
			c-0.3,0.7-0.6,1.4-0.2,2c0.1,0.2,0.3,0.4,0.5,0.5c0.2,0.1,0.5,0.2,0.7,0.3c0.8,0.1,1.7,0.1,2.6,0.1c1.5,0.1,2.9,0.6,4.1,1.5
			l0.4,0.3c1.1,0.8,1.9,1.9,2.4,3.2c0.2,0.4,0.3,0.8,0.4,1.3c0.1,0.2,0.1,0.5,0.1,0.7c0.1,0.5,0,1.3,0.5,1.7
			c0.5,0.4,0.8,0.2,1.2,0.1l0.5-0.1c0.6-0.2,1.2-0.4,1.9-0.4c0.7-0.1,1.4,0,2.1,0.2c0.4,0.2,0.8,0.4,1.2,0.6
			c0.3,0.2,0.6,0.4,0.8,0.5c1.4,0.7,3,0.5,4.6,0.5c1.4,0,2.8-0.3,3.9-1.4c0.6-0.7,0.8-1.5,1.1-2.4c0.3-0.8,0.8-1.4,1.5-1.8
			c0.7-0.4,1.5-0.5,2.3-0.4c0.3,0.1,0.6,0.2,0.9,0.4c0.3,0.2,0.6,0.4,0.9,0.6c0.4,0.3,0.8,0.8,1.4,0.6c0.1,0,0.2-0.1,0.3-0.1
			c0.3-0.4,0.6-0.8,0.9-1.2c0.4-0.6,0.9-1.2,1.3-1.7c0.2-0.2,0.3-0.4,0.5-0.6c0.3-0.4,0.6-0.8,0.9-1.1c0.4-0.6,0.9-1.2,1.3-1.8
			c0.9-1.4,2-2.8,3.1-4c0.2-0.2,0.3-0.4,0.5-0.5c0.8-1,0.9-1.9,1.1-3.2c0-0.2,0.1-0.3,0.1-0.5c0.1-0.5,0.2-1.1,0.2-1.7
			c-0.1-0.6-0.3-1.2-0.6-1.7c0-0.1-0.1-0.2-0.1-0.3c-0.3-1.1,0.5-2.3,0.5-3.6c-0.1-0.8-0.3-1.6-0.6-2.3c-0.2-0.7-0.3-1.4-0.4-2.1
			c0-0.2,0-0.4-0.1-0.6c-0.1-1.3-0.5-2.5-1.2-3.6c-0.7-1.3-1.6-2.4-2.6-3.5c-0.4-0.5-0.8-0.9-1.3-1.3c-0.7-0.6-1.3-1.3-1.9-2
			c-0.4-0.5-0.8-1.1-1.1-1.7c-0.2-0.5-0.5-1.1-0.9-1.5c-0.2-0.2-0.5-0.3-0.8-0.4s-0.6,0-0.8,0.2c-0.3,0.1-0.6,0.3-0.8,0.5
			c-0.8,0.8-1.4,2.1-2.1,2.9c-0.2,0.2-0.7,1.1-1.1,1.2c-0.4,0-0.6-0.7-0.7-1c-0.1-0.1-0.1-0.3-0.2-0.4c-0.3-0.7-0.6-1.7-1.4-1.6
			c-0.1,0-0.2,0-0.3,0c-0.4,0.2-0.8,0.2-1.2,0.3c-0.2,0-0.4-0.1-0.6-0.1c-0.5-0.1-0.9-0.2-1.4-0.3L75.3,26c-0.4-0.2-0.8-0.4-1.1-0.7
			c-0.8-0.8-1.6-1.7-2.2-2.7c-0.9-1.1-2.1-1.9-3.4-2.5c-0.6-0.4-1.3-0.9-1.9-1.4c-0.5-0.3-1-0.6-1.5-0.6c-0.5-0.1-1,0-1.4,0.2
			c-0.6,0.2-1,0.7-1.3,1.2c-0.2,0.4-0.4,0.8-0.6,1.3c-0.3,0.9-0.8,1.7-1.3,2.5c-0.7,1-2,1.5-2.4,2.7c0,0.1-0.1,0.2-0.1,0.3
			c0,0.4-0.1,0.8-0.2,1.2c-0.3,0.6-0.8,1.1-1.4,1.3l-0.2,0.1c-0.7,0.2-1.4,0.2-2.1,0.1C53.7,28.8,53.4,28.8,53.1,29.2z"/>
		<path class="st1" d="M47.4,42.6c0.8,1.3,2.3,2.6,2.6,4.1c0,0.7,0,1.4-0.2,2c0,0.8,0.2,1.5,0.6,2.1c0.5,0.6,0.8,1.3,1,2.1
			c0.2,0.8,0.1,1.6-0.1,2.3c-0.3,1.1-1.9,2.8-1.2,4c0.7,1.3,2.7,1,3.9,1c1.6,0.1,3.1,0.6,4.4,1.4c1.3,0.8,2.3,2.1,2.8,3.6
			c0.2,0.7,0.4,1.3,0.4,2c0,0.5,0,1.4,0.4,1.7c0.4,0.4,0.9,0.1,1.3-0.1c0.8-0.4,1.6-0.7,2.4-0.8c0.7-0.2,1.5-0.1,2.2,0.1
			c0.7,0.3,1.4,0.7,2.1,1.2c1.5,0.8,3.2,0.5,4.8,0.5c1.6,0,3.1-0.2,4.2-1.5c0.9-1,0.7-2.5,1.6-3.5c0.4-0.6,1-1,1.7-1.2
			c0.7-0.2,1.4-0.2,2.1,0c0.7,0.3,1.4,0.8,2,1.3c0.4,0.4,0.9,1.1,1.6,0.8s0.9-1,1.2-1.5c0.4-0.7,0.9-1.3,1.5-1.9
			c1.2-1.1,2.4-2.1,3.6-3.3c1.1-1.2,2.4-2.5,3.6-3.8c1.2-1.3,1.1-2.6,1.1-4.3c0-0.8,0-1.5,0-2.3c-0.2-0.7-0.6-1.3-1.1-1.8
			c-1-1.3,0-2.7-0.1-4.2c-0.2-0.8-0.5-1.6-0.8-2.3c-0.3-0.9-0.5-1.7-0.6-2.6c-0.6-3.3-3-6.2-5.3-8.4c-1.2-1.2-2.4-2.2-3-3.8
			c-0.5-1.1-1.1-2.4-2.5-2.2s-2.2,2.2-2.9,3.3c-0.1,0.2-0.6,1.3-1,1.2c-0.4,0-0.5-0.9-0.5-1.2c-0.1-0.9-0.2-2.4-1.4-2
			c-0.7,0.2-1.3,0.7-2.1,0.8c-0.8,0.1-1.6,0-2.3-0.3c-1.4-0.7-2.3-2.2-3.3-3.4c-1.1-1.3-2.3-1.9-3.7-2.7c-1.3-0.7-2.2-2.2-3.7-2.3
			c-0.6,0-1.3,0.1-1.8,0.5c-0.5,0.3-1,0.9-1.2,1.5c-0.6,1.4-0.9,3.1-1.9,4.4c-0.8,1.1-2.4,1.5-2.8,2.8c-0.1,0.6-0.2,1.1-0.3,1.6
			c-0.2,0.3-0.4,0.6-0.7,0.8c-0.3,0.2-0.6,0.4-0.9,0.5c-0.8,0.2-1.7,0.2-2.5,0c-0.5-0.1-0.9-0.2-1.3,0.3c-0.3,0.5-0.2,1.3-0.3,1.8
			c-0.1,0.9-0.2,1.7-0.4,2.6c-0.4,1.7-1.5,2.9-2.3,4.4C47.3,39.6,46.5,41.2,47.4,42.6z"/>
		<path class="st1" d="M51.8,28.9c-0.3,0.6-0.6,1.2-0.6,1.8c-0.2,0.9-0.4,1.8-0.7,2.8c-0.1,0.4-0.3,0.8-0.4,1.2
			c-0.3,0.9-0.8,1.7-1.4,2.4c-0.3,0.4-0.5,0.8-0.8,1.2c-0.3,0.5-0.5,1-0.7,1.5c-0.2,0.4-0.3,0.9-0.3,1.3c0,0.5,0.1,0.9,0.3,1.3
			c0.2,0.3,0,0.2,0.3,0.5c0.9,1.2,2.1,2.4,2.5,3.8c0,0.1,0.1,0.2,0.1,0.3c0.1,0.7,0.1,1.3,0,2c0,0.8,0.3,1.5,0.7,2.1
			c0.4,0.6,0.7,1.3,0.8,2.1c0.1,0.8,0,1.5-0.2,2.2c0,0.1-0.1,0.2-0.1,0.3c-0.5,1.1-1.7,2.5-0.9,3.6c0.8,1.2,2.7,0.9,3.9,1l0.6,0
			c1.3,0.1,2.6,0.6,3.8,1.4c0.3,0.2,0.6,0.4,0.8,0.6c0.9,0.8,1.6,1.8,1.9,2.9c0.1,0.3,0.2,0.6,0.3,1c0.1,0.3,0.1,0.7,0.2,1
			c0.1,0.5,0.1,1.3,0.6,1.6c0.2,0.1,0.4,0.2,0.6,0.2c0.2,0,0.4-0.1,0.6-0.2c0.8-0.3,1.6-0.6,2.4-0.8c0.7-0.2,1.5-0.2,2.2,0l0.3,0.1
			c0.6,0.3,1.2,0.6,1.7,1c0.7,0.4,1.6,0.6,2.4,0.6c0.8,0,1.6-0.1,2.4,0c0.8,0,1.6,0,2.3-0.1c0.8-0.1,1.5-0.5,2.1-1
			c0.4-0.4,0.7-0.9,0.9-1.5c0.2-0.6,0.4-1.1,0.6-1.6c0.1-0.1,0.1-0.2,0.2-0.3c0.3-0.4,0.7-0.7,1.2-1c0.4-0.2,0.9-0.4,1.3-0.4
			c0.5,0,0.9,0.1,1.4,0.3c0.2,0.1,0.4,0.2,0.5,0.3c0.5,0.3,1,0.6,1.5,0.8c0.5,0.2,0.9,0.6,1.5,0.4c0.6-0.2,0.9-1,1.2-1.5
			c0.4-0.7,0.9-1.3,1.5-1.8c1.2-1.1,2.4-2,3.5-3.2c1.1-1.1,2.4-2.4,3.5-3.7c0.4-0.4,0.7-0.9,0.9-1.4c0.3-0.8,0.4-1.7,0.4-2.6
			c0.1-0.7,0.1-1.5,0.1-2.2c0-0.2-0.1-0.4-0.1-0.5c-0.2-0.4-0.4-0.8-0.6-1.2c-0.2-0.4-0.3-0.8-0.3-1.2c0-0.9,0.3-1.9,0.1-2.8
			c-0.2-0.8-0.6-1.6-1-2.4c-0.2-0.4-0.3-0.8-0.4-1.2c-0.1-0.5-0.2-1-0.4-1.5c-0.2-0.8-0.4-1.5-0.8-2.3c-0.5-1.1-1.2-2.2-1.9-3.2
			c-0.7-0.9-1.4-1.8-2.1-2.6c-0.3-0.3-0.6-0.6-0.9-0.9c-0.4-0.3-0.8-0.7-1.2-1.1c-0.3-0.4-0.6-0.7-0.8-1.1c-0.4-0.6-0.7-1.2-1-1.9
			c-0.4-1-1.1-2-2.2-1.9c-0.1,0-0.3,0-0.4,0.1c-0.6,0.2-1.1,0.5-1.5,1c-0.5,0.6-0.9,1.3-1.3,1.9c-0.1,0.1-0.2,0.2-0.3,0.3
			c-0.2,0.2-0.6,1-1.1,1c-0.4,0-0.6-0.8-0.7-1c-0.1-0.1-0.1-0.3-0.1-0.4c-0.2-0.6-0.5-1.2-1.2-1.1c-0.1,0-0.2,0-0.3,0
			c-0.7,0.2-1.4,0.4-2.1,0.5c-0.8,0-1.5-0.2-2.2-0.6c-0.7-0.4-1.3-0.9-1.8-1.6c-0.5-0.6-1-1.2-1.5-1.8c-0.7-0.8-1.5-1.5-2.4-2
			c-0.3-0.2-0.6-0.4-1-0.6c-1.2-0.7-2.2-2-3.6-2c-0.6,0-1.2,0.2-1.7,0.5c-0.5,0.3-0.9,0.8-1.2,1.4c-0.3,0.7-0.6,1.5-0.9,2.2
			c-0.3,0.7-0.6,1.3-1,1.9c-0.8,1-2.2,1.5-2.7,2.7c-0.1,0.1-0.1,0.3-0.1,0.4c-0.1,0.4-0.2,0.7-0.3,1.1c-0.4,0.6-0.9,1-1.6,1.2
			c-0.8,0.3-1.6,0.3-2.4,0.2c-0.2-0.1-0.4-0.1-0.6,0C52.2,28.6,52,28.7,51.8,28.9z"/>
		<path class="st1" d="M51.7,27.5c-0.5,0.6-0.8,1.2-1,1.9c-0.4,1-0.6,2-1,3c-0.1,0.5-0.3,0.9-0.4,1.4c-0.3,1-0.9,1.9-1.5,2.7
			c-0.3,0.4-0.6,0.9-0.9,1.3c-0.3,0.5-0.5,1.1-0.7,1.7C46,40,46,40.5,46,41c0,0.5,0.2,1,0.4,1.5c0.3,0.4-0.1,0,0.2,0.4
			c1,1.2,1.8,2.5,2.4,3.9c0,0.1,0.1,0.2,0.1,0.3c0.1,0.7,0.2,1.3,0.2,2c0.1,0.8,0.4,1.5,0.8,2.2c0.4,0.7,0.6,1.4,0.7,2.2
			c0.1,0.8-0.1,1.5-0.4,2.2c0,0.1-0.1,0.2-0.1,0.3c-0.5,1.1-1.6,2.6-0.7,3.7c0.8,1.1,2.7,0.9,4,0.9c0.2,0,0.4,0,0.6,0
			c1.3,0.2,2.6,0.6,3.7,1.4c0.3,0.2,0.6,0.4,0.8,0.6c0.9,0.8,1.5,1.8,1.8,3c0.1,0.3,0.2,0.6,0.3,1c0.1,0.3,0.2,0.7,0.2,1
			c0.1,0.5,0.2,1.2,0.7,1.6c0.2,0.1,0.4,0.2,0.6,0.2c0.2,0,0.4,0,0.6-0.1c0.8-0.2,1.6-0.6,2.5-0.8c0.7-0.2,1.5-0.2,2.2-0.1
			c0.1,0,0.2,0,0.3,0.1c0.7,0.2,1.3,0.6,1.9,0.9c0.7,0.4,1.5,0.6,2.4,0.7c0.8,0,1.6-0.1,2.4,0c0.8,0,1.6,0,2.4,0
			c0.8-0.1,1.6-0.4,2.2-0.8c0.5-0.4,0.8-0.9,1-1.4c0.2-0.6,0.4-1.1,0.7-1.7c0.1-0.1,0.1-0.2,0.2-0.3c0.3-0.4,0.7-0.8,1.2-1
			c0.4-0.2,0.9-0.4,1.4-0.3c0.5,0,0.9,0.2,1.3,0.4c0.2,0.1,0.4,0.2,0.5,0.3c0.5,0.3,1,0.5,1.5,0.6c0.5,0.1,0.9,0.3,1.4-0.1
			c0.5-0.4,0.9-1,1.2-1.6c0.4-0.7,1-1.3,1.6-1.9c1.2-1,2.4-2,3.5-3.2c1.1-1.2,2.4-2.4,3.5-3.7c0.4-0.4,0.7-0.9,1-1.4
			c0.3-0.8,0.6-1.7,0.6-2.6c0.2-0.7,0.3-1.4,0.3-2.1c0-0.2,0-0.3,0-0.5c-0.1-0.4-0.2-0.8-0.4-1.2c-0.1-0.4-0.2-0.8-0.2-1.2
			c0.1-0.9,0.1-1.8,0-2.8c-0.3-0.9-0.7-1.7-1.2-2.6c-0.2-0.4-0.4-0.8-0.5-1.3c-0.2-0.5-0.3-1.1-0.5-1.6c-0.3-0.8-0.6-1.6-0.9-2.4
			c-0.6-1.2-1.2-2.3-2.1-3.3c-0.8-1-1.4-2-2.1-2.9c-0.3-0.3-0.6-0.6-1-0.9c-0.5-0.3-0.9-0.7-1.3-1.2c-0.3-0.4-0.6-0.8-0.8-1.3
			c-0.3-0.6-0.6-1.3-0.9-2.1c-0.4-1.1-1.1-1.9-2.3-1.7c-0.1,0-0.3,0-0.4,0.1c-0.6,0.2-1.1,0.5-1.5,1c-0.5,0.6-1,1.3-1.5,1.8
			c-0.1,0.1-0.2,0.2-0.3,0.3c-0.3,0.2-0.7,0.8-1.2,0.7c-0.4-0.1-0.6-0.6-0.8-0.8c-0.1-0.1-0.2-0.2-0.2-0.3c-0.1-0.2-0.3-0.4-0.6-0.5
			c-0.2-0.1-0.5-0.2-0.8-0.1c-0.1,0-0.2,0-0.3,0c-0.7,0.2-1.4,0.3-2,0.2c-0.8-0.1-1.5-0.4-2.1-0.8c-0.7-0.5-1.3-1-1.8-1.7
			c-0.5-0.6-1.1-1.2-1.6-1.7c-0.7-0.8-1.4-1.4-2.3-2c-0.3-0.2-0.6-0.4-1-0.6c-1.1-0.7-2.1-1.8-3.4-1.8c-0.6,0-1.1,0.2-1.6,0.5
			c-0.5,0.3-0.9,0.8-1.1,1.3c-0.3,0.6-0.6,1.4-0.9,2.1c-0.3,0.6-0.6,1.2-1,1.7c-0.7,1-2,1.5-2.5,2.6c-0.1,0.1-0.1,0.2-0.1,0.3
			c-0.1,0.3-0.2,0.7-0.4,1c-0.4,0.5-0.9,0.9-1.5,1.1c-0.7,0.3-1.5,0.4-2.2,0.3c-0.2,0-0.4,0-0.6,0.1C52.1,27.2,51.9,27.4,51.7,27.5z
			"/>
		<path class="st1" d="M52.6,27.1c-0.6,0.5-1.1,1.2-1.4,1.9c-0.5,1-0.9,2.1-1.2,3.3c-0.1,0.5-0.3,1-0.4,1.5c-0.3,1.1-0.9,2.2-1.7,3
			c-0.4,0.5-0.7,0.9-1,1.5c-0.3,0.6-0.6,1.2-0.7,1.9c-0.2,1.1-0.3,2.3,0.4,3.3c0.4,0.5-0.3-0.2,0.2,0.3c1,1.2,1.8,2.6,2.3,4l0.1,0.3
			c0.2,0.7,0.2,1.3,0.4,2c0.2,0.8,0.4,1.5,0.8,2.2c0.8,1.5,0.6,2.9,0,4.5c0,0.1-0.1,0.2-0.1,0.3c-0.5,1.2-1.5,2.7-0.6,3.7
			c1,1,2.7,0.9,4,0.9l0.6,0c1.3,0.1,2.6,0.6,3.7,1.3c0.3,0.2,0.6,0.4,0.8,0.6c0.9,0.8,1.5,1.9,1.8,3c0.1,0.3,0.2,0.6,0.3,1
			c0.1,0.3,0.2,0.7,0.3,1c0.1,0.6,0.4,1.1,0.8,1.5c0.2,0.1,0.4,0.2,0.6,0.2c0.2,0,0.4,0,0.6-0.1c0.8-0.2,1.6-0.5,2.5-0.7
			c0.7-0.2,1.5-0.3,2.2-0.2l0.3,0.1c0.7,0.2,1.3,0.5,1.9,0.9c0.7,0.4,1.5,0.7,2.4,0.7c0.8,0,1.6-0.1,2.4-0.1c0.8,0,1.6,0.2,2.4,0.2
			c0.8,0,1.6-0.2,2.3-0.6c0.5-0.3,0.9-0.8,1.2-1.3c0.3-0.5,0.4-1.2,0.7-1.7c0.1-0.1,0.1-0.2,0.2-0.3c0.3-0.4,0.7-0.8,1.2-1
			c0.4-0.2,0.9-0.3,1.4-0.3c0.5,0.1,0.9,0.3,1.3,0.6c0.2,0.1,0.3,0.2,0.5,0.4c0.2,0.2,0.5,0.3,0.7,0.4c0.3,0.1,0.6,0.1,0.8,0
			c0.5-0.1,0.9-0.2,1.4-0.5c0.5-0.5,0.9-1.1,1.2-1.7c0.4-0.7,1-1.4,1.6-1.9c1.2-1,2.3-2,3.4-3.1c1.1-1.1,2.3-2.4,3.4-3.6
			c0.4-0.4,0.7-0.8,1-1.3c0.4-0.8,0.7-1.6,0.8-2.4c0.2-0.6,0.4-1.4,0.5-2.1c0-0.2,0-0.3,0-0.5c0-0.4,0-0.8-0.1-1.2
			c-0.1-0.4-0.1-0.8-0.1-1.2c0.1-0.9,0-1.8-0.2-2.7c-0.4-0.9-0.8-1.8-1.3-2.7c-0.2-0.4-0.4-0.9-0.6-1.3c-0.2-0.6-0.4-1.1-0.6-1.7
			c-0.3-0.9-0.7-1.7-1.1-2.6c-0.6-1.3-1.3-2.5-2.1-3.6c-0.8-1-1.4-2.2-2.2-3.2c-0.3-0.4-0.7-0.7-1.1-1c-0.5-0.3-0.9-0.8-1.3-1.2
			c-0.3-0.5-0.6-1-0.7-1.5c-0.3-0.7-0.6-1.5-0.9-2.3c-0.4-1.2-1.2-1.8-2.4-1.6c-0.1,0-0.3,0.1-0.4,0.1c-0.6,0.2-1.1,0.6-1.5,1
			c-0.5,0.6-1,1.2-1.6,1.7c-0.1,0.1-0.2,0.1-0.3,0.2c-0.3,0.1-0.8,0.5-1.3,0.4c-0.4-0.1-0.7-0.5-1-0.6c-0.1-0.1-0.2-0.1-0.3-0.2
			c-0.5-0.2-1-0.3-1.5-0.2l-0.3,0c-0.7,0.1-1.4,0.1-2-0.1c-0.7-0.2-1.4-0.6-2-1c-0.6-0.5-1.2-1.1-1.8-1.7c-0.5-0.6-1.1-1.1-1.6-1.7
			c-0.6-0.7-1.3-1.4-2-2c-0.3-0.2-0.6-0.4-0.9-0.6c-1-0.7-2.1-1.6-3.3-1.5c-0.6,0-1.1,0.2-1.5,0.6c-0.5,0.3-0.8,0.7-1.1,1.2
			c-0.4,0.6-0.6,1.3-0.9,1.9c-0.3,0.6-0.6,1.2-1,1.7c-0.7,0.9-1.8,1.5-2.4,2.5c-0.1,0.1-0.1,0.2-0.2,0.3c-0.1,0.3-0.3,0.6-0.5,0.9
			c-0.4,0.5-0.9,0.9-1.4,1.1c-0.6,0.3-1.3,0.5-2,0.5C53.3,26.7,52.9,26.8,52.6,27.1z"/>
		<path class="st1" d="M52.6,25.7c-0.7,0.5-1.3,1.2-1.8,2c-0.7,1.1-1.2,2.3-1.5,3.5c-0.2,0.5-0.3,1.1-0.4,1.6
			c-0.3,1.2-1,2.4-1.9,3.3c-0.4,0.5-0.8,1-1.1,1.6c-0.3,0.7-0.6,1.4-0.7,2.1c-0.2,1.2-0.2,2.6,0.6,3.6c0.5,0.6-0.4-0.4,0.1,0.2
			c1,1.2,1.8,2.6,2.3,4.1l0.1,0.3c0.2,0.7,0.4,1.3,0.6,2c0.2,0.8,0.5,1.5,0.9,2.2c0.7,1.5,0.3,3-0.3,4.5L49.4,57
			c-0.5,1.2-1.5,2.7-0.4,3.7c1.1,1,2.7,0.8,4,0.9c0.2,0,0.4,0,0.6,0c1.3,0.1,2.6,0.6,3.8,1.3c0.3,0.2,0.6,0.4,0.8,0.6
			c0.9,0.8,1.4,1.9,1.7,3.1c0.1,0.3,0.2,0.6,0.3,1c0.1,0.3,0.2,0.7,0.3,1c0.2,0.6,0.5,1.1,0.9,1.4c0.4,0.2,0.8,0.3,1.2,0.2
			c0.8-0.2,1.7-0.4,2.5-0.7c0.7-0.2,1.4-0.3,2.2-0.3h0.3c0.7,0.1,1.3,0.4,1.9,0.8c0.7,0.4,1.5,0.7,2.4,0.8c0.8,0.1,1.6-0.1,2.4-0.1
			c0.8,0,1.6,0.2,2.5,0.3c0.8,0.1,1.7-0.1,2.4-0.5c0.6-0.3,1-0.7,1.3-1.3c0.3-0.6,0.4-1.2,0.8-1.7c0.1-0.1,0.1-0.2,0.2-0.3
			c0.3-0.4,0.8-0.8,1.2-1.1c1.2-0.6,1.9-0.2,2.7,0.5l0.5,0.4c0.2,0.2,0.5,0.3,0.8,0.3c0.3,0,0.6-0.1,0.8-0.2c0.5-0.3,0.9-0.6,1.3-1
			c0.4-0.5,0.9-1.1,1.2-1.7c0.5-0.7,1-1.4,1.7-1.9c1.2-1,2.3-2,3.4-3.1c1.1-1.1,2.3-2.3,3.4-3.5c0.4-0.4,0.7-0.8,1-1.3
			c0.5-0.7,0.8-1.4,1.1-2.2c0.2-0.6,0.5-1.3,0.7-2c0-0.2,0.1-0.3,0.1-0.5c0.1-0.4,0.1-0.8,0.2-1.2c0-0.4,0.1-0.8,0.1-1.2
			c0.1-0.9-0.1-1.8-0.4-2.7c-0.4-1-0.9-1.9-1.5-2.8c-0.3-0.5-0.5-0.9-0.7-1.4c-0.2-0.6-0.5-1.2-0.7-1.8c-0.4-0.9-0.8-1.8-1.2-2.7
			c-0.6-1.4-1.4-2.7-2.3-3.8c-0.9-1.1-1.4-2.4-2.2-3.4c-0.3-0.4-0.7-0.7-1.2-1c-0.5-0.3-1-0.8-1.4-1.3c-0.3-0.5-0.5-1-0.6-1.6
			c-0.2-0.8-0.5-1.6-0.8-2.4c-0.5-1.2-1.3-1.7-2.5-1.4c-0.1,0-0.3,0.1-0.4,0.1c-0.6,0.2-1.1,0.6-1.5,1C84,23,83.4,23.5,82.7,24
			c-0.1,0.1-0.2,0.1-0.4,0.2c-0.5,0.2-0.9,0.2-1.4,0.2c-0.4-0.1-0.8-0.4-1.1-0.5c-0.1,0-0.2,0-0.4-0.1c-0.5,0-1.1,0.1-1.6,0.2
			c-0.1,0-0.2,0-0.3,0c-0.7,0.1-1.4-0.1-2-0.4c-0.7-0.3-1.3-0.8-1.9-1.3c-0.6-0.5-1.2-1.1-1.8-1.7c-0.6-0.6-1.1-1.1-1.7-1.7
			c-0.6-0.7-1.2-1.4-1.9-2c-0.2-0.2-0.5-0.5-0.8-0.6c-1-0.6-2-1.4-3.2-1.3c-0.5,0.1-1,0.3-1.4,0.6c-0.4,0.3-0.8,0.7-1,1.2
			c-0.4,0.6-0.6,1.2-1,1.8c-0.3,0.6-0.6,1.1-1,1.6c-0.6,0.9-1.6,1.5-2.2,2.4c-0.1,0.1-0.1,0.2-0.2,0.3c-0.2,0.3-0.3,0.6-0.5,0.8
			c-0.4,0.4-0.9,0.8-1.4,1c-0.6,0.3-1.3,0.5-1.9,0.6C53.2,25.4,52.9,25.5,52.6,25.7z"/>
		<path class="st1" d="M53.4,25.1c-0.8,0.5-1.6,1.2-2.2,2c-0.8,1.1-1.4,2.4-1.8,3.7c-0.2,0.6-0.3,1.2-0.5,1.8c-0.3,1.3-1,2.6-2,3.5
			c-1,1.1-1.7,2.4-1.9,3.9c-0.2,1.3-0.1,2.8,0.8,3.8c0.6,0.6-0.6-0.5,0.1,0.1c1,1.2,1.8,2.6,2.2,4.1l0.1,0.3
			c0.3,0.6,0.5,1.3,0.7,1.9c0.3,0.7,0.6,1.5,0.9,2.2c0.6,1.6,0.1,3-0.6,4.5c0,0.1-0.1,0.2-0.1,0.3c-0.5,1.2-1.4,2.7-0.2,3.7
			c1.1,0.9,2.7,0.8,4,0.8l0.6,0c1.3,0.1,2.6,0.6,3.7,1.3c0.3,0.2,0.6,0.4,0.8,0.6c0.8,0.8,1.4,1.9,1.6,3c0.1,0.3,0.2,0.6,0.3,0.9
			c0.1,0.3,0.2,0.7,0.4,1c0.2,0.5,0.6,1,1.1,1.3c0.4,0.2,0.8,0.3,1.2,0.2c0.8-0.1,1.7-0.3,2.5-0.6c0.7-0.3,1.4-0.4,2.2-0.4h0.3
			c0.7,0.1,1.4,0.3,2,0.7c0.7,0.4,1.5,0.7,2.3,0.8c0.8,0.1,1.6-0.1,2.4-0.1c0.8,0.1,1.7,0.2,2.5,0.4c0.9,0.1,1.7,0,2.5-0.3
			c0.6-0.2,1.1-0.7,1.5-1.2c0.4-0.5,0.5-1.2,0.8-1.7c0.1-0.1,0.1-0.2,0.2-0.3c0.3-0.4,0.8-0.8,1.3-1.1c1.3-0.7,1.9-0.1,2.7,0.6
			c0.2,0.1,0.3,0.3,0.5,0.4c0.1,0.1,0.3,0.2,0.4,0.2c0.1,0.1,0.3,0.1,0.5,0.1c0.2,0,0.3-0.1,0.5-0.1c0.1-0.1,0.3-0.2,0.4-0.3
			c0.4-0.4,0.8-0.9,1.2-1.4c0.4-0.5,0.8-1.2,1.2-1.8c0.5-0.7,1.1-1.3,1.7-1.9c1.2-1,2.3-1.9,3.3-3c1.1-1.1,2.3-2.2,3.4-3.4
			c0.4-0.4,0.7-0.8,1-1.2c0.5-0.7,0.9-1.4,1.3-2.1c0.3-0.6,0.6-1.3,0.9-1.9c0.1-0.2,0.1-0.3,0.2-0.5c0.2-0.4,0.3-0.8,0.4-1.2
			c0.1-0.4,0.2-0.8,0.2-1.2c0-0.9-0.2-1.7-0.5-2.5c-0.5-1-1.1-1.9-1.7-2.9c-0.3-0.5-0.6-0.9-0.8-1.4c-0.3-0.6-0.5-1.2-0.8-1.8
			c-0.4-0.9-0.9-1.8-1.4-2.8c-0.6-1.4-1.4-2.8-2.4-4c-0.9-1.1-1.3-2.5-2.3-3.6c-0.4-0.4-0.8-0.8-1.2-1c-0.6-0.3-1.1-0.8-1.5-1.3
			c-0.3-0.5-0.5-1.1-0.6-1.7c-0.2-0.9-0.4-1.7-0.7-2.6c-0.5-1.3-1.4-1.6-2.5-1.1l-0.4,0.2c-0.6,0.3-1.1,0.6-1.6,1
			c-0.6,0.5-1.1,1.2-1.8,1.5c-0.1,0.1-0.3,0.1-0.4,0.1c-0.5,0.1-1,0-1.5-0.1c-0.4-0.2-0.8-0.3-1.3-0.3c-0.1,0-0.3,0-0.4,0.1
			c-0.6,0.1-1,0.5-1.7,0.7h-0.3c-0.7,0-1.4-0.3-2-0.7c-0.6-0.4-1.3-0.9-1.8-1.5c-0.6-0.6-1.2-1.2-1.8-1.7c-0.6-0.6-1.2-1-1.7-1.6
			c-0.5-0.6-1.1-1.3-1.7-1.9c-0.2-0.2-0.5-0.4-0.7-0.6c-0.8-0.7-1.9-1.1-3-1c-0.5,0.1-0.9,0.3-1.3,0.6s-0.7,0.7-1,1.1
			c-0.4,0.5-0.7,1.1-1,1.7c-0.3,0.5-0.6,1-0.9,1.5c-0.6,0.8-1.3,1.6-2.1,2.3l-0.2,0.2c-0.2,0.2-0.4,0.4-0.6,0.6
			c-0.4,0.4-0.9,0.7-1.3,0.9c-0.6,0.3-1.1,0.6-1.7,0.8C54,24.8,53.7,24.9,53.4,25.1z"/>
		<path class="st1" d="M45.1,44.2c1.2,1.2,1.6,2.7,2.2,4.2s1.5,3,2.1,4.5c0.6,1.7-0.3,3.3-1,4.9c-0.5,1.2-1.4,2.8,0,3.8
			c1.4,1,3.1,0.6,4.7,0.8c1.7,0.1,3.3,0.8,4.6,1.9c1.3,1.2,1.3,2.6,1.8,4.1c0.4,1.3,1.3,2.6,2.8,2.6c1.7-0.1,3.3-1.2,5-1.2
			c1.7,0,2.7,1.4,4.3,1.5c0.8,0.1,1.6-0.1,2.4-0.1c0.9,0.1,1.7,0.3,2.6,0.6c1.5,0.4,3.3,0.1,4.3-1.2c0.3-0.6,0.6-1.2,0.8-1.8
			c0.4-0.6,0.9-1.1,1.5-1.5c1.6-0.9,2.2,0.4,3.3,1.3c1.4,1.2,2.3-1.3,2.9-2.2c0.8-1.4,1.8-2.7,3-3.8c2.8-2.3,5.4-4.8,7.8-7.5
			c1.1-1.3,2-2.8,2.8-4.3c0.5-0.7,0.9-1.5,1-2.4c0-0.9-0.2-1.8-0.7-2.6c-0.8-1.6-2-2.9-2.7-4.5c-0.8-1.6-1.6-3.2-2.4-4.8
			c-0.7-1.5-1.5-3-2.6-4.3c-0.9-1.2-1.3-2.7-2.3-3.9c-0.8-1-2.2-1.3-2.9-2.5c-0.3-0.6-0.4-1.3-0.5-1.9c-0.1-1-0.3-1.9-0.6-2.8
			c-0.5-1.4-1.5-1.5-2.7-0.9c-0.7,0.3-1.4,0.7-2,1.2c-0.6,0.5-1.1,1.2-1.9,1.4c-1.4,0.3-2.6-0.9-4-0.3c-0.6,0.3-1.1,1-1.9,1.1
			c-0.9,0.2-1.6-0.4-2.3-1c-1.3-1.1-2.3-2.4-3.5-3.5c-0.6-0.5-1.2-1-1.8-1.6s-1-1.3-1.5-1.9c-0.4-0.5-1-1-1.6-1.2
			c-0.6-0.3-1.3-0.3-2-0.2c-1.5,0.3-2.5,2-3.2,3.2C60.2,18.7,59.2,20,58,21c-1.4,1.1-2.9,2.1-4.5,2.9c-3.2,1.6-4.4,4.6-5.1,8
			c-0.3,1.5-1,2.8-2.2,3.8c-1.1,1.2-1.9,2.7-2.1,4.3C43.9,41.5,44,43.1,45.1,44.2L45.1,44.2z"/>
		<path class="st1" d="M53.3,23.6c-1.2,0.7-2.3,1.7-3,2.9c-0.4,0.7-0.7,1.4-1,2.1c-0.3,0.8-0.6,1.7-0.9,2.5
			c-0.1,0.2-0.1,0.5-0.2,0.7c-0.3,1.3-1,2.5-1.9,3.5l-0.3,0.4c-1,1.2-1.7,2.7-2,4.3v0.1c-0.2,1.5-0.2,3.1,0.8,4.2l0.1,0.1
			c0.4,0.5-0.7-0.8-0.1-0.1c1,1.3,1.8,2.7,2.3,4.2c0.6,1.4,1.2,2.8,1.8,4.2c0,0.1,0.1,0.2,0.1,0.3c0.2,0.7,0.3,1.4,0.2,2
			c-0.2,0.9-0.5,1.7-0.8,2.5L48.3,58c-0.5,1.2-1.2,2.8,0,3.8c1.2,1,3,0.8,4.6,1c0.1,0,0.2,0,0.3,0c1.6,0.1,3.1,0.8,4.2,1.8
			c1.2,1.2,1.3,2.5,1.8,4c0.1,0.2,0.1,0.4,0.2,0.6c0.5,1.1,1.3,2,2.5,1.9l0.3,0c1.6-0.2,3-1.1,4.6-1.1c1.6,0,2.7,1.1,4.3,1.3
			c0.8,0.1,1.6-0.1,2.4,0c0.9,0.1,1.8,0.3,2.6,0.6c0.6,0.1,1.3,0.2,1.9,0.2c0.7,0,1.3-0.2,1.9-0.5c0.2-0.1,0.4-0.3,0.6-0.5
			c0.3-0.3,0.5-0.7,0.6-1c0.1-0.2,0.3-0.5,0.4-0.7c0.4-0.6,1-1.1,1.7-1.4c0.4-0.2,0.8-0.3,1.3-0.3c0.8,0.1,1.4,0.6,2.1,1
			c0.2,0.1,0.5,0.2,0.7,0.1c0.9-0.3,1.6-1.9,2.1-2.7l0.4-0.6c0.8-1.2,1.8-2.3,2.9-3.3c2.8-2.3,5.3-4.8,7.7-7.5
			c1.1-1.3,2-2.8,2.7-4.4l0.2-0.3c0.4-0.6,0.6-1.4,0.6-2.1c0-0.9-0.3-1.7-0.8-2.5c-0.4-0.7-0.9-1.4-1.3-2.1
			c-0.5-0.8-0.9-1.5-1.3-2.4c-0.6-1.4-1.5-2.7-2.3-4.1L98,36.2c-0.7-1.4-1.4-2.7-2.2-4c-0.1-0.1-0.1-0.2-0.2-0.3
			c-0.9-1.2-1.3-2.7-2.2-3.9c-0.6-0.6-1.2-1.2-2-1.7c-0.3-0.3-0.6-0.5-0.8-0.9c-0.3-0.6-0.5-1.2-0.6-1.9c-0.1-0.5-0.2-1-0.2-1.6
			c0-0.4-0.2-0.8-0.4-1.2C89,19.7,88,19.6,86.8,20c-0.6,0.2-1.2,0.5-1.8,0.9c-0.1,0.1-0.2,0.1-0.3,0.2c-0.6,0.5-1.2,1.1-1.9,1.3
			c-0.7,0.1-1.4,0.1-2-0.1c-0.6-0.2-1.3-0.2-1.9,0c-0.1,0-0.2,0.1-0.3,0.2c-0.5,0.4-1,0.7-1.6,0.8c-0.3,0.1-0.6,0.1-0.9,0
			c-0.5-0.2-1-0.5-1.4-0.8c-0.7-0.6-1.3-1.2-1.8-1.9c-0.5-0.6-1.1-1.2-1.6-1.7c-0.6-0.5-1.2-1.1-1.7-1.7c-0.5-0.6-0.9-1.4-1.4-2
			c-0.2-0.3-0.5-0.5-0.9-0.7c-0.8-0.5-1.8-0.7-2.8-0.5c-1.5,0.3-2.6,1.8-3.4,3l-0.9,1.3c-0.6,1-1.3,1.8-2.2,2.5
			c-0.1,0.1-0.2,0.2-0.4,0.3C56.3,22.1,54.8,22.8,53.3,23.6z"/>
		<path class="st1" d="M53.2,22.6c-1.2,0.7-2.2,1.8-2.9,3.1c-0.4,0.7-0.7,1.5-0.9,2.2c-0.3,0.9-0.6,1.7-0.9,2.6l-0.2,0.7
			c-0.5,1.3-1.1,2.6-1.9,3.7L46,35.4c-0.9,1.3-1.6,2.9-1.8,4.5c0,0,0,0.1,0,0.1c-0.3,1.5-0.3,3.2,0.6,4.5c0,0,0.1,0.1,0.1,0.1
			c0.4,0.6-0.6-0.9-0.1-0.1c0.9,1.3,1.7,2.7,2.3,4.2c0.6,1.5,1,3,1.6,4.4l0.1,0.3c0.3,0.7,0.4,1.4,0.3,2.1c-0.2,0.9-0.4,1.8-0.8,2.6
			l-0.1,0.4c-0.4,1.3-1.1,2.9,0.1,4c1.2,1,3,1,4.5,1.2l0.3,0c1.6,0.1,3,0.8,4.2,1.9c1.2,1.1,1.3,2.6,1.8,4.1
			c0.1,0.2,0.1,0.4,0.2,0.6c0.5,1.2,1.2,2,2.5,1.9c0.1,0,0.2,0,0.3-0.1c1.5-0.3,3-1.1,4.6-1.2c1.6-0.1,2.8,0.9,4.3,1
			c0.8,0.1,1.5,0,2.3,0.1c0.9,0.1,1.8,0.3,2.7,0.6c0.6,0.1,1.3,0.2,2,0.3c0.7,0.1,1.4-0.1,2-0.3c0.3-0.1,0.5-0.3,0.7-0.5
			c0.3-0.3,0.5-0.6,0.8-1c0.2-0.2,0.3-0.4,0.5-0.6c0.5-0.6,1.1-1,1.8-1.4c0.4-0.2,0.9-0.3,1.3-0.4c0.8,0.1,1.5,0.2,2.2,0.5
			c0.2,0.1,0.4,0,0.6-0.1c0.8-0.5,1.5-2.1,2.1-3c0.1-0.2,0.3-0.4,0.4-0.6c0.9-1.2,1.9-2.4,3.1-3.4c2.8-2.3,5.3-5,7.5-7.8
			c1-1.4,1.8-2.9,2.5-4.5l0.1-0.3c0.3-0.7,0.5-1.4,0.5-2.2c-0.1-0.9-0.4-1.8-0.9-2.5c-0.4-0.7-0.9-1.4-1.3-2.2
			c-0.4-0.7-0.8-1.6-1.2-2.4c-0.7-1.4-1.6-2.7-2.4-4c-0.1-0.2-0.2-0.4-0.3-0.6c-0.7-1.4-1.3-2.8-2.1-4.1l-0.2-0.3
			c-0.8-1.3-1.3-2.7-2.1-4c-0.5-0.7-1.1-1.3-1.8-1.9c-0.3-0.3-0.5-0.6-0.7-0.9c-0.3-0.6-0.5-1.2-0.6-1.9c-0.1-0.5-0.2-1.1-0.2-1.6
			c0-0.4-0.1-0.8-0.4-1.2c-0.7-1-1.7-1.2-2.9-0.8c-0.6,0.2-1.2,0.5-1.8,0.8L84.8,20c-0.6,0.5-1.3,1-2,1.4c-0.6,0.2-1.3,0.3-2,0.1
			c-0.6-0.1-1.3-0.1-1.9,0.1c-0.1,0-0.2,0.1-0.3,0.1c-0.5,0.3-1.1,0.6-1.6,0.7c-0.3,0.1-0.6,0.1-0.9,0c-0.5-0.1-1-0.4-1.4-0.8
			c-0.6-0.6-1.2-1.2-1.8-1.9c-0.5-0.6-1.1-1.2-1.6-1.8c-0.6-0.5-1.1-1.2-1.6-1.8c-0.4-0.7-0.8-1.4-1.3-2.1c-0.3-0.3-0.6-0.5-0.9-0.6
			c-0.9-0.4-1.8-0.5-2.8-0.3c-1.5,0.3-2.7,1.7-3.6,2.9c-0.3,0.4-0.6,0.9-0.9,1.3c-0.6,1-1.3,1.9-2.2,2.7c-0.1,0.1-0.3,0.2-0.4,0.3
			C56.2,21.1,54.7,21.8,53.2,22.6z"/>
		<path class="st1" d="M52.4,22.3c-1.3,0.8-2.3,1.9-2.9,3.2c-0.3,0.7-0.6,1.5-0.9,2.3c-0.3,0.9-0.7,1.8-1.1,2.6
			c-0.1,0.2-0.2,0.5-0.3,0.7c-0.6,1.3-1.3,2.5-2.1,3.7L45,35.4c-0.9,1.4-1.5,3-1.8,4.6c0,0,0,0.1,0,0.1c-0.3,1.5-0.4,3.2,0.4,4.5
			c0,0,0.1,0.1,0.1,0.1c0.4,0.6-0.6-0.9-0.1-0.1c0.9,1.3,1.8,2.7,2.5,4.1c0.6,1.5,0.9,3,1.4,4.5l0.1,0.3c0.3,0.7,0.4,1.4,0.4,2.1
			c-0.1,0.9-0.4,1.7-0.7,2.6c0,0.1-0.1,0.2-0.1,0.4c-0.4,1.3-1,2.9,0.1,4c1.1,1.1,3,1.1,4.5,1.3l0.3,0c1.6,0.1,3.1,0.8,4.3,1.9
			c1.1,1.1,1.4,2.6,1.9,4c0.1,0.2,0.1,0.4,0.2,0.6c0.5,1.2,1.2,2,2.5,1.8l0.3-0.1c1.5-0.4,3.1-1,4.6-1.1c1.6-0.1,2.9,0.6,4.4,0.8
			c0.8,0.1,1.6,0,2.4,0.1c1,0.1,1.9,0.4,2.9,0.6c0.7,0.1,1.4,0.3,2.1,0.3c0.7,0.1,1.4,0.1,2.1-0.1c0.3-0.1,0.5-0.3,0.8-0.4
			c0.3-0.3,0.6-0.6,0.9-1c0.2-0.2,0.4-0.4,0.6-0.6c0.6-0.5,1.3-1,2-1.3c0.4-0.2,0.9-0.3,1.4-0.4c1-0.1,1.7,0,2.4,0
			c0.2,0,0.5-0.1,0.6-0.3c0.8-0.7,1.5-2.2,2.1-3.1c0.1-0.2,0.3-0.4,0.4-0.6c1-1.2,2.1-2.3,3.3-3.4c2.7-2.4,5.5-4.8,7.7-7.8
			c1-1.4,1.8-3,2.5-4.6l0.1-0.3c0.3-0.7,0.4-1.4,0.3-2.2c-0.1-0.9-0.5-1.7-1-2.5c-0.5-0.7-0.9-1.4-1.3-2.1c-0.4-0.7-0.7-1.6-1.1-2.4
			c-0.6-1.5-1.8-2.5-2.6-3.8c-0.1-0.2-0.2-0.4-0.3-0.6c-0.8-1.3-1.4-2.7-2.1-4L96.3,31c-0.7-1.3-1.3-2.7-2.1-3.9
			c-0.5-0.7-1.1-1.4-1.7-2c-0.3-0.3-0.5-0.6-0.7-0.9c-0.3-0.6-0.6-1.2-0.7-1.8c-0.2-0.5-0.2-1-0.1-1.6c0-0.2,0-0.4-0.1-0.6
			c-0.1-0.2-0.2-0.4-0.3-0.5c-0.4-0.4-0.9-0.7-1.4-0.8c-0.5-0.1-1.1-0.1-1.6,0.1c-0.7,0.1-1.3,0.4-1.9,0.6l-0.3,0.1
			c-0.7,0.4-1.3,1-2,1.3c-0.6,0.3-1.3,0.4-2,0.3c-0.7-0.1-1.3,0-2,0.1c-0.1,0-0.2,0.1-0.4,0.1c-0.6,0.3-1.1,0.5-1.7,0.6
			c-0.4,0.1-0.9,0.1-1.3,0c-0.4-0.1-0.8-0.3-1.1-0.6c-0.7-0.6-1.3-1.2-1.8-1.9c-0.5-0.6-1.1-1.2-1.6-1.8c-0.6-0.6-1.1-1.2-1.5-1.9
			c-0.3-0.8-0.8-1.5-1.3-2.2c-0.3-0.3-0.6-0.5-1-0.6c-0.9-0.3-2-0.4-2.9-0.2c-1.6,0.3-2.9,1.6-3.9,2.8c-0.3,0.4-0.7,0.8-1,1.3
			c-0.7,1-1.2,2-2.2,2.7c-0.1,0.1-0.3,0.2-0.4,0.2C55.6,20.9,53.9,21.4,52.4,22.3z"/>
		<path class="st1" d="M52.4,22c-1.3,0.8-2.2,2-2.8,3.4c-0.3,0.8-0.5,1.6-0.8,2.3c-0.3,0.9-0.7,1.8-1.1,2.6l-0.3,0.7
			c-0.6,1.4-1.4,2.4-2.1,3.7c-0.1,0.2-0.2,0.3-0.3,0.5c-0.8,1.5-1.3,3.1-1.7,4.7c0,0.1,0,0.1,0,0.2c-0.3,1.5-0.5,3.2,0.2,4.6
			l0.1,0.2c0.4,0.8-0.5-0.9,0,0c0.8,1.4,1.9,2.6,2.5,4c0.6,1.5,0.7,3,1.3,4.5l0.1,0.3c0.3,0.6,0.5,1.3,0.5,2.1
			c-0.1,0.9-0.3,1.8-0.6,2.6c0,0.1-0.1,0.2-0.1,0.4c-0.4,1.3-0.9,2.9,0.1,4c1,1.1,2.9,1.3,4.4,1.5H52c1.6,0.1,3.1,0.8,4.3,1.8
			c1.1,1.1,1.4,2.5,1.8,4c0.1,0.2,0.1,0.4,0.2,0.6c0.5,1.3,1.1,2,2.5,1.7l0.3-0.1c1.5-0.5,3-0.9,4.6-1.1c1.5-0.1,2.9,0.4,4.4,0.5
			c0.8,0.1,1.5,0.1,2.3,0.2c1,0.2,2,0.4,3,0.6c0.7,0.2,1.4,0.3,2.1,0.4c0.7,0.2,1.5,0.2,2.2,0.1c0.3-0.1,0.6-0.2,0.8-0.4
			c0.4-0.3,0.7-0.6,1-0.9c0.2-0.2,0.4-0.4,0.7-0.6c0.6-0.5,1.4-0.9,2.1-1.2c0.5-0.2,0.9-0.4,1.4-0.5c0.8-0.1,1.7-0.3,2.5-0.6
			c0.2-0.1,0.4-0.3,0.6-0.5c0.7-0.9,1.4-2.3,2.1-3.3c0.1-0.2,0.3-0.4,0.5-0.6c1.1-1.2,2.3-2.3,3.5-3.4c2.7-2.4,5.5-4.8,7.5-7.9
			c1-1.4,1.7-3,2.3-4.6l0.1-0.3c0.2-0.7,0.3-1.5,0.1-2.2c-0.2-0.9-0.5-1.7-1.1-2.4c-0.5-0.7-0.9-1.4-1.3-2.1c-0.4-0.8-0.6-1.6-1-2.4
			c-0.7-1.4-1.9-2.4-2.8-3.6c-0.1-0.2-0.2-0.4-0.4-0.5c-0.8-1.3-1.5-2.6-2.1-4l-0.2-0.3c-0.6-1.3-1.2-2.7-2-3.9
			c-0.5-0.7-1-1.4-1.5-2.1c-0.2-0.3-0.5-0.6-0.7-0.9c-0.4-0.5-0.6-1.1-0.8-1.7c-0.2-0.5-0.2-1-0.1-1.6c0.1-0.2,0-0.4,0-0.6
			c-0.1-0.2-0.2-0.4-0.4-0.5c-0.4-0.3-0.9-0.6-1.5-0.7c-0.5-0.1-1.1-0.1-1.6,0c-0.7,0.1-1.3,0.3-1.9,0.5l-0.3,0.1
			c-0.7,0.3-1.3,0.9-2.1,1.3c-0.6,0.3-1.3,0.5-1.9,0.5c-0.6,0.1-1.3,0-2,0.1c-0.1,0-0.2,0-0.4,0.1c-0.6,0.1-1.1,0.4-1.7,0.5
			C77,22,76.7,22.1,76.4,22c-0.6,0-1.1-0.2-1.5-0.6c-0.7-0.6-1.3-1.2-1.8-1.9c-0.5-0.6-1.1-1.2-1.6-1.8c-0.6-0.6-1-1.2-1.4-1.9
			c-0.3-0.8-0.7-1.5-1.3-2.2c-0.3-0.3-0.7-0.4-1.1-0.5c-1-0.2-2-0.3-3-0.1c-1.6,0.4-3,1.3-4.1,2.6c-0.4,0.4-0.7,0.8-1,1.3
			c-0.7,1-1.1,2.1-2.2,2.7c-0.1,0.1-0.3,0.1-0.4,0.2C55.5,20.6,53.9,21,52.4,22z"/>
		<path class="st1" d="M42.4,45c0-0.1-0.1-0.1-0.1-0.2c-0.6-1.5-0.3-3.2,0-4.8c0-0.1,0-0.1,0-0.2c0.4-1.7,0.9-3.4,1.6-5l0.2-0.5
			c0.7-1.3,1.5-2.5,2.2-3.9l0.4-0.7c0.5-0.9,0.9-1.8,1.2-2.7c0.3-0.8,0.4-1.7,0.7-2.5c0.5-1.5,1.5-2.7,2.8-3.6c1.5-1,3.3-1.3,5-1.9
			c0.2-0.1,0.3-0.1,0.5-0.2c1.2-0.6,1.5-1.7,2.2-2.9c0.3-0.5,0.6-0.9,1-1.3c1.2-1.2,2.7-2.1,4.4-2.5c1-0.2,2.1-0.2,3.1-0.1
			c0.4,0.1,0.8,0.2,1.1,0.5c0.6,0.5,0.9,1.4,1.2,2.3c0.3,0.8,0.8,1.4,1.4,2c0.5,0.6,1.1,1.2,1.6,1.8c0.5,0.7,1.1,1.4,1.8,2
			c0.5,0.3,1,0.5,1.6,0.5c0.3,0,0.6,0,0.9-0.1c0.6-0.1,1.2-0.3,1.8-0.4l0.4-0.1c0.7-0.1,1.4,0,2-0.1c0.7-0.1,1.4-0.4,2-0.8
			c0.7-0.5,1.4-0.9,2.1-1.2l0.3-0.1c0.7-0.2,1.3-0.3,2-0.4c1.1-0.1,2.3,0.1,3.3,0.6c0.1,0,0.2,0.1,0.3,0.2s0.1,0.2,0.2,0.2
			c0,0.1,0.1,0.2,0.1,0.3c0,0.1,0,0.2-0.1,0.3c-0.2,0.5-0.2,1.1,0,1.6c0.2,0.6,0.6,1.2,0.9,1.7c0.2,0.3,0.5,0.6,0.7,1
			c0.5,0.7,1,1.4,1.4,2.2c0.7,1.3,1.4,2.6,1.9,4c0.1,0.1,0.1,0.2,0.2,0.4c0.5,1.4,1.2,2.8,2.1,4c0.1,0.2,0.2,0.4,0.4,0.5
			c1,1.2,2.3,2.1,3,3.6c0.4,0.8,0.5,1.6,0.9,2.4c0.4,0.7,0.8,1.5,1.3,2.1c0.6,0.7,1,1.5,1.3,2.4c0.2,0.7,0.2,1.5,0,2.3l-0.1,0.3
			c-0.5,1.7-1.3,3.3-2.2,4.8c-1.9,3.3-4.9,5.5-7.6,8.1c-1.3,1.2-2.7,2.2-3.8,3.5c-0.2,0.2-0.3,0.4-0.5,0.6c-0.8,1.1-1.5,2.3-2.1,3.6
			c-0.1,0.3-0.3,0.5-0.5,0.7c-0.7,0.6-1.5,0.8-2.6,1.1c-0.5,0.1-1,0.3-1.5,0.5c-0.8,0.3-1.6,0.7-2.3,1.2c-0.3,0.2-0.5,0.4-0.8,0.6
			c-0.4,0.3-0.8,0.6-1.2,0.9c-0.3,0.2-0.6,0.3-0.9,0.4c-0.8,0.1-1.6,0-2.4-0.2c-0.7-0.2-1.5-0.3-2.2-0.5c-1-0.2-2.1-0.4-3.2-0.6
			c-0.8-0.1-1.6-0.2-2.4-0.3c-1.5-0.2-3-0.3-4.5-0.3c-1.6,0.2-3.1,0.5-4.7,1.1c-0.1,0-0.2,0.1-0.3,0.1c-1.3,0.3-2-0.4-2.5-1.7
			c-0.1-0.2-0.1-0.4-0.2-0.6c-0.5-1.5-0.9-3-1.9-4c-1.2-1.1-2.8-1.8-4.4-1.9l-0.3,0c-1.5-0.2-3.4-0.4-4.4-1.6
			c-0.9-1.1-0.5-2.8-0.2-4.2l0.1-0.4c0.3-0.9,0.5-1.8,0.6-2.7c0-0.7-0.2-1.4-0.5-2.1c-0.1-0.1-0.1-0.2-0.1-0.3
			c-0.6-1.5-0.5-3.1-1.1-4.7C44.4,47.6,43.1,46.6,42.4,45z M42.4,45C42,44.1,42.8,45.9,42.4,45z"/>
		<path class="st1" d="M42.3,45.1c0.6,1.6,2,2.5,2.7,4c0.7,1.5,0.3,3.2,0.9,4.7c0.4,0.7,0.7,1.6,0.8,2.4c0,0.9-0.2,1.8-0.5,2.7
			c-0.3,1.4-0.8,3.3,0.1,4.5c0.9,1.2,3.1,1.6,4.6,1.8c1.6,0.1,3.2,0.7,4.4,1.8c1.2,1.2,1.6,3,2.1,4.5c0.5,1.5,1.2,2.1,2.7,1.5
			c3.7-1.3,7.6-1.5,11.4-0.7c1.9,0.3,3.7,0.7,5.5,1.1c0.8,0.3,1.6,0.5,2.4,0.4c0.8-0.2,1.6-0.6,2.2-1.1c1.5-0.9,3.1-1.6,4.8-2.2
			c1.5-0.5,2.6-1,3.2-2.5c0.6-1.6,1.5-3,2.6-4.3c1.2-1.3,2.7-2.3,4-3.5c2.7-2.5,5.7-4.8,7.5-8.1c0.8-1.6,1.9-3.3,2.2-5.1
			c0.1-0.8,0-1.7-0.3-2.5c-0.3-0.8-0.7-1.5-1.2-2.2c-0.5-0.6-1-1.3-1.3-2.1c-0.3-0.8-0.4-1.6-0.8-2.4c-0.7-1.4-2.1-2.2-3.2-3.4
			c-1.1-1.3-1.9-2.9-2.4-4.5c-0.5-1.5-1.2-2.9-2-4.3c-0.4-0.8-0.8-1.5-1.3-2.3C93,22.8,92.5,21.9,92,21c-0.1-0.2-0.2-0.5-0.2-0.8
			c0-0.3,0.1-0.5,0.2-0.8c0.2-0.5,0.1-0.7-0.4-1c-1.5-0.7-3.9-0.6-5.4-0.3c-1.7,0.4-2.7,1.8-4.4,2.2c-0.8,0.1-1.6,0.2-2.4,0.2
			c-0.9,0.1-1.8,0.4-2.7,0.4c-1.8,0.2-2.4-1.2-3.4-2.4c-1.1-1.3-2.3-2.3-2.8-3.9C70,13.4,69.7,12.2,68,12c-3.2-0.3-6.9,1-8.7,3.8
			c-0.8,1.3-1.1,2.5-2.7,3.1c-1.7,0.5-3.5,0.7-5.1,1.8c-1.3,0.9-2.2,2.2-2.7,3.7c-0.3,0.8-0.4,1.7-0.6,2.5c-0.4,0.9-0.8,1.9-1.4,2.7
			c-0.9,1.5-2,2.9-2.7,4.6c-0.7,1.8-1.3,3.7-1.7,5.6C42.1,41.6,41.7,43.4,42.3,45.1C42.7,46.1,42,44.2,42.3,45.1z"/>
		<path d="M129.4,52.9c-1-0.3-1.8-0.8-2.5-1.6c-0.7-0.8-1.2-1.8-1.4-2.9c-0.3-1.5-0.5-2.9-0.5-4.4c0-1.5,0.1-3,0.5-4.4
			c0.2-1.1,0.7-2.1,1.4-2.9c0.7-0.7,1.5-1.3,2.5-1.6c2.4-0.6,4.8-0.6,7.2,0c1,0.3,1.8,0.8,2.5,1.6c0.7,0.8,1.2,1.8,1.4,2.9
			c0.3,1.5,0.5,2.9,0.5,4.4c0,1.5-0.1,3-0.5,4.4c-0.2,1.1-0.7,2.1-1.4,2.9c-0.7,0.7-1.5,1.3-2.5,1.6
			C134.2,53.5,131.7,53.5,129.4,52.9z M135.4,50.7c0.6-0.2,1.2-0.6,1.6-1.2c0.5-0.6,0.8-1.4,0.9-2.2c0.4-2.2,0.4-4.5,0-6.7
			c-0.2-0.8-0.5-1.5-0.9-2.2c-0.4-0.5-1-0.9-1.6-1.2c-1.6-0.5-3.2-0.5-4.8,0c-0.6,0.2-1.2,0.6-1.6,1.2c-0.5,0.6-0.8,1.4-1,2.2
			c-0.4,2.2-0.4,4.5,0,6.7c0.2,0.8,0.5,1.5,1,2.2c0.4,0.5,0.9,0.9,1.6,1.2C132.1,51.2,133.8,51.2,135.4,50.7L135.4,50.7z"/>
		<path d="M168.1,50.8c-0.4,0.6-0.9,1.2-1.5,1.5c-0.7,0.4-1.4,0.7-2.2,0.8c-0.9,0.1-1.8,0.2-2.6,0.2c-1.1,0-2.3-0.1-3.3-0.4
			c-0.9-0.3-1.7-0.8-2.4-1.5c-0.7-0.8-1.1-1.8-1.4-2.9c-0.3-1.5-0.5-3-0.4-4.5c0-1.5,0.1-3,0.4-4.5c0.2-1.1,0.7-2,1.4-2.9
			c0.6-0.7,1.4-1.2,2.4-1.5c1.1-0.3,2.2-0.4,3.4-0.4c0.9,0,1.8,0.1,2.7,0.2c0.8,0.1,1.5,0.4,2.2,0.8c0.6,0.4,1.1,0.9,1.5,1.5
			c0.4,0.8,0.6,1.6,0.6,2.5H166c0-0.5-0.1-1-0.4-1.4c-0.2-0.3-0.6-0.6-0.9-0.8c-0.4-0.2-0.9-0.3-1.3-0.4c-0.5-0.1-1-0.1-1.6-0.1
			c-0.8,0-1.5,0.1-2.2,0.3c-0.6,0.2-1.1,0.5-1.5,1c-0.4,0.6-0.7,1.4-0.9,2.1c-0.2,1.2-0.3,2.3-0.3,3.5c0,1.2,0.1,2.4,0.3,3.5
			c0.1,0.8,0.4,1.5,0.9,2.1c0.4,0.5,0.9,0.9,1.5,1.1c0.7,0.2,1.5,0.3,2.2,0.3c0.5,0,1,0,1.5-0.1c0.5,0,0.9-0.2,1.4-0.4
			c0.4-0.2,0.7-0.4,1-0.8c0.3-0.4,0.4-0.9,0.4-1.4h2.7C168.7,49.2,168.5,50.1,168.1,50.8z"/>
		<path d="M186.8,37.3h-5.7V35h14.2v2.3h-5.8v15.8h-2.7V37.3z"/>
		<path d="M208.6,53.1V35h7c0.9,0,1.9,0.1,2.8,0.3c0.7,0.2,1.4,0.5,2,1c0.5,0.5,0.9,1.1,1.1,1.8c0.3,0.9,0.4,1.8,0.4,2.8
			c0,1-0.1,2-0.4,2.9c-0.2,0.7-0.6,1.4-1.1,1.9c-0.6,0.5-1.2,0.9-2,1.1c-0.9,0.2-1.8,0.3-2.8,0.3h-4.3v6H208.6z M217.2,44.6
			c0.4-0.1,0.8-0.3,1.2-0.7c0.3-0.3,0.5-0.7,0.7-1.2c0.1-0.6,0.2-1.2,0.2-1.8c0.1-0.5,0-1-0.1-1.5c-0.1-0.5-0.4-0.9-0.7-1.3
			c-0.8-0.6-1.8-0.9-2.9-0.8h-4.1v7.5h4.1C216,44.8,216.6,44.8,217.2,44.6z"/>
		<path d="M235.8,35h2.7v18.1h-2.7V35z"/>
		<path d="M253.8,35h7c0.9,0,1.7,0.1,2.5,0.2c0.6,0.1,1.3,0.4,1.8,0.8c0.5,0.4,0.8,0.9,1,1.5c0.3,0.7,0.4,1.5,0.4,2.3
			c0.1,1-0.2,2.1-0.8,2.9c-0.7,0.7-1.6,1.2-2.5,1.3c1.1,0.1,2.1,0.6,3,1.3c0.7,0.8,1,1.9,0.9,3c0,0.8-0.1,1.6-0.4,2.3
			c-0.2,0.6-0.6,1.1-1.1,1.5c-0.6,0.4-1.3,0.7-2,0.8c-0.9,0.2-1.9,0.3-2.8,0.2h-7L253.8,35z M263,42.2c0.3-0.3,0.5-0.7,0.6-1.1
			c0.1-0.4,0.2-0.8,0.1-1.2c0-0.4,0-0.7-0.1-1.1c-0.1-0.3-0.3-0.6-0.6-0.9c-0.7-0.5-1.6-0.7-2.5-0.6h-4.1v5.5h4.1
			C261.4,43,262.3,42.7,263,42.2z M262.4,50.7c0.4-0.1,0.8-0.2,1.2-0.5c0.3-0.2,0.5-0.5,0.6-0.8c0.1-0.4,0.2-0.8,0.2-1.2
			c0-0.4,0-0.8-0.2-1.2c-0.1-0.4-0.4-0.7-0.7-1c-0.9-0.5-1.9-0.8-2.9-0.7h-4.1v5.6h4.1C261.2,50.8,261.8,50.7,262.4,50.7L262.4,50.7
			z"/>
	</g>
</g>
</svg>
