<?xml version="1.0" encoding="utf-8"?>
<!-- Generator: Adobe Illustrator 25.4.1, SVG Export Plug-In . SVG Version: 6.00 Build 0)  -->
<svg version="1.1" id="Layer_1" xmlns="http://www.w3.org/2000/svg" xmlns:xlink="http://www.w3.org/1999/xlink" x="0px" y="0px"
	 viewBox="0 0 300 87" enable-background="new 0 0 300 87" xml:space="preserve">
<g>
	<defs>
		<rect id="SVGID_1_" x="117.5" y="2" width="65" height="83.1"/>
	</defs>
	<clipPath id="SVGID_00000130647568616843127600000003364291142615765936_">
		<use xlink:href="#SVGID_1_"  overflow="visible"/>
	</clipPath>
	<g clip-path="url(#SVGID_00000130647568616843127600000003364291142615765936_)">
		
			<path fill-rule="evenodd" clip-rule="evenodd" fill="#FFFFFF" stroke="#666666" stroke-width="1.02" stroke-miterlimit="22.9256" d="
			M182.4,2.1v68.3c0,4.4-3.1,7.9-6.8,8.1h-14.8c-4.5,0-7.7,1.3-10.7,6.6c-3-5.3-6.2-6.5-10.7-6.6h-14.8c-3.7-0.2-6.8-3.7-6.8-8.1
			V2.1H182.4z"/>
		<path fill-rule="evenodd" clip-rule="evenodd" fill="#FFD500" stroke="#B99D62" stroke-width="0.9" stroke-linejoin="round" d="
			M138.2,62.5c0.9,0,1.3,0.5,1.4,1.5c-0.4-0.5-1-0.6-1.6-0.4C137.5,63.4,137.5,62.7,138.2,62.5z"/>
		<path fill-rule="evenodd" clip-rule="evenodd" fill="#FFD500" stroke="#B99D62" stroke-width="0.9" stroke-linejoin="round" d="
			M134.9,66.2c-0.1-0.1-0.1-0.1-0.2-0.2c-0.3-0.2-0.8-0.1-1,0.1c-0.1,0.8,0.4,1.5,1.2,1.6c0.1,0,0.2,0,0.3,0
			C134.6,67.4,134.5,66.7,134.9,66.2z"/>
		<path fill-rule="evenodd" clip-rule="evenodd" fill="#FFD500" stroke="#B99D62" stroke-width="0.9" stroke-linejoin="round" d="
			M131.9,65.5c0.1-0.8-0.9-0.9-1.3-0.5c-0.4,0.7-0.2,1.7,0.5,2.2C130.8,66.5,131.2,65.8,131.9,65.5z"/>
		<path fill-rule="evenodd" clip-rule="evenodd" fill="#FFD500" stroke="#B99D62" stroke-width="0.9" stroke-linejoin="round" d="
			M130.2,63.6c0.1-0.4-0.1-1.1-0.6-1c-0.9,0.2-1.2,0.9-0.9,2C129,63.8,129.5,63.4,130.2,63.6z"/>
		
			<path fill-rule="evenodd" clip-rule="evenodd" fill="#FFD500" stroke="#B99D62" stroke-width="0.9" stroke-miterlimit="22.9256" d="
			M132.1,62c-0.2,0-0.5,0-0.7,0c-0.4-0.1-0.8-0.1-1.2,0c-0.3,0.1-0.5,0.4-0.5,0.7c0.5,0,0.7,0.6,0.6,1c0.5,0.2,0.6,0,0.9-0.4
			c0.1-0.1,0.3-0.2,0.4-0.2c0.2,0,0.3,0,0.5,0c-0.1,0.2-0.2,0.5-0.3,0.6c-0.4,0.4-0.9,0.4-1.2,0.8c-0.1,0.2-0.1,0.4-0.1,0.5
			c0.4-0.3,1.4-0.3,1.3,0.5c0.6,0.1,1-0.2,1.1-0.7c0-0.2,0-0.5,0-0.9c0-0.3,0.2-0.6,0.5-0.8c0.3,0.2,0.4,0.6,0.5,0.9
			c0,0.4-0.3,0.7-0.5,1c-0.2,0.3-0.2,0.7,0.1,0.9c0,0,0,0,0,0c0,0,0.1,0.1,0.1,0.1c0.3-0.3,0.7-0.3,1-0.1c0.1,0.1,0.2,0.1,0.2,0.2
			c0.5-0.5,0.6-1.2,0.2-1.8c-0.1-0.2-0.2-0.4-0.2-0.6c0.1-0.4,0.8-0.4,1.2-0.3c0.2,0.1,0.4,0.2,0.6,0.3c0.3,0.3,0.9,0.3,1.2-0.1
			c0,0,0.1-0.1,0.1-0.1c-0.5-0.2-0.4-0.9,0.2-1.1c-0.1-0.2-0.4-0.3-0.7-0.3c-0.5,0-0.6,0.7-1.1,0.2c-0.1-0.1-0.2-0.3-0.2-0.5
			c0.1-0.3,0.5-0.5,1-0.7c1.4-0.5,2.8-1.2,4-2c-0.4-0.3-0.8-0.7-1.1-1.2c-0.5,0.4-1,0.5-1.6,0.5c-0.4,0.5-0.9,0.9-1.4,1.3
			c-0.7,0.5-1.4,0.9-2.3,1.1C133.9,61,132.9,61.4,132.1,62z"/>
		<path fill-rule="evenodd" clip-rule="evenodd" stroke="#666666" stroke-width="0.9" stroke-linejoin="round" d="M148.5,57.4
			c0.2,1.3,0.8,2.5,1.5,3.5c0.7-1,1.3-2.2,1.5-3.5c0.3,1,1.3,1.6,2.3,1.3c0.2,0,0.3-0.1,0.5-0.2c-0.1,1.5-1.3,2.6-2.8,2.6
			c0,0-0.1,0-0.1,0c0.2,1.1,0.7,4.1,0.9,4.4c0.4,0.5,1.1,0.7,1.7,0.4c1.3-0.4,1.3-1.6,0.1-2.1c1.2-0.3,2.5,0.5,2.8,1.7c0,0,0,0,0,0
			c0,0.1,0.1,0.3,0.1,0.4c1.1,0,1.3,0.4,2.1,1.1c1.4,1.3,2.6,0.8,1.8-0.4c1.2,0.6,1.5,1.3,0.9,2.3c2,1.1,1.6,2.5-1.2,4.2
			c0.9-3.8-3.1-3.7-2.6-0.8c-0.2-0.6-0.6-1.1-1.1-1.5c-0.4-0.2-0.8-0.3-1.3-0.4c-2-0.6-3.6-1.9-4.5-3.7c-0.7,3.6,0.6,5.7,3.5,6.2
			c-0.6,1-1.9,1.4-3,0.9c0.3,0.6,0.4,1.2,0.3,1.8c-0.1,0.5-0.3,0.6-0.6,0.8c-0.6,0.7-1,1.5-1.2,2.4c-0.2-0.9-0.6-1.7-1.2-2.4
			c-0.3-0.3-0.5-0.4-0.6-0.8c0-0.6,0.1-1.2,0.3-1.8c-1.1,0.6-2.4,0.2-3-0.9c2.9-0.4,4.2-2.6,3.5-6.2c-0.9,1.8-2.6,3.2-4.5,3.7
			c-0.4,0.1-0.9,0.2-1.3,0.4c-0.5,0.4-0.9,0.9-1.1,1.5c0.5-2.9-3.5-3-2.6,0.8c-2.8-1.7-3.2-3.1-1.2-4.2c-0.7-0.9-0.4-1.7,0.9-2.3
			c-0.9,1.1,0.4,1.6,1.8,0.4c0.7-0.7,0.9-1,2.1-1.1c0.1-1.3,1.2-2.3,2.5-2.2c0.1,0,0.3,0,0.4,0.1c-1.2,0.5-1.2,1.8,0.1,2.1
			c0.6,0.2,1.3,0,1.7-0.4c0.2-0.4,0.7-3.4,0.9-4.4c-1.5,0.1-2.8-1-2.9-2.4c0,0,0,0,0,0c0,0,0-0.1,0-0.1c0.9,0.5,2,0.3,2.6-0.6
			c0,0,0,0,0,0C148.3,57.7,148.4,57.6,148.5,57.4z"/>
		<path fill-rule="evenodd" clip-rule="evenodd" fill="#FFD500" stroke="#B99D62" stroke-width="0.9" stroke-linejoin="round" d="
			M167.9,64.5c0.5-0.2,1.1-0.1,1.4,0.3c0-0.9-0.5-1.4-1.3-1.4c-0.2,0-0.3,0.1-0.5,0.3c-0.2,0.2-0.1,0.5,0.1,0.7
			C167.6,64.4,167.7,64.5,167.9,64.5L167.9,64.5z"/>
		<path fill-rule="evenodd" clip-rule="evenodd" fill="#FFD500" stroke="#B99D62" stroke-width="0.9" stroke-linejoin="round" d="
			M167.9,64.5c-0.7,0.5-1.6,0.5-2.2,0c-0.4-0.4-0.1-1.1-0.3-2.1c-0.1-0.4-0.2-0.7-0.5-1c-2.3-0.3-5.1-0.8-6.5-1.9
			c0.6-0.4,1.1-0.8,1.5-1.4c0.4,0.3,0.9,0.5,1.4,0.5c0.9,0.4,1.5,0.7,2.5,1.1c1.1,0.5,2.3,0.8,3.6,0.9c0.3,0,0.6-0.1,0.9-0.2
			c0.3-0.1,0.8-0.2,1.1,0c0.2,0.3,0.4,0.7,0.3,1.1l0,1.8c0.1,0.4-0.1,0.7-0.4,0.9c-0.2-0.5-0.7-0.8-1.2-0.7c-0.2,0-0.3,0.1-0.5,0.3
			c-0.2,0.2-0.1,0.5,0.1,0.7C167.6,64.4,167.7,64.5,167.9,64.5L167.9,64.5z"/>
		<path fill-rule="evenodd" clip-rule="evenodd" fill="#FFD500" stroke="#B99D62" stroke-width="0.9" stroke-linejoin="round" d="
			M169.5,66.4c0.1,0,0.1-0.1,0.2-0.1c0.4,0.1,0.8-0.1,1-0.5l2.1,3c-0.2,0.4-0.6,0.7-1.1,0.7L169.5,66.4z"/>
		<path fill-rule="evenodd" clip-rule="evenodd" fill="#FFD500" stroke="#B99D62" stroke-width="0.9" stroke-linejoin="round" d="
			M169.7,66.2c0-0.5-0.3-0.9-0.7-1.1c-0.1,0.5-0.6,0.9-1.5,0.7c0.4,0.7,1.3,0.9,2,0.5c0,0,0,0,0,0C169.6,66.3,169.6,66.3,169.7,66.2
			z"/>
		
			<path fill-rule="evenodd" clip-rule="evenodd" fill="#FFD500" stroke="#B99D62" stroke-width="0.9" stroke-linecap="round" stroke-linejoin="round" d="
			M170.4,62.1c1.3-0.1,0.9,0.7,0.7,2c-0.1,0.8-0.4,2.3-1.5,2.1c0-0.5-0.3-0.9-0.7-1.1c0.5,0.2,1.1,0,1.4-0.5
			c0.1-0.2,0.1-0.4,0.2-0.6c0-0.3,0-0.7,0-1C170.5,62.7,170.4,62.5,170.4,62.1C170.4,62.2,170.4,62.2,170.4,62.1z"/>
		<path d="M167.6,63c0-0.5,0.3-0.9,0.7-1.1c0.1,0,0.1-0.1,0.2-0.1c0,0,0,0,0-0.1v-0.3c-0.8,0.3-1.1,0-2.4-0.2
			c0.5,0.5,0.7,1.1,0.6,1.8C166.9,62.8,167.3,62.8,167.6,63z"/>
		<path fill="none" stroke="#B99D62" stroke-width="0.9" stroke-linecap="round" stroke-linejoin="round" d="M167.6,63
			c0-0.5,0.3-0.9,0.7-1.1c0.1,0,0.1-0.1,0.2-0.1c0,0,0,0,0-0.1v-0.3c-0.8,0.3-1.1,0-2.4-0.2c0.5,0.5,0.7,1.1,0.6,1.8
			c0.3-0.3,0.9-0.3,1.2,0.1c0,0,0,0,0,0c0.1,0.1,0.1,0.1,0.1,0.2"/>
		<path fill-rule="evenodd" clip-rule="evenodd" fill="#FFD500" stroke="#B99D62" stroke-width="0.9" stroke-linejoin="round" d="
			M168.8,65.1c0-0.3-0.1-0.6-0.3-0.7c-0.2,0-0.4,0-0.6,0.1c-0.3,0.3-0.7,0.4-1.2,0.4c0.4,0.6,1.3,0.8,1.9,0.3
			C168.7,65.2,168.7,65.1,168.8,65.1z"/>
		<path fill-rule="evenodd" clip-rule="evenodd" fill="#FFD500" stroke="#B99D62" stroke-width="0.9" stroke-linejoin="round" d="
			M169.1,64.1c0.3-0.2,0.5-0.5,0.4-0.9l0-1.8c0-0.1,0-0.2,0-0.4c0.5-0.1,0.8,0.1,0.9,0.4c0,0.3,0,0.6,0,0.8c0,0.2,0,0.5,0,0.8
			c0,0.3,0,0.7,0,1c0,0.2-0.1,0.4-0.2,0.6c-0.3,0.5-0.9,0.8-1.4,0.5c0,0,0,0,0,0c0,0-0.1,0-0.1-0.1c0-0.3-0.1-0.6-0.3-0.7
			c0.3,0.1,0.6,0.2,0.8,0.4C169.3,64.6,169.2,64.3,169.1,64.1z"/>
		<path fill-rule="evenodd" clip-rule="evenodd" d="M131.6,29.5c-1.3-0.6-2.3-1.7-2.8-3c-1.4-1.8-2.3-3.9-2.7-6.1
			c-0.8-0.2-1.6-0.6-2.1-1.2c-0.7,3.7,0.6,7.8,4.3,11.6c-0.3-0.5-0.5-0.9-0.7-1.4C128.7,29.9,130.3,30,131.6,29.5z"/>
		<path fill-rule="evenodd" clip-rule="evenodd" d="M131.7,17.2c0.3,2.1,1,4.2,2.2,6c-1.4-0.5-2.6-1.4-3.4-2.6
			c-0.2,1.7,0.6,3.7,2.4,6c-0.3,0-0.5-0.1-0.8-0.1c-4.2-5.8-5.4-12.8-1.6-15.9C130.3,12.9,130.7,15.2,131.7,17.2z"/>
		<path fill-rule="evenodd" clip-rule="evenodd" d="M132,14.8l3.4,6.6c-0.5,1.5-0.4,3.1,0.3,4.5C132.3,21.2,131.1,17.5,132,14.8z"/>
		<path fill-rule="evenodd" clip-rule="evenodd" d="M135.7,25.9c0.2,0.4,0.4,0.8,0.6,1.2c-0.2,0-0.4,0-0.6,0.1
			c-0.1,0.8,0,1.6,0.4,2.3c-0.1,0-0.3,0.1-0.4,0.1c-3.8-3.6-5.5-6.6-5.2-9c0.9,1.2,2,2.1,3.4,2.6C134.4,24.1,135,25,135.7,25.9z"/>
		<path fill-rule="evenodd" clip-rule="evenodd" d="M128.8,26.5c-2.8-3.9-3.6-7.8-2.4-11.7c0.4,0.9,1,1.7,1.9,2.3
			c0.4,3.4,1.8,6.7,3.9,9.5c-1.4-0.3-2.6-0.9-3.7-1.8C128.4,25.3,128.5,25.9,128.8,26.5z"/>
		<path fill-rule="evenodd" clip-rule="evenodd" d="M122.4,24.6c0,3.6,1.9,6.7,5.9,9c1.2,0.2,2.4,0.1,3.6-0.3
			c-1.5-0.4-2.8-1.3-3.7-2.6c-1.5-1.6-2.7-3.4-3.6-5.4C123.8,25.4,123,25.1,122.4,24.6z"/>
		<path fill-rule="evenodd" clip-rule="evenodd" d="M129.7,38.7c-5-0.9-7.5-3.8-7.8-8.8c0.7,0.6,1.7,0.8,2.5,0.5
			c1.1,1.3,2.4,2.4,3.8,3.2c-0.4,0-0.7-0.1-1.1-0.2c0.8,2.1,2.8,3.4,5,3.2C131.5,37.5,130.7,38.2,129.7,38.7z"/>
		<path fill-rule="evenodd" clip-rule="evenodd" d="M129.7,38.7c-0.5,0.3-1.1,0.5-1.7,0.7c2.5,1.1,4.5,1.3,6.2,0.5
			c0,0.9-0.3,1.7-0.7,2.5c-6.7,1.6-10.8-0.4-12.1-6c1,0.5,2.1,0.4,3,0C126,37.6,127.8,38.4,129.7,38.7z"/>
		<path fill-rule="evenodd" clip-rule="evenodd" d="M135.2,43.1c-5.8,3.8-9.9,3.8-12.1,0c1,0.2,2.1-0.1,2.8-0.8
			c2,0.8,4.5,0.8,7.6,0.1c-0.2,0.4-0.4,0.7-0.7,1C133.7,43.4,134.5,43.3,135.2,43.1z"/>
		<path fill-rule="evenodd" clip-rule="evenodd" d="M135.2,43.1c1.4-0.3,2.6-1,3.5-2c0.1,0.5,0.1,1,0.1,1.6c-3.9,4.9-8,6.5-12.3,4.8
			c0.8-0.2,1.4-0.8,1.6-1.5C130.1,45.9,132.5,44.9,135.2,43.1z"/>
		<path fill-rule="evenodd" clip-rule="evenodd" d="M133.5,47.3c2.1-1.1,3.9-2.7,5.4-4.6c0,0.9-0.3,1.8-0.6,2.6
			c1-0.1,1.9-0.5,2.7-1.1c-0.8,3.5-3.4,5.4-7.7,5.5C133.7,49,133.8,48.1,133.5,47.3z"/>
		<path fill-rule="evenodd" clip-rule="evenodd" d="M136.3,27.1c-1.5-2.8-1.6-5-0.3-6.6c0.2,1.7,0.9,3.3,1.9,4.7
			c-0.3,0.7-0.3,1.5,0,2.2C137.4,27.2,136.9,27.1,136.3,27.1z"/>
		<path fill-rule="evenodd" clip-rule="evenodd" d="M135.7,29.7c-0.5,0.2-1,0.5-1.5,0.9c-3.8-1.2-5.7-3.2-5.8-5.9
			c1.3,1,2.8,1.7,4.5,2C133.8,27.7,134.7,28.7,135.7,29.7z"/>
		<path fill-rule="evenodd" clip-rule="evenodd" d="M131.6,29.5c0.8,0.5,1.7,0.8,2.6,1.1c0,0-0.1,0.1-0.1,0.1c0.4,1.1,0.8,1.8,1.2,2
			c-0.2,0.3-0.4,0.7-0.6,1c-3.7,0-6.2-1.5-7.3-4.4C128.7,29.9,130.3,30,131.6,29.5z"/>
		<path fill-rule="evenodd" clip-rule="evenodd" d="M131.9,33.3c-1.5,0.4-3.1,0.5-4.7,0.1c1.3,3.2,4.4,4,9.5,2.5c0-0.1,0-0.2,0-0.3
			c-0.9,0.1-1.9-0.1-2.6-0.6c0.2-0.5,0.4-0.9,0.6-1.3C133.8,33.7,132.8,33.6,131.9,33.3z"/>
		<path fill-rule="evenodd" clip-rule="evenodd" d="M132.2,36.7c1.5,0,3.1-0.3,4.5-0.7c0,0.6,0,1.1,0.1,1.7
			c-1.9,2.9-4.8,3.5-8.8,1.8C129.7,38.9,131.1,38,132.2,36.7z"/>
		<path fill-rule="evenodd" clip-rule="evenodd" d="M134.3,39.9c1.1-0.5,1.9-1.3,2.5-2.3c0,0.2,0.1,0.3,0.1,0.5c1.4,0,2.2-0.3,2.6-1
			c0.1,0.5,0.3,1,0.5,1.5c-0.9,3.2-3.3,4.8-7.1,4.7C133.7,42.4,134.2,41.1,134.3,39.9z"/>
		<path fill-rule="evenodd" clip-rule="evenodd" d="M142.3,37.7c0.8,4.4-0.6,6.9-4.1,7.5c0.6-1.3,0.8-2.8,0.5-4.2
			c0.6-0.7,1-1.6,1.3-2.5c0.1,0.3,0.3,0.6,0.6,0.8C141.4,39.1,142,38.5,142.3,37.7z"/>
		<path fill-rule="evenodd" clip-rule="evenodd" d="M143.3,43.9c-0.4,3.4-1.9,5.2-4.2,5.5c0.4-0.5,0.4-1.2,0-1.7
			c1-1,1.6-2.2,1.9-3.5c0.6-0.5,1.1-1.2,1.3-1.9C142.7,42.7,143,43.3,143.3,43.9z"/>
		<path fill-rule="evenodd" clip-rule="evenodd" d="M143.3,40.4c0.9-0.9,1.3-2.1,1.3-3.3c0.1,0.8,0.5,1.4,1.1,1.9
			c0.6-0.4,1.1-1.5,1.3-3.3c-0.1-0.4-0.2-0.9-0.3-1.3c-0.3,0.2-0.7,0.2-1,0.1c-0.1,0.1-0.3,0.1-0.5,0.1c-0.6-0.2-1.2-0.9-2.1-0.6
			c-0.7,0.3-0.7,1-1.4,1.4c-0.3,0.3-0.8,0.3-1.2,0c-0.3-0.2-0.9-0.8-1.5-1.4c-0.4-0.3-0.7-0.7-0.9-1.1c-0.7-1.1,1.4-1.5,2.1-1.9
			c0.8-0.4,1.2-1.4,0.7-2.3c0,0,0,0,0,0v0c-0.2-0.3-0.5-0.6-0.8-0.9c-0.8-0.9-1.5-1.9-2.2-2.8c-0.3,0.7-0.3,1.5,0,2.2
			c-0.5-0.2-1.1-0.3-1.7-0.3c-0.2,0-0.4,0-0.6,0.1c-0.1,0.8,0,1.6,0.4,2.3c-0.1,0-0.3,0.1-0.4,0.1c-0.5,0.2-1,0.5-1.5,0.9l-0.1,0.1
			c0.4,1.1,0.8,1.8,1.2,2c-0.2,0.3-0.4,0.7-0.6,1c-0.2,0.4-0.4,0.9-0.6,1.3c0.8,0.5,1.7,0.7,2.6,0.6c0,0.1,0,0.2,0,0.3
			c0,0.6,0,1.1,0.1,1.7c0,0.2,0.1,0.3,0.1,0.5c1.4,0,2.2-0.3,2.6-1c0.1,0.5,0.3,1,0.5,1.5c0.1,0.3,0.3,0.6,0.6,0.8
			c0.8-0.3,1.4-0.9,1.8-1.7C142.4,38.7,142.7,39.6,143.3,40.4z"/>
		<path fill-rule="evenodd" clip-rule="evenodd" d="M147.2,42.9c0,1.2-0.4,2.4-1.1,3.3c0.1,0.3,0.2,0.6,0.2,1
			c0.1,0.8,0.6,1.6,1.3,2.1c0.7-0.9,1.1-2,1.1-3.1C147.9,45.3,147.4,44.2,147.2,42.9z"/>
		<path fill-rule="evenodd" clip-rule="evenodd" d="M145.7,39.1c0,1.3-0.4,2.6-1.2,3.7c0,0.4,0.1,0.8,0.2,1.1c0.1,1,0.7,1.9,1.5,2.4
			c0.7-1,1.1-2.1,1.1-3.3C146.4,41.8,145.8,40.5,145.7,39.1z"/>
		<path fill-rule="evenodd" clip-rule="evenodd" d="M147.2,42.9c-0.9-1.1-1.4-2.5-1.6-3.9c0.6-0.4,1.1-1.5,1.3-3.3
			c0.2,1.3,0.8,2.5,1.6,3.5C148.6,40.6,148.1,41.9,147.2,42.9z"/>
		<path fill-rule="evenodd" clip-rule="evenodd" d="M143.3,40.4c0.9-0.9,1.3-2.1,1.3-3.3c0.1,0.8,0.5,1.4,1.1,1.9
			c0,1.3-0.4,2.6-1.2,3.7C143.8,42.2,143.3,41.3,143.3,40.4z"/>
		<path fill-rule="evenodd" clip-rule="evenodd" d="M147.2,42.9c0.9-1,1.3-2.3,1.4-3.7c0.1,1.3,0.5,2.6,1.4,3.7
			c-0.2,1.9-0.6,2.8-1.2,3.3C147.9,45.3,147.4,44.2,147.2,42.9z"/>
		<path fill-rule="evenodd" clip-rule="evenodd" d="M143.6,45c0.4-0.3,0.8-0.7,1.1-1.1c-0.1-0.4-0.1-0.8-0.2-1.1
			c-0.7-0.6-1.2-1.4-1.2-2.3c-0.6-0.8-0.9-1.7-1-2.7c0.3,1.5,0.3,3-0.1,4.4C142.9,43,143.4,43.9,143.6,45z"/>
		<path fill-rule="evenodd" clip-rule="evenodd" d="M144.9,49l0.2,0.2c1.2-0.3,1.6-1.3,1.1-2.9c-0.8-0.6-1.3-1.4-1.5-2.4
			c-0.3,0.4-0.7,0.8-1.1,1.1c-0.1-0.4-0.2-0.7-0.3-1.1c-0.1,1.4-0.6,2.7-1.4,3.8l1.5,1.3c-1-2.1,1.8-2.6,2.1-1.1
			C145.5,48.4,145.3,48.9,144.9,49z"/>
		<path fill-rule="evenodd" clip-rule="evenodd" d="M147.2,49c-0.5-0.5-0.8-1.1-0.9-1.8c0.2,0.8-0.3,1.7-1.2,1.9c0,0-0.1,0-0.1,0
			c0.8,0.5,1.1,1.5,0.8,2.3c0.1,0.1,0.2,0.2,0.4,0.2C146.8,50.9,147.1,50,147.2,49z"/>
		<path fill-rule="evenodd" clip-rule="evenodd" d="M147.5,54.2c-0.7-0.6-1.2-1.5-1.3-2.5c0.6-0.8,0.9-1.7,1.1-2.7
			c0.1,0.1,0.2,0.2,0.4,0.3c0.2,0.9,0.6,1.7,1.2,2.4C148.6,52.7,148.2,53.5,147.5,54.2z"/>
		<path fill-rule="evenodd" clip-rule="evenodd" d="M150,49.3c-0.7-0.9-1.2-1.9-1.2-3.1c0,1.1-0.4,2.2-1.1,3.1
			c0.2,0.9,0.6,1.7,1.2,2.4C149.4,51.1,149.8,50.2,150,49.3z"/>
		<path fill-rule="evenodd" clip-rule="evenodd" d="M149.3,57c0.4-0.8,0.7-1.8,0.7-2.7c-0.7-0.7-1.1-1.5-1.2-2.5
			c-0.2,0.9-0.6,1.8-1.3,2.5C148,55.2,148.5,56.1,149.3,57z"/>
		<path fill-rule="evenodd" clip-rule="evenodd" d="M146.7,34.5c0.2-0.2,0.4-0.4,0.5-0.7c0.2,0.8,0.7,1.4,1.5,1.6
			c0.5-0.2,0.9-0.5,1.3-0.9c0.1,1.7-0.4,3.4-1.4,4.8c-0.9-1-1.4-2.2-1.6-3.5C146.9,35.4,146.8,34.9,146.7,34.5z"/>
		<path fill-rule="evenodd" clip-rule="evenodd" d="M150,34.5c-0.1,1.7,0.4,3.4,1.4,4.8c-0.1,1.3-0.5,2.6-1.4,3.7
			c-0.8-1.1-1.3-2.3-1.4-3.7C149.6,37.9,150,36.2,150,34.5z"/>
		<path fill-rule="evenodd" clip-rule="evenodd" d="M141.1,56.3c-0.1,0.6-0.4,1.2-0.9,1.7c0.8,1.4,2.3,2.1,3.9,2
			c-0.6-0.6-0.8-1.5-0.4-2.3c-0.7-0.4-1.2-1.4-1.1-2.9C142.4,55.5,141.8,56.1,141.1,56.3z"/>
		<path fill-rule="evenodd" clip-rule="evenodd" d="M141.1,56.3c-0.1,1.3-1.3,2.3-2.6,2.2c-0.4,0-0.8-0.2-1.2-0.5
			c1.6-0.3,1.9-2.9,0.6-3.6c0.9,0.4,1.9-0.1,2.9-1.5c-0.5,1.1-0.6,2.3-0.3,3.5C140.6,56.4,140.8,56.4,141.1,56.3z"/>
		<path fill-rule="evenodd" clip-rule="evenodd" d="M147.1,54.9c0.2,0.1,0.3,0.1,0.5,0.2c0.8,0.5,1.1,1.4,0.9,2.3
			c0.2,1.3,0.8,2.5,1.5,3.5c0.7-1,1.3-2.2,1.5-3.5c-0.2-0.9,0.1-1.8,0.9-2.3c0.1-0.1,0.3-0.2,0.5-0.2c1-0.3,2.1,0.2,2.4,1.2
			c0.2,0.6,0.1,1.3-0.4,1.8c1.5,0.3,2.7-0.8,2.5-3.1c0.2,1,1.1,1.7,2.2,1.7c0.3-1.2,0.2-2.4-0.3-3.5c1.1,1.5,2.2,2,3.2,1.3
			c-1.2-0.2-1-1.3-1.4-2.2c-0.4-1.1-1.2-2.3-2.5-1.9c-1.1,0.3-1.5,1.9-2.8,2.1c-0.7,0.1-1.3-0.2-1.7-0.8c-0.1,0.1-0.2,0.2-0.4,0.2
			c-0.1,1-0.6,1.9-1.3,2.5c-0.4,1-1,1.9-1.8,2.7c-0.4-0.9-0.6-1.8-0.7-2.7c0,0.9-0.2,1.9-0.7,2.7c-0.7-0.8-1.3-1.7-1.8-2.7
			c-0.7-0.6-1.2-1.5-1.3-2.5c-0.1-0.1-0.2-0.1-0.4-0.2c-0.3,0.6-1,0.9-1.7,0.8c-1.3-0.3-1.7-1.8-2.8-2.1c-1.3-0.4-2.1,0.8-2.5,1.9
			c-0.4,0.9-0.2,2-1.4,2.2c1,0.7,2.1,0.3,3.2-1.3c-0.5,1.1-0.6,2.3-0.3,3.5c1,0,1.9-0.7,2.2-1.7c-0.2,2.3,1,3.4,2.5,3.1
			c-0.7-0.8-0.6-2,0.2-2.7C145.7,54.8,146.5,54.6,147.1,54.9L147.1,54.9z"/>
		<path fill-rule="evenodd" clip-rule="evenodd" d="M158.9,56.3c0.1,0.6,0.4,1.2,0.9,1.7c-0.8,1.4-2.3,2.1-3.9,2
			c0.6-0.6,0.8-1.5,0.4-2.3c0.7-0.4,1.2-1.4,1.1-2.9C157.5,55.5,158.1,56.1,158.9,56.3z"/>
		<path fill-rule="evenodd" clip-rule="evenodd" d="M158.9,56.3c0.1,1.3,1.3,2.3,2.6,2.2c0.4,0,0.9-0.2,1.2-0.5
			c-1.6-0.3-1.9-2.9-0.6-3.6c-0.9,0.4-1.9-0.1-2.9-1.5c0.5,1.1,0.6,2.3,0.3,3.5C159.3,56.4,159.1,56.4,158.9,56.3z"/>
		<path fill-rule="evenodd" clip-rule="evenodd" d="M168.3,29.5c1.3-0.6,2.3-1.7,2.8-3c1.4-1.8,2.3-3.9,2.7-6.1
			c0.8-0.2,1.6-0.6,2.1-1.2c0.7,3.7-0.6,7.8-4.3,11.6c0.3-0.5,0.5-0.9,0.7-1.4C171.2,29.9,169.7,30,168.3,29.5z"/>
		<path fill-rule="evenodd" clip-rule="evenodd" d="M168.2,17.2c-0.3,2.1-1,4.2-2.2,6c1.4-0.5,2.6-1.4,3.4-2.6
			c0.2,1.7-0.6,3.7-2.4,6c0.3,0,0.5-0.1,0.8-0.1c4.2-5.8,5.4-12.8,1.6-15.9C169.6,12.9,169.2,15.2,168.2,17.2z"/>
		<path fill-rule="evenodd" clip-rule="evenodd" d="M167.9,14.8l-3.4,6.6c0.5,1.5,0.4,3.1-0.3,4.5C167.6,21.2,168.8,17.5,167.9,14.8
			z"/>
		<path fill-rule="evenodd" clip-rule="evenodd" d="M164.2,25.9c-0.2,0.4-0.4,0.8-0.6,1.2c0.2,0,0.4,0,0.6,0.1
			c0.1,0.8,0,1.6-0.4,2.3c0.1,0,0.3,0.1,0.4,0.1c3.8-3.6,5.5-6.6,5.2-9c-0.9,1.2-2.1,2.1-3.4,2.6C165.5,24.1,164.9,25,164.2,25.9z"
			/>
		<path fill-rule="evenodd" clip-rule="evenodd" d="M171.1,26.5c2.8-3.9,3.6-7.8,2.4-11.7c-0.4,0.9-1,1.7-1.9,2.3
			c-0.4,3.4-1.8,6.7-3.9,9.5c1.4-0.3,2.6-0.9,3.7-1.8C171.5,25.3,171.4,25.9,171.1,26.5z"/>
		<path fill-rule="evenodd" clip-rule="evenodd" d="M177.5,24.6c0,3.6-1.9,6.7-5.9,9c-1.2,0.2-2.4,0.1-3.6-0.3
			c1.5-0.4,2.8-1.3,3.7-2.6c1.5-1.6,2.7-3.4,3.6-5.4C176.1,25.4,176.9,25.1,177.5,24.6z"/>
		<path fill-rule="evenodd" clip-rule="evenodd" d="M170.2,38.7c5-0.9,7.5-3.8,7.8-8.8c-0.7,0.6-1.7,0.8-2.5,0.5
			c-1.1,1.3-2.4,2.4-3.8,3.2c0.4,0,0.7-0.1,1.1-0.2c-0.8,2.1-2.8,3.4-5,3.2C168.4,37.5,169.2,38.2,170.2,38.7z"/>
		<path fill-rule="evenodd" clip-rule="evenodd" d="M170.2,38.7c0.5,0.3,1.1,0.5,1.7,0.7c-2.5,1.1-4.5,1.3-6.2,0.5
			c0,0.9,0.3,1.7,0.7,2.5c6.7,1.6,10.8-0.4,12.1-6c-1,0.5-2.1,0.4-3,0C173.9,37.6,172.1,38.4,170.2,38.7z"/>
		<path fill-rule="evenodd" clip-rule="evenodd" d="M164.7,43.1c5.8,3.8,9.9,3.8,12.1,0c-1,0.2-2.1-0.1-2.8-0.8
			c-2,0.8-4.5,0.8-7.6,0.1c0.2,0.4,0.4,0.7,0.7,1C166.2,43.4,165.4,43.3,164.7,43.1z"/>
		<path fill-rule="evenodd" clip-rule="evenodd" d="M164.7,43.1c-1.4-0.3-2.6-1-3.5-2c-0.1,0.5-0.1,1-0.1,1.6
			c3.9,4.9,8,6.5,12.3,4.8c-0.8-0.2-1.4-0.8-1.6-1.5C169.8,45.9,167.4,44.9,164.7,43.1z"/>
		<path fill-rule="evenodd" clip-rule="evenodd" d="M166.4,47.3c-2.1-1.1-3.9-2.7-5.4-4.6c0,0.9,0.3,1.8,0.6,2.6
			c-1-0.1-1.9-0.5-2.7-1.1c0.8,3.5,3.4,5.4,7.7,5.5C166.2,49,166.1,48.1,166.4,47.3z"/>
		<path fill-rule="evenodd" clip-rule="evenodd" d="M163.6,27.1c1.5-2.8,1.6-5,0.3-6.6c-0.2,1.7-0.9,3.3-1.9,4.7
			c0.3,0.7,0.3,1.5,0,2.2C162.5,27.2,163.1,27.1,163.6,27.1z"/>
		<path fill-rule="evenodd" clip-rule="evenodd" d="M164.2,29.7c0.5,0.2,1,0.5,1.5,0.9c3.8-1.2,5.7-3.2,5.8-5.9
			c-1.3,1-2.8,1.7-4.5,2C166.2,27.7,165.2,28.7,164.2,29.7z"/>
		<path fill-rule="evenodd" clip-rule="evenodd" d="M168.3,29.5c-0.8,0.5-1.7,0.8-2.6,1.1c0,0,0.1,0.1,0.1,0.1
			c-0.4,1.1-0.8,1.8-1.2,2c0.2,0.3,0.4,0.7,0.6,1c3.7,0,6.2-1.5,7.3-4.4C171.2,29.9,169.6,30,168.3,29.5z"/>
		<path fill-rule="evenodd" clip-rule="evenodd" d="M168,33.3c1.5,0.4,3.1,0.5,4.7,0.1c-1.3,3.2-4.4,4-9.5,2.5c0-0.1,0-0.2,0-0.3
			c0.9,0.1,1.9-0.1,2.6-0.6c-0.2-0.5-0.4-0.9-0.6-1.3C166.1,33.7,167.1,33.6,168,33.3z"/>
		<path fill-rule="evenodd" clip-rule="evenodd" d="M167.7,36.7c-1.5,0-3.1-0.3-4.5-0.7c0,0.6,0,1.1-0.1,1.7
			c1.9,2.9,4.8,3.5,8.8,1.8C170.2,38.9,168.8,38,167.7,36.7z"/>
		<path fill-rule="evenodd" clip-rule="evenodd" d="M165.7,39.9c-1.1-0.5-1.9-1.3-2.5-2.3c0,0.2-0.1,0.3-0.1,0.5
			c-1.4,0-2.2-0.3-2.6-1c-0.1,0.5-0.3,1-0.5,1.5c0.9,3.2,3.3,4.8,7.1,4.7C166.2,42.4,165.7,41.1,165.7,39.9z"/>
		<path fill-rule="evenodd" clip-rule="evenodd" d="M157.6,37.7c-0.8,4.4,0.6,6.9,4.1,7.5c-0.6-1.3-0.8-2.8-0.5-4.2
			c-0.6-0.7-1-1.6-1.3-2.5c-0.1,0.3-0.3,0.6-0.6,0.8C158.5,39.1,157.9,38.5,157.6,37.7z"/>
		<path fill-rule="evenodd" clip-rule="evenodd" d="M156.7,43.9c0.4,3.4,1.9,5.2,4.2,5.5c-0.4-0.5-0.4-1.2,0-1.7
			c-1-1-1.6-2.2-1.9-3.5c-0.6-0.5-1.1-1.2-1.3-1.9C157.3,42.7,156.9,43.3,156.7,43.9z"/>
		<path fill-rule="evenodd" clip-rule="evenodd" d="M156.6,40.4c-0.9-0.9-1.3-2.1-1.3-3.3c-0.1,0.8-0.5,1.4-1.1,1.9
			c-0.6-0.4-1.1-1.5-1.3-3.3c0.1-0.4,0.2-0.9,0.3-1.3c0.3,0.2,0.7,0.2,1,0.1c0.1,0.1,0.3,0.1,0.5,0.1c0.6-0.2,1.2-0.9,2.1-0.6
			c0.7,0.3,0.7,1,1.4,1.4c0.3,0.3,0.8,0.3,1.2,0c0.3-0.2,0.9-0.8,1.5-1.4c0.4-0.3,0.7-0.7,0.9-1.1c0.7-1.1-1.4-1.5-2.1-1.9
			c-0.8-0.4-1.2-1.4-0.7-2.3c0,0,0,0,0,0v0c0.2-0.3,0.5-0.6,0.8-0.9c0.8-0.9,1.5-1.9,2.2-2.8c0.3,0.7,0.3,1.5,0,2.2
			c0.5-0.2,1.1-0.3,1.7-0.3c0.2,0,0.4,0,0.6,0.1c0.1,0.8,0,1.6-0.4,2.3c0.1,0,0.3,0.1,0.4,0.1c0.5,0.2,1,0.5,1.5,0.9l0.1,0.1
			c-0.4,1.1-0.8,1.8-1.2,2c0.2,0.3,0.4,0.7,0.6,1c0.2,0.4,0.4,0.9,0.6,1.3c-0.8,0.5-1.7,0.7-2.6,0.6c0,0.1,0,0.2,0,0.3
			c0,0.6,0,1.1-0.1,1.7c0,0.2-0.1,0.3-0.1,0.5c-1.4,0-2.2-0.3-2.6-1c-0.1,0.5-0.3,1-0.5,1.5c-0.1,0.3-0.3,0.6-0.6,0.8
			c-0.8-0.3-1.4-0.9-1.8-1.7C157.5,38.7,157.2,39.6,156.6,40.4z"/>
		<path fill-rule="evenodd" clip-rule="evenodd" d="M152.7,42.9c0,1.2,0.4,2.4,1.1,3.3c-0.1,0.3-0.2,0.6-0.2,1
			c-0.1,0.8-0.6,1.6-1.3,2.1c-0.7-0.9-1.1-2-1.1-3.1C152,45.3,152.5,44.2,152.7,42.9z"/>
		<path fill-rule="evenodd" clip-rule="evenodd" d="M154.2,39.1c0,1.3,0.4,2.6,1.2,3.7c0,0.4-0.1,0.8-0.2,1.1
			c-0.1,1-0.7,1.9-1.5,2.4c-0.7-1-1.1-2.1-1.1-3.3C153.5,41.8,154.1,40.5,154.2,39.1z"/>
		<path fill-rule="evenodd" clip-rule="evenodd" d="M152.7,42.9c0.9-1.1,1.4-2.5,1.6-3.9c-0.6-0.4-1.1-1.5-1.3-3.3
			c-0.2,1.3-0.8,2.5-1.6,3.5C151.3,40.6,151.8,41.9,152.7,42.9z"/>
		<path fill-rule="evenodd" clip-rule="evenodd" d="M156.6,40.4c-0.9-0.9-1.3-2-1.3-3.3c-0.1,0.8-0.5,1.4-1.1,1.9
			c0,1.3,0.4,2.6,1.2,3.7C156.1,42.2,156.6,41.3,156.6,40.4z"/>
		<path fill-rule="evenodd" clip-rule="evenodd" d="M152.7,42.9c-0.9-1-1.3-2.3-1.4-3.7c-0.1,1.3-0.5,2.6-1.4,3.7
			c0.2,1.9,0.6,2.8,1.2,3.3C152,45.3,152.5,44.2,152.7,42.9z"/>
		<path fill-rule="evenodd" clip-rule="evenodd" d="M156.4,45c-0.4-0.3-0.8-0.7-1.1-1.1c0.1-0.4,0.1-0.8,0.2-1.1
			c0.7-0.6,1.2-1.4,1.2-2.3c0.6-0.8,0.9-1.7,1-2.7c-0.3,1.5-0.3,3,0.1,4.4C157,43,156.6,43.9,156.4,45z"/>
		<path fill-rule="evenodd" clip-rule="evenodd" d="M155.1,49l-0.2,0.2c-1.2-0.3-1.6-1.3-1.1-2.9c0.8-0.6,1.3-1.4,1.5-2.4
			c0.3,0.4,0.7,0.8,1.1,1.1c0.1-0.4,0.2-0.7,0.3-1.1c0.1,1.4,0.6,2.7,1.4,3.8l-1.5,1.3c1-2.1-1.8-2.6-2.1-1.1
			C154.4,48.4,154.6,48.9,155.1,49z"/>
		<path fill-rule="evenodd" clip-rule="evenodd" d="M152.7,49c0.5-0.5,0.8-1.1,0.9-1.8c-0.2,0.8,0.3,1.7,1.2,1.9c0,0,0,0,0,0
			c0,0,0.1,0,0.1,0c-0.8,0.5-1.1,1.5-0.8,2.3c-0.1,0.1-0.2,0.2-0.4,0.2C153.1,50.9,152.8,50,152.7,49z"/>
		<path fill-rule="evenodd" clip-rule="evenodd" d="M152.4,54.2c0.7-0.6,1.2-1.5,1.3-2.5c-0.6-0.8-1-1.7-1.1-2.7
			c-0.1,0.1-0.2,0.2-0.4,0.3c-0.2,0.9-0.6,1.7-1.2,2.4C151.3,52.7,151.7,53.5,152.4,54.2z"/>
		<path fill-rule="evenodd" clip-rule="evenodd" d="M150,49.3c0.7-0.9,1.2-1.9,1.2-3.1c0,1.1,0.4,2.2,1.1,3.1
			c-0.2,0.9-0.6,1.7-1.2,2.4C150.5,51.1,150.1,50.2,150,49.3z"/>
		<path fill-rule="evenodd" clip-rule="evenodd" d="M150.6,57c-0.4-0.8-0.7-1.8-0.7-2.7c0.7-0.7,1.1-1.5,1.2-2.5
			c0.2,0.9,0.6,1.8,1.3,2.5C152,55.2,151.4,56.1,150.6,57z"/>
		<path fill-rule="evenodd" clip-rule="evenodd" d="M153.2,34.5c-0.2-0.2-0.4-0.4-0.5-0.7c-0.2,0.8-0.7,1.4-1.5,1.6
			c-0.5-0.2-0.9-0.5-1.3-0.9c-0.1,1.7,0.4,3.4,1.4,4.8c0.9-1,1.4-2.2,1.6-3.5C153,35.4,153.2,34.9,153.2,34.5z"/>
		<path fill-rule="evenodd" clip-rule="evenodd" d="M148.7,46.3c0.1,1.1,0.5,2.2,1.2,3.1c0.7-0.9,1.2-1.9,1.2-3.1
			c-0.6-0.5-1-1.4-1.2-3.3C149.8,44.8,149.4,45.7,148.7,46.3z"/>
		<path fill-rule="evenodd" clip-rule="evenodd" d="M148.8,51.8c0.6-0.7,1-1.5,1.2-2.4c0.2,0.9,0.6,1.7,1.2,2.4
			c-0.1,0.9-0.5,1.8-1.2,2.5C149.3,53.5,148.9,52.7,148.8,51.8z"/>
		<path fill="none" stroke="#666666" stroke-width="0.9" stroke-linecap="round" stroke-linejoin="round" d="M143.6,69.4
			c0.7-0.3,2.2-0.9,2.5-1.8 M146.1,67.6c2.2-0.8,3.4-2.9,3.9-6c0.4,3.2,1.7,5.2,3.9,6 M146.1,67.6c-2.3,0.9-5.2-0.5-7,2 M148.2,66.1
			c-0.2,0.2-0.4,0.5-0.7,0.7c-1.1,0.8-2.9,0.9-3.4-0.6 M148.6,72.4c0.8-0.5,1.3-1.3,1.3-2.3c0,0.9,0.5,1.8,1.3,2.3 M150,60.9v12.8
			 M156.3,69.4c-0.7-0.3-2.2-0.9-2.5-1.8 M153.8,67.6c2.3,0.9,5.2-0.5,7,2 M151.7,66.1c0.2,0.2,0.4,0.5,0.7,0.7
			c1.1,0.8,2.9,0.9,3.4-0.6"/>
		<path fill="none" stroke="#666666" stroke-width="0.9" stroke-linecap="round" stroke-linejoin="round" d="M150,49.3v2.4
			 M150,49.3c-0.7-0.9-1.2-1.9-1.2-3.1c0,1.1-0.4,2.2-1.1,3.1 M150,49.3c-0.2,0.9-0.6,1.7-1.2,2.4 M150,49.3
			c0.7-0.9,1.2-1.9,1.2-3.1c0,1.1,0.4,2.2,1.1,3.1 M150,49.3c0.2,0.9,0.6,1.7,1.2,2.4 M150,49.3c-0.7-0.9-1.2-1.9-1.2-3.1 M150,49.3
			c0.7-0.9,1.2-1.9,1.2-3.1 M135.1,23c-0.9-1.2-1.5-2.5-2-3.9 M148.6,39.3v3.5 M148.6,39.3c-0.9-1-1.4-2.2-1.6-3.5 M148.6,39.3
			c0,1.3-0.5,2.6-1.4,3.7 M148.6,39.3c0.1,1.3,0.5,2.6,1.4,3.7 M148.6,39.3c0.9-1.4,1.4-3.1,1.4-4.8 M148.6,35.4l0,1.9 M148.6,35.4
			c-0.8-0.2-1.3-0.9-1.5-1.6c-0.1,0.3-0.2,0.5-0.5,0.7 M148.6,35.4c0.5-0.2,0.9-0.5,1.3-0.9 M150,34.5v4.2 M150,34.5
			c-0.1,1.7,0.4,3.4,1.4,4.8 M150,34.5c0.4,0.4,0.8,0.7,1.3,0.9 M145,38.2l-0.5,1.7 M147,35.8l0.1,3.6 M147,35.8
			c-0.2,1.8-0.7,2.9-1.3,3.3 M147,35.8c-0.1-0.4-0.2-0.9-0.3-1.3 M145.7,39.1l0.2,3.6 M145.7,39.1c-0.6-0.5-1-1.2-1.1-1.9
			 M145.7,39.1c0,1.3-0.4,2.6-1.2,3.7 M145.7,39.1c0.1,1.4,0.7,2.8,1.6,3.9 M150,54.2v3.3 M150,54.2c0,1-0.2,1.9-0.7,2.7
			c-0.7-0.8-1.3-1.7-1.8-2.7 M150,54.2c-0.7-0.7-1.1-1.5-1.2-2.5 M150,54.2c0,0.9,0.2,1.9,0.7,2.7c0.7-0.8,1.3-1.7,1.8-2.7
			 M150,54.2c0.7-0.7,1.1-1.5,1.2-2.5 M148.8,51.7l-0.1,2.6 M148.8,51.7c-0.6-0.7-1-1.5-1.2-2.4 M148.8,51.7
			c-0.2,0.9-0.6,1.8-1.3,2.5 M147.4,49.2l0.1,2.4 M150,42.9v3.2 M150,42.9c-0.2,1.9-0.6,2.8-1.2,3.3 M150,42.9
			c0.8-1.1,1.3-2.3,1.4-3.7 M150,42.9c0.2,1.9,0.6,2.8,1.2,3.3 M147.2,42.9l0.2,3.2 M147.2,42.9c0,1.2-0.4,2.4-1.1,3.3 M147.2,42.9
			c0.1,1.2,0.7,2.4,1.5,3.3 M148.7,46.3l0,2.7 M148.7,46.3c0,1.1-0.4,2.2-1.1,3.1 M148.7,46.3c-0.8-0.9-1.3-2.1-1.5-3.3
			c0,1.2-0.4,2.4-1.1,3.3 M141.2,39.2c0.1,0.9-0.2,1.8-0.8,2.5 M138.3,37.9c-0.2,1.1-0.9,2-1.8,2.6 M136.7,36.8
			c-1,0.8-2.2,1.3-3.5,1.5 M134.1,35c-0.7,0.1-1.4,0.1-2.1,0 M134.1,35c0.8,0.5,1.7,0.7,2.6,0.6c0,0.1,0,0.2,0,0.3
			c-5.1,1.5-8.3,0.7-9.5-2.5 M134.1,35c0.2-0.5,0.4-0.9,0.6-1.3 M134.1,35c0.2-0.5,0.4-0.9,0.6-1.3c0.2-0.3,0.4-0.7,0.6-1 M134.1,35
			c0.8,0.5,1.7,0.7,2.6,0.6c0,0.1,0,0.2,0,0.3 M134.7,32.1c-1,0.1-2.1-0.1-3-0.7 M133.3,24.6c0.6,1.2,1.4,2.3,2.4,3.3 M132.3,28.1
			c0.7,0.9,1.6,1.6,2.7,2 M142.5,42.5c0.1,1.9-0.6,3.8-2,5.2 M138.7,45.2c-0.5,1.1-1.4,1.9-2.5,2.3 M138.8,41.6
			c-2.2,2.8-5.4,4.7-8,5.1 M132.9,43.4c-1.8,1-3.9,1.2-5.8,0.7 M132.9,43.4c0.3-0.3,0.5-0.6,0.7-1 M132.9,43.4
			c0.8,0,1.6-0.1,2.4-0.2 M132.9,43.4c3.8,0,6.2-1.6,7.1-4.7 M132.9,43.4c0.8-1,1.3-2.2,1.4-3.5 M134.1,41.1c-3.7,1-7.4,0.1-8.8-1.8
			 M125.3,22.8c0.7,2.7,2.2,5.1,4.3,6.9 M130,17.1c0.1,1.8,0.8,3.5,1.9,5 M146.2,34.7c-0.3,0.5-0.4,1-0.4,1.6 M131.6,29.5
			c-1.3-0.6-2.3-1.7-2.8-3c-1.4-1.8-2.3-3.9-2.7-6.1c-0.8-0.2-1.6-0.6-2.1-1.2c-0.7,3.7,0.6,7.8,4.3,11.6 M131.6,29.5
			c-1.4,0.5-2.9,0.4-4.2-0.2 M131.6,29.5c0.8,0.5,1.7,0.8,2.6,1.1 M128.2,30.7c-0.3-0.5-0.5-0.9-0.7-1.4 M128.2,30.7
			c0.9,1.3,2.2,2.2,3.7,2.6 M128.2,30.7c-1.5-1.6-2.8-3.4-3.6-5.4c-0.8,0.1-1.6-0.2-2.1-0.8c0,3.6,1.9,6.7,5.9,9
			c1.2,0.2,2.4,0.1,3.6-0.3 M127.4,29.3c1.1,2.9,3.6,4.4,7.3,4.4 M133.9,23.2c-1.2-1.8-1.9-3.9-2.2-6c-1-2.1-1.4-4.4-1.3-6.7
			c-3.7,3.1-2.6,10.1,1.6,15.9 M133.9,23.2c-1.4-0.5-2.6-1.4-3.4-2.6 M133.9,23.2c0.5,0.9,1.1,1.8,1.8,2.7 M130.5,20.7
			c-0.2,1.7,0.6,3.7,2.4,6 M130.5,20.7c-0.3,2.4,1.4,5.4,5.2,9 M132.9,26.7c-0.3,0-0.5-0.1-0.8-0.1 M132.9,26.7
			c-1.6-0.2-3.2-0.9-4.5-2 M132.9,26.7c0.9,1.1,1.8,2.1,2.8,3 M132.1,26.5c-2.1-2.8-3.4-6-3.9-9.5c-0.8-0.6-1.5-1.4-1.9-2.3
			c-1.2,3.9-0.4,7.9,2.4,11.7c-0.2-0.6-0.3-1.2-0.4-1.8 M132.1,26.5c-1.4-0.3-2.6-0.9-3.7-1.8 M135.7,25.9c-0.7-1.4-0.8-3-0.3-4.5
			c-1.1-2.2-2.3-4.4-3.4-6.6C131.1,17.5,132.3,21.2,135.7,25.9z M135.7,25.9c0.2,0.4,0.4,0.8,0.6,1.2 M136.3,27.1
			c-0.2,0-0.4,0-0.6,0.1 M136.3,27.1c-1.5-2.8-1.6-5-0.3-6.6c0.2,1.7,0.9,3.3,1.9,4.7 M136.3,27.1c0.6,0,1.1,0.1,1.7,0.3
			 M136.3,27.1c-0.2,0-0.4,0-0.6,0.1 M135.7,27.2c-0.1,0.8,0,1.6,0.4,2.3c-0.1,0-0.3,0.1-0.4,0.1 M135.7,29.7
			c-0.5,0.2-1,0.5-1.5,0.9 M128.4,24.7c0.1,2.7,2,4.7,5.8,5.9 M131.9,33.3c-1.5,0.4-3.1,0.5-4.7,0.1 M131.9,33.3
			c0.9,0.2,1.9,0.4,2.8,0.4 M129.7,38.7c-5-0.9-7.5-3.8-7.7-8.8c0.7,0.6,1.7,0.8,2.5,0.5c1.1,1.3,2.4,2.4,3.8,3.2
			c-0.4,0-0.7-0.1-1.1-0.2 M129.7,38.7c1-0.5,1.8-1.2,2.5-2 M129.7,38.7c-0.5,0.3-1.1,0.5-1.7,0.7 M129.7,38.7
			c-1.9-0.3-3.7-1.1-5.2-2.4c-1,0.5-2.1,0.5-3,0c1.3,5.6,5.4,7.6,12.1,6 M127.2,33.4c0.8,2.1,2.8,3.4,5,3.2 M132.2,36.7
			c1.5,0,3.1-0.3,4.5-0.7 M132.2,36.7c-1.1,1.3-2.5,2.3-4.2,2.7 M128,39.4c2.5,1.1,4.5,1.3,6.2,0.5 M128,39.4
			c3.9,1.7,6.8,1.1,8.8-1.8 M134.3,39.9c0,0.9-0.3,1.7-0.7,2.5 M134.3,39.9c1.1-0.5,1.9-1.3,2.5-2.3 M133.6,42.4
			c-3.1,0.7-5.7,0.7-7.6-0.1c-0.7,0.7-1.8,1-2.8,0.8c2.2,3.8,6.3,3.8,12.1,0 M135.2,43.1c1.4-0.3,2.6-1,3.5-2 M135.2,43.1
			c-2.8,1.8-5.1,2.7-7.1,2.8c-0.2,0.8-0.9,1.4-1.6,1.5c4.3,1.7,8.4,0.1,12.3-4.8 M138.7,41.1c0.1,0.5,0.1,1,0.1,1.6 M138.7,41.1
			c0.3,1.4,0.1,2.9-0.5,4.2 M138.7,41.1c0.6-0.7,1-1.6,1.3-2.5 M138.8,42.7c-1.4,1.9-3.2,3.5-5.4,4.6c0.4,0.8,0.2,1.7-0.3,2.4
			c4.3-0.2,6.9-2,7.7-5.5 M138.8,42.7c0,0.9-0.3,1.8-0.6,2.6 M138.2,45.3c1-0.1,1.9-0.5,2.7-1.1 M138.2,45.3
			c3.5-0.6,4.9-3.1,4.1-7.5 M140.9,44.1c-0.3,1.3-0.9,2.6-1.9,3.5c0.4,0.5,0.4,1.2,0,1.7c2.4-0.3,3.8-2.1,4.2-5.5 M140.9,44.1
			c0.6-0.5,1.1-1.2,1.3-1.9 M137.9,25.2c-0.3,0.7-0.3,1.5,0,2.2 M137.9,25.2c0.7,1,1.4,1.9,2.2,2.9c0.3,0.3,0.6,0.6,0.8,0.9
			c0.4,0.8,0.1,1.8-0.7,2.3h0c-0.7,0.4-2.7,0.7-2.1,1.9c0.3,0.4,0.6,0.8,0.9,1.1c0.6,0.5,1.2,1.1,1.5,1.4c0.4,0.3,0.8,0.2,1.2,0
			c0.6-0.4,0.6-1.1,1.4-1.4c0.8-0.3,1.5,0.4,2.1,0.6c0.2,0,0.3,0,0.5-0.1c0.3,0.1,0.7,0.1,1-0.1 M138,27.4c-1.1-1.2-1.9-2.7-2.2-4.3
			 M134.2,30.6c0,0-0.1,0.1-0.1,0.1 M134.2,30.6l-0.1,0.1 M134.1,30.7c0.4,1.1,0.8,1.8,1.2,2 M135.4,32.7c-0.2,0.3-0.4,0.7-0.6,1
			 M136.7,35.9c0,0.6,0,1.1,0.1,1.7 M136.7,35.9c0,0.6,0,1.1,0.1,1.7 M136.8,37.6c0,0.2,0.1,0.3,0.1,0.5c1.4,0,2.2-0.3,2.6-1
			c0.1,0.5,0.3,1,0.5,1.5 M140,38.6c0.1,0.3,0.3,0.6,0.6,0.8c0.8-0.3,1.4-0.9,1.8-1.7 M142.3,37.8c0,1,0.4,1.9,1,2.7 M143.3,43.9
			c-0.2-0.6-0.6-1.2-1-1.7 M143.3,43.9c0.1,0.3,0.2,0.7,0.3,1.1 M143.3,43.9c-0.1,1.4-0.6,2.7-1.4,3.8l1.5,1.3c-1-2.1,1.8-2.6,2-1.1
			c0.1,0.4-0.2,0.9-0.6,1l0.2,0.2 M142.2,42.2c0.4-1.4,0.4-3,0.1-4.4c0,1,0.4,1.9,1,2.7 M142.2,42.2c0.7,0.8,1.1,1.8,1.3,2.8
			 M143.3,40.4c0.9-0.9,1.3-2.1,1.3-3.3 M143.3,40.4c0.9-0.9,1.3-2.1,1.3-3.3 M143.3,40.4c0,0.9,0.5,1.8,1.2,2.3 M146.2,46.3
			c0.1,0.3,0.2,0.6,0.2,1 M146.2,46.3c-0.8-0.6-1.3-1.4-1.5-2.4 M146.2,46.3c0.5,1.6,0.2,2.6-1.1,2.9 M146.4,47.3
			c0.1,0.8,0.6,1.6,1.3,2.1 M146.4,47.3c0.1,0.7,0.4,1.3,0.9,1.8 M146.4,47.3c0.2,0.8-0.3,1.7-1.2,1.9c0,0,0,0,0,0c0,0-0.1,0-0.1,0
			 M147.6,49.4c-0.1-0.1-0.3-0.2-0.4-0.3 M144.5,42.7c0,0.4,0.1,0.8,0.2,1.1 M144.7,43.9c-0.3,0.4-0.7,0.8-1.1,1.1 M145.1,49.2
			c0.8,0.5,1.1,1.5,0.8,2.3c0.1,0.1,0.2,0.2,0.4,0.2 M147.2,49c-0.1,1-0.5,1.9-1,2.7 M146.2,51.7c0.1,1,0.6,1.9,1.3,2.5 M146.2,51.7
			c-0.1-0.1-0.2-0.1-0.4-0.2c-0.3,0.6-1,0.9-1.7,0.8c-1.3-0.3-1.7-1.8-2.8-2.1c-1.3-0.4-2.1,0.8-2.5,1.9c-0.4,0.9-0.2,2-1.4,2.2
			c1,0.7,2.1,0.3,3.2-1.3 M151.3,39.3c0.9-1,1.4-2.2,1.6-3.5 M151.3,39.3c0,1.3,0.5,2.6,1.4,3.7 M151.3,39.3v3.5 M141.1,56.3
			c-0.1,0.6-0.4,1.2-0.9,1.7c0.8,1.4,2.3,2.1,3.9,2c-0.6-0.6-0.8-1.5-0.4-2.3c-0.7-0.4-1.2-1.4-1.1-2.9 M141.1,56.3
			c0.8-0.2,1.4-0.8,1.5-1.6 M141.1,56.3c-0.1,1.3-1.3,2.3-2.6,2.2c-0.4,0-0.9-0.2-1.2-0.5c1.6-0.3,1.9-2.9,0.6-3.6
			c0.9,0.4,1.9-0.1,2.9-1.5 M141.1,56.3c-0.2,0.1-0.4,0.1-0.6,0.1 M142.6,54.8c-0.2,1-1.1,1.7-2.2,1.7 M142.6,54.8
			c-0.2,2.3,1,3.4,2.5,3.1c-0.7-0.8-0.6-2,0.2-2.7c0.5-0.4,1.2-0.6,1.8-0.4c0.2,0.1,0.3,0.1,0.5,0.2c0.8,0.5,1.1,1.4,0.9,2.3
			c0.2,1.3,0.8,2.5,1.5,3.5c0.7-1,1.3-2.2,1.5-3.5c-0.2-0.9,0.1-1.8,0.9-2.3c0.1-0.1,0.3-0.2,0.5-0.2c1-0.3,2.1,0.2,2.4,1.2
			c0.2,0.6,0.1,1.3-0.4,1.8c1.5,0.3,2.7-0.8,2.5-3.1 M140.7,52.9c-0.5,1.1-0.6,2.3-0.3,3.5 M157.3,54.8c0.2,1,1.1,1.7,2.2,1.7
			 M157.3,54.8c0.1,1.5-0.3,2.5-1.1,2.9c0.3,0.8,0.2,1.7-0.4,2.3c1.6,0.1,3.1-0.7,3.9-2c-0.5-0.4-0.8-1-0.9-1.7 M157.3,54.8
			c0.2,0.8,0.8,1.4,1.5,1.6 M159.5,56.4c0.3-1.2,0.2-2.4-0.3-3.5 M159.5,56.4c0.3-1.2,0.2-2.4-0.3-3.5 M159.5,56.4
			c-0.2,0-0.4,0-0.6-0.1 M159.2,52.9c1.1,1.5,2.2,2,3.2,1.3c-1.2-0.2-1-1.3-1.4-2.2c-0.4-1.1-1.2-2.3-2.5-1.9
			c-1.1,0.3-1.5,1.9-2.8,2.1c-0.7,0.1-1.3-0.2-1.7-0.8c-0.1,0.1-0.2,0.2-0.4,0.2 M159.2,52.9c1,1.4,1.9,1.9,2.9,1.5
			c-1.3,0.7-1,3.3,0.6,3.6c-1.1,0.8-2.6,0.6-3.4-0.5c-0.3-0.4-0.4-0.8-0.5-1.2 M153.7,51.7c-0.1,1-0.6,1.9-1.3,2.5 M153.7,51.7
			c0.1-0.1,0.2-0.1,0.4-0.2c-0.3-0.9,0-1.8,0.8-2.3 M153.7,51.7c-0.6-0.8-0.9-1.7-1-2.6 M152.4,54.2c-0.7-0.7-1.1-1.5-1.3-2.5
			 M168.3,29.5c1.3-0.6,2.3-1.7,2.9-3c1.4-1.8,2.3-3.9,2.7-6.1c0.8-0.2,1.6-0.6,2.1-1.2c0.7,3.7-0.6,7.8-4.3,11.6 M168.3,29.5
			c1.4,0.5,2.9,0.4,4.2-0.2 M168.3,29.5c-0.8,0.5-1.7,0.8-2.6,1.1 M171.7,30.7c0.3-0.5,0.5-0.9,0.7-1.4 M171.7,30.7
			c-0.9,1.3-2.2,2.2-3.7,2.6 M171.7,30.7c1.5-1.6,2.7-3.4,3.6-5.4c0.8,0.1,1.6-0.2,2.1-0.8c0,3.6-1.9,6.7-5.9,9
			c-1.2,0.2-2.4,0.1-3.6-0.3 M172.5,29.3c-1.1,2.9-3.6,4.4-7.3,4.4 M166,23.2c1.2-1.8,1.9-3.9,2.2-6c1-2.1,1.4-4.4,1.2-6.7
			c3.7,3.1,2.6,10.1-1.6,15.9 M166,23.2c1.4-0.5,2.6-1.4,3.4-2.6 M166,23.2c-0.5,0.9-1.1,1.8-1.8,2.7 M169.4,20.7
			c0.2,1.7-0.6,3.7-2.4,6 M169.4,20.7c0.3,2.4-1.4,5.4-5.2,9 M167,26.7c0.3,0,0.5-0.1,0.8-0.1 M167,26.7c1.6-0.2,3.2-0.9,4.5-2
			 M167,26.7c-0.9,1.1-1.8,2.1-2.8,3 M167.8,26.5c2.1-2.8,3.4-6,3.9-9.5c0.8-0.6,1.5-1.4,1.9-2.3c1.2,3.9,0.4,7.9-2.4,11.7
			c0.2-0.6,0.3-1.2,0.4-1.8 M167.8,26.5c1.4-0.3,2.6-0.9,3.7-1.8 M164.2,25.9c0.7-1.4,0.8-3,0.3-4.5l3.4-6.6
			C168.8,17.5,167.6,21.2,164.2,25.9L164.2,25.9z M164.2,25.9c-0.2,0.4-0.4,0.8-0.6,1.2 M163.6,27.1c0.2,0,0.4,0,0.6,0.1
			 M163.6,27.1c1.5-2.8,1.6-5,0.3-6.6c-0.2,1.7-0.9,3.3-1.9,4.7 M163.6,27.1c-0.6,0-1.1,0.1-1.7,0.3 M163.6,27.1
			c0.2,0,0.4,0,0.6,0.1 M164.2,27.2c0.1,0.8,0,1.6-0.4,2.3c0.1,0,0.3,0.1,0.4,0.1 M164.2,29.7c0.5,0.2,1,0.5,1.5,0.9 M171.5,24.7
			c-0.1,2.7-2,4.7-5.8,5.9 M168,33.3c1.5,0.4,3.1,0.5,4.7,0.1 M168,33.3c-0.9,0.2-1.9,0.4-2.8,0.4 M170.2,38.7
			c5-0.9,7.5-3.8,7.7-8.8c-0.7,0.6-1.6,0.8-2.5,0.5c-1.1,1.3-2.4,2.4-3.8,3.2c0.4,0,0.7-0.1,1.1-0.2 M170.2,38.7
			c-1-0.5-1.8-1.2-2.5-2 M170.2,38.7c0.5,0.3,1.1,0.5,1.7,0.7 M170.2,38.7c1.9-0.3,3.7-1.1,5.2-2.4c1,0.5,2.1,0.5,3,0
			c-1.3,5.6-5.4,7.6-12.1,6 M172.7,33.4c-0.8,2.1-2.8,3.4-5,3.2 M172.7,33.4c-1.3,3.2-4.4,4-9.5,2.5c0-0.1,0-0.2,0-0.3
			c0.9,0.1,1.9-0.1,2.6-0.6 M167.7,36.6c-1.5,0-3.1-0.3-4.5-0.7 M167.7,36.6c1.1,1.3,2.5,2.3,4.2,2.7 M171.9,39.4
			c-2.5,1.1-4.5,1.3-6.2,0.5 M171.9,39.4c-3.9,1.7-6.8,1.1-8.8-1.8 M165.7,39.9c0,0.9,0.3,1.7,0.7,2.5 M165.7,39.9
			c-1.1-0.5-1.9-1.3-2.5-2.3 M165.7,39.9c0,1.3,0.5,2.5,1.4,3.5 M166.3,42.4c3.1,0.7,5.6,0.7,7.6-0.1c0.7,0.7,1.8,1,2.8,0.8
			c-2.2,3.8-6.3,3.8-12.1,0 M166.3,42.4c0.2,0.4,0.4,0.7,0.7,1 M164.7,43.1c0.8,0.2,1.6,0.2,2.4,0.2 M164.7,43.1
			c-1.4-0.3-2.6-1-3.5-2 M164.7,43.1c2.8,1.8,5.1,2.7,7.1,2.8c0.2,0.8,0.9,1.4,1.6,1.5c-4.3,1.7-8.4,0.1-12.3-4.8 M167,43.4
			c-3.8,0-6.2-1.6-7.1-4.7 M167,43.4c1.8,1,3.9,1.2,5.8,0.7 M161.2,41.1c-0.1,0.5-0.1,1-0.1,1.6 M161.2,41.1
			c-0.3,1.4-0.1,2.9,0.5,4.2 M161.2,41.1c-0.6-0.7-1-1.6-1.3-2.5 M161.1,42.7c1.4,1.9,3.2,3.5,5.4,4.6c-0.4,0.8-0.2,1.7,0.3,2.4
			c-4.3-0.2-6.9-2-7.7-5.5 M161.1,42.7c0,0.9,0.3,1.8,0.6,2.6 M161.7,45.3c-1-0.1-1.9-0.5-2.7-1.1 M161.7,45.3
			c-3.5-0.6-4.9-3.1-4.1-7.5 M159,44.1c0.3,1.3,0.9,2.6,1.9,3.5c-0.4,0.5-0.4,1.2,0,1.7c-2.4-0.3-3.8-2.1-4.2-5.5 M159,44.1
			c-0.6-0.5-1.1-1.2-1.3-1.9 M162,25.2c0.3,0.7,0.3,1.5,0,2.2 M162,25.2c-0.7,1-1.4,1.9-2.2,2.9c-0.3,0.3-0.6,0.6-0.8,0.9
			c-0.4,0.8-0.1,1.8,0.7,2.3c0,0,0,0,0,0h0c0.7,0.4,2.7,0.7,2.1,1.9c-0.3,0.4-0.6,0.8-0.9,1.1c-0.6,0.5-1.2,1.1-1.5,1.4
			c-0.4,0.3-0.8,0.2-1.2,0c-0.6-0.4-0.6-1.1-1.4-1.4c-0.8-0.3-1.5,0.4-2.1,0.6c-0.2,0-0.3,0-0.5-0.1c-0.3,0.1-0.7,0.1-1-0.1
			 M162,27.4c1.1-1.2,1.9-2.7,2.2-4.3 M165.7,30.6c0,0,0.1,0.1,0.1,0.1 M165.7,30.6l0.1,0.1 M165.8,30.7c-0.4,1.1-0.8,1.8-1.2,2
			 M164.5,32.7c0.2,0.3,0.4,0.7,0.6,1 M164.5,32.7c0.2,0.3,0.4,0.7,0.6,1c0.2,0.4,0.4,0.9,0.6,1.3 M165.2,33.7
			c0.2,0.4,0.4,0.9,0.6,1.3 M165.8,35c-0.8,0.5-1.7,0.7-2.6,0.6c0,0.1,0,0.2,0,0.3 M165.8,35c0.7,0.1,1.4,0.1,2.1,0 M163.2,35.9
			c0,0.6,0,1.1-0.1,1.7 M163.2,35.9c0,0.6,0,1.1-0.1,1.7 M163.1,37.6c0,0.2-0.1,0.3-0.1,0.5c-1.4,0-2.2-0.3-2.6-1
			c-0.1,0.5-0.3,1-0.5,1.5 M159.9,38.6c-0.1,0.3-0.3,0.6-0.6,0.8c-0.8-0.3-1.4-0.9-1.8-1.7 M157.6,37.7c0,1-0.4,1.9-1,2.7
			 M156.7,43.9c0.2-0.6,0.6-1.2,1-1.7 M156.7,43.9c-0.1,0.3-0.2,0.7-0.3,1.1 M156.7,43.9c0.1,1.4,0.6,2.7,1.4,3.8l-1.5,1.3
			c1-2.1-1.8-2.6-2-1.1c-0.1,0.4,0.2,0.9,0.6,1l-0.2,0.2 M157.7,42.2c-0.4-1.4-0.4-3-0.1-4.4c0,1-0.4,1.9-1,2.7 M157.7,42.2
			c-0.7,0.8-1.1,1.8-1.3,2.8 M156.6,40.4c-0.9-0.9-1.3-2.1-1.3-3.3 M156.6,40.4c-0.9-0.9-1.3-2.1-1.3-3.3 M156.6,40.4
			c0,0.9-0.5,1.8-1.2,2.3 M155.3,37.1c-0.1,0.8-0.5,1.4-1.1,1.9 M154.2,39c-0.6-0.4-1.1-1.5-1.3-3.3 M154.2,39
			c0,1.3,0.4,2.6,1.2,3.7 M154.2,39c-0.1,1.4-0.7,2.8-1.6,3.9 M154.2,39l-0.2,3.6 M152.9,35.7c0.1-0.4,0.2-0.9,0.3-1.3 M152.9,35.7
			l-0.1,3.6 M153.2,34.5c-0.2-0.2-0.4-0.4-0.5-0.7c-0.2,0.8-0.7,1.4-1.5,1.6 M153.8,46.3c-0.7-1-1.1-2.1-1.1-3.3
			c-0.2,1.2-0.7,2.4-1.5,3.3 M153.8,46.3c-0.1,0.3-0.2,0.6-0.2,1 M153.8,46.3c0.8-0.6,1.3-1.4,1.5-2.4 M153.8,46.3
			c-0.7-1-1.1-2.1-1.1-3.3 M153.8,46.3c-0.5,1.6-0.2,2.6,1.1,2.9 M153.5,47.3c-0.1,0.8-0.6,1.6-1.2,2.1 M153.6,47.3
			c-0.1,0.7-0.4,1.3-0.9,1.8 M153.5,47.3c-0.2,0.8,0.3,1.7,1.2,1.9c0,0,0,0,0,0c0,0,0.1,0,0.1,0 M152.3,49.3c-0.7-0.9-1.1-2-1.1-3.1
			 M152.3,49.3c0.1-0.1,0.3-0.2,0.4-0.3 M152.3,49.3c-0.2,0.9-0.6,1.7-1.2,2.4 M151.2,46.3c0.8-0.9,1.3-2.1,1.5-3.3 M151.2,46.3
			l0,2.7 M155.4,42.7c0,0.4-0.1,0.8-0.2,1.1 M155.2,43.9c0.3,0.4,0.7,0.8,1.1,1.1 M152.7,42.9l-0.2,3.2 M151.1,51.7l0.1,2.6
			 M151.3,35.4l0,1.9 M127.2,18.7c0.3,2.6,1.4,5,3,7.1 M130.1,33.7c-2.3-1.2-4.9-3.8-5.6-5.8 M124.5,33.4c1.4,2.4,3.9,4,6.8,4.3
			 M164.8,23c0.9-1.2,1.5-2.5,2-3.9 M154.9,38.2l0.5,1.7 M152.5,49.2l-0.1,2.4 M158.7,39.2c-0.1,0.9,0.2,1.8,0.8,2.5 M161.6,37.9
			c0.2,1.1,0.9,2,1.8,2.6 M163.2,36.8c1,0.8,2.2,1.3,3.5,1.5 M165.2,32.1c1,0.1,2.1-0.1,3-0.7 M166.6,24.6c-0.6,1.2-1.4,2.3-2.4,3.3
			 M167.7,28c-0.7,0.9-1.6,1.6-2.7,2 M157.4,42.5c-0.1,1.9,0.6,3.8,2,5.2 M161.2,45.2c0.5,1.1,1.4,1.9,2.5,2.3 M161.1,41.6
			c2.2,2.8,5.4,4.7,8,5.1 M165.8,41.1c3.7,1,7.4,0.1,8.8-1.8 M174.6,22.8c-0.7,2.7-2.2,5.1-4.3,6.9 M169.9,17.1
			c-0.1,1.8-0.8,3.5-1.9,5 M153.7,34.7c0.3,0.5,0.4,1,0.4,1.6 M172.7,18.7c-0.3,2.6-1.4,5-3,7.1 M169.8,33.7
			c2.3-1.2,4.9-3.8,5.6-5.8 M175.4,33.4c-1.4,2.4-3.9,4-6.8,4.3"/>
		<path fill-rule="evenodd" clip-rule="evenodd" stroke="#666666" stroke-width="0.9" stroke-linejoin="round" d="M152.7,30
			c-0.3-0.1-0.6-0.2-0.8-0.5c0.1,0.8-0.1,1.5-0.5,2.2c-0.8-0.4-1.4-1.2-1.5-2.1c-0.1,0.9-0.7,1.7-1.5,2.1c-0.4-0.7-0.5-1.5-0.5-2.2
			c-0.2,0.3-0.5,0.5-0.8,0.5c0,2.2-0.9,3.5-2.7,3.8c1,1.3,2.3,1.1,2.6,0c0.2,0.8,0.7,1.4,1.5,1.6c0.5-0.2,1-0.5,1.3-0.9
			c0.4,0.4,0.8,0.7,1.3,0.9c0.8-0.2,1.3-0.9,1.5-1.6c0.3,1.1,1.6,1.3,2.6,0C153.6,33.5,152.7,32.2,152.7,30z"/>
		
			<path fill-rule="evenodd" clip-rule="evenodd" stroke="#666666" stroke-width="0.9" stroke-linecap="round" stroke-linejoin="round" d="
			M152.1,27.7c0.2,0.9,0.9,1.6,1.8,1.9c-0.4,0.5-1.2,0.6-1.7,0.1c0,0,0,0,0,0c-0.1-0.1-0.2-0.2-0.2-0.2c0.1,0.8-0.1,1.5-0.5,2.2
			c-0.8-0.4-1.4-1.2-1.5-2.1c-0.1,0.9-0.7,1.7-1.5,2.1c-0.4-0.7-0.5-1.5-0.5-2.2c-0.4,0.6-1.1,0.7-1.7,0.3c-0.1-0.1-0.2-0.1-0.2-0.2
			c0.9-0.3,1.6-1,1.8-1.9c0.2-0.1,0.4-0.3,0.5-0.5c0,0.4,0,0.8-0.2,1.1c0.6,0,1.1-0.4,1.3-0.9c0.1,0.4,0.3,0.9,0.6,1.2
			c0.3-0.3,0.5-0.8,0.6-1.2c0.2,0.5,0.7,0.8,1.3,0.9c-0.2-0.4-0.2-0.8-0.2-1.1C151.7,27.4,151.9,27.6,152.1,27.7z"/>
		<path fill-rule="evenodd" clip-rule="evenodd" stroke="#666666" stroke-width="0.9" stroke-linejoin="round" d="M147.4,26.7
			c0.5-0.4,0.7-0.9,0.8-1.5c-1.2-1.5-0.8-2.6-1.7-3.7c-0.1-0.1-0.2-0.2-0.3-0.3c-0.2-0.2,0-0.6,0.2-0.8h6.4c0.4,0.9,1.2,1,1.6,0.5
			c0.1,0.7-0.6,1.1-1.3,1c0.3,0.3,0.4,0.8,0.2,1.2c-0.1,0.3-0.2,0.5-0.3,0.7c-0.1,0.3,0.1,0.6,0.6,0.6c-0.5,0.3-1.2,0-1.5-0.5
			c-0.1,0.7,0.2,1.8,0.9,2.1c-0.2,0.2-0.6,0.2-0.8,0.1c-0.1,0.7,0.4,1.4,1.1,1.7c-0.6,0.3-1.3,0.1-1.6-0.5c0,0,0-0.1,0-0.1
			c0,0.4,0,0.8,0.2,1.1c-0.6,0-1.1-0.4-1.3-0.9c-0.1,0.4-0.3,0.9-0.6,1.2c-0.3-0.3-0.5-0.8-0.6-1.2c-0.2,0.5-0.7,0.9-1.3,0.9
			c0.2-0.4,0.2-0.8,0.2-1.1c-0.3,0.6-0.9,0.9-1.5,0.6c0,0-0.1,0-0.1,0C147.1,27.5,147.3,27.2,147.4,26.7z"/>
		<path fill-rule="evenodd" clip-rule="evenodd" fill="#FFD500" stroke="#B99D62" stroke-width="0.33" stroke-linejoin="round" d="
			M152.7,19.6c-0.1,0.2-0.1,0.5-0.1,0.7h-6.4c0-0.2,0-0.5-0.1-0.7H152.7z"/>
		<path fill-rule="evenodd" clip-rule="evenodd" fill="#FFD500" stroke="#B99D62" stroke-width="0.33" stroke-linejoin="round" d="
			M149.5,18.1c-0.1,0.6-0.6,1-1.2,0.9c-0.3,0-0.6-0.2-0.7-0.4c-0.1,0.4-0.6,0.6-1,0.5c0,0,0,0,0,0c-0.1,0-0.1-0.1-0.2-0.1
			c-0.3-0.2-0.5-0.4-0.7-0.7c-0.1-0.1-0.2-0.3-0.2-0.4c0.1-0.1,0.1-0.3,0-0.4c-0.1-0.1-0.2-0.2-0.4-0.2c-0.2-0.4-0.5-0.7-0.8-1
			c0.2,0.1,0.3,0.1,0.5,0.1c0.5-0.1,0.8,0.3,0.5,0.8c0.1-0.2,0.3-0.4,0.5-0.5c0.2,0,0.4,0,0.6,0.1c0.1,0.1,0.2,0.1,0.4,0.1
			c-0.1,0.1-0.1,0.2-0.1,0.4c0,0.2,0,0.4-0.1,0.6c-0.2,0.2-0.4,0.3-0.7,0.2c0.2,0.8,1.4,1.3,1.5,0.2l0.2,0c0.4,1.3,2.1,0.6,1.5-0.9
			c-0.4,0.2-0.8,0-1-0.3l0,0c-0.1-0.2-0.2-0.2-0.3-0.2c0.1,0,0.2-0.1,0.2-0.3c0.1-0.3,0.5-0.5,0.8-0.3c0,0,0.1,0,0.1,0
			c-0.1-0.2-0.1-0.5,0-0.7c0.2-0.2,0.4-0.2,0.5-0.5c0.1,0.4,0.3,0.3,0.5,0.5c0.1,0.2,0.1,0.5,0,0.7c0.3-0.2,0.7-0.1,0.9,0.2
			c0,0,0,0,0,0c0,0,0,0.1,0,0.1c0.1,0.1,0.1,0.2,0.2,0.3c-0.1,0-0.2,0-0.3,0.2c-0.2,0.4-0.6,0.6-1,0.4c0,0,0,0,0,0l0,0
			c-0.6,1.4,1.1,2.1,1.5,0.9l0.2,0c0.1,1.1,1.3,0.7,1.5-0.2c-0.2,0-0.5-0.1-0.7-0.2c-0.1-0.2-0.2-0.4-0.1-0.6c0-0.1,0-0.3-0.1-0.4
			c0.1,0,0.3,0,0.4-0.1c0.2-0.1,0.4-0.2,0.6-0.1c0.2,0.1,0.4,0.3,0.5,0.5c-0.2-0.5,0-0.9,0.5-0.8c0.2,0.1,0.4,0.1,0.5-0.1
			c-0.3,0.3-0.6,0.7-0.8,1c-0.1-0.1-0.3,0-0.4,0.2c-0.1,0.1-0.1,0.3,0,0.4c-0.1,0.2-0.1,0.3-0.2,0.4c-0.2,0.3-0.4,0.5-0.7,0.7
			c-0.3,0.2-0.8,0.2-1.1-0.2c0,0,0,0,0,0c0-0.1-0.1-0.1-0.1-0.2c-0.3,0.5-1,0.6-1.5,0.2C149.7,18.6,149.5,18.4,149.5,18.1
			L149.5,18.1z"/>
		<path fill-rule="evenodd" clip-rule="evenodd" fill="#FFD500" stroke="#B99D62" stroke-width="0.33" stroke-linejoin="round" d="
			M145.7,18.3c0.2,0.3,0.4,0.5,0.7,0.7c0.3,0.2,0.8,0.2,1.1-0.2c0-0.1,0.1-0.1,0.1-0.2c0.3,0.5,1,0.6,1.5,0.3
			c0.2-0.2,0.4-0.4,0.4-0.7c0.1,0.6,0.6,1,1.2,0.9c0.3,0,0.6-0.2,0.7-0.4c0.1,0.4,0.6,0.6,1,0.5c0.1,0,0.1-0.1,0.2-0.1
			c0.3-0.2,0.5-0.4,0.7-0.7c-0.3,0.4-0.4,0.9-0.5,1.4h-6.5C146.1,19.2,145.9,18.7,145.7,18.3z"/>
		<path fill="none" stroke="#B99D62" stroke-width="0.33" stroke-linecap="round" stroke-linejoin="round" d="M148.4,16.6
			c0.7,0.3,1.4,0.3,2,0 M153.5,17.5c-0.2-0.3-0.4-0.4-0.7-0.5 M145.5,17.5c0.2-0.3,0.4-0.4,0.7-0.5 M149.5,18.1v-2.6"/>
		<path fill-rule="evenodd" clip-rule="evenodd" fill="#FFD500" stroke="#B99D62" stroke-width="0.67" stroke-linejoin="round" d="
			M149.8,16.5c0-0.2-0.1-0.3-0.3-0.3s-0.3,0.1-0.3,0.3c0,0.2,0.1,0.3,0.3,0.3c0,0,0,0,0,0l0,0C149.6,16.8,149.8,16.6,149.8,16.5
			C149.8,16.5,149.8,16.5,149.8,16.5z"/>
		<path fill="none" stroke="#B99D62" stroke-width="0.75" stroke-linejoin="round" d="M145.4,17.8c0.1-0.1,0.1-0.3,0-0.4
			c-0.1-0.1-0.2-0.2-0.4-0.2c-0.2-0.4-0.5-0.7-0.8-1c0.2,0.1,0.4,0.1,0.5,0.1c0.5-0.1,0.8,0.3,0.5,0.8c0.1-0.2,0.3-0.4,0.5-0.5
			c0.2,0,0.4,0,0.6,0.1c0.1,0.1,0.2,0.1,0.4,0.1c-0.1,0.1-0.1,0.2-0.1,0.4c0,0.2,0,0.4-0.1,0.6c-0.2,0.2-0.4,0.3-0.7,0.2
			c0.2,0.8,1.4,1.3,1.5,0.2l0.2,0c0.4,1.3,2.1,0.6,1.5-0.9c-0.4,0.2-0.8,0-1-0.3l0,0c-0.1-0.2-0.2-0.2-0.3-0.2
			c0.1,0,0.2-0.1,0.2-0.3c0.1-0.3,0.5-0.5,0.8-0.3c0,0,0.1,0,0.1,0c-0.1-0.2-0.1-0.5,0-0.7c0.2-0.2,0.4-0.2,0.5-0.5
			c0.1,0.4,0.3,0.3,0.5,0.5c0.1,0.2,0.1,0.5,0,0.7c0.3-0.2,0.7-0.1,0.9,0.2c0,0,0,0,0,0c0,0,0,0.1,0,0.1c0.1,0.1,0.1,0.2,0.2,0.3
			c-0.1,0-0.2,0-0.3,0.2c-0.2,0.4-0.6,0.6-1,0.4c0,0,0,0,0,0l0,0c-0.6,1.4,1.1,2.1,1.5,0.9l0.2,0c0.1,1.1,1.3,0.7,1.5-0.2
			c-0.2,0-0.5-0.1-0.7-0.2c-0.1-0.2-0.2-0.4-0.1-0.6c0-0.1,0-0.3-0.1-0.4c0.1,0,0.3,0,0.4-0.1c0.2-0.1,0.4-0.2,0.6-0.1
			c0.2,0.1,0.4,0.3,0.5,0.5c-0.2-0.5,0-0.9,0.5-0.8c0.2,0.1,0.4,0.1,0.5-0.1c-0.3,0.3-0.6,0.7-0.8,1c-0.1-0.1-0.3,0-0.4,0.2
			c-0.1,0.1-0.1,0.3,0,0.4c-0.5,0.8-0.8,1.6-0.8,2.5h-6.4C146.2,19.5,145.9,18.6,145.4,17.8z"/>
		<path fill-rule="evenodd" clip-rule="evenodd" fill="#FFD500" stroke="#B99D62" stroke-width="0.67" stroke-linejoin="round" d="
			M153.9,17.7c0.1-0.2,0.1-0.3,0-0.4c-0.1-0.1-0.3,0-0.4,0.1c-0.1,0.2-0.1,0.3,0,0.4C153.6,17.9,153.8,17.8,153.9,17.7z"/>
		<path fill-rule="evenodd" clip-rule="evenodd" fill="#FFD500" stroke="#B99D62" stroke-width="0.67" stroke-linejoin="round" d="
			M145,17.7c-0.1-0.2-0.1-0.3,0-0.4c0.1-0.1,0.3,0,0.4,0.1c0.1,0.2,0.1,0.3,0,0.4C145.3,17.9,145.1,17.8,145,17.7z"/>
		<path fill="none" stroke="#B99D62" stroke-width="0.9" stroke-linecap="round" stroke-linejoin="round" d="M146.2,20.4h6.4"/>
		<path fill-rule="evenodd" clip-rule="evenodd" fill="#FFD500" stroke="#B99D62" stroke-width="0.67" stroke-linejoin="round" d="
			M151.5,17.4c-0.2,0-0.3,0.1-0.3,0.3c0,0.2,0.1,0.3,0.3,0.3c0.2,0,0.3-0.1,0.3-0.3c0,0,0,0,0,0C151.8,17.6,151.6,17.4,151.5,17.4z"
			/>
		<path fill-rule="evenodd" clip-rule="evenodd" fill="#FFD500" stroke="#B99D62" stroke-width="0.67" stroke-linejoin="round" d="
			M147.4,17.4c0.2,0,0.3,0.1,0.3,0.3c0,0.2-0.1,0.3-0.3,0.3c-0.2,0-0.3-0.1-0.3-0.3c0,0,0,0,0,0C147.1,17.6,147.3,17.4,147.4,17.4z"
			/>
		
			<path fill-rule="evenodd" clip-rule="evenodd" fill="#FF0000" stroke="#D35435" stroke-width="0.75" stroke-linecap="round" stroke-linejoin="round" d="
			M148.9,21.3c-0.2-0.1-0.4-0.1-0.5-0.2c-0.3-0.2-0.7-0.2-1,0c-0.2,0-0.3,0.1-0.5,0.1C146.9,22.6,148.5,22.8,148.9,21.3z"/>
		<path fill-rule="evenodd" clip-rule="evenodd" d="M148.1,21c-0.2,0-0.5,0-0.7,0.1c0,0-0.1,0-0.1,0c0.1,0.3,0.1,0.7,0.5,0.6
			C148.1,21.6,148,21.3,148.1,21z"/>
		<path fill="none" stroke="#666666" stroke-width="0.67" stroke-linecap="round" stroke-miterlimit="22.9256" d="M147.2,21.1
			c0.1,0.3,0.1,0.7,0.5,0.6c0.4-0.1,0.3-0.4,0.4-0.7"/>
		<path fill="none" stroke="#666666" stroke-width="0.9" stroke-linecap="round" stroke-miterlimit="22.9256" d="M146.2,21.2
			c0.4,0,0.8-0.1,1.2-0.2c0.3-0.2,0.7-0.2,1,0c0.4,0.2,0.8,0.3,1.3,0.3"/>
		<path fill-rule="evenodd" clip-rule="evenodd" fill="#FF0000" stroke="#D35435" stroke-width="0.67" stroke-linejoin="round" d="
			M147.2,24.3c0.1,0.3,0.2,0.6,0.3,0.9c-0.2-0.2-0.5-0.4-0.8-0.4c-0.8,0-1.2,0.8-1.9,1c-0.7,0.2-1.4-0.2-1.5-0.9
			c-0.1-0.3,0-0.5,0.1-0.8c0.2,0.6,0.9,1,1.6,0.8l0,0C145.6,24.5,146,23.6,147.2,24.3z"/>
		<path fill-rule="evenodd" clip-rule="evenodd" fill="#FFD500" stroke="#B99D62" stroke-width="0.9" stroke-linejoin="round" d="
			M144.9,21.6c-1,0.2-1.3,1-0.9,2.5c0.2-0.8,0.7-0.9,1.6-0.6c0.8-0.7,1.4-0.1,1.9,1.8c-0.3,1.1-1.4,1.3-2.5,0.6
			c0.6,1.6,2.9,1.6,3.2-0.7c-1.2-1.5-0.8-2.6-1.7-3.7C146,20.9,144.9,20.9,144.9,21.6z"/>
		
			<path fill-rule="evenodd" clip-rule="evenodd" fill="#FFD500" stroke="#B99D62" stroke-width="0.75" stroke-linecap="round" stroke-linejoin="round" d="
			M146.2,21.9c-0.2,0.1-0.5,0-0.6-0.3c0,0,0,0,0,0c0,0,0,0,0-0.1C145.8,21.4,146.2,21.5,146.2,21.9z"/>
		<path fill="none" stroke="#B99D62" stroke-width="0.75" stroke-linecap="round" stroke-linejoin="round" d="M144.9,21.6
			c0.2,0.1,0.4,0.1,0.6-0.1"/>
		<path fill="none" stroke="#666666" stroke-width="0.9" stroke-linecap="round" stroke-linejoin="round" d="M151.9,21.2
			c0.2,0.4,0.6,0.6,1.1,0.7"/>
		<path fill="#FFD500" stroke="#B99D62" stroke-width="0.9" stroke-linejoin="round" d="M167.1,62.9c0.2,0,0.4,0,0.5,0.2
			c0-0.4,0.2-0.8,0.5-1L136,15.5l4.8-3.3l0.5,0.7c0.6,0.9,2.1-0.1,1.5-1l-0.3-0.5l0.4-0.3c0.9-0.6-0.1-2.1-1-1.5l-0.4,0.3L141,9.5
			c-0.6-0.9-2.1,0.1-1.5,1l0.5,0.7l-4.8,3.3l-3.6-5.3l0.7-0.5c0.9-0.6-0.1-2.1-1-1.5l-0.5,0.3l-0.3-0.4c-0.6-0.9-2.1,0.1-1.5,1
			l0.3,0.4l-0.5,0.3c-0.9,0.6,0.1,2.1,1,1.5l0.7-0.5l3.7,5.3l-4.8,3.3l-0.5-0.7c-0.6-0.9-2.1,0.1-1.5,1l0.3,0.5l-0.4,0.3
			c-0.9,0.6,0.1,2.1,1,1.5l0.4-0.3l0.3,0.5c0.6,0.9,2.1-0.1,1.5-1l-0.5-0.7l4.8-3.3L167.1,62.9z"/>
	</g>
</g>
</svg>
