<?xml version="1.0" encoding="utf-8"?>
<!-- Generator: Adobe Illustrator 25.4.1, SVG Export Plug-In . SVG Version: 6.00 Build 0)  -->
<svg version="1.1" id="Layer_1" xmlns="http://www.w3.org/2000/svg" xmlns:xlink="http://www.w3.org/1999/xlink" x="0px" y="0px"
	 viewBox="0 0 300 87" enable-background="new 0 0 300 87" xml:space="preserve">
<path fill="#FFF000" d="M98.8,31.3c-0.1,0.2-0.5,0.5-0.4,0.9c0.2,0.4,0.4,0.7,0.3,0.9c0,0.2,0,0.4,0.2,0.5s0.1,0.5-0.2,0.7
	c-0.3,0.2-0.6,0.8,0.2,1.1c0.8,0.3,2,0.7,2,0.7s0.4,0,0.3,0.3c0,0.3-0.9,0.5-1.3,0.5c-0.1,0-0.2,0-0.3,0c-1.1,0.1-1.4,0.4-1.4,0.9
	c0,0.5,0.5,0.8,0.5,0.8c0.2,0.1,0.4,0.2,0.9,0.2h0.2c0,0,0.2,0,0.3,0.1c0.3,0.2,0.9,0.5,0.6,1.4c-0.4,1.1-1,1.6,0,2.3
	c1,0.6,4.2,0.9,5.9,0.3c1.3-0.4,8.1-1.1,12.5-1.3c3.8,0.1,7.6,0,11.3-0.2c7.1-0.2,13.3-1.1,21.2-1.1l8.2-0.1c0.3-0.1,0.3-0.5,0-0.7
	c0,0-0.6-0.4-0.8-0.7c-0.3-0.7,0.4-0.7,0.4-0.7h0.2c0.1,0,3.5,0,3.7,0h0.1c0.1,0,0.2,0,0.2-0.1c0,0,0.1-0.1,0.1-0.2v0
	c0-0.1,0-0.2,0-0.2c0,0,0,0,0-0.1c0,0,0-0.1,0.1-0.1c0,0,0.1,0,0.1,0h0l1.1-0.3c0,0,0.3-0.1,0.4-0.3c0.2-0.2,0.2-0.2,0.4-0.8
	c0,0,0.2-0.9-0.6-0.9c0,0-0.4,0-0.7-0.1c0,0-0.1,0-0.2,0c-2.1-0.1-6.7-0.2-7.2-0.2c-0.8,0.1-0.2-0.7-0.3-0.9s-0.3-0.5,0-0.8
	c0.2-0.2,0.8-0.2,1.2-0.2c1.1-0.2,2.6-0.5,2.5-0.8c-0.2-0.5,1.3-0.8,1.4-0.8c0.2,0,0.5,0,0.7,0c0.1,0,0.2,0,0.2,0c0,0,0.8,0,1.2-0.2
	s0.5-0.5,0.5-0.7c0,0,0-0.1,0-0.1v0c-0.4-0.5-0.1-0.9,0.2-0.8c0.3,0,1.1-0.2,0.9-0.9c-0.2-0.3-0.7-0.5-0.7-0.5
	c-0.3-0.2-0.1-0.4-0.1-0.4s0-0.1,0.2-0.3c0.2-0.2,0.4-0.3,1-0.5c0.3-0.2,1-0.2,1.3-0.6c0,0,0.3-0.3,0.2-0.8c0-0.2-0.1-0.3-0.1-0.4
	c-0.2-0.4-0.4-0.6-0.7-0.9c-0.2-0.2-0.1-0.4,0-0.4l0,0c0.1-0.1,0.4-0.2,0.6-0.3c0.4-0.1,1.1-0.3,1.1-0.3c0.2-0.1,0.3-0.1,0.3-0.2
	c0.2-0.4-0.2-0.6-0.2-0.6s-0.6-0.3,0-0.5c0.4-0.2,0.6-0.5,0.7-0.7c0,0,0.1-0.2,0.1-0.5c0,0,0,0,0,0v0c0-0.1-0.3-0.4-0.9-0.4h0
	c-0.1,0-0.2,0-0.4,0l-1.4,0.1c-0.1,0-0.2,0-0.2,0c-0.1,0-0.2,0-0.3,0c-0.1,0-0.2,0-0.2,0c-0.1,0-0.2,0-0.2,0l-0.2,0
	c-0.2,0-0.3,0-0.4,0c-0.1,0-0.2,0-0.2,0h0c-0.2,0-0.3,0-0.4,0c-0.2,0-0.4,0-0.5,0c-6.7,0-12.5-0.2-18.4-0.1
	c-5.9,0.1-6.6-0.1-9.5-0.1c-0.8,0-1.8,0-2.8,0.1c-1.9,0-17.2,0.2-17.2,0.2c-0.9,0-1.8,0-2.8,0c-2,0.1-3.7,0.1-5.5,0.2h-0.1
	c-1.8,0.1-3.6,0.1-5.5,0.2c0,0-1.2,0.1-1.9,0.1c-0.7,0-1.3,0-1.4,0.7c-0.1,0.7,0.4,1.3,0.4,1.3c0,0.1,0.2,0.2,0.3,0.2
	c0.4,0.2,0.1,0.7,0.1,0.7s-0.2,0.2-0.2,0.5v0.1l0,0.1c0,0,0.1,0.2,0.3,0.2s0.2,0.5,0,0.7c-0.2,0.2-0.5,0.6-0.3,1
	c0.2,0.4,0.9,0.7,0.9,0.7s0.4,0.2,0.4,0.5c0,0.3-0.2,0.5-0.9,0.8c-0.7,0.3-1.6,0.6-1.6,0.9C98,30,98,30.3,98.5,30.5
	C98.9,30.8,99,31.1,98.8,31.3L98.8,31.3z M208.8,47c0,0-0.1,0-0.1,0c-0.1,0-0.2-0.1-0.2-0.1c-0.3-0.1-0.2-0.4-0.2-0.4
	c0-0.1,0-0.2,0-0.2c0.1-0.4-0.3-0.5-0.4-0.5c-0.9-0.1-1.9,0-2.5-0.7c-0.1-0.1-0.6,0-0.9,0c-1.2,0-2.4,0-3.6-0.1
	c-0.5,0-1.1-0.4-1.4-0.4c-0.8,0.2-1.2-0.1-1.6-0.4c-0.4-0.3-0.8-0.2-0.8-0.2c-0.5,0.1-0.9,0.2-1.2,0.4c-1,0.7-1.9,0.5-2.9,0
	c-0.6-0.3-1.2-0.5-1.8-0.5c-0.6-0.1,0,0-0.1,0c-0.1,0-0.2,0-0.3,0c-1-0.1-3.6-0.4-4-0.4c-0.5,0-1.6,0.5-2.3,0.3
	c-0.8-0.1-2.8-0.1-2.8-0.1s-2.1,0.1-3.8,0.1c-0.5,0-1.1,0.1-1.7,0.2c-0.1,0-0.2,0-0.3,0c-1.4,0.3-3,0.9-3.7,1.1
	c-0.1,0-0.2,0-0.2,0.1c-1,0.1-1.7-0.4-1.9-0.8s0-0.9,0.1-1.3c0.2-0.4,0-0.6-0.2-0.7s-1.1-0.1-1.1-0.1c0,0-0.1,0-0.2,0
	c-1.9,0.1-3.8,0.3-5.7,0.5c-2.1,0.2-4.1,0.5-6.3,0.6l-5.5,0.5l-3.9,0.4c-3.7,0.2-7.4,0.1-11.1,0.3l-3,0.1h-0.5h0
	c-2.1,0.1-7.9,0.4-7.9,0.4c-1.6,0-3.1,0.2-4.7,0.4c-5,0.6-9.9,1.8-14.8,2.7c-2,0.4-3.6,1.1-5.5,1.6c-1.1,0.3-1.5,0.6-1.5,1.4
	c0,0.1,0.1,0.8,0.8,0.7c0.5,0,1.1-0.1,1.5-0.2c0.5-0.1,0.4-0.1,0.4,0.2c0,0.3,0,0.3-0.3,0.3c-0.2,0-0.5,0-0.8,0.1
	c-0.3,0-0.5,0.1-0.7,0.1c-0.2,0.1-0.4,0.2-0.3,0.5c0.2,0.7,1.1,0.3,1.7,0.4c0.1,0,0.2,0.1,0.2,0.4c-0.3,0.5-1,0.3-1.5,0.4
	c-0.2,0.1-0.4,0.2-0.6,0.3c0,0-0.4,0.3-0.1,0.7c0.2,0.1,0.3,0.2,0.4,0.3c0.9,0.2,1.3,0.5,1.4,1.1c0,0,0,0.3-0.4,0.4
	c-0.2,0-0.5,0.1-0.7,0.2s-0.4,0.1-0.6,0.1c0,0-0.5,0.2-0.2,0.6s0.9,0.5,0.9,0.5s0.4,0.1,0.4,0.4c0,0.3,0,0.9,1.1,0.6
	c0,0,0.5,0,0.8,0.6c0,0,0.4,1-0.1,1.1c-0.6,0-1.2,0.1-1.8,0.3c-0.1,0-0.2,0.2-0.2,0.5c0,0.3,0.1,0.4,0.4,0.3c0.3,0,0.5,0,0.5,0
	s0.2,0.2-0.3,0.4c-0.2,0.1-0.4,0.2-0.7,0.3c-0.1,0-0.3,0.2-0.3,0.3c0.1,0.2,0,0.4,0.8,0.5c0.6,0.1,1.3,0.2,1.9,0.4
	c0.1,0,0.2,0,0.2,0c0.1,0,0.2,0.1,0.2,0.2c0,0.2,0.1,0.4-0.2,0.4c0,0-0.1,0-0.1,0c0,0,0,0,0,0c-0.5,0.2-1.1,0.2-1.6,0.4
	c0,0-0.7,0-0.5,1.1s2.3,0.6,2.4,0.6c0.1,0,7.8-1,7.8-1s0.1,0,0.4,0c3.9,0,14.3-0.6,14.3-0.6c1.1-0.3,5.5-0.2,6.1-0.4
	c0.6-0.2,0.9-0.3,1.8-0.1c0.9,0.1,2.4,0,3-0.1c0.7-0.1,1.7,0.5,2.5,0.1c0.5-0.2,1.2-0.3,1.9-0.4c0.3,0,14.7-0.5,19.1,0
	c4.4,0.5,0.9,0.2,1.4,0.7c0.4,0.4,1,0.6,2,0.3c1.9-0.7,4.3-0.9,7.1-1.2c0.2,0,0.3,0,0.5,0c0.8,0,4,0.1,4.5,0s1.3,0,1.8,0
	c0.5,0.1,2.2,0.5,2.7,0.5c0.1,0,0.2,0,0.3,0c0.2,0,0.4,0,0.7,0c0.7,0,1.6,0.1,2.3-0.1c1-0.2,1.2,0,1.7,0.1s1.1,0.4,1.6,0.4
	c3.2,0.2,6.4,0.5,9.6,0.7c0.4,0,1-0.2,1.4-0.6c0.1-0.1,0.2-0.2,0.2-0.3c0.2-0.2,0-0.2,0-0.8c0-0.7,0.5-0.5,0.5-0.5s0.7,0,1-0.4
	s0-0.6,0-0.9c0-0.2,0-0.6,0.7-0.8c0.3-0.1,0.4-0.2,0.5-0.3c0.1-0.1,0.1-0.2,0.2-0.3c0.4-0.7-0.3-0.9-0.2-1.4
	c0.2-0.5,1.2-0.7,1.2-0.7c0.4-0.1,0.8-0.2,1.3-0.2c0.9-0.2,1.1-0.7,1.1-0.7c0.2-0.7-0.1-1-0.2-1.1s-0.1-0.7,0.5-1.1
	c0.4-0.2,0.6-0.5,0.7-0.7c0-0.1,0.1-0.2,0.1-0.2c0.4-0.8-0.1-1.3-0.4-1.5c-0.2-0.2-0.5-0.6-0.5-1.1c0.2-0.5,0.9-0.4,1.3-0.3
	c0.1,0,0.2,0.1,0.4,0.1c0.3,0.1,0.5,0,0.7-0.2c0.1-0.2,0.1-0.4,0.2-0.5c0-0.4,0-0.5,0.4-0.8c0.4-0.2,0.4-0.1,0.7-0.7
	c0.2-0.6,0.3-0.8,0.7-1.1c0.4-0.3,0.7-0.5,0.7-0.5c0,0,0.1-0.1,0.1-0.2C209.1,47.3,209,47.1,208.8,47L208.8,47z"/>
<path d="M103.4,15V2h5.7c2.7,0,4.2,1.8,4.2,4s-1.5,4-4.2,4h-3.4v4.8L103.4,15z M110.9,6.1c0-1.3-0.9-2-2.2-2h-3.1v4.1h3.1
	C110,8.1,110.9,7.3,110.9,6.1z"/>
<path d="M123.8,15l-2.9-4.8h-2.2V15h-2.3V2h5.7c2.5,0,4.2,1.6,4.2,4c0,2.3-1.5,3.5-3.1,3.8l3.2,5L123.8,15z M124,6.1
	c0-1.3-0.9-2-2.2-2h-3.1v4.1h3.1C123.1,8.1,124,7.3,124,6.1z"/>
<path d="M139.3,15l-0.9-2.5h-5.9l-0.9,2.5h-2.6L134,2h2.8l5,12.9H139.3z M135.4,4.3l-2.3,6.1h4.7L135.4,4.3z"/>
<path d="M143.5,8.5c0-4,3.1-6.7,6.8-6.7c2.5,0,4.1,1.2,5.2,2.7l-1.8,1.1c-0.7-1-1.9-1.7-3.3-1.7c-2.5,0-4.5,2-4.5,4.7
	s1.9,4.7,4.5,4.7c1.3,0,2.5-0.6,3.1-1.2v-2h-3.9v-2h6.1v4.9c-1.3,1.4-3.1,2.3-5.3,2.3C146.6,15.2,143.5,12.5,143.5,8.5L143.5,8.5z"
	/>
<path d="M159.2,9.9V2h2.3v7.7c0,2,1.1,3.4,3.3,3.4s3.3-1.3,3.3-3.4V2h2.3v7.8c0,3.2-1.8,5.3-5.6,5.3C161,15.2,159.2,13,159.2,9.9z"
	/>
<path d="M174.1,15V2h8.8v2h-6.6v3.4h6.5v2h-6.5v3.6h6.6v2L174.1,15L174.1,15z"/>
<path d="M102.5,78.3c0-4,3-6.7,6.8-6.7c2.6,0,4.2,1.4,5.2,2.9l-1.9,1c-0.6-1.1-1.8-1.9-3.2-1.9c-2.5,0-4.5,2-4.5,4.7
	c0,2.7,1.9,4.7,4.5,4.7c1.4,0,2.6-0.8,3.2-1.9l1.9,1c-1,1.6-2.6,2.9-5.2,2.9C105.5,85,102.5,82.3,102.5,78.3z"/>
<path d="M118.7,84.7V71.8h8.8v2h-6.6v3.3h6.5v2h-6.5v3.6h6.6v2L118.7,84.7z"/>
<path d="M141.3,84.7l-6.7-9.2v9.2h-2.3V71.8h2.3l6.6,9v-9h2.3v12.9H141.3z"/>
<path d="M150.7,84.7V73.8h-3.9v-2h10.1v2h-3.9v10.9H150.7z"/>
<path d="M167.4,84.7l-2.9-4.8h-2.2v4.8h-2.3V71.8h5.7c2.5,0,4.2,1.6,4.2,4c0,2.3-1.5,3.5-3.1,3.8l3.2,5L167.4,84.7L167.4,84.7z
	 M167.6,75.9c0-1.3-0.9-2-2.2-2h-3.1V78h3.1C166.7,77.9,167.6,77.1,167.6,75.9L167.6,75.9z"/>
<path d="M174.7,84.7V71.8h8.8v2H177v3.3h6.5v2H177v3.6h6.6v2L174.7,84.7z"/>
<path d="M103.2,42.3C103.2,42.3,103.3,42.3,103.2,42.3C103.2,42.3,103.3,42.3,103.2,42.3c0.2,0.3,0.3,0.5,0.4,0.6v0
	c0.1,0.2,0.2,0.4,0.4,0.5c0,0,0,0,0,0c0.3,0.3,0.6,0.6,1,0.9c0,0,0,0,0.1,0c0,0,0.1,0,0.2,0c0.1,0,0.1,0.1,0.2,0.1h0h0.1
	c0,0,0.1,0,0.1,0c0.1,0.1,0.2,0.1,0.3,0.2h0.1c0.1,0,0.2,0,0.4,0c0.1,0,0.2,0.1,0.2,0.2c0,0,0,0,0.1,0c0.1,0,0.2,0,0.2,0
	c0,0,0.1,0,0.1,0c0,0,0.1-0.1,0.2-0.1c0.1,0,0.1,0,0.2,0.1c0,0,0,0,0.1,0s0.1,0,0.2,0.1c0,0,0,0,0.1,0h0c0,0,0.1,0,0.1-0.1
	c0-0.1,0.1-0.2,0.2-0.2c0.1,0,0.2,0,0.4,0h0c0.1,0,0.1,0,0.2,0h0c0.3,0,0.7-0.2,0.9-0.3c0,0,0,0,0,0c0,0,0-0.1,0.1-0.1
	c0,0,0.1-0.1,0.2-0.1c0.1,0,0.2,0,0.2,0h0h0.1c0,0,0,0,0.1,0c0.2-0.1,0.3-0.2,0.5-0.4c0,0,0,0,0.1,0h0c0,0,0.1,0,0.1-0.1l0,0l0.1,0
	c0,0,0.1,0,0.1,0h0c0.2-0.2,0.4-0.4,0.7-0.6c0.1-0.1,0.1-0.2,0.2-0.2c0,0,0.1-0.1,0.2-0.1s0,0,0.1,0c0-0.1,0.1-0.1,0.1-0.2
	c0-0.1,0.1-0.1,0.2-0.2c0,0,0.1,0,0.2,0c0,0,0.1,0,0.1,0c0,0,0,0,0,0c0,0,0,0,0-0.1l0-0.1c0,0,0,0,0-0.1v0c0,0,0-0.1,0.1-0.1
	c0,0,0.1-0.1,0.1-0.1c0,0,0.1-0.1,0.2-0.1s0,0,0.1,0c0,0,0,0,0.1-0.1l0,0l0,0c0,0,0-0.1,0.1-0.1c0,0,0-0.1,0-0.1c0,0,0-0.1,0-0.2
	c0-0.1,0-0.2,0.1-0.2l0,0c0,0,0,0,0,0c0,0,0-0.1,0.1-0.1c0-0.1,0.2-0.2,0.2-0.2c0,0,0.1,0,0.1,0c0,0,0.1-0.1,0.1-0.2l0.1-0.1
	c0,0,0,0,0.1-0.1l0,0c0,0,0.1-0.1,0.1-0.1c0,0,0,0,0,0c0,0,0,0,0-0.1s0-0.1,0.1-0.2c0,0,0,0,0-0.1s0-0.1,0-0.1c0,0,0-0.1,0.1-0.2
	c0,0,0.1-0.1,0.1-0.1h0c0,0,0.1,0,0.1-0.1c0,0,0.1,0,0.2,0s0.1,0,0.1-0.1l0.1-0.2c0,0,0,0,0-0.1c0-0.1,0-0.2,0.2-0.3c0,0,0,0,0,0
	c0,0,0,0,0,0c0-0.1,0.2-0.2,0.3-0.1h0h0c0,0,0.1,0,0.1,0c0.1-0.1,0.1-0.2,0.2-0.3c0,0,0-0.1,0.1-0.2v0c0,0,0-0.1,0-0.1
	c0.1-0.2,0.1-0.3,0.1-0.4c0,0,0,0,0-0.1c0,0-0.1-0.1-0.1-0.2c0-0.1,0-0.2,0-0.2v0c0-0.1-0.1-0.3-0.1-0.4c0,0,0,0-0.1,0
	s-0.1,0-0.1-0.1c-0.1-0.1-0.2-0.2-0.3-0.2c-0.1-0.1-0.2-0.2-0.3-0.2l0,0c-0.1,0-0.2-0.1-0.4-0.2c-0.1,0-0.2,0-0.4,0
	c-0.1,0-0.1,0-0.2,0c0,0,0,0-0.1,0c0,0,0,0-0.1,0c-0.1,0.1-0.2,0.2-0.2,0.4c0,0,0,0.1,0,0.1c0,0.1,0,0.2-0.1,0.3
	c-0.1,0-0.2,0.1-0.2,0c0,0-0.1,0-0.2,0l0,0v0c0,0.1,0,0.2-0.1,0.2c0,0,0,0-0.1,0c0,0-0.1,0.1-0.2,0.1c0,0,0,0,0,0.1c0,0,0,0.1,0,0.1
	l-0.1,0.1c0,0-0.1,0.1-0.1,0.1c0,0-0.1,0-0.1,0.1c0,0,0,0-0.1,0l-0.2,0.2l0,0c0,0.1,0,0.1-0.1,0.2c-0.1,0.1-0.2,0.2-0.4,0.3
	c0,0,0,0,0,0.1c0,0.1-0.1,0.1-0.1,0.2c0,0,0,0-0.1,0.1c0,0,0,0.1-0.1,0.1c0,0,0,0,0,0c0,0,0,0,0,0l-0.2,0.2c0,0,0,0-0.1,0.1
	c0,0,0,0,0,0c0,0-0.1,0.1-0.2,0.3c0,0.1-0.1,0.1-0.2,0.1c0,0,0,0,0,0l-0.3,0.3c0,0,0,0,0,0c-0.2,0.2-0.5,0.4-0.7,0.6l0,0
	c0,0-0.1,0.1-0.2,0.2l0,0l-0.4,0.5c0,0,0,0-0.1,0c0,0,0,0,0,0c-0.2,0.2-0.3,0.3-0.5,0.4c-0.1,0.1-0.2,0.2-0.4,0.4c0,0-0.1,0-0.1,0
	s0,0,0,0c-0.2,0.1-0.3,0.2-0.4,0.3c0,0,0,0,0,0c-0.2,0.1-0.3,0.2-0.5,0.4v0c0,0,0,0-0.1,0.1s-0.1,0.1-0.1,0.1
	c-0.1,0-0.2,0.1-0.2,0.1c0,0-0.1,0-0.2,0c0,0,0,0-0.1,0c-0.1,0-0.2,0-0.3,0c0,0-0.1,0-0.1,0l0,0c0,0-0.1-0.1-0.1-0.1s0-0.1-0.1-0.2
	c0-0.1-0.1-0.2-0.2-0.4c0-0.1-0.1-0.3-0.2-0.5c0-0.2-0.1-0.3-0.1-0.4c0,0,0,0,0-0.1c0,0-0.1-0.1-0.1-0.2l0-0.3
	c0-0.2-0.1-0.4-0.1-0.7c0,0,0,0,0-0.1c0,0-0.1-0.1-0.1-0.2c0-0.3,0-0.6,0-1v0c0,0,0,0,0-0.1c0.1-0.3,0.1-0.7,0.2-1v-0.2
	c0-0.4,0.1-0.8,0.2-1.1v0c0-0.1,0-0.2,0.1-0.3c0,0,0,0,0-0.1l0.1-0.2v0c0,0,0.1-0.1,0.1-0.2c0-0.1,0.1-0.2,0.1-0.2c0,0,0-0.1,0-0.1
	s0,0,0-0.1v0c0-0.1,0-0.2,0-0.3c0-0.1,0.1-0.2,0.1-0.2c0-0.1,0.1-0.2,0.2-0.4c0,0,0,0,0-0.1s0-0.1,0.1-0.4c0-0.1,0.1-0.3,0.1-0.4
	c0,0,0-0.1,0-0.1c0,0,0-0.1,0.1-0.2c0,0,0-0.1,0.1-0.1c0,0,0,0,0-0.1c0-0.2,0.1-0.4,0.2-0.6c0.1-0.2,0.2-0.3,0.2-0.4v0
	c0,0,0-0.1,0-0.2l0.1-0.2c0,0,0,0,0-0.1c0.1-0.1,0.2-0.3,0.4-0.7v0c0,0,0-0.1,0-0.2c0,0,0-0.1,0.1-0.1c0,0,0,0,0,0
	c0-0.1,0.1-0.2,0.1-0.2v0c0,0,0-0.1,0-0.2c0,0,0-0.1,0-0.1c0,0,0,0,0-0.1c0,0,0.1-0.1,0.1-0.2c0,0,0,0,0-0.1
	c0.1-0.2,0.2-0.3,0.2-0.3v0l0.1-0.2c0,0,0,0,0,0l0.1-0.1c0,0,0.1-0.1,0.1-0.1c0,0,0,0,0,0c0.2-0.4,0.2-0.5,0.4-0.8l0-0.1
	c0,0,0.1-0.1,0.1-0.1c0,0,0,0,0,0c0.1-0.2,0.3-0.4,0.4-0.5c0-0.1,0.1-0.1,0.1-0.2v0c0,0,0-0.1,0.1-0.2s0,0,0.1-0.1c0,0,0,0,0-0.1
	s0-0.1,0-0.1c0-0.1,0.2-0.2,0.2-0.2c0,0,0.1,0,0.1,0l0.1-0.2c0,0,0,0,0,0l0.1-0.1c0.1-0.1,0.1-0.2,0.2-0.2c0,0,0.1-0.1,0.1-0.1
	c0,0,0,0,0,0s0,0,0-0.1c0,0,0,0,0.1,0c0,0,0,0,0,0c0.1-0.2,0.2-0.3,0.3-0.4c0,0,0,0,0,0c0.1-0.1,0.1-0.2,0.2-0.2
	c0,0,0.1-0.1,0.2-0.1c0,0,0,0,0.1,0c0,0,0,0,0.1-0.1c0,0,0,0,0-0.1c0-0.1,0-0.2,0.1-0.2s0.2-0.1,0.3-0.2h0c0.1,0,0.1,0,0.2,0
	c0.1,0,0.1,0.1,0.2,0.2c0,0.1,0,0.2,0,0.3v0.1c0,0,0,0.1,0,0.2v0.1v0v0.1c0,0,0,0,0,0.1s0.1,0.1,0.1,0.2c0,0.1,0,0.2,0,0.2
	c0,0,0,0,0,0.1c0,0,0,0.1,0,0.1c0,0,0,0.1,0,0.1v0.1c0,0.2,0,0.4,0,0.5v0.2c0,0.2,0,0.4,0,0.5c0,0.1,0,0.1,0,0.2
	c-0.1,0.2-0.1,0.3,0,0.4v0.1c0,0.1,0,0.2-0.1,0.3c0,0-0.1,0.1,0,0.2c0,0,0,0.1,0,0.2v0.2v0.1c0,0,0,0.1,0,0.1c0,0-0.1,0.1-0.1,0.1
	c0,0,0,0,0,0c-0.1,0.2-0.1,0.3-0.1,0.3v0c0.1,0.1,0,0.2-0.1,0.3l0,0c0,0,0,0.1,0,0.1v0c0,0.1-0.1,0.2-0.1,0.5l-0.1,0.4
	c0,0.2-0.1,0.4-0.1,0.5v0.1c0,0,0,0,0,0c0.1,0.1,0.2,0.3,0.5,0.5c0.2,0.1,0.3,0.2,0.5,0.4c0,0,0.1,0,0.1,0c0.1,0,0.2,0,0.2,0
	c0.1,0,0.2,0.1,0.3,0.1c0,0,0.1,0,0.1,0c0.1-0.1,0.2-0.1,0.3,0h0.1c0.2,0,0.2-0.1,0.2-0.1c0.1,0,0.1-0.1,0.2-0.1
	c0-0.1,0.1-0.1,0.2-0.2l0,0c0,0,0.1-0.1,0.2-0.2l0.1-0.1c0,0,0.1-0.1,0.1-0.1c0.1,0,0.1-0.1,0.2-0.1c0,0,0,0,0,0c0,0,0-0.1,0-0.1
	c0,0,0-0.1,0-0.1c0-0.1,0-0.2,0-0.2c0.2-0.4,0.2-0.7,0.3-1.2c0-0.1,0-0.1,0.1-0.2c0,0,0-0.1,0-0.1c0,0,0-0.1,0-0.1c0,0,0,0,0,0
	c0.1-0.3,0.1-0.5,0.2-0.8c0,0,0-0.1,0-0.1v0c0.1-0.4,0.1-0.7,0.1-0.8c0,0,0-0.1,0-0.2v0v0v0c0.1-0.4,0.1-0.6,0.1-0.9
	c0-0.2,0-0.4-0.1-0.7c0-0.1,0-0.1,0-0.2c0,0,0,0,0-0.1s0-0.1,0-0.2v0c0-0.2,0-0.4-0.1-0.6c0-0.2-0.2-0.7-0.5-1.1c0,0,0,0,0-0.1
	c0,0,0,0,0,0c-0.2-0.2-0.5-0.4-0.7-0.5c-0.1-0.1-0.2-0.1-0.3-0.2l-0.1,0c-0.1,0-0.2-0.1-0.3-0.2l-0.1,0c-0.2-0.1-0.4-0.2-0.5-0.3
	c-0.2,0-0.3,0-0.4,0s-0.2,0-0.4,0c-0.2-0.1-0.4,0-0.4,0c-0.1,0-0.3,0-0.6,0s-0.7,0.2-0.7,0.2l-0.3,0.1c-0.2,0-0.3,0.1-0.4,0.2
	c-0.3,0.4-0.6,0.7-0.9,0.9c0,0,0,0,0,0c-0.2,0.2-0.4,0.4-0.5,0.6c-0.5,0.5-0.9,1-1.3,1.5v0c0,0,0,0.1-0.1,0.2s-0.1,0.1-0.2,0.3
	c0,0.1-0.1,0.1-0.2,0.1c0,0,0,0,0,0l-0.2,0.2v0.1v0.1c0,0,0,0.1,0,0.1c0,0.1-0.1,0.1-0.2,0.2c0,0,0,0,0,0c-0.1,0.2-0.1,0.2-0.1,0.2
	c0,0,0,0.1-0.1,0.2c0,0,0,0,0,0c0,0,0,0,0,0c0,0,0,0-0.1,0.1c-0.1,0.2-0.2,0.4-0.3,0.6c0,0,0,0,0,0.1c-0.2,0.3-0.3,0.5-0.4,0.9v0.1
	v0.1c0,0.1,0,0.2-0.1,0.2s0,0.2,0,0.2v0c0,0.1-0.1,0.3-0.2,0.4l-0.1,0.2c0,0,0,0,0,0.1c0,0.1-0.1,0.2-0.1,0.2v0c0,0,0,0.1-0.1,0.1v0
	c0,0.2-0.1,0.3-0.2,0.5c0,0,0,0,0,0l0,0c0,0-0.1,0.1-0.2,0.2c0,0-0.1,0.1-0.1,0.2c0,0,0,0.1,0,0.1c0,0,0,0.1,0,0.2v0
	c0,0.1,0,0.2-0.1,0.2c-0.1,0-0.2,0.2-0.3,0.4c-0.1,0.1-0.1,0.2-0.2,0.3V33v0.1c0,0.1,0,0.2-0.1,0.2c0,0,0,0,0,0.1l-0.1,0.2
	c0,0.2-0.1,0.3-0.1,0.4s0,0.1-0.1,0.2c0,0,0,0,0,0.1v0c-0.1,0.4-0.2,0.7-0.3,1.1c-0.2,0.6-0.4,1.2-0.4,1.8v0.1c0,0.1,0,0.2,0,0.2
	c0,0.1-0.1,0.2-0.2,0.4v0c0,0.1,0,0.1,0,0.2c0,0.1,0,0.2,0,0.4v0.1c0,0,0,0.1,0,0.2c0,0.2-0.1,0.4-0.1,0.6l0,0.5v0.4
	c0,0.6,0.2,1.1,0.4,1.7C103,41.9,103.1,42.1,103.2,42.3L103.2,42.3z M117.7,40.7L117.7,40.7v0.1V41c0,0.1,0,0.2,0,0.3
	c0,0.1,0.1,0.2,0.1,0.3c0,0.1,0.1,0.2,0.1,0.2c0,0,0,0,0.1,0s0.1,0,0.1,0c0,0,0,0,0,0h0c0,0,0.1,0,0.2,0.1s0,0,0.1,0.1
	c0,0,0,0,0.1,0c0.1,0,0.2,0.1,0.2,0.2c0,0,0,0,0,0.1c0,0,0,0,0.1,0c0,0,0,0,0.1,0c0.1,0,0.2,0,0.2,0h0.1h0c0,0,0.1,0,0.1-0.1
	c0-0.1,0.1-0.2,0.2-0.2c0,0,0.1,0,0.2-0.1c0.1-0.1,0.2-0.2,0.2-0.4c0-0.1,0-0.2,0-0.2c0-0.1,0-0.1,0.1-0.2c0,0,0-0.1,0-0.1
	c0-0.1,0-0.2,0-0.2c0,0,0,0,0-0.1c0-0.1,0-0.3,0-0.4v0v0v0c0-0.1,0.1-0.2,0.2-0.2c0,0,0.1-0.1,0.1-0.1c0-0.1,0-0.2,0.2-0.3
	c0,0,0,0,0,0s0,0,0-0.1c0,0,0,0,0,0v0c0-0.1,0-0.2,0-0.2c0,0,0,0,0,0c0,0-0.1-0.1-0.1-0.2s0.1-0.1,0.1-0.2l0,0c0,0,0,0,0,0
	c0,0,0-0.1,0-0.1c0,0,0-0.1,0-0.2s0-0.2,0.1-0.2c0,0,0,0,0.1,0c0,0,0.1-0.1,0.1-0.1s0,0,0-0.1c0-0.1,0-0.2,0.1-0.2c0,0,0,0,0-0.1v0
	c0-0.1,0-0.1,0-0.2v0c0,0,0,0,0-0.1s0-0.1,0-0.1v0c0,0,0-0.1,0-0.2v0c0,0,0,0,0-0.1c0,0,0-0.1,0.1-0.2l0,0c0,0,0,0,0-0.1
	c0,0,0,0,0-0.1v0c0,0,0,0,0,0v0c0,0,0-0.1,0-0.2c0,0,0,0,0-0.1v0c0-0.1,0-0.2,0.1-0.2c0,0,0,0,0-0.1c0-0.1,0-0.2,0.1-0.2
	c0,0,0,0,0-0.1v-0.1v0c0-0.1,0-0.2,0.1-0.2c0,0,0-0.1,0-0.1c0,0,0-0.1,0-0.1s0-0.1,0-0.1c0-0.1,0-0.1,0.1-0.2c0,0,0,0,0-0.1
	c0-0.1,0-0.2,0-0.2v0v0c0,0,0-0.1,0-0.2c0.1-0.1,0.1-0.2,0.1-0.3v0c0,0,0,0,0-0.1c0,0,0,0,0-0.1v-0.1c0,0,0,0,0-0.1v0
	c0,0,0-0.1,0-0.1c0,0,0-0.1,0-0.2v0v0c0,0,0-0.1,0-0.2c0,0,0-0.1,0.1-0.1s0-0.1,0.1-0.1l0,0c0,0,0,0,0,0c0,0,0,0,0,0
	c0,0,0-0.1,0-0.2c0-0.1,0-0.1,0-0.2c0,0,0,0,0-0.1c0,0,0-0.1,0-0.2v0c0,0,0-0.1,0.1-0.2c0-0.1,0.1-0.1,0.1-0.2s0-0.1,0.1-0.1
	c0.1-0.1,0.1-0.2,0.2-0.4c0-0.1,0-0.2,0-0.2c0-0.1,0-0.2,0-0.2c0,0,0-0.1,0-0.1c0,0,0-0.1,0-0.2c0-0.1,0-0.2,0-0.4v0
	c0-0.1,0-0.2,0-0.3c0,0,0-0.1,0.1-0.1c0,0,0-0.1,0.1-0.2c0,0,0,0,0-0.1c0,0,0-0.1,0-0.1c0-0.1,0-0.2,0.1-0.3c0,0,0,0,0-0.1
	c0,0,0-0.1,0.1-0.1l0-0.1c0-0.1,0-0.1,0.1-0.2c0,0,0-0.1,0.1-0.1c0.1-0.1,0.1-0.2,0.2-0.3c0,0,0-0.1,0.1-0.1c0,0,0-0.1,0-0.1
	c0,0,0-0.1,0-0.2c0,0,0-0.1,0-0.1c0,0,0,0,0-0.1c0,0,0-0.1,0-0.1c0,0,0,0,0,0c0,0,0,0,0-0.1c0-0.1,0-0.2,0-0.3c0,0,0,0,0-0.1
	c0-0.1,0-0.2,0-0.2c0,0,0-0.1,0.1-0.1c0,0,0,0,0-0.1s0-0.1,0.1-0.2l0,0c0,0,0,0,0,0c0,0,0,0,0,0c0.1-0.1,0.1-0.3,0.1-0.4
	c0-0.2,0-0.3,0.1-0.4c0,0,0,0,0,0c0,0,0-0.1,0-0.1c0,0,0,0,0-0.1l0,0l0,0l0.1-0.1c0,0,0-0.1,0-0.2c0-0.1,0-0.2,0-0.2l0.1-0.2v0
	c0.1-0.2,0.1-0.3,0.2-0.4c0,0,0,0,0-0.1s0-0.1,0-0.2c0,0,0-0.1,0.1-0.1s0,0,0-0.1c0-0.2,0-0.3,0-0.4c0-0.1,0-0.2-0.1-0.3
	c0,0-0.1-0.1-0.1-0.2c0,0,0-0.1,0-0.1c-0.1-0.1-0.2-0.2-0.3-0.1c-0.1,0-0.2,0-0.2-0.1l0,0c0,0-0.1,0-0.1-0.1l0,0
	c-0.2-0.1-0.5-0.2-0.6-0.2c0,0-0.1,0-0.1,0c0,0,0,0-0.1,0s0,0-0.1,0l-0.1,0c-0.1,0-0.2,0-0.3-0.1c0,0,0,0-0.1,0s-0.1,0-0.2-0.1
	l-0.1,0c0,0-0.1,0-0.1,0l-0.2,0.2c0,0,0,0,0,0.1s0,0,0,0.1c0,0,0,0,0,0c0,0,0,0,0,0.1s0,0.1-0.1,0.1s0,0,0,0.1c0,0.1,0,0.2-0.1,0.2
	c0,0,0,0.1,0,0.1c0,0.1,0,0.1-0.1,0.2c0,0,0,0,0,0.1s0,0.1,0,0.1c0,0.1,0,0.2-0.1,0.2l0,0c0,0.1,0,0.1,0,0.1v0c0,0,0,0.1,0,0.2
	c0,0,0,0,0,0v0v0.1v0.1c0,0.1,0,0.2-0.1,0.4c0,0,0,0.1,0,0.1c0,0.1,0,0.2,0,0.2c0,0,0,0.1-0.1,0.1c0,0.1,0,0.1-0.1,0.2
	c0,0,0,0,0,0.1v0.1c0,0,0,0.1,0,0.1v0.1v0.2c0,0.1,0,0.1-0.1,0.2c-0.1,0.1-0.1,0.2-0.2,0.4l0,0.1c0,0.1-0.1,0.2-0.2,0.2c0,0,0,0,0,0
	c0,0.1,0,0.1,0,0.1v0c0,0.1,0,0.1,0,0.2c0,0,0,0,0,0v0v0.2v0.1v0.2c0,0,0,0,0,0.1c-0.1,0.2-0.1,0.2-0.1,0.3v0.2c0,0,0,0.1,0,0.1
	c0,0,0,0.1-0.1,0.1c0,0,0,0,0,0.1c0,0,0,0,0,0.1l0,0c-0.1,0.2-0.2,0.4-0.2,0.6c0,0,0,0,0,0.1v0c0,0.2-0.1,0.4-0.2,0.5l0,0.1
	c-0.1,0.2-0.1,0.3-0.1,0.4c0,0,0,0.1,0,0.2v0.1c0,0,0,0.1,0,0.1c0,0.1-0.1,0.2-0.1,0.3c0,0.1,0,0.1-0.1,0.2l0,0
	c-0.1,0.2-0.1,0.3-0.1,0.4c0,0,0,0.1-0.1,0.2c0,0-0.1,0.1-0.1,0.1c0,0,0,0.1,0,0.2c0,0,0,0.1,0,0.2v0c-0.1,0.1-0.1,0.2-0.2,0.4
	c0,0.2-0.1,0.4-0.1,0.5v0.2V33c0,0,0,0.1-0.1,0.1l0,0l0,0.2v0v0.1v0c0,0.1,0,0.1-0.1,0.2c0,0,0,0,0,0.1v0.1l0,0V34
	c0,0.1,0,0.2,0,0.2c0,0.1-0.1,0.2-0.2,0.4l-0.1,0.5c0,0,0,0,0,0.1v0.1v0.1c0,0.1,0,0.2,0,0.3s0,0.1,0,0.2v0v0c0,0,0,0.1,0,0.1
	c0,0,0,0.1-0.1,0.1c0,0,0,0,0,0.1v0.1c0,0.1,0,0.1,0,0.2c0,0,0,0.1-0.1,0.1c0,0.1,0,0.1,0,0.2v0v0.1v0.1c0,0,0,0.1,0,0.2
	s0,0.1,0,0.2c0,0.1,0,0.1,0,0.2l0,0.1c0,0.1,0,0.1-0.1,0.2c0,0.1,0,0.2,0,0.4c0,0,0,0.1,0,0.2c0,0,0,0,0,0v0.1c0,0,0,0.1,0,0.2v0.1
	v0.1c0,0,0,0.1,0,0.2s0,0.2-0.1,0.3c0,0.2,0,0.4,0,0.5v0.5c0,0.1,0,0.2,0,0.2C117.7,40.5,117.8,40.6,117.7,40.7L117.7,40.7z
	 M142.1,25.4L142.1,25.4c0,0.2,0,0.2-0.1,0.3c0,0,0,0,0,0.1l-0.1,0.2c0,0,0,0.1,0,0.1s0,0,0,0c0,0.1,0,0.2,0,0.2s0,0.2-0.1,0.2
	c0,0,0,0,0,0s0,0.1,0,0.1v0c0,0,0,0.1,0,0.2c0,0,0,0,0,0v0v0.2c0,0,0,0.2,0,0.2c0,0,0,0,0,0.1l0,0c-0.1,0.1-0.2,0.3-0.2,0.5
	c0,0,0,0,0,0.1v0c0,0.2-0.1,0.3-0.2,0.5c-0.1,0.2-0.2,0.4-0.1,0.5c0,0,0,0.1,0,0.2v0.1c0,0,0,0.1,0,0.1v0l-0.1,0.2
	c0,0,0,0.1-0.1,0.1v0l0,0c-0.1,0.3-0.2,0.7-0.4,1c-0.1,0.3-0.2,0.6-0.4,0.9c0,0,0,0.1,0,0.1v0c0,0,0,0.1-0.1,0.1l0,0v0.1v0.1
	c0,0.1,0,0.2,0,0.2v0c0,0,0,0-0.1,0.1l0,0v0l-0.1,0.2v0.1v0.1v0v0.2c0,0.2-0.1,0.3-0.2,0.5c0,0.1-0.1,0.2-0.1,0.3v0v0
	c0,0.1,0,0.1,0,0.2c0,0.1-0.1,0.2-0.1,0.3v0.1c0,0.1,0,0.1-0.1,0.2c0,0,0,0.1,0,0.1c0,0,0,0.1,0,0.1c0,0.1-0.1,0.2-0.2,0.2
	c0,0-0.1,0-0.1,0.1v0.1v0.1c0,0.1,0,0.1-0.1,0.2c0,0,0,0.1,0,0.1c0,0,0,0.1,0,0.2c0,0,0,0.1-0.1,0.2c0,0.1-0.1,0.3-0.1,0.4
	c0,0,0,0.1,0,0.1v0c0,0,0,0.1-0.1,0.1c0,0,0,0,0,0.1v0v0v0.1c0,0,0,0.1,0,0.2c0,0,0,0.1,0,0.1s0,0.1,0,0.2c0,0,0,0.1,0,0.2
	c0,0.1,0,0.2,0,0.3c0,0,0,0.1,0,0.2V38c0,0.1,0,0.2,0,0.2c0,0,0,0.1,0,0.1c0,0,0,0.1,0,0.1l0,0.2v0.1v0v0.1c0,0.1,0,0.2,0,0.4v0v0v0
	v0.1c0,0,0,0.1,0,0.1c0,0.1,0,0.2-0.1,0.2c0,0,0,0.1,0,0.2c0,0,0,0.1,0,0.1c0,0,0.1,0.1,0.1,0.2c0,0,0,0.1,0,0.1
	c0,0,0.1,0.1,0.1,0.1v0c0,0.1,0,0.2,0,0.2v0v0v0.1c0,0,0,0.1,0.1,0.1c0.1,0,0.1,0.1,0.2,0.1c0,0,0,0,0,0l0,0c0,0,0,0,0.1,0
	c0,0,0.1,0,0.2,0c0,0,0,0,0.1,0h0l0.1,0c0-0.1,0.1-0.1,0.2-0.2h0.1c0.1,0,0.1,0,0.2,0h0h0.1h0c0,0,0,0,0.1,0h0c0.1,0,0.2,0,0.2,0
	l0.1,0h0h0h0l0.2,0.1h0c0,0,0.1,0,0.2,0c0.1-0.1,0.1-0.1,0-0.2c-0.1-0.1,0-0.2,0-0.3l0,0l0-0.2c0-0.1,0.1-0.2,0.2-0.2c0,0,0,0,0.1,0
	c0,0,0,0,0-0.1l0,0c0,0,0-0.1,0-0.1c0,0,0,0,0,0c0-0.1,0-0.2,0-0.2l0.1-0.1c0,0,0.1,0,0.1-0.1c0,0,0-0.1,0-0.1c0,0,0.1-0.1,0.1-0.1
	c0,0,0.1-0.1,0-0.2c0-0.1,0-0.2,0-0.2c0,0,0.1-0.1,0.1-0.1c0,0,0.1,0,0.1-0.1s0-0.1,0-0.2v0c0,0,0-0.1,0-0.1c0,0,0-0.1,0-0.2
	c0,0,0,0,0-0.1c0-0.1,0-0.2,0-0.3l0,0l0,0c0,0,0,0,0-0.1c0,0,0,0,0-0.1c0,0,0-0.1,0-0.2s0-0.1,0-0.1c-0.1-0.1-0.1-0.2-0.1-0.3
	c0,0,0,0,0-0.1c0,0,0,0,0,0c0,0,0.1-0.1,0.2-0.1c0,0,0.1,0,0.1-0.1v0v0v-0.1v0c0-0.1,0-0.2,0-0.2v0c0,0,0,0,0-0.1s0,0,0-0.1
	s0,0,0-0.1v0c0,0,0-0.1,0-0.1s0,0,0-0.1c0-0.1,0-0.1,0.1-0.2c0,0,0-0.1,0-0.1c0-0.1,0-0.1,0-0.2c0,0,0,0,0-0.1c0,0,0-0.1,0.1-0.1
	c0,0,0,0,0-0.1c0-0.1,0-0.1,0-0.2v0v0c0-0.1,0-0.1,0-0.2s0-0.2,0-0.3v0c0,0,0,0,0-0.1c0,0,0,0,0-0.1l0,0c0,0,0,0,0,0s0,0,0-0.1
	c0,0,0,0,0,0c0-0.1,0.1-0.2,0-0.2c0,0,0-0.1,0-0.1v0c0,0,0-0.1,0.1-0.2c0,0,0,0,0-0.1s0-0.1,0.1-0.2c0,0,0-0.1,0.1-0.2
	c0,0,0-0.1,0.1-0.1c0.1-0.1,0.2-0.3,0.2-0.5c0-0.1,0-0.2,0.1-0.2c0,0,0-0.1,0-0.1c0,0,0-0.1,0-0.2c0-0.1,0-0.2,0.1-0.3v0
	c0,0,0-0.1,0-0.1l0-0.2c0,0,0,0,0-0.1c0-0.1,0-0.1,0.1-0.2c0,0,0,0,0-0.1c0.1-0.1,0.2-0.3,0.2-0.5v0c0,0,0-0.1,0-0.1
	c0,0,0-0.1,0-0.1c0,0,0,0,0-0.1c0.1,0,0.1-0.1,0.1-0.1c0,0,0,0,0,0c0,0,0,0,0,0c0,0,0,0,0,0c0,0,0,0,0,0l0.1-0.1c0,0,0-0.1,0-0.1
	c0-0.1,0-0.2,0-0.3c0.1-0.1,0.1-0.3,0.2-0.4c0-0.1,0-0.2,0.1-0.2c0,0,0-0.1,0-0.1c0,0,0-0.1,0-0.2v-0.1v0c0,0,0-0.1,0-0.2
	c0,0,0,0,0,0c0,0,0-0.1,0-0.1c0,0,0,0,0-0.1s0-0.1,0-0.1l0,0c0,0,0-0.1,0.1-0.1c0,0,0,0,0-0.1c0.1-0.1,0.2-0.3,0.2-0.5v0
	c0,0,0,0,0-0.1c0-0.1,0-0.2,0.1-0.2c0,0,0,0,0,0v0v0l0-0.1c0,0,0,0,0-0.1l0,0l0,0l0.1-0.1c0,0,0-0.1,0-0.2c0,0,0,0,0-0.1
	c0-0.1,0-0.2,0.1-0.3c0,0,0,0,0-0.1c0-0.1,0-0.2,0-0.2c0,0,0-0.1,0-0.1c0,0,0-0.1,0.1-0.2c0,0,0,0,0-0.1c0-0.1,0-0.2-0.1-0.2
	c-0.1,0-0.1-0.2-0.1-0.2c0,0,0,0,0-0.1v0c0-0.1,0-0.2,0-0.3c0-0.1,0-0.2,0-0.3c0,0,0,0,0-0.1c0,0,0-0.1,0-0.1c0,0,0,0,0,0
	c0-0.1-0.1-0.2-0.1-0.2c0,0-0.1-0.1-0.2-0.2l0,0c0,0-0.1,0-0.1,0c0,0-0.1-0.1-0.1-0.1c0,0-0.1,0-0.1-0.1l0,0
	c-0.1-0.1-0.1-0.1-0.2-0.1h0l-0.1,0c0,0,0,0-0.1,0c0,0,0,0,0,0c0,0,0,0-0.1,0h0c-0.1,0-0.1-0.1-0.2-0.1c0,0,0,0-0.1,0
	c0,0-0.1,0-0.2,0c0,0-0.1,0-0.1,0s-0.1,0-0.1,0c0,0-0.1,0-0.1,0c-0.1,0-0.2,0-0.2,0c0,0-0.1,0-0.1,0c-0.1,0-0.1,0.1-0.1,0.1
	c0,0,0,0,0,0c0,0.1,0,0.1-0.1,0.2c-0.1,0,0,0,0,0.1c0,0,0,0,0,0v0c0,0,0,0.1,0,0.2v0.2c0,0.1,0,0.2,0,0.3v0.1c0,0.1,0,0.2,0,0.2
	c0,0-0.1,0.1-0.1,0.2s0,0,0,0.1c0,0,0,0,0,0.1v0.1v0.1v0.2c0,0.1,0,0.1-0.1,0.2C142.1,25.1,142.1,25.2,142.1,25.4L142.1,25.4z
	 M125.8,38.9V39c0,0.1,0,0.2,0,0.2c0,0.1,0,0.3,0,0.4l0.2,1c0,0.2,0.1,0.4,0.2,0.4l0.2,0.2c0.1,0.1,0.1,0.2,0.2,0.2
	c0.1,0.1,0.1,0.2,0.2,0.2l0.2,0.2c0,0,0,0,0.1,0s0.1,0,0.2,0c0,0,0.1,0,0.1,0.1c0,0,0,0,0.1,0.1c0,0,0,0,0,0
	c0.2,0.1,0.4,0.2,0.4,0.2h0.1c0,0,0.1,0,0.2,0h0c0,0,0,0,0.1,0c0,0,0.1,0,0.2,0h0h0.1c0,0,0.1,0,0.1,0h0l0.2,0c0,0,0.1,0,0.1,0
	c0,0,0.1,0,0.2,0c0,0,0.1,0,0.2,0h0c0.1,0,0.1,0,0.2,0.1c0,0,0,0,0.1,0h0c0,0,0.1,0,0.1-0.1c0-0.1,0.1-0.2,0.2-0.2c0,0,0.1,0,0.2,0
	c0,0,0,0,0.1,0c0,0,0.1,0,0.1-0.1c0,0,0.1,0,0.2-0.1h0l0,0c0,0,0.1-0.1,0.1-0.1c0.1-0.1,0.2-0.1,0.3-0.2c0.2-0.1,0.3-0.3,0.4-0.4
	c0,0,0-0.1,0.1-0.1l0,0c0,0,0-0.1,0-0.1c0,0,0-0.1,0-0.1l0,0c0,0,0-0.1,0.1-0.1s0,0,0,0c0-0.1,0.1-0.2,0.1-0.3c0,0,0,0,0-0.1
	s0-0.1,0.1-0.1c0-0.1,0.1-0.1,0.2-0.1c0,0,0,0,0.1,0c0.1-0.2,0.2-0.4,0.2-0.5c0.1-0.2,0.2-0.5,0.3-0.7c0,0,0-0.1,0-0.1
	c0,0,0-0.1,0-0.2c0-0.1,0.1-0.2,0.1-0.2c0,0,0.1-0.1,0.1-0.1c0,0,0,0,0,0c0,0,0.1-0.1,0.2-0.1h0.2h0.1c0,0,0,0,0-0.1c0,0,0,0,0-0.1
	l0,0c0,0,0,0,0-0.1c0-0.1,0-0.1,0-0.2c0,0,0-0.1,0.1-0.1c0-0.1,0.1-0.1,0.2-0.1c0,0,0,0,0,0s0,0,0-0.1s0,0,0,0l0,0c0,0,0-0.1,0-0.1
	c0,0,0-0.1,0-0.1c0,0,0-0.1,0-0.2c0,0,0,0,0-0.1c0,0-0.1-0.1,0-0.2v0c0-0.1,0-0.2,0.1-0.2c0,0,0.1-0.1,0.1-0.1s0.1,0,0.1-0.1
	s0-0.1,0.1-0.2l0,0c0-0.1,0.1-0.2,0.2-0.2c0,0,0.1,0,0.1,0v0c0,0,0.1-0.1,0.1-0.2c0,0,0-0.1,0-0.1c0,0,0-0.1,0-0.2v0
	c0,0,0-0.1,0-0.1l0-0.2v0c0-0.1,0.1-0.1,0.2-0.1h0l0.1-0.1c0,0,0.1-0.1,0.1-0.1s0.1,0,0.1-0.1l0-0.2c0,0,0,0,0-0.1
	c0-0.1,0-0.2,0.1-0.3c0,0,0,0,0-0.1c0-0.1,0.1-0.2,0.2-0.2h0h0c0,0,0,0,0.1-0.1c0.1-0.2,0.1-0.4,0.1-0.5c0,0,0-0.1,0-0.1
	c0-0.1-0.1-0.2,0-0.3l0.1-0.2l0,0c0-0.1,0.1-0.1,0.1-0.2c0,0,0,0,0-0.1c0,0,0-0.1,0-0.2l0.1-0.2v0c0.1-0.1,0.1-0.2,0.3-0.4v0v0
	c0-0.1,0-0.1,0.1-0.2c0,0,0,0,0-0.1c0-0.1,0-0.2,0-0.3c0-0.1,0-0.2,0-0.2c0-0.1,0.1-0.1,0.2-0.1c0,0,0.1,0,0.1-0.1v-0.1v0
	c0-0.1,0-0.2,0.1-0.2c0,0,0,0,0.1-0.1c0,0,0,0,0,0l0-0.1c0,0,0-0.2,0.1-0.2c0,0,0,0,0-0.1l0-0.1c0,0,0.1-0.1,0.1-0.1s0,0,0-0.1
	l0.1-0.2v0c0,0,0-0.1,0-0.2v0c0.1-0.1,0.1-0.2,0.2-0.4c0,0,0,0,0-0.1c0-0.1,0-0.1,0.1-0.2c0,0,0,0,0-0.1c0,0,0-0.1,0-0.1
	c0,0,0,0,0,0v0l0.1-0.2c0,0,0-0.1,0.1-0.1c0,0,0,0,0,0c0,0,0.1-0.1,0.1-0.3c0-0.1,0-0.1,0.1-0.2c0,0,0,0,0,0l0.2-0.4c0,0,0,0,0,0
	c0.1-0.2,0.3-0.5,0.4-0.7v0c0-0.1,0.1-0.2,0.1-0.3c0,0,0,0,0-0.1l0.2-0.6c0,0,0,0,0-0.1c0,0,0,0,0,0c0-0.1,0.1-0.2,0.1-0.2
	s0,0,0-0.1c0,0,0,0,0.1-0.1l0.2-0.5v0c0,0,0-0.1,0-0.1c0,0,0-0.1,0-0.1s0,0,0,0c0,0,0-0.1,0.1-0.1c0,0,0.1,0,0.1-0.1
	c0.2-0.2,0.2-0.3,0.3-0.4c0-0.1,0-0.1,0.1-0.2c0,0,0-0.1,0-0.1c0-0.1,0-0.2,0.1-0.2c0,0,0.1-0.1,0.2-0.1c0,0,0.1,0,0.2,0h0.1
	c0,0,0.1,0,0.2-0.1l0,0c0,0,0,0,0,0l0.1-0.2c0,0,0,0,0-0.1l0.1-0.1c0,0,0-0.1,0.1-0.1c0,0,0.1-0.1,0.1-0.2c0,0,0,0,0-0.1
	s0-0.1,0.1-0.1c0,0,0.1-0.1,0.1-0.1c0-0.1,0.1-0.2,0.2-0.3l0.4-0.9c0,0,0-0.1,0-0.1l0,0c-0.1-0.1-0.2-0.2-0.2-0.3l-0.2-0.2
	c0,0-0.1-0.1-0.1-0.1c-0.1-0.1-0.2-0.2-0.4-0.3c0,0-0.1,0-0.1,0c0,0.1-0.1,0.1-0.2,0.1c-0.1,0-0.2-0.1-0.2-0.2c0,0,0,0-0.1-0.1
	c0,0-0.1,0-0.2,0c-0.2,0-0.5,0-0.7,0c0,0,0,0,0,0c0,0-0.1,0-0.1,0c-0.1,0-0.1,0-0.2,0c0,0,0,0-0.1,0h0c-0.1,0-0.2,0-0.2,0
	c-0.1,0-0.2,0.1-0.3,0.2c-0.1,0.1-0.1,0.1-0.2,0.1l0,0c0,0-0.1,0.1-0.2,0.2l0,0c0,0,0,0-0.1,0c-0.1,0.1-0.2,0.2-0.2,0.2
	c-0.1,0.1-0.1,0.2-0.2,0.3c-0.1,0.2-0.2,0.4-0.3,0.5c-0.1,0.1-0.2,0.3-0.2,0.4c-0.1,0.2-0.2,0.4-0.4,0.6v0c0,0.1-0.1,0.2-0.1,0.2
	c0,0,0,0-0.1,0.1l-0.2,0.2c0,0,0,0,0,0l-0.1,0.1c-0.1,0.1-0.1,0.1-0.2,0.2c0,0-0.1,0.1-0.1,0.1v0.1c0,0,0,0.1,0,0.1v0
	c0,0,0,0.1,0,0.1c0,0,0,0.1,0,0.2s0,0.1,0,0.1l0,0c0,0,0,0,0,0.1c0,0.1,0,0.2-0.1,0.2l-0.1,0.1c0,0,0,0,0,0.1c0,0.1,0,0.1,0,0.2v0
	c0,0,0,0.1,0,0.1c0,0,0,0,0,0.1c0,0.1-0.1,0.2-0.2,0.2c0,0,0,0.1,0,0.1c0,0,0,0.1-0.1,0.1l-0.1,0.1c0,0,0,0.1,0,0.1V25v0.1
	c0,0,0,0.1,0,0.2v0.1c0,0.1,0,0.1-0.1,0.2s-0.1,0-0.1,0.1c0,0,0,0-0.1,0c0,0,0,0,0,0c0,0,0,0,0,0.1s0,0,0,0.1c0,0,0,0,0,0.1v0v0.1
	c0,0.1,0,0.1,0,0.2c0,0,0,0.1,0,0.1c0,0,0,0,0,0v0l0,0.1c0,0.1,0,0.1-0.1,0.2c0,0-0.1,0-0.1,0.1c-0.1,0.1-0.1,0.2-0.1,0.3v0.1v0
	c0,0,0,0.1,0,0.1v0.1c0,0,0,0.1-0.1,0.1c0,0-0.1,0.2-0.1,0.2c-0.1,0.2-0.2,0.4-0.3,0.6l-0.1,0.1c0,0,0,0.1-0.1,0.1v0
	c0,0,0,0.1,0,0.1l-0.3,0.6l-0.2,0.4c0,0,0,0,0,0.1c0,0-0.1,0.1-0.1,0.1c0,0,0,0.1-0.1,0.1v0c0,0,0,0.1,0,0.2c0,0,0,0.1,0,0.1v0.1
	c0,0.1,0,0.1-0.1,0.2l0,0l-0.1,0.1c0,0,0,0-0.1,0.1c0,0-0.1,0-0.1,0.1c0,0,0,0.1,0,0.1c0,0.1-0.1,0.2-0.1,0.3l-0.1,0.2
	c0,0,0,0.1-0.1,0.1c0,0,0,0-0.1,0.1c0,0-0.1,0.1-0.1,0.1l0,0.1c0,0.1-0.1,0.1-0.2,0.2c0,0,0,0,0,0c0,0,0,0,0,0c0,0.1,0,0.1-0.1,0.2
	l0,0.1c0,0,0,0.1,0,0.1c0,0,0.1,0.1,0.1,0.2s0,0.2,0,0.2v0v0c0,0,0,0.1-0.1,0.1c0,0,0,0,0,0l-0.1,0.2c-0.1,0.3-0.2,0.5-0.2,0.7
	c0,0.1-0.1,0.2-0.2,0.2c0,0-0.1,0-0.1,0.1v0c0,0,0,0,0,0.1l0,0v0.1v0.2c0,0,0,0.1-0.1,0.2c0,0.1-0.1,0.1-0.2,0.2c0,0,0,0,0,0
	c0,0,0,0.1,0,0.1c0,0,0,0,0,0l0,0c0,0,0,0.1,0,0.1c0,0,0,0.1,0,0.1c0,0,0,0.1,0,0.1c0,0,0,0,0,0c0,0,0,0.1,0,0.2c0,0,0,0.1,0,0.1v0
	c0,0,0,0,0,0.1c-0.1,0.2-0.2,0.3-0.2,0.4c0,0,0,0,0,0.1l0,0c0,0.1-0.1,0.2-0.2,0.2c0,0-0.1,0-0.1,0v0c0,0.1-0.1,0.1-0.1,0.2
	c0,0,0,0.1,0,0.1s0,0.1,0,0.2v0v0.1l0,0.2v0c0,0.1-0.1,0.1-0.2,0.1h0c0,0,0,0-0.1,0.1c0,0-0.1,0.1-0.2,0.1c0,0-0.1,0-0.1,0.1v0
	c0,0.1-0.1,0.2-0.2,0.2s-0.2,0-0.2-0.2c0,0,0,0,0,0c0,0,0-0.1,0-0.2c0-0.1,0-0.2,0-0.2c0-0.1,0-0.1,0.1-0.2c0,0,0,0,0-0.1v-0.3v0
	c0,0,0-0.1,0-0.2c0-0.1,0-0.3,0.1-0.5c0,0,0,0,0-0.1c0,0,0-0.1,0-0.1v0c0,0,0,0,0-0.1s0-0.1,0-0.2c0,0,0-0.1,0-0.2l0-0.2
	c0,0,0-0.1,0-0.1c0,0,0,0,0-0.1v-0.1c0-0.1,0-0.1,0-0.2c0-0.1,0-0.1,0-0.2v0c0-0.2,0-0.4,0-0.5v0c0-0.1,0-0.2,0.1-0.3
	c0.1-0.2,0.1-0.3,0.1-0.4c0-0.1,0-0.1,0-0.2v0v0c0,0,0,0,0-0.1v-0.1c0,0,0,0,0-0.1l0-0.2c0-0.2,0-0.3,0-0.4c0,0,0,0,0-0.1
	c0,0,0,0,0,0c0-0.2,0.1-0.5,0.1-0.7v0c0-0.1,0-0.2,0-0.4c0,0,0-0.1,0-0.1c0,0,0,0,0,0c0-0.2,0.1-0.4,0.1-0.5v0
	c0-0.2,0.1-0.4,0.1-0.6c0,0,0-0.1,0-0.1c0-0.1,0-0.1,0-0.2c0,0,0-0.1,0-0.1v0c0-0.1,0-0.2,0-0.2c0,0,0-0.1,0.1-0.1l0,0
	c0-0.1,0-0.2,0.1-0.3c0-0.1,0-0.2,0.1-0.3c0-0.2,0.1-0.4,0.1-0.5c0,0,0-0.1,0-0.1c0-0.1,0-0.2,0-0.3c0,0,0,0,0-0.1c0,0,0-0.1,0-0.2
	c0.1-0.2,0.2-0.4,0.2-0.7c0-0.1,0-0.2,0-0.3v-0.1c0,0,0-0.1,0-0.1l0-0.1c0,0,0,0,0-0.1c0,0,0-0.1,0-0.2c0-0.3,0.1-0.6,0.1-1.1v0
	c0,0,0-0.1,0-0.2l0.2-1.2v0c0-0.2,0.1-0.4,0-0.7c-0.1-0.2-0.2-0.3-0.3-0.4l0,0h0l-0.1-0.1c-0.2-0.1-0.4-0.2-0.6-0.4
	c-0.2-0.1-0.4-0.1-0.7,0c0,0-0.1,0-0.1,0h0h0c0,0-0.1,0-0.2,0c-0.1,0-0.2,0-0.3,0.1c0,0,0,0,0,0.1c0,0.1-0.1,0.1-0.1,0.2
	c0,0,0,0,0,0c0,0-0.1,0.2-0.1,0.4c0,0,0,0,0,0.1l0,0.1c0,0.1-0.1,0.2-0.1,0.2v0.1c0,0,0,0.1,0,0.1v0c0,0,0,0.1,0,0.1
	c0,0.2,0,0.2,0,0.5c0,0,0,0.1,0,0.1c0,0,0,0.1-0.1,0.1l0,0.1v0.1v0l-0.1,0.6c0,0,0,0.1,0,0.1c0,0,0.1,0.1,0.1,0.2v0.1
	c-0.1,0.4-0.3,1.1-0.4,1.6c-0.1,0.5-0.1,0.7-0.2,0.8v0c0,0.4-0.1,0.8-0.2,1.3v0v0.1v0c0,0,0,0.1,0,0.1c0,0.1-0.1,0.2-0.1,0.4
	c0,0.2-0.1,0.4-0.2,0.6v0.1c0,0,0,0.1,0,0.1c0,0.1,0,0.2,0,0.2c0,0.2,0,0.3,0,0.4s0,0.1,0,0.2c0,0,0,0,0,0.1v0
	c0,0.4-0.1,0.9-0.2,1.4c-0.1,0.2-0.1,0.5-0.2,0.8c0,0.1,0,0.2,0,0.3c0,0,0,0.1,0,0.1c0,0,0,0,0,0c0,0.2,0,0.4,0,0.5v0.1
	c0,0,0,0.1,0,0.1s0,0.1,0,0.1l0,0.1v0c0,0,0,0.1,0,0.2c0,0.1,0,0.2,0,0.4v0.1c0,0,0,0.1,0,0.2c-0.1,0.4-0.2,0.8-0.2,1.1
	c0,0.4,0,0.9-0.1,1.3v0.3v0.1C125.8,38.7,125.8,38.8,125.8,38.9L125.8,38.9z M145.7,40.7C145.7,40.8,145.8,40.8,145.7,40.7
	c0.2,0,0.2,0.1,0.2,0.2c0,0,0,0.1,0.1,0.2v0c0,0,0,0,0,0l0,0l0.1,0.1c0,0,0.1,0.1,0.1,0.2v0v0c0,0,0,0.1,0.1,0.1l0,0
	c0.1,0,0.2,0.1,0.3,0.1c0.1,0,0.2,0.1,0.2,0.1h0c0.1,0,0.2,0,0.2,0c0,0,0,0,0,0c0.1,0.1,0.2,0.1,0.2,0.1c0,0,0.1,0,0.1,0h0
	c0.1,0,0.2,0.1,0.2,0.1h0.1c0,0,0.1,0,0.2,0s0.1,0,0.2,0.1l0,0c0,0,0.1,0,0.1,0.1c0,0,0,0,0.1,0h0c0,0,0,0,0.1,0c0,0,0.1,0,0.2,0h0
	c0.1,0,0.2-0.1,0.3-0.2l0,0c0-0.1,0.1-0.1,0.2-0.1c0.1,0,0.2,0,0.2,0.1c0,0,0.1,0,0.2,0l0.1-0.1c0,0,0,0,0,0c0,0,0.1-0.1,0.2-0.1
	c0,0,0,0,0.1,0l0.1,0h0c0,0,0,0,0.1-0.1c0,0,0-0.1,0.1-0.1l0.1-0.1c0,0,0.1-0.1,0.2-0.1c0,0,0,0,0.1,0l0.2-0.2l0,0
	c0,0,0-0.1,0.1-0.1h0c0,0,0,0,0.1,0c0,0,0.1,0,0.2-0.1c0,0,0,0,0.1,0c0,0,0,0,0,0c0,0,0-0.1,0.1-0.1c0,0,0,0,0.1-0.1
	c0,0,0,0,0.1-0.1c0,0,0,0,0,0c0,0,0,0,0,0l0.2-0.1c0,0,0.1-0.1,0.1-0.1c0,0,0,0,0,0l0,0l0,0c0,0,0.1-0.1,0.1-0.1
	c0,0,0.1-0.1,0.2-0.1c0.1,0,0.2-0.1,0.2,0c0,0,0.1,0,0.1,0c0,0,0,0,0,0c0,0,0,0,0,0l0,0l0-0.1c0,0,0-0.1,0.1-0.2l0,0
	c0,0,0.1-0.1,0.2-0.1h0.1c0,0,0,0,0,0c0,0,0,0,0.1,0c0,0,0,0,0,0l0.1-0.1c0,0,0-0.1,0-0.1c0,0,0-0.1,0-0.2c0,0,0-0.1,0-0.2
	c0.1-0.1,0.1-0.2,0.2-0.2l0.1-0.1l0.2-0.2c0.1-0.1,0.2-0.1,0.3,0h0.1h0c0,0,0.1,0,0.1-0.1c0,0,0.1,0,0.1-0.1c0,0,0-0.1,0-0.1
	c0,0,0,0,0,0s0-0.1,0-0.1l0,0l0,0l0.1,0c0,0,0.1,0,0.1,0h0c0,0,0.1,0,0.1,0c0,0,0.1,0,0.2,0c0,0,0.1,0,0.1,0l0.1-0.2v0
	c0-0.1,0-0.1,0.1-0.2c0,0,0.1-0.1,0.2-0.1s0.1,0,0.2,0h0h0c0,0,0.1,0,0.1,0c0.1-0.1,0.2-0.2,0.2-0.3c0,0,0,0,0-0.1
	c0-0.1,0-0.2,0.1-0.2l0,0l0.2-0.1c0,0,0,0,0,0c0.1,0,0.2-0.1,0.2-0.1c0,0,0,0,0.1-0.1c0.1-0.1,0.2-0.2,0.4-0.3l0.1-0.1h0h0l0,0
	c0,0,0.1-0.1,0.2-0.1c0,0,0.1,0,0.1,0l0,0c0,0,0,0,0.1-0.1c0.1,0,0.2-0.1,0.2-0.2c0,0,0.1,0,0.1,0s0,0,0.1,0l0.1-0.1c0,0,0,0,0,0
	c0-0.1,0.1-0.1,0.2-0.1h0c0,0,0.1,0,0.2,0c0,0,0.1,0,0.1,0c0,0,0-0.1,0.1-0.1l0,0c0,0,0.1,0,0.2-0.1c0,0,0.1,0,0.2,0
	c0,0,0.1,0,0.1,0c0,0,0.1-0.1,0.2-0.1l0,0c0,0,0.1-0.1,0.1-0.1c0.1,0,0.2-0.1,0.4-0.1c0,0,0,0,0.1,0c0,0,0.1-0.1,0.1-0.1s0,0,0.1,0
	c0,0,0,0,0.1,0h0h0l0.2-0.1c0,0,0.1,0,0.1,0c0,0,0,0,0.1,0l0,0c0,0,0.1,0,0.1,0l0.2-0.1l0.2-0.1c0,0,0,0,0.1,0l0,0h0c0,0,0,0,0.1,0
	h0c0,0,0.1-0.1,0.2-0.2l0,0c0.1-0.1,0.2-0.2,0.2-0.4c0,0,0-0.1,0-0.2c0,0,0-0.1,0-0.1v0c0,0,0-0.1,0-0.1c0,0,0,0,0-0.1
	c-0.1,0-0.2-0.1-0.4-0.2c0,0,0,0-0.1,0l-0.2-0.1c0,0,0,0,0,0c0,0,0,0-0.1,0s0,0-0.1,0c0,0,0,0-0.1,0c-0.1,0-0.2-0.1-0.4-0.1
	c0,0,0,0-0.1,0h0l-0.2,0c0,0-0.1,0-0.1,0c-0.1,0-0.2,0-0.3,0c-0.2,0-0.4,0-0.5,0.1h0c0,0-0.1,0-0.1,0h0c-0.2,0-0.3,0-0.4,0.1h0
	c-0.2,0-0.4,0.1-0.5,0.2c0,0,0,0,0,0c0,0,0,0-0.1,0.1c-0.1,0.1-0.3,0.1-0.4,0.2c0,0-0.1,0-0.2,0c0,0,0,0-0.1,0
	c-0.1,0-0.2,0.1-0.3,0.2c-0.2,0.1-0.4,0.2-0.4,0.2c0,0-0.1,0-0.1,0c-0.3,0-0.7,0.3-1.1,0.6c-0.2,0.1-0.3,0.2-0.4,0.2c0,0,0,0,0,0.1
	s0,0.1-0.1,0.2c-0.2,0.2-0.5,0.3-0.7,0.5c0,0,0,0,0,0.1c0,0,0,0.1-0.1,0.2c0,0-0.1,0.1-0.2,0c0,0,0,0-0.1,0c0,0-0.1,0.1-0.1,0.1
	c0,0,0,0.1-0.1,0.1c-0.1,0.1-0.2,0.1-0.3,0.2c0,0,0,0-0.1,0c-0.3,0.2-0.6,0.4-0.9,0.7l0,0c0,0,0,0-0.1,0c0,0,0,0,0,0l0,0
	c0,0,0,0-0.1,0h0c0,0-0.1,0.1-0.2,0.1c0,0,0,0-0.1,0c0,0-0.1,0.1-0.1,0.1l-0.1,0c0,0,0,0,0,0l0,0c0,0,0,0,0,0.1
	c0,0.1-0.1,0.1-0.2,0.2c0,0-0.1,0-0.2,0c0,0,0,0-0.1,0l0,0c0,0-0.1,0.1-0.1,0.1s-0.1,0-0.2,0.1c0,0-0.1,0.1-0.1,0.1c0,0,0,0,0,0.1
	c0,0.1,0,0.1-0.1,0.2c-0.2,0.1-0.2,0.2-0.3,0.3c0,0-0.1,0.1-0.1,0.1c0,0,0,0-0.1,0c0,0-0.1,0.1-0.2,0.2c-0.1,0.1-0.2,0.2-0.2,0.3
	c0,0-0.1,0.1-0.2,0.1c0,0-0.1,0-0.1,0.1s0,0.1-0.1,0.2c0,0,0,0-0.1,0.1l0,0c0,0-0.1,0.1-0.2,0.1c0,0-0.1,0-0.1,0
	c0,0.1-0.1,0.1-0.2,0.1c0,0,0,0,0,0c-0.1,0-0.2,0.1-0.3,0c-0.1,0-0.2-0.2-0.2-0.2l0-0.5v0V38c0-0.2,0.1-0.3,0.1-0.4s0.1-0.2,0.1-0.3
	c0,0,0,0,0-0.1c0,0,0-0.1,0-0.2c0-0.1,0.1-0.2,0.1-0.2c0,0,0-0.1,0.1-0.1c0,0,0,0,0-0.1c0-0.1,0-0.2,0.1-0.3c0-0.1,0-0.2,0.1-0.3
	c0-0.1,0.1-0.2,0.1-0.2c0-0.1,0-0.1,0.1-0.2l0,0c0,0,0,0,0-0.1c0-0.1,0.1-0.2,0.1-0.3s0-0.1,0-0.1c0-0.1,0-0.2,0-0.2c0,0,0,0,0,0
	c-0.1-0.1-0.1-0.2-0.1-0.3c0,0,0-0.1,0-0.1s0-0.1,0.1-0.1c0,0,0,0,0,0l0.2-0.5c0.1-0.2,0.2-0.4,0.2-0.5c0,0,0-0.1,0-0.1
	c0,0,0,0,0-0.1c0,0,0,0,0-0.1c0-0.1,0-0.1,0-0.2c0,0,0-0.1,0-0.1c0,0,0,0,0-0.1v0c0,0,0,0,0,0v0v0c0-0.1,0.1-0.2,0.2-0.4v0
	c0,0,0-0.1,0-0.1c0.1-0.2,0.2-0.4,0.2-0.5c0,0,0-0.1,0-0.1c0,0,0,0,0-0.1c0.1-0.2,0.1-0.2,0.1-0.3c0-0.1,0-0.2,0.2-0.5
	c0,0,0,0,0-0.1s0-0.1,0-0.1l0.1-0.2c0-0.2,0.1-0.3,0.2-0.4l0-0.1c0-0.1,0.1-0.2,0.1-0.4c0,0,0-0.1,0-0.1c0,0,0.1-0.1,0.1-0.1
	c0,0,0.1-0.1,0.1-0.1c0,0,0,0,0.1,0c0-0.1,0-0.1,0.1-0.2v0l0.1-0.4v0c0,0,0-0.1,0-0.1c0,0,0-0.1,0-0.1c0-0.2,0.1-0.2,0.1-0.3
	c0-0.2,0.1-0.5,0.2-0.7c0,0,0-0.1,0-0.1c0-0.1,0-0.2,0-0.2s0-0.1,0.1-0.2c0.1-0.2,0.2-0.4,0.2-0.5c0,0,0-0.1,0-0.1c0,0,0,0,0-0.1
	s0,0,0,0c0,0,0-0.1,0-0.1c0-0.1,0-0.2,0-0.2c0-0.2,0.1-0.4,0.1-0.6c0,0,0-0.1,0.1-0.2c0.1-0.1,0.2-0.3,0.2-0.5c0,0,0,0,0-0.1
	c0,0,0,0,0,0c0-0.1,0-0.2,0-0.2c0-0.2,0.1-0.4,0.1-0.5c0,0,0-0.1,0.1-0.1c0,0,0,0,0-0.1l0.1-0.4l0.1-0.3c0,0,0,0,0-0.1
	c0.1-0.4,0.1-0.5,0.1-0.6c0,0,0,0,0-0.1v0c0,0,0,0,0-0.1l0.1-0.2c0,0,0-0.1,0-0.1c0,0,0-0.1,0-0.2c0-0.1,0-0.2,0.1-0.2
	c0,0,0,0,0-0.1c0-0.1,0-0.3,0-0.5c0-0.1,0-0.1,0.1-0.2c0,0,0,0,0-0.1v0c0,0,0,0,0-0.1v0c0-0.1,0-0.3,0-0.6c0-0.1-0.1-0.2-0.2-0.3
	c-0.1-0.1-0.2-0.2-0.3-0.3c-0.1-0.1-0.3-0.2-0.4-0.2c0,0,0,0-0.1,0c0,0,0,0,0,0c-0.1,0-0.2-0.1-0.4-0.1c-0.1,0-0.2,0-0.2,0
	s-0.2,0-0.3,0c-0.2,0-0.4,0-0.5,0.1c-0.1,0-0.2,0.1-0.2,0.2s-0.1,0.2-0.1,0.2l-0.1,0.4c0,0.1,0,0.2,0,0.2c0,0.1,0,0.2,0,0.3
	c0,0,0,0.1,0,0.1l0,0.5c0,0.1,0,0.1,0,0.2c0,0.1-0.1,0.2-0.2,0.4c0,0.1,0,0.2-0.1,0.2c0,0,0,0.1-0.1,0.1l0,0l0,0.2v0v0
	c-0.2,0.8-0.5,1.6-0.7,2.3l0,0.1c-0.1,0.4-0.2,0.7-0.4,1.1v0c0,0,0,0.1,0,0.2s0,0.1-0.1,0.2c0,0.1,0,0.1-0.1,0.2l0,0l0,0.2v0.1
	c0,0,0,0,0,0.1c0,0.1,0,0.2-0.1,0.4v0v0c0,0,0,0.1-0.1,0.1l0,0c0,0,0,0,0,0.1v0v0l-0.2,0.5v0.1c0,0.1,0.1,0.2,0,0.3
	c-0.1,0.2-0.2,0.6-0.3,1c-0.1,0.4-0.3,0.9-0.4,1v0c0,0.2-0.1,0.3-0.1,0.5l0,0.1v0c-0.1,0.2-0.2,0.5-0.3,0.7v0.1v0.2l0,0.2
	c0,0.1-0.1,0.2-0.1,0.3c0,0.1-0.1,0.2-0.1,0.2v0c0,0,0,0,0,0.1v0.1l0,0.1c0,0,0,0.1-0.1,0.1c0,0,0,0,0,0c0,0.1-0.1,0.2-0.1,0.3
	c0,0,0,0.1-0.1,0.1c0,0,0,0,0,0.1v0v0c0,0,0,0.1,0,0.2c-0.1,0.3-0.2,0.6-0.3,0.9c-0.1,0.4-0.2,0.7-0.4,1.1V35c0,0.1,0,0.2,0,0.2
	l-0.2,0.2v0v0.1c0,0.1,0,0.2,0,0.3c0,0,0,0,0,0.1v0.2c-0.1,0.3-0.2,0.6-0.3,0.9c0,0.1-0.1,0.2-0.2,0.2c0,0-0.1,0-0.1,0.1v0.1v0v0.1
	c0,0,0,0.1,0,0.2v0c0,0.1-0.1,0.1-0.1,0.2c0,0,0,0-0.1,0.1l0,0c0,0,0,0,0,0.1c0,0,0,0,0,0v0.2c0,0,0,0.1,0,0.1c0,0,0.1,0.1,0.1,0.2
	c0,0,0,0.1,0,0.1l0,0.2c0,0.1-0.1,0.2-0.1,0.2c0,0,0,0,0,0.1v0c0,0,0,0.1,0,0.1c0,0,0,0.1,0,0.1c0,0,0,0.1,0,0.1v0c0,0,0,0.1,0,0.2
	l0,0.2c0,0,0,0.1-0.1,0.2c0,0,0,0.1,0,0.2s0,0.1-0.1,0.2c0,0,0,0.1,0,0.1C145.7,40.6,145.7,40.7,145.7,40.7L145.7,40.7z M185.2,45.7
	h0.4h0.1c0,0,0.1,0,0.2,0l0.5,0h0c0,0,0.1,0,0.1,0c0,0,0.1,0,0.1,0c0.3,0,0.6,0,0.9,0h0.6h0.1h0.7h0.2c0.2,0,0.4,0,0.5,0.1h0h0.3
	c0,0,0,0,0,0c0,0,0.1,0,0.2,0s0.1,0,0.1,0c0,0,0.1,0,0.1,0h0.1h0c0.1,0,0.2,0,0.3,0.1c0,0,0,0,0.1,0c0,0,0,0,0.1,0h0
	c0.3,0.1,0.6,0.1,0.9,0.1c0.2,0,0.3,0,0.4,0c0.1,0,0.2,0,0.3,0l0.3,0c0.1,0,0.2,0,0.3,0h0h0h0.1h0.1c0.1,0,0.2,0.1,0.2,0.2l0,0.2
	c0.1,0.2,0.2,0.4,0.4,0.5c0.1,0,0.2,0.1,0.3,0.1h0.1h0.1c0,0,0.1,0,0.1,0l0.1,0c0.1,0,0.2,0.1,0.3,0.1h0.1h0c0,0,0,0,0.1,0h0
	c0,0,0,0,0,0c0,0,0.1-0.1,0.2-0.2c0,0,0,0,0.1-0.1l0.2-0.2c0,0,0.1-0.1,0.2-0.2c0,0,0,0,0-0.1l0-0.3c0-0.2,0-0.4-0.1-0.5
	c0-0.1-0.1-0.3-0.1-0.4c0-0.1-0.1-0.3-0.1-0.4c-0.1-0.2-0.2-0.4-0.2-0.4c-0.1-0.2-0.2-0.2-0.3-0.4l-0.2-0.2c0,0,0,0,0,0
	c0-0.1-0.1-0.2-0.2-0.2c0,0,0,0,0,0c-0.1,0-0.2,0-0.2,0l-0.2,0c-0.1,0-0.1,0-0.1,0l-0.1,0c0,0-0.1,0-0.1,0h0c0,0-0.1,0-0.1,0
	c-0.2-0.1-0.4-0.2-0.6-0.2h0c-0.2,0-0.4-0.1-0.6-0.1c-0.4-0.1-0.7-0.1-1.5-0.2h0h0c-0.3,0-0.7,0-1.1,0c0,0-0.1,0-0.1,0
	c0,0-0.1,0-0.2,0c0,0-0.1,0-0.1-0.1c0,0,0,0-0.1,0h-0.9c-0.2,0-0.3,0-0.4,0c0,0-0.1,0-0.2,0c-0.1,0-0.3,0.1-0.6,0.1c0,0-0.1,0-0.1,0
	l-0.2,0h0l-0.2,0c-0.2,0-0.3,0-0.7,0c-0.1,0-0.2-0.1-0.2-0.1c0,0,0,0-0.1,0c-0.4,0-0.8,0-1.3,0c-0.4,0-0.7,0-1,0.1
	c-0.5,0.1-1,0.2-1.4,0.1h0c0,0-0.1,0-0.1,0s0,0,0,0c0,0.1-0.2,0.2-0.2,0.2c0,0-0.1,0-0.1,0l-1.1,0c-0.1,0-0.2,0-0.4,0l-0.7,0.1
	c-0.2,0-0.3,0-0.4,0c-0.3,0-0.6,0-0.9,0.1h0c0,0-0.1,0-0.1,0c0,0-0.1,0-0.2,0h0c-0.2,0-0.5,0.1-0.8,0.1l-0.2,0c0,0-0.1,0-0.2,0
	s0,0-0.1,0c-0.3,0.1-0.6,0.2-1.1,0.2c-0.2,0-0.5,0-0.7,0.1c-0.2,0-0.3,0.1-0.5,0.2c0,0-0.1,0-0.2,0s-0.1,0-0.1,0c0,0-0.1,0-0.2,0
	c0,0,0,0-0.1,0c-0.4,0.1-0.9,0.2-1.3,0.2c-0.4,0-0.7,0.1-1.1,0.2c0,0-0.1,0-0.1,0.1c0,0.1-0.1,0.2-0.2,0.2c-0.1,0-0.2,0-0.4,0
	c-0.2,0-0.4,0-0.6,0.1c-0.2,0-0.3,0.1-0.5,0.1l-0.4,0.1c0,0,0,0-0.1,0l-0.2,0c0,0,0,0,0,0c0,0-0.1,0-0.1,0c-0.2,0-0.4,0-0.5,0
	c-0.3,0.1-0.5,0.1-0.6,0.2c0,0,0,0,0,0c0,0-0.1,0.1-0.1,0.1c-0.2,0-0.3,0.1-0.4,0.2c-0.1,0-0.2,0.1-0.4,0.2c0,0-0.1,0-0.2,0
	c0,0,0,0-0.1,0c-0.9,0.2-0.9,0.3-1,0.4s-0.2,0.1-0.3,0c0,0,0,0-0.1,0l-0.4,0.2c0,0-0.1,0-0.2,0c0,0,0,0-0.1,0
	c-0.2,0.1-0.4,0.2-0.5,0.2l0,0c-0.4,0.2-0.7,0.4-1.3,0.5c0,0,0,0,0,0c0,0.1-0.1,0.1-0.2,0.1c-0.1,0-0.1,0-0.2,0c0,0,0,0-0.1,0
	c-0.3,0.1-0.6,0.2-0.9,0.4c-0.3,0.2-0.5,0.3-0.8,0.4l0,0c0,0,0,0.1-0.1,0.1c-0.2,0.1-0.4,0.3-0.6,0.4c0,0-0.1,0-0.2,0h0
	c-0.1,0-0.2,0-0.2,0c0,0-0.1,0-0.1,0l-0.4,0.3c0,0-0.1,0.1-0.1,0.1c0,0-0.1,0.1-0.1,0.2c0,0.2,0,0.3,0,0.5c0,0.1,0,0.2,0,0.2
	c0,0.1,0,0.1,0,0.2l0,0.1c0,0.1,0.1,0.2,0.1,0.3c0,0,0,0,0,0c0,0,0.1,0.2,0.1,0.3c0,0,0,0,0.1,0.1c0.1,0,0.1,0,0.2,0.1
	c0,0.1,0.1,0.2,0,0.3c0,0,0,0.1,0,0.1l0.2,0.2c0.1,0.1,0.2,0.2,0.2,0.2c0.1,0,0.2,0.1,0.3,0.1c0.2,0,0.5,0,0.7-0.1l0.4-0.2
	c0.3-0.2,0.6-0.4,0.9-0.5c0.1,0,0.2,0,0.2,0c0.1,0,0.2,0.1,0.2,0.2c0,0.1,0,0.2,0,0.2c0,0-0.1,0.1-0.1,0.2s-0.1,0.2-0.1,0.2
	c0,0,0,0.1,0,0.1c0,0.1,0,0.2,0,0.2l-0.1,0.2c-0.1,0.2-0.2,0.4-0.2,0.5c0,0.1-0.1,0.1-0.2,0.1c0,0,0,0-0.1,0c0,0,0,0-0.1,0.1l0,0.1
	c-0.1,0.2-0.2,0.5-0.3,0.8c0,0.1-0.2,0.2-0.3,0.2c0,0-0.1,0-0.1,0c0,0-0.1,0.1-0.1,0.2c0,0,0,0,0,0.1v0.1c0,0.1-0.1,0.2-0.2,0.5
	c0,0,0,0.1-0.1,0.1l-1.1,0.6c-0.7,0.4-0.8,0.5-0.9,0.6c0,0.1-0.1,0.1-0.2,0.1h0c-0.2,0.1-0.4,0.2-0.5,0.3c-0.1,0.1-0.2,0.1-0.4,0.3
	c0,0-0.1,0.1-0.1,0.2c0,0.1,0,0.2,0,0.4c0,0.1,0.1,0.3,0.2,0.4v0c0,0.1,0.1,0.2,0.1,0.3l0,0.1c0,0,0,0.1,0,0.2v0.1
	c0.1,0.1,0.1,0.2,0.2,0.3c0.1,0.2,0.3,0.4,0.4,0.5c0.1,0.1,0.2,0.2,0.3,0.2c0,0,0.1,0,0.2,0c0.1,0,0.2,0.1,0.2,0.1
	c0,0.1,0,0.2,0,0.2v0.1v0.1v0.6c0,0.1,0,0.1-0.1,0.2c0,0,0,0,0,0c-0.1,0.4-0.1,0.7,0,1c0,0.2,0.1,0.4,0.2,0.6v0c0,0,0,0.1,0,0.2v0
	c0.1,0.6,0.5,1.2,1.1,2c0,0,0.1,0,0.1,0s0.1,0,0.2,0c0.1,0,0.1,0.1,0.1,0.2c0,0,0,0,0,0c0.1,0.1,0.2,0.2,0.3,0.4c0,0,0.1,0,0.1,0
	c0.1,0,0.2,0,0.2,0c0,0,0.1,0.1,0.1,0.2s0,0,0,0.1c0.3,0.2,0.5,0.2,0.6,0.2c0.1,0,0.2,0,0.4,0h0.1h0c0.2,0,0.4,0,0.5,0h0
	c0.1,0,0.2,0,0.2,0c0.1,0,0.2,0.1,0.2,0.1c0,0,0.1,0,0.1,0h0h0.4h0h0c0,0,0.1,0,0.1,0c0-0.1,0.1-0.1,0.2-0.1c0.5,0,1-0.2,1.4-0.4
	c0.2-0.1,0.4-0.2,0.7-0.2l0.1,0c0.2-0.1,0.4-0.2,0.7-0.3c0,0,0.1,0,0.2,0h0.1l0.4-0.3c0,0,0.1,0,0.1,0h0c0.2-0.1,0.2-0.2,0.2-0.2
	c0-0.1,0.1-0.2,0.4-0.4c0,0,0,0,0,0c0,0,0,0,0,0c0.1-0.1,0.2-0.1,0.6-0.3h0c0.1,0,0.2-0.1,0.3-0.1c0.3-0.2,0.5-0.3,0.8-0.4
	c0.1-0.1,0.2-0.2,0.3-0.2l0.2-0.2c0,0,0.1-0.1,0.2-0.1c0,0,0,0,0.1,0c0.1,0,0.2-0.1,0.3-0.2c0.2-0.2,0.4-0.3,0.5-0.4
	c0.2-0.2,0.3-0.4,0.4-0.5c0.1-0.2,0.1-0.3,0.2-0.4c0-0.1,0-0.2,0-0.3c0-0.1,0-0.2-0.2-0.3l0,0c-0.1-0.1-0.3-0.2-0.5-0.2
	s-0.4,0-0.5,0c-0.2,0-0.4,0.2-0.8,0.3l0,0l0,0c0,0.1-0.1,0.1-0.2,0.1c0,0-0.1,0-0.1,0c0,0-0.1,0-0.1,0.1l-0.1,0c0,0-0.1,0-0.1,0
	h-0.2c0,0-0.1,0-0.1,0c0,0-0.1,0-0.1,0.1l-0.7,0.3l-0.8,0.3c-0.1,0.1-0.2,0.2-0.4,0.2c-0.3,0.2-0.5,0.3-0.8,0.5c-0.1,0-0.1,0-0.2,0
	c0,0,0,0-0.1,0l0,0c0,0-0.1,0-0.2,0c0,0,0,0-0.1,0l-1.5,0.7c0,0-0.1,0-0.2,0c0,0-0.1,0-0.2,0.1c-0.1,0-0.3,0.1-0.4,0.1
	c0,0,0,0-0.1,0c0,0-0.1,0.1-0.1,0.1c-0.1,0-0.2,0.1-0.4,0.1c-0.1,0-0.2,0-0.2,0c-0.1,0-0.1,0-0.2,0h0c-0.3,0-0.5,0-0.7,0
	c-0.2,0-0.4,0.1-0.5,0c0,0-0.1-0.1-0.1-0.2v0c-0.2-0.2-0.3-0.6-0.3-0.9c0,0,0-0.1,0-0.2v0c0-0.4,0-0.8,0.1-1.2
	c0.1-0.4,0.2-0.8,0.4-1.4c0.2-0.5,0.3-0.9,0.4-1.3c0-0.1,0.1-0.1,0.2-0.2c0,0,0,0,0.1-0.1c0-0.1,0-0.2,0.1-0.4
	c0-0.1,0.1-0.2,0.2-0.2c0,0,0.1,0,0.1,0c0.1-0.1,0.2-0.2,0.3-0.2s0.2-0.1,0.3-0.1l0.2,0h0h0h0c0.2,0,0.4-0.1,0.5-0.2
	c0.2-0.1,0.5-0.2,0.7-0.3c0,0,0,0,0.1,0c0-0.1,0.1-0.1,0.2-0.2c0.2,0,0.2,0,0.4-0.1c0.2,0,0.4-0.1,0.7-0.2c0,0,0.1,0,0.1-0.1
	c0-0.1,0.1-0.1,0.2-0.1c0.1,0,0.2,0,0.2,0h0.1l0.9-0.4c0.1,0,0.1,0,0.2,0h0.2c0,0,0.1,0,0.2,0c0,0,0,0,0,0l0,0l0,0
	c0,0,0.1,0,0.2-0.1c0,0,0.1,0,0.2,0l0.1,0c0.3-0.1,0.6-0.1,0.8-0.2c0,0,0,0,0,0c0,0,0.1,0,0.1-0.1c0.4-0.1,0.5-0.2,0.8-0.3
	c0.2-0.1,0.4-0.2,0.6-0.2c0.1,0,0.3-0.1,0.5-0.2c0.1,0,0.2,0,0.3,0.1c0,0,0.1,0,0.1,0h0c0,0,0.1,0,0.2,0c0,0,0.1,0,0.3-0.1h0
	c0,0,0.1-0.1,0.2-0.2c0,0,0-0.2,0-0.3c0,0,0-0.1,0-0.1v0c0,0,0,0,0-0.1c0-0.1,0-0.2,0.1-0.2c0,0,0-0.1,0-0.1c0-0.1,0-0.1,0-0.2
	c0,0,0-0.1,0-0.2c0,0,0-0.1,0-0.1l0,0c-0.2-0.2-0.3-0.3-0.5-0.4c-0.2-0.1-0.3-0.1-0.4-0.1h0c-0.1,0-0.2,0-0.2,0
	c-0.3-0.1-0.7-0.1-1.1-0.1c0,0,0,0-0.1,0s-0.1,0-0.1,0c-0.1,0-0.2,0-0.3,0s-0.2,0-0.3,0c-0.3,0-0.6,0.1-0.7,0.2c-0.1,0-0.2,0-0.2,0
	c0,0,0,0-0.1,0c-0.1,0-0.4,0.1-0.7,0.2c0,0-0.1,0-0.2,0c0,0,0,0-0.1,0c-0.1,0-0.2,0-0.2,0c-0.1,0-0.1,0.1-0.3,0.1
	c-0.1,0-0.2,0.1-0.3,0.1c-0.2,0.1-0.4,0.2-0.7,0.2c0,0-0.1,0-0.2,0h0c-0.1,0-0.2,0.1-0.3,0.1c0,0-0.1,0-0.2,0c0,0,0,0,0,0
	c0,0,0,0-0.1,0c0,0,0,0-0.1,0c0,0-0.1,0-0.1,0.1h0c0,0,0,0,0,0c0,0,0,0-0.1,0c0,0,0,0-0.1,0h0c0,0,0,0-0.1,0l-0.5,0.1
	c-0.1,0-0.2,0-0.3-0.1s-0.1-0.2,0-0.3c0-0.1,0.1-0.2,0.2-0.3c0,0,0-0.1,0.1-0.1c0,0,0,0,0,0c0,0,0.1-0.1,0.2-0.1c0,0,0,0,0,0
	c0,0,0.1-0.1,0.1-0.1l0,0c0,0,0,0,0,0c0-0.1,0.1-0.1,0.1-0.2c0,0,0,0,0-0.1l0-0.1c0,0,0,0,0-0.1c0,0,0,0,0,0c0,0,0,0,0-0.1
	c0,0,0,0,0,0c0,0,0,0,0-0.1c0,0,0-0.1,0.1-0.2c0,0,0-0.1,0.1-0.1l0,0l0-0.1l0,0v0c0,0,0-0.1,0-0.2c0,0,0-0.1,0.1-0.1l0,0
	c0.1-0.2,0.2-0.3,0.4-0.6c0,0,0,0,0-0.1c0,0,0-0.1,0-0.2c0,0,0-0.1,0.1-0.2l0.2-0.3c0,0,0,0,0,0c0.1-0.2,0.2-0.3,0.2-0.5
	c0-0.1,0.1-0.2,0.1-0.3c0,0,0,0,0-0.1c0,0,0,0,0,0l0,0c0,0,0.1-0.1,0.1-0.1l0,0l0,0c0,0,0-0.1,0-0.2c0-0.1,0-0.3,0.2-0.3
	c0,0,0.1,0,0.1,0l1.7-0.5c0.2,0,0.3-0.1,0.4-0.1c0.2,0,0.4-0.1,0.5-0.1h0.1h0.1l0.2,0c0,0,0.1,0,0.1,0h0.1l0.1,0c0.1,0,0.2,0,0.2,0
	h0h0.1h0.1c0,0,0,0,0,0c0.1,0,0.5-0.2,1.1-0.3c0.2,0,0.4-0.1,0.5-0.1c0,0,0,0,0.1,0c0-0.1,0.1-0.1,0.2-0.1c0.9-0.2,1.8-0.4,2.5-0.5
	c0.3,0,0.7-0.1,1.1-0.2c0.3,0,0.5-0.1,0.9-0.2c0.4-0.1,0.9-0.2,1.4-0.2l0.3,0c0.5-0.1,1.1-0.2,1.5-0.2l0.5-0.1h0.1h0
	c0.1,0,0.2,0,0.3,0c0.1,0,0.2,0,0.2,0.1c0,0.1,0.1,0.2,0,0.2c0,0,0,0.1-0.1,0.2s-0.1,0.2-0.1,0.2c0,0,0,0.1,0,0.1s0,0.1,0,0.1
	c0,0.1-0.1,0.2-0.2,0.4c0,0.1-0.1,0.2-0.1,0.2c0,0,0,0,0,0l-0.1-0.1c-0.1,0.2-0.2,0.3-0.2,0.5c0,0,0,0.1,0,0.1v0v0.1
	c0,0.1-0.1,0.2-0.1,0.2c0,0.1-0.1,0.2-0.1,0.2c-0.1,0.2-0.2,0.4-0.3,0.7c-0.1,0.2-0.1,0.3-0.2,0.5c0,0.1-0.1,0.2-0.1,0.4
	c0,0.1,0,0.2,0,0.2c0,0,0,0.1-0.1,0.1l0,0l-0.2,0.5c0,0,0,0.1-0.1,0.1c0,0,0,0,0,0.1v0v0c0,0,0,0.1,0,0.2v0
	c-0.1,0.3-0.2,0.6-0.3,0.9l-0.5,1.5v0c-0.1,0.3-0.2,0.5-0.2,0.7c-0.1,0.3-0.2,0.5-0.2,0.8c-0.1,0.2-0.1,0.5-0.2,0.7
	c0,0.2-0.1,0.4-0.2,0.5c-0.1,0.2-0.2,0.5-0.2,0.7c-0.1,0.3-0.2,0.7-0.2,1c0,0.2-0.1,0.4-0.2,0.7c0,0.1,0,0.2-0.1,0.2
	c0,0.1-0.1,0.2-0.1,0.3c0,0.2-0.1,0.5-0.1,0.7c0,0.2,0,0.4-0.1,0.6c0,0.2-0.1,0.4-0.1,0.7c0,0.3-0.1,0.6-0.2,0.9
	c-0.1,0.4-0.1,0.9-0.2,1.3l0,0.5c0,0.2,0,0.4,0,0.5c0,0.4,0,0.7,0,1.1c0,0.2,0,0.2,0.1,0.3c0.2,0.2,0.4,0.2,0.5,0.3
	c0.3,0.1,0.6,0.2,0.9,0.3h0.2c0.2,0,0.3-0.1,0.3-0.2c0.1-0.2,0.1-0.4,0.1-0.5c0-0.1,0-0.2,0-0.4c0-0.3-0.1-0.5,0-0.8
	c0.1-0.2,0-0.4,0-0.6v-0.1c0-0.1,0-0.2,0-0.2c0,0,0,0,0-0.1v-0.2c0-0.1,0-0.3,0-0.4c0-0.1,0-0.1,0-0.2c0-0.1,0-0.1,0-0.2
	s0-0.1,0-0.2c0-0.2,0-0.3,0-0.4c0-0.1,0-0.3,0-0.4l0-0.1c0,0,0-0.1,0-0.2c0-0.2,0-0.3,0.1-0.4l0,0c0.2-0.1,0.2-0.3,0.2-0.4
	c0-0.1,0-0.1,0-0.2l0-0.1c0.1-0.2,0.2-0.4,0.2-0.5c0-0.2,0-0.4,0.1-0.6c0-0.1,0-0.1,0-0.2s0-0.1,0.1-0.2c0.1-0.1,0.1-0.2,0-0.2v0
	c0,0,0-0.1,0-0.1c0-0.1,0-0.2,0.1-0.3c0-0.1,0.1-0.2,0.1-0.3c0-0.2,0.1-0.3,0.1-0.4c0-0.1,0-0.2,0-0.2l0.1-0.4
	c0-0.1,0.1-0.1,0.1-0.2c0,0,0.1-0.1,0-0.2c0-0.1,0-0.2,0-0.2c0,0,0-0.1,0.1-0.1s0,0,0.1-0.1c0,0,0-0.1,0.1-0.1v0v0c0,0,0-0.1,0-0.1
	s0-0.1,0-0.1c0-0.2,0.1-0.4,0.2-0.5c0.1-0.2,0.2-0.4,0.2-0.6c0,0,0-0.1,0-0.2c0,0,0,0,0-0.1c0,0,0,0,0,0c0.1-0.1,0.1-0.2,0.2-0.3
	c0,0,0,0,0-0.1c0,0,0-0.1,0.1-0.1c0,0,0,0,0-0.1s0,0,0-0.1c0-0.1,0.1-0.2,0.1-0.2c0-0.1,0-0.1,0-0.2c0-0.1,0-0.2,0.1-0.2
	c0,0,0,0,0,0l0,0c0,0,0.1-0.1,0.1-0.2c0-0.1,0-0.2,0-0.2c0-0.1,0-0.2,0.1-0.3c0.1-0.1,0.2-0.2,0.2-0.3s0.1-0.2,0.1-0.2
	c0,0,0-0.1,0-0.1c0,0,0,0,0-0.1v0c0,0,0-0.1,0-0.1c0,0,0,0,0,0c0-0.1,0.1-0.2,0.2-0.3c0-0.1,0.1-0.2,0.1-0.3c0,0,0-0.1,0-0.1
	c0,0,0-0.1,0.1-0.1c0,0,0,0,0-0.1s0-0.1,0-0.1c0-0.2,0-0.4,0.1-0.5c0,0,0,0,0,0c0-0.1,0.1-0.1,0.1-0.2c0,0,0-0.1,0-0.1s0-0.1,0-0.1
	l0-0.1c0,0,0-0.1,0-0.2c0,0,0,0,0-0.1v0c0-0.1,0.1-0.2,0.1-0.2c0.1-0.1,0.1-0.3,0.2-0.4v0c0,0,0-0.1,0-0.1s0-0.1,0.1-0.1l0,0
	c0,0,0,0,0-0.1c0,0,0-0.1,0.1-0.1c0,0,0-0.1,0-0.1V48c0,0,0,0,0-0.1l0.9-2c0-0.1,0.1-0.1,0.2-0.2h0.1h0.2h0.2
	C185,45.7,185.1,45.7,185.2,45.7L185.2,45.7z M204.4,46.4c-0.3-0.2-0.5-0.4-0.9-0.5c0,0,0,0-0.1,0l0,0c0,0-0.1-0.1-0.1-0.1
	c0,0,0-0.1-0.1-0.1c0,0,0-0.1-0.1-0.1s-0.1,0-0.2,0c-0.1,0-0.1,0-0.2,0c0,0-0.1,0-0.1,0c-0.1,0-0.2,0-0.4-0.1c-0.2,0-0.3,0-0.4,0.1
	l-0.2,0.2c-0.1,0-0.1,0.1-0.2,0.2c-0.1,0.1-0.2,0.1-0.2,0.2c0,0-0.1,0-0.1,0.1c0,0,0,0-0.1,0c-0.1,0.2-0.3,0.3-0.5,0.5
	c0,0,0,0-0.1,0c0,0,0,0,0,0c-0.5,0.4-0.9,0.7-1.3,1c-0.2,0.2-0.4,0.3-0.6,0.5c0,0-0.1,0-0.1,0.1l-0.5,0.5l-0.1,0.1l0,0
	c0,0.1,0,0.1-0.1,0.2c0,0-0.1,0-0.1,0.1l-0.1,0l0,0v0c0,0,0,0.1-0.1,0.1c-0.1,0.1-0.2,0.2-0.4,0.4l0,0c-0.7,0.7-0.9,0.7-0.9,0.7
	c0,0,0,0,0,0c-0.1,0.1-0.1,0.1-0.1,0.1v0c0,0.1,0,0.1-0.2,0.2c0,0,0,0,0,0c0,0-0.1,0.1-0.2,0.1c0,0,0,0-0.1,0c0,0,0,0,0,0
	c-0.2,0.2-0.5,0.4-0.7,0.7c-0.1,0.1-0.2,0.2-0.2,0.2l0,0l0,0c0,0,0,0.1-0.1,0.1c-0.3,0.3-0.5,0.5-0.8,0.8l-0.3,0.3
	c-0.5,0.5-1,1-1.4,1.5l0,0c0,0,0,0.1-0.1,0.1c-0.2,0.2-0.4,0.4-0.5,0.5c-0.2,0.1-0.3,0.2-0.6,0.5l0,0c0,0,0,0,0,0
	c-0.1,0.1-0.2,0.3-0.4,0.5c0,0-0.1,0-0.1,0.1c0,0,0,0-0.1,0c0,0-0.1,0-0.1,0s0,0-0.1,0c-0.4,0.5-0.4,0.5-0.5,0.6
	c0,0-0.1,0.1-0.2,0.3c0,0-0.1,0.1-0.2,0.1c0,0,0,0-0.1,0c-0.1,0.1-0.1,0.1-0.3,0.2c-0.1,0-0.2,0-0.3,0c0,0,0,0-0.1,0l-0.2,0.1
	c-0.1,0-0.2,0-0.2,0c-0.1,0-0.1-0.1-0.1-0.2v0c0-0.1,0-0.1,0-0.2l0,0c0,0,0,0,0-0.1v0c0,0,0,0,0,0c-0.1-0.1-0.1-0.2,0-0.3l0-0.1
	c0.1-0.2,0.2-0.4,0.4-0.8c0,0,0,0,0-0.1c0,0,0,0,0,0c0-0.1,0.1-0.3,0.1-0.4v-0.1c0-0.2,0-0.3,0.2-0.4v0c0,0,0-0.1,0.1-0.1
	c0,0,0,0,0,0c0.1-0.1,0.1-0.3,0.2-0.5c0,0,0-0.1,0.1-0.1c0,0,0,0,0-0.1c0-0.2,0.1-0.4,0.2-0.5c0,0,0-0.1,0.1-0.1
	c0-0.1,0.1-0.1,0.1-0.2s0.1-0.1,0.1-0.2c0,0,0.1-0.1,0.1-0.1c0,0,0,0,0,0c0,0,0,0,0.1-0.1c0,0,0,0,0,0l0.1-0.2
	c0-0.1,0.1-0.2,0.1-0.3c0-0.2,0.1-0.3,0.2-0.4c0-0.1,0.1-0.2,0.2-0.3c0,0,0-0.1,0-0.1c0-0.1,0-0.2,0-0.3l0.1-0.1
	c0.2-0.2,0.3-0.3,0.5-0.8c0,0,0,0,0-0.1v0c0,0,0-0.1,0-0.2c0-0.1,0.1-0.2,0.1-0.3v0c0,0,0-0.1,0-0.2c0,0,0-0.1,0.1-0.2
	c0,0,0-0.1,0-0.2c0-0.1,0.1-0.1,0.1-0.2l0,0c0.1-0.1,0.1-0.2,0.2-0.2l0.1-0.1c0,0,0,0,0,0c0-0.1,0-0.2,0-0.2c0-0.1,0-0.2,0.1-0.2
	c0,0,0,0,0-0.1c0-0.1,0-0.3-0.1-0.4c0,0,0-0.1,0-0.2c0,0,0-0.1,0-0.1l0,0l0,0c-0.1-0.1-0.2-0.2-0.3-0.2l0,0c-0.1,0-0.2-0.1-0.3-0.1
	c-0.2-0.1-0.4-0.1-0.7-0.2l-0.3,0c-0.2,0-0.6,0.1-0.8,0.2c-0.1,0.1-0.2,0.2-0.3,0.3c-0.1,0.1-0.1,0.1-0.1,0.2l0,0.1v0.1
	c0,0,0,0.1,0,0.1l-0.1,0.3c0,0-0.1,0.1-0.1,0.1c0,0,0,0,0,0c0,0-0.1,0-0.1,0c0,0-0.1,0-0.1,0c0,0-0.2,0.4-0.2,0.5
	c0,0.1-0.1,0.2-0.1,0.2c0,0-0.1,0.1-0.1,0.1l0,0c0,0,0,0-0.1,0l0,0c-0.1,0.2-0.2,0.5-0.3,0.7c-0.1,0.2-0.2,0.4-0.2,0.6
	c0,0.1-0.1,0.1-0.2,0.1c0,0,0,0-0.1,0c0,0,0,0.1-0.1,0.2v0.1c0,0,0,0.1,0,0.2v0v0c-0.1,0.2-0.2,0.3-0.2,0.4
	c-0.2,0.4-0.4,0.8-0.6,1.3c0,0,0,0,0,0.1l-0.2,0.3v0c0,0,0,0.1,0,0.1c0,0,0,0.1,0,0.1c0,0.1,0.1,0.2,0,0.2c0,0.1,0,0.2-0.1,0.2
	c0,0.1-0.1,0.1-0.2,0.2c0,0-0.1,0-0.1,0.1v0.1c0,0.1,0,0.2,0,0.4c0,0.1-0.1,0.2-0.2,0.2c0,0-0.1,0-0.1,0c0,0,0,0,0,0.1s0,0.1,0,0.1
	V55c0,0,0,0.2-0.1,0.4c0,0.2-0.1,0.4-0.1,0.5c0,0.3-0.1,0.8,0,1c0,0.1,0,0.1,0,0.2v0.2c0,0.1,0,0.1,0,0.2c0,0.1,0.1,0.2,0.2,0.3
	c0.1,0.1,0.2,0.2,0.4,0.5l0,0c0,0,0,0.1,0,0.2c0,0,0,0.1,0,0.1c0,0,0.1,0.1,0.1,0.1c0.1,0.1,0.2,0.2,0.4,0.3c0,0,0.1,0,0.1,0.1
	c0,0,0,0,0,0c0,0,0,0,0,0h0c0.1,0.1,0.2,0.2,0.3,0.2l0.2,0.2c0,0,0,0,0.1,0.1c0,0,0,0,0.1,0c0,0,0,0,0.1,0c0.1,0,0.2,0,0.3,0.1
	c0.1,0,0.1,0,0.2,0.1c0,0,0,0,0,0c0.2,0.2,0.4,0.2,0.6,0.2h0.1h0.2c0,0,0.1,0,0.2,0h0c0.2,0,0.4,0.1,0.6,0c0.2,0,0.5-0.1,0.7-0.1
	c0,0,0.1,0,0.1-0.1c0,0,0-0.1,0-0.2c0,0,0.1-0.1,0.1-0.1h0c0.1,0,0.2-0.1,0.3-0.2c0,0,0.1,0,0.2,0h0.1c0.2-0.1,0.2-0.2,0.2-0.2
	l0.2-0.2l0,0l0,0c0.2-0.1,0.3-0.2,0.4-0.2c0.1,0,0.1,0,0.2,0s0,0,0.1,0l0,0c0,0,0,0,0-0.1c0-0.1,0-0.2,0.1-0.2
	c0.3-0.2,0.5-0.3,0.6-0.5c0.1-0.1,0.2-0.2,0.3-0.3l0.2-0.3c0,0,0.1-0.1,0.2-0.1s0.1,0,0.1,0c0,0,0-0.1,0-0.1l0,0
	c0,0,0.1-0.1,0.1-0.1c0,0,0,0,0,0c0,0,0.1-0.1,0.1-0.1v0c0,0,0-0.1,0-0.1c0,0,0-0.1,0.1-0.2c0,0,0,0,0,0c0,0,0,0,0-0.1
	c0,0,0.2-0.1,0.3-0.2l0.1-0.1c0.1-0.1,0.2-0.1,0.3,0s0.1,0.2,0.1,0.3l0,0.2c0,0,0,0.1-0.1,0.1c0,0,0,0.1-0.1,0.2
	c0,0-0.1,0.1-0.1,0.2v0c0,0,0,0.1,0,0.2l-0.1,0.1c0,0,0,0,0,0c-0.2,0.2-0.3,0.4-0.4,0.7v0.1c0,0.1,0,0.2,0,0.2c0,0,0,0.1-0.1,0.2
	l-0.2,0.4c0,0,0,0.1,0,0.1c0,0,0.1,0.1,0.1,0.2s-0.1,0.2-0.2,0.2c0,0-0.1,0.1-0.2,0.1l0,0v0c0,0.1-0.1,0.2-0.2,0.3
	c-0.1,0.2-0.2,0.3-0.2,0.4v0.1v0.1c0,0.2-0.1,0.3-0.1,0.5c0,0.2,0,0.3-0.1,0.5c0,0.1-0.2,0.2-0.2,0.2c0,0-0.1,0-0.1,0.1
	c0,0,0,0.1-0.1,0.2v0v0.1c0,0.1-0.1,0.2-0.2,0.3c0,0,0,0,0,0l0,0c0,0,0,0,0,0c0,0-0.1,0.1-0.1,0.1s0,0-0.1,0c0,0,0,0,0,0l0,0
	c-0.2,0.5-0.2,0.6-0.2,0.7c0,0,0,0.1-0.1,0.2l0,0c0,0,0,0.1-0.1,0.2s0,0.1,0,0.1c0,0.1,0,0.2-0.1,0.2v0c-0.1,0.2-0.2,0.4-0.2,0.6
	v0.1c0,0.2-0.1,0.4-0.2,0.6c0,0,0,0.1-0.1,0.1c0,0,0,0,0,0.1s0,0.1,0,0.1l0,0v0.1c0,0,0,0,0.1,0.1c0,0,0.1,0,0.1,0.1
	c0.1,0.1,0.1,0.2,0.1,0.3c0,0,0,0.1-0.1,0.1l0,0l0,0.1v0c0,0.1,0,0.2-0.1,0.2c0,0-0.1,0.1-0.2,0.1c0,0-0.1,0-0.1,0h0c0,0,0,0,0,0.1
	c0,0,0,0.1,0,0.1v0v0.2c0,0,0,0.1,0,0.2v0v0.1c0,0,0,0.1,0,0.2v0v0.1V68c0,0,0,0.1,0,0.1l0.1,0.5c0,0,0,0.1,0.1,0.1
	c0,0,0.1,0,0.1,0.1l0.1,0.1c0,0,0.1,0.1,0.1,0.2l0,0c0.1,0.2,0.2,0.3,0.3,0.4l0,0l0.1,0c0.1,0,0.2,0.1,0.3,0.2
	c0.2,0.1,0.4,0.2,0.7,0.3c0.1,0,0.3,0,0.4,0h0.2c0.2,0,0.4,0,0.5-0.1h0c0,0,0.1-0.1,0.2-0.1c0,0,0,0,0,0c0,0,0.1-0.1,0-0.2
	c0,0,0,0,0-0.1s0-0.1-0.1-0.1c0,0-0.1-0.1-0.2-0.3l-0.1-0.1l0,0c0,0,0,0,0,0c0,0-0.1-0.1-0.1-0.2c0-0.1,0-0.2,0-0.2v0
	c0,0,0-0.1,0-0.1c0,0,0-0.1,0-0.2l0-0.2c0-0.4,0.1-0.7,0.2-1c0-0.1,0-0.2,0-0.2c0,0,0,0,0,0c0-0.1,0-0.2,0-0.3c0-0.1,0-0.2,0.1-0.2
	c0,0,0,0,0-0.1l0.2-0.4c0-0.1,0-0.2,0.1-0.2c0-0.1,0-0.2,0.1-0.3c0-0.1,0-0.1,0.1-0.2c0-0.1,0.1-0.2,0.1-0.3c0-0.1,0-0.2,0-0.3
	c0-0.1,0-0.2,0.1-0.2c0,0,0.1-0.1,0.1-0.1c0,0,0,0,0,0c0-0.1,0-0.2,0-0.2c0-0.1,0-0.2,0-0.2l0.1-0.1c0.1-0.2,0.2-0.4,0.3-0.5
	c0.1-0.2,0.2-0.5,0.3-0.7l0.2-0.3v0c0,0,0-0.1,0-0.1c0.1-0.1,0.1-0.2,0.1-0.3c0-0.1,0-0.2,0.1-0.2c0.1-0.1,0.1-0.2,0.1-0.4
	c0-0.1,0-0.2,0.2-0.3c0,0,0,0,0,0c0,0,0.1-0.1,0.2-0.2c0,0,0-0.1,0.1-0.1c0,0,0,0,0-0.1s0-0.1,0-0.1l0,0c0.1-0.1,0.2-0.3,0.2-0.4
	c0,0,0-0.1,0-0.2v0c0-0.1,0-0.2,0.1-0.2c0.1-0.1,0.2-0.2,0.2-0.2c0,0,0,0,0,0c0,0,0,0,0.1-0.1v0c0,0,0,0,0,0l0,0c0,0,0-0.1,0-0.1
	c0-0.1,0.1-0.2,0.1-0.2c0-0.1,0.1-0.2,0.2-0.2c0.1-0.1,0.2-0.2,0.2-0.4l0-0.1c0.1-0.2,0.1-0.4,0.3-0.6c0.2-0.2,0.3-0.5,0.5-0.7
	c0.1-0.1,0.1-0.3,0.2-0.4c0.1-0.2,0.2-0.4,0.4-0.6l0,0c0.1-0.1,0.1-0.2,0.2-0.3l0.3-0.5c0.2-0.2,0.3-0.5,0.5-0.7l0.1-0.2
	c0.2-0.3,0.4-0.7,0.6-1c0.1-0.2,0.2-0.3,0.4-0.5c0.1-0.2,0.2-0.3,0.3-0.4c0.2-0.3,0.4-0.6,0.6-0.9c0.3-0.4,0.6-0.9,0.9-1.3
	c0.4-0.5,0.8-1,1.2-1.5c0.1-0.1,0.1-0.2,0.2-0.3c0.1-0.1,0.1-0.3,0.3-0.4s0.3-0.3,0.4-0.4c0-0.1,0.1-0.1,0.2-0.2
	C204.6,46.8,204.6,46.6,204.4,46.4L204.4,46.4z M156.7,49.4c0-0.1,0-0.2,0.1-0.2c0.1-0.1,0.2-0.4,0.3-0.7c0.1-0.3,0.2-0.5,0.3-0.8
	c0,0,0,0,0-0.1s0-0.1,0-0.2c0,0,0-0.1,0.1-0.1c0,0,0,0,0-0.1s0-0.1,0-0.2c0-0.1,0-0.2,0-0.2c0-0.1,0-0.1,0-0.2c0,0,0-0.1,0-0.2
	c0,0,0-0.1,0-0.1c-0.1-0.2-0.2-0.2-0.2-0.3c0,0-0.1,0-0.2-0.1l0,0c-0.1-0.1-0.2-0.1-0.2-0.2l0,0c0,0,0,0-0.1,0
	c-0.1,0-0.1-0.1-0.2-0.1c-0.1,0-0.2-0.1-0.2-0.1h0c0,0-0.1,0-0.1,0c0,0,0,0-0.1,0c0,0-0.1,0-0.1,0c0,0-0.1,0-0.1,0
	c-0.1,0-0.2,0-0.4-0.1c0,0,0,0,0,0c0,0-0.1,0-0.2,0c0,0-0.1,0-0.2,0c0,0-0.1,0-0.1,0h0c-0.1,0-0.1,0-0.2,0.1c0,0,0,0,0,0
	c0,0,0,0,0,0l0,0c0,0-0.1,0.1-0.2,0.2l0,0c0,0,0,0.1-0.1,0.1v0c-0.1,0.1-0.1,0.2-0.2,0.3c0,0,0,0,0,0.1c0,0,0,0,0,0c0,0,0,0,0,0.1
	c0,0,0,0.1-0.1,0.1c0,0-0.1,0-0.1,0c0,0-0.1,0-0.1,0c0,0,0,0,0,0.1v0c0,0.1,0,0.1-0.1,0.2c0,0,0,0,0,0v0c0,0,0,0.1,0,0.2
	c0,0.2,0,0.4-0.1,0.5c0,0,0,0.1,0,0.1c0,0.1,0,0.2,0,0.2c0,0.1-0.1,0.2-0.1,0.2c0,0,0,0,0,0.1c0,0,0,0,0,0.1v0.1c0,0,0,0.1,0,0.1
	l-0.1,0.3v0c0,0,0,0.1,0,0.2c-0.1,0.1-0.2,0.3-0.1,0.4c0,0.1,0,0.2-0.1,0.3l0,0l-0.1,0.2c0,0,0,0.1,0,0.1s0,0,0,0
	c0,0.1-0.1,0.2-0.1,0.3c0,0,0,0.1,0,0.2c-0.2,0.3-0.2,0.4-0.2,0.5c0,0.1,0,0.1-0.1,0.2l0,0v0.1c0,0,0,0.1-0.1,0.1v0
	c-0.1,0.2-0.2,0.3-0.2,0.5c0,0,0,0,0,0.1v0c0,0.2-0.1,0.4-0.2,0.5c-0.1,0.2-0.2,0.4-0.2,0.5c0,0,0,0.1,0,0.2v0.1c0,0,0,0.1,0,0.1
	c0,0,0,0.1,0,0.2c0,0,0,0.1-0.1,0.2l0,0.1c0,0,0,0.1-0.1,0.1l0,0c-0.1,0.4-0.3,0.7-0.4,1.1c-0.1,0.3-0.2,0.6-0.4,0.9
	c0,0,0,0.1,0,0.1v0c0,0,0,0.1-0.1,0.2l0,0v0.1v0.1c0,0,0,0.1,0,0.1c0,0.1,0,0.2-0.1,0.2c0,0,0,0,0,0.1v0l-0.1,0.2v0.1
	c0,0,0,0.1,0,0.2v0c0,0,0,0.1,0,0.1c0,0,0,0.1-0.1,0.1c0,0,0,0,0,0.1v0.1c0,0.1-0.1,0.2-0.1,0.3c0,0.1-0.1,0.2-0.1,0.2s0,0,0,0.1
	c0,0,0,0,0,0.1c0,0.2-0.1,0.4-0.1,0.5v0c0,0,0,0.1,0,0.1c0,0,0,0.1-0.1,0.2v0.1v0.1c0,0.1,0,0.2-0.1,0.2c0,0,0,0,0,0.1v0.1
	c0,0,0,0.1-0.1,0.2c0,0,0,0,0,0.1c0,0.2-0.1,0.4-0.2,0.7c-0.1,0.2-0.2,0.4-0.2,0.6c0,0,0,0,0,0.1v0c0,0,0,0.1,0,0.1c0,0,0,0.1,0,0.1
	c0,0.1,0,0.2,0,0.2c0,0,0,0.1,0,0.2l0,0c0.1,0.1,0.1,0.2,0.1,0.3c0,0.1,0,0.2,0,0.2l-0.1,0.4c0,0.1,0,0.2,0,0.3c0,0.3,0,0.5,0.1,0.8
	c0,0.1,0,0.2,0.1,0.3v0.1v0c0,0,0,0.1,0.1,0.2c0,0,0,0,0,0l0.1,0.2c0,0,0,0,0.1,0.1c0,0,0.1,0,0.1,0.1c0,0,0,0,0,0c0,0,0,0,0,0
	c0,0,0.1,0,0.1,0.1c0,0,0,0,0.1,0.1c0,0,0,0,0.1,0h0.1c0,0,0,0,0.1,0c0,0,0.1,0,0.1,0c0,0,0.1,0,0.2,0h0h0.1c0,0,0.1,0,0.1,0
	c0,0,0.1,0,0.2,0c0,0,0.1,0,0.1,0h0.1h0c0.1,0,0.3-0.1,0.4-0.2c0.1-0.1,0.1-0.2,0.2-0.3c0,0,0,0,0-0.1s0-0.1,0-0.1
	c0-0.1,0-0.1,0.1-0.2c0-0.1,0.1-0.2,0.2-0.2c0,0,0,0,0-0.1c0,0,0,0,0,0c0,0,0,0,0-0.1l0.1-0.2v0c0,0,0-0.1,0-0.1s0-0.1,0.1-0.2
	c0,0,0-0.1,0-0.1c0,0,0-0.1,0-0.1v0c0-0.1,0-0.2,0.1-0.2c0,0,0.1-0.1,0.2-0.1c0,0,0.1,0,0.1,0c0,0,0,0,0-0.1s0,0,0-0.1
	c0-0.1,0-0.1,0-0.2c0,0,0-0.1,0-0.1c0,0,0-0.1,0-0.1c0,0,0,0,0-0.1c0,0,0-0.1,0.1-0.2c0,0,0,0,0-0.1s0,0,0-0.1c0,0,0-0.1,0-0.1v0v0
	c0,0,0,0,0-0.1c0-0.1,0-0.2,0.1-0.3l0,0l0-0.1c0,0,0,0,0-0.1l0,0c0,0,0-0.1,0-0.1c0,0,0-0.1,0-0.2c0-0.1,0.1-0.2,0.2-0.2
	c0,0,0.1,0,0.1-0.1s0,0,0-0.1c0,0,0,0,0,0c0,0,0,0,0-0.1c0,0,0,0,0.1-0.1s0-0.1,0-0.1c0-0.1,0-0.2,0-0.2c0,0,0,0,0.1-0.1
	c0,0,0,0,0-0.1c0,0,0,0,0-0.1c0-0.1,0-0.1,0-0.2c0-0.1,0-0.1,0-0.2c0-0.1,0-0.2,0.1-0.2l0,0c0,0,0,0,0-0.1c0,0,0-0.1,0-0.1
	s0-0.1,0-0.1s0-0.1,0-0.1s0-0.1,0-0.1v0c0-0.1,0-0.1,0-0.2v0c0,0,0,0,0-0.1c0,0,0,0,0-0.1c0,0,0-0.1,0-0.1c0,0,0,0,0-0.1
	c0,0,0,0,0-0.1v0c0,0,0-0.1,0-0.1v0c0,0,0-0.1,0-0.1v0c0,0,0,0,0-0.1l0-0.1c0,0,0,0,0-0.1c0.1-0.1,0.1-0.2,0.2-0.3v0c0,0,0,0,0-0.1
	s0,0,0-0.1l0-0.2c0,0,0-0.1,0-0.1s0,0,0,0c0-0.1,0-0.2,0.1-0.3l0-0.1c0,0,0-0.1,0.1-0.1c0,0,0.1-0.1,0.1-0.2l0,0
	c0.1-0.1,0.1-0.2,0.1-0.3c0,0,0,0,0-0.1c0,0,0-0.1,0-0.1c0,0,0-0.1,0.1-0.1c0,0,0,0,0,0c0,0,0-0.1,0.1-0.2s0.1-0.1,0.1-0.2
	c0,0,0-0.1,0.1-0.1c0.1-0.1,0.2-0.3,0.2-0.5c0-0.1,0-0.2,0.1-0.3c0,0,0-0.1,0-0.1c0,0,0-0.1,0-0.2v0c0,0,0-0.1,0-0.1
	c0,0,0-0.1,0-0.1c0,0,0-0.1,0-0.1v0c0,0,0-0.1,0-0.1v0c0-0.1,0-0.1,0-0.2c0,0,0,0,0-0.1c0,0,0-0.1,0-0.1s0,0,0-0.1
	c0.2-0.2,0.2-0.4,0.2-0.5c0-0.2,0-0.3,0.1-0.4c0,0,0,0,0,0c0-0.1,0-0.1,0.1-0.2c0,0,0,0,0,0c0,0,0,0,0,0l0.1-0.1c0,0,0-0.1,0-0.1
	c0-0.1,0-0.2,0-0.2v0c0,0,0-0.1,0.1-0.2c0,0,0,0,0-0.1c0,0,0-0.1,0-0.1v0c0,0,0,0,0-0.1c0-0.1,0-0.2,0-0.2c0-0.1,0-0.2,0.1-0.2l0,0
	v0v0c0,0,0-0.1,0-0.2c0,0,0,0,0-0.1c0-0.1,0-0.2,0-0.3c0,0,0,0,0-0.1c0,0,0-0.1,0-0.1v0C156.7,49.5,156.7,49.4,156.7,49.4
	L156.7,49.4z M134.4,53.6l0.1-0.3c0,0,0,0,0-0.1c0.2-0.2,0.1-0.5,0.1-0.8c0-0.2,0-0.4,0-0.6v0c0,0,0-0.1,0-0.1c0,0,0-0.1,0-0.1v0
	c0,0,0,0,0,0v0c0,0,0,0,0-0.1l0-0.1c0,0,0-0.1,0-0.1c0,0,0-0.1,0-0.1s0,0,0-0.1c0,0,0,0,0,0c-0.1-0.1,0-0.2,0-0.3l0,0c0,0,0,0,0-0.1
	v0v0c0,0,0,0,0-0.1c-0.1,0-0.1-0.1-0.1-0.2c0-0.1,0-0.2-0.1-0.3c0-0.1,0-0.2,0-0.2c0-0.1,0.1-0.1,0.1-0.2c0,0,0,0,0,0v0v0
	c0,0,0-0.1,0-0.1c0-0.1-0.1-0.2-0.1-0.2v0l0-0.1c0-0.1,0-0.1,0-0.2c0,0,0-0.1,0.1-0.2c0,0,0-0.1,0-0.1s0-0.1-0.1-0.1l0,0
	c-0.1,0-0.1-0.1-0.1-0.2c0-0.1,0-0.2,0-0.2l0,0c0,0,0-0.1,0-0.1c-0.1-0.1-0.2-0.2-0.2-0.2c0,0,0,0-0.1,0c-0.1,0-0.2-0.1-0.2-0.2
	l0-0.1v0c0,0,0-0.1,0-0.1c0,0,0,0-0.1-0.1c0,0-0.1,0-0.1-0.1l0,0l0,0c0-0.1-0.1-0.2-0.1-0.2l0,0l0,0c0,0-0.1-0.1-0.1-0.1
	c0,0,0,0-0.1-0.1c0,0-0.1,0-0.1,0c0,0-0.1,0-0.1-0.1l0,0l0,0c0,0-0.1-0.1-0.2,0c0,0-0.1,0-0.2,0h0c-0.1,0-0.2-0.2-0.2-0.3
	c0,0,0-0.1,0-0.1l-0.2-0.1l0,0c0,0,0,0,0,0l-0.1,0c-0.1,0-0.1-0.1-0.2-0.1c0,0,0,0-0.1,0c-0.1,0-0.2,0-0.3,0h0h0c0,0-0.1,0-0.2,0
	c0,0,0,0-0.1,0c0,0,0,0-0.1,0h0h-0.1c0,0-0.1,0-0.1,0c0,0-0.1,0-0.2,0c0,0-0.1,0-0.2,0c0,0,0,0,0,0h-0.2h0c-0.2,0-0.4,0-0.5,0
	c0,0,0,0-0.1,0c0,0,0,0-0.1,0c0,0,0,0-0.1,0l-0.3,0c0,0-0.1,0-0.1,0c-0.3,0-0.5,0.1-0.7,0.2c0,0-0.1,0-0.2,0c-0.2,0-0.3,0-0.3,0
	s0,0-0.1,0c-0.2,0-0.3,0-0.4,0.2c0,0,0,0-0.1,0.1c0,0-0.2,0.1-0.3,0.1c0,0-0.1,0-0.2,0h0h0c0,0,0,0-0.1,0h0c0,0,0,0,0,0l0,0
	c0,0,0,0-0.1,0.1l0,0v0c0,0-0.1,0.1-0.1,0.2c0,0,0,0,0,0c0,0-0.1,0-0.2,0.2c0,0,0,0-0.1,0.1c-0.1,0-0.2,0.1-0.2,0.2
	c-0.1,0.1-0.1,0.2-0.2,0.2l-0.1,0.1c0,0,0,0,0,0c0,0,0,0,0,0s0,0,0,0c0,0,0,0,0,0.1l-0.3,0.6V48c0,0.1,0,0.2,0,0.2
	c0,0,0,0.1-0.1,0.1l0,0c0,0-0.1,0.1-0.2,0.1l-0.1,0c0,0,0,0-0.1,0h0h0c0,0-0.1,0-0.1,0c0,0-0.1,0-0.1,0h0h0h0c0,0,0,0-0.1,0
	c-0.1,0-0.2,0-0.2-0.1c0,0-0.1,0-0.1,0c0,0.1-0.1,0.1-0.2,0.1c0,0-0.1,0-0.1,0h0c-0.2,0.1-0.3,0.2-0.4,0.2c0,0,0,0-0.1,0.1
	c0,0-0.1,0.1-0.1,0.1c-0.2,0.1-0.3,0.2-0.4,0.4c0,0.1-0.1,0.2-0.2,0.3c0,0-0.1,0.1-0.1,0.1l0,0c0,0,0,0.1-0.2,0.2
	c-0.2,0.2-0.4,0.4-0.5,0.7c0,0,0,0,0,0.1l0,0c-0.1,0.2-0.2,0.4-0.4,0.6c-0.2,0.4-0.4,0.6-0.4,0.8v0.1l0,0.2c0,0,0,0,0,0.1
	c0,0.1-0.1,0.2-0.2,0.3v0.1c0,0,0,0.1,0,0.2l0,0c0,0,0,0.1-0.1,0.1s0,0,0,0.1c0,0.1-0.1,0.2-0.1,0.3c0,0.1,0,0.2-0.1,0.2
	c0,0.1,0,0.1-0.1,0.2c0,0,0,0,0,0.1c0,0.1,0,0.2,0,0.3v0.1l-0.1,0.2c-0.2,0.4-0.3,0.7-0.4,1.1v0c0,0,0,0.1,0,0.1c0,0,0,0.1,0,0.2
	c0,0,0,0.1-0.1,0.2c0,0,0,0,0,0.1v0.1v0.1c0,0,0,0,0,0.1v0.2c0,0.1,0,0.1-0.1,0.2c0,0,0,0,0,0c0,0,0,0,0,0c0,0,0,0,0,0l-0.1,0.1
	c0,0,0,0,0,0.1c0,0,0,0.1,0,0.1c0,0,0.1,0,0.1,0.1c0,0,0,0,0,0c0.1,0.1,0.1,0.2,0.1,0.3c0,0.1-0.1,0.3-0.1,0.6v0c0,0,0,0.1-0.1,0.2
	l0,0c0,0.1,0,0.2,0,0.2v0c0,0.1,0,0.1,0,0.2v0v0.1c0,0,0,0.1,0,0.2l0,0.1c0,0.1,0,0.3,0,0.4V60c0,0,0,0.1,0,0.2v0.1v0.1
	c0,0.2,0,0.2,0,0.3v0.1c0,0,0,0.1,0,0.1v0.1c0,0.1,0,0.1,0,0.2v0.2v0.1c0,0.1,0,0.2,0,0.4c0,0.1,0,0.3,0.1,0.4l0,0.1
	c0,0.1,0,0.2,0,0.4v0c0,0.1,0,0.2,0,0.4c0,0,0,0,0,0c0,0,0.1,0.1,0.1,0.2v0.2c0,0,0,0.1,0,0.1c0,0,0,0,0,0c0.1,0,0.1,0.1,0.1,0.2
	c0,0,0,0,0,0.1c0,0,0.1,0.1,0.1,0.1c0.1,0.3,0.4,0.5,0.6,0.7c0.1,0.1,0.2,0.2,0.3,0.3c0.1,0.1,0.2,0.2,0.4,0.3
	c0.1,0.1,0.2,0.2,0.4,0.2l0.1,0c0,0,0.1,0,0.1,0l0.2,0.1c0.1,0,0.2,0.1,0.2,0.1l0.9,0.4h0.1c0,0,0.1,0,0.1,0h0.1h0h0.2l0.1,0h0h0
	h0.1h0.2h0.3h0c0.1,0,0.2-0.1,0.2,0h0h0h0.1h0.2h0.2h0.1c0,0,0.1,0,0.1,0c0.2,0,0.4,0,0.5-0.1h0.1h0h0c0,0,0.1,0,0.1,0
	c0,0,0.1,0,0.1,0h0.1c0.1,0,0.1,0,0.2,0h0c0,0,0.1,0,0.1-0.1c0,0,0,0,0,0c0.1,0,0.1-0.1,0.2-0.1s0.1,0,0.1,0c0.1,0,0.2,0,0.3-0.1
	c0.1-0.1,0,0,0,0c0,0,0.1-0.1,0.2-0.1h0c0.1,0,0.1-0.1,0.1-0.1c0,0,0.1-0.1,0.2-0.1h0l0.1-0.1c0,0,0,0,0,0c0-0.1,0.1-0.1,0.1-0.2
	c0,0,0.1,0,0.2,0c0,0,0.1,0,0.1,0c0-0.1,0.1-0.1,0.1-0.2c0,0,0,0,0-0.1c0,0,0.1,0,0.1-0.1l0.1-0.1c0,0,0.1,0,0.1,0c0,0,0,0,0,0
	c0.1,0,0.2-0.1,0.2,0c0,0,0.1,0,0.1,0l0.1-0.1h0c0,0,0,0,0-0.1c0-0.1,0-0.1,0.1-0.2c0,0,0.1-0.1,0.2-0.1c0,0,0.1,0,0.1-0.1
	c0,0,0-0.1,0.1-0.1c0-0.1,0-0.1,0.1-0.2c0,0,0,0,0.1-0.1c0,0,0,0,0,0c0-0.1,0.1-0.1,0.2-0.1c0,0,0.1,0,0.1,0l0,0l0.1-0.1v0
	c0.1-0.1,0.2-0.2,0.2-0.4c0,0,0,0,0-0.1c0,0,0,0,0-0.1c0,0,0-0.1,0-0.2l0,0l0,0c0,0,0.1-0.1,0.2-0.2l0,0c0,0,0-0.1,0.1-0.1
	c0,0,0,0,0-0.1v-0.1c0-0.1,0.1-0.2,0.2-0.2c0,0,0.1,0,0.1-0.1v0c0,0,0-0.1,0.1-0.2c0,0,0,0,0,0l0,0c0,0,0,0,0-0.1l0,0c0,0,0,0,0-0.1
	c0-0.1,0.1-0.2,0.1-0.2s0,0,0,0l0-0.1v0c0,0,0-0.1,0-0.2c0,0,0.1-0.1,0.2-0.2c0,0,0,0,0-0.1s0-0.1,0-0.1c0,0,0,0,0,0c0,0,0,0,0-0.1
	l0,0l0-0.1c0,0,0-0.1,0.1-0.1l0,0c0,0,0-0.1,0-0.1c0,0,0-0.1,0.1-0.2l0.1-0.2l0,0c0.1-0.1,0.2-0.3,0.2-0.4v0c0,0,0-0.1,0-0.1
	s0,0,0-0.1l0.1-0.4c0,0,0,0,0-0.1v0c0,0,0,0,0-0.1c0,0,0,0,0-0.1l0-0.1v0l0-0.1c0-0.1,0.1-0.2,0.2-0.3v0c0,0,0-0.1,0-0.1v0
	c0,0,0,0,0,0c0,0,0,0,0-0.1c0,0,0,0,0,0c0,0,0-0.1,0.1-0.2c0,0,0-0.1,0-0.2l0-0.1c0,0,0-0.1,0.1-0.2c0,0,0-0.1,0.1-0.1
	c0,0,0,0,0-0.1s0-0.1,0-0.1c0,0,0-0.1,0-0.1c0,0,0,0,0-0.1c0,0,0-0.1,0.1-0.1l0,0c0,0,0.1-0.1,0.2-0.1c0,0,0.1,0,0.1-0.1l0-0.8v0v0
	c0-0.1,0-0.1,0-0.2l0,0c0.1-0.1,0.1-0.2,0.1-0.4c0,0,0-0.1,0-0.1s0-0.1,0-0.2c0,0,0,0,0-0.1C134.4,53.8,134.4,53.7,134.4,53.6
	L134.4,53.6z M131.8,49.3c0,0.1,0,0.2,0,0.3s0,0.1,0,0.2l0,0.1c0,0-0.1,0.1-0.1,0.1s0,0-0.1,0.1v0.1v0c0,0,0,0.1,0,0.2v0v0.1v0v0.1
	c0,0,0,0.1,0,0.2l0.1,0.2v0.2v0.1c0,0.1,0,0.2,0,0.2c0,0,0,0,0,0.1c0,0.1,0,0.1,0,0.2v0.1v0.1c0,0,0,0.1,0,0.1V52v0.1v0.1
	c0,0.1,0,0.2,0,0.3c0,0,0,0.1-0.1,0.1v0c0,0,0,0.1-0.1,0.1c0,0.1-0.1,0.2-0.2,0.4v0v0.1c0,0,0,0.1,0,0.2v0.1c0,0,0,0.1,0,0.1v0
	l0,0.1v0c0,0,0,0.1,0,0.1c0,0,0,0.1,0,0.2c-0.1,0.2-0.2,0.3-0.2,0.4c0,0,0,0.1,0,0.2v0c0,0.1,0,0.1,0,0.2l0,0v0c0,0,0,0.1,0,0.2v0
	c0,0.1-0.1,0.3-0.2,0.4c0,0,0,0.1,0,0.1v0c-0.1,0.3-0.2,0.5-0.4,0.7c-0.1,0.2-0.2,0.3-0.1,0.4c0,0,0,0.1,0,0.2l0,0.2
	c0,0,0,0.1-0.1,0.1c0,0-0.1,0.1-0.1,0.1c0,0,0,0.1,0,0.1v0c0,0,0,0.1-0.1,0.1c0,0,0,0,0,0.1v0v0c0,0,0,0.1,0,0.1s0,0,0,0.1l-0.4,0.8
	c-0.2,0.3-0.3,0.5-0.5,0.8v0c0,0,0,0.1,0,0.1v0c0,0,0,0.1-0.1,0.1l0,0l0,0v0.1v0.2c0,0.1-0.1,0.1-0.2,0.1c0,0,0,0-0.1,0c0,0,0,0,0,0
	c0,0.1-0.1,0.1-0.2,0.2c0,0,0,0.1,0,0.1v0c0,0.1,0,0.2-0.1,0.2l0,0c0,0-0.1,0.1-0.1,0.1c0,0,0,0,0,0s0,0,0,0c0,0,0,0.1,0,0.1
	s0,0,0,0.1c0,0,0,0,0,0.1c0,0,0,0,0,0l-0.2,0.2c0,0,0,0-0.1,0.1l0,0c-0.1,0.2-0.2,0.3-0.4,0.5v0c0,0-0.1,0.1-0.1,0.1
	c0,0-0.1,0.1-0.2,0.1c0,0-0.2,0.1-0.2,0.1s0,0-0.1,0s-0.1,0-0.1,0.1c0,0,0,0.1,0,0.1c0,0-0.1,0.1-0.1,0.1c0,0-0.1,0.1-0.1,0.1
	c0,0,0,0,0,0c-0.2,0.2-0.4,0.4-0.7,0.6c-0.1,0.1-0.2,0.2-0.3,0.2c0,0,0,0,0,0c0,0.1-0.1,0.1-0.2,0.1c0,0-0.1,0-0.1,0.1
	c0,0,0,0.1-0.1,0.1l0,0c0,0-0.1,0.1-0.1,0.1l-0.5,0.2c-0.1,0-0.2,0-0.4,0c-0.2,0-0.3-0.1-0.4-0.2c-0.2-0.2-0.4-0.5-0.5-0.8
	c0,0,0,0,0-0.1c0,0-0.1,0-0.1-0.1c0,0,0,0,0,0c0,0-0.1-0.1-0.1-0.2v-0.1v0c0-0.1,0-0.2,0-0.2c0,0,0,0,0-0.1s0-0.1,0-0.1
	c0,0-0.1-0.1-0.1-0.1c0,0,0-0.1,0-0.1c0,0,0-0.1-0.1-0.1c0,0-0.1,0-0.1-0.1c0-0.1-0.1-0.2,0-0.2v0v0c0-0.1,0-0.2,0-0.2v0
	c0-0.1,0-0.2,0-0.2v0v0v0c0,0,0,0,0-0.1c0,0,0-0.1,0-0.1c0,0,0,0,0-0.1c0-0.2,0-0.3-0.1-0.4l0-0.1c0,0,0-0.1,0-0.1v0
	c0-0.1,0-0.2,0-0.2s0.1-0.1,0.2-0.1h0h0c0,0,0.1-0.1,0.1-0.1v0c0,0,0,0,0-0.1c-0.1-0.1-0.1-0.2,0-0.3c0,0,0,0,0,0c0,0,0-0.1,0-0.1
	c-0.1-0.1-0.1-0.2,0-0.3c0-0.1,0.1-0.2,0.2-0.2h0h0c0,0,0.1,0,0.2,0c0.1,0,0.2,0,0.3-0.3c0,0,0-0.3,0-0.6l0-0.1c0,0,0-0.1,0-0.1
	c0-0.1,0-0.1,0-0.2v0c0,0,0-0.1,0.1-0.2l0,0c0-0.1,0.1-0.1,0.2-0.2h0c0,0,0.1,0,0.1-0.1v-0.3v0c0,0,0,0,0-0.1c0-0.1,0-0.1,0.1-0.2h0
	v0c0,0,0,0,0,0v-0.1v0c0-0.1,0-0.1,0-0.2c0,0,0-0.1,0.1-0.1c0,0,0,0,0-0.1c0,0,0,0,0-0.1c0,0,0,0,0-0.1c0,0,0-0.1,0.1-0.1
	c0,0,0,0,0-0.1s0-0.1,0-0.2c0,0,0,0,0-0.1l0.1-0.1c0.1,0,0.2-0.1,0.2-0.2c0,0,0,0,0,0c0,0,0,0,0-0.1c0,0,0,0,0,0l0.1-0.1
	c0,0,0-0.1,0-0.2c-0.1-0.1-0.1-0.2,0-0.3c0,0,0,0,0-0.1s0-0.1,0.1-0.1l0.1,0c0,0,0,0,0-0.1V54v0c0-0.1,0.1-0.1,0.1-0.2h0
	c0,0,0,0,0,0c0,0,0.1-0.1,0.2-0.1s0-0.1,0-0.1c0,0,0-0.1,0.1-0.1h0c0.1-0.1,0.2-0.3,0.3-0.5l0.1-0.3c0-0.1,0-0.2,0-0.2
	c0,0,0-0.1,0-0.1c0,0,0,0,0,0l0.1-0.2c0,0,0,0,0-0.1c0-0.1,0-0.2,0-0.2c0,0,0,0,0-0.1c0,0,0,0,0.1-0.1c0,0,0,0,0,0
	c0,0,0.1-0.1,0.2-0.1c0,0,0,0,0.1,0c0,0,0,0,0-0.1c0,0,0,0,0,0v0c0,0,0,0,0-0.1c0,0,0-0.1,0.1-0.1c0,0,0-0.1,0-0.1s0-0.1,0-0.2
	s0.1-0.1,0.1-0.2c0,0,0,0,0-0.1l0,0l0,0c0-0.1,0.1-0.1,0.1-0.2l0.1,0l0,0l0.1,0c0,0,0.1-0.1,0-0.1c0,0,0,0,0-0.1v0
	c0-0.1,0-0.1,0-0.2l0.1-0.1c0,0,0,0,0-0.1v0c0,0,0,0,0-0.1c0-0.1,0.1-0.2,0.1-0.3s0.1-0.2,0.2-0.2c0,0,0,0,0,0l0,0l0,0
	c0,0,0.1-0.1,0.2-0.1c0.1,0,0.1,0,0.2-0.1c0,0,0.1-0.1,0.2-0.1c0,0,0,0,0-0.1s0-0.1,0-0.1c0,0,0,0,0-0.1s0-0.1,0-0.1
	c0,0,0-0.1,0-0.1c0-0.1,0-0.1,0.1-0.2c0,0,0.1,0,0.2,0s0.1,0,0.1-0.1s0-0.1,0.1-0.2l0.1-0.1c0.2-0.2,0.5-0.4,0.7-0.4c0,0,0,0,0,0
	c0.1,0,0.2-0.1,0.2,0h0.1c0.1,0,0.2,0,0.2,0s0.1,0,0.2,0c0,0,0.1,0,0.1,0c0.1,0,0.2,0,0.3,0.1c0,0,0,0,0.1,0.1l0.1,0.2
	c0,0.1,0.1,0.2,0.2,0.2c0,0,0,0,0.1,0.1l0,0c0,0,0,0,0,0.1c0,0.1,0.1,0.1,0.1,0.2c0,0,0.1,0.1,0.1,0.1c0.2,0,0.2,0.1,0.3,0.2
	c0,0.1,0,0.2-0.1,0.2c0,0,0,0.1,0,0.1c0,0.1,0,0.1,0,0.1c0,0.1,0,0.1,0,0.2c0,0,0,0.1,0,0.1C131.8,49.2,131.8,49.3,131.8,49.3
	L131.8,49.3z M148.9,56C148.9,55.9,149,55.9,148.9,56c0-0.1,0-0.1,0-0.1c0,0,0-0.1,0-0.2c0,0,0-0.1,0-0.2l0-0.2c0,0,0,0,0,0
	c0,0,0-0.1,0-0.2v0c0-0.1,0-0.2,0-0.2c0,0,0,0,0-0.1l0.1-0.2c0,0,0,0,0-0.1v0v0c0,0,0-0.1,0-0.2v0c0,0,0-0.1,0-0.1c0,0-0.1,0-0.1,0
	l-0.1,0.1c-0.1,0-0.2,0-0.2,0l-0.2-0.1c0,0-0.1,0-0.1-0.1l0,0h0c0,0-0.1,0-0.2,0l0,0.1c0,0.1-0.2,0.2-0.2,0.2c0,0-0.1,0-0.1,0.1v0
	c0,0.1-0.1,0.1-0.2,0.2c0,0,0,0-0.1,0c0,0,0,0.1-0.1,0.1l0,0l-0.1,0.1l0,0c-0.1,0.1-0.2,0.2-0.4,0.3c0,0-0.1,0.1-0.2,0.2
	c0,0-0.1,0.1-0.1,0.2c0,0,0,0,0,0c0,0-0.1,0.1-0.1,0.2l0,0c0,0,0,0.1-0.1,0.1s0,0.1-0.1,0.1c0,0-0.1,0.1-0.2,0.1
	c0,0-0.1,0.1-0.1,0.1c0,0-0.1,0-0.1,0.1c0,0,0,0,0,0c0,0-0.1,0.1-0.2,0.2v0c0,0.1,0,0.2-0.1,0.2c0,0-0.1,0.1-0.2,0.1l-0.2,0.2
	c0,0,0,0-0.1,0.1c0,0,0,0,0,0c-0.1,0.1-0.2,0.2-0.4,0.3c0,0,0,0,0,0l-0.1,0.1c0,0,0,0,0,0.1c0,0,0,0,0,0.1c0,0,0,0,0,0l0,0v0l0,0.1
	c0,0-0.1,0.1-0.2,0.2c-0.1,0.2-0.2,0.3-0.3,0.4c0,0,0,0.1-0.1,0.1l0,0v0v0c0,0,0,0,0,0.1l0,0c0,0-0.1,0-0.1,0
	c-0.1,0-0.2,0.1-0.3,0.2c0,0-0.1,0.1-0.1,0.2c0,0,0,0,0,0.1c0,0-0.1,0.1-0.1,0.2c0,0,0,0.1,0,0.1l-0.1,0.1c0,0-0.1,0.1-0.2,0.3
	c-0.1,0.1-0.2,0.2-0.4,0.3c-0.1,0-0.1,0.1-0.2,0.1l0,0c-0.1,0-0.2,0.1-0.3,0.2l0,0c0,0.1,0,0.1-0.1,0.2c0,0,0,0-0.1,0
	c-0.1,0.1-0.2,0.2-0.2,0.2c0,0,0,0.1-0.1,0.1c0,0,0,0,0,0c-0.1,0.1-0.1,0.1-0.2,0.2v0c0,0.1-0.1,0.2-0.2,0.2c0,0,0,0,0,0
	c-0.1,0-0.1,0.1-0.1,0.1v0c0,0,0,0.1-0.1,0.1h0c-0.1,0.1-0.2,0.1-0.3,0.2l-0.1,0.1c0,0,0,0-0.1,0c-0.2,0.1-0.3,0.2-0.4,0.2
	c-0.2,0.1-0.4,0.3-0.5,0.4c-0.2,0.2-0.5,0.5-0.9,0.6h0c-0.1,0-0.1,0.1-0.2,0.1c0,0,0,0-0.1,0l-0.1,0c-0.1,0-0.2,0-0.2,0h0
	c-0.1,0-0.2-0.1-0.2-0.2c0,0,0,0,0,0s0,0,0-0.1c0-0.1,0-0.2-0.1-0.4v-0.1v0v-0.1v0v0c0,0,0,0,0-0.1c0,0,0-0.1,0-0.1v0
	c0-0.1,0-0.2,0.1-0.4c0-0.1,0-0.1,0.1-0.2c0,0,0,0,0-0.1l0-0.2c0-0.1,0-0.2,0.1-0.2c0,0,0,0,0-0.1v-0.2c0,0,0,0,0-0.1v0
	c0,0,0-0.1,0-0.1c0,0,0-0.1,0-0.1v-0.1c0-0.1,0-0.2,0-0.3c0,0,0-0.1,0-0.1v0c0,0,0,0,0-0.1c0-0.1,0-0.4,0.2-0.4
	c0.2-0.2,0.3-0.5,0.5-1l0.1-0.3c0.2-0.6,0.5-1.3,0.8-1.8c0,0,0,0,0-0.1c0-0.1,0-0.1,0-0.2c0-0.1,0.1-0.2,0.2-0.2c0,0,0-0.1,0.1-0.1
	c0,0,0,0,0,0c0.1-0.2,0.2-0.4,0.2-0.5c0.1-0.1,0.1-0.2,0.2-0.4c0-0.1,0-0.1,0.1-0.2c0,0,0,0,0,0c0,0,0,0,0,0
	c0.2-0.3,0.2-0.5,0.1-0.7c0-0.1,0-0.2,0-0.3l0.1-0.2c0,0,0,0,0,0c0,0,0,0,0-0.1c0,0,0-0.1,0-0.1l0,0c0,0,0-0.1,0.1-0.2
	c0,0,0-0.1,0.1-0.2c0-0.1,0.1-0.1,0.2-0.2c0,0,0-0.1,0.1-0.1c0,0,0-0.1,0-0.1c0.1-0.2,0.2-0.3,0.2-0.4c0,0,0-0.1,0-0.1
	c0-0.1,0.1-0.2,0.1-0.2v0c0-0.1,0-0.1,0.1-0.2l0.1-0.1c0,0,0,0,0,0c0.1-0.2,0.2-0.3,0.3-0.4l0.3-0.3c0,0,0-0.1,0-0.2
	c0,0,0-0.1,0-0.1c0-0.1,0-0.2,0-0.2l0,0l0,0c0,0,0-0.1,0-0.1c0,0,0,0,0,0l0.1-0.1c0,0,0-0.1,0.1-0.1l0.1-0.2l0,0
	c0,0,0.1-0.2,0.1-0.3v0c0-0.1,0-0.2,0.1-0.2c0,0,0.1,0,0.1-0.1l0,0c0,0,0,0,0.1-0.2c0,0,0,0,0,0v0c0-0.1,0.1-0.2,0.2-0.2
	c0,0,0.1,0,0.1,0h0c0.1,0,0.1,0,0.1-0.1c0,0,0-0.1,0-0.1c0-0.1,0.1-0.1,0.2-0.1c0,0,0,0,0.1,0c0.1-0.2,0.2-0.2,0.2-0.3v0
	c0-0.2,0.1-0.2,0.1-0.2c0,0,0,0,0,0l0,0l0,0l0,0c0,0,0-0.1,0.1-0.1c0.1-0.1,0.2-0.2,0.2-0.3l0-0.1c0.1-0.1,0.1-0.2,0.1-0.2l0.1-0.1
	l0,0c0,0,0.1,0,0.2,0s0.2,0,0.2,0c0.1,0,0.1,0.1,0.1,0.2v0v0.1v0.1c0,0,0,0.1,0,0.1c0,0,0,0.1,0,0.1v0.4V48c0,0,0,0.1,0,0.1v0.1v0.1
	c0,0,0,0.1,0,0.1c0,0,0,0.1,0,0.2v0.1c0,0,0,0.1,0,0.2c0,0,0,0.1,0,0.2c0.1,0.1,0.1,0.2,0,0.3c0,0,0,0,0,0c0,0,0,0,0,0.1
	s0,0.1,0,0.1c0,0,0,0.1,0,0.1c0,0,0,0,0,0.1c0,0,0,0,0,0.1c0,0,0,0.1,0,0.1v0.1v0c0,0,0,0,0,0c0,0,0.1,0.1,0.1,0.2s0,0.2-0.1,0.2
	c0,0,0,0.1,0,0.1v0.1v0v0.1v0.1c0,0,0,0,0,0.1c0,0,0,0,0,0c0,0,0.1,0.1,0.1,0.2c0,0,0,0,0,0.1c0,0,0,0.1,0,0.1c0,0,0,0,0,0.1
	c0,0,0.1,0,0.1,0.1v0c0.1,0.1,0.2,0.2,0.3,0.2h0h0c0.1,0,0.2,0,0.2,0h0c0,0,0.1,0,0.1,0.1l0,0c0.1,0,0.3,0.2,0.5,0.1h0c0,0,0,0,0,0
	c0.1-0.1,0.2-0.1,0.3,0c0,0,0.1,0,0.1,0c0,0,0,0,0.1-0.1c0,0,0-0.1,0-0.1c0,0,0-0.1,0-0.2c0,0,0,0,0-0.1c0-0.1,0.1-0.2,0.2-0.2h0
	c0,0,0.1,0,0.1-0.1c0-0.1,0.1-0.2,0.2-0.2c0.1,0,0.1-0.1,0.2-0.2c0,0,0-0.1,0-0.1c-0.1-0.1,0-0.2,0-0.3l0,0c0,0,0-0.2,0-0.4v-0.2
	c0,0,0,0,0,0s0,0,0-0.1v0c0,0,0,0,0-0.1s0-0.1,0.1-0.2c0,0,0,0,0-0.1s0,0,0-0.1c0,0,0,0,0,0c0,0,0,0,0-0.1c0,0,0,0,0-0.1v0v0
	c0,0,0-0.1,0-0.1c0,0-0.1-0.1-0.1-0.1c0-0.1,0-0.2,0-0.2c0,0,0,0,0-0.1c0-0.1,0-0.1,0-0.2c0,0,0-0.1,0-0.1c0-0.1,0-0.2,0-0.2
	c0,0,0,0,0,0v0c0,0,0,0,0-0.1v-0.1c0,0,0,0,0-0.1c0,0,0,0,0-0.1c0,0,0-0.1,0-0.2v0c0-0.1,0-0.1,0-0.2v0c0,0,0-0.1,0-0.1
	c-0.1,0-0.1-0.1-0.1-0.2s0-0.2,0-0.2c0-0.1,0-0.2-0.1-0.4c0,0,0,0,0-0.1s0-0.1,0-0.2c0,0,0-0.1,0-0.2c0,0,0-0.1,0-0.1
	c-0.1-0.1-0.2-0.1-0.2-0.2c0,0,0,0,0,0c-0.1,0-0.2,0-0.2-0.1l0,0c0,0,0,0,0-0.1l0,0c-0.1,0-0.2-0.2-0.1-0.3v0v0c0,0,0-0.1,0-0.1
	c-0.2-0.1-0.4-0.2-0.6-0.3c-0.1,0-0.2-0.1-0.3-0.1c0,0-0.1,0-0.1,0c-0.4-0.2-0.7-0.3-0.9-0.2c0,0-0.1,0-0.1,0
	c-0.1,0-0.2-0.1-0.3-0.1h0c0,0-0.1,0-0.1,0s-0.1,0-0.2,0c0,0,0,0-0.1,0c-0.1,0-0.2,0-0.3,0.1c0,0,0,0,0,0c0,0-0.1,0.1-0.2,0.1h0
	c0,0-0.1,0-0.1,0c-0.1,0-0.2,0-0.2,0c0,0-0.1,0-0.1,0s-0.1,0-0.1,0.1c0,0,0,0,0,0.1c0,0.1-0.1,0.2-0.2,0.2c-0.1,0-0.1,0-0.2,0.1
	c0,0-0.1,0.1-0.2,0.2c0,0,0,0,0,0.1s0,0.1,0,0.1c0,0.1-0.1,0.1-0.2,0.2c0,0-0.1,0.1-0.2,0.1c0,0,0,0-0.1,0l-0.1,0.2v0
	c0,0.1,0,0.1-0.1,0.2l0,0c-0.1,0.1-0.2,0.2-0.3,0.3c0,0,0,0,0,0.1c0,0.1,0,0.1-0.1,0.2c0,0,0,0-0.1,0.1c0,0,0,0-0.1,0.1l0,0v0
	l-0.1,0.3c0,0,0,0.1-0.1,0.1c0,0,0,0,0,0c0,0-0.1,0.1-0.1,0.2c0,0,0,0,0,0.1l0,0.1l0,0v0l-0.2,0.3c0,0,0,0,0,0
	c-0.3,0.3-0.4,0.5-0.5,0.7c0,0,0,0,0,0c0,0,0,0.1-0.1,0.2c0,0,0,0.1-0.1,0.1l0,0l-0.1,0.2v0.1c0,0,0,0.1,0,0.1l-0.1,0.2
	c0,0,0,0,0,0.1v0c0,0.1-0.1,0.2-0.1,0.2c0,0,0,0.1,0,0.1c0,0,0,0.1,0,0.1s0,0,0,0v0v0c0,0,0,0.1,0,0.1v0.1c0,0-0.1,0.1-0.2,0.2
	c0,0-0.1,0.1-0.1,0.1c0,0,0,0,0,0c0,0,0,0.1-0.1,0.1c0,0,0,0.1-0.1,0.1c-0.1,0.1-0.1,0.2-0.2,0.3v0c0,0,0,0,0,0.1l0,0.1
	c0,0,0,0.1,0,0.1l-0.1,0.1c-0.1,0.1-0.2,0.3-0.2,0.5c0,0.1,0,0.1-0.1,0.2v0c0,0,0,0-0.1,0.1c0,0,0,0-0.1,0.1c0,0-0.1,0.1-0.1,0.1
	c0,0,0,0.1-0.1,0.1l0,0.1v0.1c0,0.1,0,0.1,0,0.2c-0.1,0.1-0.2,0.3-0.3,0.6c0,0.1-0.1,0.2-0.2,0.3v0c-0.1,0.2-0.2,0.4-0.3,0.6v0.1
	v0.2c0,0.1-0.1,0.2-0.2,0.3c0,0,0,0,0,0v0v0c0,0.1-0.1,0.3-0.2,0.4v0v0.1v0.1c0,0.1,0,0.1-0.1,0.2l0,0v0c-0.1,0.2-0.2,0.5-0.3,0.8
	c0,0,0,0,0,0c-0.1,0.2-0.2,0.4-0.3,0.7v0c-0.2,0.3-0.3,0.7-0.5,1.1v0.1c0,0.1,0,0.1,0,0.2c0,0,0,0,0,0.1c-0.1,0.1-0.1,0.2-0.2,0.2v0
	V59c0,0,0,0.1,0,0.2l-0.1,0.1c0,0.1-0.1,0.2-0.2,0.2v0.1c0,0,0,0,0,0.1c0,0.1,0,0.1,0,0.2c-0.1,0.2-0.1,0.4-0.2,0.6c0,0,0,0,0,0v0v0
	l0,0.1c0,0.1,0,0.1,0,0.2c-0.1,0.6-0.2,1.1-0.2,1.6c0,0.3,0,0.5,0,0.8c0,0.3,0.1,0.6,0.2,0.8c0.1,0.3,0.4,0.5,0.6,0.7
	c0.2,0.2,0.4,0.3,0.6,0.4c0,0,0,0,0.1,0c0,0,0.1,0,0.2,0c0,0,0.1,0,0.2,0.1h0c0,0,0.1,0,0.2,0c0.1,0.1,0.2,0.2,0.3,0.2h0h0.1h0
	c0.1,0,0.2,0,0.2,0c0.1,0,0.1,0,0.2,0c0.2,0,0.4,0.1,0.5,0h0.1c0.2,0,0.5,0,0.7,0c0,0,0,0,0.1,0c0,0,0.1,0,0.2,0h0
	c0.1,0,0.2,0,0.3,0h0.2h0.1c0.2,0,0.3-0.1,0.4-0.2c0.3-0.1,0.5-0.2,0.7-0.3c0,0,0.1,0,0.2,0h0h0.1c0,0,0.1,0,0.2-0.1
	c0.1,0,0.2-0.1,0.2-0.2c0,0,0,0,0-0.1c0-0.1,0.1-0.1,0.2-0.2c0,0,0,0,0,0c0.2-0.1,0.4-0.3,0.6-0.4c0.2-0.1,0.3-0.3,0.5-0.4l0,0
	c0,0,0-0.1,0.1-0.1l0,0c0,0,0.1,0,0.1,0s0,0,0.1,0c0-0.1,0.1-0.1,0.1-0.2c0.1-0.1,0.2-0.1,0.2-0.1c0,0,0.1,0,0.1,0.1s0,0,0.1,0
	c0,0,0.1,0,0.1,0l0,0l0,0l0,0c0-0.1,0.1-0.2,0.2-0.2c0,0,0.1,0,0.1,0l0.1,0c0,0,0,0,0.1,0c0,0,0,0,0,0l0.2-0.2l0,0v0
	c0,0,0-0.1,0.1-0.1c0,0,0,0,0-0.1c0,0,0,0,0-0.1c0,0,0,0,0-0.1c0,0,0,0,0-0.1v0c0-0.1,0-0.2,0-0.2c0-0.1,0.1-0.1,0.2-0.1
	c0,0,0,0,0.1,0c0.1-0.1,0.2-0.1,0.3,0h0.1l0.1,0c0,0,0,0,0.1-0.1c0,0,0,0,0-0.1s0,0,0.1-0.1l0,0c0,0,0-0.1,0.1-0.1c0,0,0-0.1,0-0.1
	c0-0.1,0-0.2,0-0.2l0.1-0.1c0,0,0.1-0.1,0-0.1c0-0.1,0-0.2,0-0.2l0.1-0.1c0-0.1,0.1-0.1,0.2-0.1c0,0,0,0,0,0l0,0
	c0.1-0.1,0.2-0.1,0.3-0.1h0.1c0,0,0,0,0.1-0.1v0l0-0.1c0,0,0,0,0,0c0,0,0-0.1,0.1-0.1c0,0,0.1-0.1,0.1-0.1s0,0,0.1,0l0,0
	c0,0,0,0,0,0c0-0.1,0.1-0.2,0.2-0.4l0-0.1c0-0.1,0.1-0.2,0.2-0.2l0,0l0,0c0.1,0,0.1-0.1,0.2-0.2c0,0,0,0,0-0.1c0,0,0-0.1,0-0.2
	l0.1-0.2v0c0,0,0-0.1,0.1-0.1l0,0c0,0,0,0,0,0l0,0l0.1-0.1c0,0,0,0,0,0c0,0,0,0,0.1,0c0,0,0.1-0.1,0.1-0.1c0,0,0,0,0,0v0
	c0,0,0,0,0-0.1c0,0,0-0.1,0-0.1s0-0.1,0-0.1v0c0-0.1,0.1-0.2,0.1-0.4l0-0.1c0,0,0,0,0-0.1c0,0,0,0,0,0c0-0.1,0.1-0.1,0.2-0.2h0
	c0.1-0.1,0.1-0.1,0.1-0.2c0,0,0,0,0-0.1c0,0,0-0.1,0.1-0.2v0c0,0,0,0,0-0.1c0-0.1,0-0.2,0.1-0.2C148.9,56.1,148.9,56,148.9,56
	L148.9,56z M119.3,49.9c0,0,0-0.1,0-0.2c0-0.1-0.1-0.2,0-0.2c0,0,0-0.1,0-0.1c0-0.1,0-0.2,0-0.2c0,0,0-0.1,0-0.1c0,0,0-0.1,0-0.2v0
	c0-0.2-0.1-0.5-0.2-0.9c-0.1-0.3-0.3-0.6-0.4-0.7c0,0,0,0-0.1-0.1c0-0.1-0.2-0.2-0.2-0.3l0,0c-0.2-0.2-0.3-0.3-0.4-0.4l-0.3-0.3
	c-0.1-0.1-0.2-0.2-0.3-0.3c0,0,0,0-0.1,0c0,0-0.1,0-0.2-0.1c0,0,0,0-0.1,0c-0.2-0.1-0.3-0.2-0.4-0.2c0,0-0.1,0-0.2-0.1
	c0,0,0,0-0.1,0c-0.1,0-0.2,0-0.3,0l-0.7,0c-0.1,0-0.3,0-0.5,0.1c0,0-0.1,0-0.2,0h0c0,0,0,0,0,0c0,0,0,0-0.1,0
	c-0.4,0.1-0.6,0.2-0.7,0.3c0,0-0.1,0.1-0.2,0.1c-0.1,0-0.2,0-0.2,0.1c0,0-0.1,0-0.2,0c-0.1,0-0.2,0-0.4,0c-0.1,0-0.2,0-0.2,0
	c-0.1,0-0.1,0-0.2,0c0,0,0,0-0.1,0c-0.3,0.1-0.4,0.1-0.4,0.1l0,0c0,0.1-0.2,0.2-0.3,0.1c0,0-0.1,0-0.1,0s0,0-0.1,0h0
	c0,0-0.2,0-0.2,0.1l-0.7,0.3c-0.3,0.1-0.5,0.3-0.7,0.3c0,0-0.1,0-0.1,0.1c0,0.1-0.1,0.1-0.2,0.2c-0.1,0-0.2,0.1-0.3,0.1
	c-0.3,0.1-0.6,0.2-0.9,0.4c0,0-0.1,0-0.2,0s-0.1,0-0.1,0.1c0,0,0,0-0.1,0c-0.1,0-0.2,0.1-0.3,0.2c-0.4,0.2-0.6,0.3-0.7,0.4
	c0,0-0.1,0-0.1,0c-0.2,0-0.6,0.2-1.1,0.5c0,0-0.1,0-0.2,0c0,0,0,0-0.1,0c-0.2,0.1-0.3,0.2-0.4,0.2l0,0c0,0.1-0.2,0.2-0.3,0.2
	c0,0-0.1,0-0.2,0.1h0c-0.1,0-0.2,0.1-0.3,0.2c-0.1,0.1-0.2,0.2-0.3,0.3c0,0,0,0-0.1,0c-0.1,0.1-0.2,0.2-0.3,0.2
	c-0.1,0.1-0.2,0.1-0.3,0.2c0,0-0.1,0.1-0.1,0.1l0,0c0,0-0.1,0-0.1,0.1l0,0c0,0,0,0-0.1,0.1c-0.4,0.3-0.6,0.5-0.8,0.7
	c-0.1,0.1-0.1,0.1-0.2,0.2c0,0,0,0-0.1,0c0,0-0.1,0.1-0.1,0.1c-0.1,0.1-0.1,0.1-0.1,0.2c0,0,0,0.1,0,0.1l0,0.1c0,0-0.1,0.1-0.1,0.1
	c0,0,0,0,0,0l0,0c-0.2,0.2-0.4,0.4-0.5,0.9c-0.1,0.3,0,0.6,0,0.9c0,0.2,0.1,0.3,0.2,0.5l0,0.1v0.1v0l0.1,0.2
	c0.1,0.2,0.2,0.5,0.3,0.7c0.1,0.2,0.2,0.4,0.3,0.4c0.1,0.1,0.2,0.3,0.3,0.4c0.2,0.3,0.4,0.5,0.6,0.6c0.2,0.2,0.4,0.2,0.5,0.2
	c0,0,0.1,0,0.1,0c0.1,0,0.2,0.1,0.2,0.1c0,0,0,0,0,0c0,0,0,0,0,0c0,0,0,0,0.1,0c0,0,0,0,0,0l0.5,0.1c0,0,0.1,0,0.1,0h0h0h0
	c0.1,0,0.2,0,0.2,0.1c0.1,0,0.3,0.1,0.4,0.2c0,0,0,0,0.1,0l0,0c0.1,0,0.2,0,0.2,0l0.4,0c0.1,0,0.2,0,0.4,0.1l0.7,0.2
	c0,0,0.1,0,0.2,0h0c0,0,0.1,0,0.1,0c0,0,0.1,0.1,0.2,0.1l0.3,0c0.5,0.1,0.9,0.2,1.3,0.3c0.3,0.1,0.5,0.2,0.8,0.2l0.2,0
	c0.2,0,0.4,0.1,0.5,0.2h0c0,0,0.1,0,0.2,0c0.1,0,0.2,0.1,0.4,0.2c0.1,0,0.1,0.1,0.2,0.1c0,0,0,0,0,0l0.3,0.1h0.1h0.1
	c0.2,0,0.3,0.1,0.6,0.2l0.1,0c0,0,0.1,0.1,0.1,0.2c0,0,0,0,0,0c0.1,0.1,0.1,0.2,0.1,0.3v0.1c0,0.1,0,0.2,0,0.3
	c-0.1,0.1-0.2,0.2-0.2,0.3l-0.1,0.1c-0.1,0.1-0.1,0.2-0.2,0.2l-0.2,0.2c0,0-0.1,0.1-0.1,0.1c-0.1,0-0.2,0.1-0.3,0.2
	c0,0-0.1,0.1-0.1,0.2c0,0,0,0.1-0.1,0.1c-0.2,0.1-0.3,0.2-0.4,0.3c0,0-0.1,0-0.1,0.1c0,0-0.1,0.1-0.1,0.1c0,0-0.1,0-0.1,0h0
	c0,0,0,0-0.1,0h0c0,0-0.1,0-0.1,0c-0.1,0-0.2,0.1-0.2,0.1l-0.1,0.1h0l-0.1,0c0,0,0,0,0,0c0,0-0.1,0.1-0.2,0.1c-0.1,0-0.2,0-0.4,0.1
	c-0.1,0-0.2,0-0.2,0c0,0,0,0-0.1,0h-0.1h0l-0.7,0.2c0,0,0,0-0.1,0c0,0-0.1,0-0.1,0s-0.1,0-0.1,0h0c0,0-0.1,0-0.2,0c0,0-0.1,0-0.2,0
	c-0.1,0-0.2,0-0.4,0.1l-0.2,0.1c0,0-0.1,0-0.2,0c0,0,0,0,0,0h0c-0.1,0-0.2,0-0.3,0h0c0,0-0.1,0-0.2,0c-0.1,0-0.2,0-0.3,0
	c-0.1,0-0.2,0-0.2,0c-0.1,0-0.1,0-0.2,0c-0.2,0-0.2,0-0.3-0.1c0,0-0.1,0-0.2-0.1l-0.2,0c-0.1,0-0.2-0.1-0.2-0.2c0-0.1,0-0.2,0-0.2
	c0,0,0,0,0-0.1v0c0-0.1,0-0.1,0.1-0.2l0.4-0.4c0,0,0-0.1,0-0.1s0-0.1-0.1-0.1c-0.1,0-0.2-0.1-0.2-0.2s0-0.2,0-0.2c0,0,0-0.1,0-0.1
	c0,0,0,0-0.1-0.1l-0.2,0c-0.1,0-0.2-0.1-0.2-0.2c0,0,0-0.1,0-0.1l0,0c0,0,0,0,0-0.1c-0.1-0.1-0.2-0.1-0.3-0.1s-0.2,0-0.2,0h-0.1
	c0,0,0,0-0.1,0c0,0,0,0-0.1,0h0c0,0,0,0-0.1,0c-0.2,0-0.3,0.2-0.5,0.3c-0.1,0-0.2,0.1-0.2,0.2l-0.2,0.2c-0.2,0.2-0.4,0.4-0.4,0.8
	c0,0.1,0,0.1,0,0.2l0.2,0.5c0.1,0.2,0.1,0.4,0.2,0.6l0,0.1c0.1,0.2,0.1,0.3,0.2,0.5c0.1,0.1,0.2,0.2,0.2,0.4c0,0.1,0.1,0.1,0.1,0.2
	c0,0,0,0,0,0.1c0,0.1,0.1,0.1,0.1,0.2c0.1,0.1,0.2,0.2,0.2,0.3c0.3,0.3,0.6,0.6,1,0.8h0.1c0,0,0.1,0,0.2,0s0.2,0.1,0.3,0.1h0
	c0.1,0,0.1,0,0.2,0l0.2,0.1c0.1,0,0.2,0.1,0.2,0.1h0h0.2c0,0,0.1,0,0.2,0h0.2h0c0.1,0,0.2,0,0.2,0.1c0,0,0,0,0.1,0s0.1,0,0.2,0
	c0,0,0.1,0,0.1,0c0,0,0.1-0.1,0.2-0.1c0.1,0,0.2,0,0.2,0.1c0,0,0.1,0,0.2,0h0.1c0,0,0.1,0,0.1,0c0-0.1,0.1-0.1,0.2-0.1
	c0,0,0,0,0.1,0c0,0,0.1-0.1,0.2-0.1l0.4-0.1h0.1h0.1h0.2c0,0,0.1,0,0.1,0l0.8-0.2c0.1,0,0.2-0.1,0.3-0.1h0.2h0.1l0.3-0.2
	c0,0,0,0,0.1,0l0.2,0c0.1,0,0.1,0,0.2,0h0.2h0.1c0,0,0.1,0,0.2-0.1l0,0c0,0,0.1,0,0.1-0.1l0,0c0,0,0,0,0,0c0,0,0,0,0.1,0
	c0,0,0,0,0.1,0l0.2-0.1c0,0,0,0,0,0c0-0.1,0.1-0.1,0.2-0.1c0,0,0.1,0,0.2,0c0,0,0.1,0,0.1,0c0,0,0,0,0.1-0.1l0,0c0,0,0,0,0,0
	c0,0,0.1-0.1,0.2-0.1c0.1,0,0.2,0,0.2,0h0l0,0c0,0,0,0,0.1,0s0,0,0.1,0l0.1-0.1c0,0,0.1,0,0.1-0.1c0,0,0,0,0,0l0.1-0.2l0.1-0.1
	c0,0,0,0,0.1-0.1c0,0,0-0.1,0.1-0.1c0,0,0,0,0,0l0.2-0.3c0,0,0.1-0.1,0.2-0.1c0,0,0,0,0.1,0h0c0,0,0.1,0,0.1-0.1c0,0,0-0.1,0.1-0.1
	l0,0l0,0v0c0,0,0-0.1,0-0.1c0,0,0-0.1,0-0.1c0,0,0-0.1,0-0.2v0c0-0.1,0-0.1,0-0.2v0c0-0.1,0-0.2,0.1-0.2c0,0,0,0,0,0
	c0,0,0-0.1,0.1-0.2v0c0-0.1,0-0.2,0-0.2l0,0c0,0,0,0,0,0c0-0.1,0.1-0.1,0.1-0.2c0,0,0.1-0.1,0-0.1c0,0,0-0.1,0-0.1
	c0-0.1,0-0.2,0.1-0.2c0,0,0,0,0-0.1s0-0.1,0-0.1s0-0.1,0-0.1c0,0-0.1-0.1-0.1-0.2c0,0,0-0.1,0-0.2c0,0,0,0,0,0c0,0,0,0,0-0.1
	c0-0.1-0.1-0.3-0.2-0.4c0,0,0,0,0,0c0,0,0-0.1,0-0.2v0v0c0,0,0-0.1,0-0.2c0,0,0-0.1,0-0.2c0,0,0-0.1,0-0.1c-0.1-0.1-0.2-0.2-0.2-0.2
	l-0.4-0.4c0,0,0,0,0,0c0,0,0,0-0.1-0.1c0-0.1-0.1-0.2,0-0.2v0v0c0,0,0-0.1,0-0.1c-0.2-0.2-0.4-0.3-0.5-0.5c-0.1-0.1-0.2-0.1-0.3-0.2
	h0c-0.1,0-0.2,0-0.2-0.1l0,0c0,0,0,0,0,0c0,0,0,0,0,0c-0.1-0.1-0.2-0.2-0.2-0.2c0,0,0,0,0,0c0,0-0.1,0-0.1,0h0c0,0,0,0-0.1,0
	c0,0-0.1-0.1-0.2-0.1c0,0,0,0,0,0c-0.1,0-0.2-0.1-0.2-0.2c0,0,0,0-0.1-0.1c0,0-0.1-0.1-0.1-0.1c0,0,0,0,0,0l0,0l0,0
	c-0.1,0-0.1,0-0.2-0.1c0,0-0.1,0-0.1-0.1c0,0,0,0-0.1,0c-0.1,0-0.2,0-0.3,0c0,0,0,0-0.1,0c-0.1,0-0.2,0.1-0.2,0c0,0,0,0-0.1,0
	c-0.1,0-0.2-0.1-0.2-0.2c0,0,0-0.1-0.1-0.1l-0.5-0.1c-0.1,0-0.1,0-0.2-0.1h0h0h0c0,0-0.1,0-0.2,0c0,0-0.1,0-0.2,0
	c-0.1,0-0.2-0.1-0.2-0.1c0,0-0.2-0.1-0.2-0.1l-0.2,0h0c-0.1,0-0.2,0-0.2-0.1c0,0,0,0-0.1,0h-0.2c0,0-0.1,0-0.1,0c0,0-0.1,0-0.2-0.1
	c0,0,0,0-0.1,0c0,0-0.1,0-0.1,0h0c0,0,0,0-0.1,0c0,0-0.1,0-0.2,0h0c-0.1,0-0.2,0-0.2-0.1c0,0,0,0-0.1,0c-0.2,0-0.5,0-0.7-0.1
	c-0.1,0-0.2,0-0.2,0c0,0,0,0-0.1,0l-0.5-0.1h0c-0.3-0.1-0.7-0.2-0.9-0.2h0c-0.1,0-0.2,0-0.4,0c0,0,0,0-0.1,0h0
	c-0.1,0-0.2-0.1-0.2-0.2s0-0.2,0-0.2v0c0.1-0.1,0.1-0.2,0.2-0.2c0,0,0.1-0.1,0.1-0.1c0.1,0,0.2-0.2,0.3-0.2c0,0,0,0,0,0
	c0.2-0.1,0.4-0.2,0.5-0.4c0,0,0,0,0,0c0,0,0-0.1,0.1-0.1l0.1-0.1c0.1-0.1,0.2-0.1,0.4-0.2l0.1,0c0,0,0.1,0,0.2,0c0,0,0,0,0.1,0
	c0.1-0.1,0.3-0.2,0.4-0.3c0.2-0.1,0.4-0.3,0.5-0.4c0,0,0.1,0,0.1,0c0.2,0,0.4-0.2,0.9-0.5c0.4-0.2,0.8-0.5,1.1-0.5c0,0,0,0,0,0
	l0.1-0.1c0.2-0.1,0.4-0.2,0.7-0.3l0.4-0.2l0,0c0,0,0.1-0.1,0.2-0.1c0.1,0,0.2-0.1,0.4-0.1h0c0.2,0,0.4-0.1,0.6-0.2c0,0,0,0,0.1,0
	l0.1,0h0.1c0.2,0,0.4-0.1,0.6-0.2c0.2-0.1,0.4-0.1,0.5-0.2h0h0c0.2-0.1,0.4-0.1,0.5-0.2c0,0,0.1,0,0.1,0c0.1,0,0.3,0,0.6-0.1l0.1,0
	h0h0h0.1c0.1,0,0.2,0,0.3-0.1l0.2,0h0c0,0,0.1,0,0.1,0h0.1h0h0h0.1c0.1,0,0.2,0.1,0.2,0.2s0,0.2-0.1,0.3l-0.2,0.2
	c0,0-0.1,0.1-0.2,0.2c-0.1,0.1-0.2,0.2-0.3,0.3c0,0,0,0-0.1,0c0,0,0,0,0,0l-0.2,0.2c0,0,0,0,0,0c-0.1,0.1-0.2,0.2-0.3,0.3
	c0,0-0.1,0.1-0.2,0.1c0,0,0,0-0.1,0c0,0,0,0,0,0.1c0,0,0,0.1-0.1,0.2c-0.1,0.1-0.2,0.2-0.4,0.4c-0.1,0.2,0,0.4,0,0.5V52v0l0,0.1v0
	c0,0.1,0,0.2,0,0.2v0c0,0.4,0.1,0.5,0.1,0.6c0,0,0,0,0.1,0.1c0,0,0.1,0,0.1,0.1c0,0,0,0,0,0c0,0,0.1,0,0.1,0.1
	c0.2,0.2,0.3,0.4,0.5,0.5c0.1,0,0.1,0,0.2,0.1c0.1,0,0.1,0,0.2,0h0.1h0h0h0h0c0,0,0,0,0,0c0,0,0.1,0,0.1,0c0.2-0.1,0.3-0.2,0.4-0.2
	c0,0,0,0,0.1,0c0.2,0,0.4-0.2,0.5-0.3c0.1-0.1,0.3-0.2,0.4-0.3c0,0,0,0,0-0.1c0-0.1,0.1-0.2,0.2-0.2l0.2-0.1c0,0,0,0,0.1-0.1
	c0-0.1,0.1-0.2,0.2-0.2h0c0,0,0.1-0.1,0.2-0.1c0,0,0,0,0,0c0.1-0.1,0.2-0.2,0.4-0.4c0-0.1,0.1-0.1,0.2-0.2l0.1-0.1l0.1-0.1l0.2-0.2
	c0,0,0.1-0.1,0.1-0.1c0,0,0,0,0,0l0,0c0,0,0,0,0,0C119.3,50.2,119.3,50,119.3,49.9L119.3,49.9z"/>
</svg>
