<svg width="300" height="87" viewBox="0 0 300 87" fill="none" xmlns="http://www.w3.org/2000/svg">
<g clip-path="url(#clip0_1769_5127)">
<path d="M79.2894 10.9818C75.7689 7.47301 71.3502 4.99395 66.5142 3.81448C61.6782 2.63502 56.6102 2.80034 51.862 4.29247C47.1137 5.78459 42.8671 8.54634 39.5842 12.2771C36.3014 16.0079 34.1083 20.5647 33.2434 25.4516C33.1405 26.0103 33.0604 26.5919 33.0032 27.1278C32.946 27.6637 32.9002 28.268 32.8774 28.7926C32.8545 29.3171 32.8774 29.682 32.8774 30.1266V57.2532H56.3522C56.3522 56.8085 56.3522 56.3524 56.3522 55.8849V52.2361H37.8881V30.1266C37.8881 29.6591 37.8881 29.203 37.8881 28.7583C37.8881 28.3137 37.9796 27.6181 38.0597 27.105C38.1398 26.5919 38.2313 25.9647 38.3457 25.4402C39.1934 21.5647 41.0721 17.9881 43.7846 15.0857C46.497 12.1833 49.9433 10.062 53.7617 8.9446C57.5801 7.82717 61.6298 7.75473 65.486 8.73488C69.3422 9.71504 72.8626 11.7116 75.6778 14.5152C78.493 17.3187 80.4992 20.8259 81.4859 24.6685C82.4726 28.5112 82.4035 32.5478 81.2857 36.3546C80.1679 40.1615 78.0427 43.5983 75.1331 46.3044C72.2234 49.0105 68.6367 50.8861 64.7492 51.7344V55.8735C64.7492 56.2042 64.7492 56.5235 64.7492 56.8541C69.6495 55.9926 74.219 53.8086 77.961 50.5394C81.7029 47.2703 84.474 43.0412 85.9731 38.312C87.4721 33.5828 87.6416 28.5345 86.4633 23.7159C85.2849 18.8974 82.8037 14.4931 79.2894 10.9818Z" fill="currentColor"/>
<path d="M37.8884 33.7863H56.4212V55.873C56.4212 56.3405 56.4212 56.7966 56.4212 57.2413C56.4212 57.686 56.3297 58.3815 56.261 58.906C56.1924 59.4306 56.078 60.0463 55.9636 60.5594C55.1145 64.432 53.2359 68.0057 50.5247 70.9058C47.8136 73.806 44.3696 75.9259 40.5539 77.0433C36.7382 78.1607 32.6911 78.2346 28.8369 77.2571C24.9827 76.2796 21.4632 74.2867 18.6474 71.4874C15.8315 68.6881 13.823 65.1853 12.8323 61.3463C11.8416 57.5073 11.9051 53.4733 13.0163 49.6672C14.1275 45.8611 16.2454 42.4229 19.148 39.7131C22.0507 37.0033 25.6312 35.1216 29.5143 34.2652V30.1261C29.5143 29.7954 29.5143 29.4648 29.5143 29.1455C24.4674 30.0277 19.7729 32.3121 15.9708 35.7359C12.1688 39.1596 9.41366 43.5836 8.02241 48.4989C6.63117 53.4142 6.66032 58.6211 8.10652 63.5206C9.55272 68.4201 12.3572 72.8131 16.1974 76.1943C20.0375 79.5756 24.7573 81.8076 29.8138 82.6336C34.8703 83.4597 40.058 82.8462 44.7801 80.8637C49.5023 78.8813 53.567 75.6104 56.5068 71.4274C59.4465 67.2444 61.1418 62.3192 61.3976 57.2185C61.3976 57.0018 61.3976 56.7852 61.3976 56.5685V56.215C61.3976 56.101 61.3976 55.987 61.3976 55.873V28.7578H37.8884C37.8884 29.2025 37.8884 29.6586 37.8884 30.1261V33.7863Z" fill="currentColor"/>
<path d="M121.837 25.6916H106.141L104.723 24.2777V11.4727H107.571V22.8752H119.011V11.4727H121.86L121.837 25.6916Z" fill="currentColor"/>
<path d="M141.808 19.443L140.378 20.8569L141.808 22.2822V25.703H138.948V22.2822H127.508V25.703H124.648V11.4727H127.508V19.4544H138.948V11.4727H141.808V19.443Z" fill="currentColor"/>
<path d="M144.656 11.4727H161.816V20.0131H158.922V21.427H161.77V25.6916H158.922V24.2777C158.164 24.2747 157.439 23.9734 156.903 23.4394C156.367 22.9055 156.065 22.1822 156.062 21.427V20.0131H147.505V25.7144H144.656V11.4727ZM158.922 17.1739V14.3233H147.482V17.1625L158.922 17.1739Z" fill="currentColor"/>
<path d="M164.621 11.4727H181.781V25.6916H178.921V22.2708H167.481V25.6916H164.621V11.4727ZM178.887 19.4544V14.3233H167.447V19.443L178.887 19.4544Z" fill="currentColor"/>
<path d="M184.594 8.63281H187.442V10.9133H184.594V8.63281ZM187.442 11.472V25.691H184.594V11.472H187.442Z" fill="currentColor"/>
<path d="M207.418 25.6916H204.57V21.313L193.13 14.7452V25.6916H190.281V11.4727H193.13L204.57 18.0405V11.4727H207.418V25.6916Z" fill="currentColor"/>
<path d="M210.266 8.63281H213.126V10.9133H210.266V8.63281ZM213.126 11.472V25.691H210.266V11.472H213.126Z" fill="currentColor"/>
<path d="M215.977 11.4727H233.137V25.6916H230.288V22.2708H218.848V25.6916H215.999L215.977 11.4727ZM230.242 19.4544V14.3233H218.802V19.443L230.242 19.4544Z" fill="currentColor"/>
<path d="M253.063 25.6916H250.203V21.313L238.763 14.7452V25.6916H235.914V11.4727H238.763L250.203 18.0405V11.4727H253.063V25.6916Z" fill="currentColor"/>
<path d="M121.837 49.6252H118.988V40.697L113.268 49.6252L111.552 46.9798L107.56 40.697V49.6252H104.723V35.4062H107.571L113.291 44.3344L119.011 35.4062H121.86L121.837 49.6252Z" fill="currentColor"/>
<path d="M124.684 35.4062H141.844V49.6252H138.984V46.2044H127.544V49.6252H124.684V35.4062ZM138.949 43.388V38.2455H127.509V43.3652L138.949 43.388Z" fill="currentColor"/>
<path d="M161.774 43.3652L160.298 44.7905L161.728 46.2044V49.6252H158.925V46.2044H147.485V49.6252H144.637V35.4062H147.485V43.388H158.925V35.4062H161.774V43.3652Z" fill="currentColor"/>
<path d="M181.746 38.2455H167.48V41.0961H177.181V43.9353H167.48V46.7745H181.746V49.6252H164.586V35.4062H181.746V38.2455Z" fill="currentColor"/>
<path d="M184.594 35.4062H201.754V43.9353H198.905V45.3606H201.754V49.6252H198.905V48.1999C198.15 48.1969 197.426 47.8972 196.89 47.3657C196.355 46.8342 196.051 46.1138 196.045 45.3606V43.9353H187.488V49.6366H184.64L184.594 35.4062ZM198.859 41.1075V38.2569H187.419V41.1075H198.859Z" fill="currentColor"/>
<path d="M104.723 59.3281H121.883V73.547H118.988V70.1263H107.548V73.547H104.723V59.3281ZM118.988 67.3099V62.1788H107.548V67.2985L118.988 67.3099Z" fill="currentColor"/>
<path d="M141.809 62.1788H127.544V65.018H141.809V72.1217L140.379 73.547H124.684V70.7078H138.949V67.8572H124.684V60.7534L126.114 59.3281H141.809V62.1788Z" fill="currentColor"/>
<path d="M161.77 62.1788H147.505V65.018H161.77V72.1217L160.295 73.547H144.656V70.7078H158.922V67.8572H144.656V60.7534L146.075 59.3281H161.77V62.1788Z" fill="currentColor"/>
<path d="M164.621 59.3281H181.781V73.547H164.621V59.3281ZM178.887 70.7306V62.1788H167.447V70.7078L178.887 70.7306Z" fill="currentColor"/>
<path d="M201.708 62.1798H187.442V70.7088H201.708V73.5481H186.024L184.594 72.1227V60.7202L186.024 59.2949H201.708V62.1798Z" fill="currentColor"/>
<path d="M204.57 56.4883H207.419V58.7688H204.57V56.4883ZM207.419 59.3275V73.5464H204.57V59.3275H207.419Z" fill="currentColor"/>
<path d="M210.266 59.3281H227.426V73.547H224.566V70.1263H213.126V73.547H210.266V59.3281ZM224.531 67.3099V62.1788H213.091V67.2985L224.531 67.3099Z" fill="currentColor"/>
<path d="M247.356 62.1788H240.229V73.5813H237.369V62.1788H230.242V59.3281H247.402L247.356 62.1788Z" fill="currentColor"/>
<path d="M250.203 56.4883H253.063V58.7688H250.203V56.4883ZM253.063 59.3275V73.5464H250.203V59.3275H253.063Z" fill="currentColor"/>
<path d="M255.91 59.3281H273.07V73.547H255.91V59.3281ZM270.176 70.7306V62.1788H258.736V70.7078L270.176 70.7306Z" fill="currentColor"/>
<path d="M293 73.547H290.151V69.1343L278.711 62.5664V73.5128H275.84V59.3281H278.688L290.128 65.896V59.3281H293V73.547Z" fill="currentColor"/>
</g>
<defs>
<clipPath id="clip0_1769_5127">
<rect width="286" height="80" fill="white" transform="translate(7 3)"/>
</clipPath>
</defs>
</svg>
