<?xml version="1.0" encoding="utf-8"?>
<!-- Generator: Adobe Illustrator 25.4.1, SVG Export Plug-In . SVG Version: 6.00 Build 0)  -->
<svg version="1.1" id="Layer_1" xmlns="http://www.w3.org/2000/svg" xmlns:xlink="http://www.w3.org/1999/xlink" x="0px" y="0px"
	 viewBox="0 0 300 87" enable-background="new 0 0 300 87" xml:space="preserve">
<path fill="#586BEB" d="M108,26.6l-0.7-0.1c-1-0.1-2-0.2-3.1-0.2c-2.3,0-4.5,0.5-6.5,1.6c-1.3,0.7-2.5,1.5-3.5,2.5v-3.4h-7.6v32.7
	h7.9V41.9c0-1.5,0.4-2.9,1.1-4.2c0.7-1.3,1.8-2.3,3.1-3c1.3-0.8,2.9-1.1,4.7-1.1c2,0,3,0.1,3.6,0.2l1,0.2V26.6z"/>
<path fill="#586BEB" d="M144.4,43.3c0-3.1-0.8-6-2.4-8.6c-1.6-2.6-3.8-4.6-6.6-6.1c-2.8-1.5-5.8-2.2-9.2-2.2c-3.4,0-6.5,0.8-9.3,2.2
	c-2.8,1.5-5,3.6-6.6,6.1c-1.6,2.6-2.4,5.5-2.4,8.6c0,3.1,0.8,6,2.4,8.6c1.6,2.6,3.8,4.6,6.6,6.1c2.8,1.5,5.9,2.2,9.3,2.2
	c3.3,0,6.4-0.8,9.2-2.3c2.8-1.5,5-3.5,6.6-6.1C143.6,49.2,144.4,46.4,144.4,43.3z M136.3,43.3c0,1.8-0.4,3.5-1.3,5.1
	c-0.9,1.5-2.1,2.7-3.6,3.5c-3.1,1.7-7.2,1.7-10.3,0c-1.6-0.9-2.8-2.1-3.7-3.5c-0.9-1.5-1.3-3.2-1.3-5.1c0-1.8,0.4-3.5,1.3-5.1
	c0.9-1.5,2.1-2.7,3.7-3.5c1.5-0.9,3.3-1.3,5.2-1.3c1.8,0,3.6,0.4,5.1,1.3c1.5,0.9,2.7,2,3.6,3.5C135.9,39.7,136.3,41.4,136.3,43.3z"
	/>
<path fill="#586BEB" d="M147.1,70.2c0.6-2.4,2.8-3.3,5-2.4c1.9,0.7,3.8,1.9,5.7,2.5c1.3,0.3,2.7,0.5,4.3,0.5c2.8,0,5.3-0.6,7.4-1.9
	c2.1-1.3,3.8-3,4.9-5c1.2-2,1.7-4.2,1.7-6.5c0-2.2-0.6-4.4-1.7-6.4c-1.1-2-2.8-3.7-5-5c-1.7-1-3.7-1.6-5.9-1.9L174.5,34l0.2-0.2
	v-6.8h-29.2v7.2h19.4L153.5,45v5.4h5.3c3,0,5.4,0.6,7.1,1.8c1.7,1.2,2.5,2.8,2.5,5c0,2.2-0.6,3.9-1.8,5.1s-2.8,1.8-4.9,1.8
	c-2.2,0-4.2-0.9-6.2-1.7c-2.1-0.9-4.1-1.5-6.4-1.4c-2.1,0.1-4.1,0.7-5.7,2.1c-1.6,1.3-3.5,3.6-3.5,7.1"/>
<path fill="#586BEB" d="M230.7,50.9l-10.8-24h-5.4h-3.4h-6.9l-14.5,12.7V16.5h-7.9v43h7.9V46.8c0.8,0,1.6,0.4,2.4,1
	c1,0.7,2.4,1.9,4.1,3.6c1.7,1.6,3.3,3,4.7,4.1c1.3,1.1,2.9,2,4.7,2.8c1.8,0.8,3.7,1.2,5.7,1.2h2.6v-7.1H212c-1.2,0-2.4-0.4-3.6-1.2
	c-1.3-0.9-3-2.2-5.1-4c-1.6-1.4-3-2.5-4.2-3.4c-0.8-0.6-1.7-1.2-2.6-1.6L212,29l13.7,30.1l0.2,0.5h9.2L250,26.9h-8.6L230.7,50.9z"/>
<path fill="#586BEB" d="M262.7,26.9h-7.9v32.7h7.9V26.9z"/>
<path fill="#586BEB" d="M292.7,34.1v-7.2h-9.2V16.6h-7.9v10.4h-7.1v7.2h7.1v15.6c0,6.9,3.9,10.5,11.3,10.5c1.8,0,3.3-0.2,4.6-0.6
	l0.6-0.2v-7l-1,0.2c-1,0.2-2.3,0.3-3.8,0.3c-1.4,0-2.4-0.3-2.9-0.8c-0.5-0.5-0.8-1.4-0.8-2.5V34.1H292.7z"/>
<path fill="#586BEB" d="M258.8,23.8c2.6,0,4.7-2,4.7-4.4c0-2.4-2.1-4.4-4.7-4.4c-2.6,0-4.7,2-4.7,4.4
	C254.1,21.8,256.2,23.8,258.8,23.8z"/>
<path fill="#586BEB" d="M37.7,14.4c-17.2,0-31.1,13.2-31.1,29.5c0,16.3,13.9,29.5,31.1,29.5c17.2,0,31.1-13.2,31.1-29.5
	C68.8,27.6,54.9,14.4,37.7,14.4z M56.2,23.6c1,0.9,2,1.8,2.9,2.8L55,30.2L45.8,39c-0.3,0.3-0.6,0.4-0.9,0.5c-0.4,0.1-0.7,0.1-1,0
	c-0.4-0.1-0.6-0.3-0.9-0.5c-0.3-0.3-0.5-0.6-0.6-0.9c-0.1-0.3-0.1-0.6,0-1c0.1-0.3,0.3-0.6,0.5-0.9l9.2-8.7L56.2,23.6z M19.2,23.6
	l4.1,3.9l9.2,8.7c0.3,0.3,0.4,0.5,0.5,0.9c0.1,0.3,0.1,0.6,0,1c-0.1,0.3-0.3,0.6-0.6,0.9c-0.3,0.3-0.6,0.5-0.9,0.5
	c-0.4,0.1-0.7,0.1-1,0c-0.4-0.1-0.6-0.2-0.9-0.5l-9.2-8.7l-4.1-3.9C17.2,25.4,18.1,24.5,19.2,23.6z M19.2,64.2c-1-0.9-2-1.8-2.9-2.8
	l4.1-3.9l9.2-8.7c0.3-0.3,0.6-0.4,0.9-0.5c0.4-0.1,0.7-0.1,1,0c0.4,0.1,0.6,0.3,0.9,0.5c0.3,0.3,0.5,0.6,0.6,0.9
	c0.1,0.3,0.1,0.6,0,1c-0.1,0.3-0.3,0.6-0.5,0.9l-9.2,8.7L19.2,64.2z M56.2,64.2l-4.1-3.9l-9.2-8.7c-0.3-0.3-0.4-0.5-0.5-0.9
	c-0.1-0.3-0.1-0.6,0-1c0.1-0.3,0.3-0.6,0.6-0.9c0.3-0.3,0.6-0.5,0.9-0.5c0.4-0.1,0.7-0.1,1,0c0.4,0.1,0.6,0.2,0.9,0.5l9.2,8.7
	l4.1,3.9C58.2,62.4,57.2,63.3,56.2,64.2z M63,51c-3,2.8-7.8,2.8-10.8,0l-4.3-4.1c-0.6-0.6-1.4-1-2.2-1.2c-0.8-0.2-1.7-0.2-2.5,0
	c-0.2,0.1-0.4,0.1-0.6,0.2c-0.6,0.2-1.1,0.6-1.6,1.1c-0.5,0.5-0.9,1-1.1,1.5c-0.1,0.2-0.1,0.4-0.2,0.6c-0.2,0.8-0.3,1.6,0,2.4
	c0.2,0.8,0.6,1.5,1.3,2.1l4.3,4.1c3,2.8,3,7.4,0,10.2c-4.2,3.9-10.9,3.9-15,0c-3-2.8-3-7.4,0-10.2l4.3-4.1c0.6-0.6,1.1-1.3,1.3-2.1
	c0.2-0.8,0.2-1.6,0-2.4c-0.2-0.8-0.7-1.5-1.3-2.1c-0.6-0.6-1.4-1-2.2-1.3c-0.8-0.2-1.7-0.2-2.5,0c-0.8,0.2-1.6,0.6-2.2,1.2L25,49.2
	L23.1,51c-3,2.8-7.8,2.8-10.8,0c-4.2-3.9-4.2-10.3,0-14.2c3-2.8,7.8-2.8,10.8,0l4.3,4.1c0.6,0.6,1.4,1,2.2,1.2
	c0.8,0.2,1.7,0.2,2.5,0c0.2-0.1,0.5-0.2,0.7-0.2c0.6-0.2,1.1-0.6,1.5-1c0.5-0.4,0.8-0.9,1.1-1.4c0.1-0.2,0.2-0.4,0.3-0.7
	c0.2-0.8,0.3-1.6,0-2.4c-0.2-0.8-0.6-1.5-1.3-2.1l-4.3-4.1c-3-2.8-3-7.4,0-10.2c4.2-3.9,10.9-3.9,15,0c3,2.8,3,7.4,0,10.2l-2,1.9
	l-2.4,2.3c-0.6,0.6-1.1,1.3-1.3,2.1c-0.2,0.8-0.2,1.6,0,2.4c0.2,0.8,0.7,1.5,1.3,2.1c0.6,0.6,1.4,1,2.2,1.3c0.8,0.2,1.7,0.2,2.5,0
	c0.8-0.2,1.6-0.6,2.2-1.2l4.3-4.1c3-2.8,7.8-2.8,10.8,0C67.1,40.7,67.1,47.1,63,51z"/>
</svg>
