<svg width="146" height="146" viewBox="0 0 146 146" fill="none" xmlns="http://www.w3.org/2000/svg">
<g clip-path="url(#clip0_1685_8668)">
<path d="M146 73C146 113.317 113.317 146 73 146C32.6832 146 0 113.317 0 73C0 32.6832 32.6832 0 73 0C113.317 0 146 32.6832 146 73Z" fill="#84F3B4"/>
<path d="M91.1958 20.7272L96.4868 14.3942L97.486 14.8391L95.6528 17.4009L90.0617 23.9851L89.0696 23.5434L91.1958 20.7272ZM92.2902 12.5258L90.7669 20.3652L89.7976 23.8675L88.8127 23.429L90.9199 11.9157L92.2902 12.5258ZM96.9936 23.1289L101.761 16.7425L103.139 17.3558L95.9998 26.6288L95.0148 26.1903L96.9936 23.1289ZM97.6359 14.9058L96.413 23.05L95.7428 26.5145L94.7508 26.0728L95.9811 17.547L96.651 14.4673L97.6359 14.9058Z" fill="#004737"/>
<path d="M112.502 25.2543L102.829 30.5542L101.673 29.538L112.44 23.8577L113.185 24.5128L112.502 25.2543ZM108.028 35.1244L112.038 24.8468L112.686 24.0744L113.431 24.7295L109.189 36.1457L108.028 35.1244ZM110.661 31.8328L109.846 32.7599L105.046 28.5405L105.861 27.6134L110.661 31.8328Z" fill="#004737"/>
<path d="M124.573 37.0712L115.062 43.3096L114.247 42.0684L123.759 35.83L124.573 37.0712ZM126.578 40.1286L125.546 40.8055L120.726 33.4562L121.758 32.7792L126.578 40.1286Z" fill="#004737"/>
<path d="M125.612 57.1096L126.058 58.5416C125.349 58.681 124.673 58.676 124.032 58.5268C123.391 58.3775 122.82 58.0617 122.321 57.5791C121.826 57.095 121.443 56.4179 121.172 55.5478C120.974 54.9113 120.912 54.2949 120.988 53.6983C121.066 53.1068 121.265 52.5564 121.586 52.047C121.912 51.5361 122.352 51.0827 122.905 50.6866C123.465 50.2939 124.125 49.9789 124.886 49.7418L125.967 49.4046C126.728 49.1674 127.447 49.0521 128.126 49.0588C128.811 49.0688 129.434 49.1938 129.994 49.4338C130.556 49.6786 131.04 50.0324 131.446 50.495C131.852 50.9576 132.16 51.5245 132.369 52.1957C132.625 53.0162 132.687 53.7579 132.556 54.4208C132.424 55.0838 132.134 55.6571 131.684 56.1409C131.242 56.6281 130.674 57.0206 129.981 57.3185L129.535 55.8864C130.02 55.6587 130.415 55.3938 130.719 55.0917C131.028 54.788 131.228 54.4311 131.318 54.0211C131.408 53.611 131.366 53.125 131.191 52.5632C131.04 52.0808 130.816 51.6844 130.517 51.3738C130.22 51.0682 129.864 50.8438 129.448 50.7006C129.034 50.5624 128.571 50.5048 128.06 50.5277C127.549 50.5507 127.005 50.6521 126.428 50.8319L125.332 51.1738C124.8 51.3396 124.317 51.5501 123.884 51.8053C123.452 52.0653 123.096 52.3648 122.814 52.7036C122.532 53.0424 122.344 53.4201 122.251 53.8367C122.162 54.2517 122.193 54.7004 122.343 55.1827C122.534 55.7943 122.783 56.2513 123.09 56.5538C123.397 56.8564 123.76 57.043 124.181 57.1138C124.603 57.1896 125.08 57.1882 125.612 57.1096Z" fill="#004737"/>
<path d="M130.702 73.2113L129.476 73.2232L129.416 67.0672L130.643 67.0553L130.702 73.2113ZM135.535 67.2423L124.161 67.3525L124.146 65.8448L135.521 65.7346L135.535 67.2423ZM135.605 74.4764L124.231 74.5866L124.216 73.0866L135.591 72.9764L135.605 74.4764Z" fill="#004737"/>
<path d="M121.044 95.0927L128.082 102.495L127.333 103.946L119.155 94.9884L119.689 93.9539L121.044 95.0927ZM131.055 96.7326L120.958 95.2594L119.234 94.8357L119.768 93.8012L131.804 95.2815L131.055 96.7326Z" fill="#004737"/>
<path d="M121.545 112.332L112.967 104.862L113.958 103.725L122.535 111.195L121.545 112.332Z" fill="#004737"/>
<path d="M104.651 113.174L106.594 111.808L107.287 112.821L105.356 114.177C104.691 114.644 104.235 115.172 103.986 115.76C103.741 116.353 103.684 116.979 103.816 117.637C103.946 118.303 104.249 118.975 104.726 119.652L105.125 120.221C105.5 120.754 105.896 121.182 106.314 121.506C106.736 121.833 107.17 122.053 107.618 122.165C108.069 122.281 108.525 122.288 108.988 122.185C109.447 122.086 109.906 121.875 110.366 121.551L112.463 120.078L113.173 121.088L111.076 122.561C110.467 122.989 109.839 123.278 109.192 123.427C108.549 123.58 107.911 123.592 107.279 123.463C106.646 123.341 106.042 123.079 105.465 122.675C104.892 122.276 104.369 121.74 103.895 121.066L103.505 120.51C103.031 119.837 102.703 119.161 102.518 118.482C102.337 117.807 102.299 117.15 102.403 116.51C102.503 115.873 102.741 115.27 103.117 114.7C103.492 114.138 104.003 113.629 104.651 113.174ZM112.476 121.577L105.936 112.271L107.169 111.404L113.71 120.71L112.476 121.577Z" fill="#004737"/>
<path d="M88.4106 123.055L88.0066 121.897L93.6941 119.913L94.098 121.071L88.4106 123.055ZM97.1523 130.754L93.4064 120.014L94.8301 119.517L98.576 130.258L97.1523 130.754ZM90.8945 127.757L90.4905 126.599L95.4256 124.878L95.8295 126.036L90.8945 127.757ZM91.8263 132.612L91.4198 131.446L97.0335 129.488L97.44 130.654L91.8263 132.612Z" fill="#004737"/>
<path d="M73.3019 130.281L73.2624 129.564C73.2155 128.711 73.2801 127.941 73.4561 127.253C73.6322 126.565 73.9074 125.974 74.2818 125.478C74.6562 124.983 75.1174 124.595 75.6653 124.315C76.2081 124.034 76.8253 123.875 77.5169 123.837C78.1878 123.8 78.8109 123.891 79.3863 124.11C79.9565 124.329 80.46 124.664 80.8968 125.115C81.3285 125.565 81.6747 126.123 81.9355 126.787C82.1963 127.45 82.3501 128.209 82.397 129.062L82.4365 129.779C82.4834 130.632 82.4161 131.4 82.2345 132.083C82.0481 132.771 81.7651 133.363 81.3854 133.859C81.0061 134.359 80.5451 134.75 80.0024 135.03C79.4544 135.311 78.845 135.469 78.1742 135.506C77.4825 135.544 76.8516 135.454 76.2814 135.235C75.706 135.016 75.205 134.678 74.7782 134.222C74.3466 133.771 74.0056 133.213 73.7552 132.549C73.4999 131.89 73.3488 131.134 73.3019 130.281ZM74.7523 129.482L74.7927 130.215C74.8298 130.891 74.9329 131.485 75.1019 131.998C75.2657 132.51 75.49 132.936 75.7746 133.275C76.0593 133.614 76.3991 133.864 76.7939 134.025C77.1835 134.186 77.6202 134.254 78.1038 134.227C78.5719 134.201 78.9907 134.087 79.3603 133.884C79.7248 133.681 80.0325 133.396 80.2835 133.027C80.5292 132.659 80.7106 132.211 80.8277 131.683C80.9447 131.155 80.9846 130.553 80.9474 129.877L80.9071 129.143C80.8696 128.462 80.7637 127.863 80.5892 127.346C80.415 126.834 80.1828 126.406 79.8926 126.062C79.5976 125.723 79.2578 125.473 78.8734 125.312C78.4837 125.151 78.0549 125.083 77.5868 125.109C77.098 125.136 76.6687 125.251 76.2991 125.453C75.9295 125.656 75.6244 125.942 75.3838 126.31C75.1383 126.683 74.9623 127.133 74.8556 127.661C74.7493 128.194 74.7149 128.801 74.7523 129.482Z" fill="#004737"/>
<path d="M52.389 123.916L46.8797 130.06L45.8967 129.58L47.8184 127.084L53.6364 120.7L54.6124 121.176L52.389 123.916ZM51.0083 132.074L52.805 124.293L53.8962 120.826L54.8652 121.299L52.3565 132.732L51.0083 132.074ZM46.6788 121.313L41.6907 127.529L40.3356 126.867L47.7945 117.85L48.7634 118.322L46.6788 121.313ZM45.7492 129.508L47.2563 121.412L48.0472 117.973L49.0232 118.449L47.4954 126.927L46.7182 129.981L45.7492 129.508Z" fill="#004737"/>
<path d="M31.2635 118.657L41.1134 113.693L42.2336 114.748L31.2775 120.054L30.5553 119.374L31.2635 118.657ZM36.0753 108.946L31.7127 119.08L31.0387 119.829L30.3165 119.149L34.9494 107.886L36.0753 108.946ZM33.3299 112.145L34.1763 111.247L38.8278 115.629L37.9813 116.528L33.3299 112.145Z" fill="#004737"/>
<path d="M19.6084 106.435L29.3299 100.529L30.1006 101.797L20.3792 107.704L19.6084 106.435ZM17.71 103.31L18.7649 102.669L23.3285 110.181L22.2736 110.822L17.71 103.31Z" fill="#004737"/>
<path d="M19.2636 86.3587L18.8675 84.912C19.5814 84.7975 20.2561 84.8261 20.8917 84.9977C21.5272 85.1693 22.0862 85.505 22.5686 86.0047C23.046 86.5058 23.4051 87.1959 23.6457 88.075C23.8218 88.718 23.8614 89.3363 23.7647 89.9298C23.6666 90.5182 23.4481 91.0613 23.1092 91.5591C22.7652 92.0583 22.31 92.4961 21.7434 92.8726C21.1705 93.2454 20.4998 93.5371 19.7312 93.7475L18.6386 94.0466C17.87 94.257 17.1467 94.347 16.4688 94.3166C15.7845 94.2826 15.1665 94.1358 14.6149 93.8765C14.0619 93.6121 13.5906 93.2416 13.2009 92.7651C12.8113 92.2885 12.5236 91.7112 12.338 91.033C12.111 90.2041 12.0749 89.4607 12.2296 88.8028C12.3843 88.1448 12.6946 87.582 13.1605 87.1142C13.6201 86.6428 14.2012 86.2704 14.904 85.997L15.3 87.4438C14.8069 87.6544 14.4031 87.9054 14.0886 88.1966C13.7692 88.4893 13.5571 88.839 13.4524 89.2456C13.3477 89.6523 13.3731 90.1394 13.5285 90.7071C13.6619 91.1944 13.8724 91.5984 14.1601 91.9193C14.4463 92.2351 14.7947 92.4719 15.205 92.6295C15.614 92.7821 16.0743 92.8559 16.5859 92.8509C17.0975 92.8458 17.6447 92.7635 18.2274 92.604L19.3351 92.3007C19.8726 92.1536 20.3623 91.9601 20.8043 91.7203C21.2449 91.4755 21.6119 91.1887 21.9053 90.86C22.1987 90.5313 22.3995 90.1604 22.5078 89.7473C22.6111 89.3357 22.5961 88.8862 22.4627 88.3989C22.2935 87.781 22.0608 87.3155 21.7645 87.0025C21.4682 86.6894 21.1112 86.4901 20.6936 86.4046C20.2747 86.3141 19.798 86.2988 19.2636 86.3587Z" fill="#004737"/>
<path d="M14.7326 70.0627L15.9588 70.0933L15.8051 76.2476L14.579 76.217L14.7326 70.0627ZM9.69571 75.8607L21.0672 76.1446L21.0295 77.6519L9.65807 77.368L9.69571 75.8607ZM9.87628 68.6285L21.2477 68.9125L21.2103 70.412L9.83884 70.1281L9.87628 68.6285Z" fill="#004737"/>
<path d="M25.1435 48.5625L18.3673 40.9199L19.166 39.4957L27.0277 48.7324L26.4584 49.7477L25.1435 48.5625ZM15.1957 46.5757L25.2352 48.3989L26.9437 48.8823L26.3743 49.8976L14.397 47.9998L15.1957 46.5757Z" fill="#004737"/>
<path d="M25.242 31.3194L33.5573 39.0814L32.5284 40.1836L24.2132 32.4217L25.242 31.3194Z" fill="#004737"/>
<path d="M42.1546 31.0602L40.1654 32.3578L39.5083 31.3219L41.4845 30.0329C42.165 29.589 42.6396 29.0773 42.9084 28.4978C43.1742 27.914 43.2527 27.2907 43.1438 26.628C43.0364 25.9581 42.7565 25.2763 42.304 24.5827L41.9242 24.0003C41.5685 23.455 41.1872 23.0135 40.7803 22.6757C40.3706 22.3336 39.9439 22.0989 39.5002 21.9716C39.0537 21.84 38.5974 21.8174 38.1314 21.9037C37.6697 21.9872 37.2033 22.1826 36.7322 22.4899L34.5859 23.8899L33.9116 22.8561L36.0578 21.4561C36.6817 21.0492 37.3192 20.7825 37.9706 20.6562C38.6191 20.5254 39.2568 20.5354 39.8836 20.6862C40.5121 20.8297 41.1073 21.113 41.6693 21.5362C42.2285 21.9549 42.7329 22.5089 43.1825 23.1982L43.5538 23.7675C44.0034 24.4567 44.3086 25.1438 44.4693 25.8287C44.6271 26.5092 44.6429 27.1674 44.5167 27.8032C44.3947 28.4362 44.136 29.0309 43.7404 29.5875C43.3463 30.1368 42.8177 30.6277 42.1546 31.0602ZM34.6248 22.3908L40.8393 31.9182L39.5765 32.7419L33.3619 23.2146L34.6248 22.3908Z" fill="#004737"/>
<path d="M58.7222 21.7508L59.0855 22.9223L53.3323 24.7063L52.969 23.5348L58.7222 21.7508ZM50.2542 13.7515L53.6233 24.6161L52.1831 25.0627L48.8141 14.198L50.2542 13.7515ZM56.4038 16.9649L56.7671 18.1364L51.775 19.6844L51.4117 18.5129L56.4038 16.9649ZM55.6418 12.0808L56.0074 13.2598L50.3288 15.0207L49.9632 13.8417L55.6418 12.0808Z" fill="#004737"/>
<path d="M74.1024 15.0503L74.1169 15.7689C74.1343 16.6229 74.0431 17.3905 73.8433 18.0718C73.6436 18.7531 73.348 19.3347 72.9567 19.8167C72.5653 20.2987 72.091 20.6704 71.5337 20.9318C70.9816 21.193 70.3593 21.3307 69.6667 21.3447C68.995 21.3584 68.3754 21.2459 67.8079 21.0074C67.2456 20.7688 66.754 20.4167 66.333 19.9512C65.9172 19.4856 65.5905 18.9166 65.3529 18.2442C65.1152 17.5718 64.9877 16.8086 64.9704 15.9546L64.9558 15.236C64.9385 14.382 65.0323 13.6169 65.2374 12.9407C65.4476 12.2592 65.7509 11.6774 66.1475 11.1953C66.5439 10.708 67.0182 10.3337 67.5703 10.0725C68.1276 9.81111 68.7421 9.67361 69.4139 9.65997C70.1064 9.64591 70.7338 9.7582 71.2961 9.99684C71.8635 10.2354 72.3526 10.5901 72.7633 11.061C73.1791 11.5266 73.5006 12.0958 73.7278 12.7684C73.9602 13.4357 74.085 14.1963 74.1024 15.0503ZM72.6251 15.7992L72.6102 15.065C72.5964 14.388 72.514 13.7906 72.3628 13.2727C72.2168 12.7548 72.0075 12.3214 71.7347 11.9727C71.462 11.624 71.1311 11.3624 70.742 11.188C70.3582 11.0135 69.9241 10.9311 69.4399 10.941C68.9712 10.9505 68.5487 11.0502 68.1722 11.2402C67.801 11.43 67.4836 11.7048 67.22 12.0644C66.9616 12.4238 66.7648 12.8654 66.6296 13.3891C66.4944 13.9128 66.4336 14.5131 66.4474 15.1901L66.4623 15.9243C66.4761 16.6064 66.5613 17.209 66.7178 17.732C66.8741 18.2497 67.0914 18.6855 67.3694 19.0393C67.6526 19.3878 67.9835 19.6494 68.3621 19.824C68.7459 19.9986 69.1722 20.0811 69.6408 20.0716C70.1303 20.0616 70.5633 19.9617 70.9397 19.7717C71.3161 19.5817 71.6309 19.3071 71.8841 18.9477C72.1424 18.583 72.3339 18.1389 72.4588 17.6154C72.5835 17.0868 72.6389 16.4813 72.6251 15.7992Z" fill="#004737"/>
</g>
<defs>
<clipPath id="clip0_1685_8668">
<rect width="146" height="146" fill="white"/>
</clipPath>
</defs>
</svg>
