<svg width="146" height="146" viewBox="0 0 146 146" fill="none" xmlns="http://www.w3.org/2000/svg">
<g clip-path="url(#clip0_1685_8668)">
<circle cx="73" cy="73" r="73" fill="#84F3B4"/>
<path d="M81.5467 16.799L81.4252 17.7758L74.5684 16.9231L74.6899 15.9462L81.5467 16.799ZM74.8828 15.9702L74.4842 19.1746L73.2958 19.0268L73.6881 15.8216L74.8828 15.9702ZM82.592 16.929L82.1818 20.1256L80.9934 19.9778L81.3911 16.7796L82.592 16.929ZM81.3759 8.57018L81.2536 9.55327L77.2839 9.05956L77.4062 8.07646L81.3759 8.57018ZM82.4088 8.69863L81.2821 17.758L80.0874 17.6095L81.2141 8.55006L82.4088 8.69863ZM76.9955 8.02539L78.1964 8.17474L77.5563 11.7977C77.4633 12.3421 77.3485 12.8418 77.2119 13.2965C77.0758 13.7472 76.926 14.1561 76.7624 14.5233C76.5987 14.8904 76.4235 15.2162 76.2365 15.5004C76.05 15.7805 75.858 16.0199 75.6606 16.2186C75.4637 16.4131 75.2632 16.5693 75.059 16.6871C74.8594 16.8013 74.6627 16.8758 74.4688 16.9107L73.9213 16.8426L74.0428 15.8657L74.4286 15.9137C74.5508 15.811 74.6941 15.6582 74.8583 15.4554C75.0267 15.2531 75.201 14.9862 75.3812 14.6548C75.5661 14.3197 75.7419 13.9056 75.9085 13.4125C76.0793 12.9198 76.2262 12.3315 76.3492 11.6476L76.9955 8.02539Z" fill="#004737"/>
<path d="M89.9199 17.4498L96.6432 12.5002L97.7725 12.9351L94.4919 21.4545L93.3626 21.0196L95.8929 14.4487L89.1673 19.4041L88.0439 18.9715L91.3245 10.4521L92.4479 10.8847L89.9199 17.4498Z" fill="#004737"/>
<path d="M105.317 22.3415L103.399 21.0467L103.933 20.2343L105.673 21.4098C105.961 21.604 106.245 21.7251 106.525 21.7731C106.805 21.8211 107.065 21.7949 107.305 21.6943C107.55 21.5925 107.758 21.4152 107.929 21.1624C108.116 20.8852 108.214 20.6238 108.224 20.3781C108.239 20.1312 108.165 19.8943 108 19.6672C107.842 19.439 107.596 19.2127 107.263 18.9881L105.788 17.9915L101.233 24.7362L100.23 24.059L105.339 16.4933L107.818 18.1671C108.206 18.4291 108.525 18.7029 108.776 18.9884C109.03 19.2705 109.206 19.566 109.305 19.875C109.41 20.1828 109.432 20.5006 109.372 20.8284C109.312 21.1561 109.163 21.4966 108.925 21.85C108.714 22.1618 108.444 22.3903 108.114 22.5356C107.786 22.6774 107.426 22.732 107.034 22.6996C106.646 22.6694 106.248 22.5494 105.84 22.3394L105.317 22.3415ZM102.88 25.8486L100.615 24.3187L101.732 23.8853L103.431 25.0328C103.75 25.248 104.057 25.375 104.354 25.4139C104.654 25.4551 104.931 25.415 105.184 25.2936C105.44 25.1688 105.662 24.9678 105.849 24.6907C106.038 24.4101 106.152 24.1336 106.189 23.8614C106.227 23.5892 106.176 23.3251 106.036 23.0693C105.896 22.8134 105.656 22.5708 105.317 22.3415L103.888 21.3766L104.442 20.5782L106.396 21.8975L106.412 22.3324C106.755 22.6092 106.993 22.9213 107.127 23.2688C107.263 23.6128 107.305 23.9643 107.254 24.3234C107.207 24.6848 107.073 25.0284 106.853 25.354C106.535 25.8251 106.162 26.1533 105.735 26.3386C105.313 26.5227 104.857 26.5733 104.369 26.4904C103.882 26.4041 103.386 26.1901 102.88 25.8486Z" fill="#004737"/>
<path d="M112.434 30.4576L120.64 28.9202L121.468 29.8025L114.812 36.0508L113.984 35.1686L119.118 30.3493L110.907 31.8909L110.083 31.0132L116.739 24.7649L117.563 25.6426L112.434 30.4576Z" fill="#004737"/>
<path d="M128.276 38.9881L120.418 43.6347L119.812 42.6093L127.67 37.9627L128.276 38.9881ZM129.77 41.514L128.917 42.0182L125.327 35.9464L126.18 35.4422L129.77 41.514Z" fill="#004737"/>
<path d="M126.831 51.3966L134.903 53.5272L135.273 54.6795L126.581 57.4694L126.211 56.3172L132.915 54.1653L124.837 52.0366L124.469 50.8903L133.162 48.1004L133.529 49.2467L126.831 51.3966Z" fill="#004737"/>
<path d="M131.501 68.8312L131.597 70.0312C131.017 70.015 130.489 69.8919 130.014 69.6618C129.538 69.4317 129.147 69.0836 128.842 68.6176C128.54 68.1512 128.36 67.5535 128.301 66.8243C128.258 66.291 128.319 65.7976 128.484 65.344C128.649 64.8945 128.902 64.4988 129.244 64.1568C129.589 63.8145 130.014 63.5371 130.516 63.3247C131.024 63.1161 131.596 62.9861 132.234 62.9348L133.14 62.8618C133.777 62.8105 134.361 62.8474 134.891 62.9725C135.426 63.1014 135.891 63.3092 136.288 63.596C136.684 63.887 137.001 64.2494 137.237 64.6833C137.473 65.1172 137.614 65.6154 137.659 66.1779C137.715 66.8654 137.632 67.457 137.412 67.9528C137.192 68.4486 136.863 68.8461 136.426 69.1455C135.993 69.4488 135.48 69.6558 134.885 69.7666L134.788 68.5666C135.208 68.4741 135.564 68.3364 135.856 68.1536C136.151 67.9704 136.371 67.7263 136.514 67.4212C136.657 67.1161 136.71 66.7282 136.672 66.2574C136.639 65.8532 136.533 65.5032 136.354 65.2073C136.176 64.9155 135.936 64.6769 135.636 64.4914C135.337 64.31 134.985 64.1832 134.58 64.1109C134.176 64.0386 133.732 64.0219 133.249 64.0608L132.33 64.1348C131.885 64.1707 131.469 64.2502 131.085 64.3734C130.701 64.5008 130.369 64.6722 130.089 64.8876C129.808 65.1031 129.595 65.3657 129.448 65.6752C129.305 65.9845 129.25 66.3412 129.282 66.7453C129.323 67.2578 129.437 67.6596 129.624 67.9507C129.811 68.2418 130.063 68.4521 130.38 68.5818C130.697 68.7156 131.07 68.7988 131.501 68.8312Z" fill="#004737"/>
<path d="M134.097 77.6597L133.755 80.1254C133.663 80.7878 133.474 81.3313 133.188 81.7558C132.905 82.1808 132.549 82.4838 132.118 82.6648C131.688 82.8457 131.206 82.8992 130.672 82.8252C130.274 82.7701 129.919 82.6534 129.606 82.475C129.298 82.2972 129.039 82.0609 128.831 81.7662C128.627 81.4721 128.485 81.1254 128.405 80.7261C128.33 80.3274 128.327 79.8796 128.395 79.3828L128.863 76.0041L137.906 77.257L137.74 78.4557L129.672 77.3379L129.37 79.5179C129.309 79.9609 129.34 80.3302 129.464 80.6259C129.591 80.9262 129.778 81.159 130.025 81.324C130.273 81.4891 130.547 81.5926 130.85 81.6344C131.152 81.6763 131.438 81.6506 131.708 81.5572C131.979 81.4639 132.208 81.2888 132.395 81.032C132.586 80.78 132.713 80.4324 132.774 79.9894L133.116 77.5238L134.097 77.6597Z" fill="#004737"/>
<path d="M127.179 98.8876L128.227 96.8247L129.099 97.2535L128.148 99.1263C127.991 99.4357 127.906 99.7324 127.893 100.016C127.88 100.301 127.938 100.555 128.068 100.78C128.199 101.011 128.401 101.195 128.673 101.334C128.971 101.485 129.242 101.55 129.488 101.529C129.734 101.514 129.96 101.411 130.165 101.219C130.372 101.034 130.566 100.762 130.748 100.404L131.554 98.8165L124.297 95.1319L124.845 94.0529L132.985 98.1861L131.631 100.853C131.419 101.27 131.187 101.621 130.935 101.906C130.686 102.192 130.415 102.403 130.121 102.54C129.828 102.682 129.516 102.744 129.183 102.725C128.85 102.706 128.494 102.6 128.114 102.407C127.778 102.237 127.518 101.997 127.333 101.687C127.152 101.379 127.053 101.029 127.037 100.636C127.018 100.248 127.088 99.8376 127.246 99.4068L127.179 98.8876ZM123.398 96.9041L124.635 94.4666L125.204 95.5216L124.275 97.3498C124.101 97.6927 124.013 98.0137 124.011 98.3128C124.008 98.6156 124.082 98.8852 124.233 99.1217C124.389 99.3601 124.616 99.555 124.914 99.7064C125.216 99.8597 125.504 99.9381 125.779 99.9417C126.054 99.9453 126.31 99.8618 126.546 99.6913C126.783 99.5207 126.994 99.2529 127.179 98.8876L127.96 97.3502L128.821 97.8014L127.753 99.9034L127.324 99.9737C127.092 100.348 126.811 100.623 126.483 100.798C126.159 100.976 125.815 101.062 125.453 101.056C125.088 101.053 124.731 100.963 124.38 100.785C123.873 100.528 123.501 100.199 123.265 99.7971C123.03 99.4012 122.923 98.9556 122.945 98.4604C122.97 97.967 123.121 97.4483 123.398 96.9041Z" fill="#004737"/>
<path d="M125.67 110.91L118.343 105.465L119.065 104.494L126.392 109.939L125.67 110.91Z" fill="#004737"/>
<path d="M110.307 115.788L109.639 115.065L114.712 110.374L115.38 111.097L110.307 115.788ZM115.238 111.229L113.045 108.858L113.925 108.045L116.122 110.412L115.238 111.229ZM109.534 116.503L107.355 114.128L108.234 113.315L110.422 115.682L109.534 116.503ZM116.707 120.963L116.034 120.236L118.972 117.52L119.644 118.248L116.707 120.963ZM115.943 121.67L109.745 114.967L110.629 114.15L116.827 120.853L115.943 121.67ZM119.948 117.967L119.059 118.788L116.703 115.963C116.347 115.541 116.039 115.131 115.779 114.733C115.523 114.339 115.307 113.96 115.132 113.599C114.957 113.237 114.821 112.893 114.724 112.566C114.63 112.243 114.571 111.942 114.546 111.663C114.525 111.387 114.535 111.133 114.576 110.901C114.618 110.675 114.687 110.477 114.786 110.306L115.191 109.931L115.859 110.654L115.574 110.918C115.573 111.078 115.598 111.286 115.647 111.542C115.693 111.801 115.785 112.107 115.922 112.458C116.059 112.815 116.262 113.217 116.531 113.662C116.798 114.11 117.153 114.602 117.596 115.137L119.948 117.967Z" fill="#004737"/>
<path d="M99.9546 122.986L99.4628 122.133L103.651 119.718L104.142 120.571L99.9546 122.986ZM108 127.749L103.439 119.84L104.487 119.236L109.048 127.144L108 127.749ZM102.617 126.322L102.125 125.469L105.759 123.374L106.25 124.226L102.617 126.322ZM104.078 130.01L103.583 129.152L107.716 126.768L108.211 127.627L104.078 130.01Z" fill="#004737"/>
<path d="M89.4465 131.422L89.2724 130.872C89.0655 130.218 88.9617 129.607 88.961 129.037C88.9604 128.467 89.0561 127.952 89.2481 127.493C89.4402 127.033 89.7211 126.639 90.0909 126.312C90.4568 125.985 90.9047 125.738 91.4347 125.57C91.9488 125.408 92.4513 125.354 92.9422 125.409C93.4292 125.465 93.8875 125.625 94.3171 125.888C94.7428 126.152 95.1233 126.516 95.4587 126.98C95.7941 127.444 96.0652 128.002 96.2722 128.656L96.4463 129.206C96.6532 129.859 96.7544 130.47 96.7497 131.037C96.7424 131.609 96.6407 132.126 96.4447 132.587C96.25 133.052 95.9697 133.447 95.6038 133.774C95.234 134.101 94.7921 134.346 94.278 134.509C93.748 134.677 93.2395 134.733 92.7525 134.676C92.2616 134.621 91.8046 134.459 91.3817 134.19C90.956 133.926 90.5795 133.56 90.2521 133.094C89.922 132.633 89.6534 132.076 89.4465 131.422ZM90.4141 130.511L90.592 131.072C90.756 131.59 90.9549 132.032 91.1887 132.396C91.4185 132.762 91.6779 133.048 91.9669 133.255C92.256 133.461 92.57 133.588 92.9091 133.634C93.2441 133.681 93.597 133.646 93.9676 133.529C94.3263 133.415 94.629 133.243 94.8757 133.011C95.1185 132.781 95.3006 132.497 95.422 132.161C95.5394 131.825 95.5909 131.441 95.5763 131.007C95.5617 130.573 95.4724 130.097 95.3083 129.579L95.1304 129.017C94.9652 128.495 94.763 128.051 94.524 127.683C94.2862 127.32 94.0202 127.034 93.7259 126.825C93.4289 126.621 93.1149 126.494 92.7838 126.446C92.4487 126.398 92.1019 126.431 91.7432 126.545C91.3686 126.663 91.0579 126.839 90.8112 127.07C90.5644 127.302 90.3843 127.585 90.2709 127.919C90.1547 128.258 90.1079 128.643 90.1304 129.075C90.1543 129.51 90.2488 129.988 90.4141 130.511Z" fill="#004737"/>
<path d="M68.4878 129.661L68.5362 128.677L75.4375 129.017L75.3891 130L68.4878 129.661ZM75.1949 129.991L75.3537 126.766L76.5498 126.825L76.3973 130.05L75.1949 129.991ZM67.4357 129.609L67.6067 126.391L68.8029 126.449L68.6444 129.668L67.4357 129.609ZM69.2709 137.854L69.3196 136.864L73.3151 137.061L73.2664 138.051L69.2709 137.854ZM68.2314 137.803L68.6803 128.684L69.8827 128.744L69.4338 137.862L68.2314 137.803ZM73.6797 138.071L72.4711 138.011L72.8396 134.351C72.8918 133.801 72.969 133.294 73.0714 132.83C73.1735 132.371 73.2925 131.952 73.4283 131.574C73.5641 131.195 73.7147 130.857 73.88 130.56C74.0451 130.267 74.2187 130.014 74.4007 129.801C74.5826 129.592 74.771 129.422 74.9658 129.289C75.1563 129.16 75.3469 129.071 75.5377 129.022L76.0888 129.049L76.0404 130.032L75.6521 130.013C75.5378 130.125 75.4063 130.288 75.2576 130.502C75.1048 130.717 74.9508 130.996 74.7958 131.34C74.6364 131.688 74.492 132.114 74.3625 132.618C74.2289 133.122 74.1262 133.719 74.0545 134.411L73.6797 138.071Z" fill="#004737"/>
<path d="M60.0763 129.636L53.7434 135.076L52.5846 134.728L55.2165 125.986L56.3753 126.335L54.3453 133.077L60.68 127.631L61.8328 127.978L59.2009 136.72L58.0481 136.373L60.0763 129.636Z" fill="#004737"/>
<path d="M44.3544 125.91L46.3629 127.059L45.8914 127.908L44.0679 126.866C43.7667 126.694 43.4746 126.594 43.1915 126.567C42.9085 126.54 42.6513 126.585 42.42 126.704C42.183 126.823 41.9888 127.016 41.8374 127.28C41.6714 127.571 41.5927 127.839 41.6015 128.085C41.6045 128.332 41.6965 128.563 41.8774 128.777C42.0526 128.993 42.3143 129.2 42.6627 129.399L44.2085 130.283L48.2483 123.218L49.2988 123.819L44.7673 131.744L42.1709 130.259C41.7645 130.027 41.4255 129.778 41.1539 129.512C40.8802 129.249 40.6825 128.968 40.5608 128.667C40.4333 128.368 40.3872 128.052 40.4226 127.721C40.4579 127.39 40.5814 127.039 40.7931 126.669C40.9798 126.342 41.2324 126.094 41.5508 125.925C41.8671 125.759 42.2217 125.678 42.6147 125.681C43.0041 125.682 43.41 125.772 43.8325 125.951L44.3544 125.91ZM46.5229 122.231L48.896 123.588L47.8141 124.104L46.0342 123.086C45.7004 122.895 45.3841 122.791 45.0855 122.775C44.7832 122.756 44.5103 122.816 44.2665 122.956C44.0207 123.1 43.8148 123.317 43.6489 123.607C43.4808 123.901 43.3882 124.185 43.371 124.459C43.3538 124.734 43.4245 124.993 43.5831 125.238C43.7417 125.483 43.9988 125.707 44.3544 125.91L45.8512 126.766L45.3579 127.603L43.3113 126.433L43.2625 126.001C42.9001 125.75 42.6394 125.457 42.4803 125.12C42.3192 124.787 42.2506 124.44 42.2745 124.078C42.2948 123.714 42.4025 123.362 42.5976 123.02C42.8797 122.527 43.2272 122.172 43.64 121.955C44.047 121.74 44.4974 121.656 44.9909 121.702C45.4824 121.752 45.9931 121.928 46.5229 122.231Z" fill="#004737"/>
<path d="M36.6603 118.352L28.5909 120.494L27.6995 119.676L33.8734 112.951L34.7649 113.769L30.003 118.956L38.0765 116.81L38.9633 117.624L32.7894 124.349L31.9026 123.535L36.6603 118.352Z" fill="#004737"/>
<path d="M20.2152 111.016L27.7055 105.797L28.3866 106.774L20.8962 111.993L20.2152 111.016ZM18.5377 108.608L19.3505 108.042L23.383 113.83L22.5701 114.396L18.5377 108.608Z" fill="#004737"/>
<path d="M20.736 98.5255L12.5268 97.0055L12.0717 95.8842L20.5307 92.4511L20.9858 93.5724L14.4614 96.2203L22.6765 97.738L23.1292 98.8535L14.6701 102.287L14.2174 101.171L20.736 98.5255Z" fill="#004737"/>
<path d="M14.7713 81.4891L14.5857 80.2996C15.1653 80.2726 15.7009 80.3562 16.1923 80.5503C16.6837 80.7444 17.0992 81.0625 17.4389 81.5044C17.7745 81.9471 17.9987 82.5298 18.1114 83.2525C18.1939 83.7812 18.1698 84.2778 18.0392 84.7424C17.908 85.2029 17.6848 85.6163 17.3697 85.9828C17.0504 86.3499 16.6479 86.658 16.1622 86.9072C15.6717 87.153 15.1105 87.3251 14.4786 87.4237L13.5803 87.5638C12.9484 87.6624 12.3635 87.669 11.8256 87.5837C11.2829 87.4949 10.8033 87.3222 10.3868 87.0657C9.96957 86.805 9.62707 86.4671 9.35925 86.052C9.09142 85.6368 8.91402 85.1505 8.82705 84.5929C8.72075 83.9115 8.75891 83.3153 8.94153 82.8046C9.12415 82.2938 9.42233 81.8729 9.83605 81.5418C10.245 81.2073 10.742 80.9626 11.3271 80.8079L11.5126 81.9974C11.1004 82.1209 10.7557 82.2847 10.4787 82.4886C10.1976 82.6933 9.99695 82.953 9.87684 83.2679C9.75674 83.5827 9.73308 83.9735 9.80588 84.4402C9.86838 84.8409 9.99987 85.1821 10.2004 85.4639C10.4002 85.7415 10.6566 85.9617 10.9697 86.1244C11.2821 86.283 11.6426 86.3833 12.051 86.4253C12.4595 86.4674 12.9033 86.451 13.3824 86.3763L14.293 86.2342C14.735 86.1653 15.143 86.0551 15.517 85.9037C15.8904 85.7481 16.2089 85.5525 16.4725 85.3168C16.7361 85.081 16.9297 84.8034 17.0533 84.4837C17.1728 84.1647 17.2013 83.8049 17.1388 83.4043C17.0595 82.8963 16.9159 82.5041 16.7078 82.2277C16.4997 81.9513 16.2329 81.7603 15.9076 81.6545C15.5816 81.5446 15.2028 81.4894 14.7713 81.4891Z" fill="#004737"/>
<path d="M11.5385 72.8994L11.6956 70.4152C11.7379 69.7477 11.8861 69.1916 12.1404 68.747C12.3906 68.3021 12.7234 67.9734 13.1389 67.761C13.5544 67.5485 14.0313 67.4593 14.5694 67.4934C14.9699 67.5187 15.3328 67.6087 15.6581 67.7633C15.9792 67.9177 16.2545 68.134 16.484 68.4124C16.7094 68.6905 16.8766 69.0257 16.9858 69.418C17.0909 69.8099 17.1276 70.2562 17.0959 70.7568L16.8805 74.1609L7.76953 73.5845L7.84594 72.3768L15.9745 72.8911L16.1135 70.6947C16.1417 70.2483 16.0832 69.8823 15.9379 69.5967C15.7887 69.3066 15.5847 69.0885 15.3259 68.9423C15.0671 68.7961 14.7854 68.7133 14.4809 68.694C14.1764 68.6748 13.8928 68.7218 13.6301 68.835C13.3675 68.9482 13.1522 69.1398 12.9843 69.4098C12.8126 69.6754 12.7126 70.0314 12.6843 70.4777L12.5271 72.962L11.5385 72.8994Z" fill="#004737"/>
<path d="M16.8376 51.2272L15.9484 53.3632L15.0464 53.0013L15.8536 51.0621C15.9869 50.7418 16.0493 50.4395 16.0409 50.1553C16.0324 49.871 15.9552 49.6216 15.8091 49.4068C15.6608 49.1866 15.4458 49.0179 15.1641 48.9006C14.8554 48.7721 14.5796 48.7275 14.3369 48.7668C14.0919 48.8007 13.8744 48.9207 13.6844 49.1269C13.4922 49.3276 13.319 49.6132 13.1648 49.9836L12.4805 51.6276L19.9941 54.7552L19.5291 55.8724L11.1009 52.3641L12.2502 49.6029C12.4301 49.1707 12.6351 48.8033 12.8652 48.5006C13.0915 48.1964 13.3462 47.9651 13.6295 47.8068C13.9104 47.643 14.2175 47.558 14.5506 47.5518C14.8837 47.5456 15.2471 47.6244 15.6407 47.7882C15.988 47.9328 16.2656 48.1525 16.4734 48.4473C16.6774 48.7404 16.8022 49.0822 16.848 49.4725C16.8954 49.859 16.8567 50.273 16.7318 50.7145L16.8376 51.2272ZM20.7579 52.9202L19.7074 55.444L19.0612 54.4347L19.8491 52.5419C19.9969 52.1868 20.0604 51.8601 20.0397 51.5617C20.0207 51.2595 19.9265 50.9962 19.7573 50.7718C19.5842 50.5458 19.3434 50.3686 19.0346 50.2401C18.722 50.11 18.4286 50.0535 18.1543 50.0706C17.8801 50.0878 17.6314 50.1903 17.4083 50.3781C17.1852 50.566 16.995 50.849 16.8376 51.2272L16.1749 52.8191L15.2825 52.434L16.1885 50.2575L16.6115 50.1551C16.8149 49.7643 17.0736 49.4691 17.3877 49.2693C17.6979 49.0679 18.034 48.9565 18.3961 48.9352C18.7597 48.91 19.1229 48.9729 19.4857 49.1239C20.0105 49.3423 20.4061 49.6428 20.6725 50.0254C20.9366 50.4024 21.0765 50.8387 21.0921 51.3342C21.1038 51.8281 20.9924 52.3567 20.7579 52.9202Z" fill="#004737"/>
<path d="M17.4566 39.1068L25.1692 43.9913L24.5217 45.0137L16.8091 40.1292L17.4566 39.1068Z" fill="#004737"/>
<path d="M32.4115 33.0982L33.1316 33.7694L28.4205 38.8239L27.7004 38.1528L32.4115 33.0982ZM27.8329 38.0106L30.195 40.2122L29.3785 41.0883L27.0121 38.8912L27.8329 38.0106ZM33.1297 32.3277L35.4787 34.5342L34.6622 35.4103L32.3046 33.2129L33.1297 32.3277ZM25.6454 28.4118L26.3701 29.0873L23.6426 32.0136L22.9179 31.3381L25.6454 28.4118ZM26.355 27.6505L33.0333 33.8749L32.2124 34.7556L25.5342 28.5311L26.355 27.6505ZM22.6358 31.6409L23.4608 30.7556L26.0204 33.3984C26.4069 33.793 26.7443 34.1789 27.0327 34.5562C27.3179 34.9306 27.5613 35.2918 27.7628 35.6396C27.9643 35.9874 28.1254 36.3204 28.246 36.6385C28.3636 36.9538 28.445 37.2497 28.4902 37.5261C28.5323 37.7997 28.5413 38.0537 28.517 38.2882C28.4925 38.5168 28.4375 38.7198 28.3521 38.8973L27.9759 39.301L27.2558 38.6298L27.5208 38.3454C27.5093 38.1861 27.4695 37.9805 27.4015 37.7285C27.3364 37.4735 27.2224 37.1758 27.0596 36.8355C26.8966 36.4893 26.6642 36.1041 26.3624 35.68C26.0634 35.2528 25.673 34.7889 25.191 34.2882L22.6358 31.6409Z" fill="#004737"/>
<path d="M42.2069 25.1441L42.7609 25.9578L38.7646 28.678L38.2107 27.8643L42.2069 25.1441ZM33.8298 20.9937L38.9668 28.5404L37.9664 29.2214L32.8294 21.6746L33.8298 20.9937ZM39.3038 22.0156L39.8577 22.8294L36.3902 25.1897L35.8362 24.376L39.3038 22.0156ZM37.572 18.4463L38.1295 19.2653L34.1851 21.9502L33.6276 21.1313L37.572 18.4463Z" fill="#004737"/>
<path d="M52.0521 15.9463L52.2669 16.4817C52.5222 17.1179 52.6716 17.7201 52.7149 18.2882C52.7582 18.8564 52.7014 19.3769 52.5443 19.8498C52.3873 20.3227 52.1367 20.7363 51.7924 21.0906C51.452 21.4434 51.0239 21.7233 50.5079 21.9304C50.0075 22.1312 49.5104 22.2226 49.0168 22.2045C48.5269 22.1849 48.058 22.06 47.6098 21.83C47.1656 21.5984 46.7589 21.2639 46.3897 20.8266C46.0205 20.3892 45.7082 19.8524 45.4529 19.2162L45.2381 18.6809C44.9827 18.0446 44.8361 17.4436 44.7982 16.8778C44.7627 16.3066 44.8253 15.7837 44.9863 15.3093C45.1456 14.8309 45.3955 14.4154 45.7358 14.0626C46.0801 13.7083 46.5024 13.4307 47.0029 13.2298C47.5188 13.0228 48.0217 12.9291 48.5115 12.9487C49.0052 12.9668 49.473 13.0943 49.9149 13.3314C50.3592 13.5629 50.762 13.899 51.1235 14.3395C51.4872 14.7745 51.7968 15.3101 52.0521 15.9463ZM51.1555 16.9277L50.936 16.3807C50.7336 15.8764 50.5022 15.4513 50.2418 15.1054C49.9852 14.758 49.7051 14.492 49.4014 14.3076C49.0977 14.1232 48.7751 14.0208 48.4335 14.0002C48.0958 13.978 47.7466 14.0394 47.3858 14.1842C47.0367 14.3243 46.7478 14.519 46.5191 14.7685C46.2942 15.0163 46.1339 15.3126 46.038 15.6574C45.9461 16.0006 45.9236 16.3879 45.9706 16.8194C46.0177 17.251 46.1424 17.7189 46.3448 18.2232L46.5643 18.7702C46.7683 19.2784 47.0032 19.7066 47.269 20.0548C47.5333 20.3991 47.82 20.6647 48.1292 20.8514C48.4406 21.0327 48.7633 21.1352 49.0971 21.1588C49.4348 21.181 49.7782 21.122 50.1273 20.9819C50.492 20.8355 50.7886 20.6377 51.0173 20.3882C51.246 20.1388 51.4044 19.8433 51.4925 19.5016C51.583 19.1546 51.6008 18.7668 51.546 18.3384C51.4896 17.9061 51.3594 17.4359 51.1555 16.9277Z" fill="#004737"/>
</g>
<defs>
<clipPath id="clip0_1685_8668">
<rect width="146" height="146" fill="white"/>
</clipPath>
</defs>
</svg>
