<?xml version="1.0" encoding="utf-8"?>
<!-- Generator: Adobe Illustrator 25.4.1, SVG Export Plug-In . SVG Version: 6.00 Build 0)  -->
<svg version="1.1" id="Layer_1" xmlns="http://www.w3.org/2000/svg" xmlns:xlink="http://www.w3.org/1999/xlink" x="0px" y="0px"
	 viewBox="0 0 677 249" style="enable-background:new 0 0 677 249;" xml:space="preserve">
<style type="text/css">
	.st0{clip-path:url(#SVGID_00000157269939138514085420000005040363055756939937_);}
	.st1{fill:#1D1D1B;}
</style>
<g>
	<defs>
		<rect id="SVGID_1_" y="0" width="677" height="249"/>
	</defs>
	<clipPath id="SVGID_00000138541593251717145740000007103568942638049198_">
		<use xlink:href="#SVGID_1_"  style="overflow:visible;"/>
	</clipPath>
	<g style="clip-path:url(#SVGID_00000138541593251717145740000007103568942638049198_);">
		<path class="st1" d="M53.4,185.2c-1.6-0.8-3.3-1.3-5.1-1.6c0,0,0-1.5,0-1.6c0.8-0.3,1.6-0.6,2.3-1c0.8-0.4,1.6-1,2.4-1.6
			c1.6-1.4,3-3.1,4-5.1c1-2,1.5-4.7,1.5-7.9c0-5.4-1.4-9.7-4.1-12.8c-2.8-3.1-6-5.2-9.6-6.2c-1.6-0.4-3.4-0.8-5.6-1.1
			c-2.2-0.3-4.5-0.4-7.1-0.4H0v76.5h35c2.4,0,4.7-0.1,7-0.3c2.2-0.2,4.3-0.6,6-1c4.7-1.3,8.2-3.8,10.6-7.2c2.4-3.4,3.6-7.8,3.6-12.8
			c0-4.4-0.9-7.9-2.6-10.3C58,188.3,55.9,186.4,53.4,185.2L53.4,185.2z M15.9,158h12.5c0.5,0,1.6,0,3.3,0.1c1.8,0,3.3,0.3,4.6,0.8
			c2,0.6,3.5,1.8,4.5,3.5c0.9,1.7,1.3,3.6,1.3,5.6c0,2-0.4,3.7-1.2,5.3c-0.8,1.6-2.2,2.9-3.9,3.6c-1,0.5-2.3,0.8-3.8,1
			c-1.4,0.2-2.9,0.3-4.5,0.3H15.8L15.9,158L15.9,158z M44.9,205.7c-0.9,1.8-2.3,3-4.2,3.7c-1,0.3-2.2,0.7-3.4,0.8
			c-1.3,0.2-2.4,0.3-3.5,0.3h-18v-20.3h17.6c0.7,0,1.7,0,2.8,0.1c1.2,0.1,2.3,0.3,3.3,0.7c1.8,0.5,3.3,1.6,4.6,3.1
			c1.3,1.6,1.9,3.6,1.9,6.2C46.1,202.2,45.7,204,44.9,205.7L44.9,205.7z"/>
		<path class="st1" d="M126.6,149.2c-5.5-3.7-12.3-5.6-20.2-5.6c-7.5,0-14.1,1.7-19.8,5.1c-5.7,3.4-10.2,8.2-13.3,14.3
			c-3.2,6.2-4.8,13.5-4.8,21.9c0,7.7,1.6,14.7,4.9,20.6c3.2,5.9,7.8,10.6,13.7,13.9c5.8,3.3,12.7,5,20.4,5c7.7,0,14.1-2,20.2-5.7
			c5.8-3.6,10.3-8.8,13.1-15.2l-15.7-4.8c-1.7,3.4-4.2,6.1-7.2,8c-3.2,2-7.1,3-11.5,3c-6.8,0-12.2-2.3-15.7-6.8
			c-2.8-3.5-4.5-8.2-5.1-13.9l-0.1-0.9h56.5c0.6-8.9-0.5-16.7-3.1-23.3C136.3,158.1,132.2,152.9,126.6,149.2L126.6,149.2z
			 M85.9,176.6l0.2-0.9c0.8-4.6,2.4-8.5,4.7-11.4c3.6-4.6,9.1-6.9,16.5-6.9c6.5,0,11.4,2.1,14.5,6.2c2.1,2.9,3.5,6.9,4.2,12.1
			l0.1,0.9H85.9L85.9,176.6z"/>
		<path class="st1" d="M173.2,145.9l-27.7,76.5h15.7l20.2-58.2l20.1,58.2h15.8l-27.7-76.5H173.2z"/>
		<path class="st1" d="M277.8,148.9c-5.7-3.4-12.4-5.2-20.1-5.2s-14.1,1.7-19.8,5.1c-5.7,3.4-10.2,8.2-13.3,14.1
			c-3.2,6-4.8,13.1-4.8,21.2c0,8,1.6,15,4.7,21c3.1,6,7.6,10.8,13.2,14.3c5.7,3.4,12.4,5.2,20,5.2c7.6,0,14.3-1.7,20-5.1
			c5.7-3.4,10.1-8.2,13.3-14.2c3.2-6,4.8-13.1,4.8-21.1c0-7.9-1.6-15-4.8-21C287.9,157.1,283.4,152.2,277.8,148.9L277.8,148.9z
			 M273.8,202.5c-3.5,4.8-8.9,7.3-16,7.3c-7.1,0-12.2-2.4-15.8-7.1c-3.5-4.6-5.3-10.9-5.3-18.6c0-5,0.7-9.5,2.2-13.3
			c1.5-3.9,3.8-6.9,7-9.1c3.1-2.2,7.1-3.3,11.9-3.3c7.1,0,12.4,2.4,16,7.1c3.5,4.6,5.3,10.9,5.3,18.6
			C279,191.8,277.3,197.8,273.8,202.5L273.8,202.5z"/>
		<path class="st1" d="M526.2,145.9h-18.5L490,171.4l-18-25.5h-18.5l27.3,37.8L453,222.4h18.6L490,196l18.3,26.4h18.5l-28-38.7
			L526.2,145.9z"/>
		<path class="st1" d="M586.1,176.7h-33.7v-30.8h-15.8v76.5h15.8v-31h33.7v31h15.8v-76.5h-15.8V176.7z"/>
		<path class="st1" d="M649.8,145.9c-1.8,0-4,0-6.7,0.1c-2.6,0.1-5.2,0.4-7.6,0.9c-5.8,1.2-10.6,3.9-14.2,8
			c-3.6,4.1-5.4,9.7-5.4,16.5c0,6.8,1.9,12.5,5.7,16.5c2.6,2.8,5.8,4.9,9.4,6.2l0.9,0.3l-17.4,28h16.4l16.1-26.1h0.4
			c1,0,1.9,0,2.6,0h11.1v26H677v-76.5L649.8,145.9L649.8,145.9z M661.2,184.2h-12.9c-0.9,0-2,0-3.2-0.1c-1.3-0.1-2.5-0.3-3.7-0.6
			c-2.5-0.7-4.7-2.1-6.5-4.2s-2.8-4.9-2.8-8.1c0-2.1,0.4-4.1,1.3-5.8c0.9-1.7,2-3.1,3.3-4.2c1.3-1.1,2.8-1.9,4.3-2.4
			c1.3-0.3,2.7-0.6,4-0.7c1.3-0.1,2.5-0.1,3.4-0.1h12.9V184.2L661.2,184.2z"/>
		<path class="st1" d="M410.9,200.3l-21.2-54.5h-16.4l30.1,74l-1,2.7l-9.6,26.4h14.8l39.7-103.1h-15.7L410.9,200.3z"/>
		<path class="st1" d="M369.6,145.9H350L322,182.7v-36.9h-15.7l-0.1,76.5H322v-36.9l29.2,36.9h20.9l-32.1-38.3L369.6,145.9z"/>
		<path class="st1" d="M446.8,57.6h-57.1v15.1h57.1V57.6z"/>
		<path class="st1" d="M446.8,28.8h-57.1v15.1h57.1V28.8z"/>
		<path class="st1" d="M397.5,0c-11.9,0-23.2,4.6-31.7,13l-66,64.8c-5.7,5.6-13.2,8.7-21.2,8.7h-33.6v-9.3l20.5-5.1
			c7.7-1.6,13.3-8.3,13.3-16.3V45.5c0-7.9-5.6-14.7-13.3-16.3l-20.5-5.1v-9.3h33.6c8,0,15.5,3.1,21.2,8.7l19.9,19.6l10.5-10.8
			l-19.9-19.6C301.9,4.6,290.6,0,278.7,0h-48.6v36.1l32.2,7.9l0.4,0.1c0.7,0.1,1.3,0.8,1.3,1.5v10.3c0,0.7-0.5,1.3-1.3,1.5l-32.6,8
			v36.1h48.6c11.9,0,23.1-4.6,31.7-13l66-64.8c5.7-5.6,13.2-8.7,21.2-8.7h49.4V0H397.5z"/>
		<path class="st1" d="M376.1,77.8l-19.9-19.6l-10.5,10.8l19.9,19.6c8.5,8.4,19.8,13,31.7,13h49.5V86.5h-49.5
			C389.4,86.5,381.8,83.4,376.1,77.8L376.1,77.8z"/>
	</g>
</g>
</svg>
