<svg width="677" height="249" viewBox="0 0 677 249" fill="none" xmlns="http://www.w3.org/2000/svg">
<g clip-path="url(#clip0_3751_223)">
<path d="M53.3745 185.199C51.7742 184.418 50.044 183.897 48.2706 183.594C48.2706 183.594 48.2706 182.119 48.2706 182.032C49.0492 181.772 49.8278 181.425 50.6063 180.992C51.4281 180.558 52.2499 179.994 53.0285 179.343C54.6721 177.955 56.013 176.264 57.0078 174.225C58.0026 172.187 58.5217 169.541 58.5217 166.375C58.5217 160.954 57.1376 156.66 54.4126 153.624C51.6444 150.544 48.4004 148.462 44.8536 147.378C43.2965 146.944 41.4366 146.597 39.274 146.294C37.1113 145.99 34.7324 145.86 32.2237 145.86H0V222.369H35.0351C37.4141 222.369 39.7498 222.239 42.0422 222.065C44.2913 221.848 46.3242 221.501 48.0111 221.024C52.6825 219.68 56.2292 217.251 58.6514 213.824C61.0736 210.398 62.2847 206.061 62.2847 201.029C62.2847 196.606 61.4196 193.136 59.7328 190.707C58.0026 188.278 55.8832 186.413 53.3745 185.155V185.199ZM15.8739 157.961H28.4174C28.8932 157.961 30.0178 157.961 31.7046 158.048C33.478 158.091 35.0351 158.395 36.2895 158.872C38.2791 159.479 39.793 160.65 40.7446 162.385C41.6529 164.076 42.0854 165.941 42.0854 167.98C42.0854 170.018 41.6961 171.71 40.8743 173.315C40.0525 174.963 38.7117 176.177 36.9815 176.871C35.9435 177.348 34.6891 177.652 33.1753 177.825C31.7479 177.999 30.234 178.086 28.7202 178.086H15.7874V157.917L15.8739 157.961ZM44.8969 205.67C44.0318 207.449 42.6045 208.706 40.6581 209.4C39.6632 209.747 38.4954 210.051 37.2843 210.224C36.03 210.441 34.9054 210.528 33.8241 210.528H15.8307V190.23H33.4348C34.1701 190.23 35.1217 190.23 36.2462 190.36C37.4573 190.447 38.5819 190.664 39.5767 191.097C41.3501 191.618 42.864 192.659 44.1616 194.177C45.4592 195.738 46.108 197.82 46.108 200.336C46.108 202.201 45.6754 203.979 44.8536 205.67H44.8969Z" fill="#1D1D1B"/>
<path d="M126.603 149.244C121.109 145.557 114.319 143.692 106.446 143.692C98.9637 143.692 92.3459 145.427 86.6798 148.767C81.0136 152.15 76.5152 156.964 73.3577 163.08C70.157 169.239 68.5566 176.569 68.5566 184.939C68.5566 192.66 70.2003 199.599 73.4875 205.541C76.7315 211.44 81.3163 216.167 87.1555 219.464C92.9515 222.803 99.8287 224.495 107.528 224.495C115.227 224.495 121.628 222.543 127.684 218.77C133.48 215.126 137.935 210.009 140.833 203.546L125.175 198.775C123.445 202.202 121.023 204.891 117.995 206.756C114.794 208.707 110.945 209.748 106.533 209.748C99.699 209.748 94.3788 207.45 90.7888 202.939C88.0206 199.469 86.2905 194.742 85.6849 189.016L85.5984 188.149H142.087C142.649 179.258 141.611 171.451 138.973 164.858C136.291 158.135 132.182 152.887 126.689 149.201L126.603 149.244ZM85.8579 176.612L86.031 175.701C86.8528 171.06 88.4099 167.244 90.7023 164.338C94.2923 159.74 99.8287 157.441 107.182 157.441C113.713 157.441 118.601 159.523 121.672 163.6C123.791 166.463 125.218 170.54 125.867 175.744L125.997 176.612H85.9012H85.8579Z" fill="#1D1D1B"/>
<path d="M173.231 145.86L145.549 222.369H161.25L181.406 164.12L201.519 222.369H217.306L189.581 145.86H173.231Z" fill="#1D1D1B"/>
<path d="M277.817 148.854C272.151 145.427 265.403 143.692 257.747 143.692C250.091 143.692 243.647 145.427 237.981 148.767C232.314 152.15 227.816 156.921 224.659 162.906C221.458 168.935 219.857 176.048 219.857 184.072C219.857 192.096 221.458 199.035 224.572 205.064C227.686 211.093 232.141 215.907 237.808 219.334C243.474 222.76 250.221 224.495 257.791 224.495C265.36 224.495 272.107 222.76 277.774 219.377C283.44 215.994 287.895 211.18 291.052 205.151C294.21 199.122 295.81 192.009 295.81 184.072C295.81 176.135 294.21 169.109 291.052 163.08C287.895 157.051 283.44 152.237 277.774 148.81L277.817 148.854ZM273.794 202.505C270.291 207.319 264.884 209.792 257.747 209.792C250.61 209.792 245.507 207.406 241.96 202.722C238.413 198.081 236.64 191.836 236.64 184.115C236.64 179.128 237.375 174.66 238.846 170.843C240.359 166.983 242.695 163.904 245.809 161.735C248.924 159.567 252.946 158.439 257.747 158.439C264.798 158.439 270.161 160.824 273.751 165.509C277.254 170.149 279.028 176.395 279.028 184.115C279.028 191.836 277.298 197.778 273.837 202.505H273.794Z" fill="#1D1D1B"/>
<path d="M526.178 145.86H507.666L490.018 171.406L472.068 145.86H453.556L480.892 183.681L452.95 222.369H471.506L490.018 195.955L508.358 222.369H526.87L498.842 183.681L526.178 145.86Z" fill="#1D1D1B"/>
<path d="M586.123 176.654H552.429V145.86H536.642V222.369H552.429V191.401H586.123V222.369H601.911V145.86H586.123V176.654Z" fill="#1D1D1B"/>
<path d="M649.793 145.862C648.02 145.862 645.771 145.862 643.132 145.992C640.537 146.079 637.942 146.383 635.52 146.86C629.724 148.031 624.923 150.72 621.333 154.84C617.743 158.961 615.926 164.512 615.926 171.322C615.926 178.131 617.829 183.813 621.636 187.803C624.274 190.579 627.431 192.704 631.065 194.049L631.973 194.396L614.542 222.371H630.935L647.068 196.304H647.501C648.453 196.304 649.361 196.304 650.139 196.304H661.256V222.327H677.043V145.819H649.837L649.793 145.862ZM661.212 184.247H648.28C647.371 184.247 646.29 184.203 645.079 184.116C643.824 184.03 642.57 183.813 641.359 183.509C638.85 182.815 636.688 181.384 634.828 179.259C632.968 177.134 632.016 174.401 632.016 171.192C632.016 169.066 632.449 167.115 633.314 165.423C634.179 163.732 635.304 162.344 636.601 161.216C637.942 160.088 639.369 159.308 640.883 158.83C642.224 158.483 643.565 158.267 644.906 158.136C646.203 158.05 647.371 158.006 648.28 158.006H661.212V184.29V184.247Z" fill="#1D1D1B"/>
<path d="M410.906 200.336L389.712 145.86H373.319L403.38 219.896L402.342 222.585L392.74 248.999H407.533L447.239 145.86H431.538L410.906 200.336Z" fill="#1D1D1B"/>
<path d="M369.641 145.86H349.961L322.019 182.726V145.86H306.275L306.146 222.369H322.019V185.459L351.215 222.369H372.15L340.056 184.114L369.641 145.86Z" fill="#1D1D1B"/>
<path d="M446.847 57.643H389.709V72.6931H446.847V57.643Z" fill="#1D1D1B"/>
<path d="M446.847 28.8436H389.709V43.8937H446.847V28.8436Z" fill="#1D1D1B"/>
<path d="M397.496 0.000732422C385.602 0.000732422 374.313 4.59819 365.835 12.969L299.874 77.7671C294.208 83.3622 286.681 86.4416 278.723 86.4416H245.158V77.1599L265.704 72.0854C273.446 70.524 278.982 63.7579 278.982 55.8208V45.5416C278.982 37.6045 273.403 30.8384 265.704 29.277L245.158 24.2024V14.9208H278.723C286.681 14.9208 294.208 18.0436 299.874 23.6386L319.813 43.1995L330.324 32.4432L310.384 12.8823C301.863 4.64156 290.617 0.000732422 278.723 0.000732422H230.149V36.1298L262.33 44.0669L262.762 44.1537C263.498 44.2838 264.017 44.9344 264.017 45.6283V55.9075C264.017 56.6449 263.498 57.2521 262.762 57.3822L230.149 65.4061V101.535H278.723C290.617 101.535 301.863 96.8943 310.384 88.5235L376.345 23.7253C382.012 18.1303 389.538 15.0509 397.496 15.0509H446.848V0.000732422H397.496Z" fill="#1D1D1B"/>
<path d="M376.13 77.7668L356.233 58.1625L345.723 68.9188L365.619 88.5231C374.14 96.8939 385.386 101.535 397.324 101.535H446.849V86.4846H397.324C389.365 86.4846 381.839 83.4052 376.13 77.8101V77.7668Z" fill="#1D1D1B"/>
</g>
<defs>
<clipPath id="clip0_3751_223">
<rect width="677" height="249" fill="white"/>
</clipPath>
</defs>
</svg>
