<svg width="260" height="260" viewBox="0 0 260 260" fill="none" xmlns="http://www.w3.org/2000/svg">
<g clip-path="url(#clip0_1485_4442)">
<rect width="260" height="260" rx="59" fill="#004737"/>
<path d="M190.975 48.7882L170.877 37.4875C160.59 31.5881 147.745 31.4832 137.261 37.304L87.5432 65.831C65.0054 78.7705 51 102.879 51 128.745V189.641C51 194.15 54.6794 197.808 59.216 197.808C63.7525 197.808 67.4319 194.15 67.4319 189.641V128.745C67.4319 108.687 78.2854 90.0056 95.7592 79.9766L145.385 51.502C150.739 48.5391 157.359 48.5785 162.727 51.6593L182.825 62.96C188.218 66.0539 191.581 71.8353 191.581 78.0363V157.049C191.581 163.25 188.232 169.019 182.825 172.126L114.064 211.586V186.402C114.064 180.057 117.479 174.145 122.992 170.946L154.88 152.448C158.797 150.18 160.129 145.172 157.834 141.278C155.552 137.385 150.515 136.074 146.598 138.342L114.697 156.84C114.473 156.971 114.262 157.115 114.051 157.246V131.695C114.051 125.468 117.413 119.647 122.834 116.501L162.687 93.388C166.604 91.1199 167.936 86.112 165.641 82.2184C163.36 78.3247 158.322 77.0137 154.405 79.2817L114.552 102.394C104.107 108.451 97.6186 119.673 97.6186 131.695V211.731C97.6186 217.604 100.678 222.861 105.795 225.798C108.353 227.266 111.162 228 113.971 228C116.78 228 119.589 227.266 122.148 225.798L191.027 186.258C201.498 180.254 208 169.058 208 157.036V78.0232C208 66.0146 201.498 54.8187 190.975 48.7751V48.7882Z" fill="#84F3B4"/>
</g>
<defs>
<clipPath id="clip0_1485_4442">
<rect width="260" height="260" fill="white"/>
</clipPath>
</defs>
</svg>
