<svg id="Layer_1" data-name="Layer 1" xmlns="http://www.w3.org/2000/svg" viewBox="0 0 159.2 198.92"><defs><style>.cls-1{fill:#84f3b4;}</style></defs><path class="cls-1" d="M745.33,301.92,725,290.39a34.61,34.61,0,0,0-34.08-.19l-50.43,29.11a74.32,74.32,0,0,0-37.05,64.18V445.6a8.33,8.33,0,1,0,16.66,0V383.49a57.62,57.62,0,0,1,28.72-49.75l50.32-29.05a17.87,17.87,0,0,1,17.59.16l20.37,11.53a17.82,17.82,0,0,1,8.88,15.38v80.59a17.79,17.79,0,0,1-8.88,15.38L667.34,468V442.3a18.33,18.33,0,0,1,9-15.77l32.34-18.87a8.33,8.33,0,1,0-8.39-14.39L668,412.14c-.22.13-.43.28-.65.42V386.49a18,18,0,0,1,8.9-15.5l40.41-23.58a8.33,8.33,0,1,0-8.4-14.39L667.84,356.6a34.74,34.74,0,0,0-17.16,29.89v81.64a16.53,16.53,0,0,0,24.86,14.35l69.85-40.32a34.51,34.51,0,0,0,17.21-29.81V331.76A34.52,34.52,0,0,0,745.33,301.92Z" transform="translate(-603.4 -285.81)"/></svg>