<svg width="300" height="87" viewBox="0 0 300 87" fill="none" xmlns="http://www.w3.org/2000/svg">
<path fill-rule="evenodd" clip-rule="evenodd" d="M59.4581 74.0745L59.2813 70.7573C59.2811 70.6799 59.2795 70.6006 59.278 70.5202C59.2715 70.1753 59.2645 69.8098 59.3513 69.4878C59.4722 69.0394 59.4581 68.506 59.4448 68.0072L59.4448 68.0071C59.4407 67.8518 59.4366 67.6998 59.4368 67.5548C59.437 67.3777 59.4413 67.1953 59.4458 67.0109C59.4567 66.5544 59.4679 66.0851 59.4169 65.6513C59.4028 65.5316 59.379 65.4218 59.3554 65.3128C59.3208 65.1534 59.2866 64.9955 59.2837 64.8102L59.2937 59.8743C59.2746 59.4148 59.2266 58.8926 59.1617 58.4354C59.1489 58.3455 59.132 58.2581 59.1152 58.1711C59.0838 58.0091 59.0528 57.8488 59.0496 57.678L59.0571 49.2972L59.0554 47.2666C59.0549 47.1861 59.0561 47.1028 59.0574 47.018C59.0617 46.7271 59.0663 46.4191 58.9995 46.1503C58.8632 45.6012 58.807 44.4707 58.9593 43.9241C59.0847 43.4741 59.0921 42.8991 59.0247 42.4352C59.0128 42.3529 58.9937 42.2716 58.9746 42.1904C58.9468 42.0725 58.9191 41.9545 58.9132 41.8334C58.8927 41.4076 58.9031 40.9798 58.9135 40.5524C58.9241 40.1181 58.9347 39.6842 58.9127 39.2528C58.9028 39.058 58.8804 38.8622 58.858 38.667C58.8334 38.4526 58.8089 38.2388 58.8011 38.0274C58.7941 37.8392 58.8 37.6499 58.806 37.4604L58.806 37.4603C58.8136 37.2174 58.8212 36.9744 58.8015 36.7335C58.7858 36.5413 58.7526 36.3507 58.7195 36.16C58.6851 35.9625 58.6508 35.7649 58.6358 35.5655C58.611 35.2331 58.6223 34.8875 58.6334 34.5468C58.6378 34.412 58.6421 34.2781 58.6442 34.146L58.6627 30.5212C58.6618 30.4368 58.6642 30.3417 58.6667 30.2409V30.2408V30.2408C58.6759 29.8668 58.6871 29.4142 58.5423 29.1328L58.3476 28.7262L58.0207 28.9731C57.6194 29.278 57.372 29.7433 57.1274 30.2036C56.9909 30.4605 56.8551 30.7159 56.6939 30.9408C56.282 31.5157 55.8269 32.0541 55.3724 32.5918L55.3719 32.5924C55.2884 32.6912 55.2049 32.7899 55.1217 32.8889C55.0123 33.0191 54.8892 33.1408 54.7659 33.2626C54.5778 33.4486 54.3892 33.635 54.2475 33.8533C54.0418 34.1699 53.7684 34.4373 53.4976 34.7022C53.435 34.7634 53.3726 34.8245 53.3111 34.886C52.2098 35.988 50.9331 37.0438 49.4149 37.4739L49.3016 37.383L49.2996 37.3521C49.2839 37.1193 49.2669 36.8656 49.3539 36.6463C49.5868 36.0598 50.1706 35.6674 50.7219 35.2968L50.7219 35.2968C50.9647 35.1336 51.2012 34.9747 51.3985 34.8053C51.4978 34.7201 51.6028 34.6056 51.7121 34.4866C51.9208 34.2591 52.1449 34.0149 52.3736 33.9263C52.6687 33.8118 53.0075 33.4815 53.1675 33.2021C53.1929 33.1577 53.212 33.113 53.2309 33.0688C53.2619 32.996 53.2924 32.9246 53.3494 32.8581C53.499 32.6833 53.6705 32.5321 53.8416 32.3812L53.8416 32.3811C53.9865 32.2534 54.1311 32.1258 54.2621 31.9842C54.5024 31.7245 54.708 31.4213 54.9115 31.1212L54.9115 31.1212C55.0224 30.9577 55.1327 30.7951 55.2475 30.641C55.3994 30.4374 55.5553 30.2366 55.7111 30.0359L55.7112 30.0358C56.1752 29.4382 56.639 28.8408 56.9975 28.1655C57.0235 28.1166 57.0561 28.0625 57.0904 28.0054C57.1934 27.8343 57.3125 27.6363 57.3189 27.4724C56.8322 27.4492 56.1934 27.773 55.6798 28.0333C55.5581 28.095 55.4435 28.153 55.3396 28.2021L53.6263 28.9956C51.2502 30.2362 48.7654 31.231 46.281 32.2256L46.281 32.2256L45.7223 32.4494L43.0959 33.4083C43.0122 33.4347 42.9229 33.47 42.832 33.5058C42.6781 33.5665 42.5198 33.629 42.3772 33.6534C42.2783 33.6704 42.1561 33.6293 42.053 33.5946C42.043 33.5913 42.0332 33.588 42.0236 33.5848C42.0155 33.5821 42.0075 33.5795 41.9997 33.577C41.8562 33.3775 41.8542 33.2449 41.8511 33.0385C41.8504 32.9964 41.8498 32.9512 41.8478 32.9017C41.9603 32.627 42.138 32.4602 42.3965 32.3218C42.6855 32.167 43.0294 32.0646 43.3672 31.964L43.3673 31.9639C43.5627 31.9057 43.756 31.8481 43.9355 31.7814L49.2937 29.7465C49.4907 29.6663 49.6962 29.5885 49.905 29.5095L49.9051 29.5095C50.7144 29.2032 51.5745 28.8776 52.1857 28.3184V28.283L48.1203 28.2512L47.9442 28.2532H47.9442C47.0495 28.2636 46.1848 28.2735 45.2937 28.4134C44.9187 28.4721 44.5351 28.4502 44.1551 28.4285C44.0598 28.4231 43.9648 28.4176 43.8702 28.4135C43.6573 28.4042 43.4422 28.4083 43.2273 28.4125C42.9695 28.4175 42.7119 28.4225 42.4585 28.4042C42.27 28.3906 42.0817 28.3642 41.8932 28.3378C41.6748 28.3073 41.456 28.2766 41.2362 28.2657L39.2609 28.1621C39.1262 28.1586 38.9904 28.1565 38.854 28.1544H38.8539H38.8539C38.2577 28.1452 37.6498 28.1359 37.0711 28.0071C36.6625 27.9161 36.3815 27.7418 36.048 27.4947L36 26.8245C36.2313 26.529 36.6326 26.5624 37.0047 26.5934H37.0047C37.0846 26.6 37.1632 26.6066 37.2384 26.6097C37.959 26.6399 38.6808 26.7896 39.4005 26.939C39.8814 27.0388 40.3614 27.1384 40.8395 27.202C41.2145 27.2519 41.6104 27.246 41.9978 27.2401L41.998 27.2401C42.1282 27.2382 42.2575 27.2362 42.3848 27.2364L45.0118 27.2369L47.2414 27.2351C47.3397 27.235 47.44 27.2368 47.5413 27.2386C47.9042 27.2452 48.2803 27.2519 48.6225 27.1717C48.6683 27.1609 48.7161 27.1494 48.7653 27.1376C49.0338 27.073 49.3435 26.9985 49.5981 26.9815C49.853 26.9645 50.1104 26.9708 50.3681 26.977C50.594 26.9825 50.8201 26.988 51.0449 26.9778C51.7272 26.9469 52.4828 26.8602 53.1501 26.714C53.2234 26.6979 53.2994 26.6863 53.3757 26.6746H53.3758C53.519 26.6526 53.6635 26.6305 53.7945 26.5786C53.9839 26.5036 54.1806 26.4454 54.378 26.3869L54.378 26.3868C54.6939 26.2932 55.0117 26.1991 55.3048 26.0351C55.4369 25.9612 55.5937 25.8379 55.6318 25.6889L55.2508 25.0901C55.1546 24.927 54.5398 24.7722 54.1706 24.6792L54.1706 24.6792L54.1705 24.6792C54.0844 24.6575 54.0117 24.6392 53.962 24.625C49.1018 23.2283 44.5605 20.7986 40.1681 18.3403C40.0407 18.2691 39.8723 18.1965 39.6918 18.1187C39.2471 17.927 38.7293 17.7038 38.5732 17.3921L38.4208 17.0419C38.3568 16.8477 38.3369 16.654 38.4269 16.4705C38.8417 16.4137 39.1334 16.5324 39.4599 16.6652C39.5718 16.7107 39.6878 16.7579 39.8143 16.8003C40.0167 16.8681 40.1862 16.9791 40.3578 17.0913C40.4532 17.1538 40.5493 17.2167 40.6519 17.2727C40.7141 17.3067 40.7793 17.3259 40.8443 17.3451C40.9098 17.3644 40.9751 17.3836 41.0369 17.4178L43.4945 18.8158C43.6456 18.9017 43.7906 18.995 43.9352 19.0881C44.2133 19.2671 44.49 19.4452 44.8055 19.5683C45.2845 19.7551 45.6452 19.8622 46.1552 19.9498C45.8707 19.7253 45.6325 19.4622 45.3945 19.1992L45.3945 19.1992C45.2245 19.0114 45.0545 18.8236 44.8678 18.6501C44.7592 18.5491 44.6362 18.4645 44.5132 18.3801C44.4062 18.3065 44.2992 18.2331 44.2019 18.1488C44.0584 18.0247 43.9397 17.8766 43.8202 17.7277C43.7113 17.5918 43.6018 17.4553 43.4726 17.3356C43.3923 17.2613 43.3022 17.2063 43.2123 17.1514L43.2123 17.1513C43.1342 17.1036 43.0562 17.056 42.985 16.9959C42.8678 16.8968 42.7629 16.7826 42.6579 16.6683L42.6579 16.6682L42.6579 16.6682C42.5738 16.5766 42.4897 16.485 42.3992 16.4012L42.3715 16.3755C41.7382 15.7889 41.0176 15.1213 40.5297 14.4037C40.3628 14.1582 40.1721 13.9497 39.9835 13.7433C39.6766 13.4077 39.3751 13.0779 39.1906 12.6049C39.0779 12.3163 39.0592 11.653 39.1915 11.3627C39.3178 11.2799 39.3767 11.2633 39.5272 11.2551C39.93 11.4811 40.3261 11.8048 40.5714 12.2028C40.8728 12.6917 41.2055 13.1036 41.5493 13.5294L41.5493 13.5294C41.6746 13.6846 41.8014 13.8416 41.9287 14.0048C42.0135 14.1135 42.094 14.2264 42.1747 14.3394C42.3216 14.5453 42.4688 14.7516 42.6424 14.9341C42.8142 15.1147 42.9997 15.2825 43.1853 15.4505L43.1853 15.4505L43.1853 15.4505C43.3648 15.6129 43.5445 15.7755 43.7121 15.9499C43.8444 16.0875 43.9738 16.2323 44.1037 16.3777L44.1037 16.3777C44.337 16.6388 44.572 16.9017 44.8282 17.1283C44.8948 17.1874 44.9716 17.2263 45.0483 17.2652C45.1185 17.3007 45.1887 17.3363 45.2512 17.3873C45.3406 17.4602 45.4346 17.5333 45.5294 17.6069C45.7009 17.74 45.8747 17.875 46.0274 18.0142C46.0985 18.079 46.1633 18.151 46.2282 18.223C46.3044 18.3076 46.3805 18.3922 46.4666 18.4648C46.5225 18.5121 46.5869 18.5467 46.6512 18.5813L46.6512 18.5813C46.71 18.6129 46.7687 18.6445 46.8209 18.6856L48.0416 19.7181C48.1118 19.7724 48.1703 19.8322 48.2284 19.8915L48.2284 19.8915C48.3141 19.9791 48.3988 20.0657 48.5186 20.132C48.6459 20.2025 48.7581 20.296 48.8708 20.3899L48.8708 20.39C48.9541 20.4594 49.0377 20.529 49.1279 20.5899C49.2615 20.6799 49.395 20.7649 49.5275 20.8493C49.8714 21.0683 50.2088 21.2831 50.5246 21.5703C50.9133 21.9241 51.3841 22.158 51.8524 22.3908L51.8524 22.3909C52.0789 22.5034 52.3048 22.6157 52.5207 22.7411C53.3894 23.2462 54.2924 23.4175 55.2817 23.4341L53.481 21.5771C53.3956 21.4875 53.3037 21.3814 53.207 21.2697L53.2069 21.2696C52.9289 20.9485 52.6113 20.5816 52.2941 20.4304C51.9627 20.2724 51.6942 19.9373 51.4505 19.633L51.4504 19.6329C51.3877 19.5546 51.3265 19.4782 51.2664 19.4075L49.8733 17.6779C49.7796 17.5509 49.6654 17.4334 49.5503 17.315C49.4408 17.2024 49.3305 17.089 49.2362 16.9656C48.1919 15.5987 47.1787 14.1783 46.2899 12.7057C46.2307 12.6075 46.1707 12.5087 46.1105 12.4094L46.1104 12.4093C45.7733 11.8535 45.4266 11.282 45.1354 10.7118C45.0718 10.5872 45.0183 10.4575 44.9648 10.3277C44.8924 10.1523 44.82 9.97679 44.7224 9.8135C44.3042 9.11345 44.0401 8.31248 43.7812 7.52758L43.7812 7.52757C43.698 7.27528 43.6154 7.02466 43.5284 6.77958C43.4563 6.5766 43.4155 6.35646 43.3753 6.13955L43.3752 6.13951C43.3583 6.04792 43.3414 5.95691 43.3223 5.86801C43.3088 5.80493 43.293 5.73816 43.2767 5.66881C43.181 5.26331 43.0645 4.76953 43.2512 4.40988L43.2808 4.3578C43.2868 4.34633 43.2923 4.33493 43.2977 4.32366L43.2977 4.32366C43.3153 4.28703 43.3323 4.2518 43.3617 4.22044C43.5104 4.06221 43.8864 3.83415 44.1048 3.8318C44.3299 4.00717 44.3995 4.11889 44.4472 4.41262L44.6961 5.80006C44.7138 5.92312 44.7226 6.04985 44.7314 6.17694C44.7449 6.3715 44.7585 6.56688 44.8038 6.75123C44.9097 7.18064 45.8542 9.59477 46.084 9.83602C46.1721 9.92848 46.2318 10.0458 46.2912 10.1626C46.3264 10.2318 46.3615 10.3008 46.4023 10.3643L47.5587 12.2938L48.4129 13.5997L50.5953 16.668C50.7208 16.8322 50.8681 16.9953 51.017 17.1601C51.2488 17.4168 51.4842 17.6773 51.6457 17.9518C51.7361 18.1055 51.8505 18.2204 51.9676 18.3381C52.0315 18.4023 52.0963 18.4674 52.1584 18.5401C52.261 18.66 52.3623 18.781 52.4635 18.9019L52.4636 18.902L52.4636 18.9021C52.8605 19.3762 53.2566 19.8494 53.7285 20.2581C53.8476 20.3613 53.9774 20.4477 54.1071 20.534L54.1072 20.5341C54.2641 20.6385 54.4208 20.7428 54.5581 20.8766C54.5978 20.9152 54.6193 20.9188 54.6605 20.9258C54.6705 20.9275 54.6816 20.9294 54.6945 20.932L54.6837 20.9204C54.6591 20.8937 54.6271 20.8591 54.6146 20.8296L53.9263 19.1381C53.8845 19.0373 53.8306 18.943 53.7768 18.8488L53.7768 18.8488C53.7083 18.7289 53.6398 18.6091 53.5964 18.476C53.5517 18.3389 53.4768 18.2142 53.4031 18.0914C53.3225 17.9571 53.2433 17.8251 53.2066 17.6819C53.1675 17.5298 53.093 17.3885 53.0187 17.2476C52.976 17.1665 52.9333 17.0855 52.8975 17.0027L52.1043 14.9689C52.0701 14.8802 52.0496 14.7888 52.0292 14.6977L52.0292 14.6977C52.0096 14.6103 51.9901 14.5232 51.9586 14.4389C51.8768 14.2197 51.7876 13.9997 51.6981 13.779C51.5413 13.3925 51.3837 13.0038 51.2631 12.6133L50.416 9.54209C50.3801 9.40599 50.3328 9.27386 50.2855 9.14191C50.2309 8.98964 50.1765 8.83761 50.1398 8.67999C50.0942 8.4837 50.0702 8.28284 50.0462 8.08193V8.08192C50.026 7.91268 50.0057 7.74342 49.9726 7.57685C49.9394 7.40998 49.8954 7.24367 49.8514 7.0772C49.7858 6.82866 49.72 6.57974 49.6898 6.32796C49.6571 6.05591 49.6571 5.77358 49.6572 5.49561V5.49559V5.49558C49.6572 5.41371 49.6572 5.33221 49.6563 5.25147C49.6556 5.17355 49.653 5.09409 49.6505 5.01385C49.6358 4.55008 49.6202 4.06047 49.9346 3.69419C50.1431 3.4512 50.2835 3.4469 50.5562 3.43855L50.6051 3.43701C50.769 3.6265 50.9058 3.85935 50.9434 4.11163C50.9853 4.39214 50.977 4.68676 50.9687 4.98205C50.9615 5.23653 50.9543 5.4915 50.9792 5.73837C51.0129 6.07216 51.0885 6.39177 51.1642 6.7121L51.1642 6.71211C51.2088 6.90057 51.2534 7.08928 51.2895 7.28127C51.3222 7.45461 51.3398 7.63325 51.3575 7.81187C51.3794 8.03474 51.4014 8.25758 51.4527 8.47004C51.4772 8.57194 51.5129 8.66966 51.5486 8.76748L51.5486 8.76749C51.5884 8.87663 51.6283 8.98588 51.6528 9.10118C51.6867 9.26044 51.7093 9.42202 51.732 9.58352V9.58353C51.7742 9.88452 51.8164 10.1853 51.9308 10.4703C52.0196 10.6914 52.0607 10.9253 52.1019 11.1593C52.1354 11.3502 52.169 11.5412 52.2285 11.7256L52.7846 13.2478L53.4474 15.2225C54.0491 16.7795 54.8044 18.2722 55.5567 19.759L55.5567 19.759C55.7493 20.1397 55.9417 20.5199 56.1312 20.9008C56.3381 21.3159 57.0078 22.5047 57.4411 22.6509C57.4848 22.4628 57.5234 22.2657 57.4891 22.0731C57.4647 21.9366 57.4636 21.7968 57.4625 21.6572C57.4614 21.5157 57.4602 21.3743 57.4348 21.2365C57.4015 21.0559 57.3309 20.8755 57.2609 20.6963L57.2608 20.6963C57.2134 20.5749 57.1661 20.4542 57.1309 20.3343C57.0827 20.171 57.0591 19.9997 57.0355 19.8285C57.0169 19.6935 56.9984 19.5585 56.9677 19.4274C56.9408 19.3121 56.9041 19.1994 56.8675 19.0867C56.8274 18.9637 56.7874 18.8407 56.7601 18.7147C56.7003 18.438 56.6839 18.1396 56.6676 17.8434V17.8434C56.657 17.6517 56.6465 17.461 56.6243 17.2778C56.587 16.9692 56.5344 16.6596 56.4819 16.35L56.4819 16.3499C56.4174 15.97 56.3529 15.5901 56.3165 15.2119C56.2825 14.8599 56.2896 14.4984 56.2966 14.1383V14.1383C56.301 13.9151 56.3054 13.6925 56.2999 13.4731C56.2967 13.3437 56.2694 13.2225 56.2421 13.1016L56.2421 13.1016C56.2195 13.0015 56.197 12.9016 56.1883 12.7977C56.1729 12.6126 56.1735 12.426 56.174 12.2392V12.2392C56.1746 12.0498 56.1752 11.8604 56.1591 11.6724C56.1399 11.4507 56.0971 11.23 56.0542 11.0092C56.0178 10.8218 55.9813 10.6344 55.9594 10.4462C55.9293 10.1869 55.9227 9.92473 55.9162 9.66243V9.66239C55.9101 9.41964 55.904 9.17681 55.8793 8.93616L55.5442 6.4716C55.5138 6.1657 55.5235 5.84619 55.5332 5.52609C55.5468 5.07937 55.5604 4.6315 55.4649 4.2178C55.375 3.82863 55.3123 3.32142 55.4467 2.93948C55.518 2.73651 55.5041 2.47503 55.4903 2.21612C55.4739 1.90884 55.4577 1.60517 55.5845 1.40721L55.8667 1C55.8875 1.00261 55.9019 1.00383 55.9128 1.00476C55.9445 1.00744 55.9467 1.00762 55.9908 1.03203L56.0058 1.04037L56.0058 1.04037C56.3255 1.21722 56.6279 1.38455 56.7794 1.73424C56.8639 1.92933 56.8495 2.27229 56.8378 2.5488V2.54886C56.8342 2.63395 56.8309 2.71275 56.8308 2.77901L56.8092 5.96598C56.8085 6.07771 56.8041 6.19785 56.7994 6.32194V6.322V6.32202C56.7854 6.69626 56.7701 7.1064 56.8547 7.42996C56.9254 7.6999 56.9258 7.96145 56.9262 8.22435V8.22437C56.9265 8.37679 56.9267 8.52967 56.9407 8.6849C56.9505 8.79442 56.9751 8.90341 56.9999 9.0127L56.9999 9.01272C57.0214 9.10795 57.043 9.20341 57.0549 9.29965C57.0716 9.43502 57.0813 9.57083 57.091 9.70653C57.1048 9.89886 57.1185 10.091 57.1522 10.2812C57.2318 10.7308 57.2447 11.1945 57.2576 11.6595V11.6595C57.269 12.0716 57.2805 12.4847 57.3384 12.8898C57.3639 13.0678 57.4001 13.2438 57.4363 13.4202L57.4364 13.4202C57.4776 13.6206 57.5189 13.8216 57.5447 14.0269C57.5647 14.186 57.576 14.3501 57.5872 14.5148L57.5872 14.5149V14.5149C57.6043 14.765 57.6215 15.0163 57.6696 15.2533C57.7041 15.423 57.7519 15.5901 57.7998 15.7574C57.8767 16.0261 57.9538 16.2955 57.9762 16.5782C57.9999 16.8771 57.9878 17.2097 57.9753 17.5502C57.9522 18.1837 57.928 18.8444 58.1322 19.3661C58.2752 19.7315 58.3814 20.179 58.4275 20.5684C58.4485 20.7462 58.5141 20.9231 58.58 21.1012C58.6325 21.243 58.6853 21.3855 58.7161 21.5298C58.7608 21.7398 58.7641 21.9446 58.7674 22.1502V22.1502V22.1503C58.7697 22.2983 58.7721 22.4467 58.7899 22.5978C58.8211 22.8625 58.9026 23.0798 59.1211 23.2462C59.2409 23.3373 59.2813 23.3312 59.398 23.3135L59.3981 23.3135C59.4153 23.3109 59.4342 23.308 59.4553 23.3052C59.6303 23.1558 59.7604 23.0256 59.8822 22.8251C60.453 21.8851 60.8365 20.839 61.2141 19.8074C61.2616 19.6774 61.2982 19.5375 61.3348 19.3973C61.3865 19.1994 61.4383 19.0008 61.5216 18.828C61.737 18.3807 61.8938 17.8467 62.0425 17.34L62.0426 17.3397C62.0859 17.1923 62.1285 17.0472 62.1717 16.9073C62.2601 16.6209 62.361 16.3371 62.4621 16.053L62.4621 16.0529C62.6124 15.6305 62.7631 15.2072 62.8732 14.7727C62.9076 14.6368 62.9254 14.496 62.9432 14.3552C62.957 14.2459 62.9709 14.1366 62.9925 14.0295C63.029 13.8487 63.0814 13.672 63.1339 13.4952L63.1339 13.4951L63.1339 13.4951C63.1872 13.3153 63.2406 13.1354 63.2772 12.9513L63.6478 10.7564C63.7116 10.4635 63.7122 10.1723 63.7127 9.88225C63.7132 9.65646 63.7136 9.43135 63.7439 9.20668C63.7661 9.042 63.7922 8.87159 63.8188 8.69747L63.8188 8.6973C63.9395 7.90764 64.0719 7.04168 63.9126 6.28835C63.8284 5.89001 63.7963 5.48294 63.7641 5.07634L63.7641 5.07627C63.7412 4.78586 63.7182 4.4957 63.6764 4.20913C63.6474 4.01106 63.5885 3.82456 63.5297 3.63823L63.5297 3.63819C63.4834 3.49155 63.4372 3.34501 63.4056 3.19303C63.2716 2.55008 63.2206 1.86049 63.204 1.20506L63.2514 1.21346C63.5515 1.26636 63.9883 1.34334 64.1679 1.58736C65.1283 2.89203 65.1211 4.55609 65.1144 6.12023C65.1138 6.26211 65.1132 6.40318 65.1133 6.54307L65.1366 8.22084C65.1307 8.38669 65.1024 8.5468 65.0742 8.70651C65.0501 8.84283 65.0261 8.97887 65.0161 9.11792C65.0012 9.32571 65.0051 9.53495 65.0089 9.74423V9.74427C65.013 9.96458 65.017 10.1849 64.9992 10.4037C64.9913 10.5013 64.9691 10.5957 64.9469 10.69C64.9262 10.7781 64.9056 10.8661 64.8966 10.9564C64.8795 11.1286 64.8368 11.2924 64.7939 11.4571L64.7939 11.4571C64.7619 11.5798 64.7297 11.703 64.708 11.8306C64.6838 11.9721 64.6731 12.1177 64.6624 12.2628V12.2628C64.6498 12.4327 64.6373 12.6019 64.6034 12.7631C64.5637 12.9523 64.5025 13.1369 64.4413 13.3215L64.4413 13.3215L64.4413 13.3215C64.3998 13.4466 64.3584 13.5717 64.3236 13.698C64.2906 13.8181 64.2726 13.9402 64.2545 14.0621C64.238 14.1734 64.2216 14.2845 64.1938 14.3938C64.0921 14.7941 63.9618 15.1912 63.8318 15.5877C63.7337 15.8867 63.6358 16.1854 63.5502 16.4849L63.0339 18.3533C62.851 18.9142 62.6067 19.462 62.3637 20.0069C62.2334 20.2992 62.1034 20.5907 61.9835 20.883C61.9499 20.9646 61.9338 21.0513 61.9176 21.1379C61.9025 21.2192 61.8874 21.3004 61.8578 21.3777C61.8321 21.4449 61.8067 21.5096 61.782 21.5728L61.782 21.5728C61.6294 21.962 61.5011 22.2895 61.4739 22.7449C62.5406 21.5911 63.43 20.1608 63.9841 18.679C64.0933 18.3871 64.2341 18.1025 64.3754 17.8172L64.3754 17.8172C64.5151 17.5351 64.6551 17.2522 64.7652 16.9608C64.8401 16.7627 64.9152 16.5647 64.9904 16.3666L64.9913 16.3643L64.9913 16.3642C65.6191 14.7101 66.2482 13.0527 66.7073 11.3422C66.758 11.1535 66.7899 10.9607 66.8219 10.768C66.8507 10.5943 66.8795 10.4207 66.922 10.2502C67.0176 9.86622 67.1179 9.48378 67.2181 9.10153C67.4886 8.06993 67.7588 7.03967 67.9367 5.98311C67.9837 5.70267 68.0234 5.43089 68.0212 5.14544C68.0206 5.06654 68.0167 4.98053 68.0127 4.89092L68.0127 4.89068C67.9984 4.57386 67.9821 4.2119 68.0995 3.95854L68.1302 3.89679L68.2203 3.69966L68.2538 3.6368C68.3866 3.37711 68.6031 3.21207 68.8278 3.0409C68.8634 3.01371 68.8993 2.98637 68.9351 2.95847C68.9547 2.97832 68.9793 3.00197 69.0064 3.02804C69.111 3.12872 69.2533 3.26552 69.2899 3.35937C69.3115 3.41472 69.3154 3.49173 69.3194 3.56906C69.3226 3.63252 69.3258 3.69619 69.3388 3.74831L69.3845 3.92747C69.4141 4.08006 69.3903 4.17701 69.3639 4.28449C69.3496 4.34297 69.3344 4.40457 69.3267 4.47995C69.3129 4.61516 69.3118 4.75152 69.3107 4.88797V4.88807C69.3093 5.04694 69.308 5.20592 69.2867 5.36333C69.246 5.66384 69.1707 5.95961 69.0955 6.25515C69.0436 6.4588 68.9918 6.66233 68.9514 6.86723C68.9289 6.98113 68.9207 7.09604 68.9125 7.21087V7.21093C68.9038 7.33258 68.8951 7.45413 68.8695 7.57426C68.8387 7.71927 68.7898 7.85651 68.7411 7.99316C68.6973 8.1159 68.6537 8.23816 68.6236 8.36515L68.0284 10.9346C67.9969 11.0501 67.9523 11.1596 67.9076 11.2693C67.8595 11.3875 67.8113 11.5059 67.7791 11.6326C67.7513 11.742 67.7332 11.8523 67.7152 11.9626L67.7151 11.9626C67.6918 12.1049 67.6685 12.2472 67.6242 12.3875C67.5944 12.4822 67.556 12.575 67.5176 12.6677L67.5176 12.6677C67.4703 12.7817 67.4232 12.8956 67.3922 13.0126C67.3716 13.0901 67.3605 13.17 67.3494 13.25V13.25C67.3375 13.3356 67.3256 13.4211 67.3022 13.5037C67.2796 13.5832 67.2428 13.6581 67.2059 13.7332C67.1749 13.7964 67.1439 13.8596 67.1212 13.9256C67.0741 14.0628 67.0408 14.2042 67.0076 14.3452L67.0076 14.3452C66.9744 14.4861 66.9413 14.6267 66.8946 14.7621C66.8621 14.8566 66.8213 14.9466 66.7803 15.0369L66.7803 15.037C66.7334 15.1405 66.6863 15.2444 66.6514 15.3554C66.6247 15.4404 66.609 15.5282 66.5934 15.6157L66.5934 15.6158C66.5763 15.7114 66.5592 15.8068 66.528 15.8977C66.2333 16.7541 65.8853 17.578 65.4977 18.3937C65.4662 18.4599 65.4412 18.5238 65.4165 18.5868C65.3735 18.6966 65.3317 18.8032 65.2595 18.913C64.8945 19.4688 64.6345 20.1058 64.3778 20.7349L64.3778 20.7349C64.2481 21.0527 64.1192 21.3685 63.978 21.6708C64.8422 21.301 65.3232 20.8159 65.9708 20.1624L65.9805 20.1527C67.3773 18.7433 68.4663 17.1337 69.4915 15.4373L69.5752 15.2989C70.3031 14.0954 71.0838 12.8045 71.5336 11.4744C71.6769 11.0504 71.7778 10.6338 71.8803 10.2107L71.8803 10.2106L71.8804 10.2102C71.921 10.0426 71.9619 9.87394 72.0057 9.70344C72.0312 9.60407 72.0696 9.50942 72.1078 9.41498C72.1471 9.31783 72.1864 9.2209 72.2115 9.11928L72.6125 7.50462C72.6422 7.38954 72.6578 7.27347 72.6733 7.15793V7.1579C72.6974 6.97828 72.7214 6.79992 72.7979 6.62846L72.8138 6.61386C72.9058 6.52954 72.9853 6.45667 73.1125 6.42956C73.2134 6.40807 73.2871 6.37832 73.3789 6.33086L73.4143 6.3122C73.5583 6.35558 73.6087 6.39654 73.7129 6.50569L73.7331 6.60107C73.8052 6.94157 73.8815 7.30139 73.8491 7.64654C73.8363 7.78375 73.7865 7.92242 73.7368 8.06079L73.7367 8.06087C73.702 8.15768 73.6672 8.25433 73.6453 8.35023C73.6139 8.48777 73.5923 8.62757 73.5708 8.76746L73.5708 8.76753L73.5708 8.7676C73.5433 8.94601 73.5159 9.12457 73.4677 9.29876C73.1993 10.271 72.9004 11.2042 72.5168 12.1357C72.4849 12.2132 72.4618 12.2935 72.4388 12.3738L72.4388 12.3738C72.4072 12.4838 72.3756 12.5937 72.3215 12.6954C72.172 12.9772 72.0432 13.2784 71.9148 13.579C71.8238 13.7918 71.733 14.0044 71.6349 14.2096C71.3513 14.8033 71.0078 15.3919 70.676 15.9592C69.8513 17.369 68.8733 18.6181 67.8804 19.8862L67.8802 19.8864C67.6562 20.1725 67.4315 20.4595 67.2076 20.7496C68.0828 20.3691 68.8744 19.3343 69.4743 18.5501C69.5231 18.4863 69.5706 18.4241 69.6168 18.3641C69.6861 18.2742 69.7632 18.1922 69.8404 18.1103L69.8404 18.1103C69.937 18.0077 70.0336 17.9051 70.1146 17.7868C70.2608 17.5732 70.4247 17.3738 70.5885 17.1742L70.5886 17.1742L70.5886 17.1741C70.7161 17.0189 70.8436 16.8636 70.9629 16.7016L73.7324 12.8375C73.9268 12.5462 74.0743 12.2396 74.2207 11.9353C74.4755 11.4058 74.7269 10.8833 75.216 10.4607C75.4454 10.2625 75.874 9.95926 76.1789 9.98271C76.1897 9.99569 76.2016 10.0086 76.2137 10.0218C76.2551 10.0668 76.2984 10.1139 76.3096 10.1715C76.3874 10.5718 76.074 11.3728 75.8438 11.7086C75.5495 12.1376 75.3004 12.6035 75.0508 13.0705C74.8278 13.4876 74.6044 13.9056 74.3478 14.2989C74.0696 14.7255 73.7506 15.1352 73.4329 15.5433L73.4328 15.5433C73.2511 15.7767 73.0699 16.0095 72.897 16.2445C72.7117 16.4962 72.5279 16.7552 72.343 17.0157L72.3428 17.0159L72.3428 17.016C71.8976 17.643 71.4462 18.2789 70.9541 18.8443C70.6696 19.1711 70.3279 19.4732 69.9888 19.7729C69.7844 19.9536 69.581 20.1334 69.3916 20.3173L68.0139 21.7877C67.8441 21.9645 67.6723 22.1374 67.5009 22.3098C67.1212 22.6917 66.7436 23.0716 66.3937 23.4883C66.4315 23.4812 66.4698 23.4742 66.5084 23.4671C66.8535 23.4039 67.2234 23.3361 67.5233 23.1608L69.526 22.115C69.8461 21.9323 70.1532 21.6778 70.458 21.4252C70.6674 21.2517 70.8756 21.0791 71.0862 20.9314C71.1878 20.8602 71.2979 20.8019 71.4078 20.7436C71.5269 20.6806 71.6459 20.6176 71.7538 20.5383C72.0492 20.3214 72.3212 20.0562 72.5936 19.7906L72.5936 19.7905C72.8366 19.5536 73.08 19.3163 73.3407 19.1126C73.5245 18.969 73.6868 18.8107 73.8498 18.6518C73.9527 18.5515 74.0558 18.451 74.1647 18.3538C74.2987 18.2342 74.4405 18.1303 74.5829 18.0259L74.583 18.0259C74.7671 17.891 74.9522 17.7554 75.1224 17.5844C75.5703 17.1346 75.9566 16.649 76.3446 16.1614C76.5953 15.8462 76.8466 15.5303 77.1158 15.2225C77.2611 15.0563 77.4367 14.9069 77.6126 14.7574C77.7525 14.6384 77.8926 14.5193 78.0177 14.3914C78.0689 14.3391 78.1267 14.2748 78.1892 14.2052L78.1893 14.2051C78.4092 13.9606 78.6863 13.6522 78.9326 13.581C79.1284 13.5245 79.1671 13.5336 79.3373 13.6265C79.4527 14.0077 79.4317 14.6364 79.1878 14.9701C79.0759 15.1233 78.9466 15.2456 78.818 15.3673C78.6449 15.5311 78.473 15.6938 78.3457 15.9294C78.2704 16.069 78.1483 16.1849 78.0278 16.2994C77.957 16.3666 77.8867 16.4333 77.8267 16.504L77.7593 16.5835L77.7593 16.5836C77.3246 17.0965 76.916 17.5787 76.4165 18.046C76.3164 18.1397 76.2079 18.2187 76.0999 18.2973L76.0998 18.2974C76.0014 18.369 75.9035 18.4404 75.8126 18.5223C75.6618 18.6582 75.5212 18.8063 75.3807 18.9544L75.3807 18.9544C75.2302 19.113 75.0798 19.2716 74.9168 19.4151C74.8603 19.4649 74.7973 19.5047 74.7345 19.5444C74.6747 19.5822 74.615 19.62 74.5611 19.6661C74.4081 19.7973 74.2562 19.9283 74.1048 20.0591C73.313 20.7424 72.5333 21.4153 71.6673 22.0268C71.4435 22.1849 71.2 22.3276 70.9569 22.47L70.9567 22.4701C70.7813 22.5729 70.6061 22.6756 70.4387 22.7838C70.2745 22.89 70.1131 22.9989 69.952 23.1077L69.9519 23.1077C69.6061 23.3411 69.2614 23.5737 68.8924 23.7768C68.7485 23.8561 68.6022 23.9171 68.456 23.9781C68.3318 24.0298 68.2076 24.0816 68.0851 24.1445C67.9499 24.2139 67.8125 24.2862 67.6737 24.3593C67.1541 24.6328 66.6127 24.9178 66.0786 25.1064C65.7285 25.2302 65.3648 25.2912 65.0026 25.352C64.6694 25.4079 64.3374 25.4636 64.0185 25.5676C63.7136 25.6672 63.5164 25.7663 63.3745 26.0572C63.4181 26.2763 63.4753 26.3804 63.6456 26.5326C63.7841 26.6566 63.9754 26.6624 64.1609 26.6681C64.2415 26.6705 64.321 26.6729 64.3946 26.6849C64.5564 26.7114 64.7179 26.7402 64.8795 26.7691L64.8795 26.7691C65.2609 26.8372 65.6428 26.9054 66.029 26.9421C66.2765 26.9656 66.525 26.9766 66.7735 26.9876H66.7736C67.0781 27.0011 67.3827 27.0145 67.6856 27.0511C67.8117 27.0663 67.9321 27.0988 68.0519 27.1311C68.1929 27.1691 68.3332 27.2069 68.4814 27.2164C69.2066 27.2628 70.0479 27.2872 70.7682 27.204C70.9469 27.1833 71.1179 27.1445 71.2877 27.1059L71.2877 27.1059L71.2878 27.1059C71.4325 27.0731 71.5764 27.0404 71.7232 27.0194C71.9036 26.9936 72.0902 26.9892 72.2778 26.9848H72.2778C72.4597 26.9805 72.6426 26.9762 72.8219 26.9523C74.9982 26.6623 77.0401 26.1908 78.9218 25.0023C79.1249 24.874 79.3315 24.69 79.5437 24.501C79.8907 24.1918 80.2526 23.8694 80.6388 23.7559C80.8131 23.7048 81.0195 23.6958 81.2113 23.6876L81.2116 23.6875C81.2601 23.6854 81.3077 23.6834 81.3535 23.6807C81.3383 23.9944 81.2888 24.3569 81.1846 24.6523C80.8943 25.4759 79.7168 26.0044 78.7896 26.4206L78.7896 26.4206C78.5546 26.5261 78.3356 26.6244 78.1513 26.7184C76.4261 27.5986 74.2245 28.0245 72.3205 28.2046C71.7569 28.2578 71.18 28.2677 70.6143 28.253C70.347 28.2461 70.0809 28.2359 69.8153 28.2258C69.0695 28.1974 68.3282 28.1691 67.5761 28.2125C67.5177 28.2158 67.4575 28.2177 67.3965 28.2196C67.1192 28.2281 66.8237 28.2373 66.5963 28.3892L66.5957 28.5432C66.8578 28.8349 67.2098 28.9706 67.5784 29.0803C68.0561 29.2225 68.5267 29.4054 68.9986 29.5888L68.9987 29.5889C69.8267 29.9106 70.6588 30.234 71.5402 30.3422C72.0846 30.4089 72.6447 30.3989 73.1964 30.389C73.3158 30.3869 73.4347 30.3847 73.5531 30.3834C73.7195 30.3814 73.8878 30.3827 74.0567 30.3839H74.0568C74.4394 30.3868 74.8252 30.3896 75.1999 30.3558C75.3796 30.3396 75.5497 30.2903 75.7198 30.2411L75.7198 30.241C75.8526 30.2026 75.9853 30.1641 76.1227 30.1414C76.3789 30.099 76.6652 30.107 76.9394 30.1148C77.0354 30.1175 77.13 30.1201 77.2213 30.1206C77.3173 30.121 77.4141 30.1204 77.5113 30.1197C77.9088 30.1171 78.3135 30.1143 78.7003 30.1856L78.7646 30.3235C78.7184 30.4244 78.7003 30.5378 78.6826 30.6492C78.6633 30.7704 78.6444 30.8892 78.59 30.987C78.2965 31.5145 77.4344 31.5672 76.8101 31.6055C76.7099 31.6116 76.6157 31.6174 76.5311 31.6247C74.6718 31.785 72.4826 31.8546 70.6553 31.4129C69.8462 31.2173 69.0725 30.9162 68.2987 30.615C68.1789 30.5683 68.0591 30.5217 67.9391 30.4755C67.0183 30.1205 66.081 29.7553 65.201 29.3071L63.9718 28.6815C63.8933 28.6387 63.8151 28.5959 63.7371 28.5532C63.2094 28.2644 62.6882 27.9791 62.1342 27.7338L62.0719 27.7061C61.7608 27.5675 61.4456 27.427 61.0989 27.4944L61.1168 27.5493C61.4747 28.5879 62.2921 29.5206 63.0318 30.3646L63.0319 30.3646C63.1533 30.5031 63.2725 30.6392 63.3874 30.773C63.435 30.8286 63.4729 30.8913 63.5107 30.9538C63.5505 31.0197 63.5902 31.0853 63.641 31.142C64.1937 31.759 64.8407 32.4563 65.4731 32.9879L67.0627 34.2058C67.1259 34.2525 67.1849 34.3058 67.2439 34.3591C67.3462 34.4515 67.4486 34.5439 67.5728 34.6024C67.6958 34.6603 67.7921 34.7331 67.8887 34.8061C67.9624 34.8618 68.0362 34.9177 68.1221 34.9671L68.9365 35.4186C69.4732 35.7106 70.0236 35.8887 70.5858 36.0706L70.5859 36.0706L70.5859 36.0707C70.7605 36.1271 70.9361 36.184 71.1129 36.2447C71.2178 36.2808 71.3192 36.3264 71.4206 36.372L71.4206 36.372C71.5595 36.4344 71.6982 36.4968 71.8456 36.5346L74.9429 37.361L75.006 37.3743C75.2685 37.4297 75.6299 37.5058 75.8253 37.6644C75.9566 37.771 76.0401 37.8821 76.0421 38.0582C76.0438 38.1913 76.0121 38.3288 75.9047 38.4133C75.6621 38.6043 75.0813 38.6402 74.7833 38.6129C74.2115 38.5603 73.6454 38.3527 73.0888 38.1487L73.0887 38.1487C72.8342 38.0554 72.5817 37.9628 72.3316 37.8862C72.0385 37.7964 71.7388 37.7222 71.4388 37.6479L71.4386 37.6479L71.4385 37.6479C70.9995 37.5392 70.5598 37.4304 70.1394 37.2723C69.5696 37.058 69.0426 36.7518 68.5174 36.4465L68.5161 36.4458C68.4121 36.3853 68.3081 36.3249 68.204 36.2653C67.1284 35.6494 66.1712 35.0444 65.1717 34.3049C65.1003 34.2521 65.0237 34.2147 64.9469 34.1773L64.9469 34.1773C64.8602 34.135 64.7734 34.0927 64.6941 34.028C64.5242 33.8896 64.3658 33.7034 64.2105 33.521C64.1201 33.4147 64.0307 33.3097 63.9408 33.2161C63.7253 32.992 63.4949 32.7824 63.2651 32.5733C63.0095 32.3407 62.7546 32.1087 62.5216 31.8582C62.3924 31.7193 62.2843 31.5613 62.1762 31.4034C62.0888 31.2758 62.0014 31.1482 61.903 31.0307C61.7599 30.8599 61.6227 30.6464 61.4811 30.4262C61.1842 29.9642 60.8679 29.4721 60.437 29.2799L60.3158 29.4027C60.3549 30.007 60.3368 30.6091 60.3187 31.2108C60.3052 31.6591 60.2917 32.1071 60.3019 32.5559C60.3101 32.9179 60.3466 33.2729 60.3831 33.6289C60.4034 33.8263 60.4237 34.0239 60.4393 34.2232C60.4487 34.344 60.4478 34.4647 60.447 34.5853C60.4459 34.7257 60.4449 34.866 60.4602 35.0064C60.4727 35.1211 60.4964 35.2344 60.5201 35.3474C60.5485 35.4833 60.5768 35.6189 60.5856 35.7562C60.6124 36.1766 60.606 36.6081 60.5997 37.0361V37.0362C60.5969 37.2297 60.5941 37.4225 60.5943 37.6132L60.5812 42.0853C60.5831 42.3366 60.6178 42.5828 60.6526 42.8298C60.6871 43.0749 60.7218 43.3207 60.7246 43.5733L60.7536 46.2138C60.7547 46.2836 60.7471 46.4222 60.7379 46.5903L60.7379 46.5904V46.5904C60.7143 47.0219 60.6801 47.6471 60.7536 47.799C60.9394 48.1818 60.8983 49.2863 60.8701 50.0457L60.8701 50.0458C60.8618 50.2671 60.8547 50.4591 60.8546 50.5954L60.8526 56.47C60.8276 56.6834 60.8162 56.98 60.8331 57.3925C60.8617 58.09 60.9444 58.4697 61.0235 58.6761L61.0376 58.7454C61.1354 59.1669 61.1887 59.9465 61.0468 60.3525C61.0105 60.4564 60.9889 60.5222 60.9853 60.6334C60.9796 60.8047 60.9716 60.995 60.9116 61.1568C60.5356 62.1687 60.6582 63.6383 60.8139 64.6907C60.8283 64.7883 60.8572 64.8803 60.886 64.9722C60.9208 65.083 60.9555 65.1936 60.9648 65.3136C60.9814 65.5293 60.9772 65.757 60.9729 65.9864C60.9662 66.3426 60.9595 66.7029 61.0308 67.0289C61.1281 67.4728 61.1939 68.4639 61.0453 68.8816C60.9787 69.0685 60.955 69.2609 60.931 69.4563L60.92 69.5446L60.94 69.5806C61.0342 69.76 61.0752 69.9573 61.1163 70.1548C61.1347 70.2431 61.153 70.3313 61.1761 70.418C61.2085 70.5396 61.2596 70.651 61.3108 70.7625C61.366 70.8827 61.4212 71.0029 61.453 71.1362C61.6184 71.8279 61.5567 72.9138 61.3611 73.5896L61.3399 73.6394C61.3126 73.722 61.3089 73.8107 61.3051 73.8995C61.3029 73.9541 61.3006 74.0088 61.2928 74.062L61.1489 75.199L61.1452 75.2367C61.1323 75.3705 61.1106 75.596 61.0351 75.6878C60.9913 75.7413 60.8607 75.8252 60.798 75.8533C60.7431 75.8778 60.6757 75.8828 60.6148 75.8873L60.5843 75.8897C60.2865 75.7162 60.2154 75.5923 60.1228 75.2554C60.0834 75.1119 60.0619 74.9736 60.0411 74.84C59.9914 74.5202 59.9458 74.227 59.6688 73.9524C59.5786 73.981 59.5298 74.0127 59.4581 74.0745Z" fill="#54224B"/>
<path d="M95.1702 19.7791C96.106 19.7471 97.314 19.6077 98.2159 19.8431C98.9116 20.0245 99.7413 20.0011 100.465 20.0661C100.743 20.0911 101.091 20.0887 101.328 20.2545L102.477 21.0241L102.794 21.2086C103.594 21.7371 104.137 22.601 104.639 23.4046C104.863 23.7638 105.051 23.9579 105.144 24.3984C105.293 25.1016 105.586 25.7955 105.682 26.5028C105.78 27.2269 105.629 28.0471 105.545 28.7712L102.806 28.7681C102.805 28.176 102.917 27.6559 102.957 27.0791C103.005 26.3798 102.964 25.6529 102.956 24.9515C102.953 24.7178 103.006 24.2707 102.944 24.0581C102.76 23.4308 102.007 22.694 101.705 22.0655L101.668 21.9851C99.1467 21.1295 95.8942 20.536 93.3909 21.7834C92.7604 22.0975 92.2863 22.9079 91.8576 23.4581C91.7705 23.57 91.4639 23.8831 91.4323 24.0038C91.3366 24.3687 91.4712 24.9437 91.4239 25.3445C91.3975 25.568 91.2806 25.7527 91.2663 25.9872C91.213 26.8603 91.3183 27.7951 91.1871 28.6553C91.1233 29.0733 90.909 29.4469 90.8444 29.8679C90.7644 30.3907 90.7147 31.0481 90.5624 31.5393C90.3495 32.2257 90.4377 32.9407 90.4315 33.6513C90.425 34.4024 90.3498 35.2232 90.454 35.9664C90.5122 36.3817 90.8002 36.8745 90.7545 37.2683C90.7336 37.4483 90.7284 37.5332 90.7787 37.7075C91.666 37.7768 92.6371 37.3844 93.504 37.2302C94.1743 37.1109 94.9512 37.1773 95.632 37.1882C96.0263 37.1943 96.5548 37.1603 96.9204 37.3219C97.7379 37.6833 98.7733 37.6648 99.6466 37.8758L100.008 40.0312L90.7879 39.7712C90.8159 40.4359 90.8758 41.1402 90.8109 41.802C90.7811 42.1062 90.6431 42.377 90.6306 42.687L90.6253 47.4652C90.6246 48.7348 90.4737 50.1934 90.7457 51.4263C90.9228 52.2289 90.9452 52.9558 91.2236 53.7516C91.4795 54.6664 91.3091 55.56 91.5042 56.4489C91.5707 56.7523 91.7272 57.0348 91.8119 57.3341C91.9482 57.8156 91.9766 58.3277 92.1035 58.8123C92.2335 59.3093 92.4317 59.7187 92.5233 60.2363C92.663 61.0264 94.1241 61.4952 94.7076 61.9216L94.7788 61.9745C95.7632 61.9034 96.8383 62.0301 97.8017 61.895C98.3754 61.8146 99.0181 61.5858 99.5688 61.4009C99.9091 61.2863 100.361 61.1705 100.66 60.9632C100.911 60.7898 101.121 60.5344 101.369 60.3472C101.702 60.0969 102.264 59.701 102.701 59.781C103.106 59.855 103.499 59.8638 103.875 60.0659C104.086 60.1795 104.272 60.2984 104.35 60.5409C104.129 61.0221 103.81 61.5133 103.485 61.9292C102.826 62.7751 102.176 62.8735 101.251 63.231C100.634 63.4694 99.9943 63.7523 99.3337 63.8142C98.7375 63.87 98.1532 64.0112 97.5573 64.0737C96.2066 64.2156 94.8091 64.1828 93.487 63.8651C93.0737 63.7656 92.7071 63.706 92.3211 63.5059C90.9881 62.8152 89.5788 61.709 89.0981 60.1953L89.06 60.0713C88.5 58.3261 88.5265 56.6588 88.4395 54.8482C88.406 54.1512 88.2914 53.4648 88.2214 52.7719C88.1058 51.627 87.924 50.4908 87.3428 49.4853C87.2857 49.3865 87.2241 49.3117 87.1965 49.1969C86.9994 48.3767 87.0621 47.3297 87.0603 46.4849L87.0553 42.0638C87.0545 39.7003 86.9106 37.2196 87.0903 34.8692C87.1635 33.9118 87.4534 32.9307 87.5733 31.9661C87.6831 31.083 87.6333 30.2054 87.7326 29.3372C87.776 28.9573 88.0081 28.5403 88.0786 28.1279L88.3688 26.2535C88.4134 25.8437 88.4022 25.413 88.4931 25.0122C88.5401 24.8052 88.6182 24.6151 88.7177 24.4296C89.255 23.4271 90.1484 22.5425 90.8573 21.6723C91.2208 21.226 91.7505 20.2615 92.3011 20.0337C92.4686 19.9644 93.037 20.0583 93.2686 20.0552C93.8632 20.0468 94.4986 19.9946 95.0669 19.8131L95.1702 19.7791Z" fill="#54224B"/>
<path d="M139.971 19.77C140.194 19.7266 140.54 19.6823 140.764 19.7288C141.184 19.8159 141.648 21.5088 141.91 21.9393L141.975 22.0434C141.967 22.2425 141.964 22.4231 141.899 22.6137C141.814 22.8651 141.776 23.1378 141.769 23.4035C141.756 23.8473 141.568 24.2141 141.533 24.6481C141.47 25.4175 141.519 26.2323 141.52 27.0064C141.521 27.686 141.466 28.4334 141.613 29.0977C141.929 30.5272 141.851 31.9596 142.025 33.396C142.147 34.4035 142.772 35.9968 142.515 36.9356C142.367 37.4777 142.437 37.9692 142.36 38.513C142.283 39.0643 142.137 39.6001 142.068 40.1622C142.58 40.1447 143.088 40.2043 143.599 40.1998C144.188 40.1945 144.788 40.1359 145.374 40.1969C145.884 40.25 146.374 40.444 146.871 40.4848L149.181 40.5748C149.497 40.5897 149.788 40.7356 150.083 40.7301C150.787 40.7168 152.414 40.4624 152.9 39.9635C153.029 39.6862 152.964 39.3006 152.957 38.9976L152.925 36.7369L152.908 27.4877C152.892 26.9437 152.739 26.4153 152.73 25.8758L152.741 21.8061C153.384 21.2022 154.854 22.3115 155.646 22.2768L155.711 22.2721C155.772 22.3244 155.86 22.3556 155.895 22.4286C155.943 22.5321 155.927 22.9069 155.933 23.0344L155.946 25.2806L155.946 44.2199L155.934 53.1577C155.95 53.859 156.137 54.5464 156.159 55.243L156.179 58.3241C156.182 58.7626 156.128 59.3055 156.231 59.7275L156.7 62.0714C156.817 62.5897 157.047 63.0814 157.175 63.6035C156.721 63.9996 155.24 63.82 154.63 63.8119C154.194 63.0751 153.898 62.4505 153.801 61.5893L153.794 61.5207L153.773 50.3804C153.775 48.9148 153.905 47.3247 153.731 45.8718C153.702 45.6249 153.552 45.4002 153.487 45.1574C153.321 44.5443 153.319 43.9324 153.008 43.3601C152.934 43.2234 152.89 43.1334 152.871 42.9775C152.854 42.8359 152.829 42.7545 152.757 42.6268C152.256 42.5588 151.652 42.7051 151.138 42.7206L147.661 42.7316C146.701 42.7094 145.795 42.3738 144.85 42.2722C143.995 42.1801 143.065 42.3652 142.209 42.4538C142.295 43.0012 142.464 43.5229 142.568 44.0658C142.649 44.49 142.668 44.9463 142.765 45.3621C142.823 45.6118 142.931 45.7995 142.952 46.0664C142.984 46.4504 142.77 46.7334 142.662 47.0911C142.572 47.3892 142.569 47.6826 142.566 47.9905L142.585 51.6727C142.585 52.2055 142.655 52.8355 142.497 53.3413C142.279 54.042 142.361 54.8271 142.153 55.5694C142.453 56.3068 142.794 57.2874 142.915 58.0746C143.063 59.0354 142.968 60.1392 142.966 61.1139C142.964 62.2565 143.094 63.6978 142.839 64.8004L142.564 64.9337C141.731 64.6696 140.691 64.5427 139.817 64.4713C139.783 63.9447 140.118 63.2877 140.247 62.7762C140.347 62.3803 140.341 61.9666 140.345 61.5607C140.35 60.9764 140.361 60.3643 140.263 59.7868C140.192 59.3682 140.017 58.9678 139.971 58.5463C139.874 57.6718 139.983 56.7326 139.955 55.8489C139.93 55.0936 139.788 54.3548 139.752 53.6027L139.714 48.2255C139.712 47.4708 139.781 46.6234 139.659 45.885C139.422 44.456 139.395 42.9926 139.297 41.5519C139.261 41.0306 139.142 40.5283 139.12 40.0029L139.112 29.0524L139.113 25.7505C139.114 25.1509 139.16 24.5071 139.093 23.9128C139.038 23.4372 138.846 22.9832 138.782 22.5057C138.702 21.9246 138.811 21.3142 138.656 20.7455L138.461 20.0667C138.936 19.9655 139.403 19.9365 139.874 19.7992L139.971 19.77Z" fill="#54224B"/>
<path d="M221.739 19.7378C222.069 19.6867 222.327 19.708 222.655 19.7673C222.952 20.0793 223.216 20.6571 223.294 21.0775C223.371 21.4922 223.587 21.8533 223.625 22.2803C223.676 22.8538 223.448 23.2509 223.434 23.7915C223.385 25.7523 223.29 27.8871 223.437 29.8381C223.488 30.5129 223.693 31.2574 223.796 31.9368C223.888 32.5453 223.83 33.197 223.891 33.8171C223.984 34.7674 224.229 35.7233 224.247 36.6726C224.264 37.5287 224.078 38.4571 223.953 39.3076C223.913 39.5846 223.783 39.9699 223.851 40.242C225.259 40.269 226.789 40.0714 228.162 40.376C228.931 40.5464 229.715 40.5471 230.5 40.5837C231.058 40.6097 231.674 40.7627 232.213 40.7529C233.147 40.7357 234.16 40.4509 235.057 40.216C235.042 39.4138 234.892 38.6061 234.873 37.7948L234.876 27.306L234.849 25.0041C234.827 24.6088 234.712 24.2412 234.738 23.8369C234.784 23.0913 234.987 22.2854 235.095 21.5381C235.966 21.7326 236.841 22.1289 237.722 22.2449L237.787 22.2527C237.882 22.3417 238.086 22.4845 238.148 22.5893C238.344 22.9232 238.217 27.6567 238.217 28.3427L238.214 49.1869L238.212 53.0751C238.211 53.641 238.112 54.3902 238.285 54.9258L238.336 55.0862C238.469 55.5523 238.412 56.1395 238.414 56.6244C238.419 58.2323 238.242 59.8319 238.683 61.3937C238.805 61.8285 239.187 63.3761 238.998 63.7265C238.342 63.9187 237.401 63.9841 236.722 63.936C236.544 63.6232 236.339 63.2989 236.232 62.955C236.074 62.4486 236.015 61.8305 235.712 61.3882L235.673 61.3346C235.867 60.905 235.785 60.4307 235.773 59.9714L235.76 57.9651L235.739 49.7792C235.727 48.4242 235.856 46.9761 235.717 45.6331C235.61 44.6062 235.051 43.6227 234.889 42.5998C233.096 42.8001 231.117 42.8809 229.318 42.7295C228.399 42.6521 227.491 42.3712 226.566 42.2882C225.76 42.2157 224.875 42.3876 224.076 42.4964C224.071 42.6311 224.059 42.5926 224.095 42.7033C224.333 43.4339 224.448 44.0686 224.526 44.8297C224.639 45.9414 224.651 46.8474 224.295 47.9225C224.124 48.4371 224.229 49.0814 224.233 49.6184C224.235 49.8026 224.159 49.9474 224.16 50.1256L224.171 52.9992C224.175 53.1808 224.268 53.3374 224.265 53.5456C224.253 54.309 223.75 55.314 224.149 56.062C224.869 57.4107 224.66 59.1422 224.648 60.6185L224.599 64.9337L221.575 64.4256C221.928 63.7404 222.135 63.195 222.157 62.4184C222.175 61.7884 222.207 61.1251 222.118 60.5001C222.058 60.0831 221.895 59.6766 221.843 59.2676C221.701 58.173 221.822 57.0174 221.757 55.911C221.707 55.0537 221.495 54.211 221.452 53.3505L221.426 46.0384C221.409 45.4747 221.213 44.9428 221.18 44.3849C221.118 43.3445 221.217 42.3101 221.027 41.276C220.921 40.698 220.969 40.0773 220.971 39.4907L220.973 36.6141L220.968 25.5244C220.956 24.6837 220.726 24.0188 220.621 23.2129L220.336 19.9549C220.787 19.8751 221.172 19.9148 221.629 19.7728L221.739 19.7378Z" fill="#54224B"/>
<path d="M254.194 22.1388C255.143 21.9927 256.17 22.0688 257.129 22.0674L261.98 22.089C262.301 22.3449 262.555 22.6502 262.821 22.9664C262.891 23.4389 262.942 24.3192 262.788 24.7656C262.602 25.3035 262.636 26.1231 262.636 26.6977L262.636 30.1898C262.626 30.5353 262.482 30.8347 262.46 31.1674C262.351 32.8036 262.457 34.5275 262.459 36.1719L262.445 42.5586C262.46 43.041 262.63 43.4984 262.649 43.9846C262.695 45.2195 262.561 46.4759 262.839 47.6866C262.874 47.8382 262.901 47.9789 262.915 48.1346C262.965 48.7066 263.127 49.2383 263.166 49.8226C263.017 50.0531 263.063 50.3715 263.071 50.6398C263.11 51.9086 263.568 52.6947 263.868 53.8598C264.035 54.5095 263.951 55.2769 263.946 55.9479L263.939 59.5674C263.938 61.3374 264.079 63.1747 263.934 64.9343C263.308 64.6839 262.795 64.3719 262.231 64.0023C261.953 63.8199 261.554 63.4971 261.233 63.4313L261.13 63.4132C260.77 62.823 260.953 60.8561 260.953 60.0858C260.952 58.4651 261.069 56.7781 260.955 55.1656L260.649 52.0322C260.577 51.5027 260.434 50.9899 260.401 50.4544C260.316 49.0351 260.539 47.6167 260.321 46.1934L260.107 44.7239C259.828 44.6294 259.447 44.9657 259.121 44.925C258.343 44.8283 257.222 45.1517 256.438 45.2811C256.186 45.7592 255.629 46.3543 255.183 46.6196C255.171 46.7313 255.188 46.6902 255.137 46.7755C254.829 47.2975 254.42 48.4432 254.371 49.0692C254.322 49.6885 254.417 50.3346 254.289 50.9461C254.149 51.6115 253.705 52.3418 253.654 52.9981C253.619 53.4505 253.365 53.8024 253.243 54.2358C253.111 54.7055 253.126 55.2019 253.04 55.6786C252.955 56.1455 252.739 56.5538 252.681 57.0438C252.565 58.0301 252.672 59.1059 252.657 60.1027C252.648 60.6663 252.677 61.127 252.397 61.6298L252.209 61.9951C252.017 62.4486 251.756 63.077 251.399 63.4054C250.901 63.8635 249.96 64.1592 249.37 64.5254C248.779 64.3908 248.193 64.0609 247.625 63.8318C248.204 63.1428 250.684 60.8322 250.809 60.1049C250.836 59.9458 250.797 59.6876 250.792 59.5202C250.774 58.8286 250.648 57.7723 250.859 57.121C251.086 56.4198 251.082 55.4599 251.165 54.719C251.216 54.2557 251.387 53.7944 251.378 53.3223C251.373 53.0533 251.427 52.8317 251.545 52.592C251.746 52.1845 251.948 51.7192 251.961 51.2515C251.976 50.7268 251.846 50.1592 251.971 49.6486C252.233 48.5722 252.527 47.4841 253.193 46.5911C253.593 46.054 254.112 45.5899 254.533 45.0536C253.786 44.4545 252.782 44.1393 252.081 43.5185C251.826 43.2932 251.554 42.7842 251.386 42.478C250.754 41.3223 250.32 40.1397 249.957 38.8703C249.847 38.4877 249.7 38.1038 249.654 37.705C249.488 36.2646 249.636 34.6069 249.637 33.1485C249.637 32.3018 249.502 31.1007 249.718 30.2946C249.941 29.4587 249.859 28.4864 250.065 27.6502C250.257 26.8715 250.027 26.0244 250.204 25.2756C250.234 25.1468 250.482 24.8581 250.561 24.7409C250.986 24.1107 251.497 23.5206 251.828 22.8268L251.872 22.7317C252.707 22.639 253.386 22.3406 254.194 22.1388ZM255.443 23.4572C254.734 23.5603 253.598 23.5527 253.012 23.9281L252.909 23.9877C252.187 24.4183 252.222 24.9985 251.87 25.6731C251.44 26.4985 251.845 27.8695 251.588 28.8245C251.382 29.5893 251.522 30.7161 251.521 31.5183L251.525 35.7839C251.527 36.4983 251.468 37.2788 251.55 37.9867C251.62 38.592 251.964 39.5117 252.262 40.0306C252.487 40.4212 252.787 40.7641 253.013 41.1596C253.399 41.8377 253.635 42.4714 254.312 42.8807C254.556 43.0283 254.805 43.0624 255.055 43.1774C255.29 43.2847 255.485 43.5034 255.736 43.5694L255.898 43.5951C256.001 43.612 256.05 43.6688 256.12 43.7444L256.314 43.6724C256.618 43.6258 256.894 43.5877 257.182 43.4673C257.96 43.1419 258.881 43.475 259.736 43.0919C259.672 42.3088 259.601 41.4726 259.678 40.6889C259.715 40.3127 259.829 39.9736 259.839 39.5866L259.846 37.0952C259.847 36.5999 259.814 36.079 260.005 35.6161C260.199 35.1494 260.077 34.1494 260.077 33.6266L260.082 27.9818C260.105 27.1482 260.32 26.2515 260.407 25.4116C260.476 24.7437 260.435 24.0712 260.479 23.4012L255.443 23.4572Z" fill="#54224B"/>
<path d="M172.559 21.3208C174.685 21.1502 176.619 21.3853 178.567 22.3295C178.902 22.492 179.252 22.6571 179.568 22.8564C179.746 22.9686 179.915 23.1441 180.111 23.2113C180.203 23.2424 180.278 23.2622 180.363 23.3128C180.95 23.6602 181.32 24.5492 181.648 25.1371C182.288 26.2818 182.9 27.5172 183.179 28.8142C183.414 29.9095 183.363 30.9592 183.433 32.062C183.463 32.5499 183.605 33.022 183.626 33.5129L183.61 40.3597C183.608 40.8672 183.805 41.3196 183.811 41.8332L183.763 48.9141L183.764 52.2022C183.765 52.8992 183.716 53.656 183.91 54.329C184.164 55.2083 184.005 56.2409 184.128 57.1579C184.206 57.7334 184.461 58.2552 184.558 58.8202C184.621 59.1922 184.556 59.6481 184.703 59.9928C185.011 60.7163 184.912 61.7557 185.104 62.5213C185.183 62.8343 185.332 63.5596 185.181 63.8534C185.091 64.0288 183.129 64.1162 182.77 64.2332L182.701 64.2574L182.491 64.0401L181.668 46.8943C180.295 46.9911 178.577 46.9608 177.286 47.401L177.167 47.4424C174.852 47.5111 172.539 47.276 170.215 47.434C169.804 47.462 169.215 47.4156 168.859 47.6194C168.444 48.3311 168.756 49.2088 168.768 49.969C168.784 51.038 168.487 52.0125 168.454 53.0576C168.434 53.6875 168.627 54.577 168.392 55.1582C168.203 55.6225 168.232 56.1654 168.23 56.6643L168.268 59.5982C168.276 60.0179 168.337 60.5003 168.204 60.9005C168.024 61.4393 168.01 62.0195 167.844 62.5695C167.611 63.3457 167.142 64.1702 166.828 64.9304C166.2 64.9677 165.564 64.7551 164.973 64.5648C164.971 64.3231 165 64.1139 165.048 63.8784C165.172 63.2731 165.331 62.6236 165.343 62.0033C165.362 61.0945 165.214 60.12 165.345 59.2207C165.401 58.8353 165.593 58.5036 165.706 58.1363C165.874 57.5924 165.919 57.0001 165.928 56.4329C165.94 55.6149 165.948 54.7743 165.889 53.9586C165.843 53.3156 165.721 52.732 165.72 52.0717L165.715 38.8701C165.728 38.158 165.904 37.4802 165.915 36.7679C165.948 34.5117 165.768 32.1463 166.045 29.9254C166.22 28.5192 167.077 26.9549 167.617 25.6417C167.87 25.0264 168.013 24.4606 168.358 23.878C168.67 23.3514 169.273 22.4036 169.733 22.0483C169.887 21.9296 170.203 21.8787 170.387 21.8269L172.559 21.3208ZM173.865 23.2802C173.155 23.6482 172.14 24.0141 171.665 24.6523C171.212 25.2617 170.597 25.7342 170.192 26.3827C169.772 27.0544 169.71 27.6316 169.495 28.3646C169.181 29.4292 168.625 30.6109 168.501 31.7109C168.414 32.4717 168.617 33.3648 168.361 34.0789C168.208 34.5062 168.245 35.0285 168.238 35.4803L168.23 37.983L168.255 45.785C169.021 45.7353 170.085 45.6432 170.823 45.8497C171.643 46.0787 172.517 45.7449 173.336 45.7267L176.008 45.7956L181.561 44.9961C181.521 44.0165 181.594 42.8632 181.412 41.9059C181.301 41.3198 180.94 40.8616 180.887 40.2455C180.745 38.5986 180.99 36.9035 180.833 35.2652C180.78 34.7113 180.559 34.2445 180.416 33.718C180.283 33.2252 180.265 32.7019 180.146 32.2045C180.032 31.7262 179.844 31.2644 179.747 30.7828C179.63 30.1966 179.726 29.58 179.586 28.9878C179.487 28.5736 179.372 28.2196 179.157 27.851C179.087 27.7319 179.046 27.6169 178.997 27.4884C178.811 26.9987 178.504 26.6017 178.22 26.1711C178.064 25.9352 177.962 25.6606 177.782 25.4406C177.429 25.0082 177.045 24.735 176.747 24.2379L173.865 23.2802Z" fill="#54224B"/>
<path d="M122.666 21.3294L123.414 21.2744C124.03 21.2438 124.799 21.361 125.403 21.5105C125.703 21.5846 125.95 21.751 126.262 21.8182C126.534 21.8766 127.103 21.9035 127.332 22.0238C127.443 22.0824 127.612 22.2833 127.711 22.3744C127.728 22.7764 127.77 23.1813 127.646 23.5687C127.414 24.2944 127.624 25.1185 127.441 25.8719C127.284 26.5207 127.239 27.3946 127.357 28.056C127.408 28.3381 127.535 28.5836 127.577 28.8727C127.75 30.0607 127.738 31.1839 127.736 32.3848C127.735 32.9728 127.616 33.9597 127.808 34.4963C128.1 35.3075 127.942 36.5913 127.943 37.4599L127.907 45.0545C127.914 45.3708 128.066 45.6452 128.098 45.9599C128.188 46.8275 128.129 47.7575 128.13 48.6313C128.131 49.0872 128.201 49.673 128.126 50.1163C128.043 50.6127 128.102 51.0979 128.1 51.6016C128.098 52.2805 128.021 52.9525 128.128 53.6141C128.193 54.0163 128.128 54.5427 128.127 54.9558L128.13 57.8937C128.157 58.8554 128.365 59.7512 128.425 60.6917C128.466 61.3349 128.749 61.9289 128.812 62.6025C129.376 62.7201 129.959 62.6158 130.53 62.6468C131.565 62.7029 132.378 63.0648 133.335 63.3802C133.772 63.5244 134.156 63.7304 134.562 63.9481C134.592 64.5321 134.418 65.0948 134.352 65.6678C134.298 66.1441 134.329 66.6575 134.328 67.1373L134.332 69.9368C134.334 70.4546 134.391 71.0396 134.251 71.5388C133.972 72.5332 134.172 73.7614 134.248 74.7826L131.504 75.0713C131.863 71.8302 131.85 68.6887 131.339 65.4607C130.774 65.2312 130.157 65.1334 129.568 64.9858C128.824 64.7994 128.053 64.5374 127.296 64.4345C126.288 64.2975 125.19 64.3783 124.171 64.3787L118.348 64.3867L110.751 64.5123L111.043 66.8862C111.113 67.6262 111.141 68.4809 111.348 69.1978C111.575 69.9819 111.595 71.4435 111.329 72.2222L111.255 72.454C111.063 73.1429 110.884 74.0267 110.54 74.6443C110.077 75.0601 108.697 74.998 108.055 75.0253C108.281 73.8439 109.07 72.2555 108.91 71.0849C108.825 70.464 108.777 69.824 108.66 69.209C108.546 68.6103 108.371 67.9892 108.324 67.3823C108.237 66.2511 108.428 65.0311 108.2 63.9173C108.12 63.5271 108.108 63.1346 108.087 62.7377L110.89 62.3552C111.505 62.2823 112.501 62.3085 113.057 62.0755C113.575 60.9745 114.159 59.9613 114.75 58.9036C114.999 58.4577 115.323 58.0742 115.494 57.5837C115.819 56.6569 116 55.4892 116.09 54.5105C116.132 54.0588 116.11 53.579 116.198 53.1349C116.302 52.6134 116.492 52.1076 116.622 51.5916C116.731 51.1552 116.739 50.7089 116.851 50.2783C117.196 48.9625 117.643 47.6201 117.92 46.2929C118.097 45.4463 118.086 44.5144 118.22 43.648C118.349 42.8092 118.29 41.9161 118.29 41.0669L118.285 36.7963C118.288 35.8927 118.447 35.0607 118.501 34.1751L118.563 31.275C118.604 30.4878 119.189 29.5447 119.069 28.7929C119.065 28.7659 119.057 28.7398 119.049 28.7136C118.911 28.2552 118.898 27.7603 118.807 27.289C118.733 26.9062 118.594 26.5272 118.561 26.138C118.511 25.5375 118.518 24.9327 118.414 24.3387C118.31 23.7529 118.081 22.2317 118.501 21.7618C118.551 21.7057 118.743 21.5634 118.818 21.5499C119.305 21.4627 119.903 21.565 120.404 21.5413C120.681 21.5282 120.942 21.4241 121.217 21.3922C121.692 21.3371 122.188 21.343 122.666 21.3294ZM123.464 22.743C122.8 22.8606 122.149 22.9849 121.499 23.1685C121.354 23.2095 121.052 23.2567 120.937 23.3326C120.879 23.371 120.782 23.5546 120.736 23.6202C120.648 24.4138 120.807 24.9749 120.905 25.7449C120.948 26.081 120.912 26.4592 121.028 26.7734C121.179 27.1818 121.133 27.7544 121.132 28.1915L121.112 31.0228C121.108 31.6035 121.045 32.2755 121.229 32.8258C121.389 33.3059 121.328 34.1677 121.33 34.6882L121.327 37.5332C121.324 38.2058 121.354 38.8539 121.175 39.5077C121.002 40.1401 121.152 40.8786 121.077 41.5324C121.016 42.0568 120.721 42.5505 120.612 43.0643C120.395 44.0874 120.486 45.226 120.132 46.2155C119.927 46.7856 119.859 47.4723 119.69 48.0681C119.393 49.1146 119.894 50.1659 119.491 51.259C119.368 51.5942 119.327 51.9583 119.195 52.2899C119.053 52.6436 118.82 52.9296 118.719 53.3058C118.532 54.002 118.611 54.663 118.308 55.3417C117.977 56.0846 118.083 57.0596 117.741 57.8724C117.424 58.6261 117.586 59.4082 117.176 60.1304L117.115 60.2386C116.794 60.7958 116.291 61.4086 115.884 61.9117C116.981 62.3164 117.817 62.3995 118.983 62.3642L125.785 62.3899C125.714 60.3699 125.578 58.1265 125.929 56.1534C126.006 55.7178 125.941 55.2647 126.07 54.836C126.219 54.3355 126.119 53.5316 126.114 52.9976C126.104 52.0226 126.185 50.9862 126.083 50.022C126.008 49.301 125.78 48.5923 125.738 47.8643C125.675 46.7552 125.747 45.6052 125.748 44.4907L125.739 34.9894C125.708 34.0117 125.588 32.9732 125.403 32.0125C125.327 31.6168 125.204 31.2313 125.162 30.829C125.044 29.7183 125.107 28.4286 125.175 27.3094C125.189 27.0861 125.249 26.8886 125.336 26.684C125.825 25.5316 125.898 24.462 126.146 23.2477C125.257 23.0466 124.373 22.8136 123.464 22.743Z" fill="#54224B"/>
<path fill-rule="evenodd" clip-rule="evenodd" d="M193.23 18.9297C193.219 19.3538 193.167 19.7775 193.064 20.1472C192.826 21.0015 192.914 22.7683 193.127 23.6265C193.231 24.0465 193.224 24.5279 193.217 24.9824C193.216 25.1149 193.214 25.2452 193.214 25.371L193.217 28.5444L193.205 41.6422C193.21 41.9092 193.259 42.1597 193.308 42.4128C193.334 42.5487 193.361 42.6854 193.381 42.8258C193.482 43.5405 193.557 44.3565 193.587 45.0746L193.571 52.7886C193.576 53.0782 193.629 53.3249 193.683 53.574C193.72 53.7444 193.757 53.9159 193.779 54.1031C193.859 54.7811 193.842 55.5144 193.824 56.2278C193.818 56.5161 193.811 56.8012 193.81 57.078C193.81 57.3046 193.817 57.5422 193.823 57.7849C193.844 58.5645 193.866 59.398 193.677 60.0989C193.541 60.6021 193.552 61.1733 193.562 61.7124C193.565 61.838 193.567 61.9619 193.568 62.0828L193.844 67.2671C193.956 67.1704 194.032 67.1209 194.173 67.0762C194.606 67.5053 194.677 67.9636 194.755 68.4633C194.787 68.6722 194.821 68.8883 194.883 69.1126C195.027 69.6392 195.139 69.8328 195.604 70.1038C195.619 70.1025 195.635 70.1013 195.652 70.1001C195.747 70.0931 195.852 70.0852 195.938 70.047C196.036 70.003 196.24 69.872 196.308 69.7884C196.426 69.6449 196.46 69.2925 196.48 69.0833C196.483 69.0621 196.484 69.0424 196.486 69.0245L196.711 67.2475C196.723 67.1643 196.727 67.0789 196.73 66.9936C196.736 66.8548 196.742 66.7161 196.785 66.587L196.818 66.5093C197.124 65.4531 197.22 63.756 196.962 62.675C196.912 62.4667 196.825 62.2788 196.739 62.091C196.659 61.9168 196.579 61.7426 196.529 61.5525C196.493 61.4171 196.464 61.2792 196.435 61.1413C196.371 60.8327 196.307 60.5242 196.16 60.2438L196.128 60.1876C196.134 60.1415 196.14 60.0956 196.146 60.0497C196.183 59.7443 196.22 59.4436 196.324 59.1514C196.557 58.4987 196.454 56.9498 196.302 56.256C196.19 55.7466 196.201 55.1835 196.211 54.6268C196.218 54.2683 196.224 53.9124 196.198 53.5752C196.184 53.3878 196.13 53.2149 196.075 53.0417C196.03 52.8981 195.985 52.7543 195.963 52.6018C195.719 50.957 195.528 48.6604 196.115 47.079C196.209 46.8261 196.222 46.5287 196.231 46.2609C196.236 46.0871 196.27 45.9843 196.327 45.822C196.548 45.1875 196.465 43.9691 196.312 43.3103L196.176 42.6404C196.29 42.6232 196.406 42.6051 196.522 42.5869C197.239 42.4748 197.983 42.3584 198.699 42.4172C199.174 42.456 199.641 42.5473 200.108 42.6385C200.604 42.7356 201.101 42.8327 201.607 42.8665C203.316 42.9808 205.154 42.9141 206.86 42.7592L207.424 44.9873C207.462 45.114 207.518 45.2542 207.575 45.3981C207.675 45.6526 207.781 45.9185 207.8 46.1403C207.888 47.1272 207.863 48.1683 207.838 49.1918C207.828 49.6402 207.817 50.0852 207.816 50.5208L207.817 58.6553L207.814 60.917C207.814 61.0206 207.811 61.1283 207.808 61.2381C207.799 61.5954 207.789 61.9741 207.858 62.3032C207.937 62.6798 208.138 63.0892 208.33 63.4808C208.427 63.679 208.522 63.8726 208.598 64.0552C209.042 64.0997 209.538 64.0579 210.027 64.0166C210.33 63.9911 210.63 63.9657 210.914 63.9612L211.076 63.7926C211.041 63.1206 210.848 62.4721 210.655 61.8214C210.486 61.2535 210.317 60.6839 210.252 60.0956C210.159 59.2597 210.189 58.3646 210.219 57.4863C210.233 57.0719 210.246 56.6611 210.247 56.2621C210.247 56.1688 210.249 56.0752 210.25 55.9814C210.257 55.5257 210.264 55.0667 210.13 54.6307C210.06 54.4042 210.043 54.1621 210.026 53.9221C210.007 53.6399 209.987 53.3607 209.882 53.1135C209.782 52.8773 209.793 52.463 209.802 52.1214C209.805 52.0094 209.808 51.9053 209.806 51.8178L209.806 47.6863L209.799 30.9921L209.802 25.5165C209.802 25.226 209.806 24.9338 209.81 24.6409C209.819 23.9185 209.829 23.1921 209.782 22.4782L209.709 22.4656C209.313 22.3907 208.961 22.2511 208.613 22.1131C208.129 21.9207 207.651 21.7315 207.075 21.7246C206.843 21.9334 206.824 22.1596 206.803 22.4007C206.789 22.5699 206.774 22.7464 206.684 22.9294C206.602 23.0961 206.602 23.2844 206.602 23.4691C206.602 23.5117 206.602 23.554 206.601 23.5958L206.597 23.7256C206.58 24.3399 206.69 24.9125 206.8 25.4872C206.887 25.9456 206.975 26.4053 207 26.8886L207.032 36.7821L207.032 39.2846C207.032 39.36 207.035 39.4432 207.039 39.5301C207.049 39.8071 207.061 40.1219 206.977 40.3427C206.82 40.3816 206.662 40.4221 206.504 40.4627C205.766 40.6519 205.016 40.8442 204.26 40.8957C204.062 40.9091 203.868 40.8676 203.673 40.8261C203.543 40.7985 203.414 40.7709 203.283 40.7593C202.934 40.7285 202.585 40.7146 202.238 40.7007C201.565 40.6739 200.894 40.6471 200.23 40.4985C199.289 40.2878 198.272 40.3241 197.274 40.3598C196.851 40.3749 196.432 40.3899 196.023 40.3859L196.026 30.5733C196.026 30.3603 196.038 30.0602 196.05 29.7143C196.095 28.5275 196.159 26.8013 195.868 26.203C195.748 25.9538 195.762 25.5054 195.773 25.1332C195.777 25.0128 195.78 24.9005 195.779 24.8054L195.823 19.599C195.821 19.373 195.802 19.1505 195.776 18.9297H193.23Z" fill="#54224B"/>
<path d="M59.503 73.4849C59.5747 73.423 59.6234 73.3914 59.7137 73.3627C60.1065 73.7521 60.034 74.179 60.1677 74.6658C60.2603 75.0027 60.3314 75.1266 60.6292 75.3C60.6973 75.2943 60.7786 75.2923 60.8429 75.2636C60.9056 75.2355 61.0362 75.1517 61.08 75.0982C61.1631 74.9971 61.1811 74.7338 61.1938 74.6094L61.3377 73.4723C61.3581 73.3326 61.3407 73.1831 61.3848 73.0497L61.406 73L61.4045 73.0891C61.4023 73.6688 61.7415 74.1287 61.9196 74.6626C62.0882 75.1675 62.1962 75.7488 62.259 76.2783C62.3382 76.9459 62.3716 77.6105 62.3442 78.2828C62.2941 79.5044 62.0544 80.7194 61.9321 81.9355C61.8196 83.0549 61.8453 84.1905 61.6472 85.3005C61.6016 85.556 61.4601 86.1057 61.2901 86.2955C61.2467 86.3437 61.1999 86.3844 61.148 86.4227C60.9052 86.3682 60.6856 86.1766 60.5442 85.9652C60.5066 85.9092 60.4879 85.8422 60.4657 85.7795C60.1521 84.8909 60.073 83.9495 59.9071 83.0248L59.2719 79.2821C59.1257 78.3372 58.9677 77.3018 59.0057 76.3441C59.0455 75.3402 59.5618 74.4893 59.503 73.4849Z" fill="#18B225"/>
</svg>
