<svg width="300" height="87" viewBox="0 0 300 87" fill="none" xmlns="http://www.w3.org/2000/svg">
<g clip-path="url(#clip0_1763_3420)">
<path d="M193.262 39.1708C193.262 38.6641 193.262 38.0306 193.262 37.5239C193.262 37.0171 193.262 36.5103 193.262 35.8769V32.583C193.262 31.9495 193.262 31.4428 193.262 30.936C193.262 30.4293 193.262 29.9225 193.262 29.2891C193.514 29.2891 193.891 29.2891 194.143 29.2891C194.395 29.2891 194.899 29.2891 195.276 29.2891C195.654 29.2891 196.158 29.2891 196.535 29.2891C197.291 29.2891 197.92 29.4158 198.424 29.5424C198.928 29.6691 199.305 30.0492 199.557 30.4293C199.809 30.8093 199.935 31.3161 199.935 31.9495C199.935 32.4563 199.809 32.963 199.683 33.4698C199.431 33.9766 199.18 34.2299 198.676 34.61C198.172 34.8634 197.543 34.9901 196.661 34.9901L197.039 34.4833L198.55 36.3837C198.802 36.637 199.054 37.0171 199.305 37.3972C199.557 37.7772 199.809 38.0306 200.061 38.4107C200.313 38.7908 200.565 39.0441 200.69 39.2975H199.18C198.802 38.9174 198.55 38.5374 198.172 38.0306C197.795 37.5239 197.543 37.2705 197.291 36.8904L195.528 34.61L196.284 35.2435H194.017V34.2299H195.906C196.535 34.2299 196.913 34.1033 197.291 33.9766C197.669 33.8499 197.92 33.5965 198.172 33.3431C198.298 33.0897 198.424 32.583 198.424 32.2029C198.424 31.8228 198.298 31.4428 198.172 31.1894C198.046 30.936 197.92 30.8093 197.669 30.6826C197.417 30.556 197.165 30.556 196.913 30.4293C196.661 30.4293 196.409 30.4293 196.158 30.4293H193.262L194.143 29.5424C194.143 30.1759 194.143 30.6826 194.143 31.1894C194.143 31.6962 194.143 32.3296 194.143 32.8364V35.8769C194.143 36.5103 194.143 37.0171 194.143 37.5239C194.143 38.0306 194.143 38.5374 194.143 39.1708H193.262Z" fill="#0A5A96"/>
<path d="M205.729 39.2991C204.847 39.2991 204.218 39.1725 203.714 38.7924C203.21 38.539 202.833 38.0322 202.581 37.5255C202.329 37.0187 202.203 36.3853 202.203 35.6252C202.203 34.9917 202.329 34.3583 202.581 33.7248C202.833 33.0914 203.21 32.7113 203.714 32.4579C204.218 32.2045 204.721 31.9512 205.477 31.9512C206.106 31.9512 206.61 32.0779 206.988 32.3312C207.365 32.5846 207.743 32.838 207.995 33.3448C208.247 33.7248 208.373 34.3583 208.373 34.9917C208.373 35.1184 208.373 35.3718 208.373 35.4985C208.373 35.6252 208.373 35.7518 208.373 35.8785L207.365 35.3718C207.365 35.2451 207.365 35.2451 207.365 35.1184C207.365 34.9917 207.365 34.9917 207.365 34.865C207.365 34.2316 207.24 33.7248 206.862 33.3448C206.484 32.9647 206.106 32.838 205.603 32.838C205.225 32.838 204.847 32.9647 204.47 33.2181C204.218 33.4714 203.966 33.7248 203.714 34.1049C203.462 34.485 203.462 34.865 203.462 35.3718V35.4985C203.462 36.0052 203.588 36.512 203.714 36.892C203.84 37.2721 204.218 37.5255 204.595 37.7789C204.973 38.0323 205.477 38.1589 205.98 38.1589C206.232 38.1589 206.484 38.1589 206.61 38.1589C206.736 38.1589 207.114 38.0323 207.365 38.0323C207.617 37.9056 207.869 37.9056 207.995 37.7789V38.7924C207.869 38.9191 207.617 38.9191 207.365 39.0458C207.114 39.1725 206.862 39.1725 206.61 39.1725C206.232 39.2991 205.98 39.2991 205.729 39.2991ZM202.581 36.0052V35.2451H207.365L208.121 35.4985V36.1319H202.581V36.0052Z" fill="#0A5A96"/>
<path d="M210.008 39.1708C210.008 38.664 210.008 38.1573 210.008 37.6505C210.008 37.1437 210.008 36.637 210.008 36.1302V35.4968C210.008 34.99 210.008 34.4833 210.008 33.9765C210.008 33.4698 210.008 32.963 210.008 32.3296L211.015 32.2029V33.4698H211.141C211.267 33.2164 211.519 33.0897 211.645 32.8363C211.896 32.5829 212.148 32.4562 212.4 32.3296C212.652 32.2029 213.03 32.0762 213.407 32.0762C213.911 32.0762 214.415 32.2029 214.666 32.4562C214.918 32.7096 215.17 33.0897 215.296 33.7231H215.422C215.422 33.8498 215.422 33.9765 215.422 34.1032C215.422 34.2299 215.422 34.3566 215.422 34.4833C215.422 34.7366 215.422 34.99 215.422 35.2434C215.422 35.4968 215.422 35.7502 215.422 36.0035C215.422 36.5103 215.422 37.017 215.422 37.5238C215.422 38.0306 215.422 38.5373 215.422 39.0441H214.289C214.289 38.5373 214.289 38.0306 214.289 37.5238C214.289 37.017 214.289 36.5103 214.289 36.0035V34.7366C214.289 34.2299 214.163 33.7231 214.037 33.4698C213.911 33.2164 213.533 33.0897 213.03 33.0897C212.778 33.0897 212.526 33.2164 212.274 33.3431C212.022 33.4698 211.771 33.5964 211.645 33.8498C211.393 34.1032 211.267 34.2299 211.141 34.4833V36.1302C211.141 36.637 211.141 37.1437 211.141 37.6505C211.141 38.1573 211.141 38.664 211.141 39.1708H210.008ZM218.696 39.1708C218.696 38.664 218.696 38.1573 218.696 37.6505C218.696 37.1437 218.696 36.637 218.696 36.1302V34.8633C218.696 34.3566 218.57 33.8498 218.444 33.5964C218.318 33.3431 217.94 33.2164 217.437 33.2164C217.185 33.2164 216.933 33.2164 216.681 33.3431C216.429 33.4698 216.177 33.5964 216.052 33.8498C215.8 34.1032 215.674 34.3566 215.548 34.61L215.422 33.4698H215.548C215.674 33.2164 215.926 33.0897 216.177 32.8363C216.429 32.5829 216.681 32.4562 216.933 32.3296C217.185 32.2029 217.562 32.0762 217.94 32.0762C218.696 32.0762 219.199 32.3296 219.451 32.7096C219.703 33.0897 219.955 33.7231 219.955 34.4833C219.955 34.7366 219.955 34.99 219.955 35.2434C219.955 35.4968 219.955 35.7502 219.955 36.0035C219.955 36.5103 219.955 37.017 219.955 37.5238C219.955 38.0306 219.955 38.5373 219.955 39.0441H218.696V39.1708Z" fill="#0A5A96"/>
<path d="M225.244 39.2991C224.363 39.2991 223.733 39.1725 223.23 38.7924C222.726 38.4123 222.348 38.0322 222.096 37.5255C221.845 37.0187 221.719 36.3853 221.719 35.6252C221.719 34.9917 221.845 34.3583 222.096 33.7248C222.348 33.2181 222.726 32.7113 223.23 32.4579C223.733 32.2045 224.237 31.9512 224.992 31.9512C225.622 31.9512 226.126 32.0779 226.503 32.3312C226.881 32.5846 227.259 32.838 227.511 33.3448C227.762 33.7248 227.888 34.3583 227.888 34.9917C227.888 35.1184 227.888 35.3718 227.888 35.4985C227.888 35.6252 227.888 35.7518 227.888 35.8785L226.881 35.3718C226.881 35.2451 226.881 35.2451 226.881 35.1184C226.881 34.9917 226.881 34.9917 226.881 34.865C226.881 34.2316 226.755 33.7248 226.377 33.3448C226 32.9647 225.622 32.838 225.118 32.838C224.741 32.838 224.363 32.9647 223.985 33.2181C223.733 33.4714 223.481 33.7248 223.23 34.1049C222.978 34.485 222.978 34.865 222.978 35.3718V35.4985C222.978 36.0052 223.104 36.512 223.23 36.892C223.356 37.2721 223.733 37.5255 224.111 37.7789C224.489 38.0323 224.992 38.1589 225.496 38.1589C225.748 38.1589 226 38.1589 226.126 38.1589C226.252 38.1589 226.629 38.0323 226.881 38.0323C227.133 37.9056 227.385 37.9056 227.511 37.7789V38.7924C227.385 38.9191 227.133 38.9191 226.881 39.0458C226.629 39.1725 226.377 39.1725 226.126 39.1725C225.874 39.2991 225.496 39.2991 225.244 39.2991ZM222.096 36.0052V35.2451H226.881L227.637 35.4985V36.1319H222.096V36.0052Z" fill="#0A5A96"/>
<path d="M229.523 39.1708C229.523 38.664 229.523 38.1573 229.523 37.6505C229.523 37.1437 229.523 36.637 229.523 36.1302V35.4968C229.523 34.99 229.523 34.4833 229.523 33.9765C229.523 33.4698 229.523 32.963 229.523 32.3296L230.531 32.2029V33.4698H230.657C230.783 33.2164 231.034 33.0897 231.16 32.8363C231.412 32.5829 231.664 32.4562 231.916 32.3296C232.168 32.2029 232.545 32.0762 232.923 32.0762C233.427 32.0762 233.93 32.2029 234.182 32.4562C234.434 32.7096 234.686 33.0897 234.812 33.7231H234.938C234.938 33.8498 234.938 33.9765 234.938 34.1032C234.938 34.2299 234.938 34.3566 234.938 34.4833C234.938 34.7366 234.938 34.99 234.938 35.2434C234.938 35.4968 234.938 35.7502 234.938 36.0035C234.938 36.5103 234.938 37.017 234.938 37.5238C234.938 38.0306 234.938 38.5373 234.938 39.0441H233.93C233.93 38.5373 233.93 38.0306 233.93 37.5238C233.93 37.017 233.93 36.5103 233.93 36.0035V34.7366C233.93 34.2299 233.804 33.7231 233.678 33.4698C233.553 33.2164 233.175 33.0897 232.671 33.0897C232.419 33.0897 232.168 33.2164 231.916 33.3431C231.664 33.4698 231.412 33.5964 231.286 33.8498C231.16 34.1032 230.908 34.2299 230.783 34.4833V36.1302C230.783 36.637 230.783 37.1437 230.783 37.6505C230.783 38.1573 230.783 38.664 230.783 39.1708H229.523ZM238.211 39.1708C238.211 38.664 238.211 38.1573 238.211 37.6505C238.211 37.1437 238.211 36.637 238.211 36.1302V34.8633C238.211 34.3566 238.085 33.8498 237.959 33.5964C237.834 33.3431 237.456 33.2164 236.952 33.2164C236.7 33.2164 236.449 33.2164 236.197 33.3431C235.945 33.4698 235.693 33.5964 235.567 33.8498C235.315 34.1032 235.189 34.3566 235.063 34.61L234.938 33.4698H235.063C235.189 33.2164 235.441 33.0897 235.693 32.8363C235.945 32.5829 236.197 32.4562 236.449 32.3296C236.7 32.2029 237.078 32.0762 237.456 32.0762C238.211 32.0762 238.715 32.3296 238.967 32.7096C239.219 33.0897 239.47 33.7231 239.47 34.4833C239.47 34.7366 239.47 34.99 239.47 35.2434C239.47 35.4968 239.47 35.7502 239.47 36.0035C239.47 36.5103 239.47 37.017 239.47 37.5238C239.47 38.0306 239.47 38.5373 239.47 39.0441H238.211V39.1708Z" fill="#0A5A96"/>
<path d="M245.013 39.2984C244.635 39.2984 244.383 39.2984 244.131 39.1717C243.88 39.045 243.628 38.9183 243.376 38.7916C243.124 38.665 242.998 38.4116 242.746 38.1582H242.621L242.495 39.045H241.613C241.613 38.5383 241.613 38.0315 241.613 37.5248C241.613 37.018 241.613 36.5112 241.613 36.0045V32.2038C241.613 31.5704 241.613 31.0636 241.613 30.5568C241.613 30.0501 241.613 29.4166 241.613 28.9099L242.746 28.7832C242.746 29.29 242.746 29.9234 242.746 30.4302C242.746 30.9369 242.746 31.5704 242.746 32.2038V32.9639H242.872C242.998 32.8373 243.124 32.5839 243.376 32.4572C243.628 32.3305 243.88 32.2038 244.131 32.0771C244.383 31.9504 244.635 31.9504 245.013 31.9504C245.642 31.9504 246.146 32.0771 246.65 32.4572C247.027 32.7106 247.405 33.2173 247.657 33.7241C247.909 34.2308 248.035 34.8643 248.035 35.6244C248.035 36.2579 247.909 36.8913 247.657 37.3981C247.405 37.9048 247.153 38.4116 246.65 38.7916C246.146 39.1717 245.642 39.2984 245.013 39.2984ZM244.635 38.2849C245.139 38.2849 245.516 38.1582 245.894 37.9048C246.146 37.6514 246.398 37.3981 246.524 36.8913C246.65 36.5112 246.776 36.1312 246.776 35.6244C246.776 35.1177 246.65 34.7376 246.524 34.3575C246.398 33.9775 246.146 33.5974 245.768 33.4707C245.516 33.2173 245.013 33.0906 244.509 33.0906C244.257 33.0906 244.006 33.0906 243.754 33.2173C243.502 33.344 243.25 33.344 243.124 33.5974C242.872 33.7241 242.746 33.9775 242.621 34.1041V37.1447C242.746 37.3981 242.872 37.5248 243.124 37.7781C243.376 38.0315 243.502 38.0315 243.754 38.1582C244.006 38.2849 244.383 38.2849 244.635 38.2849Z" fill="#0A5A96"/>
<path d="M249.922 39.1708C249.922 38.664 249.922 38.1573 249.922 37.6505C249.922 37.1437 249.922 36.637 249.922 36.1302V35.4968C249.922 34.99 249.922 34.4833 249.922 33.9765C249.922 33.4698 249.922 32.963 249.922 32.3296L250.929 32.2029V33.5964H251.055C251.307 33.2164 251.433 32.8363 251.685 32.5829C251.936 32.3296 252.188 32.2029 252.44 32.2029C252.692 32.0762 252.944 32.0762 253.196 32.0762C253.321 32.0762 253.447 32.0762 253.573 32.0762C253.699 32.0762 253.825 32.0762 253.951 32.2029L253.825 33.3431C253.699 33.3431 253.573 33.3431 253.447 33.2164C253.321 33.2164 253.196 33.2164 253.07 33.2164C252.944 33.2164 252.818 33.2164 252.566 33.2164C252.44 33.2164 252.188 33.3431 252.062 33.4698C251.936 33.5964 251.685 33.7231 251.559 33.9765C251.433 34.2299 251.307 34.4833 251.181 34.99V36.0035C251.181 36.5103 251.181 37.017 251.181 37.5238C251.181 38.0306 251.181 38.5373 251.181 39.0441H249.922V39.1708Z" fill="#0A5A96"/>
<path d="M257.098 39.2975C256.72 39.2975 256.342 39.1708 255.964 39.0441C255.712 38.9174 255.461 38.664 255.209 38.4106C255.083 38.1573 254.957 37.7772 254.957 37.3971C254.957 37.0171 255.083 36.7637 255.209 36.3836C255.335 36.0035 255.461 35.8768 255.713 35.7502C255.964 35.6235 256.216 35.4968 256.468 35.3701C256.72 35.2434 256.972 35.2434 257.223 35.1167L259.364 34.7366C259.364 34.2299 259.364 33.9765 259.238 33.7231C259.112 33.4698 258.86 33.3431 258.608 33.2164C258.357 33.0897 258.105 33.0897 257.727 33.0897C257.601 33.0897 257.349 33.0897 257.223 33.0897C257.098 33.0897 256.846 33.0897 256.594 33.2164C256.342 33.2164 256.216 33.3431 255.964 33.3431C255.712 33.4698 255.461 33.4698 255.209 33.5964V32.5829C255.335 32.4562 255.587 32.4562 255.713 32.3296C255.838 32.2029 256.09 32.2029 256.342 32.2029C256.594 32.2029 256.846 32.0762 257.098 32.0762C257.349 32.0762 257.601 32.0762 257.853 32.0762C258.357 32.0762 258.86 32.2029 259.238 32.3296C259.616 32.4562 259.868 32.7096 260.119 33.0897C260.371 33.4698 260.371 33.8498 260.371 34.4833C260.371 34.7366 260.371 34.99 260.371 35.2434C260.371 35.4968 260.371 35.8768 260.371 36.1302V37.1437C260.371 37.3971 260.371 37.7772 260.371 38.1573C260.371 38.5373 260.371 38.7907 260.371 39.1708H259.364V38.1573H259.238C259.112 38.2839 258.86 38.5373 258.734 38.664C258.483 38.7907 258.231 38.9174 257.979 39.0441C257.727 39.2975 257.475 39.2975 257.098 39.2975ZM257.475 38.4106C257.727 38.4106 257.979 38.4106 258.231 38.2839C258.483 38.1573 258.734 38.0306 258.86 37.7772C259.112 37.5238 259.238 37.2704 259.364 37.0171V35.4968C259.238 35.4968 259.238 35.6235 259.112 35.6235C258.986 35.6235 258.86 35.7502 258.608 35.7502C258.357 35.7502 257.979 35.8768 257.601 36.0035C257.349 36.0035 257.098 36.1302 256.846 36.2569C256.594 36.3836 256.468 36.5103 256.342 36.637C256.216 36.7637 256.216 37.017 256.216 37.2704C256.216 37.6505 256.342 37.9039 256.594 38.1573C256.846 38.2839 257.098 38.4106 257.475 38.4106Z" fill="#0A5A96"/>
<path d="M262.766 39.1708C262.766 38.664 262.766 38.1573 262.766 37.6505C262.766 37.1437 262.766 36.637 262.766 36.1302V35.4968C262.766 34.99 262.766 34.4833 262.766 33.9765C262.766 33.4698 262.766 32.963 262.766 32.3296L263.773 32.2029V33.4698H263.899C264.025 33.2164 264.277 33.0897 264.528 32.8363C264.78 32.5829 265.032 32.4562 265.284 32.3296C265.536 32.2029 265.913 32.0762 266.417 32.0762C267.173 32.0762 267.676 32.3296 268.054 32.7096C268.432 33.0897 268.558 33.7231 268.558 34.61C268.558 34.8633 268.558 35.1167 268.558 35.3701C268.558 35.6235 268.558 35.8768 268.558 36.1302C268.558 36.637 268.558 37.1437 268.558 37.6505C268.558 38.1573 268.558 38.664 268.558 39.1708H267.424C267.424 38.664 267.424 38.1573 267.424 37.6505C267.424 37.1437 267.424 36.637 267.424 36.1302V34.8633C267.424 34.3566 267.298 33.8498 267.172 33.5964C267.047 33.3431 266.669 33.2164 266.165 33.2164C265.913 33.2164 265.536 33.2164 265.284 33.3431C265.032 33.4698 264.78 33.5964 264.654 33.8498C264.402 34.1032 264.277 34.3566 264.151 34.61V36.2569C264.151 36.7637 264.151 37.2704 264.151 37.7772C264.151 38.2839 264.151 38.7907 264.151 39.2975H262.766V39.1708Z" fill="#0A5A96"/>
<path d="M273.845 39.2991C273.089 39.2991 272.46 39.1725 271.956 38.7924C271.453 38.539 271.075 38.0322 270.823 37.5255C270.571 37.0187 270.445 36.3853 270.445 35.6252C270.445 34.865 270.571 34.3583 270.823 33.7248C271.075 33.2181 271.453 32.7113 271.956 32.4579C272.46 32.2045 273.089 31.9512 273.845 31.9512C274.097 31.9512 274.349 31.9512 274.6 32.0779C274.852 32.0779 275.104 32.2045 275.356 32.2045C275.608 32.3312 275.734 32.3312 275.985 32.4579L275.859 33.4714C275.608 33.3447 275.356 33.2181 275.104 33.0914C274.852 32.9647 274.6 32.9647 274.474 32.9647C274.223 32.9647 274.097 32.9647 273.971 32.9647C273.215 32.9647 272.712 33.2181 272.334 33.5981C271.956 34.1049 271.704 34.7383 271.704 35.4985C271.704 36.0052 271.83 36.3853 271.956 36.892C272.082 37.3988 272.46 37.6522 272.838 37.7789C273.215 38.0323 273.719 38.1589 274.223 38.1589C274.474 38.1589 274.6 38.1589 274.852 38.1589C275.104 38.1589 275.23 38.0323 275.482 38.0323C275.734 37.9056 275.859 37.9056 275.985 37.7789L276.111 38.7924C275.985 38.9191 275.734 38.9191 275.608 39.0458C275.482 39.1725 275.23 39.1725 274.978 39.1725C274.349 39.2991 274.097 39.2991 273.845 39.2991Z" fill="#0A5A96"/>
<path d="M280.897 39.2991C280.015 39.2991 279.386 39.1725 278.882 38.7924C278.378 38.4123 278.001 38.0322 277.749 37.5255C277.497 37.0187 277.371 36.3853 277.371 35.6252C277.371 34.9917 277.497 34.3583 277.749 33.7248C278.001 33.2181 278.378 32.7113 278.882 32.4579C279.386 32.2045 279.889 31.9512 280.645 31.9512C281.274 31.9512 281.778 32.0779 282.156 32.3312C282.533 32.5846 282.911 32.838 283.163 33.3448C283.415 33.7248 283.541 34.3583 283.541 34.9917C283.541 35.1184 283.541 35.3718 283.541 35.4985C283.541 35.6252 283.541 35.7518 283.541 35.8785L282.533 35.3718C282.533 35.2451 282.533 35.2451 282.533 35.1184C282.533 34.9917 282.533 34.9917 282.533 34.865C282.533 34.2316 282.408 33.7248 282.03 33.3448C281.652 32.9647 281.274 32.838 280.771 32.838C280.393 32.838 280.015 32.9647 279.637 33.2181C279.386 33.4714 279.134 33.7248 278.882 34.1049C278.63 34.485 278.63 34.865 278.63 35.3718V35.4985C278.63 36.0052 278.756 36.512 278.882 36.892C279.008 37.2721 279.386 37.5255 279.763 37.7789C280.141 38.0323 280.645 38.1589 281.148 38.1589C281.4 38.1589 281.652 38.1589 281.778 38.1589C282.03 38.1589 282.282 38.0323 282.533 38.0323C282.785 37.9056 283.037 37.9056 283.163 37.7789V38.7924C283.037 38.9191 282.785 38.9191 282.533 39.0458C282.282 39.1725 282.03 39.1725 281.778 39.1725C281.526 39.1725 281.148 39.2991 280.897 39.2991ZM277.749 36.0052V35.2451H282.533L283.289 35.4985V36.1319H277.749V36.0052Z" fill="#0A5A96"/>
<path d="M193.262 54.3739C193.262 53.8672 193.262 53.2337 193.262 52.727C193.262 52.2202 193.262 51.7135 193.262 51.08V47.7861C193.262 47.1527 193.262 46.6459 193.262 46.1391C193.262 45.6324 193.262 45.1256 193.262 44.4922C193.514 44.4922 193.891 44.4922 194.143 44.4922C194.395 44.4922 194.899 44.4922 195.276 44.4922C195.654 44.4922 196.158 44.4922 196.535 44.4922C197.291 44.4922 197.92 44.6189 198.424 44.7456C198.928 44.8723 199.305 45.2523 199.557 45.6324C199.809 46.0125 199.935 46.5192 199.935 47.1527C199.935 47.6594 199.809 48.1662 199.683 48.6729C199.431 49.1797 199.18 49.4331 198.676 49.8131C198.172 50.0665 197.543 50.1932 196.661 50.1932L197.039 49.6864L198.55 51.5868C198.802 51.8402 199.054 52.2202 199.305 52.6003C199.557 52.9804 199.809 53.2337 200.061 53.6138C200.313 53.9939 200.565 54.2473 200.69 54.5006H199.18C198.802 54.1206 198.55 53.7405 198.172 53.2337C197.795 52.727 197.543 52.4736 197.291 52.0935L195.528 49.8131L196.284 50.4466H194.017V49.4331H195.906C196.535 49.4331 196.913 49.3064 197.291 49.1797C197.669 49.053 197.92 48.7996 198.172 48.5462C198.298 48.2929 198.424 47.7861 198.424 47.406C198.424 47.026 198.298 46.6459 198.172 46.3925C198.046 46.1391 197.92 46.0125 197.669 45.8858C197.417 45.7591 197.165 45.7591 196.913 45.6324C196.661 45.6324 196.409 45.6324 196.158 45.6324H193.262L194.143 44.7456C194.143 45.379 194.143 45.8858 194.143 46.3925C194.143 46.8993 194.143 47.5327 194.143 48.0395V51.08C194.143 51.7135 194.143 52.2202 194.143 52.727C194.143 53.2337 194.143 53.7405 194.143 54.3739H193.262Z" fill="#0A5A96"/>
<path d="M205.729 54.5003C204.847 54.5003 204.218 54.3736 203.714 53.9936C203.21 53.7402 202.833 53.2334 202.581 52.7267C202.329 52.2199 202.203 51.5865 202.203 50.8263C202.203 50.1929 202.329 49.5594 202.581 48.926C202.833 48.2925 203.21 47.9125 203.714 47.6591C204.218 47.4057 204.721 47.1523 205.477 47.1523C206.106 47.1523 206.61 47.279 206.988 47.5324C207.365 47.7858 207.743 48.0392 207.995 48.5459C208.247 48.926 208.373 49.5594 208.373 50.1929C208.373 50.3196 208.373 50.573 208.373 50.6996C208.373 50.8263 208.373 50.953 208.373 51.0797L207.365 50.5729C207.365 50.4463 207.365 50.4463 207.365 50.3196C207.365 50.1929 207.365 50.1929 207.365 50.0662C207.365 49.4327 207.24 48.926 206.862 48.5459C206.484 48.1659 206.106 48.0392 205.603 48.0392C205.225 48.0392 204.847 48.1659 204.47 48.4192C204.218 48.6726 203.966 48.926 203.714 49.3061C203.462 49.6861 203.462 50.0662 203.462 50.5729V50.6996C203.462 51.2064 203.588 51.7132 203.714 52.0932C203.84 52.4733 204.218 52.7267 204.595 52.98C204.973 53.2334 205.477 53.3601 205.98 53.3601C206.232 53.3601 206.484 53.3601 206.61 53.3601C206.736 53.3601 207.114 53.2334 207.365 53.2334C207.617 53.1067 207.869 53.1067 207.995 52.98V53.9936C207.869 54.1203 207.617 54.1202 207.365 54.2469C207.114 54.3736 206.862 54.3736 206.61 54.3736C206.232 54.5003 205.98 54.5003 205.729 54.5003ZM202.581 51.2064V50.4463H207.365L208.121 50.6996V51.3331H202.581V51.2064Z" fill="#0A5A96"/>
<path d="M211.895 54.5003C211.643 54.5003 211.266 54.5003 211.014 54.3736C210.762 54.2469 210.51 54.2469 210.258 54.2469C210.007 54.2469 209.755 54.1203 209.629 53.9936L209.755 52.8534C210.007 52.98 210.133 53.1067 210.384 53.2334C210.636 53.3601 210.888 53.3601 211.14 53.4868C211.392 53.6135 211.643 53.6135 211.895 53.6135C212.147 53.6135 212.399 53.6135 212.651 53.4868C212.903 53.4868 213.028 53.3601 213.154 53.1067C213.28 52.98 213.406 52.7267 213.406 52.4733C213.406 52.2199 213.406 52.0932 213.28 51.9665C213.154 51.8398 213.028 51.7132 212.777 51.5865C212.525 51.4598 212.147 51.3331 211.769 51.2064C211.392 51.0797 211.14 50.953 210.762 50.8263C210.51 50.6996 210.258 50.4463 210.133 50.1929C210.007 49.9395 209.881 49.5594 209.881 49.1794C209.881 48.5459 210.133 48.0392 210.51 47.6591C210.888 47.279 211.518 47.1523 212.147 47.1523C212.399 47.1523 212.651 47.1523 213.028 47.279C213.28 47.279 213.532 47.4057 213.784 47.5324C214.036 47.6591 214.162 47.6591 214.414 47.7858L214.288 48.926C214.036 48.7993 213.784 48.6726 213.658 48.5459C213.406 48.4192 213.154 48.4192 213.028 48.2925C212.777 48.2925 212.651 48.2925 212.399 48.2925C212.147 48.2925 212.021 48.2925 211.895 48.4192C211.769 48.4192 211.518 48.5459 211.392 48.6726C211.266 48.7993 211.266 49.0527 211.266 49.3061C211.266 49.5594 211.266 49.6861 211.392 49.8128C211.518 49.9395 211.643 50.0662 211.895 50.1929C212.147 50.3196 212.399 50.4463 212.777 50.5729C213.28 50.6996 213.658 50.8263 213.91 50.953C214.288 51.0797 214.539 51.3331 214.665 51.5865C214.791 51.8398 214.917 52.0932 214.917 52.6C214.917 52.98 214.791 53.3601 214.665 53.7402C214.539 54.1202 214.162 54.3736 213.784 54.5003C213.028 54.3736 212.525 54.5003 211.895 54.5003Z" fill="#0A5A96"/>
<path d="M216.305 57.0358C216.305 56.529 216.305 56.0223 216.305 55.5155C216.305 55.0088 216.305 54.502 216.305 53.8686V50.448C216.305 49.9412 216.305 49.4344 216.305 48.9277C216.305 48.4209 216.305 47.9142 216.305 47.2807L217.312 47.154V48.0409H217.438C217.564 47.9142 217.69 47.6608 217.942 47.5341C218.193 47.4074 218.445 47.2807 218.697 47.154C218.949 47.0273 219.327 47.0273 219.578 47.0273C220.208 47.0273 220.712 47.154 221.215 47.5341C221.719 47.9142 221.971 48.2942 222.222 48.801C222.474 49.3078 222.6 49.9412 222.6 50.7013C222.6 51.3348 222.474 51.9682 222.222 52.475C221.971 52.9817 221.719 53.4885 221.215 53.8686C220.837 54.2486 220.208 54.3753 219.578 54.3753C219.327 54.3753 218.949 54.3753 218.697 54.2486C218.445 54.1219 218.193 53.9952 217.942 53.8686C217.69 53.7419 217.564 53.4885 217.312 53.3618H217.186V53.8686C217.186 54.3753 217.186 54.8821 217.186 55.3888C217.186 55.8956 217.186 56.4023 217.186 56.9091L216.305 57.0358ZM219.327 53.4885C219.83 53.4885 220.208 53.3618 220.586 53.1084C220.837 52.855 221.089 52.6017 221.215 52.0949C221.341 51.5882 221.467 51.3348 221.467 50.828C221.467 50.3213 221.341 49.9412 221.215 49.5611C221.089 49.1811 220.837 48.801 220.46 48.6743C220.208 48.4209 219.704 48.2942 219.201 48.2942C218.949 48.2942 218.697 48.2942 218.445 48.4209C218.193 48.5476 217.942 48.5476 217.816 48.801C217.564 48.9277 217.438 49.1811 217.312 49.3077V52.3483C217.438 52.6017 217.564 52.7284 217.816 52.9817C217.942 53.1084 218.193 53.2351 218.445 53.3618C218.823 53.4885 219.075 53.4885 219.327 53.4885Z" fill="#0A5A96"/>
<path d="M227.51 54.5006C226.88 54.5006 226.503 54.3739 225.999 54.2472C225.495 54.1205 225.243 53.7404 224.866 53.4871C224.614 53.107 224.362 52.7269 224.236 52.3469C224.11 51.9668 223.984 51.46 223.984 50.9533C223.984 50.3198 224.11 49.6864 224.362 49.0529C224.614 48.4195 224.992 48.0394 225.495 47.7861C225.999 47.5327 226.628 47.2793 227.384 47.2793C227.888 47.2793 228.391 47.406 228.895 47.5327C229.273 47.6594 229.65 47.9127 230.028 48.2928C230.28 48.6729 230.532 49.0529 230.658 49.433C230.784 49.8131 230.909 50.3198 230.909 50.8266C230.909 51.46 230.784 52.0935 230.532 52.7269C230.28 53.2337 229.902 53.7404 229.399 53.9938C228.895 54.2472 228.265 54.5006 227.51 54.5006ZM227.51 53.4871C228.013 53.4871 228.391 53.3604 228.769 53.107C229.147 52.8536 229.399 52.4736 229.524 52.0935C229.65 51.7134 229.776 51.2067 229.776 50.8266C229.776 50.3198 229.65 49.8131 229.524 49.433C229.399 49.0529 229.021 48.7996 228.769 48.5462C228.391 48.2928 228.013 48.1661 227.51 48.1661C227.006 48.1661 226.628 48.2928 226.251 48.5462C225.873 48.7996 225.621 49.0529 225.495 49.433C225.369 49.8131 225.243 50.3198 225.243 50.6999C225.243 51.2067 225.369 51.5867 225.495 51.9668C225.621 52.3469 225.873 52.7269 226.251 52.9803C226.628 53.3604 227.006 53.4871 227.51 53.4871Z" fill="#0A5A96"/>
<path d="M232.922 54.3739C232.922 53.8671 232.922 53.3604 232.922 52.8536C232.922 52.3469 232.922 51.8401 232.922 51.3333V50.6999C232.922 50.1931 232.922 49.6864 232.922 49.1796C232.922 48.6729 232.922 48.1661 232.922 47.5327L233.929 47.406V48.6729H234.055C234.181 48.4195 234.433 48.2928 234.685 48.0394C234.936 47.7861 235.188 47.6594 235.44 47.5327C235.692 47.406 236.07 47.2793 236.573 47.2793C237.329 47.2793 237.832 47.5327 238.21 47.9127C238.588 48.2928 238.714 48.9263 238.714 49.8131C238.714 50.0665 238.714 50.3198 238.714 50.5732C238.714 50.8266 238.714 51.08 238.714 51.3333C238.714 51.8401 238.714 52.3469 238.714 52.8536C238.714 53.3604 238.714 53.8671 238.714 54.3739H237.581C237.581 53.8671 237.581 53.3604 237.581 52.8536C237.581 52.3469 237.581 51.8401 237.581 51.3333V50.0665C237.581 49.5597 237.455 49.0529 237.329 48.7996C237.077 48.5462 236.825 48.4195 236.321 48.4195C236.07 48.4195 235.692 48.4195 235.44 48.5462C235.188 48.6729 234.936 48.7996 234.811 49.0529C234.559 49.3063 234.433 49.5597 234.307 49.8131V51.46C234.307 51.9668 234.307 52.4736 234.307 52.9803C234.307 53.4871 234.307 53.9938 234.307 54.5006H232.922V54.3739Z" fill="#0A5A96"/>
<path d="M242.872 54.5003C242.62 54.5003 242.242 54.5003 241.99 54.3736C241.739 54.3736 241.487 54.2469 241.235 54.2469C240.983 54.1202 240.731 54.1203 240.605 53.9936L240.731 52.8534C240.983 52.98 241.109 53.1067 241.361 53.2334C241.613 53.3601 241.865 53.3601 242.116 53.4868C242.368 53.6135 242.62 53.6135 242.872 53.6135C243.124 53.6135 243.375 53.6135 243.627 53.4868C243.879 53.4868 244.005 53.3601 244.131 53.1067C244.257 52.98 244.383 52.7267 244.383 52.4733C244.383 52.2199 244.383 52.0932 244.257 51.9665C244.131 51.8398 244.005 51.7132 243.753 51.5865C243.501 51.4598 243.124 51.3331 242.746 51.2064C242.368 51.0797 242.116 50.953 241.739 50.8263C241.487 50.6996 241.235 50.4463 241.109 50.1929C240.983 49.9395 240.857 49.5594 240.857 49.1794C240.857 48.5459 241.109 48.0392 241.487 47.6591C241.865 47.279 242.494 47.1523 243.124 47.1523C243.376 47.1523 243.627 47.1523 244.005 47.279C244.383 47.4057 244.509 47.4057 244.761 47.5324C245.012 47.6591 245.138 47.6591 245.39 47.7858L245.264 48.926C245.012 48.7993 244.761 48.6726 244.635 48.5459C244.383 48.4192 244.131 48.4192 244.005 48.2925C243.753 48.2925 243.627 48.2925 243.375 48.2925C243.124 48.2925 242.998 48.2925 242.872 48.4192C242.746 48.4192 242.494 48.5459 242.368 48.6726C242.242 48.7993 242.242 49.0527 242.242 49.3061C242.242 49.5594 242.242 49.6861 242.368 49.8128C242.494 49.9395 242.62 50.0662 242.872 50.1929C243.124 50.3196 243.376 50.4463 243.753 50.5729C244.257 50.6996 244.635 50.8263 244.886 50.953C245.138 51.0797 245.516 51.3331 245.642 51.5865C245.768 51.8398 245.894 52.0932 245.894 52.6C245.894 52.98 245.768 53.3601 245.642 53.7402C245.516 54.1202 245.138 54.3736 244.761 54.5003C244.005 54.3736 243.501 54.5003 242.872 54.5003Z" fill="#0A5A96"/>
<path d="M247.909 45.8869C247.657 45.8869 247.405 45.7602 247.279 45.6336C247.153 45.5069 247.027 45.2535 247.027 45.0001C247.027 44.7467 247.153 44.4933 247.279 44.3667C247.405 44.24 247.657 44.1133 247.909 44.1133C248.161 44.1133 248.412 44.24 248.538 44.3667C248.664 44.4933 248.79 44.7467 248.79 45.0001C248.79 45.2535 248.664 45.5069 248.538 45.6336C248.286 45.7602 248.161 45.8869 247.909 45.8869ZM247.279 54.3751C247.279 53.8683 247.279 53.3616 247.279 52.8548C247.279 52.3481 247.279 51.8413 247.279 51.3346V50.7011C247.279 50.3211 247.279 49.941 247.279 49.5609C247.279 49.1808 247.279 48.9275 247.279 48.5474C247.279 48.1673 247.279 47.914 247.279 47.5339H248.412C248.412 47.914 248.412 48.1673 248.412 48.5474C248.412 48.9275 248.412 49.1808 248.412 49.5609C248.412 49.941 248.412 50.3211 248.412 50.7011V51.3346C248.412 51.968 248.412 52.4748 248.412 52.8548C248.412 53.2349 248.412 53.8683 248.412 54.3751H247.279Z" fill="#0A5A96"/>
<path d="M254.329 54.5015C253.952 54.5015 253.7 54.5015 253.448 54.3748C253.196 54.2481 252.944 54.1215 252.692 53.9948C252.441 53.8681 252.315 53.6147 252.063 53.3613H251.937L251.811 54.2481H250.93C250.93 53.7414 250.93 53.2346 250.93 52.7279C250.93 52.2211 250.93 51.7144 250.93 51.2076V47.4069C250.93 46.7735 250.93 46.2667 250.93 45.76C250.93 45.2532 250.93 44.6198 250.93 44.113L252.063 43.9863C252.063 44.4931 252.063 45.1265 252.063 45.6333C252.063 46.14 252.063 46.7735 252.063 47.4069V48.1671H252.189C252.315 48.0404 252.441 47.787 252.692 47.6603C252.944 47.5336 253.196 47.4069 253.448 47.2802C253.7 47.1536 253.952 47.1536 254.329 47.1536C254.959 47.1536 255.462 47.2802 255.966 47.6603C256.47 48.0404 256.722 48.4204 256.973 48.9272C257.225 49.434 257.351 50.0674 257.351 50.8275C257.351 51.461 257.225 52.0944 256.973 52.6012C256.722 53.1079 256.47 53.6147 255.966 53.9948C255.462 54.3748 254.959 54.5015 254.329 54.5015ZM253.952 53.488C254.455 53.488 254.833 53.3613 255.211 53.1079C255.462 52.8546 255.714 52.6012 255.84 52.0944C255.966 51.5877 256.092 51.3343 256.092 50.8275C256.092 50.3208 255.966 49.9407 255.84 49.5606C255.714 49.1806 255.462 48.8005 255.085 48.6738C254.833 48.4204 254.329 48.2938 253.826 48.2938C253.574 48.2938 253.322 48.2938 253.07 48.4204C252.818 48.5471 252.567 48.5471 252.441 48.8005C252.189 48.9272 252.063 49.1806 251.937 49.3073V52.3478C252.063 52.6012 252.189 52.7279 252.441 52.9813C252.567 53.1079 252.818 53.2346 253.07 53.3613C253.448 53.488 253.7 53.488 253.952 53.488Z" fill="#0A5A96"/>
<path d="M259.741 45.8869C259.489 45.8869 259.237 45.7602 259.111 45.6336C258.985 45.5069 258.859 45.2535 258.859 45.0001C258.859 44.7467 258.985 44.4933 259.111 44.3667C259.237 44.24 259.489 44.1133 259.741 44.1133C259.993 44.1133 260.244 44.24 260.37 44.3667C260.496 44.4933 260.622 44.7467 260.622 45.0001C260.622 45.2535 260.496 45.5069 260.37 45.6336C260.244 45.7602 259.993 45.8869 259.741 45.8869ZM259.237 54.3751C259.237 53.8683 259.237 53.3616 259.237 52.8548C259.237 52.3481 259.237 51.8413 259.237 51.3346V50.7011C259.237 50.3211 259.237 49.941 259.237 49.5609C259.237 49.1808 259.237 48.9275 259.237 48.5474C259.237 48.1673 259.237 47.914 259.237 47.5339H260.37C260.37 47.914 260.37 48.1673 260.37 48.5474C260.37 48.9275 260.37 49.1808 260.37 49.5609C260.37 49.941 260.37 50.3211 260.37 50.7011V51.3346C260.37 51.968 260.37 52.4748 260.37 52.8548C260.37 53.2349 260.37 53.8683 260.37 54.3751H259.237Z" fill="#0A5A96"/>
<path d="M262.891 54.3751C262.891 53.8683 262.891 53.3616 262.891 52.8548C262.891 52.3481 262.891 51.8413 262.891 51.3346V47.5339C262.891 46.9004 262.891 46.3937 262.891 45.8869C262.891 45.3802 262.891 44.7467 262.891 44.24L264.024 44.1133C264.024 44.62 264.024 45.2535 264.024 45.7602C264.024 46.267 264.024 46.9004 264.024 47.5339V51.3346C264.024 51.968 264.024 52.4748 264.024 52.8548C264.024 53.2349 264.024 53.8683 264.024 54.3751H262.891Z" fill="#0A5A96"/>
<path d="M267.045 45.8869C266.794 45.8869 266.542 45.7602 266.416 45.6336C266.29 45.5069 266.164 45.2535 266.164 45.0001C266.164 44.7467 266.29 44.4933 266.416 44.3667C266.542 44.24 266.794 44.1133 267.045 44.1133C267.297 44.1133 267.549 44.24 267.675 44.3667C267.801 44.4933 267.927 44.7467 267.927 45.0001C267.927 45.2535 267.801 45.5069 267.675 45.6336C267.423 45.7602 267.297 45.8869 267.045 45.8869ZM266.416 54.3751C266.416 53.8683 266.416 53.3616 266.416 52.8548C266.416 52.3481 266.416 51.8413 266.416 51.3346V50.7011C266.416 50.3211 266.416 49.941 266.416 49.5609C266.416 49.1808 266.416 48.9275 266.416 48.5474C266.416 48.1673 266.416 47.914 266.416 47.5339H267.549C267.549 47.914 267.549 48.1673 267.549 48.5474C267.549 48.9275 267.549 49.1808 267.549 49.5609C267.549 49.941 267.549 50.3211 267.549 50.7011V51.3346C267.549 51.968 267.549 52.4748 267.549 52.8548C267.549 53.2349 267.549 53.8683 267.549 54.3751H266.416Z" fill="#0A5A96"/>
<path d="M269.188 48.4206V47.5338H274.098V48.4206C273.594 48.4206 273.217 48.4206 272.713 48.4206C272.209 48.4206 271.832 48.4206 271.328 48.4206H270.824H269.188ZM272.587 54.5017C272.083 54.5017 271.706 54.375 271.454 54.2483C271.202 54.1216 270.95 53.8682 270.698 53.4882C270.573 53.1081 270.447 52.728 270.447 52.2213C270.447 51.8412 270.447 51.4611 270.447 51.0811C270.447 50.701 270.447 50.3209 270.447 49.9409C270.447 49.5608 270.447 49.1807 270.447 48.8007C270.447 48.4206 270.447 48.1672 270.447 47.7872C270.447 47.2804 270.447 46.9003 270.447 46.5203C270.447 46.1402 270.447 45.6334 270.447 45.2534L271.58 45C271.58 45.3801 271.58 45.6334 271.58 46.0135C271.58 46.2669 271.58 46.647 271.58 46.9003C271.58 47.1537 271.58 47.5338 271.58 47.9139V52.0946C271.58 52.6014 271.706 52.9814 271.958 53.2348C272.209 53.4882 272.461 53.6149 272.965 53.6149C273.091 53.6149 273.343 53.6149 273.468 53.4882C273.72 53.4882 273.846 53.3615 273.972 53.2348L274.098 54.2483C273.972 54.375 273.846 54.375 273.72 54.375C273.594 54.375 273.343 54.5017 273.217 54.5017C273.091 54.5017 272.839 54.5017 272.587 54.5017Z" fill="#0A5A96"/>
<path d="M276.487 57.0346C276.613 56.5279 276.865 56.1478 276.991 55.641C277.117 55.1343 277.369 54.7542 277.495 54.2475V54.5008C277.369 53.9941 277.117 53.4873 276.991 53.1073C276.865 52.6005 276.613 52.0938 276.487 51.7137L275.984 50.4468C275.858 49.94 275.606 49.4333 275.48 48.9265C275.354 48.4198 275.102 47.913 274.977 47.4062H276.236C276.487 48.0397 276.613 48.5465 276.865 49.1799C277.117 49.8133 277.243 50.3201 277.495 50.9536L278.25 53.234H278.376L279.132 50.9536C279.383 50.3201 279.509 49.8133 279.761 49.1799C280.013 48.5465 280.139 48.0397 280.391 47.4062H281.65C281.524 47.7863 281.398 48.1664 281.272 48.4198C281.146 48.7998 281.02 49.1799 280.768 49.56C280.517 49.94 280.391 50.4468 280.139 51.0802L279.383 52.9806C279.006 53.8674 278.754 54.6275 278.502 55.261C278.25 55.8944 277.998 56.4012 277.872 56.9079L276.487 57.0346Z" fill="#0A5A96"/>
<path d="M193.262 69.5768C193.262 69.0701 193.262 68.4366 193.262 67.9299C193.262 67.4231 193.262 66.9163 193.262 66.2829V62.989C193.262 62.3555 193.262 61.8488 193.262 61.2153C193.262 60.7086 193.262 60.2018 193.262 59.5684H199.305V60.7086C198.802 60.7086 198.298 60.7086 197.795 60.7086C197.291 60.7086 196.661 60.7086 195.906 60.7086H193.891L194.395 59.8217C194.395 60.3285 194.395 60.9619 194.395 61.4687C194.395 61.9755 194.395 62.6089 194.395 63.2423V66.2829C194.395 66.9163 194.395 67.4231 194.395 67.9299C194.395 68.4366 194.395 68.9434 194.395 69.5768H193.262ZM194.269 65.1427V64.1292H196.032C196.661 64.1292 197.165 64.1292 197.669 64.1292C198.172 64.1292 198.55 64.1292 199.054 64.1292V65.1427C198.55 65.1427 198.172 65.1427 197.669 65.1427C197.165 65.1427 196.661 65.1427 196.032 65.1427H194.269Z" fill="#0A5A96"/>
<path d="M203.207 69.7037C202.451 69.7037 201.948 69.4503 201.57 69.0703C201.192 68.6902 201.066 68.0567 201.066 67.1699C201.066 66.9165 201.066 66.5365 201.066 66.4098C201.066 66.1564 201.066 65.903 201.066 65.7763C201.066 65.3963 201.066 65.0162 201.066 64.6361C201.066 64.2561 201.066 64.0027 201.066 63.6226C201.066 63.2426 201.066 62.9892 201.066 62.6091H202.2C202.2 63.1159 202.2 63.6226 202.2 64.1294C202.2 64.6361 202.2 65.1429 202.2 65.6497V66.9165C202.2 67.4233 202.326 67.9301 202.451 68.1834C202.703 68.4368 202.955 68.5635 203.459 68.5635C203.711 68.5635 203.962 68.4368 204.214 68.3101C204.466 68.1834 204.718 68.0567 204.844 67.8034C205.096 67.55 205.221 67.4233 205.347 67.1699V65.523C205.347 65.0162 205.347 64.5094 205.347 64.0027C205.347 63.4959 205.347 62.9892 205.347 62.4824H206.481C206.481 62.9892 206.481 63.4959 206.481 64.0027C206.481 64.5094 206.481 65.0162 206.481 65.6497V66.4098C206.481 67.0432 206.481 67.55 206.481 67.9301C206.481 68.3101 206.481 68.9436 206.481 69.4503H205.473V68.1834H205.347C205.221 68.4368 204.97 68.5635 204.844 68.8169C204.592 69.0703 204.34 69.197 204.088 69.3236C203.836 69.4503 203.585 69.7037 203.207 69.7037Z" fill="#0A5A96"/>
<path d="M208.246 63.6218V62.735H213.157V63.6218C212.653 63.6218 212.275 63.6218 211.772 63.6218C211.268 63.6218 210.89 63.6218 210.387 63.6218H209.883H208.246ZM211.646 69.7029C211.142 69.7029 210.764 69.5762 210.512 69.4495C210.135 69.3228 210.009 69.0694 209.757 68.6894C209.631 68.3093 209.505 67.9292 209.505 67.4225C209.505 67.0424 209.505 66.6623 209.505 66.2823C209.505 65.9022 209.505 65.5221 209.505 65.1421C209.505 64.762 209.505 64.3819 209.505 64.0018C209.505 63.6218 209.505 63.3684 209.505 62.9883C209.505 62.4816 209.505 62.1015 209.505 61.7214C209.505 61.3414 209.505 60.8346 209.505 60.4546L210.638 60.2012C210.638 60.5812 210.638 60.8346 210.638 61.2147C210.638 61.4681 210.638 61.8481 210.638 62.1015C210.638 62.3549 210.638 62.735 210.638 63.115V67.2958C210.638 67.8025 210.764 68.1826 211.016 68.436C211.268 68.6893 211.52 68.816 212.023 68.816C212.149 68.816 212.401 68.816 212.527 68.6894C212.779 68.6894 212.905 68.5627 213.031 68.436L213.157 69.4495C213.031 69.5762 212.905 69.5762 212.779 69.5762C212.653 69.5762 212.401 69.7029 212.275 69.7029C212.023 69.7029 211.897 69.7029 211.646 69.7029Z" fill="#0A5A96"/>
<path d="M216.68 69.7037C215.924 69.7037 215.42 69.4503 215.043 69.0703C214.665 68.6902 214.539 68.0567 214.539 67.1699C214.539 66.9165 214.539 66.5365 214.539 66.4098C214.539 66.1564 214.539 65.903 214.539 65.7763C214.539 65.3963 214.539 65.0162 214.539 64.6361C214.539 64.2561 214.539 64.0027 214.539 63.6226C214.539 63.2426 214.539 62.9892 214.539 62.6091H215.672C215.672 63.1159 215.672 63.6226 215.672 64.1294C215.672 64.6361 215.672 65.1429 215.672 65.6497V66.9165C215.672 67.4233 215.798 67.9301 215.924 68.1834C216.176 68.4368 216.428 68.5635 216.931 68.5635C217.183 68.5635 217.435 68.4368 217.687 68.3101C217.939 68.1834 218.19 68.0567 218.316 67.8034C218.442 67.55 218.694 67.4233 218.82 67.1699V65.523C218.82 65.0162 218.82 64.5094 218.82 64.0027C218.82 63.4959 218.82 62.9892 218.82 62.4824H219.953C219.953 62.9892 219.953 63.4959 219.953 64.0027C219.953 64.5094 219.953 65.0162 219.953 65.6497V66.4098C219.953 67.0432 219.953 67.55 219.953 67.9301C219.953 68.3101 219.953 68.9436 219.953 69.4503H218.946V68.1834H218.82C218.694 68.4368 218.442 68.5635 218.316 68.8169C218.065 69.0703 217.813 69.197 217.561 69.3236C217.435 69.7037 217.057 69.7037 216.68 69.7037Z" fill="#0A5A96"/>
<path d="M222.598 69.577C222.598 69.0703 222.598 68.5635 222.598 68.0567C222.598 67.55 222.598 67.0432 222.598 66.5365V65.903C222.598 65.3963 222.598 64.8895 222.598 64.3828C222.598 63.876 222.598 63.3692 222.598 62.7358L223.605 62.6091V64.0027H223.731C223.983 63.6226 224.109 63.2426 224.36 62.9892C224.612 62.7358 224.864 62.6091 225.116 62.6091C225.368 62.4824 225.62 62.4824 225.871 62.4824C225.997 62.4824 226.123 62.4824 226.249 62.4824C226.375 62.4824 226.501 62.4824 226.627 62.6091L226.501 63.7493C226.375 63.7493 226.249 63.7493 226.123 63.6226C225.997 63.6226 225.871 63.6226 225.745 63.6226C225.62 63.6226 225.494 63.6226 225.242 63.6226C225.116 63.6226 224.864 63.7493 224.738 63.876C224.612 64.0027 224.36 64.1294 224.234 64.3828C224.109 64.6361 223.983 64.8895 223.857 65.3963V66.4098C223.857 66.9165 223.857 67.4233 223.857 67.9301C223.857 68.4368 223.857 68.9436 223.857 69.4503H222.598V69.577Z" fill="#0A5A96"/>
<path d="M231.287 69.7034C230.406 69.7034 229.776 69.5768 229.273 69.1967C228.769 68.8166 228.391 68.4366 228.139 67.9298C227.888 67.423 227.762 66.7896 227.762 66.0295C227.762 65.396 227.888 64.7626 228.139 64.1291C228.391 63.6224 228.769 63.1156 229.273 62.8622C229.776 62.6088 230.28 62.3555 231.035 62.3555C231.665 62.3555 232.169 62.4822 232.546 62.7355C232.924 62.9889 233.302 63.2423 233.554 63.749C233.805 64.1291 233.931 64.7626 233.931 65.396C233.931 65.5227 233.931 65.7761 233.931 65.9028C233.931 66.0294 233.931 66.1561 233.931 66.2828L232.924 65.7761C232.924 65.6494 232.924 65.6494 232.924 65.5227C232.924 65.396 232.924 65.396 232.924 65.2693C232.924 64.6359 232.798 64.1291 232.42 63.749C232.043 63.369 231.665 63.2423 231.161 63.2423C230.784 63.2423 230.406 63.369 230.028 63.6224C229.776 63.8757 229.524 64.1291 229.273 64.5092C229.021 64.8892 229.021 65.2693 229.021 65.7761V65.9028C229.021 66.4095 229.147 66.9163 229.273 67.2963C229.399 67.6764 229.776 67.9298 230.154 68.1832C230.532 68.4365 231.035 68.5632 231.539 68.5632C231.791 68.5632 232.043 68.5632 232.169 68.5632C232.294 68.5632 232.672 68.4365 232.924 68.4365C233.176 68.3099 233.428 68.3099 233.554 68.1832V69.1967C233.428 69.3234 233.176 69.3234 232.924 69.4501C232.672 69.5768 232.42 69.5767 232.169 69.5767C231.917 69.7034 231.665 69.7034 231.287 69.7034ZM228.139 66.4095V65.6494H232.924L233.68 65.9028V66.5362H228.139V66.4095Z" fill="#0A5A96"/>
<path d="M72.7656 20.4225C72.7656 19.9158 72.7656 19.409 72.7656 18.9022C72.7656 18.3955 72.7656 17.8887 72.7656 17.2553V13.8347C72.7656 13.2012 72.7656 12.5678 72.7656 12.061C72.7656 11.5543 72.7656 11.0475 72.7656 10.4141H79.1871V12.3144C78.8093 12.3144 78.3057 12.3144 77.802 12.3144C77.2984 12.3144 76.7948 12.3144 76.0393 12.3144H74.0247L74.9061 10.7941C74.9061 11.3009 74.9061 11.8076 74.9061 12.4411C74.9061 12.9478 74.9061 13.5813 74.9061 14.2147V17.2553C74.9061 17.8887 74.9061 18.3955 74.9061 18.9022C74.9061 19.409 74.9061 19.9158 74.9061 20.4225H72.7656ZM74.4025 16.4951V14.5948H76.1652C76.7948 14.5948 77.2984 14.5948 77.6761 14.5948C78.0539 14.5948 78.5575 14.5948 78.9352 14.5948V16.4951C78.5575 16.4951 78.0539 16.4951 77.6761 16.4951C77.2984 16.4951 76.6688 16.4951 76.1652 16.4951H74.4025Z" fill="#0A5A96"/>
<path d="M83.9717 20.6758C83.3422 20.6758 82.8385 20.5491 82.3349 20.4225C81.8312 20.2958 81.4535 19.9157 81.2017 19.6623C80.9499 19.4089 80.698 18.9022 80.5721 18.5221C80.4462 18.1421 80.3203 17.3819 80.3203 16.8752C80.3203 16.2417 80.4462 15.6083 80.698 14.9748C80.9499 14.4681 81.3276 13.9613 81.9572 13.7079C82.4608 13.3279 83.2163 13.2012 83.9717 13.2012C84.6013 13.2012 85.1049 13.3279 85.6086 13.4546C86.1122 13.5812 86.4899 13.8346 86.7417 14.2147C86.9936 14.5948 87.2454 14.9748 87.3713 15.3549C87.4972 15.735 87.6231 16.2417 87.6231 16.7485C87.6231 17.5086 87.4972 18.0154 87.2454 18.6488C86.9936 19.1556 86.6158 19.6623 85.9863 19.9157C85.4826 20.4225 84.8531 20.6758 83.9717 20.6758ZM83.9717 18.9022C84.3495 18.9022 84.6013 18.7755 84.8531 18.6488C85.1049 18.5221 85.2308 18.2687 85.3567 17.8887C85.4826 17.5086 85.4826 17.2552 85.4826 16.8752C85.4826 16.4951 85.3567 16.115 85.2308 15.8616C85.1049 15.6083 84.979 15.3549 84.7272 15.2282C84.4754 15.1015 84.2235 14.9748 83.9717 14.9748C83.594 14.9748 83.3422 15.1015 83.0903 15.2282C82.8385 15.3549 82.7126 15.6083 82.5867 15.9883C82.4608 16.2417 82.4608 16.6218 82.4608 17.0018C82.4608 17.3819 82.4608 17.6353 82.5867 18.0154C82.7126 18.2687 82.8385 18.5221 83.0903 18.7755C83.3422 18.7755 83.7199 18.9022 83.9717 18.9022Z" fill="#0A5A96"/>
<path d="M91.0224 20.6758C90.3928 20.6758 89.7633 20.4225 89.5115 20.0424C89.1337 19.6623 89.0078 19.0289 89.0078 18.1421C89.0078 17.8887 89.0078 17.5086 89.0078 17.3819C89.0078 17.2552 89.0078 16.8752 89.0078 16.6218C89.0078 16.115 89.0078 15.735 89.0078 15.3549C89.0078 14.9748 89.0078 14.7214 89.0078 14.3414C89.0078 14.088 89.0078 13.7079 89.0078 13.3279H91.0224C91.0224 13.8346 91.0224 14.3414 91.0224 14.8481C91.0224 15.3549 91.0224 15.8616 91.0224 16.3684V17.5086C91.0224 17.8887 91.1483 18.2687 91.2742 18.3954C91.4001 18.6488 91.6519 18.6488 92.0297 18.6488C92.2815 18.6488 92.4074 18.6488 92.5333 18.5221C92.6592 18.3954 92.7851 18.3954 93.0369 18.1421C93.1629 18.0154 93.2888 17.8887 93.4147 17.6353V16.115C93.4147 15.6083 93.4147 15.1015 93.4147 14.5948C93.4147 14.088 93.4147 13.7079 93.4147 13.2012H95.4292C95.4292 13.7079 95.4292 14.2147 95.4292 14.7214C95.4292 15.2282 95.4292 15.735 95.4292 16.3684V17.1285C95.4292 17.762 95.4292 18.2687 95.4292 18.6488C95.4292 19.1556 95.4292 19.5356 95.4292 20.0424H93.6665L93.5406 18.9022H93.4147C93.2888 19.1556 93.0369 19.2823 92.911 19.5356C92.6592 19.789 92.4074 19.9157 92.1556 20.0424C91.7778 20.5491 91.4001 20.6758 91.0224 20.6758Z" fill="#0A5A96"/>
<path d="M97.0664 20.4227C97.0664 19.916 97.0664 19.4092 97.0664 19.0291C97.0664 18.5224 97.0664 18.0156 97.0664 17.5089V16.7487C97.0664 16.242 97.0664 15.7352 97.0664 15.1018C97.0664 14.595 97.0664 13.9616 97.0664 13.4548L98.8291 13.3281L98.9551 14.595H99.081C99.2069 14.3416 99.4587 14.2149 99.7105 13.9616C99.9623 13.7082 100.214 13.5815 100.466 13.4548C100.718 13.3281 101.096 13.3281 101.473 13.3281C102.229 13.3281 102.732 13.5815 102.984 13.9616C103.362 14.3416 103.488 14.9751 103.488 15.8619C103.488 16.1153 103.488 16.4954 103.488 16.7487C103.488 17.0021 103.488 17.2555 103.488 17.5089C103.488 18.0156 103.488 18.6491 103.488 19.0291C103.488 19.5359 103.488 20.0426 103.488 20.4227H101.473C101.473 19.916 101.473 19.4092 101.473 19.0291C101.473 18.6491 101.473 18.1423 101.473 17.6356V16.4954C101.473 16.1153 101.347 15.7352 101.221 15.6085C101.096 15.3552 100.844 15.3551 100.466 15.3551C100.214 15.3551 100.088 15.3552 99.9623 15.4818C99.8364 15.6085 99.5846 15.7352 99.4587 15.8619C99.3328 15.9886 99.2069 16.1153 99.081 16.3687V17.7622C99.081 18.269 99.081 18.7758 99.081 19.2825C99.081 19.7893 99.081 20.1693 99.081 20.6761H97.0664V20.4227Z" fill="#0A5A96"/>
<path d="M107.644 20.6754C107.015 20.6754 106.511 20.5487 106.133 20.1686C105.755 19.7885 105.378 19.4085 105.252 18.775C105.126 18.1416 105 17.6348 105 17.0014C105 16.3679 105.126 15.7345 105.378 15.101C105.63 14.5943 105.881 14.0875 106.259 13.8341C106.637 13.4541 107.14 13.3274 107.77 13.3274C108.022 13.3274 108.274 13.3274 108.525 13.4541C108.777 13.5808 108.903 13.5808 109.155 13.7075C109.407 13.8341 109.533 13.9608 109.659 14.2142H109.785V13.5808C109.785 13.074 109.785 12.4406 109.785 11.9338C109.785 11.427 109.785 10.7936 109.785 10.2868L111.799 10.1602C111.799 10.6669 111.799 11.3004 111.799 11.8071C111.799 12.4406 111.799 12.9473 111.799 13.5808V17.5081C111.799 18.1416 111.799 18.6483 111.799 19.0284C111.799 19.5352 111.799 19.9152 111.799 20.422H110.036L109.911 19.5352H109.785C109.659 19.7885 109.407 19.9152 109.281 20.1686C109.155 20.422 108.903 20.422 108.651 20.5487C108.148 20.5487 107.896 20.6754 107.644 20.6754ZM108.4 18.9017C108.651 18.9017 108.777 18.9017 108.903 18.775C109.029 18.6483 109.155 18.6483 109.281 18.5216C109.407 18.395 109.533 18.2683 109.533 18.1416V15.7345C109.407 15.6078 109.281 15.4811 109.155 15.3544C109.029 15.2277 108.903 15.2277 108.777 15.101C108.651 15.101 108.525 14.9743 108.274 14.9743C107.896 14.9743 107.644 15.101 107.518 15.2277C107.392 15.3544 107.14 15.6078 107.015 15.8612C106.889 16.1145 106.889 16.4946 106.889 16.748C106.889 17.1281 106.889 17.3814 107.015 17.6348C107.14 17.8882 107.266 18.1416 107.518 18.395C107.77 18.6483 108.022 18.9017 108.4 18.9017Z" fill="#0A5A96"/>
<path d="M115.072 20.5489C114.695 20.5489 114.317 20.4222 114.065 20.2955C113.813 20.1688 113.561 19.9154 113.435 19.5354C113.31 19.282 113.184 18.9019 113.184 18.3952C113.184 18.0151 113.31 17.635 113.435 17.3817C113.561 17.1283 113.813 16.8749 113.939 16.7482C114.191 16.6215 114.443 16.4948 114.695 16.3681C114.946 16.2414 115.198 16.2415 115.45 16.1148L117.339 15.8614C117.339 15.608 117.339 15.3546 117.213 15.2279C117.087 15.1012 116.961 14.9746 116.709 14.8479C116.457 14.8479 116.205 14.7212 115.954 14.7212C115.828 14.7212 115.576 14.7212 115.45 14.7212C115.324 14.7212 115.072 14.8479 114.82 14.8479C114.569 14.8479 114.443 14.9746 114.191 14.9746C113.939 14.9746 113.813 15.1012 113.561 15.2279L113.435 13.4543C113.561 13.4543 113.813 13.3276 114.065 13.3276C114.317 13.2009 114.569 13.2009 114.82 13.2009C115.072 13.2009 115.324 13.0742 115.702 13.0742C115.954 13.0742 116.331 13.0742 116.583 13.0742C117.213 13.0742 117.59 13.2009 118.094 13.3276C118.472 13.4543 118.85 13.7077 118.975 14.0877C119.101 14.4678 119.353 14.9746 119.353 15.4813C119.353 15.7347 119.353 15.9881 119.353 16.3681C119.353 16.7482 119.353 17.0016 119.353 17.255V18.1418C119.353 18.5219 119.353 18.9019 119.353 19.282C119.353 19.6621 119.353 20.0421 119.353 20.4222H117.59L117.465 19.5354H117.339C117.213 19.6621 117.087 19.9154 116.835 20.0421C116.583 20.1688 116.457 20.2955 116.205 20.4222C115.702 20.5489 115.324 20.5489 115.072 20.5489ZM115.828 19.0286C115.954 19.0286 116.205 19.0286 116.331 18.9019C116.457 18.7752 116.583 18.7752 116.835 18.5219C116.961 18.3952 117.087 18.2685 117.213 18.0151V17.0016C117.213 17.0016 117.087 17.1283 116.961 17.1283C116.835 17.1283 116.709 17.255 116.583 17.255C116.457 17.255 116.205 17.3817 115.954 17.3817C115.828 17.3817 115.702 17.5083 115.576 17.5083C115.45 17.635 115.324 17.635 115.324 17.7617C115.198 17.8884 115.198 18.0151 115.198 18.1418C115.198 18.3952 115.324 18.6485 115.45 18.6485C115.576 18.6485 115.702 19.0286 115.828 19.0286Z" fill="#0A5A96"/>
<path d="M120.234 15.1004V13.5801H125.397V15.1004C125.019 15.1004 124.515 15.1004 124.138 15.1004C123.76 15.1004 123.256 15.1004 122.879 15.1004H121.871H120.234ZM123.76 20.6747C123.256 20.6747 122.753 20.548 122.501 20.4213C122.123 20.2947 121.871 20.0413 121.619 19.6612C121.368 19.2811 121.368 18.9011 121.368 18.2676C121.368 18.0142 121.368 17.6342 121.368 17.3808C121.368 17.0007 121.368 16.7474 121.368 16.3673C121.368 15.9872 121.368 15.6072 121.368 15.2271C121.368 14.847 121.368 14.467 121.368 13.9602C121.368 13.4534 121.368 12.9467 121.368 12.5666C121.368 12.1865 121.368 11.6798 121.368 11.173L123.382 10.793C123.382 11.173 123.382 11.5531 123.382 11.8065C123.382 12.0599 123.382 12.4399 123.382 12.82C123.382 13.2001 123.382 13.5801 123.382 13.9602V17.6342C123.382 18.0142 123.508 18.3943 123.634 18.6477C123.76 18.9011 124.012 19.0278 124.389 19.0278C124.515 19.0278 124.641 19.0278 124.893 18.9011C125.019 18.9011 125.271 18.7744 125.397 18.6477L125.523 20.2947C125.397 20.4213 125.271 20.4213 125.019 20.4213C124.893 20.4213 124.641 20.548 124.389 20.548C124.138 20.548 124.012 20.6747 123.76 20.6747Z" fill="#0A5A96"/>
<path d="M127.79 12.4406C127.413 12.4406 127.161 12.3139 126.909 12.1872C126.657 12.0605 126.531 11.6804 126.531 11.3004C126.531 10.9203 126.657 10.6669 126.909 10.4135C127.161 10.1602 127.413 10.1602 127.79 10.1602C128.168 10.1602 128.546 10.2868 128.672 10.4135C128.924 10.6669 129.049 10.9203 129.049 11.3004C129.049 11.6804 128.924 12.0605 128.672 12.1872C128.546 12.3139 128.168 12.4406 127.79 12.4406ZM126.783 20.422C126.783 19.9152 126.783 19.4085 126.783 19.0284C126.783 18.5216 126.783 18.0149 126.783 17.5081V16.748C126.783 16.2412 126.783 15.8612 126.783 15.4811C126.783 15.101 126.783 14.721 126.783 14.4676C126.783 14.2142 126.783 13.8341 126.783 13.4541H128.798C128.798 13.8341 128.798 14.0875 128.798 14.4676C128.798 14.8477 128.798 15.101 128.798 15.4811C128.798 15.8612 128.798 16.2412 128.798 16.748V17.5081C128.798 18.1416 128.798 18.6483 128.798 19.0284C128.798 19.5352 128.798 19.9152 128.798 20.422H126.783Z" fill="#0A5A96"/>
<path d="M133.96 20.6744C133.33 20.6744 132.827 20.5477 132.323 20.421C131.82 20.2943 131.442 19.9143 131.19 19.6609C130.938 19.4075 130.686 18.9008 130.56 18.5207C130.435 18.1406 130.309 17.6339 130.309 17.1271C130.309 16.4937 130.435 15.8602 130.686 15.2268C130.938 14.72 131.316 14.2133 131.945 13.9599C132.449 13.5798 133.205 13.4531 133.96 13.4531C134.59 13.4531 135.093 13.5798 135.597 13.7065C136.1 13.8332 136.478 14.0866 136.73 14.4666C136.982 14.8467 137.234 15.2268 137.36 15.6068C137.486 15.9869 137.611 16.4937 137.611 17.0004C137.611 17.7606 137.485 18.2673 137.234 18.9008C136.982 19.4075 136.604 19.9143 135.975 20.1677C135.471 20.421 134.841 20.6744 133.96 20.6744ZM133.96 18.9008C134.338 18.9008 134.59 18.7741 134.841 18.6474C135.093 18.5207 135.219 18.2673 135.345 17.8872C135.471 17.5072 135.471 17.2538 135.471 16.8737C135.471 16.4937 135.345 16.1136 135.219 15.8602C135.093 15.6068 134.967 15.3535 134.715 15.2268C134.464 15.1001 134.212 14.9734 133.96 14.9734C133.582 14.9734 133.33 15.1001 133.079 15.2268C132.827 15.3535 132.701 15.6068 132.575 15.9869C132.449 16.2403 132.449 16.6204 132.449 17.0004C132.449 17.3805 132.449 17.6339 132.575 18.0139C132.701 18.2673 132.827 18.5207 133.079 18.7741C133.33 18.7741 133.708 18.9008 133.96 18.9008Z" fill="#0A5A96"/>
<path d="M139.121 20.4227C139.121 19.916 139.121 19.4092 139.121 19.0291C139.121 18.5224 139.121 18.0156 139.121 17.5089V16.7487C139.121 16.242 139.121 15.7352 139.121 15.1018C139.121 14.595 139.121 13.9616 139.121 13.4548L140.884 13.3281L141.01 14.595H141.136C141.262 14.3416 141.513 14.2149 141.765 13.9616C142.017 13.7082 142.269 13.5815 142.521 13.4548C142.772 13.3281 143.15 13.3281 143.528 13.3281C144.283 13.3281 144.787 13.5815 145.039 13.9616C145.417 14.3416 145.543 14.9751 145.543 15.8619C145.543 16.1153 145.543 16.4954 145.543 16.7487C145.543 17.0021 145.543 17.2555 145.543 17.5089C145.543 18.0156 145.543 18.6491 145.543 19.0291C145.543 19.5359 145.543 20.0426 145.543 20.4227H143.528C143.528 19.916 143.528 19.4092 143.528 19.0291C143.528 18.6491 143.528 18.1423 143.528 17.6356V16.4954C143.528 16.1153 143.402 15.7352 143.276 15.6085C143.15 15.3552 142.898 15.3551 142.521 15.3551C142.269 15.3551 142.143 15.3552 142.017 15.4818C141.891 15.6085 141.639 15.7352 141.513 15.8619C141.387 15.9886 141.262 16.1153 141.136 16.3687V17.7622C141.136 18.269 141.136 18.7758 141.136 19.2825C141.136 19.7893 141.136 20.1693 141.136 20.6761H139.121V20.4227Z" fill="#0A5A96"/>
<path d="M178.152 60.836H155.614L179.663 36.6384C180.922 35.3715 181.3 33.4711 180.544 31.9509C179.915 30.3039 178.278 29.2904 176.515 29.2904H152.34C151.207 29.2904 150.074 29.7971 149.318 30.5573L125.269 54.7549V33.0911C125.269 30.684 123.381 28.7836 120.988 28.7836C118.596 28.7836 116.708 30.684 116.708 33.0911V41.9593L100.465 58.1755C96.5618 62.1029 90.77 62.9897 86.1113 60.7093L106.635 40.059C108.272 38.412 108.272 35.6248 106.635 33.8512C98.3246 25.4897 84.7263 25.4897 76.4162 33.8512C68.1061 42.2127 68.1061 55.8951 76.4162 64.2566C80.5712 68.4373 86.1113 70.5911 91.5254 70.5911C96.9396 70.5911 102.48 68.4373 106.635 64.2566L116.708 54.1215V65.1434C116.708 66.9171 117.715 68.4373 119.352 69.1975C119.855 69.4509 120.485 69.5775 120.988 69.5775C122.122 69.5775 123.255 69.1975 124.01 68.3106L154.229 37.9052H166.064L142.016 62.1029C140.756 63.3698 140.379 65.2701 141.134 66.7904C141.764 68.4373 143.401 69.4509 145.163 69.4509H178.152C180.544 69.4509 182.433 67.5505 182.433 65.1434C182.433 62.863 180.544 60.836 178.152 60.836ZM82.5858 40.059C85.104 37.5252 88.3777 36.2583 91.5254 36.2583C93.4141 36.2583 95.1768 36.6384 96.9396 37.3985L79.9417 54.6282C77.8012 49.814 78.6826 43.9863 82.5858 40.059Z" fill="#0A5A96"/>
<path d="M55.5167 30.1758C56.3981 29.289 56.3981 27.7687 55.5167 26.8819C54.6354 25.9951 53.1244 25.9951 52.2431 26.8819C51.3617 27.7687 51.3617 29.289 52.2431 30.1758C53.1244 31.0627 54.6354 31.0627 55.5167 30.1758Z" fill="#0096BE"/>
<path d="M60.6795 35.3712C61.4349 34.6111 61.4349 33.4709 60.6795 32.7107C59.924 31.9506 58.7908 31.9506 58.0353 32.7107C57.2799 33.4709 57.2799 34.6111 58.0353 35.3712C58.7908 36.0046 59.924 36.0046 60.6795 35.3712Z" fill="#0096BE"/>
<path d="M44.6872 30.1766C45.6945 29.1631 45.6945 27.6428 44.6872 26.6293C43.6799 25.6158 42.169 25.6158 41.1617 26.6293C40.1544 27.6428 40.1544 29.1631 41.1617 30.1766C42.169 31.1901 43.6799 31.1901 44.6872 30.1766Z" fill="#0096BE"/>
<path d="M57.0264 42.5927C55.7673 43.8596 55.7673 46.0134 57.0264 47.2802C58.2855 48.5471 60.4259 48.5471 61.685 47.2802C62.9441 46.0134 62.9441 43.8596 61.685 42.5927C60.4259 41.3259 58.2855 41.3259 57.0264 42.5927Z" fill="#0096BE"/>
<path d="M64.8312 51.9663C65.6657 51.9663 66.3422 51.2857 66.3422 50.4461C66.3422 49.6064 65.6657 48.9258 64.8312 48.9258C63.9968 48.9258 63.3203 49.6064 63.3203 50.4461C63.3203 51.2857 63.9968 51.9663 64.8312 51.9663Z" fill="#0096BE"/>
<path d="M65.8392 40.5643C66.4688 39.9309 66.4688 39.0441 65.8392 38.4106C65.2096 37.7772 64.3283 37.7772 63.6987 38.4106C63.0692 39.0441 63.0692 39.9309 63.6987 40.5643C64.3283 41.1978 65.3356 41.1978 65.8392 40.5643Z" fill="#0096BE"/>
<path d="M52.7454 46.8995C53.1232 45.886 53.2491 44.7458 52.9973 43.7323C54.3823 44.1123 55.8932 43.7323 57.0264 42.5921C58.6632 40.9451 58.6632 38.1579 57.0264 36.511C55.7673 35.2441 53.8786 34.864 52.3677 35.4975C52.8714 33.9772 52.6195 32.3302 51.4863 31.0633C49.8495 29.4164 47.2054 29.4164 45.6945 31.0633C44.5613 32.2035 44.3094 33.7238 44.5613 35.1174C43.3022 34.7373 41.9171 34.864 40.7839 35.4975C41.4135 34.2306 41.1617 32.7103 40.0285 31.5701C38.6435 30.1765 36.503 30.1765 35.118 31.5701C33.733 32.9637 33.733 35.1174 35.118 36.511C36.1253 37.5245 37.7621 37.7779 39.0212 37.2711C38.5176 38.2846 38.2657 39.4248 38.5176 40.4383C37.5103 40.3117 36.6289 40.3117 35.7475 40.8184C36.2512 39.5515 35.8734 38.0312 34.8662 36.891C33.3552 35.3708 31.0888 35.3708 29.5779 36.891C28.067 38.4113 28.067 40.6917 29.5779 42.212C30.5852 43.2255 32.0961 43.6056 33.4811 43.0988C33.1034 43.9856 32.9775 44.9992 33.1034 46.0127C31.5925 45.7593 30.0816 46.1394 28.9484 47.2796C27.4374 48.7998 27.1856 51.0802 28.1929 52.8539C26.9338 52.2204 25.297 52.4738 24.1638 53.614C22.7787 55.0076 22.7787 57.288 24.1638 58.6816C25.4229 59.9485 27.1856 60.0752 28.5706 59.1883C27.3115 60.8353 27.5633 63.2424 29.0743 64.7627C30.7111 66.4096 33.4811 66.4096 35.2439 64.7627C36.3771 63.6225 36.7548 61.8488 36.3771 60.4552C37.888 60.962 39.6508 60.5819 40.7839 59.315C41.9171 58.1748 42.2949 56.5279 41.9171 55.1343C43.4281 55.5144 45.1908 55.1343 46.324 53.9941C47.4572 52.8539 47.8349 51.3336 47.5831 49.8133C48.5904 50.0667 49.5977 49.94 50.4791 49.56C50.1013 50.8269 50.3531 52.3471 51.3604 53.4873C52.8714 55.0076 55.2637 55.0076 56.7746 53.4873C58.2855 51.9671 58.2855 49.56 56.7746 48.0397C55.5155 46.7728 54.0046 46.3927 52.7454 46.8995Z" fill="#0096BE"/>
<path d="M59.4172 57.5405C60.2516 57.5405 60.9281 56.8599 60.9281 56.0203C60.9281 55.1807 60.2516 54.5 59.4172 54.5C58.5827 54.5 57.9062 55.1807 57.9062 56.0203C57.9062 56.8599 58.5827 57.5405 59.4172 57.5405Z" fill="#0096BE"/>
<path d="M46.7008 54.2484C45.6935 55.2619 45.6935 56.9089 46.7008 57.7957C47.7081 58.8092 49.3449 58.8092 50.2263 57.7957C51.2336 56.7822 51.2336 55.1352 50.2263 54.2484C49.219 53.2349 47.5821 53.2349 46.7008 54.2484Z" fill="#0096BE"/>
<path d="M26.557 48.0401C28.2259 48.0401 29.5789 46.6788 29.5789 44.9995C29.5789 43.3203 28.2259 41.959 26.557 41.959C24.8881 41.959 23.5352 43.3203 23.5352 44.9995C23.5352 46.6788 24.8881 48.0401 26.557 48.0401Z" fill="#0096BE"/>
<path d="M41.4149 59.949C40.5336 60.8358 40.5336 62.1027 41.4149 62.9896C42.2963 63.8764 43.5554 63.8764 44.4368 62.9896C45.3182 62.1027 45.3182 60.8358 44.4368 59.949C43.6813 59.1889 42.2963 59.1889 41.4149 59.949Z" fill="#0096BE"/>
<path d="M21.1417 52.2211C22.1152 52.2211 22.9044 51.427 22.9044 50.4475C22.9044 49.4679 22.1152 48.6738 21.1417 48.6738C20.1681 48.6738 19.3789 49.4679 19.3789 50.4475C19.3789 51.427 20.1681 52.2211 21.1417 52.2211Z" fill="#0096BE"/>
<path d="M35.6227 65.1429C34.6154 66.1565 34.6154 67.8034 35.6227 68.8169C36.6299 69.8304 38.2668 69.8304 39.2741 68.8169C40.2813 67.8034 40.2813 66.1565 39.2741 65.1429C38.2668 64.1294 36.6299 64.1294 35.6227 65.1429Z" fill="#0096BE"/>
<path d="M20.0073 60.3293C19.3778 60.9627 19.3778 61.9762 20.0073 62.6097C20.6369 63.2431 21.6442 63.2431 22.2737 62.6097C22.9033 61.9762 22.9033 60.9627 22.2737 60.3293C21.6442 59.8225 20.6369 59.8225 20.0073 60.3293Z" fill="#0096BE"/>
<path d="M24.9188 65.3956C24.0375 66.2824 24.0375 67.676 24.9188 68.5628C25.8002 69.4496 27.1852 69.4496 28.0666 68.5628C28.948 67.676 28.948 66.2824 28.0666 65.3956C27.3111 64.5088 25.8002 64.5088 24.9188 65.3956Z" fill="#0096BE"/>
<path d="M30.7111 71.0974C29.9557 71.8576 29.9557 73.1245 30.7111 73.8846C31.4666 74.6447 32.7257 74.6447 33.4812 73.8846C34.2366 73.1245 34.2366 71.8576 33.4812 71.0974C32.5998 70.3373 31.4666 70.3373 30.7111 71.0974Z" fill="#0096BE"/>
<path d="M25.1682 49.1814C24.4127 49.9416 24.4127 51.2085 25.1682 51.8419C25.9236 52.602 27.1827 52.602 27.8123 51.8419C28.5677 51.0818 28.5677 49.8149 27.8123 49.1814C27.1827 48.4213 25.9236 48.4213 25.1682 49.1814Z" fill="#0A5A96"/>
<path d="M19.7541 43.6072C18.9986 44.3673 18.9986 45.5076 19.7541 46.2677C20.5096 47.0278 21.6428 47.0278 22.3982 46.2677C23.1537 45.5076 23.1537 44.3673 22.3982 43.6072C21.6428 42.8471 20.5096 42.8471 19.7541 43.6072Z" fill="#0A5A96"/>
<path d="M35.7477 48.8012C34.7404 49.8147 34.7404 51.3349 35.7477 52.3484C36.7549 53.362 38.2659 53.362 39.2731 52.3484C40.2804 51.3349 40.2804 49.8147 39.2731 48.8012C38.2659 47.7876 36.7549 47.7876 35.7477 48.8012Z" fill="#0A5A96"/>
<path d="M23.4077 36.3857C24.6668 35.1188 24.6668 32.9651 23.4077 31.6982C22.1486 30.4313 20.0081 30.4313 18.749 31.6982C17.4899 32.9651 17.4899 35.1188 18.749 36.3857C20.0081 37.6526 22.1486 37.6526 23.4077 36.3857Z" fill="#0A5A96"/>
<path d="M15.6008 30.0503C16.4352 30.0503 17.1117 29.3697 17.1117 28.53C17.1117 27.6904 16.4352 27.0098 15.6008 27.0098C14.7663 27.0098 14.0898 27.6904 14.0898 28.53C14.0898 29.3697 14.7663 30.0503 15.6008 30.0503Z" fill="#0A5A96"/>
<path d="M15.6008 40.9468C16.4352 40.9468 17.1117 40.2661 17.1117 39.4265C17.1117 38.5869 16.4352 37.9062 15.6008 37.9062C14.7663 37.9062 14.0898 38.5869 14.0898 39.4265C14.0898 40.2661 14.7663 40.9468 15.6008 40.9468Z" fill="#0A5A96"/>
<path d="M21.1398 24.4761C21.9743 24.4761 22.6508 23.7954 22.6508 22.9558C22.6508 22.1162 21.9743 21.4355 21.1398 21.4355C20.3054 21.4355 19.6289 22.1162 19.6289 22.9558C19.6289 23.7954 20.3054 24.4761 21.1398 24.4761Z" fill="#0A5A96"/>
<path d="M41.7884 41.4538C42.1662 40.5669 42.2921 39.5534 42.1662 38.5399C43.6771 38.7933 45.188 38.4132 46.3212 37.273C47.8321 35.7527 48.084 33.4723 47.0767 31.6987C48.3358 32.3321 49.9726 32.0788 51.1058 30.9386C52.4908 29.545 52.4908 27.2646 51.1058 25.871C49.8467 24.6041 48.084 24.4774 46.6989 25.3642C47.958 23.7173 47.7062 21.3102 46.1953 19.7899C44.5585 18.1429 41.7884 18.1429 40.0257 19.7899C38.8925 20.9301 38.5148 22.7038 38.8925 24.0973C37.3816 23.5906 35.6188 23.9706 34.4856 25.2375C33.3524 26.3777 32.9747 27.898 33.3524 29.4183C32.3451 29.1649 31.2119 29.2916 30.3306 29.6717C30.7083 28.4048 30.4565 26.8845 29.4492 25.7443C27.9383 24.224 25.546 24.224 24.035 25.7443C22.5241 27.2646 22.5241 29.6717 24.035 31.1919C25.0423 32.2054 26.5533 32.5855 27.9383 32.0788C27.5605 33.0923 27.4346 34.2325 27.6865 35.246C26.3014 34.8659 24.7905 35.246 23.6573 36.3862C22.0205 38.0332 22.0205 40.8203 23.6573 42.4673C24.9164 43.7342 26.8051 44.1142 28.316 43.4808C27.8124 45.0011 28.0642 46.648 29.1974 47.9149C30.8342 49.5619 33.4783 49.5619 34.9893 47.9149C36.1225 46.7747 36.3743 45.2544 36.1225 43.8609C36.2484 43.8609 36.5002 43.9875 36.6261 43.9875C37.2556 44.1142 38.0111 44.1142 38.6407 43.9875C38.7666 43.9875 38.8925 43.9875 38.8925 43.8609C39.0184 43.8609 39.2702 43.7342 39.3961 43.7342C38.8925 45.0011 39.2702 46.5213 40.2775 47.6615C41.7884 49.1818 44.0548 49.1818 45.5657 47.6615C47.0767 46.1413 47.0767 43.8609 45.5657 42.3406C44.5585 41.3271 43.0475 40.947 41.7884 41.4538Z" fill="#0A5A96"/>
<path d="M46.3226 37.3994C45.1894 38.5396 45.1894 40.5666 46.3226 41.7068C47.4557 42.847 49.4703 42.847 50.6035 41.7068C51.7367 40.5666 51.7367 38.5396 50.6035 37.3994C49.3444 36.1325 47.4557 36.1325 46.3226 37.3994Z" fill="#0A5A96"/>
<path d="M33.4798 24.4771C34.3611 23.5903 34.3611 22.3234 33.4798 21.4366C32.5984 20.5498 31.3393 20.5498 30.4579 21.4366C29.5765 22.3234 29.5765 23.5903 30.4579 24.4771C31.3393 25.364 32.7243 25.364 33.4798 24.4771Z" fill="#0A5A96"/>
<path d="M55.3869 32.4581C54.5055 31.5713 53.1205 31.5713 52.2392 32.4581C51.3578 33.3449 51.3578 34.7385 52.2392 35.6253C53.1205 36.5121 54.5055 36.5121 55.3869 35.6253C56.2683 34.7385 56.2683 33.2182 55.3869 32.4581Z" fill="#0A5A96"/>
<path d="M37.5074 20.1686C38.9677 20.1686 40.1515 18.9775 40.1515 17.5081C40.1515 16.0388 38.9677 14.8477 37.5074 14.8477C36.0471 14.8477 34.8633 16.0388 34.8633 17.5081C34.8633 18.9775 36.0471 20.1686 37.5074 20.1686Z" fill="#0A5A96"/>
<path d="M55.012 24.0973C55.6415 23.4638 55.6415 22.4503 55.012 21.8169C54.3824 21.1834 53.3752 21.1834 52.7456 21.8169C52.116 22.4503 52.116 23.4638 52.7456 24.0973C53.3752 24.7307 54.3824 24.7307 55.012 24.0973Z" fill="#0A5A96"/>
<path d="M49.9729 19.0296C50.8542 18.1428 50.8542 16.7492 49.9729 15.8624C49.0915 14.9756 47.7065 14.9756 46.8251 15.8624C45.9437 16.7492 45.9437 18.1428 46.8251 19.0296C47.7065 19.9164 49.0915 19.9164 49.9729 19.0296Z" fill="#0A5A96"/>
<path d="M44.3093 13.328C45.0647 12.5678 45.0647 11.3009 44.3093 10.5408C43.5538 9.78067 42.2947 9.78067 41.5393 10.5408C40.7838 11.3009 40.7838 12.5678 41.5393 13.328C42.2947 14.0881 43.5538 14.0881 44.3093 13.328Z" fill="#0A5A96"/>
</g>
<defs>
<clipPath id="clip0_1763_3420">
<rect width="300" height="87" fill="white"/>
</clipPath>
</defs>
</svg>
