<svg width="300" height="87" viewBox="0 0 300 87" fill="none" xmlns="http://www.w3.org/2000/svg">
<g clip-path="url(#clip0_2407_2068)">
<path d="M54.8413 47.1136C50.7969 47.8741 50.2913 48.3813 50.2913 53.7058V60.2982C50.1711 62.8446 50.3409 65.3965 50.7969 67.9047C44.7123 69.6969 38.4285 70.7188 32.0912 70.9472C13.1332 70.9472 1 60.0445 1 43.8173C1 25.0548 16.1665 15.4199 33.3554 15.4199C38.7352 15.5408 44.0816 16.3069 49.2801 17.7019C49.5328 20.4909 50.0383 24.8012 50.5439 31.1401L47.5107 31.9006C45.4886 22.7728 39.4218 18.9696 31.8386 18.9696C21.7276 18.7161 13.386 27.5903 13.386 42.2962C13.386 54.72 19.4526 67.651 32.8498 67.651C34.4304 67.7371 36.0043 67.3863 37.3998 66.637C38.6636 65.8762 39.1692 64.6085 39.1692 62.0731V54.2129C39.1692 48.3813 38.6636 47.8741 30.0692 47.1136V44.3245H54.5883V47.1136H54.8413Z" fill="black"/>
<path d="M85.4219 84.8963V3H90.7301V84.8963H85.4219Z" fill="black"/>
<path d="M165.308 69.6849V66.8958C171.374 66.1349 171.88 65.6281 171.88 58.0216L171.627 26.5814H171.121L153.174 69.1778H150.899L134.216 27.5956H133.963L132.952 48.8938C132.549 53.2794 132.549 57.6928 132.952 62.0784C133.205 65.8815 134.722 66.3887 140.283 66.8958V69.6849H120.566V66.8958C125.116 66.3887 126.633 65.121 127.138 62.0784C127.644 59.5428 128.15 55.2325 128.908 46.6118L130.172 30.3847C130.93 21.2569 130.172 19.9891 123.347 19.2285V16.4395H140.283L155.955 52.19L171.88 16.4395H188.31V19.2285C181.738 19.9891 181.485 20.4962 181.738 27.3421L182.496 58.0216C182.749 65.6281 183.002 66.1349 189.321 66.8958V69.6849H165.308Z" fill="black"/>
<path d="M220.41 84.8963V3H225.719V84.8963H220.41Z" fill="black"/>
<path d="M293.962 29.6185C293.492 27.0082 292.359 24.5632 290.675 22.5191C288.906 20.7443 286.884 20.2372 282.08 20.2372H278.037C275.256 20.2372 274.75 20.4907 274.75 23.0262V41.0282H281.323C288.653 41.0282 289.41 40.2677 290.423 34.9429H293.457V51.1701H290.423C289.41 45.5922 288.653 44.8313 281.323 44.8313H274.75V57.7626C274.75 65.369 275.508 65.8759 282.585 66.6367V69.4258H257.309V66.6367C263.375 66.1296 263.881 65.6225 263.881 57.7626V28.0972C263.881 20.7443 263.122 20.2372 257.309 19.4765V16.6875H295.983C295.983 17.9552 296.488 24.294 296.996 29.1114L293.962 29.6185Z" fill="black"/>
</g>
<defs>
<clipPath id="clip0_2407_2068">
<rect width="296" height="82" fill="white" transform="translate(1 3)"/>
</clipPath>
</defs>
</svg>
