<svg width="300" height="87" viewBox="0 0 300 87" fill="none" xmlns="http://www.w3.org/2000/svg">
<g clip-path="url(#clip0_2406_2241)">
<g clip-path="url(#clip1_2406_2241)">
<path d="M142.387 84.6098V76.4648H143.484V83.6288H149.288V84.6098H142.383H142.387Z" fill="#D695CC"/>
<path d="M161.9 84.6098H160.68L159.505 82.41H154.4L153.235 84.6098H152.016L156.455 76.4648H157.431L161.904 84.6098H161.9ZM156.939 77.5907L154.895 81.4514H158.991L156.936 77.5907H156.939Z" fill="#D695CC"/>
<path d="M171.775 80.5486C172.115 80.6007 172.444 80.7047 172.762 80.857C173.08 81.0094 173.346 81.2212 173.56 81.4999C173.775 81.7748 173.882 82.1092 173.882 82.5031C173.882 82.897 173.76 83.2425 173.516 83.5584C173.272 83.8742 172.891 84.1306 172.374 84.3238C171.856 84.517 171.206 84.6137 170.422 84.6137H165.195V76.4688H170.422C171.117 76.4688 171.705 76.5654 172.182 76.7586C172.658 76.9518 173.017 77.2082 173.254 77.5277C173.49 77.8473 173.608 78.1966 173.608 78.5756C173.608 78.9323 173.52 79.2518 173.342 79.5305C173.165 79.8092 172.936 80.0321 172.655 80.1994C172.374 80.3666 172.082 80.478 171.779 80.5301V80.5524L171.775 80.5486ZM170.356 77.4348H166.293V80.0582H170.444C171.147 80.0582 171.664 79.9392 171.993 79.7014C172.322 79.4636 172.485 79.1441 172.485 78.7428C172.485 78.3415 172.318 78.0219 171.982 77.7878C171.646 77.5537 171.102 77.4348 170.356 77.4348ZM170.356 83.6401C171.228 83.6401 171.849 83.5249 172.215 83.2946C172.581 83.0642 172.766 82.7446 172.766 82.3359C172.766 81.9272 172.584 81.6039 172.226 81.3698C171.867 81.1357 171.272 81.0168 170.444 81.0168H166.293V83.6401H170.356Z" fill="#D695CC"/>
<path d="M115.241 47.2225C115.932 47.2225 116.516 47.8096 116.516 48.5044V60.4914C116.516 61.0042 116.627 61.4092 116.845 61.7733C117.281 62.4347 117.174 62.9475 116.553 63.4231L116.343 63.5717C115.91 63.8356 115.056 63.791 114.694 63.4603C114.003 62.8732 113.637 61.9926 113.637 60.6363V48.5007C113.637 47.8058 114.221 47.2188 114.912 47.2188H115.241V47.2225Z" fill="url(#paint0_linear_2406_2241)"/>
<path d="M128.624 64.0892C123.519 64.0892 120.965 60.9717 120.965 55.5095C120.965 50.0474 124.539 46.8593 129.426 46.8593C130.886 46.8593 132.161 47.1528 133.292 47.6284C133.621 47.7733 133.95 47.5541 133.95 47.19V37.5104C133.95 36.8156 134.534 36.2285 135.226 36.2285H135.555C136.246 36.2285 136.83 36.8156 136.83 37.5104V60.496C136.83 61.0088 136.941 61.4138 137.159 61.778C137.595 62.4394 137.488 62.9522 136.867 63.4278L136.723 63.5392C136.213 63.9443 135.374 64.0149 134.9 63.6507C134.608 63.3943 134.353 62.9187 134.209 62.4059C134.172 62.2945 134.135 62.1867 134.098 62.1124C133.954 61.8189 133.732 61.7817 133.477 62.0009C132.239 63.1379 130.631 64.0892 128.628 64.0892H128.624ZM128.624 61.451C130.594 61.451 132.379 60.0948 133.511 58.7757C133.766 58.5193 133.947 57.9693 133.947 57.6015V51.2959C133.947 50.8908 133.655 50.4524 133.289 50.3075C132.232 49.869 130.99 49.5755 129.422 49.5755C126.214 49.5755 123.915 51.6637 123.915 55.5132C123.915 59.3627 125.482 61.451 128.62 61.451H128.624Z" fill="url(#paint1_linear_2406_2241)"/>
<path d="M154.387 60.6407V53.6737C154.387 51.0689 153.511 49.4935 150.558 49.4935C148.698 49.4935 146.876 50.7048 145.597 52.1316C145.379 52.4252 145.161 52.938 145.161 53.343V62.4354C145.161 63.1302 144.577 63.7173 143.886 63.7173H143.557C142.865 63.7173 142.281 63.1302 142.281 62.4354V48.3936C142.281 47.6988 142.68 47.2194 143.375 47.2194H144.141C144.688 47.2194 145.161 47.695 145.161 48.245V48.6128C145.161 48.9064 145.453 49.0178 145.671 48.8321C146.909 47.695 148.48 46.8516 150.558 46.8516C155.662 46.8516 157.267 49.4191 157.267 53.6328V60.4884C157.267 61.0011 157.377 61.4061 157.596 61.7703C158.032 62.4317 157.958 63.0151 157.304 63.4201L157.167 63.5167C156.764 63.8102 155.807 63.7879 155.444 63.4572C154.753 62.8701 154.387 61.9895 154.387 60.6333V60.6407Z" fill="url(#paint2_linear_2406_2241)"/>
<path d="M161.547 55.4723C161.547 50.0101 164.94 46.8555 170.189 46.8555C175.438 46.8555 178.868 50.0064 178.868 55.4723C178.868 60.9381 175.442 64.0891 170.189 64.0891C164.937 64.0891 161.547 60.9381 161.547 55.4723ZM164.5 55.4723C164.5 59.3218 166.689 61.4472 170.189 61.4472C173.69 61.4472 175.878 59.3218 175.878 55.4723C175.878 51.6228 173.69 49.4974 170.189 49.4974C166.689 49.4974 164.5 51.6228 164.5 55.4723Z" fill="url(#paint3_linear_2406_2241)"/>
<path d="M210.024 64.0889C206.269 64.0889 204.188 62.1456 204.188 58.7717C204.188 56.0963 205.718 53.7108 210.715 53.7108C212.139 53.7108 214.035 54.0415 215.783 54.5543C216.001 54.6286 216.219 54.48 216.219 54.2236V53.7108C216.219 51.1061 215.236 49.4935 212.135 49.4935C210.383 49.4935 208.379 49.9691 206.627 50.7382C206.006 51.0318 205.455 50.8386 205.134 50.218L205.06 50.0768C204.805 49.5269 204.805 48.8766 205.607 48.5014C207.651 47.513 209.91 46.8516 212.135 46.8516C217.424 46.8516 219.099 49.4563 219.099 53.67V60.4884C219.099 61.0011 219.21 61.4061 219.428 61.7703C219.864 62.4317 219.757 62.9445 219.136 63.4201C219.136 63.4201 218.933 63.5576 218.811 63.6133C218.404 63.7991 217.639 63.7879 217.277 63.4944C216.803 63.1265 216.619 62.6881 216.364 62.0267L216.29 61.8446C216.179 61.5139 215.924 61.4396 215.706 61.6625C214.209 62.9816 212.168 64.0815 210.017 64.0815L210.024 64.0889ZM210.46 61.4507C212.32 61.4507 214.545 59.9458 215.857 58.5562C216.075 58.3369 216.223 57.9319 216.223 57.6384V57.5269C216.223 57.1962 216.005 56.9027 215.676 56.8655C213.743 56.427 211.81 56.2041 210.97 56.2041C207.98 56.2041 207.141 57.4489 207.141 58.7717C207.141 60.4586 208.346 61.447 210.46 61.447V61.4507Z" fill="url(#paint4_linear_2406_2241)"/>
<path d="M101.759 65.8722C101.012 65.8722 99.733 65.5489 98.7978 63.587C98.162 62.253 96.1326 56.9432 95.2122 51.6371C92.9944 38.8178 94.8463 28.6478 100.716 21.4133C106.675 14.0672 116.603 10.1285 130.229 9.70866C134.08 9.59347 137.843 9.9316 141.495 10.7231C154.662 3.42162 169.522 1.52659 184.769 5.25348C193.582 7.40861 199.707 11.8601 202.971 18.489C209.28 31.3009 202.827 48.2261 200.701 53.1086C197.049 61.4876 195.145 65.5229 191.194 65.3891C187.353 65.2665 185.231 60.3097 183.354 55.9363C183.062 55.2526 182.777 54.5874 182.496 53.9706L182.311 53.5619C172.183 31.2005 158.34 17.6752 141.843 13.8257C126.395 22.8438 113.491 39.8434 104.372 63.9548C103.947 65.077 102.964 65.8313 101.87 65.8796C101.836 65.8796 101.799 65.8796 101.762 65.8796L101.759 65.8722ZM131.774 12.6775C131.289 12.6775 130.809 12.685 130.321 12.6998C117.598 13.09 108.416 16.6571 103.026 23.3046C97.7258 29.8369 96.0846 39.2005 98.1472 51.1244C99.0011 56.0589 100.92 61.1086 101.481 62.2939C101.548 62.4388 101.611 62.5466 101.67 62.632C110.423 39.665 122.451 23.0408 137.455 13.168C137.514 13.1309 137.57 13.0937 137.629 13.0565C135.71 12.8039 133.759 12.6775 131.777 12.6775H131.774ZM145.598 11.8081C161.589 16.854 175.266 30.7695 185.021 52.3134L185.206 52.7184C185.494 53.3538 185.786 54.0375 186.089 54.7435C187.383 57.7644 189.338 62.3273 191.286 62.3905C191.305 62.3905 191.32 62.3905 191.338 62.3905C193.09 62.3905 194.613 59.6148 197.973 51.901C199.969 47.3194 206.039 31.4606 200.302 19.8118C197.448 14.0152 191.985 10.0951 184.063 8.15919C170.25 4.78158 157.257 6.11553 145.595 11.8081H145.598Z" fill="url(#paint5_linear_2406_2241)"/>
</g>
</g>
<defs>
<linearGradient id="paint0_linear_2406_2241" x1="81.8807" y1="80.4598" x2="163.685" y2="19.9855" gradientUnits="userSpaceOnUse">
<stop stop-color="#D6FFCC"/>
<stop offset="0.98" stop-color="#D695CC"/>
</linearGradient>
<linearGradient id="paint1_linear_2406_2241" x1="86.4845" y1="86.6921" x2="168.293" y2="26.2214" gradientUnits="userSpaceOnUse">
<stop stop-color="#D6FFCC"/>
<stop offset="0.98" stop-color="#D695CC"/>
</linearGradient>
<linearGradient id="paint2_linear_2406_2241" x1="94.1943" y1="97.1182" x2="176.002" y2="36.6475" gradientUnits="userSpaceOnUse">
<stop stop-color="#D6FFCC"/>
<stop offset="0.98" stop-color="#D695CC"/>
</linearGradient>
<linearGradient id="paint3_linear_2406_2241" x1="101.398" y1="106.865" x2="183.203" y2="46.3904" gradientUnits="userSpaceOnUse">
<stop stop-color="#D6FFCC"/>
<stop offset="0.98" stop-color="#D695CC"/>
</linearGradient>
<linearGradient id="paint4_linear_2406_2241" x1="116.626" y1="127.468" x2="198.434" y2="66.9941" gradientUnits="userSpaceOnUse">
<stop stop-color="#D6FFCC"/>
<stop offset="0.98" stop-color="#D695CC"/>
</linearGradient>
<linearGradient id="paint5_linear_2406_2241" x1="94.3066" y1="34.6302" x2="205.669" y2="34.6302" gradientUnits="userSpaceOnUse">
<stop stop-color="#D6FFCC"/>
<stop offset="0.03" stop-color="#D6EACC"/>
<stop offset="0.09" stop-color="#D6D0CC"/>
<stop offset="0.16" stop-color="#D6BACC"/>
<stop offset="0.24" stop-color="#D6A9CC"/>
<stop offset="0.33" stop-color="#D69DCC"/>
<stop offset="0.47" stop-color="#D696CC"/>
<stop offset="0.84" stop-color="#D695CC"/>
</linearGradient>
<clipPath id="clip0_2406_2241">
<rect width="300" height="87" fill="white"/>
</clipPath>
<clipPath id="clip1_2406_2241">
<rect width="226" height="136" fill="white" transform="translate(44 -24)"/>
</clipPath>
</defs>
</svg>
