<svg width="300" height="87" viewBox="0 0 300 87" fill="none" xmlns="http://www.w3.org/2000/svg">
<g clip-path="url(#clip0_2387_2221)">
<path d="M199.182 40.4508L162.774 41.601L163.285 20.2955L104.211 18.9137L103.684 40.8515L135.497 41.5957V42.4628L100 43.5844L100.817 68.7773L199.999 65.6438L199.182 40.4508Z" fill="#F0EF24"/>
<path d="M118.162 9.21382C117.884 9.78441 117.5 10.228 117.01 10.5453C116.52 10.8631 115.946 11.0216 115.289 11.0216C114.718 11.0216 114.177 10.8917 113.666 10.6319C113.154 10.3722 112.737 10.0042 112.415 9.52791C112.094 9.05167 111.933 8.47454 111.933 7.79612V6.93022C111.933 6.22321 112.09 5.61709 112.405 5.11184C112.719 4.60701 113.128 4.2243 113.633 3.96453C114.137 3.70476 114.689 3.57488 115.289 3.57488C115.946 3.57488 116.52 3.72968 117.01 4.0401C117.5 4.35092 117.884 4.78019 118.162 5.32831C118.439 5.87726 118.578 6.52628 118.578 7.27658C118.578 7.9983 118.439 8.64404 118.162 9.21382ZM121.232 4.68951C120.969 3.96126 120.592 3.32287 120.103 2.77393C119.612 2.2258 119.028 1.79979 118.348 1.49673C117.668 1.19367 116.904 1.04213 116.056 1.04213C115.135 1.04213 114.302 1.24064 113.556 1.63723C112.81 2.03424 112.215 2.6371 111.769 3.44499C111.615 3.72355 111.493 4.03356 111.385 4.35827V1.41014H108.973V17.4941H112.021V11.584C112.446 12.2048 112.972 12.6839 113.611 13.0025C114.349 13.3701 115.164 13.5543 116.056 13.5543C116.904 13.5543 117.672 13.3991 118.359 13.0891C119.046 12.7787 119.634 12.3457 120.124 11.7899C120.614 11.2348 120.987 10.5923 121.243 9.86324C121.499 9.13499 121.627 8.34465 121.627 7.49264V7.03846C121.627 6.20156 121.495 5.41858 121.232 4.68951Z" fill="#040606"/>
<path d="M130.351 1.258C128.932 1.258 127.858 1.69095 127.127 2.55644C126.574 3.21158 126.231 4.1028 126.096 5.22887V1.40954H123.684V13.1641H126.732V7.03785C126.732 6.01308 127.013 5.23009 127.577 4.68891C128.139 4.14772 128.932 3.87734 129.956 3.87734H130.789V1.258H130.351Z" fill="#040606"/>
<path d="M137.349 11.0966C136.991 11.2481 136.599 11.3237 136.176 11.3237C135.474 11.3237 134.937 11.1579 134.564 10.8254C134.191 10.4938 134.004 10.0612 134.004 9.52698C134.004 8.99314 134.191 8.55652 134.564 8.21751C134.937 7.8785 135.474 7.70859 136.176 7.70859H138.654V8.81261C138.624 9.44774 138.489 9.94889 138.248 10.3173C138.007 10.6853 137.707 10.9451 137.349 11.0966ZM140.945 3.20594C140.529 2.52752 139.915 2.02963 139.104 1.71227C138.292 1.39491 137.272 1.23602 136.044 1.23602C135.649 1.23602 135.229 1.2397 134.783 1.24705C134.337 1.25441 133.902 1.27238 133.478 1.30097C133.054 1.32997 132.674 1.35897 132.338 1.38756V3.94195C132.747 3.91336 133.211 3.88762 133.73 3.86598C134.249 3.84474 134.765 3.82677 135.277 3.81207C135.788 3.79818 136.227 3.79042 136.592 3.79042C137.294 3.79042 137.813 3.95625 138.149 4.28831C138.486 4.62037 138.654 5.12561 138.654 5.80362V5.91186H136.22C135.167 5.91186 134.249 6.0491 133.467 6.32316C132.685 6.59763 132.078 7.00893 131.647 7.55706C131.215 8.1056 131 8.81261 131 9.67851C131 10.4721 131.179 11.1501 131.537 11.7134C131.895 12.2762 132.4 12.7091 133.05 13.0122C133.701 13.3153 134.457 13.4668 135.321 13.4668C136.154 13.4668 136.859 13.3185 137.437 13.0232C138.014 12.7275 138.468 12.2978 138.797 11.735C138.944 11.4826 139.062 11.1995 139.158 10.8948V13.1637H141.571V5.86857C141.571 4.7719 141.362 3.88436 140.945 3.20594Z" fill="#040606"/>
<path d="M152.983 7.38448C152.983 8.0772 152.837 8.66903 152.545 9.15957C152.252 9.65052 151.865 10.0255 151.382 10.2852C150.9 10.545 150.366 10.6745 149.781 10.6745C149.137 10.6745 148.571 10.5307 148.082 10.2419C147.592 9.95358 147.208 9.54228 146.93 9.00804C146.652 8.4742 146.513 7.84643 146.513 7.12471C146.513 6.3887 146.652 5.75399 146.93 5.21974C147.208 4.68591 147.592 4.27094 148.082 3.97482C148.571 3.6791 149.137 3.53125 149.781 3.53125C150.352 3.53125 150.877 3.65011 151.36 3.88823C151.842 4.12635 152.234 4.47679 152.533 4.93792C152.833 5.40028 152.983 5.96311 152.983 6.62683V7.38448ZM153.488 1.40981V3.84207C153.437 3.72322 153.392 3.59987 153.334 3.48796C152.924 2.69436 152.358 2.08823 151.635 1.66958C150.911 1.25092 150.059 1.0418 149.08 1.0418C148.246 1.0418 147.486 1.18639 146.799 1.47475C146.111 1.76352 145.519 2.17482 145.022 2.70824C144.525 3.24248 144.141 3.86658 143.871 4.58135C143.6 5.29531 143.465 6.06399 143.465 6.88659V7.34119C143.465 8.16379 143.597 8.93615 143.86 9.65746C144.123 10.3792 144.492 11.0069 144.967 11.5408C145.442 12.0746 146.013 12.4933 146.678 12.7963C147.343 13.0994 148.085 13.2509 148.904 13.2509C149.825 13.2509 150.636 13.0528 151.338 12.6554C152.04 12.2588 152.595 11.6813 153.005 10.924C153.013 10.9089 153.019 10.8914 153.027 10.8758V11.9525C153.027 12.7175 152.884 13.3481 152.6 13.846C152.314 14.3443 151.868 14.7087 151.261 14.9394C150.654 15.1698 149.861 15.2854 148.882 15.2854C148.356 15.2854 147.793 15.2605 147.193 15.2098C146.594 15.1592 146.031 15.1052 145.505 15.0477V17.5588C146.016 17.631 146.568 17.6886 147.16 17.7319C147.753 17.7752 148.334 17.7969 148.904 17.7969C150.512 17.7969 151.832 17.591 152.862 17.1797C153.893 16.7684 154.657 16.1223 155.154 15.2425C155.651 14.3623 155.9 13.2076 155.9 11.7789V1.40981H153.488Z" fill="#040606"/>
<path d="M166.099 1.38748V8.33629C166.099 9.1013 165.876 9.70743 165.43 10.1547C164.984 10.6023 164.41 10.8253 163.708 10.8253C163.007 10.8253 162.451 10.6129 162.042 10.1869C161.633 9.76175 161.428 9.18789 161.428 8.46617V1.38748H158.379V8.2064C158.379 9.96719 158.756 11.295 159.509 12.1895C160.262 13.0844 161.325 13.5312 162.7 13.5312H162.831C163.752 13.5312 164.52 13.3295 165.134 12.9255C165.748 12.5216 166.209 11.9224 166.516 11.1288C166.602 10.9058 166.673 10.6632 166.735 10.4095V13.1637H169.147V1.38748H166.099Z" fill="#040606"/>
<path d="M175.468 3.94113C175.936 3.63807 176.506 3.48654 177.179 3.48654C177.851 3.48654 178.41 3.63072 178.857 3.91949C179.302 4.20825 179.635 4.61955 179.854 5.15339C179.979 5.45645 180.064 5.79832 180.118 6.17081H174.138C174.198 5.83753 174.286 5.53038 174.404 5.25059C174.646 4.68082 175 4.2442 175.468 3.94113ZM183.034 6.92847C183.034 5.88899 182.815 4.91894 182.376 4.0171C181.938 3.11527 181.283 2.3862 180.413 1.83031C179.544 1.27524 178.465 0.997093 177.179 0.997093C176.199 0.997093 175.337 1.167 174.591 1.5056C173.845 1.84501 173.221 2.30001 172.716 2.86938C172.211 3.43997 171.831 4.08899 171.575 4.81765C171.32 5.54672 171.191 6.3007 171.191 7.08V7.49089C171.191 8.24161 171.32 8.97762 171.575 9.69934C171.831 10.4211 172.211 11.0741 172.716 11.6582C173.221 12.2427 173.856 12.7083 174.624 13.0543C175.392 13.401 176.287 13.5742 177.31 13.5742C178.29 13.5742 179.163 13.4084 179.931 13.0763C180.699 12.7447 181.331 12.2754 181.828 11.6692C182.325 11.0631 182.662 10.3561 182.837 9.5478H180.03C179.898 9.98075 179.598 10.3455 179.131 10.6408C178.663 10.9369 178.056 11.0848 177.31 11.0848C176.565 11.0848 175.95 10.9226 175.468 10.5979C174.986 10.2728 174.627 9.82555 174.394 9.25577C174.239 8.87837 174.14 8.46094 174.088 8.01084H183.034V6.92847Z" fill="#040606"/>
<path d="M114.258 38.082C113.22 38.082 112.325 37.9089 111.572 37.5625C110.819 37.2161 110.19 36.7546 109.686 36.1771C109.181 35.5999 108.805 34.9505 108.557 34.2292C108.308 33.5075 108.184 32.7711 108.184 32.0208V31.6099C108.184 30.8159 108.311 30.0545 108.567 29.3259C108.823 28.5968 109.207 27.9478 109.719 27.3772C110.23 26.8078 110.863 26.3528 111.616 26.0134C112.369 25.6748 113.242 25.5049 114.237 25.5049C115.275 25.5049 116.203 25.7034 117.022 26.1C117.84 26.4974 118.494 27.0492 118.985 27.7562C119.474 28.4632 119.748 29.2863 119.807 30.224H116.846C116.773 29.6179 116.514 29.1131 116.068 28.7087C115.622 28.3052 115.011 28.1026 114.237 28.1026C113.564 28.1026 113.004 28.2615 112.559 28.5788C112.113 28.8966 111.78 29.3332 111.561 29.8887C111.342 30.4442 111.232 31.0826 111.232 31.8043C111.232 32.497 111.338 33.1248 111.55 33.688C111.762 34.2504 112.091 34.6907 112.537 35.0081C112.983 35.3259 113.557 35.4843 114.258 35.4843C114.785 35.4843 115.238 35.3904 115.618 35.2029C115.998 35.0155 116.301 34.7561 116.528 34.4236C116.755 34.092 116.897 33.717 116.956 33.298H119.916C119.858 34.2504 119.576 35.0837 119.072 35.798C118.568 36.5128 117.902 37.072 117.076 37.4759C116.251 37.8798 115.311 38.082 114.258 38.082Z" fill="#040606"/>
<path d="M123.481 24.5078C124.08 24.5078 124.519 24.353 124.797 24.0426C125.074 23.7322 125.214 23.3389 125.214 22.8626C125.214 22.3864 125.074 21.9967 124.797 21.6937C124.519 21.3906 124.08 21.2391 123.481 21.2391C122.881 21.2391 122.439 21.3906 122.154 21.6937C121.869 21.9967 121.727 22.3864 121.727 22.8626C121.727 23.3389 121.869 23.7322 122.154 24.0426C122.439 24.353 122.881 24.5078 123.481 24.5078Z" fill="#040606"/>
<path d="M122.362 25.9154H120.695V28.1667H122.362V37.6699H125.41V28.1667V25.9154H122.362Z" fill="#040606"/>
<path d="M135.74 25.9154L133.314 35.2021H132.796L129.972 25.9154H126.836L130.564 37.6699H131.463H132.669H133.547H134.687H135.455L138.679 25.9154H135.74Z" fill="#040606"/>
<path d="M142.43 24.5078C143.03 24.5078 143.468 24.353 143.746 24.0426C144.024 23.7322 144.163 23.3389 144.163 22.8626C144.163 22.3864 144.024 21.9967 143.746 21.6937C143.468 21.3906 143.03 21.2391 142.43 21.2391C141.831 21.2391 141.389 21.3906 141.104 21.6937C140.818 21.9967 140.676 22.3864 140.676 22.8626C140.676 23.3389 140.818 23.7322 141.104 24.0426C141.389 24.353 141.831 24.5078 142.43 24.5078Z" fill="#040606"/>
<path d="M141.311 25.9154H139.645V28.1667H141.311V37.6699H144.359V28.1667V25.9154H141.311Z" fill="#040606"/>
<path d="M147.171 21.8673H145.68V24.1187H147.171V37.6699H150.219V24.1187V21.8673H147.171Z" fill="#040606"/>
<path d="M113.292 60.5039C111.654 60.5039 110.371 60.1609 109.443 59.4755C108.515 58.7905 108.028 57.8409 107.984 56.629H110.726C110.77 57.033 110.996 57.4011 111.406 57.7331C111.815 58.0651 112.458 58.2305 113.336 58.2305C114.067 58.2305 114.648 58.1007 115.079 57.8409C115.51 57.5815 115.726 57.2278 115.726 56.7806C115.726 56.3909 115.561 56.0805 115.232 55.8493C114.904 55.6189 114.344 55.4675 113.555 55.3948L112.502 55.2864C111.172 55.1427 110.148 54.7674 109.432 54.1613C108.715 53.5547 108.357 52.7468 108.357 51.7363C108.357 50.9284 108.562 50.25 108.972 49.7019C109.38 49.1532 109.947 48.7384 110.671 48.457C111.395 48.1756 112.224 48.0346 113.16 48.0346C114.622 48.0346 115.806 48.3523 116.713 48.9872C117.619 49.6222 118.095 50.5531 118.138 51.7796H115.397C115.368 51.3756 115.163 51.0297 114.783 50.7406C114.403 50.4521 113.855 50.3081 113.138 50.3081C112.495 50.3081 111.998 50.4306 111.647 50.6757C111.296 50.9215 111.12 51.2384 111.12 51.6282C111.12 52.0034 111.263 52.2922 111.548 52.494C111.833 52.6965 112.297 52.8338 112.941 52.9053L113.994 53.014C115.397 53.1581 116.497 53.5408 117.294 54.1613C118.091 54.7816 118.489 55.6189 118.489 56.6719C118.489 57.4511 118.274 58.1264 117.843 58.6961C117.411 59.2668 116.808 59.7099 116.033 60.0277C115.258 60.3445 114.344 60.5039 113.292 60.5039Z" fill="#040606"/>
<path d="M126.154 57.9692C126.9 57.9692 127.528 57.8066 128.04 57.4819C128.552 57.1573 128.939 56.7169 129.203 56.1615C129.466 55.6065 129.597 54.9745 129.597 54.2671C129.597 53.5462 129.462 52.9071 129.191 52.3516C128.92 51.796 128.526 51.3558 128.007 51.0311C127.488 50.7063 126.87 50.5442 126.154 50.5442C125.438 50.5442 124.82 50.7063 124.301 51.0311C123.782 51.3558 123.383 51.796 123.106 52.3516C122.828 52.9071 122.689 53.5462 122.689 54.2671C122.689 54.9745 122.824 55.6065 123.095 56.1615C123.365 56.7169 123.756 57.1573 124.268 57.4819C124.779 57.8066 125.408 57.9692 126.154 57.9692ZM126.154 60.5449C125.101 60.5449 124.173 60.379 123.369 60.0475C122.565 59.7153 121.884 59.2649 121.329 58.6942C120.773 58.1245 120.353 57.4783 120.068 56.757C119.783 56.0353 119.641 55.2845 119.641 54.5053V54.051C119.641 53.2428 119.79 52.4745 120.09 51.7454C120.39 51.0168 120.821 50.3674 121.384 49.7972C121.947 49.227 122.63 48.7797 123.435 48.4551C124.238 48.1302 125.145 47.9678 126.154 47.9678C127.163 47.9678 128.069 48.1302 128.873 48.4551C129.677 48.7797 130.361 49.227 130.924 49.7972C131.487 50.3674 131.914 51.0168 132.207 51.7454C132.499 52.4745 132.646 53.2428 132.646 54.051V54.5053C132.646 55.2845 132.503 56.0353 132.218 56.757C131.933 57.4783 131.512 58.1245 130.957 58.6942C130.401 59.2649 129.721 59.7153 128.917 60.0475C128.113 60.379 127.192 60.5449 126.154 60.5449Z" fill="#040606"/>
<path d="M140.071 60.5449C139.033 60.5449 138.137 60.3717 137.384 60.0258C136.631 59.6789 136.003 59.2175 135.498 58.64C134.994 58.0632 134.617 57.4133 134.369 56.692C134.12 55.9704 133.996 55.2344 133.996 54.4836V54.0727C133.996 53.2787 134.124 52.5178 134.38 51.7886C134.635 51.0605 135.019 50.4106 135.531 49.8404C136.043 49.2707 136.675 48.8156 137.428 48.4766C138.181 48.1377 139.054 47.9678 140.049 47.9678C141.087 47.9678 142.015 48.1666 142.834 48.5633C143.652 48.9602 144.307 49.5126 144.797 50.219C145.287 50.9265 145.561 51.7491 145.619 52.6869H142.659C142.585 52.0811 142.326 51.576 141.88 51.1715C141.434 50.768 140.824 50.5659 140.049 50.5659C139.376 50.5659 138.817 50.7243 138.371 51.0421C137.925 51.3595 137.593 51.796 137.373 52.3516C137.154 52.9071 137.045 53.5462 137.045 54.2671C137.045 54.9598 137.15 55.5881 137.362 56.1508C137.574 56.7133 137.903 57.1541 138.349 57.4714C138.795 57.7888 139.369 57.9476 140.071 57.9476C140.597 57.9476 141.05 57.8537 141.43 57.6657C141.811 57.4783 142.114 57.219 142.341 56.8865C142.567 56.5548 142.71 56.1799 142.769 55.7607H145.729C145.67 56.7133 145.389 57.5466 144.885 58.2613C144.38 58.9756 143.715 59.5352 142.889 59.9391C142.063 60.3426 141.123 60.5449 140.071 60.5449Z" fill="#040606"/>
<path d="M149.294 46.9727C149.893 46.9727 150.331 46.8174 150.609 46.507C150.887 46.1966 151.026 45.8034 151.026 45.3271C151.026 44.8508 150.887 44.4611 150.609 44.1581C150.331 43.855 149.893 43.7039 149.294 43.7039C148.694 43.7039 148.252 43.855 147.967 44.1581C147.682 44.4611 147.539 44.8508 147.539 45.3271C147.539 45.8034 147.682 46.1966 147.967 46.507C148.252 46.8174 148.694 46.9727 149.294 46.9727Z" fill="#040606"/>
<path d="M148.175 48.3803H146.508V50.632H148.175V60.1348H151.223V50.632V48.3803H148.175Z" fill="#040606"/>
<path d="M157.558 50.9118C158.026 50.6088 158.596 50.4572 159.268 50.4572C159.941 50.4572 160.5 50.6023 160.946 50.8906C161.392 51.1793 161.725 51.5902 161.944 52.124C162.068 52.4272 162.153 52.7689 162.207 53.1415H156.227C156.287 52.8081 156.376 52.501 156.494 52.2217C156.736 51.6519 157.09 51.2149 157.558 50.9118ZM165.124 53.8995C165.124 52.8605 164.905 51.89 164.466 50.9877C164.027 50.086 163.373 49.3573 162.503 48.8015C161.633 48.2459 160.555 47.9678 159.268 47.9678C158.289 47.9678 157.426 48.1377 156.681 48.4766C155.935 48.8156 155.31 49.2707 154.806 49.8404C154.301 50.4106 153.921 51.0605 153.665 51.7886C153.409 52.5178 153.281 53.2718 153.281 54.051V54.4623C153.281 55.2127 153.409 55.9487 153.665 56.67C153.921 57.3921 154.301 58.0448 154.806 58.6293C155.31 59.2138 155.946 59.6789 156.714 60.0258C157.481 60.3717 158.377 60.5449 159.4 60.5449C160.379 60.5449 161.253 60.379 162.02 60.0475C162.788 59.7153 163.42 59.2464 163.918 58.64C164.414 58.0342 164.751 57.3267 164.926 56.5189H162.119C161.988 56.9515 161.688 57.3162 161.22 57.6118C160.752 57.9076 160.146 58.0558 159.4 58.0558C158.654 58.0558 158.04 57.8932 157.558 57.5686C157.075 57.2439 156.717 56.797 156.483 56.2265C156.328 55.849 156.229 55.4316 156.177 54.9815H165.124V53.8995Z" fill="#040606"/>
<path d="M174.031 50.5887V48.3807H170.362L170.368 45.069H167.517L167.511 48.3807H165.609V50.5887H167.506L167.496 55.7196C167.496 56.8596 167.671 57.765 168.022 58.436C168.373 59.1071 168.902 59.5833 169.612 59.8648C170.321 60.1462 171.224 60.2871 172.32 60.2871H174.031V57.711H172.167C171.582 57.711 171.132 57.5558 170.818 57.2455C170.503 56.9355 170.346 56.4915 170.346 55.9144L170.357 50.5887H174.031Z" fill="#040606"/>
<path d="M183.753 48.3806L181.35 57.4945H180.888L177.984 48.3806H174.914L178.774 59.8757H179.805H180.722L180.55 60.5252C180.448 60.9434 180.302 61.2717 180.112 61.5099C179.922 61.748 179.684 61.9212 179.399 62.0294C179.114 62.1376 178.759 62.192 178.336 62.192H176.099V64.7676H178.05C179.03 64.7676 179.852 64.6521 180.518 64.4217C181.183 64.1905 181.727 63.8114 182.152 63.2849C182.575 62.7578 182.904 62.0548 183.138 61.1741L186.669 48.3806H183.753Z" fill="#040606"/>
<path d="M114.258 85C113.22 85 112.325 84.8269 111.572 84.4805C110.819 84.1341 110.19 83.6726 109.686 83.095C109.181 82.5182 108.805 81.8684 108.557 81.1468C108.308 80.4255 108.184 79.6894 108.184 78.9388V78.5275C108.184 77.7339 108.311 76.9729 108.567 76.2434C108.823 75.5152 109.207 74.8654 109.719 74.2957C110.23 73.7254 110.863 73.2707 111.616 72.9318C112.369 72.5928 113.242 72.4229 114.237 72.4229C115.275 72.4229 116.203 72.6214 117.022 73.0183C117.84 73.4154 118.494 73.9671 118.985 74.6742C119.474 75.3817 119.748 76.2041 119.807 77.142H116.846C116.773 76.5359 116.514 76.031 116.068 75.6268C115.622 75.2228 115.011 75.0206 114.237 75.0206C113.564 75.0206 113.004 75.1794 112.559 75.4967C112.113 75.8145 111.78 76.2512 111.561 76.8063C111.342 77.3622 111.232 78.001 111.232 78.7223C111.232 79.4151 111.338 80.0427 111.55 80.6056C111.762 81.1685 112.091 81.6087 112.537 81.926C112.983 82.2438 113.557 82.4027 114.258 82.4027C114.785 82.4027 115.238 82.3088 115.618 82.121C115.998 81.9335 116.301 81.6736 116.528 81.3416C116.755 81.0096 116.897 80.6346 116.956 80.216H119.916C119.858 81.1685 119.576 82.0016 119.072 82.7159C118.568 83.4304 117.902 83.9899 117.076 84.3939C116.251 84.7979 115.311 85 114.258 85Z" fill="#040606"/>
<path d="M125.335 75.3668C125.803 75.0639 126.373 74.9123 127.046 74.9123C127.718 74.9123 128.277 75.0569 128.724 75.3453C129.169 75.6341 129.502 76.0454 129.721 76.5791C129.846 76.8817 129.931 77.2241 129.985 77.5965H124.005C124.065 77.2634 124.153 76.9561 124.271 76.6767C124.513 76.1067 124.867 75.67 125.335 75.3668ZM132.901 78.3542C132.901 77.3153 132.682 76.3447 132.243 75.4425C131.805 74.5407 131.15 73.8119 130.281 73.2565C129.411 72.701 128.332 72.4229 127.046 72.4229C126.066 72.4229 125.204 72.5928 124.458 72.9318C123.712 73.2707 123.087 73.7254 122.583 74.2957C122.078 74.8654 121.698 75.5152 121.442 76.2434C121.187 76.9729 121.059 77.7266 121.059 78.5058V78.9171C121.059 79.6674 121.187 80.4038 121.442 81.1251C121.698 81.8469 122.078 82.4999 122.583 83.084C123.087 83.6684 123.723 84.1341 124.491 84.4805C125.259 84.8269 126.154 85 127.177 85C128.157 85 129.03 84.8342 129.798 84.5021C130.566 84.1705 131.198 83.7011 131.695 83.095C132.192 82.4889 132.529 81.7819 132.704 80.9737H129.897C129.765 81.4065 129.465 81.7712 128.998 82.0666C128.53 82.3627 127.923 82.5106 127.177 82.5106C126.432 82.5106 125.817 82.3483 125.335 82.0236C124.853 81.699 124.494 81.2518 124.261 80.6816C124.106 80.3042 124.007 79.8867 123.955 79.4366H132.901V78.3542Z" fill="#040606"/>
<path d="M144.749 73.8186C144.018 72.9167 142.943 72.4653 141.525 72.4653H141.394C140.443 72.4653 139.65 72.6676 139.014 73.0715C138.378 73.4759 137.899 74.0783 137.578 74.8788C137.47 75.1484 137.386 75.4487 137.315 75.7627V72.8334H134.902V84.5879H137.951V77.6823C137.951 76.9178 138.181 76.308 138.642 75.853C139.102 75.3988 139.705 75.1713 140.451 75.1713C141.182 75.1713 141.755 75.3951 142.172 75.8423C142.589 76.29 142.797 76.8741 142.797 77.5957V84.5879H145.846V77.8556C145.846 76.0661 145.48 74.7204 144.749 73.8186Z" fill="#040606"/>
<path d="M155.3 75.0421V72.8342H151.631L151.638 69.5221H148.787L148.78 72.8342H146.879V75.0421H148.775L148.765 80.173C148.765 81.313 148.94 82.2181 149.291 82.8895C149.642 83.5602 150.172 84.0365 150.881 84.3182C151.59 84.5994 152.493 84.7402 153.59 84.7402H155.3V82.1642H153.436C152.851 82.1642 152.402 82.0094 152.087 81.6989C151.773 81.3885 151.616 80.9446 151.616 80.3674L151.627 75.0421H155.3Z" fill="#040606"/>
<path d="M163.862 72.6818C162.444 72.6818 161.37 73.1148 160.638 73.9807C160.085 74.6358 159.742 75.527 159.608 76.6526V72.8334H157.195V84.5879H160.244V78.4617C160.244 77.437 160.525 76.6539 161.088 76.1132C161.651 75.572 162.444 75.3011 163.468 75.3011H164.301V72.6818H163.862Z" fill="#040606"/>
<path d="M169.257 75.3668C169.725 75.0639 170.295 74.9123 170.968 74.9123C171.64 74.9123 172.199 75.0569 172.646 75.3453C173.092 75.6341 173.424 76.0454 173.644 76.5791C173.768 76.8817 173.853 77.2241 173.907 77.5965H167.927C167.987 77.2634 168.075 76.9561 168.194 76.6767C168.435 76.1067 168.789 75.67 169.257 75.3668ZM176.823 78.3542C176.823 77.3153 176.604 76.3447 176.166 75.4425C175.727 74.5407 175.072 73.8119 174.203 73.2565C173.333 72.701 172.254 72.4229 170.968 72.4229C169.988 72.4229 169.126 72.5928 168.38 72.9318C167.634 73.2707 167.01 73.7254 166.505 74.2957C166 74.8654 165.62 75.5152 165.364 76.2434C165.109 76.9729 164.98 77.7266 164.98 78.5058V78.9171C164.98 79.6674 165.109 80.4038 165.364 81.1251C165.62 81.8469 166 82.4999 166.505 83.084C167.01 83.6684 167.645 84.1341 168.413 84.4805C169.181 84.8269 170.076 85 171.099 85C172.079 85 172.952 84.8342 173.72 84.5021C174.488 84.1705 175.12 83.7011 175.617 83.095C176.114 82.4889 176.451 81.7819 176.626 80.9737H173.819C173.687 81.4065 173.387 81.7712 172.92 82.0666C172.452 82.3627 171.845 82.5106 171.099 82.5106C170.354 82.5106 169.739 82.3483 169.257 82.0236C168.775 81.699 168.416 81.2518 168.183 80.6816C168.028 80.3042 167.929 79.8867 167.877 79.4366H176.823V78.3542Z" fill="#040606"/>
</g>
<defs>
<clipPath id="clip0_2387_2221">
<rect width="100" height="84" fill="white" transform="translate(100 1)"/>
</clipPath>
</defs>
</svg>
