<svg width="300" height="87" viewBox="0 0 300 87" fill="none" xmlns="http://www.w3.org/2000/svg"><path d="M198.893 68.368c.77-.037 1.333-.106 1.942.446.385.346.474.738.483 1.25l.019 9.42c-.003 1.354.229 3.302-.186 4.559-.124.375-.353.614-.621.89-.702.074-1.535.081-2.13-.338-.713-1.172-.351-12.352-.318-14.53.014-.885.214-1.115.811-1.697ZM187.133 68.396c.628-.039 1.748-.17 2.196.335.869.983.47 11.069.43 13.077 1.574.03 5.056-.295 6.364.495.085.233.149.411.165.66.04.615-.02 1.279-.446 1.708-1.164.26-2.471.135-3.666.144-1.466.01-3.767.362-5.084-.267-.28-.333-.503-.63-.562-1.07-.154-1.153-.059-2.43-.061-3.599l.008-6.623c.004-1.129-.24-3.266.207-4.26.086-.191.319-.425.449-.6ZM239.325 68.401c.873-.038 1.698-.168 2.452.37.451 1.458.265 3.198.267 4.723v8.291c1.786.018 4.427-.22 6.083.358.258.3.363.563.404.952.071.652-.13 1.128-.543 1.612-1.21.208-2.529.116-3.759.116-1.608 0-3.262.08-4.854-.155-.418-.314-.5-.584-.569-1.103-.16-1.178-.256-13.904.054-14.565.09-.192.33-.425.465-.599ZM162.828 68.19l.862.27c.559.606.906 1.418 1.287 2.146l1.959 4.014c.916-1.469 1.589-3.142 2.382-4.685.263-.511.567-1.217 1.072-1.53.29-.18 1.383-.073 1.672.1.347.21.639.827.743 1.2.152.543-.496 1.614-.748 2.11l-2.614 5.055c-.227.405-.564.894-.678 1.343-.4 1.569.054 3.707-.118 5.362-.066.638-.095.78-.579 1.19-.604.126-1.446.257-2.038.024-1.165-.46-.534-5.037-.759-6.318-.112-.636-.472-1.14-.782-1.687l-2.312-4.365c-.351-.663-.911-1.485-1.056-2.206-.05-.247.004-.601.093-.84.284-.762.919-.897 1.614-1.184ZM178.192 68.408c1.673-.175 3.959-.147 5.395.876.682.484.776.972.889 1.752-.32.765-.725.954-1.364 1.425-.894-.48-2.393-1.44-3.415-1.226l-.947.18c-.65.157-1.005.474-1.329 1.051-.583 1.037-.354 6.953-.004 8.202.131.467.42.778.85 1.003.27.14.901.5 1.184.528.97.101 2.862-.869 3.857-1.164.395.203.685.346.919.744.172.291.376 1 .227 1.312-.337.703-1.748 1.403-2.476 1.63-1.419.444-4.203.405-5.505-.369-1.15-.683-2.134-1.876-2.424-3.2-.328-1.496-.251-3.08-.227-4.603.03-1.984-.179-4.233.978-5.965.879-1.316 1.894-1.84 3.392-2.176ZM153.035 68.415c1.377-.133 3.16-.231 4.473.213l.259.095.738.294c.615.33 1.053 1.013 1.23 1.676.079.29.121.539-.041.803-.176.284-.949.813-1.266.867-.331.056-1.962-.916-2.463-1.038-.556-.136-1.2-.05-1.756.067-.755.159-1.235.48-1.619 1.171-.335.602-.239 1.594-.243 2.264-.012 1.754-.32 4.14.265 5.795.187.528.696 1.012 1.196 1.242 1.509.694 2.855-.203 4.263-.738.184-.01.272-.022.469.004.572.077.761.32 1.114.719.176.551.123.823-.041 1.373-.605.528-1.202 1.04-1.962 1.332-1.358.52-4.335.593-5.633-.056-1.155-.578-2.241-1.673-2.628-2.926-.636-2.055-.41-4.762-.316-6.901.055-1.245.051-2.501.636-3.634.732-1.415 1.85-2.145 3.325-2.622ZM138.528 68.573c1.925-.162 3.909-.124 5.84-.079 1.031.024 2.008-.116 2.847.58.24.451.298.699.283 1.213-.008.29-.348.776-.592.946-1.077.753-4.379.266-5.716.22l-.126 3.643c1.405.056 4.314-.412 5.437.402.488.355.551.634.631 1.202-.148.405-.384 1.077-.775 1.316-.61.372-2.958.123-3.718.12-.546-.002-1.011-.116-1.467.194l-.038 1.22.044 2.217c1.638-.007 3.418-.15 5.037.095.553.084 1.026.138 1.343.655.283.458.312.882.202 1.39-.347.424-.747.853-1.317.94-1.795.272-4.051.01-5.884-.033-.584-.014-1.685.055-2.156-.322-.322-.258-.467-.714-.501-1.115-.191-2.3-.039-4.757-.042-7.073-.003-2.042-.197-4.288.069-6.297.077-.578.222-.992.599-1.434ZM222.583 68.401c1.2-.117 2.814-.21 3.955.219l.225.091a5.854 5.854 0 0 1 1.623.938c.538.439.618.897.67 1.559-.27.503-.527.654-1.006.916-.698.046-1.115.007-1.751-.293-.926-.436-1.846-.75-2.883-.532-.685.144-1.288.68-1.62 1.285-.555 1.008-.22 7.242.155 8.406.38.418.799.753 1.324.978.874.374 1.881.153 2.715-.21.471-.668.243-2.696.238-3.564l-2.016-.245c-.383-.448-.535-.77-.696-1.335.116-.539.23-.867.558-1.313l1.15-.162c1.079-.027 3.052-.279 3.936.46.327.272.327 1.41.336 1.837.04 1.812.5 4.936-.919 6.298-1.424 1.367-3.608 1.206-5.418 1.128-.564-.025-1.064-.028-1.591-.256-1.381-.595-2.511-1.7-3.015-3.132-.382-1.086-.212-2.56-.215-3.714-.004-1.614-.157-3.42.038-5.016.082-.674.445-1.467.765-2.057.724-1.339 2.054-1.888 3.442-2.286Z" fill="currentColor"/><path fill-rule="evenodd" clip-rule="evenodd" d="M257.549 68.684c-.575-.41-1.477-.386-2.158-.363-.933 1.33-5.623 14.282-5.436 15.531.055.37.247.628.574.81.471.261 1.106.223 1.634.192l.082-.005c.778-.415 1.058-1.073 1.308-1.895.135-.44.217-.86.264-1.318l3.734-.028c.071.007.161.011.262.016.359.016.846.039 1.002.234.323.403.432.86.54 1.308.152.635.299 1.25 1.042 1.663l.261.012c.667.03 1.261.058 1.901-.245.342-.476.346-.986.239-1.567-.278-1.511-.903-3.094-1.51-4.631-.293-.743-.582-1.475-.826-2.183-.26-.759-.503-1.538-.748-2.321-.466-1.494-.935-3.001-1.54-4.4-.143-.33-.33-.599-.625-.81Zm-.028 9.069-1.114-4.5-1.439 5.422.197.216 1.502-.04.815.013c.226-.343.172-.565.088-.905a6.434 6.434 0 0 1-.049-.206Z" fill="currentColor"/><path d="m26.576 23.86-6.657 1.116-.2-16.908 8.714-1.18-.948 8.044c-.43.627-.365 1.785-.43 2.538l-.479 6.39Z" fill="currentColor"/><path d="m204.893 68.389 1.7.006c.208.128.72.356.858.527.362.45.626 1.34.934 1.869 1.454 2.497 2.853 5.111 4.464 7.503-.048-2.795-.35-5.993.039-8.75.097-.684.226-.767.741-1.165.783-.062 1.512.076 2.281.199l.156 1.926c.074 1.65.25 13.242-.125 13.832-.098.155-.248.27-.371.406-.674.128-1.43.309-2.112.136-.69-.174-5.133-8.37-5.914-9.676l-.049 5.55c.008 1.144.139 2.52-.181 3.63-.066.23-.198.307-.417.39-.429.162-1.651.192-2.068 0-.264-.12-.499-.724-.572-1.004-.468-1.8-.144-4.377-.144-6.25.001-2.435-.217-5.146.081-7.561.074-.591.385-1.077.699-1.568Z" fill="currentColor"/><path fill-rule="evenodd" clip-rule="evenodd" d="M128.081 68.446c-.266.004-.529.009-.787.01-.152.005-.307.007-.463.01-.833.01-1.696.023-2.44.404-.187.267-.346.516-.394.846-.195 1.34-.141 2.875-.089 4.349.023.67.046 1.326.045 1.947-.001.754-.027 1.54-.053 2.336-.06 1.778-.121 3.61.095 5.271.083.641.181.807.654 1.228.124.006.253.017.384.027.553.045 1.147.092 1.644-.11.703-.853.633-2.655.58-4.015-.013-.338-.025-.648-.024-.91a7.258 7.258 0 0 0-.008-.37c-.015-.454-.028-.823.255-1.248.099-.001.193-.005.283-.009.453-.019.8-.034 1.166.374l2.292 3.593c.07.11.157.258.257.427.486.82 1.279 2.16 1.881 2.347.614.191 1.14.03 1.641-.328.338-.24.658-.726.676-1.15.026-.623-.377-1.174-.748-1.683a11.047 11.047 0 0 1-.327-.463c-.765-1.12-1.514-2.217-2.165-3.41 1.321-.728 2.53-1.533 2.961-3.078.34-1.214.065-3.004-.611-4.056-.677-1.054-1.899-1.976-3.142-2.188-1.126-.191-2.376-.17-3.563-.151Zm-.373 3.008a44.26 44.26 0 0 1-.456.007l-.027 3.829c.222 0 .445.001.669.004 1.198.012 2.409.024 3.54-.391l.227-.08c.392-.654.528-1.182.329-1.97-.121-.472-.298-.632-.598-.902l-.136-.124-1.333-.253c-.718-.15-1.475-.135-2.215-.12ZM265.629 68.565l4.154-.049c.169 0 .341-.005.515-.009.903-.021 1.845-.043 2.64.408l.242.148c.692.42 1.255.834 1.716 1.51.617.904.906 2.252.664 3.324-.248 1.093-.889 1.63-1.807 2.2l-.146.088.088.294.429.202c.739.4 1.618 1.438 1.831 2.25.4 1.517-.009 2.559-.765 3.856-1 1.096-1.821 1.588-3.308 1.869-1.399.264-5.595.537-6.748-.255-.611-1.12-.534-2.989-.471-4.536.018-.436.035-.847.035-1.208l.01-8.022c.017-1.079.173-1.347.921-2.07Zm2.342 2.944c.205 0 .454-.008.728-.017 1.02-.034 2.378-.08 3.024.306.367.219.413.326.526.716.233.798.045 1.288-.35 1.987l-.347.18c-.708.314-2.843.369-3.568.115l-.013-3.287Zm.704 6.44c-.252.014-.476.026-.656.03l-.052 3.795c.196 0 .393.003.59.006 1.11.016 2.232.031 3.291-.314l.28-.088.165-.061c.372-.508.466-1.143.387-1.765a1.879 1.879 0 0 0-.768-1.306c-.602-.443-2.164-.357-3.237-.297Z" fill="currentColor"/><path fill-rule="evenodd" clip-rule="evenodd" d="m200.514 21.29-.269 1.693-2.849 13.248c-.018.101-.039.24-.062.396-.082.55-.198 1.334-.39 1.618-.099.147-.514.393-.836.584a7.06 7.06 0 0 0-.326.2l-7.546 4.63-3.506 2.404c1.068 1.319 1.946 2.788 2.821 4.254.447.747.893 1.493 1.363 2.218l8.347-5.22.168-.116c1.065 1.327 2.365 2.919 3.836 3.811 1.97 1.197 5.245 1.765 7.69 2.188l.642.112.255.047a3.815 3.815 0 0 0 1.934-.15c1.37-.46 2.706-1.219 4.002-1.956.401-.228.799-.454 1.192-.668.505-.275 1.016-.544 1.528-.812 1.505-.79 3.019-1.586 4.399-2.56l-2.782-6.386-11.56 6.59-6.117-3.595c2.399-1.217 4.67-2.658 6.941-4.098.51-.324 1.02-.648 1.532-.97l6.034-3.64c.535-.334 1.074-.714 1.62-1.099 1.016-.717 2.052-1.447 3.12-1.912l.164-.067c.052-.773-.26-1.797-.525-2.668a27.683 27.683 0 0 1-.202-.682c-.444-1.614-.847-3.192-1.134-4.845-1.199-.366-2.527-.437-3.827-.507-.541-.03-1.077-.058-1.597-.108l-11.215-1.277-2.845-.658Zm8.449 9.174c-1.007-.12-2.012-.241-3.029-.223l-.423 2.944 2.377-1.559 1.505-1.111-.43-.051Z" fill="currentColor"/><path d="M183.145 18.467c1.802 1.914 4.209 3.602 6.191 5.378.006.631-.204 1.382-.439 1.968l-6.993 20.763c.735 1.186 3.132 2.237 4.4 2.859-1.492 1.351-3.337 2.413-5.003 3.545l-7.924 5.476c-.58-.502-1.035-1.373-1.458-2.012-.589-.888-1.09-1.802-1.581-2.746-.036-.068-.294-.5-.293-.565.006-.185.333-.703.424-.897l1.351-2.964 1.904-5.032c.827-2.197 1.67-4.269 2.137-6.58-1.037.746-2.014 2.14-2.922 3.078l-8.042 8.193-4.906 5.01c-2.09-1.452-3.904-4.138-5.393-6.182l6.873-18.855-2.578 1.208c-.466-2.547-1.363-5.16-2.259-7.593.425-.275 1.516-.262 2.044-.321 2.015-.225 3.964-.542 6.002-.476.787.495 5.563 3.513 5.823 4.185.286.738-3.566 7.462-3.208 8.948l15.85-16.388ZM232.505 17.373c2.141.097 5.266 2.27 6.972 3.443.025 1.912-.543 3.987-.858 5.882l-2.374 13.177c2.555-2.646 4.662-5.684 6.879-8.607l5.915-7.656c2.13.982 4.908 1.974 6.662 3.503 1.041.907 1.487 11.766 1.644 13.676 1.341-1.624 2.258-3.569 3.371-5.348 1.207-1.931 2.523-3.817 3.571-5.838.159-.307.539-.849.6-1.17.103-.552-.481-1.254-.238-1.84l11.277.122 3.554 7.467-10.685.009c-.479 2.114-1.81 4.264-2.867 6.138l-7.8 14.413-6.227-4.04-1.473-16.83-9.106 11.657c-2.041 2.564-3.963 5.474-6.411 7.665-.365.326-2.182.123-2.772.114l-6.04-.127 5.115-27.077-6.808-3.934c.273-.268.14-.18.456-.336l7.643-4.463Z" fill="currentColor"/><path fill-rule="evenodd" clip-rule="evenodd" d="m27.482 14.932 26.544-4.697 7.212 7.11c.34.338.686.673 1.034 1.01 1.13 1.092 2.274 2.199 3.237 3.418l-21.163 23.1-6.492 7.016c-.285.31-.579.619-.874.93-.968 1.02-1.954 2.057-2.734 3.195l1.652 1.632 31.31-16.302 1.706 2.404 3.588-2.006c.068-.041.156-.091.255-.148.38-.217.92-.524 1.096-.752.2-.259.387-.904.51-1.326l.055-.188L78.98 22.92l18.977 4.427 1.927 8.52-18.672 9.913c.518.26 1.086.625 1.67 1 .993.64 2.032 1.308 2.941 1.533l17.19-9.452 2.71 5.728L120.491 3a118.32 118.32 0 0 1 2.017 1.713c1.638 1.412 3.299 2.843 5.063 4.002l-12.214 36.781 6.026-2.91 5.061-2.364c.091-.047.212-.102.345-.163.358-.164.805-.37.989-.555.179-.179.4-.777.537-1.145l.07-.188 5.652-16.888 17.991 6.217 2.331 7.875-20.153 9.562c.421.165.858.38 1.305.6 1.403.692 2.908 1.434 4.32.824.889-.385 1.766-.88 2.635-1.372.472-.267.941-.532 1.409-.778l7.174-3.623c.282-.143.565-.29.849-.436h.002v-.001c1.119-.578 2.254-1.165 3.438-1.561l-1.786 6.701c-.02.07-.049.185-.083.323v.001c-.111.443-.279 1.117-.416 1.26-.25.257-.815.54-1.226.746l-.142.07-.098.05-5.921 2.844c-.369.18-.801.422-1.266.682-1.325.742-2.917 1.633-4.06 1.689-.769.037-1.575-.18-2.347-.387a24.033 24.033 0 0 0-.734-.189c-.392-.092-.788-.18-1.186-.268h-.001c-1.187-.265-2.387-.531-3.529-.913-1.083-.362-2.054-1.288-2.904-2.1v-.001a49.165 49.165 0 0 0-.336-.319c-.035-.033-.107-.108-.197-.2v-.001c-.263-.274-.681-.708-.781-.729-.281-.059-1.989.81-2.911 1.28-.222.113-.399.203-.498.25l-13.789 6.634-7.803-4.63 1.98-5.628-9.578 4.94c-.691.364-1.392.76-2.1 1.162-1.889 1.07-3.836 2.173-5.822 2.77l-.308-.136c-1.33-.56-2.988-.877-4.544-1.175-.568-.108-1.122-.215-1.642-.329-.16-.035-.322-.068-.485-.101-.827-.17-1.673-.342-2.371-.824-1.057-.728-2.031-1.98-2.838-3.015l-.115-.148-.392.228c-1.557.908-3.117 1.819-4.802 2.468l-2.95-2.295-33.51 17.903-9.28-8.55c-.15-.139-.389-.331-.66-.55-.728-.59-1.695-1.37-1.86-1.816l32.16-34.818-2.088-2.166-25.545 4.557.479-6.39c.014-.166.022-.351.03-.546.03-.691.065-1.503.4-1.992ZM138.638 31.19l4.106 1.273-2.591 1.24-3.105 1.418 1.59-3.931Zm-50.675 2.13-4.106-1.272-1.59 3.931 3.105-1.417 2.591-1.241Z" fill="currentColor"/></svg>