<svg width="300" height="87" viewBox="0 0 300 87" fill="none" xmlns="http://www.w3.org/2000/svg"><g clip-path="url(#a)" fill="currentColor"><path d="M39 4h89V81.872a.774.774 0 0 1-.229.116c-.507.126-1.466.016-2.011.016l-6.079.007-29.05.001-8.7-.006-2.31-.004c-.443 0-.904.05-1.317-.106a.706.706 0 0 1-.203.094c-.464.108-5.355.056-5.653-.088a1.12 1.12 0 0 1-.255.089c-.532.093-1.28.013-1.84.014l-4.934.006H46.317l-4.883-.005c-.665-.001-1.446.066-2.096-.006a.858.858 0 0 1-.338-.128V4Zm0 0v16.925l.14-.006.151-.557c.742-2.248 1.952-3.907 4.386-5.06a7.707 7.707 0 0 1 1.963-.625c.415-.068.875-.074 1.265-.214.246-.088.572-.067.836-.067 1.17 0 2.604.304 3.684.71 1.903.716 3.654 2.272 4.407 3.945.193.43.404.943.48 1.4.287 1.726.126 3.606.127 5.355l.008 6.657c2.425.54 4.439 1.597 5.738 3.495.431.63.806 1.387.978 2.105.114.482.139 1.002.198 1.491.233 1.925.214 3.86.272 5.797.022.736.166 1.436.218 2.157.152 2.087.057 4.248.081 6.342.02 1.557-.038 3.041.265 4.581.072.367.084.724.246 1.072.063.136.12.261.149.406.241.004.933-.419 1.185-.532l3.597-1.548c.497-.21 1.026-.361 1.532-.56l3.674-1.593c.63-.303 1.313-.677 1.83-1.113 1.697-1.433 2-3.12 2.006-5.075l-.006-11.44v-3.031c0-.543-.055-1.17.06-1.701.438-2.03 1.532-4.195 3.24-5.664 1.483-1.274 3.708-2.191 5.8-2.18h.05l-.01-9.88-.004-3.29c0-.588-.058-1.234.055-1.814.245-1.269.9-2.738 1.93-3.68.5-.457 1.01-.948 1.597-1.324 1.203-.771 2.953-1.322 4.447-1.355.651-.015 1.39-.044 2.032.034 1.72.208 3.689 1.154 4.929 2.176 1.062.877 1.985 2.365 2.245 3.625.153.734.142 1.533.161 2.278l.019 12.435v22.627l-.003 10.322-.042 3.894c-.021.804-.007 1.67-.192 2.456-.205.868-.428 1.793-.763 2.63-.819 2.041-2.082 3.86-3.584 5.57-.501.572-.984 1.17-1.557 1.689-.757.685-1.557 1.228-2.403 1.82-4.602 3.224-10.403 5.404-16.297 5.996-.6.06-1.128.208-1.746.216l-.07-.001c.413.155.874.105 1.316.106l2.311.004 8.7.006 29.05-.001 6.079-.007c.545 0 1.504.11 2.011-.016a.774.774 0 0 0 .229-.116V4H39Zm56.56 1.933C93.757 6.09 92.132 7 91 8.203c-.523.555-1.137 1.547-1.298 2.245-.136.59-.108 1.205-.108 1.805l.001 2.482.02 10.686c2.518.584 5.18 1.75 6.523 3.78.605.916 1.096 2.076 1.208 3.133.146 1.363.043 2.806.044 4.176l-.005 8.155.005 10.785.004 3.205c-.001.592.063 1.32-.123 1.885-.103.313-.087.63-.144.952-.142.798-.3 1.57-.552 2.35-.585 1.81-1.56 3.331-2.868 4.822-.374.426-.744.888-1.18 1.27-1.355 1.187-3.303 2.264-4.991 3.066-.886.421-1.822.704-2.766 1.006-3.543 1.134-7.346 1.643-11.115 1.376-.306-.022-.58-.114-.881-.143-1.289-.128-2.572-.304-3.82-.622-3.61-.922-6.817-2.328-9.547-4.607-.864-.722-1.82-1.653-2.402-2.568l-1.163-1.82c-1.053.519-2.184.962-3.272 1.428-.647.277-1.275.613-1.95.835l1.013 1.463c3.35 5.038 9.144 8.447 15.547 9.934 1.231.286 2.603.588 3.869.705.893.083 1.803.061 2.702.125.477.034.89.179 1.397.181.323.001.72.002 1.035-.062.229-.047.354-.126.608-.14.91-.054 1.84-.033 2.744-.125 3.747-.385 7.88-1.471 11.155-3.114 1.592-.799 3.068-1.726 4.49-2.73.392-.276.801-.503 1.172-.804.73-.591 1.287-1.199 1.912-1.867 1.86-1.992 3.357-4.106 4.118-6.61.135-.442.277-.927.335-1.381.072-.573.063-1.187.216-1.747.142-.517.09-1.219.093-1.753l.002-3.149-.008-11.596.002-22.312.001-7.111c0-1.429.062-2.881-.063-4.306-.088-.997-.499-2.09-1.121-2.938-.911-1.24-2.37-2.164-4.04-2.48l-.214-.041c-.635-.13-1.373-.12-2.024-.094Zm-5.987 21.285c.135 1.038.047 2.139.044 3.185l-.008 5.74.007 14.307v4.117c-.003.778.099 1.76-.15 2.503-.086.258-.05.544-.076.812a11.506 11.506 0 0 1-.285 1.63c-.37 1.495-1.003 2.624-1.983 3.887-.347.446-.693.924-1.125 1.313-.805.721-1.918 1.39-2.93 1.876-1.731.834-3.617 1.508-5.594 1.748-.832.101-1.697.098-2.537.094-1.13-.006-2.22-.065-3.31-.34-3.62-.912-6.429-2.697-8.256-5.608l-.03-.049c-1.655 1.045-3.805 1.584-5.626 2.392.925 1.57 2.223 3.386 3.873 4.456 1.075.823 2.257 1.426 3.512 2.014a24.754 24.754 0 0 0 8.239 2.238c1.487.132 3.192.1 4.687.027.45-.023.85-.114 1.287-.19 1.154-.202 2.253-.386 3.384-.69.587-.157 1.164-.376 1.756-.512.543-.125 1.108-.403 1.611-.618 2.671-1.14 5.395-2.874 6.9-5.151 1.175-1.779 1.975-3.733 2.27-5.769.12-.829.043-1.716.072-2.554l.034-9.56-.003-10.638-.002-3.46c-.001-.854.066-1.753-.197-2.584-.536-1.698-1.708-2.962-3.477-3.817l-2.087-.8ZM46.888 16.25c-2.015.478-3.67 1.188-4.75 2.827-.407.62-.826 1.322-.893 2.04-.088.962-.03 1.953-.023 2.918l.008 4.516v15.323l-.001 12.762-.005 3.357c-.003.704-.084 1.543.119 2.227.444 1.493 1.784 2.863 3.322 3.609.994.481 2.15.69 3.272.802l-.622-1.655c-.993-3.277-.716-6.731-.713-10.09l-.086-8.193c-.013-.708-.006-1.44-.086-2.144-.023-.205-.131-.386-.148-.593-.123-1.536-.154-3.309.01-4.846.108-1.002.545-2.213 1.131-3.084 1.174-1.744 3.053-2.916 5.316-3.404.524-.113 1.088-.122 1.625-.127.084-.324.02-.728.018-1.062l-.003-2.14V23.91c.002-.98.117-2.09-.078-3.055-.149-.738-.613-1.48-1.071-2.108-.96-1.314-2.592-2.104-4.31-2.445-.63-.125-1.388-.093-2.032-.052ZM86.86 27.328c-1.763.27-3.488 1.331-4.502 2.594-.825 1.027-1.45 2.042-1.752 3.275-.18.734-.155 1.526-.154 2.273l.01 2.998.009 9.439-.004 2.3c-.003.442.028.923-.068 1.356-.37 1.678-1.132 3.22-2.563 4.427-.896.757-2.112 1.19-3.22 1.667l-4.014 1.712-5.24 2.246c.508 1.015 1.237 1.834 2.17 2.585.276.222.606.514.945.66 1.356.77 2.808 1.373 4.414 1.632.527.085 1.221.056 1.687.24.257.1.784.052 1.042-.04l.065-.025c.344-.128.904-.088 1.284-.117.499-.038.969-.124 1.455-.226 1.729-.361 3.187-1.049 4.601-1.962.4-.258.844-.493 1.196-.799 1.008-.875 1.858-2.05 2.403-3.189.46-.963.735-2.07.836-3.109.103-1.064.042-2.167.042-3.235v-5.68l.048-16.453-.011-3.144c-.004-.46-.065-.956-.02-1.41-.222-.062-.431-.034-.659-.015ZM39 61.632v20.24c.104.06.213.114.338.128.65.072 1.43.005 2.096.006l4.883.006 19.102-.001 4.933-.006c.561-.001 1.31.079 1.84-.014a1.12 1.12 0 0 0 .256-.089l-.115.023c-.47.05-1.122-.098-1.59-.168l-2.024-.306c-1.232-.23-2.46-.436-3.662-.773a30.21 30.21 0 0 1-9.339-4.438c-1.069-.756-2.104-1.506-2.978-2.44-.989-1.054-2.028-2.137-2.781-3.333-.315-.5-.65-.983-.91-1.507-.058-.115-.159-.538-.231-.602-.075-.067-.215.016-.322.022-2.09.107-4.4-.509-6.028-1.646-1.819-1.27-3.078-2.975-3.328-5.024l-.14-.078Zm15.041-27.41c-.728.17-1.537.325-2.215.62-1.002.434-2.022 1.277-2.567 2.11-.476.728-.828 1.584-.907 2.42-.105 1.096-.011 2.227.012 3.327l.111 6.102c.023.57.158 1.113.173 1.687l.002 7.219c.003 2.114-.112 4.367.567 6.42l.6 1.762.11.186c.1.002.169.02.253-.03.936-.556 2.062-.93 3.104-1.31.622-.225 1.21-.51 1.846-.707-.266-1.196-.611-2.444-.725-3.654-.094-1.01-.041-2.057-.04-3.07l.012-5.22.002-11.72V36.04c0-.564.108-1.284-.024-1.828-.132-.026-.184-.037-.314.011Zm2.363.028c.103.654.054 1.294.05 1.951l-.011 3.064-.01 11.697.004 5.283c.002 2.269-.18 4.723.727 6.886l3.44-1.533 1.988-.783c-.286-1.116-.463-2.188-.606-3.323-.029-.226-.123-.435-.142-.663-.213-2.605.015-5.276-.02-7.891l-.111-3.4c-.039-.469-.19-.946-.204-1.403-.067-2.005.163-4.04-.508-5.986a5.47 5.47 0 0 0-2.464-2.928l-2.133-.97ZM39 20.925v40.707l.14.078V20.92l-.14.005Z"/><path d="m39 20.926.14-.006v40.79l-.14-.077V20.926Z" fill-opacity=".11"/><path d="m127.939 23.638.062-.025v7.668l-.095.018.033-7.66Z" fill-opacity=".235"/><path d="m127.934 13.375.067-.025v7.667l-.095.022.028-7.664Z" fill-opacity=".243"/></g><path d="m216.744 62.001-1.636-1.04c-.531-2.48-.215-5.536-.218-8.081l-.008-15.402.004-7.035c.002-1.053-.16-2.42.165-3.43.145-.45.342-.762.787-.963.7-.316 2.682-.339 3.39-.026.47.208.714.57.84 1.052.417 1.585.185 3.926.19 5.589l-.008 15.338.014 4.76c.016.536-.024 1.304.208 1.79.211.443.255 1.169.768 1.364.422.161 1.358.085 1.835.104l7.811-.026c1.264-.01 2.739-.152 3.966.171.664.176 1.55.68 2.035 1.168.268.268.297.859.3 1.218.007 1.186.147 1.617-.72 2.479l-1.21 1.039.06.13h-18.528l-.045-.199Zm18.513.069L216.744 62l.045.2h18.528l-.06-.131ZM162.091 62.2l-.39-.267c-.501-.351-1.254-1.011-1.491-1.582-.334-.806-.16-2.554-.151-3.454l.039-7.37c-.003-.735.091-1.983-.144-2.668-.113-.332-.478-.732-.677-1.038l-1.452-2.328-5.051-8.426-2.681-4.283c-.379-.643-.959-1.552-1.073-2.3-.152-1.013.445-1.64.954-2.426 1.039-.257 2.156-.29 3.217-.177.26.027.598.15.796.333.71.653 1.299 2.047 1.795 2.902l2.27 3.675c.861 1.5 1.735 3.268 2.812 4.604.426.527 1.239 1.527 1.926 1.575.421.028.759-.012 1.105-.275 1.161-.885 1.792-2.395 2.531-3.628l3.93-6.47c.514-.848.968-1.86 1.708-2.517.899-.33 2.104-.331 3.042-.191.829.124 1.039.528 1.519 1.168.39.519.468 1.012.255 1.633-.498 1.453-1.794 3.083-2.597 4.409l-6.851 11.178c-.25.399-.399.847-.662 1.25-.234.358-.729.884-.864 1.263-.197.559-.036 2.08-.035 2.725.008 3.44.352 7.256-.111 10.65-.098.717-1.383 1.596-1.953 2.036h-1.716ZM240.558 62.001c-.763-.468-1.236-.995-1.795-1.681-.346-5.51-.032-11.211-.04-16.745l-.012-10.338c-.001-1.766-.109-3.61.012-5.37.025-.367.104-.957.32-1.252.288-.392.574-.503 1.024-.598 1.409-.298 19.191-.313 19.834.113.578.792 1.031 1.286 1.061 2.307.019.653.051 1.042-.406 1.539-.281.307-.685.826-1.029 1.044-.63.4-2.861.216-3.623.219l-10.274.055c-.409.411-.814.788-1.044 1.333l-.064.158-.149.325c-.59 1.364-.577 4.717.027 6.085.17.386.86 1.535 1.231 1.667.582.206 1.672.084 2.307.09l7.009.01c1.529.002 3.275-.19 4.715.394.867 1.093.605 2.693.538 4.001-1.79 1.679-3.332 1.555-5.611 1.557l-5.896-.027c-1.151-.016-2.43-.161-3.55.112-.406.228-.52.534-.688.956-.582 1.457-.467 3.287-.399 4.844.021.485.007 1.189.207 1.627.144.315.334 1.221.52 1.42.132.143 1.104.152 1.326.163l7.176-.001c1.91-.017 5.078-.514 6.591.881.573.529 1.115 1.456 1.124 2.238.008.782-.113 1.266-.674 1.823l-1.278 1.11.061.14h-18.5l-.051-.199Zm18.49.058-18.49-.058.051.2h18.5l-.061-.142ZM190.132 62.2c-4.305-1.725-7.984-2.813-10.673-6.901-2.862-4.352-4.597-9.14-3.554-14.39.492-2.479 1.342-4.65 2.706-6.776 2.39-3.73 6.417-6.88 10.822-7.787l.408-.098c2.79-.905 6.048-.27 8.809.442 4.202 1.084 8.128 4.677 10.183 8.387.332.6.494 2.04.246 2.694-.175.463-1.152 1.365-1.61 1.572-.91.409-2.14.096-2.85-.541-.644-.577-1.031-1.489-1.489-2.218-1.49-2.37-3.489-3.57-6.061-4.498-2.43-.876-6.016-.7-8.356.386-3.472 1.61-5.983 4.633-7.105 8.281-.198.648-.144 1.465-.163 2.143-.039 1.458-.227 3.23.136 4.64.192.74.612 1.506.969 2.182 1.221 2.31 3.952 5.002 6.36 6.057.829.363 1.691.448 2.545.707 1.614.49 2.913.24 4.519-.159 2.224-.551 4.372-1.405 5.968-3.122 1.082-1.163 2.314-4.237 3.736-4.816.802-.327 2.145-.027 2.882.318.523.612.609 1.17.618 1.962.027 2.515-2.037 5.27-3.789 6.983-2.384 2.333-5.865 3.514-8.963 4.553h-6.294ZM128.579 62.2c-2.062-.572-3.997-1.222-5.818-2.363-4.484-2.81-7.237-6.862-8.363-12.021-1.022-4.68-.024-9.609 2.497-13.619 2.814-4.476 6.968-7.048 12.098-8.147 3.951-.847 9.123.567 12.48 2.695 2.13 1.35 3.574 3.343 4.943 5.411.36.543.98 1.325 1.094 1.979.11.62.157 1.416-.242 1.933-.576.748-1.262 1.273-2.213 1.385-.438.052-1.521.036-1.9-.17-.37-.2-.721-.95-.927-1.311-.502-.876-1.06-1.773-1.681-2.57-.479-.616-1.137-1.172-1.758-1.642-2.534-1.914-5.812-2.524-8.923-2.079-3.443.493-6.157 2.519-8.175 5.282-1.277 1.75-2.642 5.72-2.294 7.928.64 4.062 2.362 7.25 5.722 9.624 2.034 1.437 5.07 2.633 7.592 2.185 3.002-.533 6.05-1.972 8.049-4.298.997-1.162 1.811-2.63 2.683-3.897 1.07-.166 2.212-.36 3.249.09.393.17.577.418.715.819.307.89.258 2.425-.201 3.273-2.857 5.275-7.019 7.864-12.614 9.514h-6.013Z" fill="currentColor"/><defs><clipPath id="a"><path fill="currentColor" transform="translate(39 4)" d="M0 0h89v78H0z"/></clipPath></defs></svg>