<svg id="Layer_1" data-name="Layer 1" xmlns="http://www.w3.org/2000/svg" xmlns:xlink="http://www.w3.org/1999/xlink" viewBox="0 0 300 87"><defs><clipPath id="clip-path"><rect x="34" y="4" width="233" height="78" fill="none"/></clipPath></defs><g clip-path="url(#clip-path)"><path d="M84.836,44.454c-.5-.15-1.33.5-1.772.652a7.527,7.527,0,0,0-1.426.724c-1.189.841-2.373,1.845-3.639,2.608a5.014,5.014,0,0,1-1.919.58,12.186,12.186,0,0,1-1.976.365c-.639,0-1.279-.443-1.918-.43-.211,0-.512.267-.64.221s-.416-.652-.448-.612a3.986,3.986,0,0,1-1.125.756c-1.535.391-1.791-1.258-1.612-1.767a4.03,4.03,0,0,0,.224-.756,8.414,8.414,0,0,0,.237-1.259,3.881,3.881,0,0,1,.5-1.428c.416-.847.134-1.623.236-2.51a8.067,8.067,0,0,1,.48-2.673c.384-.717,1.369-.795,1.867-1.434s0-1.917-.1-2.608a12.4,12.4,0,0,1-.1-2.569c0-.652-.038-1.956-.735-2.23-.915-.411-.9.8-1.043,1.3-.275.913-.594,1.832-.876,2.745-.511,1.636-1,3.436-2.52,4.381-.741.457-1.183,1.22-1.918,1.656s-1.785.476-2.5.978a2.976,2.976,0,0,0-.755,1.024,3.579,3.579,0,0,1-.85.919A4.949,4.949,0,0,0,59.03,45.53c-.115.567.109.73.531,1.043s.671.652,1.042.919c.742.568,1.817.268,2.047,1.356.173.8-.243,2.041.409,2.687.333.326.844.208,1.279.274a2.443,2.443,0,0,1,.505.1.83.83,0,0,1,.462.307.859.859,0,0,1,.172.534,6.969,6.969,0,0,0,0,.737c0,.652,0,.528.108.743.282,1.076.487,2.543,1.471,2.745,1.164.241,1.375-1.669,2.111-2.191a5.366,5.366,0,0,1,1.675-.443c.518,0,.877.293,1.433.222s1.119-.326,1.682-.444,1.113-.111,1.516-.593a6.911,6.911,0,0,0,.639-1.461c.48-1.01,1.337-1.3,2.59-2.151.448-.294.909-.554,1.382-.8,1.106-.587,1.81-1.682,2.763-2.445.16-.131,2.846-1.956,1.982-2.2Z" fill="none" stroke="currentColor" stroke-linecap="round" stroke-linejoin="round" stroke-width="0.34"/><path d="M71.03,30.056c-.72-.268-.856.49-.933,1.012-.032.2-.038.394-.064.547s-.071.357-.109.541c-.1.4-.239.77-.367,1.159s-.283.9-.444,1.343a6.52,6.52,0,0,1-.309.732,14.19,14.19,0,0,1-1.178,2.145,3.991,3.991,0,0,1-.643.688,9.409,9.409,0,0,1-.837.541c-.128.083-.257.178-.379.273-.328.249-.56.58-.888.822a2.46,2.46,0,0,1-1.158.522c-.74.114-2.124.146-2.728.776a.744.744,0,0,0-.219.357c-.039.21-.225.114-.219.331a1.522,1.522,0,0,1-.083.343,2.919,2.919,0,0,1-.406.962,6.943,6.943,0,0,0-1.061,2.412,1.384,1.384,0,0,0,0,.223c0,.369.173.554.476.828s.585.636.939.967a.5.5,0,0,0,.116.089c.7.49,1.634.382,1.834,1.369a2.131,2.131,0,0,1,0,.3c0,.821-.206,1.712.444,2.285.334.3.81.268,1.209.376l.483.146a1.086,1.086,0,0,1,.416.24,1.13,1.13,0,0,1,.324.594,3.546,3.546,0,0,0,.122.637,1.352,1.352,0,0,0,.212.636c.078.2.155.414.225.637.271.866.541,1.8,1.249,2.05a.808.808,0,0,0,.413.055.8.8,0,0,0,.385-.157c.463-.325.765-1.057,1.286-1.273a3.9,3.9,0,0,1,.573-.134,6.347,6.347,0,0,1,1.1-.108c.522,0,.914.267,1.429.133a12.565,12.565,0,0,0,1.531-.732,4.317,4.317,0,0,0,1.564-.713,2.063,2.063,0,0,0,.328-.388c.2-.286.354-.592.566-.872a4.681,4.681,0,0,1,.843-.827,18.825,18.825,0,0,1,1.583-1.216l.309-.2c.476-.3.965-.56,1.441-.872a13,13,0,0,0,1.641-1.394c.476-.452.946-.916,1.447-1.337.232-.184,1.139-.808,1.808-1.381.451-.388.946-.834.56-.98-.135-.058.11,0-.045,0-.521-.159-1.325.369-1.808.541a8.138,8.138,0,0,0-1.5.675c-1.235.687-2.439,1.616-3.719,2.349a6.526,6.526,0,0,1-1.885.636,2.5,2.5,0,0,0-.329.089,5.2,5.2,0,0,1-1.621.35,4.377,4.377,0,0,1-1.287-.337,2.666,2.666,0,0,0-.643-.146c-.206,0-.5.178-.644.127s-.424-.56-.489-.541c-.193.07-.514.312-.81.458a1.617,1.617,0,0,1-.361.134,1.147,1.147,0,0,1-.8,0,1.133,1.133,0,0,1-.6-.519,1.853,1.853,0,0,1-.154-1.273c.064-.23,0,0,.212-.739a9.01,9.01,0,0,0,.264-1.171,4.347,4.347,0,0,1,.514-1.4,4.058,4.058,0,0,0,.258-1.947,4.578,4.578,0,0,1,0-.5,10.269,10.269,0,0,1,.341-2.616,1.766,1.766,0,0,1,.193-.331c.38-.516.984-.675,1.345-1.222a1.828,1.828,0,0,0,.173-1.178,13.651,13.651,0,0,0-.2-1.394,14.837,14.837,0,0,1-.277-2.012v-.433C71.892,31.52,71.725,30.316,71.03,30.056Z" fill="none" stroke="currentColor" stroke-linecap="round" stroke-linejoin="round" stroke-width="0.34"/><path d="M70.663,29.039c-.737-.244-.837.714-.887,1.287a4.439,4.439,0,0,1-.031.644,4,4,0,0,1-.062.611,9.827,9.827,0,0,1-.374,1.287c-.169.521-.294,1.03-.481,1.513a5.2,5.2,0,0,1-.387.8,18.489,18.489,0,0,1-1.491,2.239,3.037,3.037,0,0,1-.749.682c-.3.187-.624.245-.967.438a2.287,2.287,0,0,0-.412.322c-.318.309-.518.727-.905.965a1.214,1.214,0,0,1-1.2.116c-.724-.238-2.377-.187-2.852.6a.653.653,0,0,0-.124.431c.037.3-.25-.039-.169.27v.38a4.231,4.231,0,0,1,.05,1.03c-.1.6-.512,1.57-.624,2.464v.226a1.26,1.26,0,0,0,.374.875,12.551,12.551,0,0,0,.8,1.049l.106.1c.624.547,1.517.528,1.679,1.506a2.276,2.276,0,0,1,0,.309c0,.888-.187,1.673.5,2.265a3.615,3.615,0,0,0,1.123.49l.443.2a1.409,1.409,0,0,1,.674.644,1.222,1.222,0,0,1,.088.173c.074.193.168.367.23.56a1.6,1.6,0,0,0,.294.579,4.058,4.058,0,0,1,.274.644c.306.837.543,1.776,1.155,2.13a.835.835,0,0,0,.7.1c.436-.142.767-.644,1.3-.689a2.719,2.719,0,0,0,.55-.045,7.5,7.5,0,0,1,1.06,0c.5.039.918.257,1.367.064s.786-.772,1.248-1.081a16.324,16.324,0,0,0,1.635-.946,4.378,4.378,0,0,0,.387-.347c.237-.251.461-.509.724-.753s.624-.521.948-.785c.518-.412.874-.94,1.516-1.41l.312-.225a15.7,15.7,0,0,0,1.448-.965c.624-.522,1.13-1.056,1.722-1.616s1.03-1.01,1.573-1.486c.349-.309,1.248-.965,1.94-1.558.425-.36,1.105-.862.724-1.055-.118-.058.05,0-.1-.058-.517-.167-1.248.257-1.772.425a8.461,8.461,0,0,0-1.51.643c-1.21.7-2.427,1.577-3.663,2.324a8.385,8.385,0,0,1-1.809.759l-.306.116a3.7,3.7,0,0,1-1.548.418,3.837,3.837,0,0,1-1.248-.373,3.219,3.219,0,0,0-.586-.161c-.206,0-.468.1-.624.039s-.418-.483-.512-.49c-.2.065-.524.219-.824.341a1.475,1.475,0,0,1-.349.1,1.032,1.032,0,0,1-.765-.063,1.075,1.075,0,0,1-.52-.581,2.067,2.067,0,0,1-.119-1.287,7.561,7.561,0,0,1,.2-.759c.112-.4.2-.8.274-1.191a5.846,5.846,0,0,1,.506-1.41,4.76,4.76,0,0,0,.293-1.969v-.5a15.281,15.281,0,0,1,.2-2.651,2.149,2.149,0,0,1,.137-.341c.268-.566.73-.817,1.017-1.384a2.508,2.508,0,0,0,.169-1.2,8.264,8.264,0,0,0-.25-1.4c-.156-.7-.318-1.325-.418-1.988A2.17,2.17,0,0,0,71.692,31C71.592,30.416,71.33,29.258,70.663,29.039Z" fill="none" stroke="currentColor" stroke-linecap="round" stroke-linejoin="round" stroke-width="0.34"/><path d="M70.349,28.026c-.8-.214-.866.945-.9,1.509v.686a4.908,4.908,0,0,1,0,.686,7.945,7.945,0,0,1-.423,1.444c-.193.583-.321,1.146-.539,1.677a4.028,4.028,0,0,1-.494.913,23.484,23.484,0,0,1-1.88,2.35,2.968,2.968,0,0,1-.917.648c-.372.161-.783.142-1.167.336a1.573,1.573,0,0,0-.456.363c-.333.369-.513.874-.981,1.1a.96.96,0,0,1-1.283-.3c-.744-.648-2.771-.512-3.137.434a.709.709,0,0,0,0,.505c.122.395-.3-.188-.134.2a3.985,3.985,0,0,0,.115.415c.154.466.4.647.5,1.107a11.633,11.633,0,0,1-.2,2.5v.233a1.676,1.676,0,0,0,.3.919,6.6,6.6,0,0,0,.706,1.127l.1.1c.642.6,1.482.648,1.623,1.645a2.4,2.4,0,0,1,0,.317c0,.945-.186,1.625.584,2.234a8.184,8.184,0,0,0,1.1.6l.43.246a2.564,2.564,0,0,1,.712.609l.115.155a5.831,5.831,0,0,1,.353.479,2.129,2.129,0,0,0,.392.5,3.208,3.208,0,0,1,.339.595,6.173,6.173,0,0,0,1.13,2.2,1.138,1.138,0,0,0,.641.292c.436.058.815-.162,1.379-.1a3.053,3.053,0,0,1,.552.039,9.7,9.7,0,0,1,1.084.1c.519.065.975.227,1.4,0,.552-.317.642-1,1.1-1.418a13.3,13.3,0,0,1,1.662-.984q.25-.155.462-.311c.3-.213.6-.42.93-.647s.757-.453,1.11-.725c.59-.447.865-1.1,1.533-1.612l.333-.24a9.705,9.705,0,0,0,1.552-1.062c.642-.647,1.213-1.224,1.925-1.838s1.18-1.095,1.789-1.626c.494-.434,1.4-1.113,2.188-1.735.423-.33,1.328-.867.923-1.114-.1-.064,0-.038-.147-.084a3.49,3.49,0,0,0-1.841.292,9.6,9.6,0,0,0-1.616.647c-1.283.648-2.566,1.463-3.849,2.221a14.734,14.734,0,0,1-1.8.874l-.3.143a3.085,3.085,0,0,1-1.559.479,3.758,3.758,0,0,1-1.244-.4,4.291,4.291,0,0,0-.641-.22c-.206-.058-.462,0-.642-.052s-.436-.434-.571-.434a3.614,3.614,0,0,0-.872.221,3.445,3.445,0,0,1-.366.077,1.044,1.044,0,0,1-.766-.071,1.066,1.066,0,0,1-.517-.576,2.333,2.333,0,0,1-.089-1.3c.057-.246.038-.214.2-.764.116-.4.218-.79.308-1.172a7.32,7.32,0,0,1,.533-1.425,5.075,5.075,0,0,0,.308-2.007v-.505c.051-.854-.045-1.871.077-2.674a2.767,2.767,0,0,1,.083-.349,14.666,14.666,0,0,1,.77-1.554,3.444,3.444,0,0,0,.166-1.23,5.366,5.366,0,0,0-.237-1.36c-.186-.686-.417-1.295-.59-1.942-.032-.13-.064-.272-.109-.415C71.427,29.314,71.029,28.207,70.349,28.026Z" fill="none" stroke="currentColor" stroke-linecap="round" stroke-linejoin="round" stroke-width="0.34"/><path d="M70.106,28.016c-.818-.178-.85,1.145-.862,1.712a6.86,6.86,0,0,0,.044.744,4.134,4.134,0,0,1,0,.738,6.778,6.778,0,0,1-.432,1.571,18.191,18.191,0,0,1-.574,1.807,3.561,3.561,0,0,1-.569.9A29.426,29.426,0,0,1,65.538,37.9a2.963,2.963,0,0,1-1.044.636,8.664,8.664,0,0,0-1.3.222,1.254,1.254,0,0,0-.475.4c-.331.42-.482,1-1.006,1.215-.806.324-1.075-.293-1.357-.7-.7-1.018-3.024-.833-3.268.248a.882.882,0,0,0,.063.566c.212.471-.332-.337-.088.127a2.541,2.541,0,0,0,.213.439c.281.484.656.687.925,1.152a5.193,5.193,0,0,1,.218,2.481v.229a2.586,2.586,0,0,0,.213.941,4.624,4.624,0,0,0,.575,1.177l.087.1c.581.636,1.369.808,1.481,1.743a1.626,1.626,0,0,1,0,.312c-.044.986-.175,1.545.625,2.15.35.267.7.458,1.019.7.137.1.262.2.393.293a8.145,8.145,0,0,1,.707.592l.143.133c.15.14.325.236.456.382a5.04,5.04,0,0,0,.469.42,2.173,2.173,0,0,1,.388.547,12.677,12.677,0,0,0,1.043,2.214,2.149,2.149,0,0,0,.55.483,5.96,5.96,0,0,0,1.387.477,3.907,3.907,0,0,0,.532.134c.306.051.718.14,1.05.2a1.683,1.683,0,0,0,1.349-.095c.532-.4.475-1.2.888-1.705A5.1,5.1,0,0,1,73.437,55l.519-.261c.337-.171.7-.324,1.081-.5a5.888,5.888,0,0,0,1.212-.636c.625-.464.819-1.228,1.469-1.762.112-.089.225-.178.343-.254a7.494,7.494,0,0,0,1.563-1.133,20.542,20.542,0,0,1,1.981-2.01c.625-.56,1.249-1.164,1.918-1.737s1.494-1.272,2.312-1.857c.4-.3,1.481-.859,1.075-1.152a.368.368,0,0,0-.187-.114,3.322,3.322,0,0,0-1.819.165,9.883,9.883,0,0,0-1.631.586,35.377,35.377,0,0,0-3.793,2.073c-.581.35-1.137.637-1.7.948l-.281.166a2.564,2.564,0,0,1-1.494.534,3.475,3.475,0,0,1-1.206-.42,5.973,5.973,0,0,0-.587-.254c-.206-.077-.438-.064-.625-.147s-.431-.343-.625-.369a3.542,3.542,0,0,0-.875.1c-.131,0-.256.038-.362.045-.625,0-1.019-.128-1.2-.725a2.626,2.626,0,0,1-.05-1.273,6.585,6.585,0,0,1,.187-.757c.113-.381.219-.763.319-1.126a12.047,12.047,0,0,1,.575-1.355,5.508,5.508,0,0,0,.375-1.908v-.5c0-.859-.081-1.813-.056-2.634a3.02,3.02,0,0,1,0-.356,8.7,8.7,0,0,1,.45-1.648,5.711,5.711,0,0,0,.162-1.215,3.875,3.875,0,0,0-.219-1.38c-.206-.636-.5-1.272-.731-1.909-.044-.114-.087-.248-.15-.394C71.181,29.181,70.731,28.156,70.106,28.016Z" fill="none" stroke="currentColor" stroke-linecap="round" stroke-linejoin="round" stroke-width="0.34"/><path d="M70.124,27.01c-.862-.148-.855,1.381-.849,1.975a5.67,5.67,0,0,0,.082.813,4.487,4.487,0,0,1,.056.827,6.659,6.659,0,0,1-.446,1.736,17.368,17.368,0,0,1-.63,1.987,3.26,3.26,0,0,1-.629.969,35.233,35.233,0,0,1-2.518,2.536A2.843,2.843,0,0,1,64,38.5c-.472.1-1.007-.078-1.473.116a1.178,1.178,0,0,0-.516.445c-.334.484-.466,1.149-1.064,1.362-.931.329-1.183-.549-1.441-1.117-.629-1.432-3.379-1.181-3.5.071a1.163,1.163,0,0,0,.151.646c.315.561-.365-.491-.044.071a3.392,3.392,0,0,0,.315.477c.409.51.925.723,1.372,1.227a3.785,3.785,0,0,1,.629,2.581V44.6a5.19,5.19,0,0,0,.126.994,3.657,3.657,0,0,0,.472,1.291l.082.116c.547.7,1.3.955,1.384,1.885a1.808,1.808,0,0,1,0,.329c-.069,1.052-.17,1.51.718,2.136a8.44,8.44,0,0,1,.981.82c.12.116.24.233.366.342a7.8,7.8,0,0,0,.723.6l.176.11c.189.116.391.187.573.3s.378.207.56.343a1.852,1.852,0,0,1,.447.529c.416.723.629,1.607,1,2.3a3.972,3.972,0,0,0,.472.69,4.634,4.634,0,0,0,1.409.988,3.6,3.6,0,0,0,.536.226,10.3,10.3,0,0,0,1.051.3,1.392,1.392,0,0,0,.693.089,1.415,1.415,0,0,0,.653-.256c.516-.51.321-1.446.7-2.059a3.567,3.567,0,0,1,1.724-1.239,6.108,6.108,0,0,1,.592-.233c.384-.135.824-.239,1.258-.368a4.386,4.386,0,0,0,1.354-.606c.686-.5.793-1.408,1.453-1.975a3.622,3.622,0,0,1,.365-.278,6.313,6.313,0,0,0,1.624-1.239,14.459,14.459,0,0,1,2.127-2.246c.712-.646,1.4-1.291,2.1-1.9a29.32,29.32,0,0,1,2.518-2.046c.384-.277,1.661-.871,1.258-1.233a.54.54,0,0,0-.239-.141,3.366,3.366,0,0,0-1.856.045,11.983,11.983,0,0,0-1.7.561,25.049,25.049,0,0,0-3.877,1.988c-.586.361-1.139.7-1.674,1.065l-.271.194a2.227,2.227,0,0,1-1.473.6,3.193,3.193,0,0,1-1.2-.452c-.195-.11-.39-.206-.579-.3s-.428-.148-.629-.239a4.3,4.3,0,0,0-.629-.316,3.2,3.2,0,0,0-.907,0H72.51c-.586,0-1-.135-1.158-.8a3.154,3.154,0,0,1,0-1.291c.05-.252.082-.413.182-.768s.233-.768.346-1.117c.164-.5.353-.935.535-1.413A6.3,6.3,0,0,0,72.837,39v-.5c0-.89-.12-1.82-.189-2.678v-.368a7.087,7.087,0,0,1,.17-1.82c.069-.375.113-.781.158-1.246a3.2,3.2,0,0,0-.2-1.394,18.619,18.619,0,0,0-.887-1.859c-.057-.11-.12-.245-.2-.387C71.327,28.088,70.767,27.113,70.124,27.01Z" fill="none" stroke="currentColor" stroke-linecap="round" stroke-linejoin="round" stroke-width="0.34"/><path d="M54.274,40.186c.616.932,1.472,1.109,2.3,1.769a3.529,3.529,0,0,1,1.1,2.752,4.242,4.242,0,0,0,.486,2.447c.584.83,1.426,1.147,1.3,2.3s-.143,1.414.836,2.048c.817.52,1.2,1.465,2.075,1.9.758.362,1.581.279,2.1,1.046.648.939.784,2.2,1.381,3.171a4.9,4.9,0,0,0,2.068,1.9c.648.3,1.893.811,2.45.158s.169-1.648.519-2.339a3.541,3.541,0,0,1,2.5-1.535,8.6,8.6,0,0,0,3.021-.773c.816-.564.784-1.535,1.478-2.131s1.51-.767,2.107-1.553a12.341,12.341,0,0,1,2.334-2.384A65.1,65.1,0,0,1,87.454,44.8c.428-.273,2.334-1.015,1.18-1.433s-2.593.069-3.741.437a19.349,19.349,0,0,0-6,3.17c-1.031.85-1.543.831-2.71.178a5.915,5.915,0,0,0-2.9-1.04c-.765,0-1.368,0-1.536-.856a6.058,6.058,0,0,1,.577-3.1,11.311,11.311,0,0,0,1.037-3.335,12.746,12.746,0,0,0-.389-3.5,7.871,7.871,0,0,1,.039-3.17c.182-1.211-.648-2.181-1.3-3.17-.382-.59-1.2-1.9-2-1.979-.934-.1-.889,1.579-.863,2.175s.227,1.154.221,1.744a6.118,6.118,0,0,1-.486,1.838c-.389,1.18-.48,2.251-1.472,3.113s-1.9,1.833-2.956,2.587a3.12,3.12,0,0,1-1.381.634c-.551.083-1.167-.184-1.692,0-.927.349-.752,1.662-1.712,1.947-1.082.31-1.3-.793-1.562-1.5-.733-2.067-4.856-1.344-3.566.59C54.7,40.813,53.853,39.558,54.274,40.186Z" fill="none" stroke="currentColor" stroke-linecap="round" stroke-linejoin="round" stroke-width="0.34"/><path d="M54.649,40.81c.628.913,1.437,1.19,2.146,1.92a3.72,3.72,0,0,1,.785,2.819c0,.749-.2,1.756.269,2.41s1.218.932,1.205,1.888S59.1,50.974,60,51.5s1.318,1.4,2.159,1.888,1.575.5,2.133,1.291c.665.925.916,2.12,1.55,3.077A4.4,4.4,0,0,0,68,59.583c.659.252,1.882.73,2.46.12s.313-1.668.533-2.411c.333-1.12,1.7-1.346,2.648-1.7a9.28,9.28,0,0,0,2.586-1.032c.746-.579.746-1.391,1.355-1.945a10.453,10.453,0,0,0,1.883-1.567A11.274,11.274,0,0,1,81.715,48.6c1.537-1.259,2.993-2.7,4.624-3.826.515-.359,2.241-1.114,1.462-1.548a4.333,4.333,0,0,0-2.685,0,15.9,15.9,0,0,0-5.648,2.63,2.263,2.263,0,0,1-2.761.246,6.463,6.463,0,0,0-2.943-.806c-.785,0-1.444.183-1.714-.529a4.5,4.5,0,0,1,.1-2.687,18.691,18.691,0,0,0,.922-3.191,12.673,12.673,0,0,0-.307-3.505,9.481,9.481,0,0,1-.063-3.2,5,5,0,0,0-.973-3.146c-.37-.63-1.179-1.788-1.882-2-.854-.251-.929.951-1.092,1.366a7.81,7.81,0,0,0-.188,1.605c-.094.761-.232,1.422-.377,2.139a5.047,5.047,0,0,1-1.311,3.147c-.967.875-1.851,1.592-2.787,2.379a2.57,2.57,0,0,1-1.418.856,11.985,11.985,0,0,0-2.071-.038c-.872.252-.834,1.372-1.725,1.6s-1.255-.673-1.538-1.258c-.809-1.63-4.2-.862-3.137.919C54.549,40.666,54.065,39.98,54.649,40.81Z" fill="none" stroke="currentColor" stroke-linecap="round" stroke-linejoin="round" stroke-width="0.34"/><path d="M55.141,41.965c.624.915,1.434,1.288,2.051,2.125a4.159,4.159,0,0,1,.511,2.988c-.068.683-.392,1.823.063,2.441s1.016.747,1.115,1.494.25.843,1.1,1.288,1.478,1.4,2.307,1.932A7.034,7.034,0,0,1,64.491,55.8c.692.94,1.06,2.106,1.746,3.065A4.18,4.18,0,0,0,68.53,60.64c.692.206,1.87.644,2.531.09s.43-1.758.548-2.576c.206-1.4,1.87-1.4,2.861-1.931A10.958,10.958,0,0,0,76.7,54.89c.573-.509.723-1.288,1.247-1.816A9.523,9.523,0,0,0,79.6,51.483a10.633,10.633,0,0,1,2.288-2.447c1.421-1.185,2.774-2.524,4.263-3.613.624-.444,2.219-1.243,1.771-1.7s-1.054-.348-1.746-.418c-1.284-.136-4.126,1.217-5.5,2.125a2.887,2.887,0,0,1-1.4.552,2.856,2.856,0,0,1-1.481-.23,7.262,7.262,0,0,0-3.061-.586c-.81.083-1.533.373-1.92-.213a3.316,3.316,0,0,1-.349-2.357c.162-1.017.73-2.131.836-3.22a13.851,13.851,0,0,0-.187-3.625,11.4,11.4,0,0,1-.162-3.323,5.672,5.672,0,0,0-.717-3.22A6.031,6.031,0,0,0,70.4,27.122c-.8-.413-.972.334-1.334.592s-.442.76-.623,1.507a24.044,24.044,0,0,0-.281,2.511A4.643,4.643,0,0,1,66.972,35c-.866.8-1.87,1.411-2.7,2.241-.48.47-.711.986-1.465,1.05a17.683,17.683,0,0,0-2.493-.084c-.8.181-.935,1.127-1.776,1.288s-1.247-.573-1.553-1.017c-.891-1.224-3.671-.4-2.829,1.288A4.25,4.25,0,0,0,55.141,41.965Z" fill="none" stroke="currentColor" stroke-linecap="round" stroke-linejoin="round" stroke-width="0.34"/><path d="M55.519,42.74c.619.889,1.423,1.391,1.956,2.255a3.957,3.957,0,0,1,.241,3.043c-.111.6-.582,1.83-.142,2.389s.99.527,1.039,1.061c.242.426.458.521,1.238.9A19.03,19.03,0,0,1,62.3,54.29a8.906,8.906,0,0,1,2.3,1.81c.731.921,1.238,2.008,1.943,2.935a3.935,3.935,0,0,0,2.433,1.652c.718.159,1.931.584,2.593.057s.545-1.791.576-2.617c.055-1.639,2.061-1.372,3.063-2.09a14.954,14.954,0,0,0,1.857-1.582c.483-.483.7-1.131,1.182-1.62a9.245,9.245,0,0,0,1.5-1.576,10,10,0,0,1,2.3-2.414c1.3-1.067,2.55-2.249,3.893-3.259.693-.521,2.1-1.271,2.073-1.792a1.821,1.821,0,0,0-.81-.844c-.96-.566-4.11.876-5.329,1.55a3.98,3.98,0,0,1-2.983.406,8.859,8.859,0,0,0-3.175-.349c-.842.133-1.6.565-2.129.121a2.319,2.319,0,0,1-.619-.857,2.381,2.381,0,0,1-.18-1.049c.043-.953.619-2.1.749-3.107a13.546,13.546,0,0,0-.1-3.653,13.671,13.671,0,0,1-.266-3.329,6.081,6.081,0,0,0-.47-3.233,7.5,7.5,0,0,0-1.777-2.1c-.736-.566-1.015-.286-1.578-.216s-.767.553-.978,1.366a10.4,10.4,0,0,0-.192,2.789,4.125,4.125,0,0,1-1.07,3.271c-.824.769-1.857,1.182-2.606,2.014-.514.553-.656,1.182-1.529,1.271s-1.962-.286-2.909-.127c-.792.133-1.033.832-1.856.946s-1.2-.444-1.566-.743c-.947-.775-3.151.076-2.513,1.595A5.857,5.857,0,0,0,55.519,42.74Z" fill="none" stroke="currentColor" stroke-linecap="round" stroke-linejoin="round" stroke-width="0.34"/><path d="M54.978,43.739a17.489,17.489,0,0,1,1.94,2.486,4.264,4.264,0,0,1-.032,3.24c-.142.538-.8,1.922-.356,2.447.349.4.906.328,1.009.656.362.21.7.21,1.468.518a13.511,13.511,0,0,1,2.723,1.968,12.727,12.727,0,0,1,2.5,2.138c.8.945,1.436,1.968,2.244,2.946a4.037,4.037,0,0,0,1.191,1.079,3.971,3.971,0,0,0,1.512.521c.8.118,2.07.525,2.8,0,.886-.6.646-1.9.646-2.8-.11-1.968,2.367-1.39,3.447-2.341a24.123,24.123,0,0,0,1.617-1.916c.427-.472.718-1.023,1.158-1.495a9.733,9.733,0,0,0,1.293-1.595A9.922,9.922,0,0,1,82.56,49.1c1.255-1,2.451-2.079,3.719-3.05.821-.656,2.16-1.358,2.5-1.968.039-.433.4-.84.117-1.312-.647-1.089-4.32.551-5.426,1.03a6.541,6.541,0,0,1-3.279.465,11.727,11.727,0,0,0-3.46-.118c-.918.191-1.733.755-2.451.459a1.941,1.941,0,0,1-.871-.613A1.982,1.982,0,0,1,72.983,43c-.078-.932.575-2.158.7-3.136a13.29,13.29,0,0,0,0-3.758,17.644,17.644,0,0,1-.375-3.49,7.1,7.1,0,0,0-.22-3.352,10.388,10.388,0,0,0-1.811-2.21,2.733,2.733,0,0,0-.848-.721,2.7,2.7,0,0,0-1.06-.322c-.7-.105-1.151.36-1.442,1.272a8.167,8.167,0,0,0-.11,3.214,3.984,3.984,0,0,1-1,3.424c-.8.775-1.862,1.03-2.625,1.89-.569.656-.647,1.43-1.669,1.482-1.157.059-2.347-.308-3.492-.177-.789.092-1.2.577-1.985.656a3.394,3.394,0,0,1-1.662-.512c-1.009-.367-2.775.571-2.309,1.968A8.016,8.016,0,0,0,54.978,43.739Z" fill="none" stroke="currentColor" stroke-linecap="round" stroke-linejoin="round" stroke-width="0.34"/><path d="M55.4,44.81a12.336,12.336,0,0,1,1.871,2.548,4.177,4.177,0,0,1-.309,3.243c-.173.446-1,1.911-.566,2.351.283.293.772.114.92.235a3.986,3.986,0,0,1,1.633.121,11.514,11.514,0,0,1,2.861,1.912,18.589,18.589,0,0,1,2.572,2.331c.836.918,1.595,1.912,2.45,2.778a3.866,3.866,0,0,0,2.848,1.459c.829.07,2.1.44,2.874,0,.971-.573.778-1.911.643-2.809-.3-2.154,2.572-1.326,3.658-2.46.579-.637.7-1.433,1.286-2.134.354-.44.7-.86,1.074-1.274a10.214,10.214,0,0,0,1.119-1.529,8.949,8.949,0,0,1,2.437-2.427c1.125-.867,2.218-1.784,3.349-2.657a29.31,29.31,0,0,0,2.8-2.045c.373-.4,1.17-1.071,1.074-1.708-.232-1.548-4.321.179-5.259.446a13.693,13.693,0,0,1-3.4.523,16.106,16.106,0,0,0-3.581.114c-.952.236-1.788.867-2.669.778-.643-.064-1.581-.351-1.768-1.166s.482-2.09.643-2.969a13.107,13.107,0,0,0,.077-3.663,22.376,22.376,0,0,1-.482-3.447c0-1.1.5-2.268.045-3.281A18.623,18.623,0,0,0,71.854,27.9a4.011,4.011,0,0,0-2.167-1.816c-.88-.267-1.491.153-1.845,1.115a6.416,6.416,0,0,0,0,3.434,3.588,3.588,0,0,1-.881,3.377c-.771.713-1.877.79-2.572,1.631-.585.739-.572,1.6-1.729,1.65-1.286.044-2.617-.3-3.922-.223-.74.051-1.286.286-2.038.286s-1.164-.254-1.672-.248a2.041,2.041,0,0,0-1.993,2.274A9.711,9.711,0,0,0,55.4,44.81Z" fill="none" stroke="currentColor" stroke-linecap="round" stroke-linejoin="round" stroke-width="0.34"/><path d="M53.006,38.883a11.7,11.7,0,0,0,2.817,6.5A9.056,9.056,0,0,1,57.6,48.111a4.147,4.147,0,0,1-.587,3.336c-.192.369-1.2,1.907-.767,2.32.211.184.639-.1.837-.178a2.737,2.737,0,0,1,1.788-.273,9.139,9.139,0,0,1,3,1.906,28.329,28.329,0,0,1,2.663,2.58q1.278,1.367,2.651,2.682a3.792,3.792,0,0,0,2.989,1.36c.863,0,2.14.375,2.939-.038,1.066-.553.875-1.906.639-2.9-.5-2.383,2.81-1.271,3.87-2.637.531-.68.409-1.665.907-2.4a10.688,10.688,0,0,1,.984-1.106,10.236,10.236,0,0,0,.92-1.512,8.426,8.426,0,0,1,2.446-2.415c1.01-.769,1.993-1.557,2.983-2.345a36.333,36.333,0,0,1,3.111-2.155c.639-.406,1.917-1.271,2.019-2.128.2-2-4.325-.21-5.11-.109-1.188.153-2.338.433-3.514.591a25.086,25.086,0,0,0-3.7.35,18.63,18.63,0,0,1-2.875,1.1c-.7.082-1.916,0-2.216-.776s.389-2.078.523-2.891a12.87,12.87,0,0,0,.2-3.7,30.9,30.9,0,0,1-.524-3.464c0-1.074.722-2.281.3-3.3-.345-.82-1.277-1.411-1.693-2.212a5.2,5.2,0,0,0-2.408-2.612,1.558,1.558,0,0,0-1.928.358,1.548,1.548,0,0,0-.32.621,6.053,6.053,0,0,0,.083,3.743,3.37,3.37,0,0,1-.76,3.419c-.728.68-1.853.591-2.459,1.436s-.518,1.8-1.789,1.844c-1.444.044-2.894-.28-4.344-.268a16.4,16.4,0,0,1-2.114-.069,3.961,3.961,0,0,0-1.686,0,2.609,2.609,0,0,0-1.655,2.611Z" fill="none" stroke="currentColor" stroke-linecap="round" stroke-linejoin="round" stroke-width="0.34"/><path d="M54.907,35.873A2.933,2.933,0,0,0,53.571,36.9a2.991,2.991,0,0,0-.562,1.6,9.843,9.843,0,0,0,.709,4.111,11.1,11.1,0,0,0,1.708,2.768c.329.43.671.867.981,1.323a6.421,6.421,0,0,1,.848,1.567,1.24,1.24,0,0,0,.07.251,4.01,4.01,0,0,1-.551,2.781c-.063.148-.133.3-.19.45-.189.481-.968,2.016-.537,2.479.2.218.594,0,.816,0a4.127,4.127,0,0,1,1.848-.122,6.664,6.664,0,0,1,2.613,1.361l.563.476a23.713,23.713,0,0,1,1.962,1.985l.734.815.31.366A12.09,12.09,0,0,1,65.8,60.4a5.007,5.007,0,0,0,1.316,1.252l.064.052A4.9,4.9,0,0,0,70.3,62.888c.873,0,2.139.314,2.955-.11a1.448,1.448,0,0,0,.373-.263c.678-.642.57-1.8.443-2.665a2.766,2.766,0,0,1,0-.643c.121-.963,1.026-1.117,2.006-1.368A2.412,2.412,0,0,0,77,57.513a2.453,2.453,0,0,0,.721-.663,3.7,3.7,0,0,0,.355-1.034,4.2,4.2,0,0,1,.531-1.426c.291-.417.633-.758.943-1.175a15.086,15.086,0,0,0,.81-1.568,5.414,5.414,0,0,1,1.31-1.554,14.526,14.526,0,0,1,1.171-.918c.588-.437,1.177-.874,1.753-1.323l1.265-.99c.747-.571,1.525-1.092,2.291-1.618l.829-.578c.633-.476,1.848-1.381,2-2.229.2-1.169-1.019-1.285-2.3-1.169a19.957,19.957,0,0,0-2.075.347l-.374.07c-.632.129-1.17.315-1.778.456a12.89,12.89,0,0,1-1.31.212c-.259,0-.519.052-.772.071a12.489,12.489,0,0,0-2.9.4,9.207,9.207,0,0,0-.912.334,7.032,7.032,0,0,1-1.5.463,3.687,3.687,0,0,1-.443.051,10.569,10.569,0,0,1-1.266-.167,1.366,1.366,0,0,1-.949-.449A1.587,1.587,0,0,1,74.3,42.1a12.221,12.221,0,0,0,.108-1.324c0-.379,0-.783.037-1.2A21.6,21.6,0,0,0,74.55,37a7.035,7.035,0,0,0-.127-.97c-.164-.867-.468-1.663-.55-2.53a3.636,3.636,0,0,1,.051-.977,5.79,5.79,0,0,0,.24-2.37,3.73,3.73,0,0,0-.316-.745,11.461,11.461,0,0,0-1.184-1.5l-.392-.546a6.436,6.436,0,0,0-1.993-2.068,1.583,1.583,0,0,0-.589-.26,1.565,1.565,0,0,0-1.23.256,1.594,1.594,0,0,0-.441.473,2.729,2.729,0,0,0-.316.591,4.7,4.7,0,0,0-.26,2.1,1.24,1.24,0,0,0,.038.366,8.247,8.247,0,0,1,.083,1.285,3.06,3.06,0,0,1-.45,1.528,4.633,4.633,0,0,1-.538.694c-.145.161-.284.3-.417.418-.412.372-.867.513-1.221,1.021a2.809,2.809,0,0,0-.159.27c-.468.886-.487,1.862-1.689,2.01h-.171a22.226,22.226,0,0,1-3.911-.148h-.3l-1.784-.109h-.329A4.213,4.213,0,0,0,54.907,35.873Z" fill="none" stroke="currentColor" stroke-linecap="round" stroke-linejoin="round" stroke-width="0.34"/><path d="M55.185,35.194A3.331,3.331,0,0,0,53.8,36.213a3.386,3.386,0,0,0-.7,1.583,9.96,9.96,0,0,0,.319,4.211,8.74,8.74,0,0,0,1.715,2.843c.332.449.626.912.97,1.38a8.525,8.525,0,0,1,.908,1.6c.031.082.062.171.087.253.338,1.115-.269,1.849-.663,2.818-.056.152-.119.3-.169.469-.182.582-.739,2.051-.319,2.577.2.253.563.183.8.164a6.537,6.537,0,0,1,1.915,0,6.277,6.277,0,0,1,2.791,1.317c.2.165.395.336.576.5a25.951,25.951,0,0,1,1.928,2.064c.25.285.519.57.764.861.106.127.206.26.3.393a8,8,0,0,1,.738,1.393A2.754,2.754,0,0,0,67.1,61.845l.069.038a6.925,6.925,0,0,0,3.317,1.032,6.43,6.43,0,0,0,2.967-.177,1.724,1.724,0,0,0,.369-.247,3.113,3.113,0,0,0,.583-2.641,3.522,3.522,0,0,1,0-.633c.137-.988.963-1.178,1.927-1.488a2.042,2.042,0,0,0,.861-.4,2.072,2.072,0,0,0,.591-.75,5.99,5.99,0,0,0,.288-1.051,4.166,4.166,0,0,1,.582-1.406,13.806,13.806,0,0,0,.939-1.229c.282-.512.432-1.051.7-1.589a4.983,4.983,0,0,1,1.29-1.538,13.213,13.213,0,0,1,1.182-.9c.626-.424,1.2-.842,1.784-1.266l1.3-.95c.764-.551,1.552-1.057,2.31-1.6.269-.191.538-.387.8-.6a5.568,5.568,0,0,0,1.978-2.267C91.23,41.1,90.4,40.7,89.3,40.563a6.917,6.917,0,0,0-2.035.114l-.363.089c-.588.164-1.12.411-1.727.57a8.4,8.4,0,0,1-1.308.208c-.257,0-.513.045-.77.07a14.239,14.239,0,0,0-2.873.513c-.307.095-.626.2-.92.3a4.936,4.936,0,0,1-1.5.272,2.136,2.136,0,0,1-.451-.038,10.578,10.578,0,0,0-1.2-.2,2.408,2.408,0,0,1-.932-.19c-.169-.108-.188-.266-.257-.526s-.144-.69-.238-1.089a5.2,5.2,0,0,1-.131-1.159c0-.861.188-1.7.188-2.533A5.638,5.638,0,0,0,74.7,36c-.113-.842-.52-1.6-.676-2.444a3.05,3.05,0,0,1,0-.963,10.866,10.866,0,0,0,.3-2.349,4.5,4.5,0,0,0-.175-.76,3.532,3.532,0,0,0-1.127-1.469l-.463-.456a11.619,11.619,0,0,0-1.934-2.14,1.8,1.8,0,0,0-2.259-.051,2.976,2.976,0,0,0-.407.361,2.333,2.333,0,0,0-.732,1.571,2.249,2.249,0,0,0,0,.367c.032.436.042.874.031,1.311a2.985,2.985,0,0,1-.507,1.507c-.175.247-.369.468-.545.69a3.974,3.974,0,0,0-.313.475,9.67,9.67,0,0,0-.694,1.152l-.113.292c-.332.911-.457,1.9-1.583,2.127l-.176.038a12.477,12.477,0,0,1-3.943,0l-.307-.038c-.625-.076-1.17-.164-1.8-.19h-.338A4.379,4.379,0,0,0,55.185,35.194Z" fill="none" stroke="currentColor" stroke-linecap="round" stroke-linejoin="round" stroke-width="0.34"/><path d="M55.627,34.871a3.908,3.908,0,0,0-2.352,2.623,10.021,10.021,0,0,0-.057,4.41,7.392,7.392,0,0,0,1.75,2.981c.348.478.672.97.989,1.474a12.517,12.517,0,0,1,.97,1.666c.038.082.063.172.095.255.412,1.187-.393,1.914-.78,2.923a3.281,3.281,0,0,0-.159.5c-.177.7-.532,2.125-.107,2.731a1.067,1.067,0,0,0,.8.338c.595.115,1.267.051,2.022.173a6.255,6.255,0,0,1,2.954,1.167c.21.179.413.358.6.536.735.7,1.382,1.5,2.041,2.26.266.306.545.6.8.919a4.584,4.584,0,0,1,.3.427,6.122,6.122,0,0,1,.59,1.551c.216.728.793.964,1.42,1.2l.083.032a10.972,10.972,0,0,0,3.582.9,6.492,6.492,0,0,0,3.049-.237,1.808,1.808,0,0,0,.387-.248,3.247,3.247,0,0,0,.729-2.668,4.246,4.246,0,0,1,0-.638c.146-1.04.919-1.277,1.9-1.64a1.909,1.909,0,0,0,1.306-1.347c.095-.338.14-.715.228-1.091a3.932,3.932,0,0,1,.634-1.417,7.29,7.29,0,0,0,.869-1.276c.247-.537.349-1.092.634-1.641a4.77,4.77,0,0,1,1.319-1.57,10.9,10.9,0,0,1,1.223-.9c.634-.422,1.268-.83,1.858-1.277.45-.319.913-.638,1.376-.938.8-.536,1.623-1.04,2.384-1.6a9.451,9.451,0,0,0,.805-.638,6.758,6.758,0,0,0,2-2.361,1.538,1.538,0,0,0-1.027-2.119,3.738,3.738,0,0,0-2.035-.108,2.606,2.606,0,0,0-.368.1c-.6.2-1.1.517-1.718.7a6.879,6.879,0,0,1-1.338.21,6.505,6.505,0,0,0-.786.064,16.142,16.142,0,0,0-2.916.638c-.317.1-.635.192-.952.275a4.13,4.13,0,0,1-1.546.095,2.933,2.933,0,0,1-.444-.108,3.644,3.644,0,0,0-1.2-.281,4.864,4.864,0,0,0-.932.1.441.441,0,0,1-.231,0,.45.45,0,0,1-.2-.119,2.557,2.557,0,0,1-.577-.875,2.894,2.894,0,0,1-.247-1.142,25.442,25.442,0,0,1,.279-2.553,4.552,4.552,0,0,0-.038-.976,22.864,22.864,0,0,0-.856-2.444,2.9,2.9,0,0,1-.089-.977c.057-.862.362-1.634.381-2.38a6.427,6.427,0,0,0-.051-.785c-.044-.785-.551-1.079-1.078-1.462l-.513-.421c-.786-.676-1.122-1.589-1.9-2.227a2.523,2.523,0,0,0-2.327-.568,3.829,3.829,0,0,0-.5.147c-.418.178-1.014.165-1.23,1.078-.023.12-.04.242-.051.364V28.03a2.926,2.926,0,0,1-.589,1.525c-.2.262-.412.479-.564.715a1.4,1.4,0,0,0-.216.53c-.083.5-.12.74-.241,1.359a1.476,1.476,0,0,1-.063.306c-.21.971-.438,1.953-1.522,2.3l-.171.057a9.23,9.23,0,0,1-4.077.1l-.317-.057a11.01,11.01,0,0,0-1.851-.275h-.349A4.938,4.938,0,0,0,55.627,34.871Z" fill="none" stroke="currentColor" stroke-linecap="round" stroke-linejoin="round" stroke-width="0.34"/><path d="M55.134,34.772a4.609,4.609,0,0,0-2.6,2.636,10.067,10.067,0,0,0-.441,4.57c.128,1.277,1.047,2.106,1.774,3.1.364.5.677,1.027,1,1.557a19.448,19.448,0,0,1,1.04,1.717c.039.083.071.172.109.255.485,1.277-.517,1.915-.9,3.013a3.072,3.072,0,0,0-.153.517A4.745,4.745,0,0,0,55.083,55a1.354,1.354,0,0,0,.792.517,11.921,11.921,0,0,0,2.118.312,6.209,6.209,0,0,1,3.191,1.079c.217.179.427.37.638.562.759.746,1.41,1.6,2.1,2.412.268.319.568.639.823.964a3.6,3.6,0,0,1,.3.46,4.847,4.847,0,0,1,.433,1.7c.147.83.779,1.015,1.494,1.181h.089a20.892,20.892,0,0,0,3.829.772A6.579,6.579,0,0,0,74,64.649a2.164,2.164,0,0,0,.4-.242,3.35,3.35,0,0,0,.881-2.681,5.028,5.028,0,0,1,.044-.638c.16-1.085.868-1.353,1.845-1.788a1.755,1.755,0,0,0,1.142-1.519c.057-.357.076-.74.166-1.129a3.838,3.838,0,0,1,.695-1.417A5.293,5.293,0,0,0,80,53.907c.2-.561.255-1.123.517-1.685a4.483,4.483,0,0,1,1.34-1.583,13.455,13.455,0,0,1,1.276-.9c.639-.415,1.277-.81,1.915-1.232.459-.312.944-.638,1.423-.912.836-.517,1.678-1.021,2.444-1.6.274-.2.542-.421.8-.638a8.471,8.471,0,0,0,2-2.432,2.057,2.057,0,0,0-.4-2.6,2.505,2.505,0,0,0-2.016-.338,3.7,3.7,0,0,0-.371.115c-.593.242-1.072.638-1.7.83a5.483,5.483,0,0,1-1.353.21,3.411,3.411,0,0,0-.8.064,19.47,19.47,0,0,0-2.942.734,9.729,9.729,0,0,1-.97.236,3.287,3.287,0,0,1-1.582-.083,2.691,2.691,0,0,1-.434-.178,2.334,2.334,0,0,0-1.193-.352,1.654,1.654,0,0,0-.926.364c-.217.166-.344.326-.638.3a1.426,1.426,0,0,1-.925-.638,2.18,2.18,0,0,1-.389-1.123,12.017,12.017,0,0,1,.363-2.553,3.421,3.421,0,0,0,0-.99,11.872,11.872,0,0,0-1.008-2.406,2.559,2.559,0,0,1-.159-.976,14.957,14.957,0,0,1,.446-2.394c.045-.268.064-.536.09-.811.076-.855-.479-1.116-1.053-1.448-.2-.109-.389-.224-.581-.352-.887-.638-1.142-1.576-1.876-2.3a3.835,3.835,0,0,0-2.374-1.085c-.217,0-.415-.063-.6-.076-.491-.032-1.365-.345-1.729.574a1.751,1.751,0,0,0-.089.37c-.058.447,0,.951-.071,1.385a2.858,2.858,0,0,1-.638,1.545,4.035,4.035,0,0,0-.581.721.974.974,0,0,0-.108.594,9.823,9.823,0,0,1,.243,1.525,3.064,3.064,0,0,1,0,.332,2.649,2.649,0,0,1-1.443,2.445l-.178.07a7.379,7.379,0,0,1-4.18.223l-.383-.121a8.043,8.043,0,0,0-1.914-.351h-.319A5.693,5.693,0,0,0,55.134,34.772Z" fill="none" stroke="currentColor" stroke-linecap="round" stroke-linejoin="round" stroke-width="0.34"/><path d="M55.7,34.1a5.375,5.375,0,0,0-2.849,2.6,9.8,9.8,0,0,0-.826,4.662c.039,1.347,1.044,2.152,1.793,3.146.377.516.685,1.064,1.011,1.611s.794,1.145,1.1,1.749c.045.088.084.17.122.258.563,1.3-.64,1.925-1.018,3.045a3.222,3.222,0,0,0-.134.535,5.213,5.213,0,0,0,.339,2.957,1.734,1.734,0,0,0,.781.68,6.99,6.99,0,0,0,2.215.453,6.386,6.386,0,0,1,3.361.969,8.386,8.386,0,0,1,.64.591c.781.774,1.44,1.68,2.145,2.517.275.327.595.629.851,1a2.926,2.926,0,0,1,.3.485,4.579,4.579,0,0,1,.275,1.818c.071.925.762,1.057,1.556,1.145h.1c1.376.158,2.637.535,4.071.63a6.821,6.821,0,0,0,3.2-.372,2.6,2.6,0,0,0,.4-.232A3.387,3.387,0,0,0,76.158,61.7a1.962,1.962,0,0,1,.064-.629c.172-1.114.819-1.416,1.792-1.888a1.68,1.68,0,0,0,.761-.687,1.642,1.642,0,0,0,.212-.993,6.636,6.636,0,0,1,.109-1.151,3.581,3.581,0,0,1,.743-1.391,4.078,4.078,0,0,0,.806-1.365,12.4,12.4,0,0,1,.41-1.7,4.3,4.3,0,0,1,1.363-1.579,13.779,13.779,0,0,1,1.281-.888c.64-.4,1.325-.773,1.978-1.182.474-.3.967-.592,1.472-.875a23.714,23.714,0,0,0,2.478-1.56c.269-.208.537-.434.794-.673a11.206,11.206,0,0,0,2-2.473c.512-.919.864-2.209.25-3.033a1.878,1.878,0,0,0-.914-.573,1.9,1.9,0,0,0-1.083.019,2.714,2.714,0,0,0-.372.126c-.589.271-1.037.717-1.671.944a4.841,4.841,0,0,1-1.369.2,3.579,3.579,0,0,0-.814.063,22.35,22.35,0,0,0-2.963.856,6.7,6.7,0,0,1-1,.2,2.9,2.9,0,0,1-1.607-.264,3.181,3.181,0,0,1-.422-.239,1.7,1.7,0,0,0-1.185-.422,1.386,1.386,0,0,0-.525.22,1.35,1.35,0,0,0-.39.41c-.237.3-.416.629-.781.7a1.417,1.417,0,0,1-.7-.049,1.393,1.393,0,0,1-.585-.373,1.787,1.787,0,0,1-.531-1.082,7.638,7.638,0,0,1,.448-2.517,2.825,2.825,0,0,0,.051-.987c-.115-.906-.787-1.536-1.158-2.335a2.343,2.343,0,0,1-.2-1.006,6.893,6.893,0,0,1,.525-2.379c.083-.264.153-.534.217-.818.224-.931-.358-1.145-1.011-1.409a6.351,6.351,0,0,1-.64-.289c-1.012-.573-1.184-1.542-1.857-2.341a5.848,5.848,0,0,0-2.413-1.579l-.7-.29c-.576-.232-1.722-.843-2.221.07a1.484,1.484,0,0,0-.135.365c-.1.446-.051.962-.121,1.4a2.789,2.789,0,0,1-.743,1.529,2.684,2.684,0,0,0-.595.73.844.844,0,0,0,0,.629c.2.629.64.95.742,1.668a3.175,3.175,0,0,1,.032.352,2.625,2.625,0,0,1-.3,1.479,2.689,2.689,0,0,1-1.069,1.082l-.173.088a6.382,6.382,0,0,1-4.269.333l-.34-.094a6.354,6.354,0,0,0-1.92-.428c-.122-.006-.244-.006-.365,0A6.2,6.2,0,0,0,55.7,34.1Z" fill="none" stroke="currentColor" stroke-linecap="round" stroke-linejoin="round" stroke-width="0.34"/><path d="M52,41.175c-.043,1.439,1.022,2.244,1.77,3.31a19.237,19.237,0,0,1,.985,1.7A23.972,23.972,0,0,1,56,48.264c.623,1.376-.729,1.972-1.1,3.17a5.688,5.688,0,0,0,.424,3.678c1.121,2.251,4.686.85,6.43,2.346a22.543,22.543,0,0,1,2.78,3.3,6.988,6.988,0,0,1,1.152,1.591,4.513,4.513,0,0,1,.113,1.978c0,1.072.791,1.129,1.67,1.135,1.433,0,2.779.394,4.193.508a5.708,5.708,0,0,0,3.521-.672c1.034-.717,1.053-2.207,1.246-3.342s.735-1.509,1.689-2.054c1.246-.73.561-1.9.816-3.063s1.3-1.674,1.521-2.828a9.345,9.345,0,0,1,.286-1.807,4.116,4.116,0,0,1,1.34-1.611,31,31,0,0,1,3.253-2.054,43.733,43.733,0,0,0,3.944-2.429,13.863,13.863,0,0,0,2.711-3.272c.567-.875,1.314-2.472.872-3.538a1.651,1.651,0,0,0-.419-.516,1.6,1.6,0,0,0-1.862-.118,15.925,15.925,0,0,1-1.595,1.072,9.639,9.639,0,0,1-2.137.266c-1.334.216-2.493,1.059-3.87,1.129a2.637,2.637,0,0,1-1.589-.444c-.461-.3-.916-.957-1.539-.812-.891.21-.928,1.643-1.807,2.023a1.622,1.622,0,0,1-.716.113,1.642,1.642,0,0,1-.695-.209,1.68,1.68,0,0,1-.539-.492,1.7,1.7,0,0,1-.281-.68c-.2-1.268.754-2.359.623-3.576s-1.483-1.9-1.582-3.3c-.088-1.269.523-2.144.928-3.253.486-1.345-.735-1.237-1.614-1.636-1.072-.489-1.153-1.535-1.745-2.429a10.586,10.586,0,0,0-3.146-2.612c-.623-.444-2.019-1.357-2.649-.438-.342.508-.23,1.268-.336,1.807a2.853,2.853,0,0,1-.8,1.56c-.467.463-.835.742-.5,1.446s.978,1.078,1.2,1.851a2.816,2.816,0,0,1-.109,1.845,2.76,2.76,0,0,1-1.224,1.364,5.317,5.317,0,0,1-4.231.456,7.054,7.054,0,0,0-2.25-.634,5.987,5.987,0,0,0-2.2.59C53.079,35.043,52.107,37.922,52,41.175Z" fill="none" stroke="currentColor" stroke-linecap="round" stroke-linejoin="round" stroke-width="0.34"/><path d="M56.36,31.772a2.777,2.777,0,0,0-1.106,1.285c-.158.314-.241.642-.677.835a4.751,4.751,0,0,0-1.707,1.445,7.284,7.284,0,0,0-1.177,1.824,8.127,8.127,0,0,0-.537,2.042c-.044.257-.082.514-.12.777a3.706,3.706,0,0,0,.145,1.657c.076.251.108.064.183.308a13.48,13.48,0,0,0,1.4,2.03,13.761,13.761,0,0,1,1.012,1.76l.076.154c.291.578.582,1.111.816,1.7l.133.354c.493,1.381-.569,2.094-.86,3.314a1.327,1.327,0,0,1-.051.257,6.949,6.949,0,0,0,0,2.164,4.184,4.184,0,0,0,.4,1.381,1.909,1.909,0,0,0,.829.745,6.11,6.11,0,0,0,1.935.475,8.678,8.678,0,0,1,3.6.938,3.782,3.782,0,0,1,.31.238,14.714,14.714,0,0,1,2.34,2.793l.468.681a19.352,19.352,0,0,1,1.182,1.632,2.491,2.491,0,0,1,.165.346,6.363,6.363,0,0,1,.291,1.433c.151.95.948,1.046,1.84,1.1h.069c1.448.122,2.808.5,4.269.54a5.915,5.915,0,0,0,3.389-.733,2.81,2.81,0,0,0,1.037-1.74c.12-.488.19-.983.272-1.432a2.7,2.7,0,0,1,1.619-2.011,1.754,1.754,0,0,0,.557-.507c.467-.642.208-1.484.461-2.318a.156.156,0,0,1,.044-.129c.336-.918,1.265-1.5,1.525-2.569a1.725,1.725,0,0,0,0-.591,3.559,3.559,0,0,1,.05-1.239,4.877,4.877,0,0,1,1.012-1.85,10.477,10.477,0,0,1,3.092-2.505c.955-.546,2.024-.912,3.01-1.451A8.878,8.878,0,0,0,89,45.992a14.477,14.477,0,0,0,1.164-1.079,12.712,12.712,0,0,0,1.9-2.344,4.941,4.941,0,0,0,.816-3.719,1.615,1.615,0,0,0-.769-.934,1.571,1.571,0,0,0-1.192-.126,5.532,5.532,0,0,0-.809.334,3.24,3.24,0,0,1-.727.238,10.891,10.891,0,0,1-2.024-.148,5.175,5.175,0,0,0-.557,0,16.73,16.73,0,0,1-3.237.347c-.121-.015-.242-.037-.361-.064a3.381,3.381,0,0,1-1.176-.585,2.889,2.889,0,0,1-.316-.27c-.342-.308-.727-.725-1.208-.693a.85.85,0,0,0-.284.077c-.633.321-.8,1.573-1.48,2.029a1.549,1.549,0,0,1-.417.193,1.448,1.448,0,0,1-1.02-.062,1.478,1.478,0,0,1-.732-.722,1.737,1.737,0,0,1-.12-.706,5.375,5.375,0,0,0,0-2.036,2.58,2.58,0,0,0-.437-.751,3.9,3.9,0,0,1-1.283-2.415,10.808,10.808,0,0,1,.676-2.569,6.667,6.667,0,0,0,.114-.688,1.288,1.288,0,0,0,0-.539c-.145-.5-.771-.6-1.372-.816a3.125,3.125,0,0,1-.449-.192c-1.044-.553-1.189-1.638-1.809-2.569a10.486,10.486,0,0,0-2.978-2.4c-.538-.354-1.518-.989-2.182-.713a.749.749,0,0,0-.322.237c-.342.405-.3.989-.443,1.445a2.462,2.462,0,0,1-.354.733,2.188,2.188,0,0,1-.455.481c-.437.353-.785.553-.551,1.124a4.694,4.694,0,0,0,.462.739,2.3,2.3,0,0,1,.36.828,3.043,3.043,0,0,1-.191,1.7,2.994,2.994,0,0,1-1.073,1.319,4.906,4.906,0,0,1-1.8.764,4.645,4.645,0,0,1-1.929,0c-.335-.07-.632-.167-.974-.244a3.173,3.173,0,0,0-1.062-.109A4.923,4.923,0,0,0,56.36,31.772Z" fill="none" stroke="currentColor" stroke-linecap="round" stroke-linejoin="round" stroke-width="0.34"/><path d="M57.568,30.839c-.7.5-.64,1.224-.717,1.8,0,.421.1.875-.577.946a4.822,4.822,0,0,0-2.325,1.186,7.1,7.1,0,0,0-1.78,1.834,6.936,6.936,0,0,0-.852,2.346l-.211.894a4.525,4.525,0,0,0,0,1.945c.076.382.076-.13.147.252A9.4,9.4,0,0,0,52.809,44.5a11.251,11.251,0,0,1,1.006,1.821l.077.162a12.574,12.574,0,0,1,.6,1.782l.1.37c.365,1.387-.391,2.229-.6,3.474l-.039.272a9.288,9.288,0,0,0,0,2.223,3.4,3.4,0,0,0,.359,1.419,1.719,1.719,0,0,0,.922.648,11.839,11.839,0,0,0,2.018.376,8.553,8.553,0,0,1,3.644,1.173,3.906,3.906,0,0,1,.32.253A13.191,13.191,0,0,1,63.6,61.382c.154.24.3.48.442.72.371.59.813,1.127,1.223,1.672.084.11.147.214.218.317a5.868,5.868,0,0,1,.583,1.258c.314.816,1.114.952,2.011,1.075h.07A26.56,26.56,0,0,0,72.561,67a6.044,6.044,0,0,0,3.247-.791,2.91,2.91,0,0,0,1.063-1.633c.135-.46.231-.927.333-1.355a2.9,2.9,0,0,1,.55-1.149,2.836,2.836,0,0,1,.988-.8,2.26,2.26,0,0,0,.544-.479c.48-.6.371-1.342.679-2.094a.109.109,0,0,1,.051-.11c.371-.816,1.281-1.413,1.556-2.365a.9.9,0,0,0,0-.648,3.229,3.229,0,0,1-.121-1.3,6.033,6.033,0,0,1,.672-2.087,6.51,6.51,0,0,1,2.914-2.949c1.051-.551,2.235-.8,3.318-1.335a7.807,7.807,0,0,0,1.441-.94c.435-.35.852-.752,1.281-1.134a10.5,10.5,0,0,0,2.1-2.43,5.663,5.663,0,0,0,.743-3.889,1.788,1.788,0,0,0-.558-1.027,1.761,1.761,0,0,0-1.068-.457,5.346,5.346,0,0,0-.769.046,3.539,3.539,0,0,1-.7,0,13.407,13.407,0,0,1-1.921-.571,4.848,4.848,0,0,0-.532-.1,20.045,20.045,0,0,1-3.2-.331,2.373,2.373,0,0,1-.346-.123,4.472,4.472,0,0,1-1.134-.719c-.109-.091-.211-.2-.314-.3-.32-.311-.717-.777-1.184-.816a.638.638,0,0,0-.3,0c-.679.24-.846,1.588-1.422,2.152a1.289,1.289,0,0,1-.365.265,1.548,1.548,0,0,1-1.742-.149,1.4,1.4,0,0,1-.276-.434,4.745,4.745,0,0,0-.6-1.452,3.863,3.863,0,0,0-.563-.648,3.292,3.292,0,0,1-1.371-2.521c.045-.868.711-1.847.743-2.592a2.367,2.367,0,0,0-.09-.609,1.526,1.526,0,0,0-.16-.454c-.243-.428-.877-.525-1.479-.778a3.968,3.968,0,0,1-.449-.22c-1.005-.609-1.223-1.743-1.857-2.657a9.266,9.266,0,0,0-2.754-2.288c-.519-.324-1.4-.881-2.043-.693a.811.811,0,0,0-.307.175c-.34.3-.378.739-.545,1.069a2.1,2.1,0,0,1-.384.531,2.538,2.538,0,0,1-.436.337c-.409.234-.73.35-.64.778a5.208,5.208,0,0,0,.243.564,2.091,2.091,0,0,1,.256.739,3.474,3.474,0,0,1-1.28,2.819,4.761,4.761,0,0,1-3.2,1.121c-.294,0-.576-.065-.864-.091a3.77,3.77,0,0,0-.961,0A4.327,4.327,0,0,0,57.568,30.839Z" fill="none" stroke="currentColor" stroke-linecap="round" stroke-linejoin="round" stroke-width="0.34"/><path d="M58.7,29.612c-.759.642-.455,1.56-.316,2.24.1.514.418,1.1-.474,1.047a5.146,5.146,0,0,0-2.873.892,7.118,7.118,0,0,0-2.347,1.752,6.608,6.608,0,0,0-1.139,2.612c-.095.34-.2.681-.3,1.021a5.134,5.134,0,0,0-.2,2.24c.076.507.044-.315.114.186a8.581,8.581,0,0,0,1.676,2.856,9.324,9.324,0,0,1,1.025,1.829l.064.161A8.205,8.205,0,0,1,54.3,48.3a2.071,2.071,0,0,0,.057.379c.234,1.354-.2,2.31-.335,3.562v.282a15.424,15.424,0,0,0,0,2.234,2.835,2.835,0,0,0,.31,1.438,1.55,1.55,0,0,0,1,.519c.633.142,1.317.154,2.044.276a8.3,8.3,0,0,1,3.606,1.38l.317.264a12.315,12.315,0,0,1,2.372,2.971c.146.251.279.5.418.745a7.79,7.79,0,0,0,1.227,1.688c.089.1.171.192.259.276a7.137,7.137,0,0,1,.848,1.072A3.187,3.187,0,0,0,68.556,66.4h.07a16.254,16.254,0,0,0,4.429.6,6.186,6.186,0,0,0,3.024-.841,2.99,2.99,0,0,0,1.056-1.5,13.273,13.273,0,0,0,.386-1.283,3.091,3.091,0,0,1,1.436-1.842,3.232,3.232,0,0,0,.513-.443,7.641,7.641,0,0,0,.886-1.829l.056-.1c.4-.7,1.31-1.283,1.551-2.15a.653.653,0,0,0-.076-.642,3.172,3.172,0,0,1-.3-1.322,8.026,8.026,0,0,1,.317-2.285,5.013,5.013,0,0,1,.962-1.976,4.937,4.937,0,0,1,1.708-1.362c1.119-.539,2.391-.673,3.536-1.187a6.946,6.946,0,0,0,1.537-.988c.462-.373.905-.783,1.361-1.168a9.028,9.028,0,0,0,2.265-2.472,6.259,6.259,0,0,0,.632-4,2.368,2.368,0,0,0-.391-1.11,2.326,2.326,0,0,0-.874-.777,4.312,4.312,0,0,0-.709-.238,6.378,6.378,0,0,1-.632-.2c-.57-.231-1.126-.681-1.721-.982a5.4,5.4,0,0,0-.494-.225c-.974-.385-2.024-.494-3.043-1a2.816,2.816,0,0,1-.322-.18,6.765,6.765,0,0,1-1.07-.847c-.1-.1-.2-.206-.3-.315-.291-.308-.684-.821-1.133-.93a.626.626,0,0,0-.31,0c-.67.154-.86,1.566-1.322,2.227a1.5,1.5,0,0,1-.3.327,2.141,2.141,0,0,1-1.689.494,1.8,1.8,0,0,1-.424-.16,9.371,9.371,0,0,1-1.183-.834c-.2-.154-.436-.315-.689-.488a2.7,2.7,0,0,1-1.044-1.059,2.756,2.756,0,0,1-.336-1.457c.095-.8.93-1.874.791-2.568a1.372,1.372,0,0,0-.291-.52,2.51,2.51,0,0,0-.291-.359,5.56,5.56,0,0,0-1.544-.719,3.535,3.535,0,0,1-.436-.257c-.949-.641-1.228-1.8-1.9-2.708A8.006,8.006,0,0,0,69.8,22.642,3.225,3.225,0,0,0,67.955,22a.9.9,0,0,0-.291.1,2.7,2.7,0,0,0-.632.68,2.088,2.088,0,0,1-.405.315,2.18,2.18,0,0,1-.405.179c-.361.122-.633.148-.633.424v.372a3.559,3.559,0,0,1,0,.584,4.522,4.522,0,0,1-1.17,2.568,4.68,4.68,0,0,1-1.209.937,4.3,4.3,0,0,1-1.354.481c-.246.039-.487.051-.733.077a4.73,4.73,0,0,0-.836.135A4.246,4.246,0,0,0,58.7,29.612Z" fill="none" stroke="currentColor" stroke-linecap="round" stroke-linejoin="round" stroke-width="0.34"/><path d="M59.811,28.565c-.8.8-.244,1.9.062,2.657.237.6.73,1.315-.362,1.138a5.653,5.653,0,0,0-3.411.633,7.715,7.715,0,0,0-2.887,1.688,6.6,6.6,0,0,0-1.422,2.859c-.119.374-.256.753-.387,1.126a5.693,5.693,0,0,0-.393,2.467c.069.632,0-.5.075.12.181,1.265,1.092,2.2,1.8,3.226a8.259,8.259,0,0,1,1.029,1.834.925.925,0,0,1,.056.171,6.148,6.148,0,0,1,.162,1.9c-.006.129-.006.258,0,.386a25.086,25.086,0,0,1,0,3.637v.285c-.037.727-.056,1.5-.031,2.245a2.254,2.254,0,0,0,.256,1.442,1.459,1.459,0,0,0,1.023.386c.661.063,1.347.044,2.076.171a8.044,8.044,0,0,1,3.536,1.6c.106.082.212.177.312.266a11.337,11.337,0,0,1,2.376,3.023c.137.259.262.518.386.771a4.7,4.7,0,0,0,1.248,1.695c.1.081.2.157.3.228a10.4,10.4,0,0,1,1.147.879A5.332,5.332,0,0,0,69,66.351h.068a11.671,11.671,0,0,0,4.465.632,6.176,6.176,0,0,0,2.8-.879A3.16,3.16,0,0,0,77.39,64.75c.175-.392.306-.778.43-1.145a3.5,3.5,0,0,1,1.31-1.79,5.94,5.94,0,0,0,.48-.4,8.867,8.867,0,0,0,1.085-1.556l.063-.089c.417-.575,1.309-1.157,1.546-1.9.112-.361,0-.38-.131-.633a3.349,3.349,0,0,1-.468-1.341,10.594,10.594,0,0,1,0-2.466,4.191,4.191,0,0,1,2.42-3.7c1.185-.532,2.538-.551,3.742-1.044a6.426,6.426,0,0,0,1.609-1.012c.48-.386.941-.816,1.434-1.2a8.147,8.147,0,0,0,2.42-2.531,6.883,6.883,0,0,0,.58-4.073,3.578,3.578,0,0,0-.886-2.27,3.519,3.519,0,0,0-.624-.519c-.205-.133-.411-.266-.623-.424-.518-.4-1.01-.948-1.553-1.379q-.219-.178-.455-.335c-.911-.632-1.952-.961-2.9-1.644-.1-.076-.2-.152-.293-.234a12.132,12.132,0,0,1-1.054-.974l-.293-.336c-.268-.3-.655-.86-1.085-1.031a.715.715,0,0,0-.312-.063c-.667.076-.873,1.55-1.247,2.3a1.763,1.763,0,0,1-.244.392,3.569,3.569,0,0,1-1.627,1.107,3.309,3.309,0,0,1-.574.12,3.7,3.7,0,0,1-1.746-.227,7.957,7.957,0,0,1-.786-.361,2.315,2.315,0,0,1-1.127-1.02,2.371,2.371,0,0,1-.263-1.51c.137-.734,1.141-1.9.835-2.574a1.25,1.25,0,0,0-.48-.43l-.424-.266c-.424-.272-1.041-.367-1.6-.632a2.82,2.82,0,0,1-.424-.279c-.9-.689-1.247-1.865-1.87-2.751a7.057,7.057,0,0,0-2.214-1.9A3.691,3.691,0,0,0,68.379,22a.97.97,0,0,0-.268.038c-.325.088-.5.209-.73.285a2.726,2.726,0,0,1-.418.107,3.011,3.011,0,0,1-.38,0c-.318,0-.624-.051-.68.076a.639.639,0,0,0-.187.183,2.118,2.118,0,0,0-.181.45,8.475,8.475,0,0,1-1.091,2.3,5.351,5.351,0,0,1-.917,1.024,4.813,4.813,0,0,1-1.047.709c-.2.088-.393.158-.624.234s-.449.145-.7.253A4.055,4.055,0,0,0,59.811,28.565Z" fill="none" stroke="currentColor" stroke-linecap="round" stroke-linejoin="round" stroke-width="0.34"/><path d="M60.12,27.174c-.839,1-.038,2.253.448,3.16.379.715,1.06,1.59-.265,1.288a6.881,6.881,0,0,0-4.032.347,8.542,8.542,0,0,0-3.5,1.68,6.913,6.913,0,0,0-1.741,3.218c-.145.432-.322.85-.48,1.288A6.4,6.4,0,0,0,50,40.98c.063.76,0-.7.038.065C50.181,42.5,51.21,43.568,52,44.739a7.555,7.555,0,0,1,1.06,1.932.709.709,0,0,0,.05.18,5.529,5.529,0,0,1-.057,2.015v.405c0,1.287.177,2.53.19,3.823a2.552,2.552,0,0,1,0,.3c0,.76-.038,1.551-.051,2.324,0,.482-.132,1.12.215,1.5a1.5,1.5,0,0,0,1.161.3,10.18,10.18,0,0,1,2.158.071,8.139,8.139,0,0,1,3.6,1.835c.107.09.215.18.316.283a10.668,10.668,0,0,1,2.4,3.154c.133.277.253.553.367.824a3.477,3.477,0,0,0,1.262,1.751,2.662,2.662,0,0,0,.353.2c.505.232.978.451,1.451.708a14.066,14.066,0,0,0,2.411.927h.076a9.324,9.324,0,0,0,4.6.644,6.477,6.477,0,0,0,2.651-.959A3.479,3.479,0,0,0,77.285,65.7c.2-.367.347-.734.492-1.081A4.131,4.131,0,0,1,79,62.853c.151-.136.3-.258.46-.387a12.392,12.392,0,0,0,1.313-1.339.357.357,0,0,1,.07-.07c.441-.483,1.344-1.075,1.577-1.771.139-.405,0-.379-.189-.643a3.563,3.563,0,0,1-.631-1.41,13.6,13.6,0,0,1-.373-2.748c-.037-1.725.4-3.412,2.247-4.191,1.262-.54,2.745-.437,4.051-.926a6.212,6.212,0,0,0,1.717-1.062c.517-.425,1.016-.882,1.552-1.288a7.743,7.743,0,0,0,2.638-2.62,7.905,7.905,0,0,0,.517-4.28A5.884,5.884,0,0,0,93.4,37.4a3.584,3.584,0,0,0-.631-.817q-.3-.309-.587-.644c-.479-.573-.915-1.242-1.426-1.822-.138-.161-.277-.308-.429-.457-.858-.862-1.918-1.461-2.789-2.343-.095-.09-.189-.193-.278-.3a13.494,13.494,0,0,1-.984-1.12l-.291-.367a4.955,4.955,0,0,0-1.066-1.171.626.626,0,0,0-.322-.1c-.681,0-.9,1.577-1.173,2.433a2.465,2.465,0,0,1-.184.47,5.293,5.293,0,0,1-1.615,1.764,4.709,4.709,0,0,1-3.086.766,4.167,4.167,0,0,1-.946-.232,2.1,2.1,0,0,1-1.225-.993,2.178,2.178,0,0,1-.208-1.582c.177-.689,1.395-1.989.9-2.639a1.5,1.5,0,0,0-.688-.354c-.209-.071-.423-.129-.562-.18a9.325,9.325,0,0,1-1.7-.644,2.819,2.819,0,0,1-.454-.257c-.865-.753-1.262-1.989-1.937-2.89a6.15,6.15,0,0,0-2-1.7,4.92,4.92,0,0,0-1.508-.605h-.259a6.219,6.219,0,0,1-.839-.09,2,2,0,0,1-.448-.1L66.3,21.3a5.635,5.635,0,0,0-.732-.27.769.769,0,0,0-.4,0,.747.747,0,0,0-.372.334c-.335.515-.675,1.4-1.041,2.111a11.173,11.173,0,0,1-.631,1.133,6.169,6.169,0,0,1-.751.914c-.158.142-.316.271-.5.406s-.379.245-.593.373A4.711,4.711,0,0,0,60.12,27.174Z" fill="none" stroke="currentColor" stroke-linecap="round" stroke-linejoin="round" stroke-width="0.34"/><path d="M50.011,40.809c.1,1.61,1.274,2.772,2.128,4.028a6,6,0,0,1,1.121,2.084,4.93,4.93,0,0,1-.268,2.058c-.3,1.509.382,3.062.408,4.59,0,.77,0,1.547-.076,2.317,0,.467-.211,1.13.171,1.5s.86.221,1.275.177a7.2,7.2,0,0,1,2.242,0,8.4,8.4,0,0,1,3.625,2.014A10.539,10.539,0,0,1,63.4,63.046c.535,1.168.637,2.342,2.058,2.746,1.5.436,2.949.865,4.414,1.414a8.287,8.287,0,0,0,4.74.67,5.45,5.45,0,0,0,3.586-2.1c.777-1.2.943-2.171,2.134-2.967.548-.372,1.09-.72,1.612-1.13s1.382-.941,1.612-1.541c.159-.441,0-.378-.249-.669a3.715,3.715,0,0,1-.8-1.439c-.828-2.361-1.822-6.219,1.274-7.406,1.369-.53,2.955-.316,4.351-.783s2.318-1.6,3.5-2.361A7.2,7.2,0,0,0,94.5,44.869c.764-1.414.427-2.809.452-4.337s.223-2.791-.764-4.161c-.828-1.155-1.376-2.525-2.249-3.63s-2.134-2.071-3.019-3.3c-.4-.543-.79-1.08-1.2-1.61-.287-.366-.835-1.351-1.376-1.408-.86-.095-1.013,2.45-1.23,3.011a6.029,6.029,0,0,1-2.491,3.018,5.844,5.844,0,0,1-4.058.853,1.964,1.964,0,0,1-.758-.326,1.926,1.926,0,0,1-.713-2.2c.216-.631,1.65-2.014.968-2.607a4.441,4.441,0,0,0-1.6-.354,4.857,4.857,0,0,1-1.8-.568c-1.114-.72-1.611-2.235-2.408-3.251a6.055,6.055,0,0,0-3.121-2.078,6.8,6.8,0,0,1-1.669-.865c-.51-.353-1.077-1.06-1.752-1.054-1.179,0-1.612,2.393-1.911,3.258a5.038,5.038,0,0,1-.873,1.717c-.42.524-1.038.871-1.433,1.414-.847,1.168.172,2.526.841,3.549.522.8,1.389,1.8-.159,1.351a8.148,8.148,0,0,0-4.664.063,9.651,9.651,0,0,0-4.121,1.616,6.861,6.861,0,0,0-2.058,3.416c-.56,1.445-1.4,2.822-1.274,4.419C50.075,41.712,49.966,39.938,50.011,40.809Z" fill="none" stroke="currentColor" stroke-linecap="round" stroke-linejoin="round" stroke-width="0.34"/><path d="M59.265,26.964c-.76,1.079.1,2.363.639,3.32.428.732,1.156,1.625-.153,1.329a5.569,5.569,0,0,0-2.555,0c-.447.1-.907.231-1.418.392a9.449,9.449,0,0,0-3.6,1.676,7.413,7.413,0,0,0-1.916,3.16l-.134.327a8.924,8.924,0,0,0-1.1,3.763c.032.758-.058-.687,0,.071.064,1.483,1.035,2.569,1.839,3.763a8.268,8.268,0,0,1,1.278,2.2,2.814,2.814,0,0,1,.057,1.194c-.044.334-.134.643-.2,1.015a4.619,4.619,0,0,0,.141,2.273,10,10,0,0,1,.479,2.633,6.556,6.556,0,0,1-.039.874c-.038.52-.127,1.059-.211,1.592s-.287,1.2.1,1.612a1.571,1.571,0,0,0,1.278.3,11.224,11.224,0,0,1,2.318,0,7.964,7.964,0,0,1,3.526,1.747l.3.244a10.083,10.083,0,0,1,2.274,2.723,7.892,7.892,0,0,1,.485,1.027c.083.206.147.411.217.642a4.591,4.591,0,0,0,.575,1.394,1.667,1.667,0,0,0,.875.584,2.711,2.711,0,0,0,.434.1c.556.09,1.1.18,1.661.3a15.466,15.466,0,0,1,1.833.488c.371.128.735.276,1.093.43s.555.237.83.34a7.75,7.75,0,0,0,4.075.411A5.98,5.98,0,0,0,77,67.826a4.477,4.477,0,0,0,1.124-1.438c.115-.2.224-.4.339-.591A5.1,5.1,0,0,1,80.2,63.87a4.125,4.125,0,0,1,.594-.25c.224-.077.447-.135.639-.206a3.636,3.636,0,0,0,1-.385l.173-.122c.23-.18.492-.443.747-.687a4.32,4.32,0,0,0,.99-1.156c.186-.392.071-.373-.1-.642a3.3,3.3,0,0,1-.485-1.381,21.852,21.852,0,0,1-.237-2.254c-.089-1.753.173-3.6,1.687-4.669a5.279,5.279,0,0,1,.638-.372c1.125-.565,2.236-.687,3.284-1.15l.453-.218a5.247,5.247,0,0,0,1.278-1.015c.453-.481.811-.963,1.213-1.406.07-.077.141-.154.217-.225a8.837,8.837,0,0,0,2.4-2.871,4.96,4.96,0,0,0,.281-2.331c-.038-.642-.115-1.361-.128-2.074v-.565a5.768,5.768,0,0,0-.881-3.661c-.837-1.213-1.437-2.53-2.332-3.66a15.741,15.741,0,0,0-1.213-1.329,18.47,18.47,0,0,1-1.852-2.023c-.4-.552-.793-1.1-1.182-1.657-.281-.405-.779-1.329-1.278-1.451s-.875.668-1.124,1.445a9.6,9.6,0,0,1-.358,1.053,7.76,7.76,0,0,1-2.42,3.044,5.2,5.2,0,0,1-1.648.847,3.434,3.434,0,0,1-1.476,0,3.166,3.166,0,0,1-.53-.167A2.614,2.614,0,0,1,77,30.354a1.4,1.4,0,0,1,0-.4c.051-.327.543-.944.639-1.47a.588.588,0,0,0-.217-.642A5.573,5.573,0,0,0,75.86,27.5l-.332-.071a3.985,3.985,0,0,1-1.4-.552c-1.073-.739-1.6-2.19-2.383-3.211a6.2,6.2,0,0,0-2.184-1.747c-.441-.231-.894-.475-1.4-.7-.351-.154-.7-.321-1.047-.456s-.639-.237-.9-.334-.677-.276-1-.366a1.357,1.357,0,0,0-.8,0,2.667,2.667,0,0,0-1.182,1.374,14.417,14.417,0,0,0-1.041,2.21.88.88,0,0,1-.051.186,6.461,6.461,0,0,1-.249.79,3.229,3.229,0,0,1-.748,1.047l-.076.07a5.624,5.624,0,0,1-1.157.726A1.6,1.6,0,0,0,59.265,26.964Z" fill="none" stroke="currentColor" stroke-linecap="round" stroke-linejoin="round" stroke-width="0.34"/><path d="M58,27.65c-.672.955,0,2.128.467,3,.334.637.91,1.421-.147,1.274a4.436,4.436,0,0,0-2.126.293c-.365.128-.756.287-1.185.466a9.868,9.868,0,0,0-3.081,1.688,7.11,7.11,0,0,0-1.7,2.836l-.128.287a8.277,8.277,0,0,0-1.051,3.352c0,.637-.064-.484-.038.153,0,1.313.82,2.326,1.556,3.39a10.835,10.835,0,0,1,1.422,2.275,2.987,2.987,0,0,1,.167,1.236,7.9,7.9,0,0,1-.18,1.1,4.342,4.342,0,0,0-.076.58,4.247,4.247,0,0,0,.3,1.79,6.58,6.58,0,0,1,.532,3.652,12.759,12.759,0,0,1-.359,1.638c-.14.554-.352,1.274,0,1.689a1.658,1.658,0,0,0,.6.345,1.639,1.639,0,0,0,.685.069,22.8,22.8,0,0,1,2.4,0,8.22,8.22,0,0,1,3.714,1.669l.314.249A8.757,8.757,0,0,1,62.4,63.457a8.306,8.306,0,0,1,.461,1.077c.068.213.132.425.192.638a3.619,3.619,0,0,0,.545,1.44,1.422,1.422,0,0,0,.96.452A2.76,2.76,0,0,1,65,67.1a15.861,15.861,0,0,1,1.729.109,10.166,10.166,0,0,1,1.922.4,10.893,10.893,0,0,1,1.121.472c.281.134.557.267.838.382a8.366,8.366,0,0,0,4.234.433,5.591,5.591,0,0,0,3.074-1.134,4.817,4.817,0,0,0,1.121-1.612,7.341,7.341,0,0,1,.371-.637,3.966,3.966,0,0,1,2.165-1.785,3.873,3.873,0,0,1,.679-.089h.724a2.123,2.123,0,0,0,1.114-.14.988.988,0,0,0,.192-.128,7.2,7.2,0,0,0,.8-.828,8.834,8.834,0,0,0,1.082-1.275c.2-.344.135-.369.039-.637a3.192,3.192,0,0,1-.141-1.313,20.484,20.484,0,0,1,.16-2.122,6.155,6.155,0,0,1,2.075-4.46c.192-.147.39-.281.589-.408a28.462,28.462,0,0,0,2.76-1.651l.372-.287a4.941,4.941,0,0,0,1-1.153,13.312,13.312,0,0,0,.762-1.466,2.294,2.294,0,0,1,.135-.242,11.928,11.928,0,0,0,1.921-3.04,5.31,5.31,0,0,0,.058-2.313c-.083-.637-.167-1.351-.2-2.052v-.561A6.347,6.347,0,0,0,94.69,35.94c-.807-1.2-1.493-2.491-2.408-3.6-.385-.465-.807-.9-1.23-1.319a19.263,19.263,0,0,1-1.877-2.008c-.4-.535-.8-1.083-1.165-1.663-.269-.42-.724-1.274-1.2-1.447s-.891.383-1.236,1.033c-.193.35-.333.707-.474.924a11.318,11.318,0,0,1-2.344,3,4.409,4.409,0,0,1-1.512.937,3.34,3.34,0,0,1-1.723-.5A4.708,4.708,0,0,1,78,29.428a1.236,1.236,0,0,1-.064-.294c-.051-.223.212-.637.167-1.032a.579.579,0,0,0-.308-.484,8.721,8.721,0,0,0-1.524-.332l-.32-.076a4.1,4.1,0,0,1-1.326-.58c-1.037-.739-1.588-2.1-2.363-3.065A7.344,7.344,0,0,0,69.712,21.6c-.493-.262-.986-.587-1.531-.867a6.807,6.807,0,0,0-1.178-.5,5.3,5.3,0,0,0-1.044-.2,4.458,4.458,0,0,0-1.095,0,1.92,1.92,0,0,0-.762.313,5.516,5.516,0,0,0-1.217,1.631,12.1,12.1,0,0,0-1.4,2.313.848.848,0,0,1-.064.217,5.352,5.352,0,0,1-.25.886,2.718,2.718,0,0,1-.922,1.089l-.1.064a4.568,4.568,0,0,1-1.4.567A1.227,1.227,0,0,0,58,27.65Z" fill="none" stroke="currentColor" stroke-linecap="round" stroke-linejoin="round" stroke-width="0.34"/><path d="M56.573,27.785c-.572.85-.044,1.918.27,2.711.238.594.628,1.227-.138,1.278a3.63,3.63,0,0,0-1.633.569l-.935.537a11.087,11.087,0,0,0-2.511,1.733,7.47,7.47,0,0,0-1.494,2.557l-.113.255a8.032,8.032,0,0,0-.967,2.9c0,.518-.063-.288-.05.23a5.387,5.387,0,0,0,1.255,3.069A15,15,0,0,1,51.8,45.992a3.3,3.3,0,0,1,.27,1.279,6.416,6.416,0,0,1-.15,1.138,4.711,4.711,0,0,0-.082.639,3.9,3.9,0,0,0,.383,1.918,6.3,6.3,0,0,1,.7,2.864,7.435,7.435,0,0,1-.094.965,12.349,12.349,0,0,1-.5,1.7c-.188.6-.414,1.279-.05,1.784a1.645,1.645,0,0,0,.555.4,1.624,1.624,0,0,0,.669.135c.8.077,1.676,0,2.423.058a7.981,7.981,0,0,1,3.811,1.617c.106.077.22.166.32.249a7.814,7.814,0,0,1,2.737,4.041c.063.217.113.441.163.639a3.192,3.192,0,0,0,.509,1.515,1.2,1.2,0,0,0,.469.278,1.185,1.185,0,0,0,.542.042h.451a13.223,13.223,0,0,1,1.746-.071,6.928,6.928,0,0,1,1.958.32,6.648,6.648,0,0,1,1.124.518c.276.147.546.294.829.428a8.585,8.585,0,0,0,4.3.454,5.216,5.216,0,0,0,3.3-1.215,5.334,5.334,0,0,0,1.093-1.86,5.279,5.279,0,0,1,.389-.722,3.521,3.521,0,0,1,1.088-1.118,3.459,3.459,0,0,1,1.454-.532,3.761,3.761,0,0,1,.748.071c.27.051.527.127.772.185.364.09.74.333,1.205.109a1.558,1.558,0,0,0,.213-.134,5.841,5.841,0,0,0,.779-.985c.389-.486.841-.953,1.161-1.426a.718.718,0,0,0,.162-.3.728.728,0,0,0,.008-.341,4.047,4.047,0,0,1,.2-1.278c.157-.64.351-1.279.546-2.014a8.335,8.335,0,0,1,2.429-4.232l.547-.454a10.8,10.8,0,0,0,2.178-2.167c.088-.109.182-.224.276-.352a5.43,5.43,0,0,0,.728-1.279,5.859,5.859,0,0,0,.3-1.547,1.14,1.14,0,0,1,.05-.255c.263-.978,1.192-1.957,1.444-3.248A6.117,6.117,0,0,0,95.8,41.5c-.12-.678-.207-1.362-.264-2.065l-.075-.588A7.309,7.309,0,0,0,94.4,35.214a34.871,34.871,0,0,0-2.436-3.581c-.389-.466-.8-.9-1.218-1.323A19.749,19.749,0,0,1,88.866,28.3a14.309,14.309,0,0,1-1.13-1.688,3.953,3.953,0,0,0-1.067-1.458c-.477-.262-.892.084-1.331.64-.226.268-.4.575-.565.793a19.468,19.468,0,0,1-2.229,2.959c-.314.282-.847.921-1.362,1s-.8-.314-1.08-.492a2.154,2.154,0,0,1-.339-.3c-.546-.55-1.023-1.406-1.456-1.784a.9.9,0,0,1-.145-.179c-.2-.1-.113-.313-.289-.639a.754.754,0,0,0-.4-.345c-.37-.154-1.042-.2-1.45-.32l-.3-.089a4.162,4.162,0,0,1-1.255-.64A16.215,16.215,0,0,1,72.186,22.8a8.237,8.237,0,0,0-2.756-2.123c-.546-.3-1.061-.71-1.632-1.042a4.343,4.343,0,0,0-1.256-.55,3.349,3.349,0,0,0-1.168-.057,2.607,2.607,0,0,0-1.155.422,3.282,3.282,0,0,0-.7.639,18.164,18.164,0,0,0-1.255,1.918c-.559.882-1.426,1.515-1.727,2.448a1.046,1.046,0,0,1-.063.243,5.183,5.183,0,0,1-.245.991,2.535,2.535,0,0,1-1.079,1.145.8.8,0,0,1-.12.07,4.15,4.15,0,0,1-1.6.415,1.011,1.011,0,0,0-.483.126A1.034,1.034,0,0,0,56.573,27.785Z" fill="none" stroke="currentColor" stroke-linecap="round" stroke-linejoin="round" stroke-width="0.34"/><path d="M54.464,28.753c-.506.725-.122,1.67.083,2.381.147.517.4,1.027-.141,1.2a3.658,3.658,0,0,0-1.2.831c-.224.189-.461.391-.724.63a16.181,16.181,0,0,0-2.012,1.72A8.213,8.213,0,0,0,49.121,37.7l-.109.221a7.361,7.361,0,0,0-.942,2.563c0,.384-.07-.094-.07.3a4.266,4.266,0,0,0,.967,2.69,21.689,21.689,0,0,1,1.717,2.418,3.429,3.429,0,0,1,.385,1.329A4.968,4.968,0,0,1,50.94,48.4a4.323,4.323,0,0,0-.089.63,3.356,3.356,0,0,0,.48,1.933,5.4,5.4,0,0,1,.839,2.942,6.147,6.147,0,0,1-.128,1,11.141,11.141,0,0,1-.64,1.732c-.25.63-.487,1.329-.129,1.846a1.735,1.735,0,0,0,.557.445,1.772,1.772,0,0,0,.693.185c.839.132,1.781,0,2.562.081a8.416,8.416,0,0,1,4.061,1.537l.353.252a7.382,7.382,0,0,1,2.383,2.985,6.861,6.861,0,0,1,.391,1.172c.057.22.1.447.147.668.09.485.1,1.19.487,1.555a1.224,1.224,0,0,0,1.108.189l.48-.088a11.62,11.62,0,0,1,1.839-.252A5.2,5.2,0,0,1,69.569,68c.282.164.558.328.858.466a9.4,9.4,0,0,0,4.53.473,5.366,5.366,0,0,0,3.677-1.26,5.637,5.637,0,0,0,1.1-2.072,3.665,3.665,0,0,1,.43-.768,3.429,3.429,0,0,1,1.31-1.134,3.5,3.5,0,0,1,1.707-.359,3.818,3.818,0,0,1,.846.233c.294.113.582.252.852.372.4.182.813.566,1.351.346a.99.99,0,0,0,.237-.139,5.04,5.04,0,0,0,.839-1.064c.4-.542.878-1.045,1.282-1.537a1.312,1.312,0,0,0,.313-.573,6.565,6.565,0,0,1,.551-1.184c.308-.586.641-1.2.961-1.889a12.786,12.786,0,0,1,2.857-4.069c.18-.17.359-.328.519-.485a6.693,6.693,0,0,0,1.691-2.639c.052-.132.122-.271.186-.416a5.839,5.839,0,0,0,.481-1.423,3.8,3.8,0,0,0-.154-1.6,1.938,1.938,0,0,1,0-.264c-.038-1.04.89-2.11,1.006-3.389a6.641,6.641,0,0,0-.385-2.28,15.3,15.3,0,0,1-.339-2.028l-.058-.554a7.944,7.944,0,0,0-1.2-3.565,28.2,28.2,0,0,0-2.563-3.5,17.5,17.5,0,0,0-1.281-1.3,22.357,22.357,0,0,1-1.922-1.972,10.361,10.361,0,0,1-1.127-1.688A4.383,4.383,0,0,0,87.1,25.289c-.461-.321-.929-.2-1.48.2a4.547,4.547,0,0,0-.692.63c-.8.844-1.428,2.148-2.2,2.91-.256.258-.775,1.014-1.281,1.058s-.711-.5-.91-.712a2.882,2.882,0,0,1-.256-.365c-.41-.63-.807-1.493-1.448-1.669a1.477,1.477,0,0,0-.23-.019,1.578,1.578,0,0,1-.763-.177,2.08,2.08,0,0,0-.493-.214c-.4-.107-1.019-.17-1.435-.3l-.3-.094a4.247,4.247,0,0,1-1.2-.63,16.367,16.367,0,0,1-2.3-2.809,9.45,9.45,0,0,0-3.126-2.274c-.641-.334-1.173-.813-1.788-1.2a3.889,3.889,0,0,0-1.448-.592,3.187,3.187,0,0,0-1.325.082,2.66,2.66,0,0,0-1.282.794,7.6,7.6,0,0,0-.672.932c-.41.63-.763,1.455-1.282,2.173-.64.932-1.761,1.48-2.114,2.519a1.929,1.929,0,0,0-.07.258,4.806,4.806,0,0,1-.25,1.084,2.544,2.544,0,0,1-1.281,1.177l-.141.063a4.317,4.317,0,0,1-1.871.259,1.021,1.021,0,0,0-.558.046A1.011,1.011,0,0,0,54.464,28.753Z" fill="none" stroke="currentColor" stroke-linecap="round" stroke-linejoin="round" stroke-width="0.34"/><path d="M53.089,29.211a3.15,3.15,0,0,0-.1,2.126c.05.456.131.9-.138,1.188a7.453,7.453,0,0,0-.731,1.117c-.144.225-.3.456-.475.687-.457.6-.957,1.144-1.445,1.8a11.147,11.147,0,0,0-1.138,1.926l-.093.187a7.507,7.507,0,0,0-.863,2.228c-.038.276-.075.109-.094.379a3.557,3.557,0,0,0,.669,2.389c.532.809,1.313,1.638,1.813,2.569a3.878,3.878,0,0,1,.482,1.406,4.374,4.374,0,0,1-.107,1.285,5.991,5.991,0,0,0-.087.68,3.274,3.274,0,0,0,.575,2.043,5.236,5.236,0,0,1,.932,3.127,6.069,6.069,0,0,1-.15,1.066,11.885,11.885,0,0,1-.782,1.818,2.2,2.2,0,0,0-.206,1.984,1.829,1.829,0,0,0,.546.52,1.783,1.783,0,0,0,.7.251,16.6,16.6,0,0,0,2.551.109,8.113,8.113,0,0,1,4.133,1.5l.356.263a7.082,7.082,0,0,1,2.376,3.16,8.018,8.018,0,0,1,.35,1.284c.05.238.088.469.119.706.062.5,0,1.285.45,1.651s.769.173,1.157.058l.481-.148a9.257,9.257,0,0,1,1.876-.443,4.989,4.989,0,0,1,2.107.16,4.867,4.867,0,0,1,1.169.643c.275.18.55.359.844.513,1.413.745,3.02.533,4.571.508a5.021,5.021,0,0,0,3.876-1.375,6.551,6.551,0,0,0,1.069-2.357A3.472,3.472,0,0,1,81.4,64.4a3.322,3.322,0,0,1,2.3-.4,3.971,3.971,0,0,1,.9.391c.319.18.625.386.9.578.413.276.845.822,1.432.6a.82.82,0,0,0,.25-.147,4.726,4.726,0,0,0,.851-1.214,13.288,13.288,0,0,1,1.344-1.715,4.483,4.483,0,0,0,.45-.558c.256-.386.556-.752.869-1.143.444-.572.894-1.157,1.326-1.792a28.023,28.023,0,0,1,3.126-3.988c.175-.187.331-.36.475-.54a5.839,5.839,0,0,0,1.125-3.211,2.814,2.814,0,0,1,.094-.488A7.042,7.042,0,0,0,97,49.119a3.775,3.775,0,0,0-.626-1.708,1.332,1.332,0,0,1-.112-.289c-.338-1.136.544-2.331.525-3.648a8.644,8.644,0,0,0-.625-2.324,13.63,13.63,0,0,1-.4-2.062,3.508,3.508,0,0,0-.082-.571A9.353,9.353,0,0,0,94.5,34.888a23.714,23.714,0,0,0-2.564-3.538c-.406-.463-.825-.906-1.25-1.33a25.392,25.392,0,0,1-1.876-2,8.307,8.307,0,0,1-1.081-1.747,4.967,4.967,0,0,0-.913-1.49,1.329,1.329,0,0,0-1.57-.218,2.643,2.643,0,0,0-.781.545A24.456,24.456,0,0,0,82.4,28.055c-.193.244-.669,1.137-1.094,1.156s-.594-.713-.706-.963c-.063-.129-.106-.283-.163-.437-.256-.738-.562-1.657-1.381-1.605a2.044,2.044,0,0,0-.313,0,3.247,3.247,0,0,1-1.2.25,4.637,4.637,0,0,1-.568-.083,7.927,7.927,0,0,1-1.363-.289l-.275-.11a4.423,4.423,0,0,1-1.1-.693,20.832,20.832,0,0,1-2.244-2.71,10.571,10.571,0,0,0-3.352-2.518c-.625-.366-1.25-.944-1.875-1.393a3.249,3.249,0,0,0-1.538-.643,2.812,2.812,0,0,0-1.439.219,2.856,2.856,0,0,0-1.325,1.2,13.706,13.706,0,0,0-.625,1.284,14.15,14.15,0,0,1-1.251,2.5c-.725,1.008-2.025,1.5-2.419,2.71a2.4,2.4,0,0,0-.075.289,5.021,5.021,0,0,1-.244,1.214,2.526,2.526,0,0,1-1.419,1.284l-.157.064a4.254,4.254,0,0,1-2.057.109C53.745,28.787,53.383,28.762,53.089,29.211Z" fill="none" stroke="currentColor" stroke-linecap="round" stroke-linejoin="round" stroke-width="0.34"/><path d="M47.444,42.616c.847,1.288,2.336,2.576,2.584,4.115a8.234,8.234,0,0,1-.178,2.042,3.249,3.249,0,0,0,.636,2.144,4.807,4.807,0,0,1,.885,4.373c-.306,1.127-1.909,2.776-1.216,3.961.739,1.288,2.7.991,3.908,1.03a8.361,8.361,0,0,1,4.378,1.449,6.843,6.843,0,0,1,2.838,3.555,8.943,8.943,0,0,1,.42,2.041c.044.5,0,1.359.426,1.72s.853.1,1.273-.071a11.377,11.377,0,0,1,2.443-.844,4.638,4.638,0,0,1,2.221.078,11.813,11.813,0,0,1,2.081,1.223c1.47.812,3.182.509,4.8.528A5.224,5.224,0,0,0,79.186,68.5c.942-1.023.744-2.453,1.559-3.509a3.6,3.6,0,0,1,1.722-1.211,3.558,3.558,0,0,1,2.1-.032,7.391,7.391,0,0,1,1.979,1.333c.446.373.91,1.069,1.572.844s.884-1.012,1.177-1.508a7.876,7.876,0,0,1,1.464-1.854c1.2-1.108,2.437-2.112,3.57-3.31s2.411-2.531,3.582-3.826,1.114-2.576,1.069-4.3a15.505,15.505,0,0,0-.044-2.311,4.017,4.017,0,0,0-1.063-1.784c-.993-1.288.045-2.724-.121-4.161a10.588,10.588,0,0,0-.827-2.331,16.12,16.12,0,0,1-.579-2.634c-.554-3.3-3.023-6.156-5.326-8.449a11.768,11.768,0,0,1-3.023-3.78c-.465-1.121-1.12-2.39-2.545-2.151s-2.241,2.247-2.934,3.349c-.14.225-.592,1.255-.98,1.236s-.49-.908-.535-1.191c-.127-.857-.21-2.364-1.438-2.029a18.622,18.622,0,0,1-2.087.831,3.837,3.837,0,0,1-2.285-.348c-1.393-.683-2.316-2.222-3.3-3.387a12.3,12.3,0,0,0-3.723-2.712C66.891,18.563,65.943,17.1,64.435,17a3.091,3.091,0,0,0-1.823.479,3.145,3.145,0,0,0-1.219,1.454c-.636,1.423-.948,3.129-1.909,4.385-.814,1.075-2.361,1.494-2.819,2.84a14.057,14.057,0,0,1-.324,1.642,2.645,2.645,0,0,1-.682.812,2.617,2.617,0,0,1-.941.476,4.4,4.4,0,0,1-2.507,0c-.528-.1-.936-.174-1.273.329a3.951,3.951,0,0,0-.293,1.835,14.3,14.3,0,0,1-.42,2.576,19.978,19.978,0,0,1-2.259,4.373C47.266,39.57,46.49,41.2,47.444,42.616Z" fill="none" stroke="currentColor" stroke-linecap="round" stroke-linejoin="round" stroke-width="0.34"/><path d="M51.814,28.874a4.466,4.466,0,0,0-.637,1.847c-.216.895-.427,1.828-.688,2.761-.114.412-.254.812-.4,1.206A10.3,10.3,0,0,1,48.7,37.125a12.014,12.014,0,0,0-.752,1.193,10.13,10.13,0,0,0-.675,1.517,3.374,3.374,0,0,0,0,2.659c.159.3,0,.228.255.514.853,1.168,2.063,2.418,2.477,3.808a1.162,1.162,0,0,0,.077.285,10.8,10.8,0,0,1,0,2.018,4.033,4.033,0,0,0,.719,2.133,4.8,4.8,0,0,1,.6,4.354,2.648,2.648,0,0,1-.108.285c-.459,1.111-1.656,2.539-.93,3.637.828,1.212,2.7.933,3.943.971l.637.044a8.5,8.5,0,0,1,3.764,1.365,7.239,7.239,0,0,1,.834.634,6.494,6.494,0,0,1,1.911,2.913,9.369,9.369,0,0,1,.261.959c.083.342.147.691.2,1.04.083.5.1,1.27.554,1.625a1.278,1.278,0,0,0,1.274,0,17.783,17.783,0,0,1,2.446-.8,5.117,5.117,0,0,1,2.217,0l.3.088a13.1,13.1,0,0,1,1.745.99,5.362,5.362,0,0,0,2.4.635c.8.032,1.6-.057,2.389-.038a11.171,11.171,0,0,0,2.318-.114,4.175,4.175,0,0,0,2.089-1.009,3.553,3.553,0,0,0,.918-1.473,9.663,9.663,0,0,1,.637-1.643,1.948,1.948,0,0,1,.2-.3,3.555,3.555,0,0,1,1.153-.99,2.885,2.885,0,0,1,2.707-.1,4.021,4.021,0,0,1,.542.3,15.394,15.394,0,0,0,1.484.819c.458.215.911.634,1.5.387s.866-1.041,1.178-1.542a8.28,8.28,0,0,1,1.5-1.847c1.191-1.066,2.4-2.05,3.522-3.173s2.388-2.45,3.548-3.7a4.554,4.554,0,0,0,.923-1.435,8.192,8.192,0,0,0,.395-2.627,15.024,15.024,0,0,0,.14-2.2,2.939,2.939,0,0,0-.1-.527,5.723,5.723,0,0,0-.637-1.212,2.356,2.356,0,0,1-.305-1.225,14.724,14.724,0,0,0,.14-2.805,11.8,11.8,0,0,0-1-2.406,8.859,8.859,0,0,1-.4-1.218c-.133-.5-.242-1-.369-1.517a14.025,14.025,0,0,0-.758-2.278,15.9,15.9,0,0,0-1.911-3.174c-.7-.907-1.363-1.827-2.121-2.646-.293-.311-.6-.59-.911-.87a14.383,14.383,0,0,1-1.152-1.1,9.465,9.465,0,0,1-.841-1.143,11.577,11.577,0,0,1-.981-1.9c-.42-1.047-1.058-1.986-2.217-1.942a2.541,2.541,0,0,0-.426.051,2.957,2.957,0,0,0-1.542.977c-.509.584-.924,1.32-1.344,1.866-.089.108-.165.216-.255.3-.2.2-.637,1-1.082.958s-.574-.774-.682-1c-.051-.114-.089-.254-.14-.387-.21-.565-.452-1.174-1.236-1.1a2.4,2.4,0,0,0-.267.044,10.478,10.478,0,0,1-2.064.514A4.337,4.337,0,0,1,75.2,24.99a7.273,7.273,0,0,1-1.809-1.567c-.522-.584-1.013-1.2-1.5-1.765a10.118,10.118,0,0,0-2.42-2.03c-.325-.21-.637-.413-1.032-.635C67.273,18.3,66.279,17.038,64.853,17a3.131,3.131,0,0,0-2.9,1.9c-.344.7-.605,1.472-.9,2.209a8.343,8.343,0,0,1-1.006,1.9c-.777,1.015-2.166,1.472-2.675,2.7a1.871,1.871,0,0,0-.115.38,4.328,4.328,0,0,1-.312,1.086,2.83,2.83,0,0,1-1.567,1.225,4.7,4.7,0,0,1-2.363.171,1.139,1.139,0,0,0-1.2.3Z" fill="none" stroke="currentColor" stroke-linecap="round" stroke-linejoin="round" stroke-width="0.34"/><path d="M51.731,27.518a5.411,5.411,0,0,0-1.042,1.913c-.362.95-.635,1.971-.953,3.017-.127.459-.267.912-.413,1.358a8.3,8.3,0,0,1-1.545,2.723,9.18,9.18,0,0,0-.858,1.314,8.568,8.568,0,0,0-.692,1.7,3.615,3.615,0,0,0,.19,2.953c.267.395-.12.031.21.414a13.529,13.529,0,0,1,2.421,3.922,1.183,1.183,0,0,0,.083.287,13.694,13.694,0,0,1,.191,1.99A5.474,5.474,0,0,0,50.1,51.28a5.025,5.025,0,0,1,.311,4.42c-.031.1-.069.191-.108.287-.47,1.129-1.588,2.615-.75,3.667s2.689.937,3.96.937a3.142,3.142,0,0,1,.635.045,8.438,8.438,0,0,1,3.712,1.371,7.835,7.835,0,0,1,.826.638,6.391,6.391,0,0,1,1.837,2.965c.1.313.19.638.267.963s.165.689.247,1.027c.128.517.21,1.231.68,1.569a1.35,1.35,0,0,0,1.221.038c.82-.236,1.6-.567,2.453-.765a5.5,5.5,0,0,1,2.2-.128,2.74,2.74,0,0,1,.3.064,9.4,9.4,0,0,1,1.856.938,5.523,5.523,0,0,0,2.37.676c.794.038,1.595-.07,2.383-.045a19.226,19.226,0,0,0,2.352,0,4.186,4.186,0,0,0,2.2-.835,3.455,3.455,0,0,0,1.048-1.4,17.747,17.747,0,0,1,.674-1.684,3.272,3.272,0,0,1,.21-.312,3.8,3.8,0,0,1,1.188-1.008,2.539,2.539,0,0,1,2.708.095c.178.1.356.217.533.338a3.361,3.361,0,0,0,1.532.594c.458.051.9.255,1.424-.064a4.872,4.872,0,0,0,1.175-1.607,8.664,8.664,0,0,1,1.57-1.875c1.182-1.04,2.371-2.028,3.476-3.189s2.358-2.417,3.5-3.654a5.649,5.649,0,0,0,.953-1.384,8.555,8.555,0,0,0,.636-2.551A17.708,17.708,0,0,0,100,49.284a3.292,3.292,0,0,0-.038-.516,5.811,5.811,0,0,0-.362-1.212,3.2,3.2,0,0,1-.185-1.218,11.1,11.1,0,0,0,0-2.762,14.736,14.736,0,0,0-1.169-2.551,10.779,10.779,0,0,1-.5-1.275c-.159-.529-.311-1.065-.477-1.595a21.019,21.019,0,0,0-.947-2.417A16.576,16.576,0,0,0,94.274,32.4c-.75-.969-1.354-2.015-2.148-2.908a9.543,9.543,0,0,0-.985-.912,8.687,8.687,0,0,1-1.272-1.167A7.18,7.18,0,0,1,89.1,26.14a21.394,21.394,0,0,1-.909-2.072c-.4-1.1-1.1-1.914-2.276-1.741a3.527,3.527,0,0,0-.419.083,3.356,3.356,0,0,0-1.513,1c-.527.561-.959,1.275-1.455,1.773a2.085,2.085,0,0,1-.292.255c-.267.178-.75.765-1.189.7s-.635-.637-.813-.835a2.355,2.355,0,0,1-.216-.281,1.308,1.308,0,0,0-1.36-.638,2,2,0,0,0-.267.039,6.3,6.3,0,0,1-2.04.21,4.967,4.967,0,0,1-2.1-.8,9.862,9.862,0,0,1-1.78-1.678c-.534-.58-1.055-1.173-1.551-1.747a12.524,12.524,0,0,0-2.262-2.015c-.3-.217-.636-.421-.953-.638-1.094-.682-2.1-1.767-3.445-1.754a3.181,3.181,0,0,0-2.733,1.862,20.685,20.685,0,0,0-.915,2.086,9.079,9.079,0,0,1-.985,1.741c-.731.976-1.957,1.492-2.542,2.608a2.569,2.569,0,0,0-.14.345,4.748,4.748,0,0,1-.362,1.007,3.187,3.187,0,0,1-1.506,1.142,5.064,5.064,0,0,1-2.206.325,1.339,1.339,0,0,0-1.144.4Z" fill="none" stroke="currentColor" stroke-linecap="round" stroke-linejoin="round" stroke-width="0.34"/><path d="M52.6,27.115a6.5,6.5,0,0,0-1.415,1.918,18.161,18.161,0,0,0-1.218,3.273c-.146.5-.286,1-.425,1.5a7.336,7.336,0,0,1-1.7,3,7.976,7.976,0,0,0-.952,1.471,7.753,7.753,0,0,0-.717,1.918,3.9,3.9,0,0,0,.4,3.254c.368.486-.267-.159.152.307a13.108,13.108,0,0,1,2.348,4.022l.095.287c.2.684.235,1.33.375,2a8.03,8.03,0,0,0,.831,2.186,5.217,5.217,0,0,1,0,4.476c-.038.089-.076.185-.114.287-.476,1.151-1.523,2.654-.565,3.7s2.678.856,3.979.9l.634.045a8.341,8.341,0,0,1,3.744,1.33,7.182,7.182,0,0,1,.825.639,6.31,6.31,0,0,1,1.758,3.011c.095.314.184.64.273.96s.177.69.285,1.022a2.727,2.727,0,0,0,.806,1.5,1.475,1.475,0,0,0,1.2.1c.831-.192,1.618-.512,2.462-.729a5.937,5.937,0,0,1,2.189-.243l.3.051a6.84,6.84,0,0,1,1.9.85,5.547,5.547,0,0,0,2.354.742c.794.045,1.587-.083,2.374-.051s1.611.166,2.4.16a4.34,4.34,0,0,0,2.3-.64,3.342,3.342,0,0,0,1.186-1.336c.286-.55.406-1.17.717-1.713a3.389,3.389,0,0,1,.21-.32,3.74,3.74,0,0,1,1.212-1.036,2.314,2.314,0,0,1,2.709.288c.172.115.343.243.521.371a1.836,1.836,0,0,0,1.58.364,2.989,2.989,0,0,0,1.351-.518,7.054,7.054,0,0,0,1.181-1.668,9.1,9.1,0,0,1,1.618-1.918c1.167-1.017,2.328-2.008,3.426-3.108s2.323-2.371,3.446-3.593a7.081,7.081,0,0,0,.983-1.33,8.945,8.945,0,0,0,.838-2.41,19.688,19.688,0,0,0,.5-2.052,4.908,4.908,0,0,0,.039-.5,6.122,6.122,0,0,0-.108-1.215,5.742,5.742,0,0,1-.057-1.208,8.111,8.111,0,0,0-.2-2.711A17.462,17.462,0,0,0,99.3,42.089a11.461,11.461,0,0,1-.578-1.343c-.2-.563-.387-1.119-.59-1.675-.317-.863-.685-1.707-1.078-2.558a18.022,18.022,0,0,0-2.145-3.644c-.806-1.029-1.352-2.2-2.183-3.165a7.3,7.3,0,0,0-1.066-.959,6.348,6.348,0,0,1-1.314-1.227,5.756,5.756,0,0,1-.723-1.477c-.279-.729-.559-1.483-.85-2.257-.438-1.176-1.212-1.8-2.386-1.554a3.448,3.448,0,0,0-1.942,1.119,16.846,16.846,0,0,1-1.567,1.682,1.905,1.905,0,0,1-.33.2c-.337.147-.825.525-1.27.442s-.71-.538-.958-.64c-.1-.051-.19-.121-.292-.172a2.09,2.09,0,0,0-1.478-.211l-.273.038a4.542,4.542,0,0,1-2.018-.1,6.156,6.156,0,0,1-2-1.036,15.234,15.234,0,0,1-1.789-1.675c-.546-.569-1.092-1.138-1.6-1.713a16.95,16.95,0,0,0-2.018-2,9.436,9.436,0,0,0-.876-.64c-1.041-.69-2.056-1.592-3.325-1.528a3.243,3.243,0,0,0-2.608,1.79c-.362.64-.635,1.317-.939,1.918A9.926,9.926,0,0,1,60.14,21.4c-.679.927-1.751,1.5-2.36,2.507a3.371,3.371,0,0,0-.165.313,5.144,5.144,0,0,1-.47.882,3.645,3.645,0,0,1-1.44,1.093,5.792,5.792,0,0,1-2.05.486A1.668,1.668,0,0,0,52.6,27.115Z" fill="none" stroke="currentColor" stroke-linecap="round" stroke-linejoin="round" stroke-width="0.34"/><path d="M52.573,25.736a7.553,7.553,0,0,0-1.81,1.987,13.841,13.841,0,0,0-1.5,3.531c-.161.539-.308,1.09-.443,1.641a7.039,7.039,0,0,1-1.874,3.287,7.782,7.782,0,0,0-1.085,1.583,7.528,7.528,0,0,0-.731,2.083,4.191,4.191,0,0,0,.609,3.551c.482.57-.417-.353.1.2a12.807,12.807,0,0,1,2.342,4.088l.1.289c.231.679.366,1.32.565,1.993a15.39,15.39,0,0,0,.9,2.224c.719,1.538.315,2.98-.269,4.486l-.122.294c-.488,1.173-1.483,2.692-.385,3.724s2.708.807,4.049.865a3.2,3.2,0,0,1,.642.045,8.433,8.433,0,0,1,3.787,1.282,6.6,6.6,0,0,1,.821.64,6.075,6.075,0,0,1,1.7,3.051c.1.314.186.641.282.961s.206.68.334,1.013a2.9,2.9,0,0,0,.943,1.435,1.675,1.675,0,0,0,1.2.154,23.222,23.222,0,0,0,2.5-.7,6.689,6.689,0,0,1,2.169-.282h.3a5.508,5.508,0,0,1,1.925.775,5.837,5.837,0,0,0,2.368.8c.8.057,1.6-.09,2.4-.051s1.65.224,2.465.294a4.5,4.5,0,0,0,2.445-.468,3.331,3.331,0,0,0,1.335-1.281c.334-.551.449-1.186.776-1.743a2.743,2.743,0,0,1,.219-.334,3.786,3.786,0,0,1,1.245-1.064c1.181-.64,1.925-.173,2.74.475l.526.41a1.364,1.364,0,0,0,1.65.134,5.859,5.859,0,0,0,1.283-.98,12.1,12.1,0,0,0,1.2-1.73,9.353,9.353,0,0,1,1.694-1.923c1.175-.993,2.324-1.987,3.421-3.063s2.323-2.327,3.447-3.531a10.155,10.155,0,0,0,1.02-1.282,9.887,9.887,0,0,0,1.1-2.237c.231-.641.513-1.326.686-1.98.045-.167.077-.327.11-.481a7.139,7.139,0,0,0,.154-1.211c0-.384.051-.775.07-1.2a6.413,6.413,0,0,0-.378-2.679,21.407,21.407,0,0,0-1.521-2.781,11.753,11.753,0,0,1-.674-1.41c-.231-.59-.469-1.173-.713-1.756-.378-.9-.8-1.788-1.232-2.686a18.967,18.967,0,0,0-2.291-3.845c-.866-1.089-1.361-2.384-2.24-3.422a6.191,6.191,0,0,0-1.161-1,5.408,5.408,0,0,1-1.412-1.281,5.4,5.4,0,0,1-.642-1.615c-.238-.8-.494-1.634-.8-2.448a1.869,1.869,0,0,0-2.509-1.353,4.257,4.257,0,0,0-.417.141,4.871,4.871,0,0,0-1.547,1.026,9.387,9.387,0,0,1-1.7,1.589,1.93,1.93,0,0,1-.366.154,3.127,3.127,0,0,1-1.411.186c-.45-.1-.783-.442-1.117-.5a2.383,2.383,0,0,0-.366-.058,8.409,8.409,0,0,0-1.624.231.694.694,0,0,0-.276.038,3.773,3.773,0,0,1-2.021-.4,8.668,8.668,0,0,1-1.925-1.282c-.642-.532-1.207-1.134-1.8-1.73S70.7,19.5,70.158,18.918c-.642-.718-1.194-1.378-1.855-1.987a5.825,5.825,0,0,0-.8-.641,5.26,5.26,0,0,0-3.209-1.281,3.391,3.391,0,0,0-2.477,1.755c-.366.59-.642,1.231-.969,1.814a11.855,11.855,0,0,1-.957,1.589c-.641.891-1.572,1.519-2.239,2.416-.071.09-.129.18-.193.276a6.9,6.9,0,0,1-.526.808,4.773,4.773,0,0,1-1.406,1.025,7.292,7.292,0,0,1-1.925.641A2.527,2.527,0,0,0,52.573,25.736Z" fill="none" stroke="currentColor" stroke-linecap="round" stroke-linejoin="round" stroke-width="0.34"/><path d="M53.423,25.132a8.009,8.009,0,0,0-2.167,1.992A11.864,11.864,0,0,0,49.5,30.837c-.172.574-.318,1.16-.451,1.759a6.656,6.656,0,0,1-2.015,3.5A7.5,7.5,0,0,0,45.1,40a4.422,4.422,0,0,0,.8,3.783c.6.63-.559-.53.051.107a12.167,12.167,0,0,1,2.25,4.073l.114.283c.255.631.484,1.261.744,1.942.292.744.636,1.475.947,2.213.636,1.557.051,3.007-.553,4.489-.044.094-.083.189-.121.29-.495,1.172-1.417,2.692-.2,3.675,1.125.921,2.67.757,4.03.814l.635.044a8.464,8.464,0,0,1,3.744,1.261,6.977,6.977,0,0,1,.813.63,5.924,5.924,0,0,1,1.608,3.039c.089.309.178.63.28.945a7.821,7.821,0,0,0,.375.978,2.958,2.958,0,0,0,1.061,1.342,1.786,1.786,0,0,0,1.17.208,13.065,13.065,0,0,0,2.485-.63,7.91,7.91,0,0,1,2.173-.448h.3a4.666,4.666,0,0,1,1.958.681,5.99,5.99,0,0,0,2.332.845c.788.063,1.576-.1,2.371-.057a21.414,21.414,0,0,1,2.491.423,4.673,4.673,0,0,0,2.543-.278,3.313,3.313,0,0,0,1.461-1.172c.369-.536.483-1.179.814-1.74A2.16,2.16,0,0,1,82,67.416a3.8,3.8,0,0,1,1.271-1.078c1.271-.675,1.907-.07,2.727.63.165.145.336.3.514.442a1.169,1.169,0,0,0,1.312.187,1.169,1.169,0,0,0,.366-.288,10.724,10.724,0,0,0,1.2-1.413c.438-.548.788-1.2,1.188-1.759a9.611,9.611,0,0,1,1.735-1.891c1.15-.952,2.263-1.891,3.337-2.95s2.275-2.245,3.375-3.411c.374-.4.724-.8,1.048-1.2a10.835,10.835,0,0,0,1.271-2.131c.3-.631.636-1.261.865-1.891.07-.152.127-.3.184-.454a9.15,9.15,0,0,0,.407-1.192,6.669,6.669,0,0,0,.2-1.166,5.354,5.354,0,0,0-.534-2.522,29.33,29.33,0,0,0-1.684-2.856,11.861,11.861,0,0,1-.788-1.437q-.4-.909-.82-1.8c-.439-.927-.9-1.847-1.354-2.774a19.967,19.967,0,0,0-2.39-4.022c-.921-1.129-1.347-2.522-2.256-3.613a5.532,5.532,0,0,0-1.227-1.034,4.862,4.862,0,0,1-1.487-1.343,5.245,5.245,0,0,1-.553-1.733,20.148,20.148,0,0,0-.718-2.6,1.746,1.746,0,0,0-2.542-1.128l-.407.164a6.412,6.412,0,0,0-1.557,1,6.647,6.647,0,0,1-1.8,1.463,1.777,1.777,0,0,1-.4.107,4.03,4.03,0,0,1-1.5-.076,4.718,4.718,0,0,0-1.271-.321,1.7,1.7,0,0,0-.432.05,14.6,14.6,0,0,1-1.735.675h-.28a3.3,3.3,0,0,1-1.977-.7,12.831,12.831,0,0,1-1.817-1.469c-.591-.561-1.163-1.166-1.761-1.74S70.526,19.1,70,18.518s-1.081-1.254-1.653-1.872a5.008,5.008,0,0,0-.718-.63,4.291,4.291,0,0,0-3.019-1.009,3.581,3.581,0,0,0-2.326,1.671c-.375.542-.686,1.128-.985,1.651a16.955,16.955,0,0,1-.922,1.463,26.718,26.718,0,0,1-2.065,2.27L58.1,22.3a7.562,7.562,0,0,1-.636.63,7.348,7.348,0,0,1-1.335.946,11.614,11.614,0,0,1-1.747.788A4.659,4.659,0,0,0,53.423,25.132Z" fill="none" stroke="currentColor" stroke-linecap="round" stroke-linejoin="round" stroke-width="0.34"/><path d="M45.089,44.2a12.223,12.223,0,0,1,2.237,4.234c.615,1.508,1.506,2.983,2.07,4.535.641,1.732-.32,3.323-.974,4.9-.506,1.213-1.372,2.785,0,3.76s3.121.641,4.7.833a7.685,7.685,0,0,1,4.589,1.925c1.282,1.193,1.314,2.566,1.834,4.086.429,1.283,1.282,2.631,2.788,2.566,1.7-.083,3.275-1.18,5.006-1.2s2.724,1.385,4.339,1.527c.8.07,1.6-.116,2.4-.071a15.2,15.2,0,0,1,2.564.571,4.2,4.2,0,0,0,4.275-1.213,14.638,14.638,0,0,0,.814-1.834,3.9,3.9,0,0,1,1.539-1.489c1.628-.878,2.179.417,3.268,1.341,1.366,1.161,2.314-1.283,2.878-2.226a13.821,13.821,0,0,1,3.006-3.8,76.172,76.172,0,0,0,7.769-7.506A23.457,23.457,0,0,0,103,50.828a5.764,5.764,0,0,0,1-2.393,4.726,4.726,0,0,0-.711-2.566c-.808-1.584-1.961-2.925-2.711-4.548s-1.648-3.207-2.449-4.849a21.094,21.094,0,0,0-2.564-4.318c-.948-1.161-1.32-2.675-2.3-3.887-.82-1.02-2.23-1.347-2.9-2.5a5.182,5.182,0,0,1-.481-1.925,15.861,15.861,0,0,0-.641-2.822c-.474-1.354-1.461-1.5-2.685-.943A8.871,8.871,0,0,0,84.566,21.3c-.641.5-1.116,1.193-1.923,1.386-1.4.34-2.564-.943-3.974-.276-.641.314-1.122.994-1.878,1.135a2.761,2.761,0,0,1-2.256-.987c-1.282-1.091-2.282-2.412-3.506-3.542-.59-.545-1.231-1.026-1.776-1.616S68.3,16.117,67.8,15.475a3.737,3.737,0,0,0-3.551-1.43c-1.506.308-2.461,1.982-3.2,3.207a14.685,14.685,0,0,1-3.076,3.8,26.245,26.245,0,0,1-4.487,2.9c-3.2,1.617-4.442,4.626-5.134,7.994a6.73,6.73,0,0,1-2.186,3.849,7.609,7.609,0,0,0-2.083,4.285,4.822,4.822,0,0,0,1.013,4.131Z" fill="none" stroke="currentColor" stroke-linecap="round" stroke-linejoin="round" stroke-width="0.34"/><path d="M53.326,23.627a7.847,7.847,0,0,0-2.974,2.866,13.84,13.84,0,0,0-.995,2.1,23.159,23.159,0,0,0-.863,2.537c-.07.234-.139.475-.2.71a8.474,8.474,0,0,1-1.9,3.513l-.317.387a8.912,8.912,0,0,0-1.96,4.268v.139a5.168,5.168,0,0,0,.8,4.223l.115.14c.38.476-.711-.824-.108-.108a14.694,14.694,0,0,1,2.3,4.154c.59,1.42,1.2,2.815,1.763,4.249.045.107.089.215.127.323a3.9,3.9,0,0,1,.2,2.042,12.555,12.555,0,0,1-.849,2.486l-.146.361c-.463,1.224-1.237,2.8,0,3.805s3.044.812,4.6.983a2.7,2.7,0,0,1,.324.038,7.372,7.372,0,0,1,4.242,1.839c1.211,1.154,1.325,2.536,1.826,4.027.064.19.134.38.216.564a2.564,2.564,0,0,0,2.537,1.9l.3-.039c1.56-.247,3.043-1.1,4.642-1.147s2.745,1.122,4.331,1.268c.786.07,1.566-.07,2.359,0a18.951,18.951,0,0,1,2.644.571,7.324,7.324,0,0,0,1.9.165,4.1,4.1,0,0,0,1.9-.533,2.94,2.94,0,0,0,.634-.526,4.851,4.851,0,0,0,.634-1.021,5.709,5.709,0,0,1,.412-.679,4.715,4.715,0,0,1,1.655-1.395,2.468,2.468,0,0,1,1.269-.311,5.182,5.182,0,0,1,2.105,1.047.923.923,0,0,0,.691.107c.9-.253,1.6-1.9,2.124-2.707l.362-.552a15.556,15.556,0,0,1,2.873-3.266,62.375,62.375,0,0,0,7.654-7.54,22.563,22.563,0,0,0,2.676-4.35l.152-.3A4.9,4.9,0,0,0,104,47.864a4.975,4.975,0,0,0-.8-2.493c-.406-.735-.869-1.42-1.306-2.13a22.875,22.875,0,0,1-1.269-2.353c-.634-1.433-1.54-2.708-2.3-4.077l-.311-.571a38.983,38.983,0,0,0-2.213-3.964c-.076-.107-.146-.209-.228-.317-.894-1.224-1.307-2.7-2.207-3.893a12.858,12.858,0,0,0-1.953-1.725,3.877,3.877,0,0,1-.761-.875,5.5,5.5,0,0,1-.571-1.858c-.108-.539-.177-1.04-.247-1.573a3.293,3.293,0,0,0-.368-1.173c-.514-1.154-1.478-1.294-2.7-.862a8.67,8.67,0,0,0-1.789.894c-.082.057-.171.107-.253.171a7.151,7.151,0,0,1-1.947,1.344,3.982,3.982,0,0,1-2.01-.076,3.216,3.216,0,0,0-1.9.038,3.168,3.168,0,0,0-.33.152,5.535,5.535,0,0,1-1.6.85,1.986,1.986,0,0,1-.868,0,3.8,3.8,0,0,1-1.421-.831,18.3,18.3,0,0,1-1.832-1.883c-.533-.59-1.072-1.16-1.643-1.706a18.18,18.18,0,0,1-1.674-1.68c-.514-.634-.875-1.383-1.395-2a3.313,3.313,0,0,0-.875-.71,4.026,4.026,0,0,0-2.771-.5c-1.529.317-2.588,1.826-3.412,3.018l-.875,1.269a9.8,9.8,0,0,1-2.213,2.536c-.121.095-.247.184-.374.273A43.984,43.984,0,0,1,53.326,23.627Z" fill="none" stroke="currentColor" stroke-linecap="round" stroke-linejoin="round" stroke-width="0.34"/><path d="M53.222,22.63a7.663,7.663,0,0,0-2.878,3.115,19.472,19.472,0,0,0-.914,2.228c-.319.867-.626,1.748-.945,2.642l-.244.725A13.013,13.013,0,0,1,46.3,35.006L46,35.427a11.17,11.17,0,0,0-1.84,4.533,1.235,1.235,0,0,0,0,.149,5.951,5.951,0,0,0,.589,4.455c.036.046.069.094.1.143.381.576-.626-.868-.082-.091a20.42,20.42,0,0,1,2.347,4.21c.594,1.463,1.007,2.953,1.577,4.436l.131.33a4.388,4.388,0,0,1,.275,2.092,12.307,12.307,0,0,1-.775,2.59l-.132.376c-.425,1.3-1.1,2.908.069,3.957s2.96.991,4.48,1.159l.313.039a7.122,7.122,0,0,1,4.218,1.885c1.157,1.146,1.332,2.59,1.814,4.1.063.188.131.382.207.576.469,1.179,1.2,2.047,2.471,1.878a2.556,2.556,0,0,0,.3-.051c1.526-.318,3-1.082,4.567-1.153s2.754.887,4.305,1.036c.77.078,1.546,0,2.322.078a23.19,23.19,0,0,1,2.728.583,10.22,10.22,0,0,0,1.977.252,4.108,4.108,0,0,0,2-.35,2.729,2.729,0,0,0,.683-.492,6.127,6.127,0,0,0,.769-1,7.233,7.233,0,0,1,.5-.647,5.844,5.844,0,0,1,1.783-1.36,3.217,3.217,0,0,1,1.326-.363,7.645,7.645,0,0,1,2.2.5.828.828,0,0,0,.626-.09c.819-.492,1.5-2.086,2.1-2.973.125-.194.256-.382.388-.57a20.282,20.282,0,0,1,3.053-3.387,53.616,53.616,0,0,0,7.509-7.823,22.635,22.635,0,0,0,2.5-4.533l.131-.318A5.136,5.136,0,0,0,104,47.4a5.5,5.5,0,0,0-.889-2.519c-.419-.732-.882-1.425-1.289-2.163s-.788-1.587-1.157-2.409a45.384,45.384,0,0,0-2.434-4.022c-.113-.188-.219-.376-.326-.563-.682-1.4-1.307-2.753-2.1-4.08L95.6,31.3c-.807-1.295-1.251-2.745-2.108-3.982a14.284,14.284,0,0,0-1.79-1.872,5.126,5.126,0,0,1-.732-.913,6.312,6.312,0,0,1-.626-1.852,7.425,7.425,0,0,1-.187-1.6,1.92,1.92,0,0,0-.376-1.159,2.315,2.315,0,0,0-2.872-.829,9.1,9.1,0,0,0-1.821.777l-.263.156a11.481,11.481,0,0,1-1.99,1.353,4.052,4.052,0,0,1-1.964.136,4.375,4.375,0,0,0-1.915.065c-.113.039-.225.084-.338.136a7.118,7.118,0,0,1-1.621.738,2.278,2.278,0,0,1-.863,0,3.237,3.237,0,0,1-1.433-.771,15.347,15.347,0,0,1-1.783-1.942c-.526-.609-1.07-1.2-1.615-1.762a12.533,12.533,0,0,1-1.57-1.807,15.993,15.993,0,0,0-1.346-2.1,2.756,2.756,0,0,0-.919-.647,4.438,4.438,0,0,0-2.779-.33c-1.539.33-2.7,1.722-3.585,2.933-.319.441-.626.881-.9,1.328a8.845,8.845,0,0,1-2.184,2.655c-.125.091-.256.175-.388.259C56.194,21.128,54.674,21.762,53.222,22.63Z" fill="none" stroke="currentColor" stroke-linecap="round" stroke-linejoin="round" stroke-width="0.34"/><path d="M52.442,22.34a7.427,7.427,0,0,0-2.877,3.249c-.344.736-.573,1.51-.861,2.29-.331.889-.7,1.759-1.058,2.641-.1.244-.2.48-.294.723a22.69,22.69,0,0,1-2.06,3.7l-.28.441a13.771,13.771,0,0,0-1.786,4.65v.147a6.347,6.347,0,0,0,.4,4.541,1.426,1.426,0,0,1,.1.147c.382.64-.574-.882-.064-.064a29.017,29.017,0,0,1,2.468,4.126c.638,1.451.855,2.986,1.448,4.476l.134.333a4.591,4.591,0,0,1,.37,2.072,11.436,11.436,0,0,1-.721,2.559c-.044.121-.083.243-.121.371-.4,1.279-1,2.916.109,3.978S50.312,63.855,51.849,64l.319.038a7.3,7.3,0,0,1,4.324,1.855c1.142,1.113,1.384,2.558,1.863,4.036.063.192.134.377.2.569.478,1.215,1.2,2.021,2.506,1.8l.3-.064a26.536,26.536,0,0,1,4.65-1.119c1.588-.089,2.857.64,4.42.774.784.077,1.569.045,2.36.147.988.128,1.913.365,2.9.576a19.189,19.189,0,0,0,2.092.326,4.4,4.4,0,0,0,2.136-.147,2.842,2.842,0,0,0,.766-.442,8.154,8.154,0,0,0,.906-.952,6.648,6.648,0,0,1,.593-.64,7.541,7.541,0,0,1,1.977-1.279,4.671,4.671,0,0,1,1.4-.41c.963-.127,1.665.039,2.373-.044a1.127,1.127,0,0,0,.637-.3,23.875,23.875,0,0,0,2.137-3.146c.134-.192.281-.384.427-.569a27.056,27.056,0,0,1,3.3-3.352,47.786,47.786,0,0,0,7.654-7.841,21.5,21.5,0,0,0,2.462-4.567l.114-.319a5.039,5.039,0,0,0,.319-2.188,5.726,5.726,0,0,0-1-2.469c-.453-.7-.925-1.381-1.314-2.123s-.708-1.58-1.084-2.379a28.586,28.586,0,0,0-2.647-3.838c-.121-.179-.236-.364-.345-.55-.8-1.324-1.422-2.667-2.143-4.01l-.191-.345c-.746-1.279-1.276-2.706-2.073-3.946a17.089,17.089,0,0,0-1.69-1.964,8.019,8.019,0,0,1-.727-.915,6.472,6.472,0,0,1-.747-1.778,3.849,3.849,0,0,1-.133-1.579,1.28,1.28,0,0,0-.4-1.113,2.968,2.968,0,0,0-3.036-.71,9.269,9.269,0,0,0-1.913.639l-.275.135a21.034,21.034,0,0,1-2.041,1.279,4.785,4.785,0,0,1-1.99.345,7.649,7.649,0,0,0-1.97.09,2.906,2.906,0,0,0-.351.109,12.077,12.077,0,0,1-1.71.639,2.885,2.885,0,0,1-2.4-.639A13.694,13.694,0,0,1,72.986,19.7c-.529-.64-1.091-1.19-1.639-1.765a9.736,9.736,0,0,1-1.518-1.862A9.224,9.224,0,0,0,68.5,13.917a2.624,2.624,0,0,0-1-.6,5.539,5.539,0,0,0-2.934-.217,7.362,7.362,0,0,0-3.884,2.763,14.379,14.379,0,0,0-.957,1.279A7.818,7.818,0,0,1,57.5,19.84c-.134.083-.274.166-.421.243C55.567,20.908,53.947,21.432,52.442,22.34Z" fill="none" stroke="currentColor" stroke-linecap="round" stroke-linejoin="round" stroke-width="0.34"/><path d="M52.361,21.975a7.089,7.089,0,0,0-2.78,3.407c-.308.758-.5,1.559-.78,2.342-.327.9-.723,1.773-1.132,2.644l-.34.694c-.629,1.351-1.409,2.449-2.107,3.73-.088.152-.17.309-.258.467A17.612,17.612,0,0,0,43.3,40.005a1.285,1.285,0,0,0,0,.152,6.987,6.987,0,0,0,.189,4.619l.082.152c.371.751-.5-.9-.044-.045.774,1.439,1.887,2.556,2.516,4.04s.673,3.016,1.258,4.5l.132.328a4.879,4.879,0,0,1,.453,2.051,11.129,11.129,0,0,1-.629,2.594c-.038.12-.069.24-.107.366-.365,1.262-.862,2.935.145,4.008s2.887,1.262,4.4,1.451h.315a7.179,7.179,0,0,1,4.29,1.83c1.088,1.073,1.39,2.525,1.849,3.97.063.19.132.379.2.562.472,1.262,1.145,1.994,2.453,1.716l.3-.075a22.884,22.884,0,0,1,4.573-1.092,26.293,26.293,0,0,1,4.4.524c.773.075,1.547.094,2.321.214,1.012.152,1.987.366,2.981.568.7.152,1.428.278,2.132.4a4.7,4.7,0,0,0,2.214.051,2.694,2.694,0,0,0,.818-.4,9.749,9.749,0,0,0,1.019-.9,8.112,8.112,0,0,1,.667-.575,9.716,9.716,0,0,1,2.107-1.2,7.239,7.239,0,0,1,1.421-.455,11.11,11.11,0,0,0,2.472-.586,1.649,1.649,0,0,0,.573-.486c.692-.922,1.352-2.31,2.107-3.307.144-.2.295-.385.453-.575a37.513,37.513,0,0,1,3.522-3.4c2.673-2.449,5.541-4.771,7.5-7.857a20.613,20.613,0,0,0,2.321-4.6l.094-.321a5.051,5.051,0,0,0,.138-2.2,6.02,6.02,0,0,0-1.075-2.41,15.85,15.85,0,0,1-1.3-2.083c-.378-.764-.6-1.578-.962-2.354-.667-1.426-1.887-2.386-2.781-3.635-.125-.177-.245-.354-.358-.53a33.387,33.387,0,0,1-2.126-3.964l-.17-.347c-.629-1.3-1.208-2.657-1.969-3.906a19.735,19.735,0,0,0-1.534-2.058c-.233-.3-.472-.593-.692-.921a6.837,6.837,0,0,1-.831-1.71,2.769,2.769,0,0,1-.075-1.559.936.936,0,0,0-.4-1.054,3.836,3.836,0,0,0-3.1-.675,10.051,10.051,0,0,0-1.944.5l-.283.119c-.736.335-1.34.884-2.057,1.263a5.2,5.2,0,0,1-1.944.549c-.629.056-1.257,0-1.962.12-.121.019-.24.044-.359.075-.578.145-1.125.4-1.736.518a3.818,3.818,0,0,1-.88.063,2.678,2.678,0,0,1-1.547-.568,11.57,11.57,0,0,1-1.781-1.893c-.528-.631-1.081-1.18-1.616-1.761a8.135,8.135,0,0,1-1.409-1.893,6.789,6.789,0,0,0-1.258-2.19,2.386,2.386,0,0,0-1.05-.53,6.59,6.59,0,0,0-2.963-.076,7.877,7.877,0,0,0-4.057,2.587,10.321,10.321,0,0,0-.981,1.3c-.7,1.029-1.113,2.052-2.214,2.683-.132.075-.277.145-.428.214A35.089,35.089,0,0,0,52.361,21.975Z" fill="none" stroke="currentColor" stroke-linecap="round" stroke-linejoin="round" stroke-width="0.34"/><path d="M42.448,45.049c-.019-.051-.071-.1-.071-.16a8.1,8.1,0,0,1,0-4.835,1.482,1.482,0,0,1,.033-.161,24.678,24.678,0,0,1,1.612-5l.231-.5c.653-1.342,1.485-2.523,2.221-3.852l.4-.719a19.376,19.376,0,0,0,1.241-2.729c.289-.816.442-1.663.73-2.472A7.131,7.131,0,0,1,51.613,21c1.549-1.015,3.3-1.323,5.012-1.946.16-.064.314-.135.455-.2,1.164-.623,1.529-1.721,2.24-2.851a8.551,8.551,0,0,1,1.037-1.323,8.68,8.68,0,0,1,4.352-2.5,8.246,8.246,0,0,1,3.092-.064,2.4,2.4,0,0,1,1.133.475A5.644,5.644,0,0,1,70.162,14.9a7.1,7.1,0,0,0,1.357,2.042c.525.6,1.1,1.169,1.639,1.811a10.758,10.758,0,0,0,1.8,1.977,2.6,2.6,0,0,0,1.619.489,6.369,6.369,0,0,0,.9-.1c.62-.116,1.184-.315,1.824-.418l.371-.051c.685-.071,1.37-.032,2.01-.148a5.9,5.9,0,0,0,1.965-.77A15.052,15.052,0,0,1,85.8,18.492l.3-.1A9.919,9.919,0,0,1,88.135,18a5.4,5.4,0,0,1,3.252.642.767.767,0,0,1,.254.157.752.752,0,0,1,.174.244.777.777,0,0,1,.066.293.763.763,0,0,1-.053.3,2.207,2.207,0,0,0,0,1.58,8,8,0,0,0,.935,1.7c.23.308.467.636.685.95.505.72.992,1.432,1.427,2.2A41.4,41.4,0,0,1,96.8,30.05a3.657,3.657,0,0,1,.154.359,21.136,21.136,0,0,0,2.067,4.046c.122.179.25.353.384.526.954,1.239,2.317,2.106,3,3.557.365.784.518,1.625.877,2.4a11.372,11.372,0,0,0,1.318,2.106,6.513,6.513,0,0,1,1.28,2.446,5.312,5.312,0,0,1,0,2.273l-.076.334a20.16,20.16,0,0,1-2.247,4.764c-1.875,3.269-4.9,5.542-7.6,8.11-1.28,1.2-2.688,2.228-3.84,3.512-.173.193-.333.392-.493.591a28.363,28.363,0,0,0-2.144,3.57,2.651,2.651,0,0,1-.538.694,6.5,6.5,0,0,1-2.643,1.149A14.314,14.314,0,0,0,84.8,71a13.889,13.889,0,0,0-2.3,1.169c-.262.173-.518.359-.768.552a11.974,11.974,0,0,1-1.158.873,3.02,3.02,0,0,1-.9.366,5.093,5.093,0,0,1-2.355-.244c-.743-.186-1.5-.34-2.247-.488-1.049-.212-2.093-.4-3.155-.59-.781-.135-1.568-.206-2.356-.283a23.492,23.492,0,0,0-4.48-.282,20.492,20.492,0,0,0-4.653,1.091,2.51,2.51,0,0,1-.3.09c-1.344.34-2.009-.366-2.483-1.689-.071-.186-.135-.378-.192-.571a9.614,9.614,0,0,0-1.92-4.02,7.205,7.205,0,0,0-4.4-1.862l-.313-.038c-1.523-.167-3.4-.418-4.417-1.631-.94-1.117-.531-2.819-.192-4.154l.1-.379a10.2,10.2,0,0,0,.589-2.678,5.285,5.285,0,0,0-.537-2.093c-.052-.109-.1-.225-.141-.341-.627-1.521-.461-3.146-1.127-4.661S43.139,46.584,42.448,45.049Zm0,0C42.019,44.112,42.819,45.91,42.448,45.049Z" fill="none" stroke="currentColor" stroke-linecap="round" stroke-linejoin="round" stroke-width="0.34"/><path d="M42.328,45.148c.594,1.575,2.028,2.531,2.691,3.985s.322,3.163.948,4.687a6.908,6.908,0,0,1,.764,2.4,10.093,10.093,0,0,1-.511,2.682c-.316,1.372-.79,3.3.145,4.541s3.082,1.645,4.611,1.8a7.1,7.1,0,0,1,4.365,1.834c1.156,1.164,1.554,3,2.071,4.51S58.6,73.675,60.141,73.1a20.64,20.64,0,0,1,11.37-.684,51.54,51.54,0,0,1,5.515,1.145,5.392,5.392,0,0,0,2.431.431,5.554,5.554,0,0,0,2.218-1.139,21.814,21.814,0,0,1,4.8-2.151c1.491-.531,2.584-1.024,3.228-2.53a13.87,13.87,0,0,1,2.634-4.313c1.219-1.266,2.716-2.278,4-3.505,2.653-2.53,5.736-4.769,7.473-8.109a17.668,17.668,0,0,0,2.16-5.117,6.14,6.14,0,0,0-1.465-4.642,8.582,8.582,0,0,1-1.308-2.062c-.322-.766-.41-1.613-.764-2.366-.676-1.436-2.135-2.182-3.158-3.365a14.019,14.019,0,0,1-2.394-4.5,31.562,31.562,0,0,0-1.958-4.3c-.405-.771-.809-1.543-1.264-2.283a21.271,21.271,0,0,1-1.667-2.574,1.777,1.777,0,0,1-.159-.78,1.8,1.8,0,0,1,.2-.77c.184-.531.139-.727-.429-.987a9.824,9.824,0,0,0-5.407-.3c-1.674.4-2.748,1.809-4.384,2.245a13.664,13.664,0,0,1-2.381.2c-.929.075-1.826.354-2.741.442-1.757.165-2.445-1.176-3.424-2.372-1.061-1.322-2.293-2.252-2.843-3.928-.461-1.36-.688-2.587-2.368-2.745-3.159-.3-6.949,1.038-8.711,3.84-.8,1.265-1.074,2.53-2.685,3.055-1.73.544-3.524.74-5.053,1.79a6.961,6.961,0,0,0-2.678,3.738c-.253.829-.366,1.7-.632,2.53A14.524,14.524,0,0,1,46.933,29.7a38.185,38.185,0,0,0-2.7,4.605,35.293,35.293,0,0,0-1.718,5.617c-.386,1.7-.828,3.523-.19,5.224C42.688,46.1,41.975,44.2,42.328,45.148Z" fill="none" stroke="currentColor" stroke-linecap="round" stroke-linejoin="round" stroke-width="0.34"/><path d="M129.394,52.913a5.488,5.488,0,0,1-2.474-1.586,6.732,6.732,0,0,1-1.446-2.885,18.2,18.2,0,0,1-.463-4.432,18.263,18.263,0,0,1,.463-4.44,6.732,6.732,0,0,1,1.446-2.885,5.439,5.439,0,0,1,2.474-1.586,14.012,14.012,0,0,1,7.171,0,5.442,5.442,0,0,1,2.49,1.586A6.626,6.626,0,0,1,140.5,39.57a18.215,18.215,0,0,1,.464,4.44,18.155,18.155,0,0,1-.464,4.432,6.626,6.626,0,0,1-1.445,2.885,5.49,5.49,0,0,1-2.49,1.586A14.012,14.012,0,0,1,129.394,52.913Zm5.977-2.228a3.581,3.581,0,0,0,1.634-1.165,5.514,5.514,0,0,0,.95-2.157,17.753,17.753,0,0,0,0-6.651,5.5,5.5,0,0,0-.95-2.156,3.583,3.583,0,0,0-1.634-1.166,8.152,8.152,0,0,0-4.767,0,3.561,3.561,0,0,0-1.587,1.166,5.4,5.4,0,0,0-.958,2.156,17.753,17.753,0,0,0,0,6.651,5.4,5.4,0,0,0,.958,2.157,3.562,3.562,0,0,0,1.571,1.165,8.139,8.139,0,0,0,4.768,0Z"/><path d="M168.133,50.836a4.256,4.256,0,0,1-1.524,1.538,6.457,6.457,0,0,1-2.207.792,15.564,15.564,0,0,1-2.639.222,11.27,11.27,0,0,1-3.346-.444,4.943,4.943,0,0,1-2.356-1.506,6.881,6.881,0,0,1-1.359-2.862,19.3,19.3,0,0,1-.448-4.534,19.068,19.068,0,0,1,.448-4.519,6.82,6.82,0,0,1,1.374-2.87,4.854,4.854,0,0,1,2.357-1.5,11.8,11.8,0,0,1,3.385-.428,15.2,15.2,0,0,1,2.678.222,6,6,0,0,1,2.192.792,4.056,4.056,0,0,1,1.469,1.538,5.138,5.138,0,0,1,.55,2.513h-2.695a2.542,2.542,0,0,0-.353-1.419,2.454,2.454,0,0,0-.927-.792,4.146,4.146,0,0,0-1.319-.381,12.511,12.511,0,0,0-1.571-.1,8.151,8.151,0,0,0-2.247.27,2.891,2.891,0,0,0-1.516.975,5.233,5.233,0,0,0-.856,2.132,18.617,18.617,0,0,0-.267,3.528,18.7,18.7,0,0,0,.267,3.528,5.36,5.36,0,0,0,.856,2.148,3,3,0,0,0,1.5,1.07,7.477,7.477,0,0,0,2.215.286,13.935,13.935,0,0,0,1.5-.079,4.216,4.216,0,0,0,1.359-.373,2.223,2.223,0,0,0,1.366-2.236h2.694A4.963,4.963,0,0,1,168.133,50.836Z"/><path d="M186.8,37.3h-5.742v-2.33h14.186V37.3H189.5V53.1H186.8Z"/><path d="M208.641,53.1V34.974h6.967a11.476,11.476,0,0,1,2.788.3,4.5,4.5,0,0,1,1.964,1.007,4.049,4.049,0,0,1,1.139,1.839,8.969,8.969,0,0,1,.369,2.783,9.78,9.78,0,0,1-.369,2.917,4.374,4.374,0,0,1-1.139,1.919A4.421,4.421,0,0,1,218.4,46.8a11.093,11.093,0,0,1-2.788.317h-4.273V53.1Zm8.522-8.49a2.522,2.522,0,0,0,1.155-.65,2.641,2.641,0,0,0,.651-1.189,7.18,7.18,0,0,0,.205-1.847,3.692,3.692,0,0,0-.872-2.8,4.175,4.175,0,0,0-2.859-.793h-4.108v7.476h4.084A6.7,6.7,0,0,0,217.163,44.614Z"/><path d="M235.777,34.973h2.694V53.1h-2.694Z"/><path d="M253.773,34.974h6.968a11.328,11.328,0,0,1,2.544.246,4.456,4.456,0,0,1,1.783.793,3.293,3.293,0,0,1,1.045,1.466,6.379,6.379,0,0,1,.361,2.3,4.412,4.412,0,0,1-.832,2.918A4.087,4.087,0,0,1,263.1,43.98a5.051,5.051,0,0,1,2.969,1.308,4.187,4.187,0,0,1,.95,2.981,6.29,6.29,0,0,1-.361,2.3,3.4,3.4,0,0,1-1.147,1.482,5.113,5.113,0,0,1-1.963.793,13.663,13.663,0,0,1-2.789.246h-6.967Zm9.253,7.262a2.936,2.936,0,0,0,.621-1.084,2.991,2.991,0,0,0,.118-1.247,2.5,2.5,0,0,0-.13-1.051,2.477,2.477,0,0,0-.554-.9,3.84,3.84,0,0,0-2.5-.61h-4.108v5.549h4.108A3.75,3.75,0,0,0,263.026,42.236Zm-.667,8.419a2.76,2.76,0,0,0,1.162-.476,1.694,1.694,0,0,0,.6-.84,3.561,3.561,0,0,0,.181-1.221,2.752,2.752,0,0,0-.158-1.223,2.724,2.724,0,0,0-.675-1.028,4.6,4.6,0,0,0-2.9-.69h-4.108v5.629h4.108a8.7,8.7,0,0,0,1.783-.191Z"/></g></svg>