<svg width="300" height="87" viewBox="0 0 300 87" fill="none" xmlns="http://www.w3.org/2000/svg"><path fill-rule="evenodd" clip-rule="evenodd" d="m163.318 28.332-1.045.034c-.641.139-1.285.28-1.848.635-.551.348-1.047.791-1.544 1.235-.4.358-.801.715-1.23 1.023-.278.2-.634.375-.999.555-.651.321-1.333.657-1.656 1.17-.285.45-.287.961-.209 1.468.152.983-.389 2.065-.896 3.077-.229.458-.451.902-.598 1.316l-2.152 6.013c-.444 1.088-.955 2.318-1.683 3.247-.413.528-.939.893-1.444 1.244-.985.685-1.891 1.314-1.729 2.981.068.706.184 1.565.422 2.232.041.114.123.226.203.335.08.109.156.214.184.311.024.082-.057.38-.114.589-.021.076-.039.14-.047.178-.188.883-.384 1.758-.661 2.618-.075.235-.169.497-.27.778-.587 1.633-1.402 3.9-.057 5.067.362.314.899.39 1.365.343.629-.065 1.028-.353 1.407-.845.521-.679.785-1.572 1.034-2.42.071-.238.14-.474.213-.7l1.303-3.686c.347-.902.785-1.772 1.221-2.637l.221-.439.062-.088c.349-.438.92-.596 1.463-.746a9.7 9.7 0 0 0 .446-.131l.62-.207c.94-.316 1.884-.633 2.848-.856.476-.11.961-.202 1.447-.296.981-.188 1.967-.377 2.896-.705.065 1.565-.031 3.125-.126 4.685-.094 1.54-.188 3.081-.128 4.628l.008.235c.026.791.059 1.788.497 2.41.435.248.696.357 1.211.239l.265-.078.145-.039c.486-.136.851-.375 1.107-.822.261-.455.389-1.03.508-1.564.028-.128.057-.255.086-.377.529-2.194.806-4.55 1.072-6.815l.09-.765c.024-.2.034-.402.045-.603.016-.303.032-.606.092-.903.082-.406.211-.806.339-1.206.212-.66.424-1.322.433-2.014.008-.535-.108-1.089-.224-1.637-.068-.325-.136-.649-.177-.965l-.372-4.572c-.043-.575-.031-1.175-.019-1.78.023-1.111.045-2.239-.272-3.252-.149-.476-.34-.922-.688-1.289-.199-.21-.933-.631-1.645-1.041-.765-.44-1.505-.866-1.53-.998-.015-.08.108-.378.201-.604a3.8 3.8 0 0 0 .09-.227c.28-.826.754-2.792-.181-3.339Zm-2.137 11.434c-.524-.589-1.038-1.034-1.822-1.221-.497.926-.902 1.895-1.307 2.864a55.473 55.473 0 0 1-.761 1.764 44.004 44.004 0 0 1-.806 1.627c-.514 1.001-1.03 2.008-1.387 3.054l2.982-.046 4.097-.362c.02-.388.053-.799.087-1.223.179-2.222.387-4.81-1.083-6.457Z" fill="currentColor"/><path d="M115.538 30c.343.019.643-.05.886.227 1.154 1.322.434 3.153.338 4.668-.242 3.797.562 8.282 3.083 11.253.32.054.63.073.956.068.719-.01 1.274-.253 1.912-.555 3.079-1.454 4.918-4.813 6.911-7.413.627-.819 1.338-1.577 2.069-2.304.953-.949 2.797-2.394 4.198-2.394.37.251.372.309.504.737.686 2.232.033 5.154-.374 7.405-.62 3.436-1.757 6.874-2.709 10.24-.795 2.814-1.397 6.196-2.808 8.752-.506.917-1.224 1.53-2.236 1.812-.48.134-.85.21-1.295-.037-.689-1.705.295-5.973.718-7.88l1.61-9.424c-2.699 1.781-4.618 4.481-7.521 6.01-.542.287-1.154.63-1.777.638-.729.01-1.673-.05-2.327-.372-1.237-.609-2.301-2.146-3.31-3.1-.835 1.467-.868 3.492-1.079 5.137-.103.803-.34 1.572-.457 2.358-.193 1.288-.457 5.937-1.37 6.765-.938.849-2.601.568-3.775.53-.343-2.393.02-5.077.211-7.483.093-1.18-.009-2.6.491-3.703l.104-.212c-.125-.316-.124-.517-.092-.844l.477-3.478.482-4.69c.113-.827.313-1.649.403-2.477.172-1.6-.097-3.247.118-4.846.083-.61.197-1.271.465-1.827.971-2.012 3.208-2.94 5.194-3.561Z" fill="currentColor"/><path d="M81.417 16.004c.496-.027.957.096 1.424.26.77.272 1.426.915 1.781 1.69.16.35.298.695.35 1.085.12.888-.156 1.761-.654 2.467-.653.924-1.702 1.352-2.74 1.494-.835-.04-1.53-.27-2.204-.812-.724-.582-1.251-1.576-1.362-2.541-.085-.74.293-1.73.718-2.296.664-.886 1.675-1.222 2.687-1.347ZM74.226 26.018c.239-.024.5-.034.729.034l.045.082c-1.329 1.235-2.644 2.51-3.525 4.073-1.878 3.334-1.262 7.068.172 10.438l.86 1.929c.207.44.438.866.59 1.327l-.061.099a1.04 1.04 0 0 0-.25-.037h-.084l-1.06-.909c-2.003-1.694-3.95-4.087-4.506-6.608-.107-.488-.123-1.018-.133-1.516-.038-1.82.357-3.48 1.448-5.02 1.344-1.898 3.365-3.423 5.775-3.892ZM90.844 2c.08.03.144.064.211.119.199.161.364.56.477.79.896 1.829 1.224 3.87 1.363 5.896.104 1.511.157 3.074.034 4.586-.073.902-.221 1.763-.368 2.653l-.203 1.352c-.45 2.309-1.168 4.684-2.014 6.87-.795 2.05-1.798 4.107-3.219 5.782-.287.337-.58.684-.95.927-.066.043-.08.02-.153.005-.266-.926 1.997-6.549 2.455-7.92.747-2.24 1.346-4.5 1.797-6.821.18-.919.374-1.847.423-2.784l.044-8.367.013-1.863c.003-.41-.024-.828.09-1.225ZM82.86 39c.392.018.67.129.978.372.712.564 1.164 1.737 1.55 2.55 2.766 5.837 4.156 12.291 5.454 18.577l1.897 9.127 1.97 9.177c.3 1.207.846 2.39 1.343 3.529.344.786.857 1.714.948 2.57l-.079.085c-.409.074-.883-.19-1.237-.375-1.143-.6-1.922-1.573-2.461-2.721-.594-1.266-.915-2.68-1.294-4.02l-1.665-6.018-4.097-14.29-1.943-6.732-.404-1.345c-.137-.492-.269-1.409-.678-1.745-.102-.083-.24-.14-.372-.107-.56.14-1.243 1.982-1.448 2.533-1.007 2.717-1.654 5.589-2.463 8.37L74.76 72.546l-.861 3.053c-.427 1.597-.852 3.186-1.415 4.743-.263.724-.543 1.536-1.019 2.153-.106.138-.158.178-.328.207l-.11-.117c-.097-.697.086-1.571.161-2.277l.72-4.58 1.56-7.585 4.504-18.51.974-3.872c.185-.729.353-1.463.594-2.177.417-1.232 1.09-2.586 1.853-3.652.378-.528.815-.817 1.465-.932Z" fill="currentColor"/><path fill-rule="evenodd" clip-rule="evenodd" d="m192.377 31.225-4.36-.559c-2.004.13-3.977.372-5.398 1.956-1.518 1.693-1.351 4.038-1.197 6.194l.031.435.244 9.474-.129.062c-.809.394-1.978.961-2.288 1.808-.134.369-.049.898.144 1.232.199.347.502.665.795.972.119.125.237.248.345.371.156.177.399.465.478.688.044.125.029.403.017.622a4.3 4.3 0 0 0-.009.22c.003.814-.03 1.544-.208 2.34-.29 1.291-.559 2.639-.573 3.966 0 .057-.002.116-.004.177-.01.292-.022.62.121.849.365.586.847 1.283 1.549 1.442a4.955 4.955 0 0 0 1.643.112c.278-.341.366-.8.45-1.235.015-.077.029-.153.045-.228.074-.357.143-.717.211-1.077.133-.701.266-1.404.445-2.089.236-.903.548-1.778.874-2.651 1.861.987 3.645 2.11 5.429 3.233 1.677 1.055 3.354 2.111 5.096 3.055 1.685.913 3.421 1.784 5.281 2.274.69.177 1.253.223 1.962.197.453-.402.584-.957.622-1.558.048-.738-.228-1.577-.742-2.124-.857-.914-2.068-1.612-3.228-2.28-.482-.278-.956-.551-1.391-.833l-3.148-2.184-.407-.276c-1.78-1.206-3.627-2.457-5.216-3.881a14.212 14.212 0 0 0-.171-.151c-.43-.376-1.151-1.008-1.268-1.403.172-.104.343-.21.516-.316.575-.356 1.158-.715 1.759-1.009a71.674 71.674 0 0 1 1.853-.856c3.768-1.703 9.436-4.265 10.319-7.683.334-1.295.03-2.471-.655-3.592-1.873-3.064-6.468-4.934-9.837-5.694Zm-3.246 5.08c-.985-.121-2.119-.066-3.11-.004l-.569.155-.264.707.18.339.82.135a2.783 2.783 0 0 1 1.859 1.14c.393.565.312 1.24.234 1.885l-.005.041c-.183 1.525-.536 3.038-.887 4.54-.089.382-.178.763-.264 1.144.333.004.733-.166 1.087-.317.112-.047.219-.093.319-.13 1.404-.532 2.745-1.1 4.052-1.846a71.3 71.3 0 0 1 .362-.235c1.528-.986 3.47-2.24 4.003-3.995-.335-.863-2.172-1.64-3.18-2.068l-.299-.128c-1.299-.564-2.932-1.192-4.338-1.364Z" fill="currentColor"/><path d="m221.973 31.776 6.044-.091c1.272.002 2.688-.104 3.927.193.479.115 1.409.351 1.629.806.399.823.09 3.394-.192 4.243-.344.259-.677.214-1.086.215-1.352.002-2.675-.283-4.023-.364.245 1.212.735 2.306.702 3.578-.04 1.491-.464 2.996-.75 4.456l-1.892 9.65c-.498 2.903-.382 5.727-.652 8.63-.08.855-.587 1.298-1.201 1.817-.351.119-.716.242-1.091.236-.453-.006-.871-.122-1.18-.469-.814-.914-.825-2.313-.916-3.47-.315-4.005.071-8.307.539-12.296.092-.785.347-1.54.438-2.333.352-3.08.746-6.185.865-9.283-2.065.35-4.222 1.298-6.291 1.368-.455.015-.85.052-1.262-.165-.221-.282-.269-.473-.318-.831-.163-1.19.075-3.059.865-4.027 1.399-1.717 3.832-1.669 5.845-1.863Z" fill="currentColor"/></svg>