<svg width="300" height="87" viewBox="0 0 300 87" fill="none" xmlns="http://www.w3.org/2000/svg">
<g clip-path="url(#clip0_1769_5047)">
<path d="M149.25 25.5372L155.668 25.5273L155.658 42.3262L155.68 45.5167C155.687 45.8985 155.794 46.5513 155.711 46.9084C155.671 47.0824 155.469 47.3706 155.382 47.5376L149.533 47.5605L149.527 31.3005L149.565 27.6622C149.571 27.1043 149.652 26.4028 149.424 25.8883L149.25 25.5372Z" fill="currentColor"/>
<path d="M186.896 25.6357C188.796 25.3294 191.063 25.5304 193.005 25.5205L193.009 47.0904L192.519 47.4679C190.921 47.894 188.509 47.5742 186.82 47.5708L186.816 32.6659C186.815 30.4087 186.579 27.8616 186.896 25.6357Z" fill="currentColor"/>
<path d="M194.945 25.6359C196.857 25.3296 199.196 25.539 201.138 25.5467L207.754 41.2051L214.161 25.6645C215.981 25.1852 218.786 25.5035 220.691 25.6197C220.276 26.9145 219.535 29.5196 218.524 30.4327C218.747 31.1707 217.386 33.5285 217.015 34.3621L211.204 47.5268L204.352 47.4983C203.045 45.0733 202.073 42.4319 200.95 39.9182L196.468 29.8441C195.968 28.7024 194.866 26.8621 194.945 25.6359Z" fill="currentColor"/>
<path d="M44.2965 25.5282L50.4116 25.4551L50.3694 33.8556L61.0377 33.7834C60.8027 31.7834 60.9476 29.617 60.9454 27.5986C60.9448 27.0663 60.8159 26.0053 61.0368 25.5538L67.0587 25.4586L67.1102 47.5425L60.9463 47.5168L61.0344 39.2198L50.3766 39.1684L50.4198 47.5664L44.2891 47.5044L44.2965 25.5282Z" fill="currentColor"/>
<path d="M159.94 25.6369C161.861 25.3262 164.061 25.5316 166.015 25.5295L165.933 33.8223L176.587 33.7986L176.583 25.5319L182.631 25.5281L182.646 47.0916L182.129 47.4799C181.598 47.6441 180.886 47.5535 180.322 47.5556L176.562 47.6161L176.56 41.213C176.56 40.7425 176.688 39.5497 176.451 39.1705L165.927 39.1424L165.986 47.3962C165.538 47.6212 164.777 47.5481 164.272 47.5553L159.885 47.5798L159.853 32.9261C159.853 30.5992 159.589 27.9268 159.94 25.6369Z" fill="currentColor"/>
<path d="M24.9643 25.2292C29.4624 24.9024 33.9807 25.3156 37.6534 28.206C39.9474 30.0115 40.668 32.3295 41.0097 35.1149C39.1956 34.9538 37.3167 35.0252 35.4923 34.9909C35.3976 34.9891 34.774 34.981 34.7708 34.9772C34.6956 34.8894 34.6107 34.3449 34.5705 34.2044C34.3339 33.3757 34.049 32.8289 33.3811 32.2531C31.6432 30.7551 28.5382 30.6934 26.3552 30.8366C24.4725 30.9601 22.7049 31.3691 21.4165 32.8604C20.3994 34.0374 20.2225 35.8438 20.3319 37.346C20.421 38.5693 20.8766 39.9162 21.8491 40.7198C23.3879 41.9914 26.3015 42.354 28.2433 42.1938C30.5643 42.0023 32.5351 41.8082 34.1248 39.9206L34.9751 38.1028C36.9359 38.1034 38.9494 38.1945 40.8968 37.95L40.9091 37.9991C41.1882 39.3098 40.3085 41.6023 39.5862 42.6826C37.7993 45.3553 34.7609 46.876 31.6804 47.4946C27.4303 48.3479 22.3329 47.8922 18.666 45.4473C16.4388 43.9623 14.8135 41.5906 14.2969 38.9652C13.7206 36.0362 14.2139 32.7303 15.9007 30.2424C18.0671 27.0471 21.3428 25.9252 24.9643 25.2292Z" fill="currentColor"/>
<path d="M71.6084 25.5265L91.6862 25.5234L91.7292 30.8181L77.6679 30.7362L77.661 33.9402L91.0675 33.7632L91.0034 37.1471C91.0165 37.6078 91.2053 38.6525 91.0056 39.0362L81.9427 39.0266L77.6485 39.0594L77.6612 42.2752L91.6133 42.1962L91.7175 47.5412L71.5938 47.5079L71.6084 25.5265Z" fill="currentColor"/>
<path d="M122.324 25.54L126.364 25.5465C126.781 25.5577 127.653 25.4701 128.026 25.6017C129.044 25.9618 130.682 28.3786 131.397 29.2234L139.727 38.8623L139.536 25.5825L145.379 25.4297C145.083 28.2946 145.913 46.3074 145.118 47.2747L144.962 47.4854C144.003 47.7439 142.322 47.5624 141.297 47.4863C140.934 47.4592 140.013 47.4721 139.706 47.3223C138.665 46.8152 137.275 44.5619 136.485 43.6314L128.316 34.1065L128.371 47.6189C126.526 47.3359 124.475 47.4951 122.603 47.4832L122.562 31.0741C122.561 29.8082 122.963 27.0133 122.49 25.8913L122.35 25.588L122.324 25.54Z" fill="currentColor"/>
<path d="M95.7031 25.5233L104.671 25.5507C107.877 25.5508 111.955 25.0478 114.838 26.5945C116.391 27.4279 117.669 28.7105 118.185 30.4294C118.72 32.2073 118.687 34.7524 117.782 36.3918C116.658 38.4291 114.569 39.0565 112.482 39.6696L115.266 42.9416C116.528 44.3475 117.832 45.6606 118.772 47.3141L118.722 47.4233L115.98 47.455L112.855 47.4439C112.527 47.4201 111.982 47.4403 111.682 47.3396C111.23 47.1881 110.421 46.0403 110.102 45.666L105.162 39.8858L101.784 39.7867L101.822 47.562L95.76 47.5415L95.7031 25.5233ZM101.502 30.7804L101.53 30.8233C102.139 31.7806 101.845 34.0164 101.748 35.1576C104.676 35.1709 108.256 35.5449 111.116 34.9107L111.298 34.728C111.864 34.3356 112.189 34.0936 112.321 33.3627C112.437 32.7169 112.281 32.0144 111.956 31.4536C110.553 30.2985 103.638 30.8561 101.502 30.7804Z" fill="currentColor"/>
<path d="M152.328 51.4548C154.753 51.1873 157.382 51.3897 159.826 51.3915L174.705 51.3951L195.637 51.3671L208.256 51.4093C209.271 51.4632 210.336 51.7372 211.317 52.0072C214.253 52.815 217.512 55.67 218.992 58.3069C220.321 60.6735 220.931 64.6399 220.34 67.2881C220.119 68.2724 219.625 69.1299 219.361 70.0841C219.306 70.2848 219.249 70.4877 219.16 70.6768C217.638 73.8841 214.572 76.2528 211.287 77.4295C210.228 77.8092 208.952 77.8637 207.835 78.0004C205.735 78.3204 203.342 78.079 201.208 78.0804L187.097 78.1023L163.951 78.1335C160.112 78.1357 156.002 78.4128 152.187 78.0361C150.41 77.8608 147.945 77.0564 146.449 76.0688C143.483 74.1117 141.228 70.8913 140.509 67.4201C140.18 65.8287 139.734 62.5893 140.693 61.1538C141.183 60.4212 141.299 59.4149 141.684 58.6063C142.847 56.161 146.28 52.9688 148.884 52.1272L152.328 51.4548Z" fill="currentColor"/>
<path d="M201.309 62.3628L201.435 62.3382C201.803 62.276 202.343 62.1726 202.705 62.2555C203.008 62.3249 203.303 62.5215 203.619 62.5201C204.504 62.5164 206.019 61.975 206.776 62.499L206.851 63.5449C206.413 64.1802 204.903 63.8496 204.135 64.1458C203.506 64.388 203.378 65.2352 203.139 65.8162C203.717 66.5648 203.503 68.1442 203.504 69.0649C202.875 69.1398 202.184 69.0867 201.548 69.0874C201.42 66.9953 201.858 64.3985 201.322 62.4105L201.309 62.3628Z" fill="#004737"/>
<path d="M162.619 59.635L163.341 59.627C163.401 59.6342 163.723 59.7216 163.754 59.7718C163.863 59.9467 163.803 60.813 163.804 61.0419L163.826 65.687C163.831 66.1792 163.715 66.8817 164.038 67.2719C164.526 67.3552 164.775 67.4616 165.123 67.8174C165.142 68.3992 165.21 68.5563 164.847 69.0384L163.836 69.157C163.38 69.0646 162.957 68.8675 162.531 68.6872C162.283 68.4624 162.107 68.2021 162.016 67.8806C161.757 66.9596 161.662 60.4524 162.046 59.7597L162.619 59.635Z" fill="#004737"/>
<path d="M190.796 68.666L190.713 69.0318C189.438 69.0587 188.078 69.2747 187.035 68.4006C186.332 67.321 186.545 65.3494 186.53 64.0763C185.892 64.0681 184.8 64.1923 184.278 63.818L184.223 62.5453C184.696 62.116 185.52 62.2718 186.159 62.2691C186.863 61.7896 186.376 61.141 186.887 60.4803L188.071 60.4492C188.812 60.9603 188.272 61.5747 188.8 62.27C189.615 62.2731 190.437 62.254 191.247 62.3635C191.496 62.8817 191.422 62.9847 191.284 63.5193L191.145 63.8633L188.487 63.9991C188.501 65.0975 188.431 66.2705 188.603 67.3549L190.77 67.4544L191.019 67.9089L190.796 68.666Z" fill="#004737"/>
<path d="M166.166 62.3632C166.848 62.3345 167.55 62.1795 168.153 62.5107L168.177 65.6897C168.229 66.3427 168.397 66.8134 168.926 67.2332C169.343 67.5644 169.987 67.5882 170.494 67.5137C172.583 67.2073 172.124 65.0968 172.111 63.5515C172.108 63.1411 172.029 62.7111 172.285 62.3634C172.861 62.3306 173.51 62.1737 173.998 62.4855C174.088 63.1134 174.029 63.4404 173.727 63.9984C173.853 64.1489 173.998 64.3557 174.039 64.552C174.209 65.3472 174.24 68.5365 173.825 69.1263C173.023 69.2252 172.495 68.8405 171.759 68.8478C171.297 68.8529 170.766 69.17 170.26 69.21C169.158 69.2972 168.127 69.2594 167.265 68.5016C165.724 67.1462 166.295 64.2323 166.166 62.3632Z" fill="#004737"/>
<path d="M160.18 66.8173C160.213 67.0752 160.274 67.2161 160.146 67.4521C159.713 68.2557 159.015 68.8143 158.134 69.0688C156.805 69.4535 155.072 69.4383 153.852 68.7604C153.253 68.4281 152.582 67.7415 152.394 67.072C152.137 66.156 152.08 64.9009 152.561 64.0498C153.07 63.1508 154.011 62.5661 154.995 62.3104C156.247 61.9851 157.845 62.1533 158.959 62.838C159.397 63.1073 159.878 63.548 159.999 64.0615C160.308 64.5153 160.398 64.572 160.335 65.1307C159.799 65.2528 159.335 65.3694 158.783 65.2732C158.086 64.5631 157.574 63.9778 156.508 63.9636C155.895 63.9553 155.185 64.0624 154.736 64.5075C154.388 64.8527 154.201 65.4015 154.21 65.8872C154.217 66.3182 154.332 66.714 154.649 67.0149C155.12 67.4623 155.683 67.6138 156.324 67.5904C157.604 67.5436 157.709 66.8328 158.65 66.4207C159.118 66.2155 159.681 66.2796 160.176 66.3306L160.18 66.8173Z" fill="#004737"/>
<path d="M175.874 65.1627C175.957 64.4681 175.998 63.5802 176.55 63.0837C177.506 62.2245 178.965 62.118 180.191 62.1687C181.205 62.2107 182.422 62.3004 183.15 63.1063C183.543 63.5408 183.663 63.6749 183.632 64.2596L183.688 64.8682L183.243 65.2739L183.778 65.6113L183.467 66.0981C183.84 66.6083 183.914 66.7629 183.813 67.4035C183.74 67.8721 183.43 68.2736 183.053 68.5361C181.946 69.307 179.688 69.347 178.388 69.1027C176.91 68.8241 176.601 68.3616 175.602 67.3917C175.729 67.2864 175.997 67.0075 176.139 66.9483C176.614 66.7491 178.98 67.7616 179.796 67.8074C180.559 67.851 181.429 67.8045 182.025 67.2721L181.984 66.8941C180.741 66.2625 179.07 66.4592 177.713 66.1407C177.018 65.9775 176.437 65.5838 175.874 65.1627Z" fill="#004737"/>
<path d="M183.47 66.0995C182.497 64.3327 179.141 65.6303 177.918 64.4166L177.963 64.0812C178.036 64.0158 178.11 63.9553 178.195 63.9045C178.714 63.5932 180.58 63.6404 181.159 63.819C181.584 63.9499 181.939 64.317 182.366 64.4109C182.83 64.5129 183.243 64.5176 183.635 64.261L183.691 64.8696L183.246 65.2754L183.781 65.6127L183.47 66.0995Z" fill="currentColor"/>
<path d="M191.851 63.8893C193.553 62.6219 194.569 61.8595 196.839 62.1907C197.949 62.3526 198.77 62.7478 199.456 63.6659C199.909 64.2726 199.965 64.9017 199.988 65.6364L199.583 66.2518L199.739 66.9966C199.771 67.464 199.816 67.5176 199.502 67.8735C198.659 68.8284 197.821 69.0997 196.573 69.1731C195.049 69.2633 194.001 68.9811 192.585 68.4284C192.596 68.179 192.489 67.9608 192.35 67.7586C191.482 66.496 191.901 65.299 191.851 63.8893Z" fill="#004737"/>
<path d="M194.906 63.8185L195.053 63.8024C195.5 63.7651 196.008 63.6919 196.451 63.761C197.028 63.8511 197.408 64.0841 197.727 64.546L197.452 64.858L196.36 64.9097C195.76 64.8994 194.531 65.0247 194.078 64.6369C194.208 64.1398 194.485 64.0794 194.906 63.8185Z" fill="currentColor"/>
<path d="M199.74 66.9967C198.861 66.4697 196.439 67.9434 195.177 67.6288C194.56 67.4749 194.202 67.161 193.883 66.6365L194.174 66.3009L199.584 66.252L199.74 66.9967Z" fill="currentColor"/>
<path d="M257.254 9.27226L257.671 9.25124C264.879 9.06361 271.928 11.8019 277.306 16.5222C278.361 17.4478 279.107 18.6191 280.107 19.5791C280.879 20.3199 281.322 21.2656 281.844 22.1814C282.838 23.9287 283.7 25.5992 284.42 27.4859C284.596 27.9488 284.639 28.4491 284.811 28.9086C284.993 29.3974 285.318 29.8562 285.447 30.3632C285.574 30.8656 285.519 31.3886 285.6 31.8951C285.817 33.2611 286.003 34.4842 286.032 35.8748C286.186 43.0505 283.4 50.1128 278.405 55.3119C273.393 60.5293 266.491 63.5708 259.25 63.7248C254.656 63.7344 250.695 62.8016 246.535 60.8733C245.224 60.2654 243.95 59.6752 242.78 58.8072C238.325 55.5018 234.773 51.1444 232.783 45.9319C232.073 44.0735 231.668 42.0726 231.307 40.1248C231.189 39.4852 230.932 38.8097 230.856 38.1798C230.491 35.1886 231.291 32.1082 232.202 29.3127C232.461 28.515 232.502 27.6578 232.775 26.8469C233.056 26.0122 233.566 25.2773 233.972 24.5016C234.429 23.6308 234.771 22.6531 235.286 21.8177C235.731 21.096 236.401 20.4194 236.927 19.7416C238.172 18.1387 239.524 16.9871 241.031 15.6672C241.679 15.0991 242.253 14.4176 242.947 13.9055C247.212 10.7555 252.12 9.92383 257.254 9.27226Z" fill="currentColor"/>
<path d="M246.461 27.2286L251.11 27.2012L251.129 39.3806C251.129 41.2315 251.287 43.2578 251.102 45.0914C251.078 45.3416 250.935 45.5901 250.791 45.7911L246.716 45.7754C246.722 43.7392 247.05 28.1242 246.461 27.2286Z" fill="#004737"/>
<path d="M253.422 27.1875L272.958 27.2221L272.938 31.0591L265.501 31.0162L265.529 36.4171C265.528 36.9948 265.64 37.9202 265.373 38.4198L265.191 38.7264C265.654 39.2922 265.525 40.0294 265.525 40.7181L265.482 45.839L261.122 45.8431L261.145 31.0246L253.675 31.043C253.689 30.058 253.941 28.0358 253.444 27.2238L253.422 27.1875Z" fill="#004737"/>
</g>
<defs>
<clipPath id="clip0_1769_5047">
<rect width="300" height="87" fill="white"/>
</clipPath>
</defs>
</svg>
