<?xml version="1.0" encoding="utf-8"?>
<!-- Generator: Adobe Illustrator 25.4.1, SVG Export Plug-In . SVG Version: 6.00 Build 0)  -->
<svg version="1.1" id="Layer_1" xmlns="http://www.w3.org/2000/svg" xmlns:xlink="http://www.w3.org/1999/xlink" x="0px" y="0px"
	 viewBox="0 0 300 87" enable-background="new 0 0 300 87" xml:space="preserve">
<g>
	<path fill="currentColor" d="M103.9,25.2c-4-0.2-11.8-0.5-11.8-0.5v-1l0.5-0.7v-1.2h-0.1c0-0.2,0-0.5,0-0.7c0.2-0.1,0.2-0.2,0.2-0.2
		s0.3,0.2,0.5,0.1c0-0.2-0.2-0.5-0.2-0.5s0.2-0.2,0.2-0.7c-0.2,0.1-0.3,0.1-0.4,0c0,0,0,0-0.1-0.1c0,0-0.1-0.1-0.1-0.2
		c0.2-0.2,0.2-0.5,0.2-0.6c0.2-0.4,0.2-0.7,0-0.9c-0.1-0.1-0.1-0.1-0.2-0.2h1.8v-1.3l1.3-1.7L96,14l-2.5,0.2
		c0.6-0.2,0.8-0.6,0.8-1.1c-0.9,0.5-1.8-0.2-1.6-1.2c0-0.2,0.1-0.3,0.2-0.5c0.4-0.8,0.2-1.7-0.3-2.4c-1.1-1.7-3.5-2.2-5.5-1.1
		C86.4,8.3,85.5,9,85,7.5c-1,0.9,0,1.7-0.7,2.1C84,9.9,83.5,10,82.9,9.2c-0.3-0.7-0.1-1.2,0.2-1.6c-0.7,0-1.1,0.1-1.4,0.6
		c-0.4-0.1-0.8-0.5-1-1.2c-0.3,0.3-0.7,0.8-0.5,1.4c-0.5-0.2-1-0.6-1.4-0.8c-1-0.2-2-0.5-2.9-0.5c-0.7,0-2.2-0.5-2.3-1.2
		c-0.2-0.7,0.1-0.8,0.3-0.8c0.3,0,0.3,0.5,0.4,0.5c0.2,0.6,0.6,0.6,1,0.5c0.5-0.2,0.5-0.9,0.2-1.4c-0.8-1.4-2.2-1.1-3-0.5
		c-0.1-0.6,0.5-0.8,0.5-1.4c-0.1-0.8-0.8-1.7-1-1.7C71.5,1.4,71,2,70.9,2.8c-0.1,0.6,0.5,1,0.4,1.5c-0.5-0.5-1.4-0.6-1.9-0.6
		c-0.7,0.1-1.3,0.5-1.3,1.5c0,0.3,0.2,1,0.7,1.1c0.4,0.2,0.8,0.2,0.9-0.1c0.2-0.2-0.1-0.7,0-0.9c0.2-0.2,0.5-0.2,0.7,0.1
		c0.2,0.3,0,0.6-0.1,0.8c-0.4,0.8-1.7,1.3-2.5,1.1C67.3,7,66.7,6.8,66,6.8c-1,0.1-2,0.4-2.6,1.3c0.2-0.5,0-1.1-0.5-1.4
		c-0.1,0.8-0.2,1.1-0.8,1.4c-0.4-0.8-0.9-0.9-2-0.8c0.8,0.4,0.9,1.4,0.3,1.8c-0.4,0.3-1.4,0.5-1.6-0.2c-0.2-0.5,0.7-0.7,0.1-1.7
		c-0.2,1-1.5,0.8-2.3,0.3c-1.4-1-3-1.1-4.4-0.4c-1.7,0.9-2.3,2.4-1.3,4.1c0.4,0.6,0.4,1.2-0.1,1.4c-0.4,0.2-0.8,0.2-1.2,0.1
		c0,0.2,0.2,0.8,0.8,1.1h-2.3c0.1,0.5,0.2,1.2,0.2,1.2l1.2,1.5v1.4h1.5c-0.1,0.1-0.2,0.2-0.3,0.2c0,0,0,0-0.1,0.1
		c0,0.1-0.1,0.1-0.1,0.2c-0.1,0.2-0.2,0.3-0.2,0.5c0,0.2,0,0.3,0.1,0.5c0.1,0.2,0.2,0.3,0.2,0.4s0.1,0.1,0.1,0.2l0,0
		c-0.1,0-0.1-0.1-0.2,0h-0.1c-0.1,0.3,0.1,0.5,0.1,0.6s0,0.1,0,0.2c-0.1,0.1-0.1,0.2-0.1,0.4h0.1c0,0.5,0,1.1,0,1.1l0.9,0.2v0.9
		l1.1,0.3h-1.3l-1.3-0.1L40.1,23l-2.4,59.2c0,0,8.5-0.5,12.7-0.9c0,0.2,0,1.2-0.2,1.6c-0.2,0.4-0.4,0.2-0.4,0.5
		c0,0.2,0.2,0.4,0.2,0.5c-0.1,0.3-1,0.8-1,0.8v0.7l44.4,0.2v-0.5l-0.5-0.8l-0.5-2.9l-4.5-1c0.4,0.1,12.8,1.6,17.4,2
		C104.8,63.4,104.4,44.3,103.9,25.2z M71.9,21.8c0.3-0.2,1-0.8,1.4-1.4c0.1-0.1,0.1-0.2,0.2-0.2c0.2,0.2,0.5,0.5,0,0.8
		c0.3,0.3,0.7,0.2,0.7,0.2s0.1,0.3,0.2,0.4c0.2-0.2,0.2-0.4,0.2-0.4s0.5,0.1,0.7-0.3c-0.3-0.1-0.3-0.3-0.2-0.5l0.1,0.1
		c0.6,0.6,1.2,1,1.4,1.1c0.3-0.2,1-0.8,1.5-1.4l0.1-0.1c0.2,0.2,0.5,0.5,0.1,0.8c0.3,0.3,0.7,0.2,0.7,0.2s0.1,0.3,0.2,0.4
		c0.2-0.2,0.2-0.4,0.2-0.4s0.5,0.1,0.7-0.3c-0.3-0.1-0.3-0.4-0.2-0.7c0,0,0,0,0.1,0.1c0.6,0.6,1.3,1.1,1.4,1.1
		c0.3-0.2,1-0.8,1.6-1.4c0.2,0.2,0.6,0.5,0.1,0.9c0.3,0.3,0.7,0.2,0.7,0.2s0.1,0.3,0.2,0.4c0.2-0.2,0.2-0.4,0.2-0.4s0.5,0.1,0.7-0.3
		c-0.3-0.1-0.3-0.3-0.2-0.5l0,0c0.6,0.6,1.3,1.1,1.4,1.2c0,0,0.1,0,0.1-0.1c0.3-0.2,1-0.8,1.4-1.4c0.2-0.2,0.2-0.3,0.4-0.5
		c0.2-0.3,0.4-0.6,0.4-0.8c0.2-0.2,0.1-0.5-0.1-0.8c-0.1-0.1-0.1-0.1-0.2-0.2h0.8c-0.1,0.1-0.2,0.1-0.2,0.2c0,0,0,0.1-0.1,0.1
		c-0.1,0.2-0.2,0.3-0.2,0.5c0,0.1,0,0.2,0,0.2c0,0.1,0,0.2,0,0.3c0.1,0.2,0.2,0.5,0.4,0.8c0,0,0,0,0.1,0.1c-0.1,0.1-0.2,0.1-0.2,0.1
		c-0.2,0-0.6-0.5-0.6-0.5l-0.5,0.5c0,0,0.8,0.5,0.2,0.9c0.3,0.3,0.7,0.2,0.7,0.2s0.1,0.3,0.2,0.4c0.2-0.2,0.2-0.4,0.2-0.4
		s0.5,0.1,0.7-0.3c-0.2-0.1-0.3-0.2-0.3-0.4c0,0,0,0,0.1,0c0.6,0.6,1.3,1.1,1.4,1.2c0,0,0.1,0,0.1-0.1c0.1-0.1,0.2-0.2,0.3-0.2
		L91,21.8H71.9z M52.7,18.9c-0.1,0.2-0.4,0.3-0.6,0.3l0.1,0.1c0,0,0,0.1,0.1,0.1c0,0,0,0,0,0.1c0.1,0.1,0.2,0.2,0.2,0.2
		c0,0,0,0,0.1,0h0.1c0,0,0,0,0.1,0c0,0,0,0,0.1,0c0,0,0.1,0,0.1-0.1v0.1c0,0.2,0,0.4,0.1,0.5c0,0.1,0.1,0.2,0.1,0.2c0,0,0,0,0,0.1
		c0.1-0.1,0.1-0.1,0.2-0.2c0,0,0-0.1,0.1-0.1c0-0.1,0.1-0.1,0.1-0.2c0,0,0,0,0-0.1v-0.1c0,0,0,0,0-0.1v-0.1c0,0,0,0,0-0.1
		c0,0,0,0,0-0.1v-0.1c0,0,0,0,0-0.1c0,0,0,0,0-0.1h0.1h0.1h0.1h0.1h0.1h0.1c0,0,0,0,0.1,0h0.1c0,0,0,0,0.1,0c0,0,0,0,0.1,0
		c0,0,0,0,0.1-0.1c0,0,0,0,0.1-0.1c-0.4,0-0.7-0.4-0.6-0.5v-0.1c0-0.1,0.1-0.2,0.1-0.2c0,0,0,0,0.1,0c0,0,0,0,0.1,0c0,0,0,0,0.1,0
		c0,0,0,0,0.1,0c0,0,0,0,0.1,0h0.1h0.1c0,0,0,0,0.1,0h0.1c0,0,0,0,0.1,0c0,0,0,0,0.1,0c0,0.1,0.1,0.1,0.1,0.2c0,0,0,0,0,0.1
		s0,0.2,0,0.3s-0.1,0.2-0.2,0.3c0.1,0.2,0,0.3-0.1,0.5c0,0.1-0.1,0.1-0.1,0.2c0,0,0,0.1-0.1,0.1c0,0,0,0.1-0.1,0.1
		c-0.1,0.1-0.1,0.1-0.2,0.2l-0.1,0.1c-0.1,0.1-0.1,0.1-0.2,0.2c0,0,0,0-0.1,0.1l-0.1,0.1c0,0-0.1,0-0.1,0.1c-0.1,0-0.1,0.1-0.2,0.1
		c0,0-0.1,0-0.1,0.1c0,0-0.1,0-0.1,0.1c0,0-0.1,0-0.1,0.1c0-0.2-0.1-0.2-0.1-0.1c0,0,0,0-0.1-0.1c0,0-0.1-0.1-0.2-0.1
		c0,0,0,0-0.1-0.1c-0.1-0.1-0.1-0.1-0.2-0.2c-0.1-0.1-0.2-0.1-0.2-0.2c0,0,0-0.1-0.1-0.1l-0.1-0.1l-0.1-0.1c-0.1,0-0.1-0.1-0.1-0.1
		L52,19.9l-0.1-0.1c0-0.1,0-0.1,0-0.2c-0.1,0-0.1-0.1-0.1-0.1c-0.1,0-0.1-0.1-0.1-0.1c-0.1-0.1-0.1-0.2-0.2-0.2l-0.1-0.1h-0.2v-0.1
		v-0.1c0-0.1,0-0.2,0-0.2v-0.1c0,0,0,0,0-0.1v-0.1c0,0,0,0,0-0.1l0.1-0.1l0.1-0.1c0,0,0,0,0.1,0c0,0,0,0,0.1,0h0.1c0,0,0,0,0.1,0
		h0.1c0,0,0,0,0.1,0h0.1c0,0,0,0,0.1,0c0,0,0,0,0.1,0c0,0,0,0,0.1,0c0,0,0,0,0.1,0c0,0,0,0,0.1,0c0,0,0,0,0.1,0l0.1,0.1
		c0,0,0,0,0,0.1C52.7,18.7,52.7,18.8,52.7,18.9z M84.4,19c-0.2-0.5,0.2-0.8,0.6-0.8c0.2,0,0.4,0.2,0.5,0.3l0.1,0.1
		c0,0.1,0.1,0.2,0,0.2V19c0,0,0,0.1-0.1,0.1c-0.2,0.2-0.4,0.2-0.5,0.2c0.2,0.3,0.4,0.4,0.5,0.4c0,0,0,0,0.1,0c0.1,0,0.2-0.1,0.2-0.1
		c-0.2,0.5,0.2,1,0.2,1c0.4-0.4,0.3-0.8,0.2-1c0.3,0.1,0.6,0.1,0.8-0.2c-0.4,0-0.7-0.4-0.6-0.5c0-0.2,0.2-0.5,0.7-0.5
		c0.5,0,0.6,0.5,0.5,0.8c-0.2,0.2-0.7,1.4-1.7,1.8c0,0-0.1-0.1-0.2-0.2c0,0,0,0-0.1-0.1C85.5,20.3,84.6,19.6,84.4,19z M86.3,18.2
		C86.3,18.2,86.3,18.2,86.3,18.2c-0.1,0.1-0.2,0.2-0.2,0.3c0-0.1-0.1-0.2-0.2-0.4l-0.1-0.1h0.6C86.4,18.1,86.4,18.1,86.3,18.2z
		 M84,19.9C84,19.9,84,20,84,19.9c-0.1,0.2-0.2,0.2-0.2,0.2c-0.2,0-0.5-0.4-0.6-0.5c0.2-0.2,0.3-0.5,0.3-0.6c0-0.1,0-0.1,0-0.2
		c0.1,0,0.1-0.1,0.1-0.2c0-0.2-0.1-0.4-0.2-0.5l-0.1-0.1H84L84,18.1c0,0,0,0.1-0.1,0.1c-0.1,0.2-0.2,0.3-0.2,0.5c0,0.1,0,0.2,0,0.2
		s0,0.2,0,0.3C83.7,19.4,83.9,19.7,84,19.9z M79.7,19.1c-0.2-0.5,0.2-0.8,0.6-0.8c0.2,0,0.5,0.2,0.5,0.4v0.1c0,0.1,0,0.1,0,0.2
		c0,0,0,0,0,0.1s-0.1,0.2-0.2,0.2c-0.1,0-0.1,0.1-0.2,0.1c-0.1,0-0.2,0.1-0.3,0.1c0.1,0.1,0.1,0.2,0.2,0.2l0.1,0.1
		c0.2,0.2,0.4,0.2,0.5,0.1c0,0.2,0,0.3,0,0.5v0.1c0.1,0.2,0.1,0.2,0.2,0.3l0.1,0.1c0,0,0.1-0.1,0.1-0.2c0.2-0.2,0.3-0.6,0.2-0.8
		c0.3,0.1,0.6,0.1,0.8-0.2c-0.4,0-0.7-0.4-0.6-0.5c0-0.2,0.2-0.5,0.7-0.5c0.5,0,0.6,0.5,0.5,0.8c0.1-0.1-0.5,1.1-1.5,1.6
		c0,0-0.1-0.1-0.2-0.2c0,0-0.1-0.1-0.2-0.1C80.5,20.2,79.8,19.6,79.7,19.1z M81.6,18.1c-0.1,0.2-0.2,0.2-0.2,0.4
		c0-0.1-0.1-0.2-0.2-0.4l-0.1-0.1L81.6,18.1C81.7,18.1,81.6,18.1,81.6,18.1z M79,19.2c0.1,0.2,0.2,0.5,0.4,0.7c0,0,0,0,0,0.1
		c-0.1,0.2-0.2,0.2-0.3,0.2c-0.2,0-0.5-0.4-0.5-0.5c0.1-0.2,0.2-0.3,0.2-0.5c0-0.1,0.1-0.2,0.1-0.2c0.2-0.2,0.2-0.3,0.2-0.5
		s-0.1-0.3-0.2-0.4s-0.1-0.1-0.2-0.2h0.7l-0.1,0.1c0,0,0,0.1-0.1,0.1c-0.1,0.1-0.2,0.2-0.2,0.3s-0.1,0.2-0.1,0.3
		C78.9,19,78.9,19,79,19.2z M75,19c-0.2-0.5,0.2-0.7,0.6-0.7c0.4,0,0.6,0.4,0.6,0.5c-0.1,0.2-0.4,0.3-0.6,0.3
		c0.3,0.5,0.5,0.5,0.8,0.3c-0.1,0.3,0.2,0.8,0.2,0.9c0.2-0.2,0.4-0.7,0.2-0.9c0.3,0.1,0.6,0.1,0.8-0.2c-0.4,0-0.7-0.4-0.6-0.5
		c0-0.2,0.2-0.5,0.7-0.5s0.6,0.5,0.5,0.8c0,0.2-0.5,1.4-1.6,1.8C76.7,20.8,75.2,19.8,75,19z M77,18.2c-0.1,0.2-0.2,0.2-0.2,0.4
		c0-0.1-0.1-0.2-0.2-0.4c0-0.1-0.1-0.1-0.2-0.2h0.8C77,18.1,77,18.1,77,18.2z M74.6,19.9C74.6,19.9,74.6,20,74.6,19.9
		c-0.1,0.2-0.2,0.2-0.2,0.2c-0.2,0-0.4-0.2-0.5-0.4c0.2-0.2,0.2-0.4,0.2-0.6c0.2-0.5,0.1-0.8-0.1-1c-0.1-0.1-0.1-0.1-0.2-0.2h0.8
		c-0.1,0.1-0.2,0.1-0.2,0.2c0,0,0,0.1-0.1,0.1c-0.1,0.2-0.2,0.3-0.2,0.5c0,0.1,0,0.1,0,0.2s0,0.2,0,0.2
		C74.3,19.4,74.5,19.6,74.6,19.9z M71.8,20.7C71.8,20.7,71.8,20.7,71.8,20.7c-0.5-0.4-1.4-1.1-1.5-1.7c-0.2-0.5,0.2-0.8,0.6-0.8
		c0.2,0,0.4,0.2,0.5,0.3l0.1,0.1c0,0.1,0.1,0.2,0,0.2c0,0.3-0.3,0.3-0.6,0.3c0.2,0.3,0.4,0.5,0.5,0.5c0,0,0,0,0.1,0
		c0.1,0,0.2-0.1,0.2-0.1c-0.2,0.6,0.2,1,0.2,1c0.4-0.2,0.4-0.8,0.2-1c0.3,0.2,0.6,0,0.8-0.3c-0.4,0.1-0.6,0-0.6-0.3
		c0-0.2,0.2-0.5,0.7-0.5c0.5,0,0.5,0.5,0.5,0.8c0.1,0-0.5,1.2-1.5,1.7C71.9,20.8,71.8,20.8,71.8,20.7z M72.2,18.2
		c-0.1,0.2-0.2,0.2-0.2,0.4c0-0.1-0.1-0.2-0.2-0.4c0-0.1-0.1-0.1-0.2-0.2h0.8C72.3,18.1,72.3,18.1,72.2,18.2z M69.9,20
		c-0.1,0.1-0.2,0.2-0.3,0.2c-0.2,0-0.5-0.3-0.5-0.5c0.1-0.2,0.2-0.3,0.2-0.5c0-0.1,0.1-0.2,0.1-0.2c0.2-0.2,0.2-0.3,0.1-0.5
		c0-0.2-0.1-0.3-0.2-0.4s-0.1-0.1-0.2-0.2H70c-0.1,0.1-0.2,0.1-0.2,0.2c0,0,0,0.1-0.1,0.1c-0.1,0.2-0.2,0.3-0.2,0.5
		c0,0.1,0,0.2,0,0.2c0,0.1,0,0.2,0,0.3C69.6,19.5,69.7,19.7,69.9,20z M65.7,19c-0.2-0.5,0.2-0.8,0.5-0.8c0.4,0,0.6,0.4,0.6,0.6
		c-0.1,0.2-0.4,0.3-0.6,0.3c0.3,0.5,0.5,0.5,0.8,0.3c-0.1,0.3,0.2,0.8,0.2,0.9c0.2-0.2,0.4-0.7,0.2-0.9c0.3,0.1,0.6,0.1,0.8-0.2
		c-0.4,0-0.7-0.4-0.6-0.5c0-0.2,0.2-0.5,0.7-0.5c0.5,0,0.5,0.5,0.5,0.8c0,0.2-0.5,1.4-1.6,1.8C67.3,20.8,65.9,19.7,65.7,19z
		 M67.5,18.2C67.5,18.2,67.5,18.2,67.5,18.2c-0.2,0.2-0.2,0.3-0.2,0.5c0-0.1-0.1-0.2-0.2-0.4c-0.1-0.1-0.2-0.2-0.2-0.2h0.8
		C67.6,18.1,67.6,18.1,67.5,18.2z M65.1,18.3C65.1,18.3,65.1,18.4,65.1,18.3c-0.2,0.2-0.2,0.3-0.2,0.5c0,0.1,0,0.2,0,0.2
		c0,0.1,0,0.2,0,0.3c0.1,0.2,0.2,0.5,0.4,0.8c-0.1,0.1-0.2,0.1-0.2,0.1c-0.2,0-0.5-0.3-0.5-0.5c0.2-0.2,0.2-0.5,0.2-0.6
		c0.1-0.4,0-0.7-0.1-0.9c-0.1-0.1-0.1-0.1-0.2-0.2h0.9C65.3,18.1,65.1,18.2,65.1,18.3z M60.9,19c-0.2-0.5,0.2-0.8,0.5-0.8
		c0.2,0,0.4,0.1,0.5,0.2l0.1,0.1c0,0.1,0.1,0.2,0,0.2c0,0.3-0.3,0.3-0.6,0.3c0.2,0.3,0.4,0.5,0.5,0.5c0,0,0,0,0.1,0s0.2-0.1,0.2-0.1
		c-0.2,0.6,0.2,1,0.2,1c0.4-0.2,0.4-0.8,0.2-1c0.3,0.2,0.6,0,0.8-0.3c-0.4,0.1-0.6,0-0.6-0.3c0-0.2,0.2-0.5,0.7-0.5
		c0.5,0,0.6,0.5,0.5,0.8c0,0.1-0.5,1.3-1.6,1.7c0,0-0.1-0.1-0.2-0.2c0,0,0,0-0.1-0.1C61.9,20.3,61.1,19.6,60.9,19z M62.8,18.2
		c-0.1,0.2-0.2,0.2-0.2,0.4c0-0.1-0.1-0.2-0.2-0.4c0-0.1-0.1-0.1-0.2-0.2H63C62.9,18.1,62.9,18.1,62.8,18.2z M60.5,20
		c-0.1,0.1-0.2,0.2-0.3,0.2c-0.2,0-0.3-0.2-0.5-0.4l0,0c0,0,0-0.1,0.1-0.1c0.1-0.2,0.2-0.3,0.2-0.5c0-0.1,0-0.1,0-0.2
		c0.1-0.2,0.1-0.3,0-0.5c0-0.2-0.1-0.4-0.2-0.5c0,0,0-0.1-0.1-0.1h0.8c-0.1,0.1-0.2,0.1-0.2,0.2c0,0,0,0.1-0.1,0.1
		c-0.1,0.2-0.2,0.3-0.2,0.5c0,0.1,0,0.2,0,0.2c0,0.1,0,0.2,0,0.3C60.2,19.5,60.3,19.7,60.5,20z M56.3,19.6c-0.1-0.1-0.2-0.2-0.2-0.3
		v-0.1v-0.1c0-0.1,0-0.2,0-0.2v-0.1v-0.1v-0.1c0,0,0,0,0-0.1l0.1-0.1l0.1-0.1c0,0,0,0,0.1,0c0,0,0,0,0.1,0h0.1c0,0,0,0,0.1,0h0.1
		c0,0,0,0,0.1,0h0.1c0,0,0,0,0.1,0c0,0,0,0,0.1,0c0,0,0,0,0.1,0c0,0,0,0,0.1,0c0,0,0,0,0.1,0c0,0,0,0,0.1,0l0.1,0.1c0,0,0,0,0,0.1
		c0.1,0.1,0.1,0.2,0.1,0.3c-0.1,0.2-0.4,0.3-0.6,0.3l0.1,0.1c0.1,0.2,0.2,0.2,0.3,0.2c0,0,0,0,0.1,0h0.1c0,0,0,0,0.1,0
		c0,0,0,0,0.1,0c0,0,0.1,0,0.1-0.1v0.1c0,0.2,0,0.4,0.1,0.5c0,0.1,0.1,0.2,0.1,0.2c0,0,0,0,0,0.1l0.1-0.1c0,0,0-0.1,0.1-0.1
		c0,0,0-0.1,0.1-0.1c0.1-0.2,0.2-0.2,0.2-0.4c0,0,0,0,0-0.1s0-0.1,0-0.2c0,0,0,0,0-0.1c0,0,0,0,0-0.1c0,0,0,0,0-0.1h0.1h0.1h0.1h0.1
		c0,0,0,0,0.1,0h0.1c0,0,0,0,0.1,0c0,0,0,0,0.1,0c0,0,0,0,0.1,0c0,0,0,0,0.1,0c0,0,0,0,0.1-0.1c0,0,0,0,0.1-0.1
		c-0.4,0-0.7-0.4-0.6-0.5v-0.1c0-0.1,0.1-0.2,0.1-0.2c0,0,0,0,0.1,0c0,0,0,0,0.1,0c0,0,0,0,0.1,0c0,0,0,0,0.1,0c0,0,0,0,0.1,0H59
		c0,0,0,0,0.1,0h0.1c0,0,0,0,0.1,0c0,0,0,0,0.1,0c0,0.1,0.1,0.1,0.1,0.2c0,0,0,0,0,0.1s0,0.2,0,0.3s-0.1,0.2-0.2,0.5v0.1
		c0,0.2,0,0.3-0.1,0.5C59,19.9,59,19.9,59,19.9s0,0.1-0.1,0.1c0,0.1-0.1,0.1-0.2,0.2l-0.1,0.1l-0.1,0.1l-0.1,0.1
		c-0.1,0.1-0.1,0.1-0.2,0.2c0,0-0.1,0-0.1,0.1c-0.2,0.2-0.3,0.2-0.5,0.3c0,0-0.1,0-0.1,0.1c0,0-0.2-0.2-0.5-0.4
		c-0.1-0.1-0.1-0.1-0.2-0.2c-0.1-0.1-0.1-0.1-0.2-0.2l-0.1-0.1c-0.1-0.1-0.1-0.1-0.2-0.2L56.7,20c-0.1-0.1-0.1-0.1-0.2-0.2l-0.1-0.1
		C56.5,19.7,56.4,19.7,56.3,19.6L56.3,19.6z M58.1,18.1c-0.1,0.2-0.2,0.2-0.2,0.4c0-0.1-0.1-0.2-0.2-0.4l-0.1-0.1L58.1,18.1
		C58.1,18.1,58.1,18.1,58.1,18.1z M55.5,19.3c0,0.1,0.1,0.1,0.1,0.2s0.1,0.2,0.1,0.2c0,0,0,0.1,0.1,0.1c0,0.1,0.1,0.1,0.1,0.2
		c-0.1,0.2-0.2,0.3-0.4,0.3S55.1,20,55,19.9c0.1-0.1,0.1-0.2,0.2-0.3c0-0.1,0.1-0.2,0.1-0.3c0.1-0.4,0.1-0.5,0.1-0.5
		c0-0.1,0-0.2-0.1-0.2c0-0.2-0.1-0.2-0.2-0.3c-0.1-0.1-0.2-0.2-0.2-0.2h0.9l-0.1,0.1c0,0,0,0-0.1,0.1c-0.1,0.1-0.1,0.2-0.2,0.3v0.1
		c0,0.1,0,0.2,0,0.3C55.4,19,55.4,19.2,55.5,19.3z M51.8,21.1L51.8,21.1c0.1,0.1,0.2,0.2,0.2,0.2L51.8,21.1
		C51.8,21.1,51.8,21.1,51.8,21.1z M52.4,21.5c0.1,0.1,0.2,0.2,0.3,0.2h-0.2L52.4,21.5z M54.5,20.5c0.1-0.1,0.1-0.2,0.2-0.2
		c0.2,0.2,0.3,0.5-0.1,0.7c0.3,0.3,0.7,0.2,0.7,0.2s0.1,0.3,0.2,0.4c0.2-0.2,0.2-0.4,0.2-0.4s0.5,0.1,0.7-0.3
		c-0.4-0.2-0.3-0.5-0.2-0.7l0,0c0.1,0.1,0.2,0.2,0.2,0.3c0.6,0.6,1.2,1,1.4,1.1c0,0,0.1,0,0.1-0.1c0,0,0,0,0.1,0c0,0,0.1,0,0.1-0.1
		c0,0,0.1,0,0.1-0.1c0.1,0,0.1-0.1,0.2-0.1c0,0,0.1,0,0.1-0.1c0.1-0.1,0.1-0.1,0.2-0.2c0.3-0.2,0.6-0.5,0.8-0.8c0,0,0,0,0.1-0.1
		c0.2,0.2,0.4,0.5-0.1,0.8c0.3,0.3,0.7,0.2,0.7,0.2s0.1,0.3,0.2,0.4c0.2-0.2,0.2-0.4,0.2-0.4s0.5,0.1,0.7-0.3
		c-0.3-0.1-0.3-0.3-0.2-0.5l0,0c0.1,0.1,0.2,0.2,0.2,0.2c0.5,0.5,1.2,1,1.4,1.2h-9.3C53.5,21.5,54,21,54.5,20.5z M62.5,21.7
		c0.3-0.2,1-0.8,1.4-1.4c0.1-0.1,0.1-0.1,0.1-0.2c0.2,0.2,0.5,0.5,0.1,0.8c0.3,0.3,0.7,0.2,0.7,0.2s0.1,0.3,0.2,0.4
		c0.2-0.2,0.2-0.4,0.2-0.4s0.5,0.1,0.7-0.3c-0.2-0.1-0.3-0.2-0.3-0.5c0.1,0.1,0.2,0.2,0.3,0.3c0.5,0.5,1.1,0.8,1.1,0.9
		c0.3-0.2,1-0.7,1.5-1.4c0.1-0.1,0.1-0.1,0.1-0.2c0.2,0.2,0.5,0.5,0.1,0.8c0.3,0.3,0.7,0.2,0.7,0.2s0.1,0.3,0.2,0.4
		c0.2-0.2,0.2-0.4,0.2-0.4s0.5,0.1,0.7-0.3c-0.3-0.1-0.3-0.3-0.2-0.5l0,0c0.1,0.1,0.2,0.2,0.2,0.2c0.5,0.5,1.1,0.9,1.4,1.1
		L62.5,21.7L62.5,21.7z M90.4,19.6C90.4,19.6,90.4,19.6,90.4,19.6c0.2,0,0.2-0.1,0.3-0.1c-0.2,0.6,0.2,1,0.2,1
		c0.4-0.2,0.4-0.8,0.2-1c0.3,0.2,0.6,0,0.8-0.3c-0.4,0.1-0.6,0-0.6-0.3c0-0.2,0.2-0.5,0.7-0.5c0.5-0.2,0.5,0.4,0.5,0.6
		c0,0.1-0.1,0.3-0.2,0.5l0,0l0,0l0,0c0,0,0,0-0.1,0c0,0,0,0.1-0.1,0.1c0,0.1,0,0.1,0,0.2c-0.1,0.1-0.1,0.2-0.2,0.2
		c-0.1,0-0.1,0.1-0.2,0.1l-0.1,0.1c-0.1,0.1-0.1,0.1-0.2,0.2l-0.1,0.2c0,0,0,0,0,0.1c-0.2,0.2-0.3,0.2-0.5,0.3c0,0-0.1-0.1-0.2-0.2
		c0,0,0,0-0.1-0.1c-0.4-0.3-1.3-1.1-1.4-1.6c-0.2-0.5,0.2-0.8,0.6-0.8c0.2,0,0.4,0.2,0.5,0.3l0.1,0.1c0,0.1,0.1,0.2,0,0.2
		c0,0.3-0.3,0.3-0.6,0.3C90,19.5,90.2,19.6,90.4,19.6z M91.8,20.8l-0.2,0.2l-0.2,0.2C91.5,21.1,91.6,21,91.8,20.8z M91.1,18.1
		C91.1,18.1,91.1,18.2,91.1,18.1c-0.2,0.2-0.2,0.3-0.3,0.5c0-0.1-0.1-0.2-0.2-0.4c0-0.1-0.1-0.1-0.2-0.2L91.1,18.1L91.1,18.1z
		 M92.5,14.1h-2.1C91,13.8,91.6,13,92.5,14.1z M85.9,10.8c0.5,0.4,0.9,0.3,1.5,0.6c0,0,0.8,0.4,0.5,1.1c0.3-0.1,0.9-0.3,0.9-0.9
		c0.6,0.4,1.1,0.2,1.5,0c-0.2-0.7-0.5-0.9-1-0.9c0.2-0.5,0.1-0.9-0.5-1.3c-0.2,0.6-0.5,0.8-0.8,0.9c-0.2,0.1-0.9,0.1-1.3-0.3
		c1-1.1,2.7-1.5,3.7-1.1c0.8,0.4,1.1,1,1,1.8c-0.2,0.9-1.1,1.8-2,1.9c-0.5,0.1-3.8,0.5-5.6-1.7C85.1,11.4,85.5,11.1,85.9,10.8z
		 M85.1,14.1h-2.5C83.4,13.2,84.1,13.5,85.1,14.1z M80.3,12.2c0.8,0.3,1.1-0.4,1.1-1.1c0.2,0.5,0.5,0.8,1.1,1.2
		c-0.7,0.4-0.9,1.5-2.1,1.4c-0.4-0.1-0.5-0.2-0.7-0.5c-0.1,0.4,0,0.8,0.4,0.9h-2.6c0.9-0.8,1.2-1.3,1.4-2.3
		C79.3,11.1,79.7,12,80.3,12.2z M79.7,9.9c-0.6,0.2-1,0.5-1.4,0.8c-0.3-0.7-0.9-1.5-1.7-2C77.2,8.6,78.8,8.8,79.7,9.9z M73.6,10.2
		c0.3-0.8,1-1.1,1.7-0.5c-1-0.1-1.6,1.1-1.1,1.7c0.5,0.7,1.4,1,1.7,0.4c0.2-0.5-0.2-0.8-0.5-1c0.5-0.2,0.8,0,1.1,0.2
		c0.2,0.3,0.4,0.8,0.2,1.1c-0.2,0.4-0.7,0.7-1.1,0.7C74.3,12.9,73.1,11.4,73.6,10.2z M72,6.5c0.4,0.8,0.7,1.3,1.4,1.6
		c-0.5,0.4-1,0.9-1.4,1.8c-0.2-0.8-0.9-1.4-1.4-1.7C71.5,7.7,71.7,7.1,72,6.5z M72.1,12.3c0.2,0.8,1.1,1.4,2,1.9h-3.8
		C71.3,13.8,71.8,12.9,72.1,12.3z M68.3,11.1c0,0-0.4,0.6-0.1,1c0.4,0.3,1.1,0.2,1.3-0.6c0.3-1.1-0.4-1.7-1.4-1.5
		c0.2-0.4,0.4-0.5,1-0.5c0.4,0,0.8,0.4,1,0.7c0.5,0.7,0.4,1.4-0.2,2.1c-0.5,0.7-1.3,1-2,0.7c-0.3-0.1-0.7-0.6-0.8-1
		C67.2,11.4,67.6,10.8,68.3,11.1z M67.4,8.6c-1.2,0.4-1.7,1.2-2,2c-0.4-0.5-0.8-0.8-1.5-0.7C64.5,9.1,65.7,8.1,67.4,8.6z M62.8,11.4
		c0.1,0.5,0.5,0.9,0.8,0.9c0.5,0,0.9-1,1.4-0.5c0.2,1.2,0.6,1.7,1.6,2.3h-3.5c0.5-0.2,0.5-0.5,0.5-0.7c-1.1,0.6-1.5-0.5-2-1.1
		C62.1,12,62.5,11.7,62.8,11.4z M61.6,14.1h-2.1C60.3,12.9,60.9,13.8,61.6,14.1z M53.1,9.3c2.2-2,4.1,0.4,4.4,0.8
		c-0.5,0.5-1.2,0.4-1.4,0.3c-0.7-0.2-1-0.7-1.1-1.3c-0.4,0.4-0.6,0.8-0.1,1.6c-0.1-0.1-0.9,0.1-1.3,0.9c0.1,0.2,1,0.6,1.8,0.4
		c-0.2,0.6,0.4,1.1,1.3,1.1c-0.7-0.9,0.8-2.2,1.7-2c0.6,0.4,1.6,0.3,2.1,0.1c-0.6,1.1-1.8,2-2.9,2.2c-1.4,0.3-2.9,0.2-4.1-0.8
		C52.7,11.5,52.4,10,53.1,9.3z M53.6,14h-2.1C52.4,12.9,53,13.7,53.6,14z M49.4,15.5l21.7-0.1l23.3,0.1l-0.3,0.6H49.9L49.4,15.5z
		 M53.5,18.1c-0.1,0.1-0.2,0.2-0.2,0.2c-0.1,0.2-0.2,0.2-0.2,0.4c0-0.1-0.1-0.2-0.2-0.4c-0.1-0.1-0.2-0.2-0.2-0.2H53.5z M42.4,37.5
		l6,0.3v0.3l-6-0.2C42.4,37.9,42.4,37.5,42.4,37.5z M43.5,35.6c0,0,0-4.5,0-4.6l0.2,4.6H43.5z M48.1,32.4c1,0.5,1.6-0.3,1.7-0.5
		c-0.2,0.6-0.7,1.8-2,1.1c-1.4-0.8-0.2-2.4,0.1-2.6C47.5,31.2,47.4,32.1,48.1,32.4z M52.7,30.1v0.4l-2.4-2.3h0.3L52.7,30.1z
		 M51.3,28.1h0.3l1.1,1.1v0.3L51.3,28.1z M52.5,30.9v0.5l-3.2-3.2h0.4L52.5,30.9z M44.8,33.6v-0.5l2.3,2.1h-0.4L44.8,33.6z
		 M46.1,35.2h-0.3l-1.1-0.8c0,0,0-0.2,0-0.3L46.1,35.2z M44.8,32.5v-0.5l3.4,3.2h-0.5L44.8,32.5z M47.8,36.3h4.7v0.2l-4.9-0.1
		L47.8,36.3z M50.5,35.1L50,35.1l2.3-2.3v0.4L50.5,35.1z M52.4,33.9v0.3l-0.9,0.8h-0.2L52.4,33.9z M49.5,35.1h-0.4l3.3-3.2v0.5
		L49.5,35.1z M44.7,30.9v-0.4l2.7-2.5h0.3L44.7,30.9z M44.7,30v-0.5l1.7-1.6h0.4L44.7,30z M44.6,29.1v-0.3l1.1-0.8H46L44.6,29.1z
		 M41,78.6h-0.4l0.4-9.3h0.2L41,78.6z M42.7,71.5v-0.4l2.1-1.9h0.2l-2.3,2.1L42.7,71.5z M42.8,70.4v-0.3l1.2-1h0.4L42.8,70.4z
		 M42.9,72l2.9-2.8h0.4l-3.2,3.2V72z M48.3,73.5c-0.1,0.4-1.2,1.8-2.5,0.8c-1.2-0.9,0.1-2.6,0.2-2.6c-0.4,1-0.3,1.7,0.3,2.2
		C46.8,74.3,47.8,73.8,48.3,73.5z M46.9,71.2c0.6-0.2,1,0,1.2,0.2c0.2,0.2,0.4,0.5,0.3,1.1c0-0.2-0.2-0.7-0.5-1
		C47.6,71.2,46.9,71.2,46.9,71.2z M42.9,74v-0.4l3.3,3.2h-0.4L42.9,74z M45.4,76.8h-0.5l-1.9-1.6v-0.7L45.4,76.8z M42.9,75.7
		l1.4,1.1h-0.4l-1-0.8C42.9,75.9,42.9,75.7,42.9,75.7z M48.6,77.4l-4.7,0.2v-0.2H48.6L48.6,77.4z M50.8,75.7l-1.1,1h-0.2l1.3-1.2
		C50.8,75.5,50.8,75.7,50.8,75.7z M50.8,74.9l-2,1.7h-0.4l2.3-2.2V74.9z M50.8,74l-2.9,2.6h-0.4l3.3-3.2V74z M50.9,72.5l-3.4-3.4
		h0.4l3,2.9V72.5z M50.9,71.6l-2.5-2.3h0.4l2.1,2V71.6z M50.9,70.7l-1.4-1.5h0.2l1.2,1.2V70.7z M53,78.4h-0.4
		c0.2-3.6,0.2-7.3,0.4-11.1c-3.2,0.2-6.2,0.2-9.2,0.3c-0.5,0-1.1,0.1-1.7,0c-0.2,0-0.5-0.2-0.8-0.3c0-0.1,0.1-0.2,0.1-0.3h12.1
		C53.3,70.8,53.2,74.6,53,78.4z M43.9,63.1c0.2-7.1,0.5-14.1,0.8-21.3H45c-0.2,7.1-0.5,14.1-0.8,21.3H43.9z M46.6,63.1h-0.4
		c0.2-7.1,0.5-14.2,0.8-21.3h0.4C47.1,48.9,46.8,56.1,46.6,63.1z M48.1,41.9h0.4l-0.8,21.3h-0.4C47.5,56.1,47.8,49,48.1,41.9z
		 M50.1,63.2h-0.4c0.2-7.1,0.5-14.2,0.8-21.3h0.4C50.5,49,50.3,56.1,50.1,63.2z M51.5,41.9h0.4l-0.5,21.2h-0.5L51.5,41.9z
		 M53.3,64.6L52.8,64l0.6-23.9l-11-0.5l0.5-0.3l10.9,0.3L53.3,64.6z M54.5,37.6h-0.4c0-0.8-0.1-1.7-0.1-2.4v-2.6l-0.2-5.6
		c-2.3-0.2-10.6-0.5-10.6-0.5v-0.2c0,0,7.5,0.1,11.3,0.2V37.6z M70,77.8H58.4v-23H70V77.8z M59.4,52.4v-5.3h10v5.3H59.4z M84.5,78
		H73.7V46.4h10.8V78z M84.6,42.9H58.3V28.4h26.3V42.9z M88.2,63.5c-0.2-5.6-0.3-14.5-0.5-20c-0.2-5.6-0.5-11.4-0.7-17.1H56.5
		l0.6-0.9h30.8c0.2,11.5,0.3,26.4,0.5,38C88.3,63.5,88.3,63.5,88.2,63.5z M101.5,27.1v10.8l-0.2,0.2l-0.6-9.3l-0.1-1.1l-9.9-0.2
		l-0.7-0.5C90.1,27.1,101.5,27.1,101.5,27.1z M97.2,36.2h-0.3l2.3-2v0.3L97.2,36.2z M99.2,35v0.3l-1.1,0.9h-0.3L99.2,35z M96.2,36.2
		h-0.4l3.4-3v0.4L96.2,36.2z M91.6,34.2v-0.3l2.3,2.3h-0.4L91.6,34.2z M93.1,36.2h-0.4l-1.1-1.1v-0.3L93.1,36.2z M91.6,33.2V33
		l3.3,3.2h-0.5L91.6,33.2z M93.7,28.6H94l-2.4,2.3v-0.5L93.7,28.6z M91.6,29.9v-0.3l1.2-1h0.5L91.6,29.9z M91.7,31.8v-0.4l3-2.9h0.5
		L91.7,31.8z M96.2,31.5c0.4,0.3,0.3,0.8,0.3,1c-0.2-0.4-0.2-0.7-0.4-0.8c-0.2-0.1-0.8-0.1-1-0.1C95.2,31.5,95.9,31.2,96.2,31.5z
		 M94.3,31.6c0,1.3,0.4,1.7,1.1,1.9c0.7,0.2,1.2-0.4,1.7-1.1c0.1,0.3-0.4,2.1-2,1.7C93.5,33.6,94.3,31.6,94.3,31.6z M95.9,28.6h0.3
		l3.1,3.2v0.4L95.9,28.6z M96.9,28.7h0.4l2,2.1v0.5L96.9,28.7z M98.2,28.8L98,28.7h0.3l1,1.1v0.5L98.2,28.8z M90.4,40.3h11.2
		c0.3,8.1,0.7,24.2,0.7,24.2l-0.3,0.1c0,0-0.8-15.8-1.1-23c0-0.2-0.1-0.6-0.1-0.6s-6.8-0.2-10.2-0.4C90.6,40.7,90.5,40.5,90.4,40.3z
		 M99.3,42.2v21.4h-0.2V42.2H99.3z M98.3,42.1v21.4c-0.2,0.1-0.2,0.1-0.3,0.1V42.1H98.3z M95.9,42.1v21.5c-0.2-0.1-0.2-0.1-0.3-0.1
		V42.1H95.9z M94.6,42.1v21.4h-0.2V42.1H94.6z M92.3,42v21.4H92V42H92.3z M93.7,76.6L93.7,76.6l-1.1-1.1v-0.4l1.4,1.4H93.7z
		 M94.5,76.7l-1.9-2v-0.4l2.3,2.4H94.5z M98.2,73.3c-0.3,0.4-0.6,0.9-1.1,1.1c-0.5,0.2-1.1-0.1-1.4-0.4c-0.6-0.5-0.5-1.2,0.2-2
		c-0.2,1-0.3,1.8,0.7,2C97,74,97.6,73.6,98.2,73.3z M96.8,68.8h0.3l2.9,3.1v0.5L96.8,68.8z M96.2,69.5
		C96.2,69.5,96.2,69.4,96.2,69.5c-0.2,0.1-0.3,0.2-0.5,0.4c-0.1,0.1-0.2,0.2-0.3,0.2L96.2,69.5v-0.2C96.2,69.3,96.2,69.4,96.2,69.5
		L96.2,69.5z M92.8,71.9l-0.1-0.5l2.8-2.6h0.5L92.8,71.9z M92.7,71v-0.4l2-1.8H95L92.7,71z M92.6,70.2v-0.5l1.2-1h0.4L92.6,70.2z
		 M95.5,76.5l-2.8-3.1v-0.2l3.2,3.3H95.5z M100.2,76.2L99.2,77h-0.4l1.4-1.1V76.2z M100.2,75.3l-1.9,1.5h-0.5l2.4-2V75.3z
		 M97.3,76.8h-0.6l0.1-0.1l3.4-2.8v0.5h0.1L97.3,76.8z M100.1,71.5l-2.3-2.6h0.3l2.2,2L100.1,71.5z M100.3,70.6L98.9,69l-0.1-0.1
		h0.3l1.2,1.1V70.6z M102.5,79.2c-0.1,0-0.1,0.1-0.2,0.1c-0.2-0.5-0.3-0.9-0.4-1.4c-0.2-3.2-0.4-6.5-0.6-9.9
		c-1.3-0.1-2.5-0.2-3.7-0.2c-1.9-0.1-3.8-0.2-5.7-0.2c-0.4,0-0.7-0.2-1.1-0.3C91,67.2,91,67,91,67c3.8,0.2,7.6,0.3,11.5,0.4V79.2z"
		/>
	<path fill="currentColor" d="M126.6,36.5c0.5-1.7,1.6-3.3,2.4-5c1.7,0.1,3.4,0.1,5.1,0.1s3.4,0,5.1-0.1c0.6,1.5,1.2,3.1,1.7,4.7l0.5-0.1
		c0.5-1.8,1.1-3.6,2-5.5c-0.8,0.2-1.6,0.2-2.4,0.3c-0.8-4.4-1.4-8.9-2-13.3c0.8,0,1.4-0.1,2.1-0.2l-0.1-0.5
		c-0.9,0.1-1.7,0.2-2.6,0.2c-1.2,0-3.2-0.2-4.7-0.2c-1.7,0-3.4,0.1-5,0.2l0.1,0.5c0.5,0,0.8-0.1,1.3-0.1c1.1,1,1.5,2.6,1.5,4
		c0,1.2-0.2,2.3-0.5,3.5c-0.6,2-1.4,4.1-2.3,5.9c-1.1,0-2.3-0.1-3.5-0.2c0.3,1.8,0.6,3.7,0.8,5.6H126.6z M131.6,24.5
		c0.5-2.1,0.8-4.8,1.5-6.8c1.7,4.4,2.4,8.7,2.8,13.4c-1.4,0.1-2.6,0.1-3.5,0.1c-1.4,0-2.3,0-3.2-0.1C130.1,29,131.1,26.7,131.6,24.5
		z"/>
	<path fill="currentColor" d="M146.2,17.8c0,1.4,0,2.6,0,4c0,3.2,0.1,6.4,0.1,9.6c-0.6,0.2-1.2,0.3-1.7,0.5l0.2,0.5
		c2.7-0.9,7.1-0.9,9.9-0.9h0.5l0.1,0.7h0.5c0-1.3,0.2-2.8,0.2-3.9l-0.5-0.1c-0.5,2.7-1.1,3-2.7,3c-0.5,0-1.1-0.1-1.8-0.1v-6.2
		c0.7,0,1.4-0.1,2-0.1c1,0,1.3,1,1.5,1.8h0.4v-0.7c0-1.4,0-2.6,0.2-3.9l-0.3-0.1c-0.6,2-0.8,2.2-2.3,2.2c-0.3,0-0.8,0-1.4,0
		c0-2.2,0-4.4,0.1-6.7c0.9-0.1,1.7-0.2,2.6-0.2c0.2,0,0.6,0,0.8,0.1c0.4,0.5,0.4,2.5,0.4,3.2l0.5,0.1c0.3-1.1,0.5-2.3,0.7-3.5
		c-1.1-0.2-2.3-0.2-3.4-0.2c-3,0-6.2,0.5-9.2,1l0.1,0.5C144.3,18,145.3,18,146.2,17.8z"/>
	<path fill="currentColor" d="M160,17.2c-0.1,2.3-0.1,4.6-0.1,6.8c0,2.3,0.1,4.6,0.1,6.8c-0.7,0.1-1.4,0.1-2,0.2l0.1,0.5
		c1.1-0.2,2.2-0.3,3.3-0.3c1.8,0,3.6,0.2,5.3,0.5l0.1-0.5c-0.6-0.1-1.1-0.2-1.7-0.2c0-2.3-0.1-4.5-0.1-6.8c2.1-0.8,5.7-2.6,5.7-5.6
		c0-2.1-5-2.3-6.5-2.3c-2.2,0-4.6,0.1-6.8,0.5l0.1,0.5C158.3,17.3,159.1,17.2,160,17.2z M165,17.1c1.5,0,2.7,0.8,2.7,2.6
		c0,1.6-1.6,3.1-2.8,3.9C164.9,21.4,164.9,19.3,165,17.1z"/>
	<path fill="currentColor" d="M173.9,17.8c0,1.4,0,2.6,0,4c0,3.2,0.1,6.4,0.1,9.6c-0.6,0.2-1.2,0.3-1.7,0.5l0.2,0.5
		c2.7-0.9,7.1-0.9,9.9-0.9h0.5l0.1,0.7h0.5c0-1.3,0.2-2.8,0.2-3.9l-0.5-0.1c-0.5,2.7-1.1,3-2.7,3c-0.5,0-1.1-0.1-1.8-0.1v-6.2
		c0.7,0,1.4-0.1,2-0.1c1,0,1.3,1,1.5,1.8h0.4v-0.7c0-1.4,0-2.6,0.2-3.9l-0.3-0.1c-0.6,2-0.8,2.2-2.3,2.2c-0.3,0-0.8,0-1.4,0
		c0-2.2,0-4.4,0.1-6.7c0.9-0.1,1.7-0.2,2.6-0.2c0.2,0,0.6,0,0.8,0.1c0.4,0.5,0.4,2.5,0.4,3.2l0.5,0.1c0.3-1.1,0.5-2.3,0.7-3.5
		c-1.1-0.2-2.3-0.2-3.4-0.2c-3,0-6.2,0.5-9.2,1l0.1,0.5C172,18,173,18,173.9,17.8z"/>
	<path fill="currentColor" d="M187.2,17.9c0,4.4,0,8.8,0.2,13.2c-0.8,0-1.7,0-2.6,0v0.5h3c3.5,0,10.4-0.2,10.4-5c0-2.4-3-3.5-5-3.7
		c1.7-0.6,4-2,4-4.1c0-2-3.4-2-4.7-2c-2.6,0-5.2,0.4-7.7,1.1l0.2,0.5C185.7,18.2,186.5,18.1,187.2,17.9z M192.6,17.6h0.7
		c1.1,0,2,0.5,2,1.7c0,1.2-1.6,2.9-2.6,3.3V17.6z M192.5,23.6c1.7,0,3.2,1.4,3.2,3.1c0,2.2-1.4,3.3-3.2,4V23.6z"/>
	<path fill="currentColor" d="M199.9,23.7l0.5,1c2.8-1.4,3.5-4.6,3.5-6.6c0-1.1-0.9-2-2-2s-2,0.9-2,2s0.9,2,2,2c0.2,0,0.5,0,0.7-0.1
		C202.3,21.4,201.4,22.9,199.9,23.7z"/>
	<path fill="currentColor" d="M215.2,25.2c-1.6-1.4-3.5-2.9-3.5-5.2c0-1.8,2-2,3.5-2h0.4v0.5c0,4.1-0.1,8.2-0.2,12.3
		c-0.7,0-1.4,0-2.1,0.1l0.1,0.5c0.8-0.1,1.7-0.1,2.6-0.1c2,0,4.1,0.1,6.2,0.4l0.1-0.6l-1.5-0.2c0.1-3.8,0.2-7.6,0.2-11.4v-1.7h1.2
		l-0.1-0.5c-2.9-0.1-5.8-0.5-8.7-0.5c-1.4,0-5.6,0.2-5.6,2.3c0,2.3,2.3,3.5,3.5,4.4c-0.5,1.4-5.1,6.8-6.8,6.8c-0.1,0-0.1,0-0.2,0
		l-0.2,0.7c1.1,0.5,2.2,0.8,3.3,0.8C211.4,31.9,213.5,28.1,215.2,25.2z"/>
	<path fill="currentColor" d="M226,25.6v2c0,0.6,0,1.4,0,3.7c-0.8,0.1-1.4,0.2-2.3,0.3l0.1,0.5c1.6-0.2,3.2-0.4,4.9-0.4
		c1.2,0,2.6,0,3.8,0.3l0.2-0.5c-0.4-0.1-0.8-0.1-1.1-0.2c0-1,0-2,0-2.9c0-1.4,0-2.6,0-4c1.1,0,2.7-0.1,3.8-0.1h0.3
		c0,0.8,0,1.6,0,2.3c0,2-0.1,3.4-0.2,4.5c-0.7,0.2-1.3,0.2-2,0.5l0.2,0.5c1.4-0.5,2.9-0.6,4.4-0.6c1.4,0,2.9,0.1,4.3,0.4l0.1-0.5
		c-0.6-0.2-1.1-0.2-1.7-0.3c0-4.2,0.1-9,0.2-13.2c0.6-0.1,1.1-0.2,1.7-0.4l-0.2-0.5c-1,0.2-2.3,0.3-3.4,0.3c-1.6,0-3.1-0.2-4.7-0.3
		l-0.1,0.5l1.1,0.1c0,1.9,0.1,3.8,0.2,5.6h-0.3c-1.1,0-2.7,0.1-3.8,0.2v-5.7c0.5,0,1.1,0,1.6-0.1l-0.1-0.5c-1.1,0.2-2.2,0.2-3.2,0.2
		c-2,0-4.1-0.2-6.1-0.3v0.5c0.9,0.1,1.4,0.1,2.3,0.2C226,20.2,226,23,226,25.6z"/>
	<path fill="currentColor" d="M246.1,17.8c0,1.4,0,2.6,0,4c0,3.2,0.1,6.4,0.1,9.6c-0.6,0.2-1.2,0.3-1.7,0.5l0.2,0.5
		c2.7-0.9,7.1-0.9,9.9-0.9h0.5l0.1,0.7h0.5c0-1.3,0.2-2.8,0.2-3.9l-0.5-0.1c-0.5,2.7-1.1,3-2.7,3c-0.5,0-1.1-0.1-1.8-0.1v-6.2
		c0.7,0,1.4-0.1,2-0.1c1,0,1.3,1,1.5,1.8h0.4v-0.7c0-1.4,0-2.6,0.2-3.9l-0.3-0.1c-0.6,2-0.8,2.2-2.3,2.2c-0.3,0-0.8,0-1.4,0
		c0-2.2,0-4.4,0.1-6.7c0.9-0.1,1.7-0.2,2.6-0.2c0.2,0,0.6,0,0.8,0.1c0.4,0.5,0.4,2.5,0.4,3.2l0.5,0.1c0.3-1.1,0.5-2.3,0.7-3.5
		c-1.1-0.2-2.3-0.2-3.4-0.2c-3,0-6.2,0.5-9.2,1l0.1,0.5C244.2,18,245.2,18,246.1,17.8z"/>
	<path fill="currentColor" d="M150,40.7l-0.1-0.5c-1.5,0.3-2.9,0.5-4.4,0.5c-0.7,0-1.4,0-2-0.2c-1.7,2.3-3,4.7-4.4,7.2
		c-1.6-2.7-2.9-5.6-4.2-8.4c-1.4,0.3-2.6,0.5-3.9,0.5c-1.4,0-2.6-0.1-3.9-0.2v0.5c0.9,0,1.9,0.2,2.8,0.2c0,2.3,0.2,4.7,0.2,7
		c0,3.3-0.1,6.5-4.4,6.5v0.7h9.1v-1c-0.4,0.2-0.8,0.2-1.3,0.2c-2.9,0-2.9-4.1-2.9-6.5c0-2.1-0.1-4.1-0.2-6.2
		c1.9,3.9,3.9,7.8,6.2,11.4l0.5,0.1c1.7-3.2,3.2-6.5,5.2-9.6c0.2,2.9,0.3,5.9,0.3,8.9c0,0.8,0,1.6-0.1,2.3c-1.1,0.1-2.1,0.1-3.1,0.2
		l0.1,0.5c1.5-0.3,3.2-0.3,4.7-0.3c1.8,0,3.6,0,5.4,0.3l0.1-0.5c-0.8-0.2-1.6-0.2-2.3-0.2c-0.1-1.4-0.1-2.7-0.1-4.1
		c0-3.1,0-6.2,0.2-9.3C148.2,40.9,149,40.8,150,40.7z"/>
	<path fill="currentColor" d="M160.3,40.3c0.2,0,0.6,0,0.8,0.1c0.4,0.5,0.4,2.5,0.4,3.2l0.5,0.1c0.3-1.1,0.5-2.3,0.7-3.5
		c-1.1-0.2-2.3-0.2-3.4-0.2c-3,0-6.2,0.5-9.2,1l0.1,0.5c0.9-0.2,1.9-0.2,2.8-0.4c0,1.4,0,2.6,0,4c0,3.2,0.1,6.4,0.1,9.6
		c-0.6,0.2-1.2,0.3-1.7,0.5l0.2,0.5c2.7-0.9,7.1-0.9,9.9-0.9h0.5l0.1,0.7h0.5c0-1.3,0.2-2.8,0.2-3.9l-0.5-0.1c-0.5,2.7-1.1,3-2.7,3
		c-0.5,0-1.1-0.1-1.8-0.1v-6.2c0.7,0,1.4-0.1,2-0.1c1,0,1.3,1,1.5,1.8h0.4V49c0-1.4,0-2.6,0.2-3.9l-0.3-0.1c-0.6,2-0.8,2.2-2.3,2.2
		c-0.3,0-0.8,0-1.4,0c0-2.2,0-4.4,0.1-6.7C158.5,40.4,159.4,40.3,160.3,40.3z"/>
	<path fill="currentColor" d="M164.2,40.6c0.8-0.2,1.7-0.2,2.5-0.3c-0.1,2.3-0.1,4.6-0.1,6.8c0,2.3,0.1,4.6,0.1,6.8
		c-0.7,0.1-1.4,0.1-2,0.2l0.1,0.5c1.1-0.2,2.2-0.3,3.3-0.3c1.8,0,3.6,0.2,5.3,0.5l0.1-0.5c-0.6-0.1-1.1-0.2-1.7-0.2
		c0-2.3-0.1-4.5-0.1-6.8c2.1-0.8,5.7-2.6,5.7-5.6c0-2.1-5-2.3-6.5-2.3c-2.2,0-4.6,0.1-6.8,0.5L164.2,40.6z M171.8,40.2
		c1.4,0,2.6,0.8,2.7,2.6c0,1.6-1.6,3.1-2.8,3.9C171.7,44.5,171.7,42.4,171.8,40.2z"/>
	<path fill="currentColor" d="M188,40.3c0.2,0,0.6,0,0.8,0.1c0.4,0.5,0.4,2.5,0.4,3.2l0.5,0.1c0.3-1.1,0.5-2.3,0.7-3.5
		c-1.1-0.2-2.3-0.2-3.4-0.2c-3,0-6.2,0.5-9.2,1l0.1,0.5c0.9-0.2,1.9-0.2,2.8-0.4c0,1.4,0,2.6,0,4c0,3.2,0.1,6.4,0.1,9.6
		c-0.6,0.2-1.2,0.3-1.7,0.5l0.2,0.5c2.7-0.9,7.1-0.9,9.9-0.9h0.5l0.1,0.7h0.5c0-1.3,0.2-2.8,0.2-3.9l-0.5-0.1c-0.5,2.7-1.1,3-2.7,3
		c-0.5,0-1.1-0.1-1.8-0.1v-6.2c0.7,0,1.4-0.1,2-0.1c1,0,1.3,1,1.5,1.8h0.4V49c0-1.4,0-2.6,0.2-3.9L189,45c-0.6,2-0.8,2.2-2.3,2.2
		c-0.3,0-0.8,0-1.4,0c0-2.2,0-4.4,0.1-6.7C186.3,40.4,187.1,40.3,188,40.3z"/>
	<path fill="currentColor" d="M199.1,48.5c0,1.9,0,3.8,0.1,5.7c-1.1,0.1-2,0.2-3,0.3l0.1,0.5c2.4-0.5,4.5-0.5,7-0.5c1.1,0,2,0.1,3,0.2
		l0.1-0.5c-0.7-0.1-1.4-0.2-2-0.2c0-1.9,0-3.7,0.1-5.6c2.4,2.9,5,5.6,7.9,7.9l0.4-0.3c-2-4.1-3.8-8.1-5.5-12.3
		c1.9-0.8,5.6-1.9,5.6-3c0-0.5-0.8-0.5-1.1-0.5c-3,0-5.9,4.4-7.2,6.8c0-2.1,0.1-4.2,0.2-6.3c0.6-0.2,1.3-0.3,1.9-0.5l-0.2-0.5
		c-1.8,0.5-3.6,0.6-5.5,0.6c-1.4,0-2.7-0.1-4.1-0.2l-0.1,0.5c0.8,0.1,1.6,0.2,2.3,0.2v2c0,1.5,0,3.1,0,4.7c-1-2-4.7-7.1-7-7.1
		c-0.5,0-1.1,0.2-1.1,0.7c0,1,4.6,2.9,5.5,3.6c-1.7,3.9-3.6,7.7-5.3,11.6l0.4,0.2C194.2,54.3,197.3,51.4,199.1,48.5z"/>
	<path fill="currentColor" d="M213.2,40.2l-0.1,0.5c0.8,0.2,1.6,0.2,2.3,0.2c0.1,2.2,0.1,4.3,0.1,6.5c0,2.4-0.1,4.9-0.1,7.4
		c-0.8,0-1.4,0.1-2.2,0.2l0.1,0.5c1.8-0.2,3.7-0.2,5.6-0.3c2-4,3.8-8.1,6.1-11.9c0,3.8,0,7.5,0.1,11.3l-1.3,0.2l0.1,0.5
		c1.7-0.3,3.4-0.5,5.1-0.5c1.1,0,2.3,0.1,3.4,0.2l0.2-0.5c-0.7-0.1-1.4-0.2-2-0.2v-2.6c0-3.8,0-7.5,0.1-11.3c0.7-0.1,1.3-0.2,2-0.4
		l-0.2-0.5c-1.5,0.4-2.9,0.5-4.6,0.5c-0.5,0-1.1-0.1-1.7-0.1c-0.8,1.1-1.4,2.3-2,3.5c-1.1,2.3-2.3,4.4-3.5,6.7
		c-0.1-2.7-0.1-5.5-0.1-8.2v-1.2c0.7-0.1,1.4-0.2,2-0.4l-0.2-0.5c-1.5,0.5-3.8,0.5-5.4,0.5C215.9,40.3,214.5,40.3,213.2,40.2z"/>
	<path fill="currentColor" d="M233.4,54.8h3c3.5,0,10.4-0.2,10.4-5c0-2.4-3-3.5-5-3.7c1.7-0.6,4-2,4-4.1c0-2-3.4-2-4.7-2
		c-2.6,0-5.2,0.4-7.7,1.1l0.2,0.5c0.8-0.2,1.5-0.4,2.3-0.5c0,4.4,0,8.8,0.2,13.2c-0.8,0-1.7,0-2.6,0L233.4,54.8L233.4,54.8z
		 M241.1,40.7h0.7c1.1,0,2,0.5,2,1.7c0,1.2-1.6,2.9-2.6,3.3V40.7z M241,46.7c1.7,0,3.2,1.4,3.2,3.1c0,2.2-1.4,3.3-3.2,4V46.7z"/>
	<path fill="currentColor" d="M247.9,47.3c0,3.8,2.2,7.5,6.4,7.5c4,0,6.8-4.4,6.9-8.1c0-3.7-2.6-6.8-6.4-6.8
		C250.9,39.9,247.9,43.5,247.9,47.3z M256.4,40.9c2.3,0,2.9,4.2,2.9,5.9s-0.8,7-3.2,7c-2.4,0-2.9-4.9-2.9-6.5
		C253.2,45.5,254,40.9,256.4,40.9z"/>
	<path fill="currentColor" d="M141,63.7l-0.1-0.5c-2,0.2-4.1,0.4-6.2,0.4h-1.1v0.5h1.2c0,2.3,0,4.7-0.1,7c-0.2,0.1-0.5,0.1-0.8,0.1
		c-2.3,0-2.5-2.1-2.5-3.9c0-1.1,0-2.1,0-3.2h0.9l-0.1-0.5c-2.4,0-4.7,0-7.1-0.4l-0.1,0.5c0.7,0.2,1.4,0.2,2,0.2
		c0,0.9-0.1,1.7-0.1,2.6c0,2.1,0.2,6.2,3.1,6.2c1.3,0,3.2-0.5,4.4-1c-0.1,1.9,0,3.8-0.1,5.7l-2.7,0.2l0.1,0.5
		c2.8-0.2,5.6-0.3,8.4-0.3v-0.5c-0.5,0-1.1,0-1.7,0c0.2-4.5,0.2-9,0.3-13.5C139.7,63.9,140.4,63.8,141,63.7z"/>
	<path fill="currentColor" d="M151.7,63.4c0.2,0,0.6,0,0.8,0.1c0.4,0.5,0.4,2.5,0.4,3.2l0.5,0.1c0.3-1.1,0.5-2.3,0.7-3.5
		c-1.1-0.2-2.3-0.2-3.4-0.2c-3,0-6.2,0.5-9.2,1l0.1,0.5c0.9-0.2,1.9-0.2,2.8-0.4c0,1.4,0,2.6,0,4c0,3.2,0.1,6.4,0.1,9.6
		c-0.6,0.2-1.2,0.3-1.7,0.5l0.2,0.5c2.7-0.9,7.1-0.9,9.9-0.9h0.5l0.1,0.7h0.5c0-1.3,0.2-2.8,0.2-4l-0.5-0.1c-0.5,2.7-1.1,3-2.7,3
		c-0.5,0-1.1-0.1-1.8-0.1V71c0.7,0,1.4-0.1,2-0.1c1,0,1.3,1,1.5,1.8h0.4v-0.6c0-1.4,0-2.6,0.2-3.9l-0.3-0.1c-0.6,2-0.8,2.2-2.3,2.2
		c-0.3,0-0.8,0-1.4,0c0-2.2,0-4.4,0.1-6.7C150,63.5,150.8,63.4,151.7,63.4z"/>
	<path fill="currentColor" d="M162.3,62.6c-2.2,0-4.6,0.1-6.8,0.5l0.1,0.5c0.8-0.2,1.7-0.2,2.5-0.3c-0.1,2.3-0.1,4.5-0.1,6.8
		c0,2.3,0.1,4.6,0.1,6.8c-0.7,0.1-1.4,0.1-2,0.2l0.1,0.5c1.1-0.2,2.2-0.3,3.3-0.3c1.8,0,3.6,0.2,5.3,0.5l0.1-0.5
		c-0.6-0.1-1.1-0.2-1.7-0.2c0-2.3-0.1-4.5-0.1-6.8c2.1-0.8,5.7-2.6,5.7-5.6C168.8,62.8,163.8,62.6,162.3,62.6z M163.1,69.8
		c0-2.2,0-4.3,0.1-6.5c1.5,0,2.7,0.8,2.7,2.6C165.8,67.4,164.3,68.9,163.1,69.8z"/>
	<path fill="currentColor" d="M188.8,63.7l-0.2-0.5c-1,0.2-2.3,0.3-3.4,0.3c-1.6,0-3.1-0.2-4.7-0.3l-0.1,0.5l1.1,0.1
		c0,1.9,0.1,3.8,0.2,5.6h-0.3c-1.1,0-2.7,0.1-3.8,0.2v-5.7c0.5,0,1.1,0,1.6-0.1l-0.1-0.5c-1.1,0.2-2.2,0.2-3.2,0.2
		c-2,0-4.1-0.2-6.1-0.3v0.5c0.9,0.1,1.4,0.1,2.3,0.2c0.1,2.6,0.1,5.3,0.1,8v2c0,0.6,0,1.4,0,3.7c-0.8,0.1-1.4,0.2-2.3,0.3l0.1,0.5
		c1.6-0.2,3.2-0.4,4.9-0.4c1.2,0,2.6,0,3.8,0.3l0.2-0.5c-0.4-0.1-0.8-0.1-1.1-0.2c0-1,0-2,0-2.9c0-1.4,0-2.6,0-4
		c1.1,0,2.7-0.1,3.8-0.1h0.3c0,0.8,0,1.6,0,2.3c0,2-0.1,3.4-0.2,4.5c-0.7,0.2-1.3,0.2-2,0.5l0.2,0.5c1.4-0.5,2.9-0.6,4.4-0.6
		c1.4,0,2.9,0.1,4.3,0.4l0.1-0.5c-0.6-0.2-1.1-0.2-1.7-0.3c0-4.2,0.1-9,0.2-13.2C187.7,64,188.3,63.8,188.8,63.7z"/>
	<path fill="currentColor" d="M199.4,63.8l1.9-0.1l-0.1-0.5c-2,0.2-4,0.2-5.9,0.2c-1.1,0-2.2-0.1-3.3-0.2v0.5c0.7,0,1.3,0.1,2,0.1
		c0.1,0.8,0.1,1.6,0.1,2.3c0,3.7-0.2,7.4-0.4,11c-0.7,0-1.3,0-2,0.1l0.1,0.5c0.9-0.1,1.8-0.1,2.7-0.1c2.3,0,4.6,0.1,6.8,0.2v-0.5
		c-0.8-0.1-1.4-0.1-2.2-0.2c0-0.9,0-1.7,0-2.6C199.1,71.1,199.3,67.5,199.4,63.8z"/>
	<path fill="currentColor" d="M212.9,61.6c0.2,0.6,0.2,1.1,0.3,1.7c-0.8-0.1-1.6-0.1-2.3-0.1c-2.9,0-5.9,0.3-8.7,0.7l0.1,0.5l1.6-0.2
		c0.1,2.6,0.2,5.2,0.2,7.8c0,1.8,0,3.7-0.1,5.5c-0.8,0.1-1.7,0.2-2.6,0.3l0.1,0.5c2.3-0.4,4.5-0.5,6.8-0.5c1.4,0,2.7,0.1,4.1,0.2
		v-0.5c-1.1-0.1-2.2-0.1-3.2-0.1c0.1-1.9,0.1-3.8,0.1-5.8c0-2.6,0-5-0.2-7.5c0.8-0.1,1.7-0.2,2.6-0.2c0.3,0.6,1.3,3.5,1.9,3.5
		c0.4,0,0.4-1.4,0.4-1.7c0-1.4-0.2-2.8-0.5-4.1L212.9,61.6z"/>
	<path fill="currentColor" d="M221.5,62.9c-4,0-6.9,3.6-6.9,7.4c0,3.8,2.2,7.5,6.4,7.5c4,0,6.8-4.3,6.9-8.1
		C227.9,66.1,225.3,62.9,221.5,62.9z M222.8,76.8c-2.4,0-2.9-4.9-2.9-6.5c0-1.7,0.8-6.3,3.2-6.3c2.3,0,2.9,4.2,2.9,5.9
		C226,71.5,225.1,76.8,222.8,76.8z"/>
	<path fill="currentColor" d="M237.3,69.2c1.7-0.6,4-2,4-4.1c0-2-3.4-2-4.7-2c-2.6,0-5.2,0.4-7.7,1.1l0.2,0.5c0.8-0.2,1.5-0.4,2.3-0.5
		c0,4.4,0,8.8,0.2,13.2c-0.8,0-1.7,0-2.6,0v0.5h3c3.5,0,10.5-0.2,10.4-5C242.3,70.5,239.3,69.4,237.3,69.2z M236.7,63.8h0.7
		c1.1,0,2,0.5,2,1.7c0,1.2-1.6,2.9-2.6,3.3V63.8z M236.6,76.9v-7.1c1.7,0,3.2,1.4,3.2,3.1C239.8,75.1,238.5,76.2,236.6,76.9z"/>
	<path fill="currentColor" d="M257.2,77.2c-1.2-4.2-4.3-12.1-6.9-15.5l-0.5,0.2c0.1,0.2,0.2,0.5,0.2,0.7c0,0.6-6,13.2-6.7,14.8h-1.4
		l0.1,0.5c2.6,0,5-0.1,7.5-0.1v-0.5c-2.6,0-3.5-0.3-3.5-3.2c0-0.8,0.1-1.7,0.5-2.4c0.7,0,1.4-0.1,2.5-0.1c0.6,0,1.4,0,2.4,0.1
		c0.5,1.1,1.1,3.2,1.1,4.4c0,0.4-0.1,0.9-0.3,1.2c-0.6,0-1.3,0-1.9,0.1l0.1,0.5c1.9-0.2,3.8-0.3,5.8-0.3c0.9,0,1.9,0,2.8,0.1
		l0.2-0.5c-0.3-0.1-0.6-0.1-0.8-0.1C257.9,77.2,257.6,77.2,257.2,77.2z M249.8,71.3c-1.1,0-2.1,0.1-3.2,0.1l2-4.3
		c0.9,1.4,1.8,2.8,2.4,4.2H249.8z"/>
</g>
</svg>
