<?xml version="1.0" encoding="utf-8"?>
<!-- Generator: Adobe Illustrator 25.4.1, SVG Export Plug-In . SVG Version: 6.00 Build 0)  -->
<svg version="1.1" id="Layer_1" xmlns="http://www.w3.org/2000/svg" xmlns:xlink="http://www.w3.org/1999/xlink" x="0px" y="0px"
	 viewBox="0 0 2600 1200" enable-background="new 0 0 2600 1200" xml:space="preserve">
<path d="M282.2,180l52.4,0c-3.6,30.4-8.2,61.3-24.9,87.5c-7.8,11.1-17.3,19.2-29.6,25l-0.1-72.5c0-11.3-1.3-24.1,0.3-35.2
	C280.5,183,281.2,181.5,282.2,180z"/>
<path d="M1620.5,422.5c0.8-0.1,1.6-0.1,2.3-0.1c4.7,0.3,54,34.7,58.2,39.7c0,0.2,0,0.5-0.1,0.7c-0.9,2.8-67.8,78.6-75.3,83.6
	c0,0.2,0,0.4-0.1,0.6c-0.9,3-5.2,6.4-7.8,8.2c-4.2-5.9-37.3-26.4-45-29.9C1557.8,521.9,1619.6,427,1620.5,422.5z"/>
<path d="M321.7,951.4c16,2.1,37.3-0.3,55.3,1.7c68.4,7.4,137.5,32.1,196.9,66.8h-41.4l-166.8,0c-24.2,0-61.3,2.2-84.3-1.4
	c-3.6-7.1-1.5-53.1-1.5-64.1C293.8,953.4,308.1,953.4,321.7,951.4z"/>
<path d="M699.9,558.3c0.9,17.1,0.1,34.5,0.1,51.6l0,99.3l0,91.5c0,16.4,0.7,33.1-0.2,49.5l-1.2,0.6c-7-1.2-13.7-3.8-20.4-6.1
	c-26.1-9-46.5-21.3-68.1-38.2c-15.9-12.8-33.6-32.2-41.5-51.3c-9.2-22.2-5.2-45.3,3.8-66.7C591.7,642.2,653.2,577.3,699.9,558.3z"/>
<path d="M332.1,835.6c16-2.8,52,7.3,67.3,13c31.9,11.8,62.3,27.9,92.8,43.1c42.6,20.8,84.8,42.6,126.4,65.3
	c27.3,15,54.1,30.9,81.4,45.9c0.1,4.7,1,11.5-1.7,15.6c-7.5,3.7-43.3,1.6-53.8,1.5H588c-3.2-2.7-7.4-4.6-11.1-6.6
	c-76.9-42.7-165.4-73.7-254.2-69.8c-13.6,0.6-29.6,0.8-42.6,4.5V843.6C297,838.2,314.3,835.9,332.1,835.6z"/>
<path d="M342.4,180l63.7,0c10.4,0,22.6-1.2,32.7,0.8c3.3,9.9,4.4,21.3,6.1,31.7c7.5,46,11.9,94.9-2.3,140.2
	c-11.1,35.3-35.9,68.4-69.1,85.9c-28.8,17-60.8,21.1-93.7,17.8l0.1-156.4c7.3-3.1,14-6.6,20.2-11.6
	C331.2,263.6,338.5,216.8,342.4,180z"/>
<path d="M1312.2,471.5c1.8-0.2,3.4,0,5.2,0.2c2.3,13.6,0.4,43.7,0.4,59l0,184.8v58c0,12-0.5,24.2,0.6,36.2c0.7,8,2,17.7,7.2,24.1
	c9.2,11.6,23.8,13.8,37.6,15.5c0.2,0.5,0.3,0.7,0.4,1.3c1.3,5.7-9.1,65.9-12.2,70.4c-21.5,0.2-42.3-3.2-63-8.6c-1-0.6-2.2-1-3.2-1.5
	c-18.4-8.3-35.5-18.4-44.2-37.7c-5.4-11.9-7.7-25.6-8.9-38.5c-3-32.9-1-70.7-1-104.1l0-183.4c0.1-13.2,2.5-52.8-1.2-62.6
	c12.4-1.2,24.9-3.7,37.2-5.7C1282,476.7,1297.3,474.7,1312.2,471.5z"/>
<path d="M446.4,180h73.4c5.6,19.2,11.7,38.1,16.1,57.6c17.8,78.9,10.3,137.2-33.3,205.9c-33.2,52.4-87.1,97.2-148.4,111
	c-24.9,5.6-49,4.2-74.2,2.3v-92c15.2,1,29.9,0.8,45-1.7c1.3-0.2,2.5-0.4,3.8-0.7c1.3-0.2,2.5-0.5,3.8-0.7s2.5-0.5,3.8-0.8
	c1.3-0.3,2.5-0.6,3.7-0.9c1.2-0.3,2.5-0.7,3.7-1c1.2-0.4,2.5-0.7,3.7-1.1c1.2-0.4,2.4-0.8,3.7-1.2c1.2-0.4,2.4-0.9,3.6-1.3
	c1.2-0.4,2.4-0.9,3.6-1.4c1.2-0.5,2.4-1,3.6-1.5c1.2-0.5,2.4-1,3.5-1.6c1.2-0.5,2.3-1.1,3.5-1.7c1.2-0.6,2.3-1.1,3.4-1.7
	c1.1-0.6,2.3-1.2,3.4-1.8c1.1-0.6,2.2-1.3,3.3-1.9c1.1-0.6,2.2-1.3,3.3-2c1.1-0.7,2.2-1.4,3.2-2.1c1.1-0.7,2.1-1.4,3.2-2.2
	c1.1-0.7,2.1-1.5,3.1-2.2c1-0.8,2.1-1.5,3.1-2.3c1-0.8,2-1.6,3-2.4c1-0.8,2-1.6,3-2.5c1-0.8,1.9-1.7,2.9-2.5c1-0.9,1.9-1.7,2.8-2.6
	c0.9-0.9,1.9-1.8,2.8-2.7c0.9-0.9,1.8-1.8,2.7-2.7c0.9-0.9,1.8-1.9,2.6-2.8c0.9-0.9,1.7-1.9,2.6-2.9c0.8-1,1.7-1.9,2.5-2.9
	c0.8-1,1.6-2,2.4-3c0.8-1,1.6-2,2.3-3.1c0.8-1,1.5-2.1,2.3-3.1C474.6,332.6,459.2,255.1,446.4,180z"/>
<path d="M1851.2,523.5l3.6,0.8c1.4,8.9,1.6,81.4-1.1,87.2h101.7c0.8,1.2,1.4,2.6,1.7,4c1.4,7,1.2,64.3-1.4,68.5h-102.1
	c3.1,4.9,1.6,16.1,1.5,21.9l-0.2,56c0,15.3-0.7,31.1,1.8,46.2c1.4,8.4,3.9,17,8.8,24.1c5.3,7.7,13.2,11.5,22.3,13.2
	c15.7,2.8,54.9,0.3,68.1-8.9c0.5,0.7,0.4,0.6,0.8,1.5c2.7,5.4,11.2,49,9.4,54.5c0.4,0.8,0.8,1.5,1.2,2.3c1.6,3.4,1.9,6.2,0.6,9.8
	c-1.1,0.9-2.3,1.4-3.6,2c-38.5,16.7-95.9,19.7-135.1,3.8c-23.2-9.5-40.7-26.9-50-50.2c-5.8-14.4-8.2-30.1-9.6-45.6
	c-2.6-29.5-1.2-59.8-1.2-89.4l0-134.4c0.1-11.2,2.3-45.5-1.2-53.2c-0.1-0.2-0.2-0.4-0.3-0.6C1794,534.2,1824.5,528.7,1851.2,523.5z"
	/>
<path d="M528.3,180h81c27,61.3,60.2,107,39.1,177.5c-31.8,106.3-169,247.6-262,306.3c-6.5,4.1-14,6.4-20.7,10l-1,0.6
	c-28,9.8-56,11.5-84.7,3.3l0-113c25,2.6,49,2.7,73.6-2.8c65.1-14.4,121.4-62.1,156.6-117.4c43.4-68.1,50.8-126,33.4-203.7
	C539.1,220.4,532.8,200.4,528.3,180z"/>
<path d="M1531.2,605.5c32.3-2.6,69-1.4,98.9,12.3c22.4,10.2,38.8,27.5,47.4,50.6c5,13.5,7.4,28,8.5,42.4
	c1.2,15.5,2.4,188.1-0.7,194.8c-13,4.8-29.9,6.3-43.6,8.5c-45.1,7.5-119.9,12.8-162-5.8c-12.6-5.6-21.8-14-32.8-21.8
	c-0.5-4.1-7.9-11.9-10.1-16c-11.8-22.8-14.1-55.5-6.2-79.9c7.1-21.8,22.7-38.1,42.8-48.3c30.6-15.5,96.1-22.2,128.8-11.4
	c0.1-0.2,0.2-0.3,0.3-0.5c2.6-5.2,0.3-15.7-1.2-21c-3-11-8.8-19.7-18.9-25.2c-29.1-15.9-88-3.7-118.6,5.1c0.3-0.7,0.4-0.9,0.5-1.6
	c0.9-4.3-8.8-65.3-11.3-68.8C1479.5,613.2,1504.5,608.2,1531.2,605.5z M1552.2,785.5c-12.9,2-26,4.8-34.3,15.9
	c-5,6.7-6.8,15.4-5.5,23.5c1.3,8,5.4,15,12,19.7c10.6,7.5,24.7,8.7,37.3,8.6c13.4,0,27,0.1,40.3-1.9c2.3-4.1,2.6-55.2,1-61.6
	c-0.2-0.7-0.5-1.2-0.9-1.8C1585.5,784.8,1569.2,784.5,1552.2,785.5z"/>
<path d="M2152.2,603.5c41.5-3,81.3,4.5,113.9,31.8c31.8,26.6,48.6,66.1,52.2,106.8c3.9,45-5.4,94.1-35.1,129.4
	c-24.7,29.3-59.3,44.7-97,48.1c-0.2,0-0.5,0.1-0.7,0.1c-33.1,5.3-76.3-7-103.2-26.6c-32.7-23.9-51.9-61.6-57.9-101.1
	c-6.9-45.5,0.9-94.9,28.7-132.5C2077.6,626.5,2112.3,609.6,2152.2,603.5z M2163.2,677.5c-16.3,3.4-28.4,9.6-37.9,23.8
	c-16.1,24.1-17.7,61.2-12,88.9c3.8,18.2,12.2,36.8,28.1,47.4c9.3,6.2,23,9.7,34.2,7.6c0.2,0,0.4-0.1,0.6-0.1
	c13.8-0.8,25.4-6.4,34.5-16.8c18.2-20.8,21.6-53.4,19.6-80c-1.6-21.5-7.7-45-24.9-59.4C2193.5,679.1,2178.4,676.2,2163.2,677.5z"/>
<path d="M978.8,606.3c27.6-1.2,54.6-0.5,81.1,8.2c34.6,11.4,63,34.4,79.5,67.1c22.4,44.4,23.1,104.1,7.4,150.7
	c-10.8,32.1-31.2,59.7-62,74.9c-27.8,13.8-64,16.4-94.1,9.4c-9-2.1-17.9-5.6-26.7-8.5c-1.3,1.5-1,3.6-1,5.6v92l-86.8,14.2V623
	C909.7,613.4,944.1,608.8,978.8,606.3z M979.2,680.6l-16.2,1.8V835c19.2,10.5,44.2,15.1,65.5,8.9c2.6-0.8,5.1-1.7,7.6-2.9
	c2.4-1.1,4.8-2.5,7.1-3.9c17.5-15,23.3-35,25-57.2c2.1-27.2-1.3-58.8-19.9-80.2c-11.3-13-27.2-18.7-44.1-19.7
	C996.1,679.5,987.2,679.7,979.2,680.6z"/>
<path d="M630.9,180c9.1,0,62.2-2,67.7,1.9c3.4,6,1.4,331,1.4,368.7c-3.7,1.6-7.3,3.3-10.9,5.2c-48.6,24.8-113.1,92.6-129.5,145.1
	c-6.8,21.8-3.7,45.7,6.8,65.7c25.7,48.9,83.3,77.4,133.7,93v121.2c-56.6-33.7-115.2-66-174.7-94.5c-23.5-13.8-49.9-25.3-74.8-36.5
	c-10.6-4.8-20.7-10.5-31.4-15.2c-47.6-20.5-88.9-25-139.1-12.1V698.7c34.9,8.1,69,5.2,101.4-10.6c100.2-49,248.8-214.7,284.6-319.7
	c18.4-53.9,8.3-93.2-14.3-143.4C645,209.9,638.1,194.9,630.9,180z"/>
</svg>
