<?xml version="1.0" encoding="UTF-8"?>
<svg id="Layer_2" data-name="Layer 2" xmlns="http://www.w3.org/2000/svg" viewBox="0 0 196.29 75.37">
  <defs>
    <style>
      .cls-1 {
        fill: #004737;
        stroke-width: 0px;
      }
    </style>
  </defs>
  <g id="_контент" data-name="контент">
    <g>
      <path class="cls-1" d="M53.77,6.1l-7.72-4.37c-3.95-2.28-8.89-2.32-12.91-.07L14.04,12.69C5.38,17.69,0,27.01,0,37.01v23.53c0,1.74,1.41,3.16,3.16,3.16s3.16-1.41,3.16-3.16v-23.53c0-7.75,4.17-14.97,10.88-18.85l19.06-11.01c2.06-1.15,4.6-1.13,6.66.06l7.72,4.37c2.07,1.2,3.36,3.43,3.36,5.83v30.54c0,2.4-1.29,4.63-3.36,5.83l-26.42,15.25v-9.73c0-2.45,1.31-4.74,3.43-5.97l12.25-7.15c1.51-.88,2.01-2.81,1.14-4.32-.88-1.51-2.81-2.01-4.32-1.14l-12.25,7.15c-.08.05-.16.1-.25.16v-9.88c0-2.41,1.29-4.66,3.37-5.87l15.31-8.93c1.51-.88,2.01-2.81,1.14-4.32-.88-1.51-2.81-2.01-4.32-1.14l-15.31,8.93c-4.01,2.34-6.5,6.68-6.5,11.32v30.93c0,2.27,1.17,4.3,3.14,5.44.98.57,2.06.85,3.14.85s2.16-.28,3.14-.85l26.46-15.28c4.02-2.32,6.52-6.65,6.52-11.29v-30.54c0-4.64-2.5-8.97-6.54-11.31Z"/>
      <g>
        <g>
          <path class="cls-1" d="M108.57,59.13h-4.55v-17.5l-7.11,15.45c-.58,1.25-1.82,2.05-3.2,2.05h0c-1.37,0-2.62-.8-3.2-2.04l-7.11-15.31v17.35h-4.55v-23.97h6.23l8.73,19.22,8.63-19.22h6.14v23.97Z"/>
          <path class="cls-1" d="M119.19,35.17v23.97h-4.55v-23.97h4.55Z"/>
          <path class="cls-1" d="M136.04,34.69c5.27,0,10.02,3.4,11.36,8.39h-4.99c-1.1-2.54-3.64-4.17-6.61-4.17-4.55,0-7.81,3.6-7.81,8.25s3.26,8.25,7.81,8.25c2.97,0,5.51-1.63,6.61-4.17h4.99c-1.34,4.99-6.09,8.39-11.36,8.39-7.19,0-12.75-5.42-12.75-12.46s5.56-12.46,12.75-12.46Z"/>
          <path class="cls-1" d="M170.06,39.48h-8.39s0,19.65,0,19.65h-4.55s0-19.65,0-19.65h-8.39s0-4.31,0-4.31h21.33v4.31Z"/>
          <path class="cls-1" d="M170.89,47.15c0-7.05,5.56-12.46,12.75-12.46s12.65,5.42,12.65,12.46-5.51,12.46-12.65,12.46-12.75-5.42-12.75-12.46ZM191.6,47.15c0-4.65-3.45-8.25-7.96-8.25s-8.05,3.6-8.05,8.25,3.5,8.25,8.05,8.25,7.96-3.6,7.96-8.25Z"/>
        </g>
        <g>
          <path class="cls-1" d="M102.06,21.55h-19.65c.67,3.74,3.84,6.38,7.57,6.38,3.36,0,5.42-1.34,6.62-3.4h4.7c-1.53,4.46-6.04,7.62-11.31,7.62-7.14,0-12.32-5.27-12.32-12.46s5.18-12.46,12.27-12.46c7.86,0,12.75,5.61,12.13,14.33ZM82.46,17.57h14.72c-.38-3.88-3.4-6.33-7.33-6.33s-6.76,2.64-7.38,6.33Z"/>
          <path class="cls-1" d="M128.5,27.4v4.27h-1.29c-7.57,0-11.98-9.83-15.87-9.83h-.48v9.83s-4.55,0-4.55,0V7.7s4.55,0,4.55,0v10.59s11.46-10.59,11.46-10.59h5.7l-12.56,11.41c4.46,1.97,8.44,8.29,12.32,8.29h.72Z"/>
          <path class="cls-1" d="M129.33,19.68c0-7.05,5.56-12.46,12.75-12.46s12.66,5.42,12.66,12.46-5.51,12.46-12.66,12.46-12.75-5.42-12.75-12.46ZM150.03,19.68c0-4.65-3.45-8.25-7.96-8.25s-8.05,3.6-8.05,8.25,3.5,8.25,8.05,8.25,7.96-3.6,7.96-8.25Z"/>
        </g>
      </g>
    </g>
  </g>
</svg>