<?xml version="1.0" encoding="UTF-8"?>
<svg id="Layer_2" data-name="Layer 2" xmlns="http://www.w3.org/2000/svg" viewBox="0 0 587.08 148.76">
  <defs>
    <style>
      .cls-1 {
        fill: #004737;
        stroke-width: 0px;
      }
    </style>
  </defs>
  <g id="_контент" data-name="контент">
    <g>
      <path class="cls-1" d="M106.14,12.05l-15.24-8.62c-7.8-4.5-17.54-4.58-25.49-.14L27.71,25.05C10.62,34.92,0,53.31,0,73.04v46.45c0,3.44,2.79,6.23,6.23,6.23s6.23-2.79,6.23-6.23v-46.45c0-15.3,8.23-29.55,21.48-37.2l37.63-21.72c4.06-2.26,9.08-2.23,13.15.12l15.24,8.62c4.09,2.36,6.64,6.77,6.64,11.5v60.27c0,4.73-2.54,9.13-6.64,11.5l-52.14,30.1v-19.21c0-4.84,2.59-9.35,6.77-11.79l24.18-14.11c2.97-1.73,3.98-5.55,2.24-8.52-1.73-2.97-5.55-3.97-8.52-2.24l-24.19,14.11c-.17.1-.33.21-.49.31v-19.49c0-4.75,2.55-9.19,6.66-11.59l30.22-17.63c2.97-1.73,3.98-5.55,2.24-8.52-1.73-2.97-5.55-3.97-8.52-2.24l-30.22,17.63c-7.92,4.62-12.84,13.18-12.84,22.35v61.05c0,4.48,2.32,8.49,6.2,10.73,1.94,1.12,4.07,1.68,6.2,1.68s4.26-.56,6.2-1.68l52.23-30.16c7.94-4.58,12.87-13.12,12.87-22.29v-60.27c0-9.16-4.93-17.7-12.91-22.31Z"/>
      <g>
        <g>
          <path class="cls-1" d="M395.1,90.94h-9.97v-38.29l-15.56,33.8c-1.26,2.73-3.99,4.49-7,4.49h0c-3,0-5.73-1.74-6.99-4.46l-15.55-33.51v37.97h-9.97v-52.45h13.64l19.09,42.06,18.88-42.06h13.43v52.45Z"/>
          <path class="cls-1" d="M418.34,38.49v52.45h-9.97v-52.45h9.97Z"/>
          <path class="cls-1" d="M455.23,37.44c11.54,0,21.92,7.45,24.86,18.36h-10.91c-2.41-5.56-7.97-9.13-14.47-9.13-9.97,0-17.1,7.87-17.1,18.04s7.13,18.04,17.1,18.04c6.5,0,12.06-3.57,14.47-9.13h10.91c-2.94,10.91-13.32,18.36-24.86,18.36-15.74,0-27.9-11.85-27.9-27.28s12.17-27.28,27.9-27.28Z"/>
          <path class="cls-1" d="M529.67,47.93h-18.36s0,43.01,0,43.01h-9.97s0-43.01,0-43.01h-18.36s0-9.44,0-9.44h46.68v9.44Z"/>
          <path class="cls-1" d="M531.48,64.71c0-15.42,12.17-27.28,27.9-27.28s27.69,11.85,27.69,27.28-12.06,27.28-27.69,27.28-27.9-11.85-27.9-27.28ZM576.8,64.71c0-10.17-7.56-18.04-17.42-18.04s-17.62,7.87-17.62,18.04,7.66,18.04,17.62,18.04,17.42-7.87,17.42-18.04Z"/>
        </g>
        <g>
          <path class="cls-1" d="M205.89,68.8h-43.01c1.47,8.18,8.39,13.95,16.57,13.95,7.34,0,11.85-2.94,14.48-7.45h10.28c-3.36,9.75-13.22,16.68-24.76,16.68-15.63,0-26.96-11.54-26.96-27.28s11.33-27.28,26.85-27.28c17.2,0,27.9,12.27,26.54,31.37ZM162.98,60.1h32.2c-.84-8.5-7.45-13.84-16.05-13.84s-14.79,5.77-16.15,13.84Z"/>
          <path class="cls-1" d="M263.74,81.6v9.34h-2.83c-16.57,0-26.23-21.51-34.72-21.51h-1.05v21.51s-9.97,0-9.97,0v-52.45s9.97,0,9.97,0v23.18s25.07-23.18,25.07-23.18h12.48l-27.48,24.97c9.76,4.3,18.47,18.15,26.96,18.15h1.57Z"/>
          <path class="cls-1" d="M265.55,64.71c0-15.42,12.17-27.28,27.9-27.28s27.7,11.85,27.7,27.28-12.06,27.28-27.7,27.28-27.9-11.85-27.9-27.28ZM310.87,64.71c0-10.17-7.55-18.04-17.42-18.04s-17.62,7.87-17.62,18.04,7.66,18.04,17.62,18.04,17.42-7.87,17.42-18.04Z"/>
        </g>
      </g>
    </g>
  </g>
</svg>