<?xml version="1.0" encoding="UTF-8"?>
<svg id="Layer_2" data-name="Layer 2" xmlns="http://www.w3.org/2000/svg" viewBox="0 0 196.33 107.68">
  <defs>
    <style>
      .cls-1 {
        fill: #004737;
        stroke-width: 0px;
      }
    </style>
  </defs>
  <g id="_контент" data-name="контент">
    <g>
      <path class="cls-1" d="M119.22,5.44l-6.88-3.9c-3.53-2.03-7.92-2.07-11.51-.06l-17.04,9.83c-7.72,4.46-12.52,12.77-12.52,21.68v20.99c0,1.55,1.26,2.81,2.81,2.81s2.81-1.26,2.81-2.81v-20.99c0-6.91,3.72-13.35,9.7-16.81l17-9.81c1.83-1.02,4.1-1.01,5.94.06l6.88,3.9c1.85,1.07,3,3.06,3,5.19v27.23c0,2.14-1.15,4.13-3,5.19l-23.56,13.6v-8.68c0-2.18,1.17-4.23,3.06-5.33l10.93-6.38c1.34-.78,1.8-2.51,1.01-3.85-.78-1.34-2.51-1.8-3.85-1.01l-10.93,6.38c-.08.04-.15.09-.22.14v-8.81c0-2.15,1.15-4.15,3.01-5.24l13.65-7.97c1.34-.78,1.8-2.51,1.01-3.85-.78-1.34-2.51-1.8-3.85-1.01l-13.65,7.97c-3.58,2.09-5.8,5.96-5.8,10.1v27.58c0,2.02,1.05,3.84,2.8,4.85.88.51,1.84.76,2.8.76s1.92-.25,2.8-.76l23.6-13.62c3.59-2.07,5.81-5.93,5.81-10.07V15.52c0-4.14-2.23-8-5.83-10.08Z"/>
      <g>
        <g>
          <path class="cls-1" d="M109.6,107.2h-4.5v-17.3l-7.03,15.27c-.57,1.24-1.8,2.03-3.16,2.03h0c-1.36,0-2.59-.79-3.16-2.02l-7.03-15.14v17.16h-4.5v-23.7h6.16l8.63,19,8.53-19h6.07v23.7Z"/>
          <path class="cls-1" d="M120.1,83.51v23.7h-4.5v-23.7h4.5Z"/>
          <path class="cls-1" d="M136.76,83.03c5.21,0,9.9,3.37,11.23,8.29h-4.93c-1.09-2.51-3.6-4.12-6.54-4.12-4.5,0-7.73,3.56-7.73,8.15s3.22,8.15,7.73,8.15c2.94,0,5.45-1.61,6.54-4.12h4.93c-1.33,4.93-6.02,8.29-11.23,8.29-7.11,0-12.61-5.36-12.61-12.32s5.5-12.32,12.61-12.32Z"/>
          <path class="cls-1" d="M170.4,87.77h-8.29s0,19.43,0,19.43h-4.5s0-19.43,0-19.43h-8.29s0-4.27,0-4.27h21.09v4.27Z"/>
          <path class="cls-1" d="M171.22,95.36c0-6.97,5.5-12.32,12.61-12.32s12.51,5.36,12.51,12.32-5.45,12.32-12.51,12.32-12.61-5.36-12.61-12.32ZM191.69,95.36c0-4.6-3.41-8.15-7.87-8.15s-7.96,3.56-7.96,8.15,3.46,8.15,7.96,8.15,7.87-3.56,7.87-8.15Z"/>
        </g>
        <g>
          <path class="cls-1" d="M24.12,97.2H4.69c.66,3.7,3.79,6.3,7.49,6.3,3.32,0,5.36-1.33,6.54-3.37h4.64c-1.52,4.41-5.97,7.54-11.18,7.54-7.06,0-12.18-5.21-12.18-12.32s5.12-12.32,12.13-12.32c7.77,0,12.6,5.55,11.99,14.17ZM4.74,93.27h14.55c-.38-3.84-3.36-6.25-7.25-6.25s-6.68,2.61-7.3,6.25Z"/>
          <path class="cls-1" d="M50.26,102.99v4.22h-1.28c-7.49,0-11.85-9.72-15.69-9.72h-.47v9.72s-4.5,0-4.5,0v-23.7s4.5,0,4.5,0v10.47s11.33-10.47,11.33-10.47h5.64l-12.42,11.28c4.41,1.94,8.34,8.2,12.18,8.2h.71Z"/>
          <path class="cls-1" d="M51.07,95.36c0-6.97,5.5-12.32,12.6-12.32s12.51,5.36,12.51,12.32-5.45,12.32-12.51,12.32-12.6-5.36-12.6-12.32ZM71.55,95.36c0-4.6-3.41-8.15-7.87-8.15s-7.96,3.56-7.96,8.15,3.46,8.15,7.96,8.15,7.87-3.56,7.87-8.15Z"/>
        </g>
      </g>
    </g>
  </g>
</svg>