<svg id="Layer_1" data-name="Layer 1" xmlns="http://www.w3.org/2000/svg" viewBox="0 0 53.76 67.2"><defs><style>.cls-1{fill:#004737;}</style></defs><g id="_контент" data-name=" контент"><path class="cls-1" d="M704.07,356.61l-6.88-3.9a11.69,11.69,0,0,0-11.51-.06l-17,9.83a25.12,25.12,0,0,0-12.52,21.68v21a2.81,2.81,0,0,0,5.62,0v-21a19.48,19.48,0,0,1,9.7-16.81l17-9.81a6,6,0,0,1,5.94.06l6.88,3.9a6,6,0,0,1,3,5.19v27.23a6,6,0,0,1-3,5.19l-23.56,13.6V404a6.19,6.19,0,0,1,3.06-5.33l10.93-6.38a2.81,2.81,0,1,0-2.84-4.86l-10.93,6.38a1.64,1.64,0,0,0-.22.14v-8.81a6.09,6.09,0,0,1,3-5.24l13.65-8a2.81,2.81,0,0,0-2.84-4.86l-13.65,8a11.73,11.73,0,0,0-5.8,10.1v27.58a5.59,5.59,0,0,0,8.4,4.85L704.07,404a11.65,11.65,0,0,0,5.81-10.07V366.69a11.67,11.67,0,0,0-5.83-10.08Z" transform="translate(-656.12 -351.16)"/></g></svg>