<?xml version="1.0" encoding="UTF-8"?>
<svg id="Layer_2" data-name="Layer 2" xmlns="http://www.w3.org/2000/svg" viewBox="0 0 117.49 121.06">
  <defs>
    <style>
      .cls-1 {
        fill: #004737;
        stroke-width: 0px;
      }
    </style>
  </defs>
  <g id="_контент" data-name="контент">
    <g>
      <path class="cls-1" d="M50.84,4.64l-5.87-3.32c-3.01-1.74-6.76-1.76-9.82-.05l-14.53,8.39c-6.59,3.8-10.68,10.89-10.68,18.49v17.9c0,1.33,1.07,2.4,2.4,2.4s2.4-1.07,2.4-2.4v-17.9c0-5.89,3.17-11.39,8.28-14.33l14.5-8.37c1.56-.87,3.5-.86,5.07.05l5.87,3.32c1.58.91,2.56,2.61,2.56,4.43v23.22c0,1.82-.98,3.52-2.56,4.43l-20.09,11.6v-4.78s0-2.62,0-2.62c0-1.86,1-3.6,2.61-4.54l9.32-5.44c1.14-.67,1.53-2.14.86-3.28-.67-1.15-2.14-1.53-3.28-.86l-9.32,5.44c-.06.04-.13.08-.19.12v-7.51c0-1.83.98-3.54,2.56-4.47l11.64-6.79c1.14-.67,1.53-2.14.86-3.28-.67-1.15-2.14-1.53-3.28-.86l-11.64,6.79c-3.05,1.78-4.95,5.08-4.95,8.61v16.08s0,2.62,0,2.62v4.82c0,1.73.89,3.27,2.39,4.14.75.43,1.57.65,2.39.65s1.64-.22,2.39-.65l20.13-11.62c3.06-1.77,4.96-5.06,4.96-8.59V13.24c0-3.53-1.9-6.82-4.98-8.6Z"/>
      <g>
        <g>
          <path class="cls-1" d="M30.61,120.59h-4.51v-17.33s-7.04,15.3-7.04,15.3c-.57,1.24-1.81,2.03-3.17,2.03h0c-1.36,0-2.59-.79-3.16-2.02l-7.04-15.16v17.18H1.17s0-23.74,0-23.74h6.17s8.64,19.04,8.64,19.04l8.55-19.04h6.08s0,23.74,0,23.74Z"/>
          <path class="cls-1" d="M41.12,96.85v23.74s-4.51,0-4.51,0v-23.74s4.51,0,4.51,0Z"/>
          <path class="cls-1" d="M57.81,96.37c5.22,0,9.92,3.37,11.25,8.31h-4.94c-1.09-2.52-3.61-4.13-6.55-4.13-4.51,0-7.74,3.56-7.74,8.17s3.23,8.17,7.74,8.17c2.94,0,5.46-1.61,6.55-4.13h4.94c-1.33,4.94-6.03,8.31-11.25,8.31-7.12,0-12.63-5.36-12.63-12.34,0-6.98,5.51-12.34,12.63-12.34Z"/>
          <path class="cls-1" d="M91.5,101.12h-8.31s0,19.46,0,19.46h-4.51v-19.46s-8.31,0-8.31,0v-4.27h21.13v4.27Z"/>
          <path class="cls-1" d="M92.33,108.72c0-6.98,5.51-12.34,12.63-12.34,7.07,0,12.53,5.36,12.53,12.34,0,6.98-5.46,12.34-12.53,12.34s-12.63-5.36-12.63-12.34ZM112.83,108.72c0-4.6-3.42-8.17-7.88-8.17s-7.98,3.56-7.98,8.17,3.47,8.17,7.98,8.17c4.46,0,7.88-3.56,7.88-8.17Z"/>
        </g>
        <g>
          <path class="cls-1" d="M24.16,83.36H4.7c.67,3.7,3.8,6.31,7.5,6.31,3.32,0,5.36-1.33,6.55-3.37h4.65c-1.52,4.41-5.98,7.55-11.2,7.55-7.07,0-12.2-5.22-12.2-12.34s5.13-12.34,12.15-12.34c7.79,0,12.63,5.55,12.01,14.19ZM4.75,79.42h14.57c-.38-3.84-3.37-6.27-7.26-6.27-3.8,0-6.69,2.61-7.31,6.27Z"/>
          <path class="cls-1" d="M50.34,89.16v4.23h-1.28c-7.5,0-11.87-9.73-15.71-9.73h-.48s0,9.73,0,9.73h-4.51s0-23.74,0-23.74h4.51v10.49s11.34-10.49,11.34-10.49h5.65s-12.44,11.3-12.44,11.3c4.42,1.95,8.36,8.21,12.2,8.21h.71Z"/>
          <path class="cls-1" d="M51.16,81.51c0-6.98,5.51-12.34,12.63-12.34,7.07,0,12.53,5.36,12.53,12.34,0,6.98-5.46,12.34-12.53,12.34-7.12,0-12.63-5.36-12.63-12.34ZM71.67,81.51c0-4.6-3.42-8.17-7.88-8.17-4.51,0-7.97,3.56-7.97,8.17s3.47,8.17,7.97,8.17,7.88-3.56,7.88-8.17Z"/>
        </g>
      </g>
    </g>
  </g>
</svg>