<svg width="1326" height="877" viewBox="0 0 1326 877" fill="none" xmlns="http://www.w3.org/2000/svg">
<path fill-rule="evenodd" clip-rule="evenodd" d="M1031.7 24C1031.7 10.7452 1042.45 0 1055.7 0H1301.53C1314.78 0 1325.53 10.7452 1325.53 24V269.732C1325.53 282.987 1314.78 293.732 1301.53 293.732H1079.49C1066.24 293.732 1055.49 304.477 1055.49 317.732V559.268C1055.49 572.523 1066.24 583.268 1079.49 583.268H1200.79C1214.04 583.268 1224.79 594.013 1224.79 607.268V853C1224.79 866.255 1214.04 877 1200.79 877H954.965C941.71 877 930.965 866.255 930.965 853V712.171C930.965 698.916 920.22 688.171 906.965 688.171H318.35C305.095 688.171 294.35 698.916 294.35 712.171V851.601C294.35 864.856 283.605 875.601 270.35 875.601H24.5273C11.2725 875.601 0.527344 864.856 0.527344 851.601V605.869C0.527344 592.614 11.2725 581.869 24.5273 581.869H173.809C187.063 581.869 197.809 571.124 197.809 557.869V162.473C197.809 149.218 208.554 138.473 221.809 138.473H298.332C311.587 138.473 322.332 127.728 322.332 114.473V96.7344C322.332 83.4795 333.077 72.7344 346.332 72.7344H534.789C548.044 72.7344 558.789 83.4795 558.789 96.7344V114.473C558.789 127.728 569.534 138.473 582.789 138.473H1007.7C1020.96 138.473 1031.7 127.728 1031.7 114.473V24Z" fill="#004737"/>
</svg>
